<svg clip-rule="evenodd" fill-rule="evenodd" stroke-linejoin="round" stroke-miterlimit="1.41421" viewBox="0 0 32 32" xmlns="http://www.w3.org/2000/svg" xmlns:xlink="http://www.w3.org/1999/xlink"><clipPath id="a"><path clip-rule="evenodd" d="m0 0h32v32h-32z"/></clipPath><metadata/><path d="m0 0h32v32h-32z" fill="none"/><g clip-path="url(#a)"><path d="m7.528 18.761v-7.814c0-2.946.718-5.174 2.155-6.683 1.436-1.509 3.542-2.264 6.317-2.264 2.824 0 4.942.755 6.354 2.264s2.118 3.737 2.118 6.683v9.814c0 3.043-.706 5.344-2.118 6.902s-3.53 2.337-6.354 2.337c-5.648 0-8.472-3.08-8.472-9.239zm12.16-5.121c0-1.923-.286-3.31-.858-4.162-.572-.853-1.515-1.279-2.83-1.279s-2.252.426-2.812 1.279c-.56.852-.84 2.239-.84 4.162v4.72c0 1.923.28 3.317.84 4.181s1.497 1.296 2.812 1.296c1.339 0 2.288-.432 2.848-1.296.56-.865.84-2.258.84-4.181z" fill="none" stroke="#000" stroke-width="4"/><path d="m11 8h10v16h-10z"/><g fill-rule="nonzero"><path d="m16 30c-5.648 0-8.472-3.08-8.472-9.239v-7.814c0-2.946.718-5.174 2.155-6.683 1.436-1.509 3.542-2.264 6.317-2.264 2.824 0 4.942.755 6.354 2.264s2.118 3.737 2.118 6.683v7.814c0 3.043-.706 5.344-2.118 6.902s-3.53 2.337-6.354 2.337zm0-4.163c1.339 0 2.288-.432 2.848-1.296.56-.865.84-2.258.84-4.181v-6.72c0-1.923-.286-3.31-.858-4.162-.572-.853-1.515-1.279-2.83-1.279s-2.252.426-2.812 1.279c-.56.852-.84 2.239-.84 4.162v6.72c0 1.923.28 3.316.84 4.181.56.864 1.497 1.296 2.812 1.296z" fill="#747474"/><path d="m16 28c-5.648 0-8.472-3.08-8.472-9.239v-7.814c0-2.946.718-5.174 2.155-6.683 1.436-1.509 3.542-2.264 6.317-2.264 2.824 0 4.942.755 6.354 2.264s2.118 3.737 2.118 6.683v7.814c0 3.043-.706 5.344-2.118 6.902s-3.53 2.337-6.354 2.337zm0-4.163c1.339 0 2.288-.432 2.848-1.296.56-.865.84-2.258.84-4.181v-6.72c0-1.923-.286-3.31-.858-4.162-.572-.853-1.515-1.279-2.83-1.279s-2.252.426-2.812 1.279c-.56.852-.84 2.239-.84 4.162v6.72c0 1.923.28 3.316.84 4.181.56.864 1.497 1.296 2.812 1.296z" fill="#fff"/></g></g></svg>