<svg clip-rule="evenodd" fill-rule="evenodd" stroke-linejoin="round" stroke-miterlimit="1.41421" viewBox="0 0 32 32" xmlns="http://www.w3.org/2000/svg" xmlns:xlink="http://www.w3.org/1999/xlink"><clipPath id="a"><path clip-rule="evenodd" d="m0 0h32v32h-32z"/></clipPath><metadata/><path d="m0 0h32v32h-32z" fill="none"/><g clip-path="url(#a)"><path d="m32 8c0-4.418-3.582-8-8-8-4.887 0-11.113 0-16 0-4.418 0-8 3.582-8 8v16c0 4.418 3.582 8 8 8h16c4.418 0 8-3.582 8-8 0-4.887 0-11.113 0-16z"/><path d="m30 20h-28v4c0 3.314 2.686 6 6 6h16c3.314 0 6-2.686 6-6 0-2.126 0-4 0-4z" fill="#b2b2b2"/><path d="m30 8c0-3.314-2.686-6-6-6-4.724 0-11.276 0-16 0-1.591 0-3.117.632-4.243 1.757-1.125 1.126-1.757 2.652-1.757 4.243v12c0 3.314 2.686 6 6 6h16c1.591 0 3.117-.632 4.243-1.757 1.125-1.126 1.757-2.652 1.757-4.243 0-3.665 0-8.335 0-12z" fill="#fff"/><g fill="#333" fill-rule="nonzero"><path d="m9.003 8.875-3.622 2.095v-3.327l3.622-2.143h3.227v17h-3.227z"/><path d="m20.903 22.771c-3.811 0-5.716-2.078-5.716-6.233v-5.273c0-1.987.484-3.49 1.454-4.508.969-1.019 2.389-1.528 4.262-1.528 1.905 0 3.334.509 4.287 1.528.953 1.018 1.429 2.521 1.429 4.508v5.273c0 2.053-.476 3.605-1.429 4.656s-2.382 1.577-4.287 1.577zm0-2.809c.903 0 1.544-.291 1.922-.874.377-.583.566-1.524.566-2.821v-4.534c0-1.297-.193-2.233-.579-2.808s-1.022-.863-1.909-.863-1.519.288-1.897.863-.567 1.511-.567 2.808v4.534c0 1.297.189 2.238.567 2.821s1.01.874 1.897.874z"/></g></g></svg>