<svg clip-rule="evenodd" fill-rule="evenodd" stroke-linejoin="round" stroke-miterlimit="2" viewBox="0 0 32 32" xmlns="http://www.w3.org/2000/svg" xmlns:xlink="http://www.w3.org/1999/xlink"><clipPath id="a"><path clip-rule="evenodd" d="m0 0h32v32h-32z"/></clipPath><metadata/><path d="m0 0h32v32h-32z" fill="none"/><g clip-path="url(#a)"><path d="m20.021 3.553c1.42-1.898 3.835-2.959 6.286-2.551l.041.008.021.004h.002c1.79.297 3.372 1.333 4.365 2.847.994 1.515 1.311 3.38.871 5.139v.002c-.614 2.456-1.457 5.831-2.039 8.16l-.002.002c-.335 1.339-1.082 2.487-2.075 3.337.652.638 1.059 1.525 1.059 2.499 0 1.92-1.58 3.5-3.501 3.5-.016 0-.032 0-.049 0h-.486c.024.163.036.33.036.5 0 1.92-1.58 3.5-3.501 3.5-.016 0-.033 0-.049 0h-9.025c-.269 0-.536.044-.791.129-1.446.482-4.077 1.359-4.077 1.359-.357.119-.731.18-1.107.18-1.921 0-3.501-1.58-3.501-3.501 0-1.137.553-2.182 1.44-2.829-.233-.38-.395-.807-.468-1.262-1.802-.133-3.243-1.657-3.243-3.49 0-.316.043-.631.127-.936 0 0 1.756-7.019 3.006-12.021-1.167-.598-1.903-1.804-1.903-3.115 0-1.519.988-2.872 2.435-3.334 0 0 .805-.269 1.58-.528.744-.248 1.535-.28 2.281-.119.746.162 1.449.518 2.023 1.051.197.182.374.381.531.593 1.438-1.335 3.456-2.015 5.499-1.675l.041.008.021.004h.002c1.666.277 3.151 1.192 4.15 2.539z"/><path d="m21 25.5h.021c.823 0 1.5.677 1.5 1.5s-.677 1.5-1.5 1.5c-.007 0-.014 0-.021 0h-9.025c-.484 0-.965.077-1.424.23-1.446.483-4.076 1.36-4.076 1.36-.161.057-.33.085-.5.085-.823 0-1.5-.677-1.5-1.5 0-.653.427-1.235 1.05-1.431 0 0 2.632-.877 4.077-1.359.765-.255 1.566-.385 2.373-.385zm4-4h.021c.823 0 1.5.677 1.5 1.5s-.677 1.5-1.5 1.5c-.007 0-.014 0-.021 0h-14.025c-.484 0-.965.077-1.424.23-.882.295-2.076.694-2.076.694-.153.051-.314.077-.475.077-.823 0-1.501-.678-1.501-1.501 0-.644.415-1.22 1.026-1.424 0 0 1.196-.397 2.077-.691.765-.255 1.566-.385 2.373-.385zm-17.67-18.516c-.401-.086-.824-.067-1.225.067-.775.259-1.58.525-1.58.525-.611.204-1.026.78-1.026 1.424 0 .823.678 1.501 1.501 1.501.161 0 .322-.026.475-.077 0 0 .314-.106.406-.137-1.184 4.735-3.586 14.35-3.586 14.35-.036.129-.054.263-.054.397 0 .823.678 1.5 1.501 1.5.699 0 1.31-.489 1.463-1.171 0 0 2.859-11.433 3.887-15.547.206-.821-.057-1.693-.674-2.265-.309-.287-.687-.48-1.088-.567zm4.661 17.034c-.002 0-.026-.003-.034-.004-1.238-.206-2.334-.922-3.021-1.971-.688-1.049-.908-2.34-.604-3.559v-.002c.614-2.456 1.459-5.828 2.041-8.158v-.002c.567-2.261 2.804-3.731 5.106-3.347l.017.004.014.003c-.001 0 0 0 .002 0h-.002c.002 0 .025.003.031.004h.002c1.238.206 2.334.922 3.021 1.971.688 1.049.908 2.34.604 3.559v.002c-.614 2.456-1.459 5.828-2.041 8.158v.002c-.567 2.261-2.804 3.731-5.106 3.347l-.017-.003-.013-.004s-.001 0-.003 0zm10.5 0c-.002 0-.026-.003-.034-.004-1.238-.206-2.334-.922-3.021-1.971-.688-1.049-.908-2.34-.604-3.559v-.002c.614-2.456 1.459-5.828 2.041-8.158v-.002c.567-2.261 2.804-3.731 5.106-3.347l.017.004.014.003c-.001 0 0 0 .002 0h-.002c.002 0 .025.003.031.004h.002c1.238.206 2.334.922 3.021 1.971.688 1.049.908 2.34.604 3.559v.002c-.614 2.456-1.459 5.828-2.041 8.158v.002c-.567 2.261-2.804 3.731-5.106 3.347l-.017-.003-.013-.004s-.001 0-.003 0zm3.026-14.078c-.011-.002-.032-.006-.066-.012l.035.007c-.785-.13-1.509.343-1.703 1.116-.582 2.33-1.425 5.704-2.039 8.16-.102.408-.029.837.201 1.187.23.351.595.588 1.006.657l.018.002.014.003c.011.002.032.006.066.012l-.035-.008c.785.131 1.509-.342 1.703-1.115.582-2.33 1.425-5.704 2.039-8.16.102-.408.029-.837-.201-1.187-.23-.351-.595-.588-1.006-.657l-.018-.002zm-10.5 0c-.011-.002-.032-.006-.066-.012l.035.007c-.785-.13-1.509.343-1.703 1.116-.582 2.33-1.425 5.704-2.039 8.16-.102.408-.029.837.201 1.187.23.351.595.588 1.006.657l.018.002.014.003c.011.002.032.006.066.012l-.035-.008c.785.131 1.509-.342 1.703-1.115.582-2.33 1.425-5.704 2.039-8.16.102-.408.029-.837-.201-1.187-.23-.351-.595-.588-1.006-.657l-.018-.002zm7.966 11.12c-.01-.002-.009-.002.003.001zm-10.5 0c-.01-.002-.009-.002.003.001zm13.034-11.12c.01.002.009.002-.003-.001zm-10.5 0c.01.002.009.002-.003-.001z" fill="#e02a33"/></g></svg>