<svg clip-rule="evenodd" fill-rule="evenodd" stroke-linejoin="round" stroke-miterlimit="1.41421" viewBox="0 0 32 32" xmlns="http://www.w3.org/2000/svg" xmlns:xlink="http://www.w3.org/1999/xlink"><clipPath id="a"><path clip-rule="evenodd" d="m0 0h32v32h-32z"/></clipPath><metadata/><path d="m0 0h32v32h-32z" fill="none"/><g clip-path="url(#a)"><circle cx="16" cy="16" r="16"/><circle cx="16" cy="16" fill="#e02a33" r="14"/><circle cx="16" cy="16" r="12"/><g fill="#fff" fill-rule="nonzero"><path d="m8.523 12.595-1.975 1.43v-2.418l1.975-1.481h2.23v11.748h-2.23z"/><path d="m16.321 22.061c-.693 0-1.311-.139-1.856-.417s-.974-.678-1.286-1.2-.468-1.124-.468-1.805v-.392c0-.533.125-1.024.375-1.472.249-.449.601-.803 1.055-1.064-.363-.216-.655-.52-.877-.911-.221-.392-.332-.843-.332-1.354v-.306c0-.579.139-1.113.418-1.601.278-.488.672-.877 1.183-1.166.511-.29 1.112-.434 1.805-.434.692 0 1.297.144 1.813.434.516.289.911.678 1.183 1.166.273.488.409 1.022.409 1.601v.306c0 .499-.114.948-.341 1.345s-.516.704-.868.92c.454.272.803.632 1.047 1.081.244.448.366.928.366 1.438v.392c0 .692-.156 1.3-.468 1.822s-.743.922-1.294 1.2c-.55.278-1.172.417-1.864.417zm.017-7.236c.386 0 .692-.128.919-.383s.341-.582.341-.979v-.323c0-.375-.117-.687-.349-.937-.233-.25-.537-.374-.911-.374-.375 0-.679.124-.911.374-.233.25-.349.562-.349.937v.323c0 .409.113.738.34.988.227.249.534.374.92.374zm0 5.346c.442 0 .797-.141 1.064-.425s.4-.664.4-1.141v-.409c0-.454-.133-.823-.4-1.106-.267-.284-.622-.426-1.064-.426-.432 0-.784.142-1.056.426-.272.283-.409.652-.409 1.106v.409c0 .465.131.843.392 1.132.261.29.619.434 1.073.434z"/><path d="m22.834 16.943h-2.073v-1.886h2.073v-2.073h1.886v2.073h2.073v1.886h-2.073v2.073h-1.886z"/></g></g></svg>