<svg clip-rule="evenodd" fill-rule="evenodd" stroke-linejoin="round" stroke-miterlimit="1.41421" viewBox="0 0 32 32" xmlns="http://www.w3.org/2000/svg" xmlns:xlink="http://www.w3.org/1999/xlink"><clipPath id="a"><path clip-rule="evenodd" d="m0 0h32v32h-32z"/></clipPath><metadata/><path d="m0 0h32v32h-32z" fill="none"/><g clip-path="url(#a)"><path d="m32 8c0-4.418-3.582-8-8-8-4.887 0-11.113 0-16 0-4.418 0-8 3.582-8 8v16c0 4.418 3.582 8 8 8h16c4.418 0 8-3.582 8-8 0-4.887 0-11.113 0-16z"/><path d="m30 20h-28v4c0 3.314 2.686 6 6 6h16c3.314 0 6-2.686 6-6 0-2.126 0-4 0-4z" fill="#b2b2b2"/><path d="m30 8c0-3.314-2.686-6-6-6-4.724 0-11.276 0-16 0-1.591 0-3.117.632-4.243 1.757-1.125 1.126-1.757 2.652-1.757 4.243v12c0 3.314 2.686 6 6 6h16c1.591 0 3.117-.632 4.243-1.757 1.125-1.126 1.757-2.652 1.757-4.243 0-3.665 0-8.335 0-12z" fill="#fff"/><path d="m10.506 19.938 6.356-6.8c.542-.526.92-.998 1.134-1.417.213-.419.32-.875.32-1.367v-.271c0-.657-.218-1.175-.653-1.553-.435-.377-1.031-.566-1.786-.566-.739 0-1.322.18-1.749.542-.428.361-.641.862-.641 1.503v.394h-3.08v-.591c0-1.397.493-2.509 1.479-3.339.985-.829 2.332-1.244 4.04-1.244 1.15 0 2.152.201 3.006.604.854.402 1.507.965 1.959 1.687.451.723.677 1.552.677 2.489v.32c0 .871-.172 1.659-.517 2.365s-.879 1.421-1.602 2.144l-4.582 4.829h6.726v2.833h-11.087z" fill="#333" fill-rule="nonzero"/></g></svg>