<svg clip-rule="evenodd" fill-rule="evenodd" stroke-linecap="round" stroke-miterlimit="1.5" viewBox="0 0 32 32" xmlns="http://www.w3.org/2000/svg" xmlns:xlink="http://www.w3.org/1999/xlink"><clipPath id="a"><path clip-rule="evenodd" d="m0 0h32v32h-32z"/></clipPath><metadata/><path d="m0 0h32v32h-32z" fill="none"/><g clip-path="url(#a)"><path d="m10 15h12v9h-12z"/><path d="m2 30s0-1.348 0-3c0-1.591.632-3.117 1.757-4.243 1.126-1.125 2.652-1.757 4.243-1.757h3c1.591 0 3.117.632 4.243 1.757.284.285.538.596.757.926.219-.33.473-.641.757-.926 1.126-1.125 2.652-1.757 4.243-1.757h3c1.591 0 3.117.632 4.243 1.757 1.125 1.126 1.757 2.652 1.757 4.243v3h-28zm12-15.502c0-1.193-.474-2.337-1.317-3.181-.844-.843-1.988-1.317-3.181-1.317-.001 0-.003 0-.004 0-1.193 0-2.337.474-3.181 1.317-.843.844-1.317 1.988-1.317 3.181v1.004c0 1.193.474 2.337 1.317 3.181.844.843 1.988 1.317 3.181 1.317h.004c1.193 0 2.337-.474 3.181-1.317.843-.844 1.317-1.988 1.317-3.181 0-.334 0-.67 0-1.004zm13 0c0-1.193-.474-2.337-1.317-3.181-.844-.843-1.988-1.317-3.181-1.317-.001 0-.003 0-.004 0-1.193 0-2.337.474-3.181 1.317-.843.844-1.317 1.988-1.317 3.181v1.004c0 1.193.474 2.337 1.317 3.181.844.843 1.988 1.317 3.181 1.317h.004c1.193 0 2.337-.474 3.181-1.317.843-.844 1.317-1.988 1.317-3.181 0-.334 0-.67 0-1.004z" fill="none" stroke="#000" stroke-width="4"/><path d="m2 30s0-1.348 0-3c0-1.591.632-3.117 1.757-4.243 1.126-1.125 2.652-1.757 4.243-1.757h3c1.591 0 3.117.632 4.243 1.757.284.285.538.596.757.926.219-.33.473-.641.757-.926 1.126-1.125 2.652-1.757 4.243-1.757h3c1.591 0 3.117.632 4.243 1.757 1.125 1.126 1.757 2.652 1.757 4.243v3h-28zm12-15.502c0-1.193-.474-2.337-1.317-3.181-.844-.843-1.988-1.317-3.181-1.317-.001 0-.003 0-.004 0-1.193 0-2.337.474-3.181 1.317-.843.844-1.317 1.988-1.317 3.181v1.004c0 1.193.474 2.337 1.317 3.181.844.843 1.988 1.317 3.181 1.317h.004c1.193 0 2.337-.474 3.181-1.317.843-.844 1.317-1.988 1.317-3.181 0-.334 0-.67 0-1.004zm13 0c0-1.193-.474-2.337-1.317-3.181-.844-.843-1.988-1.317-3.181-1.317-.001 0-.003 0-.004 0-1.193 0-2.337.474-3.181 1.317-.843.844-1.317 1.988-1.317 3.181v1.004c0 1.193.474 2.337 1.317 3.181.844.843 1.988 1.317 3.181 1.317h.004c1.193 0 2.337-.474 3.181-1.317.843-.844 1.317-1.988 1.317-3.181 0-.334 0-.67 0-1.004z" fill="#666"/></g></svg>