<svg clip-rule="evenodd" fill-rule="evenodd" stroke-linejoin="round" stroke-miterlimit="1.41421" viewBox="0 0 32 32" xmlns="http://www.w3.org/2000/svg" xmlns:xlink="http://www.w3.org/1999/xlink"><clipPath id="a"><path clip-rule="evenodd" d="m0 0h32v32h-32z"/></clipPath><metadata/><path d="m0 0h32v32h-32z" fill="none"/><g clip-path="url(#a)"><path d="m24.382 11.678c0 1.31-.259 2.497-.779 3.56-.519 1.063-1.322 2.139-2.41 3.227l-5.001 5.27h8.227v6.265h-16.69v-5.857l9.569-10.237c.816-.791 1.385-1.502 1.706-2.133.198-.387.334-.795.41-1.223-.129-.639-.433-1.165-.91-1.58-.656-.569-1.552-.853-2.689-.853-1.113 0-1.991.272-2.634.816s-.964 1.298-.964 2.262v.594h-4.636v-2-.89c0-2.102.741-3.777 2.225-5.026s3.511-1.873 6.083-1.873c1.731 0 3.239.303 4.525.909 1.285.606 2.268 1.452 2.948 2.54s1.02 2.337 1.02 3.746z" fill="none" stroke="#000" stroke-width="4"/><path d="m11 8h10v5.789h-10z"/><path d="m24.382 9.678v2c0 1.31-.259 2.497-.779 3.56-.519 1.063-1.322 2.139-2.41 3.227l-6.899 7.27h8.125l2 2.265v2h-16.69v-2l1.576-3.543 7.993-8.551c.816-.791 1.385-1.502 1.706-2.133.322-.63.482-1.317.482-2.058v-.408c0-.989-.327-1.768-.982-2.337-.656-.569-1.552-.853-2.689-.853-1.113 0-1.991.272-2.634.816s-.964 1.298-.964 2.262v.594h-4.636v-2l.09-.112c.24-1.54.951-2.808 2.135-3.804 1.484-1.249 3.511-1.873 6.083-1.873 1.731 0 3.239.303 4.525.909 1.285.606 2.268 1.452 2.948 2.54.425.68.717 1.423.877 2.229z" fill="#737373"/><path d="m7.729 24.143 9.569-10.237c.816-.791 1.385-1.502 1.706-2.133.322-.63.482-1.317.482-2.058v-.408c0-.989-.327-1.768-.982-2.337-.656-.569-1.552-.853-2.689-.853-1.113 0-1.991.272-2.634.816s-.964 1.298-.964 2.262v.594h-4.636v-.89c0-2.102.741-3.777 2.225-5.026s3.511-1.873 6.083-1.873c1.731 0 3.239.303 4.525.909 1.285.606 2.268 1.452 2.948 2.54s1.02 2.337 1.02 3.746v.483c0 1.31-.259 2.497-.779 3.56-.519 1.063-1.322 2.139-2.41 3.227l-6.899 7.27h10.125v4.265h-16.69z" fill="#fff" fill-rule="nonzero"/></g></svg>