<svg clip-rule="evenodd" fill-rule="evenodd" stroke-linejoin="round" stroke-miterlimit="1.41421" viewBox="0 0 32 32" xmlns="http://www.w3.org/2000/svg" xmlns:xlink="http://www.w3.org/1999/xlink"><clipPath id="a"><path clip-rule="evenodd" d="m0 0h32v32h-32z"/></clipPath><metadata/><path d="m0 0h32v32h-32z" fill="none"/><g clip-path="url(#a)"><path d="m32 8c0-4.418-3.582-8-8-8-4.887 0-11.113 0-16 0-4.418 0-8 3.582-8 8v16c0 4.418 3.582 8 8 8h16c4.418 0 8-3.582 8-8 0-4.887 0-11.113 0-16z"/><path d="m30 20h-28v4c0 3.314 2.686 6 6 6h16c3.314 0 6-2.686 6-6 0-2.126 0-4 0-4z" fill="#b2b2b2"/><path d="m30 8c0-3.314-2.686-6-6-6-4.724 0-11.276 0-16 0-1.591 0-3.117.632-4.243 1.757-1.125 1.126-1.757 2.652-1.757 4.243v12c0 3.314 2.686 6 6 6h16c1.591 0 3.117-.632 4.243-1.757 1.125-1.126 1.757-2.652 1.757-4.243 0-3.665 0-8.335 0-12z" fill="#fff"/><path d="m15.975 22.771c-1.823 0-3.219-.398-4.188-1.195s-1.454-1.942-1.454-3.437v-.271h3.006v.197c0 .641.222 1.129.665 1.466.444.337 1.084.505 1.922.505.821 0 1.454-.201 1.897-.603.444-.403.665-.965.665-1.688v-.37c0-.772-.234-1.342-.702-1.712s-1.178-.554-2.131-.554h-.961v-2.735h.936c.838 0 1.475-.181 1.91-.542s.653-.879.653-1.552v-.296c0-.641-.206-1.137-.616-1.491-.411-.353-.994-.529-1.749-.529-.772 0-1.364.172-1.774.517-.411.345-.616.838-.616 1.478v.222h-2.957v-.222c0-1.527.468-2.697 1.405-3.51.936-.813 2.274-1.22 4.015-1.22 1.709 0 3.047.394 4.016 1.183.969.788 1.454 1.872 1.454 3.252v.32c0 .788-.201 1.478-.604 2.07-.402.591-.989 1.059-1.761 1.404.87.296 1.531.78 1.983 1.454.452.673.678 1.494.678 2.463v.395c0 1.544-.514 2.763-1.54 3.658-1.027.895-2.411 1.343-4.152 1.343z" fill="#333" fill-rule="nonzero"/></g></svg>