<svg clip-rule="evenodd" fill-rule="evenodd" stroke-linejoin="round" stroke-miterlimit="1.41421" viewBox="0 0 32 32" xmlns="http://www.w3.org/2000/svg" xmlns:xlink="http://www.w3.org/1999/xlink"><clipPath id="a"><path clip-rule="evenodd" d="m0 0h32v32h-32z"/></clipPath><metadata/><path d="m0 0h32v32h-32z" fill="none"/><g clip-path="url(#a)"><path d="m7.809 9.314v-.33c0-2.267.694-4.004 2.084-5.211 1.39-1.206 3.377-1.81 5.961-1.81 2.535 0 4.522.585 5.96 1.756 1.439 1.17 2.158 2.779 2.158 4.827l-.023 2.502c0 1.168-.298 2.191-.895 3.067-.238.35-.52.671-.845.962.472.353.871.772 1.196 1.258.671.999 1.006 2.218 1.006 3.657l-.024 2.595c0 2.288-.761 4.096-2.282 5.423-1.522 1.327-3.573 1.99-6.153 1.99-2.703 0-4.772-.59-6.208-1.771-1.437-1.181-2.155-2.879-2.155-5.094v-.402-2.01h4.462v.292c0 .951.329 1.676.987 2.176s1.609.75 2.852.75c1.219 0 2.158-.299 2.816-.896.491-.445.798-1.022.923-1.731-.116-.802-.447-1.418-.993-1.849-.694-.548-1.747-.822-3.159-.822h-1.424v-4.053h.009v-2.022h1.389c1.244 0 2.188-.268 2.835-.804.451-.375.745-.863.881-1.464-.123-.597-.404-1.085-.842-1.462-.608-.523-1.473-.785-2.592-.785-1.145 0-2.021.256-2.63.767-.608.511-.913 1.242-.913 2.191v.329h-4.382l.001-2.026z" fill="none" stroke="#000" stroke-width="4"/><path d="m12.715 6.426h8.559v19.088h-8.559z"/><g fill-rule="nonzero"><path d="m12.19 11.34h-4.382v-.329c0-.011 0-.022 0-.033l.001-1.664.162-.078c.28-1.417.919-2.56 1.919-3.428 1.387-1.205 3.372-1.808 5.952-1.808 2.532 0 4.516.584 5.952 1.753 1.058.86 1.726 1.959 2.005 3.295h.15v2c0 1.168-.298 2.191-.895 3.067-.596.877-1.467 1.57-2.611 2.082 1.29.438 2.27 1.156 2.94 2.154.445.664.743 1.426.892 2.284h.105v1.019c.005.115.007.231.007.349v.584c0 2.288-.761 4.096-2.282 5.423-1.522 1.327-3.573 1.99-6.153 1.99-2.703 0-4.772-.59-6.208-1.771-1.437-1.181-2.155-2.879-2.155-5.094v-.402-2.01l2 2.01h2.455v.292c0 .95.329 1.674.986 2.173.658.499 1.607.749 2.849.749 1.217 0 2.154-.299 2.811-.895.658-.596.986-1.43.986-2.501v-.548c0-1.144-.347-1.99-1.04-2.538-.694-.548-1.747-.822-3.159-.822h-1.424l.009-2.016.991-2.037h.387c1.242 0 2.185-.268 2.83-.803.646-.536.968-1.303.968-2.301v-.438c0-.95-.304-1.686-.913-2.21-.608-.523-1.473-.785-2.592-.785-1.145 0-2.021.256-2.63.767-.608.511-.913 1.242-.913 2.191v.329z" fill="#737373"/><path d="m15.963 28c-2.706 0-4.778-.591-6.216-1.774-1.439-1.182-2.158-2.882-2.158-5.101v-.402h4.462v.292c0 .951.329 1.676.987 2.176s1.609.75 2.852.75c1.219 0 2.158-.299 2.816-.896s.987-1.432.987-2.505v-.548c0-1.146-.347-1.993-1.042-2.542s-1.749-.823-3.163-.823h-1.426v-4.059h1.389c1.244 0 2.188-.268 2.835-.804.646-.537.969-1.305.969-2.304v-.439c0-.951-.305-1.688-.915-2.212-.609-.525-1.475-.787-2.596-.787-1.146 0-2.023.256-2.633.768-.609.512-.914 1.244-.914 2.194v.33h-4.388v-.33c0-2.267.694-4.004 2.084-5.211 1.39-1.206 3.377-1.81 5.961-1.81 2.535 0 4.522.585 5.96 1.756 1.439 1.17 2.158 2.779 2.158 4.827l-.005.454c0 1.17-.294 2.215-.891 3.093-.597.877-1.469 1.572-2.615 2.084 1.292.439 2.274 1.158 2.944 2.158.671.999 1.006 2.218 1.006 3.657v.585c0 2.291-.762 4.101-2.286 5.43-1.523 1.329-3.577 1.993-6.162 1.993z" fill="#fff"/></g></g></svg>