<svg clip-rule="evenodd" fill-rule="evenodd" stroke-linejoin="round" stroke-miterlimit="1.41421" viewBox="0 0 32 32" xmlns="http://www.w3.org/2000/svg" xmlns:xlink="http://www.w3.org/1999/xlink"><clipPath id="a"><path clip-rule="evenodd" d="m0 0h32v32h-32z"/></clipPath><metadata/><path d="m0 0h32v32h-32z" fill="none"/><g clip-path="url(#a)"><path d="m23.178 30h-4.936v-2-2.145h-11.794v-2-4.333l8.327-17.522h5.05v2l-7.411 15.522h5.828v-6.105h4.936v6.105h2.374v6.333h-2.374z" fill="none" stroke="#000" stroke-width="4"/><path d="m13 14h7v7h-7z"/><g fill-rule="nonzero"><path d="m25.552 25.855h-3.374l1 2.145v2h-4.936v-2l1-2.145h-12.794v-2l1-2.333 7.327-17.522 5.05-2v2l-8.366 17.522h11.719l2.374 2.333z" fill="#737373"/><path d="m25.552 23.855h-2.374v4.145h-4.936v-4.145h-11.794v-4.333l8.327-17.522h5.05l-8.366 17.522h6.783v-6.105h4.936v6.105h2.374z" fill="#fff"/></g></g></svg>