<svg clip-rule="evenodd" fill-rule="evenodd" stroke-linejoin="round" stroke-miterlimit="1.41421" viewBox="0 0 32 32" xmlns="http://www.w3.org/2000/svg" xmlns:xlink="http://www.w3.org/1999/xlink"><clipPath id="a"><path clip-rule="evenodd" d="m0 0h32v32h-32z"/></clipPath><metadata/><path d="m0 0h32v32h-32z" fill="none"/><g clip-path="url(#a)"><path d="m32 8c0-4.418-3.582-8-8-8-4.887 0-11.113 0-16 0-4.418 0-8 3.582-8 8v16c0 4.418 3.582 8 8 8h16c4.418 0 8-3.582 8-8 0-4.887 0-11.113 0-16z"/><path d="m30 20h-28v4c0 3.314 2.686 6 6 6h16c3.314 0 6-2.686 6-6 0-2.126 0-4 0-4z" fill="#b2b2b2"/><path d="m30 8c0-3.314-2.686-6-6-6-4.724 0-11.276 0-16 0-1.591 0-3.117.632-4.243 1.757-1.125 1.126-1.757 2.652-1.757 4.243v12c0 3.314 2.686 6 6 6h16c1.591 0 3.117-.632 4.243-1.757 1.125-1.126 1.757-2.652 1.757-4.243 0-3.665 0-8.335 0-12z" fill="#fff"/><path d="m15.864 22.771c-1.642 0-2.948-.386-3.917-1.158s-1.454-1.84-1.454-3.203v-.197h3.08v.099c0 .509.21.924.628 1.244.419.32.982.48 1.688.48.805 0 1.413-.23 1.823-.69.411-.46.616-1.108.616-1.946v-.764c0-.87-.209-1.536-.628-1.995-.419-.46-1.022-.69-1.811-.69-.525 0-.985.111-1.38.332-.394.222-.689.522-.887.9h-2.833v-9.683h10.2v2.759h-7.416v3.967c.821-.608 1.823-.912 3.006-.912 1.56 0 2.772.456 3.634 1.368.862.911 1.294 2.189 1.294 3.831v.936c0 1.676-.493 2.981-1.479 3.918-.985.936-2.373 1.404-4.164 1.404z" fill="#333" fill-rule="nonzero"/></g></svg>