<svg clip-rule="evenodd" fill-rule="evenodd" stroke-linejoin="round" stroke-miterlimit="1.5" viewBox="0 0 32 32" xmlns="http://www.w3.org/2000/svg" xmlns:xlink="http://www.w3.org/1999/xlink"><clipPath id="a"><path clip-rule="evenodd" d="m0 0h32v32h-32z"/></clipPath><metadata/><path d="m0 0h32v32h-32z" fill="none"/><g clip-path="url(#a)"><path d="m16.186.001.186.004.186.005.186.008.185.011.185.012.184.015.185.017.183.02.184.021.183.024.182.026.182.029.182.03.181.033.18.035.18.037.179.039.179.042.178.043.178.046.177.048.176.05.176.052.174.055.175.056.173.059.173.06.172.063.171.065.17.067.169.069.169.071.168.073.166.075.166.077.165.079.164.082.163.083.162.085.161.087.16.089.159.092.158.093.157.095.156.097.155.099.153.101.152.103.151.105.15.107.149.108.148.111.146.112.145.115.143.116.143.118.141.12.139.122.139.123.137.126.135.127.134.129.133.131.131.133.129.134.127.135.125.137.124.139.122.139.12.141.118.143.116.143.115.145.112.146.111.148.108.149.107.149.105.152.103.152.101.153.099.155.097.156.095.157.093.158.092.159.089.16.087.161.085.162.083.163.082.164.079.165.077.166.075.166.073.168.071.169.069.169.067.17.065.172.063.171.06.173.059.173.056.175.055.174.052.176.05.176.048.177.046.178.043.178.042.179.039.179.037.18.035.18.033.181.03.182.029.182.026.182.024.183.021.184.02.184.017.184.015.184.012.185.011.185.008.186.005.186.004.186.001.18v2.012l-.001.187-.004.193-.006.192-.008.192-.011.191-.014.191-.015.19-.018.189-.021.189-.022.188-.025.187-.028.187-.029.186-.032.185-.034.184-.037.184-.038.183-.041.182-.043.181-.045.18-.048.18-.049.178-.052.178-.054.177-.056.176-.058.175-.06.174-.062.173-.064.172-.066.17-.068.17-.071.169-.072.168-.074.167-.076.166-.078.164-.08.164-.082.162-.084.161-.086.16-.087.159-.089.158-.092.156-.093.156-.095.153-.096.153-.099.152-.1.15-.102.149-.104.148-.105.146-.107.145-.109.144-.11.142-.112.141-.114.139-.115.138-.117.137-.119.135-.12.134-.122.132-.123.131-.125.13-.126.128-.128.126-.13.125-.13.123-.133.122-.134.12-.135.119-.137.117-.138.115-.139.114-.141.112-.142.11-.144.109-.145.107-.146.105-.148.104-.149.102-.15.1-.152.099-.152.096-.154.095-.156.093-.156.091-.158.09-.159.087-.16.086-.161.084-.162.082-.164.08-.164.078-.166.076-.167.074-.168.072-.169.071-.17.068-.171.066-.171.064-.173.062-.174.06-.175.058-.176.056-.177.054-.178.052-.178.049-.18.048-.18.045-.181.043-.182.041-.183.038-.184.037-.184.034-.185.032-.186.029-.187.028-.187.025-.188.022-.189.021-.189.018-.19.015-.191.014-.191.011-.192.008-.192.006-.193.004-.193.001-.186-.001-.186-.004-.186-.005-.186-.008-.185-.011-.185-.012-.184-.015-.184-.017-.184-.02-.184-.021-.183-.024-.182-.026-.182-.029-.182-.03-.181-.033-.18-.035-.18-.037-.179-.039-.179-.042-.178-.043-.178-.046-.177-.048-.176-.05-.176-.052-.174-.055-.175-.056-.173-.059-.173-.06-.172-.063-.171-.065-.17-.067-.169-.069-.169-.071-.168-.073-.166-.075-.166-.077-.165-.079-.164-.082-.163-.083-.162-.085-.161-.087-.16-.089-.159-.092-.158-.093-.157-.095-.156-.097-.155-.099-.153-.101-.152-.103-.151-.105-.15-.107-.149-.108-.148-.111-.146-.112-.145-.115-.143-.116-.143-.118-.141-.12-.139-.122-.139-.124-.137-.125-.135-.127-.134-.129-.133-.131-.131-.133-.129-.134-.127-.135-.125-.137-.124-.139-.122-.139-.12-.141-.118-.143-.116-.143-.115-.145-.112-.146-.111-.148-.108-.149-.107-.15-.105-.151-.103-.152-.101-.153-.099-.155-.097-.156-.095-.157-.093-.158-.092-.159-.089-.16-.087-.161-.085-.162-.083-.163-.082-.164-.079-.165-.077-.166-.075-.166-.073-.168-.071-.169-.069-.169-.067-.17-.065-.171-.063-.172-.06-.173-.059-.173-.056-.175-.055-.174-.052-.176-.05-.176-.048-.177-.046-.178-.043-.178-.042-.179-.039-.179-.037-.18-.035-.18-.033-.181-.03-.182-.029-.182-.026-.182-.024-.183-.021-.184-.02-.183-.017-.185-.015-.184-.012-.185-.011-.185-.008-.186-.005-.186-.004-.186-.001-.18v-2.012l.001-.187.004-.193.006-.193.008-.191.011-.191.014-.191.015-.19.018-.189.021-.189.022-.188.025-.187.028-.187.029-.186.032-.185.034-.184.037-.184.038-.183.041-.182.043-.181.045-.18.048-.18.049-.178.052-.178.054-.177.056-.176.058-.175.06-.173.062-.173.064-.172.066-.171.068-.17.071-.169.072-.168.074-.167.076-.166.078-.164.08-.164.082-.162.084-.161.086-.16.087-.159.09-.158.091-.156.093-.155.095-.155.096-.152.099-.152.1-.15.102-.149.104-.148.105-.146.107-.145.109-.144.11-.142.112-.141.114-.139.115-.138.117-.137.119-.135.12-.134.122-.132.123-.131.125-.13.126-.128.128-.126.13-.125.131-.123.132-.122.134-.12.135-.119.137-.117.138-.115.139-.114.141-.112.142-.11.144-.109.145-.107.146-.105.148-.104.149-.102.15-.1.152-.099.152-.096.154-.095.156-.093.156-.091.158-.09.159-.087.16-.086.161-.084.162-.082.164-.08.164-.078.166-.076.167-.074.168-.072.169-.071.17-.068.171-.066.172-.064.172-.062.174-.06.175-.058.176-.056.177-.054.178-.052.178-.049.18-.048.18-.045.181-.043.182-.041.183-.038.184-.037.184-.034.185-.032.186-.029.187-.028.187-.025.188-.022.189-.021.189-.018.19-.015.191-.014.191-.011.192-.008.192-.006.193-.004.187-.001h.012l.18.001zm-.329 4-.142.003-.142.004-.141.006-.14.008-.141.01-.139.012-.139.013-.139.015-.138.017-.137.018-.137.02-.136.022-.136.023-.135.025-.134.027-.134.028-.133.03-.133.031-.132.033-.131.035-.13.036-.13.038-.13.039-.128.041-.128.043-.128.043-.126.046-.126.047-.125.048-.124.05-.124.052-.123.053-.122.054-.121.056-.121.057-.12.058-.119.06-.118.062-.117.062-.116.065-.116.065-.115.067-.113.068-.113.07-.112.071-.112.072-.11.073-.109.075-.108.076-.108.078-.106.078-.106.08-.104.081-.104.083-.102.083-.102.085-.1.086-.099.087-.099.088-.097.09-.096.09-.095.092-.094.093-.093.094-.092.095-.09.096-.09.097-.088.099-.087.099-.086.1-.085.102-.083.102-.083.104-.081.104-.08.106-.078.106-.078.108-.076.108-.075.109-.073.11-.072.112-.071.112-.07.113-.068.113-.067.115-.065.116-.065.116-.062.117-.062.118-.06.119-.058.12-.057.121-.056.121-.055.122-.052.123-.052.124-.05.124-.048.125-.047.126-.046.126-.043.128-.043.128-.041.128-.039.13-.038.13-.036.13-.035.131-.033.132-.031.133-.03.133-.028.134-.027.134-.025.135-.023.136-.022.136-.02.137-.018.137-.017.138-.015.139-.013.139-.012.139-.01.141-.008.14-.006.141-.004.142-.003.142-.001.149v1.988l.001.143.002.136.005.136.006.137.007.135.009.136.011.135.013.135.014.135.016.134.017.135.02.133.02.134.023.133.024.133.025.132.028.132.028.131.031.132.032.13.033.13.035.13.037.129.038.129.04.128.042.128.043.127.044.127.046.126.048.125.049.125.05.124.052.124.054.123.055.123.057.121.058.121.059.12.061.12.063.119.064.118.065.117.067.117.069.116.069.115.072.114.072.113.074.113.076.111.077.111.078.11.079.109.082.108.082.108.084.106.085.105.087.105.088.103.089.102.091.102.092.1.093.1.095.098.096.097.097.096.098.095.1.093.1.092.102.091.102.089.103.088.105.087.105.085.106.084.108.082.108.082.109.079.11.078.111.077.111.076.113.074.113.073.114.071.115.069.116.069.117.067.117.065.118.064.119.063.12.061.12.059.121.058.122.057.122.055.123.054.123.052.125.05.125.049.125.048.126.046.127.044.127.043.128.042.128.04.129.038.129.037.13.035.13.033.13.032.132.031.131.028.132.028.132.025.133.024.133.023.134.02.133.02.135.017.134.016.135.014.135.013.135.011.136.009.135.007.137.006.136.005.136.002.137.001.143-.001.142-.003.142-.004.141-.006.14-.008.14-.01.14-.012.139-.013.139-.015.138-.017.137-.018.137-.02.136-.022.136-.023.135-.025.134-.027.134-.028.133-.03.133-.031.132-.033.131-.035.13-.036.13-.038.13-.039.128-.041.128-.043.128-.043.126-.046.126-.047.125-.048.124-.05.124-.052.123-.053.122-.054.121-.056.121-.057.12-.058.119-.06.118-.062.117-.062.116-.065.116-.065.115-.067.113-.068.113-.07.112-.071.112-.072.11-.073.109-.075.108-.076.108-.078.106-.078.106-.08.104-.081.104-.083.102-.083.102-.085.1-.086.099-.087.099-.088.097-.09.096-.09.095-.092.094-.093.093-.094.092-.095.09-.096.09-.097.088-.099.087-.099.086-.1.085-.102.083-.102.083-.104.081-.104.08-.106.078-.106.078-.108.076-.108.074-.109.074-.111.072-.111.071-.112.07-.113.068-.113.067-.115.065-.116.065-.116.062-.117.062-.118.06-.119.058-.12.057-.121.056-.121.054-.122.053-.123.052-.124.05-.124.048-.125.047-.126.046-.126.043-.128.043-.128.041-.128.039-.129.038-.13.036-.131.035-.131.033-.132.031-.133.03-.133.028-.134.027-.134.025-.136.023-.135.022-.136.02-.137.018-.138.017-.137.015-.139.013-.139.012-.14.01-.14.008-.14.006-.141.004-.142.003-.142.001-.149v-1.988l-.001-.143-.002-.136-.005-.137-.006-.135-.007-.136-.009-.136-.011-.135-.013-.135-.014-.135-.016-.134-.017-.135-.02-.133-.02-.134-.023-.133-.024-.133-.025-.132-.028-.132-.028-.131-.031-.132-.032-.13-.033-.13-.035-.13-.037-.129-.038-.129-.04-.128-.042-.128-.043-.127-.044-.127-.046-.126-.048-.125-.049-.125-.05-.124-.052-.124-.054-.123-.055-.122-.057-.122-.058-.121-.059-.12-.061-.12-.063-.119-.064-.118-.065-.117-.067-.117-.069-.116-.069-.115-.071-.114-.073-.113-.074-.113-.076-.112-.076-.11-.079-.11-.079-.109-.082-.108-.082-.108-.084-.106-.085-.105-.087-.105-.088-.103-.089-.102-.091-.102-.092-.1-.093-.1-.095-.098-.096-.097-.097-.096-.098-.095-.1-.093-.1-.092-.102-.091-.102-.089-.103-.088-.105-.087-.105-.085-.106-.084-.108-.082-.108-.082-.109-.079-.11-.078-.11-.077-.112-.076-.113-.074-.113-.073-.114-.071-.115-.069-.116-.069-.117-.067-.117-.065-.118-.064-.119-.063-.12-.061-.12-.059-.121-.058-.122-.057-.122-.055-.123-.054-.124-.052-.124-.05-.125-.049-.125-.048-.126-.046-.127-.044-.127-.043-.128-.042-.128-.04-.129-.038-.129-.037-.13-.035-.13-.033-.13-.032-.132-.031-.131-.028-.132-.028-.132-.025-.133-.024-.133-.023-.134-.02-.133-.02-.134-.017-.135-.016-.135-.014-.135-.013-.135-.011-.136-.009-.135-.007-.137-.006-.136-.005-.136-.002-.137-.001-.143.001z"/><path d="m29 15h-26v2.002c0 7.179 5.819 12.998 12.998 12.998h.002c7.18 0 13-5.82 13-13 0-1.213 0-2 0-2z" fill="#595959"/><circle cx="16" cy="15" fill="#a6a6a6" r="13"/><circle cx="16" cy="15" fill="#fff" r="11.5"/><path d="m19 20.196-3-5.196" fill="none" stroke="#000" stroke-width="2"/><path d="m16 15v-9" fill="none" stroke="#000" stroke-width="2"/><circle cx="16" cy="15" r="1"/></g></svg>