<svg clip-rule="evenodd" fill-rule="evenodd" stroke-linejoin="round" stroke-miterlimit="1.41421" viewBox="0 0 32 32" xmlns="http://www.w3.org/2000/svg" xmlns:xlink="http://www.w3.org/1999/xlink"><clipPath id="a"><path clip-rule="evenodd" d="m0 0h32v32h-32z"/></clipPath><metadata/><path d="m0 0h32v32h-32z" fill="none"/><g clip-path="url(#a)"><path d="m23.511 8.154h-11.164v3.972c1.236-.915 2.744-1.373 4.525-1.373 2.349 0 4.172.686 5.47 2.059 1.299 1.372 1.948 3.295 1.948 5.767v1.41.008.003 1.989c0 2.522-.742 4.487-2.226 5.897-1.483 1.409-3.573 2.114-6.268 2.114-2.473 0-4.438-.581-5.897-1.743s-2.189-2.77-2.189-4.822v-2.297h4.637v.149c0 .766.315 1.391.945 1.873.631.482 1.478.723 2.541.723 1.212 0 2.127-.346 2.745-1.038.548-.614.853-1.451.915-2.511-.063-1.102-.374-1.959-.934-2.574-.63-.692-1.539-1.038-2.726-1.038-.791 0-1.483.167-2.077.501-.593.333-1.038.785-1.335 1.353h-4.266v-16.576h15.356z" fill="none" stroke="#000" stroke-width="4"/><path d="m10 16h11v10h-11z"/><g fill-rule="nonzero"><path d="m15.796 30c-2.473 0-4.438-.581-5.897-1.743s-2.189-2.77-2.189-4.822v-2.297l4.637 2v.149c0 .766.315 1.391.945 1.873.631.482 1.478.723 2.541.723 1.212 0 2.127-.346 2.745-1.038.618-.693.927-1.67.927-2.931v-1.149c0-1.311-.315-2.312-.946-3.005-.63-.692-1.539-1.038-2.726-1.038-.791 0-1.483.167-2.077.501-.593.333-1.038.785-1.335 1.353h-4.266v-2l3-12.576h11.356l1 2.154v2h-11.164l-1.347.846 1.347 5.126c1.236-.915 2.744-1.373 4.525-1.373 2.349 0 4.172.686 5.47 2.059 1.299 1.372 1.948 2.715 1.948 5.188v1.989c0 2.522-.742 4.487-2.226 5.897-1.483 1.409-3.573 2.114-6.268 2.114z" fill="#737373"/><path d="m15.796 28c-2.473 0-4.438-.581-5.897-1.743s-2.189-2.77-2.189-4.822v-.297h4.637v.149c0 .766.315 1.391.945 1.873.631.482 1.478.723 2.541.723 1.212 0 2.127-.346 2.745-1.038.618-.693.927-1.67.927-2.931v-1.149c0-1.311-.315-2.312-.946-3.005-.63-.692-1.539-1.038-2.726-1.038-.791 0-1.483.167-2.077.501-.593.333-1.038.785-1.335 1.353h-4.266v-14.576h15.356v4.154h-11.164v5.972c1.236-.915 2.744-1.373 4.525-1.373 2.349 0 4.172.686 5.47 2.059 1.299 1.372 1.948 3.295 1.948 5.767v1.41c0 2.522-.742 4.487-2.226 5.897-1.483 1.409-3.573 2.114-6.268 2.114z" fill="#fff"/></g></g></svg>