<svg clip-rule="evenodd" fill-rule="evenodd" stroke-linejoin="round" stroke-miterlimit="1.41421" viewBox="0 0 32 32" xmlns="http://www.w3.org/2000/svg" xmlns:xlink="http://www.w3.org/1999/xlink"><clipPath id="a"><path clip-rule="evenodd" d="m0 0h32v32h-32z"/></clipPath><metadata/><path d="m0 0h32v32h-32z" fill="none"/><g clip-path="url(#a)"><path d="m32 8c0-4.418-3.582-8-8-8-4.887 0-11.113 0-16 0-4.418 0-8 3.582-8 8v16c0 4.418 3.582 8 8 8h16c4.418 0 8-3.582 8-8 0-4.887 0-11.113 0-16z"/><path d="m30 20h-28v4c0 3.314 2.686 6 6 6h16c3.314 0 6-2.686 6-6 0-2.126 0-4 0-4z" fill="#b2b2b2"/><path d="m30 8c0-3.314-2.686-6-6-6-4.724 0-11.276 0-16 0-1.591 0-3.117.632-4.243 1.757-1.125 1.126-1.757 2.652-1.757 4.243v12c0 3.314 2.686 6 6 6h16c1.591 0 3.117-.632 4.243-1.757 1.125-1.126 1.757-2.652 1.757-4.243 0-3.665 0-8.335 0-12z" fill="#fff"/><path d="m15.988 22.771c-1.856 0-3.302-.456-4.337-1.367-1.034-.912-1.552-2.181-1.552-3.807v-.493c0-1.248.411-2.595 1.232-4.04l4.386-7.564h3.498l-4.04 6.972c.46-.229 1.059-.344 1.798-.344 1.478 0 2.669.439 3.573 1.318.903.878 1.355 2.057 1.355 3.535v.518c0 1.642-.534 2.931-1.602 3.868-1.067.936-2.505 1.404-4.311 1.404zm0-2.735c.837 0 1.494-.213 1.971-.64.476-.427.714-1.019.714-1.774v-.444c0-.755-.238-1.338-.714-1.749-.477-.411-1.134-.616-1.971-.616-.838 0-1.491.205-1.959.616s-.702.985-.702 1.725v.468c0 .755.234 1.347.702 1.774s1.121.64 1.959.64z" fill="#333" fill-rule="nonzero"/></g></svg>