<svg clip-rule="evenodd" fill-rule="evenodd" stroke-linejoin="round" stroke-miterlimit="1.41421" viewBox="0 0 32 32" xmlns="http://www.w3.org/2000/svg" xmlns:xlink="http://www.w3.org/1999/xlink"><clipPath id="a"><path clip-rule="evenodd" d="m0 0h32v32h-32z"/></clipPath><metadata/><path d="m0 0h32v32h-32z" fill="none"/><g clip-path="url(#a)"><path d="m20.84 2v2l-4.677 8.07c.396-.062.83-.093 1.302-.093 2.225 0 4.018.662 5.378 1.984 1.36 1.323 2.04 3.097 2.04 5.323v2.779c0 2.472-.804 4.413-2.411 5.823-1.607 1.409-3.771 2.114-6.491 2.114-2.794 0-4.97-.686-6.527-2.058-1.558-1.373-2.337-3.283-2.337-5.731v-2.742c0-1.879.618-3.907 1.854-6.082l6.602-11.387h5.267zm-.861 18.915c-.116-.82-.46-1.476-1.03-1.968-.717-.618-1.706-.927-2.968-.927-1.261 0-2.243.309-2.948.927-.563.494-.902 1.146-1.015 1.956.113.83.452 1.502 1.015 2.016.705.643 1.687.964 2.948.964 1.262 0 2.251-.321 2.968-.964.57-.512.914-1.18 1.03-2.004z" fill="none" stroke="#000" stroke-width="4"/><path d="m13 17h7v7h-7z"/><g fill-rule="nonzero"><path d="m15.981 30c-2.794 0-4.97-.686-6.527-2.058-1.558-1.373-2.337-3.283-2.337-5.731v-2.742c.921-1.7.618-1.906 1.854-4.082l6.602-11.387 5.267-2v2l-6.083 10.496c.693-.346 1.595-.519 2.708-.519 2.225 0 4.018.662 5.378 1.984 1.36 1.323.95 1.754 2.04 3.323v2.779c0 2.472-.804 4.413-2.411 5.823-1.607 1.409-3.771 2.114-6.491 2.114zm0-4.117c1.262 0 2.251-.321 2.968-.964s1.075-1.533 1.075-2.671v-.667c0-1.138-.358-2.016-1.075-2.634s-1.706-.927-2.968-.927c-1.261 0-2.243.309-2.948.927s-1.057 1.484-1.057 2.597v.704c0 1.138.352 2.028 1.057 2.671s1.687.964 2.948.964z" fill="#727272"/><path d="m15.981 28c-2.794 0-4.97-.686-6.527-2.058-1.558-1.373-2.337-3.283-2.337-5.731v-.742c0-1.879.618-3.906 1.854-6.082l6.602-11.387h5.267l-6.083 10.496c.693-.346 1.595-.519 2.708-.519 2.225 0 4.018.662 5.378 1.984 1.36 1.323 2.04 3.097 2.04 5.323v.779c0 2.472-.804 4.413-2.411 5.823-1.607 1.409-3.771 2.114-6.491 2.114zm0-4.117c1.262 0 2.251-.321 2.968-.964s1.075-1.533 1.075-2.671v-.667c0-1.138-.358-2.016-1.075-2.634s-1.706-.927-2.968-.927c-1.261 0-2.243.309-2.948.927s-1.057 1.484-1.057 2.597v.704c0 1.138.352 2.028 1.057 2.671s1.687.964 2.948.964z" fill="#fff"/></g></g></svg>