<svg clip-rule="evenodd" fill-rule="evenodd" stroke-linejoin="round" stroke-miterlimit="1.41421" viewBox="0 0 32 32" xmlns="http://www.w3.org/2000/svg" xmlns:xlink="http://www.w3.org/1999/xlink"><clipPath id="a"><path clip-rule="evenodd" d="m0 0h32v32h-32z"/></clipPath><metadata/><path d="m0 0h32v32h-32z" fill="none"/><g clip-path="url(#a)"><path d="m32 8c0-4.418-3.582-8-8-8-4.887 0-11.113 0-16 0-4.418 0-8 3.582-8 8v16c0 4.418 3.582 8 8 8h16c4.418 0 8-3.582 8-8 0-4.887 0-11.113 0-16z"/><path d="m30 20h-28v4c0 3.314 2.686 6 6 6h16c3.314 0 6-2.686 6-6 0-2.126 0-4 0-4z" fill="#b2b2b2"/><path d="m30 8c0-3.314-2.686-6-6-6-4.724 0-11.276 0-16 0-1.591 0-3.117.632-4.243 1.757-1.125 1.126-1.757 2.652-1.757 4.243v12c0 3.314 2.686 6 6 6h16c1.591 0 3.117-.632 4.243-1.757 1.125-1.126 1.757-2.652 1.757-4.243 0-3.665 0-8.335 0-12z" fill="#fff"/><path d="m16 22.771c-1.79 0-3.219-.456-4.287-1.367-1.068-.912-1.601-2.148-1.601-3.708v-.345c0-.822.209-1.565.628-2.23s1.006-1.178 1.761-1.54c-.624-.312-1.116-.764-1.478-1.355-.361-.591-.542-1.265-.542-2.02v-.271c0-.92.222-1.737.665-2.452.444-.714 1.084-1.269 1.922-1.663s1.823-.591 2.957-.591c1.133 0 2.118.197 2.956.591s1.478.949 1.922 1.663c.443.715.665 1.532.665 2.452v.271c0 .739-.185 1.408-.554 2.008-.37.599-.867 1.055-1.491 1.367.756.378 1.339.899 1.749 1.565.411.665.616 1.392.616 2.18v.345c0 1.577-.533 2.821-1.601 3.733-1.068.911-2.497 1.367-4.287 1.367zm.025-10.471c.755 0 1.338-.185 1.749-.554.411-.37.616-.875.616-1.516v-.271c0-.624-.21-1.112-.628-1.466-.419-.353-.998-.529-1.737-.529-.756 0-1.343.176-1.762.529-.419.354-.628.842-.628 1.466v.271c0 .641.205 1.146.616 1.516.41.369 1.002.554 1.774.554zm0 7.736c.854 0 1.519-.209 1.995-.628.477-.419.715-1.006.715-1.762v-.369c0-.723-.238-1.29-.715-1.7-.476-.411-1.141-.616-1.995-.616s-1.524.205-2.008.616c-.485.41-.727.977-.727 1.7v.369c0 .756.238 1.343.714 1.762.477.419 1.15.628 2.021.628z" fill="#333" fill-rule="nonzero"/></g></svg>