<svg clip-rule="evenodd" fill-rule="evenodd" stroke-linejoin="round" stroke-miterlimit="1.41421" viewBox="0 0 32 32" xmlns="http://www.w3.org/2000/svg" xmlns:xlink="http://www.w3.org/1999/xlink"><clipPath id="a"><path clip-rule="evenodd" d="m0 0h32v32h-32z"/></clipPath><metadata/><path d="m0 0h32v32h-32z" fill="none"/><g clip-path="url(#a)"><path d="m24.253 8.975v2.401c0 1.096-.274 2.088-.822 2.977-.224.364-.48.692-.768.984.452.397.836.85 1.152 1.361.599.971.903 2.03.912 3.177l.001.055v2.511c0 2.337-.792 4.181-2.374 5.532s-3.7 2.027-6.354 2.027-4.772-.676-6.354-2.027-2.374-3.183-2.374-5.495v-2.512l.001-.057c.009-1.194.32-2.277.931-3.247.318-.507.703-.954 1.153-1.341-.275-.284-.52-.601-.733-.95-.536-.877-.804-1.875-.804-2.995v-2.401c0-1.364.329-2.575.986-3.634s1.607-1.88 2.848-2.465c1.242-.584 2.703-.876 4.383-.876 1.679 0 3.14.292 4.382.876 1.241.585 2.191 1.406 2.848 2.465s.986 2.27.986 3.634zm-4.257 12.171c-.126-.739-.46-1.342-1.002-1.809-.706-.609-1.692-.913-2.957-.913-1.266 0-2.258.304-2.977.913-.551.468-.891 1.072-1.019 1.812.127.769.46 1.391 1.001 1.866.706.621 1.704.932 2.995.932 1.265 0 2.251-.311 2.957-.932.542-.476.876-1.099 1.002-1.869zm-.539-10.919c-.131-.561-.413-1.023-.846-1.389-.621-.523-1.479-.785-2.574-.785-1.12 0-1.991.262-2.611.785-.433.366-.715.828-.846 1.389.129.574.405 1.051.827 1.432.609.547 1.485.821 2.63.821 1.119 0 1.984-.274 2.592-.821.423-.381.699-.858.828-1.432z" fill="none" stroke="#000" stroke-width="4"/><path d="m11 7h10v18h-10z"/><g fill-rule="nonzero"><path d="m16 30c-2.654 0-4.772-.676-6.354-2.027s-2.374-3.183-2.374-5.495v-2.512c.268-.227.311-.319.932-1.304.62-.986 1.491-1.747 2.611-2.283-.925-.462-1.656-1.132-2.191-2.008-.536-.877-.804-1.875-.804-2.995v-2.401c.899-.549.329-.575.986-1.634s1.607-1.88 2.848-2.465c1.242-.584 2.703-.876 4.383-.876 1.679 0 3.14.292 4.382.876 1.241.585 2.191 1.406 2.848 2.465s.053.874.986 1.634v2.401c0 1.096-.274 2.088-.822 2.977-.548.888-1.284 1.564-2.209 2.026 1.12.56 1.984 1.333 2.593 2.319.608.986.154 1.033.913 1.232v2.511c0 2.337-.792 4.181-2.374 5.532s-3.7 2.027-6.354 2.027zm.037-15.52c1.119 0 1.984-.274 2.592-.821.609-.548.913-1.297.913-2.246v-.402c0-.925-.31-1.649-.931-2.173-.621-.523-1.479-.785-2.574-.785-1.12 0-1.991.262-2.611.785-.621.524-.932 1.248-.932 2.173v.402c0 .949.305 1.698.913 2.246.609.547 1.485.821 2.63.821zm0 11.467c1.265 0 2.251-.311 2.957-.932.706-.62 1.059-1.491 1.059-2.611v-.547c0-1.071-.353-1.911-1.059-2.52s-1.692-.913-2.957-.913c-1.266 0-2.258.304-2.977.913-.718.609-1.077 1.449-1.077 2.52v.547c0 1.12.353 1.991 1.059 2.611.706.621 1.704.932 2.995.932z" fill="#737373"/><path d="m16 28c-2.654 0-4.772-.676-6.354-2.027s-2.374-3.183-2.374-5.495v-.512c0-1.217.311-2.319.932-3.304.62-.986 1.491-1.747 2.611-2.283-.925-.462-1.656-1.132-2.191-2.008-.536-.877-.804-1.875-.804-2.995v-.401c0-1.364.329-2.575.986-3.634s1.607-1.88 2.848-2.465c1.242-.584 2.703-.876 4.383-.876 1.679 0 3.14.292 4.382.876 1.241.585 2.191 1.406 2.848 2.465s.986 2.27.986 3.634v.401c0 1.096-.274 2.088-.822 2.977-.548.888-1.284 1.564-2.209 2.026 1.12.56 1.984 1.333 2.593 2.319.608.986.913 2.063.913 3.232v.511c0 2.337-.792 4.181-2.374 5.532s-3.7 2.027-6.354 2.027zm.037-15.52c1.119 0 1.984-.274 2.592-.821.609-.548.913-1.297.913-2.246v-.402c0-.925-.31-1.649-.931-2.173-.621-.523-1.479-.785-2.574-.785-1.12 0-1.991.262-2.611.785-.621.524-.932 1.248-.932 2.173v.402c0 .949.305 1.698.913 2.246.609.547 1.485.821 2.63.821zm0 11.467c1.265 0 2.251-.311 2.957-.932.706-.62 1.059-1.491 1.059-2.611v-.547c0-1.071-.353-1.911-1.059-2.52s-1.692-.913-2.957-.913c-1.266 0-2.258.304-2.977.913-.718.609-1.077 1.449-1.077 2.52v.547c0 1.12.353 1.991 1.059 2.611.706.621 1.704.932 2.995.932z" fill="#fff"/></g></g></svg>