<svg clip-rule="evenodd" fill-rule="evenodd" stroke-linejoin="round" stroke-miterlimit="2" viewBox="0 0 32 32" xmlns="http://www.w3.org/2000/svg" xmlns:xlink="http://www.w3.org/1999/xlink"><clipPath id="a"><path clip-rule="evenodd" d="m0 0h32v32h-32z"/></clipPath><metadata/><path d="m0 0h32v32h-32z" fill="none"/><g clip-path="url(#a)"><path d="m32 8c0-4.418-3.582-8-8-8h-16c-4.418 0-8 3.582-8 8v16c0 4.418 3.582 8 8 8h16c4.418 0 8-3.582 8-8z"/><path d="m30 8c0-1.591-.632-3.117-1.757-4.243-1.126-1.125-2.652-1.757-4.243-1.757h-16c-1.591 0-3.117.632-4.243 1.757-1.125 1.126-1.757 2.652-1.757 4.243v16c0 1.591.632 3.117 1.757 4.243 1.126 1.125 2.652 1.757 4.243 1.757h16c1.591 0 3.117-.632 4.243-1.757 1.125-1.126 1.757-2.652 1.757-4.243z" fill="#ef9b00"/><path d="m16 4 1.754 7.765 6.731-4.25-4.25 6.731 7.765 1.754-7.765 1.754 4.25 6.731-6.731-4.25-1.754 7.765-1.754-7.765-6.731 4.25 4.25-6.731-7.765-1.754 7.765-1.754-4.25-6.731 6.731 4.25z" fill="#fff"/></g></svg>