<svg clip-rule="evenodd" fill-rule="evenodd" stroke-linejoin="round" stroke-miterlimit="1.41421" viewBox="0 0 32 32" xmlns="http://www.w3.org/2000/svg" xmlns:xlink="http://www.w3.org/1999/xlink"><clipPath id="a"><path clip-rule="evenodd" d="m0 0h32v32h-32z"/></clipPath><metadata/><path d="m0 0h32v32h-32z" fill="none"/><g clip-path="url(#a)"><path d="m32 8c0-4.418-3.582-8-8-8-4.887 0-11.113 0-16 0-4.418 0-8 3.582-8 8v16c0 4.418 3.582 8 8 8h16c4.418 0 8-3.582 8-8 0-4.887 0-11.113 0-16z"/><path d="m30 20h-28v4c0 3.314 2.686 6 6 6h16c3.314 0 6-2.686 6-6 0-2.126 0-4 0-4z" fill="#b2b2b2"/><path d="m30 8c0-3.314-2.686-6-6-6-4.724 0-11.276 0-16 0-1.591 0-3.117.632-4.243 1.757-1.125 1.126-1.757 2.652-1.757 4.243v12c0 3.314 2.686 6 6 6h16c1.591 0 3.117-.632 4.243-1.757 1.125-1.126 1.757-2.652 1.757-4.243 0-3.665 0-8.335 0-12z" fill="#fff"/><path d="m16.801 15.528c-.509.229-1.101.344-1.774.344-1.478 0-2.669-.443-3.573-1.33-.903-.887-1.355-2.07-1.355-3.548v-.517c0-1.643.526-2.928 1.577-3.856s2.488-1.392 4.312-1.392c1.856 0 3.305.456 4.348 1.367 1.043.912 1.565 2.173 1.565 3.782v.518c0 1.264-.419 2.611-1.257 4.04l-4.385 7.564h-3.474zm-.813-2.341c.837 0 1.49-.209 1.958-.628s.703-.998.703-1.737v-.468c0-.756-.235-1.343-.703-1.762s-1.121-.628-1.958-.628c-.838 0-1.491.213-1.959.64s-.702 1.019-.702 1.774v.419c0 .756.234 1.343.702 1.762s1.121.628 1.959.628z" fill="#333" fill-rule="nonzero"/></g></svg>