<svg clip-rule="evenodd" fill-rule="evenodd" stroke-linejoin="round" stroke-miterlimit="1.41421" viewBox="0 0 32 32" xmlns="http://www.w3.org/2000/svg" xmlns:xlink="http://www.w3.org/1999/xlink"><clipPath id="a"><path clip-rule="evenodd" d="m0 0h32v32h-32z"/></clipPath><metadata/><path d="m0 0h32v32h-32z" fill="none"/><g clip-path="url(#a)"><path d="m24.883 9.752v2.779c0 1.904-.631 3.931-1.892 6.082l-6.602 11.387h-5.229v-2l4.654-8.08c-.402.069-.828.103-1.279.103-2.225 0-4.018-.668-5.378-2.003s-2.04-3.116-2.04-5.341v-2.779c0-2.473.791-4.407 2.374-5.804 1.582-1.397 3.746-2.096 6.49-2.096 2.795 0 4.977.686 6.547 2.058 1.57 1.373 2.355 3.271 2.355 5.694zm-4.938 1.308c-.114-.827-.452-1.493-1.015-1.997-.705-.631-1.687-.946-2.949-.946-1.261 0-2.243.321-2.948.964-.557.508-.893 1.17-1.01 1.986.117.814.453 1.469 1.01 1.967.705.631 1.687.946 2.948.946 1.262 0 2.244-.315 2.949-.946.563-.504.901-1.162 1.015-1.974z" fill="none" stroke="#000" stroke-width="4"/><path d="m11 6h10v11h-10z"/><g fill-rule="nonzero"><path d="m17.205 19.504c-.766.346-1.656.519-2.67.519-2.225 0-4.018-.668-5.378-2.003s-2.04-3.116-2.04-5.341v-2.779c1.597-2.059.791-2.407 2.374-3.804 1.582-1.397 3.746-2.096 6.49-2.096 2.795 0 4.977.686 6.547 2.058 1.57 1.373 1.601 2.318 2.355 3.694v2.779c0 1.904-.631 3.931-1.892 6.082l-6.602 11.387h-5.229v-2zm-1.224-3.524c1.262 0 2.244-.315 2.949-.946.705-.63 1.057-1.502 1.057-2.615v-.704c0-1.138-.352-2.022-1.057-2.652-.705-.631-1.687-.946-2.949-.946-1.261 0-2.243.321-2.948.964s-1.057 1.533-1.057 2.671v.63c0 1.138.352 2.022 1.057 2.652.705.631 1.687.946 2.948.946z" fill="#737373"/><path d="m17.205 17.504c-.766.346-1.656.519-2.67.519-2.225 0-4.018-.668-5.378-2.003s-2.04-3.116-2.04-5.341v-.779c0-2.473.791-4.407 2.374-5.804 1.582-1.397 3.746-2.096 6.49-2.096 2.795 0 4.977.686 6.547 2.058 1.57 1.373 2.355 3.271 2.355 5.694v.779c0 1.904-.631 3.931-1.892 6.082l-6.602 11.387h-5.229zm-1.224-3.524c1.262 0 2.244-.315 2.949-.946.705-.63 1.057-1.502 1.057-2.615v-.704c0-1.138-.352-2.022-1.057-2.652-.705-.631-1.687-.946-2.949-.946-1.261 0-2.243.321-2.948.964s-1.057 1.533-1.057 2.671v.63c0 1.138.352 2.022 1.057 2.652.705.631 1.687.946 2.948.946z" fill="#fff"/></g></g></svg>