<svg clip-rule="evenodd" fill-rule="evenodd" stroke-linejoin="round" stroke-miterlimit="1.41421" viewBox="0 0 32 32" xmlns="http://www.w3.org/2000/svg" xmlns:xlink="http://www.w3.org/1999/xlink"><clipPath id="a"><path clip-rule="evenodd" d="m0 0h32v32h-32z"/></clipPath><metadata/><path d="m0 0h32v32h-32z" fill="none"/><g clip-path="url(#a)"><path d="m32 8c0-4.418-3.582-8-8-8-4.887 0-11.113 0-16 0-4.418 0-8 3.582-8 8v16c0 4.418 3.582 8 8 8h16c4.418 0 8-3.582 8-8 0-4.887 0-11.113 0-16z"/><path d="m30 8c0-1.591-.632-3.117-1.757-4.243-1.126-1.125-2.652-1.757-4.243-1.757-4.724 0-11.276 0-16 0-1.591 0-3.117.632-4.243 1.757-1.125 1.126-1.757 2.652-1.757 4.243v16c0 1.591.632 3.117 1.757 4.243 1.126 1.125 2.652 1.757 4.243 1.757h16c1.591 0 3.117-.632 4.243-1.757 1.125-1.126 1.757-2.652 1.757-4.243 0-4.724 0-11.276 0-16z" fill="#fff"/><g fill="#333" fill-rule="nonzero"><path d="m10.251 12.181c.571.611.856 1.433.856 2.467v7.41h-2.174v-.886c-.282.362-.558.627-.826.795-.269.168-.618.252-1.047.252-.886 0-1.554-.289-2.004-.866-.449-.577-.674-1.383-.674-2.416 0-.994.302-1.762.906-2.306s1.47-.815 2.597-.815h.886v-1.349c0-.376-.083-.662-.251-.856-.168-.195-.413-.292-.735-.292-.296 0-.53.094-.705.282-.174.188-.262.443-.262.765v.161h-2.154v-.081c0-1.047.295-1.839.886-2.376.59-.536 1.356-.805 2.295-.805 1.034 0 1.836.305 2.406.916zm-1.772 7.652c.195-.235.292-.554.292-.957v-1.429h-.604c-.469 0-.829.107-1.077.322s-.372.57-.372 1.067c0 .443.087.779.261 1.007.175.228.43.342.766.342.295 0 .54-.117.734-.352z"/><path d="m15.849 21.997c-.289-.147-.567-.376-.836-.684v.745h-2.255v-13.894h2.336v4.108c.188-.322.433-.571.735-.745.302-.175.654-.262 1.057-.262.779 0 1.396.275 1.852.826.457.55.685 1.423.685 2.617v4.068c0 1.194-.238 2.067-.715 2.617-.476.55-1.097.826-1.862.826-.376 0-.708-.074-.997-.222zm.987-2.275c.167-.269.251-.712.251-1.329v-3.302c0-.604-.084-1.044-.251-1.319-.168-.275-.42-.413-.755-.413-.336 0-.591.138-.766.413-.174.275-.261.715-.261 1.319v3.302c0 1.154.342 1.732 1.027 1.732.335 0 .587-.135.755-.403z"/><path d="m21.819 21.313c-.577-.604-.866-1.584-.866-2.94v-3.262c0-1.356.289-2.336.866-2.94s1.416-.906 2.517-.906c1.06 0 1.873.289 2.436.866.564.577.846 1.443.846 2.597v.403h-2.255v-.362c0-.47-.091-.823-.272-1.057-.181-.235-.433-.353-.755-.353-.349 0-.611.138-.785.413-.175.275-.262.715-.262 1.319v3.302c0 .604.087 1.044.262 1.319.174.275.429.413.765.413.335 0 .594-.118.775-.353s.272-.594.272-1.077v-.342h2.255v.342c0 1.181-.282 2.064-.846 2.648-.563.584-1.376.876-2.436.876-1.101 0-1.94-.302-2.517-.906z"/></g></g></svg>