<svg clip-rule="evenodd" fill-rule="evenodd" stroke-linejoin="round" stroke-miterlimit="1.41421" viewBox="0 0 32 32" xmlns="http://www.w3.org/2000/svg"><metadata/><path d="m0 0h32v32h-32z" fill="none"/><circle cx="16" cy="16" r="16"/><circle cx="16" cy="16" fill="#ef9b00" r="14"/><path d="m21.204 21.568v-11.866h-13.489v-1.797h17.315v1.797h-1.739v11.789c0 1.275-.148 2.058-.445 2.348-.296.289-1.069.434-2.319.434-.734 0-1.797-.025-3.188-.077l-.097-1.701c1.714.065 2.699.097 2.957.097.489 0 .779-.048.869-.145.091-.096.136-.39.136-.879zm-9.663-3.479h5.121v-4.676h-5.121zm0 1.604v1.546h-2.087v-9.411h9.237v7.865z" fill="#fff" fill-rule="nonzero"/></svg>