<svg clip-rule="evenodd" fill-rule="evenodd" stroke-linecap="round" stroke-linejoin="round" stroke-miterlimit="1.5" viewBox="0 0 32 32" xmlns="http://www.w3.org/2000/svg" xmlns:xlink="http://www.w3.org/1999/xlink"><clipPath id="a"><path clip-rule="evenodd" d="m0 0h32v32h-32z"/></clipPath><clipPath id="b"><path clip-rule="evenodd" d="m27 29c0-2.761-2.239-5-5-5-3.59 0-8.41 0-12 0-2.761 0-5 2.239-5 5v1h22s0-.403 0-1z"/></clipPath><metadata/><path d="m0 0h32v32h-32z" fill="none"/><g clip-path="url(#a)"><path d="m22.09 22.001.09.001.089.003.09.004.089.005.088.006.089.008.088.008.088.01.088.01.087.012.088.013.086.013.087.015.086.016.086.017.085.018.085.019.085.02.084.021.084.023.083.023.083.024.083.025.082.026.082.027.081.028.081.029.08.03.086.033.152.063.157.068.154.072.152.076.15.079.148.082.145.087.143.089.141.093.139.095.135.1.134.102.131.105.128.108.125.112.123.114.12.117.117.12.114.123.112.125.108.128.105.131.102.134.1.135.095.139.093.141.089.143.086.145.083.148.079.15.076.152.072.154.068.157.063.152.033.086.03.08.029.081.028.081.027.082.026.082.025.083.024.083.023.083.023.084.021.084.02.085.019.085.018.085.017.086.016.086.015.087.013.086.013.088.012.087.01.088.01.088.008.088.008.089.006.088.005.089.004.09.003.089.001.09.001.084v3.006h-26v-3.006l.001-.084.001-.09.003-.089.004-.09.005-.089.006-.088.008-.089.008-.088.01-.088.01-.088.012-.087.013-.088.013-.086.015-.087.016-.086.017-.086.018-.085.019-.085.02-.085.021-.084.023-.084.023-.083.024-.083.025-.083.026-.082.027-.082.028-.081.029-.081.03-.08.033-.086.063-.152.068-.157.072-.154.076-.152.079-.15.082-.148.087-.145.089-.143.093-.141.095-.139.1-.135.102-.134.105-.131.108-.128.112-.125.114-.123.117-.12.12-.117.123-.114.125-.112.128-.108.131-.105.134-.102.135-.1.139-.095.141-.093.143-.089.145-.087.148-.082.15-.079.152-.076.154-.072.157-.068.152-.063.086-.033.08-.03.081-.029.081-.028.082-.027.082-.026.083-.025.083-.024.083-.023.084-.023.084-.021.085-.02.085-.019.085-.018.086-.017.086-.016.087-.015.086-.013.088-.013.087-.012.088-.01.088-.01.088-.008.089-.008.088-.006.089-.005.09-.004.089-.003.09-.001.084-.001h12.012zm-12.084 3.999h-.045l-.039.001-.039.001-.039.002-.039.002-.038.003-.038.003-.038.004-.038.004-.038.004-.037.005-.037.006-.037.006-.037.006-.037.007-.037.007-.036.008-.036.008-.036.008-.036.009-.036.01-.035.01-.036.01-.035.011-.035.011-.034.011-.035.012-.035.013-.034.012-.028.011-.073.03-.067.029-.065.031-.065.032-.065.034-.063.035-.062.037-.061.039-.061.039-.059.042-.059.042-.057.044-.056.045-.056.047-.054.048-.053.049-.051.051-.051.051-.049.053-.048.054-.047.056-.045.056-.044.057-.043.059-.041.059-.039.061-.039.061-.037.062-.035.063-.034.065-.032.065-.031.065-.029.067-.03.073-.011.028-.012.034-.012.032h17.66l-.012-.032-.012-.034-.011-.028-.03-.073-.029-.067-.031-.066-.032-.064-.034-.065-.035-.063-.037-.062-.039-.061-.039-.061-.041-.059-.043-.059-.044-.057-.045-.056-.047-.056-.048-.054-.049-.053-.051-.051-.052-.051-.052-.049-.054-.048-.056-.047-.056-.045-.057-.044-.059-.042-.059-.042-.061-.039-.061-.039-.062-.037-.063-.035-.065-.034-.065-.032-.065-.031-.067-.029-.073-.03-.028-.011-.034-.012-.035-.013-.035-.012-.034-.011-.035-.011-.035-.011-.036-.01-.035-.01-.036-.01-.036-.009-.036-.008-.036-.008-.036-.008-.037-.007-.037-.007-.037-.006-.037-.006-.037-.006-.037-.005-.038-.004-.038-.004-.038-.004-.038-.003-.038-.003-.039-.002-.039-.002-.039-.001-.039-.001h-.045-11.988z"/><path d="m25 11c0-2.387-.948-4.676-2.636-6.364s-3.977-2.636-6.364-2.636c-2.387 0-4.676.948-6.364 2.636s-2.636 3.977-2.636 6.364v2c0 2.387.948 4.676 2.636 6.364s3.977 2.636 6.364 2.636c2.387 0 4.676-.948 6.364-2.636s2.636-3.977 2.636-6.364c0-.665 0-1.335 0-2z" fill="none" stroke="#000" stroke-width="4"/><path d="m27 29c0-2.761-2.239-5-5-5-3.59 0-8.41 0-12 0-2.761 0-5 2.239-5 5v1h22s0-.403 0-1z" fill="#999"/><g clip-path="url(#b)"><circle cx="16" cy="20" fill="#6c7829" r="7"/></g><path d="m25 11c0-2.387-.948-4.676-2.636-6.364s-3.977-2.636-6.364-2.636c-2.387 0-4.676.948-6.364 2.636s-2.636 3.977-2.636 6.364v2c0 2.387.948 4.676 2.636 6.364s3.977 2.636 6.364 2.636c2.387 0 4.676-.948 6.364-2.636s2.636-3.977 2.636-6.364c0-.665 0-1.335 0-2z" fill="#6c7829"/><path d="m22 10.5c0-.398-.158-.779-.439-1.061-.282-.281-.663-.439-1.061-.439s-.779.158-1.061.439c-.281.282-.439.663-.439 1.061v2c0 .398.158.779.439 1.061.282.281.663.439 1.061.439s.779-.158 1.061-.439c.281-.282.439-.663.439-1.061 0-.633 0-1.367 0-2z"/><path d="m13 10.5c0-.398-.158-.779-.439-1.061-.282-.281-.663-.439-1.061-.439s-.779.158-1.061.439c-.281.282-.439.663-.439 1.061v2c0 .398.158.779.439 1.061.282.281.663.439 1.061.439s.779-.158 1.061-.439c.281-.282.439-.663.439-1.061 0-.633 0-1.367 0-2z"/></g></svg>