<svg clip-rule="evenodd" fill-rule="evenodd" stroke-linecap="round" stroke-miterlimit="1.5" viewBox="0 0 32 32" xmlns="http://www.w3.org/2000/svg" xmlns:xlink="http://www.w3.org/1999/xlink"><clipPath id="a"><path clip-rule="evenodd" d="m0 0h32v32h-32z"/></clipPath><metadata/><path d="m0 0h32v32h-32z" fill="none"/><g clip-path="url(#a)"><path d="m20 3c0-.552.448-1 1-1h2c.552 0 1 .448 1 1h6v2h-6v2c0 3.314-2.686 6-6 6h3.472c.902 0 1.693.604 1.93 1.474.457 1.675 1.214 4.452 1.794 6.577.518 1.899.317 3.922-.563 5.683-.382.764-.775 1.55-1.08 2.16-.339.678-1.032 1.106-1.789 1.106-2.654 0-8.874 0-11.528 0-.757 0-1.45-.428-1.789-1.106-.305-.61-.698-1.396-1.08-2.16-.88-1.761-1.081-3.784-.563-5.683.58-2.125 1.337-4.902 1.794-6.577.237-.87 1.028-1.474 1.93-1.474h4.472v-1c0-.265.105-.52.293-.707.187-.188.442-.293.707-.293h2c1.061 0 2.078-.421 2.828-1.172.751-.75 1.172-1.767 1.172-2.828 0-.364 0-.706 0-1 0-.265-.105-.52-.293-.707-.187-.188-.442-.293-.707-.293h-19v-2z" fill="none" stroke="#000" stroke-width="4"/><path d="m2 3h28v2h-28z" fill="#363636"/><path d="m21 2c-.552 0-1 .448-1 1v1c0 .552.448 1 1 1 .265 0 .52.105.707.293.188.187.293.442.293.707v1c0 1.061-.421 2.078-1.172 2.828-.75.751-1.767 1.172-2.828 1.172-.743 0-1.456 0-2 0-.265 0-.52.105-.707.293-.188.187-.293.442-.293.707v1l1 1h1l1-1c3.314 0 6-2.686 6-6 0-1.554 0-3.055 0-4 0-.552-.448-1-1-1-.611 0-1.389 0-2 0z" fill="#4d4d4d"/><path d="m24.955 26c-.095.249-.202.494-.322.734-.382.764-.775 1.55-1.08 2.16-.339.678-1.032 1.106-1.789 1.106-2.654 0-8.874 0-11.528 0-.757 0-1.45-.428-1.789-1.106-.305-.61-.698-1.396-1.08-2.16-.12-.24-.227-.485-.322-.734l.955-1h16z" fill="#cdb40c"/><path d="m7.045 26c-.6-1.576-.688-3.309-.241-4.949.58-2.125 1.337-4.902 1.794-6.577.237-.87 1.028-1.474 1.93-1.474h10.944c.902 0 1.693.604 1.93 1.474.457 1.675 1.214 4.452 1.794 6.577.447 1.64.359 3.373-.241 4.949z" fill="#f1d417"/><path d="m24.26 15.606c-.158-.368-.519-.606-.919-.606-2.595 0-12.087 0-14.682 0-.4 0-.761.238-.919.606-.489 1.143-1.558 3.636-2.207 5.149-.322.752-.154 1.624.424 2.202.185.185.382.382.579.579.937.937 2.209 1.464 3.535 1.464h11.858c1.326 0 2.598-.527 3.535-1.464.197-.197.394-.394.579-.579.578-.578.746-1.45.424-2.202-.649-1.513-1.718-4.006-2.207-5.149z"/><path d="m18.05 14.001.049.001.05.004.049.004.049.005.048.007.049.008.048.009.048.01.048.011.047.013.047.013.046.015.046.016.046.017.045.018.045.019.045.021.043.021.044.023.043.023.042.025.042.025.041.027.04.028.04.028.039.03.039.031.037.032.037.032.037.034.035.035.035.035.034.037.032.037.032.037.031.039.03.039.028.04.028.04.027.041.025.042.025.042.023.043.023.044.021.043.021.045.019.045.018.045.017.046.016.046.015.046.013.047.013.048.011.047.01.048.009.048.008.049.007.048.005.049.004.049.004.05.001.049.001.05v11l-.001.05-.001.049-.004.05-.004.049-.005.049-.007.048-.008.049-.009.048-.01.048-.011.047-.013.048-.013.047-.015.046-.016.046-.017.046-.018.045-.019.045-.021.045-.021.043-.023.044-.023.043-.025.042-.025.042-.027.041-.028.04-.028.04-.03.039-.031.039-.032.037-.032.037-.034.037-.035.035-.035.035-.037.034-.037.032-.037.032-.039.031-.039.03-.04.028-.04.028-.041.027-.042.025-.042.025-.043.023-.044.023-.043.021-.045.021-.045.019-.045.018-.046.017-.046.016-.046.015-.047.013-.047.013-.048.011-.048.01-.048.009-.049.008-.048.007-.049.005-.049.004-.05.004-.049.001-.05.001h-4l-.05-.001-.049-.001-.05-.004-.049-.004-.049-.005-.048-.007-.049-.008-.048-.009-.048-.01-.048-.011-.047-.013-.047-.013-.046-.015-.046-.016-.046-.017-.045-.018-.045-.019-.045-.021-.043-.021-.044-.023-.043-.023-.042-.025-.042-.025-.041-.027-.04-.028-.04-.028-.039-.03-.039-.031-.037-.032-.037-.032-.037-.034-.035-.035-.035-.035-.034-.037-.032-.037-.032-.037-.031-.039-.03-.039-.028-.04-.028-.04-.027-.041-.025-.042-.025-.042-.023-.043-.023-.044-.021-.043-.021-.045-.019-.045-.018-.045-.017-.046-.016-.046-.015-.046-.013-.047-.013-.048-.011-.047-.01-.048-.009-.048-.008-.049-.007-.048-.005-.049-.004-.049-.004-.05-.001-.049-.001-.05v-11l.001-.05.001-.049.004-.05.004-.049.005-.049.007-.048.008-.049.009-.048.01-.048.011-.047.013-.048.013-.047.015-.046.016-.046.017-.046.018-.045.019-.045.021-.045.021-.043.023-.044.023-.043.025-.042.025-.042.027-.041.028-.04.028-.04.03-.039.031-.039.032-.037.032-.037.034-.037.035-.035.035-.035.037-.034.037-.032.037-.032.039-.031.039-.03.04-.028.04-.028.041-.027.042-.025.042-.025.043-.023.044-.023.043-.021.045-.021.045-.019.045-.018.046-.017.046-.016.046-.015.047-.013.047-.013.048-.011.048-.01.048-.009.049-.008.048-.007.049-.005.049-.004.05-.004.049-.001.05-.001h4zm-4.044.999h-.031l-.025.001-.024.002-.025.002-.024.003-.025.003-.024.004-.024.004-.024.006-.024.005-.023.006-.024.007-.023.008-.023.008-.023.008-.023.009-.022.01-.022.01-.022.011-.022.011-.021.012-.021.012-.021.013-.021.013-.02.014-.02.014-.019.015-.02.015-.019.016-.018.017-.018.017-.018.017-.017.018-.017.018-.017.018-.016.019-.015.02-.015.019-.014.02-.014.02-.013.021-.013.021-.012.021-.012.021-.011.022-.011.022-.01.022-.01.022-.009.023-.008.023-.008.023-.008.023-.007.024-.006.023-.005.024-.006.024-.004.024-.004.024-.003.025-.003.024-.002.025-.002.024-.001.025v.031 10.988.031l.001.025.002.024.002.025.003.024.003.025.004.024.004.024.006.024.005.024.006.023.007.024.008.023.008.023.008.023.009.023.01.022.01.022.011.022.011.022.012.021.012.021.013.021.013.021.014.02.014.02.015.019.015.02.016.019.017.018.017.018.017.018.018.017.018.017.018.017.019.015.02.016.019.015.02.014.02.014.021.013.021.013.021.012.021.012.022.011.022.011.022.01.022.01.023.009.023.008.023.008.023.008.024.007.023.006.024.005.024.006.024.004.024.004.025.003.024.003.025.002.024.002.025.001h.031 3.988.031l.025-.001.024-.002.025-.002.024-.003.025-.003.024-.004.024-.004.024-.006.024-.005.023-.006.024-.007.023-.008.023-.008.023-.008.023-.009.022-.01.022-.01.022-.011.022-.011.021-.012.021-.012.021-.013.021-.013.02-.014.02-.014.019-.015.02-.016.019-.015.018-.017.018-.017.018-.017.017-.018.017-.018.017-.018.016-.019.015-.02.015-.019.014-.02.014-.02.013-.021.013-.021.012-.021.012-.021.011-.022.011-.022.01-.022.01-.022.009-.023.008-.023.008-.023.008-.023.007-.024.006-.023.005-.024.006-.024.004-.024.004-.024.003-.025.003-.024.002-.025.002-.024.001-.025v-.031-10.988-.031l-.001-.025-.002-.024-.002-.025-.003-.024-.003-.025-.004-.024-.004-.024-.006-.024-.005-.024-.006-.023-.007-.024-.008-.023-.008-.023-.008-.023-.009-.023-.01-.022-.01-.022-.011-.022-.011-.022-.012-.021-.012-.021-.013-.021-.013-.021-.014-.02-.014-.02-.015-.019-.015-.02-.016-.019-.017-.018-.017-.018-.017-.018-.018-.017-.018-.017-.018-.017-.019-.016-.02-.015-.019-.015-.02-.014-.02-.014-.021-.013-.021-.013-.021-.012-.021-.012-.022-.011-.022-.011-.022-.01-.022-.01-.023-.009-.023-.008-.023-.008-.023-.008-.024-.007-.023-.006-.024-.005-.024-.006-.024-.004-.024-.004-.025-.003-.024-.003-.025-.002-.024-.002-.025-.001h-.031z" fill="#a38f0a"/></g></svg>