<svg clip-rule="evenodd" fill-rule="evenodd" stroke-linejoin="round" stroke-miterlimit="1.5" viewBox="0 0 32 32" xmlns="http://www.w3.org/2000/svg" xmlns:xlink="http://www.w3.org/1999/xlink"><clipPath id="a"><path clip-rule="evenodd" d="m0 0h32v32h-32z"/></clipPath><metadata/><path d="m0 0h32v32h-32z" fill="none"/><g clip-path="url(#a)"><path d="m5 27h22v3h-22z" fill="none" stroke="#000" stroke-width="4"/><path d="m16.323 12.219 5.818-2.909c1.99-.995 4.284-1.193 6.415-.554.14.042.276.083.406.122.328.099.599.33.748.638s.161.665.034.982c-.008.021-.017.041-.025.062-.309.774-.892 1.407-1.638 1.78-2.459 1.23-8.326 4.163-12.55 6.275-3.078 1.539-6.605 1.926-9.943 1.092-.346-.087-.679-.17-.988-.247-.284-.071-.495-.312-.527-.604s.121-.573.384-.704l.342-.171-2.799-3.731s.5-.25.923-.462c.371-.185.798-.225 1.197-.111l5.91 1.689 1.964-.982-4.994-3.884 1-.5z" fill="none" stroke="#000" stroke-linecap="round" stroke-width="4"/><path d="m5 27h22v3h-22z" fill="#4d4d4d"/><path d="m5 18.25-3-4s.5-.25.923-.462c.371-.185.798-.225 1.197-.111 1.712.489 6.38 1.823 6.38 1.823z" fill="#c2c2c2"/><path d="m29.755 9.622c.105.282.102.595-.011.876-.008.021-.017.041-.025.062-.309.774-.892 1.407-1.638 1.78-2.459 1.23-8.326 4.163-12.55 6.275-2.122 1.061-4.457 1.575-6.797 1.518l1.266-2.133 17-8z" fill="#ccc"/><path d="m8.734 20.133c-1.054-.026-2.109-.167-3.146-.426-.346-.087-.679-.17-.988-.247-.284-.071-.495-.312-.527-.604s.121-.573.384-.704c3.766-1.883 12.873-6.436 17.684-8.842 1.082-.541 2.254-.846 3.44-.909-.097.176 3.011.366 3.011.366l.37.111c.328.099.599.33.748.638.017.035.032.071.045.106z" fill="#f3f3f3"/><path d="m25.581 8.401c.996-.054 2.002.064 2.975.355l.036.011-2.117.706c-.189.063-.394.048-.572-.04-.178-.089-.313-.245-.376-.434-.069-.207-.043-.422.054-.598z" fill="#404040"/><path d="m23 14-15-4-1 .5 9 7z" fill="#aeaeae"/></g></svg>