<svg clip-rule="evenodd" fill-rule="evenodd" stroke-linecap="round" stroke-linejoin="round" stroke-miterlimit="1.5" viewBox="0 0 32 32" xmlns="http://www.w3.org/2000/svg"><metadata/><path d="m0 0h32v32h-32z" fill="none"/><path d="m19.626 8.374 3.572-3.573c1.175-1.174 2.671-1.975 4.3-2.301.149-.029.298-.059.445-.089.459-.091.933.052 1.265.383.331.331.475.805.384 1.264-.031.157-.062.317-.094.476-.325 1.639-1.13 3.144-2.313 4.324l-3.514 3.504.351 2.202.433-.433 1.414 1.414-1.459 1.459.435 2.737.61-.61 1.414 1.414-1.636 1.636.767 4.819-1 1-6.41-10.572-5.797 5.781-.543 5.791-1 1-1.928-4.284-3.41 1.462c-.044.018-.089.033-.134.044l-1.278 1.278c-.276.276-.724.276-1 0-.276-.276-.276-.724 0-1l1.273-1.273c.011-.048.027-.096.047-.142l1.46-3.409-4.28-1.926 1-1 5.79-.543 5.763-5.762-10.553-5.9 1-1 4.48.56 1.975-1.974 1.414 1.414-.875.875 2.82.352 1.641-1.641 1.414 1.414-.541.541z" fill="none" stroke="#000" stroke-width="4"/><g fill="#737373" fill-rule="nonzero"><path d="m17.869 7.545-3.414 3.415-1.415-1.415 3.415-3.414z"/><path d="m25.869 15.545-3.414 3.415-1.415-1.415 3.415-3.414z"/><path d="m12.869 6.545-3.414 3.415-1.415-1.415 3.415-3.414z"/><path d="m26.869 20.545-3.414 3.415-1.415-1.415 3.415-3.414z"/></g><path d="m23.455 11 2.545 16-1 1-7-11.545z" fill="#b3b3b3"/><path d="m13 21-.75 8-1 1-2.25-5z" fill="#b3b3b3"/><path d="m11 19-8 .75-1 1 5 2.25z" fill="#b3b3b3"/><path d="m21 8.545-16-2-1 1 11.545 6.455z" fill="#b3b3b3"/><path d="m10.017 25.418c.649-.278 1.24-.677 1.74-1.176 2.652-2.644 11.562-11.529 15.428-15.384 1.183-1.18 1.988-2.685 2.313-4.324.032-.159.063-.319.094-.476.091-.459-.053-.933-.384-1.264-.332-.331-.806-.474-1.265-.383-.147.03-.296.06-.445.089-1.629.326-3.125 1.127-4.3 2.301-3.857 3.857-12.782 12.781-15.439 15.437-.501.501-.903 1.094-1.182 1.746-.455 1.061-1.189 2.774-1.757 4.101-.135.313-.065.676.176.916.241.241.603.311.916.177 1.329-.57 3.044-1.305 4.105-1.76z" fill="#f3f3f3"/><path d="m8.5 23.5c-.276-.276-.724-.276-1 0-.958.958-3.042 3.042-4 4-.276.276-.276.724 0 1 .276.276.724.276 1 0l4-4c.276-.276.276-.724 0-1z" fill="#b3b3b3"/><path d="m25.5 3.5h1.554c.383 0 .751.152 1.022.424.272.271.424.639.424 1.022v1.554s-.071 0-.176 0c-.455 0-.824-.369-.824-.824 0-.001 0-.001 0-.002 0-.648-.526-1.174-1.174-1.174-.001 0-.001 0-.002 0-.455 0-.824-.369-.824-.824 0-.105 0-.176 0-.176z" fill="#3d3d3d"/></svg>