<svg clip-rule="evenodd" fill-rule="evenodd" stroke-linejoin="round" stroke-miterlimit="1.5" viewBox="0 0 32 32" xmlns="http://www.w3.org/2000/svg" xmlns:xlink="http://www.w3.org/1999/xlink"><clipPath id="a"><path clip-rule="evenodd" d="m0 0h32v32h-32z"/></clipPath><metadata/><path d="m0 0h32v32h-32z" fill="none"/><g clip-path="url(#a)"><path d="m5 27h22v3h-22z" fill="none" stroke="#000" stroke-width="4"/><path d="m4.084 6.361.623-4.361s.375.055.768.113c.555.081 1.031.436 1.265.945l2.287 4.951 2.941.98-.029-4.343 1.061.354 3.447 5.482 7.758 2.586c2.407.803 4.338 2.624 5.281 4.98v.001c.128.32.109.681-.052.986s-.448.524-.785.598c-.193.043-.389.087-.576.129-.702.156-1.433.118-2.116-.11-2.893-.964-11.168-3.722-16.692-5.564-3.301-1.1-5.86-3.738-6.86-7.071v-.001c-.079-.262-.005-.545.191-.735s.481-.255.74-.169l.748.249z" fill="none" stroke="#000" stroke-linecap="round" stroke-width="4"/><path d="m4 6.95.707-4.95s.375.055.768.113c.555.081 1.031.436 1.265.945.806 1.744 2.624 5.68 2.624 5.68z" fill="#c2c2c2"/><path d="m4.457 10.819 1.996-.416 22.158 7.155.769 1.569c-.167.257-.429.439-.731.506-.193.043-.389.087-.576.129-.702.156-1.433.118-2.116-.11-2.893-.964-11.168-3.722-16.692-5.564-1.901-.633-3.555-1.777-4.808-3.269z" fill="#ccc"/><path d="m4.457 10.819c-.923-1.099-1.628-2.388-2.052-3.802v-.001c-.079-.262-.005-.545.191-.735s.481-.255.74-.169c3.831 1.277 14.957 4.986 20.869 6.956 1.462.488 2.75 1.352 3.746 2.483l1.508 2.431c.009.022.018.044.027.066v.001c.128.32.109.681-.052.986-.017.031-.035.062-.054.092z" fill="#f3f3f3"/><path d="m29.459 17.982-2.603-1.301c-.382-.191-.536-.655-.345-1.036v-.001c.086-.172.237-.304.42-.365s.383-.046.555.04l.465.232c.628.713 1.14 1.533 1.508 2.431z" fill="#404040"/><path d="m20.425 16.808-7.425-11.808-1.061-.354.061 9.354z" fill="#aeaeae"/><path d="m5 27h22v3h-22z" fill="#4d4d4d"/></g></svg>