<svg clip-rule="evenodd" fill-rule="evenodd" stroke-linecap="round" stroke-linejoin="round" stroke-miterlimit="1.5" viewBox="0 0 32 32" xmlns="http://www.w3.org/2000/svg" xmlns:xlink="http://www.w3.org/1999/xlink"><clipPath id="a"><path clip-rule="evenodd" d="m0 .017h32v32h-32z"/></clipPath><metadata/><path d="m0 .017h32v32h-32z" fill="none"/><g clip-path="url(#a)"><g fill="none"><path d="m6.816 19.74c-1.091-1.635-1.043-3.778.12-5.363 1.176-1.604 2.734-3.728 4.226-5.762 1.13-1.542 2.927-2.452 4.838-2.452s3.708.91 4.838 2.452c1.492 2.034 3.05 4.158 4.226 5.762 1.163 1.585 1.211 3.728.12 5.363 0 .001 0 .001-.001.002-1.265 1.898-3.704 2.623-5.801 1.724-.635-.272-1.265-.542-1.806-.774-1.007-.431-2.145-.431-3.152 0-.541.232-1.171.502-1.806.774-2.097.899-4.536.174-5.801-1.724-.001-.001-.001-.001-.001-.002z" stroke="#000" stroke-width="4"/><path d="m9.5 20.017s-1.435 1.435-2.586 2.585c-.375.376-.884.586-1.414.586s-1.039-.21-1.414-.586c-.375-.375-.586-.883-.586-1.414 0-1.188 0-3.434 0-5.272 0-1.856.737-3.637 2.05-4.95.631-.63 1.323-1.323 1.95-1.95.531-.53.829-1.249.829-1.999s-.298-1.47-.829-2" stroke="#000" stroke-linecap="square" stroke-width="7"/><path d="m22.5 20.017s1.435 1.435 2.586 2.585c.375.376.884.586 1.414.586s1.039-.21 1.414-.586c.375-.375.586-.883.586-1.414 0-1.188 0-3.434 0-5.272 0-1.856-.737-3.637-2.05-4.95-.631-.63-1.323-1.323-1.95-1.95-.531-.53-.829-1.249-.829-1.999s.298-1.47.829-2" stroke="#000" stroke-linecap="square" stroke-width="7"/><path d="m13 21.017v2.666c0 .217-.07.427-.2.6-.442.59-1.518 2.024-2.2 2.934-.378.503-.97.8-1.6.8-.873 0-2 0-2 0" stroke="#000" stroke-linecap="square" stroke-width="7"/><path d="m19 21.017v2.666c0 .217.07.427.2.6.442.59 1.518 2.024 2.2 2.934.378.503.97.8 1.6.8h2" stroke="#000" stroke-linecap="square" stroke-width="7"/><path d="m9.5 20.017s-1.435 1.435-2.586 2.585c-.375.376-.884.586-1.414.586s-1.039-.21-1.414-.586c-.375-.375-.586-.883-.586-1.414 0-1.188 0-3.434 0-5.272 0-1.856.737-3.637 2.05-4.95.631-.63 1.323-1.323 1.95-1.95.531-.53.829-1.249.829-1.999s-.298-1.47-.829-2" stroke="#2336af" stroke-linecap="square" stroke-width="3"/><path d="m22.5 20.017s1.435 1.435 2.586 2.585c.375.376.884.586 1.414.586s1.039-.21 1.414-.586c.375-.375.586-.883.586-1.414 0-1.188 0-3.434 0-5.272 0-1.856-.737-3.637-2.05-4.95-.631-.63-1.323-1.323-1.95-1.95-.531-.53-.829-1.249-.829-1.999s.298-1.47.829-2" stroke="#2336af" stroke-linecap="square" stroke-width="3"/><path d="m13 21.017v2.666c0 .217-.07.427-.2.6-.442.59-1.518 2.024-2.2 2.934-.378.503-.97.8-1.6.8-.873 0-2 0-2 0" stroke="#2336af" stroke-linecap="square" stroke-width="3"/><path d="m19 21.017v2.666c0 .217.07.427.2.6.442.59 1.518 2.024 2.2 2.934.378.503.97.8 1.6.8h2" stroke="#2336af" stroke-linecap="square" stroke-width="3"/></g><path d="m6.816 19.74c-1.091-1.635-1.043-3.778.12-5.363 1.176-1.604 2.734-3.728 4.226-5.762 1.13-1.542 2.927-2.452 4.838-2.452s3.708.91 4.838 2.452c1.492 2.034 3.05 4.158 4.226 5.762 1.163 1.585 1.211 3.728.12 5.363 0 .001 0 .001-.001.002-1.265 1.898-3.704 2.623-5.801 1.724-.635-.272-1.265-.542-1.806-.774-1.007-.431-2.145-.431-3.152 0-.541.232-1.171.502-1.806.774-2.097.899-4.536.174-5.801-1.724-.001-.001-.001-.001-.001-.002z" fill="#334cec"/><circle cx="11.5" cy="13.517" fill="#3ae07c" r="1.5"/><circle cx="20.5" cy="13.517" fill="#3ae07c" r="1.5"/><path d="m18 10.017c0-.553-.448-1-1-1-.611 0-1.389 0-2 0-.552 0-1 .447-1 1 0 .552.448 1 1 1h2c.552 0 1-.448 1-1z" fill="#3ae07c"/><path d="m12 16.517 2 2 2-3 2 3 2-2" fill="none" stroke="#1cb356" stroke-width="1.5"/></g></svg>