<svg clip-rule="evenodd" fill-rule="evenodd" stroke-linecap="round" stroke-miterlimit="1.5" viewBox="0 0 32 32" xmlns="http://www.w3.org/2000/svg" xmlns:xlink="http://www.w3.org/1999/xlink"><clipPath id="a"><path clip-rule="evenodd" d="m0 0h32v32h-32z"/></clipPath><clipPath id="b"><path clip-rule="evenodd" d="m27.484 14.226c-.927-1.39-2.488-2.226-4.16-2.226-.826 0-1.686 0-2.324 0-.265 0-.52.105-.707.293-.188.187-.293.442-.293.707v14c0 .552.448 1 1 1h8c.552 0 1-.448 1-1v-7.486c0-.987-.292-1.952-.84-2.774-.485-.728-1.11-1.665-1.676-2.514z"/></clipPath><clipPath id="c"><path clip-rule="evenodd" d="m20 10c0-.265-.105-.52-.293-.707-.187-.188-.442-.293-.707-.293-3.151 0-12.849 0-16 0-.265 0-.52.105-.707.293-.188.187-.293.442-.293.707v17c0 .265.105.52.293.707.187.188.442.293.707.293h16.001c.552 0 .999-.447.999-.999 0-.001 0-.001 0-.001l1-1v-12l-1-1z"/></clipPath><metadata/><path d="m0 0h32v32h-32z" fill="none"/><g clip-path="url(#a)"><path d="m27.484 14.226c-.927-1.39-2.488-2.226-4.16-2.226-.826 0-1.686 0-2.324 0-.265 0-.52.105-.707.293-.188.187-.293.442-.293.707v14c0 .552.448 1 1 1h8c.552 0 1-.448 1-1v-7.486c0-.987-.292-1.952-.84-2.774-.485-.728-1.11-1.665-1.676-2.514z" fill="none" stroke="#000" stroke-width="4"/><path d="m20 10c0-.265-.105-.52-.293-.707-.187-.188-.442-.293-.707-.293-3.151 0-12.849 0-16 0-.265 0-.52.105-.707.293-.188.187-.293.442-.293.707v17c0 .265.105.52.293.707.187.188.442.293.707.293h16c.265 0 .52-.105.707-.293.188-.187.293-.442.293-.707 0-3.284 0-13.716 0-17z" fill="none" stroke="#000" stroke-width="4"/><circle cx="8" cy="27" fill="#fff" r="3" stroke="#000" stroke-width="4"/><circle cx="25" cy="27" fill="#fff" r="3" stroke="#000" stroke-width="4"/><path d="m25 10c0-.552-.448-1-1-1-.611 0-1.389 0-2 0-.552 0-1 .448-1 1s.448 1 1 1h2c.552 0 1-.448 1-1z" style="fill:none;stroke:#000;stroke-width:4;stroke-linecap:square;stroke-linejoin:round;stroke-miterlimit:3"/><path d="m27.484 14.226c-.927-1.39-2.488-2.226-4.16-2.226-.826 0-1.686 0-2.324 0-.265 0-.52.105-.707.293-.188.187-.293.442-.293.707v14c0 .552.448 1 1 1h8c.552 0 1-.448 1-1v-7.486c0-.987-.292-1.952-.84-2.774-.485-.728-1.11-1.665-1.676-2.514z" fill="#f1f902"/><g clip-path="url(#b)"><path d="m1 10h30v3h-30z" fill="#fef681"/></g><path d="m26.693 14.828c-.752-1.141-2.028-1.828-3.395-1.828-.102 0-.202 0-.298 0-.265 0-.52.105-.707.293-.188.187-.293.442-.293.707v3c0 1.105.895 2 2 2h3.786c.487 0 .882-.394.882-.881 0-.01 0-.02 0-.03 0-.173-.051-.342-.146-.486-.323-.491-1.129-1.713-1.829-2.775z"/><path d="m20 10c0-.265-.105-.52-.293-.707-.187-.188-.442-.293-.707-.293-3.151 0-12.849 0-16 0-.265 0-.52.105-.707.293-.188.187-.293.442-.293.707v17c0 .265.105.52.293.707.187.188.442.293.707.293h16.001c.552 0 .999-.447.999-.999 0-.001 0-.001 0-.001l1-1v-12l-1-1z" fill="#f1f902"/><g clip-path="url(#c)"><path d="m1 8h30v3h-30z" fill="#fef681"/></g><path d="m2 21h28v6h-28z" fill="#fdfeb3"/><g fill="#128747"><path d="m2 21h4v3h-4z"/><path d="m6 24h4v3h-4z"/><path d="m10 21h4v3h-4z"/><path d="m14 24h4v3h-4z"/><path d="m18 21h4v3h-4z"/><path d="m18 21h4v3h-4z"/><path d="m22 24h4v3h-4z"/><path d="m26 21h4v3h-4z"/></g><path d="m25 10c0-.552-.448-1-1-1-.611 0-1.389 0-2 0-.552 0-1 .448-1 1s.448 1 1 1h2c.552 0 1-.448 1-1z" fill="#2256f2"/><path d="m30 23h-.001c-.552 0-.999.447-.999.999v1.001c0 .552.448 1 1 1z" fill="#2c2c2c"/><path d="m12 26.812c0-1.011-.402-1.981-1.117-2.695-.715-.715-1.684-1.117-2.695-1.117-.125 0-.251 0-.376 0-1.011 0-1.98.402-2.695 1.117-.715.714-1.117 1.684-1.117 2.695v1.188h8z" fill="#333"/><path d="m29 26.812c0-1.011-.402-1.981-1.117-2.695-.715-.715-1.684-1.117-2.695-1.117-.125 0-.251 0-.376 0-1.011 0-1.98.402-2.695 1.117-.715.714-1.117 1.684-1.117 2.695v1.188h8z" fill="#333"/><path d="m14 13c0-.552-.448-1-1-1-1.916 0-6.084 0-8 0-.552 0-1 .448-1 1v5c0 .552.448 1 1 1h8c.552 0 1-.448 1-1 0-1.331 0-3.669 0-5z"/><circle cx="8" cy="27" fill="#5a5a5a" r="3"/><circle cx="25" cy="27" fill="#5a5a5a" r="3"/><circle cx="25" cy="27" fill="#bfbfbf" r="1.5"/><circle cx="8" cy="27" fill="#bfbfbf" r="1.5"/><circle cx="17" cy="16" fill="#0e43e3" r="2"/></g></svg>