<svg clip-rule="evenodd" fill-rule="evenodd" stroke-linejoin="round" stroke-miterlimit="2" viewBox="0 0 32 32" xmlns="http://www.w3.org/2000/svg" xmlns:xlink="http://www.w3.org/1999/xlink"><clipPath id="a"><path clip-rule="evenodd" d="m0 0h32v32h-32z"/></clipPath><metadata/><path d="m0 0h32v32h-32z" fill="none"/><g clip-path="url(#a)"><path d="m21 11.121v4.379h-.672c1.627 1.282 2.672 3.27 2.672 5.5v2c0 3.863-3.137 7-7 7s-7-3.137-7-7v-2c0-2.23 1.045-4.218 2.672-5.5h-.672v-4.379l-1.061-1.06v-2l6.061-6.061 6.061 6.061v2zm-1.126 10.879c-.445-1.724-2.012-3-3.874-3s-3.429 1.276-3.874 3c.445 1.724 2.012 3 3.874 3s3.429-1.276 3.874-3z" fill="none" stroke="#000" stroke-width="4"/><path d="m11 17h10v8h-10z"/><path d="m12 7h8v8h-8z"/><path d="m9.29 21c.722-2.421 2.719-4.294 5.21-4.839v-.661h-3.5v-2l3.5-1v-2.757l-2.439 2.439-2.122-2.121v-2l6.061-4.061 6.061 4.061v2l-2.122 2.121-2.439-2.439v2.757l3.5 1v2h-3.5v.661c2.491.545 4.488 2.418 5.21 4.839h.29v2c0 3.863-3.137 7-7 7s-7-3.137-7-7v-2zm6.71-2c2.208 0 4 1.792 4 4s-1.792 4-4 4-4-1.792-4-4 1.792-4 4-4z" fill="#747474"/><g fill="none" stroke="#fff" stroke-width="3"><circle cx="16" cy="21" r="5.5" stroke-linecap="round"/><path d="m16 16v-11"/><path d="m21 12h-10"/></g><path d="m22.061 8.061-2.122 2.121-3.939-3.939-3.939 3.939-2.122-2.121 6.061-6.061z" fill="#fff"/></g></svg>