<svg clip-rule="evenodd" fill-rule="evenodd" stroke-linejoin="round" stroke-miterlimit="2" viewBox="0 0 32 32" xmlns="http://www.w3.org/2000/svg" xmlns:xlink="http://www.w3.org/1999/xlink"><clipPath id="a"><path clip-rule="evenodd" d="m0 0h32v32h-32z"/></clipPath><metadata/><path d="m0 0h32v32h-32z" fill="none"/><g clip-path="url(#a)"><path d="m9.15.003.149.008.149.014.148.02.148.025.146.03.145.036.144.042.142.046.14.053.139.057.136.062.133.068.131.072.128.077.125.082.122.087.119.091.115.095.112.1.107.104 3.456 3.455.019.019.01.01.01.009.01.009.01.009.009.008.01.008.011.009.01.008.01.008.01.008.009.007.01.007.011.007.01.007.01.007.01.006.011.007.01.007.009.005.012.007.01.006.01.005.011.006.01.006.011.005.01.005.011.005.011.005.033.014.022.008.022.008.023.008.023.007.023.007.023.006.024.005.023.005.024.004.024.004.024.003.025.003.025.002.024.001.024.001.025.001.025-.001.024-.001.024-.001.025-.002.025-.003.024-.003.024-.004.024-.004.023-.005.024-.005.023-.006.023-.007.023-.007.023-.008.022-.008.022-.008.033-.014.011-.005.01-.005.011-.005.011-.005.01-.006.011-.006.01-.005.01-.006.012-.007.009-.005.01-.007.011-.007.01-.006.01-.007.01-.007.011-.007.01-.007.009-.007.01-.008.01-.008.011-.008.01-.009.009-.008.01-.008.01-.009.01-.009.01-.01.01-.009.019-.019 3.456-3.455.107-.104.112-.1.115-.095.119-.091.122-.087.125-.082.128-.077.131-.072.133-.068.136-.062.139-.057.14-.053.142-.046.144-.042.145-.036.146-.03.148-.025.148-.02.149-.014.149-.008.15-.003.15.003.149.008.149.014.148.02.148.025.146.03.145.036.144.042.142.046.14.053.139.057.136.062.133.068.131.072.128.077.125.082.122.087.119.091.115.095.112.1.107.104.104.107.1.112.095.115.091.119.087.122.082.125.077.128.072.131.068.133.062.136.058.139.052.14.046.142.042.144.036.145.03.146.025.148.02.148.014.149.008.149.003.15-.003.15-.008.149-.014.149-.02.148-.025.148-.03.146-.036.145-.042.144-.046.142-.053.14-.057.139-.062.136-.068.133-.072.131-.077.128-.082.125-.087.122-.091.119-.095.115-.1.112-.104.107-3.473 3.474-.073.072-.083.08-.084.078-.084.078-.085.076-.087.075-.087.074-.088.073-.088.071-.09.07-.09.069-.091.067-.092.067-.092.065-.092.064-.094.062-.094.062-.094.059-.096.059-.096.058-.096.056-.097.055-.098.054-.098.052-.098.051-.099.049-.1.049-.1.047-.101.046-.112.05-.191.08-.205.08-.206.075-.207.069-.208.065-.21.059-.21.054-.211.049-.213.044-.212.038-.214.034-.214.028-.215.023-.214.018-.215.013-.216.008-.215.002-.215-.002-.216-.008-.215-.013-.214-.018-.215-.023-.214-.028-.214-.034-.212-.038-.213-.044-.211-.049-.21-.054-.21-.059-.208-.065-.207-.069-.206-.075-.205-.08-.191-.081-.112-.049-.1-.046-.101-.047-.1-.049-.099-.049-.098-.051-.098-.052-.098-.054-.097-.055-.096-.056-.096-.058-.096-.059-.094-.059-.094-.062-.094-.062-.093-.064-.091-.065-.092-.066-.091-.068-.09-.069-.09-.07-.088-.072-.088-.072-.087-.074-.087-.075-.085-.076-.084-.078-.084-.078-.083-.08-.073-.072-3.473-3.474-.104-.107-.1-.112-.095-.115-.091-.119-.087-.122-.082-.125-.077-.128-.072-.131-.068-.133-.062-.136-.057-.139-.053-.14-.046-.142-.042-.144-.036-.145-.03-.146-.025-.148-.02-.148-.014-.149-.008-.149-.003-.15.003-.15.008-.149.014-.149.02-.148.025-.148.03-.146.036-.145.042-.144.046-.142.053-.14.057-.139.062-.136.068-.133.072-.131.077-.128.082-.125.087-.122.091-.119.095-.115.1-.112.104-.107.107-.104.112-.1.115-.095.119-.091.122-.087.125-.082.128-.077.131-.072.133-.068.136-.062.139-.057.14-.053.142-.046.144-.042.145-.036.146-.03.148-.025.148-.02.149-.014.149-.008.15-.003.15.003z"/><path d="m16.215 19.073.216.008.215.013.214.018.215.023.214.028.214.034.212.038.213.044.211.049.21.054.21.059.208.065.207.069.206.075.205.08.191.08.112.05.101.046.1.047.1.049.099.049.098.051.098.052.098.054.097.055.096.056.096.058.096.059.094.059.094.062.094.062.092.064.092.065.092.067.091.067.09.069.09.07.088.071.088.073.087.074.087.075.085.076.084.078.084.078.083.08.073.072 3.473 3.474.104.107.1.112.095.115.091.119.087.122.082.125.077.128.072.131.068.133.062.136.057.139.053.14.046.142.042.144.036.145.03.146.025.148.02.148.014.149.008.149.003.15-.003.15-.008.149-.014.149-.02.148-.025.148-.03.146-.036.145-.042.144-.046.142-.052.14-.058.139-.062.136-.068.133-.072.131-.077.128-.082.125-.087.122-.091.119-.095.115-.1.112-.104.107-.107.104-.112.1-.115.095-.119.091-.122.087-.125.082-.128.077-.131.072-.133.068-.136.062-.139.057-.14.053-.142.046-.144.042-.145.036-.146.03-.148.025-.148.02-.149.014-.149.008-.15.003-.15-.003-.149-.008-.149-.014-.148-.02-.148-.025-.146-.03-.145-.036-.144-.042-.142-.046-.14-.053-.139-.057-.136-.062-.133-.068-.131-.072-.128-.077-.125-.082-.122-.087-.119-.091-.115-.095-.112-.1-.107-.104-3.456-3.455-.019-.019-.01-.009-.01-.01-.01-.009-.01-.009-.01-.008-.009-.008-.01-.009-.011-.008-.01-.008-.01-.008-.009-.007-.01-.007-.011-.007-.01-.007-.01-.007-.01-.006-.011-.007-.01-.007-.009-.005-.012-.007-.01-.006-.01-.005-.011-.006-.01-.006-.011-.005-.011-.005-.01-.005-.011-.005-.033-.014-.022-.008-.022-.008-.023-.008-.023-.007-.023-.007-.023-.006-.024-.005-.023-.005-.024-.004-.024-.004-.024-.003-.025-.003-.025-.002-.024-.001-.024-.001-.025-.001-.025.001-.024.001-.024.001-.025.002-.025.003-.024.003-.024.004-.024.004-.023.005-.024.005-.023.006-.023.007-.023.007-.023.008-.022.008-.022.008-.033.014-.011.005-.011.005-.01.005-.011.005-.01.006-.011.006-.01.005-.01.006-.012.007-.009.005-.01.007-.011.007-.01.006-.01.007-.01.007-.011.007-.01.007-.009.007-.01.008-.01.008-.01.008-.011.009-.01.008-.009.008-.01.009-.01.009-.01.009-.01.01-.019.019-3.456 3.455-.107.104-.112.1-.115.095-.119.091-.122.087-.125.082-.128.077-.131.072-.133.068-.136.062-.139.057-.14.053-.142.046-.144.042-.145.036-.146.03-.148.025-.148.02-.149.014-.149.008-.15.003-.15-.003-.149-.008-.149-.014-.148-.02-.148-.025-.146-.03-.145-.036-.144-.042-.142-.046-.14-.053-.139-.057-.136-.062-.133-.068-.131-.072-.128-.077-.125-.082-.122-.087-.119-.091-.115-.095-.112-.1-.107-.104-.104-.107-.1-.112-.095-.115-.091-.119-.087-.122-.082-.125-.077-.128-.072-.131-.068-.133-.062-.136-.057-.139-.053-.14-.046-.142-.042-.144-.036-.145-.03-.146-.025-.148-.02-.148-.014-.149-.008-.149-.003-.15.003-.15.008-.149.014-.149.02-.148.025-.148.03-.146.036-.145.042-.144.046-.142.053-.14.057-.139.062-.136.068-.133.072-.131.077-.128.082-.125.087-.122.091-.119.095-.115.1-.112.104-.107 3.473-3.474.073-.072.083-.08.084-.078.084-.078.085-.076.087-.075.087-.074.088-.072.088-.072.09-.07.09-.069.091-.068.092-.066.091-.065.093-.064.094-.062.094-.062.094-.059.096-.059.096-.058.096-.056.097-.055.098-.054.098-.052.098-.051.099-.049.1-.049.101-.047.1-.046.112-.049.191-.081.205-.08.206-.075.207-.069.208-.065.21-.059.21-.054.211-.049.213-.044.212-.038.214-.034.214-.028.215-.023.214-.018.215-.013.216-.008.215-.002z"/><path d="m28.15 5.003.149.008.149.014.148.02.148.025.146.03.145.036.144.042.142.046.14.053.139.057.136.062.133.068.131.072.128.077.125.082.122.087.119.091.115.095.112.1.107.104.104.107.1.112.095.115.091.119.087.122.082.125.077.128.072.131.068.133.062.136.057.139.053.14.046.142.042.144.036.145.03.146.025.148.02.148.014.149.008.149.003.15-.003.15-.008.149-.014.149-.02.148-.025.148-.03.146-.036.145-.042.144-.046.142-.053.14-.057.139-.062.136-.068.133-.072.131-.077.128-.082.125-.087.122-.091.119-.095.115-.1.112-.104.107-3.455 3.456-.019.019-.009.01-.01.01-.009.01-.008.009-.009.011-.009.01-.008.009-.008.011-.008.009-.007.01-.008.011-.008.01-.006.01-.007.009-.007.011-.007.01-.006.01-.006.01-.007.011-.006.01-.006.01-.006.012-.005.01-.005.01-.006.011-.005.01-.005.011-.005.011-.014.033-.008.022-.009.022-.007.023-.007.023-.007.023-.006.023-.005.024-.005.023-.004.024-.004.024-.003.025-.003.024-.002.024-.001.025-.001.025-.001.024.001.024.001.025.001.025.002.024.003.024.003.025.004.024.004.024.005.023.005.024.006.023.007.023.007.023.007.023.009.022.008.022.014.033.005.011.005.011.005.01.006.011.005.01.005.01.006.012.006.01.006.01.007.011.006.01.006.01.007.01.007.011.007.009.006.01.008.01.008.011.007.01.008.009.008.011.008.009.009.01.009.011.008.009.009.01.01.01.009.01.019.019 3.455 3.456.104.107.1.112.095.115.091.119.087.122.082.125.077.128.072.131.068.133.062.136.057.139.053.14.046.142.042.144.036.145.03.146.025.148.02.148.014.149.008.149.003.15-.003.15-.008.149-.014.149-.02.148-.025.148-.03.146-.036.145-.042.144-.046.142-.053.14-.057.139-.062.136-.068.133-.072.131-.077.128-.082.125-.087.122-.091.119-.095.115-.1.112-.104.107-.107.104-.112.1-.115.095-.119.091-.122.087-.125.082-.128.077-.131.072-.133.068-.136.062-.139.057-.14.053-.142.046-.144.042-.145.036-.146.03-.148.025-.148.02-.149.014-.149.008-.15.003-.15-.003-.149-.008-.149-.014-.148-.02-.148-.025-.146-.03-.145-.036-.144-.042-.142-.046-.14-.053-.139-.057-.136-.062-.133-.068-.131-.072-.128-.077-.125-.082-.122-.087-.119-.091-.115-.095-.112-.1-.107-.104-3.474-3.473-.072-.073-.08-.083-.078-.084-.078-.084-.076-.086-.075-.086-.074-.087-.073-.088-.071-.089-.07-.089-.069-.09-.067-.091-.066-.091-.066-.093-.064-.093-.062-.093-.062-.094-.06-.095-.058-.095-.058-.096-.056-.096-.055-.098-.053-.096-.053-.099-.051-.099-.05-.099-.048-.099-.047-.1-.046-.101-.05-.112-.08-.191-.08-.204-.075-.207-.069-.207-.065-.208-.059-.209-.054-.211-.049-.212-.044-.212-.038-.212-.034-.214-.028-.214-.023-.215-.018-.215-.013-.214-.008-.215-.002-.216.002-.216.008-.215.013-.214.018-.215.023-.215.028-.214.034-.214.038-.212.044-.212.049-.212.054-.211.059-.209.065-.208.069-.207.075-.207.08-.204.08-.191.05-.112.046-.101.047-.1.048-.099.05-.099.051-.099.053-.099.053-.096.055-.098.056-.096.058-.096.058-.095.06-.095.062-.094.062-.093.064-.093.066-.093.066-.091.067-.091.069-.09.07-.089.071-.089.073-.088.074-.087.075-.086.076-.086.078-.084.078-.084.08-.083.072-.073 3.474-3.473.107-.104.112-.1.115-.095.119-.091.122-.087.125-.082.128-.077.131-.072.133-.068.136-.062.139-.057.14-.053.142-.046.144-.042.145-.036.146-.03.148-.025.148-.02.149-.014.149-.008.15-.003.15.003z"/><path d="m4.15 5.003.149.008.149.014.148.02.148.025.146.03.145.036.144.042.142.046.14.053.139.057.136.062.133.068.131.072.128.077.125.082.122.087.119.091.115.095.112.1.107.104 3.474 3.473.072.073.08.083.078.084.078.084.076.086.075.086.074.087.073.088.071.089.07.089.069.09.067.091.066.091.066.093.064.093.062.093.062.094.06.095.058.095.058.096.056.096.055.098.053.096.053.099.051.099.05.099.048.099.047.1.046.1.049.113.081.191.08.204.075.207.069.207.065.208.059.209.054.211.049.211.044.213.038.213.034.213.028.214.023.215.018.215.013.214.008.215.002.216-.002.216-.008.215-.013.214-.018.215-.023.215-.028.214-.034.213-.038.213-.044.213-.049.211-.054.211-.059.209-.065.208-.069.207-.075.207-.08.204-.081.191-.049.113-.046.1-.047.1-.048.099-.05.099-.051.099-.053.099-.053.096-.055.098-.056.096-.058.096-.058.095-.06.095-.062.094-.062.093-.064.093-.066.093-.066.091-.067.091-.069.09-.07.089-.071.089-.073.088-.074.087-.075.086-.076.086-.078.084-.078.084-.08.083-.072.073-3.474 3.473-.107.104-.112.1-.115.095-.119.091-.122.087-.125.082-.128.077-.131.072-.133.068-.136.062-.139.057-.14.053-.142.046-.144.042-.145.036-.146.03-.148.025-.148.02-.149.014-.149.008-.15.003-.15-.003-.149-.008-.149-.014-.148-.02-.148-.025-.146-.03-.145-.036-.144-.042-.142-.046-.14-.053-.139-.057-.136-.062-.133-.068-.131-.072-.128-.077-.125-.082-.122-.087-.119-.091-.115-.095-.112-.1-.107-.104-.104-.107-.1-.112-.095-.115-.091-.119-.087-.122-.082-.125-.077-.128-.072-.131-.068-.133-.062-.136-.057-.139-.053-.14-.046-.142-.042-.144-.036-.145-.03-.146-.025-.148-.02-.148-.014-.149-.008-.149-.003-.15.003-.15.008-.149.014-.149.02-.148.025-.148.03-.146.036-.145.042-.144.046-.142.053-.14.057-.139.062-.136.068-.133.072-.131.077-.128.082-.125.087-.122.091-.119.095-.115.1-.112.104-.107 3.455-3.456.019-.019.009-.01.01-.01.009-.01.008-.009.009-.011.009-.01.008-.009.008-.01.008-.01.007-.01.008-.011.008-.01.006-.01.007-.009.007-.011.007-.01.006-.01.006-.01.007-.011.006-.01.006-.01.006-.012.005-.01.005-.01.006-.011.005-.01.005-.011.005-.011.014-.033.008-.022.009-.022.007-.023.007-.023.007-.023.006-.023.005-.024.005-.023.004-.024.004-.024.003-.025.003-.024.002-.024.001-.025.001-.025.001-.024-.001-.024-.001-.025-.001-.025-.002-.024-.003-.024-.003-.025-.004-.024-.004-.024-.005-.023-.005-.024-.006-.023-.007-.023-.007-.023-.007-.023-.009-.022-.008-.022-.014-.033-.005-.011-.005-.011-.005-.01-.006-.011-.005-.01-.005-.01-.006-.012-.006-.01-.006-.01-.007-.011-.006-.01-.006-.01-.007-.01-.007-.011-.007-.009-.006-.01-.008-.01-.008-.011-.007-.01-.008-.01-.008-.01-.008-.009-.009-.01-.009-.011-.008-.009-.009-.01-.01-.01-.009-.01-.019-.019-3.455-3.456-.104-.107-.1-.112-.095-.115-.091-.119-.087-.122-.082-.125-.077-.128-.072-.131-.068-.133-.062-.136-.057-.139-.053-.14-.046-.142-.042-.144-.036-.145-.03-.146-.025-.148-.02-.148-.014-.149-.008-.149-.003-.15.003-.15.008-.149.014-.149.02-.148.025-.148.03-.146.036-.145.042-.144.046-.142.053-.14.057-.139.062-.136.068-.133.072-.131.077-.128.082-.125.087-.122.091-.119.095-.115.1-.112.104-.107.107-.104.112-.1.115-.095.119-.091.122-.087.125-.082.128-.077.131-.072.133-.068.136-.062.139-.057.14-.053.142-.046.144-.042.145-.036.146-.03.148-.025.148-.02.149-.014.149-.008.15-.003.15.003z"/><g fill="#e02a33"><path d="m9.105 2.003.104.008.104.014.103.019.102.024.1.03.099.035.096.04.095.045.092.05.089.055.087.059.083.064.079.068.076.072 3.46 3.46.033.032.028.027.028.027.029.026.029.026.029.025.029.024.029.025.03.024.03.023.03.023.03.022.03.022.031.022.031.021.031.021.031.02.032.02.031.02.031.019.033.018.032.018.032.018.032.017.033.017.033.017.032.016.033.015.034.015.027.013.073.03.068.027.068.025.069.023.069.021.07.02.07.018.07.016.071.015.071.013.072.011.071.009.072.008.072.006.073.004.072.003.072.001.072-.001.072-.003.073-.004.072-.006.072-.008.071-.009.072-.011.071-.013.071-.015.07-.016.07-.018.07-.02.069-.021.069-.023.068-.025.068-.027.073-.03.028-.013.033-.015.033-.015.032-.016.033-.017.033-.017.032-.017.032-.018.032-.018.033-.018.031-.019.031-.02.032-.02.031-.02.031-.021.031-.021.031-.022.03-.021.03-.023.03-.023.03-.023.03-.024.029-.025.029-.024.029-.025.029-.026.029-.026.028-.027.028-.027.033-.032 3.46-3.46.076-.072.079-.068.083-.064.087-.059.089-.055.092-.05.095-.045.096-.04.099-.035.1-.03.102-.024.103-.019.104-.014.104-.008.105-.003.105.003.104.008.104.014.103.019.102.024.1.03.099.035.096.04.095.045.092.05.089.055.087.059.083.064.079.068.076.072.072.076.068.079.064.083.059.087.055.089.05.092.045.095.04.096.035.099.03.1.024.102.019.103.014.104.008.104.003.105-.003.105-.008.104-.014.104-.019.103-.024.102-.03.1-.035.099-.04.096-.045.095-.05.092-.055.089-.059.087-.064.083-.068.079-.072.076-3.469 3.469-.059.059-.065.062-.065.061-.066.061-.067.059-.067.059-.068.057-.068.057-.069.055-.07.055-.07.053-.07.053-.071.051-.072.051-.072.05-.073.048-.073.048-.073.046-.075.046-.074.045-.075.043-.075.043-.076.042-.076.04-.077.04-.077.039-.077.037-.078.037-.078.036-.084.037-.152.063-.159.062-.16.059-.161.054-.162.05-.163.046-.163.042-.165.038-.165.034-.165.03-.167.026-.166.022-.167.018-.167.014-.168.01-.167.006-.168.002-.168-.002-.167-.006-.168-.01-.167-.014-.167-.018-.166-.022-.167-.026-.165-.03-.165-.034-.165-.038-.163-.042-.163-.046-.162-.05-.161-.054-.16-.059-.159-.062-.152-.063-.084-.038-.078-.035-.078-.037-.077-.037-.077-.039-.077-.04-.076-.04-.076-.042-.075-.043-.075-.043-.074-.045-.075-.046-.073-.046-.073-.048-.073-.048-.072-.05-.071-.051-.072-.051-.07-.053-.07-.053-.07-.055-.069-.055-.068-.057-.068-.057-.067-.059-.067-.059-.066-.061-.065-.061-.065-.062-.059-.059-3.469-3.469-.072-.076-.068-.079-.064-.083-.059-.087-.055-.089-.05-.092-.045-.095-.04-.096-.035-.099-.03-.1-.024-.102-.019-.103-.014-.104-.008-.104-.003-.105.003-.105.008-.104.014-.104.019-.103.024-.102.03-.1.035-.099.04-.096.045-.095.05-.092.055-.089.059-.087.064-.083.068-.079.072-.076.076-.072.079-.068.083-.064.087-.059.089-.055.092-.05.095-.045.096-.04.099-.035.1-.03.102-.024.103-.019.104-.014.104-.008.105-.003z"/><path d="m16.168 21.073.167.006.168.01.167.014.167.018.166.022.167.026.165.03.165.034.165.038.163.042.163.046.162.05.161.054.16.059.159.062.152.063.084.037.078.036.078.037.077.037.077.039.077.04.076.04.076.042.075.043.075.043.074.045.075.046.073.046.073.048.073.048.072.05.072.051.071.051.07.053.07.053.07.055.069.055.068.057.068.057.067.059.067.059.066.061.065.061.065.062.059.059 3.469 3.469.072.076.068.079.064.083.059.087.055.089.05.092.045.095.04.096.035.099.03.1.024.102.019.103.014.104.008.104.003.105-.003.105-.008.104-.014.104-.019.103-.024.102-.03.1-.035.099-.04.096-.045.095-.05.092-.055.089-.059.087-.064.083-.068.079-.072.076-.076.072-.079.068-.083.064-.087.059-.089.055-.092.05-.095.045-.096.04-.099.035-.1.03-.102.024-.103.019-.104.014-.104.008-.105.003-.105-.003-.104-.008-.104-.014-.103-.019-.102-.024-.1-.03-.099-.035-.096-.04-.095-.045-.092-.05-.089-.055-.087-.059-.083-.064-.079-.068-.076-.072-3.46-3.46-.033-.032-.028-.027-.028-.027-.029-.026-.029-.026-.029-.025-.029-.024-.029-.025-.03-.024-.03-.023-.03-.023-.03-.023-.03-.021-.031-.022-.031-.021-.031-.021-.031-.02-.032-.02-.031-.02-.031-.019-.033-.018-.032-.018-.032-.018-.032-.017-.033-.017-.033-.017-.032-.016-.033-.015-.033-.015-.028-.013-.073-.03-.068-.027-.068-.025-.069-.023-.069-.021-.07-.02-.07-.018-.07-.016-.071-.015-.071-.013-.072-.011-.071-.009-.072-.008-.072-.006-.073-.004-.072-.003-.072-.001-.072.001-.072.003-.073.004-.072.006-.072.008-.071.009-.072.011-.071.013-.071.015-.07.016-.07.018-.07.02-.069.021-.069.023-.068.025-.068.027-.073.03-.027.013-.034.015-.033.015-.032.016-.033.017-.033.017-.032.017-.032.018-.032.018-.033.018-.031.019-.031.02-.032.02-.031.02-.031.021-.031.021-.031.022-.03.022-.03.022-.03.023-.03.023-.03.024-.029.025-.029.024-.029.025-.029.026-.029.026-.028.027-.028.027-.033.032-3.46 3.46-.076.072-.079.068-.083.064-.087.059-.089.055-.092.05-.095.045-.096.04-.099.035-.1.03-.102.024-.103.019-.104.014-.104.008-.105.003-.105-.003-.104-.008-.104-.014-.103-.019-.102-.024-.1-.03-.099-.035-.096-.04-.095-.045-.092-.05-.089-.055-.087-.059-.083-.064-.079-.068-.076-.072-.072-.076-.068-.079-.064-.083-.059-.087-.055-.089-.05-.092-.045-.095-.04-.096-.035-.099-.03-.1-.024-.102-.019-.103-.014-.104-.008-.104-.003-.105.003-.105.008-.104.014-.104.019-.103.024-.102.03-.1.035-.099.04-.096.045-.095.05-.092.055-.089.059-.087.064-.083.068-.079.072-.076 3.469-3.469.059-.059.065-.062.065-.061.066-.061.067-.059.067-.059.068-.057.068-.057.069-.055.07-.055.07-.053.07-.053.072-.051.071-.051.072-.05.073-.048.073-.048.073-.046.075-.046.074-.045.075-.043.075-.043.076-.042.076-.04.077-.04.077-.039.077-.037.078-.037.078-.035.084-.038.152-.063.159-.062.16-.059.161-.054.162-.05.163-.046.163-.042.165-.038.165-.034.165-.03.167-.026.166-.022.167-.018.167-.014.168-.01.167-.006.168-.002z"/><path d="m28.105 7.003.104.008.104.014.103.019.102.024.1.03.099.035.096.04.095.045.092.05.089.055.087.059.083.064.079.068.076.072.072.076.068.079.064.083.059.087.055.089.05.092.045.095.04.096.035.099.03.1.024.102.019.103.014.104.008.104.003.105-.003.105-.008.104-.014.104-.019.103-.024.102-.03.1-.035.099-.04.096-.045.095-.05.092-.055.089-.059.087-.064.083-.068.079-.072.076-3.46 3.46-.032.033-.027.028-.027.028-.026.029-.025.028-.026.03-.025.029-.024.029-.024.03-.023.03-.023.03-.023.03-.022.031-.021.03-.021.031-.021.031-.02.031-.02.031-.02.032-.019.032-.018.031-.018.032-.018.033-.017.032-.017.033-.017.032-.016.033-.015.033-.015.034-.013.027-.03.073-.027.068-.025.068-.023.069-.021.069-.02.07-.018.07-.016.07-.015.071-.013.071-.011.072-.009.072-.008.071-.006.072-.004.073-.003.072-.001.072.001.072.003.072.004.073.006.072.008.071.009.072.011.072.013.071.015.071.016.07.018.07.02.07.021.069.023.069.025.068.027.068.03.073.013.027.015.034.015.033.016.033.017.032.017.033.017.032.018.033.018.032.018.031.019.032.02.032.02.031.02.031.021.031.021.031.021.03.022.031.023.03.023.03.023.03.024.03.024.029.025.029.026.03.025.028.026.029.027.028.027.028.032.033 3.46 3.46.072.076.068.079.064.083.059.087.055.089.05.092.045.095.04.096.035.099.03.1.024.102.019.103.014.104.008.104.003.105-.003.105-.008.104-.014.104-.019.103-.024.102-.03.1-.035.099-.04.096-.045.095-.05.092-.055.089-.059.087-.064.083-.068.079-.072.076-.076.072-.079.068-.083.064-.087.059-.089.055-.092.05-.095.045-.096.04-.099.035-.1.03-.102.024-.103.019-.104.014-.104.008-.105.003-.105-.003-.104-.008-.104-.014-.103-.019-.102-.024-.1-.03-.099-.035-.096-.04-.095-.045-.092-.05-.089-.055-.087-.059-.083-.064-.079-.068-.076-.072-3.469-3.469-.059-.059-.062-.065-.061-.065-.061-.066-.059-.067-.059-.067-.057-.068-.057-.068-.055-.069-.055-.07-.053-.07-.053-.07-.051-.071-.051-.072-.05-.072-.048-.073-.048-.073-.047-.074-.045-.074-.045-.074-.043-.075-.043-.076-.042-.075-.04-.076-.04-.077-.039-.077-.037-.077-.037-.078-.035-.078-.038-.084-.063-.152-.063-.159-.058-.16-.054-.161-.05-.162-.046-.163-.042-.163-.038-.165-.034-.165-.03-.165-.026-.167-.022-.166-.018-.167-.014-.167-.01-.168-.006-.167-.002-.168.002-.168.006-.167.01-.168.014-.167.018-.167.022-.166.026-.167.03-.165.034-.165.038-.165.042-.163.046-.163.05-.162.054-.161.058-.16.063-.159.063-.152.038-.084.035-.078.037-.078.037-.077.039-.077.04-.077.04-.076.042-.075.043-.076.043-.075.045-.074.045-.074.047-.074.048-.073.048-.073.05-.072.051-.072.051-.071.053-.07.053-.07.055-.07.055-.069.057-.068.057-.068.059-.067.059-.067.061-.066.061-.065.062-.065.059-.059 3.469-3.469.076-.072.079-.068.083-.064.087-.059.089-.055.092-.05.095-.045.096-.04.099-.035.1-.03.102-.024.103-.019.104-.014.104-.008.105-.003.105.003z"/><path d="m4.105 7.003.104.008.104.014.103.019.102.024.1.03.099.035.096.04.095.045.092.05.089.055.087.059.083.064.079.068.076.072 3.469 3.469.059.059.062.065.061.065.061.066.059.067.059.067.057.067.057.069.055.069.055.07.053.07.053.07.051.071.051.072.05.072.048.073.048.073.047.074.045.074.045.074.043.075.043.076.042.075.04.076.04.077.039.077.037.077.037.078.035.078.038.084.063.152.063.159.058.16.054.161.05.162.046.163.042.163.038.165.034.165.03.166.026.166.022.166.018.167.014.167.01.168.006.167.002.168-.002.168-.006.167-.01.168-.014.167-.018.167-.022.166-.026.166-.03.166-.034.165-.038.165-.042.163-.046.163-.05.162-.054.161-.058.16-.063.159-.063.152-.038.084-.035.078-.037.078-.037.077-.039.077-.04.077-.04.076-.042.075-.043.076-.043.075-.045.074-.045.074-.047.074-.048.073-.048.073-.05.072-.051.072-.051.071-.053.07-.053.07-.055.07-.055.069-.057.069-.057.067-.059.067-.059.067-.061.066-.061.065-.062.065-.059.059-3.469 3.469-.076.072-.079.068-.083.064-.087.059-.089.055-.092.05-.095.045-.096.04-.099.035-.1.03-.102.024-.103.019-.104.014-.104.008-.105.003-.105-.003-.104-.008-.104-.014-.103-.019-.102-.024-.1-.03-.099-.035-.096-.04-.095-.045-.092-.05-.089-.055-.087-.059-.083-.064-.079-.068-.076-.072-.072-.076-.068-.079-.064-.083-.059-.087-.055-.089-.05-.092-.045-.095-.04-.096-.035-.099-.03-.1-.024-.102-.019-.103-.014-.104-.008-.104-.003-.105.003-.105.008-.104.014-.104.019-.103.024-.102.03-.1.035-.099.04-.096.045-.095.05-.092.055-.089.059-.087.064-.083.068-.079.072-.076 3.46-3.46.032-.033.027-.028.027-.028.026-.029.025-.028.026-.03.025-.029.024-.029.024-.03.023-.03.023-.03.023-.03.022-.031.021-.03.021-.031.021-.031.02-.031.02-.031.02-.032.019-.032.018-.031.018-.032.018-.033.017-.032.017-.033.017-.032.016-.033.015-.033.016-.034.012-.027.03-.073.027-.068.025-.068.023-.069.021-.069.02-.07.018-.07.016-.07.015-.071.013-.071.011-.072.009-.072.008-.071.006-.072.004-.073.003-.072.001-.072-.001-.072-.003-.072-.004-.073-.006-.072-.008-.071-.009-.072-.011-.072-.013-.071-.015-.071-.016-.07-.018-.07-.02-.07-.021-.069-.023-.069-.025-.068-.027-.068-.03-.073-.012-.027-.016-.034-.015-.033-.016-.033-.017-.032-.017-.033-.017-.032-.018-.033-.018-.032-.018-.031-.019-.032-.02-.032-.02-.031-.02-.031-.021-.031-.021-.031-.021-.03-.022-.031-.023-.03-.023-.03-.023-.03-.024-.03-.024-.029-.025-.029-.026-.03-.025-.028-.026-.029-.027-.028-.027-.028-.032-.033-3.46-3.46-.072-.076-.068-.079-.064-.083-.059-.087-.055-.089-.05-.092-.045-.095-.04-.096-.035-.099-.03-.1-.024-.102-.019-.103-.014-.104-.008-.104-.003-.105.003-.105.008-.104.014-.104.019-.103.024-.102.03-.1.035-.099.04-.096.045-.095.05-.092.055-.089.059-.087.064-.083.068-.079.072-.076.076-.072.079-.068.083-.064.087-.059.089-.055.092-.05.095-.045.096-.04.099-.035.1-.03.102-.024.103-.019.104-.014.104-.008.105-.003.105.003z"/></g></g></svg>