<svg clip-rule="evenodd" fill-rule="evenodd" stroke-linecap="round" stroke-miterlimit="1.5" viewBox="0 0 32 32" xmlns="http://www.w3.org/2000/svg" xmlns:xlink="http://www.w3.org/1999/xlink"><clipPath id="a"><path clip-rule="evenodd" d="m0 0h32v32h-32z"/></clipPath><metadata/><path d="m0 0h32v32h-32z" fill="none"/><g clip-path="url(#a)"><path d="m16.703 2.015c.155-.015.311-.018.466-.01.144-.411.381-.798.71-1.126 1.17-1.171 3.072-1.171 4.242 0l.879.878.879-.878c1.17-1.171 3.072-1.171 4.242 0 .329.328.566.715.71 1.126.823-.046 1.662.245 2.29.874 1.171 1.17 1.171 3.072 0 4.242l-.878.879.878.879c1.14 1.139 1.17 2.971.091 4.148.511 1.565.788 3.237.788 4.973v1c0 7.18-5.82 13-13 13h-6c-7.18 0-13-5.82-13-13 0-.332 0-.665 0-1 0-8.837 7.163-16 16-16h.103c.201.002.4.007.6.015z"/><path d="m30 18c0-7.732-6.268-14-14-14-7.732 0-14 6.268-14 14v1c0 6.075 4.925 11 11 11h6c6.075 0 11-4.925 11-11 0-.332 0-.665 0-1z" fill="#fbc546"/><path d="m23.2 13.4 1.401-.7c.131.098.257.207.374.325.656.656 1.025 1.545 1.025 2.473v2.002c0 1.933-1.567 3.5-3.5 3.5h-.002c-.928 0-1.817-.369-2.473-1.025s-1.025-1.545-1.025-2.473v-2.002l1-.5c0 .936 3.275-1.544 3.2-1.6z" fill="#fff"/><path d="m23.2 13.4c.075.056.147.118.214.186.375.375.586.884.586 1.414v2.983c0 .531-.211 1.039-.586 1.415-.375.375-.884.585-1.414.585s-1.039-.21-1.414-.585c-.375-.376-.586-.884-.586-1.415v-2.983z"/><path d="m8.8 13.4-1.401-.7c-.131.098-.257.207-.374.325-.656.656-1.025 1.545-1.025 2.473v2.002c0 1.933 1.567 3.5 3.5 3.5h.002c.928 0 1.817-.369 2.473-1.025s1.025-1.545 1.025-2.473v-2.002l-1-.5c0 .936-3.275-1.544-3.2-1.6z" fill="#fff"/><path d="m8.8 13.4c-.075.056-.147.118-.214.186-.375.375-.586.884-.586 1.414v2.983c0 .531.211 1.039.586 1.415.375.375.884.585 1.414.585s1.039-.21 1.414-.585c.375-.376.586-.884.586-1.415v-2.983z"/><g fill="none" stroke-width="2"><path d="m11 26.5s.011-.043.03-.12c.57-2.28 2.619-3.88 4.969-3.88h.002c2.35 0 4.399 1.6 4.969 3.88.019.077.03.12.03.12" stroke="#593604"/><path d="m17 5s.808.808 1.586 1.586c.781.781.781 2.047 0 2.828-.778.778-1.586 1.586-1.586 1.586" stroke="#f00"/><path d="m29 5s-.808.808-1.586 1.586c-.781.781-.781 2.047 0 2.828.778.778 1.586 1.586 1.586 1.586" stroke="#f00"/><path d="m20 13s.808-.808 1.586-1.586c.781-.781 2.047-.781 2.828 0 .778.778 1.586 1.586 1.586 1.586" stroke="#f00"/><path d="m20 3s.808.808 1.586 1.586c.781.781 2.047.781 2.828 0 .778-.778 1.586-1.586 1.586-1.586" stroke="#f00"/></g></g></svg>