<svg clip-rule="evenodd" fill-rule="evenodd" stroke-linejoin="round" stroke-miterlimit="1.41421" viewBox="0 0 32 32" xmlns="http://www.w3.org/2000/svg" xmlns:xlink="http://www.w3.org/1999/xlink"><clipPath id="a"><path clip-rule="evenodd" d="m0 0h32v32h-32z"/></clipPath><metadata/><path d="m0 0h32v32h-32z" fill="none"/><g clip-path="url(#a)"><path d="m16.193 1.001.193.004.193.006.191.008.191.011.191.014.19.015.189.018.189.021.188.022.187.025.187.028.186.029.185.032.184.034.184.037.183.038.182.041.181.043.18.045.18.048.178.049.178.052.177.054.176.056.175.058.174.06.172.062.173.064.17.066.17.068.169.071.168.072.167.074.166.076.164.078.164.08.162.082.161.084.16.086.159.087.158.089.156.092.156.093.154.095.152.096.152.099.15.1.149.102.148.104.146.105.145.107.144.109.142.11.141.112.139.114.138.115.137.117.135.119.134.12.133.122.13.123.13.125.128.126.126.128.125.13.123.131.122.132.12.134.119.135.117.137.115.138.114.139.112.141.11.143.109.143.107.145.106.146.103.148.102.149.1.15.099.152.096.152.095.155.093.155.091.156.09.158.087.159.086.16.084.161.082.162.08.164.078.164.076.166.074.167.072.168.071.169.068.169.066.171.064.173.062.172.06.174.058.175.056.176.054.177.052.178.049.178.048.18.045.18.043.181.041.182.038.183.037.184.034.184.032.185.029.186.028.187.025.187.022.188.021.189.018.189.015.19.014.191.011.191.008.192.006.192.004.193.001.187v1.287l.059.067.062.074.06.075.058.076.055.076.054.079.052.08.049.081.048.082.046.083.044.084.041.085.039.086.038.087.035.088.033.09.031.089.028.09.027.091.024.091.022.093.02.093.017.093.016.095.013.094.01.095.008.095.006.097.004.097.001.083v.031l-.002.117-.007.134-.012.133-.016.133-.021.13-.025.13-.03.128-.034.128-.039.125-.042.124-.047.122-.051.12-.054.118-.059.116-.063.114-.066.112-.071.109-.073.107-.078.105-.081.101-.085.1-.088.096-.092.093-.095.091-.099.087-.101.084-.105.081-.107.077-.111.074-.046.028-.048.117-.064.151-.067.15-.068.149-.071.148-.074.147-.075.146-.078.144-.079.144-.082.142-.084.142-.087.14-.088.139-.091.137-.092.137-.095.135-.097.133-.099.133-.101.131-.103.129-.105.129-.108.127-.109.125-.111.123-.113.123-.115.12-.117.118-.098.097-.098.095-.1.093-.1.092-.101.091-.103.089-.103.088-.105.087-.105.085-.106.084-.108.082-.108.082-.109.079-.11.079-.111.077-.111.075-.113.074-.113.073-.114.071-.115.07-.116.068-.117.067-.117.065-.118.064-.119.063-.12.061-.12.059-.121.058-.122.057-.122.055-.123.054-.123.052-.125.05-.125.049-.125.048-.126.046-.127.044-.127.043-.128.042-.128.04-.128.038-.13.037-.129.035-.131.033-.13.032-.131.031-.132.028-.132.028-.132.025-.133.024-.133.023-.134.021-.133.019-.135.017-.134.016-.135.014-.135.013-.135.011-.136.009-.136.008-.136.005-.136.005-.136.002-.131.001h-8.012l-.131-.001-.136-.002-.136-.005-.136-.005-.136-.008-.136-.009-.135-.011-.135-.013-.135-.014-.134-.016-.135-.017-.133-.019-.134-.021-.133-.023-.133-.024-.132-.025-.132-.028-.132-.028-.131-.031-.13-.032-.131-.033-.129-.035-.13-.037-.128-.038-.128-.04-.128-.042-.127-.043-.127-.044-.126-.046-.126-.048-.124-.049-.125-.05-.123-.052-.123-.054-.122-.055-.122-.057-.121-.058-.12-.059-.12-.061-.119-.063-.118-.064-.117-.065-.117-.067-.116-.068-.115-.07-.114-.071-.113-.073-.113-.074-.111-.075-.111-.077-.11-.079-.109-.079-.109-.082-.107-.082-.106-.084-.105-.085-.105-.087-.103-.088-.103-.089-.101-.091-.1-.092-.1-.093-.098-.095-.098-.097-.116-.118-.116-.12-.113-.123-.111-.123-.109-.125-.108-.127-.105-.129-.103-.129-.101-.131-.099-.133-.097-.133-.095-.135-.092-.137-.091-.137-.088-.139-.087-.14-.084-.142-.082-.142-.079-.144-.078-.144-.075-.146-.074-.147-.071-.148-.068-.149-.067-.15-.064-.151-.048-.117-.046-.028-.111-.074-.107-.077-.105-.081-.101-.084-.099-.087-.095-.091-.092-.093-.088-.096-.085-.1-.081-.101-.078-.105-.074-.107-.07-.109-.066-.112-.063-.114-.059-.116-.054-.118-.051-.12-.047-.123-.042-.123-.039-.125-.034-.128-.03-.128-.025-.13-.021-.131-.016-.132-.012-.133-.007-.133-.002-.117v-.033l.001-.083.004-.096.006-.097.008-.095.01-.095.013-.094.016-.095.017-.093.02-.093.022-.092.024-.092.027-.091.028-.09.031-.09.033-.089.035-.088.038-.087.039-.086.041-.085.044-.084.046-.083.048-.082.049-.081.052-.08.054-.078.055-.077.059-.077.059-.074.062-.074.059-.067v-1.287l.001-.187.004-.193.006-.192.008-.192.011-.191.014-.191.015-.19.018-.189.021-.189.022-.188.025-.187.028-.187.029-.186.032-.185.034-.184.037-.184.038-.183.041-.182.043-.181.045-.18.048-.18.049-.178.052-.178.054-.177.056-.176.058-.175.06-.174.062-.172.064-.172.066-.172.068-.17.071-.168.072-.168.074-.167.076-.166.078-.164.08-.164.082-.162.084-.161.086-.16.087-.159.09-.158.091-.156.093-.155.095-.155.096-.152.099-.152.1-.15.102-.149.103-.148.106-.146.107-.145.109-.144.11-.142.112-.141.114-.139.115-.138.117-.137.119-.135.12-.134.122-.132.123-.131.125-.13.126-.128.128-.126.13-.125.13-.123.133-.122.134-.12.135-.119.137-.117.138-.115.139-.114.141-.112.142-.11.144-.109.145-.107.146-.106.148-.103.149-.102.15-.1.152-.099.153-.096.153-.095.156-.093.156-.091.158-.09.159-.087.16-.086.161-.084.162-.082.164-.08.164-.078.166-.076.167-.074.168-.072.169-.071.17-.068.171-.066.172-.064.172-.062.174-.06.175-.058.176-.056.177-.054.178-.052.178-.049.18-.048.18-.045.181-.043.182-.041.183-.038.184-.037.184-.034.185-.032.186-.029.187-.028.187-.025.188-.022.189-.021.189-.018.19-.015.191-.014.191-.011.191-.008.193-.006.193-.004.193-.001.193.001zm-.336 4-.142.003-.142.004-.141.006-.14.008-.14.01-.14.012-.139.013-.139.015-.138.017-.137.018-.137.02-.136.022-.136.023-.134.025-.135.027-.134.028-.133.03-.133.031-.132.033-.131.035-.13.036-.131.038-.129.039-.128.041-.128.043-.128.043-.126.046-.126.047-.125.048-.124.05-.124.052-.123.053-.122.054-.121.056-.121.057-.12.058-.118.06-.119.062-.117.063-.116.064-.116.065-.115.067-.113.068-.113.07-.112.071-.111.072-.111.073-.109.075-.109.076-.107.078-.106.078-.106.08-.104.081-.104.083-.102.083-.102.085-.1.086-.1.087-.098.088-.097.09-.096.09-.095.092-.094.093-.093.094-.092.095-.09.096-.09.097-.088.099-.087.099-.086.1-.085.102-.083.102-.083.104-.081.104-.08.106-.078.106-.078.107-.076.109-.075.109-.073.11-.072.112-.071.112-.07.113-.068.113-.067.115-.065.116-.065.116-.062.117-.062.118-.06.119-.058.12-.057.121-.056.121-.054.122-.053.123-.052.124-.05.124-.048.125-.047.126-.045.126-.044.128-.043.127-.041.129-.039.13-.038.129-.036.131-.035.131-.033.132-.031.133-.03.133-.029.134-.026.134-.025.135-.023.136-.022.137-.02.136-.018.137-.017.138-.015.139-.013.139-.012.14-.01.14-.008.14-.006.141-.004.142-.003.142-.001.149v3.392l-.822.455.884.442.295.911.033.099.036.098.036.098.038.097.04.097.041.096.042.096.044.094.045.094.046.094.048.093.05.092.051.091.052.091.053.09.055.089.056.088.058.088.059.087.06.086.062.085.063.084.064.083.066.083.067.081.068.081.069.08.071.079.072.077.074.077.075.077.061.06.063.06.063.06.064.058.065.058.064.057.066.056.067.055.067.054.068.053.068.053.068.051.07.051.07.05.07.049.072.048.071.047.072.046.073.046.073.044.074.043.074.043.075.042.075.04.075.04.077.039.076.038.077.037.077.036.078.035.079.034.078.033.079.032.08.032.08.03.08.029.08.028.081.028.082.026.081.025.082.025.082.023.083.023.083.021.083.02.083.02.084.018.084.017.084.017.085.015.084.014.085.013.085.012.086.012.085.01.086.009.086.008.086.007.086.006.087.004.086.004.087.003.087.001.093.001h7.988l.093-.001.087-.001.087-.003.086-.004.087-.004.086-.006.086-.007.086-.008.086-.009.085-.01.086-.012.085-.012.085-.013.084-.014.085-.015.084-.017.084-.017.083-.018.084-.02.083-.02.083-.021.083-.023.082-.023.082-.025.081-.025.082-.026.081-.028.08-.028.08-.029.08-.03.08-.032.079-.032.078-.033.079-.034.078-.035.077-.036.077-.037.076-.038.077-.039.075-.04.075-.04.075-.042.074-.043.074-.043.073-.045.073-.045.072-.046.071-.047.072-.048.07-.049.07-.05.07-.051.068-.051.069-.053.067-.053.067-.054.067-.055.066-.056.064-.057.065-.058.064-.058.063-.06.063-.06.061-.06.075-.077.074-.077.072-.078.071-.078.069-.08.068-.081.067-.081.066-.083.064-.083.063-.084.062-.085.06-.086.059-.087.058-.088.056-.088.055-.089.053-.09.052-.091.051-.091.05-.092.048-.093.046-.094.045-.094.044-.094.042-.096.041-.096.04-.097.038-.097.036-.098.036-.098.033-.099.295-.911.884-.442-.822-.455v-3.392l-.001-.149-.003-.142-.004-.142-.006-.141-.008-.14-.01-.14-.012-.14-.013-.139-.015-.139-.016-.137-.019-.138-.02-.137-.022-.136-.023-.136-.025-.135-.027-.134-.028-.134-.03-.133-.031-.133-.033-.132-.035-.131-.036-.131-.038-.129-.039-.13-.041-.129-.043-.127-.044-.128-.045-.126-.047-.126-.048-.125-.05-.124-.052-.124-.053-.123-.054-.122-.056-.121-.057-.121-.058-.12-.06-.119-.062-.118-.062-.117-.065-.116-.065-.116-.067-.115-.068-.113-.07-.113-.071-.112-.072-.112-.073-.11-.075-.109-.076-.109-.078-.107-.078-.106-.08-.106-.081-.104-.083-.104-.083-.102-.085-.102-.086-.1-.087-.099-.088-.099-.09-.097-.09-.096-.092-.095-.093-.094-.094-.093-.095-.092-.096-.09-.097-.09-.098-.088-.1-.087-.1-.086-.102-.085-.102-.083-.104-.083-.104-.081-.106-.08-.106-.078-.108-.078-.108-.076-.109-.075-.11-.073-.112-.072-.112-.071-.113-.07-.113-.068-.115-.067-.116-.065-.116-.065-.117-.062-.119-.062-.118-.06-.12-.058-.121-.057-.121-.056-.122-.054-.123-.053-.124-.052-.124-.05-.125-.048-.126-.047-.126-.046-.128-.043-.128-.043-.128-.041-.13-.039-.13-.038-.13-.036-.131-.035-.132-.033-.133-.031-.133-.03-.134-.028-.135-.027-.134-.025-.136-.023-.136-.022-.137-.02-.137-.018-.138-.017-.139-.015-.139-.013-.139-.012-.141-.01-.14-.008-.141-.006-.142-.004-.142-.003-.143-.001z"/><path d="m29 16c0-7.18-5.82-13-13-13-7.18 0-13 5.82-13 13v3c0 2.387.948 4.676 2.636 6.364s3.977 2.636 6.364 2.636h8c2.387 0 4.676-.948 6.364-2.636s2.636-3.977 2.636-6.364c0-.978 0-1.987 0-3z" fill="#fb4646"/><path d="m24.034 7.501.046.002.045.005.045.007.045.008.044.011.044.013.043.015.042.016.041.019.041.02.04.023.038.024.038.026.036.027.035.029.034.031.032.032.031.034.029.035.027.036.026.038.024.038.023.04.02.041.019.041.016.042.015.043.013.044.011.044.008.045.007.045.005.045.002.046.001.045-.002.046-.003.045-.006.045-.008.045-.009.045-.012.044-.014.043-.016.043-.017.042-.02.041-.021.04-.024.039-.025.038-.026.037-.029.036-.029.034-.032.033-2.856 2.856 2.465.822.043.015.042.017.041.02.041.021.039.022.038.025.038.027.035.028.035.029.033.031.032.033.03.034.029.035.027.037.025.038.024.039.021.04.02.041.018.042.016.042.014.044.013.043.01.045.008.045.006.045.004.045.002.046v.045l-.003.046-.004.045-.006.045-.009.045-.01.044-.012.044-.015.043-.016.043-.018.041-.021.041-.021.04-.024.039-.026.037-.027.037-.029.035-.03.034-.032.033-.034.031-.034.029-.036.028-.038.026-.038.024-.04.023-.04.021-.041.019-.043.017-.043.015-.043.013-.044.011-.045.009-.045.007-.045.005-.046.003-.045.001-.046-.001-.045-.003-.045-.005-.045-.008-.045-.009-.044-.012-.043-.013-5.087-1.695-.114-.484 4.81-4.81.033-.032.034-.029.036-.029.037-.026.038-.025.039-.024.04-.021.041-.02.042-.017.043-.016.043-.014.044-.012.045-.009.045-.008.045-.006.045-.003.046-.002.045.001z"/><path d="m8.057 7.502.045.003.045.006.045.008.045.009.044.012.043.014.043.016.042.017.041.02.04.021.039.024.038.025.037.026.036.029.034.029.033.032 4.81 4.81-.114.484-5.087 1.695-.043.013-.044.012-.045.009-.045.008-.045.005-.045.003-.046.001-.045-.001-.046-.003-.045-.005-.045-.007-.045-.009-.044-.011-.043-.013-.043-.015-.043-.017-.041-.019-.04-.021-.04-.023-.038-.024-.038-.026-.036-.028-.034-.029-.034-.031-.032-.033-.03-.034-.029-.035-.027-.037-.026-.037-.024-.039-.021-.04-.021-.041-.018-.041-.016-.043-.015-.043-.012-.044-.01-.044-.009-.045-.006-.045-.004-.045-.003-.046v-.045l.002-.046.004-.045.006-.045.008-.045.01-.045.013-.043.014-.044.016-.042.018-.042.02-.041.021-.04.024-.039.025-.038.027-.037.029-.035.03-.034.032-.033.033-.031.035-.029.035-.028.038-.027.038-.025.039-.022.041-.021.041-.02.042-.017.043-.015 2.465-.822-2.856-2.856-.032-.033-.029-.034-.029-.036-.026-.037-.025-.038-.024-.039-.021-.04-.02-.041-.017-.042-.016-.043-.014-.043-.012-.044-.009-.045-.008-.045-.006-.045-.003-.045-.002-.046.001-.045.002-.046.005-.045.007-.045.008-.045.011-.044.013-.044.015-.043.016-.042.019-.041.02-.041.023-.04.024-.038.026-.038.027-.036.029-.035.031-.034.032-.032.034-.031.035-.029.036-.027.038-.026.038-.024.04-.023.041-.02.041-.019.042-.016.043-.015.044-.013.044-.011.045-.008.045-.007.045-.005.046-.002.045-.001.046.002z"/><path d="m16.288 15.501.097.002.097.003.097.005.097.006.096.008.096.009.096.01.096.011.095.013.095.014.095.016.094.017.094.018.094.019.093.021.093.022.093.023.092.025.092.026.092.027.091.028.09.03.09.031.09.032.089.033.089.035.088.035.087.037.087.039.087.039.086.041.085.041.085.043.084.044.084.046.083.046.082.048.082.049.081.05.08.051.08.052.079.053.078.055.078.055.077.057.076.058.075.059.075.06.073.061.073.062.072.063.072.064.07.066.07.066.069.068.067.068.067.07.067.07.065.072.064.072.063.074.063.075.059.072 2.247 2.809.044.06.04.064.035.066.03.068.025.071.02.072.014.073.008.075.003.074-.003.075-.008.075-.014.073-.019.072-.025.071-.029.068-.035.067-.04.063-.044.06-.049.057-.053.053-.056.049-.06.044-.064.04-.066.035-.068.03-.071.025-.072.02-.073.014-.075.008-.074.003-.075-.003-.075-.008-.073-.014-.072-.019-.071-.025-.069-.029-.066-.035-.063-.04-.06-.044-.057-.049-.053-.053-.049-.056-2.243-2.804-.045-.056-.044-.053-.045-.052-.046-.051-.046-.051-.047-.05-.047-.049-.048-.049-.049-.047-.049-.047-.05-.047-.05-.045-.051-.045-.052-.044-.052-.043-.053-.042-.053-.042-.054-.041-.054-.04-.055-.04-.056-.038-.056-.038-.056-.037-.057-.036-.057-.035-.058-.035-.058-.034-.059-.032-.059-.032-.06-.032-.06-.03-.06-.03-.061-.028-.062-.028-.061-.027-.062-.027-.063-.025-.062-.024-.063-.024-.064-.023-.064-.022-.064-.02-.064-.021-.065-.019-.065-.018-.065-.017-.066-.017-.066-.015-.066-.015-.066-.014-.067-.013-.066-.012-.067-.011-.068-.01-.067-.009-.068-.008-.068-.007-.068-.006-.068-.006-.068-.004-.069-.004-.069-.002-.068-.001-.073-.001h-.374l-.073.001-.068.001-.069.002-.069.004-.068.004-.068.006-.068.006-.068.007-.068.008-.067.009-.068.01-.067.011-.066.012-.067.013-.066.014-.066.015-.066.015-.066.017-.065.017-.065.018-.065.019-.064.021-.064.02-.064.022-.064.023-.063.024-.062.024-.063.025-.062.027-.061.027-.062.028-.061.028-.06.03-.06.03-.06.032-.059.032-.059.032-.058.034-.058.035-.057.035-.057.036-.056.037-.056.038-.056.039-.055.039-.054.04-.054.041-.053.042-.053.042-.052.043-.052.044-.051.045-.05.045-.05.047-.049.047-.049.047-.048.049-.047.049-.047.05-.046.05-.046.052-.045.052-.044.053-.045.056-2.243 2.804-.049.056-.053.053-.057.049-.06.044-.063.04-.067.035-.068.029-.071.025-.072.019-.074.014-.074.008-.075.003-.074-.003-.075-.008-.073-.014-.072-.02-.071-.025-.068-.03-.066-.035-.064-.04-.06-.044-.056-.049-.053-.053-.049-.057-.044-.06-.04-.063-.035-.067-.029-.068-.025-.071-.019-.072-.014-.073-.008-.075-.003-.075.003-.074.008-.075.014-.073.02-.072.025-.071.03-.068.035-.066.04-.064.044-.06 2.247-2.809.059-.073.063-.074.063-.074.064-.072.066-.072.066-.07.067-.07.067-.069.069-.067.07-.066.07-.066.072-.064.072-.063.073-.062.073-.061.075-.06.075-.059.076-.058.077-.057.078-.055.078-.055.079-.053.08-.052.08-.051.081-.05.082-.049.082-.048.083-.046.084-.046.084-.044.085-.043.085-.041.086-.041.087-.039.087-.039.087-.037.088-.035.089-.035.089-.033.09-.032.09-.031.09-.03.091-.028.092-.027.092-.026.092-.025.093-.023.093-.022.093-.021.094-.019.094-.018.094-.017.095-.016.095-.014.095-.013.096-.011.096-.01.096-.009.096-.008.097-.006.097-.005.097-.003.097-.002.094-.001h.388z" fill="#5b1010"/><g fill="#fff"><path d="m21 15 6 3h1.118c.499 0 .978.198 1.331.551s.551.832.551 1.331v.002c0 .684-.386 1.309-.998 1.615-.501.25-1.002.501-1.002.501s-.251.501-.501 1.002c-.306.612-.931.998-1.615.998-.001 0-.001 0-.002 0-.499 0-.978-.198-1.331-.551s-.551-.832-.551-1.331c0-1.038 0-2.118 0-2.118z"/><path d="m11 15-6 3s-.515 0-1.118 0c-.499 0-.978.198-1.331.551s-.551.832-.551 1.331v.002c0 .684.386 1.309.998 1.615.501.25 1.002.501 1.002.501s.251.501.501 1.002c.306.612.931.998 1.615.998h.002c.499 0 .978-.198 1.331-.551s.551-.832.551-1.331c0-1.038 0-2.118 0-2.118z"/></g></g></svg>