<svg clip-rule="evenodd" fill-rule="evenodd" stroke-linejoin="round" stroke-miterlimit="1.41421" viewBox="0 0 32 32" xmlns="http://www.w3.org/2000/svg" xmlns:xlink="http://www.w3.org/1999/xlink"><clipPath id="a"><path clip-rule="evenodd" d="m0 0h32v32h-32z"/></clipPath><metadata/><path d="m0 0h32v32h-32z" fill="none"/><g clip-path="url(#a)"><path d="m2.083 9c.086-.507.236-1.002.448-1.47.557-1.232 1.533-2.256 2.736-2.872.571-.292 1.188-.492 1.822-.589.251-.038.503-.058.757-.067.155-.002.154-.002.308 0 .254.009.506.029.757.067.634.097 1.251.297 1.822.589 1.203.616 2.179 1.64 2.736 2.872.212.468.362.963.448 1.47h16.083c.53 0 1.039.211 1.414.586s.586.884.586 1.414v15c0 1.105-.895 2-2 2-5.745 0-22.254 0-28 0-1.105 0-2-.895-2-2 0-3.65 0-11.35 0-15 0-1.105.895-2 2-2z"/><path d="m30 26h-28v-3l2-1h24l2 1z" fill="#666"/><path d="m30 11v12h-28v-12h.083l5.917 1 5.917-1z" fill="#999"/><path d="m13.917 11c-.477 2.836-2.946 5-5.917 5s-5.44-2.164-5.917-5z" fill="#737373"/><ellipse cx="8" cy="17" fill="#1c1c1c" rx="3" ry="2.25"/><ellipse cx="8" cy="17" fill="#595959" rx="1" ry=".75"/><path d="m7 11h2v6h-2z" fill="#595959"/><g fill="#8bf555"><circle cx="8" cy="10" r="4"/><ellipse cx="17" cy="14.5" rx="2" ry="1.5"/><ellipse cx="17" cy="18.5" rx="2" ry="1.5"/><ellipse cx="22" cy="13.5" rx="2" ry="1.5"/><ellipse cx="22" cy="17.5" rx="2" ry="1.5"/><ellipse cx="27" cy="13.5" rx="2" ry="1.5"/><ellipse cx="27" cy="17.5" rx="2" ry="1.5"/></g><path d="m8.086 6.601c.168.006.335.021.5.049.436.077.857.239 1.231.475.449.284.829.673 1.101 1.128.256.429.416.913.465 1.409.019.192.034.393-.013.582-.03.119-.083.233-.154.334-.053.075-.117.143-.189.201-.267.215-.636.278-.959.164-.107-.037-.207-.093-.295-.164-.185-.149-.312-.362-.356-.595-.011-.061-.016-.122-.017-.184 0-.001 0 .006 0 .004-.001-.048-.003-.096-.007-.144-.005-.046-.012-.091-.02-.136-.029-.134-.073-.263-.138-.384-.173-.325-.474-.572-.826-.68-.099-.029-.201-.048-.303-.056-.037-.003-.073-.003-.11-.004-.002 0 .005 0 .004 0-.041-.001-.082-.003-.123-.008s-.081-.013-.121-.022c-.14-.038-.27-.1-.383-.191-.096-.077-.177-.172-.239-.279-.057-.098-.096-.205-.117-.316-.079-.423.131-.861.51-1.065.128-.069.267-.106.411-.117.05-.002.099-.002.148-.001z" fill="#dbfdc9" fill-rule="nonzero"/></g></svg>