<svg clip-rule="evenodd" fill-rule="evenodd" stroke-linejoin="round" stroke-miterlimit="1.41421" viewBox="0 0 32 32" xmlns="http://www.w3.org/2000/svg" xmlns:xlink="http://www.w3.org/1999/xlink"><clipPath id="a"><path clip-rule="evenodd" d="m0 0h32v32h-32z"/></clipPath><metadata/><path d="m0 0h32v32h-32z" fill="none"/><g clip-path="url(#a)"><path d="m32 8c0-4.418-3.582-8-8-8-4.887 0-11.113 0-16 0-4.418 0-8 3.582-8 8v16c0 4.418 3.582 8 8 8h16c4.418 0 8-3.582 8-8 0-4.887 0-11.113 0-16z"/><path d="m30 8c0-1.591-.632-3.117-1.757-4.243-1.126-1.125-2.652-1.757-4.243-1.757-4.724 0-11.276 0-16 0-1.591 0-3.117.632-4.243 1.757-1.125 1.126-1.757 2.652-1.757 4.243v16c0 1.591.632 3.117 1.757 4.243 1.126 1.125 2.652 1.757 4.243 1.757h16c1.591 0 3.117-.632 4.243-1.757 1.125-1.126 1.757-2.652 1.757-4.243 0-4.724 0-11.276 0-16z" fill="#982eee"/><path d="m15 22.6c0-.036-.001-.071-.002-.107-.009-.246-.039-.488-.09-.728-.417-1.851-.918-3.682-1.378-5.522-.399-1.597-.778-3.198-1.198-4.789-.087-.298-.229-.574-.432-.81-.177-.207-.395-.379-.637-.505-.226-.116-.473-.191-.726-.221-.233-.027-.471-.015-.701.036-.259.058-.509.162-.73.31-.51.34-.853.901-.926 1.509-.033.274-.007.547.062.814l.768 2.817-1.929.526c-.266-.974-.542-1.945-.796-2.922-.038-.163-.07-.327-.09-.494-.04-.324-.04-.654-.001-.979.118-.986.601-1.914 1.341-2.577.292-.263.623-.482.977-.651.316-.15.652-.26.996-.327.173-.034.348-.054.524-.068.106-.005.211-.008.316-.008.424.012.84.076 1.243.21.943.313 1.754.971 2.256 1.829.179.307.312.634.412.975.424 1.608.808 3.226 1.211 4.839.176.702.353 1.403.53 2.105.177-.702.354-1.403.53-2.105.395-1.58.79-3.161 1.185-4.741.1-.376.242-.737.438-1.073.484-.827 1.255-1.469 2.156-1.794.399-.144.814-.22 1.237-.242.106-.003.211-.003.316 0 .177.009.352.025.526.054.38.064.752.181 1.1.346.354.169.685.388.977.651.764.685 1.253 1.652 1.351 2.674.048.495 0 .989-.125 1.469l-.772 2.829-1.929-.526c.261-.958.533-1.913.783-2.875.062-.264.079-.535.04-.805-.084-.59-.423-1.129-.919-1.46-.221-.148-.471-.252-.73-.31-.23-.051-.468-.063-.701-.036-.253.03-.5.105-.726.221-.242.126-.46.298-.637.505-.203.236-.345.512-.432.81-.42 1.591-.799 3.192-1.198 4.789-.46 1.84-.961 3.671-1.378 5.522-.06.282-.09.566-.092.854v1.381h-2c0-.467-.003-.933 0-1.4z" fill="#fff"/></g></svg>