<svg clip-rule="evenodd" fill-rule="evenodd" stroke-linejoin="round" stroke-miterlimit="1.41421" viewBox="0 0 32 32" xmlns="http://www.w3.org/2000/svg" xmlns:xlink="http://www.w3.org/1999/xlink"><clipPath id="a"><path clip-rule="evenodd" d="m0 0h32v32h-32z"/></clipPath><metadata/><path d="m0 0h32v32h-32z" fill="none"/><g clip-path="url(#a)"><path d="m24.099.001.1.001.099.003.099.005.098.005.099.007.098.008.099.009.098.01.097.012.098.013.097.014.097.015.097.016.097.017.096.019.096.02.096.021.095.022.095.023.095.025.094.025.094.027.094.028.093.029.093.03.092.031.092.032.092.034.091.035.091.035.09.037.09.038.09.039.089.04.088.041.088.042.088.044.087.044.086.045.086.047.085.048.085.048.084.05.084.051.083.051.083.053.081.054.082.055.08.056.08.057.08.058.078.059.078.06.078.061.076.062.076.063.075.064.075.065.073.066.074.067.072.067.071.069.071.07.07.071.069.071.067.073.067.073.066.073.065.075.064.075.063.076.062.077.061.077.06.078.059.078.058.08.057.08.056.08.055.082.054.082.053.082.051.083.051.084.05.084.049.085.047.085.047.086.045.086.044.087.044.088.042.088.041.088.04.089.039.09.038.09.037.09.036.091.034.091.034.092.032.092.031.092.03.093.029.093.028.094.027.094.025.094.025.095.023.095.022.095.021.096.02.096.019.096.017.097.016.097.015.097.014.097.013.098.012.097.01.098.009.099.008.098.007.098.005.099.005.1.003.098.001.099.001.094v16.012l-.001.094-.001.099-.003.098-.005.1-.005.099-.007.098-.008.098-.009.099-.01.098-.012.097-.013.098-.014.097-.015.097-.016.097-.017.097-.019.096-.02.096-.021.096-.022.095-.023.095-.025.095-.025.094-.027.094-.028.094-.029.093-.03.093-.031.092-.032.092-.034.092-.034.091-.036.091-.037.09-.038.09-.039.09-.04.089-.041.088-.042.088-.044.088-.044.087-.045.086-.047.086-.047.085-.049.085-.05.084-.051.084-.051.083-.053.082-.054.082-.055.082-.056.08-.057.08-.058.08-.059.078-.06.078-.061.077-.062.077-.063.076-.064.075-.065.075-.065.073-.068.073-.067.073-.069.071-.07.071-.071.07-.071.069-.073.067-.073.067-.073.066-.075.065-.075.064-.076.063-.076.062-.078.061-.078.06-.078.059-.08.058-.08.057-.08.056-.082.055-.081.054-.083.053-.083.051-.084.051-.084.05-.085.048-.085.048-.086.047-.086.045-.087.044-.088.044-.088.042-.088.041-.089.04-.09.039-.09.038-.09.037-.091.036-.091.034-.092.034-.092.032-.092.031-.093.03-.093.029-.094.028-.094.027-.094.025-.095.025-.095.023-.095.022-.096.021-.096.02-.096.019-.097.017-.097.016-.097.015-.097.014-.098.013-.097.012-.098.01-.099.009-.098.008-.099.007-.098.005-.099.005-.099.003-.1.001-.093.001h-16.012l-.093-.001-.1-.001-.099-.003-.099-.005-.098-.005-.099-.007-.098-.008-.099-.009-.098-.01-.097-.012-.098-.013-.097-.014-.097-.015-.097-.016-.097-.017-.096-.019-.096-.02-.096-.021-.095-.022-.095-.023-.095-.025-.094-.025-.094-.027-.094-.028-.093-.029-.093-.03-.092-.031-.092-.032-.092-.034-.091-.034-.091-.036-.09-.037-.09-.038-.09-.039-.089-.04-.088-.041-.088-.042-.088-.044-.087-.044-.086-.045-.086-.047-.085-.047-.085-.049-.084-.05-.084-.051-.083-.051-.083-.053-.081-.054-.082-.055-.08-.056-.08-.057-.08-.058-.078-.059-.078-.06-.078-.061-.076-.062-.076-.063-.075-.064-.075-.065-.074-.066-.072-.067-.073-.067-.071-.069-.071-.07-.07-.071-.069-.071-.067-.073-.067-.073-.066-.073-.065-.075-.064-.075-.063-.076-.062-.076-.061-.078-.06-.078-.059-.078-.058-.08-.057-.08-.056-.08-.055-.082-.054-.081-.053-.083-.051-.083-.051-.083-.05-.085-.049-.085-.047-.085-.047-.086-.045-.086-.044-.087-.044-.088-.042-.088-.041-.088-.04-.089-.039-.089-.038-.091-.037-.09-.036-.091-.034-.091-.034-.092-.032-.092-.031-.092-.03-.093-.029-.093-.028-.094-.027-.094-.025-.094-.025-.095-.023-.095-.022-.095-.021-.096-.02-.096-.019-.096-.017-.097-.016-.097-.015-.097-.014-.097-.013-.098-.012-.097-.01-.098-.009-.098-.008-.099-.007-.099-.005-.098-.004-.099-.004-.099-.001-.1-.001-.093v-16.012l.001-.093.001-.1.004-.099.004-.099.005-.098.007-.099.008-.099.009-.098.01-.098.012-.097.013-.098.014-.097.015-.097.016-.097.017-.097.019-.096.02-.096.021-.096.022-.095.023-.095.025-.095.025-.094.027-.094.028-.094.029-.093.03-.093.031-.092.032-.092.034-.092.034-.091.036-.091.037-.09.038-.091.039-.089.04-.089.041-.088.042-.088.044-.088.044-.087.045-.086.047-.086.047-.085.049-.085.05-.084.051-.084.051-.083.053-.083.054-.081.055-.082.056-.08.057-.08.058-.08.059-.078.06-.078.061-.078.062-.076.063-.076.064-.075.065-.075.066-.074.067-.072.067-.073.069-.071.07-.071.071-.07.071-.069.072-.067.073-.067.074-.066.075-.065.075-.064.076-.063.076-.062.078-.061.078-.06.078-.059.08-.058.08-.057.08-.056.082-.055.081-.054.083-.053.083-.051.084-.051.084-.05.085-.049.085-.047.086-.047.086-.045.087-.044.088-.044.088-.042.088-.041.089-.04.09-.039.09-.038.09-.037.091-.036.091-.034.092-.034.092-.032.092-.031.093-.03.093-.029.094-.028.094-.027.094-.025.095-.025.095-.023.095-.022.096-.021.096-.02.096-.019.097-.017.097-.016.097-.015.097-.014.098-.013.097-.012.098-.01.099-.009.098-.008.099-.007.098-.005.099-.005.099-.003.1-.001.093-.001h16.012l.093.001zm-16.093 3.999h-.056l-.049.001-.05.002-.049.002-.05.003-.049.003-.049.004-.049.005-.049.005-.049.006-.049.006-.049.007-.048.007-.049.009-.048.008-.048.01-.048.009-.048.011-.047.011-.048.012-.047.012-.047.013-.047.013-.047.014-.047.014-.046.015-.047.016-.046.016-.046.017-.045.017-.045.018-.046.019-.045.018-.044.02-.045.02-.044.021-.044.021-.044.021-.043.023-.043.022-.043.024-.043.023-.043.025-.042.024-.042.026-.041.026-.041.026-.041.027-.041.028-.04.028-.04.028-.04.029-.039.029-.039.03-.039.031-.038.031-.038.031-.038.032-.037.033-.037.033-.036.033-.036.034-.036.035-.036.035-.034.035-.035.036-.034.036-.033.036-.033.037-.033.038-.032.037-.031.038-.031.038-.031.039-.03.039-.029.039-.029.04-.028.04-.028.04-.028.041-.027.041-.026.041-.026.041-.026.042-.024.042-.025.043-.024.043-.023.042-.022.044-.023.043-.021.044-.021.044-.021.044-.02.045-.02.044-.018.045-.019.045-.018.046-.017.046-.017.045-.016.046-.016.047-.015.046-.014.047-.014.046-.013.048-.013.047-.012.047-.012.048-.011.047-.011.048-.009.048-.01.048-.008.048-.009.049-.007.048-.007.049-.006.049-.006.049-.005.049-.005.049-.004.049-.003.049-.003.049-.002.05-.002.05-.001.049v.056 15.988.056l.001.049.002.05.002.05.003.049.003.049.004.049.005.049.005.049.006.049.006.049.007.049.007.048.009.049.008.048.01.048.009.048.011.048.011.047.012.048.012.047.013.047.013.048.014.046.014.047.015.046.016.047.016.046.017.045.017.046.018.046.019.045.018.045.02.044.02.045.021.044.021.044.021.044.023.043.022.044.023.042.024.043.025.043.024.042.026.042.026.041.026.041.027.041.028.041.028.04.028.04.029.04.029.039.03.039.031.039.031.038.031.038.032.037.033.038.033.037.033.036.034.036.035.036.034.035.036.035.036.035.036.034.036.033.037.033.037.033.038.032.038.031.038.031.039.031.039.03.039.029.04.029.04.028.04.028.041.028.041.027.041.026.041.026.042.026.042.024.043.025.043.023.043.024.043.022.043.023.044.021.044.021.044.021.045.02.044.02.045.018.045.019.046.018.045.017.046.017.046.016.047.016.046.015.047.014.047.014.046.013.048.013.047.012.048.012.047.011.048.011.048.009.048.01.048.008.049.009.048.007.049.007.049.006.049.006.049.005.049.005.049.004.049.003.05.003.049.002.05.002.049.001h.056 15.988.056l.049-.001.05-.002.049-.002.05-.003.049-.003.049-.004.049-.005.049-.005.049-.006.049-.006.049-.007.048-.007.049-.009.048-.008.048-.01.048-.009.048-.011.047-.011.048-.012.047-.012.048-.013.046-.013.047-.014.047-.014.046-.015.047-.016.046-.016.045-.017.046-.017.046-.018.045-.019.045-.018.044-.02.045-.02.044-.021.044-.021.044-.021.043-.023.044-.022.043-.024.042-.023.043-.025.042-.025.041-.025.042-.026.041-.026.041-.027.041-.027.04-.028.04-.029.04-.029.039-.029.039-.03.039-.031.038-.031.038-.031.038-.032.037-.033.037-.033.036-.033.036-.034.036-.035.035-.035.035-.035.035-.036.034-.036.033-.036.033-.037.033-.038.032-.037.031-.038.031-.038.031-.039.03-.039.029-.039.029-.04.029-.04.028-.04.027-.041.027-.041.026-.041.026-.041.025-.042.025-.043.025-.042.023-.042.024-.044.023-.043.022-.043.021-.044.021-.044.021-.044.02-.045.019-.044.019-.045.019-.046.018-.045.017-.045.017-.046.016-.046.016-.047.015-.046.014-.047.014-.046.013-.048.013-.047.012-.047.012-.048.011-.047.011-.048.009-.048.01-.048.008-.048.009-.049.007-.048.007-.049.006-.049.006-.049.005-.049.005-.049.004-.049.003-.049.003-.049.002-.05.002-.05.001-.049v-.056-15.988-.056l-.001-.049-.002-.05-.002-.05-.003-.049-.003-.049-.004-.049-.005-.049-.005-.049-.006-.049-.006-.049-.007-.049-.007-.048-.009-.049-.008-.048-.01-.048-.009-.048-.011-.048-.011-.047-.012-.048-.012-.047-.013-.047-.013-.048-.014-.046-.014-.047-.015-.046-.016-.047-.016-.046-.017-.046-.017-.045-.018-.045-.019-.046-.019-.045-.019-.044-.02-.045-.021-.044-.021-.044-.021-.044-.022-.043-.023-.043-.024-.044-.023-.042-.025-.042-.025-.043-.025-.042-.026-.041-.026-.041-.027-.041-.027-.041-.028-.04-.029-.04-.029-.04-.029-.039-.03-.039-.031-.039-.031-.038-.031-.038-.032-.037-.033-.038-.033-.037-.033-.036-.034-.036-.035-.036-.035-.035-.035-.035-.036-.035-.036-.034-.036-.033-.037-.033-.037-.033-.038-.032-.038-.031-.038-.031-.039-.031-.039-.03-.039-.029-.04-.029-.04-.029-.04-.028-.041-.027-.041-.027-.041-.026-.042-.026-.041-.025-.042-.025-.043-.025-.042-.023-.043-.024-.044-.022-.043-.023-.044-.021-.044-.021-.044-.021-.045-.02-.044-.02-.045-.018-.045-.019-.046-.018-.046-.017-.045-.017-.046-.016-.047-.016-.046-.015-.047-.014-.047-.014-.047-.013-.047-.013-.047-.012-.048-.012-.047-.011-.048-.011-.048-.009-.048-.01-.048-.008-.049-.009-.048-.007-.049-.007-.049-.006-.049-.006-.049-.005-.049-.005-.049-.004-.049-.003-.05-.003-.049-.002-.05-.002-.049-.001h-.056z"/><path d="m30 8c0-1.591-.632-3.117-1.757-4.243-1.126-1.125-2.652-1.757-4.243-1.757-4.724 0-11.276 0-16 0-1.591 0-3.117.632-4.243 1.757-1.125 1.126-1.757 2.652-1.757 4.243v16c0 1.591.632 3.117 1.757 4.243 1.126 1.125 2.652 1.757 4.243 1.757h16c1.591 0 3.117-.632 4.243-1.757 1.125-1.126 1.757-2.652 1.757-4.243 0-4.724 0-11.276 0-16z" fill="#40ac3e"/><g fill="#fff" fill-rule="nonzero"><path d="m9.173 19.794h-2.881l-.501 2.398h-2.291l3.168-12.348h2.147l3.15 12.348h-2.291zm-.394-1.969-1.038-5.011-1.038 5.011z"/><path d="m16.081 17.235h-1.056v4.957h-2.201v-12.348h3.364c1.217 0 2.079.292 2.586.877.508.584.761 1.521.761 2.809 0 .824-.113 1.51-.34 2.058-.227.549-.597.961-1.11 1.235l1.844 5.369h-2.291zm-1.056-1.969h1.146c.441 0 .745-.146.912-.438.167-.293.251-.725.251-1.298 0-.572-.081-1.002-.242-1.288-.161-.287-.468-.43-.921-.43h-1.146z"/><path d="m24.439 22.335c-1.062 0-1.903-.301-2.524-.903-.62-.603-.93-1.483-.93-2.64v-5.566c0-1.169.328-2.055.984-2.658.656-.602 1.521-.903 2.595-.903 1.038 0 1.87.301 2.496.903.627.603.94 1.489.94 2.658v5.566c0 1.145-.331 2.022-.993 2.631-.662.608-1.518.912-2.568.912zm.071-1.986c.418 0 .737-.158.958-.474.22-.317.331-.761.331-1.334v-4.957c0-.632-.108-1.113-.322-1.441-.215-.328-.537-.492-.967-.492-.465 0-.802.161-1.011.483-.209.323-.313.806-.313 1.45v4.957c0 1.205.441 1.808 1.324 1.808z"/></g></g></svg>