<svg clip-rule="evenodd" fill-rule="evenodd" stroke-linejoin="round" stroke-miterlimit="1.41421" viewBox="0 0 32 32" xmlns="http://www.w3.org/2000/svg" xmlns:xlink="http://www.w3.org/1999/xlink"><clipPath id="a"><path clip-rule="evenodd" d="m32 0v32h-32v-32z"/></clipPath><metadata/><path d="m32 0v32h-32v-32z" fill="none"/><g clip-path="url(#a)"><path d="m11 20c0 2.761 2.239 5 5 5v5c-4.418 0-8-3.582-8-8v-10.379s-3.5 3.5-3.5 3.5l-2.121-2.121v-2l7.121-7.121 7.121 7.121v2l-2.121 2.121-3.5-3.5zm10-8.002c0-1.326-.527-2.597-1.464-3.534s-2.208-1.464-3.534-1.464c-.001 0-.002 0-.002 0v-5h.002c2.121 0 4.156.843 5.655 2.343 1.5 1.499 2.343 3.534 2.343 5.655v10.381l3.5-3.5 2.121 2.121v2l-7.121 7.121-7.121-7.121v-2l2.121-2.121 3.5 3.5z" fill="none" stroke="#000" stroke-width="4"/><path d="m11 8h9v15h-9z"/><g fill-rule="nonzero"><path d="m16 5 1-1 5 2v6h-1s0-.001 0-.002c0-1.326-.527-2.597-1.464-3.534s-2.208-1.464-3.534-1.464c-.001 0-.002 0-.002 0z" fill="#747474"/><path d="m16 30c-4.418 0-8-3.582-8-8 0-1.703 0-3 0-3h2v4l6 5z" fill="#747474"/><path d="m21 22.379h3l3.5-3.5 2.121.121v2l-7.121 7.121-7.121-7.121v-2l2.121-.121z" fill="#747474"/><path d="m8 11.621-3.5 3.5-2.121-2.121v-2l7.121-3.121 7.121 3.121v2l-2.121 2.121-3.5-3.5z" fill="#747474"/><path d="m21 20.379v-10.379c0-2.761-2.239-5-5-5v-3h.002c2.121 0 4.156.843 5.655 2.343 1.5 1.499 2.343 3.534 2.343 5.655v10.381l3.5-3.5 2.121 2.121-7.121 7.121-7.121-7.121 2.121-2.121z" fill="#fff"/><path d="m8 9.621-3.5 3.5-2.121-2.121 7.121-7.121 7.121 7.121-2.121 2.121-3.5-3.5v10.379c0 2.761 2.239 5 5 5v3c-4.418 0-8-3.582-8-8z" fill="#fff"/></g></g></svg>