<svg clip-rule="evenodd" fill-rule="evenodd" stroke-linejoin="round" stroke-miterlimit="1.41421" viewBox="0 0 32 32" xmlns="http://www.w3.org/2000/svg"><metadata/><path d="m0 0h32v32h-32z" fill="none"/><path d="m14 11.828-7 7-2.828-2.828v-2l11.828-11.828 11.828 11.828v2l-2.828 2.828-7-7v17.172h-4z" fill="none" stroke="#000" stroke-width="4"/><path d="m18 26-1-1h-2l-1 1v3h4z" fill="#747474"/><g fill-rule="nonzero"><path d="m27.828 16-2.828 2.828-9-9-9 9-2.828-2.828v-2l11.828-9.828 11.828 9.828z" fill="#747474"/><path d="m14 9.828-7 7-2.828-2.828 11.828-11.828 11.828 11.828-2.828 2.828-7-7v16.172h-4z" fill="#fff"/></g></svg>