<svg clip-rule="evenodd" fill-rule="evenodd" stroke-linejoin="round" stroke-miterlimit="1.41421" viewBox="0 0 32 32" xmlns="http://www.w3.org/2000/svg" xmlns:xlink="http://www.w3.org/1999/xlink"><clipPath id="a"><path clip-rule="evenodd" d="m0 0h32v32h-32z"/></clipPath><metadata/><path d="m0 0h32v32h-32z" fill="none"/><g clip-path="url(#a)"><path d="m10 11.172v-9.172h11c2.387 0 4.676.948 6.364 2.636s2.636 3.977 2.636 6.364v1c0 5.523-4.477 10-10 10h-7.172l3 3v2l-2.828 2.828-9.828-9.828v-2z" fill="none" stroke="#000" stroke-width="4"/><path d="m10 3h17v16h-17z"/><path d="m12 4h10c2.122 0 4.157.843 5.657 2.343s2.343 3.535 2.343 5.657c0 5.523-4.477 10-10 10-5.812 0-12 0-12 0v-4h13c1.326 0 2.598-.527 3.536-1.464.937-.938 1.464-2.21 1.464-3.536 0-2.761-2.239-5-5-5-4.694 0-11 0-11 0v-2z" fill="#747474"/><g fill-rule="nonzero"><path d="m3.172 20 9.828 9.828 2.828-2.828v-2l-7-5 7-7v-2l-2.828-.828-9.828 7.828z" fill="#747474"/><path d="m10.828 16h10.172c1.326 0 2.598-.527 3.536-1.464.937-.938 1.464-2.21 1.464-3.536 0-2.761-2.239-5-5-5-4.694 0-11 0-11 0v-4h11c2.387 0 4.676.948 6.364 2.636s2.636 3.977 2.636 6.364c0 4.971-4.029 9-9 9h-10.172l5 5-2.828 2.828-9.828-9.828 9.828-9.828 2.828 2.828z" fill="#fff"/></g></g></svg>