<svg clip-rule="evenodd" fill-rule="evenodd" stroke-linejoin="round" stroke-miterlimit="1.41421" viewBox="0 0 32 32" xmlns="http://www.w3.org/2000/svg"><metadata/><path d="m32 32v-32h-32v32z" fill="none"/><path d="m17 12.828-5 5-2.828-2.828v-2l9.828-9.828 9.828 9.828v2l-2.828 2.828-5-5v7.172c0 2.652-1.054 5.196-2.929 7.071s-4.419 2.929-7.071 2.929c-3.695 0-7 0-7 0v-6h7c3.314 0 6-2.686 6-6z" fill="none" stroke="#000" stroke-width="4"/><path d="m17 12.828-5 5-2.828-2.828v-2l9.828-7.828 9.828 7.828v2l-2.828 2.828-5-5-1 4.172 1 1v2c0 2.652-1.054 5.196-2.929 7.071s-4.419 2.929-7.071 2.929c-3.695 0-7 0-7 0v-2l3-2h8l3-4v-5z" fill="#747474" fill-rule="nonzero"/><path d="m17 10.828-5 5-2.828-2.828 9.828-9.828 9.828 9.828-2.828 2.828-5-5v7.172c0 2.652-1.054 5.196-2.929 7.071s-4.419 2.929-7.071 2.929c-3.695 0-7 0-7 0v-4h7c3.314 0 6-2.686 6-6z" fill="#fff"/></svg>