<svg clip-rule="evenodd" fill-rule="evenodd" stroke-linejoin="round" stroke-miterlimit="1.41421" viewBox="0 0 32 32" xmlns="http://www.w3.org/2000/svg" xmlns:xlink="http://www.w3.org/1999/xlink"><clipPath id="a"><path clip-rule="evenodd" d="m0 0h32v32h-32z"/></clipPath><metadata/><path d="m0 0h32v32h-32z" fill="none"/><g clip-path="url(#a)"><path d="m0 24c0 4.418 3.582 8 8 8h16c4.418 0 8-3.582 8-8 0-4.887 0-11.113 0-16 0-4.418-3.582-8-8-8-4.887 0-11.113 0-16 0-4.418 0-8 3.582-8 8z"/><path d="m30 24c0 1.591-.632 3.117-1.757 4.243-1.126 1.125-2.652 1.757-4.243 1.757-4.724 0-11.276 0-16 0-1.591 0-3.117-.632-4.243-1.757-1.125-1.126-1.757-2.652-1.757-4.243 0-4.724 0-11.276 0-16 0-1.591.632-3.117 1.757-4.243 1.126-1.125 2.652-1.757 4.243-1.757h16c1.591 0 3.117.632 4.243 1.757 1.125 1.126 1.757 2.652 1.757 4.243z" fill="#666"/><path d="m23.07 23.07c-1.81 1.81-4.31 2.93-7.07 2.93-5.182 0-9.448-3.95-9.95-9h3.021c.486 3.39 3.405 6 6.929 6 1.932 0 3.682-.784 4.949-2.051l-2.949-2.949h8v8zm-14.14-14.14c1.81-1.81 4.31-2.93 7.07-2.93 5.182 0 9.448 3.95 9.95 9h-3.021c-.486-3.39-3.405-6-6.929-6-1.932 0-3.682.784-4.949 2.051l2.949 2.949h-8v-8z" fill="#fff"/></g></svg>