<svg clip-rule="evenodd" fill-rule="evenodd" stroke-linejoin="round" stroke-miterlimit="1.41421" viewBox="0 0 32 32" xmlns="http://www.w3.org/2000/svg" xmlns:xlink="http://www.w3.org/1999/xlink"><clipPath id="a"><path clip-rule="evenodd" d="m0 0h32v32h-32z"/></clipPath><metadata/><path d="m0 0h32v32h-32z" fill="none"/><g clip-path="url(#a)" fill-rule="nonzero"><path d="m9.621 19 1.5 1.5v2l-2.121 2.121-7.121-7.121v-2l7.121-7.121 2.121 2.121v2l-1.5 1.5h12.758l-1.5-1.5v-2l2.121-2.121 7.121 7.121v2l-7.121 7.121-2.121-2.121v-2l1.5-1.5z" fill="#747474" stroke="#000" stroke-width="4"/><path d="m7.621 19 3.5 1.5v2l-2.121 2.121-7.121-7.121v-2l7.121-5.121 2.121.121v2l-3.5 3.5h16.758l-3.5-3.5v-2l2.121-.121 7.121 5.121v2l-7.121 7.121-2.121-2.121v-2l3.5-1.5h-16.758z" fill="#747474"/><path d="m7.621 17 3.5 3.5-2.121 2.121-7.121-7.121 7.121-7.121 2.121 2.121-3.5 3.5h16.758l-3.5-3.5 2.121-2.121 7.121 7.121-7.121 7.121-2.121-2.121 3.5-3.5h-16.758z" fill="#fff"/></g></svg>