<svg clip-rule="evenodd" fill-rule="evenodd" stroke-linecap="round" stroke-linejoin="round" stroke-miterlimit="1.5" viewBox="0 0 32 32" xmlns="http://www.w3.org/2000/svg" xmlns:xlink="http://www.w3.org/1999/xlink"><clipPath id="a"><path clip-rule="evenodd" d="m0 0h32v32h-32z"/></clipPath><metadata/><path d="m0 0h32v32h-32z" fill="none"/><g clip-path="url(#a)"><path d="m30 21.368v2c0 .405-.161.793-.447 1.079-.338.338-.84.84-1.407 1.407-2.655 2.655-6.255 4.146-10.01 4.146-.733 0-1.456 0-2.12 0-1.987 0-3.952-.426-5.762-1.248-.165-.075-.335-.152-.508-.231-4.717-2.144-7.746-6.848-7.746-12.03v-2-.031c0-1.61.437-3.189 1.265-4.569.047-.077.094-.156.142-.236 2.849-4.749 7.982-7.655 13.521-7.655h.358c4.261 0 8.31 1.862 11.083 5.098.001 0 .001 0 .001.001 1.052 1.227 1.63 2.789 1.63 4.405v2.082c0 .844-.54 1.594-1.342 1.861-.86.287-1.985.662-2.914.972-.709.236-1.26.762-1.54 1.42.333.781 1.045 1.369 1.927 1.516.839.14 1.778.296 2.52.42.779.13 1.349.803 1.349 1.592z" fill="none" stroke="#000" stroke-width="4"/><path d="m30 21.368v2c0 .405-.161.793-.447 1.079-.338.338-.84.84-1.407 1.407-2.655 2.655-6.255 4.146-10.01 4.146-.733 0-1.456 0-2.12 0-1.987 0-3.952-.426-5.762-1.248-.165-.075-.335-.152-.508-.231-4.717-2.144-7.746-6.848-7.746-12.03v-2h.221c.207-.912.559-1.79 1.044-2.6.047-.077.094-.156.142-.236 2.849-4.749 7.982-7.655 13.521-7.655h.358c4.261 0 8.31 1.862 11.083 5.098.001 0 .001 0 .001.001.626.73 1.084 1.579 1.352 2.487h.278v2c0 .844-.54 1.594-1.342 1.861-.86.287-1.985.662-2.914.972-1.042.347-1.744 1.321-1.744 2.419v.002c0 1.246.901 2.31 2.131 2.515l.869.145v-.132z" fill="#6f4f30"/><path d="m28.658 13.447c.802-.267 1.342-1.017 1.342-1.861 0-.027 0-.054 0-.082 0-1.616-.578-3.178-1.63-4.405 0-.001 0-.001-.001-.001-2.773-3.236-6.822-5.098-11.083-5.098-.119 0-.239 0-.358 0-5.539 0-10.672 2.906-13.521 7.655-.048.08-.095.159-.142.236-.828 1.38-1.265 2.959-1.265 4.569v.031c0 5.182 3.029 9.886 7.746 12.03.173.079.343.156.508.231 1.81.822 3.775 1.248 5.762 1.248h2.12c3.755 0 7.355-1.491 10.01-4.146l1.407-1.407c.286-.286.447-.674.447-1.079v-.001c0-.789-.57-1.462-1.349-1.592-.742-.124-1.681-.28-2.52-.42-1.23-.205-2.131-1.269-2.131-2.515 0-.001 0-.001 0-.002 0-1.098.702-2.072 1.744-2.419.929-.31 2.054-.685 2.914-.972z" fill="#b38050"/><path d="m19.292 11.5c-.188-.306-.292-.645-.292-1 0-1.38 1.568-2.5 3.5-2.5s3.5 1.12 3.5 2.5c0 .355-.104.694-.292 1-.54-.883-5.876-.883-6.416 0z" fill="#6f4f30"/><path d="m19.292 11.5c.54-.883 1.774-1.5 3.208-1.5s2.668.617 3.208 1.5c-.54.883-1.774 1.5-3.208 1.5s-2.668-.617-3.208-1.5z"/><path d="m17.422 3c.382 0 .76.073 1.114.215.417.166 1.029.411 1.668.667.58.232.993.754 1.084 1.372.092.617-.152 1.237-.639 1.627-.845.676-1.712 1.37-2.215 1.772-.281.225-.63.347-.99.347-.311 0-.714 0-1.102 0-.774 0-1.435-.56-1.563-1.324-.128-.772-.293-1.762-.438-2.633-.085-.509.058-1.029.391-1.422.334-.394.824-.621 1.339-.621z" fill="#a83b6c"/><path d="m11.561 5c.837 0 1.557.59 1.721 1.411.143.714.315 1.575.455 2.275.155.776-.228 1.56-.936 1.913-.056.028-.111.056-.165.083-.404.202-.876.222-1.297.054-.775-.31-2.078-.832-3.055-1.222-.736-.295-1.141-1.087-.949-1.856.015-.057.029-.116.044-.175.365-1.459 1.676-2.483 3.181-2.483z" fill="#e41d45"/><path d="m8.745 10.873c.169.084.323.195.456.328l1.276 1.276c.353.353.515.854.435 1.346-.08.493-.392.917-.838 1.14h-.001c-.048.025-.1.041-.154.049-.45.064-2.689.384-4.5.642-.532.076-1.066-.122-1.418-.527-.353-.404-.477-.96-.33-1.476.243-.849.514-1.799.748-2.618.144-.502.503-.914.981-1.124s1.024-.197 1.491.037c.728.363 1.475.737 1.854.927z" fill="#e4981d"/><path d="m9.316 16.114c.439-.073.89.024 1.261.271.254.169.566.377.88.586.401.268.674.688.756 1.164.081.475-.037.963-.326 1.349-.487.65-1.033 1.377-1.412 1.882-.299.399-.768.634-1.267.634-.611 0-1.463 0-2.135 0-.648 0-1.231-.394-1.471-.996-.227-.567-.52-1.298-.792-1.98-.198-.493-.161-1.049.1-1.512.26-.463.716-.783 1.24-.87 1.114-.186 2.398-.4 3.166-.528z" fill="#8cd2e6"/><path d="m15.03 10.485c.594-.297 1.306-.233 1.838.166.371.278.82.615 1.26.945.442.332.702.852.702 1.404s-.26 1.072-.702 1.404c-.638.478-1.294.97-1.706 1.279-.274.206-.607.317-.95.317-.481 0-1.217 0-1.888 0-.875 0-1.584-.709-1.584-1.584 0-.447 0-.922 0-1.332 0-.664.376-1.272.97-1.569.625-.313 1.435-.717 2.06-1.03z" fill="#7dc45b"/><path d="m18.614 15.693c.792-.396 1.754-.14 2.245.596.073.109.147.22.22.33.517.775.338 1.818-.407 2.377-.674.505-1.463 1.097-2.008 1.506-.416.312-.958.4-1.452.235-.717-.239-1.815-.605-2.819-.939-.401-.134-.682-.496-.711-.918-.03-.421.197-.819.575-1.008 1.401-.701 3.158-1.58 4.357-2.179z" fill="#5bc1c4"/><path d="m15.959 21.566c.623.089 1.151.505 1.383 1.091.232.585.132 1.25-.261 1.742-.418.522-.84 1.049-1.194 1.492-.533.666-1.425.93-2.234.66-.741-.247-1.677-.559-2.515-.838-.496-.166-.881-.559-1.037-1.057s-.062-1.041.251-1.459c.358-.476.727-.969 1.025-1.366.384-.512 1.017-.775 1.652-.684.775.111 1.88.269 2.93.419z" fill="#838cef"/><path d="m22.526 21.504c.658.094 1.206.551 1.416 1.182.21.63.046 1.326-.424 1.796-.402.402-.777.777-1.054 1.054-.297.297-.7.464-1.12.464-.389 0-.903 0-1.411 0-.475 0-.925-.213-1.226-.58s-.421-.85-.328-1.315c.097-.487.201-1.006.295-1.477.183-.913 1.047-1.525 1.969-1.393.567.081 1.226.175 1.883.269z" fill="#4853cf"/></g></svg>