<svg clip-rule="evenodd" fill-rule="evenodd" stroke-linecap="round" stroke-miterlimit="1.5" viewBox="0 0 32 32" xmlns="http://www.w3.org/2000/svg" xmlns:xlink="http://www.w3.org/1999/xlink"><clipPath id="a"><path clip-rule="evenodd" d="m0 0h32v32h-32z"/></clipPath><metadata/><path d="m0 0h32v32h-32z" fill="none"/><g clip-path="url(#a)"><g stroke="#000" stroke-width="4"><path d="m27 11.5c-1.298-.974-2.877-1.5-4.5-1.5-.879 0-1.817 0-2.5 0-.265 0-.52.105-.707.293-.188.187-.293.442-.293.707v11c0 .552.448 1 1 1h3v4h6c.265 0 .52-.105.707-.293.188-.187.293-.442.293-.707 0-1.033 0-2.636 0-3.672 0-.653-.214-1.289-.608-1.811-.209-.276-.392-.517-.392-.517v-4.5c0-1.574-.741-3.056-2-4z" fill="none"/><path d="m19 9c0-.552-.448-1-1-1-3.014 0-11.986 0-15 0-.552 0-1 .448-1 1v14c0 .552.448 1 1 1h15c.552 0 1-.448 1-1 0-1.185 0-3 0-3z" fill="none"/><circle cx="5" cy="27" fill="#fff" r="3"/><circle cx="12" cy="27" fill="#fff" r="3"/><circle cx="23" cy="27" fill="#fff" r="3"/></g><path d="m19 9c0-.552-.448-1-1-1-3.014 0-11.986 0-15 0-.552 0-1 .448-1 1v1l1 2v9l-1 2v.001c0 .552.447.999.999.999h15.002c.552 0 .999-.447.999-.999 0-.001 0-.001 0-.001l-1-2v-9.409l1-1.591z" fill="#999"/><path d="m2 10h17v13h-17z" fill="#66df36"/><path d="m29.397 23 .603 3c0 .265-.105.52-.293.707-.187.188-.442.293-.707.293h-2c0-1.195-.524-2.267-1.354-3l1.354-1zm-10.397-1v-10l1.193-.319 5.279-.119 2.099.438c.909.927 1.429 2.181 1.429 3.5v4.5s.183.241.392.517c.328.434.531.947.59 1.483l-.982.6-9-.3z" fill="#4dc7e0"/><path d="m19 12v-1c0-.265.105-.52.293-.707.187-.188.442-.293.707-.293h2.5c1.623 0 3.202.526 4.5 1.5.204.153.395.32.571.5z" fill="#83d8e9"/><path d="m29.982 22c.012.109.018.218.018.328v.672l-.475 1h-3.879c-.705-.622-1.632-1-2.646-1-1.116 0-2.232 0-3 0-.552 0-1-.448-1-1z" fill="#fff"/><path d="m30 23h-.001c-.552 0-.999.447-.999.999v1.001c0 .552.448 1 1 1z" fill="#2c2c2c"/><path d="m30 14h-2c-.552 0-1 .448-1 1v4c0 .552.448 1 1 1h2z"/><path d="m26 15c0-.265-.105-.52-.293-.707-.187-.188-.442-.293-.707-.293-.871 0-2.129 0-3 0-.552 0-1 .448-1 1v1.434c0 .351.184.677.486.857.687.413 1.975 1.185 3 1.8.308.186.693.191 1.007.013.313-.178.507-.51.507-.87 0-1.054 0-2.355 0-3.234z"/><circle cx="5" cy="27" fill="#5a5a5a" r="3"/><circle cx="12" cy="27" fill="#5a5a5a" r="3"/><circle cx="23" cy="27" fill="#5a5a5a" r="3"/><circle cx="23" cy="27" fill="#bfbfbf" r="1.5"/><circle cx="5" cy="27" fill="#bfbfbf" r="1.5"/><circle cx="12" cy="27" fill="#bfbfbf" r="1.5"/><path d="m10.5 16.5-4-4s0 0-.001.001c-1.06 1.06-1.656 2.499-1.656 3.999s.596 2.939 1.656 3.999c.001.001.001.001.001.001l4-4 4 4s0 0 .001-.001c1.06-1.06 1.656-2.499 1.656-3.999s-.596-2.939-1.656-3.999c-.001-.001-.001-.001-.001-.001z" fill="#fff"/></g></svg>