<svg clip-rule="evenodd" fill-rule="evenodd" stroke-linejoin="round" stroke-miterlimit="2" viewBox="0 0 32 32" xmlns="http://www.w3.org/2000/svg" xmlns:xlink="http://www.w3.org/1999/xlink"><clipPath id="a"><path clip-rule="evenodd" d="m0 0h32v32h-32z"/></clipPath><metadata/><path d="m0 0h32v32h-32z" fill="none"/><g clip-path="url(#a)"><path d="m30 0c.53 0 1.039.211 1.414.586s.586.884.586 1.414v6c0 .53-.211 1.039-.586 1.414s-.884.586-1.414.586h-.141c1.362 2.353 2.141 5.086 2.141 8v1c0 7.18-5.82 13-13 13h-6c-7.18 0-13-5.82-13-13 0-.332 0-.665 0-1 0-8.837 7.163-16 16-16h.052c1.944.006 3.807.359 5.528 1h.42v-1c0-.53.211-1.039.586-1.414s.884-.586 1.414-.586h6z"/><path d="m30 18c0-7.732-6.268-14-14-14-7.732 0-14 6.268-14 14v1c0 6.075 4.925 11 11 11h6c6.075 0 11-4.925 11-11 0-.332 0-.665 0-1z" fill="#fbc546"/><path d="m11.172 25.895c-.164-.082-.305-.208-.405-.369-.182-.295-.198-.663-.043-.973.056-.112.113-.227.17-.342.678-1.355 2.063-2.211 3.578-2.211h3.056c1.515 0 2.9.856 3.578 2.211.057.115.114.23.17.342.155.31.139.678-.043.973-.1.161-.241.287-.405.369-.926-.572-8.73-.572-9.656 0z" fill="#722245"/><path d="m11.172 25.895c.926-.572 2.011-.895 3.153-.895h3.35c1.142 0 2.227.323 3.153.895-.136.068-.289.105-.446.105-2.295 0-6.469 0-8.764 0-.157 0-.31-.037-.446-.105z" fill="#ca3b8f"/><path d="m22.5 18.586 2.293-2.293c.39-.39 1.024-.39 1.414 0s.39 1.024 0 1.414l-3.707 3.707-3.707-3.707c-.39-.39-.39-1.024 0-1.414s1.024-.39 1.414 0zm-13 0 2.293-2.293c.39-.39 1.024-.39 1.414 0s.39 1.024 0 1.414l-3.707 3.707-3.707-3.707c-.39-.39-.39-1.024 0-1.414s1.024-.39 1.414 0z"/><g fill="#1d5dff"><path d="m24 4v-2h6v1.414l-2.586 2.586h2.586v2h-6v-1.414l2.586-2.586z"/><path d="m17 7v-2h6v1.414l-2.586 2.586h2.586v2h-6v-1.414l2.586-2.586z"/></g></g></svg>