<svg clip-rule="evenodd" fill-rule="evenodd" stroke-linejoin="round" stroke-miterlimit="1.41421" viewBox="0 0 32 32" xmlns="http://www.w3.org/2000/svg"><metadata/><path d="m0 0h32v32h-32z" fill="none"/><path d="m13.65 27.251v-6.948l-6.675 3.406-1.975-3.678v-2l4.174-2.133-4.174-2.133v-2l1.975-3.678 6.675 3.337v-6.675h4.7v6.743l6.675-3.405 1.907 3.678v2l-4.163 2.127 4.231 2.139v2l-2.043 3.678-6.607-3.337v6.879z" fill="none" stroke="#000" stroke-width="4"/><g fill-rule="nonzero"><path d="m13.65 20.303-6.675 3.406-1.975-3.678v-2l6.13-1.133-6.13-3.133v-2l1.975-1.678 6.675 3.337 4.7.068 6.675-3.405 1.907 1.678v2l-6.13 3.133 6.198 1.133v2l-2.043 3.678-6.607-3.337-1.35 1.628 1.35 3.251v2h-4.7v-2l1.35-3.251z" fill="#737373"/><path d="m13.65 18.303-6.675 3.406-1.975-3.678 6.13-3.133-6.13-3.133 1.975-3.678 6.675 3.337v-6.675h4.7v6.743l6.675-3.405 1.907 3.678-6.13 3.133 6.198 3.133-2.043 3.678-6.607-3.337v6.879h-4.7z" fill="#fff"/></g></svg>