<svg clip-rule="evenodd" fill-rule="evenodd" stroke-linejoin="round" stroke-miterlimit="2" viewBox="0 0 32 32" xmlns="http://www.w3.org/2000/svg" xmlns:xlink="http://www.w3.org/1999/xlink"><clipPath id="a"><path clip-rule="evenodd" d="m0 0h32v32h-32z"/></clipPath><metadata/><path d="m0 0h32v32h-32z" fill="none"/><g clip-path="url(#a)"><path d="m16 0c4.243 0 8.313 1.686 11.314 4.686 3 3.001 4.686 7.071 4.686 11.314v1c0 8.284-6.716 15-15 15h-2c-8.284 0-15-6.716-15-15v-1c0-8.837 7.163-16 16-16z"/><path d="m26.18 11.212c-6.678-.568-20.455-1.375-22.997-.422l-.213.08c2.046-5.194 7.109-8.87 13.03-8.87h.087c.306.002.61.014.913.036l1.346.637 1.654-.089c.338.1.671.214 1 .339l1.352 1.077 1.648.511c.344.239.677.494 1 .765l1 5.224c.002.247.062.488.177.706zm1.82-2.423c.399.664.742 1.36 1.025 2.079 0 0-1.897-.28-2.408-.367.246-.275 1.383-1.712 1.383-1.712z" fill="#7aafff"/><path d="m25 5.276c.31.261.611.536.899.825.814.813 1.518 1.717 2.101 2.688v.711c0 .37-.137.726-.383 1.001-.657-.112-1.485-.208-2.437-.289l-.003-.006c-.115-.218-.175-.459-.177-.706zm-4-2.353c1.058.405 2.066.937 3 1.588v3.989c-.001.191-.036.38-.107.557-.053.131-.123.254-.21.365-.297.382-.773.6-1.257.576-.172-.008-.341-.047-.5-.112-.17-.071-.327-.172-.46-.299-.142-.136-.258-.3-.337-.479-.085-.192-.128-.399-.129-.608v-5.577zm-4-.887c1.023.073 2.028.258 3 .548v4.916c-.001.191-.036.38-.107.557-.053.131-.123.254-.21.365-.297.382-.773.6-1.257.576-.172-.008-.341-.047-.5-.112-.17-.071-.327-.172-.46-.299-.142-.136-.258-.3-.337-.479-.085-.192-.128-.399-.129-.608v-5.464z" fill="#3988ff"/><path d="m18.856 8.983c3.402 0 6.775.612 9.961 1.807l.208.078c.638 1.619.975 3.358.975 5.132v1c0 7.18-5.82 13-13 13h-2c-7.18 0-13-5.82-13-13v-1c0-1.811.344-3.541.97-5.13l.213-.08c3.186-1.195 6.559-1.807 9.961-1.807z" fill="#fbc546"/><path d="m13.581 23.775c-.375-.512-.581-1.133-.581-1.775 0-.965 0-2.035 0-3 0-.796.316-1.559.879-2.121.562-.563 1.325-.879 2.121-.879s1.559.316 2.121.879c.563.562.879 1.325.879 2.121v3c0 .642-.206 1.263-.581 1.775-.69-.493-4.148-.493-4.838 0z" fill="#722245"/><path d="m13.581 23.775c.69-.493 1.53-.775 2.419-.775.889 0 1.729.282 2.419.775-.09.122-.189.238-.298.346-.562.563-1.325.879-2.121.879s-1.559-.316-2.121-.879c-.109-.108-.208-.224-.298-.346z" fill="#ca3b8f"/><path d="m26 11c0-2.209-1.791-4-4-4-2.209 0-4 1.791-4 4 0 2.209 1.791 4 4 4 2.209 0 4-1.791 4-4z" fill="#fff"/><path d="m24 10.962c0-.52-.207-1.019-.575-1.387s-.867-.575-1.387-.575h-.076c-.52 0-1.019.207-1.387.575s-.575.867-.575 1.387v.038c0 .53.211 1.039.586 1.414s.884.586 1.414.586c1.105 0 2-.895 2-2z"/><path d="m6 11c0-2.209 1.791-4 4-4 2.209 0 4 1.791 4 4 0 2.209-1.791 4-4 4-2.209 0-4-1.791-4-4z" fill="#fff"/><path d="m12 10.962c0-.52-.207-1.019-.575-1.387s-.867-.575-1.387-.575h-.038c-.53 0-1.039.211-1.414.586s-.586.884-.586 1.414v.038c0 .52.207 1.019.575 1.387s.867.575 1.387.575h.002c1.124 0 2.036-.912 2.036-2.036z"/></g></svg>