<svg clip-rule="evenodd" fill-rule="evenodd" stroke-linejoin="round" stroke-miterlimit="1.41421" viewBox="0 0 32 32" xmlns="http://www.w3.org/2000/svg" xmlns:xlink="http://www.w3.org/1999/xlink"><clipPath id="a"><path clip-rule="evenodd" d="m0 0h32v32h-32z"/></clipPath><metadata/><path d="m0 0h32v32h-32z" fill="none"/><g clip-path="url(#a)"><path d="m32 8c0-4.418-3.582-8-8-8-4.887 0-11.113 0-16 0-4.418 0-8 3.582-8 8v16c0 4.418 3.582 8 8 8h16c4.418 0 8-3.582 8-8 0-4.887 0-11.113 0-16z"/><path d="m30 8c0-1.591-.632-3.117-1.757-4.243-1.126-1.125-2.652-1.757-4.243-1.757-4.724 0-11.276 0-16 0-1.591 0-3.117.632-4.243 1.757-1.125 1.126-1.757 2.652-1.757 4.243v16c0 1.591.632 3.117 1.757 4.243 1.126 1.125 2.652 1.757 4.243 1.757h16c1.591 0 3.117-.632 4.243-1.757 1.125-1.126 1.757-2.652 1.757-4.243 0-4.724 0-11.276 0-16z" fill="#334cec"/><path d="m1 9h30v14h-30z"/><g fill="#fff" fill-rule="nonzero"><path d="m9.551 18.743h-3.809l-.65 1.742h-1.82l3.679-8.97h1.391l3.679 8.97h-1.82zm-.533-1.417-1.378-3.653-1.365 3.653z"/><path d="m18.43 12.997h-2.691v7.488h-1.703v-7.488h-2.691v-1.482h7.085z"/><path d="m28.258 11.515v8.97h-1.703v-5.681l-2.197 3.952h-1.144l-2.236-3.991v5.72h-1.703v-8.97h1.703l2.808 5.135 2.769-5.135z"/></g></g></svg>