<svg clip-rule="evenodd" fill-rule="evenodd" stroke-linecap="round" stroke-linejoin="round" stroke-miterlimit="1.5" viewBox="0 0 32 32" xmlns="http://www.w3.org/2000/svg" xmlns:xlink="http://www.w3.org/1999/xlink"><clipPath id="a"><circle clip-rule="evenodd" cx="16" cy="20.5" r="5.5"/></clipPath><metadata/><path d="m0 0h32v32h-32z" fill="none"/><path d="m15.937 30c-2.65-.008-5.344-.515-7.451-2.529-2.22-2.122-3.068-4.57-2.502-8.213.546-3.513 1.856-4.214 3.283-7.863 1.374-3.516 1.378-4.64 2.594-6.72 1.051-1.798 2.381-2.675 4.139-2.675h.041c1.738.014 3.055.891 4.098 2.675 1.216 2.08 1.22 3.204 2.594 6.72 1.427 3.649 2.737 4.35 3.283 7.863.566 3.643-.282 6.091-2.502 8.213-2.124 2.03-4.843 2.529-7.514 2.529z" fill="none" stroke="#000" stroke-width="4"/><path d="m15.937 30c-2.65-.008-5.344-.515-7.451-2.529-2.22-2.122-3.068-4.57-2.502-8.213.546-3.513 1.856-4.214 3.283-7.863 1.374-3.516 1.378-4.64 2.594-6.72 1.051-1.798 2.381-2.675 4.139-2.675h.041c1.738.014 3.055.891 4.098 2.675 1.216 2.08 1.22 3.204 2.594 6.72 1.427 3.649 2.737 4.35 3.283 7.863.566 3.643-.282 6.091-2.502 8.213-2.124 2.03-4.843 2.529-7.514 2.529z" fill="#dde77f"/><path d="m16.041 2 .081.001.081.003.08.004.079.005.079.006.078.008.077.009.077.01.077.011.075.013.076.014.074.015.074.017.074.018.072.019.073.02.072.022.071.023.07.024.07.025.07.027.069.028.068.03.068.03.068.032.066.033.067.035.066.036.065.037.065.038.064.04.063.041.064.042.062.044.063.045.061.046.061.047.061.049.06.05.06.051.059.053.059.054.058.055.058.057.058.058.056.059.057.061.056.061.055.064.055.064.055.066.054.067.054.068.053.07.053.071.052.072.052.074.052.075.051.076.051.078.05.079.05.08.05.082.049.083.056.097.054.095.053.094.051.094.05.092.048.09.047.091.045.089.044.088.043.088.042.087.04.086.039.086.039.086.074.17.071.17.068.169.065.17.064.171.062.173.061.175.061.179.061.182.123.376.129.399.139.425.074.224.077.233.082.242.087.251.092.262.097.273.104.284.11.297.118.309.124.323.067.169.067.164.066.161.066.157.066.153.066.149.066.146.065.142.065.139.064.136.064.133.064.13.064.128.063.125.063.122.062.12.124.233.122.226.12.219.118.213.23.414.111.202.109.201.106.201.052.101.052.1.051.102.05.101.049.103.049.103.047.105.047.105.047.107.045.107.045.11.043.111.043.113.042.114.041.117.041.119.039.121.038.123.038.126.036.129.036.132.035.134.033.138.033.14.031.144.031.148.029.151.028.155.028.158.026.163.025.17.024.168.021.167.019.164.017.163.016.162.013.16.011.158.009.156.007.156.004.153.003.152.001.15-.001.149-.004.148-.005.146-.008.144-.009.144-.012.141-.014.141-.015.139-.018.138-.02.136-.022.135-.024.134-.026.133-.028.131-.03.13-.032.129-.034.128-.036.126-.039.126-.04.124-.042.123-.045.123-.046.121-.048.12-.051.119-.052.118-.055.117-.057.117-.058.115-.061.114-.062.114-.065.112-.067.112-.069.111-.07.11-.073.109-.075.108-.077.108-.079.107-.08.106-.083.106-.085.105-.087.104-.089.104-.091.103-.093.102-.095.102-.097.101-.099.101-.101.1-.103.1-.1.094-.101.092-.102.09-.102.087-.104.085-.104.084-.105.081-.105.079-.107.077-.107.074-.108.073-.108.071-.11.069-.11.067-.11.065-.112.064-.112.061-.112.06-.113.057-.114.056-.114.054-.115.053-.116.05-.116.049-.116.048-.117.045-.118.044-.118.043-.118.041-.119.039-.119.038-.12.036-.12.035-.121.033-.121.032-.121.03-.121.029-.122.028-.122.026-.123.025-.123.024-.123.022-.123.021-.124.02-.123.019-.124.018-.125.016-.124.015-.124.015-.125.013-.125.012-.125.011-.125.01-.125.009-.125.008-.125.007-.126.006-.125.005-.125.004-.126.004-.125.003-.126.002-.125.001h-.125-.063l-.124-.001-.124-.001-.125-.003-.124-.003-.124-.004-.125-.004-.124-.006-.124-.006-.125-.008-.124-.008-.124-.009-.124-.011-.124-.011-.124-.012-.123-.014-.124-.014-.123-.016-.123-.016-.123-.018-.123-.019-.122-.021-.123-.021-.122-.023-.121-.024-.122-.025-.121-.026-.121-.028-.12-.029-.121-.031-.119-.032-.12-.033-.119-.035-.119-.036-.118-.038-.118-.039-.117-.041-.117-.043-.117-.044-.116-.045-.115-.048-.115-.049-.114-.05-.114-.052-.114-.054-.113-.056-.112-.058-.111-.059-.111-.061-.111-.063-.109-.065-.109-.067-.109-.068-.107-.071-.107-.072-.107-.075-.105-.076-.105-.079-.104-.08-.103-.083-.103-.085-.102-.087-.1-.089-.1-.091-.1-.093-.103-.1-.101-.1-.099-.101-.097-.101-.095-.102-.093-.102-.091-.103-.089-.104-.087-.104-.085-.105-.083-.106-.08-.106-.079-.107-.077-.108-.075-.108-.073-.109-.07-.11-.069-.111-.067-.112-.065-.112-.062-.114-.061-.114-.058-.115-.057-.117-.055-.117-.052-.118-.051-.119-.048-.12-.046-.121-.045-.123-.042-.123-.04-.124-.039-.126-.036-.126-.034-.128-.032-.129-.03-.13-.028-.131-.026-.133-.024-.134-.022-.135-.02-.136-.018-.138-.015-.139-.014-.141-.012-.141-.009-.144-.008-.144-.005-.146-.004-.148-.001-.149.001-.15.003-.152.004-.153.007-.156.009-.156.011-.158.013-.16.016-.162.017-.163.019-.164.021-.167.024-.168.025-.17.026-.163.028-.158.028-.155.029-.151.031-.148.031-.144.033-.14.033-.138.035-.134.036-.132.036-.129.038-.126.038-.123.039-.121.041-.119.041-.117.042-.114.043-.113.043-.111.045-.11.045-.107.047-.107.047-.105.047-.105.049-.103.049-.103.05-.101.051-.102.052-.1.052-.101.106-.201.109-.201.111-.202.23-.414.118-.213.12-.219.122-.226.124-.233.062-.12.063-.122.063-.125.064-.128.064-.13.064-.133.064-.136.065-.139.065-.142.066-.146.066-.149.066-.153.066-.157.066-.161.067-.164.067-.169.124-.323.118-.309.11-.297.104-.284.097-.273.092-.262.087-.251.082-.242.077-.233.074-.224.139-.425.129-.399.123-.376.061-.182.061-.179.061-.175.062-.173.064-.171.065-.17.068-.169.071-.17.074-.17.039-.086.039-.086.04-.086.042-.087.043-.088.044-.088.045-.089.047-.091.048-.09.05-.092.051-.094.053-.094.054-.095.056-.097.05-.084.05-.082.05-.081.051-.079.051-.079.051-.076.052-.076.053-.074.053-.073.053-.072.054-.07.054-.068.055-.068.055-.066.055-.065.056-.063.057-.063.057-.06.057-.06.058-.058.058-.057.059-.055.059-.055.06-.052.06-.052.061-.05.062-.049.061-.048.063-.046.062-.045.064-.043.064-.043.064-.041.065-.039.065-.039.066-.037.066-.035.067-.035.068-.033.068-.032.069-.03.069-.029.07-.028.07-.027.071-.025.071-.024.072-.022.072-.022.074-.02.073-.019.074-.017.075-.016.076-.015.076-.014.076-.012.078-.011.077-.009.079-.009.079-.007.079-.006.081-.004.08-.003.082-.002.082-.001h.041zm-.107 1.001-.066.001-.065.003-.063.003-.063.005-.062.005-.062.007-.061.008-.059.008-.06.009-.058.011-.058.011-.057.013-.056.013-.056.014-.055.015-.055.016-.054.017-.053.018-.053.019-.053.02-.052.021-.052.022-.051.022-.051.024-.051.025-.05.026-.05.027-.05.028-.05.029-.049.03-.049.031-.049.032-.048.034-.048.034-.049.036-.048.037-.048.038-.047.04-.048.04-.047.042-.048.044-.047.044-.047.046-.047.047-.047.048-.046.05-.047.052-.046.052-.046.054-.047.056-.046.057-.045.058-.046.059-.046.062-.045.062-.045.064-.046.066-.045.067-.044.068-.045.07-.044.071-.044.073-.045.075-.052.09-.05.089-.05.088-.047.086-.046.085-.044.084-.043.083-.042.082-.04.08-.039.081-.039.08-.037.079-.036.079-.034.076-.069.158-.065.156-.063.157-.061.158-.06.161-.059.164-.058.167-.059.172-.058.176-.122.372-.129.398-.139.428-.076.227-.079.237-.083.246-.088.257-.094.267-.1.278-.106.291-.112.302-.12.316-.127.329-.07.176-.069.172-.069.167-.07.164-.069.16-.068.156-.069.153-.068.149-.068.145-.067.142-.067.139-.067.136-.066.133-.066.13-.066.127-.065.126-.127.24-.126.232-.122.223-.119.216-.229.412-.109.198-.105.195-.103.192-.048.094-.049.095-.047.094-.046.095-.046.094-.045.095-.043.096-.043.096-.042.096-.041.098-.04.099-.04.1-.038.102-.038.103-.037.105-.037.107-.035.109-.035.111-.034.114-.033.117-.032.12-.032.122-.03.126-.03.129-.029.132-.028.136-.027.141-.027.143-.025.148-.025.153-.023.159-.022.158-.02.155-.018.154-.016.152-.014.149-.013.148-.01.146-.008.144-.006.142-.005.141-.002.138-.001.137.001.135.003.134.005.131.007.13.009.128.01.127.012.125.014.124.016.122.018.12.019.119.021.118.023.116.024.115.026.114.028.112.03.111.032.11.033.109.035.108.036.107.039.105.04.105.042.104.043.103.046.102.047.101.049.101.051.1.052.099.055.099.056.098.058.097.06.097.062.096.064.096.066.095.067.095.07.095.072.094.073.094.076.093.078.093.079.093.082.093.084.092.086.092.088.092.09.092.092.091.094.091.088.083.088.08.089.078.089.077.091.074.09.073.092.071.092.069.093.067.093.065.094.064.095.062.095.06.096.059.097.057.097.056.098.054.098.052.099.051.1.049.1.048.101.046.102.045.102.043.103.042.103.041.104.039.105.038.105.037.106.035.106.034.107.033.107.031.108.031.109.028.109.028.109.027.11.025.111.024.111.023.111.022.112.021.112.02.113.018.113.018.114.016.114.016.114.014.115.014.115.012.115.011.116.011.116.01.116.008.117.008.117.007.117.006.117.006.117.004.118.004.118.003.118.002.118.001.119.001h.058.12l.119-.001.12-.002.118-.003.119-.003.118-.004.119-.005.118-.006.118-.007.117-.007.118-.009.117-.009.116-.01.117-.011.116-.013.116-.013.115-.014.115-.015.115-.016.114-.018.114-.018.113-.019.113-.021.112-.022.112-.023.112-.024.111-.025.11-.026.11-.028.11-.029.109-.03.108-.031.108-.033.107-.034.107-.035.106-.036.106-.038.105-.04.104-.04.104-.042.103-.044.102-.045.102-.046.101-.048.101-.05.1-.051.099-.052.099-.055.098-.055.097-.058.097-.059.096-.06.096-.063.095-.064.094-.065.093-.068.093-.069.092-.072.092-.073.091-.075.09-.077.09-.079.088-.081.089-.083.094-.091.092-.091.09-.092.088-.092.086-.092.084-.092.082-.093.079-.093.078-.093.076-.093.073-.094.072-.094.07-.095.067-.095.066-.095.064-.096.062-.096.06-.097.058-.098.056-.097.055-.099.052-.099.051-.1.049-.101.047-.101.046-.102.043-.103.042-.104.04-.105.039-.105.036-.107.035-.108.033-.109.032-.11.03-.111.028-.112.026-.114.024-.115.023-.116.021-.118.02-.119.017-.12.016-.122.014-.124.012-.125.01-.127.009-.128.007-.13.005-.131.003-.134.001-.135-.001-.137-.002-.138-.005-.141-.006-.142-.008-.144-.01-.146-.013-.148-.014-.149-.016-.152-.018-.154-.02-.155-.021-.158-.024-.159-.025-.153-.025-.148-.027-.143-.027-.141-.028-.136-.029-.132-.03-.129-.03-.126-.032-.122-.032-.12-.033-.117-.034-.113-.035-.112-.035-.109-.037-.107-.037-.105-.038-.103-.038-.102-.04-.1-.04-.099-.041-.098-.042-.096-.043-.096-.044-.096-.044-.095-.046-.094-.046-.095-.047-.094-.049-.095-.048-.094-.103-.192-.105-.195-.109-.198-.229-.412-.119-.216-.122-.223-.126-.232-.127-.24-.065-.126-.066-.127-.065-.13-.067-.133-.067-.136-.067-.139-.067-.142-.068-.145-.068-.149-.069-.153-.068-.156-.069-.16-.069-.164-.07-.167-.069-.172-.07-.176-.127-.329-.12-.316-.112-.302-.106-.291-.1-.278-.094-.267-.088-.257-.083-.246-.079-.237-.076-.227-.139-.428-.129-.398-.122-.372-.058-.176-.059-.172-.058-.168-.059-.163-.06-.161-.061-.158-.063-.157-.065-.156-.069-.158-.034-.076-.036-.079-.037-.079-.039-.08-.039-.081-.04-.08-.042-.082-.043-.083-.044-.084-.046-.085-.047-.086-.05-.088-.05-.089-.052-.09-.044-.074-.044-.072-.044-.071-.044-.07-.045-.068-.044-.066-.045-.065-.045-.064-.045-.062-.045-.061-.046-.059-.045-.058-.046-.057-.045-.055-.046-.053-.046-.053-.047-.051-.046-.05-.046-.048-.047-.047-.046-.046-.047-.044-.047-.043-.047-.042-.047-.04-.048-.04-.047-.038-.048-.037-.048-.036-.048-.034-.048-.034-.048-.032-.049-.031-.048-.03-.049-.029-.05-.028-.049-.027-.05-.026-.05-.025-.051-.024-.05-.023-.052-.022-.051-.021-.052-.02-.053-.019-.053-.018-.053-.018-.054-.016-.055-.015-.055-.015-.056-.013-.056-.013-.057-.012-.058-.01-.058-.01-.059-.009-.06-.008-.061-.007-.061-.006-.062-.005-.063-.004-.064-.003-.064-.002-.068-.001h-.029l-.068.001z" fill="#b2d85a"/><circle cx="16" cy="20.5" fill="#4d3b2f" r="5.5"/><g clip-path="url(#a)"><circle cx="13.65" cy="18.659" fill="#614b3b" r="5.377"/></g></svg>