<svg clip-rule="evenodd" fill-rule="evenodd" stroke-linejoin="round" stroke-miterlimit="2" viewBox="0 0 32 32" xmlns="http://www.w3.org/2000/svg" xmlns:xlink="http://www.w3.org/1999/xlink"><clipPath id="a"><path clip-rule="evenodd" d="m15 14v-9.5c0-.398.158-.779.439-1.061.282-.281.663-.439 1.061-.439s.779.158 1.061.439c.281.282.439.663.439 1.061v10.5h1v-9.5c0-.398.158-.779.439-1.061.282-.281.663-.439 1.061-.439s.779.158 1.061.439c.281.282.439.663.439 1.061v10.5h1v-7.5c0-.828.672-1.5 1.5-1.5s1.5.672 1.5 1.5v12.475c0 4.984-4.041 9.025-9.025 9.025-.329 0-.652 0-.968 0-2.762 0-5.287-1.561-6.523-4.031-2.221-4.443-5.484-10.969-5.484-10.969 2.209-1.105 4.895-.209 6 2 .551 1.101 1 2 1 2v-13.5c0-.398.158-.779.439-1.061.282-.281.663-.439 1.061-.439s.779.158 1.061.439c.281.282.439.663.439 1.061v8.5z"/></clipPath><metadata/><path d="m0 0h32v32h-32z" fill="none"/><path d="m19.163 2.255c-.104-.125-.216-.242-.337-.351-.36-.326-.788-.576-1.249-.728-.352-.117-.718-.173-1.087-.177-.034 0-.067 0-.1.001-.402.015-.797.088-1.173.233-.509.197-.969.512-1.334.916-.032.035-.062.07-.092.106-.018-.008-.036-.015-.053-.022-.377-.145-.772-.218-1.174-.233-.087-.002-.087-.002-.174 0-.402.015-.797.088-1.173.233-.482.186-.92.479-1.275.853-.356.373-.626.824-.788 1.313-.116.352-.172.717-.177 1.087v7.783c-.106-.056-.106-.055-.213-.108-.388-.18-.787-.33-1.202-.435-.359-.092-.727-.152-1.096-.18-.158-.012-.316-.017-.474-.019-.158.001-.158.001-.315.007-.369.021-.734.065-1.095.144-.362.08-.717.191-1.06.332-.145.059-.286.125-.427.194l-1.801.901c2.127 4.254 4.254 8.507 6.381 12.761.073.142.072.142.148.283.106.191.215.379.333.563.261.409.554.797.876 1.159 1.166 1.315 2.703 2.283 4.392 2.767.518.149 1.048.252 1.584.309.271.029.543.043.816.05.432.004.863.004 1.295.001.374-.007.747-.028 1.119-.071.815-.093 1.62-.278 2.395-.551 1.421-.501 2.734-1.298 3.838-2.325 1.264-1.176 2.244-2.648 2.838-4.27.298-.813.498-1.662.597-2.522.042-.372.063-.745.07-1.119l.001-.135v-.007c0-4.196.052-8.393-.001-12.589-.015-.41-.091-.812-.242-1.194-.375-.95-1.167-1.705-2.135-2.032-.358-.121-.732-.18-1.109-.184-.034 0-.068 0-.102.001-.149.005-.297.019-.443.041-.032-.246-.088-.487-.173-.722-.34-.951-1.093-1.722-2.034-2.086-.377-.145-.772-.218-1.174-.233-.087-.002-.087-.002-.174 0-.402.015-.797.088-1.173.233-.018.007-.036.014-.054.022z"/><path d="m15 14v-9.5c0-.398.158-.779.439-1.061.282-.281.663-.439 1.061-.439s.779.158 1.061.439c.281.282.439.663.439 1.061v10.5h1v-9.5c0-.398.158-.779.439-1.061.282-.281.663-.439 1.061-.439s.779.158 1.061.439c.281.282.439.663.439 1.061v10.5h1v-7.5c0-.828.672-1.5 1.5-1.5s1.5.672 1.5 1.5v12.475c0 4.984-4.041 9.025-9.025 9.025-.329 0-.652 0-.968 0-2.762 0-5.287-1.561-6.523-4.031-2.221-4.443-5.484-10.969-5.484-10.969 2.209-1.105 4.895-.209 6 2 .551 1.101 1 2 1 2v-13.5c0-.398.158-.779.439-1.061.282-.281.663-.439 1.061-.439s.779.158 1.061.439c.281.282.439.663.439 1.061v8.5z" fill="#1f5f7d"/><g clip-path="url(#a)"><path d="m11 14c0-.552-.448-1-1-1s-1 .448-1 1v6c0 .552.448 1 1 1s1-.448 1-1c0-1.537 0-4.463 0-6z" fill="#1a466a"/></g></svg>