<svg clip-rule="evenodd" fill-rule="evenodd" stroke-linejoin="round" stroke-miterlimit="1.41421" viewBox="0 0 32 32" xmlns="http://www.w3.org/2000/svg" xmlns:xlink="http://www.w3.org/1999/xlink"><clipPath id="a"><path clip-rule="evenodd" d="m0 0h32v32h-32z"/></clipPath><metadata/><path d="m0 0h32v32h-32z" fill="none"/><g clip-path="url(#a)"><path d="m0 22c0-1.591.632-3.117 1.757-4.243 1.126-1.125 2.652-1.757 4.243-1.757h20c3.314 0 6 2.686 6 6v4c0 1.591-.632 3.117-1.757 4.243-1.126 1.125-2.652 1.757-4.243 1.757-5.718 0-14.282 0-20 0-1.591 0-3.117-.632-4.243-1.757-1.125-1.126-1.757-2.652-1.757-4.243 0-1.308 0-2.692 0-4z"/><path d="m28 13v-5h-16.379l1.5-1.5v-2l-2.121-2.121-7.121 7.121v2l7.121 7.121 2.121-2.121v-2l-1.5-1.5z" fill="#747474" fill-rule="nonzero" stroke="#000" stroke-width="4"/><path d="m13 14h14v3h-14z"/><path d="m28 13v-2l-2-1h-16.379l3.5-3.5v-2l-2.121-.121-7.121 5.121v2l7.121 7.121 2.121-2.121v-2l-3.5-1.5z" fill="#747474" fill-rule="nonzero"/><path d="m9.621 11 3.5 3.5-2.121 2.121-7.121-7.121 7.121-7.121 2.121 2.121-3.5 3.5h18.379v3z" fill="#fff" fill-rule="nonzero"/><path d="m2 22c0-1.061.421-2.078 1.172-2.828.75-.751 1.767-1.172 2.828-1.172h20c1.061 0 2.078.421 2.828 1.172.751.75 1.172 1.767 1.172 2.828v4c0 1.061-.421 2.078-1.172 2.828-.75.751-1.767 1.172-2.828 1.172-5.322 0-14.678 0-20 0-1.061 0-2.078-.421-2.828-1.172-.751-.75-1.172-1.767-1.172-2.828 0-1.287 0-2.713 0-4z" fill="#666"/><g fill="#fff" fill-rule="nonzero"><path d="m10.028 24.482c.12.291.179.676.179 1.154 0 .784-.16 1.354-.482 1.709-.321.354-.866.532-1.635.532h-2.096v-7.731h2.096c.754 0 1.292.166 1.613.498.321.333.482.861.482 1.586 0 .381-.064.706-.191.974-.127.269-.343.475-.649.617.336.149.563.369.683.661zm-2.667-3.104v1.871h.583c.321 0 .545-.073.672-.218.127-.146.191-.383.191-.712 0-.343-.064-.586-.191-.728s-.351-.213-.672-.213zm1.278 5.014c.127-.168.19-.454.19-.857 0-.388-.069-.669-.207-.84-.138-.172-.368-.258-.689-.258h-.572v2.207h.572c.343 0 .579-.084.706-.252z"/><path d="m14.252 26.375h-1.804l-.314 1.502h-1.434l1.983-7.731h1.345l1.972 7.731h-1.434zm-.246-1.232-.65-3.137-.65 3.137z"/><path d="m17.008 27.401c-.388-.378-.582-.929-.582-1.653v-3.485c0-.732.205-1.286.616-1.664.411-.377.952-.565 1.625-.565.642 0 1.161.186 1.557.56.396.373.594.941.594 1.703v.235h-1.378v-.224c0-.351-.073-.611-.219-.779-.145-.168-.341-.252-.588-.252-.291 0-.502.101-.633.303s-.196.504-.196.907v3.104c0 .754.276 1.132.829 1.132.247 0 .443-.086.588-.258.146-.172.219-.426.219-.762v-.202h1.367v.213c0 .747-.208 1.309-.622 1.687-.415.377-.947.565-1.597.565-.665 0-1.191-.188-1.58-.565z"/><path d="m23.709 24.885-.628 1.244v1.748h-1.367v-7.731h1.367v3.641l1.647-3.641h1.378l-1.613 3.182 1.86 4.549h-1.468z"/></g></g></svg>