<svg clip-rule="evenodd" fill-rule="evenodd" stroke-linecap="round" stroke-linejoin="round" stroke-miterlimit="1.5" viewBox="0 0 32 32" xmlns="http://www.w3.org/2000/svg"><metadata/><path d="m0 0h32v32h-32z" fill="none"/><path d="m2.544 23.436c-.327-.262-.456-.7-.324-1.097.148-.442.343-1.027.501-1.502.159-.478.65-.763 1.145-.664 1.093.219 3.053.611 4.877.976 2.759.551 5.623.168 8.14-1.09v-.001c3.822-1.91 6.435-5.604 6.965-9.844.091-.73.152-1.214.152-1.214s-1.369-3.423-1.842-4.605c-.091-.227-.003-.488.207-.614.443-.266 1.189-.714 1.672-1.003.119-.072.263-.09.397-.052.134.039.245.132.307.257.628 1.254 2.259 4.517 2.259 4.517 1.884 1.57 2.896 3.95 2.722 6.395-.034.467-.069.956-.104 1.458-.379 5.298-3.723 9.925-8.634 11.948-.269.11-.538.221-.807.332-5.046 2.078-10.821 1.252-15.082-2.157-1.065-.852-1.995-1.596-2.551-2.04z" fill="none" stroke="#000" stroke-width="4"/><path d="m24 9s-1.369-3.423-1.842-4.605c-.091-.227-.003-.488.207-.614.443-.266 1.189-.714 1.672-1.003.119-.072.263-.09.397-.052.134.039.245.132.307.257.628 1.254 2.259 4.517 2.259 4.517l-1.063 2.453z" fill="#69953a"/><path d="m25.091 8.455 1.909-.955c1.884 1.57 2.896 3.95 2.722 6.395-.034.467-.069.956-.104 1.458-.379 5.298-3.723 9.925-8.634 11.948-.269.11-.538.221-.807.332-5.046 2.078-10.821 1.252-15.082-2.157-1.065-.852-1.995-1.596-2.551-2.04-.327-.262-.456-.7-.324-1.097.148-.442.343-1.027.501-1.502.035-.104.085-.2.149-.284l5.13 1.447c4.652.199 11-1 11-1 4.136-2.659 6.091-12.545 6.091-12.545z" fill="#f7be39"/><path d="m25.091 8.455.31 1.551c.965 4.822-1.122 9.743-5.258 12.402-.001 0-.001.001-.001.001-4.354 2.799-9.938 2.812-14.305.033l-2.967-1.889c.225-.3.609-.457.996-.38 1.093.219 3.053.611 4.877.976 2.759.551 5.623.168 8.14-1.09v-.001c3.822-1.91 6.435-5.604 6.965-9.844.091-.73.152-1.214.152-1.214z" fill="#f4cf7a"/></svg>