<svg clip-rule="evenodd" fill-rule="evenodd" stroke-linecap="round" stroke-linejoin="round" stroke-miterlimit="1.5" viewBox="0 0 32 32" xmlns="http://www.w3.org/2000/svg" xmlns:xlink="http://www.w3.org/1999/xlink"><clipPath id="a"><path clip-rule="evenodd" d="m0 0h32v32h-32z"/></clipPath><metadata/><path d="m0 0h32v32h-32z" fill="none"/><g clip-path="url(#a)"><path d="m16 1c4.243 0 8.313 1.686 11.314 4.686 3 3.001 4.686 7.071 4.686 11.314v2c0 7.18-5.82 13-13 13-1.972 0-4.028 0-6 0-7.18 0-13-5.82-13-13v-2c0-8.837 7.163-16 16-16z"/><path d="m25.523 6.738c.128.118.253.239.376.363 2.626 2.625 4.101 6.186 4.101 9.899v2c0 6.075-4.925 11-11 11-1.972 0-4.028 0-6 0-6.075 0-11-4.925-11-11v-.5l1-1.5 21-11zm-10.087-3.727-.436.989-9 4.156h-.853c2.456-3.011 6.141-4.98 10.289-5.145z" fill="#fbc546"/><path d="m21.273 11.137c-.255.099 2.702 1.5 2.654 1.326l2.073 1.037v2.002c0 .928-.369 1.817-1.025 2.473s-1.545 1.025-2.473 1.025h-.002c-1.933 0-3.5-1.567-3.5-3.5 0-.657 0-1.345 0-2.002 0-.928.369-1.817 1.025-2.473.117-.118.243-.227.374-.325z" fill="#fff"/><path d="m21.273 11.137 2.654 1.326c.048.174.073.354.073.537v2.983c0 .531-.211 1.039-.586 1.415-.375.375-.884.585-1.414.585s-1.039-.21-1.414-.585c-.375-.376-.586-.884-.586-1.415 0-.935 0-2.047 0-2.983 0-.53.211-1.039.586-1.414.197-.198.432-.35.687-.449z"/><path d="m10.727 11.137c.255.099-2.702 1.5-2.654 1.326l-2.073 1.037v2.002c0 .928.369 1.817 1.025 2.473s1.545 1.025 2.473 1.025h.002c1.933 0 3.5-1.567 3.5-3.5 0-.657 0-1.345 0-2.002 0-.928-.369-1.817-1.025-2.473-.117-.118-.243-.227-.374-.325z" fill="#fff"/><path d="m10.727 11.137-2.654 1.326c-.048.174-.073.354-.073.537v2.983c0 .531.211 1.039.586 1.415.375.375.884.585 1.414.585s1.039-.21 1.414-.585c.375-.376.586-.884.586-1.415 0-.935 0-2.047 0-2.983 0-.53-.211-1.039-.586-1.414-.197-.198-.432-.35-.687-.449z"/><path d="m15.436 3.011c.187-.007.375-.011.564-.011 2.705 0 5.33.783 7.571 2.224v.776l-20.571 11-.99-.527c.116-3.149 1.273-6.033 3.137-8.317z" fill="#fff"/><path d="m2 18.5v-1.5c0-.176.003-.352.01-.527l21.561-11.249c.69.443 1.344.949 1.952 1.514l-23.523 11.762z" fill="#b0b0b0"/><path d="m10 25s.422-.422.95-.95c1.313-1.313 3.093-2.05 4.95-2.05h6.1" fill="none" stroke="#593604" stroke-width="2"/></g></svg>