<svg clip-rule="evenodd" fill-rule="evenodd" stroke-linejoin="round" stroke-miterlimit="1.41421" viewBox="0 0 32 32" xmlns="http://www.w3.org/2000/svg" xmlns:xlink="http://www.w3.org/1999/xlink"><clipPath id="a"><path clip-rule="evenodd" d="m0 0h32v32h-32z"/></clipPath><metadata/><path d="m0 0h32v32h-32z" fill="none"/><g clip-path="url(#a)"><circle cx="16" cy="16" r="16"/><circle cx="16" cy="16" fill="#e8272e" r="14"/><path d="m20.707 16.537h-8.283v-1.541h12.25v1.541h-1.849v1.02h1.926v1.734h-1.926v2.254c0 .577-.019 1.017-.057 1.319-.039.302-.103.575-.193.818-.09.244-.257.411-.501.501s-.526.154-.847.193c-.321.038-.777.058-1.368.058-.539 0-1.252-.026-2.138-.077l-.077-1.734c.771.052 1.393.077 1.868.077.591 0 .938-.048 1.041-.144.102-.097.154-.414.154-.954v-2.311h-5.49c.899.809 1.792 1.721 2.678 2.735l-1.349 1.271c-.924-1.053-1.932-2.061-3.024-3.024l1.021-.982h-2.196v-1.734h8.36zm-7.397-8.86h10.401v6.51h-8.436-1.965zm-5.489 4.796-.79-1.695c.925-.565 1.718-1.146 2.379-1.744.661-.597 1.287-1.306 1.878-2.128l1.56.925c-.706.988-1.448 1.842-2.225 2.561-.776.719-1.711 1.413-2.802 2.081zm7.454-2.177h6.356v-1.021h-6.356zm0 1.425v1.079h6.356v-1.079zm-4.392 3.756v9.111h-2.022v-7.358c-.501.578-1.008 1.066-1.522 1.464l-.597-2.042c.989-.732 1.827-1.476 2.514-2.234s1.345-1.669 1.974-2.735l1.58.963c-.527 1.014-1.169 1.958-1.927 2.831z" fill="#fff" fill-rule="nonzero"/></g></svg>