<svg clip-rule="evenodd" fill-rule="evenodd" stroke-linecap="round" stroke-linejoin="round" stroke-miterlimit="1.5" viewBox="0 0 32 32" xmlns="http://www.w3.org/2000/svg" xmlns:xlink="http://www.w3.org/1999/xlink"><clipPath id="a"><path clip-rule="evenodd" d="m0 0h32v32h-32z"/></clipPath><metadata/><path d="m0 0h32v32h-32z" fill="none"/><g clip-path="url(#a)"><path d="m19.213 11.57c.123-.317.328-.603.603-.823 1.965-1.572 4.49-3.592 5.964-4.771.79-.632 1.771-.976 2.783-.976h.437c.552 0 1 .448 1 1v.877c0 .082-.01.163-.03.242-.139.555-.721 2.885-.91 3.642-.04.159-.06.322-.06.485v2.148c0 .395-.117.781-.336 1.11-.963 1.444-3.664 5.496-3.664 5.496l-.001-.001c-.018 1.301-.542 2.544-1.463 3.465-.748.748-1.669 1.669-2.486 2.486-1.312 1.312-3.093 2.05-4.949 2.05-.067 0-.135 0-.202 0-1.856 0-3.637-.738-4.949-2.05-.817-.817-1.738-1.738-2.486-2.486-.921-.921-1.445-2.164-1.463-3.465l-.001.001s-2.701-4.052-3.664-5.496c-.219-.329-.336-.715-.336-1.11 0-.659 0-1.682 0-2.148 0-.163-.02-.326-.06-.485-.189-.757-.771-3.087-.91-3.642-.02-.079-.03-.16-.03-.242 0-.179 0-.528 0-.877 0-.552.448-1 1-1h.437c1.012 0 1.993.344 2.783.976 1.474 1.179 3.999 3.199 5.964 4.771.275.22.48.506.603.823 1.016-.372 2.101-.57 3.213-.57 1.112 0 2.197.198 3.213.57z" fill="none" stroke="#000" stroke-width="4"/><path d="m8.227 15.16c1.732-2.599 4.649-4.16 7.773-4.16 3.124 0 6.041 1.561 7.773 4.16.685 1.027 1.227 1.84 1.227 1.84v2.929c0 1.326-.527 2.598-1.464 3.535-.748.748-1.669 1.669-2.486 2.486-1.312 1.312-3.093 2.05-4.949 2.05-.067 0-.135 0-.202 0-1.856 0-3.637-.738-4.949-2.05-.817-.817-1.738-1.738-2.486-2.486-.937-.937-1.464-2.209-1.464-3.535 0-1.375 0-2.929 0-2.929s.542-.813 1.227-1.84z" fill="#c3914b"/><path d="m7.805 17.986-.805 2.014s-2.701-4.052-3.664-5.496c-.219-.329-.336-.715-.336-1.11 0-.659 0-1.682 0-2.148 0-.163-.02-.326-.06-.485-.189-.757-.771-3.087-.91-3.642-.02-.079-.03-.16-.03-.242v-.861c.301.031 3 0 3 0l4.937 3.984s-.044 4.692 0 4.995c-.21.156-.41.327-.598.509-.424.045-1.749 1.808-1.534 2.482z" fill="#422c29"/><path d="m2.887 5.006c.227.015 2.113.451 2.113.451l7 6.543s-1.044 2.073-1.019 2.377c-.371.17-.72.378-1.044.618-.172-1.174-.696-2.275-1.513-3.154-1.399-1.507-3.394-3.655-4.534-4.882-.497-.536-1.17-.869-1.89-.943v-.016c0-.514.388-.937.887-.994z" fill="#382523"/><g fill="none"><path d="m11 13.5s-.849 0-1.764 0c-1.37 0-2.623.774-3.236 2" stroke="#76615e" stroke-opacity=".611765"/><path d="m9 10.5s-.561 0-1.198 0c-1.126 0-2.177.563-2.802 1.5" stroke="#76615e" stroke-opacity=".611765"/><path d="m6.5 7.5s-.488 0-1.01 0c-.784 0-1.522.371-1.99 1" stroke="#76615e" stroke-opacity=".611765"/></g><path d="m2.887 5.006c.037-.004.075-.006.113-.006h.437c1.012 0 1.993.344 2.783.976 1.474 1.179 3.999 3.199 5.964 4.771.561.449.832 1.169.706 1.877-.126.707-.63 1.289-1.311 1.516-.001.001-.002.001-.003.001-.204.068-.402.147-.595.236-.107-1.316-.652-2.562-1.557-3.536-1.399-1.507-3.394-3.655-4.534-4.882-.523-.564-1.241-.903-2.003-.953z" fill="#563a36"/><path d="m7.805 17.986c-.515-.072-.953-.43-1.121-.934-.219-.656-.492-1.476-.617-1.85-.044-.134-.099-.266-.162-.393-.122-.242-.338-.675-.529-1.056-.08-.162-.072-.353.023-.506.095-.154.262-.247.442-.247h.001c.102 0 .202.033.285.095l3.212 2.409c-.578.565-1.04 1.249-1.347 2.017z" fill="#a16636"/><path d="m24.195 17.986.805 2.014s2.701-4.052 3.664-5.496c.219-.329.336-.715.336-1.11 0-.659 0-1.682 0-2.148 0-.163.02-.326.06-.485.189-.757.771-3.087.91-3.642.02-.079.03-.16.03-.242v-.861c-.301.031-3 0-3 0l-4.937 3.984s.044 4.692 0 4.995c.21.156.41.327.598.509.424.045 1.749 1.808 1.534 2.482z" fill="#422c29"/><path d="m29.113 5.006c-.227.015-2.113.451-2.113.451l-7 6.543s1.044 2.073 1.019 2.377c.371.17.72.378 1.044.618.172-1.174.696-2.275 1.513-3.154 1.399-1.507 3.394-3.655 4.534-4.882.497-.536 1.17-.869 1.89-.943v-.016c0-.514-.388-.937-.887-.994z" fill="#382523"/><path d="m21 13.5h1.764c1.37 0 2.623.774 3.236 2" fill="none" stroke="#76615e" stroke-opacity=".611765"/><path d="m23 10.5h1.198c1.126 0 2.177.563 2.802 1.5" fill="none" stroke="#76615e" stroke-opacity=".611765"/><path d="m25.5 7.5h1.01c.784 0 1.522.371 1.99 1" fill="none" stroke="#76615e" stroke-opacity=".611765"/><path d="m29.113 5.006c-.037-.004-.075-.006-.113-.006-.141 0-.289 0-.437 0-1.012 0-1.993.344-2.783.976-1.474 1.179-3.999 3.199-5.964 4.771-.561.449-.832 1.169-.706 1.877.126.707.63 1.289 1.311 1.516.001.001.002.001.003.001.204.068.402.147.595.236.107-1.316.652-2.562 1.557-3.536 1.399-1.507 3.394-3.655 4.534-4.882.523-.564 1.241-.903 2.003-.953z" fill="#563a36"/><path d="m24.195 17.986c.515-.072.953-.43 1.121-.934.219-.656.492-1.476.617-1.85.044-.134.099-.266.162-.393.122-.242.338-.675.529-1.056.08-.162.072-.353-.023-.506-.095-.154-.262-.247-.442-.247h-.001c-.102 0-.202.033-.285.095l-3.212 2.409c.578.565 1.04 1.249 1.347 2.017z" fill="#a16636"/><path d="m22 18c0-.552-.448-1-1-1s-1 .448-1 1v1c0 .552.448 1 1 1s1-.448 1-1c0-.322 0-.678 0-1z"/><path d="m12 18c0-.552-.448-1-1-1s-1 .448-1 1v1.001c0 .552.447.999.999.999h.001c.552 0 1-.448 1-1 0-.322 0-.678 0-1z"/><path d="m12 21.181c0-.433.187-.844.512-1.129.39-.341.952-.833 1.512-1.323 1.132-.99 2.82-.99 3.952 0 .56.49 1.122.982 1.512 1.323.325.285.512.696.512 1.129v.319c0 .398-.158.779-.439 1.061-.282.281-.663.439-1.061.439-1.43 0-3.57 0-5 0-.398 0-.779-.158-1.061-.439-.281-.282-.439-.663-.439-1.061 0-.11 0-.218 0-.319z" fill="#7e482a"/><path d="m18.5 20.75c0-.199-.079-.39-.22-.53-.14-.141-.331-.22-.53-.22s-.39.079-.53.22c-.141.14-.22.331-.22.53v.5c0 .199.079.39.22.53.14.141.331.22.53.22s.39-.079.53-.22c.141-.14.22-.331.22-.53 0-.163 0-.337 0-.5z" fill="#361a12"/><path d="m15 20.75c0-.199-.079-.39-.22-.53-.14-.141-.331-.22-.53-.22s-.39.079-.53.22c-.141.14-.22.331-.22.53v.5c0 .199.079.39.22.53.14.141.331.22.53.22s.39-.079.53-.22c.141-.14.22-.331.22-.53 0-.163 0-.337 0-.5z" fill="#361a12"/><path d="m11 24s1.393.696 2.28 1.14c.453.227.987.227 1.44 0l.56-.28c.453-.227.987-.227 1.44 0l.56.28c.453.227.987.227 1.44 0 .887-.444 2.28-1.14 2.28-1.14" fill="none" stroke="#835c30" stroke-width="1.5"/></g></svg>