<svg clip-rule="evenodd" fill-rule="evenodd" stroke-linecap="round" stroke-linejoin="round" stroke-miterlimit="1.5" viewBox="0 0 32 32" xmlns="http://www.w3.org/2000/svg" xmlns:xlink="http://www.w3.org/1999/xlink"><clipPath id="a"><path clip-rule="evenodd" d="m0 0h32v32h-32z"/></clipPath><metadata/><path d="m0 0h32v32h-32z" fill="none"/><g clip-path="url(#a)"><g fill="none"><path d="m7.5 12c-1.459 0-2.858.579-3.889 1.611-1.032 1.031-1.611 2.43-1.611 3.889v4.139c0 1.553.361 3.084 1.056 4.472.093.187.189.379.286.572 1.016 2.033 3.094 3.317 5.366 3.317h14.584c2.272 0 4.35-1.284 5.366-3.317.097-.193.193-.385.286-.572.695-1.388 1.056-2.919 1.056-4.472v-4.139c0-1.459-.579-2.858-1.611-3.889-1.031-1.032-2.43-1.611-3.889-1.611-4.917 0-12.083 0-17 0z" stroke="#000" stroke-width="4"/><path d="m5 14v-7c0-.53.211-1.039.586-1.414s.884-.586 1.414-.586 1.039.211 1.414.586.586.884.586 1.414v1" stroke="#000" stroke-linecap="square" stroke-width="6"/><path d="m5 14v-7c0-.53.211-1.039.586-1.414s.884-.586 1.414-.586 1.039.211 1.414.586.586.884.586 1.414v1" stroke="#999" stroke-linecap="square" stroke-width="2"/></g><path d="m30 18v3.639c0 1.553-.361 3.084-1.056 4.472-.093.187-.189.379-.286.572-1.016 2.033-3.094 3.317-5.366 3.317-4.058 0-10.526 0-14.584 0-2.272 0-4.35-1.284-5.366-3.317-.097-.193-.193-.385-.286-.572-.695-1.388-1.056-2.919-1.056-4.472v-3.639c0 2.761 28 2.761 28 0z" fill="#ccc"/><path d="m2 18.002v-.502c0-1.459.579-2.858 1.611-3.889 1.031-1.032 2.43-1.611 3.889-1.611h17c1.459 0 2.858.579 3.889 1.611 1.032 1.031 1.611 2.43 1.611 3.889v.5c0 2.761-2.239 5-5 5-5.085 0-12.918 0-18.002 0-2.76 0-4.998-2.238-4.998-4.998z" fill="#fff"/><path d="m3.067 18.272c-.044-.253-.067-.511-.067-.772 0-1.193.474-2.338 1.318-3.182s1.989-1.318 3.182-1.318h17c1.193 0 2.338.474 3.182 1.318s1.318 1.989 1.318 3.182c0 .261-.023.519-.067.772-.146-.79-25.72-.79-25.866 0z" fill="#aeaeae"/><path d="m3.067 18.272c.146-.79.528-1.524 1.105-2.1.75-.751 1.767-1.172 2.828-1.172h18c1.061 0 2.078.421 2.828 1.172.577.576.959 1.31 1.105 2.1-.158.907-.591 1.75-1.251 2.41-.844.844-1.989 1.318-3.182 1.318-4.763 0-12.237 0-17 0-1.193 0-2.338-.474-3.182-1.318-.66-.66-1.093-1.503-1.251-2.41z" fill="#3389ec"/></g></svg>