<svg clip-rule="evenodd" fill-rule="evenodd" stroke-linecap="round" stroke-miterlimit="2" viewBox="0 0 32 32" xmlns="http://www.w3.org/2000/svg" xmlns:xlink="http://www.w3.org/1999/xlink"><clipPath id="a"><path clip-rule="evenodd" d="m32 32v-32h-32v32z"/></clipPath><metadata/><path d="m32 32v-32h-32v32z" fill="none"/><g clip-path="url(#a)"><path d="m27 19v4.5c0 .133-.053.26-.146.354-.094.093-.221.146-.354.146-3.202 0-20.798 0-24 0-.133 0-.26-.053-.354-.146-.093-.094-.146-.221-.146-.354 0-2.388 0-12.612 0-15 0-.133.053-.26.146-.354.094-.093.221-.146.354-.146h24c.133 0 .26.053.354.146.093.094.146.221.146.354v4.5h2.5c.133 0 .26.053.354.146.093.094.146.221.146.354v5c0 .133-.053.26-.146.354-.094.093-.221.146-.354.146z" fill="none" stroke="#000" stroke-width="4"/><path d="m26 13h3.5c.133 0 .26.053.354.146.093.094.146.221.146.354v5c0 .133-.053.26-.146.354-.094.093-.221.146-.354.146-1.073 0-3.5 0-3.5 0z" fill="#b2b2b2"/><path d="m27 8.5c0-.133-.053-.26-.146-.354-.094-.093-.221-.146-.354-.146-3.202 0-20.798 0-24 0-.133 0-.26.053-.354.146-.093.094-.146.221-.146.354v15c0 .133.053.26.146.354.094.093.221.146.354.146h24c.133 0 .26-.053.354-.146.093-.094.146-.221.146-.354 0-2.388 0-12.612 0-15z" fill="#199d4e"/><path d="m26 9.5c0-.133-.053-.26-.146-.354-.094-.093-.221-.146-.354-.146-3.036 0-18.964 0-22 0-.133 0-.26.053-.354.146-.093.094-.146.221-.146.354v5c0 .133.053.26.146.354.094.093.221.146.354.146h22c.133 0 .26-.053.354-.146.093-.094.146-.221.146-.354 0-1.13 0-3.87 0-5z" fill="#20c662"/><path d="m20 15v-2.5c0-.133.053-.26.146-.354.094-.093.221-.146.354-.146h1c.133 0 .26.053.354.146.093.094.146.221.146.354v2.5h2.5c.133 0 .26.053.354.146.093.094.146.221.146.354v1c0 .133-.053.26-.146.354-.094.093-.221.146-.354.146h-2.5v2.5c0 .133-.053.26-.146.354-.094.093-.221.146-.354.146-.305 0-.695 0-1 0-.133 0-.26-.053-.354-.146-.093-.094-.146-.221-.146-.354v-2.5h-2.5c-.133 0-.26-.053-.354-.146-.093-.094-.146-.221-.146-.354 0-.305 0-.695 0-1 0-.133.053-.26.146-.354.094-.093.221-.146.354-.146z" fill="#fff"/></g></svg>