<svg clip-rule="evenodd" fill-rule="evenodd" stroke-linejoin="round" stroke-miterlimit="1.41421" viewBox="0 0 32 32" xmlns="http://www.w3.org/2000/svg" xmlns:xlink="http://www.w3.org/1999/xlink"><clipPath id="a"><path clip-rule="evenodd" d="m0 0h32v32h-32z"/></clipPath><metadata/><path d="m0 0h32v32h-32z" fill="none"/><g clip-path="url(#a)"><path d="m29 10c0-2.209-1.791-4-4-4-5.534 0-15.466 0-21 0-2.209 0-4 1.791-4 4v12c0 2.209 1.791 4 4 4h21c2.209 0 4-1.791 4-4 0-3.486 0-8.514 0-12z"/><path d="m32 14c0-1.657-1.343-3-3-3-2.27 0-5 0-5 0v10h5c1.657 0 3-1.343 3-3 0-1.265 0-2.735 0-4z"/><path d="m30 14c0-.265-.105-.52-.293-.707-.187-.188-.442-.293-.707-.293-1.185 0-3 0-3 0v6h3c.265 0 .52-.105.707-.293.188-.187.293-.442.293-.707 0-1.11 0-2.89 0-4z" fill="#999"/><path d="m27 10c0-.53-.211-1.039-.586-1.414s-.884-.586-1.414-.586c-4.683 0-16.317 0-21 0-.53 0-1.039.211-1.414.586s-.586.884-.586 1.414v12c0 .53.211 1.039.586 1.414s.884.586 1.414.586h21c.53 0 1.039-.211 1.414-.586s.586-.884.586-1.414c0-3.074 0-8.926 0-12z" fill="#fff"/><g fill="#ef9b00"><path d="m10 10c0-.552-.448-1-1-1-1.322 0-3.638 0-4.96 0-.552 0-1 .448-1 1v12c0 .552.448 1 1 1h4.96c.552 0 1-.448 1-1 0-2.577 0-9.423 0-12z"/><path d="m18.04 10c0-.552-.448-1-1-1-1.339 0-3.701 0-5.04 0-.552 0-1 .448-1 1v12c0 .552.448 1 1 1h5.04c.552 0 1-.448 1-1 0-2.577 0-9.423 0-12z"/></g></g></svg>