<svg clip-rule="evenodd" fill-rule="evenodd" stroke-linecap="round" stroke-linejoin="round" stroke-miterlimit="1.5" viewBox="0 0 32 32" xmlns="http://www.w3.org/2000/svg" xmlns:xlink="http://www.w3.org/1999/xlink"><clipPath id="a"><path clip-rule="evenodd" d="m2 5h29v27h-29z"/></clipPath><clipPath id="b"><path clip-rule="evenodd" d="m2 5h29v25h-29z"/></clipPath><clipPath id="c"><path clip-rule="nonzero" d="m18.259 13.909-11.897 20.458-1.729-1.005 11.898-20.459z"/></clipPath><clipPath id="d"><path clip-rule="evenodd" d="m30 23-8-18-20 4z"/></clipPath><metadata/><g fill="none"><path d="m0 0h32v32h-32z"/><path d="m30 23-8-18-20 4z" stroke="#000" stroke-width="4"/><path d="m2 5h29v27h-29z"/></g><g clip-path="url(#a)"><path d="m16.892 14.271-10.892 18.729" fill="none" stroke="#000" stroke-linecap="square" stroke-linejoin="miter" stroke-width="6"/></g><path d="m2 5h29v25h-29z" fill="none"/><g clip-path="url(#b)"><path d="m18.259 13.909-11.897 20.458-1.729-1.005 11.898-20.459z" fill="#919191" fill-rule="nonzero"/><g clip-path="url(#c)"><path d="m30 23-28-14z" fill="none" stroke="#535353" stroke-linejoin="miter" stroke-width="8"/></g></g><path d="m30 23-8-18-20 4z" fill="#e34c3e"/><g clip-path="url(#d)"><path d="m22 5h10v20h-10z" fill="#b7271a"/></g></svg>