<svg clip-rule="evenodd" fill-rule="evenodd" stroke-linecap="round" stroke-linejoin="round" stroke-miterlimit="1.5" viewBox="0 0 32 32" xmlns="http://www.w3.org/2000/svg" xmlns:xlink="http://www.w3.org/1999/xlink"><clipPath id="a"><path clip-rule="evenodd" d="m0 0h32v32h-32z"/></clipPath><metadata/><path d="m0 0h32v32h-32z" fill="none"/><g clip-path="url(#a)"><path d="m32 13c0-1.105-.895-2-2-2-5.746 0-22.254 0-28 0-1.105 0-2 .895-2 2v17c0 1.105.895 2 2 2h28c1.105 0 2-.895 2-2 0-4.01 0-12.99 0-17z"/><path d="m16.366 9.906-9.366-4.906 15-3 6 14-9.86-5.165-6.278 10.672-1.724-1.014z" fill="none" stroke="#000" stroke-width="4"/><path d="m2 13h28v3.5l-1 .5v4l1 .5v2.5l-2 1h-24l-2-1z" fill="#eec470"/><path d="m30 16.5v5l-3 1.5s-.169-.169-.439-.439c-.705-.705-1.179-1.598-1.374-2.561h-13.187v-2h13.187c.195-.963.669-1.856 1.374-2.561.27-.27.439-.439.439-.439z" fill="#916711"/><path d="m30 26-1-1h-26l-1 1v4h28z" fill="#54e2ef"/><path d="m2 24h28v2h-28z" fill="#e3fafc"/><path d="m19.155 9.109-2.031 3.452-1.774.439v-1.368l2.031-3.452z" fill="#535353"/><path d="m10.428 20 4.922-8.368 1.774.929-4.376 7.439z" fill="#919191"/><path d="m22 12.857-15-7.857 15-3 1 4v6z" fill="#e34c3e"/><path d="m28 16-6-3.143v-10.857z" fill="#b7271a"/></g></svg>