<svg clip-rule="evenodd" fill-rule="evenodd" stroke-linecap="round" stroke-linejoin="round" stroke-miterlimit="1.5" viewBox="0 0 32 32" xmlns="http://www.w3.org/2000/svg" xmlns:xlink="http://www.w3.org/1999/xlink"><clipPath id="a"><path clip-rule="evenodd" d="m19 8.333 3-2.333s.775-.71 1.642-1.505c1.331-1.22 3.376-1.211 4.696.021.001 0 .001 0 .001.001.698.65 1.1 1.556 1.117 2.51.016.953-.355 1.872-1.029 2.546-.458.458-.871.871-1.134 1.134-.188.188-.293.442-.293.707v3.615z"/></clipPath><clipPath id="b"><path clip-rule="evenodd" d="m13 8.333-3-2.333s-.775-.71-1.642-1.505c-1.331-1.22-3.376-1.211-4.696.021-.001 0-.001 0-.001.001-.698.65-1.1 1.556-1.117 2.51-.016.953.355 1.872 1.029 2.546l1.134 1.134c.188.188.293.442.293.707v3.615z"/></clipPath><clipPath id="c"><path clip-rule="evenodd" d="m14.311 6c-5.246 0-9.601 4.054-9.974 9.288-.054.755-.105 1.47-.151 2.105-.12 1.681.371 3.35 1.382 4.698.713.95 1.566 2.087 2.332 3.109 1.322 1.763 3.397 2.8 5.6 2.8h5c2.203 0 4.278-1.037 5.6-2.8.766-1.022 1.619-2.159 2.332-3.109 1.011-1.348 1.502-3.017 1.382-4.698-.046-.635-.097-1.35-.151-2.105-.373-5.234-4.728-9.288-9.974-9.288-1.118 0-2.26 0-3.378 0z"/></clipPath><metadata/><path d="m0 0h32v32h-32z" fill="none"/><path d="m14.311 6c-5.246 0-9.601 4.054-9.974 9.288-.054.755-.105 1.47-.151 2.105-.12 1.681.371 3.35 1.382 4.698.713.95 1.566 2.087 2.332 3.109 1.322 1.763 3.397 2.8 5.6 2.8h5c2.203 0 4.278-1.037 5.6-2.8.766-1.022 1.619-2.159 2.332-3.109 1.011-1.348 1.502-3.017 1.382-4.698-.046-.635-.097-1.35-.151-2.105-.373-5.234-4.728-9.288-9.974-9.288-1.118 0-2.26 0-3.378 0z"/><path d="m17.836 4.001.146.003.147.004.145.006.146.008.145.01.145.011.144.013.144.015.143.016.143.018.142.02.142.022.141.023.141.025.141.026.139.028.14.03.138.031.138.033.138.035.136.036.137.037.135.04.135.04.134.043.134.043.133.046.132.047.132.048.131.05.129.051.13.053.128.054.128.055.127.058.126.058.126.06.125.061.123.063.123.064.123.065.121.067.12.068.12.07.119.071.118.072.117.073.116.075.115.076.114.078.113.078.112.08.112.081.11.083.11.083.108.085.107.086.107.088.105.088.104.09.104.09.102.093.101.093.1.094.099.095.098.097.097.098.096.098.095.1.093.101.092.102.092.104.09.104.089.105.087.106.087.108.085.108.084.11.083.11.082.111.08.113.079.113.078.114.077.116.075.116.074.117.073.119.071.118.07.12.069.121.067.122.066.123.064.123.064.125.062.125.06.126.059.127.057.128.057.128.054.129.054.131.051.131.05.131.049.133.047.133.046.134.044.134.043.136.041.136.04.136.038.138.036.138.035.139.033.139.031.14.03.141.029.141.026.142.025.142.024.143.021.143.02.144.019.145.016.145.015.145.013.147.011.14.151 2.117.006.095.006.102.004.101.003.101.003.101.001.101-.001.102-.001.1-.002.101-.004.101-.005.1-.005.101-.007.1-.009.1-.009.1-.01.1-.011.1-.013.1-.013.099-.015.099-.016.099-.017.099-.018.098-.019.098-.02.099-.021.098-.023.097-.023.097-.024.097-.026.097-.027.096-.027.096-.029.096-.03.096-.031.094-.032.095-.033.095-.034.094-.035.093-.036.094-.037.093-.038.092-.039.092-.041.092-.041.092-.043.09-.043.091-.044.09-.046.09-.046.088-.048.089-.048.088-.05.088-.05.087-.052.086-.052.087-.054.085-.054.085-.056.085-.057.084-.057.083-.058.083-.06.082-.057.077-2.339 3.119-.076.1-.082.104-.083.102-.085.102-.086.1-.087.098-.088.097-.09.096-.091.094-.092.093-.094.092-.095.09-.096.088-.097.087-.098.086-.1.084-.1.082-.102.081-.103.079-.104.078-.105.077-.105.074-.107.073-.108.072-.109.07-.11.068-.111.067-.111.065-.113.064-.114.062-.114.06-.115.059-.116.057-.117.055-.118.054-.118.052-.119.05-.12.049-.121.046-.121.045-.122.044-.123.041-.123.04-.124.039-.125.036-.125.034-.126.033-.126.031-.127.029-.127.028-.128.025-.128.024-.129.022-.129.02-.13.018-.13.016-.131.015-.13.012-.132.011-.131.009-.132.006-.132.005-.132.003-.126.001h-5.014l-.126-.001-.132-.003-.132-.005-.132-.006-.131-.009-.132-.011-.13-.012-.131-.015-.13-.016-.13-.018-.129-.02-.129-.022-.128-.024-.128-.025-.127-.028-.127-.029-.126-.031-.126-.033-.125-.034-.125-.037-.124-.038-.123-.04-.123-.041-.122-.044-.121-.045-.121-.046-.12-.049-.119-.05-.118-.052-.118-.054-.117-.055-.116-.057-.115-.059-.115-.06-.113-.062-.113-.064-.111-.065-.111-.067-.11-.068-.109-.07-.108-.072-.107-.073-.105-.074-.105-.077-.104-.078-.103-.079-.102-.081-.1-.082-.1-.084-.098-.086-.097-.087-.096-.088-.095-.09-.093-.092-.093-.093-.091-.094-.09-.095-.088-.098-.088-.098-.085-.1-.085-.101-.083-.103-.082-.104-.076-.1-2.339-3.119-.057-.077-.06-.082-.058-.083-.057-.083-.057-.084-.056-.085-.054-.085-.053-.085-.053-.087-.052-.086-.05-.087-.05-.088-.048-.088-.048-.089-.046-.089-.046-.089-.044-.09-.043-.091-.043-.09-.041-.092-.04-.091-.04-.093-.038-.092-.037-.093-.036-.094-.035-.093-.034-.094-.033-.095-.032-.094-.031-.095-.03-.096-.029-.096-.027-.096-.027-.096-.026-.097-.024-.097-.023-.097-.023-.098-.021-.097-.02-.099-.019-.098-.018-.098-.017-.099-.016-.099-.015-.099-.013-.1-.013-.099-.011-.1-.01-.1-.01-.1-.008-.1-.006-.1-.006-.101-.005-.1-.004-.101-.002-.101-.001-.101-.001-.101.001-.101.003-.101.003-.101.004-.101.006-.102.006-.095.151-2.117.011-.141.013-.146.015-.145.016-.145.019-.145.02-.144.021-.143.024-.143.025-.142.026-.142.029-.142.03-.14.031-.14.033-.139.035-.139.036-.138.038-.137.04-.137.041-.136.043-.136.044-.134.046-.134.047-.133.049-.133.05-.131.051-.131.054-.131.054-.129.056-.128.058-.128.059-.127.06-.126.062-.125.064-.125.064-.123.066-.123.067-.122.069-.121.07-.119.072-.12.072-.118.074-.117.075-.116.077-.116.078-.114.079-.113.08-.113.082-.111.083-.11.084-.11.085-.108.087-.108.087-.106.089-.105.09-.104.092-.104.092-.102.093-.101.095-.1.096-.098.097-.098.098-.097.099-.095.1-.094.101-.093.102-.093.103-.09.105-.09.105-.089.107-.087.107-.086.108-.085.11-.083.11-.083.112-.081.112-.08.113-.078.114-.078.115-.076.116-.075.117-.073.118-.072.119-.071.12-.07.12-.068.121-.067.123-.065.123-.064.123-.063.125-.061.125-.06.127-.058.127-.058.128-.055.128-.054.13-.053.13-.051.13-.05.132-.048.132-.047.133-.046.134-.043.134-.043.135-.04.135-.04.137-.037.136-.036.138-.035.138-.033.138-.031.14-.03.139-.028.141-.026.141-.025.141-.023.142-.022.142-.02.143-.018.143-.016.144-.015.144-.013.145-.011.145-.01.146-.008.145-.006.147-.004.146-.003.141-.001h3.39l.141.001zm-3.519 3.999-.104.001-.099.001-.098.003-.097.004-.098.006-.097.006-.096.008-.097.009-.096.009-.095.011-.096.013-.094.013-.095.014-.094.015-.094.017-.093.018-.093.018-.093.02-.092.021-.092.022-.091.023-.091.024-.091.025-.09.026-.089.027-.09.028-.088.029-.089.03-.088.031-.087.032-.087.034-.087.034-.086.035-.085.036-.085.037-.085.038-.084.039-.083.04-.084.04-.082.042-.082.043-.081.044-.081.044-.081.045-.079.047-.079.047-.079.048-.078.049-.078.05-.076.051-.076.051-.076.053-.075.053-.074.054-.074.055-.073.056-.073.057-.071.058-.071.058-.071.059-.069.06-.07.061-.068.061-.067.062-.067.063-.066.064-.066.064-.065.066-.064.066-.063.066-.062.068-.062.068-.061.069-.06.07-.059.07-.059.071-.058.071-.056.073-.057.073-.055.073-.054.075-.054.075-.053.075-.052.077-.051.077-.05.077-.049.078-.049.079-.047.079-.047.08-.046.081-.044.08-.044.082-.043.082-.042.083-.041.083-.041.084-.039.085-.038.084-.037.086-.037.086-.035.086-.034.088-.034.087-.032.088-.032.089-.03.089-.029.089-.029.09-.027.091-.026.091-.026.091-.024.092-.023.092-.022.093-.021.093-.02.094-.019.094-.018.095-.016.095-.016.095-.014.096-.014.096-.012.097-.011.097-.01.098-.009.098-.008.104-.149 2.093-.004.062-.004.057-.002.056-.002.056-.001.056v.056.057.056l.002.055.002.057.002.056.004.055.003.056.005.056.005.055.006.056.006.055.007.056.007.055.009.054.008.055.01.056.01.054.01.055.012.054.011.055.013.054.013.054.013.054.014.053.015.054.016.053.016.054.016.052.017.053.018.053.019.053.018.052.02.052.02.052.021.051.021.052.022.051.022.051.023.051.024.05.024.05.024.051.026.049.025.05.027.049.027.049.027.048.028.049.029.048.029.047.03.048.03.047.031.047.031.047.032.046.033.046.033.046.037.05 2.324 3.098.049.065.045.057.046.058.047.056.048.056.049.054.049.054.05.054.05.052.051.051.052.051.053.05.053.049.054.049.055.047.055.047.056.045.056.045.057.044.058.044.058.042.059.042.06.04.06.04.06.039.061.038.062.037.062.036.062.036.063.034.064.034.064.032.064.032.065.031.066.029.065.029.067.028.066.027.067.026.068.025.068.024.068.023.068.023.069.021.069.02.07.019.07.018.07.018.07.016.071.015.071.014.071.013.072.012.072.012.072.01.072.009.072.008.073.007.073.005.073.005.073.004.074.003.073.001.081.001h4.986l.081-.001.073-.001.074-.003.073-.004.073-.005.073-.005.073-.007.072-.008.072-.009.072-.01.072-.012.072-.012.071-.013.071-.014.071-.015.07-.016.07-.018.07-.018.07-.019.069-.02.069-.021.068-.023.068-.023.068-.024.068-.025.067-.026.066-.027.066-.028.066-.029.066-.029.065-.031.064-.032.064-.032.064-.034.063-.034.062-.036.062-.036.062-.037.061-.038.06-.039.06-.04.06-.04.059-.042.058-.042.058-.044.057-.044.056-.045.056-.046.055-.046.055-.047.054-.049.053-.049.053-.05.051-.05.052-.052.051-.053.049-.053.049-.054.049-.055.048-.055.046-.056.047-.058.045-.057.049-.065 2.324-3.098.037-.05.033-.046.033-.046.032-.046.031-.047.031-.047.03-.047.03-.047.029-.048.029-.048.028-.049.027-.048.027-.049.027-.049.026-.05.025-.049.024-.051.024-.05.024-.05.023-.051.022-.051.022-.051.021-.052.021-.052.02-.051.02-.052.018-.052.019-.053.018-.052.017-.054.016-.052.016-.054.016-.053.014-.053.015-.054.013-.054.013-.054.013-.055.011-.054.012-.054.01-.055.01-.054.01-.055.008-.055.009-.055.007-.056.007-.055.006-.055.006-.056.005-.055.005-.056.003-.056.004-.055.002-.056.002-.056.002-.056v-.057-.056-.056l-.001-.056-.002-.056-.002-.056-.004-.057-.004-.062-.149-2.093-.008-.104-.009-.098-.01-.098-.011-.097-.012-.097-.013-.096-.015-.096-.016-.095-.016-.095-.018-.095-.019-.094-.02-.094-.021-.093-.022-.093-.023-.092-.024-.092-.025-.091-.027-.091-.027-.091-.029-.09-.029-.089-.03-.089-.032-.089-.032-.088-.034-.088-.034-.087-.035-.086-.037-.086-.037-.085-.038-.085-.04-.085-.04-.084-.041-.083-.042-.083-.043-.082-.044-.081-.045-.082-.045-.08-.047-.08-.048-.079-.048-.079-.049-.078-.05-.078-.051-.076-.052-.077-.053-.075-.054-.075-.054-.075-.055-.073-.057-.073-.056-.073-.058-.071-.059-.071-.059-.07-.06-.07-.061-.069-.062-.068-.062-.067-.063-.067-.064-.066-.065-.066-.066-.064-.066-.064-.067-.063-.067-.062-.069-.062-.068-.06-.07-.06-.071-.059-.071-.059-.071-.057-.073-.057-.073-.056-.074-.055-.074-.054-.075-.053-.076-.053-.076-.051-.076-.051-.078-.05-.078-.049-.079-.048-.079-.047-.079-.047-.081-.045-.081-.044-.081-.044-.082-.043-.083-.042-.082-.04-.084-.04-.084-.039-.085-.038-.085-.037-.085-.036-.086-.035-.087-.035-.087-.033-.087-.032-.088-.031-.089-.03-.088-.029-.09-.028-.089-.027-.09-.026-.091-.025-.091-.024-.091-.023-.092-.022-.092-.021-.093-.02-.093-.018-.093-.018-.094-.017-.094-.015-.095-.014-.095-.013-.095-.013-.095-.011-.096-.009-.097-.009-.096-.008-.097-.006-.098-.006-.097-.004-.098-.003-.099-.001-.104-.001h-3.366z"/><path d="m19 8.333 3-2.333s.775-.71 1.642-1.505c1.331-1.22 3.376-1.211 4.696.021.001 0 .001 0 .001.001.698.65 1.1 1.556 1.117 2.51.016.953-.355 1.872-1.029 2.546-.458.458-.871.871-1.134 1.134-.188.188-.293.442-.293.707v3.615z" fill="none" stroke="#000" stroke-width="4"/><path d="m13 8.333-3-2.333s-.775-.71-1.642-1.505c-1.331-1.22-3.376-1.211-4.696.021-.001 0-.001 0-.001.001-.698.65-1.1 1.556-1.117 2.51-.016.953.355 1.872 1.029 2.546l1.134 1.134c.188.188.293.442.293.707v3.615z" fill="none" stroke="#000" stroke-width="4"/><path d="m19 8.333 3-2.333s.775-.71 1.642-1.505c1.331-1.22 3.376-1.211 4.696.021.001 0 .001 0 .001.001.698.65 1.1 1.556 1.117 2.51.016.953-.355 1.872-1.029 2.546-.458.458-.871.871-1.134 1.134-.188.188-.293.442-.293.707v3.615z" fill="#61492b"/><g clip-path="url(#a)"><path d="m26 6s-.26.26-.515.515c-.314.314-.515.725-.57 1.166-.143 1.142-.415 3.319-.415 3.319" fill="none" stroke="#2d2214" stroke-linejoin="miter" stroke-miterlimit="2" stroke-width="2"/></g><path d="m13 8.333-3-2.333s-.775-.71-1.642-1.505c-1.331-1.22-3.376-1.211-4.696.021-.001 0-.001 0-.001.001-.698.65-1.1 1.556-1.117 2.51-.016.953.355 1.872 1.029 2.546l1.134 1.134c.188.188.293.442.293.707v3.615z" fill="#61492b"/><g clip-path="url(#b)"><path d="m6 6s.26.26.515.515c.314.314.515.725.57 1.166.143 1.142.415 3.319.415 3.319" fill="none" stroke="#2d2214" stroke-linejoin="miter" stroke-miterlimit="2" stroke-width="2"/></g><path d="m14.311 6c-5.246 0-9.601 4.054-9.974 9.288-.054.755-.105 1.47-.151 2.105-.12 1.681.371 3.35 1.382 4.698.713.95 1.566 2.087 2.332 3.109 1.322 1.763 3.397 2.8 5.6 2.8h5c2.203 0 4.278-1.037 5.6-2.8.766-1.022 1.619-2.159 2.332-3.109 1.011-1.348 1.502-3.017 1.382-4.698-.046-.635-.097-1.35-.151-2.105-.373-5.234-4.728-9.288-9.974-9.288-1.118 0-2.26 0-3.378 0z" fill="#906c40"/><g clip-path="url(#c)"><path d="m23 28s0-3.173 0-5.246c0-1.135-.386-2.237-1.096-3.124-.629-.786-1.41-1.762-2.003-2.504-.57-.712-1.432-1.126-2.343-1.126-.944 0-2.172 0-3.116 0-.911 0-1.773.414-2.343 1.126-.593.742-1.374 1.718-2.003 2.504-.71.887-1.096 1.989-1.096 3.124v5.246z" fill="#aa804c"/></g><path d="m17.798 24.34.043.021.039.017.041.017.04.015.041.014.042.013.041.012.043.011.042.009.043.008.042.007.043.006.044.004.043.003.043.002.048.001h1.524l.039.002.039.004.039.008.038.01.036.014.036.016.034.02.033.021.031.025.029.026.026.029.025.031.021.033.02.034.016.036.014.036.01.038.008.039.004.039.002.039-.002.039-.004.039-.008.039-.01.038-.014.036-.016.036-.02.034-.021.033-.025.031-.026.029-.029.026-.031.025-.033.021-.034.02-.036.016-.036.014-.038.01-.039.008-.039.004-.039.002h-1.531l-.07-.001-.072-.003-.072-.005-.072-.008-.072-.009-.072-.012-.071-.013-.07-.016-.07-.017-.07-.02-.069-.022-.068-.023-.068-.026-.067-.028-.066-.029-.063-.03-1.357-.679-1.357.679-.063.03-.066.029-.067.028-.068.026-.068.023-.069.022-.07.02-.07.017-.07.016-.071.013-.072.012-.072.009-.072.008-.072.005-.072.003-.07.001h-1.531l-.039-.002-.039-.004-.039-.008-.038-.01-.036-.014-.036-.016-.034-.02-.033-.021-.031-.025-.029-.026-.026-.029-.025-.031-.021-.033-.02-.034-.016-.036-.014-.036-.01-.038-.008-.039-.004-.039-.002-.039.002-.039.004-.039.008-.039.01-.038.014-.036.016-.036.02-.034.021-.033.025-.031.026-.029.029-.026.031-.025.033-.021.034-.02.036-.016.036-.014.038-.01.039-.008.039-.004.039-.002h1.524l.048-.001.043-.002.043-.003.044-.004.043-.006.042-.007.043-.008.042-.009.043-.011.041-.012.042-.013.041-.014.04-.015.041-.017.039-.017.043-.021 1.798-.899z" fill="#47351f"/><path d="m14.934 19c-.513 0-1.005.204-1.368.566-.362.363-.566.855-.566 1.368v.001c0 .043.01.085.029.123.101.202.445.889.695 1.389.169.339.515.553.894.553h2.764c.379 0 .725-.214.894-.553.25-.5.594-1.187.695-1.389.019-.038.029-.08.029-.123v-.001c0-.513-.204-1.005-.566-1.368-.363-.362-.855-.566-1.368-.566-.682 0-1.45 0-2.132 0z"/><path d="m13 15.235c0-.682-.553-1.235-1.235-1.235-.395 0-.816 0-1.147 0-.379 0-.725.214-.894.552-.086.172-.183.366-.277.554-.247.494-.047 1.094.447 1.341.228.114.464.232.659.33.281.14.613.14.894 0 .256-.128.583-.292.87-.436.419-.209.683-.636.683-1.104 0-.001 0-.002 0-.002z"/><path d="m19 15.235c0-.682.553-1.235 1.235-1.235h1.147c.379 0 .725.214.894.552.086.172.183.366.277.554.247.494.047 1.094-.447 1.341-.228.114-.464.232-.659.33-.281.14-.613.14-.894 0-.256-.128-.583-.292-.87-.436-.419-.209-.683-.636-.683-1.104 0-.001 0-.002 0-.002z"/></svg>