<svg clip-rule="evenodd" fill-rule="evenodd" stroke-linecap="round" stroke-linejoin="round" stroke-miterlimit="1.5" viewBox="0 0 32 32" xmlns="http://www.w3.org/2000/svg" xmlns:xlink="http://www.w3.org/1999/xlink"><clipPath id="a"><path clip-rule="evenodd" d="m0 0h32v32h-32z"/></clipPath><clipPath id="b"><path clip-rule="evenodd" d="m16 25.19s-4.763-4.763-8.411-8.41c-1.086-1.087-1.696-2.56-1.696-4.096s.61-3.009 1.696-4.096c.001 0 .001 0 .002-.001 2.086-2.086 5.468-2.086 7.554 0 .506.506.855.855.855.855s.349-.349.855-.855c2.086-2.086 5.468-2.086 7.554 0 .001.001.001.001.002.001 1.086 1.087 1.696 2.56 1.696 4.096s-.61 3.009-1.696 4.096c-3.648 3.647-8.411 8.41-8.411 8.41z"/></clipPath><metadata/><path d="m0 0h32v32h-32z" fill="none"/><g clip-path="url(#a)"><g fill="none"><path d="m16 26s-5.293-5.293-9.25-9.25c-2.347-2.347-2.347-6.153 0-8.5 2.347-2.347 6.153-2.347 8.5 0 .451.451.75.75.75.75s.299-.299.75-.75c2.347-2.347 6.153-2.347 8.5 0 2.347 2.347 2.347 6.153 0 8.5-3.957 3.957-9.25 9.25-9.25 9.25z" stroke="#000" stroke-width="4"/><path d="m27 7c3.038 3.038 3.038 7.962 0 11" stroke="#000" stroke-width="5.5"/><path d="m5 7c-3.038 3.038-3.038 7.962 0 11" stroke="#000" stroke-width="5.5"/></g><path d="m16 25.19s-4.763-4.763-8.411-8.41c-1.086-1.087-1.696-2.56-1.696-4.096s.61-3.009 1.696-4.096c.001 0 .001 0 .002-.001 2.086-2.086 5.468-2.086 7.554 0 .506.506.855.855.855.855s.349-.349.855-.855c2.086-2.086 5.468-2.086 7.554 0 .001.001.001.001.002.001 1.086 1.087 1.696 2.56 1.696 4.096s-.61 3.009-1.696 4.096c-3.648 3.647-8.411 8.41-8.411 8.41z" fill="#ff4586"/><g clip-path="url(#b)"><path d="m23 1v3.858c0 2.652-1.054 5.196-2.929 7.071-1.208 1.208-2.589 2.589-3.728 3.728-1.5 1.5-2.343 3.535-2.343 5.657v5.686h-12v-26z" fill="#ff8fb6"/></g><path d="m11.072 6.49.072.001.072.002.072.003.072.004.072.005.072.005.072.007.072.007.072.008.071.009.072.01.071.011.072.012.071.012.071.013.071.015.071.015.07.016.071.016.07.018.07.018.07.02.07.02.07.021.069.022.069.023.069.023.069.025.068.025.069.026.068.027.067.028.068.029.067.03.067.03.066.032.066.032.066.033.066.034.065.035.065.036.065.036.064.037.064.039.063.039.063.04.063.041.062.041.062.043.062.043.061.044.06.046.06.046.06.046.059.048.059.049.058.049.058.05.057.052.057.052.057.052.055.054.056.055.75.75.75-.75.056-.055.055-.054.057-.052.057-.052.057-.052.058-.05.058-.049.059-.049.059-.048.06-.046.06-.046.06-.046.061-.044.062-.043.062-.043.062-.041.063-.041.063-.04.063-.039.064-.039.064-.037.065-.036.065-.036.065-.035.066-.034.066-.033.066-.032.066-.032.067-.03.067-.03.068-.029.067-.028.068-.027.069-.026.068-.025.069-.025.069-.023.069-.023.069-.022.07-.021.07-.02.07-.02.07-.018.07-.018.071-.016.07-.016.071-.015.071-.015.071-.013.071-.012.072-.012.071-.011.072-.01.071-.009.072-.008.072-.007.072-.007.072-.005.072-.005.072-.004.072-.003.072-.002.072-.001.072-.001.072.001.072.001.072.002.072.003.072.004.072.005.072.005.072.007.072.007.072.008.071.009.072.01.071.011.072.012.071.012.071.013.071.015.071.015.07.016.071.016.07.018.07.018.07.02.07.02.07.021.069.022.069.023.069.023.069.025.068.025.069.026.068.027.067.028.068.029.067.03.067.03.066.032.066.032.066.033.066.034.065.035.065.036.065.036.064.037.064.039.063.039.063.04.063.041.062.041.062.043.062.043.061.044.06.046.06.046.06.046.059.048.059.049.058.049.058.05.057.052.057.052.057.052.055.054.056.055.055.056.054.055.052.057.052.057.052.057.05.058.049.058.049.059.048.059.046.06.046.06.046.06.044.061.043.062.043.062.041.062.041.063.04.063.039.063.039.064.037.064.036.065.036.065.035.065.034.066.033.066.032.066.032.066.03.067.03.067.029.068.028.067.027.068.026.069.025.068.025.069.023.069.023.069.022.069.021.07.02.07.02.07.018.07.018.07.016.071.016.07.015.071.015.071.013.071.012.071.012.072.011.071.01.072.009.071.008.072.007.072.007.072.005.072.005.072.004.072.003.072.002.072.001.072.001.072-.001.072-.001.072-.002.072-.003.072-.004.072-.005.072-.005.072-.007.072-.007.072-.008.072-.009.071-.01.072-.011.071-.012.072-.012.071-.013.071-.015.071-.015.071-.016.07-.016.071-.018.07-.018.07-.02.07-.02.07-.021.07-.022.069-.023.069-.023.069-.025.069-.025.068-.026.069-.027.068-.028.067-.029.068-.03.067-.03.067-.032.066-.032.066-.033.066-.034.066-.035.065-.036.065-.036.065-.037.064-.039.064-.039.063-.04.063-.041.063-.041.062-.043.062-.043.062-.044.061-.046.06-.046.06-.046.06-.048.059-.049.059-.049.058-.05.058-.052.057-.052.057-.052.057-.054.055-.055.056-9.25 9.25-9.25-9.25-.055-.056-.054-.055-.052-.057-.052-.057-.052-.057-.05-.058-.049-.058-.049-.059-.048-.059-.046-.06-.046-.06-.046-.06-.044-.061-.043-.062-.043-.062-.041-.062-.041-.063-.04-.063-.039-.063-.039-.064-.037-.064-.036-.065-.036-.065-.035-.065-.034-.066-.033-.066-.032-.066-.032-.066-.03-.067-.03-.067-.029-.068-.028-.067-.027-.068-.026-.069-.025-.068-.025-.069-.023-.069-.023-.069-.022-.069-.021-.07-.02-.07-.02-.07-.018-.07-.018-.07-.016-.071-.016-.07-.015-.071-.015-.071-.013-.071-.012-.071-.012-.072-.011-.071-.01-.072-.009-.071-.008-.072-.007-.072-.007-.072-.005-.072-.005-.072-.004-.072-.003-.072-.002-.072-.001-.072-.001-.072.001-.072.001-.072.002-.072.003-.072.004-.072.005-.072.005-.072.007-.072.007-.072.008-.072.009-.071.01-.072.011-.071.012-.072.012-.071.013-.071.015-.071.015-.071.016-.07.016-.071.018-.07.018-.07.02-.07.02-.07.021-.07.022-.069.023-.069.023-.069.025-.069.025-.068.026-.069.027-.068.028-.067.029-.068.03-.067.03-.067.032-.066.032-.066.033-.066.034-.066.035-.065.036-.065.036-.065.037-.064.039-.064.039-.063.04-.063.041-.063.041-.062.043-.062.043-.062.044-.061.046-.06.046-.06.046-.06.048-.059.049-.059.049-.058.05-.058.052-.057.052-.057.052-.057.054-.055.055-.056.056-.055.055-.054.057-.052.057-.052.057-.052.058-.05.058-.049.059-.049.059-.048.06-.046.06-.046.06-.046.061-.044.062-.043.062-.043.062-.041.063-.041.063-.04.063-.039.064-.039.064-.037.065-.036.065-.036.065-.035.066-.034.066-.033.066-.032.066-.032.067-.03.067-.03.068-.029.067-.028.068-.027.069-.026.068-.025.069-.025.069-.023.069-.023.069-.022.07-.021.07-.02.07-.02.07-.018.07-.018.071-.016.07-.016.071-.015.071-.015.071-.013.071-.012.072-.012.071-.011.072-.01.071-.009.072-.008.072-.007.072-.007.072-.005.072-.005.072-.004.072-.003.072-.002.072-.001.072-.001.072.001zm9.88 2-.048.001-.049.001-.048.002-.048.003-.048.003-.048.004-.048.004-.049.005-.047.005-.048.006-.048.007-.048.007-.048.008-.047.008-.048.009-.047.009-.047.011-.048.01-.046.011-.048.012-.046.012-.047.013-.046.014-.047.014-.046.014-.046.016-.046.015-.046.017-.045.016-.046.018-.045.018-.045.018-.045.02-.045.019-.044.021-.044.02-.044.022-.044.022-.044.023-.043.023-.043.023-.043.025-.043.024-.042.026-.042.026-.042.026-.042.028-.041.027-.042.029-.04.029-.041.029-.04.03-.041.031-.04.031-.039.032-.039.033-.039.033-.039.033-.039.035-.038.035-.038.035-.037.036-.042.042-2.16 2.159-2.16-2.16-.042-.041-.037-.036-.038-.036-.038-.035-.039-.034-.039-.033-.038-.033-.04-.033-.039-.032-.04-.031-.041-.031-.04-.03-.041-.029-.041-.029-.041-.029-.041-.027-.042-.028-.042-.026-.042-.026-.042-.026-.043-.024-.043-.025-.043-.023-.043-.023-.044-.023-.044-.022-.044-.021-.044-.021-.044-.021-.045-.019-.045-.02-.045-.018-.045-.018-.046-.017-.045-.017-.046-.017-.046-.015-.046-.016-.046-.014-.047-.014-.046-.014-.047-.013-.046-.012-.047-.012-.047-.011-.048-.01-.047-.011-.047-.009-.048-.009-.047-.008-.048-.008-.048-.007-.048-.007-.048-.006-.047-.005-.049-.005-.048-.004-.048-.004-.048-.003-.048-.003-.048-.002-.049-.001-.048-.001-.048-.001-.048.001-.048.001-.049.001-.048.002-.048.003-.048.003-.048.004-.048.004-.049.005-.047.005-.048.006-.048.007-.048.007-.048.008-.047.008-.048.009-.047.009-.047.011-.048.01-.047.011-.047.012-.046.012-.047.013-.046.014-.047.014-.046.014-.046.016-.046.015-.046.017-.045.017-.046.017-.045.018-.045.018-.045.02-.045.019-.044.021-.044.021-.044.021-.044.022-.044.022-.043.024-.043.023-.043.025-.043.024-.042.026-.042.026-.042.026-.042.028-.041.027-.041.029-.041.029-.041.029-.04.03-.041.031-.04.031-.039.032-.039.033-.039.033-.039.033-.039.034-.038.035-.038.036-.037.036-.037.036.008-.008-.046.047-.036.037-.035.038-.036.038-.034.039-.033.038-.034.04-.032.039-.032.04-.031.039-.031.04-.03.041-.029.041-.029.04-.029.042-.027.041-.028.042-.026.042-.026.042-.025.042-.025.043-.025.043-.023.043-.023.043-.023.044-.022.044-.021.044-.021.044-.021.045-.019.044-.02.045-.018.045-.018.045-.018.046-.016.045-.017.046-.015.046-.016.046-.014.046-.014.046-.014.047-.013.047-.012.046-.012.047-.011.048-.011.047-.009.047-.01.047-.009.048-.008.048-.008.047-.007.048-.007.047-.006.049-.005.048-.005.047-.004.049-.004.048-.003.047-.003.049-.002.048-.001.049-.001.048-.001.048.001.048.001.048.001.049.002.048.003.049.003.047.004.048.004.049.005.047.005.048.006.049.007.047.007.048.008.048.008.047.009.048.01.047.009.047.011.047.011.048.012.047.012.046.013.047.014.047.014.046.014.046.016.046.015.046.017.046.016.045.018.046.018.045.018.045.02.045.019.044.021.045.021.044.021.044.022.044.023.044.023.043.023.043.025.043.025.043.025.042.026.042.026.042.028.042.027.041.029.042.029.04.029.041.03.041.031.04.031.04.032.039.032.039.034.04.033.038.034.039.036.038.035.038.036.037.041.042 7.832 7.832 7.832-7.832.041-.042.036-.037.036-.038.035-.038.034-.039.033-.039.034-.039.032-.039.032-.04.031-.039.031-.04.03-.041.029-.041.029-.04.029-.042.027-.041.027-.042.027-.042.026-.042.026-.043.024-.042.025-.043.024-.043.022-.043.023-.044.022-.044.022-.044.02-.044.02-.044.02-.045.02-.045.018-.045.018-.045.018-.046.016-.045.017-.046.015-.046.016-.046.014-.046.014-.046.014-.047.013-.047.012-.047.012-.046.011-.047.01-.047.01-.048.01-.047.009-.048.008-.048.008-.047.007-.048.007-.048.006-.048.005-.047.005-.049.004-.048.004-.047.003-.049.003-.048.002-.048.001-.049.001-.048.001-.048-.001-.048-.001-.048-.001-.049-.002-.048-.003-.048-.003-.049-.004-.047-.004-.048-.005-.049-.005-.047-.006-.048-.007-.048-.007-.048-.008-.047-.008-.048-.009-.048-.01-.047-.01-.048-.01-.047-.011-.047-.012-.047-.012-.046-.013-.047-.014-.047-.014-.046-.014-.046-.016-.047-.015-.045-.017-.046-.016-.045-.018-.046-.018-.045-.018-.045-.02-.045-.02-.045-.02-.044-.02-.044-.022-.044-.022-.044-.023-.044-.022-.043-.024-.043-.025-.043-.024-.042-.026-.043-.026-.042-.027-.042-.027-.042-.027-.041-.029-.042-.029-.04-.029-.041-.03-.041-.031-.04-.031-.039-.032-.04-.032-.039-.034-.039-.033-.039-.034-.039-.035-.038-.036-.038-.036-.037-.047-.047.009.008-.037-.036-.037-.036-.038-.036-.038-.034-.039-.035-.039-.033-.039-.033-.039-.033-.039-.032-.04-.031-.04-.031-.041-.03-.041-.029-.041-.029-.041-.029-.041-.027-.042-.028-.042-.026-.042-.026-.042-.026-.043-.024-.043-.025-.043-.023-.044-.024-.043-.022-.044-.022-.044-.021-.044-.021-.045-.021-.044-.019-.045-.019-.045-.019-.045-.018-.046-.018-.045-.016-.046-.017-.046-.015-.046-.016-.046-.014-.046-.014-.047-.014-.047-.013-.047-.012-.046-.012-.047-.011-.048-.01-.047-.011-.047-.009-.048-.009-.047-.008-.048-.008-.048-.007-.048-.007-.047-.006-.048-.005-.049-.005-.048-.004-.048-.004-.048-.003-.048-.003-.048-.002-.049-.001-.048-.001-.048-.001z" fill="#ff4586"/><path d="m27 7c3.038 3.038 3.038 7.962 0 11" fill="none" stroke="#ae0b6d" stroke-width="1.5"/><path d="m5 7c-3.038 3.038-3.038 7.962 0 11" fill="none" stroke="#ae0b6d" stroke-width="1.5"/></g></svg>