<svg clip-rule="evenodd" fill-rule="evenodd" stroke-linecap="round" stroke-linejoin="round" stroke-miterlimit="1.5" viewBox="0 0 32 32" xmlns="http://www.w3.org/2000/svg" xmlns:xlink="http://www.w3.org/1999/xlink"><clipPath id="a"><path clip-rule="evenodd" d="m0 0h32v32h-32z"/></clipPath><clipPath id="b"><path clip-rule="evenodd" d="m15 12h11v3h2c.53 0 1.039.211 1.414.586s.586.884.586 1.414v7c0 .53-.211 1.039-.586 1.414s-.884.586-1.414.586h-1.977c.015.121.037.24.067.358.133.535.392 1.57.599 2.399.075.299.008.616-.182.858-.189.243-.48.385-.788.385-2.488 0-7.95 0-10.438 0-.308 0-.599-.142-.788-.385-.19-.242-.257-.559-.182-.858.207-.829.466-1.864.599-2.399.06-.238.09-.482.09-.727zm11 12h2v-7h-2z"/></clipPath><metadata/><path d="m0 0h32v32h-32z" fill="none"/><g clip-path="url(#a)"><g fill="none"><path d="m18 6v-3" stroke="#000" stroke-width="6"/><path d="m22 7 2-2" stroke="#000" stroke-width="6"/><path d="m13 7-2-2" stroke="#000" stroke-width="6"/><path d="m17 12h9v3h2c.53 0 1.039.211 1.414.586s.586.884.586 1.414v7c0 .53-.211 1.039-.586 1.414s-.884.586-1.414.586h-1.977c.015.121.037.24.067.358.133.535.392 1.57.599 2.399.075.299.008.616-.182.858-.189.243-.48.385-.788.385-2.488 0-7.95 0-10.438 0-.308 0-.599-.142-.788-.385-.19-.242-.257-.559-.182-.858l.439-1.757h-8.469c-.308 0-.599-.142-.788-.385-.19-.242-.257-.559-.182-.858.207-.829.466-1.864.599-2.399.03-.118.052-.237.067-.358h-1.977c-.53 0-1.039-.211-1.414-.586s-.586-.884-.586-1.414c0-1.986 0-5.014 0-7 0-.53.211-1.039.586-1.414s.884-.586 1.414-.586h2v-3h11zm11 5h-2v7h2zm-22-3h-2v7h2z" stroke="#000" stroke-linecap="square" stroke-width="4"/></g><path d="m17 7h5v5h-5z"/><path d="m15 12h11v3h2c.53 0 1.039.211 1.414.586s.586.884.586 1.414v7c0 .53-.211 1.039-.586 1.414s-.884.586-1.414.586h-1.977c.015.121.037.24.067.358.133.535.392 1.57.599 2.399.075.299.008.616-.182.858-.189.243-.48.385-.788.385-2.488 0-7.95 0-10.438 0-.308 0-.599-.142-.788-.385-.19-.242-.257-.559-.182-.858.207-.829.466-1.864.599-2.399.06-.238.09-.482.09-.727zm11 12h2v-7h-2z" fill="#cfcfcf"/><g clip-path="url(#b)"><path d="m16 15 1-1h7l1 1v3l-1 1h-7l-1-1z" fill="#ce9002"/><path d="m16 18h9v7s-.09.09-.233.233c-1.131 1.131-2.666 1.767-4.266 1.767-.001 0-.001 0-.002 0-1.6 0-3.135-.636-4.266-1.767-.143-.143-.233-.233-.233-.233z" fill="#fdb203"/><path d="m16 12h9v3h-9z" fill="#fff"/><path d="m22 13.999c0-.552.447-.999.999-.999h.001c.265 0 .52.105.707.293.188.187.293.442.293.707v7c0 .265-.105.52-.293.707-.187.188-.442.293-.707.293h-.001c-.552 0-.999-.447-.999-.999 0-1.732 0-5.27 0-7.002z" fill="#fff" fill-opacity=".603922"/><path d="m6 9h11v13.631c0 .245.03.489.09.727.133.535.392 1.57.599 2.399.075.299.008.616-.182.858-.189.243-.48.385-.788.385-2.488 0-7.95 0-10.438 0-.308 0-.599-.142-.788-.385-.19-.242-.257-.559-.182-.858.207-.829.466-1.864.599-2.399.06-.238.09-.482.09-.727 0-2.214 0-13.631 0-13.631z" fill="none" stroke="#000" stroke-linecap="square" stroke-opacity=".588235" stroke-width="4"/></g><path d="m6 12v-3h11v13.631c0 .245.03.489.09.727.133.535.392 1.57.599 2.399.075.299.008.616-.182.858-.189.243-.48.385-.788.385-2.488 0-7.95 0-10.438 0-.308 0-.599-.142-.788-.385-.19-.242-.257-.559-.182-.858.207-.829.466-1.864.599-2.399.03-.118.052-.237.067-.358h-1.977c-.53 0-1.039-.211-1.414-.586s-.586-.884-.586-1.414c0-1.986 0-5.014 0-7 0-.53.211-1.039.586-1.414s.884-.586 1.414-.586zm0 9v-7h-2v7z" fill="#ccc"/><path d="m7 12 1-1h7l1 1v3l-1 1h-7l-1-1z" fill="#ce9002"/><path d="m7 15h9v7s-.09.09-.233.233c-1.131 1.131-2.666 1.767-4.266 1.767-.001 0-.001 0-.002 0-1.6 0-3.135-.636-4.266-1.767-.143-.143-.233-.233-.233-.233z" fill="#fdb203"/><path d="m7 9h9v3h-9z" fill="#fff"/><path d="m13 10.999c0-.552.447-.999.999-.999h.001c.265 0 .52.105.707.293.188.187.293.442.293.707v7c0 .265-.105.52-.293.707-.187.188-.442.293-.707.293h-.001c-.552 0-.999-.447-.999-.999 0-1.732 0-5.27 0-7.002z" fill="#fff" fill-opacity=".603922"/><path d="m18 6v-3" fill="none" stroke="#fff" stroke-width="2"/><path d="m22 7 2-2" fill="none" stroke="#fff" stroke-width="2"/><path d="m13 7-2-2" fill="none" stroke="#fff" stroke-width="2"/></g></svg>