<svg clip-rule="evenodd" fill-rule="evenodd" stroke-linecap="round" stroke-linejoin="round" stroke-miterlimit="10" viewBox="0 0 32 32" xmlns="http://www.w3.org/2000/svg" xmlns:xlink="http://www.w3.org/1999/xlink"><clipPath id="a"><path clip-rule="evenodd" d="m0 0h32v32h-32z"/></clipPath><clipPath id="b"><path clip-rule="evenodd" d="m21 5h-13.999v17l1.999 1 5 1 5-1 2-1z"/></clipPath><clipPath id="c"><path clip-rule="evenodd" d="m6.001 21h15.999v6h-15.999z"/></clipPath><clipPath id="d"><path clip-rule="evenodd" d="m5 5h18v21.5c0 1.932-4.033 3.5-9 3.5s-9-1.568-9-3.5z"/></clipPath><metadata/><path d="m0 0h32v32h-32z" fill="none"/><g clip-path="url(#a)"><path d="m6.005 5c.151-1.666 3.675-3 7.995-3s7.844 1.334 7.995 3h.006v3h3.999c1.105 0 2 .895 2 2v8c0 1.105-.895 2-2 2h-3.87l.779 6c.06.163.091.33.091.5 0 1.932-4.033 3.5-9 3.5s-9-1.568-9-3.5c0-.17.031-.337.091-.5h-.091l1-6.965v-14.035zm15.996 13h3.999v-8h-3.999z" fill="none" stroke="#000" stroke-width="4"/><path d="m20 9h7v10h-7z"/><path d="m5.013 26.313.988-7.282v-14.031h15.999v3h4c1.105 0 2 .895 2 2v8c0 1.105-.895 2-2 2h-3.864l.851 6.314.002.009c.007.059.011.118.011.177 0 1.932-4.033 3.5-9 3.5s-9-1.568-9-3.5c0-.059.004-.118.011-.177l.001-.001v-.002zm16.987-8.313h4v-8h-4z" fill="#ccc"/><path d="m21 5h-13.999v17l1.999 1 5 1 5-1 2-1z" fill="none"/><g clip-path="url(#b)"><path d="m7 12.722h14v11.278h-14z" fill="#fdb203"/><path d="m7 8.722h14v4c0 1.503-3.137 2.722-7 2.722s-7-1.219-7-2.722z" fill="#ce9002"/><path d="m7 4.722h14v4c0 1.503-3.137 2.722-7 2.722s-7-1.219-7-2.722z" fill="#fff"/></g><ellipse cx="14" cy="5.111" fill="#fff" rx="7.26" ry="2.388"/><path d="m6.001 21h15.999v6h-15.999z" fill="none"/><g clip-path="url(#c)"><path d="m14.206 18.001.205.003.204.005.202.007.201.009.2.011.197.013.196.014.195.017.192.018.191.02.189.022.187.024.184.025.183.027.181.029.178.03.176.032.174.034.171.035.169.036.166.039.164.039.161.042.158.042.155.044.153.046.15.047.146.048.144.05.14.05.138.053.134.053.131.055.127.056.124.057.121.058.117.059.113.061.11.061.106.063.102.063.098.065.048.033.047.033.046.033.044.033.044.034.043.034.041.034.041.034.039.035.039.035.037.035.037.035.035.035.034.036.033.036.032.036.031.036.03.036.029.037.027.037.027.037.025.037.024.037.023.038.022.038.02.037.02.038.018.039.017.038.016.039.014.038.014.039.012.039.011.039.009.039.009.04.007.039.006.04.004.04.003.04.002.04.001.04-.001.04-.002.04-.003.04-.004.04-.006.04-.007.039-.009.04-.009.039-.011.039-.012.039-.014.039-.014.039-.016.038-.017.039-.018.038-.02.038-.02.038-.022.037-.023.038-.024.037-.025.037-.027.037-.027.037-.029.037-.03.036-.031.036-.032.037-.033.035-.034.036-.035.035-.037.036-.037.035-.039.034-.039.035-.041.034-.041.034-.043.034-.044.034-.044.033-.046.034-.047.032-.048.033-.098.065-.102.063-.106.063-.11.062-.113.06-.117.059-.121.059-.124.057-.127.055-.131.055-.134.054-.138.052-.14.051-.144.049-.146.048-.15.047-.153.046-.155.044-.158.043-.161.041-.164.04-.166.038-.169.036-.171.036-.174.033-.176.032-.178.031-.181.028-.183.027-.184.026-.187.023-.189.022-.191.02-.192.018-.195.017-.196.015-.197.012-.2.011-.201.009-.202.007-.204.005-.205.003-.206.001-.206-.001-.205-.003-.204-.005-.202-.007-.201-.009-.2-.011-.197-.012-.196-.015-.195-.017-.192-.018-.191-.02-.189-.022-.187-.023-.184-.026-.183-.027-.181-.028-.178-.031-.176-.032-.174-.033-.171-.036-.169-.036-.166-.038-.164-.04-.161-.041-.158-.043-.155-.044-.153-.046-.15-.047-.146-.048-.144-.049-.14-.051-.138-.052-.134-.054-.131-.055-.127-.055-.124-.057-.121-.059-.117-.059-.113-.06-.11-.062-.106-.063-.102-.063-.098-.065-.048-.033-.047-.032-.046-.034-.044-.033-.044-.034-.043-.034-.041-.034-.041-.034-.039-.035-.039-.034-.037-.035-.037-.036-.035-.035-.034-.036-.033-.035-.032-.037-.031-.036-.03-.036-.029-.037-.027-.037-.027-.037-.025-.037-.024-.037-.023-.038-.022-.037-.02-.038-.02-.038-.018-.038-.017-.039-.016-.038-.014-.039-.014-.039-.012-.039-.011-.039-.009-.039-.009-.04-.007-.039-.006-.04-.004-.04-.003-.04-.002-.04-.001-.04.001-.04.002-.04.003-.04.004-.04.006-.04.007-.039.009-.04.009-.039.011-.039.012-.039.014-.039.014-.038.016-.039.017-.038.018-.039.02-.038.02-.037.022-.038.023-.038.024-.037.025-.037.027-.037.027-.037.029-.037.03-.036.031-.036.032-.036.033-.036.034-.036.035-.035.037-.035.037-.035.039-.035.039-.035.041-.034.041-.034.043-.034.044-.034.044-.033.046-.033.047-.033.048-.033.098-.065.102-.063.106-.063.11-.061.113-.061.117-.059.121-.058.124-.057.127-.056.131-.055.134-.053.138-.053.14-.05.144-.05.146-.048.15-.047.153-.046.155-.044.158-.042.161-.042.164-.039.166-.039.169-.036.171-.035.174-.034.176-.032.178-.03.181-.029.183-.027.184-.025.187-.024.189-.022.191-.02.192-.018.195-.017.196-.014.197-.013.2-.011.201-.009.202-.007.204-.005.205-.003.206-.001zm-.402 1-.196.003-.194.005-.192.006-.191.009-.189.01-.188.012-.186.014-.184.016-.183.017-.18.019-.179.021-.176.022-.174.024-.172.025-.17.027-.168.029-.165.03-.162.031-.16.033-.157.034-.155.036-.152.037-.148.038-.146.039-.143.041-.139.041-.137.043-.133.044-.129.044-.127.046-.122.047-.119.047-.115.048-.112.049-.107.049-.103.05-.099.05-.095.051-.091.051-.086.051-.082.051-.08.052-.034.024-.036.025-.034.025-.034.025-.032.025-.031.024-.029.025-.029.024-.027.023-.026.024-.025.023-.024.023-.022.022-.021.023-.02.021-.019.021-.018.021-.016.02-.016.02-.014.019-.013.018-.012.018-.011.017-.01.017-.009.015-.008.015-.008.015-.006.013-.006.013-.005.013-.004.011-.004.011-.003.01-.003.01-.002.009-.002.009-.002.009-.001.008-.001.007v.008l-.001.007v.008.008l.001.007v.008l.001.008.001.008.002.008.002.009.002.009.003.01.003.01.004.011.004.012.005.012.006.013.006.013.008.015.008.015.009.015.01.017.011.017.012.018.013.018.014.019.016.02.016.02.018.021.019.021.02.022.021.022.022.022.024.023.025.023.026.024.027.024.029.024.029.024.031.025.032.024.034.025.034.025.036.025.034.024.08.052.082.051.086.051.091.051.095.051.099.05.103.05.107.049.112.049.115.048.119.048.122.046.126.046.13.045.133.043.137.043.139.042.143.04.146.039.148.039.152.036.155.036.157.034.16.033.162.031.165.03.168.029.17.027.172.025.174.024.176.022.179.021.18.019.183.018.184.015.186.014.188.012.189.01.191.009.192.007.194.004.196.003.196.001.196-.001.196-.003.194-.004.192-.007.191-.009.189-.01.188-.012.186-.014.184-.015.183-.018.18-.019.179-.021.176-.022.174-.024.172-.025.17-.027.168-.029.165-.03.162-.031.16-.033.157-.034.155-.036.152-.036.148-.039.146-.039.143-.04.139-.042.137-.043.133-.043.13-.045.126-.046.122-.046.119-.048.115-.048.112-.049.107-.049.103-.05.099-.05.095-.051.091-.051.086-.051.082-.051.08-.052.034-.024.036-.025.034-.025.034-.025.032-.024.031-.025.029-.024.029-.024.027-.024.026-.024.025-.023.024-.023.022-.022.021-.022.02-.022.019-.021.018-.021.016-.02.016-.02.014-.019.013-.018.012-.018.011-.017.01-.016.009-.016.009-.015.007-.015.006-.013.006-.013.005-.012.004-.012.004-.011.003-.01.003-.01.002-.009.002-.009.002-.008.001-.008.001-.008v-.008l.001-.007v-.008-.007l-.001-.008v-.008l-.001-.007-.001-.009-.002-.008-.002-.009-.002-.009-.003-.009-.003-.011-.004-.011-.004-.011-.005-.013-.006-.013-.006-.013-.007-.014-.009-.016-.009-.015-.01-.017-.011-.017-.012-.018-.013-.018-.014-.019-.016-.02-.016-.02-.018-.021-.019-.021-.02-.021-.021-.023-.022-.022-.024-.023-.025-.023-.026-.024-.027-.023-.028-.024-.03-.025-.031-.024-.032-.025-.034-.025-.034-.025-.036-.025-.034-.024-.08-.052-.082-.051-.086-.051-.091-.051-.095-.051-.099-.05-.103-.05-.107-.049-.112-.049-.115-.048-.119-.047-.122-.047-.127-.046-.129-.044-.133-.044-.137-.043-.139-.041-.143-.041-.146-.039-.148-.038-.152-.037-.155-.036-.157-.034-.16-.033-.162-.031-.165-.03-.168-.029-.17-.027-.172-.025-.174-.024-.176-.022-.179-.021-.18-.019-.183-.017-.184-.016-.186-.014-.188-.012-.189-.01-.191-.009-.192-.006-.194-.005-.196-.003-.196-.001z" fill="#ccc"/></g><path d="m5 5h18v21.5c0 1.932-4.033 3.5-9 3.5s-9-1.568-9-3.5z" fill="none"/><g clip-path="url(#d)"><path d="m12 8-2-1h-2v12.29c0 .14-.007.28-.022.419-.147 1.393-.978 9.291-.978 9.291l4 2s.847-8.894.982-10.311c.012-.126.018-.252.018-.379 0-1.568 0-12.31 0-12.31z" fill="#fff" fill-opacity=".34902"/></g><path d="m14.206 2.001.205.003.204.005.202.007.201.009.2.011.197.013.196.014.195.017.192.018.191.02.189.022.187.024.184.025.183.027.181.029.178.03.176.032.174.034.171.035.169.036.166.039.164.039.161.042.158.042.155.044.153.046.15.047.146.048.144.05.14.05.138.053.134.053.131.055.127.056.124.057.121.058.117.059.113.061.11.061.106.063.102.063.098.065.048.033.047.033.046.033.044.033.044.034.043.034.041.034.041.034.039.035.039.035.037.035.037.035.035.035.034.036.033.036.032.036.031.036.03.036.029.037.027.037.027.037.025.037.024.037.023.038.022.038.02.037.02.038.018.039.017.038.016.039.014.038.014.039.012.039.011.039.009.039.009.04.007.039.006.04.004.04.003.04.002.04.001.04-.001.04-.002.04-.003.04-.004.04-.006.04-.007.039-.009.04-.009.039-.011.039-.012.039-.014.039-.014.039-.016.038-.017.039-.018.038-.02.038-.02.038-.022.037-.023.038-.024.037-.025.037-.027.037-.027.037-.029.037-.03.036-.031.036-.032.037-.033.035-.034.036-.035.035-.037.036-.037.035-.039.034-.039.035-.041.034-.041.034-.043.034-.044.034-.044.033-.046.034-.047.032-.048.033-.098.065-.102.063-.106.063-.11.062-.113.06-.117.059-.121.059-.124.057-.127.055-.131.055-.134.054-.138.052-.14.051-.144.049-.146.048-.15.047-.153.046-.155.044-.158.043-.161.041-.164.04-.166.038-.169.036-.171.036-.174.033-.176.032-.178.031-.181.028-.183.027-.184.026-.187.023-.189.022-.191.02-.192.018-.195.017-.196.015-.197.012-.2.011-.201.009-.202.007-.204.005-.205.003-.206.001-.206-.001-.205-.003-.204-.005-.202-.007-.201-.009-.2-.011-.197-.012-.196-.015-.195-.017-.192-.018-.191-.02-.189-.022-.187-.023-.184-.026-.183-.027-.181-.028-.178-.031-.176-.032-.174-.033-.171-.036-.169-.036-.166-.038-.164-.04-.161-.041-.158-.043-.155-.044-.153-.046-.15-.047-.146-.048-.144-.049-.14-.051-.138-.052-.134-.054-.131-.055-.127-.055-.124-.057-.121-.059-.117-.059-.113-.06-.11-.062-.106-.063-.102-.063-.098-.065-.048-.033-.047-.032-.046-.034-.044-.033-.044-.034-.043-.034-.041-.034-.041-.034-.039-.035-.039-.034-.037-.035-.037-.036-.035-.035-.034-.036-.033-.035-.032-.037-.031-.036-.03-.036-.029-.037-.027-.037-.027-.037-.025-.037-.024-.037-.023-.038-.022-.037-.02-.038-.02-.038-.018-.038-.017-.039-.016-.038-.014-.039-.014-.039-.012-.039-.011-.039-.009-.039-.009-.04-.007-.039-.006-.04-.004-.04-.003-.04-.002-.04-.001-.04.001-.04.002-.04.003-.04.004-.04.006-.04.007-.039.009-.04.009-.039.011-.039.012-.039.014-.039.014-.038.016-.039.017-.038.018-.039.02-.038.02-.037.022-.038.023-.038.024-.037.025-.037.027-.037.027-.037.029-.037.03-.036.031-.036.032-.036.033-.036.034-.036.035-.035.037-.035.037-.035.039-.035.039-.035.041-.034.041-.034.043-.034.044-.034.044-.033.046-.033.047-.033.048-.033.098-.065.102-.063.106-.063.11-.061.113-.061.117-.059.121-.058.124-.057.127-.056.131-.055.134-.053.138-.053.14-.05.144-.05.146-.048.15-.047.153-.046.155-.044.158-.042.161-.042.164-.039.166-.039.169-.036.171-.035.174-.034.176-.032.178-.03.181-.029.183-.027.184-.025.187-.024.189-.022.191-.02.192-.018.195-.017.196-.014.197-.013.2-.011.201-.009.202-.007.204-.005.205-.003.206-.001zm-.402 1-.196.003-.194.005-.192.006-.191.009-.189.01-.188.012-.186.014-.184.016-.183.017-.18.019-.179.021-.176.022-.174.024-.172.025-.17.027-.168.029-.165.03-.162.031-.16.033-.157.034-.155.036-.152.037-.148.038-.146.039-.143.041-.139.041-.137.043-.133.044-.129.044-.127.046-.122.047-.119.047-.115.048-.112.049-.107.049-.103.05-.099.05-.095.051-.091.051-.086.051-.082.051-.08.052-.034.024-.036.025-.034.025-.034.025-.032.025-.031.024-.029.025-.029.024-.027.023-.026.024-.025.023-.024.023-.022.022-.021.023-.02.021-.019.021-.018.021-.016.02-.016.02-.014.019-.013.018-.012.018-.011.017-.01.017-.009.015-.008.015-.008.015-.006.013-.006.013-.005.013-.004.011-.004.011-.003.01-.003.01-.002.009-.002.009-.002.009-.001.008-.001.007v.008l-.001.007v.008.008l.001.007v.008l.001.008.001.008.002.008.002.009.002.009.003.01.003.01.004.011.004.012.005.012.006.013.006.013.008.015.008.015.009.015.01.017.011.017.012.018.013.018.014.019.016.02.016.02.018.021.019.021.02.022.021.022.022.022.024.023.025.023.026.024.027.024.029.024.029.024.031.025.032.024.034.025.034.025.036.025.034.024.08.052.082.051.086.051.091.051.095.051.099.05.103.05.107.049.112.049.115.048.119.048.122.046.126.046.13.045.133.043.137.043.139.042.143.04.146.039.148.039.152.036.155.036.157.034.16.033.162.031.165.03.168.029.17.027.172.025.174.024.176.022.179.021.18.019.183.018.184.015.186.014.188.012.189.01.191.009.192.007.194.004.196.003.196.001.196-.001.196-.003.194-.004.192-.007.191-.009.189-.01.188-.012.186-.014.184-.015.183-.018.18-.019.179-.021.176-.022.174-.024.172-.025.17-.027.168-.029.165-.03.162-.031.16-.033.157-.034.155-.036.152-.036.148-.039.146-.039.143-.04.139-.042.137-.043.133-.043.13-.045.126-.046.122-.046.119-.048.115-.048.112-.049.107-.049.103-.05.099-.05.095-.051.091-.051.086-.051.082-.051.08-.052.034-.024.036-.025.034-.025.034-.025.032-.024.031-.025.029-.024.029-.024.027-.024.026-.024.025-.023.024-.023.022-.022.021-.022.02-.022.019-.021.018-.021.016-.02.016-.02.014-.019.013-.018.012-.018.011-.017.01-.016.009-.016.009-.015.007-.015.006-.013.006-.013.005-.012.004-.012.004-.011.003-.01.003-.01.002-.009.002-.009.002-.008.001-.008.001-.008v-.008l.001-.007v-.008-.007l-.001-.008v-.008l-.001-.007-.001-.009-.002-.008-.002-.009-.002-.009-.003-.009-.003-.011-.004-.011-.004-.011-.005-.013-.006-.013-.006-.013-.007-.014-.009-.016-.009-.015-.01-.017-.011-.017-.012-.018-.013-.018-.014-.019-.016-.02-.016-.02-.018-.021-.019-.021-.02-.021-.021-.023-.022-.022-.024-.023-.025-.023-.026-.024-.027-.023-.028-.024-.03-.025-.031-.024-.032-.025-.034-.025-.034-.025-.036-.025-.034-.024-.08-.052-.082-.051-.086-.051-.091-.051-.095-.051-.099-.05-.103-.05-.107-.049-.112-.049-.115-.048-.119-.047-.122-.047-.127-.046-.129-.044-.133-.044-.137-.043-.139-.041-.143-.041-.146-.039-.148-.038-.152-.037-.155-.036-.157-.034-.16-.033-.162-.031-.165-.03-.168-.029-.17-.027-.172-.025-.174-.024-.176-.022-.179-.021-.18-.019-.183-.017-.184-.016-.186-.014-.188-.012-.189-.01-.191-.009-.192-.006-.194-.005-.196-.003-.196-.001z" fill="#ccc"/></g></svg>