<svg clip-rule="evenodd" fill-rule="evenodd" stroke-linejoin="round" stroke-miterlimit="1.41421" viewBox="0 0 32 32" xmlns="http://www.w3.org/2000/svg"><metadata/><path d="m0 0h32v32h-32z" fill="none"/><path d="m16 7.172 5.185-5.185c.14-.135.284-.263.44-.378.394-.29.841-.507 1.312-.637.282-.078.568-.119.859-.139.146-.005.146-.005.291-.004.147.006.293.014.439.034.295.039.586.111.865.215.419.155.812.381 1.157.666.562.465.992 1.083 1.231 1.772.097.279.163.569.196.863.015.132.015.165.023.299.091 4.863.061 9.729.001 14.593-.011.296-.047.588-.119.876-.128.505-.354.985-.665 1.404-.115.156-.243.302-.378.44l-9.423 9.423-.001.002c-.031.03-.062.059-.095.088-.034.031-.067.058-.127.102-.197.147-.421.256-.658.322-.132.036-.269.059-.406.068h-.002-.001l-.007.001h-.014-.003l-.001.001c-.007 0-.014 0-.021 0l-.003.001h-.007-.007-.006-.006-.005l-.001.001h-.003-.009-.004-.002-.005-.008-.003-.003-.006-.006-.003-.003-.008-.005-.002-.004-.009-.003l-.001-.001h-.005-.006-.006-.007-.007l-.003-.001c-.007 0-.014 0-.021 0l-.001-.001h-.003-.014l-.007-.001h-.001-.002c-.137-.009-.274-.032-.406-.068-.237-.066-.461-.175-.658-.322-.06-.044-.093-.071-.127-.102-.033-.029-.064-.058-.095-.088l-.001-.002-10-10c-.098-.105-.19-.211-.269-.333-.154-.24-.256-.513-.297-.796-.018-.126-.015-.158-.02-.285v-15.19c.003-.145.009-.288.025-.431.033-.294.099-.584.196-.863.223-.643.612-1.224 1.12-1.677.333-.296.716-.536 1.128-.706.322-.134.66-.225 1.005-.27.146-.02.292-.028.439-.034.145-.001.145-.001.291.004.291.02.577.061.859.139.471.13.918.347 1.312.637.156.115.3.243.44.378l5.185 5.185z"/><path d="m22.586 3.414c.572-.572 1.432-.743 2.179-.433.748.309 1.235 1.039 1.235 1.847v14.344c0 .53-.211 1.039-.586 1.414-2.14 2.14-9.414 9.414-9.414 9.414l-1-3v-16s4.356-4.356 7.586-7.586z" fill="#09be81"/><path d="m9.414 3.414c-.572-.572-1.432-.743-2.179-.433-.748.309-1.235 1.039-1.235 1.847v14.344c0 .53.211 1.039.586 1.414 2.14 2.14 9.414 9.414 9.414 9.414v-20s-3.689-3.689-6.586-6.586z" fill="#ecf357"/></svg>