<svg clip-rule="evenodd" fill-rule="evenodd" stroke-linecap="round" stroke-linejoin="round" stroke-miterlimit="1.5" viewBox="0 0 32 32" xmlns="http://www.w3.org/2000/svg" xmlns:xlink="http://www.w3.org/1999/xlink"><clipPath id="a"><path clip-rule="evenodd" d="m3 14h8v6h-8z"/></clipPath><clipPath id="b"><path clip-rule="evenodd" d="m3 6h12v7h-12z"/></clipPath><clipPath id="c"><path clip-rule="evenodd" d="m12 14h8v6h-8z"/></clipPath><clipPath id="d"><path clip-rule="evenodd" d="m16 6h13v7h-13z"/></clipPath><clipPath id="e"><path clip-rule="evenodd" d="m16 13v-4c0-1.105.895-2 2-2h9c1.105 0 2 .895 2 2v4z"/></clipPath><clipPath id="f"><path clip-rule="evenodd" d="m21 15h8v5h-8z"/></clipPath><metadata/><path d="m0 0h32v32h-32z" fill="none"/><path d="m32 5c0-1.105-.895-2-2-2-5.746 0-22.254 0-28 0-1.105 0-2 .895-2 2v22c0 1.105.895 2 2 2h28c1.105 0 2-.895 2-2 0-4.843 0-17.157 0-22z"/><path d="m2 5h28v17h-28z" fill="#aa9c84"/><path d="m2 21h28v6h-28z" fill="#655b50"/><path d="m3 14h8v6h-8z" fill="#655b50"/><g clip-path="url(#a)"><path d="m11 17c0-.552-.448-1-1-1-1.537 0-4.463 0-6 0-.552 0-1 .448-1 1v3h8z" fill="#7e1a11"/><circle cx="9" cy="16" fill="#7e1a11" r="2"/><circle cx="6" cy="17" fill="#b92619" r="2"/><circle cx="5" cy="19" fill="#7e1a11" r="2"/><circle cx="9" cy="19" fill="#b92619" r="2"/></g><path d="m3 6h12v7h-12z" fill="#655b50"/><g clip-path="url(#b)"><path d="m15 8c0-.265-.105-.52-.293-.707-.187-.188-.442-.293-.707-.293-2.26 0-7.74 0-10 0-.265 0-.52.105-.707.293-.188.187-.293.442-.293.707v5h12z" fill="#ae723e"/><g fill="#724b28"><path d="m5 7h1v6h-1z"/><path d="m8 7h1v6h-1z"/><path d="m11 7h1v6h-1z"/></g></g><path d="m12 14h8v6h-8z" fill="#655b50"/><g clip-path="url(#c)"><path d="m12 16h8v4h-8z" fill="#5b3414"/><g fill="#361f0c"><path d="m14 16c0-.265-.105-.52-.293-.707-.187-.188-.442-.293-.707-.293s-.52.105-.707.293c-.188.187-.293.442-.293.707v4h2z"/><path d="m17 16c0-.265-.105-.52-.293-.707-.187-.188-.442-.293-.707-.293s-.52.105-.707.293c-.188.187-.293.442-.293.707v4h2z"/><path d="m20 16c0-.265-.105-.52-.293-.707-.187-.188-.442-.293-.707-.293s-.52.105-.707.293c-.188.187-.293.442-.293.707v4h2z"/></g></g><path d="m16 6h13v7h-13z" fill="#655b50"/><g clip-path="url(#d)"><path d="m16 13v-4c0-1.105.895-2 2-2h9c1.105 0 2 .895 2 2v4z" fill="#fff"/><g clip-path="url(#e)" fill="none" stroke="#e1e1e1"><path d="m27 9-1 1"/><path d="m22 10-1 1"/><path d="m19 13-1 1"/><path d="m17 11-1 1"/><path d="m20 7-1 1"/><path d="m23 8 1 1"/><path d="m24 6 1 1"/><path d="m28 11 1 1"/><path d="m25 12 1 1"/><path d="m22 13 1 1"/><path d="m18 9 1 1"/></g></g><path d="m21 14h8v6h-8z" fill="#655b50"/><path d="m21 15h8v5h-8z" fill="#359e22"/><g clip-path="url(#f)" fill="none" stroke="#287419"><path d="m19 15 4 2"/><path d="m29 14-4 2"/><path d="m32 15-4 2"/><path d="m29 20-4-2"/><path d="m27 21-4-2"/></g></svg>