<svg clip-rule="evenodd" fill-rule="evenodd" stroke-linejoin="round" stroke-miterlimit="2" viewBox="0 0 32 32" xmlns="http://www.w3.org/2000/svg" xmlns:xlink="http://www.w3.org/1999/xlink"><clipPath id="a"><path clip-rule="evenodd" d="m0 0h32v32h-32z"/></clipPath><metadata/><path d="m0 0h32v32h-32z" fill="none"/><g clip-path="url(#a)"><path d="m16 0c4.243 0 8.313 1.686 11.314 4.686 3 3.001 4.686 7.071 4.686 11.314v1c0 8.284-6.716 15-15 15h-2c-8.284 0-15-6.716-15-15v-1c0-8.837 7.163-16 16-16z"/><path d="m30 16c0-3.713-1.475-7.274-4.101-9.899-2.625-2.626-6.186-4.101-9.899-4.101-7.732 0-14 6.268-14 14v1c0 7.18 5.82 13 13 13h2c7.18 0 13-5.82 13-13z" fill="#fbc546"/><path d="m9.502 15c.928 0 1.817-.369 2.473-1.025s1.025-1.545 1.025-2.473c0-.973 0-2.029 0-3.002 0-1.933-1.567-3.5-3.5-3.5-.001 0-.001 0-.002 0-.928 0-1.817.369-2.473 1.025s-1.025 1.545-1.025 2.473v3.002c0 1.933 1.567 3.5 3.5 3.5z" fill="#fff"/><path d="m8 8c0-1.105.895-2 2-2s2 .895 2 2v3.983c0 1.105-.895 2-2 2s-2-.895-2-2c0-1.217 0-2.766 0-3.983z"/><path d="m22.498 15c-.928 0-1.817-.369-2.473-1.025s-1.025-1.545-1.025-2.473c0-.973 0-2.029 0-3.002 0-1.933 1.567-3.5 3.5-3.5h.002c.928 0 1.817.369 2.473 1.025s1.025 1.545 1.025 2.473v3.002c0 1.933-1.567 3.5-3.5 3.5-.001 0-.001 0-.002 0z" fill="#fff"/><path d="m24 8c0-1.105-.895-2-2-2s-2 .895-2 2v3.983c0 1.105.895 2 2 2s2-.895 2-2c0-1.217 0-2.766 0-3.983z"/><path d="m9.57 23.339c-1.876-1.992-2.854-4.801-3.369-7.339h19.598c-.515 2.538-1.493 5.347-3.369 7.339-1.114-1.446-11.746-1.446-12.86 0z" fill="#722245"/><path d="m9.57 23.339c1.114-1.446 2.856-2.339 4.755-2.339h3.35c1.899 0 3.641.893 4.755 2.339-1.497 1.59-3.567 2.661-6.43 2.661s-4.933-1.071-6.43-2.661z" fill="#ca3b8f"/></g></svg>