<svg clip-rule="evenodd" fill-rule="evenodd" stroke-linecap="round" stroke-linejoin="round" stroke-miterlimit="1.5" viewBox="0 0 32 32" xmlns="http://www.w3.org/2000/svg" xmlns:xlink="http://www.w3.org/1999/xlink"><clipPath id="a"><path clip-rule="evenodd" d="m0 0h32v32h-32z"/></clipPath><metadata/><path d="m0 0h32v32h-32z" fill="none"/><g clip-path="url(#a)"><path d="m30 25c0 2.76-6.273 5-14 5s-14-2.24-14-5v-11c0-.165.022-.328.066-.489-.043-.163-.066-.334-.066-.511 0-1.104.896-2 2-2 .212 0 .416.033.608.094.688-.343 1.495-.654 2.399-.925-.005-.056-.007-.112-.007-.169 0-1.104.896-2 2-2 .874 0 1.618.562 1.89 1.344.987-.138 2.029-.238 3.11-.293v-3.051h4v3.051c1.081.055 2.123.155 3.11.293.272-.782 1.016-1.344 1.89-1.344 1.104 0 2 .896 2 2 0 .057-.002.113-.007.169.904.271 1.711.582 2.399.925.192-.061.396-.094.608-.094 1.104 0 2 .896 2 2 0 .177-.023.348-.066.511.044.161.066.324.066.489z" fill="none" stroke="#000" stroke-width="4"/><path d="m14 6v-1c0-.796.316-1.559.879-2.121.562-.563 1.325-.879 2.121-.879h2v1c0 .796-.316 1.559-.879 2.121-.562.563-1.325.879-2.121.879-1.063 0-2 0-2 0z" fill="#ffa617" stroke="#000" stroke-linejoin="miter" stroke-width="4"/><path d="m30 14v11c0 2.76-6.273 5-14 5s-14-2.24-14-5v-11z" fill="#d9d9d9"/><ellipse cx="16" cy="14" fill="#fff" rx="14" ry="5"/><path d="m14 6c0-.394.896-.714 2-.714s2 .32 2 .714v7c0 .394-.896.714-2 .714s-2-.32-2-.714z" fill="#6053d0"/><path d="m14 6v-1c0-.796.316-1.559.879-2.121.562-.563 1.325-.879 2.121-.879h2v1c0 .796-.316 1.559-.879 2.121-.562.563-1.325.879-2.121.879-1.063 0-2 0-2 0z" fill="#ffa617"/><g fill="#db3333"><circle cx="16" cy="17" r="2"/><circle cx="9" cy="10" r="2"/><circle cx="23" cy="10" r="2"/><circle cx="9" cy="16" r="2"/><circle cx="23" cy="16" r="2"/><circle cx="28" cy="13" r="2"/><circle cx="4" cy="13" r="2"/></g></g></svg>