<svg clip-rule="evenodd" fill-rule="evenodd" stroke-linejoin="round" stroke-miterlimit="2" viewBox="0 0 32 32" xmlns="http://www.w3.org/2000/svg" xmlns:xlink="http://www.w3.org/1999/xlink"><clipPath id="a"><path clip-rule="evenodd" d="m0 0h32v32h-32z"/></clipPath><metadata/><path d="m0 0h32v32h-32z" fill="none"/><g clip-path="url(#a)"><path d="m20.5 29 9.5-16v-2h-19v2z" fill="none" stroke="#000" stroke-width="4"/><path d="m11.5 24 9.5-16v-2h-19v2z" fill="none" stroke="#000" stroke-width="4"/><path d="m20.5 29 9.5-16v-2l-2 1h-15l-2-1v2z" fill="#221ab1"/><path d="m19 7 2-1v2l-5.297 8.921h-1.187v2l-3.016 5.079-9.5-16v-2l2 1z" fill="#c52eae"/><path d="m20.5 27 9.5-16h-19z" fill="#342ae7"/><path d="m11.5 22 9.5-16h-19z" fill="#e764d3"/><path d="m14.516 16.921-3.516-5.921h7.031z" fill="#9a2dd8"/></g></svg>