<svg clip-rule="evenodd" fill-rule="evenodd" stroke-linecap="round" stroke-linejoin="round" stroke-miterlimit="1.5" viewBox="0 0 32 32" xmlns="http://www.w3.org/2000/svg" xmlns:xlink="http://www.w3.org/1999/xlink"><clipPath id="a"><path clip-rule="evenodd" d="m0 0h32v32h-32z"/></clipPath><metadata/><path d="m0 0h32v32h-32z" fill="none"/><g clip-path="url(#a)"><path d="m6 4.394c1.136-.589 3.202-1.394 6-1.394 4.409 0 5.046 2 9 2 3.716 0 7-1.5 7-1.5v15s-3.284 1.5-7 1.5c-3.954 0-4.591-2-9-2-2.798 0-4.864.805-6 1.394v10.606h-2v-28h2z" fill="none" stroke="#000" stroke-width="4"/><path d="m5 20v-15s2.591-2 7-2 5.046 2 9 2c3.716 0 7-1.5 7-1.5v15s-3.284 1.5-7 1.5c-3.954 0-4.591-2-9-2-4.401 0-6.99 1.992-7 2z" fill="#414141"/><path d="m4 2h2v28h-2z" fill="#949393"/></g></svg>