<svg clip-rule="evenodd" fill-rule="evenodd" stroke-linecap="round" stroke-linejoin="round" stroke-miterlimit="1.5" viewBox="0 0 32 32" xmlns="http://www.w3.org/2000/svg" xmlns:xlink="http://www.w3.org/1999/xlink"><clipPath id="a"><path clip-rule="evenodd" d="m0 0h32v32h-32z"/></clipPath><metadata/><path d="m0 0h32v32h-32z" fill="none"/><g clip-path="url(#a)"><path d="m3 2h26v28h-26z" fill="none" stroke="#000" stroke-width="4"/><path d="m29 30h-26v-2l2-2h22l2 2z" fill="#3f3f3f"/><path d="m3 2h26v26h-26z" fill="#666"/><path d="m24 9c0-1.105-.895-2-2-2-3.074 0-8.926 0-12 0-1.105 0-2 .895-2 2v12c0 1.105.895 2 2 2h12c1.105 0 2-.895 2-2 0-3.074 0-8.926 0-12z" fill="#fff"/></g></svg>