<svg clip-rule="evenodd" fill-rule="evenodd" stroke-linejoin="round" stroke-miterlimit="1.41421" viewBox="0 0 32 32" xmlns="http://www.w3.org/2000/svg" xmlns:xlink="http://www.w3.org/1999/xlink"><clipPath id="a"><path clip-rule="evenodd" d="m0 0h32v32h-32z"/></clipPath><metadata/><path d="m0 0h32v32h-32z" fill="none"/><g clip-path="url(#a)"><path d="m32 8c0-4.418-3.582-8-8-8-4.887 0-11.113 0-16 0-4.418 0-8 3.582-8 8v16c0 4.418 3.582 8 8 8h16c4.418 0 8-3.582 8-8 0-4.887 0-11.113 0-16z"/><path d="m30 8c0-1.591-.632-3.117-1.757-4.243-1.126-1.125-2.652-1.757-4.243-1.757-4.724 0-11.276 0-16 0-1.591 0-3.117.632-4.243 1.757-1.125 1.126-1.757 2.652-1.757 4.243v16c0 1.591.632 3.117 1.757 4.243 1.126 1.125 2.652 1.757 4.243 1.757h16c1.591 0 3.117-.632 4.243-1.757 1.125-1.126 1.757-2.652 1.757-4.243 0-4.724 0-11.276 0-16z" fill="#e8272e"/><path d="m22.457 17.33c.478.696.717 1.531.717 2.505 0 1.652-.535 2.926-1.604 3.822-1.07.895-2.605 1.343-4.605 1.343h-8.139v-18h7.8c2.035 0 3.591.43 4.67 1.291 1.078.861 1.617 2.1 1.617 3.718 0 .817-.222 1.552-.665 2.204-.444.652-1.074 1.161-1.891 1.526.921.365 1.621.896 2.1 1.591zm-10.214-7.356v4.383h4.409c1.896 0 2.844-.714 2.844-2.14 0-1.495-.905-2.243-2.713-2.243zm7.54 9.626c0-1.513-.966-2.27-2.896-2.27h-4.644v4.696h4.774c1.844 0 2.766-.809 2.766-2.426z" fill="#fff" fill-rule="nonzero"/></g></svg>