<svg clip-rule="evenodd" fill-rule="evenodd" stroke-linejoin="round" stroke-miterlimit="1.41421" viewBox="0 0 32 32" xmlns="http://www.w3.org/2000/svg" xmlns:xlink="http://www.w3.org/1999/xlink"><clipPath id="a"><path clip-rule="evenodd" d="m0 0h32v32h-32z"/></clipPath><metadata/><path d="m0 0h32v32h-32z" fill="none"/><g clip-path="url(#a)"><path d="m32 8c0-4.418-3.582-8-8-8-4.887 0-11.113 0-16 0-4.418 0-8 3.582-8 8v16c0 4.418 3.582 8 8 8h16c4.418 0 8-3.582 8-8 0-4.887 0-11.113 0-16z"/><path d="m30 8c0-1.591-.632-3.117-1.757-4.243-1.126-1.125-2.652-1.757-4.243-1.757-4.724 0-11.276 0-16 0-1.591 0-3.117.632-4.243 1.757-1.125 1.126-1.757 2.652-1.757 4.243v16c0 1.591.632 3.117 1.757 4.243 1.126 1.125 2.652 1.757 4.243 1.757h16c1.591 0 3.117-.632 4.243-1.757 1.125-1.126 1.757-2.652 1.757-4.243 0-4.724 0-11.276 0-16z" fill="#e8272e"/><g fill="#fff" fill-rule="nonzero"><path d="m12.638 20.134h-4.643l-.822 2.625h-2.704l4.8-13.518h2.096l4.819 13.518h-2.723zm-.685-2.136-1.646-5.191-1.626 5.191z"/><path d="m26.518 16.999c.32.523.48 1.149.48 1.881 0 1.227-.366 2.181-1.097 2.86s-1.75 1.019-3.056 1.019h-5.427v-13.518h5.211c1.319 0 2.348.327 3.086.98s1.107 1.58 1.107 2.782c0 .6-.15 1.152-.451 1.655-.3.503-.718.885-1.254 1.146.614.274 1.081.673 1.401 1.195zm-6.533-5.524v3.291h2.448c.588 0 1.035-.141 1.342-.421.307-.281.461-.676.461-1.186 0-.548-.154-.966-.461-1.253-.307-.288-.754-.431-1.342-.431zm3.986 8.57c.307-.32.461-.767.461-1.342 0-.535-.154-.953-.461-1.253-.307-.301-.767-.451-1.381-.451h-2.605v3.526h2.605c.614 0 1.074-.16 1.381-.48z"/></g></g></svg>