<svg clip-rule="evenodd" fill-rule="evenodd" stroke-linecap="round" stroke-miterlimit="1.5" viewBox="0 0 32 32" xmlns="http://www.w3.org/2000/svg" xmlns:xlink="http://www.w3.org/1999/xlink"><clipPath id="a"><path clip-rule="evenodd" d="m0 0h32v32h-32z"/></clipPath><metadata/><path d="m0 0h32v32h-32z" fill="none"/><g clip-path="url(#a)"><path d="m16 0c4.243 0 8.313 1.686 11.314 4.686 3 3.001 4.686 7.071 4.686 11.314v2c0 7.732-6.268 14-14 14-1.325 0-2.675 0-4 0-7.732 0-14-6.268-14-14v-2c0-8.837 7.163-16 16-16z"/><path d="m30 16c0-3.713-1.475-7.274-4.101-9.899-2.625-2.626-6.186-4.101-9.899-4.101-7.732 0-14 6.268-14 14v2c0 6.627 5.373 12 12 12h4c6.627 0 12-5.373 12-12z" fill="#fbc546"/><path d="m5.784 14.717c.188.187.442.293.707.293s.519-.106.706-.293c.007-.007.011-.01.011-.01.608-.608 1.432-.95 2.292-.95s1.684.342 2.292.95c0 0 .004.003.011.01.39.39 1.022.39 1.413 0 0 0 0 0 0-.001.391-.39.391-1.023 0-1.414-.006-.006-.009-.01-.009-.01-.983-.983-2.317-1.535-3.707-1.535s-2.724.552-3.707 1.535c0 0-.003.004-.01.011-.187.187-.293.441-.293.706s.106.519.293.707z"/><path d="m26.216 14.717c-.188.187-.442.293-.707.293s-.519-.106-.706-.293c-.007-.007-.011-.01-.011-.01-.608-.608-1.432-.95-2.292-.95s-1.684.342-2.292.95c0 0-.004.003-.011.01-.39.39-1.022.39-1.413 0 0 0 0 0 0-.001-.391-.39-.391-1.023 0-1.414.006-.006.009-.01.009-.01.983-.983 2.317-1.535 3.707-1.535s2.724.552 3.707 1.535c0 0 .003.004.01.011.187.187.293.441.293.706s-.106.519-.293.707z"/><path d="m29 19c0-1.105-.895-2-2-2-1.222 0-2.778 0-4 0-1.105 0-2 .895-2 2s.895 2 2 2h4c1.105 0 2-.895 2-2z" fill="#ed6b44"/><path d="m11 19c0-1.105-.895-2-2-2-1.222 0-2.778 0-4 0-1.105 0-2 .895-2 2s.895 2 2 2h4c1.105 0 2-.895 2-2z" fill="#ed6b44"/><path d="m10 20s.562.75 1.2 1.6c1.133 1.511 2.911 2.4 4.8 2.4s3.667-.889 4.8-2.4c.638-.85 1.2-1.6 1.2-1.6" fill="none" stroke="#593604" stroke-width="2"/></g></svg>