<svg clip-rule="evenodd" fill-rule="evenodd" stroke-linejoin="round" stroke-miterlimit="2" viewBox="0 0 32 32" xmlns="http://www.w3.org/2000/svg" xmlns:xlink="http://www.w3.org/1999/xlink"><clipPath id="a"><path clip-rule="evenodd" d="m0 0h32v32h-32z"/></clipPath><metadata/><path d="m0 0h32v32h-32z" fill="none"/><g clip-path="url(#a)"><path d="m16 2c8.837 0 16 7.163 16 16v.502c0 3.58-1.422 7.013-3.953 9.545-2.532 2.531-5.965 3.953-9.545 3.953-1.652 0-3.352 0-5.004 0-3.58 0-7.013-1.422-9.545-3.953-2.531-2.532-3.953-5.965-3.953-9.545 0-.167 0-.334 0-.502 0-8.837 7.163-16 16-16z"/><path d="m30 18c0-7.732-6.268-14-14-14-7.732 0-14 6.268-14 14v.502c0 3.049 1.211 5.974 3.368 8.13 2.156 2.157 5.081 3.368 8.13 3.368h5.004c3.049 0 5.974-1.211 8.13-3.368 2.157-2.156 3.368-5.081 3.368-8.13 0-.167 0-.334 0-.502z" fill="#fbc546"/><path d="m18.221 19.365-3.592-1.437c-.513-.204-.762-.787-.557-1.299.204-.513.787-.762 1.299-.557l5 2c.312.124.541.398.609.727.067.329-.035.67-.273.908l-1.293 1.293 1.293 1.293c.238.238.34.579.273.908-.068.329-.297.603-.609.727l-5 2c-.512.205-1.095-.044-1.299-.557-.205-.512.044-1.095.557-1.299l3.592-1.437-.928-.928c-.383-.402-.383-1.012 0-1.414z" fill="#593604"/><path d="m29 18c0-1.105-.895-2-2-2-1.222 0-2.778 0-4 0-1.105 0-2 .895-2 2s.895 2 2 2h4c1.105 0 2-.895 2-2z" fill="#ed6b44"/><path d="m11 18c0-1.105-.895-2-2-2-1.222 0-2.778 0-4 0-1.105 0-2 .895-2 2s.895 2 2 2h4c1.105 0 2-.895 2-2z" fill="#ed6b44"/><g fill-rule="nonzero"><path d="m24.947 13.106c.494.247.694.847.447 1.341v.001c-.247.494-.847.694-1.34.447-1.196-.598-3.305-1.652-4.501-2.251-.494-.247-.694-.847-.447-1.341 0-.001 0-.001 0-.001.247-.494.847-.694 1.34-.447 1.196.598 3.305 1.652 4.501 2.251z"/><path d="m12.895 11.304c.247.493.047 1.093-.447 1.34-1.196.598-3.304 1.652-4.501 2.25-.494.247-1.094.047-1.341-.447-.001 0-.001 0-.001-.001-.247-.493-.047-1.093.447-1.34 1.196-.598 3.304-1.652 4.501-2.25.494-.247 1.094-.047 1.341.447.001 0 .001 0 .001.001z"/></g></g></svg>