<svg clip-rule="evenodd" fill-rule="evenodd" stroke-linecap="round" stroke-linejoin="round" stroke-miterlimit="1.5" viewBox="0 0 32 32" xmlns="http://www.w3.org/2000/svg" xmlns:xlink="http://www.w3.org/1999/xlink"><clipPath id="a"><path clip-rule="evenodd" d="m0 0h32v32h-32z"/></clipPath><metadata/><path d="m0 0h32v32h-32z" fill="none"/><g clip-path="url(#a)"><path d="m21.386 6.614 3.907-3.907c.39-.39 1.024-.39 1.414 0 .344.344.738.738 1 1 .188.188.293.442.293.707v2.114c0 .31.072.617.211.894.17.34.408.816.578 1.156.139.277.211.584.211.894v.528c0 2.761-2.239 5-5 5v.056c0 .621.145 1.233.422 1.789.36.718.894 1.786 1.383 2.764.762 1.525.855 3.298.256 4.894v.001c-1.24 3.306-4.4 5.496-7.931 5.496-1.389 0-2.871 0-4.26 0-3.531 0-6.691-2.19-7.931-5.496v-.001c-.599-1.596-.506-3.369.256-4.894.489-.978 1.023-2.046 1.383-2.764.277-.556.422-1.168.422-1.789v-.056c-2.761 0-5-2.239-5-5 0-.2 0-.379 0-.528 0-.31.072-.617.211-.894.17-.34.408-.816.578-1.156.139-.277.211-.584.211-.894 0-.582 0-1.56 0-2.114 0-.265.105-.519.293-.707.262-.262.656-.656 1-1 .39-.39 1.024-.39 1.414 0l3.907 3.907c1.093-1.02 2.548-1.614 4.094-1.614h2.584c1.546 0 3.001.594 4.094 1.614z" fill="none" stroke="#000" stroke-width="4"/><path d="m20 8s3.706-3.706 5.293-5.293c.39-.39 1.024-.39 1.414 0 .344.344.738.738 1 1 .188.188.293.442.293.707v2.114c0 .31.072.617.211.894.17.34.408.816.578 1.156.139.277.211.584.211.894v.528c0 2.761-2.239 5-5 5-2.072 0-4 0-4 0z" fill="#3d3531"/><path d="m12 8s-3.706-3.706-5.293-5.293c-.39-.39-1.024-.39-1.414 0-.344.344-.738.738-1 1-.188.188-.293.442-.293.707v2.114c0 .31-.072.617-.211.894-.17.34-.408.816-.578 1.156-.139.277-.211.584-.211.894v.528c0 2.761 2.239 5 5 5h4z" fill="#3d3531"/><path d="m21 9.539c0-.969.456-1.881 1.231-2.462.6-.45 1.31-.982 1.86-1.395.522-.391 1.251-.34 1.712.121.001.001.001.001.001.001.125.125.196.296.196.474v1.722s.102.102.24.24c.487.487.76 1.146.76 1.834v1.333c0 .687-.273 1.347-.76 1.833-.486.487-1.146.76-1.833.76-1.623 0-3.407 0-3.407 0s0-2.684 0-4.461z" fill="#2b2522"/><path d="m11 9.539c0-.969-.456-1.881-1.231-2.462-.6-.45-1.31-.982-1.86-1.395-.522-.391-1.251-.34-1.712.121-.001.001-.001.001-.001.001-.125.125-.196.296-.196.474v1.722s-.102.102-.24.24c-.487.487-.76 1.146-.76 1.834v1.333c0 .687.273 1.347.76 1.833.486.487 1.146.76 1.833.76h3.407s0-2.684 0-4.461z" fill="#2b2522"/><path d="m9.342 8.317c1.016-2.033 3.094-3.317 5.366-3.317h2.584c2.272 0 4.35 1.284 5.366 3.317.211.421.418.834.603 1.205.486.972.739 2.044.739 3.13v2.404c0 .621.145 1.233.422 1.789.36.718.894 1.786 1.383 2.764.762 1.525.855 3.298.256 4.894v.001c-1.24 3.306-4.4 5.496-7.931 5.496-1.389 0-2.871 0-4.26 0-3.531 0-6.691-2.19-7.931-5.496v-.001c-.599-1.596-.506-3.369.256-4.894.489-.978 1.023-2.046 1.383-2.764.277-.556.422-1.168.422-1.789 0-.677 0-1.605 0-2.404 0-1.086.253-2.158.739-3.13.185-.371.392-.784.603-1.205z" fill="#72635c"/><path d="m13 27s.609.305 1.155.578c.556.277 1.168.422 1.789.422h.112c.621 0 1.233-.145 1.789-.422.546-.273 1.155-.578 1.155-.578v-1h-6z" fill="#554a45"/><path d="m11 24-3-4v1.817c0 1.398.555 2.738 1.543 3.726.736.736 1.457 1.457 1.457 1.457z" fill="#fff"/><path d="m21 24 3-4v1.817c0 1.398-.555 2.738-1.543 3.726-.736.736-1.457 1.457-1.457 1.457z" fill="#fff"/><path d="m12.519 21.321c.315-.211.57-.499.739-.838h.001c.454-.909 1.383-1.483 2.399-1.483h.684c1.016 0 1.945.574 2.399 1.483h.001c.169.339.424.627.739.838.378.252.921.614 1.406.937.695.464 1.113 1.244 1.113 2.08v.711c0 .735-.323 1.432-.884 1.907s-1.302.68-2.027.559c-.758-.126-1.523-.254-2.103-.351-.653-.108-1.319-.108-1.972 0-.58.097-1.345.225-2.103.351-.725.121-1.466-.084-2.027-.559s-.884-1.172-.884-1.907c0-.246 0-.487 0-.711 0-.836.418-1.616 1.113-2.08.485-.323 1.028-.685 1.406-.937z" fill="#3e3632"/><path d="m20 24.5c0-.398-.158-.779-.439-1.061-.282-.281-.663-.439-1.061-.439-.174 0-.348 0-.513 0-.262 0-.513.104-.698.289s-.289.436-.289.698v.001c0 .604.387 1.141.96 1.332.29.097.611.204.911.304.261.087.549.043.773-.118.223-.162.356-.421.356-.696 0-.102 0-.206 0-.31z"/><path d="m12 24.5c0-.398.158-.779.439-1.061.282-.281.663-.439 1.061-.439h.487c.269 0 .526.107.716.297s.297.447.297.716v.001c0 .589-.377 1.112-.935 1.298-.297.099-.627.209-.936.312-.261.087-.549.043-.773-.118-.223-.162-.356-.421-.356-.696 0-.102 0-.206 0-.31z"/><path d="m22.5 15.25c0-.332-.132-.649-.366-.884-.235-.234-.552-.366-.884-.366s-.649.132-.884.366c-.234.235-.366.552-.366.884v2.25h.75c.464 0 .909-.184 1.237-.513.329-.328.513-.773.513-1.237 0-.169 0-.338 0-.5z"/><path d="m12 15.25c0-.332-.132-.649-.366-.884-.235-.234-.552-.366-.884-.366s-.649.132-.884.366c-.234.235-.366.552-.366.884v.5c0 .464.184.909.513 1.237.328.329.773.513 1.237.513h.75s0-1.245 0-2.25z"/></g></svg>