<svg clip-rule="evenodd" fill-rule="evenodd" stroke-linejoin="round" stroke-miterlimit="2" viewBox="0 0 32 32" xmlns="http://www.w3.org/2000/svg" xmlns:xlink="http://www.w3.org/1999/xlink"><clipPath id="a"><path clip-rule="evenodd" d="m0 0h32v32h-32z"/></clipPath><metadata/><path d="m0 0h32v32h-32z" fill="none"/><g clip-path="url(#a)"><path d="m23.615.001c.153.006.304.016.455.035.37.047.734.14 1.08.277 1.117.44 2.028 1.33 2.496 2.435.172.408.279.837.329 1.277.104.012.104.012.208.027.185.03.367.068.548.119.422.12.826.302 1.196.539 1.015.651 1.74 1.704 1.982 2.885.09.443.114.9.069 1.35-.043.438-.152.87-.32 1.277-.212.51-.517.98-.898 1.38-.407.428-.898.773-1.437 1.012-.403.179-.831.298-1.268.352-.18.022-.361.032-.543.034h-2.684l-11.828 11.828v2.686c-.002.182-.012.362-.034.543-.054.436-.173.865-.351 1.267-.239.539-.585 1.03-1.012 1.437-.4.38-.87.685-1.379.897-1.14.472-2.453.452-3.577-.056-.428-.194-.825-.455-1.173-.771-.347-.315-.643-.684-.877-1.09-.22-.382-.383-.797-.482-1.227-.041-.178-.069-.358-.09-.539-.096-.011-.096-.011-.191-.024-.182-.03-.361-.065-.539-.115-.458-.127-.896-.327-1.293-.592-.492-.328-.918-.754-1.246-1.246-.305-.458-.525-.971-.646-1.507-.261-1.156-.048-2.393.586-3.395.237-.376.53-.716.867-1.006.334-.287.711-.526 1.114-.704.403-.179.831-.298 1.268-.352.18-.022.361-.032.543-.034h2.684l11.828-11.828v-2.684c.006-.477.078-.948.228-1.402.196-.593.517-1.143.936-1.606.446-.493 1-.883 1.614-1.138.339-.14.695-.239 1.057-.293.147-.022.294-.034.442-.044.113-.004.225-.005.338-.004z" fill-rule="nonzero"/><path d="m26 6v-1.5c0-1.381-1.119-2.5-2.5-2.5-.663 0-1.299.263-1.768.732s-.732 1.105-.732 1.768v3.5l-13 13h-3.502c-.663 0-1.298.263-1.766.732-.469.468-.732 1.103-.732 1.766v.004c0 .663.263 1.298.732 1.766.468.469 1.104.732 1.766.732h1.502v1.502c0 .662.263 1.298.732 1.766.468.469 1.103.732 1.766.732h.004c.663 0 1.298-.263 1.766-.732.469-.468.732-1.103.732-1.766 0-1.647 0-3.502 0-3.502l13-13h3.5c.663 0 1.299-.263 1.768-.732s.732-1.105.732-1.768c0-1.381-1.119-2.5-2.5-2.5-.808 0-1.5 0-1.5 0z" fill="#d9d9d9"/></g></svg>