<svg clip-rule="evenodd" fill-rule="evenodd" stroke-linecap="round" stroke-linejoin="round" stroke-miterlimit="1.5" viewBox="0 0 32 32" xmlns="http://www.w3.org/2000/svg" xmlns:xlink="http://www.w3.org/1999/xlink"><clipPath id="a"><path clip-rule="evenodd" d="m0 0h32v32h-32z"/></clipPath><metadata/><path d="m0 0h32v32h-32z" fill="none"/><g clip-path="url(#a)"><path d="m21 21h4l5 5h-4v4l-5-5zm-11.002-5.999c-.916.229-1.664.889-2.005 1.77-.34.881-.231 1.872.293 2.658.632.949 1.31 1.965 1.911 2.867 1.101 1.651 1.152 3.789.131 5.491-.055.091-.109.182-.163.271-.723 1.205-2.025 1.942-3.43 1.942-.028 0-.056 0-.084 0-.22 0-.414-.144-.478-.355s.018-.439.201-.561c.285-.19.577-.385.833-.555.514-.343.899-.847 1.094-1.433.001-.001.001-.001.001-.001.439-1.318.228-2.766-.568-3.904-.403-.575-.873-1.247-1.368-1.954-1.068-1.526-1.392-3.452-.882-5.244.511-1.792 1.801-3.258 3.514-3.992.001-.001.002-.001.002-.001l3-3 .001-.002c.734-1.713 2.2-3.003 3.992-3.514 1.792-.51 3.718-.186 5.244.882.707.495 1.379.965 1.954 1.368 1.138.796 2.586 1.007 3.904.568 0 0 0 0 .001-.001.586-.195 1.09-.58 1.433-1.094.17-.256.365-.548.555-.833.122-.183.35-.265.561-.201s.355.258.355.478v.084c0 1.405-.737 2.707-1.942 3.43-.089.054-.18.108-.271.163-1.702 1.021-3.84.97-5.491-.131-.902-.601-1.918-1.279-2.867-1.911-.786-.524-1.777-.633-2.658-.293-.881.341-1.541 1.089-1.77 2.005-.001.001-.001.002-.001.002l-5 5zm-7.998-13.001 3 8 5-5z" fill="none" stroke="#000" stroke-width="4"/><path d="m13.121 8.879 2.879-2.879 5.172 2.586 1.707-1.707 4.242 4.242-5.878 5.879 5.878 5.879-4.242 4.242-5.879-5.878-5.879 5.878-4.242-4.242 1.707-1.707-2.586-5.172 2.879-2.879-6-6 4.242-4.242z" fill-rule="nonzero"/><path d="m25.707 9.707-16 16-.707-2.121 14-14z" fill="#7d6e5d" fill-rule="nonzero"/><path d="m12 9 2-1 1 2-5 5-2-1 1-2z" fill="#5a3a24"/><path d="m6.366 21.237c-1.068-1.526-1.392-3.452-.882-5.244.511-1.792 1.801-3.258 3.514-3.992.001-.001.002-.001.002-.001l1 3s-.001 0-.002.001c-.916.229-1.664.889-2.005 1.77-.34.881-.231 1.872.293 2.658.632.949 1.31 1.965 1.911 2.867 1.101 1.651 1.152 3.789.131 5.491-.055.091-.109.182-.163.271-.723 1.205-2.025 1.942-3.43 1.942-.028 0-.056 0-.084 0-.22 0-.414-.144-.478-.355s.018-.439.201-.561c.285-.19.577-.385.833-.555.514-.343.899-.847 1.094-1.433.001-.001.001-.001.001-.001.439-1.318.228-2.766-.568-3.904-.403-.575-.873-1.247-1.368-1.954z" fill="#895b36"/><path d="m21.237 6.366c-1.526-1.068-3.452-1.392-5.244-.882-1.792.511-3.258 1.801-3.992 3.514-.001.001-.001.002-.001.002l3 1s0-.001.001-.002c.229-.916.889-1.664 1.77-2.005.881-.34 1.872-.231 2.658.293.949.632 1.965 1.31 2.867 1.911 1.651 1.101 3.789 1.152 5.491.131.091-.055.182-.109.271-.163 1.205-.723 1.942-2.025 1.942-3.43 0-.028 0-.056 0-.084 0-.22-.144-.414-.355-.478s-.439.018-.561.201c-.19.285-.385.577-.555.833-.343.514-.847.899-1.433 1.094-.001.001-.001.001-.001.001-1.318.439-2.766.228-3.904-.568-.575-.403-1.247-.873-1.954-1.368z" fill="#895b36"/><path d="m5 5 20 20" fill="none" stroke="#c7a272" stroke-linecap="butt" stroke-width="2"/><path d="m21 25 5 5v-4h4l-5-5h-4z" fill="#c4b1a4"/><path d="m2 2 3 8 5-5z" fill="#c9d3d6"/></g></svg>