<svg clip-rule="evenodd" fill-rule="evenodd" stroke-linecap="round" stroke-linejoin="round" stroke-miterlimit="1.5" viewBox="0 0 32 32" xmlns="http://www.w3.org/2000/svg" xmlns:xlink="http://www.w3.org/1999/xlink"><clipPath id="a"><path clip-rule="evenodd" d="m0 0h32v32h-32z"/></clipPath><metadata/><path d="m0 0h32v32h-32z" fill="none"/><g clip-path="url(#a)"><path d="m30 23c0 1.105-.895 2-2 2-5.154 0-18.846 0-24 0-1.105 0-2-.895-2-2 0-3.65 0-11.35 0-15 0-1.105.895-2 2-2h24c1.105 0 2 .895 2 2z" fill="none" stroke="#000" stroke-width="4"/><path d="m30 23c0 .53-.211 1.039-.586 1.414s-.884.586-1.414.586c-5.154 0-18.846 0-24 0-.53 0-1.039-.211-1.414-.586s-.586-.884-.586-1.414c0-2.069 0-5 0-5h28z" fill="#603c2c"/><path d="m30 8c0-1.105-.895-2-2-2-5.154 0-18.846 0-24 0-1.105 0-2 .895-2 2v10c0 1.105.895 2 2 2h24c1.105 0 2-.895 2-2 0-2.661 0-7.339 0-10z" fill="#b46343"/><g fill="#332017"><circle cx="7" cy="13" r="3"/><circle cx="16" cy="13" r="3"/><circle cx="25" cy="13" r="3"/></g></g></svg>