<svg clip-rule="evenodd" fill-rule="evenodd" stroke-linecap="round" stroke-linejoin="round" stroke-miterlimit="1.5" viewBox="0 0 32 32" xmlns="http://www.w3.org/2000/svg" xmlns:xlink="http://www.w3.org/1999/xlink"><clipPath id="a"><path clip-rule="evenodd" d="m0 0h32v32h-32z"/></clipPath><clipPath id="b"><path clip-rule="evenodd" d="m2 2h28v28h-28z"/></clipPath><clipPath id="c"><path clip-rule="evenodd" d="m8 10v11h-2v-11zm18 0v11h-2v-11zm-12-1v12h-2v-12zm6 0v12h-2v-12z"/></clipPath><clipPath id="d"><path clip-rule="evenodd" d="m14 14v7h-2v-7zm6 0v7h-2v-7zm-12 0v7h-2v-7zm18 0v7h-2v-7z"/></clipPath><metadata/><path d="m0 0h32v32h-32z" fill="none"/><g clip-path="url(#a)"><path d="m32 2c0-.53-.211-1.039-.586-1.414s-.884-.586-1.414-.586h-28c-.53 0-1.039.211-1.414.586s-.586.884-.586 1.414v28c0 .53.211 1.039.586 1.414s.884.586 1.414.586h28c.53 0 1.039-.211 1.414-.586s.586-.884.586-1.414z"/><path d="m2 2h28v28h-28z" fill="#1f1c65"/><path d="m2 2h28v28h-28z" fill="none"/><g clip-path="url(#b)"><path d="m22 21h4v11h-4z" fill="#413c9b"/><path d="m22 21h4v5h-4z" fill="#332f79"/><path d="m6 21h4v11h-4z" fill="#413c9b"/><path d="m6 21h4v5h-4z" fill="#332f79"/><path d="m8 10v11h-2v-11zm18 0v11h-2v-11zm-12-1v12h-2v-12zm6 0v12h-2v-12z" fill="#5852bc"/><g clip-path="url(#c)"><path d="m-2 22s.443-1.388 1.041-3.256c1.822-5.704 8.854-9.744 16.958-9.744h.002c8.104 0 15.136 4.04 16.958 9.744.598 1.868 1.041 3.256 1.041 3.256" fill="none" stroke="#433e9f" stroke-width="2"/></g><path d="m-2 21s.443-1.388 1.041-3.256c1.822-5.704 8.854-9.744 16.958-9.744h.002c8.104 0 15.136 4.04 16.958 9.744.598 1.868 1.041 3.256 1.041 3.256" fill="none" stroke="#5852bc" stroke-width="2"/><path d="m2 20h28v4h-28z" fill="#5852bc"/></g><path d="m2 20h28v1h-28z" fill="#ba8418"/><g fill="#ffb648"><circle cx="16" cy="18" r="1"/><circle cx="10" cy="18" r="1"/><circle cx="4" cy="18" r="1"/><circle cx="28" cy="18" r="1"/><circle cx="22" cy="18" r="1"/></g><path d="m14 14v7h-2v-7zm6 0v7h-2v-7zm-12 0v7h-2v-7zm18 0v7h-2v-7z" fill="#885c03"/><g clip-path="url(#d)"><path d="m2 20h28v4h-28z" fill="#6a4802"/></g></g></svg>