<svg clip-rule="evenodd" fill-rule="evenodd" stroke-linecap="round" stroke-linejoin="round" stroke-miterlimit="5" viewBox="0 0 32 32" xmlns="http://www.w3.org/2000/svg" xmlns:xlink="http://www.w3.org/1999/xlink"><clipPath id="a"><path clip-rule="evenodd" d="m0 0h32v32h-32z"/></clipPath><metadata/><path d="m0 0h32v32h-32z" fill="none"/><g clip-path="url(#a)"><path d="m5.871 7.871c-.275.084-.568.129-.871.129-1.656 0-3-1.344-3-3s1.344-3 3-3 3 1.344 3 3c0 .303-.045.596-.129.871l3.129 3.129 1-1 5-3 1 3-4 2-.062.063 14.062 15.937 2 4-4-2-15.938-14.062-.062.062-2 4-3-1 3-5 1-1z" fill="none" stroke="#000" stroke-width="4"/><path d="m12 10-6-6-2 2 6 6z" fill="#604934"/><path d="m13 9 15 17 2 4-3-2-17-16z" fill="#e1f1f4"/><path d="m11 11 19 19-4-2-17-15z" fill="#98bdd0"/><g fill="#708e94"><path d="m5 17 3-5 4-4 5-3 1 3-4 2-4 4-2 4z"/><circle cx="5" cy="5" r="3"/></g></g></svg>