<svg clip-rule="evenodd" fill-rule="evenodd" stroke-linejoin="round" stroke-miterlimit="1.5" viewBox="0 0 32 32" xmlns="http://www.w3.org/2000/svg"><metadata/><path d="m0 0h32v32h-32z" fill="none"/><path d="m22.989 8.098c1.777-1.477 3.885-2.514 6.152-3.018.224-.05.359-.08.359-.08s.156 1.095.346 2.419c.379 2.657-.721 5.297-2.846 6.899v1.52c0 2.094-.338 4.175-1 6.162l-1.375-2.063-.286.716c-.872 2.18-2.385 4.044-4.339 5.347l-.183-1.831c-.933 1.317-2.266 2.314-3.817 2.831-1.551-.517-2.884-1.514-3.817-2.831l-.183 1.831c-1.954-1.303-3.467-3.167-4.339-5.347l-.286-.715-1.375 2.062c-.662-1.987-1-4.068-1-6.162v-1.52c-2.125-1.602-3.225-4.242-2.846-6.899.19-1.324.346-2.419.346-2.419s.135.03.359.08c2.267.504 4.375 1.541 6.152 3.018 1.095-.872 2.337-1.547 3.672-1.992.195-.065.317-.106.317-.106s.257.257.586.586c.199.199.379.414.539.642.496-.552 1.136-.982 1.874-1.228h.001.001c.738.246 1.378.676 1.874 1.228.16-.228.34-.443.539-.642.329-.329.586-.586.586-.586s.122.041.317.106c1.335.445 2.577 1.12 3.672 1.992z" fill="none" stroke="#000" stroke-width="4"/><path d="m17.875 7.228c.16-.228.34-.443.539-.642.329-.329.586-.586.586-.586s.122.041.317.106c1.764.588 3.368 1.579 4.683 2.894h1v3h2v3.838c0 2.094-.338 4.175-1 6.162l-1.375-2.063-.286.716c-.872 2.18-2.385 4.044-4.339 5.347l-.183-1.831c-.933 1.317-2.266 2.314-3.817 2.831-1.551-.517-2.884-1.514-3.817-2.831l-.183 1.831c-1.954-1.303-3.467-3.167-4.339-5.347l-.286-.715-1.375 2.062c-.662-1.987-1-4.068-1-6.162v-3.838h2v-3h1c1.315-1.315 2.919-2.306 4.683-2.894.195-.065.317-.106.317-.106s.257.257.586.586c.199.199.379.414.539.642.496-.552 1.136-.982 1.874-1.228h.001.001c.738.246 1.378.676 1.874 1.228z" fill="#9b6c3d"/><path d="m29.5 5c-.053 1.508-1.228 3.437-2.644 4.286-.049.03-.098.059-.147.088-.864.519-1.705 1.501-2.644 1.345-.542-.719-1.247-1.31-2.065-1.719 1.959-1.959 4.437-3.319 7.141-3.92.224-.05.359-.08.359-.08z" fill="#9b6c3d"/><path d="m29.855 7.484c.394 2.76-.831 5.5-3.15 7.046-.001.001-.001.001-.002.001-.172.115-.386.146-.584.084-.197-.061-.356-.208-.433-.4-.23-.575-.554-1.384-.856-2.139-.195-.488-.453-.944-.765-1.357.189-.969.78-1.826 1.644-2.345.049-.029.098-.058.147-.088 1.416-.849 2.653-1.965 3.644-3.286z" fill="#d3b190"/><path d="m2.859 5.08c2.704.601 5.182 1.961 7.141 3.92-1.076.538-1.956 1.39-2.5 2.428 0 0 .028-.015 0-.035-.346-.242-2.59-1.742-3.847-3.11-1.093-1.189-1.104-2.602-1.153-3.283z" fill="#9b6c3d"/><path d="m2.5 5c.653 1.306 1.665 2.399 2.917 3.15.125.075.25.15.374.224 1.06.637 1.709 1.783 1.709 3.019v.035l-.33.648c-.302.755-.626 1.564-.856 2.139-.077.192-.236.339-.433.4-.198.062-.412.031-.584-.084-.001 0-.001 0-.002-.001-2.319-1.546-3.544-4.286-3.15-7.046.193-1.353.355-2.484.355-2.484z" fill="#d3b190"/><path d="m11.778 10c-1.09 0-2.086.616-2.573 1.59-.357.715-.751 1.502-.988 1.976-.13.259-.079.572.126.777.29.29.657.657.657.657s-.404 2.02-.698 3.492c-.175.874.298 1.748 1.126 2.079.249.1.516.206.787.315 1.84.736 3.803 1.114 5.785 1.114 1.982 0 3.945-.378 5.785-1.114.271-.109.538-.215.787-.315.828-.331 1.301-1.205 1.126-2.079-.219-1.096-.499-2.495-.627-3.139-.044-.22.025-.449.184-.608.122-.122.27-.27.402-.402.205-.205.256-.518.126-.777-.237-.474-.631-1.261-.988-1.976-.487-.974-1.483-1.59-2.573-1.59-2.27 0-6.174 0-8.444 0z" fill="#d3b190"/><path d="m14.158 15.158c-.042-.042-.065-.099-.065-.158s.023-.116.065-.158l.135-.135c.453-.453 1.067-.707 1.707-.707.64 0 1.254.254 1.707.707.049.049.095.095.135.135.042.042.065.099.065.158s-.023.116-.065.158c-.062.062-.132.132-.193.193-.098.098-.218.172-.349.216-.409.136-1.3.433-1.3.433s-.891-.297-1.3-.433c-.131-.044-.251-.118-.349-.216-.061-.061-.131-.131-.193-.193z" fill="#383838"/><path d="m13 12c0-.552-.448-1-1-1s-1 .448-1 1v2c0 .552.448 1 1 1s1-.448 1-1c0-.611 0-1.389 0-2z"/><path d="m21 12c0-.552-.448-1-1-1s-1 .448-1 1v2c0 .552.448 1 1 1s1-.448 1-1c0-.611 0-1.389 0-2z"/><path d="m10 18c0-.652.193-1.289.555-1.832.23-.346.445-.668.445-.668l1 3.5z" fill="#fff"/><path d="m22 18c0-.652-.193-1.289-.555-1.832-.23-.346-.445-.668-.445-.668l-1 3.5z" fill="#fff"/><path d="m10 18.5s.122.061.317.158c1.764.883 3.71 1.342 5.683 1.342 1.973 0 3.919-.459 5.683-1.342.195-.097.317-.158.317-.158" fill="none" stroke="#81654c" stroke-linecap="round" stroke-width="1.5"/></svg>