<svg clip-rule="evenodd" fill-rule="evenodd" stroke-linecap="round" stroke-miterlimit="1.5" viewBox="0 0 32 32" xmlns="http://www.w3.org/2000/svg" xmlns:xlink="http://www.w3.org/1999/xlink"><clipPath id="a"><path clip-rule="evenodd" d="m0 0h32v32h-32z"/></clipPath><clipPath id="b"><path clip-rule="evenodd" d="m7 25h23v-17h-5.372c-3.931 0-7.621 1.874-9.904 4.475-2.453 2.795-3.989 4.535-7.109 5.328-2.617.666-5.615 1.284-5.615 4.066 0 2.272 2.131 3.131 5 3.131z"/></clipPath><metadata/><path d="m0 0h32v32h-32z" fill="none"/><g clip-path="url(#a)"><path d="m2 28h28v2h-28z" fill="none" stroke="#000" stroke-width="4"/><path d="m7 25h23v-17h-5.372c-3.931 0-7.621 1.874-9.904 4.475-2.453 2.795-3.989 4.535-7.109 5.328-2.617.666-5.615 1.284-5.615 4.066 0 2.272 2.131 3.131 5 3.131z" fill="none" stroke="#000" stroke-width="4"/><path d="m2 28h28v2h-28z" fill="#666"/><path d="m7 25h23v-17h-5.372c-3.931 0-7.621 1.874-9.904 4.475-2.453 2.795-3.989 4.535-7.109 5.328-2.617.666-5.615 1.284-5.615 4.066 0 2.272 2.131 3.131 5 3.131z" fill="#f2f2f2"/><g clip-path="url(#b)"><path d="m0 23h31v3h-31z" fill="#ccc"/><g fill="none"><path d="m1 21c3.169-.076 7.437-.1 10.414-1 3.824-1.156 6.974-1 11.586-1h8" stroke="#27acbb" stroke-width="2"/><path d="m4.856 17.56s2.791 1.317 2.791 4.472c0 2.612-2.98 4.008-2.98 4.008" stroke="#a8a8a8" stroke-linejoin="round"/></g></g><path d="m14 11h7.5c1.381 0 2.5 1.119 2.5 2.5 0 .663-.263 1.299-.732 1.768s-1.105.732-1.768.732c-4.026 0-11.5 0-11.5 0z"/><path d="m29 12.5c0-.398-.158-.779-.439-1.061-.282-.281-.663-.439-1.061-.439s-.779.158-1.061.439c-.281.282-.439.663-.439 1.061v2c0 .398.158.779.439 1.061.282.281.663.439 1.061.439s.779-.158 1.061-.439c.281-.282.439-.663.439-1.061z"/></g></svg>