<svg clip-rule="evenodd" fill-rule="evenodd" stroke-linecap="round" stroke-miterlimit="1.5" viewBox="0 0 32 32" xmlns="http://www.w3.org/2000/svg" xmlns:xlink="http://www.w3.org/1999/xlink"><clipPath id="a"><path clip-rule="evenodd" d="m0 0h32v32h-32z"/></clipPath><metadata/><path d="m0 0h32v32h-32z" fill="none"/><g clip-path="url(#a)"><path d="m5.171 28h-2.171c-.552 0-1-.448-1-1 0-3.414 0-14.586 0-18 0-.265.105-.52.293-.707.187-.188.442-.293.707-.293h24.438c.918 0 1.718.625 1.941 1.515.21.843.452 1.808.561 2.246.04.159.06.322.06.485v14.754c0 .552-.448 1-1 1h-2.171c-.412 1.165-1.524 2-2.829 2s-2.417-.835-2.829-2h-10.342c-.412 1.165-1.524 2-2.829 2s-2.417-.835-2.829-2z" fill="none" stroke="#000" stroke-width="4"/><path d="m29.526 10.105.414 1.656c.04.159.06.322.06.485v9.754l-.613 1v2l.613 1v1c0 .265-.105.52-.293.707-.187.188-.442.293-.707.293h-1l-1-1h-6l-1 1h-8l-1-1h-6l-1 1h-1c-.265 0-.52-.105-.707-.293-.188-.187-.293-.442-.293-.707v-1l.522-.5-.522-.5v-1l1-1-1-1v-11.895l1-1.105h25z" fill="#f11717"/><path d="m2 10.105v-1.105c0-.552.448-1 1-1h24.438c.918 0 1.718.625 1.941 1.515l.147.59h-27.526z" fill="#f55959"/><path d="m30 22h-28v2h27l1-1z" fill="#f3f3f3"/><g fill="#a60a0a"><path d="m13 25h2v1h-2z"/><path d="m2 25h1v1h-1z"/><path d="m17 25h2v1h-2z"/></g><path d="m30 23h-.001c-.552 0-.999.447-.999.999v1.001c0 .552.448 1 1 1z" fill="#2c2c2c"/><path d="m12 26.812c0-1.011-.402-1.981-1.117-2.695-.715-.715-1.684-1.117-2.695-1.117-.125 0-.251 0-.376 0-1.011 0-1.98.402-2.695 1.117-.715.714-1.117 1.684-1.117 2.695v1.188h8z" fill="#333"/><circle cx="8" cy="27" fill="#5a5a5a" r="3"/><circle cx="8" cy="27" fill="#bfbfbf" r="1.5"/><path d="m28 26.812c0-1.011-.402-1.981-1.117-2.695-.715-.715-1.684-1.117-2.695-1.117-.125 0-.251 0-.376 0-1.011 0-1.98.402-2.695 1.117-.715.714-1.117 1.684-1.117 2.695v1.188h8z" fill="#333"/><circle cx="24" cy="27" fill="#5a5a5a" r="3"/><circle cx="24" cy="27" fill="#bfbfbf" r="1.5"/><path d="m26 13c0-.265-.105-.52-.293-.707-.187-.188-.442-.293-.707-.293-1.459 0-4 0-4 0l-1 1-1-1h-9l-1 1-1-1h-4c-.265 0-.52.105-.707.293-.188.187-.293.442-.293.707v7c0 .265.105.52.293.707.187.188.442.293.707.293h4l1-1 1 1h9l1-1 1 1h4c.265 0 .52-.105.707-.293.188-.187.293-.442.293-.707 0-1.732 0-5.268 0-7z"/><path d="m31 12h-3c-.552 0-1 .448-1 1v7c0 .552.448 1 1 1h3z"/><path d="m8 12h2v9h-2z" fill="#333"/><path d="m19 12h2v9h-2z" fill="#333"/></g></svg>