<svg clip-rule="evenodd" fill-rule="evenodd" stroke-linecap="round" stroke-linejoin="round" stroke-miterlimit="1.5" viewBox="0 0 32 32" xmlns="http://www.w3.org/2000/svg"><metadata/><g fill="none"><path d="m0 0h32v32h-32z"/><ellipse cx="16" cy="28.5" rx="5" ry="1.5" stroke="#000" stroke-width="4"/><circle cx="16" cy="4" r="2" stroke="#000" stroke-width="4"/><path d="m15 5h2v23h-2z" stroke="#000" stroke-width="4"/><path d="m6 6h8v8h-8z" stroke="#000" stroke-width="4"/></g><path d="m17 14h2v8h-2z" fill="#e82731" stroke="#000" stroke-width="4"/><ellipse cx="16" cy="28.5" fill="#5a5a5a" rx="5" ry="1.5"/><ellipse cx="16" cy="28.5" fill="#808080" rx="1" ry=".3"/><path d="m15 5.5h2v23h-2z" fill="#a6a6a6"/><path d="m6 6h8v8h-8z" fill="#ccc"/><path d="m6 6h8v4h-8z" fill="#fff"/><path d="m11 7.388c0-.214-.174-.388-.388-.388h-1.224c-.214 0-.388.174-.388.388v1.224c0 .214.174.388.388.388h1.224c.214 0 .388-.174.388-.388z" fill="#e82731"/><circle cx="16" cy="4" fill="#e82731" r="2"/><path d="m17 14h2v8h-2z" fill="#7f7f7f"/></svg>