<svg clip-rule="evenodd" fill-rule="evenodd" stroke-linecap="round" stroke-miterlimit="1.5" viewBox="0 0 32 32" xmlns="http://www.w3.org/2000/svg" xmlns:xlink="http://www.w3.org/1999/xlink"><clipPath id="a"><path clip-rule="evenodd" d="m0 0h32v32h-32z"/></clipPath><metadata/><path d="m0 0h32v32h-32z" fill="none"/><g clip-path="url(#a)"><path d="m28 26.801c0-2.069-.822-4.053-2.285-5.516s-3.447-2.285-5.516-2.285c-2.692 0-5.706 0-8.398 0-2.069 0-4.053.822-5.516 2.285s-2.285 3.447-2.285 5.516v3.199h24s0-1.399 0-3.199zm-6-18.803c0-3.313-2.685-5.998-5.998-5.998-.001 0-.003 0-.004 0-3.313 0-5.998 2.685-5.998 5.998v3.004c0 3.313 2.685 5.998 5.998 5.998h.004c3.313 0 5.998-2.685 5.998-5.998 0-.989 0-2.015 0-3.004z" fill="none" stroke="#000" stroke-width="4"/><path d="m28 26.801c0-2.069-.822-4.053-2.285-5.516s-3.447-2.285-5.516-2.285c-2.692 0-5.706 0-8.398 0-2.069 0-4.053.822-5.516 2.285s-2.285 3.447-2.285 5.516v3.199h24s0-1.399 0-3.199zm-6-18.803c0-3.313-2.685-5.998-5.998-5.998-.001 0-.003 0-.004 0-3.313 0-5.998 2.685-5.998 5.998v3.004c0 3.313 2.685 5.998 5.998 5.998h.004c3.313 0 5.998-2.685 5.998-5.998 0-.989 0-2.015 0-3.004z" fill="#666"/></g></svg>