<svg clip-rule="evenodd" fill-rule="evenodd" stroke-linecap="round" stroke-miterlimit="3" viewBox="0 0 32 32" xmlns="http://www.w3.org/2000/svg" xmlns:xlink="http://www.w3.org/1999/xlink"><clipPath id="a"><path clip-rule="evenodd" d="m0 0h32v32h-32z"/></clipPath><metadata/><path d="m0 0h32v32h-32z" fill="none"/><g clip-path="url(#a)"><g fill="none" stroke="#000" stroke-width="4"><path d="m20 6c0-1.061-.421-2.078-1.172-2.828-.75-.751-1.767-1.172-2.828-1.172-1.061 0-2.078.421-2.828 1.172-.751.75-1.172 1.767-1.172 2.828v24h8s0-16.262 0-24z"/><path d="m10 12c0-.53-.211-1.039-.586-1.414s-.884-.586-1.414-.586c-1.105 0-2 .895-2 2v5c0 3.866 3.134 7 7 7h.5c1.381 0 2.5-1.119 2.5-2.5 0-.663-.263-1.299-.732-1.768s-1.105-.732-1.768-.732c-.5 0-1.019 0-1.5 0-1.105 0-2-.895-2-2 0-1.488 0-3.512 0-5z"/><path d="m22 8c0-1.105.895-2 2-2 1.105 0 2 .895 2 2v4.488c0 1.727-.686 3.383-1.907 4.605-1.222 1.221-2.878 1.907-4.605 1.907-.001 0-.001 0-.002 0-1.373 0-2.486-1.113-2.486-2.486 0-.005 0-.009 0-.014 0-.663.263-1.299.732-1.768s1.105-.732 1.768-.732c1.381 0 2.5-1.119 2.5-2.5 0-1.127 0-2.44 0-3.5z"/></g><path d="m14.5 2.295c.45-.19.97-.295 1.5-.295 1.061 0 2.078.421 2.828 1.172.751.75 1.172 1.767 1.172 2.828v24h-3l-2.5-2s.245-25.605 0-25.705z" fill="#74bc41"/><path d="m14.5 2.295c.511.209.953.502 1.328.877.751.75 1.172 1.767 1.172 2.828v24h-5s0-16.262 0-24c0-1.061.421-2.078 1.172-2.828.375-.375.817-.668 1.328-.877z" fill="#609b36"/><path d="m8 10c.53 0 1.039.211 1.414.586s.586.884.586 1.414v5c0 1.105.895 2 2 2h1.5c.663 0 1.299.263 1.768.732.351.352.587.797.633 1.268l-5.901 1-3-2.268v-7.732z" fill="#74bc41"/><path d="m8 10v7c0 1.061.421 2.078 1.172 2.828.75.751 1.767 1.172 2.828 1.172h3.901l.099.5c0 1.381-1.119 2.5-2.5 2.5-.162 0-.329 0-.5 0-3.866 0-7-3.134-7-7 0-1.835 0-3.669 0-5 0-1.077.851-1.955 2-2z" fill="#609b36"/><path d="m22 8c0-1.105.895-2 2-2 1.105 0 2 .895 2 2v4.488c0 1.727-.686 3.383-1.907 4.605-1.222 1.221-2.878 1.907-4.605 1.907-.001 0-.001 0-.002 0-1.373 0-2.486-1.113-2.486-2.486 0-.005 0-.009 0-.014 0-.663.263-1.299.732-1.768s1.105-.732 1.768-.732c1.381 0 2.5-1.119 2.5-2.5 0-1.127 0-2.44 0-3.5z" fill="#74bc41"/></g></svg>