<svg clip-rule="evenodd" fill-rule="evenodd" stroke-linejoin="round" stroke-miterlimit="2" viewBox="0 0 32 32" xmlns="http://www.w3.org/2000/svg" xmlns:xlink="http://www.w3.org/1999/xlink"><clipPath id="a"><path clip-rule="evenodd" d="m0 0h32v32h-32z"/></clipPath><metadata/><path d="m0 0h32v32h-32z" fill="none"/><g clip-path="url(#a)"><path d="m10 7.528v-9.356l6.287 6.287c1.097 1.096 1.713 2.584 1.713 4.135 0 .578-.134 1.147-.393 1.663l-.371.743h4.764c2.209 0 4 1.791 4 4 0 .729-.195 1.412-.536 2 .341.588.536 1.271.536 2 0 .729-.195 1.412-.536 2 .341.588.536 1.271.536 2 0 .726-.193 1.406-.532 1.992l4.693 1.667c-1.662 1.26-3.323 2.52-4.985 3.779-1.083.82-2.497 1.013-3.773.575l-5.583-2.013h-9.82c-2.209 0-4-1.791-4-4 0-2.22 0-5.78 0-8 0-2.209 1.791-4 4-4h1.264z"/><path d="m12 15h-6c-1.105 0-2 .895-2 2v8c0 1.105.895 2 2 2h5l1-1z" fill="#bb77f3"/><path d="m14.427 10.754v1.326c0 .552.639.92 1.191.92h6.382c1.105 0 2 .895 2 2 0 1.105-.895 2-2 2 1.105 0 2 .895 2 2 0 1.105-.895 2-2 2 1.105 0 2 .895 2 2 0 1.105-.895 2-2 2h-2.484l6.484 2.304s-1.178.893-2.032 1.54c-.54.409-1.25.517-1.887.288l-5.912-2.132h-5.144c-.803 0-1.572-.319-2.139-.886s-.886-1.336-.886-2.139c0-2.012 0-4.583 0-6.253 0-1.133.264-2.249.77-3.262l1.73-3.46.5-.246zm.573-.583h-3.784l-.216-.171 1-2 .283-.278h3.217l.454.278c.03.195.046.394.046.594 0 .267-.062.53-.181.769l-.319.637zm.5-2.864h-3.217l-.283-.307v-4s1.69 1.69 2.873 2.873c.329.329.592.711.781 1.127z" fill="#c596fd"/><path d="m15.5 10-.776 1.553c-.155.31-.139.678.043.973.183.295.504.474.851.474h-1.618c-.552 0-1-.448-1-1 0-.265.105-.52.293-.707.187-.188.442-.293.707-.293h-3.5l.5-1zm.154-3c.145.317.246.653.3 1h-3.954v-1z" fill="#bb77f3"/></g></svg>