<svg clip-rule="evenodd" fill-rule="evenodd" stroke-linejoin="round" stroke-miterlimit="2" viewBox="0 0 32 32" xmlns="http://www.w3.org/2000/svg" xmlns:xlink="http://www.w3.org/1999/xlink"><clipPath id="a"><path clip-rule="evenodd" d="m16.317 26h-5.292c-.803 0-1.572-.319-2.139-.886s-.886-1.336-.886-2.139c0-2.012 0-4.583 0-6.253 0-1.133.264-2.249.77-3.262 1.162-2.324 3.23-6.46 3.23-6.46v-4h.002c2.208 0 3.998 1.79 3.998 3.998v.53c0 .31-.072.617-.211.894-.252.505-.687 1.375-1.065 2.131-.155.31-.139.678.043.973.183.295.504.474.851.474h6.382c1.105 0 2 .895 2 2 0 1.105-.895 2-2 2 1.105 0 2 .895 2 2 0 1.105-.895 2-2 2 1.105 0 2 .895 2 2 0 1.105-.895 2-2 2h-2.171c1.886.625 3.761 1.282 5.645 1.91.239.086.452.216.625.403.109.117.198.251.265.396.231.504.16 1.111-.182 1.548-.112.143-.251.266-.407.36-.155.095-.329.16-.508.192-.227.041-.454.025-.676-.033-2.708-.834-5.377-1.79-8.065-2.686-.072-.026-.142-.056-.209-.09z"/></clipPath><metadata/><path d="m0 0h32v32h-32z" fill="none"/><path d="m7.264 12 2.736-5.472v-5.528c.719 0 1.437-.007 2.156.002.203.008.405.02.607.046.444.056.881.163 1.301.316.727.266 1.399.674 1.971 1.194.679.617 1.212 1.388 1.548 2.24.182.462.306.946.369 1.438.026.202.038.405.046.608.003.233.002.465.002.698-.005.383-.057.761-.166 1.128-.065.219-.151.429-.25.634l-.348.696c1.621-.002 3.242-.019 4.863.001.165.006.329.018.492.043.419.062.827.192 1.206.382.469.236.891.565 1.234.963.319.371.57.801.735 1.262.155.432.234.89.234 1.349 0 .589-.132 1.176-.383 1.709-.047.099-.098.196-.153.291.12.207.221.426.302.651.155.432.234.89.234 1.349 0 .589-.132 1.176-.383 1.709-.047.099-.098.196-.153.291.12.207.221.426.302.651.155.432.234.89.234 1.349 0 .589-.132 1.176-.383 1.709-.019.04-.039.08-.059.12.176.059.353.119.53.178.089.033.089.033.176.068.39.166.751.385 1.063.674.723.668 1.136 1.635 1.121 2.619-.005.32-.053.638-.144.945-.115.384-.296.747-.533 1.07-.255.347-.574.647-.937.88-.371.238-.785.405-1.218.489-.357.069-.724.081-1.085.037-.178-.021-.352-.059-.527-.101-.379-.118-.758-.238-1.137-.358-2.321-.75-4.627-1.545-6.937-2.326-3.344.01-6.688.037-10.032-.005-.102-.004-.102-.004-.204-.01-.431-.039-.852-.135-1.251-.304-1.014-.428-1.822-1.276-2.2-2.31-.15-.41-.225-.837-.242-1.272-.036-2.735-.036-5.471 0-8.206.005-.135.014-.269.031-.404.042-.329.124-.652.246-.96.201-.509.507-.975.894-1.362.433-.433.965-.764 1.545-.961.411-.138.838-.205 1.27-.21z"/><path d="m16 14h-10c-1.105 0-2 .895-2 2v8c0 1.105.895 2 2 2h10z" fill="#e4b295"/><path d="m16.317 26h-5.292c-.803 0-1.572-.319-2.139-.886s-.886-1.336-.886-2.139c0-2.012 0-4.583 0-6.253 0-1.133.264-2.249.77-3.262 1.162-2.324 3.23-6.46 3.23-6.46v-4h.002c2.208 0 3.998 1.79 3.998 3.998v.53c0 .31-.072.617-.211.894-.252.505-.687 1.375-1.065 2.131-.155.31-.139.678.043.973.183.295.504.474.851.474h6.382c1.105 0 2 .895 2 2 0 1.105-.895 2-2 2 1.105 0 2 .895 2 2 0 1.105-.895 2-2 2 1.105 0 2 .895 2 2 0 1.105-.895 2-2 2h-2.171c1.886.625 3.761 1.282 5.645 1.91.239.086.452.216.625.403.109.117.198.251.265.396.231.504.16 1.111-.182 1.548-.112.143-.251.266-.407.36-.155.095-.329.16-.508.192-.227.041-.454.025-.676-.033-2.708-.834-5.377-1.79-8.065-2.686-.072-.026-.142-.056-.209-.09z" fill="#f9d8c8"/><g clip-path="url(#a)"><path d="m19.044 10.001c.149.01.292.045.424.115.117.062.222.148.306.251.075.091.133.196.171.307.034.098.052.201.055.304.008.359-.184.702-.494.884-.142.084-.298.126-.462.137-1.696.038-3.392.038-5.088 0-.149-.01-.292-.045-.424-.115-.117-.062-.222-.148-.306-.251-.075-.091-.133-.196-.171-.307-.034-.098-.052-.201-.055-.304-.008-.359.184-.702.494-.884.142-.084.298-.126.462-.137 1.696-.038 3.392-.038 5.088 0z" fill="#e4b295" fill-rule="nonzero"/></g></svg>