<svg clip-rule="evenodd" fill-rule="evenodd" stroke-linejoin="round" stroke-miterlimit="2" viewBox="0 0 32 32" xmlns="http://www.w3.org/2000/svg"><metadata/><path d="m0 0h32v32h-32z" fill="none"/><path d="m20.056 29h-14.056c-2.209 0-4-1.791-4-4 0-2.661 0-7.339 0-10 0-2.209 1.791-4 4-4h2.93l3.07-4.606v-5.394h2.002c3.313 0 5.998 2.685 5.998 5.998v1.53c0 .158-.009.316-.028.472h4.028c1.061 0 2.078.421 2.828 1.172.751.75 1.172 1.767 1.172 2.828 0 .708-.188 1.396-.535 1.999.34.588.535 1.271.535 1.999v.004c0 .728-.195 1.411-.535 1.999.347.603.535 1.291.535 1.999 0 .941-.331 1.847-.929 2.563l.718.359c1.974.988 2.776 3.392 1.789 5.367-.988 1.974-3.392 2.776-5.367 1.789z"/><path d="m16.5 13h-10.5c-.53 0-1.039.211-1.414.586s-.586.884-.586 1.414v10c0 .53.211 1.039.586 1.414s.884.586 1.414.586h9.295l1.205-1z" fill="#cc600f"/><path d="m20.528 27h-5.233c-1.934 0-3.79-.769-5.158-2.137s-2.137-3.224-2.137-5.158c0-.314 0-.619 0-.911 0-1.822.539-3.603 1.55-5.119 1.778-2.667 4.45-6.675 4.45-6.675v-4h.002c2.208 0 3.998 1.79 3.998 3.998v1.53c0 .31-.072.617-.211.894-.021.042-.043.086-.065.131-.155.31-.139.678.043.973.183.295.504.474.851.474h5.382c.53 0 1.039.211 1.414.586s.586.884.586 1.414-.211 1.039-.586 1.414-.884.586-1.414.586h.002c1.103 0 1.998.895 1.998 1.998v.004c0 1.103-.895 1.998-1.998 1.998h-.002c.53 0 1.039.211 1.414.586s.586.884.586 1.414-.211 1.039-.586 1.414-.884.586-1.414.586h-2.528l5.422 2.711c.224.114.426.265.594.452.412.46.592 1.101.478 1.708-.041.215-.118.423-.225.614-.111.195-.254.372-.422.519-.188.164-.407.293-.641.377-.242.087-.501.128-.757.118-.284-.011-.561-.085-.815-.21z" fill="#ef8e10"/></svg>