<svg clip-rule="evenodd" fill-rule="evenodd" stroke-linecap="round" stroke-linejoin="round" stroke-miterlimit="1.5" viewBox="0 0 32 32" xmlns="http://www.w3.org/2000/svg" xmlns:xlink="http://www.w3.org/1999/xlink"><clipPath id="a"><path clip-rule="evenodd" d="m0 0h32v32h-32z"/></clipPath><metadata/><path d="m0 0h32v32h-32z" fill="none"/><g clip-path="url(#a)"><path d="m23 6h7v4h-4.171c.111.626.171 1.299.171 2v15c0 .552-.448 1-1 1-3.904 0-18.096 0-22 0-.552 0-1-.448-1-1v-15c0-3.311 1.344-6 3-6z" fill="none" stroke="#000" stroke-width="4"/><path d="m21 6h9v4h-9z" fill="#333"/><path d="m5 6h18c1.656 0 3 2.689 3 6v15c0 .552-.448 1-1 1-3.541 0-15.459 0-19 0-.552 0-1-.448-1-1z" fill="#595959"/><path d="m2 12c0-3.311 1.344-6 3-6s3 2.689 3 6v15c0 .265-.105.52-.293.707-.187.188-.442.293-.707.293h-4c-.265 0-.52-.105-.707-.293-.188-.187-.293-.442-.293-.707z" fill="#333"/><path d="m6.248 14.889c-.335.579-.771.929-1.248.929-1.054 0-1.909-1.711-1.909-3.818s.855-3.818 1.909-3.818c.477 0 .913.35 1.248.929-1.244.354-1.244 5.424 0 5.778z" fill="#618f77"/><path d="m6.248 9.111c.405.7.661 1.735.661 2.889s-.256 2.189-.661 2.889c-1.244-.354-2.157-1.514-2.157-2.889s.913-2.535 2.157-2.889z" fill="#4f7460"/><path d="m24 12c0-1.657-1.343-3-3-3-3.155 0-7.94 0-10 0-.552 0-1 .448-1 1v8c0 .552.448 1 1 1h10c1.657 0 3-1.343 3-3 0-1.265 0-2.735 0-4z" fill="#333"/></g></svg>