<svg clip-rule="evenodd" fill-rule="evenodd" stroke-linejoin="round" stroke-miterlimit="1.5" viewBox="0 0 32 32" xmlns="http://www.w3.org/2000/svg" xmlns:xlink="http://www.w3.org/1999/xlink"><clipPath id="a"><path clip-rule="evenodd" d="m0 0h32v32h-32z"/></clipPath><clipPath id="b"><circle clip-rule="evenodd" cx="18" cy="20" r="8"/></clipPath><metadata/><path d="m0 0h32v32h-32z" fill="none"/><g clip-path="url(#a)"><path d="m10 8h.146c1.136 0 2.175-.642 2.683-1.658.209-.417.427-.854.618-1.236.339-.678 1.032-1.106 1.789-1.106h5.528c.757 0 1.45.428 1.789 1.106.191.382.409.819.618 1.236.508 1.016 1.547 1.658 2.683 1.658h.146c1.061 0 2.078.421 2.828 1.172.751.75 1.172 1.767 1.172 2.828v15c0 1.657-1.343 3-3 3h-22c-.329 0-.671 0-1 0-.53 0-1.039-.211-1.414-.586s-.586-.884-.586-1.414c0-3.61 0-11.277 0-16 0-2.209 1.791-4 4-4v-2h4z" fill="none" stroke="#000" stroke-width="4"/><path d="m6 6h4v3h-4z" fill="#2f2f2f"/><path d="m5 30h22c1.657 0 3-1.343 3-3 0-3.887 0-10.677 0-15 0-1.061-.421-2.078-1.172-2.828-.75-.751-1.767-1.172-2.828-1.172-.049 0-.098 0-.146 0-1.136 0-2.175-.642-2.683-1.658-.209-.417-.427-.854-.618-1.236-.339-.678-1.032-1.106-1.789-1.106-1.503 0-4.025 0-5.528 0-.757 0-1.45.428-1.789 1.106-.191.382-.409.819-.618 1.236-.508 1.016-1.547 1.658-2.683 1.658-1.763 0-4.146 0-4.146 0l-1 16z" fill="#323232"/><circle cx="18" cy="20" fill="#1a1a1a" r="10"/><circle cx="18" cy="20" fill="#585858" r="8"/><g clip-path="url(#b)"><circle cx="18" cy="20" fill="#618f77" r="6"/><circle cx="18" cy="20" fill="#25362d" r="4"/></g><ellipse cx="18" cy="17" fill="#eff4f1" fill-opacity=".34" rx="3.316" ry="2"/><path d="m2 12c0-2.209 1.791-4 4-4h3v2.757c0 .796-.316 1.559-.879 2.122-.08.08-.162.162-.242.242-.563.563-.879 1.326-.879 2.122v12.757c0 1.105-.895 2-2 2-.329 0-.671 0-1 0-.53 0-1.039-.211-1.414-.586s-.586-.884-.586-1.414c0-3.61 0-11.277 0-16z" fill="#595959"/><path d="m15 5h6v1h-6z" fill="#8b8b8b"/><path d="m8 10.5c0-.398-.158-.779-.439-1.061-.282-.281-.663-.439-1.061-.439-.327 0-.673 0-1 0-.398 0-.779.158-1.061.439-.281.282-.439.663-.439 1.061s.158.779.439 1.061c.282.281.663.439 1.061.439h1c.398 0 .779-.158 1.061-.439.281-.282.439-.663.439-1.061z" fill="#1d1d1d"/></g></svg>