<svg clip-rule="evenodd" fill-rule="evenodd" stroke-linejoin="round" stroke-miterlimit="1.5" viewBox="0 0 32 32" xmlns="http://www.w3.org/2000/svg" xmlns:xlink="http://www.w3.org/1999/xlink"><clipPath id="a"><path clip-rule="evenodd" d="m0 0h32v32h-32z"/></clipPath><metadata/><path d="m0 0h32v32h-32z" fill="none"/><g clip-path="url(#a)"><circle cx="16" cy="16" r="10"/><path d="m22 2 2 3h3v3l3 2-8 3-3-3z" fill="none" stroke="#000" stroke-width="4"/><path d="m10 30-2-3h-3v-3l-3-2 8-3 3 3z" fill="none" stroke="#000" stroke-width="4"/><path d="m20.895 4.947 1.105-.947 6 6-1 1.125-5 1.875-3-3z" fill="#660eae"/><path d="m11.105 27.053-1.105.947-6-6 1-1.125 5-1.875 3 3z" fill="#660eae"/><path d="m24 5h3v3l3 2-3 1.125v-.125l-2-1-1-2-2-1-1-2-.105-.053 1.105-2.947z" fill="#4c1a74"/><path d="m8 27h-3v-3l-3-2 3-1.125v.125l2 1 1 2 2 1 1 2 .105.053-1.105 2.947z" fill="#4c1a74"/><circle cx="16" cy="16" fill="#982eee" r="8"/><ellipse cx="16" cy="12" fill="#b764ff" rx="5" ry="3"/></g></svg>