<svg clip-rule="evenodd" fill-rule="evenodd" stroke-linecap="round" stroke-linejoin="round" stroke-miterlimit="1.5" viewBox="0 0 32 32" xmlns="http://www.w3.org/2000/svg" xmlns:xlink="http://www.w3.org/1999/xlink"><clipPath id="a"><path clip-rule="evenodd" d="m0 0h32v32h-32z"/></clipPath><metadata/><path d="m0 0h32v32h-32z" fill="none"/><g clip-path="url(#a)"><path d="m15 30v-6.501c-1.356 1.566-3.343 2.501-5.472 2.501h-1.528c1.002-2.004 2.859-3.404 5-3.849v-.018c-3.647.964-7.561.586-11-1.133 2.889-1.445 6.114-1.942 9.234-1.492-2.391-1.548-4.336-3.712-5.619-6.278-.857-1.713-1.615-3.23-1.615-3.23s1.517.758 3.23 1.615c3.062 1.531 5.551 4.003 7.103 7.052l.007-.007c-2.012-4.395-1.932-9.475.238-13.815.803-1.606 1.422-2.845 1.422-2.845s.619 1.239 1.422 2.845c2.17 4.34 2.25 9.42.238 13.815l.007.007c1.552-3.049 4.041-5.521 7.103-7.052 1.713-.857 3.23-1.615 3.23-1.615s-.758 1.517-1.615 3.23c-1.283 2.566-3.228 4.73-5.619 6.278 3.12-.45 6.345.047 9.234 1.492-3.439 1.719-7.353 2.097-11 1.133v.018c2.141.445 3.998 1.845 5 3.849s-.653 0-1.528 0c-2.129 0-4.116-.935-5.472-2.501v6.501z" fill="none" stroke="#000" stroke-width="4"/><path d="m14.34 18.66c-2.012-4.395-1.932-9.475.238-13.815.803-1.606 1.422-2.845 1.422-2.845s.619 1.239 1.422 2.845c2.17 4.34 2.25 9.42.238 13.815l.007.007c1.552-3.049 4.041-5.521 7.103-7.052 1.713-.857 3.23-1.615 3.23-1.615s-.758 1.517-1.615 3.23c-1.283 2.566-3.228 4.73-5.619 6.278 3.12-.45 6.345.047 9.234 1.492-3.439 1.719-7.353 2.097-11 1.133v.018c2.141.445 3.998 1.845 5 3.849h-1.528c-2.129 0-4.116-.935-5.472-2.501v6.501h-2v-6.501c-1.356 1.566-3.343 2.501-5.472 2.501-.875 0-1.528 0-1.528 0 1.002-2.004 2.859-3.404 5-3.849v-.018c-3.647.964-7.561.586-11-1.133 2.889-1.445 6.114-1.942 9.234-1.492-2.391-1.548-4.336-3.712-5.619-6.278-.857-1.713-1.615-3.23-1.615-3.23s1.517.758 3.23 1.615c3.062 1.531 5.551 4.003 7.103 7.052z" fill="#1cb356"/></g></svg>