<svg clip-rule="evenodd" fill-rule="evenodd" stroke-miterlimit="1.5" viewBox="0 0 32 32" xmlns="http://www.w3.org/2000/svg" xmlns:xlink="http://www.w3.org/1999/xlink"><clipPath id="a"><path clip-rule="evenodd" d="m0 0h32v32h-32z"/></clipPath><metadata/><path d="m0 0h32v32h-32z" fill="none"/><g clip-path="url(#a)"><path d="m32 8c0-4.418-3.582-8-8-8-4.887 0-11.113 0-16 0-4.418 0-8 3.582-8 8v16c0 4.418 3.582 8 8 8h16c4.418 0 8-3.582 8-8 0-4.887 0-11.113 0-16z"/><path d="m30 8c0-1.591-.632-3.117-1.757-4.243-1.126-1.125-2.652-1.757-4.243-1.757-4.724 0-11.276 0-16 0-1.591 0-3.117.632-4.243 1.757-1.125 1.126-1.757 2.652-1.757 4.243v16c0 1.591.632 3.117 1.757 4.243 1.126 1.125 2.652 1.757 4.243 1.757h16c1.591 0 3.117-.632 4.243-1.757 1.125-1.126 1.757-2.652 1.757-4.243 0-4.724 0-11.276 0-16z" fill="#982eee"/><path d="m7 7h2v11s4.548-6.569 7.178-10.368c.249-.36.703-.516 1.12-.385.418.13.702.517.702.954v11.799s.491.818 1.075 1.792c.496.826 1.315 1.408 2.259 1.604.943.197 1.926-.01 2.71-.571.001 0 .002-.001.003-.001.912-.652 1.453-1.703 1.453-2.824s-.541-2.172-1.453-2.824c-.001 0-.002-.001-.003-.001-.784-.561-1.767-.768-2.71-.571-.944.196-1.763.778-2.259 1.604-1.211 2.018-2.691 4.486-3.492 5.821-.362.602-1.013.971-1.715.971-1.183 0-2.868 0-2.868 0" fill="none" stroke="#fff" stroke-width="2"/></g></svg>