<svg clip-rule="evenodd" fill-rule="evenodd" stroke-linejoin="round" stroke-miterlimit="1.41421" viewBox="0 0 32 32" xmlns="http://www.w3.org/2000/svg" xmlns:xlink="http://www.w3.org/1999/xlink"><clipPath id="a"><path clip-rule="evenodd" d="m0 0h32v32h-32z"/></clipPath><metadata/><path d="m0 0h32v32h-32z" fill="none"/><g clip-path="url(#a)"><path d="m32 7c0-.53-.211-1.039-.586-1.414s-.884-.586-1.414-.586c-5.746 0-22.254 0-28 0-.53 0-1.039.211-1.414.586s-.586.884-.586 1.414v19c0 .53.211 1.039.586 1.414s.884.586 1.414.586h28c.53 0 1.039-.211 1.414-.586s.586-.884.586-1.414c0-4.354 0-14.646 0-19z"/><path d="m30 26h-2.764l-1.209-.197-1.027.197h-18l-1-.229-1.236.229h-2.764v-19h28z" fill="#666"/><path d="m4.764 26 2.447-4.894c.079-.146.164-.283.272-.409.268-.312.631-.537 1.03-.637.161-.04.322-.055.487-.06 4.708 0 9.418-.141 14.123.004.165.015.324.04.482.09.392.124.741.371.989.699.075.099.136.203.195.313l2.447 4.894h-2.236l-2-4h-14l-2 4h-2.236z" fill="#333"/><path d="m3 8h26v12h-26z" fill="#fff"/><path d="m9.5 12h13v5h-13z" fill="#4d4d4d"/><circle cx="22.5" cy="14.5" r="2.5"/><circle cx="9.5" cy="14.5" r="2.5"/><circle cx="11" cy="24" fill="#333" r="1"/><circle cx="21" cy="24" fill="#333" r="1"/><path d="m13 13h6v2h-6z"/></g></svg>