<svg clip-rule="evenodd" fill-rule="evenodd" stroke-miterlimit="1.5" viewBox="0 0 32 32" xmlns="http://www.w3.org/2000/svg" xmlns:xlink="http://www.w3.org/1999/xlink"><clipPath id="a"><path clip-rule="evenodd" d="m30 4c0-.53-.211-1.039-.586-1.414s-.884-.586-1.414-.586h-24c-.53 0-1.039.211-1.414.586s-.586.884-.586 1.414v24c0 .53.211 1.039.586 1.414s.884.586 1.414.586h24c.53 0 1.039-.211 1.414-.586s.586-.884.586-1.414z"/></clipPath><metadata/><path d="m0 0h32v32h-32z" fill="none"/><path d="m32 4c0-2.209-1.791-4-4-4h-24c-2.209 0-4 1.791-4 4v24c0 2.209 1.791 4 4 4h24c2.209 0 4-1.791 4-4z"/><path d="m30 4c0-.53-.211-1.039-.586-1.414s-.884-.586-1.414-.586h-24c-.53 0-1.039.211-1.414.586s-.586.884-.586 1.414v24c0 .53.211 1.039.586 1.414s.884.586 1.414.586h24c.53 0 1.039-.211 1.414-.586s.586-.884.586-1.414z" fill="#199d4e"/><g clip-path="url(#a)"><g fill="#1fc260"><path d="m3 14h25v1.5h-25z"/><path d="m3 17h25v1.5h-25z"/><path d="m3 20h25v1.5h-25z"/><path d="m3 23h25v1.5h-25z"/></g><path d="m3 2v27h27" fill="none" stroke="#fff" stroke-width="2"/></g><path d="m12 7c0-1.657-1.343-3-3-3s-3 1.343-3 3 1.343 3 3 3 3-1.343 3-3z" fill="#fff"/><path d="m9 22 3 3 5-10 4 4 5.5-11" fill="none" stroke="#fff" stroke-miterlimit="2" stroke-width="2"/></svg>