<svg clip-rule="evenodd" fill-rule="evenodd" stroke-linejoin="round" stroke-miterlimit="1.5" viewBox="0 0 32 32" xmlns="http://www.w3.org/2000/svg" xmlns:xlink="http://www.w3.org/1999/xlink"><clipPath id="a"><path clip-rule="evenodd" d="m0 0h32v32h-32z"/></clipPath><clipPath id="b"><path clip-rule="evenodd" d="m18 9 8 5s1.648-1.648 2.828-2.828c.751-.751 1.172-1.768 1.172-2.829 0-.157 0-.32 0-.489 0-1.04-.538-2.005-1.423-2.552-.884-.546-1.989-.596-2.919-.131-3.435 1.718-7.658 3.829-7.658 3.829z"/></clipPath><clipPath id="c"><path clip-rule="evenodd" d="m14 9-8 5s-1.648-1.648-2.828-2.828c-.751-.751-1.172-1.768-1.172-2.829 0-.157 0-.32 0-.489 0-1.04.538-2.005 1.423-2.552.884-.546 1.989-.596 2.919-.131 3.435 1.718 7.658 3.829 7.658 3.829z"/></clipPath><clipPath id="d"><path clip-rule="evenodd" d="m7.444 7.905c-1.551 1.33-2.444 3.271-2.444 5.315v2.081c0 2.387.854 4.695 2.407 6.508 1.669 1.947 3.593 4.191 3.593 4.191 0 1.657 1.343 3 3 3h4c1.657 0 3-1.343 3-3s1.924-2.244 3.593-4.191c1.553-1.813 2.407-4.121 2.407-6.508 0-.691 0-1.407 0-2.081 0-2.044-.893-3.985-2.444-5.315-.708-.606-1.478-1.267-2.181-1.87-1.533-1.313-3.484-2.035-5.503-2.035-.573 0-1.171 0-1.744 0-2.019 0-3.97.722-5.503 2.035-.703.603-1.473 1.264-2.181 1.87z"/></clipPath><metadata/><path d="m0 0h32v32h-32z" fill="none"/><g clip-path="url(#a)"><path d="m18 9 8 5s1.648-1.648 2.828-2.828c.751-.751 1.172-1.768 1.172-2.829 0-.157 0-.32 0-.489 0-1.04-.538-2.005-1.423-2.552-.884-.546-1.989-.596-2.919-.131-3.435 1.718-7.658 3.829-7.658 3.829z" fill="none" stroke="#000" stroke-width="4"/><path d="m14 9-8 5s-1.648-1.648-2.828-2.828c-.751-.751-1.172-1.768-1.172-2.829 0-.157 0-.32 0-.489 0-1.04.538-2.005 1.423-2.552.884-.546 1.989-.596 2.919-.131 3.435 1.718 7.658 3.829 7.658 3.829z" fill="none" stroke="#000" stroke-width="4"/><path d="m7.444 7.905c-1.551 1.33-2.444 3.271-2.444 5.315v2.081c0 2.387.854 4.695 2.407 6.508 1.669 1.947 3.593 4.191 3.593 4.191 0 1.657 1.343 3 3 3h4c1.657 0 3-1.343 3-3s1.924-2.244 3.593-4.191c1.553-1.813 2.407-4.121 2.407-6.508 0-.691 0-1.407 0-2.081 0-2.044-.893-3.985-2.444-5.315-.708-.606-1.478-1.267-2.181-1.87-1.533-1.313-3.484-2.035-5.503-2.035-.573 0-1.171 0-1.744 0-2.019 0-3.97.722-5.503 2.035-.703.603-1.473 1.264-2.181 1.87z" fill="none" stroke="#000" stroke-linecap="round" stroke-width="4"/><path d="m18 9 8 5s1.648-1.648 2.828-2.828c.751-.751 1.172-1.768 1.172-2.829 0-.157 0-.32 0-.489 0-1.04-.538-2.005-1.423-2.552-.884-.546-1.989-.596-2.919-.131-3.435 1.718-7.658 3.829-7.658 3.829z" fill="#ab7314"/><g clip-path="url(#b)"><path d="m22 9s4.248-2.124 6.553-3.276c.31-.155.678-.139.973.043.295.183.474.504.474.851v8.382h-8z" fill="#d3d3d3"/></g><path d="m14 9-8 5s-1.648-1.648-2.828-2.828c-.751-.751-1.172-1.768-1.172-2.829 0-.157 0-.32 0-.489 0-1.04.538-2.005 1.423-2.552.884-.546 1.989-.596 2.919-.131 3.435 1.718 7.658 3.829 7.658 3.829z" fill="#ab7314"/><g clip-path="url(#c)"><path d="m10 9s-4.248-2.124-6.553-3.276c-.31-.155-.678-.139-.973.043-.295.183-.474.504-.474.851v8.382h8z" fill="#d3d3d3"/></g><path d="m7.444 7.905c-1.551 1.33-2.444 3.271-2.444 5.315v2.081c0 2.387.854 4.695 2.407 6.508 1.669 1.947 3.593 4.191 3.593 4.191 0 1.657 1.343 3 3 3h4c1.657 0 3-1.343 3-3s1.924-2.244 3.593-4.191c1.553-1.813 2.407-4.121 2.407-6.508 0-.691 0-1.407 0-2.081 0-2.044-.893-3.985-2.444-5.315-.708-.606-1.478-1.267-2.181-1.87-1.533-1.313-3.484-2.035-5.503-2.035-.573 0-1.171 0-1.744 0-2.019 0-3.97.722-5.503 2.035-.703.603-1.473 1.264-2.181 1.87z" fill="#e9ae41"/><g clip-path="url(#d)"><path d="m19 21v2h2c1.105 0 2-.895 2-2l2-2h4v12h-26v-12h4l2 2c0 1.105.895 2 2 2h2v-2z" fill="#f1f1f1"/></g><path d="m21.5 6c.133 0 .26.053.354.146.093.094.146.221.146.354v.001c0 .276-.223.499-.499.499-.306 0-.696 0-1.002 0-.276 0-.499-.223-.499-.499v-.001c0-.133.053-.26.146-.354.094-.093.221-.146.354-.146z"/><path d="m19.5 7c.133 0 .26.053.354.146.093.094.146.221.146.354v.001c0 .276-.223.499-.499.499-.306 0-.696 0-1.002 0-.276 0-.499-.223-.499-.499v-.001c0-.133.053-.26.146-.354.094-.093.221-.146.354-.146z"/><path d="m16.5 7c.133 0 .26.053.354.146.093.094.146.221.146.354v.001c0 .276-.223.499-.499.499-.306 0-.696 0-1.002 0-.276 0-.499-.223-.499-.499v-.001c0-.133.053-.26.146-.354.094-.093.221-.146.354-.146z"/><path d="m13.5 7c.133 0 .26.053.354.146.093.094.146.221.146.354v.001c0 .276-.223.499-.499.499-.306 0-.696 0-1.002 0-.276 0-.499-.223-.499-.499v-.001c0-.133.053-.26.146-.354.094-.093.221-.146.354-.146z"/><path d="m12.5 9c.133 0 .26.053.354.146.093.094.146.221.146.354v2c0 .133-.053.26-.146.354-.094.093-.221.146-.354.146s-.26-.053-.354-.146c-.093-.094-.146-.221-.146-.354 0-.555 0-1.445 0-2 0-.133.053-.26.146-.354.094-.093.221-.146.354-.146z"/><path d="m19.501 9c.276 0 .499.223.499.499v2.002c0 .276-.223.499-.499.499-.001 0-.001 0-.002 0-.276 0-.499-.223-.499-.499 0-.555 0-1.447 0-2.002 0-.276.223-.499.499-.499z"/><path d="m16.501 9c.276 0 .499.223.499.499v.001c0 .133-.053.26-.146.354-.094.093-.221.146-.354.146-.305 0-.695 0-1 0-.133 0-.26-.053-.354-.146-.093-.094-.146-.221-.146-.354v-.001c0-.276.223-.499.499-.499z"/><path d="m18.5 5c.133 0 .26.053.354.146.093.094.146.221.146.354v.001c0 .276-.223.499-.499.499-.306 0-.696 0-1.002 0-.276 0-.499-.223-.499-.499v-.001c0-.133.053-.26.146-.354.094-.093.221-.146.354-.146z"/><path d="m14.501 5c.276 0 .499.223.499.499v.001c0 .133-.053.26-.146.354-.094.093-.221.146-.354.146-.305 0-.695 0-1 0-.133 0-.26-.053-.354-.146-.093-.094-.146-.221-.146-.354v-.001c0-.276.223-.499.499-.499z"/><path d="m11.501 6c.276 0 .499.223.499.499v.001c0 .133-.053.26-.146.354-.094.093-.221.146-.354.146-.305 0-.695 0-1 0-.133 0-.26-.053-.354-.146-.093-.094-.146-.221-.146-.354v-.001c0-.276.223-.499.499-.499z"/><path d="m11 26.5h1.292c.466 0 .925-.108 1.341-.317.881-.44 2.367-1.183 2.367-1.183s1.486.743 2.367 1.183c.416.209.875.317 1.341.317h1.292" fill="none" stroke="#000" stroke-linejoin="miter"/><path d="m13 20h6v1.382c0 .379-.214.725-.553.894-.592.296-1.447.724-1.447.724v2h-2v-2s-.855-.428-1.447-.724c-.339-.169-.553-.515-.553-.894 0-.588 0-1.382 0-1.382z"/><path d="m19.5 15v.757c0 .796.316 1.559.879 2.122.391.391.851.851 1.242 1.242.563.563.879 1.326.879 2.122v4.757" fill="none" stroke="#000"/><path d="m12.5 15v.757c0 .796-.316 1.559-.879 2.122-.391.391-.851.851-1.242 1.242-.563.563-.879 1.326-.879 2.122v4.757" fill="none" stroke="#000"/><path d="m11 13c.53 0 1.039.211 1.414.586s.586.884.586 1.414v1s-.895 0-1.838 0c-1.291 0-2.437-.826-2.846-2.051-.175-.527-.316-.949-.316-.949z"/><path d="m21 13c-.53 0-1.039.211-1.414.586s-.586.884-.586 1.414v1h1.838c1.291 0 2.437-.826 2.846-2.051.175-.527.316-.949.316-.949s-1.608 0-3 0z"/><g fill="none" stroke="#000"><path d="m8 16-1 2" stroke-linecap="round"/><path d="m8.5 19-.5 1" stroke-linecap="round"/><path d="m23.5 19 .5 1" stroke-linecap="round"/><path d="m24 16 1 2" stroke-linecap="round"/></g></g></svg>