<svg clip-rule="evenodd" fill-rule="evenodd" stroke-linecap="round" stroke-miterlimit="3" viewBox="0 0 32 32" xmlns="http://www.w3.org/2000/svg" xmlns:xlink="http://www.w3.org/1999/xlink"><clipPath id="a"><path clip-rule="evenodd" d="m0 0h32v32h-32z"/></clipPath><clipPath id="b"><path clip-rule="evenodd" d="m30 20c0-1.326-.527-2.598-1.464-3.536-.938-.937-2.21-1.464-3.536-1.464h-5c-1.326 0-2.598.527-3.536 1.464-.937.938-1.464 2.21-1.464 3.536v2.5c0 4.142 3.358 7.5 7.5 7.5 4.142 0 7.5-3.358 7.5-7.5z"/></clipPath><metadata/><path d="m0 0h32v32h-32z" fill="none"/><g clip-path="url(#a)"><path d="m17 20c0-1.326-.527-2.598-1.464-3.536-.938-.937-2.21-1.464-3.536-1.464h-5c-1.326 0-2.598.527-3.536 1.464-.937.938-1.464 2.21-1.464 3.536v2.5c0 4.142 3.358 7.5 7.5 7.5 4.142 0 7.5-3.358 7.5-7.5z" fill="none" stroke="#000" stroke-width="4"/><path d="m30 20c0-1.326-.527-2.598-1.464-3.536-.938-.937-2.21-1.464-3.536-1.464h-5c-1.326 0-2.598.527-3.536 1.464-.937.938-1.464 2.21-1.464 3.536v2.5c0 4.142 3.358 7.5 7.5 7.5 4.142 0 7.5-3.358 7.5-7.5z" fill="none" stroke="#000" stroke-width="4"/><path d="m11.103.001.103.002.102.003.102.004.102.006.101.007.102.009.101.009.1.011.1.012.1.013.1.015.099.016.099.017.098.018.098.019.098.021.097.022.096.023.097.024.096.025.095.027.095.027.094.029.094.03.093.031.093.032.093.033.092.034.091.036.09.036.091.037.089.039.089.04.088.04.088.042.088.043.086.043.086.045.086.046.085.046.084.048.083.049.083.049.082.051.081.052.081.052.08.053.08.055.078.055.078.056.078.057.076.058.076.059.075.06.075.061.073.061.073.062.072.063.071.064.071.066.07.065.069.067.068.067.067.068.067.069.065.07.065.071.064.071.064.072.062.073.062.074.06.074.06.075.059.076.058.076.057.078.056.078.055.078.054.08.054.08.052.081.052.081.051.082.049.083.049.083.048.085.046.084.046.086.045.086.043.086.043.088.042.088.04.088.04.089.039.089.037.091.036.09.036.091.034.092.033.093.032.093.031.093.03.094.029.094.027.095.027.096.025.095.024.096.023.097.022.097.021.098.019.098.018.098.017.099.016.099.015.1.013.1.012.1.011.1.009.101.009.102.007.101.006.102.004.102.003.103.002.102.001.097v3.251l-.308.24-11.035-2.759-.117-.031-.127-.036-.125-.038-.124-.041-.123-.044-.122-.046-.12-.048-.119-.051-.117-.053-.117-.056-.114-.057-.114-.061-.111-.062-.111-.064-.108-.067-.107-.069-.106-.07-.103-.073-.103-.075-.1-.077-.099-.079-.097-.08-.095-.083-.093-.084-.092-.087-.09-.087-.088-.09-.085-.092-.084-.093-.083-.095-.08-.096-.078-.098-.076-.1-.074-.101-.072-.103-.071-.104-.067-.105-.066-.107-.064-.109-.061-.109-.059-.112-.057-.112-.055-.114-.053-.115-.05-.116-.048-.117-.045-.118-.043-.12-.041-.121-.038-.121-.036-.122-.033-.124-.031-.124-.028-.126-.026-.126-.023-.127-.021-.128-.017-.128-.015-.129-.013-.13-.01-.13-.007-.131-.004-.132-.001-.121v-2.761h8.006l.097.001zm-3.672 4.045.027.035.028.035.028.033.029.034.029.032.03.033.031.031.032.031.032.031.033.029.033.029.034.029.035.027.035.027.036.026.036.026.037.025.037.023.038.024.039.022.039.022.039.021.04.02.041.019.041.019.042.018.042.017.043.016.043.015.043.015.045.013.044.013.056.014 5.997 1.5-.018-.04-.02-.043-.022-.043-.021-.044-.023-.043-.023-.042-.023-.043-.024-.041-.024-.042-.025-.042-.025-.041-.026-.041-.026-.04-.027-.04-.027-.04-.028-.039-.028-.039-.029-.039-.029-.038-.029-.039-.03-.037-.031-.038-.031-.036-.031-.037-.032-.036-.032-.036-.032-.035-.033-.035-.034-.035-.034-.035-.034-.033-.035-.034-.035-.033-.035-.032-.036-.032-.036-.032-.037-.032-.037-.03-.037-.031-.038-.03-.038-.029-.038-.029-.038-.029-.04-.028-.039-.028-.04-.027-.04-.027-.041-.026-.04-.026-.041-.025-.042-.025-.042-.024-.042-.024-.042-.023-.042-.023-.043-.023-.043-.021-.044-.022-.044-.02-.044-.021-.044-.019-.045-.019-.045-.019-.045-.018-.045-.018-.046-.017-.046-.016-.046-.016-.046-.016-.047-.014-.047-.015-.047-.013-.047-.014-.048-.012-.048-.012-.048-.012-.048-.01-.049-.011-.049-.009-.049-.009-.049-.009-.049-.008-.05-.007-.05-.007-.05-.006-.051-.005-.05-.005-.051-.004-.051-.004-.051-.003-.052-.002-.052-.002-.052-.001h-.058-3.596l.007.01.026.036z"/><path d="m16 8-6 6" fill="none" stroke="#000" stroke-linecap="square" stroke-width="6"/><path d="m16 8 7 7" fill="none" stroke="#000" stroke-linecap="square" stroke-width="6"/><path d="m13 11h7v4h-7z"/><path d="m16 8s-6 6-9 9" fill="none" stroke="#198040" stroke-linecap="square" stroke-width="2"/><path d="m16 8 7 7" fill="none" stroke="#198040" stroke-linecap="square" stroke-width="2"/><path d="m30 20c0-1.326-.527-2.598-1.464-3.536-.938-.937-2.21-1.464-3.536-1.464h-5c-1.326 0-2.598.527-3.536 1.464-.937.938-1.464 2.21-1.464 3.536v2.5c0 4.142 3.358 7.5 7.5 7.5 4.142 0 7.5-3.358 7.5-7.5z" fill="#d72d35"/><g clip-path="url(#b)"><path d="m17 21c0-1.591-.632-3.117-1.757-4.243-1.126-1.125-2.652-1.757-4.243-1.757h-3c-1.591 0-3.117.632-4.243 1.757-1.125 1.126-1.757 2.652-1.757 4.243v1.502c0 1.989.79 3.896 2.196 5.302s3.313 2.196 5.302 2.196h.002c1.989 0 3.897-.79 5.303-2.197 1.407-1.406 2.197-3.314 2.197-5.303z" fill="#d72d35" stroke="#891a20" stroke-width="4"/></g><path d="m17 20c0-1.326-.527-2.598-1.464-3.536-.938-.937-2.21-1.464-3.536-1.464h-5c-1.326 0-2.598.527-3.536 1.464-.937.938-1.464 2.21-1.464 3.536v2.5c0 4.142 3.358 7.5 7.5 7.5 4.142 0 7.5-3.358 7.5-7.5z" fill="#d72d35"/><path d="m17 9v-1c0-3.314-2.686-6-6-6-3 0-6 0-6 0v.75c0 1.91 1.3 3.575 3.153 4.038 3.555.889 8.847 2.212 8.847 2.212z" fill="#219555"/><g fill="#ff535b"><path d="m9 19c0-1.105.895-2 2-2h1c1.657 0 3 1.343 3 3v1c0 1.105-.895 2-2 2-1.061 0-2.078-.421-2.828-1.172-.751-.75-1.172-1.767-1.172-2.828z"/><path d="m22 19c0-1.105.895-2 2-2h1c1.657 0 3 1.343 3 3v1c0 1.105-.895 2-2 2-1.061 0-2.078-.421-2.828-1.172-.751-.75-1.172-1.767-1.172-2.828z"/></g></g></svg>