<svg clip-rule="evenodd" fill-rule="evenodd" stroke-linecap="round" stroke-linejoin="round" stroke-miterlimit="2" viewBox="0 0 32 32" xmlns="http://www.w3.org/2000/svg"><metadata/><path d="m0 0h32v32h-32z" fill="none"/><path d="m3 15c0-7.174 5.825-12.998 13-12.998s13 5.824 13 12.998v2c0 7.174-5.825 12.998-13 12.998s-13-5.824-13-12.998zm19.929 1c-.486-3.39-3.405-5.999-6.929-5.999s-6.443 2.609-6.929 5.999c.486 3.39 3.405 5.999 6.929 5.999s6.443-2.609 6.929-5.999z" fill="none" stroke="#000" stroke-width="4"/><path d="m3.153 15c.964-6.226 6.352-10.998 12.847-10.998s11.883 4.772 12.847 10.998h.153v2c0 7.174-5.825 12.998-13 12.998s-13-5.824-13-12.998v-2zm19.847 2c0-3.863-3.137-6.999-7-6.999s-7 3.136-7 6.999 3.137 6.999 7 6.999 7-3.136 7-6.999z" fill="#93151c"/><path d="m16 2.002c7.175 0 13 5.824 13 12.998s-5.825 12.998-13 12.998-13-5.824-13-12.998 5.825-12.998 13-12.998zm0 5.999c3.863 0 7 3.136 7 6.999s-3.137 6.999-7 6.999-7-3.136-7-6.999 3.137-6.999 7-6.999z" fill="#e02a33"/></svg>