<svg clip-rule="evenodd" fill-rule="evenodd" stroke-linejoin="round" stroke-miterlimit="2" viewBox="0 0 32 32" xmlns="http://www.w3.org/2000/svg" xmlns:xlink="http://www.w3.org/1999/xlink"><clipPath id="a"><path clip-rule="evenodd" d="m0 0h32v32h-32z"/></clipPath><metadata/><path d="m0 0h32v32h-32z" fill="none"/><g clip-path="url(#a)"><path d="m32 2c0-.53-.211-1.039-.586-1.414s-.884-.586-1.414-.586h-28c-.53 0-1.039.211-1.414.586s-.586.884-.586 1.414v28c0 .53.211 1.039.586 1.414s.884.586 1.414.586h28c.53 0 1.039-.211 1.414-.586s.586-.884.586-1.414z"/><path d="m30 2h-28v5l3 2h23l2-2z" fill="#61a5ff"/><path d="m30 7h-28v3l2 13h23l3-14z" fill="#4891f7"/><path d="m22 22h-8l2 8h4z" fill="#3569ae"/><path d="m20 13h8v17h-8z" fill="#20274d"/><path d="m16 19h-9l2 11h7z" fill="#20274d"/><path d="m25 9h5v21h-5z" fill="#384684"/><path d="m9 13-1-1h-6v18h7z" fill="#384684"/><path d="m2 10 2-2 4 4h1v1h-7v-1l1-.604-1-.396z" fill="#2f3a72"/><path d="m2 11 2-2 3 3h-5z" fill="#242d54"/><g fill="#a47d32"><path d="m3 14h1v2h-1z"/><path d="m3 23h1v2h-1z"/><path d="m7 14h1v2h-1z"/><path d="m7 29h1v1h-1z"/><path d="m3 29h1v1h-1z"/><path d="m12 20h1v2h-1z"/><path d="m10 26h1v2h-1z"/><path d="m14 26h1v2h-1z"/><path d="m12 29h1v1h-1z"/><path d="m21 14h1v2h-1z"/><path d="m23 17h1v2h-1z"/><path d="m23 26h1v2h-1z"/><path d="m26 10h1v2h-1z"/><path d="m28 19h1v2h-1z"/><path d="m26 22h1v2h-1z"/><path d="m28 25h1v2h-1z"/><path d="m28 28h1v2h-1z"/></g></g></svg>