<svg clip-rule="evenodd" fill-rule="evenodd" stroke-linejoin="round" stroke-miterlimit="1.41421" viewBox="0 0 32 32" xmlns="http://www.w3.org/2000/svg" xmlns:xlink="http://www.w3.org/1999/xlink"><clipPath id="a"><path clip-rule="evenodd" d="m0 0h32v32h-32z"/></clipPath><metadata/><path d="m0 0h32v32h-32z" fill="none"/><g clip-path="url(#a)"><path d="m32 8c0-4.418-3.582-8-8-8-4.887 0-11.113 0-16 0-4.418 0-8 3.582-8 8v16c0 4.418 3.582 8 8 8h16c4.418 0 8-3.582 8-8 0-4.887 0-11.113 0-16z"/><path d="m30 20h-28v4c0 3.314 2.686 6 6 6h16c3.314 0 6-2.686 6-6 0-2.126 0-4 0-4z" fill="#b2b2b2"/><path d="m30 8c0-3.314-2.686-6-6-6-4.724 0-11.276 0-16 0-1.591 0-3.117.632-4.243 1.757-1.125 1.126-1.757 2.652-1.757 4.243v12c0 3.314 2.686 6 6 6h16c1.591 0 3.117-.632 4.243-1.757 1.125-1.126 1.757-2.652 1.757-4.243 0-3.665 0-8.335 0-12z" fill="#fff"/><g fill="#f6343e" fill-rule="nonzero"><path d="m10.609 21.507c-3.548 0-5.323-1.944-5.323-5.832v-3.35c0-3.888 1.789-5.832 5.366-5.832 1.597 0 2.87.424 3.817 1.272s1.421 2.043 1.421 3.584v.149h-2.778v-.128c0-.749-.216-1.343-.647-1.781s-1.043-.657-1.834-.657c-.891 0-1.538.275-1.941.827-.403.551-.604 1.456-.604 2.714v3.16c0 1.188.208 2.05.625 2.587s1.071.806 1.962.806c.792 0 1.396-.212 1.813-.636s.626-1.004.626-1.739v-.17h2.736v.149c0 1.569-.467 2.774-1.4 3.615-.933.842-2.213 1.262-3.839 1.262z"/><path d="m17.989 6.705h2.779v12.215h6.404v2.418h-9.183z"/></g></g></svg>