<svg clip-rule="evenodd" fill-rule="evenodd" stroke-linejoin="round" stroke-miterlimit="2" viewBox="0 0 32 32" xmlns="http://www.w3.org/2000/svg" xmlns:xlink="http://www.w3.org/1999/xlink"><clipPath id="a"><path clip-rule="evenodd" d="m0 0h32v32h-32z"/></clipPath><metadata/><path d="m0 0h32v32h-32z" fill="none"/><g clip-path="url(#a)"><path d="m19.179 6.02c-.112-.312-.17-.639-.179-.971-.005-.716-.016-1.431.002-2.147.012-.31.068-.615.172-.908.28-.787.891-1.434 1.661-1.759.301-.127.62-.2.945-.227.098-.006.195-.009.293-.007.343.011.681.075 1.001.198.812.311 1.461.976 1.752 1.795.09.252.144.514.164.779.145-.129.299-.245.464-.344.45-.27.962-.413 1.485-.428.049-.001.049-.001.098-.001.408.009.81.093 1.184.26.312.139.6.332.848.568.33.314.587.704.745 1.132s.217.891.171 1.345c-.029.275-.095.546-.197.803-.132.333-.324.636-.561.902.314.024.623.095.915.216.422.174.802.444 1.105.786.302.342.524.752.645 1.192.074.267.11.544.108.82-.003.342-.065.683-.182 1.005-.128.351-.323.678-.571.959-.259.293-.576.534-.926.706-.383.187-.799.287-1.223.304-.732.018-1.464.018-2.196 0-.254-.01-.505-.05-.748-.121l2.038 6.114c.081.25.152.502.209.759.112.511.171 1.033.175 1.556.004.602-.063 1.205-.202 1.791-.208.882-.576 1.726-1.083 2.477-.457.679-1.027 1.27-1.659 1.787-1.297 1.063-2.859 1.79-4.507 2.099-1.135.212-2.306.227-3.446.042-1.168-.189-2.302-.587-3.332-1.17-.398-.225-.779-.477-1.141-.754l-.065.065-.137-.137c.005.53.007 1.061-.006 1.592-.017.424-.117.84-.304 1.222-.172.351-.413.668-.706.927-.281.248-.607.443-.959.571-.322.117-.663.179-1.005.182-.456.004-.911-.098-1.322-.296-.412-.197-.776-.489-1.058-.847-.172-.218-.313-.459-.418-.715-.12-.292-.191-.601-.216-.915-.303.27-.654.48-1.039.611-.37.127-.764.18-1.154.156-.374-.022-.743-.116-1.082-.274-.31-.144-.595-.342-.839-.581-.197-.195-.367-.416-.504-.657-.226-.396-.359-.844-.386-1.299-.028-.455.049-.916.225-1.337.131-.315.316-.602.542-.855-.379-.031-.75-.129-1.093-.297-.351-.172-.668-.413-.927-.706-.248-.281-.443-.608-.571-.959-.117-.322-.179-.663-.182-1.005-.004-.456.098-.911.296-1.323.197-.411.489-.775.847-1.057.218-.172.459-.313.715-.418.347-.143.718-.216 1.093-.226.619-.005 1.238-.005 1.857-.001l-1.43-1.43c-.087-.092-.11-.112-.194-.216-.23-.28-.411-.601-.534-.943-.106-.294-.167-.604-.183-.917-.015-.313.016-.628.092-.932.148-.585.463-1.117.895-1.53-.101-.175-.187-.358-.254-.55-.118-.337-.178-.694-.178-1.051s.06-.714.178-1.052c.261-.746.803-1.377 1.496-1.752.001-.301.045-.603.131-.892.258-.87.892-1.603 1.715-1.985.28-.13.578-.218.884-.262.134-.02.168-.02.303-.029.068-.002.106-.003.14-.003.325-.6.84-1.091 1.463-1.38.28-.13.579-.219.885-.263.134-.019.168-.019.303-.029.152-.003.151-.003.304 0 .204.015.405.039.604.087.354.087.692.235.997.435.176.116.337.251.488.398l3.885 3.885c.043-.096.044-.095.09-.19.06-.118.06-.117.123-.233.2-.347.427-.673.693-.972.42-.472.921-.87 1.475-1.173z"/><path d="m5.492 14.163c-.005.321.039.643.13.951.072.244.174.478.301.697-.255.244-.469.529-.632.842l-.481-.48c-.221-.222-.346-.523-.346-.836 0-.314.125-.614.346-.836.001-.001.002-.002.003-.003.184-.184.423-.301.679-.335zm.356-1.417-.48-.48c-.461-.462-.461-1.21 0-1.672l.003-.003c.462-.461 1.21-.461 1.672 0l.188.188c-.043.206-.064.416-.065.627-.562.303-1.024.775-1.318 1.34zm15.381-3.692c-.389.26-.745.569-1.056.919-.266.299-.492.625-.692.972-.063.116-.063.115-.124.233-.046.095-.046.094-.09.19l-.936-.937c.164-1.304 1.055-2.464 2.385-2.907.002-.001.002-.001.002-.001zm-13.706.901-.48-.48c-.462-.462-.462-1.21 0-1.672.001 0 .002-.001.003-.002.461-.462 1.21-.462 1.671 0l.604.604c-.105.036-.209.077-.31.124-.638.297-1.165.805-1.488 1.426zm2.746-1.719-.436-.435c-.461-.462-.461-1.21 0-1.672.001-.001.002-.002.003-.003.462-.461 1.21-.461 1.672 0l.604.605c-.106.035-.209.077-.31.124-.623.289-1.139.78-1.464 1.38-.02 0-.042 0-.069.001z" fill="#a1693b"/><path d="m21.513 16.442.321-.706s-.837-1.551-1.06-2.182c.039-1.44.966-2.768 2.412-3.25.001-.001.002-.001.002-.001s1.863 5.591 3.104 9.312c.663 1.989.145 4.182-1.338 5.665 0 0 0 .001-.001.001-3.133 3.133-8.212 3.133-11.345 0l-6.328-6.328c-.222-.222-.346-.523-.346-.836 0-.314.124-.614.346-.836.001-.001.002-.002.003-.003.221-.221.522-.346.835-.346.314 0 .615.125.836.346l4.187 4.187.559-.558-5.862-5.861c-.462-.462-.462-1.21 0-1.672.001-.001.002-.002.003-.003.461-.461 1.21-.461 1.671 0l5.304 5.304.558-.558-5.862-5.862c-.461-.462-.461-1.21 0-1.672.001 0 .002-.001.003-.002.462-.462 1.21-.462 1.672 0l5.303 5.303.558-.558-4.745-4.745c-.462-.462-.462-1.21 0-1.672l.003-.003c.461-.461 1.21-.461 1.671 0z" fill="#b68862"/><path d="m20.955 14.766c-.061-.185-.108-.374-.139-.566-.033-.209-.047-.42-.042-.631v-.015c.805.791 1.598 1.594 2.379 2.409.077.087.136.186.168.298.027.091.036.186.027.28s-.036.186-.078.27c-.162.317-.536.479-.878.38-.112-.033-.298-.168-.298-.168l-.581-.581z" fill="#a1693b"/><path d="m10.028 26c.103.005.205.022.302.056.276.097.5.314.604.587.041.106.061.216.066.329.009.695.028 1.39-.002 2.084-.009.141-.045.277-.11.403-.06.116-.143.221-.243.305-.093.078-.2.14-.315.18-.359.125-.768.032-1.037-.237-.073-.073-.134-.157-.181-.248-.07-.134-.105-.281-.112-.431-.009-.695-.028-1.39.002-2.084.007-.103.027-.204.064-.301.094-.246.285-.448.526-.556.094-.042.194-.068.296-.081.047-.004.093-.006.14-.006zm-3-2c.141.006.278.038.406.099.342.165.566.521.566.901 0 .103-.016.206-.047.304-.046.144-.124.272-.226.383-.677.696-1.346 1.402-2.061 2.059-.106.092-.228.164-.362.207-.125.04-.258.054-.388.043-.121-.01-.24-.042-.35-.095-.342-.165-.566-.521-.566-.901 0-.103.016-.206.047-.304.046-.144.124-.272.226-.383.677-.696 1.346-1.402 2.061-2.059.18-.156.4-.244.638-.254zm-2-3c.141.006.278.038.406.099.118.057.224.137.312.235.081.09.145.196.188.309.139.365.049.788-.227 1.064-.073.073-.157.134-.248.181-.134.07-.28.105-.431.112-.695.009-1.39.028-2.084-.002-.141-.009-.277-.045-.403-.11-.116-.06-.221-.143-.305-.243-.078-.093-.14-.2-.18-.315-.125-.359-.032-.768.237-1.037.073-.073.157-.134.248-.181.134-.07.281-.105.431-.112.685-.009 1.371-.009 2.056 0zm24-12c.141.006.278.038.406.099.118.057.224.137.312.235.081.09.145.196.188.309.139.365.049.788-.227 1.064-.073.073-.157.134-.248.181-.134.07-.28.105-.431.112-.695.009-1.39.028-2.084-.002-.141-.009-.277-.045-.403-.11-.116-.06-.221-.143-.305-.243-.078-.093-.14-.2-.18-.315-.125-.359-.032-.768.237-1.037.073-.073.157-.134.248-.181.134-.07.281-.105.431-.112.685-.009 1.371-.009 2.056 0zm-2-5c.151.007.297.042.431.112.091.047.175.108.248.181.269.269.362.678.237 1.037-.047.134-.122.253-.217.357-.677.696-1.346 1.402-2.061 2.059-.106.092-.228.164-.362.207-.125.04-.258.054-.388.043-.121-.01-.24-.042-.35-.095-.342-.165-.566-.521-.566-.901 0-.103.016-.206.047-.304.046-.144.124-.272.226-.383.677-.696 1.346-1.402 2.061-2.059.18-.156.4-.244.638-.254zm-5-2c.113.005.223.025.329.066.273.104.49.328.587.604.034.097.051.199.056.302.009.695.028 1.39-.002 2.084-.009.141-.045.277-.11.403-.06.116-.143.221-.243.305-.093.078-.2.14-.315.18-.359.125-.768.032-1.037-.237-.073-.073-.134-.157-.181-.248-.07-.134-.105-.281-.112-.431-.009-.695-.028-1.39.002-2.084.007-.103.027-.204.064-.301.094-.246.285-.448.526-.556.094-.042.194-.068.296-.081.047-.004.093-.006.14-.006z" fill="#fff"/></g></svg>