<svg clip-rule="evenodd" fill-rule="evenodd" stroke-linecap="round" stroke-miterlimit="2" viewBox="0 0 32 32" xmlns="http://www.w3.org/2000/svg" xmlns:xlink="http://www.w3.org/1999/xlink"><clipPath id="a"><path clip-rule="evenodd" d="m0 0h32v32h-32z"/></clipPath><metadata/><path d="m0 0h32v32h-32z" fill="none"/><g clip-path="url(#a)"><path d="m19.781 7.018c-.485-.533-.781-1.241-.781-2.018v-2c0-1.656 1.344-3 3-3 1.579 0 2.875 1.222 2.991 2.772 1.178-1.063 2.996-1.027 4.13.107s1.17 2.952.107 4.13c1.55.116 2.772 1.412 2.772 2.991 0 1.656-1.344 3-3 3h-.154c.044.24.067.486.067.738v5.807c0 1.991-.65 3.914-1.832 5.488-.091.172-.209.333-.354.478v.001c-.078.077-.156.153-.236.228-.082.09-.167.179-.254.266-.001 0-.001 0-.001 0-.13.131-.275.239-.428.326-3.518 2.803-8.454 3.177-12.385.822l-.425-.254c.001.033.002.067.002.1v2c0 1.656-1.344 3-3 3-1.579 0-2.875-1.222-2.991-2.772-1.178 1.063-2.996 1.027-4.13-.107s-1.17-2.952-.107-4.13c-1.55-.116-2.772-1.412-2.772-2.991 0-1.656 1.344-3 3-3h.375c-.421-1.05-.364-2.277.261-3.322.036-.059.073-.117.111-.173-.072-.095-.138-.193-.2-.295-.25-.411-.419-.869-.496-1.344-.075-.46-.063-.934.035-1.39.088-.411.247-.807.466-1.165.214-.349.485-.663.8-.925.262-.218.552-.397.859-.533-.051-.262-.073-.529-.067-.796.011-.466.11-.93.291-1.36.162-.388.391-.747.673-1.059.274-.304.598-.562.956-.762.812-.452 1.776-.58 2.674-.373.17-.487.44-.939.797-1.32.28-.299.61-.55.971-.743.371-.198.775-.332 1.191-.396.461-.071.935-.054 1.39.048.469.106.916.302 1.312.575.434.301.797.69 1.071 1.141.002.003.004.007.007.01l.852 1.421c.477.126.93.343 1.325.647.199.153.381.324.544.512.183-.142.378-.27.583-.38z"/><path d="m6.593 19.067c-.053.109-.101.219-.143.33l-.498-.299c-.826-.494-1.095-1.566-.6-2.392.19-.317.464-.551.777-.693-.035.381-.013.765.066 1.138-.093.067-.025 1.309.398 1.916zm-.092-4.356c-.063.125-.118.254-.166.386l-.574-.393c-.203-.141-.376-.321-.505-.532-.116-.192-.195-.406-.231-.627-.035-.215-.03-.436.016-.648.041-.192.115-.375.217-.542.1-.163.226-.309.373-.432.414-.344.979-.478 1.504-.359.214.049.415.139.596.261l.524.359c-.003.182.006.365.029.546h-.001c-.903-.542-2.394 1.432-1.782 1.981zm2.071-3.97c-.058.133-.109.268-.151.406l-.767-.767c-.174-.176-.311-.384-.399-.616-.079-.21-.117-.435-.111-.659.005-.217.051-.434.135-.634.075-.18.182-.347.313-.492.128-.142.279-.263.446-.356.47-.262 1.051-.29 1.544-.076.201.088.382.213.538.367l.768.768c-.116.035-.231.077-.343.124-.017.007-.033.014-.049.021-.755-.547-2.468 1.161-1.924 1.914zm12.075-1.041-.362-.603c.374-.349.876-.563 1.427-.563.868 0 1.614.53 1.93 1.284-.327.098-.636.236-.923.408-.679-.377-1.727-.521-2.072-.526zm-7.788-1.129c-.005.014-.01.028-.015.042-.178-.042-.36-.071-.542-.086l-.531-.885c-.112-.188-.19-.394-.225-.61-.089-.531.079-1.088.448-1.481.13-.139.284-.256.453-.346.172-.092.36-.155.553-.184.215-.033.436-.025.648.022.219.05.428.141.612.268.204.141.373.325.502.536l.3.502c-.161.06-.318.132-.47.214-.84-.373-2.19 1.061-1.733 2.008z" fill="#b1ed9b"/><path d="m6.195 17.151c.099.47.286.922.559 1.324l.1.142c-.038.056-.075.114-.11.173-.055.091-.105.183-.151.277-.649-.433-.931-1.163-.629-1.666.06-.1.138-.183.231-.25zm.306-2.44c-.612-.549-.855-1.298-.54-1.822.379-.63 1.419-.701 2.322-.159h.001c.009.078.021.155.036.232-.184.081-.36.178-.527.288-.351.231-.662.522-.917.857-.144.189-.27.391-.375.604zm14.146-5.011c.24-.204.522-.321.822-.321.503 0 .954.33 1.25.847l-.029.017c-.429.266-.806.604-1.115 1.004zm-12.075 1.041c-.544-.753-.636-1.626-.172-2.09.466-.466 1.341-.371 2.096.176-.369.161-.711.382-1.01.652-.304.275-.563.599-.762.957-.056.099-.106.201-.152.305zm4.287-2.17c-.074-.094-.143-.194-.207-.301-.559-.931-.518-1.984.091-2.351.521-.312 1.288-.025 1.849.644-.105.057-.207.118-.306.185-.349.234-.658.527-.909.864-.219.292-.394.616-.518.959z" fill="#50aa48"/><path d="m16.282 13.093-1.403-2.34c-.126-.213-.209-.448-.237-.694-.026-.223-.008-.45.051-.667.058-.209.155-.408.285-.582.117-.157.261-.293.423-.402.159-.106.335-.187.519-.236.52-.141 1.09-.027 1.517.301.174.133.319.299.433.486l4.142 6.904.715.715v-2.84c0-1.155.938-2.093 2.093-2.093s2.093.938 2.093 2.093v5.807c0 1.659-.578 3.258-1.622 4.53l.022.022c-.08.08-.161.158-.243.234-.08.089-.163.175-.248.26v.001l-.021-.021c-2.884 2.466-7.051 2.844-10.35.868-2.641-1.582-5.391-3.229-5.391-3.229-.826-.495-1.095-1.567-.6-2.393.245-.409.633-.682 1.062-.792l3.875 2.768c.039.026.081.046.127.056.141.032.291-.03.37-.152.022-.034.037-.072.046-.112.009-.041.011-.083.005-.125-.006-.044-.021-.088-.044-.126-.024-.043-.058-.08-.098-.109l-5.366-3.833c-.009-.012-.018-.025-.027-.038-.302-.445-.381-1.021-.21-1.532.061-.181.152-.352.267-.504.119-.155.263-.29.426-.398.182-.12.386-.205.599-.25.219-.046.447-.05.668-.011.244.043.474.139.679.277l1.208.827 2.909 2.91c.034.032.072.059.116.076.134.055.293.018.39-.089.027-.03.049-.065.064-.103.016-.039.025-.081.026-.123.001-.044-.007-.089-.023-.131-.017-.047-.045-.088-.079-.124l-4.69-4.689c-.153-.156-.278-.336-.365-.536-.214-.494-.186-1.075.076-1.545.093-.167.214-.318.356-.446.145-.131.312-.237.492-.313.2-.084.416-.13.634-.135.224-.005.449.033.659.112.231.087.44.224.616.398l4.286 4.286.155.155c.034.033.072.059.116.077.134.054.293.018.39-.09.027-.03.049-.064.064-.102.016-.039.025-.081.026-.123.001-.045-.007-.09-.023-.132-.017-.046-.045-.087-.079-.123z" fill="#b1ed9b"/><g fill="none" stroke="#fff" stroke-width="2"><path d="m22 5v-2"/><path d="m25 7 2-2"/><path d="m27 10h2"/><path d="m10 27v2"/><path d="m7 25-2 2"/><path d="m5 22h-2"/></g></g></svg>