<svg clip-rule="evenodd" fill-rule="evenodd" stroke-linecap="round" stroke-miterlimit="2" viewBox="0 0 32 32" xmlns="http://www.w3.org/2000/svg" xmlns:xlink="http://www.w3.org/1999/xlink"><clipPath id="a"><path clip-rule="evenodd" d="m0 0h32v32h-32z"/></clipPath><clipPath id="b"><path clip-rule="evenodd" d="m24.342 11.106s1.836 5.509 3.087 9.26c.694 2.085.152 4.385-1.403 5.939-.177.178-.359.36-.544.545-2.805 2.805-7.354 2.805-10.159 0-1.524-1.525-2.8-2.8-2.8-2.8l2.814-2.814-.563-.563 1.689-1.688-.563-.563 3.94-3.939 2.814 2.814s-.254-.759-.563-1.689c-.622-1.865.386-3.881 2.251-4.502z"/></clipPath><metadata/><path d="m0 0h32v32h-32z" fill="none"/><g clip-path="url(#a)"><g fill="none"><path d="m22 5v-2" stroke="#000" stroke-width="6"/><path d="m25 7 2-2" stroke="#000" stroke-width="6"/><path d="m27 10h2" stroke="#000" stroke-width="6"/><path d="m10 27v2" stroke="#000" stroke-width="6"/><path d="m7 25-2 2" stroke="#000" stroke-width="6"/><path d="m5 22h-2" stroke="#000" stroke-width="6"/><path d="m11.03 6.333c.422 0 .828.168 1.126.466l6.85 6.85s-.253-.758-.563-1.688c-.621-1.865.386-3.881 2.252-4.503 0 0 1.836 5.51 3.087 9.26.694 2.086.151 4.385-1.403 5.94-.178.178-.36.36-.545.545-2.805 2.805-7.353 2.805-10.158 0l-8.428-8.428h2.717c.422 0 .827.168 1.126.466l3.473 3.473.563-.562-7.316-7.317h2.717c.422 0 .827.168 1.125.466l4.6 4.599.562-.562-7.316-7.317h2.717c.422 0 .828.168 1.126.466l4.599 4.599.563-.562-6.191-6.191z" stroke="#000" stroke-linecap="butt" stroke-miterlimit="3" stroke-width="4"/></g><path d="m11.03 6.333c.422 0 .828.168 1.126.466l6.85 6.85s-.253-.758-.563-1.688c-.621-1.865.386-3.881 2.252-4.503 0 0 1.836 5.51 3.087 9.26.694 2.086.151 4.385-1.403 5.94-.178.178-.36.36-.545.545-2.805 2.805-7.353 2.805-10.158 0l-8.428-8.428h2.717c.422 0 .827.168 1.126.466l3.473 3.473.563-.562-7.316-7.317h2.717c.422 0 .827.168 1.125.466l4.6 4.599.562-.562-7.316-7.317h2.717c.422 0 .828.168 1.126.466l4.599 4.599.563-.562-6.191-6.191z" fill="#7b24cc"/><path d="m14.678 9.98c.422 0 .827.168 1.125.466l6.851 6.851s-.254-.759-.563-1.689c-.622-1.865.386-3.881 2.251-4.502 0 0 1.836 5.509 3.087 9.26.694 2.085.152 4.385-1.403 5.939-.177.178-.359.36-.544.545-2.805 2.805-7.354 2.805-10.159 0l-8.428-8.428h2.717c.423 0 .828.168 1.126.466l3.474 3.474.562-.563-7.316-7.316h2.717c.422 0 .828.167 1.126.466l4.599 4.599.563-.563-7.317-7.316h2.718c.422 0 .827.167 1.125.466l4.599 4.599.563-.563-6.191-6.191z" fill="none" stroke="#000" stroke-linecap="butt" stroke-miterlimit="3" stroke-width="4"/><path d="m14.678 9.98c.422 0 .827.168 1.125.466l6.851 6.851v-.294l-.396-2.182-.346-.517c.072-1.422.998-2.721 2.43-3.198 0 0 1.836 5.509 3.087 9.26.694 2.085.152 4.385-1.403 5.939-.177.178-.359.36-.544.545-2.805 2.805-7.354 2.805-10.159 0l-8.428-8.428h2.717c.423 0 .828.168 1.126.466l3.474 3.474.562-.563-7.316-7.316h2.717c.422 0 .828.167 1.126.466l4.599 4.599.563-.563-7.317-7.316h2.718c.422 0 .827.167 1.125.466l4.599 4.599.563-.563-6.191-6.191z" fill="#925adb"/><g clip-path="url(#b)"><path d="m22.654 17.297-2.252-4.503s2.732 2.732 3.94 3.94c.311.31.311.815 0 1.125-.311.311-.815.311-1.126 0-.281-.281-.562-.562-.562-.562z" fill="#7b24cc"/></g><path d="m22 5v-2" fill="none" stroke="#fff" stroke-width="2"/><path d="m25 7 2-2" fill="none" stroke="#fff" stroke-width="2"/><path d="m27 10h2" fill="none" stroke="#fff" stroke-width="2"/><path d="m10 27v2" fill="none" stroke="#fff" stroke-width="2"/><path d="m7 25-2 2" fill="none" stroke="#fff" stroke-width="2"/><path d="m5 22h-2" fill="none" stroke="#fff" stroke-width="2"/></g></svg>