<svg clip-rule="evenodd" fill-rule="evenodd" stroke-linecap="round" stroke-linejoin="round" stroke-miterlimit="10" viewBox="0 0 32 32" xmlns="http://www.w3.org/2000/svg" xmlns:xlink="http://www.w3.org/1999/xlink"><clipPath id="a"><path clip-rule="evenodd" d="m0 0h32v32h-32z"/></clipPath><clipPath id="b"><path clip-rule="evenodd" d="m3 15 13-13 13 13-13 13z"/></clipPath><clipPath id="c"><path clip-rule="evenodd" d="m4 5h32v32h-32z"/></clipPath><clipPath id="d"><path clip-rule="evenodd" d="m20 19h1l.5-.5-.5-.5v-5l.5-.5-.5-.5v-.172c0-.53.211-1.039.586-1.414.873-.873 2.414-2.414 2.414-2.414v4l-.5.5.5.5v5l-.5.5.5.5v5s.858-1.144 1.657-2.209c.845-1.127 2.173-1.791 3.582-1.791h1.761s-3.263 6.526-5.484 10.969c-1.236 2.47-3.761 4.031-6.523 4.031h-.968c-4.984 0-9.025-4.041-9.025-9.025v-3.424-1.551l.5-.5-.5-.5v-4l.5-.5-.5-.5v-.172c0-.53.211-1.039.586-1.414.873-.873 2.414-2.414 2.414-2.414v4l-.5.5.5.5v4l-.5.5.5.5h1v-1l.5-.5-.5-.5v-4l.5-.5-.5-.5v-2.172c0-.53.211-1.039.586-1.414.873-.873 2.414-2.414 2.414-2.414v6l-.5.5.5.5v4l-.5.5.5.5h1v-1l.5-.5-.5-.5v-5l.5-.5-.5-.5v-1.172c0-.53.211-1.039.586-1.414.873-.873 2.414-2.414 2.414-2.414v5l-.5.5.5.5v5l-.5.5z"/></clipPath><metadata/><path d="m0 0h32v32h-32z" fill="none"/><g clip-path="url(#a)"><path d="m3 15 13-13 13 13v2l-13 13-13-13z" fill="none" stroke="#000" stroke-width="4"/><path d="m3 17v-2l13-11 13 11v2l-13 13z" fill="#464646"/><path d="m3 15 13-13 13 13-13 13z" fill="#fff"/><g clip-path="url(#b)"><g clip-path="url(#c)"><path d="m4 5h32v32h-32z" fill="none"/><path d="m24.597 5 1.403.581v13.287c.085-.05.172-.096.259-.142.083-.042.166-.083.251-.123.368-.168.747-.306 1.14-.405.518-.131 1.048-.194 1.582-.198h5.004l-6.935 13.871c-.073.143-.073.142-.149.284-.106.19-.215.378-.332.562-.261.408-.554.796-.876 1.158-1.165 1.313-2.701 2.281-4.389 2.765-.517.148-1.047.252-1.582.308-.271.029-.543.043-.816.051l-.214.001h-.888l-.172-.001c-.375-.007-.749-.028-1.122-.071-.862-.098-1.712-.299-2.527-.598-1.584-.579-3.026-1.528-4.19-2.748-1.072-1.126-1.904-2.477-2.42-3.943-.273-.776-.459-1.583-.552-2.4-.043-.373-.064-.747-.071-1.122l-.001-.136v-2.983c-.064-2.756-.033-5.513.001-8.269.01-.263.039-.523.097-.78.115-.509.329-.994.629-1.421.131-.185.278-.357.436-.519l4.133-4.134.707.293 3.169-3.168h.425l1.403.581v.591l1.172-1.172h2.828v2.172l2.172-2.172h.425z"/><path d="m20 19h1l.5-.5-.5-.5v-5l.5-.5-.5-.5v-.172c0-.53.211-1.039.586-1.414.873-.873 2.414-2.414 2.414-2.414v4l-.5.5.5.5v5l-.5.5.5.5v5s.858-1.144 1.657-2.209c.845-1.127 2.173-1.791 3.582-1.791h1.761s-3.263 6.526-5.484 10.969c-1.236 2.47-3.761 4.031-6.523 4.031h-.968c-4.984 0-9.025-4.041-9.025-9.025v-3.424-1.551l.5-.5-.5-.5v-4l.5-.5-.5-.5v-.172c0-.53.211-1.039.586-1.414.873-.873 2.414-2.414 2.414-2.414v4l-.5.5.5.5v4l-.5.5.5.5h1v-1l.5-.5-.5-.5v-4l.5-.5-.5-.5v-2.172c0-.53.211-1.039.586-1.414.873-.873 2.414-2.414 2.414-2.414v6l-.5.5.5.5v4l-.5.5.5.5h1v-1l.5-.5-.5-.5v-5l.5-.5-.5-.5v-1.172c0-.53.211-1.039.586-1.414.873-.873 2.414-2.414 2.414-2.414v5l-.5.5.5.5v5l-.5.5z" fill="#808080"/><g clip-path="url(#d)"><path d="m25.587 18.004c.126.015.246.044.36.102.343.171.562.535.553.918-.004.149-.043.288-.106.423l-3.471 6.943c-.328-.186-.654-.375-.984-.558-.064-.033-.128-.064-.194-.094-.285-.122-.583-.203-.892-.23-.789-.069-1.586.205-2.164.746-.228.212-.414.461-.563.733-.421.815-.821 1.64-1.232 2.46-.07.131-.158.246-.275.338-.099.078-.212.137-.333.173-.1.03-.205.044-.31.042-.339-.008-.658-.194-.833-.484-.054-.09-.094-.188-.117-.29-.033-.143-.034-.293-.004-.437.014-.062.034-.12.057-.179.384-.832.818-1.64 1.227-2.459.094-.181.194-.357.307-.526.227-.337.497-.646.8-.915.426-.378.919-.679 1.45-.886 1.004-.39 2.134-.434 3.163-.113l2.58-5.158c.03-.056.061-.109.099-.16.128-.167.307-.291.509-.351.081-.024.163-.035.247-.041.063-.001.063-.001.126.003z" fill="#616161" fill-rule="nonzero"/></g><g fill="#616161"><path d="m21 12h3v1h-3z"/><path d="m21 18h3v1h-3z"/><path d="m17 12h3v1h-3z"/><path d="m17 18h3v1h-3z"/><path d="m13 14h3v1h-3z"/><path d="m13 19h3v1h-3z"/><path d="m9 15h3v1h-3z"/><path d="m9 20h3v1h-3z"/></g></g></g></g></svg>