<svg clip-rule="evenodd" fill-rule="evenodd" stroke-linecap="round" stroke-linejoin="round" stroke-miterlimit="1.5" viewBox="0 0 32 32" xmlns="http://www.w3.org/2000/svg" xmlns:xlink="http://www.w3.org/1999/xlink"><clipPath id="a"><path clip-rule="evenodd" d="m0 0h32v32h-32z"/></clipPath><metadata/><path d="m0 0h32v32h-32z" fill="none"/><g clip-path="url(#a)"><path d="m30 13c0-3.866-3.134-7-7-7h-14c-3.866 0-7 3.134-7 7v11h28z" fill="none" stroke="#000" stroke-width="4"/><path d="m14 23h4v7h-4z" fill="none" stroke="#000" stroke-linejoin="miter" stroke-width="4"/><path d="m14 20h4v10h-4z" fill="#595959"/><path d="m30 13c0-1.857-.738-3.637-2.05-4.95-1.313-1.313-3.094-2.05-4.95-2.05-6.108 0-14 0-14 0l7 18h14z" fill="#b9b9b9"/><path d="m16 13c0-3.866-3.134-7-7-7-3.866 0-7 3.134-7 7v11h14z" fill="#fff"/><path d="m18 13v3h6v1c0 .552.448 1 1 1h2c.552 0 1-.448 1-1 0-.871 0-2.129 0-3 0-.552-.448-1-1-1-2.533 0-9 0-9 0z" fill="#e02a33"/></g></svg>