<svg clip-rule="evenodd" fill-rule="evenodd" stroke-linecap="square" stroke-linejoin="round" stroke-miterlimit="1.5" viewBox="0 0 32 32" xmlns="http://www.w3.org/2000/svg" xmlns:xlink="http://www.w3.org/1999/xlink"><clipPath id="a"><path clip-rule="evenodd" d="m0 0h32v32h-32z"/></clipPath><metadata/><path d="m0 0h32v32h-32z" fill="none"/><g clip-path="url(#a)"><path d="m18.772 9.986 1.985-1.986s-.808-.808-1.585-1.586c-.781-.781-.781-2.047 0-2.828.827-.828 1.71-1.711 1.71-1.711 1.998-1.998 5.238-1.998 7.236 0 .002.002.005.005.007.007 1.998 1.998 1.998 5.238 0 7.236l-5.111 5.11c.684-.17 1.411-.032 1.987.383.627.452.999 1.178.999 1.951v.921c0 1.038-.556 1.995-1.456 2.51-3.044 1.739-20.552 11.743-20.552 11.743-.783.448-1.768.316-2.406-.322s-.77-1.623-.322-2.406c0 0 10.004-17.508 11.743-20.552.515-.9 1.472-1.456 2.51-1.456h.921c.773 0 1.499.372 1.951.999.415.576.553 1.303.383 1.987z"/><path d="m22 5s.471-.471 1.004-1.004c.826-.826 2.166-.826 2.992 0 .003.003.005.005.008.008.396.397.619.935.619 1.496s-.223 1.1-.619 1.496c-1.05 1.05-2.267 2.267-2.267 2.267" fill="none" stroke="#525252" stroke-width="2"/><path d="m17 15.414v-.828l3.724-3.724 1.603-.096.282 1.039-4.609 4.609z" fill="#3d3d3d"/><path d="m20.724 10.862 3.276-3.276 1.414 1.414-2.805 2.805z" fill="#525252"/><path d="m18.354 14.646c.108.109.269.146.414.098.532-.177 1.227-.409 1.699-.566.123-.041.259-.021.365.055.105.076.168.199.168.329v1.876c0 .13.063.253.168.329.106.076.242.096.365.055.546-.182 1.388-.462 1.934-.644.123-.041.259-.021.365.055.105.076.168.199.168.329v.921c0 .32-.171.615-.448.773-3.044 1.74-20.552 11.744-20.552 11.744l.864-1.372 13.136-13.628z" fill="#b3222e"/><path d="m3 30 11.744-20.552c.158-.277.453-.448.773-.448h.921c.13 0 .253.063.329.168.076.106.096.242.055.365-.182.546-.462 1.388-.644 1.934-.041.123-.021.259.055.365.076.105.199.168.329.168h1.876c.13 0 .253.063.329.168.076.106.096.242.055.365-.157.472-.389 1.167-.566 1.699l.098.414-15.354 15.354z" fill="#e82731"/></g></svg>