<svg clip-rule="evenodd" fill-rule="evenodd" stroke-linecap="square" viewBox="0 0 32 32" xmlns="http://www.w3.org/2000/svg" xmlns:xlink="http://www.w3.org/1999/xlink"><clipPath id="a"><path clip-rule="evenodd" d="m0 0h32v32h-32z"/></clipPath><clipPath id="b"><path clip-rule="evenodd" d="m13.696 9.572c1.072-2.118 3.27-3.572 5.804-3.572 3.587 0 6.5 2.913 6.5 6.5 0 .571-.074 1.124-.212 1.652 2.416.579 4.212 2.754 4.212 5.348 0 3.038-2.462 5.5-5.5 5.5-4.917 0-12.083 0-17 0-3.038 0-5.5-2.462-5.5-5.5 0-2.879 2.212-5.242 5.03-5.48-.02-.171-.03-.344-.03-.52 0-2.484 2.016-4.5 4.5-4.5.797 0 1.546.208 2.196.572z"/></clipPath><metadata/><path d="m0 0h32v32h-32z" fill="none"/><g clip-path="url(#a)"><path d="m13.697 9.575c1.069-2.12 3.268-3.575 5.803-3.575 3.587 0 6.5 2.913 6.5 6.5 0 .571-.074 1.125-.213 1.653 2.416.577 4.213 2.752 4.213 5.347 0 3.038-2.462 5.5-5.5 5.5-4.917 0-12.083 0-17 0-3.038 0-5.5-2.462-5.5-5.5 0-2.881 2.215-5.245 5.033-5.479-.023-.171-.033-.345-.033-.521 0-2.484 2.016-4.5 4.5-4.5.797 0 1.546.208 2.197.575z" stroke="#000" stroke-width="4"/><path d="m13.697 9.575c1.069-2.12 3.268-3.575 5.803-3.575 3.587 0 6.5 2.913 6.5 6.5 0 .571-.074 1.125-.213 1.653 2.416.577 4.213 2.752 4.213 5.347 0 3.038-2.462 5.5-5.5 5.5-4.917 0-12.083 0-17 0-3.038 0-5.5-2.462-5.5-5.5 0-2.881 2.215-5.245 5.033-5.479-.023-.171-.033-.345-.033-.521 0-2.484 2.016-4.5 4.5-4.5.797 0 1.546.208 2.197.575z" fill="#e6e6e6"/><path d="m13.696 9.572c1.072-2.118 3.27-3.572 5.804-3.572 3.587 0 6.5 2.913 6.5 6.5 0 .571-.074 1.124-.212 1.652 2.416.579 4.212 2.754 4.212 5.348 0 3.038-2.462 5.5-5.5 5.5-4.917 0-12.083 0-17 0-3.038 0-5.5-2.462-5.5-5.5 0-2.879 2.212-5.242 5.03-5.48-.02-.171-.03-.344-.03-.52 0-2.484 2.016-4.5 4.5-4.5.797 0 1.546.208 2.196.572z" fill="none"/><g clip-path="url(#b)"><path d="m27 10s-.292-.146-.764-.382c-1.55-.775-3.391-.692-4.865.219s-2.371 2.52-2.371 4.253v1.91s-1.14 0-2.5 0c-2.485 0-4.5 2.015-4.5 4.5 0 1.193.474 2.338 1.318 3.182s1.989 1.318 3.182 1.318h17.5v-15z" fill="#bfbfbf"/></g><path d="m19.584 6.001.084.001.083.003.083.003.083.005.083.006.082.007.082.008.082.008.081.01.082.011.08.012.081.013.08.014.08.014.079.016.079.017.079.018.079.018.078.02.077.02.078.022.077.022.076.023.076.025.076.025.075.026.075.027.074.027.074.029.074.03.073.03.073.031.072.033.072.033.071.033.071.035.07.036.07.036.069.037.069.038.068.039.068.039.067.041.067.041.066.042.066.042.065.044.065.044.064.045.063.046.063.046.062.047.062.048.061.049.061.049.06.05.059.051.058.051.058.052.058.053.057.054.056.054.055.055.055.055.054.056.054.057.053.058.052.058.051.058.051.059.05.06.049.061.049.061.048.062.047.062.046.063.046.063.045.064.044.065.044.065.042.066.042.066.041.067.041.067.039.068.039.068.038.069.037.069.036.07.036.07.035.071.033.071.033.072.033.072.031.073.03.073.03.074.029.074.027.074.027.075.026.075.025.076.025.076.023.076.022.077.022.078.02.077.02.078.018.079.018.079.017.079.016.079.014.08.014.08.013.081.012.08.011.082.01.081.008.082.008.082.007.082.006.083.005.083.003.083.003.083.001.084.001.084-.001.107-.002.106-.005.106-.006.106-.007.105-.01.104-.011.104-.012.104-.014.103-.016.103-.018.102-.019.101-.02.101-.022.101-.024.099-.025.1.113.028.112.031.11.033.11.035.109.037.108.04.107.042.106.044.104.046.104.048.102.05.101.052.1.054.098.057.097.058.096.06.095.062.093.064.092.066.091.068.088.069.088.071.086.073.084.075.083.076.082.078.079.08.079.081.076.083.075.084.073.086.071.087.07.089.067.091.066.091.064.094.062.094.061.096.058.097.056.099.055.099.052.101.05.102.049.104.046.104.044.106.042.107.04.107.037.109.036.11.033.111.03.112.029.113.026.113.024.115.021.115.019.116.017.117.014.118.011.119.009.119.007.12.004.121.001.121v.071l-.002.071-.002.071-.003.07-.004.07-.005.07-.006.07-.006.069-.008.07-.008.068-.009.069-.01.069-.011.068-.012.068-.012.067-.014.067-.014.067-.015.067-.016.066-.016.067-.018.065-.018.066-.019.065-.019.065-.021.064-.021.064-.022.064-.023.063-.023.063-.024.063-.025.062-.026.062-.027.061-.027.061-.028.061-.028.06-.03.06-.03.06-.03.059-.032.059-.032.058-.033.058-.033.057-.034.057-.035.056-.035.056-.037.056-.036.055-.038.055-.038.054-.038.054-.04.053-.04.052-.04.053-.041.051-.042.052-.042.05-.043.05-.044.05-.044.049-.044.049-.046.048-.046.047-.046.047-.047.046-.047.046-.048.046-.049.044-.049.044-.05.044-.05.043-.05.042-.052.042-.051.041-.053.04-.052.04-.053.04-.054.038-.054.038-.055.038-.055.036-.056.037-.056.035-.056.035-.057.034-.057.033-.058.033-.058.032-.059.032-.059.03-.06.03-.06.03-.06.028-.061.028-.061.027-.061.027-.062.026-.062.025-.063.024-.063.023-.063.023-.064.022-.064.021-.064.021-.065.019-.065.019-.066.018-.065.018-.067.016-.066.016-.067.015-.067.014-.067.014-.067.012-.068.012-.068.011-.069.01-.068.009-.069.008-.07.008-.069.006-.07.006-.07.005-.07.004-.07.003-.071.002-.071.002h-.071-17-.071l-.071-.002-.071-.002-.07-.003-.07-.004-.07-.005-.07-.006-.069-.006-.07-.008-.069-.008-.068-.009-.069-.01-.068-.011-.068-.012-.067-.012-.067-.014-.067-.014-.067-.015-.066-.016-.067-.016-.065-.018-.066-.018-.065-.019-.065-.019-.064-.021-.064-.021-.064-.022-.063-.023-.063-.023-.063-.024-.062-.025-.062-.026-.061-.027-.061-.027-.061-.028-.06-.028-.06-.03-.06-.03-.059-.03-.059-.032-.058-.032-.058-.033-.057-.033-.057-.034-.056-.035-.056-.035-.056-.037-.055-.036-.055-.038-.054-.038-.054-.038-.053-.04-.052-.04-.053-.04-.051-.041-.052-.042-.05-.042-.05-.043-.05-.044-.049-.044-.049-.044-.048-.046-.047-.046-.047-.046-.046-.047-.046-.047-.046-.048-.044-.049-.044-.049-.044-.05-.043-.05-.042-.05-.042-.052-.041-.051-.04-.053-.04-.052-.04-.053-.038-.054-.038-.054-.038-.055-.036-.055-.037-.056-.035-.056-.035-.056-.034-.057-.033-.057-.033-.058-.032-.058-.032-.059-.03-.059-.03-.06-.03-.06-.028-.06-.028-.061-.027-.061-.027-.061-.026-.062-.025-.062-.024-.063-.023-.063-.023-.063-.022-.064-.021-.064-.021-.064-.019-.065-.019-.065-.018-.066-.018-.065-.016-.067-.016-.066-.015-.067-.014-.067-.014-.067-.012-.067-.012-.068-.011-.068-.01-.069-.009-.069-.008-.068-.008-.07-.006-.069-.006-.07-.005-.07-.004-.07-.003-.07-.002-.071-.002-.071v-.071-.067l.002-.068.002-.067.002-.066.004-.067.004-.066.006-.066.006-.066.006-.066.008-.066.008-.065.009-.065.01-.065.01-.064.012-.064.012-.064.012-.064.014-.064.014-.063.015-.063.016-.062.016-.063.017-.062.018-.061.018-.062.019-.061.02-.061.021-.06.043-.121.046-.118.048-.118.051-.116.054-.115.056-.113.059-.112.061-.11.064-.108.066-.107.068-.106.071-.103.073-.102.075-.101.077-.098.08-.097.082-.094.083-.093.086-.091.088-.089.09-.087.092-.085.094-.083.095-.081.098-.078.099-.077.101-.074.103-.072.105-.069.106-.067.108-.065.109-.063.111-.06.112-.057.114-.055.116-.053.116-.049.118-.048.12-.044.121-.042.06-.02.062-.019.061-.018.062-.018.062-.017.062-.017.063-.015.063-.015.063-.015.063-.013.064-.013.064-.012.064-.011.065-.011.064-.01.065-.009.066-.008.065-.007.066-.007.066-.006-.007-.064-.006-.065-.005-.064-.004-.065-.004-.065-.002-.066-.002-.065v-.066l.001-.116.005-.115.007-.115.01-.114.013-.113.016-.112.018-.111.021-.11.024-.11.027-.108.029-.107.031-.107.035-.105.036-.104.039-.102.042-.102.044-.1.046-.099.049-.098.05-.096.054-.095.055-.094.057-.092.06-.09.062-.089.063-.088.066-.086.068-.084.07-.082.072-.081.073-.079.076-.077.077-.076.079-.073.081-.072.082-.07.084-.068.086-.066.088-.063.089-.062.09-.06.092-.057.094-.055.095-.054.096-.05.098-.049.099-.046.1-.044.102-.042.102-.039.104-.036.105-.035.107-.031.107-.029.108-.027.11-.024.11-.021.111-.018.112-.016.113-.013.114-.01.115-.007.115-.005.116-.001.075.001.074.001.074.003.074.005.073.005.073.007.073.007.072.009.072.01.072.011.071.013.071.013.07.014.07.016.07.017.069.017.069.019.069.02.068.021.067.022.067.023.066.024.066.025.066.026.065.027.065.028.064.029.063.03.063.031.062.032.062.032.061.034.051-.099.053-.097.054-.097.056-.096.058-.095.059-.093.06-.093.062-.092.064-.09.065-.089.067-.088.068-.087.069-.086.071-.084.072-.084.074-.082.075-.08.076-.08.078-.078.079-.077.08-.076.081-.074.083-.073.084-.071.085-.07.087-.069.087-.067.089-.066.09-.064.091-.062.092-.062.094-.059.094-.058.095-.057.097-.055.097-.053.098-.052.1-.05.1-.049.101-.046.103-.045.103-.044.104-.041.105-.04.105-.038.107-.037.107-.034.109-.033.109-.031.109-.029.111-.027.111-.025.112-.023.113-.022.113-.019.114-.017.114-.016.116-.013.116-.012.116-.009.117-.007.117-.006.118-.003.119-.001.084.001zm-.185 1-.1.003-.099.004-.1.006-.098.008-.098.01-.098.011-.097.013-.096.015-.096.017-.095.018-.095.019-.093.022-.094.023-.093.024-.092.026-.091.028-.091.029-.09.031-.089.032-.089.033-.088.036-.087.036-.086.038-.086.04-.085.041-.084.042-.083.044-.083.045-.081.046-.081.048-.08.05-.078.05-.078.052-.078.053-.076.054-.075.056-.074.057-.073.058-.072.059-.072.061-.07.061-.069.063-.068.064-.067.065-.065.067-.065.067-.064.068-.062.07-.061.071-.06.071-.059.073-.058.073-.056.075-.055.076-.054.076-.053.077-.051.079-.05.079-.048.08-.048.081-.046.082-.044.083-.519 1.003-.954-.525-.048-.025-.048-.025-.049-.024-.049-.023-.05-.023-.05-.022-.05-.02-.051-.021-.052-.019-.051-.019-.052-.018-.052-.017-.053-.016-.053-.015-.054-.015-.053-.014-.054-.013-.055-.012-.055-.011-.055-.01-.055-.01-.056-.008-.056-.008-.056-.007-.056-.006-.057-.005-.057-.004-.058-.004-.058-.002-.058-.001-.056-.001-.093.001-.09.004-.089.005-.089.008-.088.01-.087.012-.086.015-.086.016-.085.019-.084.02-.083.023-.082.024-.082.027-.081.028-.079.031-.079.032-.078.034-.077.036-.076.038-.075.039-.073.041-.073.043-.072.045-.07.047-.07.048-.068.049-.067.052-.065.052-.064.055-.063.056-.062.057-.06.059-.059.06-.057.062-.056.063-.055.064-.052.065-.052.067-.049.068-.048.07-.047.07-.045.072-.043.073-.041.073-.039.075-.038.076-.036.077-.034.078-.032.079-.031.079-.028.081-.027.082-.024.082-.023.083-.02.084-.019.085-.016.086-.015.086-.012.087-.01.088-.008.089-.005.089-.004.09-.001.094v.048l.002.052.001.051.003.05.003.051.004.05.005.05.115 1.069-1.073.097-.054.006-.053.006-.054.007-.053.007-.053.008-.052.009-.053.009-.052.01-.052.01-.052.011-.052.012-.051.012-.051.013-.051.013-.051.014-.05.015-.051.015-.05.016-.046.015-.102.035-.097.036-.097.039-.095.041-.095.042-.093.045-.092.047-.09.049-.09.052-.088.053-.087.055-.085.057-.084.058-.083.061-.082.063-.079.064-.079.066-.077.068-.075.07-.074.071-.072.073-.07.074-.069.076-.067.078-.065.079-.063.081-.062.082-.059.083-.058.085-.056.086-.054.088-.052.089-.05.09-.048.091-.046.093-.044.093-.042.095-.039.096-.038.097-.036.101-.016.047-.016.05-.016.05-.015.05-.014.05-.014.051-.014.051-.012.051-.013.051-.011.052-.011.052-.011.052-.009.052-.01.053-.008.052-.008.053-.008.054-.006.053-.007.054-.005.053-.005.054-.004.055-.004.054-.003.055-.002.054-.002.055-.001.056v.055.058l.001.059.002.058.003.057.003.058.004.057.005.057.005.057.006.057.007.056.008.057.008.056.009.055.009.056.011.055.01.055.012.055.012.054.013.054.014.054.014.054.015.054.015.053.016.053.017.052.017.052.018.053.019.051.019.052.02.051.02.051.021.05.022.051.022.049.023.05.023.049.024.049.025.049.025.048.026.048.026.048.027.047.027.047.028.047.028.046.029.046.03.045.03.045.031.045.031.044.031.044.033.044.032.043.033.043.034.042.034.042.035.042.035.041.036.04.036.04.036.04.037.04.038.038.038.039.038.038.039.038.04.037.04.036.04.036.04.036.042.035.041.035.042.034.042.034.043.033.043.032.044.033.044.031.044.031.045.031.045.03.045.03.046.029.046.028.047.028.047.027.047.027.048.026.048.026.048.025.049.025.049.024.049.023.05.023.049.022.051.022.05.021.051.02.051.02.052.019.052.019.052.018.052.017.052.017.053.016.054.015.053.015.054.014.054.014.054.013.054.012.055.012.055.01.055.011.056.009.055.009.056.008.057.008.056.007.057.006.057.005.057.005.057.004.058.003.057.003.058.002.059.001h.061 16.994.061l.059-.001.058-.002.057-.003.058-.003.057-.004.057-.005.057-.005.057-.006.056-.007.057-.008.056-.008.055-.009.056-.009.055-.011.055-.01.055-.012.054-.012.054-.013.054-.014.054-.014.053-.015.054-.015.053-.016.052-.017.052-.017.052-.018.052-.019.052-.019.051-.02.051-.02.05-.021.051-.022.049-.022.05-.023.049-.023.049-.024.049-.025.048-.025.048-.026.048-.026.047-.027.047-.027.047-.028.046-.028.046-.029.045-.03.045-.03.045-.031.044-.031.044-.031.044-.033.043-.032.043-.033.042-.034.042-.034.041-.035.042-.035.04-.036.04-.036.04-.036.04-.037.038-.038.039-.038.038-.039.038-.038.037-.04.036-.04.036-.04.036-.04.035-.041.035-.042.034-.042.034-.042.033-.043.032-.043.033-.044.031-.044.031-.044.031-.045.03-.045.03-.045.029-.046.028-.046.028-.047.027-.047.027-.047.026-.048.026-.048.025-.048.025-.049.024-.049.023-.049.023-.05.022-.049.022-.051.021-.05.02-.051.02-.051.019-.052.019-.052.018-.052.017-.052.017-.052.016-.053.015-.054.015-.053.014-.054.014-.054.013-.054.012-.054.012-.055.01-.055.011-.055.009-.056.009-.055.008-.056.008-.057.007-.056.006-.057.005-.057.005-.057.004-.057.003-.058.003-.057.002-.058.001-.059v-.056l-.001-.102-.003-.099-.006-.098-.007-.098-.01-.097-.011-.096-.014-.096-.015-.095-.018-.094-.019-.094-.021-.093-.024-.092-.025-.091-.027-.091-.029-.09-.03-.088-.033-.089-.034-.087-.036-.086-.038-.085-.039-.085-.041-.083-.043-.083-.045-.081-.046-.081-.047-.08-.05-.078-.051-.077-.052-.077-.054-.075-.055-.074-.057-.072-.059-.072-.06-.07-.061-.07-.062-.067-.064-.067-.066-.065-.066-.064-.068-.063-.07-.061-.07-.06-.072-.058-.073-.057-.074-.055-.075-.054-.076-.052-.078-.051-.078-.049-.08-.048-.08-.046-.082-.044-.082-.043-.084-.041-.084-.039-.086-.038-.086-.036-.087-.034-.089-.033-.089-.03-.089-.029-.091-.027-.091-.025-1.075-.27.27-1.063.02-.084.019-.085.017-.085.016-.086.015-.087.013-.086.012-.088.011-.087.009-.088.008-.089.006-.089.005-.089.004-.09.002-.09.001-.092v-.07l-.002-.071-.002-.071-.003-.071-.004-.07-.005-.07-.006-.07-.006-.069-.008-.069-.008-.069-.009-.069-.01-.068-.011-.068-.012-.068-.013-.067-.013-.068-.014-.066-.015-.067-.016-.066-.016-.066-.018-.066-.018-.065-.019-.065-.019-.065-.021-.064-.021-.064-.022-.064-.023-.063-.023-.063-.024-.062-.025-.063-.026-.061-.027-.062-.027-.061-.028-.06-.028-.061-.029-.06-.03-.059-.031-.059-.032-.059-.032-.058-.033-.058-.033-.057-.034-.057-.035-.056-.035-.056-.037-.056-.036-.055-.038-.055-.038-.054-.038-.054-.04-.053-.04-.053-.04-.052-.041-.052-.042-.051-.043-.051-.043-.05-.043-.05-.044-.049-.045-.048-.045-.049-.046-.047-.047-.047-.047-.047-.047-.046-.049-.045-.048-.045-.049-.044-.05-.043-.05-.043-.051-.043-.051-.042-.052-.041-.052-.04-.053-.04-.053-.04-.054-.038-.054-.038-.055-.038-.055-.036-.056-.037-.056-.035-.056-.035-.057-.034-.057-.033-.058-.033-.058-.032-.059-.032-.059-.031-.059-.03-.06-.029-.061-.028-.06-.028-.061-.027-.062-.027-.062-.026-.062-.025-.062-.024-.063-.023-.063-.023-.064-.022-.064-.021-.064-.021-.065-.019-.065-.019-.065-.018-.066-.018-.066-.016-.066-.016-.067-.015-.066-.014-.068-.014-.067-.012-.068-.012-.068-.011-.068-.01-.069-.009-.069-.008-.069-.008-.069-.006-.07-.006-.07-.005-.07-.004-.071-.003-.071-.002-.071-.002h-.07z" fill="#e6e6e6"/></g></svg>