<svg clip-rule="evenodd" fill-rule="evenodd" stroke-linecap="round" stroke-linejoin="round" stroke-miterlimit="1.5" viewBox="0 0 32 32" xmlns="http://www.w3.org/2000/svg" xmlns:xlink="http://www.w3.org/1999/xlink"><clipPath id="a"><path clip-rule="evenodd" d="m0 .017h32v32h-32z"/></clipPath><metadata/><path d="m0 .017h32v32h-32z" fill="none"/><g clip-path="url(#a)"><path d="m16.733 2.65c.833-.416 1.752-.633 2.683-.633h1.685c1.856 0 3.637.737 4.949 2.05.528.528.95.95.95.95l-2 1h.839c1.888 0 3.564 1.208 4.161 2.999v.001l-2 1c1.281 1.28 2 3.017 2 4.828v2.172l-1.13-.848c.086.603.13 1.22.13 1.848 0 3.182-1.264 6.235-3.515 8.485-2.25 2.25-5.302 3.515-8.485 3.515-.665 0-1.335 0-2 0-3.183 0-6.235-1.265-8.485-3.515-2.251-2.25-3.515-5.303-3.515-8.485 0-.744.062-1.473.182-2.183l-1.182 1.183s0-1.041 0-2.172c0-1.811.719-3.548 2-4.828l-2-1v-.001c.597-1.791 2.273-2.999 4.161-2.999h.839l-2-1s.422-.422.95-.95c1.312-1.313 3.093-2.05 4.949-2.05h1.685c.931 0 1.85.217 2.683.633.397.199.733.367.733.367z" fill="none" stroke="#000" stroke-width="4"/><path d="m16 3.017s-.336-.168-.733-.367c-.833-.416-1.752-.633-2.683-.633-.507 0-1.098 0-1.685 0-1.856 0-3.637.737-4.949 2.05-.528.528-.95.95-.95.95l2 1h-.839c-1.888 0-3.564 1.208-4.161 2.999v.001l2 1c-1.281 1.28-2 3.017-2 4.828v2.172l3-3h11l1-1v-8z" fill="#e02a33"/><path d="m16 3.017s.336-.168.733-.367c.833-.416 1.752-.633 2.683-.633h1.685c1.856 0 3.637.737 4.949 2.05.528.528.95.95.95.95l-2 1h.839c1.888 0 3.564 1.208 4.161 2.999v.001l-2 1c1.281 1.28 2 3.017 2 4.828v2.172l-4-3h-10l-1-1v-8z" fill="#e02a33"/><path d="m3.246 20.413c-.162-.769-.246-1.578-.246-2.396 0-7.18 5.82-13 13-13 7.18 0 13 5.82 13 13 0 .818-.084 1.627-.246 2.396-.259-1.011-25.249-1.011-25.508 0z" fill="#fbc546"/><path d="m3.246 20.413c.259-1.011.782-1.909 1.511-2.639.151-.15.308-.292.472-.424-.15-.424-.229-.875-.229-1.333 0-.813 0-1.672 0-2.5 0-1.194.474-2.338 1.318-3.182s1.989-1.318 3.182-1.318c1.193 0 2.338.474 3.182 1.318s1.318 1.988 1.318 3.182v2.5h4v-2.5c0-1.194.474-2.338 1.318-3.182s1.989-1.318 3.182-1.318c1.193 0 2.338.474 3.182 1.318s1.318 1.988 1.318 3.182v2.5c0 .458-.079.909-.229 1.333.164.132.321.274.472.424.729.73 1.252 1.628 1.511 2.639-.469 2.303-1.597 4.417-3.269 6.089-2.25 2.25-5.302 3.515-8.485 3.515-.665 0-1.335 0-2 0-3.183 0-6.235-1.265-8.485-3.515-1.672-1.672-2.8-3.786-3.269-6.089z" fill="#fff"/><path d="m9.443 25.54c-1.643-1.415-2.799-3.34-3.242-5.523h19.598c-.443 2.183-1.599 4.108-3.242 5.523-1.09-1.551-12.024-1.551-13.114 0z" fill="#722245"/><path d="m9.443 25.54c1.09-1.551 2.9-2.523 4.882-2.523h3.35c1.982 0 3.792.972 4.882 2.523-1.731 1.542-4.036 2.477-6.557 2.477s-4.826-.935-6.557-2.477z" fill="#ca3b8f"/><ellipse cx="16" cy="16.517" fill="#e02a33" rx="4" ry="2.5"/><path d="m11 11.517c0-.829-.672-1.5-1.5-1.5s-1.5.671-1.5 1.5v3c0 .828.672 1.5 1.5 1.5s1.5-.672 1.5-1.5c0-.917 0-2.084 0-3z"/><path d="m24 11.515c0-.398-.158-.779-.439-1.06-.281-.28-.662-.438-1.059-.438-.001 0-.003 0-.004 0-.397 0-.778.158-1.059.438-.281.281-.439.662-.439 1.06v3.004c0 .397.158.778.439 1.059s.662.439 1.059.439h.004c.397 0 .778-.158 1.059-.439s.439-.662.439-1.059c0-.917 0-2.087 0-3.004z"/></g></svg>