<svg clip-rule="evenodd" fill-rule="evenodd" stroke-linecap="round" stroke-linejoin="round" stroke-miterlimit="1.5" viewBox="0 0 32 32" xmlns="http://www.w3.org/2000/svg" xmlns:xlink="http://www.w3.org/1999/xlink"><clipPath id="a"><path clip-rule="evenodd" d="m0 0h32v32h-32z"/></clipPath><metadata/><path d="m0 0h32v32h-32z" fill="none"/><g clip-path="url(#a)"><path d="m10.425 7.363c.022-1.278.484-2.545 1.372-3.56h.001c1.06-1.212 2.592-1.907 4.202-1.907s3.142.695 4.202 1.907h.001c.888 1.015 1.35 2.282 1.372 3.56.001.063.001.126 0 .189v1.811c.014.848-.165 1.701-.543 2.49 1.366-.525 2.898-.504 4.268.087 1.705.736 2.94 2.262 3.305 4.084.02.101.04.201.06.302.069.344.105.692.108 1.037h.001v2h-.001c.013 1.299-.427 2.574-1.264 3.595-1.06 1.292-2.644 2.042-4.315 2.042-.001 0-.002 0-.003 0-1.973 0-3.795-1.057-4.774-2.77l-.535-.936 1.118 6.706v2h-6v-2l1.126-6.753-.587 1.015c-.978 1.694-2.786 2.738-4.742 2.738h-.003c-1.668 0-3.249-.748-4.307-2.039-.85-1.036-1.291-2.335-1.261-3.654v-1.754c-.009-.404.026-.811.106-1.215.021-.105.042-.209.063-.314.365-1.822 1.6-3.348 3.305-4.084 1.37-.591 2.902-.612 4.268-.087-.378-.789-.557-1.642-.543-2.49v-1.811c-.001-.063-.001-.126 0-.189z" fill="none" stroke="#000" stroke-width="4"/><path d="m10.834 7.363c.227-.558.549-1.086.963-1.56h.001c1.06-1.212 2.592-1.907 4.202-1.907s3.142.695 4.202 1.907h.001c.414.474.736 1.002.963 1.56h.409v2c.019 1.099-.288 2.207-.931 3.171-.868 1.302-1.644 2.466-1.644 2.466s.417-.261 1.061-.663c1.575-.985 3.533-1.133 5.239-.397 1.494.645 2.628 1.897 3.131 3.423h.343v2h-.001c.013 1.299-.427 2.574-1.264 3.595-1.06 1.292-2.644 2.042-4.315 2.042-.001 0-.002 0-.003 0-1.973 0-3.795-1.057-4.774-2.77l-1.144-2.003 1.727 7.773v2h-6v-2l1.736-7.81-1.197 2.072c-.978 1.694-2.786 2.738-4.742 2.738h-.003c-1.668 0-3.249-.748-4.307-2.039-.85-1.036-1.291-2.335-1.261-3.654v-1.944h.343c.503-1.526 1.637-2.778 3.131-3.423 1.706-.736 3.664-.588 5.239.397.644.402 1.061.663 1.061.663s-.776-1.164-1.644-2.466c-.643-.964-.95-2.072-.931-3.171v-2z" fill="#474747"/><path d="m14.594 18.435-1.055 1.827c-.978 1.694-2.786 2.738-4.742 2.738h-.003c-1.668 0-3.249-.748-4.307-2.039-1.058-1.29-1.482-2.987-1.155-4.623.021-.105.042-.209.063-.314.365-1.822 1.6-3.348 3.305-4.084 1.706-.736 3.664-.588 5.239.397.644.402 1.061.663 1.061.663s-.776-1.164-1.644-2.466c-1.39-2.085-1.21-4.844.441-6.731h.001c1.06-1.212 2.592-1.907 4.202-1.907s3.142.695 4.202 1.907h.001c1.651 1.887 1.831 4.646.441 6.731-.868 1.302-1.644 2.466-1.644 2.466s.417-.261 1.061-.663c1.575-.985 3.533-1.133 5.239-.397 1.705.736 2.94 2.262 3.305 4.084.02.101.04.201.06.302.328 1.639-.096 3.339-1.156 4.632-1.06 1.292-2.644 2.042-4.315 2.042-.001 0-.002 0-.003 0-1.973 0-3.795-1.057-4.774-2.77l-1.005-1.759 1.588 9.529h-6z" fill="#717171"/></g></svg>