<svg clip-rule="evenodd" fill-rule="evenodd" stroke-linejoin="round" stroke-miterlimit="2" viewBox="0 0 32 32" xmlns="http://www.w3.org/2000/svg" xmlns:xlink="http://www.w3.org/1999/xlink"><clipPath id="a"><path clip-rule="evenodd" d="m0 0h32v32h-32z"/></clipPath><metadata/><path d="m0 0h32v32h-32z" fill="none"/><g clip-path="url(#a)"><path d="m16 0c4.244 0 8.313 1.686 11.314 4.686 3 3.001 4.686 7.071 4.686 11.314v3c0 7.18-5.82 13-13 13-1.972 0-4.028 0-6 0-1.997 0-3.889-.451-5.58-1.256l-.282.403c-.374.535-.985.853-1.638.853s-1.264-.318-1.638-.853l-3.5-5c-.428-.611-.48-1.409-.136-2.071.135-.259.323-.481.546-.653-.5-1.381-.772-2.87-.772-4.423v-3c0-3.53 1.143-6.792 3.079-9.437l-.643-1.931c-.203-.609-.101-1.28.275-1.801.376-.522.979-.831 1.622-.831h3.916c2.296-1.274 4.939-2 7.751-2z"/><path d="m30 16c0-3.713-1.475-7.274-4.101-9.899-2.625-2.626-6.186-4.101-9.899-4.101-7.732 0-14 6.268-14 14v3c0 6.075 4.925 11 11 11h6c6.075 0 11-4.925 11-11z" fill="#579aff"/><path d="m9.5 17c1.933 0 3.5-1.567 3.5-3.5v-2c0-1.933-1.567-3.5-3.5-3.5h-.002c-.928 0-1.817.369-2.473 1.025s-1.025 1.545-1.025 2.473v2.002c0 1.933 1.567 3.5 3.5 3.5z" fill="#fff"/><path d="m8 12c0-.53.211-1.039.586-1.414s.884-.586 1.414-.586 1.039.211 1.414.586.586.884.586 1.414v1c0 .53-.211 1.039-.586 1.414s-.884.586-1.414.586-1.039-.211-1.414-.586-.586-.884-.586-1.414c0-.329 0-.671 0-1z"/><path d="m22.5 17c-1.933 0-3.5-1.567-3.5-3.5v-2c0-1.933 1.567-3.5 3.5-3.5h.002c.928 0 1.817.369 2.473 1.025s1.025 1.545 1.025 2.473v2.002c0 1.933-1.567 3.5-3.5 3.5z" fill="#fff"/><path d="m24 12c0-.53-.211-1.039-.586-1.414s-.884-.586-1.414-.586-1.039.211-1.414.586-.586.884-.586 1.414v1c0 .53.211 1.039.586 1.414s.884.586 1.414.586 1.039-.211 1.414-.586.586-.884.586-1.414c0-.329 0-.671 0-1z"/><path d="m26 21c0-.796-.316-1.559-.879-2.121-.562-.563-1.325-.879-2.121-.879-3.776 0-10.224 0-14 0-.796 0-1.559.316-2.121.879-.563.562-.879 1.325-.879 2.121v1c0 .796.316 1.559.879 2.121.562.563 1.325.879 2.121.879h14c.796 0 1.559-.316 2.121-.879.563-.562.879-1.325.879-2.121 0-.331 0-.669 0-1z" fill="#0c6dff"/><path d="m24.216 19.412c.07.053.136.111.198.174.375.375.586.884.586 1.414v1c0 .53-.211 1.039-.586 1.414-.186.187-.405.332-.644.432-.452-1.084-15.088-1.084-15.54 0-.239-.1-.458-.245-.644-.432-.375-.375-.586-.884-.586-1.414 0-.329 0-.671 0-1 0-.53.211-1.039.586-1.414.062-.063.128-.121.198-.174.816.985 15.616.985 16.432 0z" fill="#707070"/><path d="m8.23 23.846c.149-.359.368-.688.648-.968.562-.562 1.325-.878 2.12-.878h10.002c1.248 0 2.318.762 2.77 1.846-.242.101-.503.154-.77.154-3.463 0-10.537 0-14 0-.267 0-.528-.053-.77-.154zm-.446-4.434c.347-.266.774-.412 1.216-.412h14c.442 0 .869.146 1.216.412-.816.985-2.044 1.588-3.377 1.588h-9.678c-1.333 0-2.561-.603-3.377-1.588z" fill="#fff"/><g fill="#e6f0ff"><path d="m19.667 17h10.333l-2 6-1.5-3-3.5 7z"/><path d="m2 25h7l-3.5 5z"/><path d="m4.333 4h9.667l-3 6-1.5-4-2.5 6z"/></g></g></svg>