<svg clip-rule="evenodd" fill-rule="evenodd" stroke-linejoin="round" stroke-miterlimit="2" viewBox="0 0 32 32" xmlns="http://www.w3.org/2000/svg" xmlns:xlink="http://www.w3.org/1999/xlink"><clipPath id="a"><path clip-rule="evenodd" d="m0 0h32v32h-32z"/></clipPath><metadata/><path d="m0 0h32v32h-32z" fill="none"/><g clip-path="url(#a)"><path d="m17.006 32h-4.012c-7.176 0-12.994-5.818-12.994-12.994v-1.006c0-8.284 6.716-15 15-15h.002c2.815 0 5.449.776 7.699 2.125l2.01-4.019c.339-.678 1.031-1.106 1.789-1.106s1.45.428 1.789 1.106c0 0 1.757 3.514 2.942 5.884 1.017 2.033.618 4.489-.989 6.097-.001 0-.001.001-.001.001-.26.259-.543.489-.846.686.394 1.339.605 2.757.605 4.224v1.008c0 7.176-5.818 12.994-12.994 12.994z"/><path d="m27.312 13.816c.02.06.04.121.06.182-.305.218-.551.118-.793 0 .22-.047.26-.319.718-.227zm-24.684.182c.387-1.189.942-2.32 1.65-3.351 1.106-1.609 2.573-2.963 4.267-3.934 1.242-.712 2.603-1.216 4.01-1.483 1.464-.279 2.971-.301 4.445-.077l3 .843c.341.142.674.299 1 .468l3 2.155c.353.339.687.698 1 1.074 0 0 1.248 4.293 1.407 4.304z" fill="#7aafff"/><path d="m25 9.693c.995 1.197 1.78 2.575 2.297 4.078-.215.135-.462.213-.718.227h-.158l-.014-.001c-.159-.011-.316-.045-.464-.104-.402-.161-.72-.495-.861-.905-.054-.157-.081-.322-.082-.488zm-4-3.229c1.102.575 2.112 1.303 3 2.155v2.881c-.001.191-.036.38-.107.557-.053.131-.123.254-.21.365-.297.382-.773.6-1.257.576-.172-.008-.341-.047-.5-.112-.17-.071-.327-.172-.46-.299-.142-.136-.258-.3-.337-.479-.085-.192-.128-.399-.129-.608zm-4-1.311c1.046.161 2.051.448 3 .843v4.504c-.001.191-.036.38-.107.557-.053.131-.123.254-.21.365-.297.382-.773.6-1.257.576-.172-.008-.341-.047-.5-.112-.17-.071-.327-.172-.46-.299-.142-.136-.258-.3-.337-.479-.085-.192-.128-.399-.129-.608z" fill="#3988ff"/><path d="m17.006 30h-4.012c-6.072 0-10.994-4.922-10.994-10.994v-1.006c0-1.396.22-2.741.628-4.002l.555-.208c3.186-1.195 6.559-1.807 9.961-1.807h3.712c1.815 0 3.622.175 5.397.518.152.206 4.942 2.102 5.28 2.034.304 1.103.467 2.265.467 3.465v1.006c0 6.072-4.922 10.994-10.994 10.994z" fill="#fbc546"/><path d="m22.253 12.501c1.551.301 3.078.731 4.564 1.289l.555.208c.058.177.111.357.161.537-.338.068-.684.102-1.033.102-1.403 0-2.749-.557-3.741-1.549 0 0 0-.001-.001-.001-.184-.185-.353-.38-.505-.586z" fill="#e59a10"/><path d="m8.794 25.381c-.308.038-.621-.07-.842-.299-.267-.277-.351-.684-.216-1.045.173-.461.364-.972.561-1.495 1.024-2.732 3.636-4.542 6.554-4.542h.298c2.918 0 5.53 1.81 6.554 4.542.197.523.388 1.034.561 1.495.135.361.051.768-.216 1.045-.221.229-.534.337-.842.299-.671-1.04-3.438-2.013-6.206-2.013s-5.535.973-6.206 2.013z" fill="#722245"/><path d="m15.001 22c2.539 0 4.863 1.3 6.205 3.381-.065-.008-.131-.023-.195-.044-.978-.326-2.119-.706-2.933-.978-.714-.238-1.462-.359-2.214-.359h-1.728c-.752 0-1.5.121-2.214.359-.814.272-1.955.652-2.933.978-.064.021-.13.036-.195.044 1.342-2.081 3.666-3.381 6.205-3.381z" fill="#ca3b8f"/><path d="m20.113 10.207c-.374.397 2.733 1.948 2.882 1.647l2.005 1.146v1.502c0 .928-.369 1.817-1.025 2.473s-1.545 1.025-2.473 1.025h-.002c-1.933 0-3.5-1.567-3.5-3.5 0-.657 0-1.345 0-2.002 0-.928.369-1.817 1.025-2.473.095-.096.195-.185.3-.268z" fill="#fff"/><path d="m20.113 10.207 2.882 1.647c.003.048.005.097.005.146v2.983c0 .531-.211 1.039-.586 1.415-.375.375-.884.585-1.414.585s-1.039-.21-1.414-.585c-.375-.376-.586-.884-.586-1.415 0-.935 0-2.047 0-2.983 0-.53.211-1.039.586-1.414.155-.156.334-.283.527-.379z"/><path d="m9.887 10.207c.374.397-2.733 1.948-2.882 1.647l-2.005 1.146v1.502c0 .928.369 1.817 1.025 2.473s1.545 1.025 2.473 1.025h.002c1.933 0 3.5-1.567 3.5-3.5 0-.657 0-1.345 0-2.002 0-.928-.369-1.817-1.025-2.473-.095-.096-.195-.185-.3-.268z" fill="#fff"/><path d="m9.887 10.207-2.882 1.647c-.003.048-.005.097-.005.146v2.983c0 .531.211 1.039.586 1.415.375.375.884.585 1.414.585s1.039-.21 1.414-.585c.375-.376.586-.884.586-1.415 0-.935 0-2.047 0-2.983 0-.53-.211-1.039-.586-1.414-.155-.156-.334-.283-.527-.379z"/><path d="m26.5 2s-1.757 3.514-2.942 5.884c-.632 1.264-.384 2.79.615 3.789 0 0 0 0 .001.001.617.617 1.453.963 2.326.963s1.709-.346 2.326-.963c.001-.001.001-.001.001-.001.999-.999 1.247-2.525.615-3.789-1.185-2.37-2.942-5.884-2.942-5.884z" fill="#fff"/></g></svg>