<svg clip-rule="evenodd" fill-rule="evenodd" stroke-linecap="round" stroke-linejoin="round" stroke-miterlimit="10" viewBox="0 0 32 32" xmlns="http://www.w3.org/2000/svg" xmlns:xlink="http://www.w3.org/1999/xlink"><clipPath id="a"><path clip-rule="evenodd" d="m0 0h32v32h-32z"/></clipPath><metadata/><path d="m0 0h32v32h-32z" fill="none"/><g clip-path="url(#a)"><path d="m3 15 13-13 13 13v2l-13 13-13-13z" fill="none" stroke="#000" stroke-width="4"/><path d="m3 17v-2l13-11 13 11v2l-13 13z" fill="#8484f6"/><path d="m29 15-13 13-13-13 13-13z" fill="#a3a9ff"/><path d="m24.586 13.586c.375.375.586.884.586 1.414s-.211 1.039-.586 1.414c-1.903 1.903-5.269 5.269-7.172 7.172-.375.375-.884.586-1.414.586s-1.039-.211-1.414-.586c-1.903-1.903-5.269-5.269-7.172-7.172-.375-.375-.586-.884-.586-1.414s.211-1.039.586-1.414c1.903-1.903 5.269-5.269 7.172-7.172.375-.375.884-.586 1.414-.586s1.039.211 1.414.586c1.903 1.903 5.269 5.269 7.172 7.172z" fill="#8484f6"/><g fill="none" stroke="#a3a9ff" stroke-linecap="square" stroke-miterlimit="3" stroke-width="2"><path d="m9 12 3 3-3 3"/><path d="m19 8-3 3-3-3"/><path d="m23 12-3 3 3 3"/><path d="m19 22-3-3-3 3"/></g></g></svg>