<svg clip-rule="evenodd" fill-rule="evenodd" stroke-linecap="square" stroke-linejoin="round" stroke-miterlimit="1.5" viewBox="0 0 32 32" xmlns="http://www.w3.org/2000/svg" xmlns:xlink="http://www.w3.org/1999/xlink"><clipPath id="a"><path clip-rule="evenodd" d="m0 0h32v32h-32z"/></clipPath><metadata/><path d="m0 0h32v32h-32z" fill="none"/><g clip-path="url(#a)"><path d="m7 8c0-1.591.632-3.117 1.757-4.243 1.126-1.125 2.652-1.757 4.243-1.757h6c1.591 0 3.117.632 4.243 1.757 1.125 1.126 1.757 2.652 1.757 4.243v13.002c0 2.386-.948 4.675-2.635 6.363-1.688 1.687-3.977 2.635-6.363 2.635-.001 0-.003 0-.004 0-2.386 0-4.675-.948-6.363-2.635-1.687-1.688-2.635-3.977-2.635-6.363 0-4.253 0-9.215 0-13.002z" fill="none" stroke="#000" stroke-width="4"/><path d="m7 8c0-1.591.632-3.117 1.757-4.243 1.126-1.125 2.652-1.757 4.243-1.757h2l1 1 1-1h2c1.591 0 3.117.632 4.243 1.757 1.125 1.126 1.757 2.652 1.757 4.243v13.002c0 2.386-.948 4.675-2.635 6.363-1.688 1.687-3.977 2.635-6.363 2.635-.001 0-.001 0-.002 0-2.387 0-4.676-.948-6.364-2.636s-2.636-3.977-2.636-6.364c0-4.253 0-9.214 0-13z" fill="#ccc"/><path d="m15 2h2v8h-2z" fill="#666"/><path d="m18 9c0-1.105-.895-2-2-2s-2 .895-2 2v4c0 1.105.895 2 2 2s2-.895 2-2c0-1.222 0-2.778 0-4z" fill="#fff"/></g></svg>