<svg clip-rule="evenodd" fill-rule="evenodd" stroke-linecap="round" stroke-miterlimit="1.5" viewBox="0 0 32 32" xmlns="http://www.w3.org/2000/svg" xmlns:xlink="http://www.w3.org/1999/xlink"><clipPath id="a"><path clip-rule="evenodd" d="m0 0h32v32h-32z"/></clipPath><metadata/><path d="m0 0h32v32h-32z" fill="none"/><g clip-path="url(#a)"><g fill="none"><path d="m27.46 13.54c-.275.275-.694.343-1.042.169-.453-.227-1.124-.562-1.84-.92-2.323-1.161-4.206-3.044-5.367-5.367-.358-.716-.693-1.387-.92-1.84-.174-.348-.106-.767.169-1.042.014-.014.027-.027.041-.041 2.485-2.485 6.513-2.485 8.998 0l.002.002c2.485 2.485 2.485 6.513 0 8.998-.014.014-.027.027-.041.041z" stroke="#000" stroke-width="4"/><path d="m4.54 13.54c.275.275.694.343 1.042.169.453-.227 1.124-.562 1.84-.92 2.323-1.161 4.206-3.044 5.367-5.367.358-.716.693-1.387.92-1.84.174-.348.106-.767-.169-1.042-.014-.014-.027-.027-.041-.041-2.485-2.485-6.513-2.485-8.998 0-.001.001-.001.001-.002.002-2.485 2.485-2.485 6.513 0 8.998.014.014.027.027.041.041z" stroke="#000" stroke-width="4"/><path d="m23 13.5s.383 1.148.675 2.024c.21.632.626 1.177 1.181 1.547.252.168.534.356.808.538.835.557 1.336 1.493 1.336 2.497v1.394" stroke="#000" stroke-linecap="square" stroke-linejoin="round" stroke-width="6"/><path d="m10 15.5c0 1.921-.763 3.763-2.121 5.121-.958.958-1.879 1.879-1.879 1.879" stroke="#000" stroke-linecap="square" stroke-linejoin="round" stroke-width="6"/><path d="m27 25.5-1 3-3-1 1-3z" stroke="#000" stroke-linejoin="round" stroke-width="4"/><path d="m19 17h3v3h-3z" stroke="#000" stroke-linejoin="round" stroke-width="4"/><path d="m7 18.5-2 2-2-2 2-2z" stroke="#000" stroke-linejoin="round" stroke-width="4"/><path d="m12 4h2l2-1 2 1h2" stroke="#000" stroke-linecap="square" stroke-linejoin="round" stroke-width="6"/><path d="m17 15.5s-.503 1.51-1.005 3.016c-.617 1.851-.218 3.891 1.052 5.372 0 .001.001.001.001.001.571.666.661 1.619.226 2.381-.467.818-.988 1.73-.988 1.73" stroke="#000" stroke-linecap="square" stroke-linejoin="round" stroke-width="6"/><path d="m15 10 1 3-3 1-1-3z" stroke="#000" stroke-linejoin="round" stroke-width="4"/></g><path d="m10 21 3 2 6-3 5 4 4-1v-6l-11-11h-6l-7 7v8z"/><path d="m14 22.5-1 3-3-1 1-3z" fill="none" stroke="#000" stroke-linejoin="round" stroke-width="4"/><path d="m12 4h2l2-1 2 1h2" fill="none" stroke="#525252" stroke-linecap="square" stroke-linejoin="round" stroke-width="2"/><path d="m5.08 13.799c-.2-.022-.391-.11-.54-.259-.014-.014-.027-.027-.041-.041-2.485-2.485-2.485-6.513 0-8.998.001-.001.001-.001.002-.002 2.485-2.485 6.513-2.485 8.998 0 .014.014.027.027.041.041.149.149.237.34.259.54-2.587 1.909-6.353 5.65-8.719 8.719z" fill="#e4ab1b"/><path d="m13.799 5.08c.018.169-.01.343-.09.502-.227.453-.562 1.124-.92 1.84-1.161 2.323-3.044 4.206-5.367 5.367-.716.358-1.387.693-1.84.92-.159.08-.333.108-.502.09.574-4.544 4.175-8.145 8.719-8.719z" fill="#5e3d05"/><path d="m26.92 13.799c.2-.022.391-.11.54-.259.014-.014.027-.027.041-.041 2.485-2.485 2.485-6.513 0-8.998-.001-.001-.001-.001-.002-.002-2.485-2.485-6.513-2.485-8.998 0-.014.014-.027.027-.041.041-.149.149-.237.34-.259.54 2.587 1.909 6.353 5.65 8.719 8.719z" fill="#e4ab1b"/><path d="m18.201 5.08c-.018.169.01.343.09.502.227.453.562 1.124.92 1.84 1.161 2.323 3.044 4.206 5.367 5.367.716.358 1.387.693 1.84.92.159.08.333.108.502.09-.574-4.544-4.175-8.145-8.719-8.719z" fill="#5e3d05"/><path d="m17 15.5s-.503 1.51-1.005 3.016c-.617 1.851-.218 3.891 1.052 5.372 0 .001.001.001.001.001.571.666.661 1.619.226 2.381-.467.818-.988 1.73-.988 1.73" fill="none" stroke="#37cbe8" stroke-linecap="square" stroke-linejoin="round" stroke-width="2"/><path d="m23 13.5s.383 1.148.675 2.024c.21.632.626 1.177 1.181 1.547.252.168.534.356.808.538.835.557 1.336 1.493 1.336 2.497v1.394" fill="none" stroke="#f2c618" stroke-linecap="square" stroke-linejoin="round" stroke-width="2"/><path d="m10 15.5c0 1.921-.763 3.763-2.121 5.121-.958.958-1.879 1.879-1.879 1.879" fill="none" stroke="#ff4586" stroke-linecap="square" stroke-linejoin="round" stroke-width="2"/><path d="m19 17h3v3h-3z" fill="#9146dc"/><path d="m15 10 1 3-3 1-1-3z" fill="#9146dc"/><path d="m7 18.5-2 2-2-2 2-2z" fill="#f2c618"/><path d="m27 25.5-1 3-3-1 1-3z" fill="#ff4586"/><path d="m14 22.5-1 3-3-1 1-3z" fill="#ef9b00"/></g></svg>