<svg clip-rule="evenodd" fill-rule="evenodd" stroke-linecap="round" stroke-miterlimit="1.5" viewBox="0 0 32 32" xmlns="http://www.w3.org/2000/svg" xmlns:xlink="http://www.w3.org/1999/xlink"><clipPath id="a"><path clip-rule="evenodd" d="m0 0h32v32h-32z"/></clipPath><metadata/><path d="m0 0h32v32h-32z" fill="none"/><g clip-path="url(#a)"><path d="m16 4c8.837 0 16 7.163 16 16v.008c0 3.18-1.263 6.231-3.512 8.48s-5.3 3.512-8.48 3.512c-2.605 0-5.411 0-8.016 0-3.18 0-6.231-1.263-8.48-3.512s-3.512-5.3-3.512-8.48c0-.003 0-.007 0-.01 0-4.243 1.685-8.312 4.686-11.312 3-3 7.069-4.686 11.312-4.686z"/><path d="m30 20c0-7.732-6.268-14-14-14h-.002c-3.713 0-7.273 1.475-9.898 4.1s-4.1 6.186-4.1 9.898v.01c0 2.65 1.053 5.192 2.927 7.065 1.873 1.874 4.415 2.927 7.065 2.927h8.016c2.65 0 5.192-1.053 7.065-2.927 1.874-1.873 2.927-4.415 2.927-7.065z" fill="#fbc546"/><path d="m10.149 18.063-2.856-2.856c-.39-.39-.39-1.024 0-1.414s1.024-.39 1.414 0l5.144 5.144-5.535 1.845c-.523.175-1.09-.109-1.265-.632-.174-.524.109-1.091.633-1.265zm11.702 0 2.465.822c.524.174.807.741.633 1.265-.175.523-.742.807-1.265.632l-5.535-1.845 5.144-5.144c.39-.39 1.024-.39 1.414 0s.39 1.024 0 1.414z"/><path d="m9 26s.019-.057.051-.154c.567-1.7 2.157-2.846 3.949-2.846l3 3 3-3c1.792 0 3.382 1.146 3.949 2.846.032.097.051.154.051.154" fill="none" stroke="#593604" stroke-width="2"/></g></svg>