<svg clip-rule="evenodd" fill-rule="evenodd" stroke-linejoin="round" stroke-miterlimit="1.41421" viewBox="0 0 32 32" xmlns="http://www.w3.org/2000/svg"><metadata/><path d="m0 0h32v32h-32z" fill="none"/><circle cx="16" cy="16" r="16"/><circle cx="16" cy="16" fill="#e8272e" r="14"/><path d="m11.406 9.869h2.215v1.83c-.462 1.297-.995 2.433-1.598 3.409 1.078 1.207 1.958 2.267 2.638 3.178l-1.367 1.214c-.501-.681-1.13-1.47-1.888-2.369v7.184h-1.984v-6.24c-.59.616-1.271 1.174-2.041 1.675l-.655-2.061c2.285-1.553 3.903-3.55 4.854-5.99h-4.353v-1.83h2.195v-2.889h1.984zm4.565 5.74h-1.772v-8.051h10.054v8.051h-2.927v5.721c0 .385.038.61.115.674s.36.096.848.096c.398 0 .648-.07.751-.212.18-.231.289-1.11.327-2.639.013-.295.026-.757.039-1.386l1.868.154c-.077 2.465-.186 3.98-.327 4.545-.167.617-.488.996-.963 1.137-.296.09-.873.135-1.734.135-1.297 0-2.102-.119-2.417-.357-.315-.237-.472-.825-.472-1.762v-6.106h-1.425c-.077 2.209-.491 3.971-1.243 5.287-.751 1.316-1.942 2.392-3.573 3.227l-1.271-1.58c1.438-.745 2.462-1.624 3.072-2.639.61-1.014.96-2.446 1.05-4.295zm.251-1.695h5.97v-4.622h-5.97z" fill="#fff" fill-rule="nonzero"/></svg>