<svg clip-rule="evenodd" fill-rule="evenodd" stroke-linejoin="round" stroke-miterlimit="1.41421" viewBox="0 0 32 32" xmlns="http://www.w3.org/2000/svg" xmlns:xlink="http://www.w3.org/1999/xlink"><clipPath id="a"><path clip-rule="evenodd" d="m0 0h32v32h-32z"/></clipPath><clipPath id="b"><path clip-rule="evenodd" d="m24 30c0-2.761-2.239-5-5-5-1.911 0-4.089 0-6 0-2.761 0-5 2.239-5 5z"/></clipPath><clipPath id="c"><path clip-rule="evenodd" d="m23 11c0-3.866-3.134-7-7-7-.001 0-.001 0-.002 0-3.865 0-6.998 3.133-6.998 6.998v.002l-1 1v1h16v-1z"/></clipPath><metadata/><path d="m0 0h32v32h-32z" fill="none"/><g clip-path="url(#a)"><path d="m8 15h-2v-3.828l1.042-1.042c.012-.13.028-.259.045-.388.044-.297.098-.591.169-.883.14-.572.336-1.131.585-1.664.505-1.08 1.225-2.056 2.107-2.857.831-.756 1.803-1.354 2.853-1.753.626-.238 1.278-.405 1.941-.498.302-.042.605-.067.91-.08.154-.005.309-.007.464-.006.306.006.611.023.915.058.667.076 1.326.227 1.96.45 1.129.398 2.175 1.024 3.061 1.829.936.851 1.69 1.898 2.197 3.057.251.576.442 1.178.568 1.793.061.296.104.594.137.894l.004.048 1.042 1.042v3.828h-2c.004.7.004 1.4-.001 2.099-.005.297-.023.593-.06.887-.084.68-.257 1.349-.511 1.985-.279.697-.656 1.353-1.117 1.945-.394.506-.849.965-1.353 1.362.316.092.624.206.924.341.564.255 1.094.586 1.572.98 1.112.918 1.927 2.177 2.303 3.569.162.596.239 1.209.243 1.826v2.006h-20c0-.717-.012-1.454.002-2.18.026-.818.181-1.632.486-2.393.189-.471.424-.921.709-1.342.723-1.071 1.743-1.933 2.921-2.466.3-.135.609-.249.924-.341-.141-.111-.278-.227-.411-.348-.779-.704-1.415-1.562-1.864-2.512-.334-.707-.564-1.463-.679-2.237-.049-.325-.075-.653-.086-.982-.013-.733-.007-1.466-.002-2.199z"/><path d="m24 30c0-2.761-2.239-5-5-5-1.911 0-4.089 0-6 0-2.761 0-5 2.239-5 5z" fill="#4e69e1"/><g clip-path="url(#b)"><circle cx="16" cy="24" fill="#807167" r="4"/><path d="m10 24h3v8h-3z" fill="#d1b10e"/><path d="m19 24h3v8h-3z" fill="#d1b10e"/><g fill="#d1790e"><path d="m20 24h1v8h-1z"/><path d="m11 24h1v8h-1z"/></g></g><path d="m22 15v2c0 1.591-.632 3.117-1.757 4.243-1.126 1.125-2.652 1.757-4.243 1.757-1.591 0-3.117-.632-4.243-1.757-1.125-1.126-1.757-2.652-1.757-4.243 0-.663 0-1.337 0-2l6-3z" fill="#807167"/><path d="m21.196 12c.522.904.804 1.938.804 3h-12c0-1.062.282-2.096.804-3z" fill="#3d3026"/><path d="m20 15c0-.552-.448-1-1-1s-1 .448-1 1v1c0 .552.448 1 1 1s1-.448 1-1c0-.322 0-.678 0-1zm-6 0c0-.552-.448-1-1-1s-1 .448-1 1v1c0 .552.448 1 1 1s1-.448 1-1c0-.322 0-.678 0-1z"/><path d="m23 11c0-3.866-3.134-7-7-7-.001 0-.001 0-.002 0-3.865 0-6.998 3.133-6.998 6.998v.002l-1 1v1h16v-1z" fill="#ffcf22"/><g clip-path="url(#c)" fill="#c80"><path d="m13 4h-2v5c0 .265.105.52.293.707.187.188.442.293.707.293s.52-.105.707-.293c.188-.187.293-.442.293-.707 0-1.707 0-5 0-5z"/><path d="m21 4h-2v5c0 .265.105.52.293.707.187.188.442.293.707.293s.52-.105.707-.293c.188-.187.293-.442.293-.707 0-1.707 0-5 0-5z"/></g></g></svg>