<svg clip-rule="evenodd" fill-rule="evenodd" stroke-linecap="round" stroke-linejoin="round" stroke-miterlimit="1.5" viewBox="0 0 32 32" xmlns="http://www.w3.org/2000/svg" xmlns:xlink="http://www.w3.org/1999/xlink"><clipPath id="a"><path clip-rule="evenodd" d="m0 0h32v32h-32z"/></clipPath><clipPath id="b"><path clip-rule="evenodd" d="m2 11h28v10h-28z"/></clipPath><metadata/><path d="m0 0h32v32h-32z" fill="none"/><g clip-path="url(#a)"><g fill="none" stroke="#000" stroke-width="4"><path d="m2 9h28v12h-28z"/><path d="m6 16h2v14h-2z"/><path d="m24 16h2v14h-2z"/><path d="m28 5.998c0-.795-.316-1.558-.878-2.12s-1.325-.878-2.12-.878h-.004c-.795 0-1.558.316-2.12.878s-.878 1.325-.878 2.12v.004c0 .795.316 1.558.878 2.12s1.325.878 2.12.878h.004c.795 0 1.558-.316 2.12-.878s.878-1.325.878-2.12z"/><path d="m10 5.998c0-.795-.316-1.558-.878-2.12s-1.325-.878-2.12-.878h-.004c-.795 0-1.558.316-2.12.878s-.878 1.325-.878 2.12v.004c0 .795.316 1.558.878 2.12s1.325.878 2.12.878h.004c.795 0 1.558-.316 2.12-.878s.878-1.325.878-2.12z"/></g><path d="m8 20h-2v3l.6 1h.767l.633-1z" fill="#727272"/><path d="m26 20h-2v3l.684 1h.683l.633-1z" fill="#727272"/><path d="m6 23h2v7h-2z" fill="#999"/><path d="m24 23h2v7h-2z" fill="#999"/><path d="m5 6h4v10h-4z" fill="#fa3"/><path d="m23 6h4v10h-4z" fill="#fa3"/><path d="m28 5.998c0-.795-.316-1.558-.878-2.12s-1.325-.878-2.12-.878h-.004c-.795 0-1.558.316-2.12.878s-.878 1.325-.878 2.12v.004c0 .795.316 1.558.878 2.12s1.325.878 2.12.878h.004c.795 0 1.558-.316 2.12-.878s.878-1.325.878-2.12z" fill="#fa3"/><path d="m10 5.998c0-.795-.316-1.558-.878-2.12s-1.325-.878-2.12-.878h-.004c-.795 0-1.558.316-2.12.878s-.878 1.325-.878 2.12v.004c0 .795.316 1.558.878 2.12s1.325.878 2.12.878h.004c.795 0 1.558-.316 2.12-.878s.878-1.325.878-2.12z" fill="#fa3"/><path d="m30 11-1.505 1h-24.495l-2-1v-2h28z" fill="#666"/><path d="m2 11h28v10h-28z" fill="#404040"/><g clip-path="url(#b)" fill="#eeba00"><path d="m21 10h-3l-12 12h3z"/><path d="m33 10h-3l-12 12h3z"/><path d="m9 10h-3l-12 12h3z"/><path d="m27 10h-3l-12 12h3z"/><path d="m3 10h-3l-12 12h3z"/><path d="m39 10h-3l-12 12h3z"/><path d="m15 10h-3l-12 12h3z"/></g><circle cx="25" cy="6" fill="#ffe1b7" r="2"/><circle cx="7" cy="6" fill="#ffe1b7" r="2"/></g></svg>