<svg clip-rule="evenodd" fill-rule="evenodd" stroke-linecap="round" stroke-miterlimit="1.5" viewBox="0 0 32 32" xmlns="http://www.w3.org/2000/svg" xmlns:xlink="http://www.w3.org/1999/xlink"><clipPath id="a"><path clip-rule="evenodd" d="m0 0h32v32h-32z"/></clipPath><metadata/><path d="m0 0h32v32h-32z" fill="none"/><g clip-path="url(#a)"><path d="m16 3c8.837 0 16 7.163 16 16v.502c0 6.902-5.596 12.498-12.498 12.498h-7.004c-6.902 0-12.498-5.596-12.498-12.498 0-.167 0-.334 0-.502 0-8.837 7.163-16 16-16z"/><path d="m30 19c0-7.732-6.268-14-14-14-7.732 0-14 6.268-14 14v.502c0 5.798 4.7 10.498 10.498 10.498h7.004c5.798 0 10.498-4.7 10.498-10.498z" fill="#fbc546"/><path d="m10 20s.563.75 1.201 1.601c1.132 1.51 2.91 2.399 4.798 2.399h.001c1.889 0 3.667-.889 4.8-2.4.638-.85 1.2-1.6 1.2-1.6" fill="none" stroke="#593604" stroke-width="2"/><g fill-rule="nonzero"><path d="m26.207 12.293c.188.187.293.442.293.707s-.105.52-.293.707c-1.247 1.247-3.707 3.707-3.707 3.707s-2.46-2.46-3.707-3.707c-.188-.187-.293-.442-.293-.707s.105-.52.293-.707c.39-.391 1.024-.391 1.414 0 .887.887 2.293 2.293 2.293 2.293s1.406-1.406 2.293-2.293c.39-.391 1.024-.391 1.414 0z"/><path d="m13.208 12.294c.39.39.39 1.022 0 1.412-1.247 1.247-3.708 3.708-3.708 3.708s-2.46-2.46-3.707-3.707c-.188-.187-.293-.442-.293-.707s.105-.52.293-.707c.39-.391 1.024-.391 1.414 0 .887.887 2.293 2.293 2.293 2.293s1.407-1.407 2.294-2.294c.39-.39 1.022-.39 1.412 0z"/></g></g></svg>