<svg clip-rule="evenodd" fill-rule="evenodd" stroke-linecap="round" stroke-linejoin="round" stroke-miterlimit="1.5" viewBox="0 0 32 32" xmlns="http://www.w3.org/2000/svg"><metadata/><path d="m0 0h32v32h-32z" fill="none"/><path d="m11.144 18.856c-1.345-1.765-2.144-3.968-2.144-6.356 0-5.795 4.705-10.5 10.5-10.5s10.5 4.705 10.5 10.5-4.705 10.5-10.5 10.5c-2.388 0-4.591-.799-6.356-2.144l-2.175 2.175c.201.378.142.858-.176 1.176-1.25 1.25-3.836 3.836-5.086 5.086-.39.39-1.024.39-1.414 0-.478-.478-1.108-1.108-1.586-1.586-.39-.39-.39-1.024 0-1.414l5.086-5.086c.318-.318.798-.377 1.176-.176z" fill="none" stroke="#000" stroke-width="4"/><path d="m13 17 2 2-5.5 5.5-2-2z" fill="#999"/><circle cx="19.5" cy="12.5" fill="#414141" r="10.5"/><circle cx="19.5" cy="12.5" fill="#191919" r="9"/><path d="m7.793 21.207c.39-.39 1.024-.39 1.414 0l1.586 1.586c.39.39.39 1.024 0 1.414-1.25 1.25-3.836 3.836-5.086 5.086-.39.39-1.024.39-1.414 0-.478-.478-1.108-1.108-1.586-1.586-.39-.39-.39-1.024 0-1.414z" fill="#414141"/><path d="m15.784 9.431c.745-1.49 2.268-2.431 3.934-2.431h.451c2.668 0 4.831 2.163 4.831 4.831v3.169c0 1.061-.421 2.078-1.172 2.828-.75.751-1.767 1.172-2.828 1.172-.579 0-1.183 0-1.782 0-2.882 0-5.218-2.336-5.218-5.218v-.001c0-.514.12-1.02.349-1.479.353-.705.918-1.835 1.435-2.871z" fill="#fff"/><circle cx="21" cy="15" fill="#ef9b00" r="3"/></svg>