<svg clip-rule="evenodd" fill-rule="evenodd" stroke-linejoin="round" stroke-miterlimit="1.41421" viewBox="0 0 32 32" xmlns="http://www.w3.org/2000/svg" xmlns:xlink="http://www.w3.org/1999/xlink"><clipPath id="a"><path clip-rule="evenodd" d="m0 0h32v32h-32z"/></clipPath><metadata/><path d="m0 0h32v32h-32z" fill="none"/><g clip-path="url(#a)"><path d="m32 8c0-4.418-3.582-8-8-8-4.887 0-11.113 0-16 0-4.418 0-8 3.582-8 8v16c0 4.418 3.582 8 8 8h16c4.418 0 8-3.582 8-8 0-4.887 0-11.113 0-16z"/><path d="m30 8c0-1.591-.632-3.117-1.757-4.243-1.126-1.125-2.652-1.757-4.243-1.757-4.724 0-11.276 0-16 0-1.591 0-3.117.632-4.243 1.757-1.125 1.126-1.757 2.652-1.757 4.243v16c0 1.591.632 3.117 1.757 4.243 1.126 1.125 2.652 1.757 4.243 1.757h16c1.591 0 3.117-.632 4.243-1.757 1.125-1.126 1.757-2.652 1.757-4.243 0-4.724 0-11.276 0-16z" fill="#666"/><g fill="#fff" fill-rule="nonzero"><path d="m6.699 20.951c-.83 0-1.487-.235-1.972-.706s-.727-1.159-.727-2.063v-4.35c0-.914.256-1.606.769-2.077s1.189-.706 2.028-.706c.802 0 1.45.233 1.944.699s.742 1.175.742 2.126v.294h-1.721v-.28c0-.438-.091-.762-.272-.972-.182-.21-.427-.315-.735-.315-.363 0-.627.126-.79.378s-.245.629-.245 1.133v3.874c0 .942.345 1.413 1.035 1.413.308 0 .553-.108.735-.322.181-.215.272-.532.272-.951v-.252h1.707v.266c0 .932-.259 1.634-.777 2.105-.517.471-1.182.706-1.993.706z"/><path d="m13.245 20.951c-.83 0-1.487-.235-1.972-.706s-.728-1.159-.728-2.063v-4.35c0-.914.257-1.606.77-2.077s1.188-.706 2.028-.706c.811 0 1.461.235 1.951.706.489.471.734 1.163.734 2.077v4.35c0 .895-.259 1.58-.776 2.056-.518.475-1.187.713-2.007.713zm.056-1.552c.326 0 .575-.124.748-.371.172-.247.259-.594.259-1.042v-3.874c0-.494-.084-.87-.252-1.126s-.42-.385-.755-.385c-.364 0-.627.126-.791.378-.163.252-.244.629-.244 1.133v3.874c0 .942.345 1.413 1.035 1.413z"/><path d="m19.79 20.951c-.83 0-1.487-.235-1.972-.706s-.727-1.159-.727-2.063v-4.35c0-.914.256-1.606.769-2.077s1.189-.706 2.028-.706c.811 0 1.462.235 1.951.706.49.471.734 1.163.734 2.077v4.35c0 .895-.258 1.58-.776 2.056-.517.475-1.186.713-2.007.713zm.056-1.552c.326 0 .576-.124.748-.371.173-.247.259-.594.259-1.042v-3.874c0-.494-.084-.87-.252-1.126-.167-.256-.419-.385-.755-.385-.363 0-.627.126-.79.378s-.245.629-.245 1.133v3.874c0 .942.345 1.413 1.035 1.413z"/><path d="m23.692 11.189h1.721v8.112h2.587v1.538h-4.308z"/></g></g></svg>