<svg clip-rule="evenodd" fill-rule="evenodd" stroke-linecap="round" stroke-miterlimit="1.5" viewBox="0 0 32 32" xmlns="http://www.w3.org/2000/svg" xmlns:xlink="http://www.w3.org/1999/xlink"><clipPath id="a"><path clip-rule="evenodd" d="m0 0h32v32h-32z"/></clipPath><metadata/><path d="m0 0h32v32h-32z" fill="none"/><g clip-path="url(#a)"><path d="m16.099 0c4.208.026 8.238 1.709 11.215 4.686.997.998 1.849 2.113 2.542 3.314h.144c1.105 0 2 .895 2 2v3c0 .275-.055.536-.156.774.103.733.156 1.477.156 2.226v2c0 7.732-6.268 14-14 14h-4c-7.732 0-14-6.268-14-14v-2c0-.756.052-1.501.154-2.229-.099-.237-.154-.498-.154-.771v-3c0-1.105.895-2 2-2h.141c2.766-4.782 7.937-8 13.859-8z"/><path d="m30 16c0-3.713-1.475-7.274-4.101-9.899-2.625-2.626-6.186-4.101-9.899-4.101-7.732 0-14 6.268-14 14v2c0 6.627 5.373 12 12 12h4c6.627 0 12-5.373 12-12z" fill="#fbc546"/><path d="m16.763 15.763c-.422-.422-1.104-.422-1.526 0l-2.358 2.358c-.563.563-1.326.879-2.122.879h-3.757c-1.061 0-2.078-.421-2.828-1.172-.751-.75-1.172-1.767-1.172-2.828v-2h-1v-3h28v3h-1v2c0 1.061-.421 2.078-1.172 2.828-.75.751-1.767 1.172-2.828 1.172h-3.757c-.186-.001-.37-.017-.552-.051-.361-.068-.708-.202-1.02-.394-.2-.122-.384-.269-.55-.434z" fill="#262626"/><path d="m13 11.5c.398 0 .779.158 1.061.439.281.282.439.663.439 1.061v.757c0 .398-.158.78-.439 1.061-.666.666-1.577 1.577-2.243 2.243-.281.281-.663.439-1.061.439h-3.757c-.289-.007-.57-.049-.843-.146-.23-.083-.448-.199-.644-.345-1.298-.96-1.014-2.579-1.013-4.009.001-.832.683-1.48 1.5-1.5zm13 0c.398 0 .779.158 1.061.439.281.282.439.663.439 1.061v2c0 .663-.263 1.299-.732 1.768s-1.105.732-1.768.732h-3.757c-.398 0-.78-.158-1.061-.439-.666-.666-1.577-1.577-2.243-2.243-.281-.281-.439-.663-.439-1.061 0-.236 0-.493 0-.757 0-.398.158-.779.439-1.061.282-.281.663-.439 1.061-.439z" fill="#0c0c0c"/><path d="m10.5 11.5s3.864.831 3.935 1.065c.043.14.065.286.065.435v.757c0 .398-.158.78-.439 1.061-.666.666-1.577 1.577-2.243 2.243-.281.281-.663.439-1.061.439h-1.257s-4.184-.648-4.268-.732c-.974-.976-.733-2.452-.732-3.768.001-.832.683-1.48 1.5-1.5zm13 0s3.864.831 3.935 1.065c.043.14.065.286.065.435v2c0 .663-.263 1.299-.732 1.768s-1.105.732-1.768.732h-2.5s-3.045-1.166-3.439-1.561c-.395-.394-.789-.788-1.122-1.121-.281-.281-.439-.663-.439-1.061 0-.236 0-.493 0-.757 0-.398.158-.779.439-1.061.282-.281.663-.439 1.061-.439z" fill="#0c0c0c"/><path d="m13 11.5c.398 0 .779.158 1.061.439.176.176.303.392.374.626l-4.935 4.935h-2.5c-.223-.006-.446-.032-.663-.09-.415-.112-.794-.337-1.1-.637l-.005-.005 5.268-5.268zm13 0c.398 0 .779.158 1.061.439.176.176.303.392.374.626l-4.935 4.935h-1.257c-.283-.002-.562-.081-.802-.232-.094-.059-.18-.129-.259-.207l-1.121-1.122 4.439-4.439z" fill="#5f5f5f"/><path d="m10 22s.385.385.879.879c1.358 1.358 3.2 2.121 5.121 2.121 1.921 0 3.763-.763 5.121-2.121.494-.494.879-.879.879-.879" fill="none" stroke="#593604" stroke-width="2"/></g></svg>