<svg clip-rule="evenodd" fill-rule="evenodd" stroke-linecap="round" stroke-miterlimit="1.5" viewBox="0 0 32 32" xmlns="http://www.w3.org/2000/svg" xmlns:xlink="http://www.w3.org/1999/xlink"><clipPath id="a"><path clip-rule="evenodd" d="m0 0h32v32h-32z"/></clipPath><metadata/><path d="m0 0h32v32h-32z" fill="none"/><g clip-path="url(#a)"><path d="m16 1.668 1.063-.638c1.228-.737 2.714-.912 4.079-.481 1.366.432 2.481 1.429 3.063 2.737l1.088 2.448 1.216-.81c1.084-.723 2.477-.79 3.626-.176 1.148.615 1.865 1.812 1.865 3.115v.001c0 1.362-.541 2.669-1.504 3.632-.563.562-1.242.98-1.981 1.231.968 1.929 1.485 4.074 1.485 6.273 0 3.448-1.37 6.754-3.808 9.192s-5.744 3.808-9.192 3.808c-.665 0-1.335 0-2 0-3.448 0-6.754-1.37-9.192-3.808s-3.808-5.744-3.808-9.192l.004-.323c.048-2.086.561-4.116 1.481-5.95-.739-.251-1.418-.669-1.981-1.231-.963-.963-1.504-2.27-1.504-3.632v-.001c0-1.303.717-2.5 1.865-3.115 1.149-.614 2.542-.547 3.626.176l1.216.81 1.088-2.448c.582-1.308 1.697-2.305 3.063-2.737 1.365-.431 2.851-.256 4.079.481z"/><path d="m26.392 13c1.045 1.809 1.608 3.875 1.608 6 0 2.917-1.159 5.715-3.222 7.778s-4.861 3.222-7.778 3.222c-.665 0-1.335 0-2 0-2.917 0-5.715-1.159-7.778-3.222s-3.222-4.861-3.222-7.778c0-2.125.563-4.191 1.608-6l1.392-1h18z" fill="#fbc546"/><path d="m5.608 13c.52-.901 1.159-1.737 1.907-2.485 2.25-2.251 5.302-3.515 8.485-3.515 3.183 0 6.235 1.264 8.485 3.515.748.748 1.387 1.584 1.907 2.485z" fill="#e59a10"/><path d="m10.002 20c.795 0 1.558-.316 2.12-.878s.878-1.325.878-2.12c0-.64 0-1.316 0-1.958 0-1.681-1.363-3.044-3.044-3.044-.001 0-.001 0-.002 0-1.631 0-2.954 1.323-2.954 2.954v2.046c0 1.657 1.343 3 3 3z" fill="#fff"/><path d="m9 14.5c0-.398.158-.779.439-1.061.282-.281.663-.439 1.061-.439s.779.158 1.061.439c.281.282.439.663.439 1.061v2.983c0 .398-.158.78-.439 1.061-.282.281-.663.439-1.061.439s-.779-.158-1.061-.439c-.281-.281-.439-.663-.439-1.061 0-.911 0-2.071 0-2.983z"/><path d="m21.998 20c-.795 0-1.558-.316-2.12-.878s-.878-1.325-.878-2.12c0-.64 0-1.316 0-1.958 0-1.681 1.363-3.044 3.044-3.044h.002c1.631 0 2.954 1.323 2.954 2.954v2.046c0 1.657-1.343 3-3 3-.001 0-.001 0-.002 0z" fill="#fff"/><path d="m23 14.498c0-.397-.158-.778-.439-1.059s-.662-.439-1.059-.439h-.004c-.397 0-.778.158-1.059.439s-.439.662-.439 1.059v2.987c0 .398.158.779.439 1.06.281.28.662.438 1.059.438h.004c.397 0 .778-.158 1.059-.438.281-.281.439-.662.439-1.06z"/><path d="m10 22s.385.385.879.879c1.358 1.358 3.2 2.121 5.121 2.121 1.921 0 3.763-.763 5.121-2.121.494-.494.879-.879.879-.879" fill="none" stroke="#593604" stroke-width="2"/><path d="m7.889 8 1.111-.643h14l1.111.643.889 2h-18zm.444-1 1.29-2.901c.349-.786 1.018-1.384 1.837-1.642.82-.259 1.711-.155 2.448.288 1.1.66 2.092 1.255 2.092 1.255s.992-.595 2.092-1.255c.737-.443 1.628-.547 2.448-.288.819.258 1.488.856 1.837 1.642l1.29 2.901-.667.643h-14z" fill="#6c5935"/><path d="m24.111 8h-16.222l.444-1h15.334z" fill="#978156"/><path d="m5.985 7.656c1.314.876 2.858 1.344 4.437 1.344h11.156c1.579 0 3.123-.468 4.437-1.344.515-.342 1.072-.714 1.603-1.068.47-.314 1.075-.343 1.573-.076.498.266.809.786.809 1.351v.001c0 .832-.33 1.629-.919 2.217-.588.589-1.385.919-2.217.919-5.388 0-16.34 0-21.728 0-.832 0-1.629-.33-2.217-.919-.589-.588-.919-1.385-.919-2.217v-.001c0-.565.311-1.085.809-1.351.498-.267 1.103-.238 1.573.076.531.354 1.088.726 1.603 1.068z" fill="#4e4024"/></g></svg>