<svg clip-rule="evenodd" fill-rule="evenodd" stroke-linejoin="round" stroke-miterlimit="1.41421" viewBox="0 0 32 32" xmlns="http://www.w3.org/2000/svg" xmlns:xlink="http://www.w3.org/1999/xlink"><clipPath id="a"><path clip-rule="evenodd" d="m0 0h32v32h-32z"/></clipPath><metadata/><path d="m0 0h32v32h-32z" fill="none"/><g clip-path="url(#a)"><path d="m28 8.709v4.966c.394 1.182.793 2.362 1.181 3.546.258.815.462 1.645.599 2.49.138.845.206 1.697.219 2.552l.001.166v3.862l-.846.522-1.154-.577v3.055l-.846.522-3.307-1.654-1.429.476-.86 1.722c-.095.182-.203.355-.331.515-.365.457-.863.802-1.419.982-.267.086-.541.13-.82.144-1.963.038-3.926.002-5.889.002-.275-.005-.545-.04-.809-.116-.595-.171-1.13-.528-1.517-1.012-.128-.16-.236-.333-.33-.515l-.861-1.722-1.429-.476-3.307 1.654-.846-.522v-3.055l-1.154.577-.846-.522c0-1.343-.006-2.685.001-4.028.002-.171.007-.342.013-.513.036-.797.12-1.59.264-2.375.133-.73.317-1.447.541-2.154l.052-.158 1.129-3.388v-4.966l.846-.522 3.387 1.693c.865-.216 1.73-.435 2.596-.648.164-.039.329-.077.494-.114.55-.117 1.103-.218 1.66-.295 1.221-.169 2.457-.235 3.689-.197 1.065.032 2.128.142 3.177.329.498.088.992.196 1.483.316l2.435.609 3.387-1.693c.282.174.564.348.846.522z"/><path d="m6 23-2 1s0-.73 0-1.566c0-1.612.26-3.214.77-4.743.563-1.691 1.23-3.691 1.23-3.691v-3l2 1s1.47-.367 3.149-.787c3.185-.797 6.517-.797 9.702 0 1.679.42 3.149.787 3.149.787l2-1v3s.667 2 1.23 3.691c.51 1.529.77 3.131.77 4.743v1.566l-2-1-8 3h-4z" fill="#bb793a"/><path d="m26 23v4l-2-1-3 1s-.79 1.581-1.224 2.447c-.169.339-.515.553-.894.553-1.327 0-4.437 0-5.764 0-.379 0-.725-.214-.894-.553-.434-.866-1.224-2.447-1.224-2.447l-3-1-2 1v-4s1.121-1.121 1.121-1.121c.563-.563 1.326-.879 2.122-.879h2.757v2c0 1.105.895 2 2 2h4c1.105 0 2-.895 2-2v-2h2.757c.796 0 1.559.316 2.122.879z" fill="#dac8ad"/><path d="m20 11s0-.553 0-1.292c0-2.272 1.284-4.35 3.317-5.366 2.911-1.456 6.683-3.342 6.683-3.342v7.686c0 2.122-.843 4.157-2.343 5.657-.383.383-.657.657-.657.657" fill="#bb793a"/><path d="m28.707 7-2.707 2.707v3.293h-3v-1h2v-2.707l3-3z" fill="#6b3f21"/><path d="m12 11s0-.553 0-1.292c0-2.272-1.284-4.35-3.317-5.366-2.911-1.456-6.683-3.342-6.683-3.342v7.686c0 2.122.843 4.157 2.343 5.657.383.383.657.657.657.657" fill="#bb793a"/><path d="m19.854 17.837-.712.711.613.93.027.043.027.047.026.048.024.049.022.05.021.051.018.051.017.052.015.052.012.053.011.054.009.053.007.055.005.054.003.055.001.05v2.705h-1v-2.696-.022l-.001-.019-.002-.018-.002-.018-.003-.018-.004-.018-.004-.017-.005-.018-.006-.017-.006-.017-.007-.017-.007-.016-.008-.017-.009-.016-.009-.016-.012-.019-1.057-1.603 1.288-1.289z" fill="#6b3f21"/><path d="m14.143 18.436-1.056 1.585-.013.02-.009.016-.009.016-.008.017-.008.016-.007.017-.006.017-.005.018-.005.018-.005.017-.003.018-.004.018-.002.019-.002.018-.001.018v.023 2.71h-1v-2.719l.001-.051.003-.055.005-.055.007-.055.009-.054.011-.054.013-.053.015-.053.017-.052.019-.052.021-.051.022-.05.025-.049.026-.049.028-.048.027-.042.608-.911-.711-.71.708-.708z" fill="#6b3f21"/><path d="m18.996 27h.03l.026-.001.026-.002.024-.002.026-.003.025-.004.025-.004.024-.004.024-.006.025-.006.023-.006.023-.007.024-.008.023-.008.022-.008.023-.009.022-.01.022-.01.022-.011.021-.011.021-.012.021-.013.021-.012.02-.014.02-.013.019-.014.019-.015.019-.015.018-.016.018-.016.018-.016.017-.017.017-.017.016-.018.017-.018.015-.018.015-.019.015-.019.014-.019.013-.02.014-.02.012-.021.013-.021.012-.021.011-.021.011-.022.01-.022.01-.022.009-.023.009-.022.007-.023.008-.023.007-.024.007-.024.005-.024.006-.024.004-.024.004-.025.004-.025.003-.025.002-.025.002-.026.001-.026v-.032l.002-.041.006-.041.009-.041.012-.039.016-.039.018-.036.022-.036.024-.033.027-.031.03-.029.032-.026.034-.024.035-.021.038-.017.038-.015.04-.011.041-.008.041-.005.041-.001.041.002.041.006.041.009.039.012.038.016.037.018.036.022.033.024.031.027.029.03.026.032.024.034.021.035.017.038.015.038.011.04.008.041.005.041.001.041-.001.045-.002.052-.003.05-.004.051-.006.05-.007.05-.008.05-.01.049-.01.048-.012.048-.013.048-.014.047-.015.047-.017.047-.017.046-.018.045-.02.044-.02.044-.022.044-.023.043-.023.042-.025.041-.025.041-.027.041-.027.039-.029.039-.029.038-.03.037-.031.037-.032.036-.032.035-.034.034-.034.034-.035.033-.036.031-.036.031-.038.03-.038.029-.039.029-.04.027-.04.027-.041.025-.041.025-.042.023-.043.023-.044.022-.044.02-.044.02-.045.018-.047.018-.046.016-.046.015-.048.014-.048.013-.048.012-.049.01-.049.01-.049.008-.05.007-.05.006-.051.004-.051.003-.05.002-.048.001h-2.211l-.793-.793-.793.793h-2.213l-.048-.001-.05-.002-.051-.003-.051-.004-.05-.006-.05-.007-.049-.008-.049-.01-.049-.01-.049-.012-.046-.013-.048-.014-.046-.015-.047-.016-.046-.018-.045-.018-.044-.02-.044-.02-.044-.022-.043-.023-.042-.023-.041-.024-.041-.026-.041-.026-.039-.028-.039-.028-.038-.029-.037-.03-.037-.031-.036-.032-.034-.032-.035-.034-.033-.035-.033-.034-.032-.036-.031-.037-.03-.037-.029-.038-.028-.039-.027-.039-.027-.041-.025-.04-.025-.042-.024-.042-.022-.043-.022-.044-.02-.044-.02-.044-.018-.045-.018-.046-.016-.046-.015-.047-.014-.047-.013-.048-.012-.048-.01-.049-.01-.049-.008-.049-.007-.05-.006-.05-.004-.051-.003-.051-.002-.051-.001-.048v-.005l.002-.041.005-.041.008-.041.012-.039.015-.039.018-.037.021-.035.024-.034.027-.032.029-.029.032-.027.034-.024.035-.021.037-.018.039-.015.039-.012.041-.008.041-.005.041-.002.041.002.041.005.041.008.039.012.039.015.037.018.035.021.034.024.032.027.029.029.027.032.024.034.021.035.018.037.015.039.012.039.008.041.005.041.002.041v-.001.029l.001.026.002.025.002.026.003.025.004.025.004.024.004.025.006.024.005.024.007.023.007.024.007.023.008.023.009.023.009.022.01.023.01.021.011.022.011.021.012.022.012.02.013.021.013.02.014.019.014.02.015.019.015.019.015.018.016.018.017.018.016.017.017.016.018.017.018.016.018.015.019.015.019.015.02.014.019.014.02.013.021.013.02.012.022.012.022.011.02.011.022.01.023.01.023.009.022.009.023.008.023.007.023.007.025.007.023.005.024.006.025.004.024.004.026.004.024.003.025.002.026.002.026.001h.03 1.791l1.207-1.207 1.207 1.207z" fill="#755c35"/><path d="m23 17s-.216.432-.447.894c-.339.678-1.032 1.106-1.789 1.106-.827 0-1.764 0-1.764 0s-.277-.277-.539-.539c-.255-.255-.255-.667 0-.922 0 0 0 0 .001-.001.942-.942 2.337-1.272 3.602-.85.521.174.936.312.936.312z"/><path d="m9 17s.216.432.447.894c.339.678 1.032 1.106 1.789 1.106h1.764s.277-.277.539-.539c.255-.255.255-.667 0-.922 0 0 0 0-.001-.001-.942-.942-2.337-1.272-3.602-.85-.521.174-.936.312-.936.312z"/><path d="m7 9.293v2.707h2v1h-3v-3.293l-2.707-2.707.707-.707z" fill="#6b3f21"/><path d="m15.414 23c-.265 0-.519.105-.707.293-.062.062-.13.13-.197.197-.305.305-.38.77-.188 1.155.13.258.277.554.402.802.169.339.515.553.894.553h.764c.379 0 .725-.214.894-.553.125-.248.272-.544.402-.802.192-.385.117-.85-.188-1.155-.067-.067-.135-.135-.197-.197-.188-.188-.442-.293-.707-.293-.343 0-.829 0-1.172 0z"/><path d="m31 0c.001 2.933.018 5.865-.001 8.798-.002.112-.005.223-.01.335-.035.626-.127 1.247-.288 1.854-.291 1.099-.791 2.14-1.467 3.054-.264.357-.556.691-.868 1.007l-1.366 1.366-1.414-1.414c.489-.49.999-.984 1.485-1.488.276-.294.529-.607.753-.942.49-.735.839-1.563 1.023-2.428.102-.48.15-.968.153-1.459v-6.065c-1.772.886-3.551 1.757-5.315 2.658-.078.042-.155.085-.231.129-.323.195-.626.419-.899.68-.664.631-1.147 1.443-1.384 2.328-.114.425-.167.86-.171 1.3v2.287h-2c0-.805-.006-1.611.001-2.416.016-.612.101-1.217.27-1.806.387-1.349 1.185-2.569 2.267-3.464.409-.338.855-.624 1.328-.865l6.898-3.449h1.236zm-28.764 0 6.898 3.449c.473.241.919.527 1.328.865 1.082.895 1.88 2.115 2.267 3.464.18.628.265 1.274.271 1.926v2.296h-2c0-.793.006-1.587-.001-2.381-.01-.379-.056-.754-.148-1.123-.243-.973-.783-1.862-1.533-2.528-.329-.292-.694-.534-1.086-.734l-5.232-2.616c0 2.081-.037 4.162.002 6.242.004.116.009.231.017.346.03.372.085.74.172 1.103.191.805.527 1.573.985 2.261.257.385.552.74.876 1.068l1.362 1.362-1.414 1.414c-.481-.481-.964-.959-1.442-1.443-.462-.48-.875-1.002-1.224-1.57-.615-.999-1.031-2.118-1.218-3.276-.077-.475-.113-.955-.116-1.436v-8.689h1.236z"/></g></svg>