<svg clip-rule="evenodd" fill-rule="evenodd" stroke-linecap="round" stroke-miterlimit="3" viewBox="0 0 32 32" xmlns="http://www.w3.org/2000/svg" xmlns:xlink="http://www.w3.org/1999/xlink"><clipPath id="a"><path clip-rule="evenodd" d="m0 0h32v32h-32z"/></clipPath><metadata/><path d="m0 0h32v32h-32z" fill="none"/><g clip-path="url(#a)"><path d="m23.5 30s3.297-6.594 5.195-10.389c.858-1.717 1.305-3.61 1.305-5.53v-.001c0-3.096-1.453-6.013-3.925-7.877-2.471-1.864-5.675-2.46-8.651-1.61-.238.068-.452.129-.637.182-.516.148-.986.424-1.366.804-.59.59-1.421 1.421-1.421 1.421l-2 4v1l3 1s2.292 1.146 4.422 2.211c1.976.988 2.777 3.391 1.789 5.367-1.924 3.848-4.711 9.422-4.711 9.422z" fill="none" stroke="#000" stroke-width="4"/><path d="m2 18s0-.109 0-.292c0-2.272 1.284-4.35 3.317-5.366 2.216-1.109 4.933-2.467 6.102-3.052.385-.192.736-.445 1.04-.749.59-.59 1.541-1.541 1.541-1.541h2l-2 4s.513.513 1.019 1.019c.227.227.331.55.28.867-.052.318-.252.591-.54.734-2.072 1.036-6.184 3.093-7.972 3.986-.567.284-1.193.429-1.827.422-1.162-.011-2.96-.028-2.96-.028z" fill="none" stroke="#000" stroke-width="4"/><path d="m20 4.215s7.313 11.063 7.313 13.715l-1.313 7.07-2.5 5h-7s2.787-5.574 4.711-9.422c.988-1.976.187-4.379-1.789-5.367-2.13-1.065-4.422-2.211-4.422-2.211l-3-1v-1l2-4s.831-.831 1.421-1.421c.38-.38.85-.656 1.366-.804.185-.053.399-.114.637-.182.847-.242 1.714-.367 2.576-.378z" fill="#373737"/><path d="m20.359 7c.197.432 9.584 6.019 9.584 6.019-.03-.273.057.426.057 1.061v.001c0 1.92-.447 3.813-1.305 5.53l-2.695 5.389v-1.858c0-2.652-1.054-5.196-2.929-7.071-2.627-2.627-6.071-6.071-6.071-6.071l3-3z" fill="#fff"/><path d="m20 4.215c2.166-.03 4.308.655 6.075 1.988 2.187 1.65 3.577 4.123 3.868 6.816h-2.267c-1.061 0-2.079-.422-2.829-1.172-1.06-1.06-2.615-2.615-3.675-3.675-.751-.751-1.172-1.768-1.172-2.829z" fill="#dd381b"/><path d="m2 18s0-.109 0-.292c0-2.272 1.284-4.35 3.317-5.366 2.216-1.109 4.933-2.467 6.102-3.052.385-.192.736-.445 1.04-.749.59-.59 1.541-1.541 1.541-1.541v2.757c0 .796.316 1.559.879 2.122l.14.14c.227.227.331.55.28.867-.052.318-.252.591-.54.734-2.072 1.036-6.184 3.093-7.972 3.986-.567.284-1.193.429-1.827.422-1.162-.011-2.96-.028-2.96-.028z" fill="#b8b77f"/><path d="m20 7s-.449 0-1 0c-.53 0-1.039.211-1.414.586s-.586.884-.586 1.414v1h1c.53 0 1.039-.211 1.414-.586s.586-.884.586-1.414c0-.551 0-1 0-1z"/><path d="m12 11-2 1" fill="none" stroke="#68672a"/></g></svg>