<svg clip-rule="evenodd" fill-rule="evenodd" stroke-linejoin="round" stroke-miterlimit="2" viewBox="0 0 32 32" xmlns="http://www.w3.org/2000/svg" xmlns:xlink="http://www.w3.org/1999/xlink"><clipPath id="a"><path clip-rule="evenodd" d="m0-.017h32v32h-32z"/></clipPath><metadata/><path d="m0-.017h32v32h-32z" fill="none"/><g clip-path="url(#a)"><path d="m16-.017c4.243 0 8.313 1.686 11.314 4.687 3 3 4.686 7.07 4.686 11.313v2c0 7.732-6.268 14-14 14-1.325 0-2.675 0-4 0-7.732 0-14-6.268-14-14v-2c0-8.836 7.163-16 16-16z"/><path d="m30 15.983c0-3.713-1.475-7.274-4.101-9.899-2.625-2.626-6.186-4.101-9.899-4.101-7.732 0-14 6.268-14 14v2c0 6.628 5.373 12 12 12h4c6.627 0 12-5.372 12-12z" fill="#fbc546"/><path d="m10.751 9.387c.396.193.76.451 1.077.768.751.75 1.172 1.767 1.172 2.828v.002c0 2.208-1.79 3.998-3.998 3.998h-.004c-2.208 0-3.998-1.79-3.998-3.998v-.004c0-1.016.379-1.944 1.004-2.649-.003.047 4.907-.617 4.747-.945z" fill="#fff"/><path d="m9 8.983c.613 0 1.211.141 1.751.404.16.328.249.697.249 1.086v.004c0 1.375-1.115 2.49-2.49 2.49h-.02c-1.375 0-2.49-1.115-2.49-2.49 0-.001 0-.003 0-.004 0-.047.001-.094.004-.141.732-.827 1.802-1.349 2.994-1.349z"/><path d="m24.032 7.117c1.709.455 2.968 2.012 2.968 3.864v2.002c0 1.061-.421 2.079-1.172 2.829-.75.75-1.767 1.171-2.828 1.171h-.002c-2.208 0-3.998-1.79-3.998-3.998 0-.66 0-1.344 0-2.004 0-.702.181-1.362.499-1.935.257 1.101 4.787-1.539 4.533-1.929z" fill="#fff"/><path d="m23.002 6.983c.356 0 .701.047 1.03.134.254.39.402.856.402 1.356v.004c-.001 1.375-1.115 2.49-2.491 2.49-.006 0-.013 0-.019 0-1.18 0-2.168-.82-2.425-1.921.682-1.23 1.993-2.063 3.499-2.063z"/><path d="m9.354 24.453c-1.583-1.41-2.715-3.314-3.153-5.47h19.598c-.438 2.156-1.57 4.06-3.153 5.47z" fill="#722245"/><path d="m12 24.263c0 .122-.995 1.243-.986 1.364l.002.026c-.595-.343-1.152-.746-1.662-1.2l.755-1.134c.13-.193.28-.371.45-.53.136-.126.284-.24.441-.34zm9-1.814c.349.221.654.516.891.87l.755 1.134c-.51.454-1.067.857-1.662 1.2l.002-.026c.009-.121-.986-1.242-.986-1.364z" fill="#a1256c"/><path d="m21 25.263c0 .123-.005.244-.014.364-.185 2.437-2.221 4.356-4.706 4.356-.186 0-.374 0-.56 0-2.607 0-4.72-2.113-4.72-4.72v-2.814c.262-.165.548-.29.848-.369.248-.064.502-.096.758-.097h6.788c.578 0 1.133.166 1.606.466z" fill="#dd34a2"/></g></svg>