<svg clip-rule="evenodd" fill-rule="evenodd" stroke-linejoin="round" stroke-miterlimit="2" viewBox="0 0 32 32" xmlns="http://www.w3.org/2000/svg" xmlns:xlink="http://www.w3.org/1999/xlink"><clipPath id="a"><path clip-rule="evenodd" d="m0 0h32v32h-32z"/></clipPath><clipPath id="b"><path clip-rule="evenodd" d="m18 8h9v7h-9z"/></clipPath><metadata/><path d="m0 0h32v32h-32z" fill="none"/><g clip-path="url(#a)"><path d="m28.099 4.001.099.004.099.006.098.008.098.011.098.014.097.015.096.018.096.021.095.023.095.024.093.028.094.029.092.032.091.034.091.036.089.039.089.04.088.043.087.045.085.047.085.049.083.052.082.053.081.055.08.058.078.059.077.062.076.063.074.066.073.067.071.07.069.071.067.072.066.074.063.076.062.077.059.078.058.08.055.081.053.082.052.083.049.085.047.086.045.086.043.088.04.089.039.089.036.091.034.091.032.092.029.094.028.094.024.094.023.095.021.096.018.096.015.097.014.098.011.097.008.099.006.099.004.098.001.088v16.024l-.001.088-.004.098-.006.099-.008.099-.011.097-.014.098-.015.097-.018.096-.021.096-.023.095-.024.094-.028.094-.029.094-.032.092-.034.091-.036.091-.039.089-.04.089-.043.088-.045.086-.047.086-.049.085-.052.083-.053.082-.055.081-.058.08-.059.078-.062.077-.063.076-.066.074-.067.072-.069.071-.072.07-.072.067-.074.066-.076.063-.077.062-.078.059-.08.058-.081.055-.082.053-.083.052-.085.049-.086.047-.086.045-.088.043-.089.04-.089.039-.091.036-.091.034-.092.032-.094.029-.093.028-.095.024-.095.023-.096.021-.096.018-.097.015-.098.014-.098.011-.098.008-.099.006-.099.004-.086.001h-24.026l-.086-.001-.099-.004-.099-.006-.098-.008-.098-.011-.098-.014-.097-.015-.096-.018-.096-.021-.095-.023-.095-.024-.093-.028-.094-.029-.092-.032-.091-.034-.091-.036-.089-.039-.089-.04-.088-.043-.086-.045-.086-.047-.085-.049-.083-.052-.082-.053-.081-.055-.08-.058-.078-.059-.077-.062-.076-.063-.074-.066-.072-.067-.071-.069-.07-.072-.067-.072-.066-.074-.063-.076-.062-.077-.059-.078-.058-.08-.055-.081-.053-.082-.052-.083-.049-.085-.047-.086-.045-.086-.043-.088-.04-.088-.039-.09-.036-.091-.034-.091-.032-.093-.029-.092-.027-.094-.025-.095-.023-.095-.021-.096-.018-.096-.015-.097-.014-.098-.011-.098-.008-.098-.006-.099-.004-.099-.001-.087v-16.024l.001-.087.004-.099.006-.099.008-.098.011-.098.014-.098.015-.097.018-.096.021-.096.023-.095.025-.095.027-.094.029-.092.032-.093.034-.091.036-.091.039-.09.04-.088.043-.088.045-.086.047-.086.049-.085.052-.083.053-.082.055-.081.058-.08.059-.078.062-.077.063-.076.066-.074.067-.072.07-.072.071-.069.072-.067.074-.066.076-.063.077-.062.078-.059.08-.058.081-.055.082-.053.083-.052.085-.049.085-.047.087-.045.088-.043.089-.04.089-.039.091-.036.091-.034.093-.032.093-.029.093-.028.095-.024.095-.023.096-.021.096-.018.097-.015.098-.014.098-.011.098-.008.099-.006.099-.004.087-.001h24.024l.087.001zm-24.087 3.999h-.012v.012 15.976.012h.013 23.974.013v-.012-15.976-.012h-.012z"/><path d="m30 8c0-.53-.211-1.039-.586-1.414s-.884-.586-1.414-.586c-5.154 0-18.846 0-24 0-.53 0-1.039.211-1.414.586s-.586.884-.586 1.414v16c0 .53.211 1.039.586 1.414s.884.586 1.414.586h24c.53 0 1.039-.211 1.414-.586s.586-.884.586-1.414c0-3.832 0-12.168 0-16z" fill="#e82731"/><path d="m9 14c0-.552-.448-1-1-1-.871 0-2.129 0-3 0-.552 0-1 .448-1 1v2c0 .552.448 1 1 1h3c.552 0 1-.448 1-1 0-.611 0-1.389 0-2z" fill="#e48a1b"/><g fill="#f49b9f"><path d="m6 18.5c0-.133-.053-.26-.146-.354-.094-.093-.221-.146-.354-.146-.305 0-.695 0-1 0-.133 0-.26.053-.354.146-.093.094-.146.221-.146.354v2c0 .133.053.26.146.354.094.093.221.146.354.146h1c.133 0 .26-.053.354-.146.093-.094.146-.221.146-.354 0-.555 0-1.445 0-2z"/><path d="m14 22.5c0-.133-.053-.26-.146-.354-.094-.093-.221-.146-.354-.146-1.707 0-7.293 0-9 0-.133 0-.26.053-.354.146-.093.094-.146.221-.146.354s.053.26.146.354c.094.093.221.146.354.146h9c.133 0 .26-.053.354-.146.093-.094.146-.221.146-.354z"/><path d="m18 18.5c0-.133-.053-.26-.146-.354-.094-.093-.221-.146-.354-.146-.305 0-.695 0-1 0-.133 0-.26.053-.354.146-.093.094-.146.221-.146.354v2c0 .133.053.26.146.354.094.093.221.146.354.146h1c.133 0 .26-.053.354-.146.093-.094.146-.221.146-.354 0-.555 0-1.445 0-2z"/><path d="m12 18.5c0-.133-.053-.26-.146-.354-.094-.093-.221-.146-.354-.146-.305 0-.695 0-1 0-.133 0-.26.053-.354.146-.093.094-.146.221-.146.354v2c0 .133.053.26.146.354.094.093.221.146.354.146h1c.133 0 .26-.053.354-.146.093-.094.146-.221.146-.354 0-.555 0-1.445 0-2z"/><path d="m24 18.5c0-.133-.053-.26-.146-.354-.094-.093-.221-.146-.354-.146-.305 0-.695 0-1 0-.133 0-.26.053-.354.146-.093.094-.146.221-.146.354v2c0 .133.053.26.146.354.094.093.221.146.354.146h1c.133 0 .26-.053.354-.146.093-.094.146-.221.146-.354 0-.555 0-1.445 0-2z"/><path d="m9 18.5c0-.133-.053-.26-.146-.354-.094-.093-.221-.146-.354-.146-.305 0-.695 0-1 0-.133 0-.26.053-.354.146-.093.094-.146.221-.146.354v2c0 .133.053.26.146.354.094.093.221.146.354.146h1c.133 0 .26-.053.354-.146.093-.094.146-.221.146-.354 0-.555 0-1.445 0-2z"/><path d="m21 18.5c0-.133-.053-.26-.146-.354-.094-.093-.221-.146-.354-.146-.305 0-.695 0-1 0-.133 0-.26.053-.354.146-.093.094-.146.221-.146.354v2c0 .133.053.26.146.354.094.093.221.146.354.146h1c.133 0 .26-.053.354-.146.093-.094.146-.221.146-.354 0-.555 0-1.445 0-2z"/><path d="m15 18.5c0-.133-.053-.26-.146-.354-.094-.093-.221-.146-.354-.146-.305 0-.695 0-1 0-.133 0-.26.053-.354.146-.093.094-.146.221-.146.354v2c0 .133.053.26.146.354.094.093.221.146.354.146h1c.133 0 .26-.053.354-.146.093-.094.146-.221.146-.354 0-.555 0-1.445 0-2z"/><path d="m27 18.5c0-.133-.053-.26-.146-.354-.094-.093-.221-.146-.354-.146-.305 0-.695 0-1 0-.133 0-.26.053-.354.146-.093.094-.146.221-.146.354v2c0 .133.053.26.146.354.094.093.221.146.354.146h1c.133 0 .26-.053.354-.146.093-.094.146-.221.146-.354 0-.555 0-1.445 0-2z"/></g><path d="m18 8h9v7h-9z" fill="none"/><g clip-path="url(#b)" fill="#8c0f15"><path d="m27 11h-9v-1h9z"/><path d="m27 13h-9v-1h9z"/><path d="m26 15h-1v-4.882l-2.316 4.632h-.368l-2.316-4.632v4.882h-1v-7.653l.655-.154 2.845 5.689 2.845-5.689.655.154z"/></g></g></svg>