<svg clip-rule="evenodd" fill-rule="evenodd" stroke-linejoin="round" stroke-miterlimit="2" viewBox="0 0 32 32" xmlns="http://www.w3.org/2000/svg" xmlns:xlink="http://www.w3.org/1999/xlink"><clipPath id="a"><path clip-rule="evenodd" d="m0 0h19.5v32h-19.5z"/></clipPath><clipPath id="b"><circle clip-rule="evenodd" cx="16" cy="16" r="14"/></clipPath><clipPath id="c"><circle clip-rule="evenodd" cx="23" cy="16" r="14"/></clipPath><metadata/><path d="m0 0h32v32h-32z" fill="none"/><circle cx="16" cy="16" r="16"/><path d="m0 0h19.5v32h-19.5z" fill="none"/><g clip-path="url(#a)"><path d="m12.976 2.328c.974-.215 1.986-.328 3.024-.328 5.178 0 9.704 2.817 12.125 7.002.787 3.091 1.461 5.819 1.617 9.686-1.193 6.124-6.384 10.827-12.742 11.277-2.429-.528-5.812-1.221-7.889-1.777-3.076-1.743-5.428-4.617-6.49-8.056.213-3.091 2.481-11.543 2.75-13.24.246-.287.504-.564.772-.83.868-.153 5.658-2.965 6.833-3.734z" fill="#d0e3e6"/><path d="m9.111 28.188c.355-1.262 1.514-2.188 2.889-2.188 1.308 0 2.421.839 2.831 2.007.056-.005.112-.007.169-.007 1.092 0 1.981.877 2 1.965-.331.023-.664.035-1 .035-2.503 0-4.854-.659-6.889-1.812zm-3.74-21.296c.747 1.823 2.539 3.108 4.629 3.108 1.635 0 3.087-.786 4-2h2.5c1.933 0 3.5 1.567 3.5 3.5s-1.567 3.5-3.5 3.5h-.173l.025.021c-.115-.014-.233-.021-.352-.021-1.656 0-3 1.344-3 3s1.344 3 3 3c1.258 0 2.335-.775 2.781-1.874.752.728 1.219 1.747 1.219 2.874 0 .376-.052.74-.149 1.085.207-.055.424-.085.649-.085 1.38 0 2.5 1.12 2.5 2.5s-1.12 2.5-2.5 2.5-2.5-1.12-2.5-2.5c0-.012 0-.024 0-.036-.588.341-1.272.536-2 .536-1.945 0-3.567-1.391-3.926-3.231-1.638-.547-2.857-2.012-3.048-3.782l-.026.013s0 0-.001.001c-1.06 1.06-2.499 1.656-3.999 1.656-.83 0-1.641-.182-2.379-.525-.404-1.306-.621-2.694-.621-4.132 0-3.477 1.27-6.659 3.371-9.108zm24.371 11.796c-.543.202-1.13.312-1.742.312-2.76 0-5-2.24-5-5s2.24-5 5-5c.042 0 .084.001.125.002 1.193 2.059 1.875 4.449 1.875 6.998 0 .919-.089 1.818-.258 2.688zm-16.766-16.36c.636.709 1.024 1.645 1.024 2.672 0 2.208-1.792 4-4 4-1.84 0-3.391-1.245-3.857-2.938 1.847-1.832 4.201-3.154 6.833-3.734z" fill="#aac0d2"/></g><circle cx="16" cy="16" fill="none" r="14"/><g clip-path="url(#b)"><circle cx="23" cy="16" fill="none" r="14"/><g clip-path="url(#c)"><path d="m12.976 2.328c.974-.215 1.986-.328 3.024-.328 5.178 0 9.704 2.817 12.125 7.002.787 3.091 1.461 5.819 1.617 9.686-1.193 6.124-6.384 10.827-12.742 11.277-2.429-.528-5.812-1.221-7.889-1.777-3.076-1.743-5.428-4.617-6.49-8.056.213-3.091 2.481-11.543 2.75-13.24.246-.287.504-.564.772-.83.868-.153 5.658-2.965 6.833-3.734z" fill="#432a7e"/><path d="m9.111 28.188c.355-1.262 1.514-2.188 2.889-2.188 1.308 0 2.421.839 2.831 2.007.056-.005.112-.007.169-.007 1.092 0 1.981.877 2 1.965-.331.023-.664.035-1 .035-2.503 0-4.854-.659-6.889-1.812zm-3.74-21.296c.747 1.823 2.539 3.108 4.629 3.108 1.635 0 3.087-.786 4-2h2.5c1.933 0 3.5 1.567 3.5 3.5s-1.567 3.5-3.5 3.5h-.173l.025.021c-.115-.014-.233-.021-.352-.021-1.656 0-3 1.344-3 3s1.344 3 3 3c1.258 0 2.335-.775 2.781-1.874.752.728 1.219 1.747 1.219 2.874 0 .376-.052.74-.149 1.085.207-.055.424-.085.649-.085 1.38 0 2.5 1.12 2.5 2.5s-1.12 2.5-2.5 2.5-2.5-1.12-2.5-2.5c0-.012 0-.024 0-.036-.588.341-1.272.536-2 .536-1.945 0-3.567-1.391-3.926-3.231-1.638-.547-2.857-2.012-3.048-3.782l-.026.013s0 0-.001.001c-1.06 1.06-2.499 1.656-3.999 1.656-.83 0-1.641-.182-2.379-.525-.404-1.306-.621-2.694-.621-4.132 0-3.477 1.27-6.659 3.371-9.108zm24.371 11.796c-.543.202-1.13.312-1.742.312-2.76 0-5-2.24-5-5s2.24-5 5-5c.042 0 .084.001.125.002 1.193 2.059 1.875 4.449 1.875 6.998 0 .919-.089 1.818-.258 2.688zm-16.766-16.36c.636.709 1.024 1.645 1.024 2.672 0 2.208-1.792 4-4 4-1.84 0-3.391-1.245-3.857-2.938 1.847-1.832 4.201-3.154 6.833-3.734z" fill="#2f1f5d"/></g></g></svg>