<svg clip-rule="evenodd" fill-rule="evenodd" stroke-linejoin="round" stroke-miterlimit="2" viewBox="0 0 32 32" xmlns="http://www.w3.org/2000/svg"><metadata/><path d="m0 0h32v32h-32z" fill="none"/><path d="m23.526 0 1.795 1.152-1.962 7.851 1.544 6.177.034.158c.021.117.039.233.05.351.01.114.009.157.013.28v.803c.077.044.076.045.156.095l.117.077c.188.135.368.278.533.441.489.482.85 1.088 1.039 1.748.091.315.136.635.153.962.016.909.007 1.818.001 2.728-.005.306-.022.612-.056.917-.076.678-.227 1.348-.45 1.994-.271.787-.648 1.536-1.118 2.223-.411.6-.892 1.151-1.431 1.639-1.324 1.199-2.989 1.999-4.752 2.285-.377.061-.757.098-1.139.113-.085.003-.17.005-.256.006h-.777-.001c-1.108-.001-2.214-.167-3.272-.496-1.066-.332-2.08-.827-2.997-1.463-1.86-1.29-3.302-3.149-4.08-5.275-.299-.815-.5-1.665-.598-2.527-.043-.373-.064-.747-.071-1.122-.006-.865-.005-1.73-.004-2.595-.006-2.037-.021-4.073.004-6.109.015-.402.088-.797.234-1.173.363-.942 1.134-1.695 2.085-2.035.353-.127.72-.19 1.093-.204.087-.001.087-.001.174 0 .402.015.797.088 1.173.234.019.007.038.014.056.022.397-.473.916-.842 1.504-1.052.352-.126.72-.19 1.093-.204.087-.001.087-.001.174 0 .402.015.797.088 1.173.234.482.185.92.478 1.276.852.018.019.036.039.053.058l.038-.15c-.15-.611-.298-1.221-.443-1.833-.02-.093-.02-.093-.037-.187-.041-.249-.064-.499-.06-.751.007-.471.098-.939.267-1.378.067-.173.147-.341.236-.504l2.43-4.342h2.588l.358 1.431 1.788-1.431h.272z"/><path d="m18.792 6.655c.033-.132.079-.26.138-.383.13-.269.32-.507.553-.694.552-.442 1.657-1.326 1.657-1.326l.616.938.056 1.751-1.014 4.059 2.202 4.999v2.001 8l-6-2-7-2.226-2-3.371v-5.903c1.293 0 1.5-.207 1.5-1.5h8.206z" fill="#65130a"/><path d="m14.108 17.27 3.096-.27 5.034.238.762.762s.432.216.894.447c.678.339 1.106 1.032 1.106 1.789v2.471c0 1.934-.768 3.789-2.136 5.157s-3.223 2.136-5.157 2.136h-.682c-4.984 0-9.025-4.041-9.025-9.025v-2.572c.055.063.112.124.172.183l3.828 3.828v-3l2.783 2.783 1.019 1.624.347-.23.351-.789-.5-2.254c-.593-.545-1.071-1.225-1.383-2.005z" fill="#e5641a"/><path d="m12.523 16 1.166 2.914c.31.776.759 1.467 1.311 2.051v.035s-1.541-1.541-2.414-2.414c-.375-.375-.586-.884-.586-1.414 0-1.339 0-3.995 0-5.672 0-.398.158-.779.439-1.061.282-.281.663-.439 1.061-.439s.779.158 1.061.439c.281.282.439.663.439 1.061v4.5zm-3.053-5c.845 0 1.53.685 1.53 1.53v7.47s-1.236-1.236-2.121-2.121c-.563-.563-.879-1.326-.879-2.122 0-.956 0-2.28 0-3.289 0-.389.155-.763.43-1.038s.649-.43 1.038-.43zm9.452 5h-2.466c.408-1.635.817-3.269 1.225-4.904zm4.078 0h-3.046l-.67-2.681 1.411-.751 1.499.024.761 3.044c.018.079.024.099.034.18s.008.102.011.183zm-3.841-7.424-1.118-.227-.395-1.579c-.123-.495-.053-1.018.195-1.462.616-1.101 1.75-3.128 1.75-3.128l1.361 5.442-.769.69 1.011.28.758 3.03-1.452.698-1.459.029-.757-3.03zm2.653-1.635-.672-2.689 1.681-1.344z" fill="#e5641a"/><path d="m16 20.134c.281-.162.636-.184.947-.028.494.246.694.848.447 1.341l-2 4c-.246.494-.848.694-1.341.447-.494-.246-.694-.848-.447-1.341l1.177-2.356 1.217 1.217z" fill="#be3e13"/><path d="m23 18h-7.523l.069.171c.683 1.709 2.338 2.829 4.178 2.829h.69l2.293 2.293-1.414 1.414-1.709-1.709c-2.601-.055-4.926-1.659-5.895-4.084l-1.166-2.914h10.477z" fill="#65130a"/><path d="m22.194 12.592-2.91.727-.243-.97 2.911-.727zm-1-4-2.91.727-.243-.97 2.911-.727z" fill="#be3e13"/></svg>