<svg clip-rule="evenodd" fill-rule="evenodd" stroke-linecap="round" stroke-linejoin="round" stroke-miterlimit="1.5" viewBox="0 0 32 32" xmlns="http://www.w3.org/2000/svg"><metadata/><path d="m0 0h32v32h-32z" fill="none"/><path d="m16 15.764 5.553-11.106 1.789.895-.448.894 7.106 3.553-4 8-7.106-3.553-1.776 3.553 4.224 8.447-1.789.895-3.553-7.106-3.553 7.106-1.789-.895 4.224-8.447-1.776-3.553-7.106 3.553-4-8 7.106-3.553-.448-.894 1.789-.895z" fill="none" stroke="#000" stroke-width="4"/><path d="m10 6-8 4 4 8 8-4z" fill="#f1a500"/><path d="m22 6 8 4-4 8-8-4z" fill="#f1a500"/><path d="m17.118 13.528.882.277.236 1.959-5.789 11.578-1.789-.895z" fill="#595858"/><g fill="#949393"><path d="m17.118 13.528 4.435-8.87 1.789.895-5.106 10.211z"/><path d="m21.342 26.447-1.789.895-10.895-21.789 1.789-.895z"/></g></svg>