<svg clip-rule="evenodd" fill-rule="evenodd" stroke-linejoin="round" stroke-miterlimit="1.41421" viewBox="0 0 32 32" xmlns="http://www.w3.org/2000/svg"><metadata/><path d="m0 0h32v32h-32z" fill="none"/><path d="m8 2.757 8 8 8-8 4.243 4.243v2l-7 7 7 7v2l-4.243 4.243-8-8-8 8-4.243-4.243v-2l7-7-7-7v-2z" fill="none" stroke="#000" stroke-width="4"/><g fill-rule="nonzero"><path d="m8 4.757 8 8 8-8 4.243 2.243v2l-8 8 4.242 4.243 3.758 1.757v2l-4.243 4.243-8-8-8 8-4.243-4.243v-2l3.758-1.757 4.242-4.243-8-8v-2z" fill="#93151c"/><path d="m16 10.757 8-8 4.243 4.243-8 8 8 8-4.243 4.243-8-8-8 8-4.243-4.243 8-8-8-8 4.243-4.243z" fill="#e02a33"/></g></svg>