<svg clip-rule="evenodd" fill-rule="evenodd" stroke-linejoin="round" stroke-miterlimit="1.5" viewBox="0 0 32 32" xmlns="http://www.w3.org/2000/svg"><metadata/><g fill="none"><path d="m0 0h32v32h-32z"/><path d="m10.176 6.882 2.019-1.345c2.414-1.609 5.413-2.078 8.203-1.281 0 .001 0 .001.001.001 1.65.471 3.424.194 4.852-.758.303-.202.551-.367.671-.447.051-.034.111-.052.172-.052h.002c.283 0 .536.179.63.447s.009.565-.213.743c-.416.332-.876.701-1.323 1.058-1.348 1.079-3.181 1.327-4.767.647-.001 0-.002 0-.002 0-2.595-1.112-5.613-.305-7.307 1.953-.073.097-.114.152-.114.152l-.571.571.571.429 4 4 12 14-2 2-15-13-3-3-.429-.571-.571.571-.152.114c-2.258 1.694-3.065 4.712-1.953 7.307v.002c.68 1.586.432 3.419-.647 4.767-.357.447-.726.907-1.058 1.323-.178.222-.475.307-.743.213s-.447-.347-.447-.63c0-.001 0-.002 0-.002 0-.061.018-.121.052-.172.08-.12.245-.368.447-.671.952-1.428 1.229-3.202.758-4.852 0-.001 0-.001-.001-.001-.797-2.79-.328-5.789 1.281-8.203l1.345-2.019-3.882-5.176 2-2z" stroke="#000" stroke-width="4"/><path d="m5 23 13-5 5-13" stroke="#000" stroke-width="6"/></g><path d="m5 16 11-11h7v6l-12 12h-6z"/><path d="m29 27-12-14-4-4-8-6-2 2 6 8 3 3 15 13z" fill="#ae7a46"/><path d="m18.707 17.293-1.414 1.414-6-6 1.414-1.414z" fill="#2a2a2a" fill-rule="nonzero"/><path d="m5 23 13-5 5-13" fill="none" stroke="#adb4b6" stroke-width="2"/><path d="m10 7 2-1 1 2-5 5-2-1 1-2z" fill="#5a3a24"/><path d="m20.398 4.256c-2.79-.797-5.789-.328-8.203 1.281-1.189.792-2.195 1.463-2.195 1.463l3 1s.041-.055.114-.152c1.694-2.258 4.712-3.065 7.307-1.953h.002c1.586.68 3.419.432 4.767-.647.447-.357.907-.726 1.323-1.058.222-.178.307-.475.213-.743s-.347-.447-.63-.447c-.001 0-.002 0-.002 0-.061 0-.121.018-.172.052-.12.08-.368.245-.671.447-1.428.952-3.202 1.229-4.852.758-.001 0-.001 0-.001-.001z" fill="#789095"/><path d="m4.256 20.398c-.797-2.79-.328-5.789 1.281-8.203.792-1.189 1.463-2.195 1.463-2.195l1 3s-.055.041-.152.114c-2.258 1.694-3.065 4.712-1.953 7.307v.002c.68 1.586.432 3.419-.647 4.767-.357.447-.726.907-1.058 1.323-.178.222-.475.307-.743.213s-.447-.347-.447-.63c0-.001 0-.002 0-.002 0-.061.018-.121.052-.172.08-.12.245-.368.447-.671.952-1.428 1.229-3.202.758-4.852 0-.001 0-.001-.001-.001z" fill="#789095"/></svg>