<svg clip-rule="evenodd" fill-rule="evenodd" stroke-linejoin="round" stroke-miterlimit="2" viewBox="0 0 32 32" xmlns="http://www.w3.org/2000/svg" xmlns:xlink="http://www.w3.org/1999/xlink"><clipPath id="a"><path clip-rule="evenodd" d="m0 0h32v32h-32z"/></clipPath><metadata/><path d="m0 0h32v32h-32z" fill="none"/><g clip-path="url(#a)"><path d="m18.5.258c.912-.323 1.935-.357 2.923-.027 2.356.785 3.631 3.336 2.846 5.692l-1.026 3.077 2.026 6.077.012.035c1.119.241 2.134.862 2.861 1.775.948 1.193 1.301 2.753.959 4.237-.116.502-.238 1.032-.363 1.574-1.257 5.445-6.105 9.302-11.693 9.302h-1.073c-5.574.003-10.434-3.793-11.785-9.2-.609-2.433-1.178-4.709-1.178-4.709-.602-2.409.865-4.854 3.275-5.457.153-.038.306-.068.458-.09.479-1.394 1.631-2.526 3.167-2.91 1.225-.306 2.46-.077 3.457.539l.391-1.173-1.026-3.077c-.785-2.356.49-4.907 2.846-5.692.988-.33 2.011-.296 2.923.027z"/><path d="m15.36 12-.022-1.419 2.29-6.872c.072-.209.167-.409.289-.593.252-.379.608-.684 1.019-.878.173-.081.378-.146.564-.188l.013.013c.209.218.709.299.857.562.109.195.197.398.269.609l1.087 2.766-.064 1.419-1.748 5.244 3.222 2.337c.288.877.576 1.754.864 2.632v6.368l-13-4 2.032 3.314-5.235-2.314h-1.295s-.772-.967-1.021-1.263l-.521-2.082 1.04-2.655c3.923-2.944 4.095-3.002 9-3z" fill="#902f41" fill-rule="nonzero"/><path d="m13.762 17.341c.154-.348.238-.731.238-1.13v-1.617l1.338-4.013 1.473 4.419h-.811v1.657l-.72 1.083c0 3.314 3.406 6.26 6.72 6.26l1-1v-2h-1c-2.209 0-4-1.791-4-4h6.229c.914 0 1.778.417 2.348 1.132.569.716.781 1.652.575 2.543-.116.502-.238 1.032-.363 1.574-1.047 4.537-5.088 7.751-9.744 7.751h-1.076c-4.653 0-8.713-3.17-9.842-7.683l-.646-2.58c.562.351 1.254.469 1.921.302l.011-.003c.915-.233 1.608-.894 1.92-1.716.668.584 1.6.844 2.527.617 0-.001.001-.001.002-.001.099-.024.196-.054.29-.088 0 0 1.338.15 2.29-.334zm-6.365-2.837c.162.001.321.018.476.05l.582 2.329c.004.014.008.029.012.043.22.946-.355 1.898-1.297 2.14l-.012.003c-.58.146-1.191-.071-1.55-.55l-.648-.864-.011-.044c-.335-1.339.48-2.697 1.818-3.032.205-.052.411-.076.613-.076zm1.198-1.187c.238-.832.9-1.518 1.799-1.742 1.004-.252 2.02.145 2.606.924v3.712c-.001.197-.032.392-.095.579-.15.442-.472.816-.888 1.028-.173.089-.36.149-.552.179-.19.029-.385.028-.574-.004-.22-.036-.432-.114-.624-.227-.205-.12-.385-.281-.528-.47s-.252-.409-.309-.64zm14.54 1.683h-5.27l-3.237-9.709c-.114-.357-.156-.733-.108-1.106.043-.337.156-.665.329-.958.161-.273.374-.514.625-.707.221-.171.47-.303.735-.392.265-.088.545-.132.824-.128.707.01 1.398.332 1.861.867.213.247.371.535.478.842zm-3.635-12.95c.416-.085.859-.065 1.291.078 1.309.437 2.017 1.854 1.581 3.163l-.71 2.128-1.342-4.026c-.071-.21-.16-.414-.268-.608-.148-.263-.33-.504-.539-.722z" fill="#ed9298"/><g fill="#cb4059"><path d="m16 16.657v.343c0 3.314 2.686 6 6 6h1v1.158c0 .923-.426 1.796-1.154 2.364-.728.569-1.677.77-2.574.546-.917-.229-1.782-.445-2.294-.574-.318-.079-.643-.119-.97-.119h-.016c-.327 0-.652.04-.97.119-.512.129-1.377.345-2.294.574-.897.224-1.846.023-2.574-.546-.728-.568-1.154-1.441-1.154-2.364 0-.172 0-.34 0-.501 0-1.061.421-2.078 1.172-2.829l1.98-1.98c.73-.264 1.306-.817 1.61-1.507.657-.443 1.435-.684 2.238-.684z"/><path d="m16.993 3.582c-1.047.258-1.601 1.672-1.235 3.156.365 1.484 1.513 2.479 2.56 2.221 1.048-.258 1.602-1.672 1.236-3.156s-1.513-2.479-2.561-2.221z"/></g></g></svg>