<svg clip-rule="evenodd" fill-rule="evenodd" stroke-linejoin="round" stroke-miterlimit="2" viewBox="0 0 32 32" xmlns="http://www.w3.org/2000/svg" xmlns:xlink="http://www.w3.org/1999/xlink"><clipPath id="a"><path clip-rule="evenodd" d="m0 0h32v32h-32z"/></clipPath><clipPath id="b"><path clip-rule="evenodd" d="m23.894 18.447c.678.339 1.106 1.032 1.106 1.789v2.471c0 1.934-.768 3.789-2.136 5.157s-3.223 2.136-5.157 2.136c-.226 0-.454 0-.682 0-4.984 0-9.025-4.041-9.025-9.025v-7.475h1.5v-1.5h12v4.499h1.5v1.501s.432.216.894.447z"/></clipPath><metadata/><path d="m0 0h32v32h-32z" fill="none"/><g clip-path="url(#a)"><path d="m19.751.73c.095-.036.192-.069.29-.096.19-.054.385-.091.581-.113.059-.006.204-.019.252-.021.066-.002.133 0 .2 0 .068.003.135.006.203.009.143.017.284.034.425.063.277.056.547.145.803.266.346.165.664.388.939.656.519.506.875 1.172 1.003 1.886.05.28.064.566.045.849-.009.139-.028.275-.048.412-.091.41-.183.819-.277 1.228-.244 1.052-.5 2.102-.762 3.15l.039.15c.194.759.387 1.518.577 2.278.253 1.021.498 2.043.733 3.068l.087.386c.032.146.067.292.097.439.036.176.054.359.06.539.002.054.003.109.002.164v.729c.077.044.076.045.156.095l.117.077c.188.135.368.278.533.441.489.482.85 1.088 1.039 1.748.091.315.136.635.153.962.016.909.007 1.818.001 2.728-.005.306-.022.612-.056.917-.076.678-.227 1.348-.45 1.994-.271.787-.648 1.536-1.118 2.223-.411.6-.892 1.151-1.431 1.639-1.323 1.199-2.989 1.999-4.752 2.285-.377.061-.757.098-1.139.113-.344.012-.691.006-1.035.006-1.107-.001-2.213-.167-3.271-.496-1.066-.332-2.08-.827-2.997-1.463-1.86-1.29-3.302-3.149-4.08-5.275-.283-.771-.478-1.574-.582-2.389-.053-.418-.079-.838-.087-1.26l-.001-.117v-.039c-.003-.558-.004-1.116-.004-1.673-.007-1.959-.019-3.917.005-5.875.014-.374.078-.741.204-1.093.34-.951 1.093-1.722 2.035-2.086.376-.145.771-.218 1.173-.233.087-.001.087-.001.174 0 .402.015.797.088 1.173.234.019.007.038.014.056.022.378-.452.868-.808 1.424-1.022.376-.146.771-.219 1.173-.234.087-.001.087-.001.174 0 .402.015.797.088 1.173.234.262.101.511.233.741.394.163-.114.335-.214.516-.299l.016-.063.064-.246c-.04-.157-.079-.313-.118-.47-.253-1.02-.498-2.042-.732-3.067l-.088-.386c-.033-.152-.07-.304-.101-.457-.016-.079-.033-.237-.042-.324-.029-.312-.016-.629.039-.937.14-.782.554-1.505 1.155-2.026.264-.229.562-.417.881-.559.268-.118.551-.199.839-.247.073-.012.23-.034.295-.039.067-.006.135-.006.203-.009h.2c.12.009.239.018.358.035.231.032.459.086.679.164.028.01.057.02.086.031z"/><path d="m23.894 18.447c.678.339 1.106 1.032 1.106 1.789v2.471c0 1.934-.768 3.789-2.136 5.157s-3.223 2.136-5.157 2.136c-.226 0-.454 0-.682 0-4.984 0-9.025-4.041-9.025-9.025v-7.475h1.5v-1.5h12v4.499h1.5v1.501s.432.216.894.447z" fill="#8c262d"/><g clip-path="url(#b)"><path d="m16.546 20.001c.133.009.262.038.383.096.354.168.581.538.571.929-.004.134-.036.262-.089.385-.651 1.371-1.33 2.728-2.035 4.071-.074.128-.168.239-.287.326-.107.078-.23.135-.359.165-.116.028-.237.034-.355.019-.106-.013-.209-.043-.304-.089-.328-.156-.55-.487-.57-.85-.008-.161.024-.317.088-.464.651-1.371 1.33-2.728 2.035-4.071.121-.21.303-.373.532-.457.075-.027.152-.044.231-.055.053-.005.106-.006.159-.005z" fill="#6e1322" fill-rule="nonzero"/><path d="m9.5 13.5v-2.5h12v1.5h2.5v5.499l-8 .001v.506c-.004.327-.065.648-.19.951-.086.207-.2.403-.338.58-.483.619-1.248.982-2.034.962-.286-.007-.571-.063-.838-.167-.286-.11-.551-.273-.778-.479-.243-.22-.442-.488-.582-.785-.031-.064-.058-.13-.083-.196-.501.442-1.173.671-1.843.621-.224-.017-.446-.064-.657-.139-.288-.104-.557-.26-.789-.46-.248-.214-.454-.478-.602-.771-.099-.198-.17-.408-.214-.623h-.052v-.496c-.016-1.334-.016-2.669 0-4.004z" fill="#3f0913"/></g><path d="m12 12.5c0-.398.158-.779.439-1.061.282-.281.663-.439 1.061-.439s.779.158 1.061.439c.281.282.439.663.439 1.061v6c0 .398-.158.779-.439 1.061-.282.281-.663.439-1.061.439s-.779-.158-1.061-.439c-.281-.282-.439-.663-.439-1.061 0-1.665 0-4.335 0-6zm-4 1c0-.398.158-.779.439-1.061.282-.281.663-.439 1.061-.439s.779.158 1.061.439c.281.282.439.663.439 1.061v4c0 .398-.158.779-.439 1.061-.282.281-.663.439-1.061.439s-.779-.158-1.061-.439c-.281-.282-.439-.663-.439-1.061 0-1.181 0-2.819 0-4z" fill="#8c262d"/><path d="m17.641 11.054c.17.693 1.059.871 1.059.871l.484 4.043-.879 1.5-1.385-.43s-.213-.263-.283-.416c-.093-.204-.14-.429-.135-.654.002-.084.013-.167.026-.25.344-1.561.722-3.114 1.113-4.664zm2.909-8.485c.13-.041.263-.06.399-.069.084 0 .083 0 .168.004.169.018.331.053.487.122.442.193.769.598.867 1.07.04.195.036.389.004.585-.195.887-.401 1.771-.615 2.653-.02-.079-.336-.044-.424-.309-.384-1.171-1.011-3.939-1.011-3.939s.132-.108.125-.117z" fill="#8c262d"/><path d="m20.55 2.569c.013.019.026.037.039.056.129.196.22.409.298.629.108.388.215.777.32 1.166.224.836.441 1.675.653 2.514-.598 2.475-1.888 7.404-1.888 7.404l.287 2.186s-.983.282-1.079.404c-.024-.062-.047-.124-.068-.188-.108-.387-.214-.774-.319-1.161-.403-1.504-.782-3.013-1.152-4.525.625-2.475 1.286-4.942 1.906-7.418.038-.137.086-.266.157-.389.184-.317.483-.56.832-.673.005-.002.009-.004.014-.005z" fill="#3f0913"/><g fill-rule="nonzero"><path d="m18.553 2.5c.141.009.278.03.413.074.321.105.602.319.787.601.078.119.134.246.179.38 1.12 3.997 2.016 8.053 3.023 12.081.018.082.034.164.041.248.017.224-.017.451-.099.661-.061.157-.149.303-.258.431-.333.388-.854.582-1.36.507-.139-.021-.274-.061-.402-.119-.179-.082-.341-.199-.475-.342-.114-.124-.208-.266-.276-.42-.03-.069-.034-.087-.059-.158-1.119-3.997-2.015-8.054-3.022-12.081-.037-.166-.054-.331-.039-.501.047-.509.36-.969.815-1.2.178-.091.367-.137.564-.158.084-.004.084-.004.168-.004z" fill="#8c262d"/><path d="m23 18h-6.873c.022.083.022.082.046.165.099.311.226.609.394.89.524.875 1.379 1.526 2.362 1.799.35.097.709.144 1.072.146h.413l2.293 2.293-1.414 1.414-1.723-1.722c-.104-.007-.208-.018-.312-.031-.582-.076-1.152-.23-1.69-.468-1.127-.499-2.085-1.347-2.717-2.404-.226-.377-.41-.779-.548-1.196-.193-.585-.291-1.194-.303-1.81v-.071-1.005h9z" fill="#3f0913"/></g></g></svg>