<svg clip-rule="evenodd" fill-rule="evenodd" stroke-linecap="round" stroke-miterlimit="3" viewBox="0 0 32 32" xmlns="http://www.w3.org/2000/svg" xmlns:xlink="http://www.w3.org/1999/xlink"><clipPath id="a"><path clip-rule="evenodd" d="m0 0h32v32h-32z"/></clipPath><clipPath id="b"><path clip-rule="evenodd" d="m13.128 9.128 1.872 1.872v3.172c0 .53-.211 1.039-.586 1.414-.59.59-1.414 1.414-1.414 1.414h-2.509c-.984 0-1.957-.2-2.861-.587-2.038-.874-5.63-2.413-5.63-2.413 1.237-1.856 3.119-3.182 5.276-3.724l1.834-.047 3.967-1.015z"/></clipPath><clipPath id="c"><circle clip-rule="evenodd" cx="19" cy="11" r="2"/></clipPath><metadata/><path d="m0 0h32v32h-32z" fill="none"/><g clip-path="url(#a)"><path d="m30 13s-1.03-2.059-2.044-4.088c-1.199-2.398-3.649-3.912-6.329-3.912-.387 0-.775 0-1.153 0-2.224 0-4.358.884-5.931 2.457-.323.323-.629.629-.882.882-.432.432-.977.731-1.573.864-1.071.238-2.913.647-4.569 1.015-2.258.502-4.235 1.857-5.519 3.782s3.592 1.539 5.63 2.413c.904.387 1.877.587 2.861.587h1.589c2.964 0 5.622 1.826 6.686 4.592 1.439 3.742 3.234 8.408 3.234 8.408h8z" fill="none" stroke="#000" stroke-width="4"/><path d="m14.5 7.5.043-.043c1.573-1.573 3.707-2.457 5.931-2.457h1.153c2.68 0 5.13 1.514 6.329 3.912 1.014 2.029 2.044 4.088 2.044 4.088v17h-8s-1.795-4.666-3.234-8.408c-.033-.086-.067-.171-.103-.255z" fill="#36384a"/><path d="m13.128 9.128.366-.634c.057-.049.113-.101.167-.155l.839-.839 1.207 1.207c.188.188.442.293.707.293h4.929c1.061 0 2.078.421 2.829 1.172 1.562 1.562 1.562 4.094 0 5.656l-5.509 5.509c-1.126-2.623-5.663-4.337-5.663-4.337z" fill="#1e1f29"/><path d="m13.128 9.128 1.872 1.872v3.172c0 .53-.211 1.039-.586 1.414-.59.59-1.414 1.414-1.414 1.414h-2.509c-.984 0-1.957-.2-2.861-.587-2.038-.874-5.63-2.413-5.63-2.413 1.237-1.856 3.119-3.182 5.276-3.724l1.834-.047 3.967-1.015z" fill="#4b4f68"/><g clip-path="url(#b)"><path d="m0 14h12.227c.508 0 1.01.118 1.464.346.578.289 1.309.654 1.309.654" fill="none" stroke="#32354c"/></g><path d="m13.494 8.494 2.506 2.506c0 .552-.448 1-1 1-1.133 0-2.998 0-4.348 0-1.058 0-2.072-.42-2.82-1.168l-.556-.556c.08-.021.162-.04.243-.058 1.656-.368 3.498-.777 4.569-1.015.522-.116 1.005-.36 1.406-.709z" fill="#292b39"/><circle cx="19" cy="11" fill="#9ed8ce" r="2"/><g clip-path="url(#c)"><circle cx="19" cy="11" r="1"/></g></g></svg>