<svg clip-rule="evenodd" fill-rule="evenodd" stroke-linejoin="round" stroke-miterlimit="1.41421" viewBox="0 0 32 32" xmlns="http://www.w3.org/2000/svg" xmlns:xlink="http://www.w3.org/1999/xlink"><clipPath id="a"><path clip-rule="evenodd" d="m0 0h32v32h-32z"/></clipPath><metadata/><path d="m0 0h32v32h-32z" fill="none"/><g clip-path="url(#a)"><path d="m0 0h32v32h-32z"/><path d="m30 2h-28v22l1 .5-1 .5v5h28v-5l-1-.5 1-.5z" fill="#4d4d4d"/><path d="m2 24h28v1h-28z" fill="#333"/><g fill="#808080"><path d="m4 26h2v1h-2z"/><path d="m4 28h2v1h-2z"/><path d="m7 26h2v1h-2z"/><path d="m7 28h2v1h-2z"/><path d="m10 26h2v1h-2z"/><path d="m10 28h2v1h-2z"/></g><path d="m25 26h3v3h-3z" fill="#219555"/><circle cx="14.5" cy="27.5" fill="#333" r="1.5"/><circle cx="18.5" cy="27.5" fill="#333" r="1.5"/><circle cx="22.5" cy="27.5" fill="#333" r="1.5"/><path d="m28 6c0-.53-.211-1.039-.586-1.414s-.884-.586-1.414-.586c-4.52 0-15.48 0-20 0-.53 0-1.039.211-1.414.586s-.586.884-.586 1.414v14c0 .53.211 1.039.586 1.414s.884.586 1.414.586h20c.53 0 1.039-.211 1.414-.586s.586-.884.586-1.414c0-3.463 0-10.537 0-14z"/><path d="m6 7h6v1h-6z" fill="#0f0"/><path d="m13 7h3v1h-3z" fill="#0f0"/><path d="m17 7h2v1h-2z" fill="#0f0"/></g></svg>