<svg clip-rule="evenodd" fill-rule="evenodd" stroke-linejoin="round" stroke-miterlimit="1.41421" viewBox="0 0 32 32" xmlns="http://www.w3.org/2000/svg" xmlns:xlink="http://www.w3.org/1999/xlink"><clipPath id="a"><path clip-rule="evenodd" d="m0 0h32v32h-32z"/></clipPath><metadata/><path d="m0 0h32v32h-32z" fill="none"/><g clip-path="url(#a)"><path d="m0 0h32v32h-32z"/><path d="m30 2h-28v22l1 .5-1 .5v5h28v-5l-1-.5 1-.5z" fill="#4d4d4d"/><path d="m2 24h28v1h-28z" fill="#333"/><g fill="#808080"><path d="m4 26h2v1h-2z"/><path d="m4 28h2v1h-2z"/><path d="m7 26h2v1h-2z"/><path d="m7 28h2v1h-2z"/><path d="m10 26h2v1h-2z"/><path d="m10 28h2v1h-2z"/></g><circle cx="14.5" cy="27.5" fill="#333" r="1.5"/><circle cx="18.5" cy="27.5" fill="#333" r="1.5"/><circle cx="22.5" cy="27.5" fill="#333" r="1.5"/><path d="m25 26h3v3h-3z" fill="#219555"/><path d="m21 22-1-.176s-.599.084-1 .176h-2l-1-.323-1 .323h-5l-1-.233-1 .233h-1c-.469-.326-1-.444-1-.444s-.484-.003-.968.194c-.163-.09-.313-.202-.446-.336-.134-.133-.246-.283-.336-.446.014-.771-.015-1.464-.015-1.464s-.083-1.017-.235-1.504v-6c.189-.767.361-2.416.361-2.416s-.198-1.996-.361-2.584v-1c0-.53.211-1.039.586-1.414s.884-.586 1.414-.586h3l1 1 1-1h13c0 .871.735 1 1 1s1-.129 1-1c.531 0 1.039.211 1.414.586s.586.883.586 1.414c-.408.752-1 3-1 3l1 2v9c0 .201-.03.399-.088.588-.486.253-.912.412-.912.412l-1 1h-3c-.437-.107-1-.306-1-.306z" fill="#e6e6e6"/><path d="m21 22c0-.552.448-1 1-1 0-.871 0-2.129 0-3 0-.265.105-.52.293-.707.187-.188.442-.293.707-.293 0-.552.448-1 1-1s1 .448 1 1v1c0 .552-.448 1-1 1v2c0 .265-.105.52-.293.707-.187.188-.442.293-.707.293zm-2 0c-.552 0-1-.448-1-1 0-.322 0-.678 0-1 0-.552.448-1 1-1s1 .448 1 1c.265 0 .52.105.707.293.188.187.293.442.293.707v1zm-4 0v-2c0-.265.105-.52.293-.707.187-.188.442-.293.707-.293s.52.105.707.293c.188.187.293.442.293.707v2zm-4 0c-.265 0-.52-.105-.707-.293-.188-.187-.293-.442-.293-.707v-2c-.552 0-1-.448-1-1 0-.322 0-.678 0-1 0-.552.448-1 1-1s1 .448 1 1v-1c0-.552.448-1 1-1s1 .448 1 1v1c0 .552-.448 1-1 1v3c0 .265-.105.52-.293.707-.187.188-.442.293-.707.293zm-3 0v-1c0-.265.105-.52.293-.707.187-.188.442-.293.707-.293s.52.105.707.293c.188.187.293.442.293.707v1zm-2.968-.25c.111-.431.502-.75.968-.75.552 0 1 .448 1 1h-1c-.342 0-.675-.087-.968-.25zm20.968.25v-1c0-.552.448-1 1-1 .405 0 .755.241.912.588-.096.309-.265.593-.498.826-.375.375-.883.586-1.414.586zm-22-4c.552 0 1 .448 1 1v1c0 .466-.319.857-.75.968-.163-.293-.25-.626-.25-.968zm12-1c0-.552-.448-1-1-1s-1 .448-1 1v1c0 .552.448 1 1 1s1-.448 1-1c0-.322 0-.678 0-1zm-6.974-9c.54.014.974.456.974 1v1c.265 0 .52.105.707.293.188.187.293.442.293.707v-1c0-.552.448-1 1-1s1 .448 1 1v1c0 .552-.448 1-1 1s-1-.448-1-1v3c0 .265-.105.52-.293.707-.187.188-.442.293-.707.293s-.52-.105-.707-.293c-.188-.187-.293-.442-.293-.707v-1.001.001c0 .265-.105.52-.293.707-.187.188-.442.293-.707.293v4c0 .265-.105.52-.293.707-.187.188-.442.293-.707.293s-.52-.105-.707-.293c-.188-.187-.293-.442-.293-.707v-1c-.552 0-1-.448-1-1 0-.322 0-.678 0-1 0-.552.448-1 1-1 0-.265.105-.52.293-.707.187-.188.442-.293.707-.293 0-.871 0-2.129 0-3 0-.265.105-.52.293-.707.187-.188.442-.293.707-.293 0-.552.448-1 1-1zm10.974 8v-1c0-.265.105-.52.293-.707.187-.188.442-.293.707-.293s.52.105.707.293c.188.187.293.442.293.707v3c0 .265-.105.52-.293.707-.187.188-.442.293-.707.293s-.52-.105-.707-.293c-.188-.187-.293-.442-.293-.707v-1c0 .552-.448 1-1 1s-1-.448-1-1c0-.322 0-.678 0-1 0-.552.448-1 1-1s1 .448 1 1zm8-10v6c0 .265-.105.52-.293.707-.187.188-.442.293-.707.293v3c0 .265-.105.52-.293.707-.187.188-.442.293-.707.293s-.52-.105-.707-.293c-.188-.187-.293-.442-.293-.707 0-1.11 0-2.89 0-4-.552 0-1-.448-1-1 0-.322 0-.678 0-1 0-.552.448-1 1-1s1 .448 1 1v-2c0-.265.105-.52.293-.707.187-.188.442-.293.707-.293 0-.265.105-.52.293-.707.187-.188.442-.293.707-.293zm-9 6v1c0 .265-.105.52-.293.707-.187.188-.442.293-.707.293v1c0 .552-.448 1-1 1s-1-.448-1-1c0-.322 0-.678 0-1 0-.552.448-1 1-1 0-.871 0-2.129 0-3 0-.265.105-.52.293-.707.187-.188.442-.293.707-.293s.52.105.707.293c.188.187.293.442.293.707v1c0-.552.448-1 1-1s1 .448 1 1v1c0 .552-.448 1-1 1s-1-.448-1-1zm-2-8c.265 0 .52.105.707.293.188.187.293.442.293.707v3c0 .265-.105.52-.293.707-.187.188-.442.293-.707.293s-.52-.105-.707-.293c-.188-.187-.293-.442-.293-.707v3c0 .265-.105.52-.293.707-.187.188-.442.293-.707.293v3c0 .265-.105.52-.293.707-.187.188-.442.293-.707.293s-.52-.105-.707-.293c-.188-.187-.293-.442-.293-.707 0-1.11 0-2.89 0-4 0-.265.105-.52.293-.707.187-.188.442-.293.707-.293v-3c0-.265.105-.52.293-.707.187-.188.442-.293.707-.293s.52.105.707.293c.188.187.293.442.293.707v-2c0-.265.105-.52.293-.707.187-.188.442-.293.707-.293zm7 9c0-.552-.448-1-1-1s-1 .448-1 1v1c0 .552.448 1 1 1s1-.448 1-1c0-.322 0-.678 0-1zm-20-6c.265 0 .52.105.707.293.188.187.293.442.293.707v3c0 .265-.105.52-.293.707-.187.188-.442.293-.707.293zm18-3c.265 0 .52.105.707.293.188.187.293.442.293.707v4c0 .265-.105.52-.293.707-.187.188-.442.293-.707.293s-.52-.105-.707-.293c-.188-.187-.293-.442-.293-.707v-1c0 .552-.448 1-1 1s-1-.448-1-1c0-.322 0-.678 0-1 0-.552.448-1 1-1s1 .448 1 1v-2c0-.265.105-.52.293-.707.187-.188.442-.293.707-.293zm4 0v3c0 .265-.105.52-.293.707-.187.188-.442.293-.707.293s-.52-.105-.707-.293c-.188-.187-.293-.442-.293-.707 0-.871 0-2.129 0-3zm-17 0h2v3c0 .265-.105.52-.293.707-.187.188-.442.293-.707.293s-.52-.105-.707-.293c-.188-.187-.293-.442-.293-.707 0-.871 0-2.129 0-3zm-2 0c.552 0 1 .448 1 1v1c0 .552-.448 1-1 1s-1-.448-1-1c0-.322 0-.678 0-1 0-.552.448-1 1-1z" fill="#808080"/></g></svg>