<svg clip-rule="evenodd" fill-rule="evenodd" stroke-linejoin="round" stroke-miterlimit="1.41421" viewBox="0 0 32 32" xmlns="http://www.w3.org/2000/svg" xmlns:xlink="http://www.w3.org/1999/xlink"><clipPath id="a"><path clip-rule="evenodd" d="m0 0h32v32h-32z"/></clipPath><metadata/><path d="m0 0h32v32h-32z" fill="none"/><g clip-path="url(#a)"><path d="m0 0h32v32h-32z"/><path d="m30 2h-28v22l1 .5-1 .5v5h28v-5l-1-.5 1-.5z" fill="#4d4d4d"/><path d="m2 24h28v1h-28z" fill="#333"/><g fill="#808080"><path d="m4 26h2v1h-2z"/><path d="m4 28h2v1h-2z"/><path d="m7 26h2v1h-2z"/><path d="m7 28h2v1h-2z"/><path d="m10 26h2v1h-2z"/><path d="m10 28h2v1h-2z"/></g><path d="m25 26h3v3h-3z" fill="#219555"/><circle cx="14.5" cy="27.5" fill="#333" r="1.5"/><circle cx="18.5" cy="27.5" fill="#333" r="1.5"/><circle cx="22.5" cy="27.5" fill="#333" r="1.5"/><path d="m24 4 1 .501 1-.501h.002c1.103 0 1.998.895 1.998 1.998v2.002l-.157.23.037 8.55.12.205v3.015c0 1.105-.895 2-2 2-2.37 0-6 0-6 0l-1-.239-1 .239h-6l-1-.211-1 .211h-4l-1.664-2 .014-6.683-.35-.317v-7c0-.53.211-1.039.586-1.414.124-.125.264-.231.414-.318l1 .304 1-.572h5l1 .376 1-.376h2l1 .535 1-.535z"/><path d="m6 4h1v4h-2v-3.732c.301-.174.646-.268 1-.268z" fill="#060"/><path d="m8 7h2v7h-2z" fill="#060"/><path d="m8 13h2v3h-2z" fill="#0f0"/><path d="m10 14h2v7h-2z" fill="#060"/><path d="m10 20h2v2h-2z" fill="#0f0"/><path d="m12 4h2v5h-2z" fill="#060"/><path d="m12 8h2v3h-2z" fill="#0f0"/><path d="m18 15h2v7h-2z" fill="#060"/><path d="m18 21h2v1h-2z" fill="#0f0"/><path d="m16 4h2v2h-2z" fill="#060"/><path d="m16 5h2v3h-2z" fill="#0f0"/><path d="m22 12h2v7h-2z" fill="#060"/><path d="m22 18h2v3h-2z" fill="#0f0"/><path d="m5 7h2v3h-2z" fill="#0f0"/><path d="m24 4h2v5h-2z" fill="#060"/><path d="m24 8h2v3h-2z" fill="#0f0"/><path d="m15 11h2v7h-2z" fill="#060"/><path d="m15 17h2v3h-2z" fill="#0f0"/><path d="m27 8h1v7h-1z" fill="#060"/><path d="m27 14h1v3h-1z" fill="#0f0"/><path d="m4 13h2v7h-2z" fill="#060"/><path d="m6 19h-2v1c0 1.105.895 2 2 2z" fill="#0f0"/><path d="m20 5h2v7h-2z" fill="#060"/><path d="m20 11h2v3h-2z" fill="#0f0"/></g></svg>