<svg clip-rule="evenodd" fill-rule="evenodd" stroke-linecap="round" stroke-linejoin="round" stroke-miterlimit="1.5" viewBox="0 0 32 32" xmlns="http://www.w3.org/2000/svg" xmlns:xlink="http://www.w3.org/1999/xlink"><clipPath id="a"><path clip-rule="evenodd" d="m0 0h32v32h-32z"/></clipPath><metadata/><path d="m0 0h32v32h-32z" fill="none"/><g clip-path="url(#a)"><path d="m16 2c8.837 0 16 7.163 16 16v1c0 .894-.091 1.768-.264 2.611.229 1.613-.298 3.279-1.494 4.476-.001 0-.001.001-.001.001-.246.245-.513.464-.798.654-2.367 3.191-6.164 5.258-10.443 5.258-1.972 0-4.028 0-6 0-7.18 0-13-5.82-13-13 0-.332 0-.665 0-1 0-8.837 7.163-16 16-16z"/><path d="m25.885 27.579c-1.885 1.515-4.279 2.421-6.885 2.421-1.972 0-4.028 0-6 0-6.075 0-11-4.925-11-11 0-.332 0-.665 0-1 0-7.732 6.268-14 14-14 7.732 0 14 6.268 14 14v1c0 1.303-.227 2.554-.643 3.714 0 0-4.116 4.743-3.472 4.865z" fill="#fbc546"/><path d="m29.357 22.714c-.691 1.928-1.906 3.607-3.472 4.865-.644-.122-1.241-.435-1.711-.905-.001-.001-.001-.001-.001-.001-.999-.999-1.247-2.525-.615-3.789 1.185-2.37 2.942-5.884 2.942-5.884z" fill="#e59a10"/><path d="m10.887 9.207.788-.45c.105.083.205.172.3.268.656.656 1.025 1.545 1.025 2.473v2.002c0 1.933-1.567 3.5-3.5 3.5h-.002c-.928 0-1.817-.369-2.473-1.025s-1.025-1.545-1.025-2.473v-1.502l2.005-1.146c.564.134 2.884-.997 2.882-1.647z" fill="#fff"/><path d="m10.887 9.207c.193.096.372.223.527.379.375.375.586.884.586 1.414v2.983c0 .531-.211 1.039-.586 1.415-.375.375-.884.585-1.414.585s-1.039-.21-1.414-.585c-.375-.376-.586-.884-.586-1.415 0-.935 0-2.047 0-2.983 0-.049.002-.098.005-.146z"/><path d="m21.113 9.207-.788-.45c-.105.083-.205.172-.3.268-.656.656-1.025 1.545-1.025 2.473v2.002c0 1.933 1.567 3.5 3.5 3.5h.002c.928 0 1.817-.369 2.473-1.025s1.025-1.545 1.025-2.473v-1.502l-2.005-1.146c-.564.134-2.884-.997-2.882-1.647z" fill="#fff"/><path d="m21.113 9.207c-.193.096-.372.223-.527.379-.375.375-.586.884-.586 1.414v2.983c0 .531.211 1.039.586 1.415.375.375.884.585 1.414.585s1.039-.21 1.414-.585c.375-.376.586-.884.586-1.415 0-.935 0-2.047 0-2.983 0-.049-.002-.098-.005-.146z"/><path d="m9 22s.921-.921 1.879-1.879c1.358-1.358 3.2-2.121 5.121-2.121 1.921 0 3.763.763 5.121 2.121.958.958 1.879 1.879 1.879 1.879" fill="none" stroke="#593604" stroke-width="2"/><path d="m26.5 15s-1.757 3.514-2.942 5.884c-.632 1.264-.384 2.79.615 3.789 0 0 0 0 .001.001.617.617 1.453.963 2.326.963s1.709-.346 2.326-.963c.001-.001.001-.001.001-.001.999-.999 1.247-2.525.615-3.789-1.185-2.37-2.942-5.884-2.942-5.884z" fill="#41b4de"/></g></svg>