<svg clip-rule="evenodd" fill-rule="evenodd" stroke-linejoin="round" stroke-miterlimit="1.41421" viewBox="0 0 32 32" xmlns="http://www.w3.org/2000/svg" xmlns:xlink="http://www.w3.org/1999/xlink"><clipPath id="a"><path clip-rule="evenodd" d="m0 0h32v32h-32z"/></clipPath><metadata/><path d="m0 0h32v32h-32z" fill="none"/><g clip-path="url(#a)"><path d="m6.002 24.999-.005-.005c-1.263-1.204-2.307-2.636-3.065-4.208-.648-1.343-1.085-2.785-1.291-4.261-.213-1.521-.185-3.077.086-4.588.24-1.346.674-2.657 1.282-3.881.725-1.458 1.698-2.792 2.863-3.93 1.167-1.138 2.524-2.08 4.001-2.77 1.242-.58 2.567-.982 3.922-1.189.669-.102 1.342-.153 2.018-.166.187-.001.187-.001.374 0 .676.013 1.349.064 2.018.166 1.355.207 2.68.609 3.922 1.189 1.477.69 2.834 1.632 4.001 2.77 1.165 1.138 2.138 2.472 2.863 3.93.608 1.224 1.042 2.535 1.282 3.881.271 1.511.299 3.067.086 4.588-.206 1.476-.643 2.918-1.291 4.261-.758 1.572-1.802 3.004-3.065 4.208l-.005.005c.835.628 1.466 1.514 1.777 2.515.149.478.219.973.225 1.473v3.013h-24v-3.013c.002-.166.009-.331.026-.496.037-.372.117-.74.237-1.094.323-.955.939-1.795 1.739-2.398z"/><circle cx="16" cy="14.5" fill="#a83eff" r="12.5"/><path d="m8.036 21.34c.329-3.003 2.873-5.34 5.964-5.34h4c3.091 0 5.635 2.337 5.964 5.34-1.926 2.24-4.781 3.66-7.964 3.66s-6.038-1.42-7.964-3.66zm.18-13.883c1.921-2.123 4.698-3.457 7.784-3.457s5.863 1.334 7.784 3.457c-.623 2.051-2.529 3.543-4.784 3.543-1.911 0-4.089 0-6 0-2.255 0-4.161-1.492-4.784-3.543z" fill="#5d0d9e"/><path d="m18.097 4.501.096.001.096.003.096.005.095.005.095.007.095.008.095.009.094.01.094.011.094.013.093.013.093.015.093.016.092.017.092.018.091.02.091.02.091.022.09.022.09.024.089.025.089.025.089.027.088.028.087.029.087.03.087.032.086.032.085.033.085.034.085.035.084.036.083.037.083.038.082.039.082.04.081.041.081.042.08.043.079.044.079.045.078.045.078.047.077.047.077.048.075.05.075.05.075.051.074.052.073.052.072.054.072.054.071.055.071.056.069.057.069.058.069.058.067.06.067.06.066.061.066.061.064.063.064.063.063.064.063.064.061.066.061.066.06.067.06.067.058.069.058.069.057.069.056.071.055.071.054.072.054.072.053.073.051.074.051.075.05.075.05.075.048.077.047.077.047.078.045.078.045.079.044.079.043.08.042.081.041.081.04.082.039.082.038.083.037.083.036.084.035.085.034.085.033.085.032.086.032.087.03.087.029.087.028.088.027.089.025.089.025.089.024.09.022.09.022.091.02.091.02.091.018.092.017.092.016.093.015.093.013.093.013.094.011.094.01.094.009.095.008.095.007.095.005.095.005.096.003.096.001.096.001.097-.001.06-.004.059-.006.06-.008.059-.011.058-.012.059-.016.057-.017.057-.02.056-.022.056-.024.054-.027.054-.028.052-.031.052-.032.05-.035.048-.036.048-.038.045-.04.045-.042.042-.043.041-.045.039-.047.038-.048.035-.049.033-.051.032-.052.029-.053.028-.054.025-.055.023-.056.021-.056.019-.058.016-.058.014-.058.012-.059.009-.059.008-.06.004-.059.003h-.06l-.059-.003-.06-.004-.059-.008-.059-.009-.058-.012-.058-.014-.058-.016-.056-.019-.056-.021-.055-.023-.054-.025-.053-.028-.052-.029-.051-.032-.049-.033-.048-.035-.047-.038-.045-.039-.043-.041-.042-.042-.04-.045-.038-.045-.036-.048-.035-.048-.032-.05-.031-.052-.028-.052-.027-.054-.024-.054-.022-.056-.02-.056-.017-.057-.016-.057-.012-.059-.011-.058-.008-.059-.006-.06-.004-.059-.001-.06v.005-.064l-.002-.058-.001-.058-.003-.058-.003-.057-.004-.058-.005-.057-.005-.057-.006-.057-.007-.056-.008-.056-.008-.056-.009-.056-.009-.055-.011-.056-.01-.055-.012-.054-.012-.055-.013-.054-.014-.054-.014-.053-.015-.054-.015-.053-.016-.053-.017-.052-.017-.053-.018-.052-.019-.051-.019-.052-.02-.051-.02-.051-.021-.05-.022-.05-.022-.05-.023-.05-.023-.049-.024-.049-.024-.049-.026-.048-.025-.048-.027-.048-.026-.047-.028-.047-.028-.046-.028-.047-.029-.045-.03-.046-.03-.045-.03-.045-.031-.044-.032-.044-.032-.044-.033-.043-.033-.043-.034-.042-.034-.042-.035-.041-.035-.041-.036-.041-.036-.04-.036-.04-.037-.04-.038-.038-.038-.039-.039-.038-.039-.038-.039-.037-.04-.036-.04-.036-.041-.036-.041-.035-.041-.035-.042-.034-.042-.034-.043-.033-.043-.033-.044-.032-.044-.032-.044-.031-.045-.03-.045-.03-.046-.03-.046-.029-.046-.028-.046-.028-.047-.028-.047-.026-.048-.027-.048-.025-.048-.025-.049-.025-.049-.024-.049-.023-.05-.023-.05-.022-.05-.022-.05-.021-.051-.02-.051-.02-.052-.019-.051-.019-.052-.018-.053-.017-.052-.017-.053-.016-.053-.015-.054-.015-.053-.014-.054-.014-.054-.013-.055-.012-.055-.012-.054-.01-.056-.011-.055-.009-.056-.009-.056-.008-.056-.008-.056-.007-.057-.006-.057-.005-.057-.005-.058-.004-.057-.003-.058-.003-.058-.001-.058-.002h-.064.005l-.06-.001-.059-.004-.06-.006-.059-.008-.058-.011-.059-.012-.057-.016-.057-.017-.056-.02-.056-.022-.054-.024-.054-.027-.052-.028-.052-.031-.05-.032-.048-.035-.048-.036-.045-.038-.045-.04-.042-.042-.041-.043-.039-.045-.038-.047-.035-.048-.033-.049-.032-.051-.029-.052-.028-.053-.025-.054-.023-.055-.021-.056-.019-.056-.016-.058-.014-.058-.012-.058-.009-.059-.008-.059-.004-.06-.003-.059v-.06l.003-.059.004-.06.008-.059.009-.059.012-.058.014-.058.016-.058.019-.056.021-.056.023-.055.025-.054.028-.053.029-.052.032-.051.033-.049.035-.048.038-.047.039-.045.041-.043.042-.042.045-.04.045-.038.048-.036.048-.035.05-.032.052-.031.052-.028.054-.027.054-.024.056-.022.056-.02.057-.017.057-.016.059-.012.058-.011.059-.008.06-.006.059-.004.06-.001.097.001z" fill="#e0baff"/><path d="m25.829 28c.111.313.171.649.171 1v1h-20s0-.426 0-1c0-.351.06-.687.171-1l9.829-1zm-2.829-3v2h-14v-2z" fill="#737373"/><path d="m23 26c1.306 0 2.417.835 2.829 2h-19.658c.412-1.165 1.523-2 2.829-2z" fill="#585858"/></g></svg>