<svg clip-rule="evenodd" fill-rule="evenodd" stroke-linejoin="round" stroke-miterlimit="1.5" viewBox="0 0 32 32" xmlns="http://www.w3.org/2000/svg" xmlns:xlink="http://www.w3.org/1999/xlink"><clipPath id="a"><path clip-rule="evenodd" d="m0 0h32v32h-32z"/></clipPath><metadata/><path d="m0 0h32v32h-32z" fill="none"/><g clip-path="url(#a)"><path d="m6 30c-1.657 0-3-1.343-3-3 0-7.225 0-25 0-25h21v23h3v2c0 1.657-1.343 3-3 3z" fill="none" stroke="#000" stroke-width="4"/><path d="m3 27v-25h21v23l-2.8 3h-17.2z" fill="#fff"/><path d="m19.2 27-5.908 2.462c-.853.355-1.768.538-2.692.538-1.773 0-4.6 0-4.6 0-1.657 0-3-1.343-3-3z" fill="#ddd"/><path d="m22 20v2h-17v-2zm0-3v2h-17v-2zm0-3v2h-17v-2zm0-3v2h-17v-2zm0-3v2h-17v-2zm0-3v2h-17v-2z" fill="#b2b2b2"/><path d="m6 30h18c1.657 0 3-1.343 3-3 0-1.063 0-2 0-2h-18v2c0 1.657-1.343 3-3 3z" fill="#999"/></g></svg>