<svg clip-rule="evenodd" fill-rule="evenodd" stroke-linejoin="round" stroke-miterlimit="1.5" viewBox="0 0 32 32" xmlns="http://www.w3.org/2000/svg" xmlns:xlink="http://www.w3.org/1999/xlink"><clipPath id="a"><path clip-rule="evenodd" d="m0 0h32v32h-32z"/></clipPath><metadata/><path d="m0 0h32v32h-32z" fill="none"/><g clip-path="url(#a)"><path d="m8 7h18v18h-18z"/><path d="m4.454 17.925c-.839-.238-1.454-1.01-1.454-1.925 0-3.074 0-8.926 0-12 0-1.105.895-2 2-2h8c1.105 0 2 .895 2 2v12c0 1.105-.895 2-2 2h-1.379l1.44 1.439v2l-2.122 2.122-.87-.871c.201.361.452.695.749.992.844.844 1.989 1.318 3.182 1.318h2v5s.187 0-2 0c-4.142 0-7.5-3.358-7.5-7.5v-.379l-1.439 1.44-2.122-2.122v-2zm15.925-3.925-1.44-1.439v-2l2.122-2.122.87.871c-.201-.361-.452-.695-.749-.992-.844-.844-1.989-1.318-3.182-1.318-2.038 0-2 0-2 0v-5h2c4.142 0 7.5 3.358 7.5 7.5v.379l1.439-1.44 2.122 2.122v2l-1.515 1.514c.839.238 1.454 1.01 1.454 1.925v12c0 1.105-.895 2-2 2-2.22 0-5.78 0-8 0-1.105 0-2-.895-2-2 0-3.074 0-8.926 0-12 0-1.105.895-2 2-2z" fill="none" stroke="#000" stroke-width="4"/><path d="m15 4c0-1.105-.895-2-2-2-2.22 0-5.78 0-8 0-1.105 0-2 .895-2 2v12c0 1.105.895 2 2 2h8c1.105 0 2-.895 2-2 0-3.074 0-8.926 0-12z" fill="#666"/><path d="m29 16c0-1.105-.895-2-2-2-2.22 0-5.78 0-8 0-1.105 0-2 .895-2 2v12c0 1.105.895 2 2 2h8c1.105 0 2-.895 2-2 0-3.074 0-8.926 0-12z" fill="#666"/><path d="m8 5v-2h2v2h3v2h-6c-.265 0-.52.105-.707.293-.188.187-.293.442-.293.707 0 .552.448 1 1 1h4c1.657 0 3 1.343 3 3 0 .796-.316 1.559-.879 2.121-.562.563-1.325.879-2.121.879h-1v2h-2v-2h-3v-2h6c.265 0 .52-.105.707-.293.188-.187.293-.442.293-.707 0-.552-.448-1-1-1-1 0-2.589 0-4 0-1.657 0-3-1.343-3-3 0-.796.316-1.559.879-2.121.562-.563 1.325-.879 2.121-.879z" fill="#fff"/><path d="m6.5 22.121-1.439 1.44-2.122-2.122v-2l5.061-3.06 5.061 3.06v2l-2.122 2.122-1.439-1.44v.379c0 2.485 2.015 4.5 4.5 4.5h2v3h-2c-4.142 0-7.5-3.358-7.5-7.5z" fill="#2b6d11"/><path d="m6.5 20.121-1.439 1.44-2.122-2.122 5.061-5.06 5.061 5.06-2.122 2.122-1.439-1.44v.379c0 2.485 2.015 4.5 4.5 4.5h2v3h-2c-4.142 0-7.5-3.358-7.5-7.5z" fill="#4cbf1e"/><path d="m22.5 12.543v-1.043c0-2.485-2.015-4.5-4.5-4.5-1.116 0-2 0-2 0v-3h2c4.142 0 7.5 3.358 7.5 7.5v1.043l3.561-1.982v2l-5.061 5.06-5.061-5.06v-2z" fill="#2b6d11"/><path d="m22.5 9.879v-.379c0-2.485-2.015-4.5-4.5-4.5-1.116 0-2 0-2 0v-3h2c4.142 0 7.5 3.358 7.5 7.5v.379l1.439-1.44 2.122 2.122-5.061 5.06-5.061-5.06 2.122-2.122z" fill="#4cbf1e"/><path d="m21.586 21-3.293-3.293 1.414-1.414 3.293 3.293 3.293-3.293 1.414 1.414-3.293 3.293h2.586v2h-3v1h3v2h-3v2h-2v-2h-3v-2h3v-1h-3v-2z" fill="#fff"/></g></svg>