<svg clip-rule="evenodd" fill-rule="evenodd" stroke-linecap="round" stroke-linejoin="round" stroke-miterlimit="1.5" viewBox="0 0 32 32" xmlns="http://www.w3.org/2000/svg" xmlns:xlink="http://www.w3.org/1999/xlink"><clipPath id="a"><path clip-rule="evenodd" d="m0 0h32v32h-32z"/></clipPath><clipPath id="b"><path clip-rule="evenodd" d="m2 15c0-2.76 6.273-5 14-5s14 2.24 14 5c0 6.627-6.268 12-14 12s-14-5.373-14-12z"/></clipPath><clipPath id="c"><path clip-rule="evenodd" d="m32 29h-32v-15l3 1h26l3-1z"/></clipPath><clipPath id="d"><path clip-rule="evenodd" d="m2 15v-12h28v12c0 2.76-6.273 5-14 5s-14-2.24-14-5z"/></clipPath><clipPath id="e"><path clip-rule="evenodd" d="m3 15s.593-.989 1.252-2.087c1.085-1.807 3.038-2.913 5.145-2.913h1.118c1.591 0 3.117.632 4.242 1.757l2.395 2.395c1.824 1.824 4.297 2.848 6.876 2.848h4.972v3h-26z"/></clipPath><clipPath id="f"><path clip-rule="evenodd" d="m0 15h31v9h-31z"/></clipPath><metadata/><path d="m0 0h32v32h-32z" fill="none"/><g clip-path="url(#a)"><g fill="none" stroke="#000" stroke-width="4"><path d="m2 15c0-2.76 6.273-5 14-5s14 2.24 14 5c0 6.627-6.268 12-14 12s-14-5.373-14-12z"/><path d="m13 13h1.743c.805 0 1.577-.32 2.146-.889.4-.4.886-.886 1.354-1.354 1.125-1.125 2.651-1.757 4.242-1.757h.515c3.314 0 6 2.686 6 6v4h-16z"/><path d="m3 15s.593-.989 1.252-2.087c1.085-1.807 3.038-2.913 5.145-2.913h1.118c1.591 0 3.117.632 4.242 1.757 1.37 1.37 3.217 3.217 4.314 4.314.595.595 1.402.929 2.243.929h7.686-26v-2z"/></g><path d="m2 15c0-2.76 6.273-5 14-5s14 2.24 14 5c0 6.627-6.268 12-14 12s-14-5.373-14-12z" fill="#d9d9d9"/><g clip-path="url(#b)"><path d="m1 15h30v13h-30z" fill="#b9b9b9"/><path d="m32 29h-32v-15l3 1h26l3-1z" fill="none"/><g clip-path="url(#c)"><ellipse cx="16" cy="15" fill="none" rx="14" ry="5" stroke="#939393" stroke-width="4"/><path d="m16.181 10 .18.002.18.002.179.003.179.003.178.005.177.005.177.006.176.007.175.007.175.009.174.009.173.01.173.01.172.012.171.012.17.013.17.013.169.014.168.016.167.015.167.017.165.017.165.018.164.019.163.019.162.02.162.021.16.021.159.022.159.023.157.023.157.024.155.025.155.025.153.026.153.027.151.027.151.028.149.029.148.029.147.03.146.03.145.031.144.032.143.032.141.033.14.033.139.034.138.035.137.035.135.036.134.036.133.037.132.037.13.038.129.039.128.039.126.039.125.041.124.04.122.041.121.042.12.042.118.043.116.043.115.044.114.044.113.044.11.046.11.045.107.046.107.047.104.047.104.047.101.048.1.049.099.048.096.05.096.049.093.05.092.051.09.051.089.051.087.052.085.052.084.053.081.053.08.053.078.054.077.054.075.054.072.055.071.055.07.056.067.056.066.056.063.056.062.057.06.058.058.057.056.058.054.058.052.059.05.059.049.059.046.059.044.06.042.06.04.06.038.061.036.061.034.061.032.061.03.062.028.062.025.062.023.063.022.062.019.063.017.063.014.064.013.063.01.064.008.064.005.064.004.064.001.065-.001.065-.004.064-.005.064-.008.064-.01.064-.013.063-.014.064-.017.063-.019.063-.022.062-.023.063-.025.062-.028.062-.03.062-.032.061-.034.061-.036.061-.038.061-.04.06-.042.06-.044.06-.046.059-.049.059-.05.059-.052.059-.054.058-.056.058-.058.057-.06.058-.062.057-.063.056-.066.056-.067.056-.07.056-.071.055-.072.055-.075.054-.077.054-.078.054-.08.053-.081.053-.084.053-.085.052-.087.052-.089.051-.09.051-.092.051-.093.05-.096.049-.096.05-.099.048-.1.049-.101.048-.104.047-.104.047-.107.047-.107.046-.11.045-.11.046-.113.044-.114.044-.115.044-.116.043-.118.043-.12.042-.121.042-.122.041-.124.04-.125.041-.126.039-.128.039-.129.039-.13.038-.132.037-.133.037-.134.036-.135.036-.137.035-.138.035-.139.034-.14.033-.141.033-.143.032-.144.032-.145.031-.146.03-.147.03-.148.029-.149.029-.151.028-.151.027-.153.027-.153.026-.155.025-.155.025-.157.024-.157.023-.159.023-.159.022-.16.021-.162.021-.162.02-.163.019-.164.019-.165.018-.165.017-.167.017-.167.015-.168.016-.169.014-.17.013-.17.013-.171.012-.172.012-.173.01-.173.01-.174.009-.175.009-.175.007-.176.007-.177.006-.177.005-.178.005-.179.003-.179.003-.18.002-.18.002h-.181-.181l-.18-.002-.18-.002-.179-.003-.179-.003-.178-.005-.177-.005-.177-.006-.176-.007-.175-.007-.175-.009-.174-.009-.173-.01-.173-.01-.172-.012-.171-.012-.17-.013-.17-.013-.169-.014-.168-.016-.167-.015-.167-.017-.165-.017-.165-.018-.164-.019-.163-.019-.162-.02-.162-.021-.16-.021-.159-.022-.159-.023-.157-.023-.157-.024-.155-.025-.155-.025-.153-.026-.153-.027-.151-.027-.151-.028-.149-.029-.148-.029-.147-.03-.146-.03-.145-.031-.144-.032-.143-.032-.141-.033-.14-.033-.139-.034-.138-.035-.137-.035-.135-.036-.134-.036-.133-.037-.132-.037-.13-.038-.129-.039-.128-.039-.126-.039-.125-.041-.124-.04-.122-.041-.121-.042-.12-.042-.118-.043-.116-.043-.115-.044-.114-.044-.113-.044-.11-.046-.11-.045-.107-.046-.107-.047-.104-.047-.104-.047-.101-.048-.1-.049-.099-.048-.096-.05-.096-.049-.093-.05-.092-.051-.09-.051-.089-.051-.087-.052-.085-.052-.084-.053-.081-.053-.08-.053-.078-.054-.077-.054-.075-.054-.072-.055-.071-.055-.07-.056-.067-.056-.066-.056-.063-.056-.062-.057-.06-.058-.058-.057-.056-.058-.054-.058-.052-.059-.05-.059-.049-.059-.046-.059-.044-.06-.042-.06-.04-.06-.038-.061-.036-.061-.034-.061-.032-.061-.03-.062-.028-.062-.025-.062-.023-.063-.022-.062-.019-.063-.017-.063-.014-.064-.013-.063-.01-.064-.008-.064-.005-.064-.004-.064-.001-.065.001-.065.004-.064.005-.064.008-.064.01-.064.013-.063.014-.064.017-.063.019-.063.022-.062.023-.063.025-.062.028-.062.03-.062.032-.061.034-.061.036-.061.038-.061.04-.06.042-.06.044-.06.046-.059.049-.059.05-.059.052-.059.054-.058.056-.058.058-.057.06-.058.062-.057.063-.056.066-.056.067-.056.07-.056.071-.055.072-.055.075-.054.077-.054.078-.054.08-.053.081-.053.084-.053.085-.052.087-.052.089-.051.09-.051.092-.051.093-.05.096-.049.096-.05.099-.048.1-.049.101-.048.104-.047.104-.047.107-.047.107-.046.11-.045.11-.046.113-.044.114-.044.115-.044.116-.043.118-.043.12-.042.121-.042.122-.041.124-.04.125-.041.126-.039.128-.039.129-.039.13-.038.132-.037.133-.037.134-.036.135-.036.137-.035.138-.035.139-.034.14-.033.141-.033.143-.032.144-.032.145-.031.146-.03.147-.03.148-.029.149-.029.151-.028.151-.027.153-.027.153-.026.155-.025.155-.025.157-.024.157-.023.159-.023.159-.022.16-.021.162-.021.162-.02.163-.019.164-.019.165-.018.165-.017.167-.017.167-.015.168-.016.169-.014.17-.013.17-.013.171-.012.172-.012.173-.01.173-.01.174-.009.175-.009.175-.007.176-.007.177-.006.177-.005.178-.005.179-.003.179-.003.18-.002.18-.002h.181zm-.344 4-.162.001-.162.002-.161.003-.16.003-.16.004-.159.005-.158.005-.158.006-.157.007-.157.008-.156.008-.155.009-.154.009-.153.01-.153.011-.152.011-.151.013-.15.012-.15.014-.148.014-.148.014-.147.016-.145.015-.145.017-.144.017-.143.018-.142.018-.14.019-.14.019-.139.02-.137.02-.137.021-.135.022-.134.022-.134.022-.131.023-.131.024-.129.024-.129.025-.127.025-.125.025-.124.026-.123.026-.122.027-.12.027-.119.028-.118.028-.116.028-.114.029-.113.029-.112.029-.11.03-.108.03-.107.031-.105.03-.07.021.07.021.105.03.107.031.108.03.11.03.112.029.113.029.114.029.116.028.118.028.119.028.12.027.122.027.123.026.124.026.125.025.127.025.129.025.129.024.131.024.131.023.134.022.134.022.135.022.137.021.137.02.139.02.14.019.14.019.142.018.143.018.144.017.145.017.145.015.147.016.148.014.148.014.15.014.15.012.151.013.152.011.153.011.153.01.154.009.155.009.156.008.157.008.157.007.158.006.158.005.159.005.16.004.16.003.161.003.162.002.162.001h.163.163l.162-.001.162-.002.161-.003.16-.003.16-.004.159-.005.158-.005.158-.006.157-.007.157-.008.156-.008.155-.009.154-.009.153-.01.153-.011.152-.011.151-.013.15-.012.15-.014.148-.014.148-.014.147-.016.145-.015.145-.017.144-.017.143-.018.142-.018.14-.019.14-.019.139-.02.137-.02.137-.021.135-.022.135-.022.133-.022.131-.023.131-.024.13-.024.128-.025.127-.025.125-.025.125-.026.122-.026.122-.027.12-.027.119-.028.118-.028.116-.028.114-.029.113-.029.112-.029.11-.03.108-.03.107-.031.105-.03.07-.021-.07-.021-.105-.03-.107-.031-.108-.03-.11-.03-.112-.029-.113-.029-.114-.029-.116-.028-.118-.028-.119-.028-.12-.027-.122-.027-.122-.026-.125-.026-.125-.025-.127-.025-.128-.025-.13-.024-.131-.024-.131-.023-.133-.022-.135-.022-.135-.022-.137-.021-.137-.02-.139-.02-.14-.019-.14-.019-.142-.018-.143-.018-.144-.017-.145-.017-.145-.015-.147-.016-.148-.014-.148-.014-.15-.014-.15-.012-.151-.013-.152-.011-.153-.011-.153-.01-.154-.009-.155-.009-.156-.008-.157-.008-.157-.007-.158-.006-.158-.005-.159-.005-.16-.004-.16-.003-.161-.003-.162-.002-.162-.001h-.163z" fill="#d9d9d9"/></g></g><path d="m2 15v-12h28v12c0 2.76-6.273 5-14 5s-14-2.24-14-5z" fill="none"/><g clip-path="url(#d)"><path d="m13 13h1.743c.805 0 1.577-.32 2.146-.889.4-.4.886-.886 1.354-1.354 1.125-1.125 2.651-1.757 4.242-1.757h.515c3.314 0 6 2.686 6 6v4h-16z" fill="#fff"/><path d="m3 15s.593-.989 1.252-2.087c1.085-1.807 3.038-2.913 5.145-2.913h1.118c1.591 0 3.117.632 4.242 1.757l2.395 2.395c1.824 1.824 4.297 2.848 6.876 2.848h4.972v3h-26z" fill="#bb662c"/><g clip-path="url(#e)" fill="#9b4d1c"><path d="m8.707 16.707c-.39-.39-.39-1.024 0-1.414.478-.478 1.108-1.108 1.586-1.586.39-.39 1.024-.39 1.414 0l1.586 1.586c.39.39.39 1.024 0 1.414-.478.478-1.108 1.108-1.586 1.586-.39.39-1.024.39-1.414 0-.478-.478-1.108-1.108-1.586-1.586z"/><path d="m18 17.585c0-.155-.062-.304-.171-.414-.11-.109-.259-.171-.414-.171-.758 0-2.072 0-2.83 0-.155 0-.304.062-.414.171-.109.11-.171.259-.171.414v2.415h4z"/><path d="m6 13c.265 0 .52.105.707.293.188.187.293.442.293.707s-.105.52-.293.707c-.187.188-.442.293-.707.293-1.459 0-4 0-4 0v-2z"/><path d="m16 13c-.265 0-.52.105-.707.293-.188.187-.293.442-.293.707s.105.52.293.707c.187.188.442.293.707.293h4v-2z"/><path d="m15 10h-4c-.265 0-.52.105-.707.293-.188.187-.293.442-.293.707s.105.52.293.707c.187.188.442.293.707.293h4z"/></g></g><path d="m0 15h31v9h-31z" fill="none"/><g clip-path="url(#f)"><path d="m16.181 10 .18.002.18.002.179.003.179.003.178.005.177.005.177.006.176.007.175.007.175.009.174.009.173.01.173.01.172.012.171.012.17.013.17.013.169.014.168.016.167.015.167.017.165.017.165.018.164.019.163.019.162.02.162.021.16.021.159.022.159.023.157.023.157.024.155.025.155.025.153.026.153.027.151.027.151.028.149.029.148.029.147.03.146.03.145.031.144.032.143.032.141.033.14.033.139.034.138.035.137.035.135.036.134.036.133.037.132.037.13.038.129.039.128.039.126.039.125.041.124.04.122.041.121.042.12.042.118.043.116.043.115.044.114.044.113.044.11.046.11.045.107.046.107.047.104.047.104.047.101.048.1.049.099.048.096.05.096.049.093.05.092.051.09.051.089.051.087.052.085.052.084.053.081.053.08.053.078.054.077.054.075.054.072.055.071.055.07.056.067.056.066.056.063.056.062.057.06.058.058.057.056.058.054.058.052.059.05.059.049.059.046.059.044.06.042.06.04.06.038.061.036.061.034.061.032.061.03.062.028.062.025.062.023.063.022.062.019.063.017.063.014.064.013.063.01.064.008.064.005.064.004.064.001.065-.001.065-.004.064-.005.064-.008.064-.01.064-.013.063-.014.064-.017.063-.019.063-.022.062-.023.063-.025.062-.028.062-.03.062-.032.061-.034.061-.036.061-.038.061-.04.06-.042.06-.044.06-.046.059-.049.059-.05.059-.052.059-.054.058-.056.058-.058.057-.06.058-.062.057-.063.056-.066.056-.067.056-.07.056-.071.055-.072.055-.075.054-.077.054-.078.054-.08.053-.081.053-.084.053-.085.052-.087.052-.089.051-.09.051-.092.051-.093.05-.096.049-.096.05-.099.048-.1.049-.101.048-.104.047-.104.047-.107.047-.107.046-.11.045-.11.046-.113.044-.114.044-.115.044-.116.043-.118.043-.12.042-.121.042-.122.041-.124.04-.125.041-.126.039-.128.039-.129.039-.13.038-.132.037-.133.037-.134.036-.135.036-.137.035-.138.035-.139.034-.14.033-.141.033-.143.032-.144.032-.145.031-.146.03-.147.03-.148.029-.149.029-.151.028-.151.027-.153.027-.153.026-.155.025-.155.025-.157.024-.157.023-.159.023-.159.022-.16.021-.162.021-.162.02-.163.019-.164.019-.165.018-.165.017-.167.017-.167.015-.168.016-.169.014-.17.013-.17.013-.171.012-.172.012-.173.01-.173.01-.174.009-.175.009-.175.007-.176.007-.177.006-.177.005-.178.005-.179.003-.179.003-.18.002-.18.002h-.181-.181l-.18-.002-.18-.002-.179-.003-.179-.003-.178-.005-.177-.005-.177-.006-.176-.007-.175-.007-.175-.009-.174-.009-.173-.01-.173-.01-.172-.012-.171-.012-.17-.013-.17-.013-.169-.014-.168-.016-.167-.015-.167-.017-.165-.017-.165-.018-.164-.019-.163-.019-.162-.02-.162-.021-.16-.021-.159-.022-.159-.023-.157-.023-.157-.024-.155-.025-.155-.025-.153-.026-.153-.027-.151-.027-.151-.028-.149-.029-.148-.029-.147-.03-.146-.03-.145-.031-.144-.032-.143-.032-.141-.033-.14-.033-.139-.034-.138-.035-.137-.035-.135-.036-.134-.036-.133-.037-.132-.037-.13-.038-.129-.039-.128-.039-.126-.039-.125-.041-.124-.04-.122-.041-.121-.042-.12-.042-.118-.043-.116-.043-.115-.044-.114-.044-.113-.044-.11-.046-.11-.045-.107-.046-.107-.047-.104-.047-.104-.047-.101-.048-.1-.049-.099-.048-.096-.05-.096-.049-.093-.05-.092-.051-.09-.051-.089-.051-.087-.052-.085-.052-.084-.053-.081-.053-.08-.053-.078-.054-.077-.054-.075-.054-.072-.055-.071-.055-.07-.056-.067-.056-.066-.056-.063-.056-.062-.057-.06-.058-.058-.057-.056-.058-.054-.058-.052-.059-.05-.059-.049-.059-.046-.059-.044-.06-.042-.06-.04-.06-.038-.061-.036-.061-.034-.061-.032-.061-.03-.062-.028-.062-.025-.062-.023-.063-.022-.062-.019-.063-.017-.063-.014-.064-.013-.063-.01-.064-.008-.064-.005-.064-.004-.064-.001-.065.001-.065.004-.064.005-.064.008-.064.01-.064.013-.063.014-.064.017-.063.019-.063.022-.062.023-.063.025-.062.028-.062.03-.062.032-.061.034-.061.036-.061.038-.061.04-.06.042-.06.044-.06.046-.059.049-.059.05-.059.052-.059.054-.058.056-.058.058-.057.06-.058.062-.057.063-.056.066-.056.067-.056.07-.056.071-.055.072-.055.075-.054.077-.054.078-.054.08-.053.081-.053.084-.053.085-.052.087-.052.089-.051.09-.051.092-.051.093-.05.096-.049.096-.05.099-.048.1-.049.101-.048.104-.047.104-.047.107-.047.107-.046.11-.045.11-.046.113-.044.114-.044.115-.044.116-.043.118-.043.12-.042.121-.042.122-.041.124-.04.125-.041.126-.039.128-.039.129-.039.13-.038.132-.037.133-.037.134-.036.135-.036.137-.035.138-.035.139-.034.14-.033.141-.033.143-.032.144-.032.145-.031.146-.03.147-.03.148-.029.149-.029.151-.028.151-.027.153-.027.153-.026.155-.025.155-.025.157-.024.157-.023.159-.023.159-.022.16-.021.162-.021.162-.02.163-.019.164-.019.165-.018.165-.017.167-.017.167-.015.168-.016.169-.014.17-.013.17-.013.171-.012.172-.012.173-.01.173-.01.174-.009.175-.009.175-.007.176-.007.177-.006.177-.005.178-.005.179-.003.179-.003.18-.002.18-.002h.181zm-.357 1-.176.002-.175.002-.175.002-.174.004-.173.004-.173.005-.172.006-.172.007-.171.007-.17.008-.169.009-.169.01-.168.01-.167.011-.167.012-.166.013-.165.013-.164.014-.164.014-.162.016-.162.016-.161.016-.16.018-.159.018-.158.019-.157.019-.157.02-.155.021-.155.021-.153.022-.153.023-.151.023-.151.024-.149.025-.149.025-.147.026-.146.026-.145.027-.144.028-.143.028-.142.028-.141.03-.139.03-.138.03-.137.031-.136.031-.135.032-.133.033-.132.033-.131.034-.129.034-.128.035-.127.035-.125.035-.124.037-.123.036-.121.037-.12.038-.118.038-.117.038-.116.039-.114.039-.112.04-.111.04-.109.04-.108.041-.107.042-.104.041-.103.042-.102.042-.099.043-.098.043-.097.043-.094.044-.093.044-.092.044-.089.044-.088.045-.085.044-.084.045-.083.046-.08.045-.078.045-.077.046-.075.046-.072.045-.071.046-.069.046-.067.046-.064.046-.063.046-.061.045-.059.046-.057.046-.054.045-.053.045-.05.045-.049.044-.046.045-.044.044-.042.043-.04.043-.038.043-.036.042-.034.042-.032.041-.03.04-.028.04-.026.039-.024.038-.022.037-.02.037-.019.036-.017.035-.015.035-.014.033-.012.033-.011.032-.01.032-.008.031-.007.03-.006.03-.005.03-.003.029-.003.029-.001.029-.001.029.001.029.001.029.003.029.003.029.005.03.006.03.007.03.008.031.01.032.011.032.012.033.014.033.015.035.017.035.019.036.02.037.022.037.024.038.026.039.028.04.03.04.032.041.034.042.036.042.038.043.04.043.042.043.044.044.046.045.049.044.05.045.053.045.054.045.057.046.059.046.061.045.063.046.064.046.067.046.069.046.071.046.072.045.075.046.077.046.078.045.08.045.083.046.084.045.085.044.088.045.089.044.092.044.093.044.094.044.097.043.098.043.099.043.102.042.103.042.104.041.107.042.108.041.109.04.111.04.112.04.114.039.116.039.117.038.118.038.12.038.121.037.123.036.124.037.125.035.127.035.128.035.129.034.131.034.132.033.133.033.135.032.136.031.137.031.138.03.139.03.141.03.142.028.143.028.144.028.145.027.146.026.147.026.149.025.149.025.151.024.151.023.153.023.153.022.155.021.155.021.157.02.157.019.158.019.159.018.16.018.161.016.162.016.162.016.164.014.164.014.165.013.166.013.167.012.167.011.168.01.169.01.169.009.17.008.171.007.172.007.172.006.173.005.173.004.174.004.175.002.175.002.176.002h.176.176l.176-.002.175-.002.175-.002.174-.004.173-.004.173-.005.172-.006.172-.007.171-.007.17-.008.169-.009.169-.01.168-.01.167-.011.167-.012.166-.013.165-.013.164-.014.164-.014.162-.016.162-.016.161-.016.16-.018.159-.018.158-.019.157-.019.157-.02.155-.021.155-.021.153-.022.153-.023.151-.023.151-.024.149-.025.149-.025.147-.026.146-.026.145-.027.144-.028.143-.028.142-.028.141-.03.139-.03.138-.03.137-.031.136-.031.135-.032.133-.033.132-.033.131-.034.129-.034.128-.035.127-.035.125-.035.124-.037.123-.036.121-.037.12-.038.118-.038.117-.038.116-.039.114-.039.112-.04.111-.04.109-.04.108-.041.107-.042.104-.041.103-.042.102-.042.099-.043.098-.043.097-.043.094-.044.093-.044.092-.044.089-.044.088-.045.085-.044.084-.045.083-.046.08-.045.078-.045.077-.046.075-.046.072-.045.071-.046.069-.046.067-.046.064-.046.063-.046.061-.045.059-.046.057-.046.054-.045.053-.045.05-.045.049-.044.046-.045.044-.044.042-.043.04-.043.038-.043.036-.042.034-.042.032-.041.03-.04.028-.04.026-.039.024-.038.022-.037.02-.037.019-.036.017-.035.015-.035.014-.033.012-.033.011-.032.01-.032.008-.031.007-.03.006-.03.005-.029.003-.03.003-.029.001-.029.001-.029-.001-.029-.001-.029-.003-.029-.003-.03-.005-.029-.006-.03-.007-.03-.008-.031-.01-.032-.011-.032-.012-.033-.014-.033-.015-.035-.017-.035-.019-.036-.02-.037-.022-.037-.024-.038-.026-.039-.028-.04-.03-.04-.032-.041-.034-.042-.036-.042-.038-.043-.04-.043-.042-.043-.044-.044-.046-.045-.049-.044-.05-.045-.053-.045-.054-.045-.057-.046-.059-.046-.061-.045-.063-.046-.064-.046-.067-.046-.069-.046-.071-.046-.072-.045-.075-.046-.077-.046-.078-.045-.08-.045-.083-.046-.084-.045-.085-.044-.088-.045-.089-.044-.092-.044-.093-.044-.094-.044-.097-.043-.098-.043-.099-.043-.102-.042-.103-.042-.104-.041-.107-.042-.108-.041-.109-.04-.111-.04-.112-.04-.114-.039-.116-.039-.117-.038-.118-.038-.12-.038-.121-.037-.123-.036-.124-.037-.125-.035-.127-.035-.128-.035-.129-.034-.131-.034-.132-.033-.133-.033-.135-.032-.136-.031-.137-.031-.138-.03-.139-.03-.141-.03-.142-.028-.143-.028-.144-.028-.145-.027-.146-.026-.147-.026-.149-.025-.149-.025-.151-.024-.151-.023-.153-.023-.153-.022-.155-.021-.155-.021-.157-.02-.157-.019-.158-.019-.159-.018-.16-.018-.161-.016-.162-.016-.162-.016-.164-.014-.164-.014-.165-.013-.166-.013-.167-.012-.167-.011-.168-.01-.169-.01-.169-.009-.17-.008-.171-.007-.172-.007-.172-.006-.173-.005-.173-.004-.174-.004-.175-.002-.175-.002-.176-.002h-.176z" fill="#d9d9d9"/></g></g></svg>