<svg clip-rule="evenodd" fill-rule="evenodd" stroke-linejoin="round" stroke-miterlimit="2" viewBox="0 0 32 32" xmlns="http://www.w3.org/2000/svg" xmlns:xlink="http://www.w3.org/1999/xlink"><clipPath id="a"><path clip-rule="evenodd" d="m4.219 18.182c-.143-.119-.25-.275-.309-.452-.156-.467-.48-1.439-.696-2.088-.129-.388-.009-.815.303-1.079 2.046-1.732 9.576-8.103 11.837-10.016.373-.316.919-.316 1.292 0 2.261 1.913 9.791 8.284 11.837 10.016.312.264.432.691.303 1.079-.216.649-.54 1.621-.696 2.088-.059.177-.166.333-.309.452-1.378 1.149-8.887 7.406-11.141 9.285-.371.309-.909.309-1.28 0-2.254-1.879-9.763-8.136-11.141-9.285z"/></clipPath><clipPath id="b"><path clip-rule="evenodd" d="m4.219 18.182c-.143-.119-.25-.275-.309-.452-.156-.467-.48-1.439-.696-2.088-.129-.388-.009-.815.303-1.079 2.046-1.732 9.576-8.103 11.837-10.016.373-.316.919-.316 1.292 0 2.261 1.913 9.791 8.284 11.837 10.016.312.264.432.691.303 1.079-.216.649-.54 1.621-.696 2.088-.059.177-.166.333-.309.452-1.378 1.149-8.887 7.406-11.141 9.285-.371.309-.909.309-1.28 0-2.254-1.879-9.763-8.136-11.141-9.285z"/></clipPath><metadata/><path d="m0 0h32v32h-32z" fill="none"/><path d="m16.129 2.312.129.009.128.013.128.02.127.025.127.03.125.036.124.042.123.047.121.053.119.059.117.064.115.069.112.075.109.08.088.071 11.868 10.043.072.063.083.078.079.081.076.084.072.086.069.089.065.091.062.093.058.094.054.097.051.099.047.099.043.102.039.103.035.104.032.105.028.106.024.108.02.108.016.109.011.11.008.11.004.111v.111l-.004.111-.009.112-.013.111-.017.112-.021.11-.026.111-.029.11-.029.091-.707 2.122-.029.082-.038.097-.042.096-.044.094-.048.092-.051.09-.054.089-.056.086-.061.085-.062.082-.066.081-.068.078-.071.075-.074.074-.077.07-.066.057-11.172 9.31-.087.07-.108.078-.111.074-.114.068-.116.062-.118.058-.12.052-.122.046-.123.041-.124.035-.125.03-.126.024-.127.019-.127.014-.127.008-.128.003-.128-.003-.127-.008-.127-.014-.127-.019-.126-.024-.125-.03-.124-.035-.123-.041-.122-.047-.12-.051-.118-.057-.116-.063-.114-.068-.111-.074-.108-.078-.087-.07-11.172-9.31-.066-.057-.077-.07-.074-.074-.071-.075-.068-.078-.066-.081-.062-.082-.06-.085-.057-.086-.054-.089-.051-.09-.048-.092-.045-.095-.041-.095-.038-.097-.029-.082-.707-2.122-.029-.091-.029-.11-.026-.111-.021-.111-.017-.111-.013-.111-.009-.112-.004-.111v-.111l.004-.111.008-.11.011-.11.016-.109.02-.108.024-.108.028-.106.031-.105.036-.104.039-.103.043-.102.047-.1.051-.098.054-.097.058-.094.062-.093.065-.091.069-.089.072-.086.076-.084.079-.081.083-.078.072-.063 11.868-10.043.088-.071.109-.08.112-.075.115-.069.117-.064.119-.059.121-.053.123-.047.124-.042.125-.036.127-.03.127-.025.128-.02.128-.013.129-.009.129-.003.129.003zm-10.803 13.34.391 1.176 10.283 8.569 10.283-8.569.391-1.176-10.674-9.032z"/><path d="m4.219 18.182c-.143-.119-.25-.275-.309-.452-.156-.467-.48-1.439-.696-2.088-.129-.388-.009-.815.303-1.079 2.046-1.732 9.576-8.103 11.837-10.016.373-.316.919-.316 1.292 0 2.261 1.913 9.791 8.284 11.837 10.016.312.264.432.691.303 1.079-.216.649-.54 1.621-.696 2.088-.059.177-.166.333-.309.452-1.378 1.149-8.887 7.406-11.141 9.285-.371.309-.909.309-1.28 0-2.254-1.879-9.763-8.136-11.141-9.285z" fill="#30bfdb"/><g clip-path="url(#a)"><path d="m16 5s3.958 6.596 5.444 9.074c.144.239.181.527.103.794-.078.268-.264.49-.513.615-1.316.658-3.62 1.81-4.587 2.293-.281.141-.613.141-.894 0-1.112-.556-3.994-1.996-5.106-2.552-.281-.141-.613-.141-.894 0-1.685.842-7.553 3.776-7.553 3.776v-14z" fill="#8adbeb"/></g><path d="m16.043 4.311.043.003.043.004.043.007.042.008.042.01.042.012.041.014.041.016.04.017.04.02.039.021.038.023.037.025.036.027.036.029 11.837 10.016.029.025.027.026.027.027.025.028.024.029.023.029.022.03.02.031.02.032.018.032.017.033.015.033.015.034.013.034.012.035.01.035.009.036.008.035.007.036.005.037.004.036.003.037.001.037v.037l-.001.037-.003.037-.005.037-.005.037-.007.037-.009.037-.01.037-.011.036-.696 2.088-.012.033-.012.032-.014.032-.015.031-.016.031-.017.03-.018.03-.019.029-.02.028-.021.027-.022.027-.022.026-.024.025-.025.025-.025.023-.027.023-11.141 9.285-.035.028-.036.026-.037.024-.038.023-.039.021-.039.019-.04.017-.04.015-.041.014-.041.012-.042.01-.042.008-.042.006-.043.005-.042.002-.043.001-.043-.001-.042-.002-.043-.005-.042-.006-.042-.008-.042-.01-.041-.012-.041-.014-.04-.015-.04-.017-.039-.019-.039-.021-.038-.023-.037-.024-.036-.026-.035-.028-11.141-9.285-.027-.023-.025-.023-.025-.025-.024-.025-.022-.026-.022-.027-.021-.027-.02-.028-.019-.029-.018-.03-.017-.03-.016-.031-.015-.031-.014-.032-.012-.032-.012-.033-.696-2.088-.011-.036-.01-.037-.009-.037-.007-.037-.005-.037-.005-.037-.003-.037-.001-.037v-.037l.001-.037.003-.037.004-.036.005-.037.007-.036.008-.035.009-.036.01-.035.012-.035.013-.034.015-.034.015-.033.017-.033.018-.032.02-.032.02-.031.022-.03.023-.029.024-.029.025-.028.027-.027.027-.026.029-.025 11.837-10.016.036-.029.036-.027.037-.025.038-.023.039-.021.04-.02.04-.017.041-.016.041-.014.042-.012.042-.01.042-.008.043-.007.043-.004.043-.003.043-.001zm-.052 1.006-11.821 10.003-.007.006.003.009.69 2.071.003.008.006.005 11.126 9.272.009.007.009-.007 11.126-9.272.006-.005.003-.008.69-2.071.003-.009-.007-.006-11.821-10.003-.009-.007-.009.007z" fill="#30bfdb"/><path d="m4.219 18.182c-.143-.119-.25-.275-.309-.452-.156-.467-.48-1.439-.696-2.088-.129-.388-.009-.815.303-1.079 2.046-1.732 9.576-8.103 11.837-10.016.373-.316.919-.316 1.292 0 2.261 1.913 9.791 8.284 11.837 10.016.312.264.432.691.303 1.079-.216.649-.54 1.621-.696 2.088-.059.177-.166.333-.309.452-1.378 1.149-8.887 7.406-11.141 9.285-.371.309-.909.309-1.28 0-2.254-1.879-9.763-8.136-11.141-9.285z" fill="none"/><g clip-path="url(#b)" fill="#fff"><path d="m15.5 12c0-.552-.448-1-1-1s-1 .448-1 1v1c0 .552.448 1 1 1s1-.448 1-1c0-.322 0-.678 0-1z"/><path d="m18.5 12c0-.552-.448-1-1-1s-1 .448-1 1v1c0 .552.448 1 1 1s1-.448 1-1c0-.322 0-.678 0-1z"/><path d="m9 10c0-.552-.448-1-1-1s-1 .448-1 1v1c0 .552.448 1 1 1s1-.448 1-1c0-.322 0-.678 0-1z"/><path d="m9.5 21c0-.552-.448-1-1-1s-1 .448-1 1v1c0 .552.448 1 1 1s1-.448 1-1c0-.322 0-.678 0-1z"/><path d="m12.5 21c0-.552-.448-1-1-1s-1 .448-1 1v1c0 .552.448 1 1 1s1-.448 1-1c0-.322 0-.678 0-1z"/><path d="m21.5 21c0-.552-.448-1-1-1s-1 .448-1 1v1c0 .552.448 1 1 1s1-.448 1-1c0-.322 0-.678 0-1z"/><path d="m24.5 21c0-.552-.448-1-1-1s-1 .448-1 1v1c0 .552.448 1 1 1s1-.448 1-1c0-.322 0-.678 0-1z"/><path d="m25 10c0-.552-.448-1-1-1s-1 .448-1 1v1c0 .552.448 1 1 1s1-.448 1-1c0-.322 0-.678 0-1z"/></g></svg>