<svg clip-rule="evenodd" fill-rule="evenodd" stroke-linejoin="round" stroke-miterlimit="2" viewBox="0 0 32 32" xmlns="http://www.w3.org/2000/svg" xmlns:xlink="http://www.w3.org/1999/xlink"><clipPath id="a"><path clip-rule="evenodd" d="m15.691 2.1c.201-.065.417-.065.618 0 1.299.423 6.312 2.051 7.611 2.473.201.066.376.193.5.364.803 1.105 3.901 5.369 4.704 6.474.124.171.191.376.191.588v8.002c0 .212-.067.417-.191.588-.803 1.105-3.901 5.369-4.704 6.474-.124.171-.299.298-.5.364-1.299.422-6.312 2.05-7.611 2.473-.201.065-.417.065-.618 0-1.299-.423-6.312-2.051-7.611-2.473-.201-.066-.376-.193-.5-.364-.803-1.105-3.901-5.369-4.704-6.474-.124-.171-.191-.376-.191-.588v-8.002c0-.212.067-.417.191-.588.803-1.105 3.901-5.369 4.704-6.474.124-.171.299-.298.5-.364 1.299-.422 6.312-2.05 7.611-2.473z"/></clipPath><clipPath id="b"><path clip-rule="evenodd" d="m15.691 2.1c.201-.065.417-.065.618 0 1.299.423 6.312 2.051 7.611 2.473.201.066.376.193.5.364.803 1.105 3.901 5.369 4.704 6.474.124.171.191.376.191.588v8.002c0 .212-.067.417-.191.588-.803 1.105-3.901 5.369-4.704 6.474-.124.171-.299.298-.5.364-1.299.422-6.312 2.05-7.611 2.473-.201.065-.417.065-.618 0-1.299-.423-6.312-2.051-7.611-2.473-.201-.066-.376-.193-.5-.364-.803-1.105-3.901-5.369-4.704-6.474-.124-.171-.191-.376-.191-.588v-8.002c0-.212.067-.417.191-.588.803-1.105 3.901-5.369 4.704-6.474.124-.171.299-.298.5-.364 1.299-.422 6.312-2.05 7.611-2.473z"/></clipPath><metadata/><path d="m0 0h32v32h-32z" fill="none"/><path d="m15.691 2.1c.201-.065.417-.065.618 0 1.299.423 6.312 2.051 7.611 2.473.201.066.376.193.5.364.803 1.105 3.901 5.369 4.704 6.474.124.171.191.376.191.588v8.002c0 .212-.067.417-.191.588-.803 1.105-3.901 5.369-4.704 6.474-.124.171-.299.298-.5.364-1.299.422-6.312 2.05-7.611 2.473-.201.065-.417.065-.618 0-1.299-.423-6.312-2.051-7.611-2.473-.201-.066-.376-.193-.5-.364-.803-1.105-3.901-5.369-4.704-6.474-.124-.171-.191-.376-.191-.588v-8.002c0-.212.067-.417.191-.588.803-1.105 3.901-5.369 4.704-6.474.124-.171.299-.298.5-.364 1.299-.422 6.312-2.05 7.611-2.473z"/><path d="m16.117.053.118.007.117.012.116.016.116.02.115.026.115.03.094.028 7.649 2.485.093.033.11.043.108.047.106.052.104.055.102.06.098.063.096.067.094.071.091.074.088.078.085.082.081.085.079.088.075.092.06.078 4.727 6.506.056.082.064.099.059.102.056.104.051.105.047.108.043.11.038.11.035.113.029.114.025.114.021.116.016.117.012.117.007.118.002.099v8.042l-.002.099-.007.117-.012.118-.016.117-.021.116-.025.114-.029.114-.035.113-.038.11-.043.11-.047.108-.051.105-.056.104-.059.102-.064.099-.057.082-4.726 6.506-.06.079-.076.091-.078.088-.081.085-.085.082-.088.078-.091.074-.093.071-.097.067-.099.063-.101.06-.104.055-.105.052-.109.047-.11.043-.093.033-7.649 2.485-.094.029-.115.029-.115.026-.116.02-.117.016-.117.012-.117.007-.117.002-.117-.002-.117-.007-.117-.012-.117-.016-.116-.02-.115-.026-.115-.029-.094-.029-7.649-2.485-.093-.033-.11-.043-.108-.047-.106-.052-.104-.055-.101-.06-.099-.063-.097-.067-.093-.071-.091-.074-.088-.078-.085-.082-.081-.085-.079-.088-.075-.091-.059-.079-4.727-6.506-.057-.081-.064-.1-.059-.102-.056-.104-.051-.106-.047-.107-.043-.11-.038-.11-.034-.113-.03-.114-.025-.114-.021-.116-.016-.117-.012-.117-.007-.118-.002-.099v-8.042l.002-.099.007-.118.012-.117.016-.117.021-.116.025-.114.03-.114.034-.113.038-.11.043-.11.047-.107.051-.106.056-.104.059-.102.064-.1.056-.081 4.728-6.506.059-.079.075-.091.079-.088.081-.085.085-.082.088-.078.091-.074.094-.071.096-.067.098-.063.102-.06.104-.055.106-.052.108-.047.11-.043.093-.033 7.649-2.485.094-.028.115-.03.115-.026.116-.02.116-.016.117-.012.118-.007.117-.002.117.002zm-7.11 6.322-4.322 5.949v7.352l4.322 5.949 6.993 2.272 6.993-2.272 4.322-5.949v-7.352l-4.322-5.949-6.993-2.272z"/><path d="m15.691 2.1c.201-.065.417-.065.618 0 1.299.423 6.312 2.051 7.611 2.473.201.066.376.193.5.364.803 1.105 3.901 5.369 4.704 6.474.124.171.191.376.191.588v8.002c0 .212-.067.417-.191.588-.803 1.105-3.901 5.369-4.704 6.474-.124.171-.299.298-.5.364-1.299.422-6.312 2.05-7.611 2.473-.201.065-.417.065-.618 0-1.299-.423-6.312-2.051-7.611-2.473-.201-.066-.376-.193-.5-.364-.803-1.105-3.901-5.369-4.704-6.474-.124-.171-.191-.376-.191-.588v-8.002c0-.212.067-.417.191-.588.803-1.105 3.901-5.369 4.704-6.474.124-.171.299-.298.5-.364 1.299-.422 6.312-2.05 7.611-2.473z" fill="#8813e8"/><g clip-path="url(#a)"><path d="m10.956 23.964c-.296 0-.578.132-.768.36-1.079 1.295-4.7 5.64-4.7 5.64l-4.488.036v-29h15v5.49c0 .321.153.621.412.809 1.438 1.045 6.238 4.532 7.919 5.754.35.254.497.706.363 1.118-.618 1.902-2.339 7.2-2.958 9.102-.133.412-.517.691-.951.691z" fill="#ad50ff"/></g><path d="m16.039 2.052.039.003.039.003.039.006.039.007.038.008.038.01.038.011 7.611 2.473.037.013.037.015.036.015.035.018.035.018.034.02.033.021.032.022.031.024.03.025.029.026.029.027.027.028.026.03.025.03.024.032 4.704 6.474.022.032.022.034.02.033.018.035.017.035.016.036.014.037.013.037.011.037.01.038.008.038.007.039.006.039.004.039.002.039.001.04v8.002l-.001.04-.002.039-.004.039-.006.039-.007.039-.008.038-.01.038-.011.037-.013.037-.014.037-.016.036-.017.035-.018.035-.02.033-.022.034-.022.032-4.704 6.474-.024.032-.025.03-.026.03-.027.028-.029.027-.029.026-.03.025-.031.024-.032.022-.033.021-.034.02-.035.018-.035.018-.036.015-.037.015-.037.013-7.611 2.473-.038.011-.038.01-.038.008-.039.007-.039.006-.039.003-.039.003-.039.001-.039-.001-.039-.003-.039-.003-.039-.006-.039-.007-.038-.008-.038-.01-.038-.011-7.611-2.473-.037-.013-.037-.015-.036-.015-.035-.018-.035-.018-.034-.02-.033-.021-.032-.022-.031-.024-.03-.025-.029-.026-.029-.027-.027-.028-.026-.03-.025-.03-.024-.032-4.704-6.474-.022-.032-.022-.034-.02-.033-.018-.035-.017-.035-.016-.036-.014-.037-.013-.037-.011-.037-.01-.038-.008-.038-.007-.039-.006-.039-.004-.039-.002-.039-.001-.04v-8.002l.001-.04.002-.039.004-.039.006-.039.007-.039.008-.038.01-.038.011-.037.013-.037.014-.037.016-.036.017-.035.018-.035.02-.033.022-.034.022-.032 4.704-6.474.024-.032.025-.03.026-.03.027-.028.029-.027.029-.026.03-.025.031-.024.032-.022.033-.021.034-.02.035-.018.035-.018.036-.015.037-.015.037-.013 7.611-2.473.038-.011.038-.01.038-.008.039-.007.039-.006.039-.003.039-.003.039-.001zm-.048 1.003-7.593 2.466-.009.004-.006.007-4.692 6.459-.006.008v.01 7.982.01l.006.008 4.692 6.459.006.007.009.004 7.593 2.466.009.003.009-.003 7.593-2.466.009-.004.006-.007 4.692-6.459.006-.008v-.01-7.982-.01l-.006-.008-4.692-6.459-.006-.007-.009-.004-7.593-2.466-.009-.003-.009.003z" fill="#8813e8"/><path d="m15.691 2.1c.201-.065.417-.065.618 0 1.299.423 6.312 2.051 7.611 2.473.201.066.376.193.5.364.803 1.105 3.901 5.369 4.704 6.474.124.171.191.376.191.588v8.002c0 .212-.067.417-.191.588-.803 1.105-3.901 5.369-4.704 6.474-.124.171-.299.298-.5.364-1.299.422-6.312 2.05-7.611 2.473-.201.065-.417.065-.618 0-1.299-.423-6.312-2.051-7.611-2.473-.201-.066-.376-.193-.5-.364-.803-1.105-3.901-5.369-4.704-6.474-.124-.171-.191-.376-.191-.588v-8.002c0-.212.067-.417.191-.588.803-1.105 3.901-5.369 4.704-6.474.124-.171.299-.298.5-.364 1.299-.422 6.312-2.05 7.611-2.473z" fill="none"/><g clip-path="url(#b)" fill="#fff"><path d="m15 15c0-.552-.448-1-1-1s-1 .448-1 1v2c0 .552.448 1 1 1s1-.448 1-1c0-.611 0-1.389 0-2z"/><path d="m19 15c0-.552-.448-1-1-1s-1 .448-1 1v2c0 .552.448 1 1 1s1-.448 1-1c0-.611 0-1.389 0-2z"/><path d="m15 29c0-.552-.448-1-1-1s-1 .448-1 1v2c0 .552.448 1 1 1s1-.448 1-1c0-.611 0-1.389 0-2z"/><path d="m19 29c0-.552-.448-1-1-1s-1 .448-1 1v2c0 .552.448 1 1 1s1-.448 1-1c0-.611 0-1.389 0-2z"/><path d="m30.134 20.634c.478.276 1.09.112 1.366-.366s.112-1.09-.366-1.366c-.529-.305-1.203-.695-1.732-1-.478-.276-1.09-.112-1.366.366s-.112 1.09.366 1.366c.529.305 1.203.695 1.732 1z"/><path d="m28.134 24.098c.478.276 1.09.112 1.366-.366s.112-1.09-.366-1.366c-.529-.305-1.203-.695-1.732-1-.478-.276-1.09-.112-1.366.366s-.112 1.09.366 1.366c.529.305 1.203.695 1.732 1z"/><path d="m1.866 20.634c-.478.276-1.09.112-1.366-.366s-.112-1.09.366-1.366c.529-.305 1.203-.695 1.732-1 .478-.276 1.09-.112 1.366.366s.112 1.09-.366 1.366c-.529.305-1.203.695-1.732 1z"/><path d="m3.866 24.098c-.478.276-1.09.112-1.366-.366s-.112-1.09.366-1.366c.529-.305 1.203-.695 1.732-1 .478-.276 1.09-.112 1.366.366s.112 1.09-.366 1.366c-.529.305-1.203.695-1.732 1z"/><path d="m23.634 3.402c.276-.478.112-1.09-.366-1.366s-1.09-.112-1.366.366c-.305.529-.695 1.203-1 1.732-.276.478-.112 1.09.366 1.366s1.09.112 1.366-.366c.305-.529.695-1.203 1-1.732z"/><path d="m27.098 5.402c.276-.478.112-1.09-.366-1.366s-1.09-.112-1.366.366c-.305.529-.695 1.203-1 1.732-.276.478-.112 1.09.366 1.366s1.09.112 1.366-.366c.305-.529.695-1.203 1-1.732z"/><path d="m8.366 3.402c-.276-.478-.112-1.09.366-1.366s1.09-.112 1.366.366c.305.529.695 1.203 1 1.732.276.478.112 1.09-.366 1.366s-1.09.112-1.366-.366c-.305-.529-.695-1.203-1-1.732z"/><path d="m4.902 5.402c-.276-.478-.112-1.09.366-1.366s1.09-.112 1.366.366c.305.529.695 1.203 1 1.732.276.478.112 1.09-.366 1.366s-1.09.112-1.366-.366c-.305-.529-.695-1.203-1-1.732z"/></g></svg>