<svg clip-rule="evenodd" fill-rule="evenodd" stroke-linejoin="round" stroke-miterlimit="2" viewBox="0 0 32 32" xmlns="http://www.w3.org/2000/svg" xmlns:xlink="http://www.w3.org/1999/xlink"><clipPath id="a"><path clip-rule="evenodd" d="m15.5 2.289c.309-.179.691-.179 1 0 1.967 1.135 9.158 5.287 11.124 6.422.31.179.5.509.5.866v12.846c0 .357-.19.687-.5.866-1.966 1.135-9.157 5.287-11.124 6.422-.309.179-.691.179-1 0-1.967-1.135-9.158-5.287-11.124-6.422-.31-.179-.5-.509-.5-.866v-12.846c0-.357.19-.687.5-.866 1.966-1.135 9.157-5.287 11.124-6.422z"/></clipPath><clipPath id="b"><path clip-rule="evenodd" d="m15.5 2.289c.309-.179.691-.179 1 0 1.967 1.135 9.158 5.287 11.124 6.422.31.179.5.509.5.866v12.846c0 .357-.19.687-.5.866-1.966 1.135-9.157 5.287-11.124 6.422-.309.179-.691.179-1 0-1.967-1.135-9.158-5.287-11.124-6.422-.31-.179-.5-.509-.5-.866v-12.846c0-.357.19-.687.5-.866 1.966-1.135 9.157-5.287 11.124-6.422z"/></clipPath><metadata/><path d="m0 0h32v32h-32z" fill="none"/><path d="m15.5 2.289c.309-.179.691-.179 1 0 1.967 1.135 9.158 5.287 11.124 6.422.31.179.5.509.5.866v12.846c0 .357-.19.687-.5.866-1.966 1.135-9.157 5.287-11.124 6.422-.309.179-.691.179-1 0-1.967-1.135-9.158-5.287-11.124-6.422-.31-.179-.5-.509-.5-.866v-12.846c0-.357.19-.687.5-.866 1.966-1.135 9.157-5.287 11.124-6.422z"/><path d="m16.097.156.097.005.097.008.096.011.097.014.096.017.095.02.095.024.095.027.093.029.093.033.092.037.091.039.09.042.089.046.072.04 11.154 6.44.071.043.084.053.082.057.079.06.077.061.076.064.072.066.07.068.068.071.066.073.063.074.06.076.058.078.055.081.053.081.049.083.048.085.044.086.042.088.039.089.036.091.033.092.03.092.027.094.024.095.021.096.018.097.014.098.012.099.008.099.005.1.001.083v12.878l-.001.083-.005.1-.008.099-.012.099-.014.098-.018.097-.021.096-.024.095-.027.094-.03.092-.033.092-.036.09-.039.09-.042.088-.044.086-.048.085-.049.083-.053.081-.055.08-.058.079-.06.076-.063.075-.066.072-.067.07-.071.069-.072.066-.076.064-.077.061-.079.06-.082.057-.084.053-.071.043-11.154 6.44-.072.04-.089.046-.09.042-.091.039-.092.036-.093.034-.093.029-.095.027-.095.024-.095.02-.096.017-.097.014-.096.011-.097.008-.097.005-.097.002-.097-.002-.097-.005-.097-.008-.096-.011-.097-.014-.096-.017-.095-.02-.095-.024-.095-.027-.093-.029-.093-.034-.092-.036-.091-.039-.09-.042-.089-.046-.072-.04-11.154-6.44-.071-.043-.084-.054-.082-.056-.079-.059-.077-.062-.075-.064-.073-.066-.071-.069-.067-.07-.066-.072-.063-.075-.06-.076-.058-.079-.055-.08-.053-.081-.05-.083-.047-.085-.044-.086-.042-.088-.038-.089-.037-.091-.033-.092-.03-.092-.027-.094-.024-.095-.021-.096-.018-.097-.014-.098-.012-.099-.008-.099-.005-.1-.001-.083v-12.878l.001-.083.005-.1.008-.099.012-.099.014-.098.018-.097.021-.096.024-.095.027-.094.03-.092.033-.092.037-.091.038-.089.042-.088.044-.086.047-.085.05-.083.053-.081.055-.081.058-.078.06-.076.063-.074.066-.073.068-.071.07-.068.072-.066.075-.064.078-.062.079-.059.082-.056.084-.054.071-.043 11.154-6.44.072-.04.089-.046.09-.042.091-.039.092-.037.093-.033.094-.029.094-.027.095-.024.095-.02.096-.017.097-.014.096-.011.097-.008.097-.005.097-.002.097.002zm-10.221 9.999v11.69l10.124 5.846 10.124-5.846v-11.69l-10.124-5.846z"/><path d="m15.5 2.289c.309-.179.691-.179 1 0 1.967 1.135 9.158 5.287 11.124 6.422.31.179.5.509.5.866v12.846c0 .357-.19.687-.5.866-1.966 1.135-9.157 5.287-11.124 6.422-.309.179-.691.179-1 0-1.967-1.135-9.158-5.287-11.124-6.422-.31-.179-.5-.509-.5-.866v-12.846c0-.357.19-.687.5-.866 1.966-1.135 9.157-5.287 11.124-6.422z" fill="#ff4586"/><g clip-path="url(#a)"><path d="m3 3h13s5.763 6.483 7.506 8.445c.293.329.336.812.104 1.188-1.36 2.211-5.893 9.577-7.233 11.755-.225.366-.659.547-1.077.45-2.702-.623-12.3-2.838-12.3-2.838z" fill="#ff83ae"/></g><path d="m16.032 2.155.033.002.032.002.032.004.032.005.032.006.032.006.032.008.031.009.031.01.031.011.031.012.03.013.03.014.03.015.029.017 11.124 6.422.029.018.028.018.027.018.027.02.025.021.025.021.025.022.023.023.023.023.021.024.021.025.021.026.019.026.018.026.018.028.016.027.016.029.015.028.014.03.013.029.012.031.011.03.01.031.009.031.008.032.007.032.006.032.005.033.003.033.003.033.002.033v.033 12.846.033l-.002.033-.003.033-.003.033-.005.033-.006.032-.007.032-.008.032-.009.031-.01.031-.011.03-.012.031-.013.029-.014.03-.015.028-.016.029-.016.027-.018.028-.018.026-.019.026-.021.026-.021.025-.021.024-.023.023-.023.023-.025.022-.025.021-.025.021-.027.02-.027.018-.028.018-.029.018-11.124 6.422-.029.017-.03.015-.03.014-.03.013-.031.012-.031.011-.031.01-.031.009-.032.008-.032.006-.032.006-.032.005-.032.004-.032.002-.033.002h-.032-.032l-.033-.002-.032-.002-.032-.004-.032-.005-.032-.006-.032-.006-.032-.008-.031-.009-.031-.01-.031-.011-.031-.012-.03-.013-.03-.014-.03-.015-.029-.017-11.124-6.422-.029-.018-.028-.018-.027-.018-.027-.02-.025-.021-.025-.021-.025-.022-.023-.023-.023-.023-.021-.024-.021-.025-.021-.026-.019-.026-.018-.026-.018-.028-.016-.027-.016-.029-.015-.028-.014-.03-.013-.029-.012-.031-.011-.03-.01-.031-.009-.031-.008-.032-.007-.032-.006-.032-.005-.033-.003-.033-.003-.033-.002-.033v-.033-12.846-.033l.002-.033.003-.033.003-.033.005-.033.006-.032.007-.032.008-.032.009-.031.01-.031.011-.03.012-.031.013-.029.014-.03.015-.028.016-.029.016-.027.018-.028.018-.026.019-.026.021-.026.021-.025.021-.024.023-.023.023-.023.025-.022.025-.021.025-.021.027-.02.027-.018.028-.018.029-.018 11.124-6.422.029-.017.03-.015.03-.014.03-.013.031-.012.031-.011.031-.01.031-.009.032-.008.032-.006.032-.006.032-.005.032-.004.032-.002.033-.002h.032zm-.039 1.004-11.11 6.414-.007.004v.009 12.828.009l.007.004 11.11 6.414.007.004.007-.004 11.11-6.414.007-.004v-.008-12.83-.008l-.007-.004-11.11-6.414-.007-.004z" fill="#ff4586"/><path d="m15.5 2.289c.309-.179.691-.179 1 0 1.967 1.135 9.158 5.287 11.124 6.422.31.179.5.509.5.866v12.846c0 .357-.19.687-.5.866-1.966 1.135-9.157 5.287-11.124 6.422-.309.179-.691.179-1 0-1.967-1.135-9.158-5.287-11.124-6.422-.31-.179-.5-.509-.5-.866v-12.846c0-.357.19-.687.5-.866 1.966-1.135 9.157-5.287 11.124-6.422z" fill="none"/><g clip-path="url(#b)" fill="#fff"><path d="m16 16c0-.552-.448-1-1-1s-1 .448-1 1v1c0 .552.448 1 1 1s1-.448 1-1c0-.322 0-.678 0-1z"/><path d="m18 16c0-.552-.448-1-1-1s-1 .448-1 1v1c0 .552.448 1 1 1s1-.448 1-1c0-.322 0-.678 0-1z"/><path d="m16 7.482c0-.553-.448-1-1-1s-1 .447-1 1v.518c0 .552.448 1 1 1s1-.448 1-1c0-.171 0-.348 0-.518z"/><path d="m18 7.482c0-.553-.448-1-1-1s-1 .447-1 1v.518c0 .552.448 1 1 1s1-.448 1-1c0-.171 0-.348 0-.518z"/><path d="m9 19c0-.552-.448-1-1-1s-1 .448-1 1v1c0 .552.448 1 1 1s1-.448 1-1c0-.322 0-.678 0-1z"/><path d="m10 19.5c0-.552-.448-1-1-1s-1 .448-1 1v1c0 .552.448 1 1 1s1-.448 1-1c0-.322 0-.678 0-1z"/><path d="m23.129 18.508c.172-.303.497-.508.871-.508.552 0 1 .448 1 1v1c0 .552-.448 1-1 1-.044 0-.087-.003-.129-.008-.172.303-.497.508-.871.508-.552 0-1-.448-1-1 0-.322 0-.678 0-1 0-.552.448-1 1-1 .044 0 .087.003.129.008z"/><path d="m28 13c.552 0 1 .448 1 1v1c0 .552-.448 1-1 1s-1-.448-1-1c0-.322 0-.678 0-1 0-.552.448-1 1-1z"/><path d="m4 13c.552 0 1 .448 1 1v1c0 .552-.448 1-1 1s-1-.448-1-1c0-.322 0-.678 0-1 0-.552.448-1 1-1z"/><path d="m19 28c0-.552.448-1 1-1h1c.552 0 1 .448 1 1s-.448 1-1 1c-.322 0-.678 0-1 0-.552 0-1-.448-1-1z"/><path d="m24 7c0-.552.448-1 1-1h1c.552 0 1 .448 1 1s-.448 1-1 1c-.322 0-.678 0-1 0-.552 0-1-.448-1-1z"/><path d="m5 7c0-.552.448-1 1-1h1c.552 0 1 .448 1 1s-.448 1-1 1c-.322 0-.678 0-1 0-.552 0-1-.448-1-1z"/><path d="m10 28c0-.552.448-1 1-1h1c.552 0 1 .448 1 1s-.448 1-1 1c-.322 0-.678 0-1 0-.552 0-1-.448-1-1z"/></g></svg>