<svg clip-rule="evenodd" fill-rule="evenodd" stroke-linejoin="round" stroke-miterlimit="2" viewBox="0 0 32 32" xmlns="http://www.w3.org/2000/svg" xmlns:xlink="http://www.w3.org/1999/xlink"><clipPath id="a"><path clip-rule="evenodd" d="m15.136 4.481c.179-.307.508-.496.864-.496s.685.189.864.496c2.502 4.29 9.739 16.696 12.259 21.015.18.309.181.692.003 1.002-.178.311-.509.502-.867.502h-24.518c-.358 0-.689-.191-.867-.502-.178-.31-.177-.693.003-1.002 2.52-4.319 9.757-16.725 12.259-21.015z"/></clipPath><clipPath id="b"><path clip-rule="evenodd" d="m15.136 4.481c.179-.307.508-.496.864-.496s.685.189.864.496c2.502 4.29 9.739 16.696 12.259 21.015.18.309.181.692.003 1.002-.178.311-.509.502-.867.502h-24.518c-.358 0-.689-.191-.867-.502-.178-.31-.177-.693.003-1.002 2.52-4.319 9.757-16.725 12.259-21.015z"/></clipPath><metadata/><path d="m0 0h32v32h-32z" fill="none"/><path d="m16.1 1.986.099.005.098.008.098.012.098.014.096.018.096.021.095.023.093.027.093.03.091.033.09.035.089.039.088.041.086.044.084.047.083.049.082.053.08.054.077.058.077.06.074.062.072.065.071.067.068.07.066.072.064.075.062.077.059.079.057.081.054.083.043.071 12.276 21.044.041.073.046.088.042.09.04.091.037.092.033.093.031.094.027.095.024.095.021.095.017.096.015.097.011.097.008.097.005.097.002.097-.001.097-.004.097-.008.097-.011.097-.014.097-.017.096-.02.096-.023.095-.027.095-.029.094-.033.093-.036.092-.039.091-.043.091-.045.089-.048.087-.052.086-.054.084-.056.082-.06.08-.061.078-.064.075-.066.073-.069.071-.07.068-.073.065-.074.064-.077.06-.078.058-.08.056-.082.052-.083.051-.085.047-.086.045-.088.041-.089.039-.091.036-.092.034-.093.03-.095.027-.095.024-.096.021-.097.018-.098.015-.099.011-.099.009-.1.005-.083.001h-24.552l-.083-.001-.1-.005-.099-.009-.099-.011-.098-.015-.097-.018-.096-.021-.095-.024-.095-.027-.093-.03-.092-.034-.091-.036-.089-.039-.088-.041-.086-.045-.085-.047-.083-.051-.082-.052-.08-.056-.079-.058-.076-.06-.074-.063-.073-.066-.07-.068-.069-.071-.066-.073-.064-.075-.061-.078-.06-.08-.056-.082-.054-.084-.052-.086-.048-.087-.045-.089-.043-.091-.039-.091-.036-.092-.033-.093-.029-.094-.027-.095-.023-.095-.02-.096-.017-.096-.014-.097-.011-.097-.008-.097-.004-.097-.001-.097.002-.097.005-.097.008-.097.011-.097.015-.097.017-.096.021-.095.024-.095.027-.095.031-.094.033-.093.037-.092.04-.091.042-.09.046-.088.041-.073 12.276-21.044.043-.071.054-.083.057-.081.059-.079.062-.077.064-.075.066-.072.068-.07.071-.067.072-.065.074-.062.077-.06.077-.058.08-.054.082-.053.083-.049.084-.047.086-.044.088-.041.089-.039.09-.035.091-.033.093-.03.093-.027.095-.023.096-.021.096-.018.098-.014.098-.012.098-.008.099-.005.1-.002.1.002zm-10.618 23.014h21.036l-10.518-18.031z"/><path d="m15.136 4.481c.179-.307.508-.496.864-.496s.685.189.864.496c2.502 4.29 9.739 16.696 12.259 21.015.18.309.181.692.003 1.002-.178.311-.509.502-.867.502h-24.518c-.358 0-.689-.191-.867-.502-.178-.31-.177-.693.003-1.002 2.52-4.319 9.757-16.725 12.259-21.015z" fill="#e82731"/><g clip-path="url(#a)"><path d="m21 28h-20v-23h15z" fill="#ff6169"/></g><path d="m16.033 3.985.033.002.033.003.033.003.032.005.032.006.032.007.032.008.031.009.031.01.03.011.03.012.03.012.029.014.029.015.028.015.028.017.027.017.027.019.026.019.025.02.025.021.024.021.023.023.023.023.022.024.021.025.021.025.02.027.018.027.019.027.017.029 12.259 21.015.016.029.015.03.015.03.013.03.012.031.011.031.01.031.009.032.008.031.007.032.006.032.005.032.004.032.003.033.001.032.001.033v.032l-.002.032-.002.033-.004.032-.005.032-.005.032-.007.032-.008.032-.009.032-.01.031-.01.031-.012.031-.013.03-.015.03-.015.03-.016.029-.017.029-.018.028-.019.027-.02.027-.02.026-.021.025-.022.024-.023.023-.024.023-.024.022-.025.021-.025.02-.026.02-.027.018-.027.018-.028.016-.028.016-.029.015-.03.014-.029.013-.031.012-.03.011-.031.01-.032.009-.031.008-.032.007-.033.006-.032.005-.033.004-.033.003-.034.001-.033.001h-24.518l-.033-.001-.034-.001-.033-.003-.033-.004-.032-.005-.033-.006-.032-.007-.031-.008-.032-.009-.031-.01-.03-.011-.031-.012-.029-.013-.03-.014-.029-.015-.028-.016-.028-.016-.027-.018-.027-.018-.026-.02-.025-.02-.025-.021-.024-.022-.024-.023-.023-.023-.022-.024-.021-.025-.02-.026-.02-.027-.019-.027-.018-.028-.017-.029-.016-.029-.015-.03-.015-.03-.013-.03-.012-.031-.01-.031-.01-.031-.009-.032-.008-.032-.007-.032-.005-.032-.005-.032-.004-.032-.002-.033-.002-.032v-.032l.001-.033.001-.032.003-.033.004-.032.005-.032.006-.032.007-.032.008-.031.009-.032.01-.031.011-.031.012-.031.013-.03.015-.03.015-.03.016-.029 12.259-21.015.017-.029.019-.027.018-.027.02-.027.021-.025.021-.025.022-.024.023-.023.023-.023.024-.021.025-.021.025-.02.026-.019.027-.019.027-.017.028-.017.028-.015.029-.015.029-.014.03-.012.03-.012.03-.011.031-.01.031-.009.032-.008.032-.007.032-.006.032-.005.033-.003.033-.003.033-.002h.033zm-.037 1.007-12.251 21.001-.004.007h.008 24.502.008l-.004-.007-12.251-21.001-.004-.007z" fill="#e82731"/><path d="m15.136 4.481c.179-.307.508-.496.864-.496s.685.189.864.496c2.502 4.29 9.739 16.696 12.259 21.015.18.309.181.692.003 1.002-.178.311-.509.502-.867.502h-24.518c-.358 0-.689-.191-.867-.502-.178-.31-.177-.693.003-1.002 2.52-4.319 9.757-16.725 12.259-21.015z" fill="none"/><g clip-path="url(#b)" fill="#fff"><path d="m18 23c0-.552-.448-1-1-1s-1 .448-1 1v2c0 .552.448 1 1 1s1-.448 1-1c0-.611 0-1.389 0-2z"/><path d="m7 23c0-.552-.448-1-1-1s-1 .448-1 1v2c0 .552.448 1 1 1s1-.448 1-1c0-.611 0-1.389 0-2z"/><path d="m15 9c0-.552-.448-1-1-1s-1 .448-1 1v2c0 .552.448 1 1 1s1-.448 1-1c0-.611 0-1.389 0-2z"/><path d="m21 9c0-.552-.448-1-1-1s-1 .448-1 1v2c0 .552.448 1 1 1s1-.448 1-1c0-.611 0-1.389 0-2z"/><path d="m24 23c0-.552-.448-1-1-1s-1 .448-1 1v2c0 .552.448 1 1 1s1-.448 1-1c0-.611 0-1.389 0-2z"/><path d="m29 23c0-.552-.448-1-1-1s-1 .448-1 1v2c0 .552.448 1 1 1s1-.448 1-1c0-.611 0-1.389 0-2z"/></g></svg>