<svg clip-rule="evenodd" fill-rule="evenodd" stroke-linejoin="round" stroke-miterlimit="2" viewBox="0 0 32 32" xmlns="http://www.w3.org/2000/svg" xmlns:xlink="http://www.w3.org/1999/xlink"><clipPath id="a"><path clip-rule="evenodd" d="m4.553 8.224c-.339.169-.553.515-.553.894v13.764c0 .379.214.725.553.894 2.043 1.022 9.143 4.572 11 5.5.281.141.613.141.894 0 1.857-.928 8.957-4.478 11-5.5.339-.169.553-.515.553-.894 0-2.432 0-11.332 0-13.764 0-.379-.214-.725-.553-.894-2.043-1.022-9.143-4.572-11-5.5-.281-.141-.613-.141-.894 0-1.857.928-8.957 4.478-11 5.5z"/></clipPath><metadata/><path d="m0 0h32v32h-32z" fill="none"/><path d="m16.086.619.086.004.086.006.086.009.086.011.085.013.085.016.085.019.084.021.084.024.083.026.083.028.082.031.081.033.08.036.067.032 11.028 5.515.079.041.091.052.09.055.088.058.084.061.083.063.08.067.078.069.075.071.072.073.07.076.066.078.064.081.061.082.059.084.055.087.053.088.049.09.046.091.043.093.04.095.037.096.034.098.03.098.027.101.023.101.02.102.017.104.013.104.009.105.005.105.002.088v13.8l-.002.088-.005.105-.009.105-.013.104-.017.104-.02.102-.023.101-.027.1-.03.099-.034.098-.037.096-.04.095-.043.093-.046.092-.049.089-.053.088-.055.087-.059.084-.061.082-.064.081-.066.078-.07.076-.072.073-.075.072-.078.068-.08.067-.083.063-.085.061-.087.058-.089.055-.092.052-.079.041-11.028 5.515-.067.032-.08.036-.081.033-.082.031-.083.028-.083.026-.084.024-.084.021-.085.019-.085.016-.085.013-.086.011-.086.009-.086.006-.086.004-.086.001-.086-.001-.086-.004-.086-.006-.086-.009-.086-.011-.085-.013-.085-.016-.085-.019-.084-.021-.084-.024-.083-.026-.083-.028-.082-.031-.081-.033-.08-.036-.067-.032-11.028-5.515-.079-.041-.092-.052-.089-.055-.087-.058-.085-.061-.083-.063-.08-.067-.078-.068-.075-.072-.072-.073-.07-.076-.066-.078-.064-.081-.062-.082-.058-.084-.055-.087-.053-.088-.049-.089-.046-.092-.043-.093-.04-.095-.037-.096-.034-.098-.03-.099-.027-.1-.023-.101-.02-.102-.017-.104-.013-.104-.009-.105-.005-.105-.002-.088v-13.8l.002-.088.005-.105.009-.105.013-.104.017-.103.02-.103.023-.101.027-.1.03-.099.034-.098.037-.096.04-.095.043-.093.046-.091.049-.09.053-.088.055-.087.058-.084.062-.082.064-.081.066-.078.07-.076.072-.073.075-.071.078-.069.08-.067.083-.063.084-.061.088-.058.09-.055.091-.053.079-.04 11.028-5.515.067-.032.08-.036.081-.033.082-.031.083-.028.083-.026.084-.024.084-.021.085-.019.085-.016.085-.013.086-.011.086-.009.086-.006.086-.004.086-.001.086.001zm-10.086 9.117v12.528l10 5 10-5v-12.528l-10-5z"/><path d="m4.553 8.224c-.339.169-.553.515-.553.894v13.764c0 .379.214.725.553.894 2.043 1.022 9.143 4.572 11 5.5.281.141.613.141.894 0 1.857-.928 8.957-4.478 11-5.5.339-.169.553-.515.553-.894 0-2.432 0-11.332 0-13.764 0-.379-.214-.725-.553-.894-2.043-1.022-9.143-4.572-11-5.5-.281-.141-.613-.141-.894 0-1.857.928-8.957 4.478-11 5.5z" fill="#e28f00"/><g clip-path="url(#a)"><path d="m28 8.5v-6.5h-24v6.5s9.377 4.688 11.553 5.776c.281.141.613.141.894 0 2.176-1.088 11.553-5.776 11.553-5.776z" fill="#ffc35b"/></g><path d="m16.029 2.618.028.002.029.002.029.003.028.003.029.005.028.005.028.006.028.007.028.008.028.009.027.009.028.011.027.011.027.012.026.013 11 5.5.032.016.03.017.03.019.029.019.029.02.027.022.027.022.025.023.025.023.025.025.023.025.022.026.021.027.021.027.019.029.019.028.017.03.017.03.015.03.014.031.014.032.012.032.011.032.01.033.009.034.008.033.007.034.005.035.004.034.004.035.001.036.001.035v13.764l-.001.035-.001.036-.004.035-.004.034-.005.035-.007.034-.008.033-.009.034-.01.033-.011.032-.012.032-.014.032-.014.031-.015.03-.017.03-.017.03-.019.028-.019.029-.021.027-.021.027-.022.026-.023.025-.025.025-.025.023-.025.023-.027.022-.027.022-.029.02-.029.019-.03.019-.03.017-.032.016-11 5.5-.026.013-.027.012-.027.011-.028.011-.027.009-.028.009-.028.008-.028.007-.028.006-.028.005-.029.005-.028.003-.029.003-.029.002-.028.002h-.029-.029l-.028-.002-.029-.002-.029-.003-.028-.003-.029-.005-.028-.005-.028-.006-.028-.007-.028-.008-.028-.009-.027-.009-.028-.011-.027-.011-.027-.012-.026-.013-11-5.5-.032-.016-.03-.017-.03-.019-.029-.019-.029-.02-.027-.022-.027-.022-.025-.023-.025-.023-.025-.025-.023-.025-.022-.026-.021-.027-.021-.027-.019-.029-.019-.028-.017-.03-.017-.03-.015-.03-.014-.031-.014-.032-.012-.032-.011-.032-.01-.033-.009-.034-.008-.033-.007-.034-.005-.035-.004-.034-.004-.035-.001-.036-.001-.035v-13.764l.001-.035.001-.036.004-.035.004-.034.005-.035.007-.034.008-.033.009-.034.01-.033.011-.032.012-.032.014-.032.014-.031.015-.03.017-.03.017-.03.019-.028.019-.029.021-.027.021-.027.022-.026.023-.025.025-.025.025-.023.025-.023.027-.022.027-.022.029-.02.029-.019.03-.019.03-.017.032-.016 11-5.5.026-.013.027-.012.027-.011.028-.011.027-.009.028-.009.028-.008.028-.007.028-.006.028-.005.029-.005.028-.003.029-.003.029-.002.028-.002h.029zm-.036 1.003-10.985 5.493-.008.004v.009 13.746.009l.008.004 10.985 5.493.007.003.007-.003 10.985-5.493.008-.004v-.009-13.746-.009l-.008-.004-10.985-5.493-.007-.003z" fill="#e28f00"/><g fill="#fff"><ellipse cx="16" cy="8.5" rx="3" ry="1.5"/><path d="m20.5 24.75c0-.966-.56-1.75-1.25-1.75s-1.25.784-1.25 1.75.56 1.75 1.25 1.75 1.25-.784 1.25-1.75z"/><path d="m26.983 14.25c0-.966-.56-1.75-1.25-1.75s-1.25.784-1.25 1.75.56 1.75 1.25 1.75 1.25-.784 1.25-1.75z"/><path d="m14 24.25c0-.966-.56-1.75-1.25-1.75s-1.25.784-1.25 1.75.56 1.75 1.25 1.75 1.25-.784 1.25-1.75z"/><path d="m14 16.75c0-.966-.56-1.75-1.25-1.75s-1.25.784-1.25 1.75.56 1.75 1.25 1.75 1.25-.784 1.25-1.75z"/><path d="m7.5 13.75c0-.966-.56-1.75-1.25-1.75s-1.25.784-1.25 1.75.56 1.75 1.25 1.75 1.25-.784 1.25-1.75z"/><path d="m7.5 21.25c0-.966-.56-1.75-1.25-1.75s-1.25.784-1.25 1.75.56 1.75 1.25 1.75 1.25-.784 1.25-1.75z"/></g></svg>