<svg clip-rule="evenodd" fill-rule="evenodd" stroke-linejoin="round" stroke-miterlimit="2" viewBox="0 0 32 32" xmlns="http://www.w3.org/2000/svg" xmlns:xlink="http://www.w3.org/1999/xlink"><clipPath id="a"><path clip-rule="evenodd" d="m3.707 16.707c-.39-.39-.39-1.024 0-1.414 2.265-2.265 9.321-9.321 11.586-11.586.39-.39 1.024-.39 1.414 0 2.265 2.265 9.321 9.321 11.586 11.586.39.39.39 1.024 0 1.414-2.265 2.265-9.321 9.321-11.586 11.586-.39.39-1.024.39-1.414 0-2.265-2.265-9.321-9.321-11.586-11.586z"/></clipPath><clipPath id="b"><path clip-rule="evenodd" d="m3.707 16.707c-.39-.39-.39-1.024 0-1.414 2.265-2.265 9.321-9.321 11.586-11.586.39-.39 1.024-.39 1.414 0 2.265 2.265 9.321 9.321 11.586 11.586.39.39.39 1.024 0 1.414-2.265 2.265-9.321 9.321-11.586 11.586-.39.39-1.024.39-1.414 0-2.265-2.265-9.321-9.321-11.586-11.586z"/></clipPath><metadata/><path d="m0 0h32v32h-32z" fill="none"/><path d="m16.143 1.417.144.01.142.017.142.024.142.031.139.038.139.045.137.052.135.058.133.066.13.072.127.079.123.087.12.092.115.099.092.088 11.622 11.622.088.092.099.115.093.12.086.123.079.127.072.13.066.133.059.135.051.137.045.138.038.14.031.142.024.142.017.142.01.144.003.143-.003.143-.01.144-.017.142-.024.142-.031.142-.038.14-.045.138-.051.137-.059.135-.066.133-.072.13-.079.127-.086.123-.093.12-.099.115-.088.092-11.622 11.622-.092.088-.115.099-.12.093-.123.086-.127.079-.13.072-.133.066-.135.059-.137.051-.138.045-.14.038-.142.031-.142.024-.142.017-.144.01-.143.003-.143-.003-.144-.01-.142-.017-.142-.024-.142-.031-.14-.038-.138-.045-.137-.051-.135-.059-.133-.066-.13-.072-.127-.079-.123-.086-.12-.093-.115-.099-.092-.088-11.622-11.622-.088-.092-.099-.115-.092-.12-.087-.123-.079-.127-.072-.13-.066-.133-.058-.135-.052-.137-.045-.139-.038-.139-.031-.142-.024-.142-.017-.142-.01-.144-.003-.143.003-.143.01-.144.017-.142.024-.142.031-.142.038-.139.045-.139.052-.137.058-.135.066-.133.072-.13.079-.127.087-.123.092-.12.099-.115.088-.092 11.622-11.622.092-.088.115-.099.12-.092.123-.087.127-.079.13-.072.133-.066.135-.058.137-.052.139-.045.139-.038.142-.031.142-.024.142-.017.144-.01.143-.003.143.003zm-10.315 14.583 10.172 10.172 10.172-10.172-10.172-10.172z"/><path d="m3.707 16.707c-.39-.39-.39-1.024 0-1.414 2.265-2.265 9.321-9.321 11.586-11.586.39-.39 1.024-.39 1.414 0 2.265 2.265 9.321 9.321 11.586 11.586.39.39.39 1.024 0 1.414-2.265 2.265-9.321 9.321-11.586 11.586-.39.39-1.024.39-1.414 0-2.265-2.265-9.321-9.321-11.586-11.586z" fill="#4cbf1e"/><g clip-path="url(#a)"><path d="m16 4s2.718 7.528 3.848 10.657c.111.307.066.648-.122.914-.187.267-.492.426-.818.426-4.467.001-17.908.003-17.908.003v-12z" fill="#77e34d"/></g><path d="m16.048 3.415.048.004.048.006.047.008.047.01.047.012.046.015.045.017.045.02.044.022.043.024.042.026.041.029.04.03.039.034.037.035 11.586 11.586.035.037.034.039.03.04.029.041.026.042.024.043.022.044.02.045.017.045.015.046.012.047.01.047.008.047.006.048.004.048.001.048-.001.048-.004.048-.006.048-.008.047-.01.047-.012.047-.015.046-.017.045-.02.045-.022.044-.024.043-.026.042-.029.041-.03.04-.034.039-.035.037-11.586 11.586-.037.035-.039.034-.04.03-.041.029-.042.026-.043.024-.044.022-.045.02-.045.017-.046.015-.047.012-.047.01-.047.008-.048.006-.048.004-.048.001-.048-.001-.048-.004-.048-.006-.047-.008-.047-.01-.047-.012-.046-.015-.045-.017-.045-.02-.044-.022-.043-.024-.042-.026-.041-.029-.04-.03-.039-.034-.037-.035-11.586-11.586-.035-.037-.034-.039-.03-.04-.029-.041-.026-.042-.024-.043-.022-.044-.02-.045-.017-.045-.015-.046-.012-.047-.01-.047-.008-.047-.006-.048-.004-.048-.001-.048.001-.048.004-.048.006-.048.008-.047.01-.047.012-.047.015-.046.017-.045.02-.045.022-.044.024-.043.026-.042.029-.041.03-.04.034-.039.035-.037 11.586-11.586.037-.035.039-.034.04-.03.041-.029.042-.026.043-.024.044-.022.045-.02.045-.017.046-.015.047-.012.047-.01.047-.008.048-.006.048-.004.048-.001zm-.057 1.008-11.568 11.568-.008.009.008.009 11.568 11.568.009.008.009-.008 11.568-11.568.008-.009-.008-.009-11.568-11.568-.009-.008z" fill="#4cbf1e"/><path d="m3.707 16.707c-.39-.39-.39-1.024 0-1.414 2.265-2.265 9.321-9.321 11.586-11.586.39-.39 1.024-.39 1.414 0 2.265 2.265 9.321 9.321 11.586 11.586.39.39.39 1.024 0 1.414-2.265 2.265-9.321 9.321-11.586 11.586-.39.39-1.024.39-1.414 0-2.265-2.265-9.321-9.321-11.586-11.586z" fill="none"/><g clip-path="url(#b)" fill="#fff"><path d="m13 10c0-.552-.448-1-1-1s-1 .448-1 1v2c0 .552.448 1 1 1s1-.448 1-1c0-.611 0-1.389 0-2z"/><path d="m13 20c0-.552-.448-1-1-1s-1 .448-1 1v2c0 .552.448 1 1 1s1-.448 1-1c0-.611 0-1.389 0-2z"/><path d="m25 20c0-.552-.448-1-1-1s-1 .448-1 1v2c0 .552.448 1 1 1s1-.448 1-1c0-.611 0-1.389 0-2z"/><path d="m25 10c0-.552-.448-1-1-1s-1 .448-1 1v2c0 .552.448 1 1 1s1-.448 1-1c0-.611 0-1.389 0-2z"/></g></svg>