<svg clip-rule="evenodd" fill-rule="evenodd" stroke-linejoin="round" stroke-miterlimit="2" viewBox="0 0 32 32" xmlns="http://www.w3.org/2000/svg" xmlns:xlink="http://www.w3.org/1999/xlink"><clipPath id="a"><path clip-rule="evenodd" d="m0 0h32v32h-32z"/></clipPath><clipPath id="b"><path clip-rule="evenodd" d="m5.497 11.472c-.129-2.465.76-4.876 2.459-6.667 1.7-1.791 4.06-2.805 6.529-2.805h3.07c2.469 0 4.829 1.014 6.529 2.805 1.699 1.791 2.588 4.202 2.459 6.667-.129 2.453-.258 4.91-.353 6.72-.099 1.868-.671 3.68-1.665 5.265-.537.857-1.155 1.843-1.746 2.786-1.465 2.338-4.03 3.757-6.789 3.757-2.79 0-5.379-1.449-6.839-3.826-.573-.934-1.169-1.906-1.688-2.75-.96-1.564-1.513-3.344-1.61-5.178-.095-1.815-.225-4.296-.356-6.774z"/></clipPath><metadata/><path d="m0 0h32v32h-32z" fill="none"/><g clip-path="url(#a)"><path d="m17.542 0 .154.001c.375.007.749.029 1.122.072.83.096 1.648.286 2.435.567 1.442.515 2.773 1.333 3.883 2.389 1.05.999 1.895 2.204 2.48 3.526l2.739-2.738 1.645.833v2.503l-1.824 11.856-.022.129c-.028.13-.033.163-.068.291-.064.237-.15.468-.257.69-.206.427-.488.815-.829 1.144v9.028l-.846.522-1.154-.577v1.764h-2.198l-4.614-.923c-.348.161-.706.302-1.071.422-1.005.331-2.062.5-3.12.501h-.009c-.108 0-.216-.002-.324-.005-1.015-.033-2.024-.221-2.983-.557-.301-.105-.596-.224-.885-.358l-4.598.92h-2.198v-1.764l-1.154.577-.846-.522v-9.028c-.376-.363-.68-.798-.89-1.277-.138-.314-.228-.641-.286-.977l-1.824-11.856v-2.503l1.645-.833 2.766 2.766c.378-.861.865-1.673 1.449-2.41 1.244-1.572 2.917-2.788 4.797-3.486.826-.306 1.689-.513 2.565-.614.373-.043.747-.065 1.122-.072l.154-.001h3.044z"/><path d="m12 16v13l-5 1v-3l-2 1v-12zm15 0v12l-2-1v3l-5-1v-13z" fill="#e6e6e6"/><path d="m29.736 8.718-.113.203-1.496 9.731s.023.159.049.17c-.165.733-.729 1.316-1.466 1.5-1.169.293-2.71.678-2.71.678v-8l6-6z" fill="#827599"/><path d="m2.264 8.718.113.203 1.496 9.731s-.023.159-.049.17c.165.733.729 1.316 1.466 1.5 1.169.293 2.71.678 2.71.678v-8l-6-6z" fill="#827599"/><path d="m29.736 8.718-1.534 9.968c-.007.046-.016.092-.026.136-.218-.098-.418-.236-.59-.408-.375-.375-.586-.884-.586-1.414v-5.519c.922-.911 1.834-1.832 2.736-2.763z" fill="#664e79"/><path d="m2.264 8.718 1.534 9.968c.007.046.016.092.026.136.218-.098.418-.236.59-.408.375-.375.586-.884.586-1.414v-5.519c-.922-.911-1.834-1.832-2.736-2.763z" fill="#664e79"/><path d="m5.497 11.472c-.129-2.465 6.519-7.472 8.988-7.472h3.07c2.469 0 9.117 5.007 8.988 7.472-.123 2.338-.246 4.679-.34 6.461-.107 2.038-.732 4.014-1.815 5.743-.504.804-1.068 1.704-1.609 2.567-1.465 2.338-4.03 3.757-6.789 3.757-2.79 0-5.379-1.449-6.839-3.826-.524-.855-1.069-1.742-1.555-2.533-1.047-1.707-1.651-3.649-1.756-5.649-.094-1.788-.218-4.156-.343-6.52z" fill="#827599"/><path d="m14 14.842c0-.223-.089-.437-.247-.595s-.372-.247-.595-.247c-1.023 0-2.781 0-4.158 0-.379 0-.725.214-.894.553-.17.339-.133.744.094 1.047.412.55.856 1.142 1.2 1.6.159.212.396.352.659.39.262.037.529-.031.741-.19.994-.745 2.614-1.96 3.074-2.306.079-.059.126-.152.126-.251zm4-.009c0-.46.373-.833.833-.833h4.167c.379 0 .725.214.894.553.17.339.133.744-.094 1.047-.412.55-.856 1.142-1.2 1.6-.159.212-.396.352-.659.39-.262.037-.529-.031-.741-.19-.988-.741-2.596-1.947-3.067-2.3-.084-.063-.133-.162-.133-.266 0-.001 0-.001 0-.001z"/><path d="m5.497 11.472c-.129-2.465.76-4.876 2.459-6.667 1.7-1.791 4.06-2.805 6.529-2.805h3.07c2.469 0 4.829 1.014 6.529 2.805 1.699 1.791 2.588 4.202 2.459 6.667-.129 2.453-.258 4.91-.353 6.72-.099 1.868-.671 3.68-1.665 5.265-.537.857-1.155 1.843-1.746 2.786-1.465 2.338-4.03 3.757-6.789 3.757-2.79 0-5.379-1.449-6.839-3.826-.573-.934-1.169-1.906-1.688-2.75-.96-1.564-1.513-3.344-1.61-5.178-.095-1.815-.225-4.296-.356-6.774z" fill="none"/><g clip-path="url(#b)"><path d="m16 10-3-3v6c-1.657 0-3-1.343-3-3 0-.574 0-1 0-1l-3 10-2-2.5v-15.5h22v15.5l-2 2.5-3-10v1.002c0 .795-.316 1.558-.878 2.12s-1.325.878-2.12.878h-.002v-6z" fill="#e6e6e6"/></g><path d="m20.036 23.001c.17.01.331.053.478.142.081.048.154.107.218.175.273.293.344.733.178 1.097-.055.119-.133.228-.228.317-.112.103-.242.174-.385.223-.744.208-1.498.381-2.249.563-.583.131-1.175.213-1.773.232-.55.016-1.102-.017-1.646-.101-.227-.035-.453-.081-.677-.131-.733-.178-1.463-.365-2.195-.548-.145-.041-.279-.104-.396-.201-.101-.084-.185-.187-.246-.303-.044-.083-.075-.172-.094-.264-.069-.333.041-.688.287-.924.081-.077.175-.141.277-.188.191-.087.397-.106.603-.072.744.164 1.478.373 2.219.552.454.102.914.166 1.379.18.609.019 1.214-.046 1.807-.18.723-.175 1.443-.36 2.164-.54.056-.012.055-.012.111-.021.056-.006.111-.009.168-.008zm-1.022-2.644-1.478.888-.082.047c-.241.128-.492.23-.758.294-.555.132-1.144.103-1.683-.085-.192-.067-.373-.155-.549-.256l-1.478-.888 1.028-1.714c.501.3.996.608 1.502.899.23.123.496.159.749.09.091-.025.175-.064.257-.111l1.464-.878c.343.571.685 1.143 1.028 1.714z" fill="#54396a"/></g></svg>