<svg clip-rule="evenodd" fill-rule="evenodd" stroke-linecap="round" stroke-linejoin="round" stroke-miterlimit="1.5" viewBox="0 0 32 32" xmlns="http://www.w3.org/2000/svg" xmlns:xlink="http://www.w3.org/1999/xlink"><clipPath id="a"><path clip-rule="evenodd" d="m0 0h32v32h-32z"/></clipPath><metadata/><path d="m0 0h32v32h-32z" fill="none"/><g clip-path="url(#a)"><g fill="none"><path d="m22.17 20.596.355.315c.876.779 1.373 1.898 1.362 3.07-.01 1.172-.527 2.282-1.417 3.045-.06.051-.121.103-.181.155-.852.73-1.969 1.075-3.084.953-1.116-.123-2.131-.701-2.804-1.599-1.621-2.161-3.401-4.535-3.401-4.535l-11-3 4-3-4-3 11-3s1.78-2.374 3.401-4.535c.673-.898 1.688-1.476 2.804-1.599 1.115-.122 2.232.223 3.084.953.06.052.121.104.181.155.89.763 1.407 1.873 1.417 3.045.011 1.172-.486 2.291-1.362 3.07l-.355.315c1.627-.909 3.615-.89 5.225.051 1.613.944 2.605 2.673 2.605 4.542v.006c0 1.869-.992 3.598-2.605 4.542-1.61.941-3.598.96-5.225.051z" stroke="#000" stroke-width="4"/><path d="m6 8 5-3" stroke="#000" stroke-width="7"/><path d="m6 24 5 3" stroke="#000" stroke-width="7"/><path d="m6 24 5 3" stroke="#fff" stroke-width="3"/></g><path d="m22.17 20.596.355.315c.876.779 1.373 1.898 1.362 3.07-.01 1.172-.527 2.282-1.417 3.045-.06.051-.121.103-.181.155-.852.73-1.969 1.075-3.084.953-1.116-.123-2.131-.701-2.804-1.599-1.621-2.161-3.401-4.535-3.401-4.535l-11-3 4-3-4-3 11-3s1.78-2.374 3.401-4.535c.673-.898 1.688-1.476 2.804-1.599 1.115-.122 2.232.223 3.084.953.06.052.121.104.181.155.89.763 1.407 1.873 1.417 3.045.011 1.172-.486 2.291-1.362 3.07l-.355.315c1.627-.909 3.615-.89 5.225.051 1.613.944 2.605 2.673 2.605 4.542v.006c0 1.869-.992 3.598-2.605 4.542-1.61.941-3.598.96-5.225.051z" fill="#fff"/><path d="m6 8 5-3" fill="none" stroke="#fff" stroke-width="3"/></g></svg>