<svg clip-rule="evenodd" fill-rule="evenodd" stroke-linejoin="round" stroke-miterlimit="2" viewBox="0 0 32 32" xmlns="http://www.w3.org/2000/svg" xmlns:xlink="http://www.w3.org/1999/xlink"><clipPath id="a"><path clip-rule="evenodd" d="m0 0h32v32h-32z"/></clipPath><metadata/><path d="m0 0h32v32h-32z" fill="none"/><g clip-path="url(#a)"><path d="m28 6c0-.53-.211-1.039-.586-1.414s-.884-.586-1.414-.586c-4.52 0-15.48 0-20 0-.53 0-1.039.211-1.414.586s-.586.884-.586 1.414v24c0 .53.211 1.039.586 1.414s.884.586 1.414.586h20c.53 0 1.039-.211 1.414-.586s.586-.884.586-1.414c0-5.154 0-18.846 0-24z"/><path d="m11.149.003.148.011.146.018.145.026.143.032.142.039.139.046.136.053.134.059.131.066.128.072.124.079.12.084.117.091.112.097.108.102.102.108.097.112.091.117.084.12.079.124.072.128.066.131.059.134.053.136.046.139.039.142.032.143.026.145.018.147.011.147.003.124v5.05l-.003.124-.011.147-.018.147-.026.145-.032.143-.039.142-.046.139-.053.136-.059.134-.066.131-.072.128-.079.124-.084.12-.091.117-.097.112-.102.108-.108.102-.112.097-.117.091-.12.084-.124.079-.128.072-.131.066-.134.059-.136.053-.139.046-.142.039-.143.032-.145.026-.147.018-.147.011-.149.004-.149-.004-.147-.011-.147-.018-.145-.026-.143-.032-.142-.039-.139-.046-.136-.053-.134-.059-.131-.066-.128-.072-.124-.079-.12-.084-.117-.091-.112-.097-.108-.102-.102-.108-.097-.112-.091-.117-.084-.12-.079-.124-.072-.128-.066-.131-.059-.134-.053-.136-.046-.139-.039-.142-.032-.143-.026-.145-.018-.147-.011-.147-.003-.124v-5.05l.003-.124.011-.147.018-.147.026-.145.032-.143.039-.142.046-.139.053-.136.059-.134.066-.131.072-.128.079-.124.084-.12.091-.117.097-.112.102-.108.108-.102.112-.097.117-.091.12-.084.124-.079.128-.072.131-.066.134-.059.136-.053.139-.046.142-.039.143-.032.145-.026.146-.018.148-.011.124-.003h.05l.124.003z"/><path d="m21.149.003.148.011.146.018.145.026.143.032.142.039.139.046.136.053.134.059.131.066.128.072.124.079.12.084.117.091.112.097.108.102.102.108.097.112.091.117.084.12.079.124.072.128.066.131.059.134.053.136.046.139.039.142.032.143.026.145.018.147.011.147.003.124v5.05l-.003.124-.011.147-.018.147-.026.145-.032.143-.039.142-.046.139-.053.136-.059.134-.066.131-.072.128-.079.124-.084.12-.091.117-.097.112-.102.108-.108.102-.112.097-.117.091-.12.084-.124.079-.128.072-.131.066-.134.059-.136.053-.139.046-.142.039-.143.032-.145.026-.147.018-.147.011-.149.004-.149-.004-.147-.011-.147-.018-.145-.026-.143-.032-.142-.039-.139-.046-.136-.053-.134-.059-.131-.066-.128-.072-.124-.079-.12-.084-.117-.091-.112-.097-.108-.102-.102-.108-.097-.112-.091-.117-.084-.12-.079-.124-.072-.128-.066-.131-.059-.134-.053-.136-.046-.139-.039-.142-.032-.143-.026-.145-.018-.147-.011-.147-.003-.124v-5.05l.003-.124.011-.147.018-.147.026-.145.032-.143.039-.142.046-.139.053-.136.059-.134.066-.131.072-.128.079-.124.084-.12.091-.117.097-.112.102-.108.108-.102.112-.097.117-.091.12-.084.124-.079.128-.072.131-.066.134-.059.136-.053.139-.046.142-.039.143-.032.145-.026.146-.018.148-.011.149-.004.149.004z"/><path d="m26 23-1-1h-18l-1 1v7h20z" fill="#808080"/><path d="m6 6h20v17h-20z" fill="#fff"/><path d="m13.11 21.2c-1.185 0-2.093-.258-2.722-.776-.63-.518-.945-1.263-.945-2.234v-.176h1.953v.128c0 .416.145.734.433.953s.704.328 1.249.328c.533 0 .944-.131 1.233-.392.288-.262.432-.627.432-1.097v-.24c0-.502-.152-.873-.456-1.113-.305-.24-.766-.36-1.385-.36h-.625v-1.778h.609c.544 0 .958-.117 1.241-.352.282-.235.424-.571.424-1.009v-.192c0-.416-.134-.739-.4-.969-.267-.229-.646-.344-1.137-.344-.502 0-.886.112-1.153.336s-.4.545-.4.961v.144h-1.922v-.144c0-.993.304-1.753.913-2.282.608-.528 1.478-.792 2.61-.792 1.11 0 1.98.256 2.61.768.63.513.944 1.217.944 2.114v.208c0 .512-.13.961-.392 1.345-.261.384-.643.689-1.145.913.566.192.996.507 1.289.944.294.438.441.972.441 1.602v.256c0 1.003-.334 1.796-1.001 2.378-.667.581-1.567.872-2.698.872z" fill-rule="nonzero"/><path d="m20.459 12.169-2.353 1.361v-2.161l2.353-1.393h2.098v11.048h-2.098z" fill-rule="nonzero"/><path d="m12 3c0-.265-.105-.52-.293-.707-.187-.188-.442-.293-.707-.293-.265 0-.52.105-.707.293-.188.187-.293.442-.293.707v5c0 .265.105.52.293.707.187.188.442.293.707.293.265 0 .52-.105.707-.293.188-.187.293-.442.293-.707 0-1.331 0-3.669 0-5z" fill="#666"/><path d="m22 3c0-.265-.105-.52-.293-.707-.187-.188-.442-.293-.707-.293-.265 0-.52.105-.707.293-.188.187-.293.442-.293.707v5c0 .265.105.52.293.707.187.188.442.293.707.293.265 0 .52-.105.707-.293.188-.187.293-.442.293-.707 0-1.331 0-3.669 0-5z" fill="#666"/><g fill="#fff" fill-rule="nonzero"><path d="m11.504 28.965c-.63 0-1.122-.175-1.475-.524-.353-.35-.529-.873-.529-1.568v-.746c0-.695.18-1.218.54-1.568.36-.349.857-.524 1.493-.524.625 0 1.117.175 1.475.524.357.35.536.873.536 1.568v.746c0 .691-.182 1.212-.547 1.564s-.862.528-1.493.528zm.029-.814c.724 0 1.086-.431 1.086-1.292v-.684c0-.897-.362-1.346-1.086-1.346-.372 0-.649.11-.83.331s-.271.56-.271 1.015v.684c0 .437.09.762.271.974s.458.318.83.318z"/><path d="m16.325 28.965c-.654 0-1.164-.175-1.528-.524-.365-.35-.547-.873-.547-1.568v-.746c0-.695.183-1.218.55-1.568.367-.349.878-.524 1.532-.524.597 0 1.074.143 1.429.431s.533.687.533 1.198v.056h-.925v-.028c0-.267-.092-.478-.275-.632-.184-.154-.438-.231-.762-.231-.386 0-.674.11-.865.331-.19.221-.286.56-.286 1.015v.684c0 .437.097.762.29.974s.482.318.868.318c.324 0 .577-.075.758-.225.182-.15.272-.356.272-.618v-.035h.918v.035c0 .525-.177.932-.53 1.222s-.83.435-1.432.435z"/><path d="m22.5 24.912h-1.461v3.977h-.924v-3.977h-1.461v-.788h3.846z"/></g></g></svg>