<svg clip-rule="evenodd" fill-rule="evenodd" stroke-linecap="round" stroke-linejoin="round" stroke-miterlimit="1.5" viewBox="0 0 32 32" xmlns="http://www.w3.org/2000/svg" xmlns:xlink="http://www.w3.org/1999/xlink"><clipPath id="a"><path clip-rule="evenodd" d="m0 0h32v32h-32z"/></clipPath><metadata/><path d="m0 0h32v32h-32z" fill="none"/><g clip-path="url(#a)"><path d="m16 1c4.243 0 8.313 1.686 11.314 4.686 3 3.001 4.686 7.071 4.686 11.314v2c0 7.18-5.82 13-13 13-1.972 0-4.028 0-6 0-7.18 0-13-5.82-13-13v-2c0-8.837 7.163-16 16-16z"/><path d="m30 17c0-3.713-1.475-7.274-4.101-9.899-2.625-2.626-6.186-4.101-9.899-4.101-7.732 0-14 6.268-14 14v2c0 6.075 4.925 11 11 11h6c6.075 0 11-4.925 11-11 0-.661 0-1.329 0-2z" fill="#fbc546"/><path d="m25.293 9.293c.101-.1.22-.178.353-.228.121-.046.249-.068.378-.065.125.003.249.03.364.078.103.043.199.104.282.179.081.074.15.161.204.256.15.27.166.603.043.886-.05.115-.122.219-.21.308l-2.293 2.293 2.293 2.293c.088.089.16.193.21.308.123.283.107.616-.043.886-.054.095-.123.182-.204.256-.083.075-.179.136-.282.179-.115.048-.239.075-.364.078-.129.003-.257-.019-.378-.065-.133-.05-.252-.128-.353-.228l-2.293-2.293-2.293 2.293c-.101.1-.22.178-.353.228-.121.046-.249.068-.378.065-.125-.003-.249-.03-.364-.078-.103-.043-.199-.104-.282-.179-.081-.074-.15-.161-.204-.256-.15-.27-.166-.603-.043-.886.05-.115.122-.219.21-.308l2.293-2.293-2.293-2.293c-.088-.089-.16-.193-.21-.308-.123-.283-.107-.616.043-.886.054-.095.123-.182.204-.256.083-.075.179-.136.282-.179.115-.048.239-.075.364-.078.129-.003.257.019.378.065.133.05.252.128.353.228l2.293 2.293z"/><path d="m11.293 9.293c.101-.1.22-.178.353-.228.121-.046.249-.068.378-.065.125.003.249.03.364.078.103.043.199.104.282.179.081.074.15.161.204.256.15.27.166.603.043.886-.05.115-.122.219-.21.308l-2.293 2.293 2.293 2.293c.088.089.16.193.21.308.123.283.107.616-.043.886-.054.095-.123.182-.204.256-.083.075-.179.136-.282.179-.115.048-.239.075-.364.078-.129.003-.257-.019-.378-.065-.133-.05-.252-.128-.353-.228l-2.293-2.293-2.293 2.293c-.101.1-.22.178-.353.228-.121.046-.249.068-.378.065-.125-.003-.249-.03-.364-.078-.103-.043-.199-.104-.282-.179-.081-.074-.15-.161-.204-.256-.15-.27-.166-.603-.043-.886.05-.115.122-.219.21-.308l2.293-2.293-2.293-2.293c-.088-.089-.16-.193-.21-.308-.123-.283-.107-.616.043-.886.054-.095.123-.182.204-.256.083-.075.179-.136.282-.179.115-.048.239-.075.364-.078.129-.003.257.019.378.065.133.05.252.128.353.228l2.293 2.293z"/><path d="m8 20s.755 1.132 1.609 2.413c.587.881 1.538 1.452 2.592 1.557 1.054.104 2.099-.27 2.847-1.018.001-.001.001-.001.002-.002.252-.252.594-.393.95-.393s.698.141.95.393l.002.002c.748.748 1.793 1.122 2.847 1.018 1.054-.105 2.005-.676 2.592-1.557.854-1.281 1.609-2.413 1.609-2.413" fill="none" stroke="#593604" stroke-width="2"/></g></svg>