<svg clip-rule="evenodd" fill-rule="evenodd" stroke-linejoin="round" stroke-miterlimit="1.41421" viewBox="0 0 32 32" xmlns="http://www.w3.org/2000/svg" xmlns:xlink="http://www.w3.org/1999/xlink"><clipPath id="a"><path clip-rule="evenodd" d="m0 0h32v32h-32z"/></clipPath><clipPath id="b"><path clip-rule="evenodd" d="m12 11s-.905-1.509-1.721-2.869c-.819-1.364-2.146-2.348-3.69-2.734-2.356-.589-5.589-1.397-5.589-1.397s.655 3.277 1.216 6.079c.456 2.28 2.458 3.921 4.783 3.921h.001l3 2"/></clipPath><clipPath id="c"><path clip-rule="evenodd" d="m20 11s.905-1.509 1.721-2.869c.819-1.364 2.146-2.348 3.69-2.734 2.356-.589 5.589-1.397 5.589-1.397s-.655 3.277-1.216 6.079c-.456 2.28-2.458 3.921-4.783 3.921-.001 0-.001 0-.001 0l-3 2"/></clipPath><metadata/><path d="m0 0h32v32h-32z" fill="none"/><g clip-path="url(#a)"><path d="m12.382 10c-2.02 0-3.813 1.292-4.451 3.208-.001.001-.001.001-.001.002-.604 1.811-.604 3.769 0 5.58.763 2.288 1.756 5.269 2.009 6.028.041.121.077.244.108.368.043.173.113.453.196.784.445 1.781 2.045 3.03 3.88 3.03h3.754c1.835 0 3.435-1.249 3.88-3.03.083-.331.153-.611.196-.784.031-.124.067-.247.108-.368.253-.759 1.246-3.74 2.009-6.028.604-1.811.604-3.769 0-5.58 0-.001 0-.001-.001-.002-.638-1.916-2.431-3.208-4.451-3.208-2.194 0-5.042 0-7.236 0z"/><path d="m19.753 8.001.134.004.133.007.133.009.133.012.132.015.131.017.131.019.13.023.129.024.129.027.127.03.127.032.126.035.125.037.125.039.123.041.122.044.121.047.12.048.119.051.118.053.117.055.115.058.114.059.113.062.112.064.111.066.109.068.108.07.106.072.105.074.104.076.102.078.1.081.1.082.097.083.096.086.094.088.093.09.091.091.089.093.088.095.085.097.084.099.083.1.08.102.078.104.077.105.074.107.073.109.071.11.068.112.066.113.065.115.062.116.06.118.058.119.055.121.053.122.051.123.049.125.046.126.042.122.036.11.033.105.033.105.03.105.03.105.029.105.028.106.026.106.026.106.024.106.023.107.023.106.021.107.02.107.019.107.018.108.017.107.015.108.015.107.014.108.012.108.011.108.011.108.009.108.008.108.007.108.006.109.005.107.004.109.003.108.001.108.001.109-.001.109-.001.108-.003.108-.004.109-.005.108-.006.108-.007.108-.008.108-.009.108-.011.108-.011.108-.012.108-.014.108-.015.107-.015.108-.017.107-.018.107-.019.108-.02.107-.021.106-.023.107-.023.107-.024.106-.026.106-.026.106-.028.106-.029.105-.03.105-.03.105-.033.105-.033.105-.032.099-2.008 6.023-.02.064-.017.055-.016.056-.017.065-.196.784-.03.114-.035.123-.037.123-.04.12-.042.12-.045.119-.047.117-.05.116-.052.114-.054.113-.056.112-.058.11-.061.109-.063.107-.065.106-.067.105-.068.102-.071.101-.073.1-.075.097-.077.097-.078.094-.081.093-.082.091-.084.089-.086.087-.087.086-.089.083-.091.082-.092.08-.094.078-.095.076-.097.074-.099.073-.1.07-.101.068-.103.066-.104.064-.106.062-.107.06-.108.058-.109.055-.111.053-.112.052-.113.048-.114.047-.115.044-.117.042-.117.04-.118.037-.12.035-.12.032-.121.03-.122.028-.123.025-.124.022-.124.02-.125.018-.126.014-.126.012-.127.01-.128.007-.128.004-.117.001h-3.776l-.117-.001-.128-.004-.128-.007-.127-.01-.126-.012-.126-.014-.125-.018-.124-.02-.124-.022-.123-.025-.122-.028-.121-.03-.12-.032-.12-.035-.118-.037-.117-.04-.117-.042-.115-.044-.114-.047-.113-.048-.112-.052-.111-.053-.109-.055-.108-.058-.107-.06-.106-.062-.104-.064-.103-.066-.101-.068-.1-.07-.099-.073-.097-.074-.095-.076-.094-.078-.092-.08-.091-.082-.089-.083-.087-.086-.086-.087-.084-.089-.082-.092-.081-.092-.078-.094-.077-.096-.075-.098-.073-.1-.071-.101-.068-.103-.067-.104-.065-.106-.063-.107-.061-.109-.058-.11-.056-.112-.054-.113-.052-.114-.05-.116-.047-.117-.045-.119-.042-.12-.04-.12-.037-.122-.035-.124-.03-.114-.196-.784-.017-.065-.016-.056-.017-.055-.02-.064-2.008-6.023-.032-.099-.034-.105-.031-.105-.031-.105-.03-.105-.029-.105-.028-.106-.026-.106-.026-.106-.024-.107-.023-.106-.023-.106-.021-.107-.02-.107-.019-.107-.018-.107-.017-.108-.015-.108-.015-.107-.014-.108-.012-.108-.011-.108-.011-.108-.009-.108-.008-.108-.007-.108-.006-.108-.005-.109-.004-.108-.003-.108-.001-.109-.001-.108.001-.108.001-.109.003-.108.004-.108.005-.109.006-.108.007-.108.008-.108.009-.108.011-.108.011-.108.012-.108.014-.108.015-.107.015-.108.017-.107.018-.108.019-.107.02-.107.021-.107.023-.106.023-.106.024-.107.026-.106.026-.106.028-.106.029-.105.03-.105.03-.105.032-.105.034-.105.037-.113.005-.015.036-.104.046-.126.049-.125.051-.123.053-.122.055-.121.058-.119.06-.118.062-.116.064-.115.067-.113.068-.112.071-.11.073-.109.074-.107.077-.105.078-.104.08-.102.082-.1.085-.099.085-.097.088-.095.089-.093.091-.091.093-.09.094-.088.096-.086.097-.083.1-.083.1-.08.102-.078.104-.076.105-.074.106-.072.108-.07.109-.068.111-.066.112-.064.113-.062.114-.059.115-.058.117-.055.118-.053.119-.051.12-.048.121-.047.122-.044.124-.041.124-.039.125-.037.126-.035.127-.032.127-.03.129-.027.129-.024.13-.023.131-.019.131-.017.132-.015.133-.012.133-.009.133-.007.134-.004.125-.001h7.256l.125.001zm-7.361 3.999-.065.001-.054.001-.054.003-.054.004-.053.005-.053.005-.053.007-.052.008-.052.009-.052.01-.052.011-.051.012-.051.013-.05.013-.051.015-.049.016-.05.017-.049.017-.049.019-.048.019-.047.021-.048.021-.047.022-.046.023-.046.024-.046.025-.045.026-.044.026-.045.028-.043.028-.043.029-.042.03-.042.031-.041.032-.041.032-.04.033-.039.034-.039.034-.037.036-.038.036-.036.036-.036.038-.036.038-.034.039-.034.04-.033.04-.032.041-.032.042-.03.042-.03.043-.029.043-.029.045-.027.044-.027.046-.025.046-.025.046-.024.047-.024.049-.022.048-.021.049-.021.05-.02.05-.018.051-.026.075.005-.013-.019.057-.021.066-.02.066-.02.066-.018.066-.018.067-.018.067-.017.066-.016.067-.015.067-.015.067-.014.068-.013.067-.013.067-.012.068-.011.067-.011.068-.01.068-.009.068-.008.068-.008.068-.007.068-.007.068-.006.068-.005.068-.004.068-.004.069-.003.068-.003.068-.001.068-.001.068-.001.069.001.069.001.068.001.068.003.068.003.069.004.068.004.068.005.068.006.068.007.068.007.068.008.068.008.069.009.067.01.068.011.067.011.068.012.068.013.067.013.067.014.068.015.067.015.067.016.067.017.067.017.066.019.067.018.066.02.066.02.066.021.066.023.071 2.011 6.031.038.119.039.129.036.129.032.121.195.783.014.052.012.041.012.041.014.041.014.04.015.039.015.039.017.039.017.038.018.037.019.037.019.037.02.036.021.035.021.035.023.035.022.034.024.034.024.033.025.032.026.032.026.032.027.031.027.03.028.03.029.029.029.029.03.028.03.027.031.027.031.026.032.025.033.025.033.024.033.024.034.023.034.022.035.021.036.021.035.02.036.019.037.019.037.017.037.017.038.017.037.015.039.015.038.014.039.013.04.012.039.012.04.011.04.009.041.01.04.008.041.007.042.007.041.006.042.005.043.004.042.003.043.002.043.001.054.001h3.732l.054-.001.043-.001.043-.002.042-.003.043-.004.042-.005.041-.006.042-.007.041-.007.04-.008.041-.01.04-.009.04-.011.039-.012.04-.012.039-.013.038-.014.039-.015.038-.015.037-.017.037-.017.037-.017.037-.019.036-.019.035-.02.036-.021.035-.021.034-.022.034-.023.033-.024.033-.024.033-.025.032-.025.031-.026.031-.027.03-.027.03-.028.029-.029.029-.029.028-.03.027-.03.027-.031.026-.032.026-.032.025-.032.024-.033.024-.034.023-.034.022-.034.021-.036.021-.035.02-.036.02-.037.018-.037.018-.037.017-.038.017-.039.015-.039.015-.039.014-.04.014-.041.012-.04.012-.042.014-.052.195-.783.032-.121.036-.129.039-.129.038-.118 2.011-6.032.023-.071.021-.066.02-.066.02-.066.018-.066.018-.067.018-.067.017-.066.016-.067.015-.067.015-.068.014-.066.013-.068.013-.067.012-.067.011-.068.011-.068.01-.068.009-.068.008-.068.008-.067.007-.069.007-.068.006-.068.005-.068.004-.068.004-.068.003-.069.003-.068.001-.068.001-.069.001-.068-.001-.068-.001-.069-.001-.068-.003-.068-.003-.069-.004-.068-.004-.068-.005-.068-.006-.068-.007-.068-.007-.069-.008-.067-.008-.068-.009-.068-.01-.068-.011-.068-.011-.067-.012-.068-.013-.067-.013-.067-.014-.067-.015-.068-.015-.067-.016-.067-.017-.067-.017-.066-.019-.067-.018-.066-.02-.066-.02-.066-.021-.066-.02-.063-.02-.056-.019-.051-.019-.05-.021-.05-.021-.049-.022-.048-.024-.048-.024-.048-.025-.046-.025-.046-.027-.046-.028-.045-.028-.044-.029-.043-.03-.043-.03-.042-.032-.042-.032-.041-.033-.04-.034-.04-.034-.039-.036-.038-.035-.037-.037-.037-.038-.036-.037-.036-.039-.034-.039-.034-.04-.033-.041-.033-.041-.031-.042-.031-.042-.03-.043-.029-.044-.028-.043-.027-.045-.027-.045-.026-.046-.025-.046-.024-.046-.023-.047-.022-.047-.021-.048-.021-.049-.019-.048-.019-.049-.017-.05-.017-.049-.016-.051-.015-.05-.013-.051-.013-.051-.012-.052-.011-.052-.01-.052-.009-.052-.008-.053-.007-.053-.005-.053-.005-.054-.004-.054-.003-.054-.001-.065-.001h-7.216z"/><path d="m12 11s-.905-1.509-1.721-2.869c-.819-1.364-2.146-2.348-3.69-2.734-2.356-.589-5.589-1.397-5.589-1.397s.655 3.277 1.216 6.079c.456 2.28 2.458 3.921 4.783 3.921h.001l3 2" fill="#dcc9a6"/><g clip-path="url(#b)"><path d="m7.08 3.458.09.024.096.025.096.027.094.029.095.029.094.03.094.032.092.033.093.033.092.035.092.036.091.037.09.039.09.039.09.04.089.042.088.042.087.044.088.044.087.046.085.047.086.047.084.049.084.05.084.05.083.052.082.053.081.054.081.054.08.056.08.057.079.057.077.059.078.059.076.061.076.061.075.062.075.064.073.064.073.065.072.066.071.067.071.068.069.068.069.07.068.07.067.071.067.072.066.073.064.074.064.075.063.075.062.076.061.078.06.078.059.078.059.08.057.08.057.081.055.082.055.083.053.083.053.084.049.08 2.753 4.589-3.43 2.058-2.747-4.579-.029-.047-.026-.042-.027-.042-.028-.042-.027-.04-.029-.041-.028-.04-.03-.04-.029-.039-.03-.039-.031-.038-.031-.039-.031-.038-.032-.037-.033-.037-.032-.036-.033-.036-.034-.036-.034-.035-.034-.035-.035-.034-.035-.034-.036-.033-.036-.034-.037-.032-.036-.032-.037-.032-.038-.031-.038-.031-.038-.03-.039-.03-.039-.029-.04-.029-.039-.028-.04-.028-.041-.027-.04-.027-.041-.026-.042-.026-.041-.026-.043-.024-.042-.025-.042-.024-.044-.023-.043-.023-.043-.022-.044-.022-.044-.021-.045-.021-.045-.02-.045-.02-.045-.019-.045-.018-.046-.018-.046-.018-.046-.017-.047-.016-.047-.016-.047-.015-.047-.015-.047-.014-.048-.013-.048-.013-.054-.014-2.517-.629.594 2.969.015.074.015.062.016.062.017.061.019.061.019.059.021.06.023.058.023.058.024.057.026.056.027.056.028.055.029.054.03.054.031.052.032.052.034.051.034.051.036.049.036.049.038.048.038.048.04.046.04.045.041.045.043.044.043.043.044.042.045.041.046.039.046.04.048.038.048.037.049.036.05.035.05.034.051.033.052.031.053.031.053.03.054.028.055.028.055.026.055.025.056.024.057.022.057.022.058.02.059.019.059.018.059.017.06.015.06.014.061.013.061.012.061.01.062.009.063.007.063.007.063.005.064.003.064.002.076.001h.596l5.168 3.445-2.219 3.328-4.207-2.804-.107-.011-.149-.018-.149-.021-.148-.025-.146-.027-.146-.031-.145-.034-.143-.037-.143-.04-.141-.043-.14-.045-.139-.049-.137-.052-.136-.054-.135-.057-.133-.06-.132-.063-.13-.065-.129-.068-.127-.071-.125-.074-.124-.075-.122-.079-.121-.081-.118-.083-.117-.086-.115-.088-.113-.091-.111-.093-.109-.095-.107-.098-.105-.1-.103-.102-.101-.104-.098-.106-.097-.109-.094-.111-.092-.113-.09-.115-.087-.116-.085-.119-.083-.121-.079-.123-.078-.125-.075-.126-.072-.128-.07-.13-.067-.133-.065-.133-.061-.135-.059-.137-.056-.139-.053-.14-.05-.141-.047-.143-.044-.144-.041-.146-.038-.147-.035-.149-.029-.138-1.666-8.33.678-.646 7.811 1.952z" fill="#bb9753"/></g><path d="m6.834 4.428.082.021.084.022.083.024.083.025.083.025.082.027.082.028.081.028.081.03.081.03.08.032.08.032.079.034.079.034.078.035.078.037.077.037.077.038.076.039.076.04.075.041.074.041.075.043.073.043.073.045.073.045.071.046.072.047.071.048.07.049.069.049.069.051.068.051.068.052.067.053.066.054.066.054.065.055.065.057.063.057.063.057.063.059.061.059.061.06.061.061.059.062.059.062.058.063.057.064.057.064.056.066.055.066.054.066.053.068.053.068.052.069.051.07.05.07.05.071.048.072.048.072.047.073.046.073.044.072 2.237 3.729-1.715 1.029-2.234-3.724-.034-.056-.033-.052-.034-.052-.034-.052-.034-.051-.036-.051-.036-.05-.036-.05-.037-.049-.038-.049-.038-.048-.039-.047-.039-.047-.04-.047-.04-.046-.041-.046-.042-.045-.042-.044-.042-.044-.043-.044-.044-.043-.044-.042-.044-.042-.045-.041-.046-.041-.046-.04-.046-.039-.047-.039-.048-.039-.048-.038-.048-.037-.049-.036-.049-.036-.049-.036-.051-.034-.05-.035-.051-.033-.051-.033-.052-.033-.052-.031-.053-.031-.053-.031-.053-.03-.054-.029-.054-.028-.054-.028-.055-.027-.055-.027-.056-.026-.056-.025-.056-.025-.057-.023-.056-.024-.058-.022-.057-.022-.058-.021-.058-.02-.059-.02-.058-.019-.06-.019-.059-.017-.059-.017-.06-.016-.064-.016-4.053-1.014.905 4.524.019.091.02.083.021.083.024.083.025.081.026.081.028.08.03.078.032.078.033.077.034.076.037.076.037.074.039.073.041.072.042.071.044.07.045.069.046.069.048.066.05.066.05.065.052.064.053.062.055.061.055.06.057.059.058.058.06.057.06.055.062.053.062.053.064.051.065.05.066.049.067.047.068.045.069.045.07.042.07.042.072.04.073.038.073.037.074.035.075.034.076.032.077.031.077.029.078.027.079.026.079.024.081.023.08.02.082.019.082.018.082.015.083.014.084.012.084.01.085.009.085.006.086.005.086.003.093.001h.298l4.084 2.723-1.11 1.664-3.593-2.396-.076-.004-.129-.01-.128-.013-.128-.015-.127-.018-.126-.021-.125-.024-.125-.026-.123-.029-.123-.032-.122-.034-.12-.036-.12-.039-.119-.042-.117-.044-.116-.047-.115-.048-.114-.052-.113-.053-.111-.056-.11-.058-.109-.061-.107-.063-.106-.064-.104-.067-.103-.07-.101-.071-.1-.073-.098-.076-.097-.077-.095-.08-.093-.081-.091-.084-.09-.085-.088-.087-.086-.089-.085-.092-.082-.092-.081-.095-.078-.096-.077-.099-.075-.099-.072-.102-.071-.103-.068-.105-.066-.107-.064-.108-.062-.109-.06-.111-.057-.113-.055-.114-.053-.116-.05-.116-.048-.119-.045-.12-.043-.12-.04-.123-.038-.123-.035-.124-.032-.126-.03-.127-.026-.123-1.441-7.204.339-.323 6.7 1.675z"/><path d="m20 11s.905-1.509 1.721-2.869c.819-1.364 2.146-2.348 3.69-2.734 2.356-.589 5.589-1.397 5.589-1.397s-.655 3.277-1.216 6.079c-.456 2.28-2.458 3.921-4.783 3.921-.001 0-.001 0-.001 0l-3 2" fill="#dcc9a6"/><g clip-path="url(#c)"><path d="m33.409 2.152-1.666 8.33-.029.138-.035.149-.038.147-.041.146-.044.144-.047.143-.05.141-.053.14-.056.139-.059.137-.061.135-.065.133-.067.133-.07.13-.072.128-.075.126-.078.125-.079.123-.083.121-.085.119-.087.116-.09.115-.092.113-.094.111-.097.109-.098.106-.101.104-.103.102-.105.1-.107.098-.109.095-.111.093-.113.091-.115.088-.117.086-.118.083-.121.081-.122.079-.124.075-.125.074-.127.071-.129.068-.13.065-.132.063-.133.06-.135.057-.136.054-.137.052-.139.049-.14.045-.141.043-.143.04-.143.037-.145.034-.146.031-.146.027-.148.025-.149.021-.149.018-.107.011-4.207 2.804-2.219-3.328 5.168-3.445h.596l.076-.001.064-.002.064-.003.063-.005.063-.007.063-.007.062-.009.061-.01.061-.012.061-.013.06-.014.06-.015.059-.017.059-.018.059-.019.058-.02.057-.022.057-.022.056-.024.055-.025.055-.026.055-.028.054-.028.053-.03.053-.031.052-.031.051-.033.05-.034.05-.035.049-.036.048-.037.048-.038.046-.04.046-.039.045-.041.044-.042.043-.043.043-.044.041-.045.04-.045.04-.046.038-.048.038-.048.036-.049.036-.049.034-.051.034-.051.032-.052.031-.052.03-.054.029-.054.028-.055.027-.056.026-.056.024-.057.023-.058.023-.058.021-.06.019-.059.019-.061.017-.061.016-.062.015-.062.015-.074.594-2.969-2.517.629-.054.014-.048.013-.048.013-.047.014-.047.015-.047.015-.047.016-.047.016-.046.017-.046.018-.046.018-.045.018-.045.019-.045.02-.045.02-.045.021-.044.021-.044.022-.043.022-.043.023-.044.023-.042.024-.042.025-.043.024-.041.026-.042.026-.041.026-.04.027-.041.027-.04.028-.039.028-.04.029-.039.029-.039.03-.038.03-.038.031-.038.031-.037.032-.036.032-.037.032-.036.034-.036.033-.035.034-.035.034-.034.035-.034.035-.034.036-.033.036-.032.036-.033.037-.032.037-.031.038-.031.039-.031.038-.03.039-.029.039-.03.04-.028.04-.029.041-.027.04-.028.042-.027.042-.026.042-.029.047-2.747 4.579-3.43-2.058 2.753-4.589.049-.08.053-.084.053-.083.055-.083.055-.082.057-.081.057-.08.059-.08.059-.078.06-.078.061-.078.062-.076.063-.075.064-.075.064-.074.066-.073.067-.072.067-.071.068-.07.069-.07.069-.068.071-.068.071-.067.072-.066.073-.065.073-.064.075-.064.075-.062.076-.061.076-.061.078-.059.077-.059.079-.057.08-.057.08-.056.081-.054.081-.054.082-.053.083-.052.084-.05.084-.05.084-.049.086-.047.085-.047.087-.046.088-.044.087-.044.088-.042.089-.042.09-.04.09-.039.09-.039.091-.037.092-.036.092-.035.093-.033.092-.033.094-.032.094-.03.095-.029.094-.029.096-.027.096-.025.09-.024 7.811-1.952.678.646z" fill="#bb9753"/></g><path d="m32.205 3.076-1.441 7.204-.026.123-.03.127-.032.126-.035.124-.038.123-.04.123-.043.12-.045.12-.048.119-.05.116-.053.116-.055.114-.057.113-.06.111-.062.109-.064.108-.066.107-.068.105-.071.103-.072.102-.075.099-.077.099-.078.096-.081.095-.082.092-.085.092-.086.089-.088.087-.09.085-.091.084-.093.081-.095.08-.097.077-.098.076-.1.073-.101.071-.103.07-.104.067-.106.064-.107.063-.109.061-.11.058-.111.056-.113.053-.114.052-.115.048-.116.047-.117.044-.119.042-.12.039-.12.036-.122.034-.123.032-.123.029-.125.026-.125.024-.126.021-.127.018-.128.015-.128.013-.129.01-.076.004-3.593 2.396-1.11-1.664 4.084-2.723h.298l.093-.001.086-.003.086-.005.085-.006.085-.009.084-.01.084-.012.083-.014.082-.015.082-.018.082-.019.08-.02.081-.023.079-.024.079-.026.078-.027.077-.029.077-.031.076-.032.075-.034.074-.035.073-.037.073-.038.072-.04.07-.042.07-.042.069-.045.068-.045.067-.047.066-.049.065-.05.064-.051.062-.053.062-.053.06-.055.06-.057.058-.058.057-.059.055-.06.055-.061.053-.062.052-.064.05-.065.05-.066.048-.066.046-.069.045-.069.044-.07.042-.071.041-.072.039-.073.037-.074.037-.076.034-.076.033-.077.032-.078.03-.078.028-.08.026-.081.025-.081.024-.083.021-.083.02-.083.019-.091.905-4.524-4.053 1.014-.064.016-.06.016-.059.017-.059.017-.06.019-.058.019-.059.02-.058.02-.058.021-.057.022-.058.022-.056.024-.057.023-.056.025-.056.025-.056.026-.055.027-.055.027-.054.028-.054.028-.054.029-.053.03-.053.031-.053.031-.052.031-.052.033-.051.033-.051.033-.05.035-.051.034-.049.036-.049.036-.049.036-.048.037-.048.038-.048.039-.047.039-.046.039-.046.04-.046.041-.045.041-.044.042-.044.042-.044.043-.043.044-.042.044-.042.044-.042.045-.041.046-.04.046-.04.047-.039.047-.039.047-.038.048-.038.049-.037.049-.036.05-.036.05-.036.051-.034.051-.034.052-.034.052-.033.052-.034.056-2.234 3.724-1.715-1.029 2.237-3.729.044-.072.046-.073.047-.073.048-.072.048-.072.05-.071.05-.07.051-.07.052-.069.053-.068.053-.068.054-.066.055-.066.056-.066.057-.064.057-.064.058-.063.059-.062.059-.062.061-.061.061-.06.061-.059.063-.059.063-.057.063-.057.065-.057.065-.055.066-.054.066-.054.067-.053.068-.052.068-.051.069-.051.069-.049.07-.049.071-.048.072-.047.071-.046.073-.045.073-.045.073-.043.075-.043.074-.041.075-.041.076-.04.076-.039.077-.038.077-.037.078-.037.078-.035.079-.034.079-.034.08-.032.08-.032.081-.03.081-.03.081-.028.082-.028.082-.027.083-.025.083-.025.083-.024.084-.022.082-.021 6.7-1.675.339.323z"/><path d="m12.382 10c-2.02 0-3.813 1.292-4.451 3.208-.001.001-.001.001-.001.002-.604 1.811-.604 3.769 0 5.58.763 2.288 1.756 5.269 2.009 6.028.041.121.077.244.108.368.043.173.113.453.196.784.445 1.781 2.045 3.03 3.88 3.03h3.754c1.835 0 3.435-1.249 3.88-3.03.083-.331.153-.611.196-.784.031-.124.067-.247.108-.368.253-.759 1.246-3.74 2.009-6.028.604-1.811.604-3.769 0-5.58 0-.001 0-.001-.001-.002-.638-1.916-2.431-3.208-4.451-3.208-2.194 0-5.042 0-7.236 0z" fill="#bb9753"/><path d="m18.531 26.001.032.003.031.005.03.007.031.008.029.011.029.013.028.014.027.016.026.017.025.02.023.021.022.022.021.023.02.025.017.026.016.027.014.028.013.029.011.029.008.031.007.03.005.031.003.032.001.031-.001.031-.003.032-.005.031-.007.03-.008.031-.011.029-.013.029-.014.028-.016.027-.017.026-.02.025-.021.023-.022.022-.023.021-.025.02-.026.017-.027.016-.028.014-.029.013-.029.011-.031.008-.03.007-.031.005-.032.003-.031.001h-5l-.031-.001-.032-.003-.031-.005-.03-.007-.031-.008-.029-.011-.029-.013-.028-.014-.027-.016-.026-.017-.025-.02-.023-.021-.022-.022-.021-.023-.02-.025-.017-.026-.016-.027-.014-.028-.013-.029-.011-.029-.008-.031-.007-.03-.005-.031-.003-.032-.001-.031.001-.031.003-.032.005-.031.007-.03.008-.031.011-.029.013-.029.014-.028.016-.027.017-.026.02-.025.021-.023.022-.022.023-.021.025-.02.026-.017.027-.016.028-.014.029-.013.029-.011.031-.008.03-.007.031-.005.032-.003.031-.001h5z" fill="#57422d"/><path d="m24 15s-.28.841-.544 1.632c-.272.817-1.037 1.368-1.898 1.368-.768 0-1.558 0-1.558 0 0-1.657 1.343-3 3-3z"/><path d="m8 15s.28.841.544 1.632c.272.817 1.037 1.368 1.898 1.368h1.558c0-1.657-1.343-3-3-3-.574 0-1 0-1 0z"/><path d="m14.882 21c-1.039 0-1.882.843-1.882 1.882v.001c0 .075.03.147.083.2.239.239.917.917.917.917v.001c0 .552.447.999.999.999h2.001c.552 0 1-.448 1-1s.678-.678.917-.917c.053-.053.083-.125.083-.2v-.001c0-1.039-.843-1.882-1.882-1.882-.713 0-1.523 0-2.236 0z"/></g></svg>