<svg clip-rule="evenodd" fill-rule="evenodd" stroke-linecap="round" viewBox="0 0 32 32" xmlns="http://www.w3.org/2000/svg" xmlns:xlink="http://www.w3.org/1999/xlink"><clipPath id="a"><path clip-rule="evenodd" d="m0 0h32v32h-32z"/></clipPath><clipPath id="b"><path clip-rule="evenodd" d="m20 18s.325-.488.713-1.07c.828-1.242 2.089-2.131 3.537-2.493 2.367-.591 5.75-1.437 5.75-1.437s-.701 2.802-1.272 5.09c-.428 1.71-1.965 2.91-3.728 2.91l-3 2"/></clipPath><clipPath id="c"><path clip-rule="evenodd" d="m12 18s-.325-.488-.713-1.07c-.828-1.242-2.089-2.131-3.537-2.493-2.367-.591-5.75-1.437-5.75-1.437s.701 2.802 1.272 5.09c.428 1.71 1.965 2.91 3.728 2.91l3 2"/></clipPath><metadata/><path d="m0 0h32v32h-32z" fill="none"/><g clip-path="url(#a)"><path d="m12.985 13c-1.782 0-3.365 1.141-3.929 2.832 0 .001 0 .001-.001.002-.679 2.039-.587 4.258.26 6.234.63 1.47 1.305 3.045 1.569 3.662.077.178.116.37.116.564v.002c0 2.046 1.658 3.704 3.704 3.704h2.592c2.046 0 3.704-1.658 3.704-3.704 0-.001 0-.001 0-.002 0-.194.039-.386.116-.564.264-.617.939-2.192 1.569-3.662.847-1.976.939-4.195.26-6.234-.001-.001-.001-.001-.001-.002-.564-1.691-2.147-2.832-3.929-2.832-1.84 0-4.19 0-6.03 0z"/><path d="m19.138 11.001.123.004.123.006.122.008.121.011.122.014.12.015.12.018.119.021.119.022.118.025.117.028.117.029.115.032.115.034.114.036.113.038.112.04.111.043.111.044.109.047.108.048.107.051.106.053.105.054.104.057.102.059.102.06.1.063.099.064.098.066.096.068.095.07.094.072.092.073.091.076.089.077.088.079.087.08.085.082.084.084.082.086.08.087.079.089.077.09.075.092.074.094.072.095.07.097.068.098.067.1.065.101.063.103.061.104.059.105.057.107.055.108.053.109.051.111.049.112.046.113.045.114.042.116.038.108.005.017.036.111.038.118.035.118.034.118.033.119.032.119.03.119.029.119.027.12.026.12.025.121.023.12.022.12.02.121.019.121.018.121.016.121.015.121.013.121.013.121.01.122.01.122.008.121.006.122.006.122.003.121.003.122.001.122v.121l-.002.122-.003.122-.004.122-.006.121-.007.122-.009.121-.009.122-.012.121-.012.121-.014.121-.016.121-.016.12-.018.121-.02.12-.021.12-.022.12-.023.12-.025.12-.027.119-.027.119-.029.119-.031.118-.031.119-.033.118-.035.117-.036.118-.037.117-.038.116-.04.117-.042.116-.042.115-.044.115-.046.115-.046.114-.046.109-1.527 3.564-.001.028-.005.146-.009.145-.013.144-.017.143-.019.142-.024.142-.027.139-.03.139-.034.138-.036.136-.041.136-.043.133-.047.132-.049.131-.053.129-.056.127-.058.126-.062.124-.064.122-.068.121-.07.118-.073.117-.075.115-.078.112-.081.111-.083.109-.086.106-.088.105-.091.102-.093.1-.096.097-.097.096-.1.093-.102.09-.105.089-.106.086-.109.083-.111.081-.112.078-.115.075-.117.073-.118.07-.121.067-.122.065-.124.062-.126.058-.127.056-.129.053-.131.049-.132.047-.133.043-.136.041-.136.036-.138.034-.139.03-.14.027-.141.024-.142.019-.143.017-.144.013-.145.009-.146.005-.133.002h-2.618l-.133-.002-.146-.005-.145-.009-.144-.013-.143-.017-.142-.019-.141-.024-.14-.027-.139-.03-.138-.034-.136-.036-.135-.041-.134-.043-.132-.047-.131-.049-.129-.053-.127-.056-.126-.058-.124-.062-.122-.065-.121-.067-.118-.07-.117-.073-.115-.075-.112-.078-.111-.081-.109-.083-.106-.086-.105-.088-.102-.091-.1-.093-.097-.096-.096-.097-.093-.1-.091-.102-.088-.105-.086-.106-.083-.109-.081-.111-.078-.112-.075-.115-.073-.117-.07-.118-.067-.121-.065-.122-.062-.124-.058-.126-.056-.127-.053-.129-.05-.131-.046-.132-.043-.133-.041-.136-.036-.136-.034-.138-.03-.139-.027-.14-.024-.141-.019-.142-.017-.143-.013-.144-.009-.145-.005-.146-.001-.028-1.527-3.564-.046-.108-.046-.115-.046-.115-.044-.115-.042-.115-.042-.116-.04-.117-.038-.116-.037-.117-.036-.117-.035-.119-.033-.117-.031-.118-.031-.119-.029-.119-.027-.119-.027-.119-.025-.12-.023-.12-.022-.12-.021-.12-.02-.12-.018-.121-.016-.121-.016-.12-.014-.121-.012-.121-.012-.121-.009-.122-.009-.121-.007-.122-.006-.121-.004-.122-.003-.122-.002-.121v-.122l.001-.122.003-.121.003-.122.006-.122.006-.122.008-.122.01-.121.01-.121.013-.122.013-.121.015-.121.016-.121.018-.121.019-.121.02-.121.022-.12.023-.121.025-.12.026-.12.027-.119.029-.12.03-.119.032-.119.033-.119.034-.118.035-.118.038-.118.04-.124.006-.017.033-.095.042-.116.045-.114.046-.113.049-.112.051-.111.053-.109.055-.108.057-.107.059-.105.061-.104.063-.103.065-.101.066-.1.069-.098.07-.097.072-.095.074-.094.075-.092.077-.09.079-.089.08-.087.082-.086.084-.084.085-.082.087-.08.087-.079.09-.077.091-.076.092-.073.094-.072.095-.07.097-.068.097-.066.099-.064.1-.063.102-.06.102-.059.104-.057.105-.054.106-.053.107-.051.108-.048.109-.047.111-.044.111-.043.112-.04.113-.038.114-.036.115-.034.115-.032.117-.029.117-.028.118-.025.119-.022.119-.021.12-.018.12-.015.122-.014.121-.011.122-.008.123-.006.123-.004.113-.001h6.05zm-6.143 3.999-.053.001-.043.001-.043.002-.043.003-.042.004-.043.004-.042.006-.041.006-.042.007-.041.008-.041.009-.041.009-.04.01-.04.011-.04.012-.04.013-.039.013-.039.014-.039.015-.038.015-.038.017-.038.017-.037.017-.037.019-.037.019-.036.019-.036.021-.036.021-.034.022-.035.022-.034.024-.034.023-.033.025-.033.025-.032.026-.032.026-.031.027-.031.027-.031.029-.029.028-.029.029-.029.03-.028.031-.027.031-.027.031-.026.032-.026.033-.025.033-.024.034-.024.034-.023.034-.023.036-.022.035-.021.036-.02.037-.02.037-.019.038-.019.038-.018.038-.017.039-.016.04-.016.04-.014.041-.022.062.005-.013-.022.067-.024.074-.022.075-.022.074-.02.075-.02.075-.019.075-.018.075-.017.075-.017.076-.015.075-.015.076-.013.075-.013.076-.012.076-.011.076-.011.076-.009.076-.008.077-.008.076-.007.077-.006.076-.005.077-.004.076-.003.077-.003.076-.001.077-.001.076v.077l.001.077.002.076.003.076.003.077.005.076.005.077.006.076.007.076.008.076.009.076.01.077.01.075.012.076.012.076.013.076.014.075.015.075.015.075.017.075.017.075.019.075.019.074.02.075.021.074.021.074.023.074.023.073.024.074.025.073.026.073.027.072.028.073.028.072.03.072.032.077 1.572 3.669.029.068.031.082.029.082.027.082.025.083.023.084.021.084.018.085.016.085.015.086.012.086.01.086.007.086.006.087.003.086.001.075.001.06.001.044.003.044.004.044.005.043.006.042.007.042.008.041.009.042.01.04.011.041.011.039.013.04.014.039.015.038.015.039.017.037.017.038.018.037.02.036.02.036.021.035.021.035.023.034.023.034.025.033.025.033.025.032.027.031.027.031.028.03.029.03.03.029.03.028.031.027.031.027.032.025.033.025.033.025.034.023.034.023.035.021.035.021.036.02.037.02.036.018.038.017.037.017.038.015.039.015.039.014.04.013.039.011.041.011.04.01.041.009.042.008.042.007.042.006.043.005.044.004.044.003.044.001.058.001h2.566l.058-.001.044-.001.044-.003.044-.004.043-.005.042-.006.042-.007.042-.008.041-.009.04-.01.041-.011.039-.011.04-.013.039-.014.038-.015.039-.015.037-.017.038-.017.036-.018.037-.02.036-.02.035-.021.035-.021.034-.023.034-.023.033-.025.033-.025.032-.025.031-.027.031-.027.03-.028.03-.029.029-.03.028-.03.027-.031.026-.031.026-.032.025-.033.025-.033.023-.034.023-.034.021-.035.021-.035.02-.036.02-.037.018-.036.017-.038.017-.037.015-.039.015-.038.014-.039.013-.04.011-.039.011-.041.01-.04.009-.041.008-.042.007-.042.006-.042.005-.043.004-.044.003-.044.001-.044.001-.058v-.002l.001-.075.003-.086.006-.087.007-.086.01-.086.012-.087.015-.085.016-.085.018-.085.021-.084.023-.084.025-.083.027-.083.029-.082.031-.081.029-.068 1.572-3.669.032-.077.03-.072.028-.072.028-.072.027-.073.026-.073.025-.073.024-.074.023-.073.023-.074.022-.074.02-.074.02-.074.019-.075.019-.075.017-.075.017-.075.015-.075.015-.075.014-.075.013-.076.012-.076.012-.076.01-.076.01-.076.009-.075.007-.077.008-.076.006-.076.005-.077.005-.076.003-.077.003-.076.002-.077.001-.076v-.077l-.001-.076-.001-.077-.003-.076-.003-.077-.004-.076-.005-.077-.006-.077-.007-.076-.008-.076-.008-.077-.009-.076-.011-.076-.011-.076-.012-.076-.013-.076-.013-.075-.015-.076-.015-.076-.017-.075-.017-.075-.018-.075-.019-.075-.02-.075-.02-.075-.022-.074-.022-.075-.024-.074-.023-.071-.015-.045-.015-.041-.016-.04-.016-.04-.017-.039-.018-.038-.019-.038-.019-.038-.02-.037-.02-.037-.021-.036-.022-.036-.023-.035-.023-.034-.024-.035-.024-.033-.025-.033-.026-.033-.026-.032-.027-.031-.027-.031-.028-.031-.029-.03-.029-.029-.03-.029-.03-.028-.031-.027-.031-.027-.032-.026-.032-.026-.033-.025-.033-.025-.034-.023-.034-.024-.034-.022-.035-.022-.036-.021-.036-.021-.036-.019-.037-.019-.037-.019-.037-.017-.038-.017-.038-.017-.038-.015-.039-.015-.039-.014-.039-.013-.04-.013-.04-.012-.04-.011-.04-.01-.041-.009-.041-.009-.041-.008-.042-.007-.041-.006-.042-.006-.043-.004-.042-.004-.043-.003-.043-.002-.043-.001-.053-.001h-6.01z"/><g fill="none" stroke="#000" stroke-width="4"><path d="m17 13s1.296-1.296 2.413-2.413c1.016-1.016 1.587-2.394 1.587-3.831 0-.434 0-.756 0-.756l2-2v3.927c0 1.968-.782 3.855-2.173 5.246-1.349 1.349-2.827 2.827-2.827 2.827z"/><path d="m15 13s-1.296-1.296-2.413-2.413c-1.016-1.016-1.587-2.394-1.587-3.831 0-.434 0-.756 0-.756l-2-2v3.927c0 1.968.782 3.855 2.173 5.246 1.349 1.349 2.827 2.827 2.827 2.827z"/><path d="m18 12h4l4-7 3-3v2.009c0 2.65-1.053 5.191-2.926 7.065-1.874 1.873-4.415 2.926-7.065 2.926-.625 0-1.009 0-1.009 0z"/><path d="m14 12h-4l-4-7-3-3v2.009c0 2.65 1.053 5.191 2.926 7.065 1.874 1.873 4.415 2.926 7.065 2.926h1.009z"/></g><path d="m15 10h2v2h-2z"/><path d="m20 18s.325-.488.713-1.07c.828-1.242 2.089-2.131 3.537-2.493 2.367-.591 5.75-1.437 5.75-1.437s-.701 2.802-1.272 5.09c-.428 1.71-1.965 2.91-3.728 2.91l-3 2" fill="#dcc9a6"/><g clip-path="url(#b)"><path d="m32.498 11.255-1.833 7.33-.029.111-.034.12-.036.119-.039.117-.041.117-.044.115-.046.114-.048.113-.05.111-.053.111-.055.108-.057.108-.059.106-.061.104-.063.103-.065.102-.067.1-.07.098-.071.097-.072.095-.075.094-.077.092-.078.09-.08.088-.082.087-.083.085-.085.084-.087.081-.088.08-.09.078-.092.076-.093.074-.094.072-.096.07-.097.069-.099.066-.1.064-.102.063-.102.06-.104.058-.106.056-.106.054-.108.052-.109.05-.11.048-.111.045-.112.043-.113.041-.115.039-.115.036-.116.034-.117.031-.118.03-.119.026-.12.025-.12.022-.121.019-.122.017-.081.009-4.217 2.812-2.219-3.329 5.168-3.445h.596l.05-.001.04-.001.039-.002.039-.003.039-.004.039-.004.038-.005.038-.006.038-.007.038-.008.037-.008.037-.009.036-.01.037-.011.036-.011.036-.013.036-.012.035-.014.035-.014.034-.015.035-.016.034-.016.033-.017.033-.018.033-.018.033-.019.032-.02.031-.02.032-.021.031-.022.03-.022.03-.023.029-.024.029-.024.029-.024.028-.026.027-.025.027-.027.026-.027.026-.027.025-.028.025-.029.024-.028.024-.03.023-.03.022-.03.022-.031.021-.032.02-.031.02-.033.019-.032.019-.034.017-.033.018-.035.016-.034.016-.035.015-.036.015-.035.013-.037.013-.036.013-.038.011-.037.011-.038.013-.049.461-1.846-2.51.627-.051.013-.045.012-.044.013-.045.013-.044.014-.045.014-.044.014-.043.015-.044.016-.043.016-.043.017-.043.017-.043.017-.042.018-.043.019-.041.019-.042.019-.042.02-.041.02-.041.021-.041.022-.04.021-.04.023-.04.022-.04.023-.039.024-.039.024-.039.024-.039.025-.038.026-.038.025-.038.027-.037.026-.037.027-.037.028-.036.028-.036.028-.036.029-.035.029-.036.03-.034.03-.035.03-.034.031-.034.031-.033.031-.033.033-.033.032-.032.032-.032.034-.032.033-.031.034-.031.034-.03.035-.03.035-.03.036-.029.035-.029.036-.029.037-.028.037-.028.037-.027.038-.027.038-.027.038-.029.043-1.819 2.729-3.328-2.218 1.825-2.739.049-.073.053-.076.054-.076.055-.075.055-.075.057-.073.057-.073.058-.073.058-.071.06-.071.06-.07.061-.07.062-.068.062-.068.063-.067.064-.066.065-.066.066-.065.065-.064.067-.063.068-.062.068-.062.069-.061.07-.059.07-.059.071-.059.071-.057.072-.057.073-.056.074-.055.073-.054.075-.053.075-.052.076-.052.077-.051.077-.049.077-.049.079-.048.078-.048.08-.046.08-.045.08-.045.081-.043.081-.043.082-.041.083-.041.083-.04.083-.039.084-.038.084-.037.085-.036.086-.035.086-.034.086-.033.087-.032.087-.031.087-.031.088-.029.089-.028.088-.027.089-.026.09-.026.09-.024.085-.021 7.985-1.997.753.753z" fill="#bb9753"/></g><path d="m31.249 12.128-1.553 6.209-.024.096-.029.099-.03.099-.032.097-.034.097-.037.095-.038.095-.04.093-.041.093-.044.091-.045.09-.047.089-.049.088-.051.086-.052.086-.054.084-.056.083-.057.081-.059.081-.06.078-.062.078-.064.076-.065.075-.066.073-.068.072-.069.071-.07.069-.072.067-.073.066-.075.065-.076.063-.077.062-.078.059-.08.059-.08.056-.082.055-.083.054-.084.051-.086.05-.086.049-.087.046-.088.045-.09.043-.09.041-.091.04-.092.037-.093.036-.094.034-.095.032-.095.03-.096.028-.097.026-.098.024-.099.023-.099.02-.1.018-.1.016-.101.014-.101.012-.102.01-.095.007-3.595 2.397-1.11-1.664 4.084-2.723h.298l.066-.001.061-.002.061-.003.06-.004.06-.006.06-.007.059-.008.059-.01.058-.01.058-.012.058-.013.057-.014.057-.016.056-.016.056-.018.056-.018.055-.02.054-.021.054-.022.054-.023.052-.024.053-.026.052-.026.051-.027.051-.029.05-.029.049-.031.049-.031.048-.032.048-.034.046-.034.046-.035.046-.036.044-.037.044-.038.043-.039.042-.04.042-.04.04-.042.04-.042.039-.043.038-.044.037-.045.037-.045.035-.046.035-.047.033-.048.033-.049.031-.049.031-.05.03-.051.028-.051.028-.052.026-.053.026-.053.024-.055.024-.054.022-.056.021-.056.02-.057.019-.057.018-.058.017-.058.017-.065.867-3.468-4.13 1.033-.06.015-.056.015-.056.016-.055.016-.056.017-.055.018-.055.018-.055.019-.054.019-.055.021-.053.02-.054.022-.053.022-.053.022-.053.023-.053.024-.052.024-.052.025-.051.026-.051.026-.051.026-.051.027-.05.028-.05.028-.05.029-.049.03-.049.03-.048.03-.048.032-.048.031-.047.032-.048.033-.046.033-.047.034-.046.035-.045.034-.045.036-.045.036-.044.036-.044.037-.044.038-.042.038-.043.038-.042.039-.042.04-.041.04-.041.04-.041.041-.04.041-.039.042-.039.043-.039.043-.038.043-.038.044-.037.044-.036.045-.037.045-.035.046-.035.046-.035.046-.034.047-.034.048-.033.048-.034.05-1.267 1.9-1.664-1.11 1.27-1.904.044-.065.046-.067.047-.067.048-.065.049-.066.049-.064.05-.064.051-.063.051-.063.052-.062.053-.061.053-.061.054-.06.055-.059.055-.059.056-.058.057-.057.057-.057.058-.056.058-.055.059-.055.06-.053.06-.054.061-.052.061-.052.062-.051.063-.05.063-.05.064-.049.064-.048.065-.047.065-.047.066-.045.066-.046.068-.044.067-.044.068-.042.068-.042.069-.042.069-.04.07-.04.071-.039.07-.038.072-.037.071-.036.073-.036.072-.035.073-.034.074-.033.074-.032.074-.032.075-.031.075-.03.075-.029.076-.028.076-.027.077-.026.077-.026.077-.025.078-.023.078-.023.078-.022.079-.022.076-.019 6.867-1.717z"/><path d="m12 18s-.325-.488-.713-1.07c-.828-1.242-2.089-2.131-3.537-2.493-2.367-.591-5.75-1.437-5.75-1.437s.701 2.802 1.272 5.09c.428 1.71 1.965 2.91 3.728 2.91l3 2" fill="#dcc9a6"/><g clip-path="url(#c)"><path d="m8.24 12.499.085.021.09.024.09.026.089.026.088.027.089.028.088.029.087.031.087.031.087.032.086.033.086.034.086.035.085.036.084.037.084.038.083.039.083.04.083.041.082.041.081.043.081.043.08.045.08.045.08.046.078.048.079.048.077.049.077.049.077.051.076.052.075.052.075.053.073.054.074.055.073.056.072.057.071.057.071.059.07.059.07.059.069.061.068.062.068.062.067.063.065.064.066.065.065.066.064.066.063.067.062.068.062.068.061.07.06.07.06.071.058.071.058.073.057.073.057.073.055.075.055.075.054.076.053.076.049.073 1.825 2.739-3.328 2.218-1.819-2.729-.029-.043-.027-.038-.027-.038-.027-.038-.028-.037-.028-.037-.029-.037-.029-.036-.029-.035-.03-.036-.03-.035-.03-.035-.031-.034-.031-.034-.032-.033-.032-.034-.032-.032-.033-.032-.033-.033-.033-.031-.034-.031-.034-.031-.035-.03-.034-.03-.036-.03-.035-.029-.036-.029-.036-.028-.036-.028-.037-.028-.037-.027-.037-.026-.038-.027-.038-.025-.038-.026-.039-.025-.039-.024-.039-.024-.039-.024-.04-.023-.04-.022-.04-.023-.04-.021-.041-.022-.041-.021-.041-.02-.042-.02-.042-.019-.041-.019-.043-.019-.042-.018-.043-.017-.043-.017-.043-.017-.043-.016-.044-.016-.043-.015-.044-.014-.045-.014-.044-.014-.045-.013-.044-.013-.045-.012-.051-.013-2.51-.627.461 1.846.013.049.011.038.011.037.013.038.013.036.013.037.015.035.015.036.016.035.016.034.018.035.017.033.019.034.019.032.02.033.02.031.021.032.022.031.022.03.023.03.024.03.024.028.025.029.025.028.026.027.026.027.027.027.027.025.028.026.029.024.029.024.029.024.03.023.03.022.031.022.032.021.031.02.032.02.033.019.033.018.033.018.033.017.034.016.035.016.034.015.035.014.035.014.036.012.036.013.036.011.037.011.036.01.037.009.037.008.038.008.038.007.038.006.038.005.039.004.039.004.039.003.039.002.04.001.05.001h.596l5.168 3.445-2.219 3.329-4.217-2.812-.081-.009-.122-.017-.121-.019-.12-.022-.12-.025-.119-.026-.118-.03-.117-.031-.116-.034-.115-.036-.115-.039-.113-.041-.112-.043-.111-.045-.11-.048-.109-.05-.108-.052-.106-.054-.106-.056-.104-.058-.102-.06-.102-.063-.1-.064-.099-.066-.097-.069-.096-.07-.094-.072-.093-.074-.092-.076-.09-.078-.088-.08-.087-.081-.085-.084-.083-.085-.082-.087-.08-.088-.078-.09-.077-.092-.075-.094-.072-.095-.071-.097-.07-.098-.067-.1-.065-.102-.063-.103-.061-.104-.059-.106-.057-.108-.055-.108-.053-.111-.05-.111-.048-.113-.046-.114-.044-.115-.041-.117-.039-.117-.036-.119-.034-.12-.029-.111-1.833-7.33.753-.753z" fill="#bb9753"/></g><path d="m7.995 13.468.076.019.079.022.078.022.078.023.078.023.077.025.077.026.077.026.076.027.076.028.075.029.075.03.075.031.074.032.074.032.074.033.073.034.072.035.073.036.071.036.072.037.07.038.071.039.07.04.069.04.069.042.068.042.068.042.067.044.068.044.066.046.066.045.065.047.065.047.064.048.064.049.063.05.063.05.062.051.061.052.061.052.06.054.06.053.059.055.058.055.058.056.057.057.057.057.056.058.055.059.055.059.054.06.053.061.053.061.052.062.051.063.051.063.05.064.049.064.049.066.048.065.047.067.046.067.044.065 1.27 1.904-1.664 1.11-1.267-1.9-.034-.05-.033-.048-.034-.048-.034-.047-.035-.046-.035-.046-.035-.046-.037-.045-.036-.045-.037-.044-.038-.044-.038-.043-.039-.043-.039-.043-.039-.042-.04-.041-.041-.041-.041-.04-.041-.04-.042-.04-.042-.039-.043-.038-.042-.038-.044-.038-.044-.037-.044-.036-.045-.036-.045-.036-.045-.034-.046-.035-.047-.034-.046-.033-.048-.033-.047-.032-.048-.031-.048-.032-.048-.03-.049-.03-.049-.03-.05-.029-.05-.028-.05-.028-.051-.027-.051-.026-.051-.026-.051-.026-.052-.025-.052-.024-.053-.024-.053-.023-.053-.022-.053-.022-.054-.022-.053-.02-.055-.021-.054-.019-.055-.019-.055-.018-.055-.018-.056-.017-.055-.016-.056-.016-.056-.015-.06-.015-4.13-1.033.867 3.468.017.065.017.058.018.058.019.057.02.057.021.056.022.056.024.054.024.055.026.053.026.053.028.052.028.051.03.051.031.05.031.049.033.049.033.048.035.047.035.046.037.045.037.045.038.044.039.043.04.042.04.042.042.04.042.04.043.039.044.038.044.037.046.036.046.035.046.034.048.034.048.032.049.031.049.031.05.029.051.029.051.027.052.026.053.026.052.024.054.023.054.022.054.021.055.02.056.018.056.018.056.016.057.016.057.014.058.013.058.012.058.01.059.01.059.008.06.007.06.006.06.004.061.003.061.002.066.001h.298l4.084 2.723-1.11 1.664-3.595-2.397-.095-.007-.102-.01-.101-.012-.101-.014-.1-.016-.1-.018-.099-.02-.099-.023-.098-.024-.097-.026-.096-.028-.095-.03-.095-.032-.094-.034-.093-.036-.092-.037-.091-.04-.09-.041-.09-.043-.088-.045-.087-.046-.086-.049-.086-.05-.084-.051-.083-.054-.082-.055-.08-.056-.08-.059-.078-.059-.077-.062-.076-.063-.075-.065-.073-.066-.072-.067-.07-.069-.069-.071-.068-.072-.066-.073-.065-.075-.064-.076-.062-.078-.06-.078-.059-.081-.057-.081-.056-.083-.054-.084-.052-.086-.051-.086-.049-.088-.047-.089-.045-.09-.044-.091-.041-.093-.04-.093-.038-.095-.037-.095-.034-.097-.032-.097-.03-.099-.029-.099-.024-.096-1.553-6.209.377-.377 6.867 1.717z"/><path d="m17 13s1.296-1.296 2.413-2.413c1.016-1.016 1.587-2.394 1.587-3.831 0-.434 0-.756 0-.756l2-2v3.927c0 1.968-.782 3.855-2.173 5.246-1.349 1.349-2.827 2.827-2.827 2.827z" fill="#6a5137"/><path d="m15 13s-1.296-1.296-2.413-2.413c-1.016-1.016-1.587-2.394-1.587-3.831 0-.434 0-.756 0-.756l-2-2v3.927c0 1.968.782 3.855 2.173 5.246 1.349 1.349 2.827 2.827 2.827 2.827z" fill="#6a5137"/><path d="m18 12h1c4.418 0 8-3.582 8-8l2-2v2.009c0 2.65-1.053 5.191-2.926 7.065-1.874 1.873-4.415 2.926-7.065 2.926-.625 0-1.009 0-1.009 0z" fill="#6a5137"/><path d="m14 12s-.388 0-1.002 0c-4.417 0-7.998-3.581-7.998-7.998 0-.001 0-.002 0-.002l-2-2v2.009c0 2.65 1.053 5.191 2.926 7.065 1.874 1.873 4.415 2.926 7.065 2.926h1.009z" fill="#6a5137"/><path d="m12.985 13c-1.782 0-3.365 1.141-3.929 2.832 0 .001 0 .001-.001.002-.679 2.039-.587 4.258.26 6.234.63 1.47 1.305 3.045 1.569 3.662.077.178.116.37.116.564v.002c0 2.046 1.658 3.704 3.704 3.704h2.592c2.046 0 3.704-1.658 3.704-3.704 0-.001 0-.001 0-.002 0-.194.039-.386.116-.564.264-.617.939-2.192 1.569-3.662.847-1.976.939-4.195.26-6.234-.001-.001-.001-.001-.001-.002-.564-1.691-2.147-2.832-3.929-2.832-1.84 0-4.19 0-6.03 0z" fill="#bb9753"/><path d="m18.028 28.001.028.002.028.004.027.006.027.007.027.008.026.01.026.012.025.012.024.015.023.015.023.017.021.018.021.019.019.021.018.021.017.023.015.023.015.024.012.025.012.026.01.026.008.027.007.027.006.027.004.028.002.028.001.028-.001.028-.002.028-.004.028-.006.027-.007.027-.008.027-.01.026-.012.026-.012.025-.015.024-.015.023-.017.023-.018.021-.019.021-.021.019-.021.018-.023.017-.023.015-.024.015-.025.012-.026.012-.026.01-.027.008-.027.007-.027.006-.028.004-.028.002-.028.001h-4l-.028-.001-.028-.002-.028-.004-.027-.006-.027-.007-.027-.008-.026-.01-.026-.012-.025-.012-.024-.015-.023-.015-.023-.017-.021-.018-.021-.019-.019-.021-.018-.021-.017-.023-.015-.023-.015-.024-.012-.025-.012-.026-.01-.026-.008-.027-.007-.027-.006-.027-.004-.028-.002-.028-.001-.028.001-.028.002-.028.004-.028.006-.027.007-.027.008-.027.01-.026.012-.026.012-.025.015-.024.015-.023.017-.023.018-.021.019-.021.021-.019.021-.018.023-.017.023-.015.024-.015.025-.012.026-.012.026-.01.027-.008.027-.007.027-.006.028-.004.028-.002.028-.001h4z" fill="#57422d"/><path d="m23 19s-.216.432-.447.894c-.339.678-1.032 1.106-1.789 1.106-.827 0-1.764 0-1.764 0 0-1.105.895-2 2-2z"/><path d="m9 19s.216.432.447.894c.339.678 1.032 1.106 1.789 1.106h1.764c0-1.105-.895-2-2-2-1 0-2 0-2 0z"/><path d="m14.873 24c-.482 0-.873.391-.873.873v.001c0 .081.032.158.089.215.245.245.911.911.911.911 0 .552.448 1 1 1s1-.448 1-1 .666-.666.911-.911c.057-.057.089-.134.089-.215v-.001c0-.482-.391-.873-.873-.873-.668 0-1.586 0-2.254 0z"/></g></svg>