<svg clip-rule="evenodd" fill-rule="evenodd" stroke-linecap="round" stroke-miterlimit="1.5" viewBox="0 0 32 32" xmlns="http://www.w3.org/2000/svg" xmlns:xlink="http://www.w3.org/1999/xlink"><clipPath id="a"><path clip-rule="evenodd" d="m0 0h32v32h-32z"/></clipPath><metadata/><path d="m0 0h32v32h-32z" fill="none"/><g clip-path="url(#a)"><g stroke="#000" stroke-width="4"><path d="m28.456 12.368c-.272-.817-1.037-1.368-1.898-1.368-1.836 0-4.963 0-6.558 0-.265 0-.52.105-.707.293-.188.187-.293.442-.293.707v10c0 .552.448 1 1 1h3v4h6c.552 0 1-.448 1-1 0-2.193 0-7.334 0-8.675 0-.215-.035-.429-.103-.633-.262-.786-.968-2.906-1.441-4.324z" fill="none"/><path d="m19 10c0-.552-.448-1-1-1-3.014 0-11.986 0-15 0-.552 0-1 .448-1 1v13c0 .552.448 1 1 1h15c.552 0 1-.448 1-1 0-1.185 0-3 0-3z" fill="none"/><circle cx="6" cy="27" fill="#fff" r="3"/><circle cx="23" cy="27" fill="#fff" r="3"/></g><path d="m19 10c0-.552-.448-1-1-1-3.014 0-11.986 0-15 0-.552 0-1 .448-1 1v1l1 2v8.694l-1 1.306c0 .552.448 1 1 1h15c.552 0 1-.448 1-1l-1-3v-7l1-2z" fill="#999"/><path d="m2 11h17v12h-17z" fill="#facb30"/><path d="m29.528 24 .472 2c0 .552-.448 1-1 1h-2c0-1.195-.524-2.267-1.354-3l1.354-.482h2zm-10.528-2v-9l1.404-1h6.596l1.667 1 1.23 3.692c.068.204.103.418.103.633v4.675l-1 .402h-8.674z" fill="#736fcc"/><path d="m19 13v-1c0-.265.105-.52.293-.707.187-.188.442-.293.707-.293h6.558c.861 0 1.626.551 1.898 1.368l.211.632z" fill="#827fc9"/><path d="m19 22h11v1l-.436 1h-3.918c-.705-.622-1.632-1-2.646-1-1.116 0-2.232 0-3 0-.265 0-.52-.105-.707-.293-.188-.187-.293-.442-.293-.707z" fill="#fff"/><path d="m30 23h-.001c-.552 0-.999.447-.999.999v1.001c0 .552.448 1 1 1z" fill="#2c2c2c"/><path d="m31 15h-1c-.265 0-.52.105-.707.293-.188.187-.293.442-.293.707v4c0 .265.105.52.293.707.187.188.442.293.707.293h1z"/><path d="m28 16c0-.265-.105-.52-.293-.707-.187-.188-.442-.293-.707-.293-.871 0-2.129 0-3 0-.552 0-1 .448-1 1v1.434c0 .351.184.677.486.857.687.413 1.975 1.185 3 1.8.308.186.693.191 1.007.013.313-.178.507-.51.507-.87 0-1.054 0-2.355 0-3.234z"/><circle cx="6" cy="27" fill="#5a5a5a" r="3"/><circle cx="23" cy="27" fill="#5a5a5a" r="3"/><circle cx="23" cy="27" fill="#bfbfbf" r="1.5"/><circle cx="6" cy="27" fill="#bfbfbf" r="1.5"/><path d="m10.5 17-4-4s0 0-.001.001c-1.06 1.06-1.656 2.499-1.656 3.999s.596 2.939 1.656 3.999c.001.001.001.001.001.001l4-4 4 4s0 0 .001-.001c1.06-1.06 1.656-2.499 1.656-3.999s-.596-2.939-1.656-3.999c-.001-.001-.001-.001-.001-.001z" fill="#fff"/></g></svg>