<svg clip-rule="evenodd" fill-rule="evenodd" stroke-linejoin="round" stroke-miterlimit="1.5" viewBox="0 0 32 32" xmlns="http://www.w3.org/2000/svg" xmlns:xlink="http://www.w3.org/1999/xlink"><clipPath id="a"><path clip-rule="evenodd" d="m0 0h32v32h-32z"/></clipPath><metadata/><path d="m0 0h32v32h-32z" fill="none"/><g clip-path="url(#a)"><path d="m31.468 12.223-1.518 6.507-.018.075-.022.082-.022.082-.025.082-.025.081-.027.08-.028.08-.03.079-.03.078-.032.078-.034.077-.034.077-.036.076-.037.074-.038.075-.039.074-.041.072-.042.072-.042.072-.044.07-.045.07-.047.069-.047.068-.048.067-.05.067-.051.065-.051.065-.053.063-.053.063-.055.063-.056.061-.057.06-.057.059-.059.058-.06.057-.06.057-.062.055-.062.054-.064.053-.064.053-.065.051-.066.05-.067.049-.068.048-.069.047-.069.046-.07.044-.071.044-.072.042-.073.042-.073.039-.075.039-.075.038-.075.036-.077.036-.077.034-.078.032-.078.032-.079.03-.08.029-.08.028-.081.026-.082.025-.074.021-4.06 1.128-.369-.281v-9.625l8.761-2.102zm-5.468 4.554v1.207l.004-.01.007-.015.006-.016.006-.016.005-.015.006-.017.005-.016.004-.016.005-.016.004-.017.007-.025.257-1.104z"/><path d="m10 13.623v9.625l-.369.281-4.06-1.128-.074-.021-.082-.025-.081-.026-.08-.028-.08-.029-.079-.03-.079-.032-.077-.032-.077-.034-.077-.035-.075-.037-.075-.038-.074-.038-.074-.04-.073-.042-.072-.042-.071-.044-.07-.044-.069-.046-.069-.047-.068-.048-.067-.049-.066-.05-.065-.051-.064-.052-.064-.054-.062-.054-.062-.055-.06-.057-.06-.057-.059-.058-.057-.059-.057-.06-.056-.061-.055-.063-.053-.062-.053-.064-.052-.065-.05-.065-.049-.067-.049-.067-.047-.068-.047-.069-.045-.07-.044-.07-.042-.072-.042-.072-.041-.073-.039-.073-.038-.074-.037-.076-.036-.075-.034-.077-.034-.077-.032-.078-.03-.078-.03-.08-.028-.079-.027-.08-.025-.081-.025-.081-.022-.083-.022-.082-.018-.075-1.518-6.507.707-.702zm-4.059 4.182.007.025.004.016.004.017.005.016.005.016.006.016.006.016.005.016.006.016.007.015.004.01v-1.207l-.316-.076z"/><path d="m21.657 8h3.028c.848 0 1.656-.359 2.224-.987.569-.628.845-1.468.761-2.312-.139-1.394-.27-2.701-.27-2.701s.96 2.953 1.713 5.271c.496 1.527-.297 3.173-1.8 3.736l-2.807 1.053c.324.937.494 1.93.494 2.94v5.029c0 2.755-1.137 5.388-3.142 7.278-.494.466-.983.927-1.414 1.332-.927.874-2.154 1.361-3.429 1.361h-2.03c-1.275 0-2.502-.487-3.429-1.361-.431-.405-.92-.866-1.414-1.332-2.005-1.89-3.142-4.523-3.142-7.278 0-1.514 0-3.276 0-5.029 0-1.01.17-2.003.494-2.94l-2.807-1.053c-1.503-.563-2.296-2.209-1.8-3.736.753-2.318 1.713-5.271 1.713-5.271s-.131 1.307-.27 2.701c-.084.844.192 1.684.761 2.312.568.628 1.376.987 2.224.987h3.028c1.594-1.288 3.589-2 5.657-2 2.068 0 4.063.712 5.657 2z" fill="none" stroke="#000" stroke-width="4"/><path d="m7 14.96c.011-2.373.958-4.646 2.636-6.324 1.688-1.688 3.977-2.636 6.364-2.636 2.387 0 4.676.948 6.364 2.636 1.678 1.678 2.625 3.951 2.636 6.324l4-.96s-.582 2.495-.996 4.267c-.249 1.069-1.061 1.916-2.118 2.209l-.915.254c-.185 2.442-1.262 4.742-3.04 6.452-.516.496-1.03.99-1.479 1.422-.932.896-2.174 1.396-3.466 1.396-.635 0-1.337 0-1.972 0-1.292 0-2.534-.5-3.466-1.396-.449-.432-.963-.926-1.479-1.422-1.778-1.71-2.855-4.01-3.04-6.452l-.915-.254c-1.057-.293-1.869-1.14-2.118-2.209-.414-1.772-.996-4.267-.996-4.267l4 .96z" fill="#e02e31"/><path d="m8 16h3c.53 0 1.039.211 1.414.586s.586.884.586 1.414v1h-3c-.53 0-1.039-.211-1.414-.586s-.586-.884-.586-1.414c0-.551 0-1 0-1z"/><path d="m24 16h-3c-.53 0-1.039.211-1.414.586s-.586.884-.586 1.414v1h3c.53 0 1.039-.211 1.414-.586s.586-.884.586-1.414c0-.551 0-1 0-1z"/><path d="m11.066 23.002.063.006.062.01.061.014.06.018.059.022.058.025.056.028.054.033.052.035.049.039 2.393 1.994 1.968-1.477 1.967 1.479 2.391-1.996.05-.038.051-.036.054-.032.056-.029.058-.025.059-.022.06-.017.061-.014.062-.011.063-.006.063-.002.062.002.063.005.062.01.061.013.061.018.059.021.058.024.056.029.054.031.052.035.05.039.047.041.045.044.042.047.038.05.036.051.032.054.029.056.025.058.022.059.017.06.014.061.011.062.006.063.002.063-.002.062-.005.063-.01.062-.013.061-.018.061-.021.059-.024.058-.029.056-.031.054-.035.052-.039.05-.041.047-.044.045-.047.042-3.609 3.012-2.033-1.529-2.032 1.523-3.607-3.006-.047-.041-.044-.045-.042-.047-.038-.05-.035-.052-.032-.054-.028-.056-.025-.058-.021-.059-.017-.061-.014-.061-.01-.062-.005-.063-.002-.063.002-.062.006-.063.01-.062.014-.061.018-.06.022-.059.025-.058.028-.056.033-.054.035-.052.039-.049.041-.047.045-.044.047-.042.05-.038.052-.035.054-.032.056-.028.058-.025.059-.021.061-.017.061-.014.062-.01.063-.005.063-.002.062.002z" fill="#800e0e"/><path d="m16 18-2 4h4z" fill="#800e0e"/><g fill="#fede30"><path d="m10 8h-2.685c-.848 0-1.656-.359-2.224-.987-.569-.628-.845-1.468-.761-2.312.139-1.394.27-2.701.27-2.701s-.96 2.953-1.713 5.271c-.496 1.527.297 3.173 1.8 3.736 2.324.872 5.313 1.993 5.313 1.993h.5c1.381 0 2.5-1.119 2.5-2.5s-1.119-2.5-2.5-2.5c-.299 0-.5 0-.5 0z"/><path d="m22 8h2.685c.848 0 1.656-.359 2.224-.987.569-.628.845-1.468.761-2.312-.139-1.394-.27-2.701-.27-2.701s.96 2.953 1.713 5.271c.496 1.527-.297 3.173-1.8 3.736-2.324.872-5.313 1.993-5.313 1.993h-.5c-1.381 0-2.5-1.119-2.5-2.5s1.119-2.5 2.5-2.5z"/></g></g></svg>