<svg clip-rule="evenodd" fill-rule="evenodd" stroke-linecap="round" stroke-linejoin="round" stroke-miterlimit="2" viewBox="0 0 32 32" xmlns="http://www.w3.org/2000/svg"><metadata/><path d="m0 0h32v32h-32z" fill="none"/><path d="m10.062 8.938c-.402-.756-.285-1.715.352-2.352l3.465-3.465c1.171-1.171 3.071-1.171 4.242 0 1.123 1.123 2.471 2.471 3.465 3.465.637.637.754 1.596.352 2.352l1.124 1.124c.756-.402 1.715-.285 2.352.352.994.994 2.342 2.342 3.465 3.465 1.171 1.171 1.171 3.071 0 4.242-1.123 1.123-2.471 2.471-3.465 3.465-.637.637-1.596.754-2.352.352l-1.124 1.124c.402.756.285 1.715-.352 2.352-.994.994-2.342 2.342-3.465 3.465-1.171 1.171-3.071 1.171-4.242 0-1.123-1.123-2.471-2.471-3.465-3.465-.637-.637-.754-1.596-.352-2.352l-1.124-1.124c-.756.402-1.715.285-2.352-.352-.994-.994-2.342-2.342-3.465-3.465-1.171-1.171-1.171-3.071 0-4.242 1.123-1.123 2.471-2.471 3.465-3.465.637-.637 1.596-.754 2.352-.352z" fill="none" stroke="#000" stroke-width="4"/><path d="m16 29-13-13 13-13 13 13z" fill="#731637"/><g fill="#ff4586"><path d="m16 15s-3.541-3.541-5.586-5.586c-.781-.781-.781-2.047 0-2.828l3.465-3.465c1.171-1.171 3.071-1.171 4.242 0 1.123 1.123 2.471 2.471 3.465 3.465.781.781.781 2.047 0 2.828-2.045 2.045-5.586 5.586-5.586 5.586z"/><path d="m17 16s3.541-3.541 5.586-5.586c.781-.781 2.047-.781 2.828 0 .994.994 2.342 2.342 3.465 3.465 1.171 1.171 1.171 3.071 0 4.242-1.123 1.123-2.471 2.471-3.465 3.465-.781.781-2.047.781-2.828 0-2.045-2.045-5.586-5.586-5.586-5.586z"/><path d="m16 17s3.541 3.541 5.586 5.586c.781.781.781 2.047 0 2.828-.994.994-2.342 2.342-3.465 3.465-1.171 1.171-3.071 1.171-4.242 0-1.123-1.123-2.471-2.471-3.465-3.465-.781-.781-.781-2.047 0-2.828 2.045-2.045 5.586-5.586 5.586-5.586z"/><path d="m15 16s-3.541 3.541-5.586 5.586c-.781.781-2.047.781-2.828 0-.994-.994-2.342-2.342-3.465-3.465-1.171-1.171-1.171-3.071 0-4.242 1.123-1.123 2.471-2.471 3.465-3.465.781-.781 2.047-.781 2.828 0 2.045 2.045 5.586 5.586 5.586 5.586z"/></g><circle cx="16" cy="16" r="3"/></svg>