<svg clip-rule="evenodd" fill-rule="evenodd" stroke-linejoin="round" stroke-miterlimit="2" viewBox="0 0 32 32" xmlns="http://www.w3.org/2000/svg" xmlns:xlink="http://www.w3.org/1999/xlink"><clipPath id="a"><path clip-rule="evenodd" d="m0 0h32v32h-32z"/></clipPath><metadata/><path d="m0 0h32v32h-32z" fill="none"/><g clip-path="url(#a)"><path d="m17.006 32h-4.012c-7.176 0-12.994-5.818-12.994-12.994v-1.008c0-8.283 6.715-14.998 14.998-14.998h.004c2.815 0 5.449.776 7.699 2.125l2.01-4.019c.339-.678 1.031-1.106 1.789-1.106s1.45.428 1.789 1.106c0 0 1.757 3.514 2.942 5.884 1.017 2.033.618 4.489-.989 6.097-.001 0-.001.001-.001.001-.26.259-.543.489-.846.686.394 1.339.605 2.757.605 4.224v1.008c0 7.176-5.818 12.994-12.994 12.994z"/><path d="m15.002 5c2.494 0 4.824.702 6.802 1.92 0 0 5.392 7.683 5.73 7.615.304 1.103.466 2.264.466 3.463v1.008c0 6.072-4.922 10.994-10.994 10.994-1.328 0-2.684 0-4.012 0-6.072 0-10.994-4.922-10.994-10.994v-1.008c0-7.179 5.819-12.998 12.998-12.998z" fill="#fbc546"/><path d="m21.804 6.92c2.766 1.702 4.846 4.41 5.73 7.615-.338.068-.684.102-1.034.102-1.403 0-2.749-.557-3.741-1.549 0 0 0-.001-.001-.001-1.607-1.608-2.006-4.064-.989-6.097z" fill="#e59a10"/><path d="m12 14.996c0-.267-.106-.522-.294-.71-.188-.189-.444-.294-.71-.294-1.109 0-2.883 0-3.992 0-.266 0-.522.105-.71.294-.188.188-.294.443-.294.71 0 .266.106.522.294.71s.444.294.71.294h3.992c.266 0 .522-.106.71-.294s.294-.444.294-.71z"/><path d="m24 14.996c0-.267-.106-.522-.294-.71-.188-.189-.444-.294-.71-.294-1.109 0-2.883 0-3.992 0-.266 0-.522.105-.71.294-.188.188-.294.443-.294.71 0 .266.106.522.294.71s.444.294.71.294h3.992c.266 0 .522-.106.71-.294s.294-.444.294-.71z"/><path d="m26.5 2s-1.757 3.514-2.942 5.884c-.632 1.264-.384 2.79.615 3.789 0 0 0 0 .001.001.617.617 1.453.963 2.326.963s1.709-.346 2.326-.963c.001-.001.001-.001.001-.001.999-.999 1.247-2.525.615-3.789-1.185-2.37-2.942-5.884-2.942-5.884z" fill="#fff"/><path d="m15 18c2.217 0 4.244 1.253 5.236 3.236.363.727.658 1.317.658 1.317.247.493.047 1.095-.447 1.341-.493.247-1.095.047-1.341-.447 0 0-.295-.59-.659-1.317-.653-1.305-1.987-2.13-3.447-2.13-1.46 0-2.794.825-3.447 2.13-.364.727-.659 1.317-.659 1.317-.246.494-.848.694-1.341.447-.494-.246-.694-.848-.447-1.341 0 0 .295-.59.658-1.317.992-1.983 3.019-3.236 5.236-3.236z" fill="#593604"/></g></svg>