<svg clip-rule="evenodd" fill-rule="evenodd" stroke-linecap="round" stroke-linejoin="round" stroke-miterlimit="1.5" viewBox="0 0 32 32" xmlns="http://www.w3.org/2000/svg" xmlns:xlink="http://www.w3.org/1999/xlink"><clipPath id="a"><path clip-rule="evenodd" d="m0 0h32v32h-32z"/></clipPath><metadata/><path d="m0 0h32v32h-32z" fill="none"/><g clip-path="url(#a)"><path d="m16.486 5c8.568 0 15.514 6.946 15.514 15.514v.002c0 3.046-1.21 5.967-3.364 8.12-2.153 2.154-5.074 3.364-8.12 3.364h-9.032c-3.046 0-5.967-1.21-8.12-3.364-2.154-2.153-3.364-5.074-3.364-8.12 0-.001 0-.001 0-.002 0-8.568 6.946-15.514 15.514-15.514z"/><path d="m30 20.514c0-7.464-6.05-13.514-13.514-13.514-.324 0-.648 0-.972 0-7.464 0-13.514 6.05-13.514 13.514v.002c0 2.515.999 4.928 2.778 6.706 1.778 1.779 4.191 2.778 6.706 2.778h9.032c2.515 0 4.928-.999 6.706-2.778 1.779-1.778 2.778-4.191 2.778-6.706z" fill="#fbc546"/><path d="m24.947 17.106c.494.247.694.847.447 1.341v.001c-.247.494-.847.694-1.34.447-1.204-.602-3.332-1.666-4.524-2.262-.232-.116-.407-.318-.489-.563s-.063-.513.053-.744v-.001c.122-.243.335-.428.593-.514s.539-.066.783.056c1.199.6 3.289 1.644 4.477 2.239z" fill-rule="nonzero"/><path d="m12.894 15.303c.247.494.047 1.094-.447 1.341-1.196.599-3.305 1.653-4.501 2.251-.493.247-1.093.047-1.34-.447 0 0-.001-.001-.001-.002-.247-.493-.047-1.093.447-1.34 1.196-.598 3.306-1.653 4.502-2.251.493-.247 1.093-.047 1.34.447z" fill-rule="nonzero"/><path d="m9 26s.921-.921 1.879-1.879c1.358-1.358 3.2-2.121 5.121-2.121 1.921 0 3.763.763 5.121 2.121.958.958 1.879 1.879 1.879 1.879" fill="none" stroke="#593604" stroke-width="2"/></g></svg>