<svg clip-rule="evenodd" fill-rule="evenodd" stroke-linejoin="round" stroke-miterlimit="1.41421" viewBox="0 0 32 32" xmlns="http://www.w3.org/2000/svg" xmlns:xlink="http://www.w3.org/1999/xlink"><clipPath id="a"><path clip-rule="evenodd" d="m0 0h32v32h-32z"/></clipPath><metadata/><path d="m0 0h32v32h-32z" fill="none"/><g clip-path="url(#a)"><path d="m32 8c0-4.418-3.582-8-8-8-4.887 0-11.113 0-16 0-4.418 0-8 3.582-8 8v16c0 4.418 3.582 8 8 8h16c4.418 0 8-3.582 8-8 0-4.887 0-11.113 0-16z"/><path d="m30 8c0-1.591-.632-3.117-1.757-4.243-1.126-1.125-2.652-1.757-4.243-1.757-4.724 0-11.276 0-16 0-1.591 0-3.117.632-4.243 1.757-1.125 1.126-1.757 2.652-1.757 4.243v16c0 1.591.632 3.117 1.757 4.243 1.126 1.125 2.652 1.757 4.243 1.757h16c1.591 0 3.117-.632 4.243-1.757 1.125-1.126 1.757-2.652 1.757-4.243 0-4.724 0-11.276 0-16z" fill="#e8272e"/><path d="m15.003 22.941v-1.914h-5.39v1.914zm-1.54-6.754h4.95v1.87h-12.21v-1.87h4.95v-1.166h-4.004v-1.76h4.004v-1.1h-3.696v-.924h-1.1v-3.85h4.752v-1.65h2.42v1.65h4.708v3.85h-1.1v.924h-3.674v1.1h4.026v1.76h-4.026zm9.9-9.68h2.266v16.06c0 1.437-.154 2.328-.462 2.673s-1.092.517-2.354.517c-.645 0-1.598-.037-2.86-.11l-.11-2.134c1.218.059 2.076.088 2.574.088.455 0 .726-.051.814-.154s.132-.433.132-.99zm-4.18 14.74v-13.86h2.2v13.86zm-9.57 3.63v.99h-2.31v-6.754h10.01v6.754h-2.31v-.99zm-1.1-14.52h2.64v-1.056h-2.64zm4.95-1.056v1.056h2.64v-1.056z" fill="#fff" fill-rule="nonzero"/></g></svg>