<svg clip-rule="evenodd" fill-rule="evenodd" stroke-linejoin="round" stroke-miterlimit="2" viewBox="0 0 32 32" xmlns="http://www.w3.org/2000/svg" xmlns:xlink="http://www.w3.org/1999/xlink"><clipPath id="a"><path clip-rule="evenodd" d="m0-.017h32v32h-32z"/></clipPath><metadata/><path d="m0-.017h32v32h-32z" fill="none"/><g clip-path="url(#a)"><path d="m16 .983c8.837 0 16 7.164 16 16v.502c0 3.58-1.422 7.013-3.953 9.545-2.532 2.531-5.965 3.953-9.545 3.953-1.652 0-3.352 0-5.004 0-3.58 0-7.013-1.422-9.545-3.953-2.531-2.532-3.953-5.965-3.953-9.545 0-.167 0-.334 0-.502 0-8.836 7.163-16 16-16z"/><path d="m2.257 14.298c.866.042 4.934-7.453 4.911-8.178 2.409-1.961 5.483-3.137 8.832-3.137l.091.001c3.313.021 6.353 1.193 8.741 3.136-.346.791 3.076 7.882 4.911 8.178.169.869.257 1.767.257 2.685v.502c0 3.05-1.211 5.974-3.368 8.131-2.156 2.156-5.081 3.367-8.13 3.367h-5.004c-3.049 0-5.974-1.211-8.13-3.367-2.157-2.157-3.368-5.081-3.368-8.131 0-.167 0-.334 0-.502 0-.918.088-1.816.257-2.685z" fill="#fbc546"/><path d="m23.9 18.483h-.51c-1.363 0-3.042-.913-4.006-1.877s-1.884-2.649-1.884-4.013c0 0 0-.001 0-.002 0-2.959 3.149-6.108 6.108-6.108h.894c.305 0 1.51.705 1.791 1.011 1.724 1.869 2.945 4.208 3.45 6.804-.163.56-.399 1.089-.697 1.575.133-.436-.702.011-1.424.733s-2.701 1.877-3.722 1.877z" fill="#fff"/><path d="m23.9 16.233h-.51c-.965 0-1.891-.383-2.574-1.066-.683-.682-1.066-1.608-1.066-2.574 0 0 0-.001 0-.002 0-2.13 1.727-3.858 3.858-3.858h.894c1.259 0 2.467.501 3.357 1.391.891.89 1.391 2.098 1.391 3.357v1.012c0 .48-.071.944-.204 1.38-1.143 1.865-3.2 3.11-5.546 3.11-3.587 0-6.5-2.912-6.5-6.5 0-3.587 2.913-6.5 6.5-6.5.456 0 .902.047 1.332.137.52.424 1.009.883 1.463 1.376-.576-.173-1.18-.263-1.793-.263h-.894c-2.959 0-5.358 2.399-5.358 5.358v.002c0 1.364.542 2.671 1.505 3.635.964.964 2.272 1.505 3.635 1.505h.51c1.021 0 2-.405 2.722-1.127s1.128-1.702 1.128-2.723c0-.029 0-.058 0-.088 0-.944-.375-1.85-1.043-2.518s-1.574-1.044-2.519-1.044h-.688c-.597 0-1.169.237-1.591.659s-.659.995-.659 1.591c0 1.243 1.007 2.25 2.25 2.25h.501c.414 0 .749-.335.749-.749 0 0 0 0 0-.001 0-.414-.336-.75-.75-.75-.204 0-.396 0-.5 0-.414 0-.75-.335-.75-.75 0-.199.079-.389.22-.53.14-.141.331-.22.53-.22h.688c.547 0 1.071.218 1.458.604.387.387.604.911.604 1.458v.088c0 .624-.248 1.221-.688 1.662-.441.441-1.039.688-1.662.688z" fill="#982eee"/><path d="m8.392 6.483c2.959 0 6.108 3.149 6.108 6.108v.002c0 1.364-.92 3.049-1.884 4.013s-2.643 1.877-4.006 1.877h-.51c-1.021 0-3-1.155-3.722-1.877s-1.557-1.169-1.424-.733c-.298-.486-.534-1.015-.697-1.575.504-2.594 1.725-4.933 3.448-6.802.282-.306 1.488-1.013 1.793-1.013z" fill="#fff"/><path d="m7.168 6.12c.43-.09.876-.137 1.332-.137 3.587 0 6.5 2.913 6.5 6.5 0 3.588-2.913 6.5-6.5 6.5-2.346 0-4.403-1.245-5.546-3.11-.133-.436-.204-.9-.204-1.38 0-.336 0-.675 0-1.012 0-1.259.5-2.467 1.391-3.357.89-.89 2.098-1.391 3.357-1.391h.894c2.131 0 3.858 1.728 3.858 3.858v.002c0 .966-.383 1.892-1.066 2.574-.683.683-1.609 1.066-2.574 1.066h-.51c-.623 0-1.221-.247-1.662-.688-.44-.441-.688-1.038-.688-1.662 0-.029 0-.058 0-.088 0-.547.217-1.071.604-1.458.387-.386.911-.604 1.458-.604h.688c.199 0 .39.079.53.22.141.141.22.331.22.53 0 .415-.336.75-.75.75-.104 0-.296 0-.5 0-.414 0-.75.336-.75.75v.001c0 .414.335.749.749.749h.501c1.243 0 2.25-1.007 2.25-2.25 0-.596-.237-1.169-.659-1.591s-.994-.659-1.591-.659h-.688c-.945 0-1.851.376-2.519 1.044s-1.043 1.574-1.043 2.518v.088c0 1.021.406 2.001 1.128 2.723s1.701 1.127 2.722 1.127h.51c1.363 0 2.671-.541 3.635-1.505.963-.964 1.505-2.271 1.505-3.635 0 0 0-.001 0-.002 0-2.959-2.399-5.358-5.358-5.358h-.894c-.613 0-1.217.09-1.793.263.454-.493.943-.953 1.463-1.376z" fill="#982eee"/><path d="m16.469 18.983c2.142 0 4.078 1.277 4.922 3.246.267.623.538 1.256.78 1.821.152.355.087.765-.168 1.055s-.654.406-1.025.3l-.492-.14c-.512-.703-2.499-1.282-4.486-1.282s-3.974.579-4.486 1.282l-.492.14c-.371.106-.77-.01-1.025-.3s-.32-.7-.168-1.055c.242-.565.513-1.198.78-1.821.844-1.969 2.78-3.246 4.922-3.246z" fill="#722245"/><path d="m16.001 22.983c1.807 0 3.46.875 4.485 2.282l-1.745-.498c-1.791-.512-3.691-.512-5.482 0l-1.745.498c1.025-1.407 2.678-2.282 4.485-2.282z" fill="#ca3b8f"/></g></svg>