<svg clip-rule="evenodd" fill-rule="evenodd" stroke-linecap="round" stroke-linejoin="round" stroke-miterlimit="1.5" viewBox="0 0 32 32" xmlns="http://www.w3.org/2000/svg"><metadata/><g fill="none"><path d="m0 0h32v32h-32z"/><path d="m18.411 12.646c6.213 3.587 10.178 8.371 8.847 10.675-1.33 2.305-7.455 1.263-13.669-2.324-6.213-3.588-10.178-8.371-8.847-10.676 1.33-2.304 7.455-1.262 13.669 2.325z" stroke="#000" stroke-width="6"/><ellipse cx="16" cy="16.821" rx="13" ry="4.821" stroke="#000" stroke-width="6"/><path d="m21 7 3-1 1-4 1 4 3 1-3 1-1 4-1-4z" stroke="#000" stroke-width="4"/><path d="m11 25 3-1 1-4 1 4 3 1-3 1-1 4-1-4z" stroke="#000" stroke-width="4"/><path d="m4 11 3-1 1-4 1 4 3 1-3 1-1 4-1-4z" stroke="#000" stroke-width="4"/><path d="m18.411 12.646c6.213 3.587 10.178 8.371 8.847 10.675-1.33 2.305-7.455 1.263-13.669-2.324-6.213-3.588-10.178-8.371-8.847-10.676 1.33-2.304 7.455-1.262 13.669 2.325z" stroke="#982eee" stroke-width="2"/><ellipse cx="16" cy="16.821" rx="13" ry="4.821" stroke="#982eee" stroke-width="2"/></g><path d="m21 7 3-1 1-4 1 4 3 1-3 1-1 4-1-4z" fill="#fdef24"/><path d="m11 25 3-1 1-4 1 4 3 1-3 1-1 4-1-4z" fill="#fdef24"/><path d="m4 11 3-1 1-4 1 4 3 1-3 1-1 4-1-4z" fill="#fdef24"/></svg>