<svg clip-rule="evenodd" fill-rule="evenodd" stroke-linecap="round" stroke-linejoin="round" stroke-miterlimit="1.5" viewBox="0 0 32 32" xmlns="http://www.w3.org/2000/svg" xmlns:xlink="http://www.w3.org/1999/xlink"><clipPath id="a"><path clip-rule="evenodd" d="m0 0h32v32h-32z"/></clipPath><metadata/><path d="m0 0h32v32h-32z" fill="none"/><g clip-path="url(#a)"><path d="m17.5 10v3h4c1.459 0 2.858.579 3.889 1.611.582.582 1.02 1.281 1.292 2.042.208.414.319.875.319 1.347v2.5c0 1.459-.579 2.858-1.611 3.889-1.031 1.032-2.43 1.611-3.889 1.611h-4v4h-3v-4h-7.5v-5h7.5v-3h-4c-1.459 0-2.858-.579-3.889-1.611-1.032-1.031-1.611-2.43-1.611-3.889v-1.502c0-.077.002-.153.007-.229-.005-.089-.007-.179-.007-.269 0-3.038 2.462-5.5 5.5-5.5h4v-3h3v3h7.5v5zm0 8v3h4c.663 0 1.299-.263 1.768-.732.223-.223.399-.484.523-.768-.124-.284-.3-.545-.523-.768-.469-.469-1.105-.732-1.768-.732zm-3-8h-4c-.663 0-1.299.263-1.768.732-.223.223-.399.484-.523.768.124.284.3.545.523.768.469.469 1.105.732 1.768.732h4z" fill="none" stroke="#000" stroke-width="4"/><path d="m17.5 28v2h-3v-2l.846-1h.654zm7.5-21v3s-9.774 0-14.5 0c-.663 0-1.299.263-1.768.732s-.732 1.105-.732 1.768c0 1.381 1.119 2.5 2.5 2.5h13.5c.796 0 1.559.316 2.121.879.563.562.879 1.325.879 2.121v2.5c0 1.459-.579 2.858-1.611 3.889-1.031 1.032-2.43 1.611-3.889 1.611h-14.5v-3h14.5c.663 0 1.299-.263 1.768-.732s.732-1.105.732-1.768-.263-1.299-.732-1.768-1.105-.732-1.768-.732c-2.784 0-7.369 0-11 0-1.459 0-2.858-.579-3.889-1.611-1.032-1.031-1.611-2.43-1.611-3.889v-1.502c0-1.06.421-2.077 1.171-2.827s1.767-1.171 2.827-1.171z" fill="#737373"/><path d="m10.5 5h4v-3h3v3h7.5v3h-7.5v5h4c1.459 0 2.858.579 3.889 1.611 1.032 1.031 1.611 2.43 1.611 3.889 0 3.038-2.462 5.5-5.5 5.5h-4v4h-3v-4h-7.5v-3h7.5v-5h-4c-1.459 0-2.858-.579-3.889-1.611-1.032-1.031-1.611-2.43-1.611-3.889 0-3.038 2.462-5.5 5.5-5.5zm7 11v5h4c.663 0 1.299-.263 1.768-.732s.732-1.105.732-1.768-.263-1.299-.732-1.768-1.105-.732-1.768-.732zm-3-8h-4c-.663 0-1.299.263-1.768.732s-.732 1.105-.732 1.768.263 1.299.732 1.768 1.105.732 1.768.732h4z" fill="#fff"/></g></svg>