<svg clip-rule="evenodd" fill-rule="evenodd" stroke-linecap="round" stroke-linejoin="round" stroke-miterlimit="1.5" viewBox="0 0 32 32" xmlns="http://www.w3.org/2000/svg" xmlns:xlink="http://www.w3.org/1999/xlink"><clipPath id="a"><path clip-rule="evenodd" d="m0 0h32v32h-32z"/></clipPath><clipPath id="b"><path clip-rule="evenodd" d="m19 15.917v-6.917h-9s-4.239 1.06-6.546 1.636c-.854.214-1.454.982-1.454 1.863v.002c0 .881.6 1.649 1.454 1.863 2.307.576 6.546 1.636 6.546 1.636z"/></clipPath><clipPath id="c"><path clip-rule="evenodd" d="m22 10 6 3s0-.07 0-.183c0-1.185.351-2.343 1.008-3.329.497-.746.992-1.488.992-1.488s-.921 0-1.972 0c-1.975 0-3.905.584-5.547 1.679-.288.192-.481.321-.481.321z"/></clipPath><metadata/><path d="m0 0h32v32h-32z" fill="none"/><g clip-path="url(#a)"><g fill="none" stroke="#000" stroke-width="4"><path d="m22 10 6 3s0-.07 0-.183c0-1.185.351-2.343 1.008-3.329.497-.746.992-1.488.992-1.488s-.921 0-1.972 0c-1.975 0-3.905.584-5.547 1.679-.288.192-.481.321-.481.321z"/><path d="m30 13s-6.253-3.126-10.941-5.47c-3.021-1.511-6.67-.919-9.059 1.47s-4.239 1.06-6.546 1.636c-.854.214-1.454.982-1.454 1.863v.002c0 .881.6 1.649 1.454 1.863 2.063.515 5.672 1.417 6.411 1.602.09.023.176.057.256.102.647.362 3.727 2.085 5.539 3.099.889.498 1.843.869 2.834 1.104 3.416.811 11.506 2.729 11.506 2.729z" stroke-linejoin="miter" stroke-miterlimit="3"/><path d="m12 15s-1.169 1.169-2.243 2.243c-1.125 1.125-1.757 2.651-1.757 4.242v2.515l8-8z"/><path d="m25 17s1.169 1.169 2.243 2.243c1.125 1.125 1.757 2.651 1.757 4.242v2.515l-8-8z"/></g><path d="m12 15s-1.169 1.169-2.243 2.243c-1.125 1.125-1.757 2.651-1.757 4.242v2.515l8-8z" fill="#61696d"/><path d="m2.023 12.205c.116-.754.673-1.379 1.431-1.569 2.307-.576 6.546-1.636 6.546-1.636 2.389-2.389 6.038-2.981 9.059-1.47 4.688 2.344 10.941 5.47 10.941 5.47v6.778l-8.105-.417-9.895-4.361z" fill="#939a9f"/><path d="m2.023 12.205 3.977.795h6l3 1 7 4 8 1.778v3.222s-8.09-1.918-11.506-2.729c-.991-.235-1.945-.606-2.834-1.104-1.812-1.014-4.892-2.737-5.539-3.099-.08-.045-.166-.079-.256-.102-.739-.185-4.348-1.087-6.411-1.602-.854-.214-1.454-.982-1.454-1.863 0-.001 0-.001 0-.002 0-.1.008-.198.023-.294z" fill="#c5c9cb"/><path d="m19 15.917v-6.917h-9s-4.239 1.06-6.546 1.636c-.854.214-1.454.982-1.454 1.863v.002c0 .881.6 1.649 1.454 1.863 2.307.576 6.546 1.636 6.546 1.636z" fill="none"/><g clip-path="url(#b)"><path d="m2 12s6.083.76 7.64.955c.24.03.477.074.711.133.654.163 2.069.517 2.932.733.476.119.965.179 1.456.179h.261" fill="none" stroke="#4a4f53"/></g><path d="m22 10 6 3s0-.07 0-.183c0-1.185.351-2.343 1.008-3.329.497-.746.992-1.488.992-1.488s-.921 0-1.972 0c-1.975 0-3.905.584-5.547 1.679-.288.192-.481.321-.481.321z" fill="#939a9f"/><g clip-path="url(#c)"><path d="m3 12h4.2c1.19 0 2.371.214 3.485.632 2.403.901 6.886 2.582 10.198 3.824 2.666 1 4.914 2.873 6.379 5.314 2.666 4.444 6.738 11.23 6.738 11.23v4h-31z" fill="#ebf1f5"/></g><path d="m17 11c0-.552-.448-1-1-1s-1 .448-1 1 .448 1 1 1 1-.448 1-1z"/><path d="m25 17s1.169 1.169 2.243 2.243c1.125 1.125 1.757 2.651 1.757 4.242v2.515l-8-8z" fill="#61696d"/></g></svg>