<svg clip-rule="evenodd" fill-rule="evenodd" stroke-linecap="round" stroke-linejoin="round" stroke-miterlimit="1.5" viewBox="0 0 32 32" xmlns="http://www.w3.org/2000/svg" xmlns:xlink="http://www.w3.org/1999/xlink"><clipPath id="a"><path clip-rule="evenodd" d="m0 0h32v32h-32z"/></clipPath><clipPath id="b"><path clip-rule="evenodd" d="m21.556 7.963c.13.995-.035 1.995-.482 2.889-.346.693-.704 1.408-.907 1.814-.111.222-.236.438-.374.645-.512.767-1.793 2.689-1.793 2.689s.336-.168.733-.367c.833-.416 1.752-.633 2.683-.633h.584v.595c0 .89-.395 1.735-1.079 2.305-.973.81-2.411 2.009-3.482 2.901-.912.76-1.439 1.885-1.439 3.072v6.127h-14c0-1.956.579-3.869 1.664-5.496.201-.301.336-.504.336-.504h-2s.05-.198.127-.507c.571-2.286 1.753-4.373 3.419-6.039.788-.788 1.454-1.454 1.454-1.454l-1-3s2.906-1.744 4.287-2.572c.467-.28 1-.428 1.544-.428h3.169l2.455-1.636 4.101-.401z"/></clipPath><metadata/><path d="m0 0h32v32h-32z" fill="none"/><g clip-path="url(#a)"><g fill="none"><path d="m25 7 2.5-3" stroke="#000" stroke-width="6"/><path d="m26 11 3-1" stroke="#000" stroke-width="6"/><path d="m26 15 3 1" stroke="#000" stroke-width="6"/></g><path d="m19 9h8v7h-8z"/><path d="m14.286 10h.714l6-4s.156.468.345 1.035c.419 1.258.322 2.631-.271 3.817-.346.693-.704 1.408-.907 1.814-.111.222-.236.438-.374.645l-1.334 2 .259.33.015-.008c.833-.416 1.752-.633 2.683-.633h.584v.595c0 .89-.395 1.735-1.079 2.305l-.259.215 9.338 11.885h-6l-6.943-8.836c-.675.734-1.057 1.699-1.057 2.709v6.127h-14c0-1.956.579-3.869 1.664-5.496.201-.301.336-.504.336-.504h-2s.05-.198.127-.507c.437-1.75 1.233-3.385 2.33-4.803-.476-.199-.913-.49-1.285-.862-.751-.75-1.172-1.767-1.172-2.828 0-1.568 0-3 0-3l4.435.739 2.72-1.632-7.155-9.107h6z" fill="none" stroke="#000" stroke-width="4"/><path d="m21.556 7.963c.13.995-.035 1.995-.482 2.889-.346.693-.704 1.408-.907 1.814-.111.222-.236.438-.374.645-.512.767-1.793 2.689-1.793 2.689s.336-.168.733-.367c.833-.416 1.752-.633 2.683-.633h.584v.595c0 .89-.395 1.735-1.079 2.305-.973.81-2.411 2.009-3.482 2.901-.912.76-1.439 1.885-1.439 3.072v6.127h-14c0-1.956.579-3.869 1.664-5.496.201-.301.336-.504.336-.504h-2s.05-.198.127-.507c.571-2.286 1.753-4.373 3.419-6.039.788-.788 1.454-1.454 1.454-1.454l-1-3s2.906-1.744 4.287-2.572c.467-.28 1-.428 1.544-.428h3.169l2.455-1.636 4.101-.401z" fill="#aeaeae"/><g clip-path="url(#b)"><path d="m2 12v3c0 1.061.421 2.078 1.172 2.828.75.751 1.767 1.172 2.828 1.172h2" fill="none" stroke="#7f7f7f" stroke-linecap="butt" stroke-width="4"/></g><path d="m8 13-6-1v3c0 1.061.421 2.078 1.172 2.828.75.751 1.767 1.172 2.828 1.172h1.056c.621 0 1.233-.145 1.789-.422.546-.273 1.155-.578 1.155-.578z" fill="#aeaeae"/><path d="m17.455 8.364 3.545-2.364s.156.468.345 1.035l.211.928-.452.301c-.703.469-1.571.619-2.391.414z" fill="#2d2d2d"/><path d="m25 7 2.5-3" fill="none" stroke="#fff" stroke-width="2"/><path d="m26 11 3-1" fill="none" stroke="#fff" stroke-width="2"/><path d="m26 15 3 1" fill="none" stroke="#fff" stroke-width="2"/><path d="m8 13-6-1v3c0 1.061.421 2.078 1.172 2.828.75.751 1.767 1.172 2.828 1.172h1.056c.621 0 1.233-.145 1.789-.422.546-.273 1.155-.578 1.155-.578z" fill="#aeaeae"/><path d="m10 13 3-1" fill="none" stroke="#000" stroke-width="2"/><path d="m2 2h6l22 28h-6z" fill="#e82731"/></g></svg>