<svg clip-rule="evenodd" fill-rule="evenodd" stroke-linecap="round" stroke-linejoin="round" stroke-miterlimit="1.5" viewBox="0 0 32 32" xmlns="http://www.w3.org/2000/svg" xmlns:xlink="http://www.w3.org/1999/xlink"><clipPath id="a"><path clip-rule="evenodd" d="m0 0h32v32h-32z"/></clipPath><metadata/><path d="m0 0h32v32h-32z" fill="none"/><g clip-path="url(#a)"><path d="m30 18.5c0 6.347-6.273 11.5-14 11.5s-14-5.153-14-11.5v-4c0-6.347 6.273-11.5 14-11.5s14 5.153 14 11.5z" fill="none" stroke="#000" stroke-width="4"/><path d="m2 14.5h28v4c0 6.347-6.273 11.5-14 11.5s-14-5.153-14-11.5z" fill="#d19747"/><ellipse cx="16" cy="14.5" fill="#daad6d" rx="14" ry="11.5"/><path d="m16 4c7.055 0 12.783 4.705 12.783 10.5s-5.728 10.5-12.783 10.5-12.783-4.705-12.783-10.5 5.728-10.5 12.783-10.5zm0 6c3.024 0 5.478 2.016 5.478 4.5s-2.454 4.5-5.478 4.5-5.478-2.016-5.478-4.5 2.454-4.5 5.478-4.5z" fill="#fff"/><path d="m12.114 15.282c-.074-.251-.114-.513-.114-.782 0-1.813 1.792-3.286 4-3.286s4 1.473 4 3.286c0 .269-.04.531-.114.782-.993-.821-6.779-.821-7.772 0z" fill="#d19747"/><path d="m12.114 15.282c.993-.821 2.368-1.33 3.886-1.33s2.893.509 3.886 1.33c-.427 1.436-2.006 2.504-3.886 2.504s-3.459-1.068-3.886-2.504z"/><g fill="none" stroke="#ec79cc" stroke-width="1.5"><path d="m21 10h2"/><path d="m11 10 3-1"/><path d="m18 23 3-1"/><path d="m20 19.5h2"/><path d="m15 21-2 1"/><path d="m8 16-3-1"/><path d="m8 13-1-2"/><path d="m25 15-2-1"/><path d="m25 20v-2"/><path d="m12 7v-1"/><path d="m25 12 1-1"/><path d="m21 7-1-1"/><path d="m8 19 1 2"/><path d="m11 20h1"/><path d="m17 7-2-1"/><path d="m9 9-1-1"/></g></g></svg>