<svg clip-rule="evenodd" fill-rule="evenodd" stroke-linejoin="round" stroke-miterlimit="1.41421" viewBox="0 0 32 32" xmlns="http://www.w3.org/2000/svg"><metadata/><path d="m0 0v32h32v-32z" fill="none"/><path d="m16 9.107c-1.943 0-3.812.625-5.574 1.545-2.366-1.363-5.343-1.327-7.596.358-.253.189-.412.31-.412.31v2l1.803 2.399s.154-.117.406-.305c.813-.608 1.774-.797 2.723-.707l-.733.732c-2.106 2.105-2.106 5.564 0 7.668.062.062.121.122.176.178.003.003.005.007.008.01 2.004 2.002 5.297 2.001 7.301-.002h.002c1.059-1.06 1.633-2.513 1.587-4.01-.045-1.497-.706-2.91-1.828-3.904-.262-.232-.537-.475-.808-.715 1.917-.656 3.973-.656 5.89 0-.271.24-.546.483-.808.715-1.122.994-1.783 2.407-1.828 3.904-.046 1.497.528 2.95 1.588 4.01h.002c2.003 2.003 5.296 2.004 7.3.002.003-.003.006-.007.008-.01.055-.056.114-.116.176-.178 2.106-2.104 2.106-5.563 0-7.668l-.733-.732c.949-.09 1.91.099 2.723.707.252.188.406.305.406.305l1.803-2.399v-2s-.159-.121-.412-.31h-.002c-2.253-1.684-5.229-1.721-7.594-.358-1.762-.92-3.631-1.545-5.574-1.545zm-5.68 7.141c.523.462 1.049.929 1.553 1.375s.8 1.079.82 1.752c.021.673-.236 1.321-.713 1.797-.856.857-2.2.857-3.058 0-.063-.064-.125-.127-.184-.186-.958-.957-.958-2.466 0-3.423l.778-.78c.238-.238.548-.328.804-.535zm11.36 0c.256.207.566.297.804.535l.778.78c.958.957.958 2.466 0 3.423-.059.059-.121.122-.184.186-.858.857-2.202.857-3.058 0-.477-.476-.734-1.124-.713-1.797.02-.673.316-1.306.82-1.752s1.03-.913 1.553-1.375z" fill="none" stroke="#000" stroke-width="4"/><path d="m7 16h18v5h-18z"/><g fill="#747474"><path d="m16 11.107c-1.943 0-3.812.625-5.574 1.545-2.366-1.363-5.343-1.327-7.596.358-.253.189-.412.31-.412.31l1.803 2.399s.154-.117.406-.305c.813-.608 1.774-.797 2.723-.707l-.733.732c-2.106 2.105-2.106 5.564 0 7.668.062.062.121.122.176.178.003.003.005.007.008.01 2.004 2.002 5.297 2.001 7.301-.002h.002c1.059-1.06 1.633-2.513 1.587-4.01-.045-1.497-.706-2.91-1.828-3.904-.262-.232-.537-.475-.808-.715 1.917-.656 3.973-.656 5.89 0-.271.24-.546.483-.808.715-1.122.994-1.783 2.407-1.828 3.904-.046 1.497.528 2.95 1.588 4.01h.002c2.003 2.003 5.296 2.004 7.3.002.003-.003.006-.007.008-.01.055-.056.114-.116.176-.178 2.106-2.104 2.106-5.563 0-7.668l-.733-.732c.949-.09 1.91.099 2.723.707.252.188.406.305.406.305l1.803-2.399s-.159-.121-.412-.31h-.002c-2.253-1.684-5.229-1.721-7.594-.358-1.762-.92-3.631-1.545-5.574-1.545zm-5.68 5.141c.523.462 1.049.929 1.553 1.375s.8 1.079.82 1.752c.021.673-.236 1.321-.713 1.797-.856.857-2.2.857-3.058 0-.063-.064-.125-.127-.184-.186-.958-.957-.958-2.466 0-3.423l.778-.78c.238-.238.548-.328.804-.535zm11.36 0c.256.207.566.297.804.535l.778.78c.958.957.958 2.466 0 3.423-.059.059-.121.122-.184.186-.858.857-2.202.857-3.058 0-.477-.476-.734-1.124-.713-1.797.02-.673.316-1.306.82-1.752s1.03-.913 1.553-1.375z" fill-rule="nonzero"/><path d="m2.418 11.32v2h2.582v-1.948z"/><path d="m27 11.32v2h2.582v-1.948z"/><path d="m5.039 17.342h2.961v1.984h-2.961z"/><path d="m24 17.342h2.961v1.984h-2.961z"/></g><path d="m16 9.107c-1.943 0-3.812.625-5.574 1.545-2.366-1.363-5.343-1.327-7.596.358-.253.189-.412.31-.412.31l1.803 2.399s.154-.117.406-.305c.813-.608 1.774-.797 2.723-.707l-.733.732c-2.106 2.105-2.106 5.564 0 7.668.062.062.121.122.176.178.003.003.005.007.008.01 2.004 2.002 5.297 2.001 7.301-.002h.002c1.059-1.06 1.633-2.513 1.587-4.01-.045-1.497-.706-2.91-1.828-3.904-.262-.232-.537-.475-.808-.715 1.917-.656 3.973-.656 5.89 0-.271.24-.546.483-.808.715-1.122.994-1.783 2.407-1.828 3.904-.046 1.497.528 2.95 1.588 4.01h.002c2.003 2.003 5.296 2.004 7.3.002.003-.003.006-.007.008-.01.055-.056.114-.116.176-.178 2.106-2.104 2.106-5.563 0-7.668l-.733-.732c.949-.09 1.91.099 2.723.707.252.188.406.305.406.305l1.803-2.399s-.159-.121-.412-.31h-.002c-2.253-1.684-5.229-1.721-7.594-.358-1.762-.92-3.631-1.545-5.574-1.545zm-5.68 5.141c.523.462 1.049.929 1.553 1.375s.8 1.079.82 1.752c.021.673-.236 1.321-.713 1.797-.856.857-2.2.857-3.058 0-.063-.064-.125-.127-.184-.186-.958-.957-.958-2.466 0-3.423l.778-.78c.238-.238.548-.328.804-.535zm11.36 0c.256.207.566.297.804.535l.778.78c.958.957.958 2.466 0 3.423-.059.059-.121.122-.184.186-.858.857-2.202.857-3.058 0-.477-.476-.734-1.124-.713-1.797.02-.673.316-1.306.82-1.752s1.03-.913 1.553-1.375z" fill="#fff" fill-rule="nonzero"/></svg>