<svg clip-rule="evenodd" fill-rule="evenodd" stroke-linejoin="round" stroke-miterlimit="2" viewBox="0 0 32 32" xmlns="http://www.w3.org/2000/svg" xmlns:xlink="http://www.w3.org/1999/xlink"><clipPath id="a"><path clip-rule="evenodd" d="m0 0h32v32h-32z"/></clipPath><metadata/><path d="m0 0h32v32h-32z" fill="none"/><g clip-path="url(#a)"><path d="m16 2c8.837 0 16 7.163 16 16v1c0 7.18-5.82 13-13 13-1.972 0-4.028 0-6 0-7.18 0-13-5.82-13-13 0-.332 0-.665 0-1 0-8.837 7.163-16 16-16z"/><path d="m16 30h-3c-6.075 0-11-4.925-11-11 0-.332 0-.665 0-1 0-7.732 6.268-14 14-14 7.732 0 14 6.268 14 14v1c0 5.392-3.88 9.878-9 10.819l-1-.819h-3z" fill="#fbc546"/><path d="m9.19 20.895c-.307-.352-.588-.731-.84-1.134-.499-.799-.99-1.586-1.394-2.231-.192-.308-.203-.697-.026-1.015.176-.318.511-.515.874-.515h16.392c.363 0 .698.197.874.515.177.318.166.707-.026 1.015-.404.645-.895 1.432-1.394 2.231-.252.403-.533.782-.84 1.134-1.07-1.77-12.55-1.77-13.62 0z" fill="#722245"/><path d="m16 18 1.071.685.13 3.633-1.201 1.682h-.001c-2.634 0-5.111-1.15-6.809-3.105 1.07-1.77 3.003-2.895 5.135-2.895zm5 1.005c.728.485 1.349 1.128 1.81 1.89-.533.614-1.143 1.148-1.81 1.593l-.946-.751-.194-2.367z" fill="#ca3b8f"/><path d="m16 30v-12h1.675c1.214 0 2.363.365 3.325 1.005v10.814c-.649.119-1.317.181-2 .181z" fill="#009ad2"/><g fill-rule="nonzero"><path d="m12.906 10.576c.116.231.135.499.053.744s-.257.447-.489.563c-1.077.538-2.902 1.451-4 2-.244.122-.525.142-.783.056s-.471-.271-.593-.514v-.001c-.116-.231-.135-.499-.053-.744s.257-.447.489-.563c1.077-.538 2.902-1.451 4-2 .244-.122.525-.142.783-.056s.471.271.593.514z"/><path d="m24.47 12.117c.232.116.407.318.489.563s.063.513-.053.744v.001c-.122.243-.335.428-.593.514s-.539.066-.783-.056c-1.098-.549-2.923-1.462-4-2-.232-.116-.407-.318-.489-.563s-.063-.513.053-.744v-.001c.122-.243.335-.428.593-.514s.539-.066.783.056c1.098.549 2.923 1.462 4 2z"/></g></g></svg>