<svg clip-rule="evenodd" fill-rule="evenodd" stroke-linecap="round" stroke-miterlimit="3" viewBox="0 0 32 32" xmlns="http://www.w3.org/2000/svg" xmlns:xlink="http://www.w3.org/1999/xlink"><clipPath id="a"><path clip-rule="evenodd" d="m0 0h32v32h-32z"/></clipPath><clipPath id="b"><path clip-rule="evenodd" d="m26.667 30s1.374-4.124 2.358-7.075c.646-1.937.975-3.966.975-6.008 0-.239 0-.487 0-.743 0-3.236-1.451-6.301-3.953-8.352-2.502-2.052-5.792-2.873-8.965-2.238h-.001c-1.357.271-2.603.938-3.581 1.916-.287.287-.5.5-.5.5l-2 3v3l3 2s1.829.784 3.617 1.55c1.912.82 2.877 2.968 2.219 4.942-1.074 3.221-2.503 7.508-2.503 7.508z"/></clipPath><metadata/><path d="m0 0h32v32h-32z" fill="none"/><g clip-path="url(#a)"><path d="m26.667 30s1.374-4.124 2.358-7.075c.646-1.937.975-3.966.975-6.008 0-.239 0-.487 0-.743 0-3.236-1.451-6.301-3.953-8.352-2.502-2.052-5.792-2.873-8.965-2.238h-.001c-1.357.271-2.603.938-3.581 1.916-.287.287-.5.5-.5.5l-2 3v3l3 2s1.829.784 3.617 1.55c1.912.82 2.877 2.968 2.219 4.942-1.074 3.221-2.503 7.508-2.503 7.508z" fill="none" stroke="#000" stroke-width="4"/><path d="m13 8v3c0 .649.211 1.281.6 1.8.344.458.788 1.05 1.2 1.6.227.303.264.708.094 1.047-.169.339-.515.553-.894.553-3.869 0-12 0-12 0 0-1.763 1.2-3.3 2.91-3.728 1.399-.349 2.99-.747 4.015-1.003.703-.176 1.346-.54 1.858-1.052.889-.889 2.217-2.217 2.217-2.217z" fill="none" stroke="#000" stroke-linejoin="round" stroke-width="4"/><path d="m26.667 30s1.374-4.124 2.358-7.075c.646-1.937.975-3.966.975-6.008 0-.239 0-.487 0-.743 0-3.236-1.451-6.301-3.953-8.352-2.502-2.052-5.792-2.873-8.965-2.238h-.001c-1.357.271-2.603.938-3.581 1.916-.287.287-.5.5-.5.5l-2 3v3l3 2s1.829.784 3.617 1.55c1.912.82 2.877 2.968 2.219 4.942-1.074 3.221-2.503 7.508-2.503 7.508z" fill="#0a4234"/><g clip-path="url(#b)"><path d="m27 5v5c0 4.971-4.029 9-9 9l-4 4v2h-4v-20z" fill="#127b47"/><path d="m17 25h12.177l-2.287 2.016-6.638-.016z" fill="#fff"/><path d="m15 26h14v5h-14z" fill="#5b4e3d"/></g><circle cx="18.5" cy="9.5" r="1.5"/><path d="m2 16c0-1.763 1.2-3.3 2.91-3.728 1.399-.349 2.99-.747 4.015-1.003.703-.176 1.346-.54 1.858-1.052.889-.889 2.217-2.217 2.217-2.217v3c0 .649.211 1.281.6 1.8.344.458.788 1.05 1.2 1.6.227.303.264.708.094 1.047-.169.339-.515.553-.894.553-3.869 0-12 0-12 0z" fill="#b6b423"/><path d="m11 12.5c0-.133-.053-.26-.146-.354-.094-.093-.221-.146-.354-.146-.305 0-.695 0-1 0-.133 0-.26.053-.354.146-.093.094-.146.221-.146.354s.053.26.146.354c.094.093.221.146.354.146h1c.133 0 .26-.053.354-.146.093-.094.146-.221.146-.354z" fill="#3e3d0c"/></g></svg>