<svg clip-rule="evenodd" fill-rule="evenodd" stroke-linejoin="round" stroke-miterlimit="1.41421" viewBox="0 0 32 32" xmlns="http://www.w3.org/2000/svg" xmlns:xlink="http://www.w3.org/1999/xlink"><clipPath id="a"><path clip-rule="evenodd" d="m0 0h32v32h-32z"/></clipPath><metadata/><path d="m0 0h32v32h-32z" fill="none"/><g clip-path="url(#a)"><circle cx="16" cy="16" r="16"/><circle cx="16" cy="16" fill="#a1e5f4" r="14"/><path d="m8.222 6.808c-.188-.188-.442-.293-.707-.293s-.52.105-.707.293c-.188.187-.293.442-.293.707s.105.519.293.707l16.97 16.97c.188.188.442.293.707.293s.52-.105.707-.293c.188-.187.293-.442.293-.707s-.105-.519-.293-.707c-2.923-2.923-14.047-14.047-16.97-16.97z" fill="#d3f5fc"/><path d="m4.668 11.928c-.256-.068-.529-.032-.759.1-.23.133-.397.351-.466.607-.069.257-.033.529.1.759.132.23.351.397.607.466 3.993 1.07 19.189 5.142 23.182 6.212.256.068.529.032.759-.1.23-.133.397-.351.466-.607.069-.257.033-.529-.1-.759-.132-.23-.351-.397-.607-.466-3.993-1.07-19.189-5.142-23.182-6.212z" fill="#d3f5fc"/><circle cx="16" cy="16" fill="#46cee9" r="6"/><circle cx="16" cy="16" fill="#a1e5f4" r="3"/><circle cx="16" cy="16" r="2"/></g></svg>