<svg clip-rule="evenodd" fill-rule="evenodd" stroke-linecap="round" stroke-miterlimit="3" viewBox="0 0 32 32" xmlns="http://www.w3.org/2000/svg" xmlns:xlink="http://www.w3.org/1999/xlink"><clipPath id="a"><path clip-rule="evenodd" d="m0 0h32v32h-32z"/></clipPath><clipPath id="b"><path clip-rule="evenodd" d="m30 30-2-9 2 1-2-7 2 1s0-.428 0-1.056c0-3.03-1.712-5.8-4.422-7.155-.757-.379-1.494-.747-2.1-1.05-.972-.486-2.044-.739-3.13-.739-1.016 0-2.36 0-3.62 0-2.387 0-4.676.948-6.364 2.636-.222.222-.364.364-.364.364l-2 5 6.369 3.184c.901.451 1.266 1.546.815 2.447-.247.495-.526 1.052-.799 1.599-.911 1.822-1.385 3.83-1.385 5.867v2.903z"/></clipPath><clipPath id="c"><path clip-rule="evenodd" d="m10 9c.428 0 .826.222 1.052.586.225.365.245.82.054 1.203-.533 1.065-1.106 2.211-1.106 2.211l4 1s-3.703.463-6.071.759c-1.205.151-2.255.894-2.798 1.98-.54 1.079-1.131 2.261-1.131 2.261s-.481-.841-.971-1.699c-.647-1.132-.716-2.505-.186-3.697.737-1.659 2.138-2.931 3.86-3.505 1.592-.531 3.297-1.099 3.297-1.099z"/></clipPath><metadata/><path d="m0 0h32v32h-32z" fill="none"/><g clip-path="url(#a)"><g fill="none"><path d="m30 30-2-9 2 1-2-7 2 1s0-.428 0-1.056c0-3.03-1.712-5.8-4.422-7.155-.757-.379-1.494-.747-2.1-1.05-.972-.486-2.044-.739-3.13-.739-1.016 0-2.36 0-3.62 0-2.387 0-4.676.948-6.364 2.636-.222.222-.364.364-.364.364l-2 5 6.369 3.184c.901.451 1.266 1.546.815 2.447-.247.495-.526 1.052-.799 1.599-.911 1.822-1.385 3.83-1.385 5.867v2.903z" stroke="#000" stroke-width="4"/><path d="m10 9v4l4 1s-3.703.463-6.071.759c-1.205.151-2.255.894-2.798 1.98-.54 1.079-1.131 2.261-1.131 2.261s-.481-.841-.971-1.699c-.647-1.132-.716-2.505-.186-3.697.737-1.659 2.138-2.931 3.86-3.505 1.592-.531 3.297-1.099 3.297-1.099z" stroke="#000" stroke-width="4"/><path d="m5 15 7-1h2s-.216.432-.447.894c-.339.678-1.032 1.106-1.789 1.106-.766 0-1.708 0-2.271 0-.327 0-.654-.04-.971-.12-1.062-.265-3.522-.88-3.522-.88z" stroke="#000" stroke-width="4"/></g><path d="m30 30-2-9 2 1-2-7 2 1s0-.428 0-1.056c0-3.03-1.712-5.8-4.422-7.155-.757-.379-1.494-.747-2.1-1.05-.972-.486-2.044-.739-3.13-.739-1.016 0-2.36 0-3.62 0-2.387 0-4.676.948-6.364 2.636-.222.222-.364.364-.364.364l-2 5 6.369 3.184c.901.451 1.266 1.546.815 2.447-.247.495-.526 1.052-.799 1.599-.911 1.822-1.385 3.83-1.385 5.867v2.903z" fill="#816148"/><g clip-path="url(#b)"><path d="m30 22-4-2 3 5z" fill="#beb7a9"/><path d="m30 16-4-2 4 6z" fill="#beb7a9"/><path d="m13 26 3-3v3l5-5v3l4-4h1l6 6v5h-19z" fill="#6f543e"/><g fill="#836a59"><path d="m25 23v2.343c0 1.061.421 2.078 1.172 2.829.841.841 1.828 1.828 1.828 1.828s0-1.243 0-2.343c0-1.061-.421-2.078-1.172-2.829-.841-.841-1.828-1.828-1.828-1.828z"/><path d="m23 25v2.343c0 1.061-.421 2.078-1.172 2.829-.841.841-1.828 1.828-1.828 1.828s0-1.243 0-2.343c0-1.061.421-2.078 1.172-2.829.841-.841 1.828-1.828 1.828-1.828z"/><path d="m18 27v2.343c0 1.061-.421 2.078-1.172 2.829-.841.841-1.828 1.828-1.828 1.828s0-1.243 0-2.343c0-1.061.421-2.078 1.172-2.829.841-.841 1.828-1.828 1.828-1.828z"/></g></g><circle cx="18" cy="11" fill="#34270d" r="2"/><circle cx="18" cy="11" r="1"/><path d="m10 9c.428 0 .826.222 1.052.586.225.365.245.82.054 1.203-.533 1.065-1.106 2.211-1.106 2.211l4 1s-3.703.463-6.071.759c-1.205.151-2.255.894-2.798 1.98-.54 1.079-1.131 2.261-1.131 2.261s-.481-.841-.971-1.699c-.647-1.132-.716-2.505-.186-3.697.737-1.659 2.138-2.931 3.86-3.505 1.592-.531 3.297-1.099 3.297-1.099z" fill="#2e2f34"/><g clip-path="url(#c)"><path d="m5 10s2.303 2.303 3.414 3.414c.375.375.586.884.586 1.414v1.047l7-.875v-7h-9z" fill="#f1c500"/></g><path d="m8.077 14.231.213.056.462 1.491-.116.129c-.038-.008-.076-.017-.114-.027-1.062-.265-3.522-.88-3.522-.88z" fill="#2e2f34"/><path d="m8.077 14.231.923-.231h5s-.216.432-.447.894c-.339.678-1.032 1.106-1.789 1.106-.766 0-1.708 0-2.271 0-.288 0-.576-.031-.857-.093z" fill="#f1c500"/><path d="m16 10s.519-.173 1.125-.375c1.217-.406 2.533-.406 3.75 0 .606.202 1.125.375 1.125.375" fill="none" stroke="#604836"/><path d="m10 13.5h2.725c.831 0 1.644.246 2.336.707.443.295.941.628 1.322.881.402.269.875.412 1.359.412h1.258" fill="none" stroke="#f1c500"/></g></svg>