<svg clip-rule="evenodd" fill-rule="evenodd" stroke-linejoin="round" stroke-miterlimit="2" viewBox="0 0 32 32" xmlns="http://www.w3.org/2000/svg" xmlns:xlink="http://www.w3.org/1999/xlink"><clipPath id="a"><path clip-rule="evenodd" d="m0 0h32v32h-32z"/></clipPath><clipPath id="b"><circle clip-rule="evenodd" cx="16" cy="16" r="14"/></clipPath><clipPath id="c"><path clip-rule="evenodd" d="m1 14 1 2s.187.562.4 1.199c.395 1.185 1.059 2.26 1.942 3.143 0 0 .001.001.001.001.11.11.275.143.419.083.144-.059.238-.2.238-.355 0-.262 0-.551 0-.828 0-.796.316-1.559.879-2.122.885-.885 2.121-2.121 2.121-2.121l1 2h1v3.241c0 .503.081 1.002.24 1.479.181.544.426 1.277.588 1.763.037.111.128.194.242.221.113.027.233-.007.315-.089.153-.153.322-.322.443-.443.103-.103.128-.259.063-.389-.097-.195-.247-.496-.397-.795-.325-.65-.494-1.366-.494-2.092 0-.856 0-1.896 0-1.896s.371.742.661 1.322c.208.416.632.678 1.097.678h.002c.685 0 1.24-.555 1.24-1.24v-.436c0-.213-.05-.423-.145-.613-.277-.555-.855-1.711-.855-1.711h1.528c.31 0 .617-.072.894-.211.583-.291 1.654-.827 2.472-1.236.678-.339 1.106-1.032 1.106-1.789 0-.456 0-.945 0-1.292 0-.31-.072-.617-.211-.894-.113-.227-.257-.513-.39-.78-.262-.525-.399-1.104-.399-1.691 0-.066 0-.107 0-.107s1.173 1.173 1.723 1.723c.073.073.173.114.277.114s.204-.041.277-.114c.139-.139.307-.307.446-.446.073-.073.114-.173.114-.277s-.041-.204-.114-.277c-.296-.296-.723-.723-.723-.723h.336c.367 0 .664-.297.664-.664 0-.883 0-2.336 0-2.336s.718.359 1.293.647c.152.075.331.067.475-.022s.232-.246.232-.415c0-.035 0-.067 0-.095 0-.076-.018-.15-.052-.218-.204-.409-.948-1.897-.948-1.897v-1h-21v12z"/></clipPath><clipPath id="d"><path clip-rule="evenodd" d="m13.059 23.941c-.038.038-.059.089-.059.142v1.717c0 .11.09.2.2.2h.676c.076 0 .145-.043.179-.111.189-.377.802-1.603.924-1.847.014-.028.021-.058.021-.089 0-.196 0-.958 0-1.47 0-.081-.049-.154-.123-.185-.075-.031-.161-.014-.218.043-.492.492-1.367 1.367-1.6 1.6z"/></clipPath><clipPath id="e"><path clip-rule="evenodd" d="m17 30s-.219-.656-.451-1.354c-.315-.945.112-1.977 1.002-2.422 1.125-.562 2.449-1.224 2.449-1.224l2-3 1 2h1l1-2v2l2 4-2 3-3-1z"/></clipPath><clipPath id="f"><path clip-rule="evenodd" d="m26 21v.917c0 .053.021.104.059.142l1.6 1.6c.057.057.143.074.218.043.074-.031.123-.104.123-.185 0-.167 0-.337 0-.434 0-.053-.021-.104-.059-.142-.33-.33-1.941-1.941-1.941-1.941"/></clipPath><metadata/><path d="m0 0h32v32h-32z" fill="none"/><g clip-path="url(#a)"><circle cx="16" cy="16" r="16"/><circle cx="16" cy="16" fill="#0750fa" r="14"/><g clip-path="url(#b)"><circle cx="19" cy="13" fill="#2867fa" r="13"/><path d="m1 14 1 2s.187.562.4 1.199c.395 1.185 1.059 2.26 1.942 3.143 0 0 .001.001.001.001.11.11.275.143.419.083.144-.059.238-.2.238-.355 0-.262 0-.551 0-.828 0-.796.316-1.559.879-2.122.885-.885 2.121-2.121 2.121-2.121l1 2h1v3.241c0 .503.081 1.002.24 1.479.181.544.426 1.277.588 1.763.037.111.128.194.242.221.113.027.233-.007.315-.089.153-.153.322-.322.443-.443.103-.103.128-.259.063-.389-.097-.195-.247-.496-.397-.795-.325-.65-.494-1.366-.494-2.092 0-.856 0-1.896 0-1.896s.371.742.661 1.322c.208.416.632.678 1.097.678h.002c.685 0 1.24-.555 1.24-1.24v-.436c0-.213-.05-.423-.145-.613-.277-.555-.855-1.711-.855-1.711h1.528c.31 0 .617-.072.894-.211.583-.291 1.654-.827 2.472-1.236.678-.339 1.106-1.032 1.106-1.789 0-.456 0-.945 0-1.292 0-.31-.072-.617-.211-.894-.113-.227-.257-.513-.39-.78-.262-.525-.399-1.104-.399-1.691 0-.066 0-.107 0-.107s1.173 1.173 1.723 1.723c.073.073.173.114.277.114s.204-.041.277-.114c.139-.139.307-.307.446-.446.073-.073.114-.173.114-.277s-.041-.204-.114-.277c-.296-.296-.723-.723-.723-.723h.336c.367 0 .664-.297.664-.664 0-.883 0-2.336 0-2.336s.718.359 1.293.647c.152.075.331.067.475-.022s.232-.246.232-.415c0-.035 0-.067 0-.095 0-.076-.018-.15-.052-.218-.204-.409-.948-1.897-.948-1.897v-1h-21v12z" fill="#48bd28"/><g clip-path="url(#c)"><circle cx="19" cy="13" fill="#4ecd2b" r="13"/><path d="m2 7h13v.001c0 .603-.367 1.146-.928 1.37-.711.285-1.572.629-1.572.629l2 1.5s-.018.006-.049.016c-.961.321-1.968.484-2.981.484-.862 0-1.908 0-2.624 0-.224 0-.44.089-.598.248-.159.158-.248.374-.248.598v.001c0 .384.261.718.633.811.586.147 1.367.342 1.367.342s-2.404.401-4.168.695c-1.057.176-1.832 1.09-1.832 2.162v5.143h-2z" fill="#f4c815"/></g><g fill="#4ecd2b"><path d="m22.279 7c-.154 0-.279.125-.279.279v1.244c0 .305-.121.598-.337.814-.39.39-1.025 1.025-1.387 1.387-.152.152-.152.4 0 .552.12.12.261.261.387.387.083.083.198.124.315.113.116-.012.221-.075.286-.172.408-.612 1.182-1.773 1.543-2.314.126-.189.193-.411.193-.639 0-.39 0-1.013 0-1.372 0-.154-.125-.279-.279-.279-.138 0-.304 0-.442 0z"/><path d="m16 17.847c0-.093-.064-.173-.154-.194-.09-.022-.183.022-.225.105-.241.482-.522 1.043-.6 1.2-.014.028-.021.058-.021.089v.87c0 .053.021.104.059.142.115.115.38.38.6.6.057.057.143.074.218.043.074-.031.123-.104.123-.185 0-.661 0-1.858 0-2.67z"/><path d="m17 20v.917c0 .053-.021.104-.059.142-.154.154-.577.577-.8.8-.078.078-.078.204 0 .282l.718.718c.078.078.204.078.282 0l.8-.8c.038-.038.059-.089.059-.142 0-.188 0-.646 0-.834 0-.053.021-.104.059-.142.115-.115.38-.38.6-.6.057-.057.074-.143.043-.218-.031-.074-.104-.123-.185-.123-.255 0-.517 0-.517 0z"/><path d="m20.2 20c-.11 0-.2.09-.2.2v.6c0 .11.09.2.2.2h1.753c.031 0 .061.007.089.021.213.107 1.177.589 1.669.834.062.031.135.028.194-.008.059-.037.095-.101.095-.171 0-.208 0-.464 0-.593 0-.053.021-.104.059-.142l.882-.882c.038-.038.059-.089.059-.142 0-.129 0-.385 0-.593 0-.07-.036-.134-.095-.171-.059-.036-.132-.039-.194-.008-.492.245-1.456.727-1.669.834-.028.014-.058.021-.089.021-.317 0-2.141 0-2.753 0z"/><path d="m18 17.5c0-.276.224-.5.5-.5.133 0 .26.053.354.146.093.094.146.221.146.354v.293c0 .202-.122.384-.309.462-.186.077-.402.034-.545-.109-.093-.093-.146-.22-.146-.353 0-.086 0-.189 0-.293z"/><path d="m18.5 15c-.276 0-.5.224-.5.5s.224.5.5.5.5-.224.5-.5-.224-.5-.5-.5z"/><path d="m16.2 24c-.11 0-.2.09-.2.2v.6c0 .11.09.2.2.2h.717c.053 0 .104-.021.142-.059.115-.115.38-.38.6-.6.057-.057.074-.143.043-.218-.031-.074-.104-.123-.185-.123-.421 0-1.012 0-1.317 0z"/></g><path d="m13.059 23.941c-.038.038-.059.089-.059.142v1.717c0 .11.09.2.2.2h.676c.076 0 .145-.043.179-.111.189-.377.802-1.603.924-1.847.014-.028.021-.058.021-.089 0-.196 0-.958 0-1.47 0-.081-.049-.154-.123-.185-.075-.031-.161-.014-.218.043-.492.492-1.367 1.367-1.6 1.6z" fill="#48bd28"/><g clip-path="url(#d)"><circle cx="19" cy="13" fill="#4ecd2b" r="13"/></g><path d="m17 30s-.219-.656-.451-1.354c-.315-.945.112-1.977 1.002-2.422 1.125-.562 2.449-1.224 2.449-1.224l2-3 1 2h1l1-2v2l2 4-2 3-3-1z" fill="#48bd28"/><g clip-path="url(#e)"><circle cx="19" cy="13" fill="#4ecd2b" r="13"/><path d="m16 26h5l1-1 3 1v3h-6l-3-2z" fill="#f4c815"/></g><path d="m8 23s.865.865.986.986c.009.009.018.02.025.03.142.213 1.614 2.421 1.93 2.895.037.056.099.089.166.089h.693c.11 0 .2-.09.2-.2v-.717c0-.053-.021-.104-.059-.142-.33-.33-1.941-1.941-1.941-1.941" fill="#48bd28"/><path d="m26 21v.917c0 .053.021.104.059.142l1.6 1.6c.057.057.143.074.218.043.074-.031.123-.104.123-.185 0-.167 0-.337 0-.434 0-.053-.021-.104-.059-.142-.33-.33-1.941-1.941-1.941-1.941" fill="#48bd28"/><g clip-path="url(#f)"><circle cx="19" cy="13" fill="#4ecd2b" r="13"/></g></g></g></svg>