<svg clip-rule="evenodd" fill-rule="evenodd" stroke-linejoin="round" stroke-miterlimit="2" viewBox="0 0 32 32" xmlns="http://www.w3.org/2000/svg" xmlns:xlink="http://www.w3.org/1999/xlink"><clipPath id="a"><path clip-rule="evenodd" d="m0 0h32v32h-32z"/></clipPath><clipPath id="b"><circle clip-rule="evenodd" cx="16" cy="16" r="14"/></clipPath><clipPath id="c"><path clip-rule="evenodd" d="m17.281 7.719c-.186.186-.333.406-.433.647-.479 1.154-1.925 4.634-1.925 4.634s-.442-.479-.714-.774c-.133-.144-.321-.226-.517-.226-.529 0-1.638 0-2.503 0-.671 0-1.229.517-1.28 1.186v.002c-.038.488.232.949.676 1.155.043.02.088.041.133.062.77.357 1.681.196 2.281-.404.001-.001.001-.001.001-.001v1.5c0 .133.053.26.146.354.094.093.221.146.354.146.276 0 .5.224.5.5 0 .133.053.26.146.354.094.093.221.146.354.146h3.65c.565 0 1.127.068 1.676.202.67.165 1.616.397 2.315.568.591.146 1.085.552 1.34 1.105.054.118.11.239.164.356.23.498.622.903 1.113 1.148.566.283 1.242.621 1.242.621s-.623 1.247-1.302 2.604c-1.116 2.232-2.745 4.169-4.752 5.652-1.795 1.326-3.715 2.744-3.715 2.744l-.231-3s.567-2.269.847-3.389c.09-.357-.081-.728-.41-.893h-.001c-.941-.47-1.743-1.178-2.327-2.054-.204-.307-.415-.623-.597-.896-.323-.485-.404-1.091-.22-1.643.295-.886.708-2.125.708-2.125s-1.058-.529-1.635-.817c-.243-.122-.494-.226-.752-.312-.811-.27-2.613-.871-2.613-.871l-1-2s-.124-.124-.31-.31c-1.082-1.082-1.69-2.55-1.69-4.081 0-.037 0-.074 0-.11 0-.96-.381-1.88-1.06-2.559-.863-.863-1.94-1.94-1.94-1.94v-4h14v.876c0 .621-.503 1.124-1.124 1.124h-.595c-.18 0-.353.072-.48.199-.109.109-.249.249-.381.381-.097.097-.142.235-.12.371s.108.253.231.315c.299.149.671.335.965.482.301.151.664.092.902-.146.04-.04.08-.08.121-.121.265-.265.697-.265.962 0 .592.592 1.519 1.519 1.519 1.519s-1.169 1.169-1.719 1.719z"/></clipPath><metadata/><path d="m0 0h32v32h-32z" fill="none"/><g clip-path="url(#a)"><circle cx="16" cy="16" r="16"/><circle cx="16" cy="16" fill="#0750fa" r="14"/><g clip-path="url(#b)"><circle cx="19" cy="13" fill="#2867fa" r="13"/><path d="m17.281 7.719c-.186.186-.333.406-.433.647-.479 1.154-1.925 4.634-1.925 4.634s-.442-.479-.714-.774c-.133-.144-.321-.226-.517-.226-.529 0-1.638 0-2.503 0-.671 0-1.229.517-1.28 1.186v.002c-.038.488.232.949.676 1.155.043.02.088.041.133.062.77.357 1.681.196 2.281-.404.001-.001.001-.001.001-.001v1.5c0 .133.053.26.146.354.094.093.221.146.354.146.276 0 .5.224.5.5 0 .133.053.26.146.354.094.093.221.146.354.146h3.65c.565 0 1.127.068 1.676.202.67.165 1.616.397 2.315.568.591.146 1.085.552 1.34 1.105.054.118.11.239.164.356.23.498.622.903 1.113 1.148.566.283 1.242.621 1.242.621s-.623 1.247-1.302 2.604c-1.116 2.232-2.745 4.169-4.752 5.652-1.795 1.326-3.715 2.744-3.715 2.744l-.231-3s.567-2.269.847-3.389c.09-.357-.081-.728-.41-.893h-.001c-.941-.47-1.743-1.178-2.327-2.054-.204-.307-.415-.623-.597-.896-.323-.485-.404-1.091-.22-1.643.295-.886.708-2.125.708-2.125s-1.058-.529-1.635-.817c-.243-.122-.494-.226-.752-.312-.811-.27-2.613-.871-2.613-.871l-1-2s-.124-.124-.31-.31c-1.082-1.082-1.69-2.55-1.69-4.081 0-.037 0-.074 0-.11 0-.96-.381-1.88-1.06-2.559-.863-.863-1.94-1.94-1.94-1.94v-4h14v.876c0 .621-.503 1.124-1.124 1.124h-.595c-.18 0-.353.072-.48.199-.109.109-.249.249-.381.381-.097.097-.142.235-.12.371s.108.253.231.315c.299.149.671.335.965.482.301.151.664.092.902-.146.04-.04.08-.08.121-.121.265-.265.697-.265.962 0 .592.592 1.519 1.519 1.519 1.519s-1.169 1.169-1.719 1.719z" fill="#48bd28"/><g clip-path="url(#c)"><circle cx="19" cy="13" fill="#4ecd2b" r="13"/><g fill="#f4c815"><path d="m7 9.372v.909c0 1.139.184 2.27.544 3.35.234.704.456 1.369.456 1.369l.5.5v-3.001c0-.276.223-.499.499-.499h.002c.276 0 .499.223.499.499v.001c0 .276.224.5.5.5l.5.5h.5v-1.714c0-.298-.143-.578-.385-.752s-.552-.222-.835-.127c-.016.005-.032.01-.047.015-.154.052-.316.078-.478.078-.03 0-.061 0-.093 0-.422 0-.825-.177-1.111-.487-.442-.48-1.051-1.141-1.051-1.141z"/><path d="m12 20h.885c.702 0 1.363.33 1.784.892.433.577 1 1.334 1.467 1.956.568.758 1.305 1.372 2.152 1.796.388.194.712.356.712.356s-.613 1.409-1.161 2.667c-.536 1.233-.547 2.631-.031 3.872.113.272.192.461.192.461h-4v-8z"/></g></g><path d="m19 1s.482 1.929.777 3.108c.131.524.602.892 1.143.892h.001c.286 0 .561-.114.763-.316s.316-.477.316-.763v-2.921h-3z" fill="#fff"/><g fill="#48bd28"><path d="m15.5 14c-.133 0-.26.053-.354.146-.093.094-.146.221-.146.354s.053.26.146.354c.094.093.221.146.354.146h1.5s-.47-.47-.765-.765c-.151-.151-.354-.235-.567-.235-.054 0-.111 0-.168 0z"/><path d="m17 15v.563c0 .116.046.227.128.309s.193.128.309.128h.126c.116 0 .227-.046.309-.128s.128-.193.128-.309v-.126c0-.116-.046-.227-.128-.309s-.193-.128-.309-.128z"/></g></g></g></svg>