<svg clip-rule="evenodd" fill-rule="evenodd" stroke-linejoin="round" stroke-miterlimit="2" viewBox="0 0 32 32" xmlns="http://www.w3.org/2000/svg" xmlns:xlink="http://www.w3.org/1999/xlink"><clipPath id="a"><path clip-rule="evenodd" d="m0 0h32v32h-32z"/></clipPath><clipPath id="b"><circle clip-rule="evenodd" cx="16" cy="16" r="14"/></clipPath><clipPath id="c"><path clip-rule="evenodd" d="m12 2v1.106c0 .548-.31 1.049-.799 1.294-.253.126-.523.261-.743.371-.301.151-.633.229-.97.229-.129 0-.254.051-.345.143-.092.091-.143.216-.143.345v1.512l-1 1v-3h-3v-3z"/></clipPath><metadata/><path d="m0 0h32v32h-32z" fill="none"/><g clip-path="url(#a)"><circle cx="16" cy="16" r="16"/><circle cx="16" cy="16" fill="#0750fa" r="14"/><g clip-path="url(#b)"><circle cx="19" cy="13" fill="#2867fa" r="13"/><path d="m8 23v.5c0 .276.224.5.5.5s.5.224.5.5.224.5.5.5h.421c.051 0 .099-.02.135-.056.175-.175.713-.713.888-.888.036-.036.056-.084.056-.135 0-.094 0-.257 0-.421 0-.133-.053-.26-.146-.354-.094-.093-.221-.146-.354-.146-.276 0-.5.224-.5.5v.5z" fill="#48bd28"/><path d="m8 25s-1.396 2.792-1.855 3.711c-.031.062-.028.135.008.194.037.059.101.095.171.095h1.476c.11 0 .2-.09.2-.2 0-.238 0-.62 0-.753 0-.031.007-.061.021-.089.144-.289.979-1.958.979-1.958" fill="#48bd28"/><g fill="#4ecd2b"><path d="m15.625 13c-.101 0-.187.075-.199.176-.012.1.052.194.15.218 1.03.258 2.218.555 2.4.6.016.004.032.006.049.006h.775c.11 0 .2-.09.2-.2 0-.174 0-.426 0-.6 0-.11-.09-.2-.2-.2h-.8z"/><path d="m10.5 20c-.276 0-.5.224-.5.5s.224.5.5.5.5-.224.5-.5-.224-.5-.5-.5z"/><path d="m19.5 19c-.276 0-.5.224-.5.5s.224.5.5.5.5-.224.5-.5-.224-.5-.5-.5z"/><path d="m7.5 16c-.276 0-.5.224-.5.5s.224.5.5.5.5-.224.5-.5-.224-.5-.5-.5z"/><path d="m13.5 12c-.276 0-.5.224-.5.5s.224.5.5.5.5-.224.5-.5-.224-.5-.5-.5z"/><path d="m11.5 12c-.276 0-.5.224-.5.5s.224.5.5.5.5-.224.5-.5-.224-.5-.5-.5z"/><path d="m10.5 11c-.276 0-.5.224-.5.5s.224.5.5.5.5-.224.5-.5-.224-.5-.5-.5z"/><path d="m8.5 11c-.276 0-.5.224-.5.5s.224.5.5.5.5-.224.5-.5-.224-.5-.5-.5z"/><path d="m12.5 15c-.276 0-.5.224-.5.5s.224.5.5.5.5-.224.5-.5-.224-.5-.5-.5z"/></g><path d="m5.5 18c-.276 0-.5.224-.5.5s.224.5.5.5.5-.224.5-.5-.224-.5-.5-.5z" fill="#48bd28"/><path d="m7.5 20c-.276 0-.5.224-.5.5s.224.5.5.5.5-.224.5-.5-.224-.5-.5-.5z" fill="#48bd28"/><path d="m25 2h-7v.892c0 .294.117.576.325.783.207.208.489.325.783.325h1.892l-1 1h2l3 1h3z" fill="#4ecd2b"/><path d="m12 2v1.106c0 .548-.31 1.049-.799 1.294-.253.126-.523.261-.743.371-.301.151-.633.229-.97.229-.129 0-.254.051-.345.143-.092.091-.143.216-.143.345v1.512l-1 1v-3h-3v-3z" fill="#48bd28"/><g clip-path="url(#c)"><circle cx="19" cy="13" fill="#4ecd2b" r="13"/></g><path d="m6 26v-2l-2-2-4-4v8z" fill="#48bd28"/><path d="m3 11h1v4l-2 2 1-2z" fill="#48bd28"/><path d="m3.212 20.106c-.13-.065-.212-.198-.212-.343 0-.001 0-.001 0-.001 0-.163.085-.315.223-.401.139-.085.313-.093.459-.02.444.222.982.491 1.209.604.072.036.151.055.231.055h.378c.276 0 .5.224.5.5s-.224.5-.5.5h-.378c-.08 0-.159-.019-.231-.055-.319-.159-1.255-.627-1.679-.839z" fill="#48bd28"/></g></g></svg>