<svg clip-rule="evenodd" fill-rule="evenodd" stroke-linejoin="round" stroke-miterlimit="2" viewBox="0 0 32 32" xmlns="http://www.w3.org/2000/svg" xmlns:xlink="http://www.w3.org/1999/xlink"><clipPath id="a"><path clip-rule="evenodd" d="m0 0h32v32h-32z"/></clipPath><clipPath id="b"><circle clip-rule="evenodd" cx="16" cy="16" r="14"/></clipPath><clipPath id="c"><path clip-rule="evenodd" d="m5 10.983c0-.614.307-1.188.818-1.528.536-.358 1.22-.814 1.678-1.119.329-.219.715-.336 1.11-.336h1.922c.31 0 .617-.072.894-.211.141-.07.305-.152.472-.236.678-.339 1.106-1.032 1.106-1.789 0-.41 0-.764 0-.764l-1-1h1v-2h-3l-2 2-2 2h-5v10s.171-.513.372-1.116c.134-.403.468-.708.882-.806.415-.098.85.026 1.151.327.78.78 1.595 1.595 1.595 1.595h1v-1h-.266c-.194 0-.381-.077-.519-.215s-.215-.325-.215-.519c0-.571 0-1.266 0-1.266l2 1v-1.982c0-.624.353-1.194.911-1.473.528-.264 1.089-.545 1.089-.545l-1-1s-1.002.501-1.588.794c-.252.126-.412.385-.412.667v.127c0 .264-.105.517-.291.703-.03.03-.061.061-.093.093-.104.104-.259.134-.393.079-.135-.056-.223-.188-.223-.334 0-.048 0-.097 0-.146z"/></clipPath><clipPath id="d"><path clip-rule="evenodd" d="m16 29s1.091-1.091 1.662-1.662c.216-.216.338-.51.338-.816 0-.257 0-.522 0-.522l2-2s.27-.27.53-.53c.301-.301.709-.47 1.135-.47h2.335v1s-.581.291-1.117.559c-.541.27-.883.823-.883 1.428v.013h1s1.456-1.941 2.339-3.119c.429-.572.661-1.268.661-1.983v-2.796c0-.715-.232-1.411-.661-1.983-.883-1.178-2.339-3.119-2.339-3.119h1v-2.103c0-.536-.343-1.011-.851-1.181-.887-.295-2.149-.716-2.149-.716s-.129-.388-.295-.885c-.451-1.354-1.422-2.474-2.699-3.112-1.002-.501-2.006-1.003-2.006-1.003v-1h1l3-2h12v31h-11v-3.03c0-.621.247-1.217.686-1.656.175-.175.314-.314.314-.314h-1s-.291.291-.558.558c-.283.283-.442.667-.442 1.067v3.375h-4z"/></clipPath><clipPath id="e"><path clip-rule="evenodd" d="m5 15h2v2.092c0 .592-.175 1.171-.504 1.664-.592.888-1.496 2.244-1.496 2.244l-1-2 1-3z"/></clipPath><metadata/><path d="m0 0h32v32h-32z" fill="none"/><g clip-path="url(#a)"><circle cx="16" cy="16" r="16"/><circle cx="16" cy="16" fill="#0750fa" r="14"/><g clip-path="url(#b)"><circle cx="19" cy="13" fill="#2867fa" r="13"/><path d="m8 17.669c0-.37.299-.669.669-.669h2.662c.37 0 .669.299.669.669v2.105c0 .806-.188 1.602-.548 2.323-.233.466-.452.903-.452.903h-1l-4 2v-2s.115-.115.291-.291c1.094-1.094 1.709-2.578 1.709-4.126 0-.344 0-.583 0-.583z" fill="#fff"/><path d="m10.869 25.869c-.146-.146-.189-.365-.11-.555.078-.19.264-.314.47-.314h2.249c.139 0 .271.055.369.153s.153.23.153.369v.262c0 .138-.055.271-.153.369-.188.188-.506.506-.694.694-.098.098-.231.153-.369.153-.3 0-.851 0-1.262 0-.139 0-.271-.055-.369-.153s-.153-.23-.153-.369c0-.106 0-.21 0-.294 0-.118-.047-.231-.13-.314 0 0-.001-.001-.001-.001z" fill="#fff"/><path d="m5 10.983c0-.614.307-1.188.818-1.528.536-.358 1.22-.814 1.678-1.119.329-.219.715-.336 1.11-.336h1.922c.31 0 .617-.072.894-.211.141-.07.305-.152.472-.236.678-.339 1.106-1.032 1.106-1.789 0-.41 0-.764 0-.764l-1-1h1v-2h-3l-2 2-2 2h-5v10s.171-.513.372-1.116c.134-.403.468-.708.882-.806.415-.098.85.026 1.151.327.78.78 1.595 1.595 1.595 1.595h1v-1h-.266c-.194 0-.381-.077-.519-.215s-.215-.325-.215-.519c0-.571 0-1.266 0-1.266l2 1v-1.982c0-.624.353-1.194.911-1.473.528-.264 1.089-.545 1.089-.545l-1-1s-1.002.501-1.588.794c-.252.126-.412.385-.412.667v.127c0 .264-.105.517-.291.703-.03.03-.061.061-.093.093-.104.104-.259.134-.393.079-.135-.056-.223-.188-.223-.334 0-.048 0-.097 0-.146z" fill="#48bd28"/><g clip-path="url(#c)"><circle cx="19" cy="13" fill="#4ecd2b" r="13"/></g><path d="m16 29s1.091-1.091 1.662-1.662c.216-.216.338-.51.338-.816 0-.257 0-.522 0-.522l2-2s.27-.27.53-.53c.301-.301.709-.47 1.135-.47h2.335v1s-.581.291-1.117.559c-.541.27-.883.823-.883 1.428v.013h1s1.456-1.941 2.339-3.119c.429-.572.661-1.268.661-1.983v-2.796c0-.715-.232-1.411-.661-1.983-.883-1.178-2.339-3.119-2.339-3.119h1v-2.103c0-.536-.343-1.011-.851-1.181-.887-.295-2.149-.716-2.149-.716s-.129-.388-.295-.885c-.451-1.354-1.422-2.474-2.699-3.112-1.002-.501-2.006-1.003-2.006-1.003v-1h1l3-2h12v31h-11v-3.03c0-.621.247-1.217.686-1.656.175-.175.314-.314.314-.314h-1s-.291.291-.558.558c-.283.283-.442.667-.442 1.067v3.375h-4z" fill="#48bd28"/><g clip-path="url(#d)"><circle cx="19" cy="13" fill="#4ecd2b" r="13"/></g><g fill="#fff"><path d="m10 14 1 1v1h-1.362c-.434 0-.851-.173-1.158-.48s-.48-.724-.48-1.158c0-.653 0-1.359 0-1.828 0-.295.239-.534.534-.534h.136c.202 0 .387.114.478.295.278.557.852 1.705.852 1.705z"/><path d="m9.5 10c.276 0 .5.224.5.5s-.224.5-.5.5-.5-.224-.5-.5.224-.5.5-.5z"/><path d="m21.5 10c.276 0 .5.224.5.5s-.224.5-.5.5-.5-.224-.5-.5.224-.5.5-.5z"/><path d="m20.5 17c.276 0 .5.224.5.5s-.224.5-.5.5-.5-.224-.5-.5.224-.5.5-.5z"/><path d="m22.478 14c.139 0 .271.055.369.153s.153.23.153.369v.956c0 .139-.055.271-.153.369s-.23.153-.369.153h-.634c-.181 0-.348-.094-.444-.247-.095-.154-.103-.346-.022-.508.167-.334.353-.707.478-.957.088-.176.269-.288.466-.288z"/><path d="m16.522 20c-.139 0-.271.055-.369.153s-.153.23-.153.369v.956c0 .139.055.271.153.369s.23.153.369.153h.156c.197 0 .378-.112.466-.288.125-.25.311-.623.478-.957.081-.162.073-.354-.022-.508-.096-.153-.263-.247-.444-.247-.215 0-.44 0-.634 0z"/><path d="m23.5 16c-.133 0-.26.053-.354.146-.093.094-.146.221-.146.354v2.177c0 .198.112.379.288.467.554.277 1.712.856 1.712.856s-.567-.567-.847-.847c-.098-.098-.153-.231-.153-.369 0-.475 0-1.62 0-2.284 0-.133-.053-.26-.146-.354-.094-.093-.221-.146-.354-.146z"/></g><path d="m0 18h2l1 1 1-1v1.538c0 .968-.156 1.93-.462 2.849-.262.786-.538 1.613-.538 1.613h-3z" fill="#48bd28"/><path d="m5 15h2v2.092c0 .592-.175 1.171-.504 1.664-.592.888-1.496 2.244-1.496 2.244l-1-2 1-3z" fill="#48bd28"/><g clip-path="url(#e)"><circle cx="19" cy="13" fill="#4ecd2b" r="13"/></g></g></g></svg>