<svg clip-rule="evenodd" fill-rule="evenodd" stroke-linejoin="round" stroke-miterlimit="2" viewBox="0 0 32 32" xmlns="http://www.w3.org/2000/svg" xmlns:xlink="http://www.w3.org/1999/xlink"><clipPath id="a"><path clip-rule="evenodd" d="m0 0h32v32h-32z"/></clipPath><clipPath id="b"><circle clip-rule="evenodd" cx="16" cy="16" r="14"/></clipPath><clipPath id="c"><path clip-rule="evenodd" d="m12 3 1 1-1 1s-.855.428-1.447.724c-.339.169-.553.515-.553.894v.382s-.759.506-1.513 1.009c-.278.185-.426.512-.382.843.045.331.274.608.59.713.212.071.417.139.601.2.431.144.907.032 1.229-.29.252-.252.558-.558.825-.825.388-.388.981-.484 1.472-.239.269.135.556.278.78.39.264.132.504.305.713.514 0 0 0 0 .001.001.181.181.427.283.684.283s.503-.102.684-.283c.197-.197.411-.411.609-.609.453-.453 1.067-.707 1.707-.707v-1.359c0-.137.071-.265.188-.337s.262-.079.385-.017c.296.147.653.326.935.467.114.057.194.165.214.291.021.126-.021.254-.111.344-.581.581-1.611 1.611-1.611 1.611l2 1h1l-2 2-3-1v1l-3-1-1-1s-.492.164-1.078.359c-1.251.417-2.346 1.207-3.138 2.262-.256.342-.524.7-.772 1.03-.629.838-.775 1.942-.386 2.914.197.491.415 1.038.62 1.549.455 1.139 1.558 1.886 2.785 1.886h1.37c.384 0 .751.152 1.022.423.587.587 1.577 1.577 1.577 1.577v1s.495.991.789 1.578c.139.277.211.584.211.894v1.032c0 .958.38 1.876 1.058 2.554.48.48.942.942.942.942h2s.691-2.072.924-2.772c.051-.152.112-.3.183-.443.362-.724 1.531-3.061 1.825-3.649.045-.09.068-.188.068-.288 0-.147 0-.376 0-.559 0-.19.044-.378.129-.548.443-.886 1.871-3.741 1.871-3.741-1.208 0-2.294-.735-2.743-1.857-.569-1.422-1.257-3.143-1.257-3.143h1s.901 1.802 1.493 2.987c.129.256.361.445.638.519s.573.025.812-.134c.879-.587 2.057-1.372 2.057-1.372l-1-1-1-2h1s.216.432.447.894c.339.678 1.032 1.106 1.789 1.106h.764l3-3v1h2v-12h-13-7l-1 3z"/></clipPath><clipPath id="d"><path clip-rule="evenodd" d="m9.5 3.623c0-.165.066-.324.182-.441.117-.116.276-.182.441-.182h.001c.23 0 .441.13.544.337.091.181.198.394.265.529.044.088.067.185.067.284v.229c0 .165-.065.323-.182.439-.116.117-.274.182-.439.182h-.001c-.232 0-.443-.131-.547-.338-.09-.18-.196-.391-.263-.526-.045-.089-.068-.188-.068-.288 0-.064 0-.142 0-.225z"/></clipPath><clipPath id="e"><path clip-rule="evenodd" d="m24 23.507c0-.28-.227-.507-.507-.507-.043 0-.086 0-.128 0-.218 0-.412.14-.48.346-.185.555-.547 1.641-.746 2.237-.08.239.028.501.254.613.249.125.578.29.874.437.157.079.343.071.493-.022.149-.092.24-.255.24-.431 0-.802 0-2 0-2.673z"/></clipPath><metadata/><path d="m0 0h32v32h-32z" fill="none"/><g clip-path="url(#a)"><circle cx="16" cy="16" r="16"/><circle cx="16" cy="16" fill="#0750fa" r="14"/><g clip-path="url(#b)"><circle cx="19" cy="13" fill="#2867fa" r="13"/><path d="m12 3 1 1-1 1s-.855.428-1.447.724c-.339.169-.553.515-.553.894v.382s-.759.506-1.513 1.009c-.278.185-.426.512-.382.843.045.331.274.608.59.713.212.071.417.139.601.2.431.144.907.032 1.229-.29.252-.252.558-.558.825-.825.388-.388.981-.484 1.472-.239.269.135.556.278.78.39.264.132.504.305.713.514 0 0 0 0 .001.001.181.181.427.283.684.283s.503-.102.684-.283c.197-.197.411-.411.609-.609.453-.453 1.067-.707 1.707-.707v-1.359c0-.137.071-.265.188-.337s.262-.079.385-.017c.296.147.653.326.935.467.114.057.194.165.214.291.021.126-.021.254-.111.344-.581.581-1.611 1.611-1.611 1.611l2 1h1l-2 2-3-1v1l-3-1-1-1s-.492.164-1.078.359c-1.251.417-2.346 1.207-3.138 2.262-.256.342-.524.7-.772 1.03-.629.838-.775 1.942-.386 2.914.197.491.415 1.038.62 1.549.455 1.139 1.558 1.886 2.785 1.886h1.37c.384 0 .751.152 1.022.423.587.587 1.577 1.577 1.577 1.577v1s.495.991.789 1.578c.139.277.211.584.211.894v1.032c0 .958.38 1.876 1.058 2.554.48.48.942.942.942.942h2s.691-2.072.924-2.772c.051-.152.112-.3.183-.443.362-.724 1.531-3.061 1.825-3.649.045-.09.068-.188.068-.288 0-.147 0-.376 0-.559 0-.19.044-.378.129-.548.443-.886 1.871-3.741 1.871-3.741-1.208 0-2.294-.735-2.743-1.857-.569-1.422-1.257-3.143-1.257-3.143h1s.901 1.802 1.493 2.987c.129.256.361.445.638.519s.573.025.812-.134c.879-.587 2.057-1.372 2.057-1.372l-1-1-1-2h1s.216.432.447.894c.339.678 1.032 1.106 1.789 1.106h.764l3-3v1h2v-12h-13-7l-1 3z" fill="#48bd28"/><g clip-path="url(#c)"><circle cx="19" cy="13" fill="#4ecd2b" r="13"/><g fill="#f4c815"><path d="m6 18h2.7c.855 0 1.698.199 2.463.581v.001c.55.275 1.157.418 1.773.418h.368c.461 0 .919-.074 1.356-.22.538-.179 1.289-.43 1.793-.598.362-.12.742-.182 1.123-.182h2.045c.762 0 1.379.617 1.379 1.379v.207c0 .905-.36 1.774-1 2.414 1.921 0 3.763-.763 5.121-2.121.707-.707 1.317-1.317 1.317-1.317l2.562-4.562 1-2-2-5h-5s.428.856.888 1.776c.238.477.213 1.042-.067 1.495s-.775.729-1.307.729c-2.012 0-4.514 0-4.514 0h-11l-2 3 1 4z"/><path d="m14 25h2v2l1 1 1-1v2l1 2h-5z"/></g></g><path d="m9.5 3.623c0-.165.066-.324.182-.441.117-.116.276-.182.441-.182h.001c.23 0 .441.13.544.337.091.181.198.394.265.529.044.088.067.185.067.284v.229c0 .165-.065.323-.182.439-.116.117-.274.182-.439.182h-.001c-.232 0-.443-.131-.547-.338-.09-.18-.196-.391-.263-.526-.045-.089-.068-.188-.068-.288 0-.064 0-.142 0-.225z" fill="#48bd28"/><g clip-path="url(#d)"><circle cx="19" cy="13" fill="#4ecd2b" r="13"/></g><path d="m24 23.507c0-.28-.227-.507-.507-.507-.043 0-.086 0-.128 0-.218 0-.412.14-.48.346-.185.555-.547 1.641-.746 2.237-.08.239.028.501.254.613.249.125.578.29.874.437.157.079.343.071.493-.022.149-.092.24-.255.24-.431 0-.802 0-2 0-2.673z" fill="#48bd28"/><g clip-path="url(#e)"><circle cx="19" cy="13" fill="#4ecd2b" r="13"/></g></g><path d="m22 6.392c0-.104.041-.204.115-.277.073-.074.173-.115.277-.115h.216c.104 0 .204.041.277.115.074.073.115.173.115.277v.608l1 2h-1.085c-.505 0-.915-.41-.915-.915 0-.566 0-1.265 0-1.693z" fill="#2867fa"/></g></svg>