<svg clip-rule="evenodd" fill-rule="evenodd" stroke-linejoin="round" stroke-miterlimit="2" viewBox="0 0 32 32" xmlns="http://www.w3.org/2000/svg" xmlns:xlink="http://www.w3.org/1999/xlink"><clipPath id="a"><path clip-rule="evenodd" d="m0 0h32v32h-32z"/></clipPath><clipPath id="b"><circle clip-rule="evenodd" cx="16" cy="16" r="14"/></clipPath><clipPath id="c"><path clip-rule="evenodd" d="m24 24.565c0-.15-.06-.293-.166-.399s-.249-.166-.399-.166c-.272 0-.598 0-.87 0-.15 0-.293.06-.399.166s-.166.249-.166.399v.52c0 .196.101.378.268.481s.375.113.55.025c.306-.153.636-.318.87-.435.191-.096.312-.291.312-.505 0-.028 0-.057 0-.086z"/></clipPath><metadata/><path d="m0 0h32v32h-32z" fill="none"/><g clip-path="url(#a)"><circle cx="16" cy="16" r="16"/><circle cx="16" cy="16" fill="#0750fa" r="14"/><g clip-path="url(#b)"><circle cx="19" cy="13" fill="#2867fa" r="13"/><path d="m9 11h1s.301.602.573 1.146c.277.554.727 1.004 1.281 1.281.042.021.083.042.125.062.643.322 1.399.322 2.042 0h.002c.625-.313 1.101-.862 1.323-1.526.084-.253.175-.527.262-.787.234-.702.891-1.176 1.632-1.176h3.697c.651 0 1.247.368 1.538.951.374.747.883 1.766 1.208 2.416.209.416.317.875.317 1.341v1.792c0 2.241-.89 4.39-2.475 5.975-.014.014-.028.028-.042.042-.95.95-2.237 1.483-3.58 1.483-2.062 0-4.903 0-4.903 0l1-2-1-1h-1.595c-.9 0-1.762-.357-2.399-.994-.029-.029-.059-.059-.088-.088-.588-.588-.918-1.385-.918-2.216 0-.147 0-.298 0-.445 0-.826.193-1.642.562-2.382.228-.455.438-.875.438-.875l-1-2v-2z" fill="#fff"/><path d="m17 31s.601-1.803.871-2.614c.077-.23.293-.386.536-.386h.809c.181 0 .352.087.458.235.107.147.135.337.078.509-.296.888-.752 2.256-.752 2.256z" fill="#48bd28"/><path d="m24 24.565c0-.15-.06-.293-.166-.399s-.249-.166-.399-.166c-.272 0-.598 0-.87 0-.15 0-.293.06-.399.166s-.166.249-.166.399v.52c0 .196.101.378.268.481s.375.113.55.025c.306-.153.636-.318.87-.435.191-.096.312-.291.312-.505 0-.028 0-.057 0-.086z" fill="#48bd28"/><g clip-path="url(#c)"><circle cx="19" cy="13" fill="#4ecd2b" r="13"/></g><path d="m27 26h-1.233c-1.132 0-2.216.449-3.016 1.249-.029.029-.057.057-.085.085-.427.427-.666 1.005-.666 1.608v2.058h5z" fill="#48bd28"/><path d="m5 10h1s-.347.347-.752.752c-.799.799-1.883 1.248-3.013 1.248-.652 0-1.235 0-1.235 0v-4h2z" fill="#48bd28"/><path d="m21 3s.407.611.854 1.281c.716 1.074 1.921 1.719 3.212 1.719h1.934v-4h-6z" fill="#4ecd2b"/></g></g></svg>