<svg clip-rule="evenodd" fill-rule="evenodd" stroke-linecap="round" stroke-miterlimit="2" viewBox="0 0 32 32" xmlns="http://www.w3.org/2000/svg" xmlns:xlink="http://www.w3.org/1999/xlink"><clipPath id="a"><path clip-rule="evenodd" d="m0 0h32v32h-32z"/></clipPath><metadata/><path d="m0 0h32v32h-32z" fill="none"/><g clip-path="url(#a)"><g stroke="#000"><path d="m26.565 16.177c.352-1.763-.104-3.591-1.244-4.981-1.139-1.39-2.842-2.196-4.64-2.196-1.324 0-2.602 0-3.61 0-1.326 0-2.598.527-3.535 1.464-2.55 2.55-7.536 7.536-7.536 7.536-.64 0-1.254.254-1.707.707-.335.335-.754.754-1.18 1.18-.56.56-.875 1.32-.875 2.113s.315 1.553.875 2.113c.498.498.887.887.887.887h2v.001c.214.642.746 1.128 1.405 1.283.659.156 1.352-.041 1.831-.52 2.016-2.016 4.907-4.907 6.532-6.532.681-.681 1.783-.681 2.464 0 0 0 .001.001.001.001.463.463.598 1.162.34 1.764-.607 1.416-1.705 3.979-2.25 5.248-.213.498-.323 1.034-.323 1.576v2.179h9s0-3.181 0-4.911c0-.724.072-1.447.214-2.157.287-1.439.824-4.124 1.351-6.755z" fill="none" stroke-width="4"/><path d="m18 9s.385.385.879.879c.562.562 1.325.878 2.121.878s1.559-.316 2.121-.878c.346-.346.687-.687.982-.982.574-.574.897-1.353.897-2.165 0-.154 0-.31 0-.464 0-.812-.323-1.591-.897-2.165-.884-.884-2.103-2.103-2.103-2.103v1.594c0 1.515-.713 2.941-1.924 3.849-1.025.769-2.076 1.557-2.076 1.557z" fill="#be8b40" stroke-linecap="butt" stroke-linejoin="round" stroke-miterlimit="1.5" stroke-width="4"/><path d="m11 14s0-.953 0-1.929c0-1.326.527-2.598 1.464-3.535 1.476-1.476 3.536-3.536 3.536-3.536v2l6-2v2h2.929c1.326 0 2.598.527 3.535 1.464.762.762 1.536 1.536 1.536 1.536h-2s.88 1.759 1.472 2.944c.347.695.528 1.46.528 2.236v3.82l-2-3s.778 6.221.961 7.691c.026.206.039.413.039.62v4.689l-3-3 1 4h-3v-16z" fill="#1c5832" stroke-linecap="butt" stroke-linejoin="round" stroke-width="4"/><path d="m8 18v1c0 .796.316 1.559.879 2.121.562.563 1.325.879 2.121.879h1.486c1.388 0 2.514-1.126 2.514-2.514 0-.001 0-.001 0-.002 0-.394.156-.771.435-1.049.278-.279.655-.435 1.049-.435h1.516" fill="none" stroke-linejoin="round" stroke-width="6"/></g><path d="m11 14s0-.953 0-1.929c0-1.326.527-2.598 1.464-3.535 1.476-1.476 3.536-3.536 3.536-3.536v2l6-2v2h2.929c1.326 0 2.598.527 3.535 1.464.762.762 1.536 1.536 1.536 1.536h-2s.88 1.759 1.472 2.944c.347.695.528 1.46.528 2.236v3.82l-2-3s.778 6.221.961 7.691c.026.206.039.413.039.62v4.689l-3-3 1 4h-3v-16z" fill="#742125"/><path d="m6 18 7.536-7.536c.937-.937 2.209-1.464 3.535-1.464h3.61c1.798 0 3.501.806 4.64 2.196 1.14 1.39 1.596 3.218 1.244 4.981-.527 2.631-1.064 5.316-1.351 6.755-.142.71-.214 1.433-.214 2.157v4.911h-9s0-1.291 0-2.179c0-.542.11-1.078.323-1.576.545-1.269 1.643-3.832 2.25-5.248.258-.602.123-1.301-.34-1.764 0 0-.001-.001-.001-.001-.681-.681-1.783-.681-2.464 0-1.625 1.625-4.516 4.516-6.532 6.532-.479.479-1.172.676-1.831.52-.485-.114-.901-.408-1.172-.811l.284-.66-.512-.179-.713.366h-1.292l-.887-.887c-.56-.56-.875-1.32-.875-2.113s.315-1.553.875-2.113l1.18-1.18c.453-.453 1.067-.707 1.707-.707z" fill="#e02e34"/><path d="m5.292 25 3.708-3.712.002-1.835c.032-.256.238-.447.498-.458h2.5v-1.995h1v2.495c-.011.273-.224.488-.5.5h-2.5v1.5c-.009.229-.057.256-.146.353l-3.621 3.625c-.098-.144-.176-.303-.233-.472v-.001z" fill="#9c1b31"/><path d="m5 20.5-1 1" fill="none" stroke="#7f1318" stroke-linejoin="round" stroke-width="2"/><path d="m17 12s-.427 0-1.002 0c-.795 0-1.558.316-2.12.878s-.878 1.325-.878 2.12v.002h1c1.657 0 3-1.343 3-3z"/><path d="m18 9s.385.385.879.879c.562.562 1.325.878 2.121.878s1.559-.316 2.121-.878c.346-.346.687-.687.982-.982.574-.574.897-1.353.897-2.165 0-.154 0-.31 0-.464 0-.812-.323-1.591-.897-2.165-.884-.884-2.103-2.103-2.103-2.103v1.594c0 1.515-.713 2.941-1.924 3.849-1.025.769-2.076 1.557-2.076 1.557z" fill="#d8c31e"/><path d="m8 18v1c0 .796.316 1.559.879 2.121.562.563 1.325.879 2.121.879h1.486c1.388 0 2.514-1.126 2.514-2.514 0-.001 0-.001 0-.002 0-.394.156-.771.435-1.049.278-.279.655-.435 1.049-.435h1.516" fill="none" stroke="#f1a4a4" stroke-linejoin="round" stroke-width="2"/></g></svg>