<svg clip-rule="evenodd" fill-rule="evenodd" stroke-linecap="round" stroke-linejoin="round" stroke-miterlimit="1.5" viewBox="0 0 32 32" xmlns="http://www.w3.org/2000/svg"><metadata/><path d="m0 0h32v32h-32z" fill="none"/><path d="m15.937 30c-2.654-.012-5.602-.762-7.777-3.13-1.68-1.829-3.16-4.397-3.16-8.691s1.125-8.621 3.791-11.987c2.275-2.87 4.668-4.176 7.164-4.192h.045.045c2.496.016 4.889 1.322 7.164 4.192 2.666 3.366 3.791 7.693 3.791 11.987s-1.48 6.862-3.16 8.691c-2.192 2.387-5.169 3.13-7.84 3.13z" fill="none" stroke="#000" stroke-width="4"/><path d="m21.462 4.311c.589.53 1.172 1.155 1.747 1.881 2.666 3.366 3.791 7.693 3.791 11.987s-1.48 6.862-3.16 8.691c-2.192 2.387-5.169 3.13-7.84 3.13h-.063c-2.654-.012-5.602-.762-7.777-3.13-.293-.319-.58-.66-.854-1.03 2.757.887 15.009-19.125 14.156-21.529z" fill="#e69d59"/><path d="m7.306 25.84c-1.297-1.747-2.306-4.116-2.306-7.661 0-4.294 1.125-8.621 3.791-11.987 2.275-2.87 4.668-4.176 7.164-4.192h.045.045c1.865.012 3.673.744 5.417 2.311.853 2.404 1.906 6.055 1.862 9.335-.062 4.49-.888 8.707-5.324 11.354-3.851 2.298-7.937 1.727-10.694.84z" fill="#f8bb82"/></svg>