<svg clip-rule="evenodd" fill-rule="evenodd" stroke-linejoin="round" stroke-miterlimit="2" viewBox="0 0 32 32" xmlns="http://www.w3.org/2000/svg"><metadata/><path d="m0 0h32v32h-32z" fill="none"/><path d="m2.449 7.008-.664-1.661c-.15-.391-.229-.801-.222-1.22.005-.288.049-.576.131-.852.27-.907.946-1.662 1.819-2.028.386-.162.797-.24 1.214-.247.074 0 .074.001.148.003.172.012.34.033.508.075.331.083.644.232.918.434.098.073.188.152.276.236l1.599 1.599.042-.001c.141-.003.14-.003.282-.002.376.009.749.042 1.119.111.84.155 1.649.472 2.37.931.371.236.713.51 1.034.811 1.371 1.34 2.705 2.717 4.068 4.064.354.342.732.656 1.139.933s.837.514 1.285.718c2.149.95 4.315 1.862 6.464 2.813.356.163.702.343 1.036.548.726.444 1.389.99 1.967 1.615.763.827 1.373 1.794 1.791 2.839.391.977.613 2.019.655 3.069.037.927-.066 1.858-.305 2.754-.522 1.958-1.696 3.724-3.273 4.992-.922.742-1.98 1.312-3.106 1.676-1.25.404-2.579.55-3.887.429-1.006-.093-1.996-.344-2.925-.741-.392-.168-.77-.363-1.138-.578-1.901-1.144-3.793-2.303-5.679-3.471-.771-.49-1.509-1.028-2.2-1.625-1.634-1.41-3.01-3.114-4.044-5.008-.402-.736-.753-1.5-1.048-2.285-.149-.396-.282-.797-.405-1.201-.482-1.65-.946-3.305-1.418-4.958-.07-.255-.129-.511-.171-.772-.082-.517-.102-1.043-.06-1.565.068-.846.3-1.677.68-2.435z"/><path d="m13 8 2.606 2.606c.921.921 2.007 1.661 3.201 2.18 1.573.684 3.956 1.721 6.266 2.725 1.812.788 3.223 2.28 3.91 4.132.686 1.852.589 3.903-.271 5.681-.001.001-.001.001-.001.002-.95 1.963-2.684 3.434-4.777 4.049-2.092.615-4.347.317-6.207-.82-1.802-1.101-3.699-2.26-5.389-3.293-3.433-2.098-5.951-5.409-7.057-9.277l-.781-2.735 1.995-6.002z" fill="#5c247c"/><path d="m13.05 11.001.084.003.083.008.083.011.083.014.082.018.081.021.08.024.079.028.077.031.077.035.075.037.073.041.071.044.07.046.068.05.065.052.063.055.061.058.058.06.056.062.053.065.051.067.047.069.045.071.041.073.039.074.035.076.032.077.029.079.029.084.023.066.025.065.024.066.026.064.027.065.027.064.028.063.028.064.03.062.03.063.031.061.032.062.032.061.033.061.034.06.035.059.035.06.036.058.037.059.037.058.038.057.039.057.04.056.04.056.041.055.041.055.042.054.043.054.043.054.044.052.045.052.045.052.046.051.047.051.047.05.048.049.048.049.05.048.049.048.05.047.051.046.051.046.052.045.053.045.053.044.054.043.054.043.055.042.055.041.056.041.056.04.057.039.057.039.058.038.059.038.059.036.059.036.06.036.061.034.061.034.061.033.062.033.068.034 5.166 2.583.075.039.072.042.071.045.068.048.067.051.064.054.062.056.06.059.057.061.055.064.052.065.049.068.046.07.043.072.04.074.037.075.034.076.031.078.027.079.024.081.02.081.018.082.013.083.011.083.006.083.004.084-.001.084-.003.083-.008.084-.01.083-.015.082-.017.082-.021.081-.025.081-.027.079-.032.077-.034.077-.037.075-.041.073-.043.072-.047.069-.049.068-.053.065-.055.064-.057.06-.06.059-.063.056-.064.053-.067.05-.069.048-.071.045-.073.041-.074.039-.076.035-.077.033-.079.029-.079.025-.081.023-.082.018-.082.016-.083.012-.083.008-.084.005-.084.002-.084-.002-.083-.006-.083-.008-.083-.013-.082-.016-.082-.019-.081-.023-.079-.026-.079-.03-.077-.032-.075-.036-5.178-2.589-.101-.051-.106-.056-.105-.056-.104-.058-.104-.059-.102-.061-.102-.061-.101-.063-.1-.064-.099-.065-.098-.066-.097-.068-.097-.068-.095-.07-.095-.071-.094-.072-.092-.073-.092-.074-.091-.075-.09-.076-.088-.077-.088-.079-.087-.079-.086-.081-.085-.081-.084-.082-.083-.084-.081-.084-.081-.086-.08-.086-.078-.087-.078-.089-.076-.089-.076-.09-.074-.091-.073-.092-.072-.093-.071-.094-.07-.094-.068-.096-.068-.096-.066-.098-.065-.098-.064-.098-.063-.1-.061-.101-.061-.101-.059-.102-.058-.103-.057-.104-.055-.104-.054-.105-.053-.106-.052-.107-.05-.107-.05-.108-.047-.109-.047-.109-.045-.11-.044-.111-.043-.111-.041-.112-.04-.113-.033-.099.001.003-.026-.08-.022-.08-.019-.082-.015-.082-.012-.083-.009-.084-.005-.083-.001-.084.002-.084.006-.083.009-.084.012-.082.016-.083.02-.081.023-.081.026-.079.029-.079.033-.077.036-.075.039-.075.042-.072.046-.07.048-.069.051-.067.053-.064.057-.062.058-.06.062-.057.063-.054.066-.052.068-.049.07-.046.072-.043.074-.04.075-.037.076-.034.078-.03.08-.028.08-.023.081-.021.082-.017.083-.014.083-.01.083-.007.084-.003.084.001z" fill="#8428bd"/><g fill="#219555"><path d="m4.5 13.25-.574-2.01c-.552-1.93.207-3.996 1.878-5.109 0 0 0-.001.001-.001 1.858-1.238 4.331-.994 5.91.585l1.285 1.285v1h-3l-1 3-3-1z"/><path d="m5 8s-.768-1.921-1.353-3.382c-.145-.363-.101-.775.119-1.1.219-.324.585-.518.977-.518h.003c.162 0 .319.065.434.18.647.647 2.82 2.82 2.82 2.82z"/></g></svg>