<svg clip-rule="evenodd" fill-rule="evenodd" stroke-linejoin="round" stroke-miterlimit="1.41421" viewBox="0 0 32 32" xmlns="http://www.w3.org/2000/svg" xmlns:xlink="http://www.w3.org/1999/xlink"><clipPath id="a"><path clip-rule="evenodd" d="m32 32v-32h-32v32z"/></clipPath><metadata/><path d="m32 32v-32h-32v32z" fill="none"/><g clip-path="url(#a)"><path d="m24 32c4.418 0 8-3.582 8-8 0-4.887 0-11.113 0-16 0-4.418-3.582-8-8-8-4.887 0-11.113 0-16 0-4.418 0-8 3.582-8 8v16c0 4.418 3.582 8 8 8z"/><path d="m2 24c0 1.591.632 3.117 1.757 4.243 1.126 1.125 2.652 1.757 4.243 1.757h16c1.591 0 3.117-.632 4.243-1.757 1.125-1.126 1.757-2.652 1.757-4.243 0-4.724 0-11.276 0-16 0-1.591-.632-3.117-1.757-4.243-1.126-1.125-2.652-1.757-4.243-1.757-4.724 0-11.276 0-16 0-1.591 0-3.117.632-4.243 1.757-1.125 1.126-1.757 2.652-1.757 4.243z" fill="#fff"/><path d="m23.5 20c.552 0 1 .448 1 1v1c0 .552-.448 1-1 1-3.014 0-11.986 0-15 0-.552 0-1-.448-1-1 0-.322 0-.678 0-1 0-.552.448-1 1-1zm-15.396-4.689c-.275.29-.351.716-.194 1.083.158.368.52.606.919.606h14.342c.399 0 .761-.238.919-.606.157-.367.081-.793-.194-1.083-2.088-2.197-5.649-5.945-7.171-7.548-.189-.199-.451-.311-.725-.311s-.536.112-.725.311c-1.522 1.603-5.083 5.351-7.171 7.548z" fill="#333"/></g></svg>