<svg clip-rule="evenodd" fill-rule="evenodd" stroke-linejoin="round" stroke-miterlimit="2" viewBox="0 0 32 32" xmlns="http://www.w3.org/2000/svg" xmlns:xlink="http://www.w3.org/1999/xlink"><clipPath id="a"><path clip-rule="evenodd" d="m0 0h32v32h-32z"/></clipPath><metadata/><path d="m0 0h32v32h-32z" fill="none"/><g clip-path="url(#a)"><path d="m0 4.65 1.645-.833 2.947 2.946c.569-1.037 1.279-1.997 2.106-2.845 1.316-1.347 2.923-2.404 4.683-3.073.955-.363 1.953-.612 2.966-.741.438-.055.877-.086 1.318-.1.067-.001.133-.002.199-.003.043 0 .087-.001.13-.001.067 0 .134.001.201.001.26.005.52.016.78.036.172.012.344.028.515.048 1.017.116 2.019.353 2.98.704 1.819.666 3.479 1.744 4.832 3.129.828.848 1.537 1.808 2.106 2.846l2.947-2.947 1.645.833v2.503l-1.824 11.856-.022.129c-.028.13-.033.163-.068.291-.064.237-.15.468-.257.69-.206.427-.488.815-.829 1.144v10.737h-.001c-4.253 0-4.797-.151-7.9-1.402-.625.371-1.291.674-1.982.901-1.005.331-2.062.5-3.12.501h-.009c-.108 0-.216-.002-.324-.005-1.015-.033-2.024-.221-2.983-.557-.626-.218-1.229-.499-1.799-.837l-3.497 1.399h-4.385c0-3.584-.012-7.169-.016-10.753-.368-.359-.667-.788-.874-1.261-.138-.314-.228-.641-.286-.977l-1.824-11.856v-2.503z"/><path d="m16 2c-6.075 0-11 4.925-11 11v17h2l5-2h8l5 2h2v-17c0-6.075-4.925-11-11-11z" fill="#805c1b"/><path d="m2.264 8.718.113.203 1.496 9.731s-.023.159-.049.17c.165.733.729 1.316 1.466 1.5 1.169.293 2.71.678 2.71.678v-8l-6-6z" fill="#fbc546"/><path d="m2.264 8.718 1.534 9.968c.007.046.016.092.026.136.218-.098.418-.236.59-.408.375-.375.586-.884.586-1.414v-5.519c-.922-.911-1.834-1.832-2.736-2.763z" fill="#e59a10"/><path d="m29.736 8.718-.113.203-1.496 9.731s.023.159.049.17c-.165.733-.729 1.316-1.466 1.5-1.169.293-2.71.678-2.71.678v-8l6-6z" fill="#fbc546"/><path d="m29.736 8.718-1.534 9.968c-.007.046-.016.092-.026.136-.218-.098-.418-.236-.59-.408-.375-.375-.586-.884-.586-1.414v-5.519c.922-.911 1.834-1.832 2.736-2.763z" fill="#e59a10"/><path d="m6 12c0-1.591.632-3.117 1.757-4.243 1.126-1.125 2.652-1.757 4.243-1.757h8.04c1.591 0 3.117.632 4.243 1.757 1.125 1.126 1.757 2.652 1.757 4.243v5.59c0 2.254-.635 4.463-1.832 6.373-.456.728-.952 1.518-1.429 2.28-1.465 2.338-4.03 3.757-6.789 3.757-2.79 0-5.379-1.449-6.839-3.826-.462-.753-.939-1.53-1.378-2.246-1.159-1.888-1.773-4.061-1.773-6.277z" fill="#fbc546"/><path d="m6 12.5v-.5c0-5.523 4.477-10 10-10h.04c5.523 0 10 4.477 10 10v.5h-4.04c-1.591 0-3.117-.632-4.243-1.757-1.006-1.007-1.618-2.335-1.736-3.743h-.042c-.118 1.408-.73 2.736-1.736 3.743-1.126 1.125-2.652 1.757-4.243 1.757z" fill="#805c1b"/><path d="m12.082 23.003c.151.017.293.058.424.135.045.026.052.032.094.062.001.001-.005-.004-.004-.003.098.072.097.071.196.141.097.065.096.065.195.128.424.261.874.472 1.35.618 1.188.365 2.484.326 3.648-.109.359-.134.704-.305 1.028-.509.134-.084.263-.175.39-.269.002-.001-.005.004-.003.003.015-.01.03-.021.045-.032.048-.03.047-.03.097-.057.188-.09.391-.131.599-.101.111.016.219.05.319.102.32.166.53.501.54.861.002.093-.009.187-.032.278-.033.127-.091.247-.17.351-.09.12-.206.206-.327.293-.086.061-.172.121-.261.179-.434.286-.898.527-1.381.719-.851.338-1.762.521-2.677.539-.966.019-1.933-.145-2.837-.484-.486-.181-.953-.413-1.392-.689-.178-.111-.349-.231-.518-.356-.017-.012-.033-.025-.049-.038-.113-.1-.206-.216-.268-.355-.038-.085-.065-.176-.078-.268-.054-.377.117-.761.433-.972.142-.096.302-.147.471-.166.057-.004.111-.004.168-.001zm6.932-2.646-1.478.888-.082.047c-.241.128-.492.23-.758.294-.555.132-1.144.103-1.683-.085-.192-.067-.373-.155-.549-.256l-1.478-.888 1.028-1.714c.501.3.996.608 1.502.899.23.123.496.159.749.09.091-.025.175-.064.257-.111l1.464-.878c.343.571.685 1.143 1.028 1.714z" fill="#e1853e"/><path d="m19 15c0-.552.448-1 1-1h1.513c.323 0 .643.052.949.154.171.057.378.126.598.199.363.121.625.438.675.816.051.379-.118.753-.436.965-.19.126-.375.25-.543.362-.493.329-1.072.504-1.664.504h-1.092c-.552 0-1-.448-1-1 0-.322 0-.678 0-1zm-6 0c0-.552-.448-1-1-1-.509 0-1.105 0-1.513 0-.323 0-.643.052-.949.154-.171.057-.378.126-.598.199-.363.121-.625.438-.675.816-.051.379.118.753.436.965.19.126.375.25.543.362.493.329 1.072.504 1.664.504h1.092c.552 0 1-.448 1-1 0-.322 0-.678 0-1z"/></g></svg>