<svg clip-rule="evenodd" fill-rule="evenodd" stroke-linecap="round" stroke-linejoin="round" stroke-miterlimit="1.5" viewBox="0 0 32 32" xmlns="http://www.w3.org/2000/svg" xmlns:xlink="http://www.w3.org/1999/xlink"><clipPath id="a"><path clip-rule="evenodd" d="m0 0h32v32h-32z"/></clipPath><clipPath id="b"><path clip-rule="evenodd" d="m30 14c0-.53-.211-1.039-.586-1.414s-.884-.586-1.414-.586c-5.154 0-18.846 0-24 0-.53 0-1.039.211-1.414.586s-.586.884-.586 1.414v14c0 .53.211 1.039.586 1.414s.884.586 1.414.586h24c.53 0 1.039-.211 1.414-.586s.586-.884.586-1.414c0-3.463 0-10.537 0-14z"/></clipPath><metadata/><path d="m0 0h32v32h-32z" fill="none"/><g clip-path="url(#a)"><path d="m8.252 12c-.164-.639-.252-1.31-.252-2 0-4.415 3.585-8 8-8s8 3.585 8 8c0 .69-.088 1.361-.252 2h4.252c.53 0 1.039.211 1.414.586s.586.884.586 1.414v14c0 .53-.211 1.039-.586 1.414s-.884.586-1.414.586c-5.154 0-18.846 0-24 0-.53 0-1.039-.211-1.414-.586s-.586-.884-.586-1.414c0-3.463 0-10.537 0-14 0-.53.211-1.039.586-1.414s.884-.586 1.414-.586z" fill="none" stroke="#000" stroke-width="4"/><path d="m30 14c0-.53-.211-1.039-.586-1.414s-.884-.586-1.414-.586c-5.154 0-18.846 0-24 0-.53 0-1.039.211-1.414.586s-.586.884-.586 1.414v14c0 .53.211 1.039.586 1.414s.884.586 1.414.586h24c.53 0 1.039-.211 1.414-.586s.586-.884.586-1.414c0-3.463 0-10.537 0-14z" fill="#fff"/><g clip-path="url(#b)" stroke-width="2"><path d="m2 30 14-13 14 13" fill="none" stroke="#ccc"/><path d="m2 12s7.348 6.298 11.397 9.769c1.498 1.284 3.708 1.284 5.206 0 4.049-3.471 11.397-9.769 11.397-9.769" fill="#fff" stroke="#999"/></g><circle cx="16" cy="10" fill="#334cec" r="8"/><path d="m18 12h2c.552 0 1-.448 1-1 0-.292 0-.632 0-1 0-1.326-.527-2.598-1.464-3.536-.938-.937-2.21-1.464-3.536-1.464-2.761 0-5 2.239-5 5 0 1.326.527 2.598 1.464 3.536.938.937 2.21 1.464 3.536 1.464h2" fill="none" stroke="#fff" stroke-linecap="butt" stroke-linejoin="miter" stroke-width="2"/><path d="m16.074 7.001.075.003.074.004.074.007.073.008.073.01.073.012.072.013.072.015.071.017.071.019.071.021.069.022.07.024.068.025.068.027.067.029.067.031.066.032.065.033.064.036.063.037.063.038.061.04.061.042.06.043.059.044.057.046.057.048.056.049.054.051.053.052.052.053.051.054.049.056.048.057.046.057.044.059.043.06.042.061.04.061.038.063.037.063.036.064.033.065.032.066.031.067.029.067.027.068.025.068.024.07.022.069.021.071.019.071.017.071.015.072.013.072.012.073.01.073.008.073.007.074.004.074.003.075.001.074v2l-.001.05-.004.049-.006.049-.008.048-.011.048-.013.047-.016.046-.017.046-.02.044-.022.044-.024.042-.026.042-.028.04-.03.039-.033.037-.034.036-.036.034-.037.033-.039.03-.04.028-.042.026-.042.024-.044.022-.044.02-.046.017-.046.016-.047.013-.048.011-.048.008-.049.006-.049.004-.05.001h-2l-.077-.001-.077-.003-.077-.005-.076-.006-.075-.009-.075-.011-.074-.012-.074-.014-.073-.016-.072-.017-.071-.02-.071-.021-.07-.023-.07-.024-.068-.026-.068-.028-.067-.029-.066-.031-.065-.032-.064-.034-.063-.035-.063-.037-.061-.039-.06-.039-.06-.041-.058-.043-.057-.044-.056-.045-.055-.047-.054-.047-.053-.049-.051-.051-.051-.051-.049-.053-.047-.054-.047-.055-.045-.056-.044-.057-.043-.058-.041-.06-.039-.06-.039-.061-.037-.063-.035-.063-.034-.064-.032-.065-.031-.066-.029-.067-.028-.068-.026-.068-.024-.07-.023-.07-.021-.071-.02-.071-.017-.072-.016-.073-.014-.074-.012-.074-.011-.075-.009-.075-.006-.076-.005-.077-.003-.077-.001-.077s.001-.077.001-.077l.003-.077.005-.077.006-.076.009-.075.011-.075.012-.074.014-.074.016-.073.017-.072.02-.071.021-.071.023-.07.024-.07.026-.068.028-.068.029-.067.031-.066.032-.065.034-.064.035-.063.037-.063.039-.061.039-.06.041-.06.043-.058.044-.057.045-.056.047-.055.047-.054.049-.053.051-.051.051-.051.053-.049.054-.047.055-.047.056-.045.057-.044.058-.043.06-.041.06-.039.061-.039.063-.037.063-.035.064-.034.065-.032.066-.031.067-.029.068-.028.068-.026.07-.024.07-.023.071-.021.071-.02.072-.017.073-.016.074-.014.074-.012.075-.011.075-.009.076-.006.077-.005.077-.003.077-.001s.074.001.074.001zm-.101 2-.026.001-.026.001-.026.002-.025.003-.025.004-.024.004-.025.005-.024.005-.023.006-.024.006-.023.007-.023.007-.023.008-.022.009-.023.009-.022.01-.021.01-.022.01-.021.012-.021.011-.021.013-.021.013-.02.013-.019.013-.02.015-.019.015-.019.015-.019.015-.018.016-.018.017-.017.017-.017.017-.017.018-.016.018-.015.019-.015.019-.015.019-.015.02-.013.019-.013.02-.013.021-.013.021-.011.021-.012.021-.01.022-.01.021-.01.022-.009.023-.009.022-.008.023-.007.023-.007.023-.007.024-.005.023-.005.024-.005.025-.004.024-.004.025-.003.025-.002.026-.002.026-.001.026v.027.027l.001.026.002.026.002.026.003.025.004.025.004.024.005.025.005.024.005.023.007.024.007.023.007.023.008.023.009.022.009.023.01.022.01.021.01.022.012.021.011.021.013.021.012.02.014.021.014.02.014.019.015.019.015.019.015.019.016.018.017.018.017.017.017.017.018.017.018.016.019.015.019.015.019.015.02.015.019.013.021.014.02.012.021.013.021.011.021.012.022.01.021.01.022.01.023.009.022.009.023.008.023.007.023.007.024.006.023.006.024.005.025.005.024.004.025.004.025.003.026.002.026.001.026.001.04.001h.987v-.988-.037l-.001-.025-.002-.024-.002-.025-.003-.024-.003-.025-.004-.024-.005-.024-.005-.024-.005-.024-.007-.023-.006-.024-.008-.023-.008-.023-.008-.023-.009-.023-.01-.022-.01-.022-.011-.022-.011-.022-.012-.021-.012-.021-.013-.021-.013-.021-.014-.02-.014-.02-.015-.019-.015-.02-.016-.018-.017-.019-.017-.018-.017-.018-.018-.017-.018-.017-.018-.017-.019-.016-.02-.015-.019-.015-.02-.014-.02-.014-.021-.013-.021-.013-.021-.012-.021-.012-.022-.011-.022-.011-.022-.01-.022-.01-.023-.009-.023-.008-.023-.008-.023-.008-.024-.006-.023-.007-.024-.005-.024-.005-.024-.005-.024-.004-.025-.003-.024-.003-.025-.002-.024-.002-.025-.001h-.025z" fill="#fff"/></g></svg>