<svg clip-rule="evenodd" fill-rule="evenodd" stroke-linejoin="round" stroke-miterlimit="2" viewBox="0 0 32 32" xmlns="http://www.w3.org/2000/svg" xmlns:xlink="http://www.w3.org/1999/xlink"><clipPath id="a"><path clip-rule="evenodd" d="m0 0h32v32h-32z"/></clipPath><metadata/><path d="m0 0h32v32h-32z" fill="none"/><g clip-path="url(#a)"><path d="m16 0c4.243 0 8.313 1.686 11.314 4.686 3 3.001 4.686 7.071 4.686 11.314v3c0 7.18-5.82 13-13 13-1.972 0-4.028 0-6 0-7.18 0-13-5.82-13-13v-3c0-8.837 7.163-16 16-16z"/><path d="m30 16c0-3.713-1.475-7.274-4.101-9.899-2.625-2.626-6.186-4.101-9.899-4.101-7.732 0-14 6.268-14 14v3c0 6.075 4.925 11 11 11h6c6.075 0 11-4.925 11-11z" fill="#fbc546"/><path d="m29 20c0-1.105-.895-2-2-2-1.222 0-2.778 0-4 0-1.105 0-2 .895-2 2s.895 2 2 2h4c1.105 0 2-.895 2-2z" fill="#ed6b44"/><path d="m11 20c0-1.105-.895-2-2-2-1.222 0-2.778 0-4 0-1.105 0-2 .895-2 2s.895 2 2 2h4c1.105 0 2-.895 2-2z" fill="#ed6b44"/><path d="m9.502 19c1.193 0 2.337-.474 3.181-1.317.843-.844 1.317-1.988 1.317-3.181 0-.333 0-.669 0-1.002 0-2.485-2.015-4.5-4.5-4.5-.001 0-.001 0-.002 0-1.193 0-2.337.474-3.181 1.317-.843.844-1.317 1.988-1.317 3.181v1.002c0 2.485 2.015 4.5 4.5 4.5z" fill="#fff"/><path d="m8 13.99c0-1.099.891-1.99 1.99-1.99h.02c1.099 0 1.99.891 1.99 1.99v.003c0 1.099-.891 1.99-1.99 1.99-.007 0-.013 0-.02 0-1.099 0-1.99-.891-1.99-1.99 0-.001 0-.002 0-.003z"/><path d="m22.498 19c-1.193 0-2.337-.474-3.181-1.317-.843-.844-1.317-1.988-1.317-3.181 0-.334 0-.67 0-1.004 0-1.193.474-2.337 1.317-3.181.844-.843 1.988-1.317 3.181-1.317h.004c1.193 0 2.337.474 3.181 1.317.843.844 1.317 1.988 1.317 3.181v1.002c0 2.485-2.015 4.5-4.5 4.5-.001 0-.001 0-.002 0z" fill="#fff"/><path d="m24 13.99c0-1.099-.891-1.99-1.99-1.99-.007 0-.013 0-.02 0-1.099 0-1.99.891-1.99 1.99v.003c0 1.099.891 1.99 1.99 1.99h.02c1.099 0 1.99-.891 1.99-1.99 0-.001 0-.002 0-.003z"/><path d="m20 23c.552 0 1 .448 1 1s-.448 1-1 1h-8c-.552 0-1-.448-1-1s.448-1 1-1z" fill="#593604"/></g></svg>