<svg clip-rule="evenodd" fill-rule="evenodd" stroke-linecap="round" stroke-linejoin="round" stroke-miterlimit="1.5" viewBox="0 0 32 32" xmlns="http://www.w3.org/2000/svg"><metadata/><path d="m0 0h32v32h-32z" fill="none"/><path d="m16 28s-6.877-6.877-11.751-11.751c-2.623-2.623-2.623-6.875 0-9.498l.002-.002c1.26-1.26 2.968-1.967 4.749-1.967s3.489.707 4.749 1.967c1.247 1.247 2.251 2.251 2.251 2.251s1.004-1.004 2.251-2.251c1.26-1.26 2.968-1.967 4.749-1.967s3.489.707 4.749 1.967c.001.001.001.001.002.002 2.623 2.623 2.623 6.875 0 9.498-4.874 4.874-11.751 11.751-11.751 11.751z" fill="none" stroke="#000" stroke-width="4"/><path d="m16 28s-6.877-6.877-11.751-11.751c-2.623-2.623-2.623-6.875 0-9.498l.002-.002c1.26-1.26 2.968-1.967 4.749-1.967s3.489.707 4.749 1.967c1.247 1.247 2.251 2.251 2.251 2.251s1.004-1.004 2.251-2.251c1.26-1.26 2.968-1.967 4.749-1.967s3.489.707 4.749 1.967c.001.001.001.001.002.002 2.623 2.623 2.623 6.875 0 9.498-4.874 4.874-11.751 11.751-11.751 11.751z" fill="#fff"/><path d="m9.083 4.782.084.002.083.003.083.003.083.005.083.005.082.007.083.008.082.008.082.01.082.011.082.011.081.013.081.014.082.014.08.016.081.017.08.017.08.019.08.019.08.021.079.021.079.023.078.023.079.024.078.026.077.026.077.027.077.028.077.029.076.03.076.031.076.032.075.033.074.033.075.035.073.035.074.037.073.037.072.038.073.039.071.04.071.041.071.042.07.042.07.044.069.044.069.045.068.046.068.047.067.048.067.049.066.049.065.051.065.051.064.052.064.053.063.053.063.055.062.055.061.056.061.057.06.058.059.059 2.251 2.251 2.251-2.251.059-.059.06-.058.061-.057.061-.056.062-.055.063-.055.063-.053.064-.053.064-.052.065-.051.065-.051.066-.049.067-.049.067-.048.068-.047.068-.046.069-.045.069-.044.07-.044.07-.042.071-.042.071-.041.071-.04.073-.039.072-.038.073-.037.074-.037.073-.035.075-.035.074-.033.075-.033.076-.032.076-.031.076-.03.077-.029.077-.028.077-.027.077-.026.078-.026.079-.024.078-.023.079-.023.079-.021.08-.021.08-.019.08-.019.08-.017.081-.017.08-.016.082-.014.081-.014.081-.013.082-.011.082-.011.082-.01.082-.008.083-.008.082-.007.083-.005.083-.005.083-.003.083-.003.084-.002h.083.083l.084.002.083.003.083.003.083.005.083.005.082.007.083.008.082.008.082.01.082.011.082.011.081.013.082.014.081.014.08.016.081.017.08.017.08.019.08.019.08.021.079.021.079.023.078.023.079.024.078.026.077.026.077.027.077.028.077.029.076.03.076.031.076.032.075.033.074.033.075.035.074.035.073.037.073.037.073.038.072.039.071.04.071.041.071.042.07.042.07.044.069.044.069.045.068.046.068.047.067.048.067.049.066.049.065.051.065.051.064.052.064.053.063.053.063.055.062.055.061.056.061.057.06.058.061.061.061.062.06.062.059.063.058.064.057.064.057.064.055.065.054.066.053.066.053.067.051.067.051.068.049.068.049.069.047.069.047.07.045.07.045.07.044.071.042.071.042.072.041.072.04.073.039.073.038.073.037.074.036.074.035.074.034.075.033.075.032.075.031.076.031.076.029.076.028.076.028.077.026.077.025.078.025.077.024.078.022.078.022.078.02.078.02.079.019.079.018.079.016.079.016.079.015.08.014.079.013.08.012.08.011.08.01.08.009.08.008.08.008.081.006.08.005.08.004.081.004.08.002.081.002.08v.081.081l-.002.08-.002.081-.004.08-.004.081-.005.08-.006.08-.008.081-.008.08-.009.08-.01.08-.011.08-.012.08-.013.08-.014.079-.015.08-.016.079-.016.079-.018.079-.019.079-.02.079-.02.078-.022.078-.022.078-.024.078-.024.077-.026.078-.026.077-.028.077-.028.076-.029.076-.031.076-.031.076-.032.075-.033.075-.034.075-.035.074-.036.074-.037.074-.038.073-.039.073-.04.073-.041.072-.042.072-.042.071-.044.071-.045.07-.045.07-.047.07-.047.069-.049.069-.049.068-.051.068-.051.067-.053.067-.053.066-.054.066-.055.065-.057.064-.057.064-.058.064-.059.063-.06.062-.061.062-11.751 11.751-11.751-11.751-.061-.062-.06-.062-.059-.063-.058-.064-.057-.064-.057-.064-.055-.065-.054-.066-.053-.066-.053-.067-.051-.067-.051-.068-.049-.068-.049-.069-.047-.069-.047-.07-.045-.07-.045-.07-.044-.071-.042-.071-.042-.072-.041-.072-.04-.073-.039-.073-.038-.073-.037-.074-.036-.074-.035-.074-.034-.075-.033-.075-.032-.075-.031-.076-.031-.076-.029-.076-.028-.076-.028-.077-.026-.077-.026-.078-.024-.077-.024-.078-.022-.078-.022-.078-.02-.078-.02-.079-.019-.079-.018-.079-.016-.079-.016-.079-.015-.08-.014-.079-.013-.08-.012-.08-.011-.08-.01-.08-.009-.08-.008-.08-.008-.081-.006-.08-.005-.08-.004-.081-.004-.08-.002-.081-.002-.08v-.081-.081l.002-.08.002-.081.004-.08.004-.081.005-.08.006-.08.008-.081.008-.08.009-.08.01-.08.011-.08.012-.08.013-.08.014-.079.015-.08.016-.079.016-.079.018-.079.019-.079.02-.079.02-.078.022-.078.022-.078.024-.078.025-.077.025-.078.026-.077.028-.077.028-.076.029-.076.031-.076.031-.076.032-.075.033-.075.034-.075.035-.074.036-.074.037-.074.038-.073.039-.073.04-.073.041-.072.042-.072.042-.071.044-.071.045-.07.045-.07.047-.07.047-.069.049-.069.049-.068.051-.068.051-.067.053-.067.053-.066.054-.066.055-.065.057-.064.057-.064.058-.064.059-.063.06-.062.061-.062.002-.002.059-.059.06-.058.061-.057.061-.056.062-.055.063-.055.063-.053.064-.053.064-.052.065-.051.065-.051.066-.049.067-.049.067-.048.068-.047.068-.046.069-.045.069-.044.07-.044.07-.042.071-.042.071-.041.071-.04.072-.039.073-.038.073-.037.073-.037.074-.035.075-.035.074-.033.075-.033.076-.032.076-.031.076-.03.077-.029.077-.028.077-.027.077-.026.078-.026.079-.024.078-.023.079-.023.079-.021.08-.021.08-.019.08-.019.08-.017.081-.017.08-.016.081-.014.082-.014.081-.013.082-.011.082-.011.082-.01.082-.008.083-.008.082-.007.083-.005.083-.005.083-.003.083-.003.084-.002h.083.083zm13.871 3-.046.001-.046.001-.046.002-.046.003-.046.003-.046.004-.045.004-.046.005-.045.005-.046.006-.045.007-.045.007-.045.007-.045.008-.044.009-.045.009-.044.01-.045.01-.044.011-.044.011-.043.012-.044.013-.044.013-.043.013-.043.014-.043.014-.043.015-.042.016-.043.016-.042.017-.042.017-.042.017-.041.018-.042.019-.041.019-.041.02-.04.02-.041.021-.04.021-.04.021-.039.022-.04.023-.039.023-.039.024-.038.024-.038.024-.039.025-.037.026-.038.026-.037.026-.037.027-.036.027-.036.028-.036.029-.036.028-.035.03-.035.03-.035.03-.034.03-.034.031-.033.032-.034.032-.039.039-4.366 4.366-4.366-4.366-.039-.039-.034-.033-.033-.031-.034-.031-.034-.03-.035-.031-.035-.029-.035-.03-.036-.028-.036-.029-.036-.028-.036-.027-.037-.027-.037-.026-.038-.026-.038-.026-.037-.025-.038-.024-.039-.024-.039-.024-.039-.023-.04-.023-.039-.022-.04-.021-.04-.021-.041-.021-.04-.02-.041-.02-.041-.019-.042-.018-.041-.019-.042-.017-.042-.017-.042-.017-.043-.016-.042-.015-.043-.016-.043-.014-.043-.014-.043-.013-.044-.013-.044-.013-.043-.012-.044-.011-.044-.011-.045-.01-.044-.01-.045-.009-.044-.009-.045-.008-.045-.007-.045-.007-.045-.007-.046-.006-.045-.005-.046-.005-.045-.004-.046-.004-.046-.003-.046-.003-.046-.002-.046-.001-.046-.001h-.046-.046l-.046.001-.046.001-.046.002-.046.003-.046.003-.046.004-.045.004-.046.005-.045.005-.046.006-.045.007-.045.007-.045.007-.045.008-.044.009-.045.009-.044.01-.045.01-.044.011-.044.011-.043.012-.044.013-.044.013-.043.013-.043.014-.043.014-.043.016-.043.015-.042.016-.042.017-.042.017-.042.017-.041.019-.042.018-.041.019-.041.02-.04.02-.041.021-.04.021-.04.021-.039.022-.04.023-.039.023-.039.024-.039.024-.037.024-.038.025-.039.026-.037.026-.037.026-.037.027-.036.027-.036.028-.036.029-.036.028-.035.03-.035.029-.035.031-.034.03-.034.031-.033.032-.034.032-.034.034-.035.035-.034.035-.033.035-.032.036-.032.036-.031.036-.031.036-.03.037-.03.036-.029.037-.028.037-.028.038-.027.037-.027.038-.027.038-.025.039-.025.038-.025.039-.024.039-.023.04-.023.039-.023.039-.022.04-.021.04-.021.041-.02.04-.02.041-.019.041-.019.041-.018.041-.018.042-.017.041-.017.042-.016.042-.016.042-.015.043-.014.041-.014.044-.014.043-.013.042-.012.043-.012.044-.012.043-.011.043-.01.044-.01.044-.009.043-.009.045-.008.044-.008.043-.007.044-.007.045-.006.045-.005.044-.005.044-.005.045-.004.045-.003.045-.003.044-.003.045-.002.045-.001.044-.001.045v.045.045l.001.045.001.044.002.045.003.045.003.044.003.045.004.045.005.045.005.044.005.044.006.045.007.044.007.045.008.044.008.043.009.044.009.044.01.043.011.045.01.043.012.043.012.044.012.043.013.043.014.042.014.043.014.042.015.042.016.043.016.042.017.042.017.041.018.042.018.041.019.041.019.041.02.041.02.04.021.041.021.04.022.04.023.039.023.039.023.04.024.039.025.039.025.038.025.039.027.038.027.038.027.037.028.038.028.037.029.037.03.037.03.036.031.036.031.037.032.035.032.035.033.036.034.035.041.041 9.623 9.623 9.623-9.623.041-.041.034-.035.033-.036.032-.035.032-.036.031-.036.031-.036.03-.036.03-.037.029-.037.028-.037.028-.038.028-.038.026-.037.026-.038.026-.038.025-.039.025-.039.024-.039.023-.039.023-.04.023-.039.022-.04.021-.041.021-.039.02-.041.02-.041.019-.041.019-.041.018-.041.018-.041.017-.042.017-.042.016-.042.016-.043.015-.042.014-.042.014-.043.014-.042.013-.044.012-.043.012-.042.012-.044.011-.044.01-.043.01-.043.009-.045.009-.044.008-.043.008-.044.007-.045.007-.044.006-.044.005-.045.006-.045.004-.045.004-.043.003-.046.003-.044.003-.045.002-.045.001-.044.001-.045v-.045-.045l-.001-.045-.001-.044-.002-.045-.003-.045-.003-.044-.003-.046-.004-.043-.004-.045-.006-.045-.005-.044-.006-.045-.007-.045-.007-.044-.008-.044-.008-.043-.009-.044-.009-.044-.01-.044-.01-.044-.011-.043-.012-.043-.012-.043-.012-.044-.013-.043-.014-.042-.014-.043-.014-.042-.015-.043-.016-.042-.016-.042-.017-.042-.017-.041-.018-.042-.018-.041-.019-.041-.019-.041-.02-.041-.02-.041-.021-.039-.021-.04-.022-.041-.023-.039-.023-.039-.023-.04-.024-.039-.025-.039-.025-.038-.025-.039-.027-.038-.027-.038-.027-.037-.028-.038-.028-.037-.029-.037-.03-.037-.03-.036-.031-.036-.031-.036-.032-.036-.032-.036-.033-.035-.034-.035-.035-.035-.035-.034-.032-.032-.034-.032-.034-.031-.035-.031-.034-.03-.034-.029-.036-.03-.036-.028-.036-.029-.036-.028-.036-.027-.037-.027-.037-.026-.038-.026-.037-.026-.038-.025-.039-.024-.038-.024-.039-.024-.039-.023-.039-.023-.04-.022-.04-.021-.04-.021-.041-.021-.04-.02-.041-.02-.041-.019-.042-.018-.041-.019-.042-.017-.042-.017-.042-.017-.042-.016-.043-.016-.043-.014-.043-.015-.043-.014-.043-.013-.044-.013-.043-.013-.044-.012-.044-.011-.044-.011-.045-.01-.044-.01-.045-.009-.044-.009-.045-.008-.045-.007-.045-.007-.045-.007-.046-.006-.045-.005-.046-.005-.045-.004-.046-.004-.046-.003-.046-.003-.046-.002-.046-.001-.046-.001h-.046-.046z" fill="#ccc"/></svg>