<svg clip-rule="evenodd" fill-rule="evenodd" stroke-linejoin="round" stroke-miterlimit="1.41421" viewBox="0 0 32 32" xmlns="http://www.w3.org/2000/svg"><metadata/><path d="m0 0h32v32h-32z" fill="none"/><path d="m29.163 10.2.12.012.118.017.117.021.116.026.114.03.112.035.111.039.109.043.107.047.104.051.102.055.1.059.098.062.095.067.092.069.09.074.087.077.084.08.081.084.077.087.075.09.071.093.068.096.064.1.06.102.057.104.052.108.048.109.044.113.04.113.035.116.03.117.026.117.02.118.016.117.011.118.007.119.002.117-.003.117-.007.117-.012.116-.016.115-.021.115-.025.113-.029.112-.034.111-.038.109-.042.109-.047.106-.05.105-.054.102-.059.101-.063.099-.067.096-.07.094-.075.092-.078.089-.082.086-.086.083-.09.08-.093.076-.08.061-6.239 4.533 2.383 7.335.029.097.03.116.026.117.02.118.016.118.012.118.006.118.002.117-.003.118-.007.116-.012.116-.016.115-.021.115-.025.113-.029.112-.034.111-.038.11-.042.108-.046.106-.051.105-.055.103-.058.1-.063.099-.067.096-.07.095-.075.091-.078.089-.082.086-.086.083-.09.08-.093.076-.096.073-.099.069-.102.065-.103.061-.105.055-.108.052-.109.047-.11.043-.111.038-.112.034-.114.029-.114.024-.114.021-.115.015-.116.011-.116.007-.116.002-.115-.002-.116-.007-.116-.011-.115-.015-.114-.021-.114-.024-.113-.029-.113-.034-.111-.038-.111-.043-.108-.047-.107-.051-.106-.056-.103-.061-.102-.065-.083-.057-6.239-4.533-6.239 4.533-.083.057-.102.065-.103.061-.106.056-.107.051-.108.047-.111.043-.111.038-.112.034-.114.029-.114.024-.114.021-.115.015-.116.011-.116.007-.115.002-.116-.002-.116-.007-.116-.011-.115-.015-.114-.021-.114-.024-.114-.029-.112-.034-.111-.038-.11-.043-.109-.047-.107-.051-.106-.056-.103-.061-.102-.065-.099-.069-.096-.073-.093-.076-.09-.08-.086-.083-.082-.086-.078-.089-.075-.091-.07-.095-.067-.096-.063-.099-.059-.101-.054-.102-.051-.105-.046-.106-.042-.108-.038-.11-.034-.111-.029-.112-.025-.113-.021-.114-.016-.116-.012-.116-.007-.116-.003-.118.002-.117.006-.118.012-.118.016-.118.02-.118.026-.117.03-.116.029-.097 2.383-7.335-6.239-4.533-.08-.061-.093-.076-.09-.08-.086-.083-.082-.086-.078-.089-.075-.092-.07-.094-.067-.096-.063-.099-.058-.101-.055-.102-.05-.105-.047-.106-.042-.109-.038-.109-.034-.111-.029-.112-.025-.113-.021-.115-.016-.115-.012-.116-.007-.117-.003-.117.002-.117.007-.118.011-.118.016-.118.02-.118.026-.117.03-.117.035-.115.04-.114.044-.113.048-.109.052-.108.057-.104.06-.102.064-.1.068-.096.071-.093.075-.09.077-.087.081-.084.084-.08.087-.077.09-.074.092-.07.095-.066.098-.062.1-.059.102-.055.104-.051.107-.047.109-.043.111-.039.112-.035.114-.03.116-.026.117-.021.118-.017.12-.012.12-.007.101-.002h7.712l2.383-7.335.033-.095.044-.112.048-.11.053-.107.056-.105.061-.102.064-.099.067-.097.071-.093.075-.09.078-.087.081-.084.084-.08.086-.077.09-.073.092-.07.096-.066.097-.063.1-.059.102-.055.105-.051.107-.047.108-.043.111-.039.113-.034.114-.031.115-.025.117-.022.119-.016.119-.012.12-.008.121-.002.121.002.12.008.119.012.119.016.117.022.115.025.114.031.113.034.111.039.108.043.107.047.105.051.102.055.1.059.097.063.096.066.092.07.09.073.086.077.084.08.081.084.078.087.075.09.071.093.067.097.064.099.061.102.056.105.053.107.048.11.044.112.033.095 2.383 7.335h7.712l.101.002zm-14.82 1.937-.033.095-.044.112-.048.11-.052.107-.057.105-.06.102-.064.099-.068.097-.071.093-.075.09-.077.087-.081.084-.084.08-.087.077-.09.073-.092.07-.095.066-.098.063-.1.059-.102.055-.105.051-.106.047-.109.043-.111.039-.112.035-.114.03-.116.026-.117.021-.118.017-.12.012-.12.007-.101.002h-5.361l4.338 3.151.08.061.093.076.089.08.086.083.082.086.079.089.074.092.071.094.067.096.062.099.059.101.055.103.05.104.046.107.043.108.037.109.034.111.03.112.025.113.02.115.017.115.011.116.008.117.002.117-.001.118-.007.118-.011.117-.016.118-.021.118-.025.117-.03.117-.03.096-1.656 5.099 4.337-3.151.083-.058.101-.065.104-.06.105-.056.107-.052.109-.047.11-.042.111-.038.113-.034.113-.029.114-.025.115-.02.115-.016.116-.011.115-.007.116-.002.116.002.115.007.116.011.115.016.115.02.114.025.113.029.112.034.112.038.11.042.109.047.107.052.105.056.104.06.101.065.083.058 4.337 3.151-1.656-5.099-.03-.096-.03-.117-.025-.117-.021-.118-.016-.118-.011-.117-.007-.118-.001-.118.002-.117.008-.117.011-.116.017-.115.02-.114.025-.114.03-.112.033-.111.038-.109.043-.108.046-.107.05-.104.055-.103.059-.101.062-.099.067-.096.071-.094.074-.092.079-.089.082-.086.086-.083.089-.08.093-.076.08-.061 4.338-3.151h-5.361l-.101-.002-.12-.007-.12-.012-.118-.017-.117-.021-.116-.026-.114-.03-.112-.035-.111-.039-.109-.043-.106-.047-.105-.051-.102-.055-.1-.059-.098-.063-.095-.066-.092-.07-.09-.073-.087-.077-.084-.08-.081-.084-.077-.087-.075-.09-.071-.093-.068-.097-.064-.099-.06-.102-.056-.105-.053-.107-.048-.11-.044-.112-.033-.095-1.657-5.099-1.657 5.099z"/><path d="m16 3.419 3.069 9.445h9.931l-8.034 5.838 3.068 9.445-8.034-5.838-8.034 5.838 3.068-9.445-8.034-5.838h9.931z" fill="#fff"/><path d="m16.04 2.803.041.002.039.004.04.006.039.007.038.009.038.01.038.011.036.013.037.015.035.015.035.017.034.019.033.019.033.021.032.022.031.024.03.024.029.026.028.027.026.027.026.029.025.03.024.031.022.032.022.033.02.034.019.035.017.036.016.037.015.037.013.038 2.826 8.698h9.145l.041.001.04.002.04.004.039.006.039.007.039.008.037.01.038.012.037.013.036.014.035.016.035.017.034.018.034.02.032.021.032.022.031.023.03.025.029.025.028.027.027.028.026.029.025.03.023.031.023.032.021.033.02.034.019.035.017.036.016.036.015.038.013.038.012.039.01.039.009.039.007.039.005.039.004.039.002.039v.04l-.001.039-.002.038-.004.039-.005.039-.007.038-.009.037-.009.038-.012.037-.012.036-.014.036-.016.036-.017.035-.018.034-.019.034-.021.033-.022.032-.024.031-.025.03-.026.03-.027.029-.029.027-.03.027-.031.025-.032.025-7.399 5.375 2.826 8.698.012.039.01.039.009.039.007.039.005.039.004.039.002.04v.039.039l-.003.039-.004.038-.005.039-.007.038-.008.038-.01.037-.012.037-.012.037-.014.036-.016.035-.017.035-.018.034-.019.034-.021.033-.022.032-.024.031-.025.031-.026.029-.027.029-.029.027-.029.027-.032.026-.032.024-.033.023-.034.022-.034.02-.036.019-.035.017-.036.015-.037.015-.037.012-.037.011-.038.01-.038.008-.038.007-.039.005-.038.004-.039.002-.039.001-.038-.001-.039-.002-.038-.004-.039-.005-.038-.007-.038-.008-.038-.01-.037-.011-.037-.012-.037-.015-.036-.015-.036-.017-.035-.019-.034-.02-.034-.022-.033-.023-7.399-5.375-7.399 5.375-.033.023-.034.022-.034.02-.035.019-.036.017-.036.015-.037.015-.037.012-.037.011-.038.01-.038.008-.038.007-.039.005-.038.004-.039.002-.038.001-.039-.001-.039-.002-.038-.004-.039-.005-.038-.007-.038-.008-.038-.01-.037-.011-.037-.012-.037-.015-.036-.015-.035-.017-.036-.019-.034-.02-.034-.022-.033-.023-.032-.024-.032-.026-.029-.027-.029-.027-.027-.029-.026-.029-.025-.031-.024-.031-.022-.032-.021-.033-.019-.034-.018-.034-.017-.035-.016-.035-.014-.036-.012-.037-.012-.037-.01-.037-.008-.038-.007-.038-.005-.039-.004-.038-.003-.039v-.039-.039l.002-.04.004-.039.005-.039.007-.039.009-.039.01-.039.012-.039 2.826-8.698-7.399-5.375-.032-.025-.031-.025-.03-.027-.029-.027-.027-.029-.026-.03-.025-.03-.024-.031-.022-.032-.021-.033-.019-.034-.018-.034-.017-.035-.016-.036-.014-.036-.012-.036-.012-.037-.009-.038-.009-.037-.007-.038-.005-.039-.004-.039-.002-.038-.001-.039v-.04l.002-.039.004-.039.005-.039.007-.039.009-.039.01-.039.012-.039.013-.038.015-.038.016-.036.017-.036.019-.035.02-.034.021-.033.023-.032.023-.031.025-.03.026-.029.027-.028.028-.027.029-.025.03-.025.031-.023.032-.022.032-.021.034-.02.034-.018.035-.017.035-.016.036-.014.037-.013.038-.012.037-.01.039-.008.039-.007.039-.006.04-.004.04-.002.041-.001h9.145l2.826-8.698.013-.038.015-.037.016-.037.017-.036.019-.035.02-.034.022-.033.022-.032.024-.031.025-.03.026-.029.026-.027.028-.027.029-.026.03-.024.031-.024.032-.022.033-.021.033-.019.034-.019.035-.017.035-.015.037-.015.036-.013.038-.011.038-.01.038-.009.039-.007.04-.006.039-.004.041-.002.04-.001.04.001zm-2.364 11.388h-7.521l6.085 4.42-2.324 7.153 6.084-4.421 6.084 4.421-2.324-7.153 6.085-4.42h-7.521l-2.324-7.153z" fill="#ccc"/></svg>