<svg clip-rule="evenodd" fill-rule="evenodd" stroke-linejoin="round" stroke-miterlimit="1.41421" viewBox="0 0 32 32" xmlns="http://www.w3.org/2000/svg" xmlns:xlink="http://www.w3.org/1999/xlink"><clipPath id="a"><path clip-rule="evenodd" d="m0 0h32v32h-32z"/></clipPath><clipPath id="b"><path clip-rule="evenodd" d="m2 6h28v20h-28z"/></clipPath><metadata/><path d="m0 0h32v32h-32z" fill="none"/><g clip-path="url(#a)"><path d="m32 6c0-.53-.211-1.039-.586-1.414s-.884-.586-1.414-.586c-5.746 0-22.254 0-28 0-.53 0-1.039.211-1.414.586s-.586.884-.586 1.414v20c0 .53.211 1.039.586 1.414s.884.586 1.414.586h28c.53 0 1.039-.211 1.414-.586s.586-.884.586-1.414c0-4.52 0-15.48 0-20z"/><path d="m2 6h28v20h-28z" fill="none"/><g clip-path="url(#b)"><path d="m1 5h30v6h-30z" fill="#420e47"/><path d="m1 10h30v5h-30z" fill="#630f6d"/><path d="m1 14h30v5h-30z" fill="#970c9c"/><path d="m1 18h30v5h-30z" fill="#b049b0"/><path d="m1 22h30v5h-30z" fill="#ca72ca"/></g><path d="m22.952 15.191c.032.264.048.535.048.809 0 3.863-3.137 7-7 7s-7-3.137-7-7 3.137-7 7-7c.274 0 .545.016.809.048-2.709.334-4.809 2.65-4.809 5.452 0 3.036 2.464 5.5 5.5 5.5 2.802 0 5.118-2.1 5.452-4.809z" fill="#f4ec50"/><circle cx="17.5" cy="14.5" fill="#fff" r="3.5"/></g></svg>