<svg clip-rule="evenodd" fill-rule="evenodd" stroke-linejoin="round" stroke-miterlimit="2" viewBox="0 0 32 32" xmlns="http://www.w3.org/2000/svg" xmlns:xlink="http://www.w3.org/1999/xlink"><clipPath id="a"><path clip-rule="evenodd" d="m0 0h32v32h-32z"/></clipPath><metadata/><path d="m0 0h32v32h-32z" fill="none"/><g clip-path="url(#a)"><path d="m29 13h-3v-3.879l-1.675 1.675c.75 1.402 1.175 3.004 1.175 4.704v2c0 5.519-4.481 10-10 10v-2-2.5c-.973 0-1.888-.253-2.681-.698l-1.637 1.637 1.939 1.94v2l-2.121 2.121-2.939-2.939-2.94 2.939-2.121-2.121v-2l1.939-1.94-1.939-1.939v-2l2.121-2.121 2.94 2.939 2.079-2.08c-.092-.398-.14-.812-.14-1.238v-2c0-1.418.538-2.712 1.421-3.688-.31.223-.601.47-.87.739l-2.121-2.121v-2c1.81-1.81 4.31-2.93 7.07-2.93 1.618 0 3.147.385 4.5 1.069v-4.569h9zm-8.14 1.262c.092.398.14.812.14 1.238v2c0 1.418-.538 2.712-1.421 3.688 1.512-1.087 2.574-2.761 2.85-4.688-.145-1.01-.505-1.951-1.034-2.774zm-3.068 2.238c-.386-.883-1.268-1.5-2.292-1.5s-1.906.617-2.292 1.5c.386.883 1.268 1.5 2.292 1.5s1.906-.617 2.292-1.5zm2.975-9.5c.227.141.448.291.663.449l.449-.449z" fill="none" stroke="#000" stroke-width="4"/><path d="m10.376 15.5c.8-2.048 2.794-3.5 5.124-3.5.973 0 1.888.253 2.681.698l1.093-1.093c-1.089-.699-2.385-1.105-3.774-1.105-1.932 0-3.682.784-4.949 2.051l-2.121-2.121v-2s4.82-.93 7.07-.93c2.219 0 4.27.724 5.93 1.949l2.449-2.449h-3.879v-2l1.505-1h5.495l2 7v2h-3v-3.879l-2.449 2.449c.847 1.148 1.454 2.482 1.749 3.93h.2v2c0 5.519-4.481 10-10 10v-2c1.959-1.151 7-4.137 7-8 0-1.389-.406-2.685-1.105-3.774l-1.093 1.093c.123.218.23.446.322.681h.376v2c0 3.036-2.464 5.5-5.5 5.5-.973 0-1.888-.253-2.681-.698l-2.637 2.637 2.939.94v2l-2.121 2.121-2.939-2.939-2.94 2.939-2.121-2.121v-2l2.939-.94-2.939-2.939v-2l2.121-.121 2.94 2.939 2.637-2.637c-.445-.793-.698-1.708-.698-2.681v-2h.376zm5.124-.5c1.38 0 2.5 1.12 2.5 2.5s-1.12 2.5-2.5 2.5-2.5-1.12-2.5-2.5 1.12-2.5 2.5-2.5z" fill="#737373"/><path d="m29 11h-3v-3.879l-2.449 2.449c1.225 1.66 1.949 3.711 1.949 5.93 0 5.519-4.481 10-10 10v-3c3.863 0 7-3.137 7-7 0-1.389-.406-2.685-1.105-3.774l-1.093 1.093c.445.793.698 1.708.698 2.681 0 3.036-2.464 5.5-5.5 5.5-.973 0-1.888-.253-2.681-.698l-2.637 2.637 2.939 2.94-2.121 2.121-2.939-2.939-2.94 2.939-2.121-2.121 2.939-2.94-2.939-2.939 2.121-2.121 2.94 2.939 2.637-2.637c-.445-.793-.698-1.708-.698-2.681 0-3.036 2.464-5.5 5.5-5.5.973 0 1.888.253 2.681.698l1.093-1.093c-1.089-.699-2.385-1.105-3.774-1.105-1.932 0-3.682.784-4.949 2.051l-2.121-2.121c1.81-1.81 4.31-2.93 7.07-2.93 2.219 0 4.27.724 5.93 1.949l2.449-2.449h-3.879v-3h9zm-13.5 2c1.38 0 2.5 1.12 2.5 2.5s-1.12 2.5-2.5 2.5-2.5-1.12-2.5-2.5 1.12-2.5 2.5-2.5z" fill="#fff"/></g></svg>