<svg clip-rule="evenodd" fill-rule="evenodd" stroke-linejoin="round" stroke-miterlimit="1.41421" viewBox="0 0 32 32" xmlns="http://www.w3.org/2000/svg" xmlns:xlink="http://www.w3.org/1999/xlink"><clipPath id="a"><path clip-rule="evenodd" d="m0 0h32v32h-32z"/></clipPath><metadata/><path d="m0 0h32v32h-32z" fill="none"/><g clip-path="url(#a)"><path d="m0 22c0-1.591.632-3.117 1.757-4.243 1.126-1.125 2.652-1.757 4.243-1.757h20c3.314 0 6 2.686 6 6v4c0 1.591-.632 3.117-1.757 4.243-1.126 1.125-2.652 1.757-4.243 1.757-5.718 0-14.282 0-20 0-1.591 0-3.117-.632-4.243-1.757-1.125-1.126-1.757-2.652-1.757-4.243 0-1.308 0-2.692 0-4z"/><path d="m13 14h14v3h-14z"/><g fill-rule="nonzero"><path d="m28 13v-5h-16.379l1.5-1.5v-2l-2.121-2.121-7.121 7.121v2l7.121 7.121 2.121-2.121v-2l-1.5-1.5z" fill="#747474" stroke="#000" stroke-width="4"/><path d="m28 13v-2l-2-1h-16.379l3.5-3.5v-2l-2.121-.121-7.121 5.121v2l7.121 7.121 2.121-2.121v-2l-3.5-1.5z" fill="#747474"/><path d="m9.621 11 3.5 3.5-2.121 2.121-7.121-7.121 7.121-7.121 2.121 2.121-3.5 3.5h18.379v3z" fill="#fff"/></g><path d="m2 22c0-1.061.421-2.078 1.172-2.828.75-.751 1.767-1.172 2.828-1.172h20c1.061 0 2.078.421 2.828 1.172.751.75 1.172 1.767 1.172 2.828v4c0 1.061-.421 2.078-1.172 2.828-.75.751-1.767 1.172-2.828 1.172-5.322 0-14.678 0-20 0-1.061 0-2.078-.421-2.828-1.172-.751-.75-1.172-1.767-1.172-2.828 0-1.287 0-2.713 0-4z" fill="#666"/><path d="m7.176 21.423v1.916h3.485v1.277h-3.485v1.983h4.056v1.278h-5.523v-7.731h5.523v1.277z" fill="#fff" fill-rule="nonzero"/><path d="m18.796 20.146v7.731h-1.468l-3.574-5.121v5.121h-1.468v-7.731h1.468l3.574 5.131v-5.131z" fill="#fff" fill-rule="nonzero"/><path d="m20.118 20.146h3.014c1.03 0 1.828.276 2.392.829s.846 1.404.846 2.554v.953c0 1.15-.288 2.004-.863 2.56-.575.557-1.386.835-2.431.835h-2.958zm3.002 6.453c.605 0 1.054-.169 1.345-.509s.437-.876.437-1.608v-.874c0-.762-.146-1.317-.437-1.664s-.74-.521-1.345-.521h-1.535v5.176z" fill="#fff" fill-rule="nonzero"/></g></svg>