<svg clip-rule="evenodd" fill-rule="evenodd" stroke-linecap="round" stroke-linejoin="round" stroke-miterlimit="1.5" viewBox="0 0 32 32" xmlns="http://www.w3.org/2000/svg" xmlns:xlink="http://www.w3.org/1999/xlink"><clipPath id="a"><path clip-rule="evenodd" d="m0 0h32v32h-32z"/></clipPath><clipPath id="b"><path clip-rule="evenodd" d="m30 8c0-.53-.211-1.039-.586-1.414s-.884-.586-1.414-.586c-5.154 0-18.846 0-24 0-.53 0-1.039.211-1.414.586s-.586.884-.586 1.414v16c0 .53.211 1.039.586 1.414s.884.586 1.414.586h24c.53 0 1.039-.211 1.414-.586s.586-.884.586-1.414c0-3.832 0-12.168 0-16z"/></clipPath><metadata/><path d="m0 0h32v32h-32z" fill="none"/><g clip-path="url(#a)"><path d="m30 8c0-.53-.211-1.039-.586-1.414s-.884-.586-1.414-.586c-5.154 0-18.846 0-24 0-.53 0-1.039.211-1.414.586s-.586.884-.586 1.414v16c0 .53.211 1.039.586 1.414s.884.586 1.414.586h24c.53 0 1.039-.211 1.414-.586s.586-.884.586-1.414c0-3.832 0-12.168 0-16z" fill="none" stroke="#000" stroke-width="4"/><path d="m30 8c0-.53-.211-1.039-.586-1.414s-.884-.586-1.414-.586c-5.154 0-18.846 0-24 0-.53 0-1.039.211-1.414.586s-.586.884-.586 1.414v16c0 .53.211 1.039.586 1.414s.884.586 1.414.586h24c.53 0 1.039-.211 1.414-.586s.586-.884.586-1.414c0-3.832 0-12.168 0-16z" fill="#fff"/><g clip-path="url(#b)" stroke-width="2"><path d="m2 26 14-14.444 14 14.444" fill="none" stroke="#ccc"/><path d="m2 6s7.163 6.822 11.241 10.706c1.545 1.471 3.973 1.471 5.518 0 4.078-3.884 11.241-10.706 11.241-10.706" fill="#fff" stroke="#999"/></g></g></svg>