<svg clip-rule="evenodd" fill-rule="evenodd" stroke-linecap="round" stroke-linejoin="round" stroke-miterlimit="1.5" viewBox="0 0 32 32" xmlns="http://www.w3.org/2000/svg" xmlns:xlink="http://www.w3.org/1999/xlink"><clipPath id="a"><path clip-rule="evenodd" d="m0 0h32v32h-32z"/></clipPath><clipPath id="b"><path clip-rule="evenodd" d="m28 15.995c0-.531-.211-1.039-.586-1.414s-.884-.586-1.414-.586c-4.52 0-15.48 0-20 0-.53 0-1.039.211-1.414.586s-.586.883-.586 1.414v12.005c0 .53.211 1.039.586 1.414s.884.586 1.414.586h20c.53 0 1.039-.211 1.414-.586s.586-.884.586-1.414c0-3.075 0-8.93 0-12.005z"/></clipPath><metadata/><path d="m0 0h32v32h-32z" fill="none"/><g clip-path="url(#a)"><path d="m11.369 13.995-2.495-2.495v-2.5l2.121-2.121 3.5 3.5v-8.379h3v8.379l3.5-3.5 2.121 2.121v2.5l-2.495 2.495h5.379c.53 0 1.039.211 1.414.586s.586.883.586 1.414v12.005c0 .53-.211 1.039-.586 1.414s-.884.586-1.414.586c-4.52 0-15.48 0-20 0-.53 0-1.039-.211-1.414-.586s-.586-.884-.586-1.414c0-3.075 0-8.93 0-12.005 0-.531.211-1.039.586-1.414s.884-.586 1.414-.586z" fill="none" stroke="#000" stroke-width="4"/><path d="m28 15.995c0-.531-.211-1.039-.586-1.414s-.884-.586-1.414-.586c-4.52 0-15.48 0-20 0-.53 0-1.039.211-1.414.586s-.586.883-.586 1.414v12.005c0 .53.211 1.039.586 1.414s.884.586 1.414.586h20c.53 0 1.039-.211 1.414-.586s.586-.884.586-1.414c0-3.075 0-8.93 0-12.005z" fill="#fff"/><g clip-path="url(#b)" stroke-width="2"><path d="m4 30 12-11.559 12 11.559" fill="none" stroke="#ccc"/><path d="m4 13.995s6.595 5.864 10.007 8.897c1.136 1.011 2.85 1.011 3.986 0 3.412-3.033 10.007-8.897 10.007-8.897" fill="#fff" stroke="#999"/></g><g fill-rule="nonzero"><path d="m14.495 12.379h3l3.5-3.5 2.121.121v2.5l-7.121 7.121-7.121-7.121v-2.5l2.121-.121z" fill="#9f146a"/><path d="m17.495 10.379 3.5-3.5 2.121 2.121-7.121 7.121-7.121-7.121 2.121-2.121 3.5 3.5v-8.379h3z" fill="#ec2fa4"/></g></g></svg>