<svg clip-rule="evenodd" fill-rule="evenodd" stroke-linejoin="round" stroke-miterlimit="5" viewBox="0 0 32 32" xmlns="http://www.w3.org/2000/svg"><metadata/><path d="m0 0h32v32h-32z" fill="none"/><g fill="#8e8e8e" stroke="#000" stroke-width="4"><path d="m3 27 2 2 19.5-19.5 3-5-5 3z"/><path d="m22.5 10.5s.582.582 1.233 1.233c.45.45 1.07.687 1.705.652s1.225-.339 1.623-.836c1.122-1.403 2.439-3.049 2.439-3.049s.138.896.341 2.218c.388 2.518-.448 5.071-2.25 6.873s-4.355 2.638-6.873 2.25c-1.322-.203-2.218-.341-2.218-.341s1.646-1.317 3.049-2.439c.497-.398.801-.988.836-1.623s-.202-1.255-.652-1.705c-.651-.651-1.233-1.233-1.233-1.233z"/><path d="m21.5 9.5-6-4 4 6z" stroke-linecap="round" stroke-miterlimit="7"/></g><path d="m21.5 9.5-6-4 4 6z" fill="#98bdd0"/><path d="m28.413 9.858 1.087-1.358s.138.896.341 2.218c.388 2.518-.448 5.071-2.25 6.873s-4.355 2.638-6.873 2.25c-1.322-.203-2.218-.341-2.218-.341l1.358-1.087c.193.03 3.972-1.234 6.142-3.413 2.015-2.023 2.441-4.963 2.413-5.142z" fill="#e1f1f4"/><path d="m28.413 9.858c.057.373.087.754.087 1.142 0 4.139-3.361 7.5-7.5 7.5-.388 0-.769-.03-1.142-.087l1.691-1.352c.497-.398.801-.988.836-1.623s-.202-1.255-.652-1.705c-.651-.651-1.233-1.233-1.233-1.233l2-2s.582.582 1.233 1.233c.45.45 1.07.687 1.705.652s1.225-.339 1.623-.836z" fill="#98bdd0"/><path d="m16.5 13.5-.5 2.5 2.5-.5 6-6-.5-1.5-1.5-.5z" fill="#e1f1f4"/><path d="m22.5 7.5 2 2 3-5z" fill="#98bdd0"/><path d="m17 13 2 2-14 14-2-2z" fill="#6e4d31"/></svg>