<svg clip-rule="evenodd" fill-rule="evenodd" stroke-linecap="square" stroke-miterlimit="1.5" viewBox="0 0 32 32" xmlns="http://www.w3.org/2000/svg" xmlns:xlink="http://www.w3.org/1999/xlink"><clipPath id="a"><path clip-rule="evenodd" d="m0 0h32v32h-32z"/></clipPath><metadata/><path d="m0 0h32v32h-32z" fill="none"/><g clip-path="url(#a)"><path d="m14 19h4v11h-4z" fill="none" stroke="#000" stroke-width="4"/><path d="m18.844 8.637c.444-.011.888-.07 1.325-.179.941-.235 1.831-.458 1.831-.458s-.859 1.719-1.658 3.317c-.074.146-.153.288-.24.424.242-.023.482-.058.721-.106 1.429-.285 3.177-.635 3.177-.635s-.466 1.087-1.031 2.405c-.393.917-.954 1.729-1.638 2.405l.026-.004c2.036-.291 5.643-.806 5.643-.806s-.232.618-.567 1.511c-.608 1.622-1.608 3.017-2.868 4.093l5.435-.604s-.442.662-1.031 1.547c-1.855 2.782-4.977 4.453-8.321 4.453h-7.296c-3.344 0-6.466-1.671-8.321-4.453-.589-.885-1.031-1.547-1.031-1.547l5.435.604c-1.26-1.076-2.26-2.471-2.868-4.093-.335-.893-.567-1.511-.567-1.511s3.307.472 5.375.768c.096.014.192.026.288.036-.681-.675-1.24-1.484-1.632-2.399-.565-1.318-1.031-2.405-1.031-2.405s1.471.294 2.818.564c.35.07.703.117 1.058.142-.078-.126-.151-.255-.218-.389-.799-1.598-1.658-3.317-1.658-3.317s.89.223 1.831.458c.437.109.881.168 1.325.179l2.844-6.637z" fill="none" stroke="#000" stroke-linejoin="round" stroke-width="4"/><path d="m14 18h4v10l-2 1-2-1z" fill="#43330f"/><path d="m14 28h4v2h-4z" fill="#574213"/><path d="m15.824 2.412 3.176 7.588 1 4 2 5v6l-6 1h-3.648c-3.344 0-6.466-1.671-8.321-4.453-.589-.885-1.031-1.547-1.031-1.547l5.435.604c-1.26-1.076-2.26-2.471-2.868-4.093-.335-.893-.567-1.511-.567-1.511s3.307.472 5.375.768c.096.014.192.026.288.036-.681-.675-1.24-1.484-1.632-2.399-.565-1.318-1.031-2.405-1.031-2.405s1.471.294 2.818.564c.35.07.703.117 1.058.142-.078-.126-.151-.255-.218-.389-.799-1.598-1.658-3.317-1.658-3.317s.89.223 1.831.458c.437.109.881.168 1.325.179l2.668-6.225z" fill="#199d4e"/><path d="m15.824 2.412.176-.412 2.844 6.637c.444-.011.888-.07 1.325-.179.941-.235 1.831-.458 1.831-.458s-.859 1.719-1.658 3.317c-.074.146-.153.288-.24.424.242-.023.482-.058.721-.106 1.429-.285 3.177-.635 3.177-.635s-.466 1.087-1.031 2.405c-.393.917-.954 1.729-1.638 2.405l.026-.004c2.036-.291 5.643-.806 5.643-.806s-.232.618-.567 1.511c-.608 1.622-1.608 3.017-2.868 4.093l5.435-.604s-.442.662-1.031 1.547c-1.855 2.782-4.977 4.453-8.321 4.453h-3.648l5-5h-5l4-5h-4l3-4h-3l2-3h-3z" fill="#126d36"/></g></svg>