<svg clip-rule="evenodd" fill-rule="evenodd" stroke-linejoin="round" stroke-miterlimit="1.41421" viewBox="0 0 32 32" xmlns="http://www.w3.org/2000/svg"><metadata/><g fill="none"><path d="m0 0v32h32v-32z"/><path d="m7.776 20.597c-.118 0-.219-.044-.302-.132s-.124-.195-.124-.321l-.604-16.313c0-.302.142-.453.426-.453h5.047c.284 0 .426.151.426.453l-.604 16.313c0 .126-.042.233-.124.321-.083.088-.184.132-.303.132zm1.671 9.176c-.901 0-1.641-.308-2.221-.925-.581-.617-.871-1.403-.871-2.36s.29-1.737.871-2.341c.58-.604 1.32-.906 2.221-.906.9 0 1.64.302 2.221.906.58.604.87 1.384.87 2.341 0 .932-.29 1.712-.87 2.341-.581.63-1.321.944-2.221.944z" stroke="#000" stroke-width="4"/><path d="m20.776 20.597c-.118 0-.219-.044-.302-.132s-.124-.195-.124-.321l-.604-16.313c0-.302.142-.453.426-.453h5.047c.284 0 .426.151.426.453l-.604 16.313c0 .126-.042.233-.124.321-.083.088-.184.132-.303.132zm1.671 9.176c-.901 0-1.641-.308-2.221-.925-.581-.617-.871-1.403-.871-2.36s.29-1.737.871-2.341c.58-.604 1.32-.906 2.221-.906.9 0 1.64.302 2.221.906.58.604.87 1.384.87 2.341 0 .932-.29 1.712-.87 2.341-.581.63-1.321.944-2.221.944z" stroke="#000" stroke-width="4"/><path d="m7.776 19.597c-.118 0-.219-.044-.302-.132s-.124-.195-.124-.321l-.604-16.313c0-.302.142-.453.426-.453h5.047c.284 0 .426.151.426.453l-.604 16.313c0 .126-.042.233-.124.321-.083.088-.184.132-.303.132zm1.671 9.176c-.901 0-1.641-.308-2.221-.925-.581-.617-.871-1.403-.871-2.36s.29-1.737.871-2.341c.58-.604 1.32-.906 2.221-.906.9 0 1.64.302 2.221.906.58.604.87 1.384.87 2.341 0 .932-.29 1.712-.87 2.341-.581.63-1.321.944-2.221.944z" stroke="#000" stroke-width="4"/><path d="m20.776 19.597c-.118 0-.219-.044-.302-.132s-.124-.195-.124-.321l-.604-16.313c0-.302.142-.453.426-.453h5.047c.284 0 .426.151.426.453l-.604 16.313c0 .126-.042.233-.124.321-.083.088-.184.132-.303.132zm1.671 9.176c-.901 0-1.641-.308-2.221-.925-.581-.617-.871-1.403-.871-2.36s.29-1.737.871-2.341c.58-.604 1.32-.906 2.221-.906.9 0 1.64.302 2.221.906.58.604.87 1.384.87 2.341 0 .932-.29 1.712-.87 2.341-.581.63-1.321.944-2.221.944z" stroke="#000" stroke-width="4"/></g><path d="m7.776 20.597c-.118 0-.219-.044-.302-.132s-.124-.195-.124-.321l-.604-16.313c0-.302.142-.453.426-.453h5.047c.284 0 .426.151.426.453l-.604 16.313c0 .126-.042.233-.124.321-.083.088-.184.132-.303.132zm1.671 9.176c-.901 0-1.641-.308-2.221-.925-.581-.617-.871-1.403-.871-2.36s.29-1.737.871-2.341c.58-.604 1.32-.906 2.221-.906.9 0 1.64.302 2.221.906.58.604.87 1.384.87 2.341 0 .932-.29 1.712-.87 2.341-.581.63-1.321.944-2.221.944z" fill="#841319" fill-rule="nonzero"/><path d="m20.776 20.597c-.118 0-.219-.044-.302-.132s-.124-.195-.124-.321l-.604-16.313c0-.302.142-.453.426-.453h5.047c.284 0 .426.151.426.453l-.604 16.313c0 .126-.042.233-.124.321-.083.088-.184.132-.303.132zm1.671 9.176c-.901 0-1.641-.308-2.221-.925-.581-.617-.871-1.403-.871-2.36s.29-1.737.871-2.341c.58-.604 1.32-.906 2.221-.906.9 0 1.64.302 2.221.906.58.604.87 1.384.87 2.341 0 .932-.29 1.712-.87 2.341-.581.63-1.321.944-2.221.944z" fill="#841319" fill-rule="nonzero"/><path d="m7.776 19.597c-.118 0-.219-.044-.302-.132s-.124-.195-.124-.321l-.604-16.313c0-.302.142-.453.426-.453h5.047c.284 0 .426.151.426.453l-.604 16.313c0 .126-.042.233-.124.321-.083.088-.184.132-.303.132zm1.671 9.176c-.901 0-1.641-.308-2.221-.925-.581-.617-.871-1.403-.871-2.36s.29-1.737.871-2.341c.58-.604 1.32-.906 2.221-.906.9 0 1.64.302 2.221.906.58.604.87 1.384.87 2.341 0 .932-.29 1.712-.87 2.341-.581.63-1.321.944-2.221.944z" fill="#e82731" fill-rule="nonzero"/><path d="m20.776 19.597c-.118 0-.219-.044-.302-.132s-.124-.195-.124-.321l-.604-16.313c0-.302.142-.453.426-.453h5.047c.284 0 .426.151.426.453l-.604 16.313c0 .126-.042.233-.124.321-.083.088-.184.132-.303.132zm1.671 9.176c-.901 0-1.641-.308-2.221-.925-.581-.617-.871-1.403-.871-2.36s.29-1.737.871-2.341c.58-.604 1.32-.906 2.221-.906.9 0 1.64.302 2.221.906.58.604.87 1.384.87 2.341 0 .932-.29 1.712-.87 2.341-.581.63-1.321.944-2.221.944z" fill="#e82731" fill-rule="nonzero"/></svg>