<svg clip-rule="evenodd" fill-rule="evenodd" stroke-linejoin="round" stroke-miterlimit="2" viewBox="0 0 32 32" xmlns="http://www.w3.org/2000/svg" xmlns:xlink="http://www.w3.org/1999/xlink"><clipPath id="a"><path clip-rule="evenodd" d="m0 0h32v32h-32z"/></clipPath><metadata/><path d="m0 0h32v32h-32z" fill="none"/><g clip-path="url(#a)"><path d="m16 3c8.837 0 16 7.163 16 16v.502c0 6.902-5.596 12.498-12.498 12.498h-7.004c-6.902 0-12.498-5.596-12.498-12.498 0-.167 0-.334 0-.502 0-8.837 7.163-16 16-16z"/><path d="m30 19c0-7.732-6.268-14-14-14-7.732 0-14 6.268-14 14v.502c0 5.798 4.7 10.498 10.498 10.498h7.004c5.798 0 10.498-4.7 10.498-10.498z" fill="#fbc546"/><path d="m23 22c0-.552-.448-1-1-1-2.577 0-9.423 0-12 0-.552 0-1 .448-1 1s.448 1 1 1h12c.552 0 1-.448 1-1z" fill="#593604"/><path d="m26 15c0-.265-.105-.52-.293-.707-.187-.188-.442-.293-.707-.293-1.331 0-3.669 0-5 0-.265 0-.52.105-.707.293-.188.187-.293.442-.293.707s.105.52.293.707c.187.188.442.293.707.293h5c.265 0 .52-.105.707-.293.188-.187.293-.442.293-.707z"/><path d="m13 15c0-.265-.105-.52-.293-.707-.187-.188-.442-.293-.707-.293-1.331 0-3.669 0-5 0-.265 0-.52.105-.707.293-.188.187-.293.442-.293.707s.105.52.293.707c.187.188.442.293.707.293h5c.265 0 .52-.105.707-.293.188-.187.293-.442.293-.707z"/></g></svg>