<svg clip-rule="evenodd" fill-rule="evenodd" stroke-linecap="round" stroke-linejoin="round" stroke-miterlimit="1.5" viewBox="0 0 32 32" xmlns="http://www.w3.org/2000/svg" xmlns:xlink="http://www.w3.org/1999/xlink"><clipPath id="a"><path clip-rule="evenodd" d="m0 0v32h32v-32z"/></clipPath><metadata/><path d="m0 0v32h32v-32z" fill="none"/><g clip-path="url(#a)"><path d="m2.001 12.998c2.974-4.886 8.28-7.867 13.999-7.867s11.025 2.981 13.999 7.867l.001.002v2s0 .001-.001.002c-1.284 2.109-3.001 3.862-4.999 5.175v7.823l-5.507-5.507c-1.135.248-2.305.376-3.493.376-5.719 0-11.025-2.981-13.999-7.867-.001-.001-.001-.002-.001-.002v-2l.001-.002z" fill="none" stroke="#000" stroke-width="4"/><path d="m19.493 22.493c-1.135.248-2.305.376-3.493.376-5.719 0-11.025-2.981-13.999-7.867-.001-.001-.001-.002-.001-.002v-2h28v2s0 .001-.001.002c-1.284 2.109-3.001 3.862-4.999 5.175v7.823z" fill="#747474"/><path d="m20.296 20.296c-1.383.376-2.826.573-4.296.573-5.719 0-11.025-2.981-13.999-7.867-.001-.001-.001-.002-.001-.002s0-.001.001-.002c2.974-4.886 8.28-7.867 13.999-7.867s11.025 2.981 13.999 7.867c.001.001.001.002.001.002s0 .001-.001.002c-1.284 2.109-3.001 3.862-4.999 5.175v6.823z" fill="#fff"/><circle cx="16" cy="13" fill="#585858" r="6"/><circle cx="16" cy="13" r="3"/><circle cx="18" cy="11" fill="#fff" fill-opacity=".309804" r="2"/></g></svg>