<svg clip-rule="evenodd" fill-rule="evenodd" stroke-linejoin="round" stroke-miterlimit="2" viewBox="0 0 32 32" xmlns="http://www.w3.org/2000/svg" xmlns:xlink="http://www.w3.org/1999/xlink"><clipPath id="a"><path clip-rule="evenodd" d="m0 0h32v32h-32z"/></clipPath><metadata/><path d="m0 0h32v32h-32z" fill="none"/><g clip-path="url(#a)"><path d="m16 0c4.243 0 8.313 1.686 11.314 4.686 3 3.001 4.686 7.071 4.686 11.314v2c0 7.732-6.268 14-14 14-1.325 0-2.675 0-4 0-7.732 0-14-6.268-14-14v-2c0-8.837 7.163-16 16-16z"/><path d="m30 16c0-3.713-1.475-7.274-4.101-9.899-2.625-2.626-6.186-4.101-9.899-4.101-7.732 0-14 6.268-14 14v2c0 6.627 5.373 12 12 12h4c6.627 0 12-5.373 12-12z" fill="#fbc546"/><path d="m9.502 17.842c.928 0 1.817-.368 2.473-1.024s1.025-1.546 1.025-2.474c0-.657 0-1.344 0-2.002 0-1.933-1.567-3.5-3.5-3.5h-.002c-.928 0-1.817.369-2.473 1.025s-1.025 1.546-1.025 2.473v2.002c0 1.933 1.567 3.5 3.5 3.5z" fill="#fff"/><path d="m8 11.842c0-.53.211-1.039.586-1.414s.884-.586 1.414-.586 1.039.211 1.414.586.586.884.586 1.414v2.984c0 .53-.211 1.039-.586 1.414s-.884.586-1.414.586-1.039-.211-1.414-.586-.586-.884-.586-1.414c0-.936 0-2.048 0-2.984z"/><path d="m22.498 17.842c-.928 0-1.817-.368-2.473-1.024s-1.025-1.546-1.025-2.474c0-.657 0-1.344 0-2.002 0-1.933 1.567-3.5 3.5-3.5h.002c.928 0 1.817.369 2.473 1.025s1.025 1.546 1.025 2.473v2.002c0 1.933-1.567 3.5-3.5 3.5z" fill="#fff"/><path d="m24 11.842c0-.53-.211-1.039-.586-1.414s-.884-.586-1.414-.586-1.039.211-1.414.586-.586.884-.586 1.414v2.984c0 .53.211 1.039.586 1.414s.884.586 1.414.586 1.039-.211 1.414-.586.586-.884.586-1.414c0-.936 0-2.048 0-2.984z"/></g></svg>