<svg clip-rule="evenodd" fill-rule="evenodd" stroke-linecap="round" stroke-linejoin="round" stroke-miterlimit="1.5" viewBox="0 0 32 32" xmlns="http://www.w3.org/2000/svg" xmlns:xlink="http://www.w3.org/1999/xlink"><clipPath id="a"><path clip-rule="evenodd" d="m0 0h32v32h-32z"/></clipPath><metadata/><path d="m0 0h32v32h-32z" fill="none"/><g clip-path="url(#a)"><path d="m22 3c0-.552.896-1 2-1s2 .448 2 1v15h2v12h-26v-14h8v2h12z" fill="none" stroke="#000" stroke-width="4"/><path d="m22 3c0-.552.896-1 2-1s2 .448 2 1v17h-4z" fill="#e6e6e6"/><path d="m28 18h-2l-.372.482-.628-.482h-3l-.519.659-.481-.659h-3l-.511.626-.489-.626h-3l-.457.576-.543-.576h-4v11l1 1h3l.407-.471.593.471h3l.591-.406.409.406h3l.454-.462.546.462h3l.472-.354.528.354h2z" fill="#656565"/><path d="m2 16h8v14h-8z" fill="#969696"/><g fill="#535353"><path d="m13 18h1v12h-1z"/><path d="m17 18h1v12h-1z"/><path d="m21 18h1v12h-1z"/><path d="m25 18h1v12h-1z"/></g><path d="m3 18h6v2h-6z" fill="#6a6a6a"/><path d="m3 21h6v2h-6z" fill="#6a6a6a"/></g></svg>