<svg clip-rule="evenodd" fill-rule="evenodd" stroke-linejoin="round" stroke-miterlimit="1.41421" viewBox="0 0 32 32" xmlns="http://www.w3.org/2000/svg" xmlns:xlink="http://www.w3.org/1999/xlink"><clipPath id="a"><path clip-rule="evenodd" d="m0 0h32v32h-32z"/></clipPath><clipPath id="b"><path clip-rule="evenodd" d="m20 15c0-1.591-.632-3.117-1.757-4.243-1.126-1.125-2.652-1.757-4.243-1.757-1.591 0-3.117.632-4.243 1.757-1.125 1.126-1.757 2.652-1.757 4.243v2c0 1.591.632 3.117 1.757 4.243 1.126 1.125 2.652 1.757 4.243 1.757 1.591 0 3.117-.632 4.243-1.757 1.125-1.126 1.757-2.652 1.757-4.243 0-.663 0-1.337 0-2z"/></clipPath><clipPath id="c"><path clip-rule="evenodd" d="m6 12s.954-2.862 1.544-4.632c.272-.817 1.037-1.368 1.898-1.368h9.116c.861 0 1.626.551 1.898 1.368.59 1.77 1.544 4.632 1.544 4.632z"/></clipPath><clipPath id="d"><path clip-rule="evenodd" d="m30 10s-.449 0-1 0c-.53 0-1.039.211-1.414.586s-.586.884-.586 1.414v4h1c.53 0 1.039-.211 1.414-.586s.586-.884.586-1.414c0-1.745 0-4 0-4z"/></clipPath><metadata/><path d="m0 0h32v32h-32z" fill="none"/><g clip-path="url(#a)"><path d="m21.937 14c.005.037.009.074.014.111.029.263.043.526.048.79.005.733.005 1.465 0 2.198-.003.173-.01.345-.023.517.186-.268.396-.517.624-.751l2.39-2.391c-.001-.858.001-1.716.011-2.574.004-.098.004-.098.01-.197.04-.457.145-.903.332-1.324.212-.479.52-.916.9-1.277.426-.406.942-.715 1.5-.9.403-.133.821-.197 1.245-.202h3.012v6.012c-.005.424-.069.842-.202 1.245-.175.527-.46 1.016-.832 1.428-.441.486-1 .86-1.617 1.081-.251.09-.508.152-.77.19-.807.807-1.614 1.615-2.421 2.422-.016.016-.031.031-.045.048-.02.026-.038.053-.054.081-.041.08-.058.162-.059.251v2.008c.4.359.704.824.866 1.343.059.191.099.388.119.586.013.129.012.156.015.28v7.025h-23c0-.725-.012-1.451.002-2.176.023-.746.156-1.482.408-2.186.172-.482.399-.945.672-1.379.829-1.312 2.094-2.326 3.556-2.849.134-.048.269-.092.405-.131-.504-.398-.96-.856-1.354-1.363-.461-.592-.838-1.248-1.117-1.945-.254-.636-.427-1.305-.511-1.985-.037-.294-.055-.59-.06-.887-.005-.733-.005-1.465 0-2.198.005-.264.019-.527.048-.79.005-.037.009-.074.014-.111h-2.838c.816-2.447 1.607-4.902 2.448-7.341.027-.075.056-.149.087-.223.188-.432.442-.83.765-1.174.53-.564 1.222-.967 1.974-1.15.283-.068.571-.103.862-.111 3.093-.031 6.185-.031 9.278 0 .501.015.999.111 1.462.308.281.12.549.267.797.446.482.347.884.803 1.169 1.324.102.187.187.381.26.58l.023.066 2.425 7.275z"/><path d="m20 26c1.214.912 2 2.364 2 4h-2l-.933-1.929z" fill="#173899"/><path d="m11.5 25 2 2 .5 3h-8s0-.001 0-.002c0-1.326.527-2.597 1.464-3.534s2.208-1.464 3.534-1.464zm5 0h.5c1.126 0 2.164.372 3 1v4h-6l.5-3.025z" fill="#304fbd"/><path d="m14 30-1.637-3.275c.513.178 1.064-.725 1.637-.725s1.124.903 1.637.725z" fill="#fff"/><path d="m16.5 25-.863 1.725c-.513.178-1.064.275-1.637.275s-1.124-.097-1.637-.275l-.863-1.725z" fill="#85e9e4"/><path d="m20 15c0-1.591-.632-3.117-1.757-4.243-1.126-1.125-2.652-1.757-4.243-1.757-1.591 0-3.117.632-4.243 1.757-1.125 1.126-1.757 2.652-1.757 4.243v2c0 1.591.632 3.117 1.757 4.243 1.126 1.125 2.652 1.757 4.243 1.757 1.591 0 3.117-.632 4.243-1.757 1.125-1.126 1.757-2.652 1.757-4.243 0-.663 0-1.337 0-2z" fill="#85e9e4"/><g clip-path="url(#b)"><path d="m7 10h14v5h-14z" fill="#55bdd2"/><path d="m18 15c0-.552-.448-1-1-1s-1 .448-1 1v1c0 .552.448 1 1 1s1-.448 1-1c0-.322 0-.678 0-1zm-6 0c0-.552-.448-1-1-1s-1 .448-1 1v1c0 .552.448 1 1 1s1-.448 1-1c0-.322 0-.678 0-1z"/></g><path d="m6 12s.954-2.862 1.544-4.632c.272-.817 1.037-1.368 1.898-1.368h9.116c.861 0 1.626.551 1.898 1.368.59 1.77 1.544 4.632 1.544 4.632z" fill="#1a1a1a"/><g clip-path="url(#c)"><path d="m18.639 4.001c.212.006.422.025.632.063.585.105 1.144.343 1.626.691.248.178.473.385.675.614.333.377.582.819.755 1.29l.023.067 3.425 10.274h-23.55c1.149-3.447 2.263-6.906 3.448-10.341.028-.075.056-.15.087-.224.189-.431.442-.83.765-1.173.53-.564 1.222-.967 1.974-1.15.283-.068.571-.103.862-.111 3.093-.031 6.185-.031 9.278 0zm-9.188 3.999c-.004 0-.007-.002-.009 0-.003.002-.003.007-.004.01l-1.663 4.99h12.45c-.554-1.664-1.109-3.327-1.663-4.991-.002-.005-.001-.007-.004-.009-.003-.001-.006 0-.009 0-3.033 0-6.065 0-9.098 0z" fill="#2f2f2f" fill-rule="nonzero"/><path d="m19 5h-10v2c0 .552.448 1 1 1h8c.552 0 1-.448 1-1 0-.873 0-2 0-2z" fill="#4f89ca"/></g><path d="m30 10s-.449 0-1 0c-.53 0-1.039.211-1.414.586s-.586.884-.586 1.414v4h1c.53 0 1.039-.211 1.414-.586s.586-.884.586-1.414c0-1.745 0-4 0-4z" fill="#f89500"/><g clip-path="url(#d)"><path d="m29 12c-1.105 0-2 .895-2 2v2c1.105 0 2-.895 2-2 0-1 0-2 0-2z" fill="#ffc772"/></g><path d="m26.207 17.5c-.506.506-1.018 1.007-1.518 1.519-.042.046-.083.092-.123.139-.256.321-.437.692-.517 1.095-.033.163-.047.327-.049.493v3.754h-1c0-1.281-.015-2.563.001-3.844.009-.231.034-.458.085-.683.106-.473.312-.923.601-1.313.102-.138.216-.267.336-.39l1.477-1.477z" fill="#999" fill-rule="nonzero"/><path d="m25 25c0-.552-.448-1-1-1-.322 0-.678 0-1 0-.552 0-1 .448-1 1v5h3s0-3.293 0-5z" fill="#666"/></g></svg>