<svg clip-rule="evenodd" fill-rule="evenodd" stroke-linejoin="round" stroke-miterlimit="1.41421" viewBox="0 0 32 32" xmlns="http://www.w3.org/2000/svg" xmlns:xlink="http://www.w3.org/1999/xlink"><clipPath id="a"><path clip-rule="evenodd" d="m0 0h32v32h-32z"/></clipPath><clipPath id="b"><path clip-rule="evenodd" d="m19 15c0-1.591-.632-3.117-1.757-4.243-1.126-1.125-2.652-1.757-4.243-1.757-1.591 0-3.117.632-4.243 1.757-1.125 1.126-1.757 2.652-1.757 4.243v2c0 1.591.632 3.117 1.757 4.243 1.126 1.125 2.652 1.757 4.243 1.757 1.591 0 3.117-.632 4.243-1.757 1.125-1.126 1.757-2.652 1.757-4.243 0-.663 0-1.337 0-2z"/></clipPath><clipPath id="c"><path clip-rule="evenodd" d="m7 12s.841-3.363 1.432-5.728c.334-1.335 1.534-2.272 2.91-2.272h3.316c1.376 0 2.576.937 2.91 2.272.591 2.365 1.432 5.728 1.432 5.728z"/></clipPath><clipPath id="d"><path clip-rule="evenodd" d="m30 14h-8v6c0 1.657 1.343 3 3 3h2c1.657 0 3-1.343 3-3 0-2.618 0-6 0-6z"/></clipPath><metadata/><path d="m0 0h32v32h-32z" fill="none"/><g clip-path="url(#a)"><path d="m5 15h-1.025c-.14-.003-.279-.012-.418-.032-.29-.044-.574-.13-.839-.255-.356-.168-.678-.407-.942-.699-.231-.254-.417-.549-.548-.866-.113-.271-.185-.559-.214-.852-.088-.887.233-1.787.864-2.418.209-.208.449-.386.709-.525.302-.161.631-.27.97-.321.139-.02.278-.029.418-.032h1.713c.277-1.105.542-2.214.831-3.316.029-.103.029-.102.06-.204.143-.432.333-.843.583-1.224.619-.943 1.557-1.66 2.63-2.01.468-.153.952-.229 1.443-.245 1.177-.013 2.353-.013 3.53 0 .525.017 1.043.104 1.541.278 1.131.395 2.1 1.201 2.694 2.242.226.394.391.817.506 1.256l.806 3.223h1.713l.124.003c.148.011.293.025.439.055.287.057.566.157.825.295.348.186.658.44.908.745.217.265.388.567.504.89.099.277.157.569.172.863.002.05.004.1.003.149h7v8.013c-.002.166-.009.331-.026.496-.037.372-.117.74-.237 1.094-.233.688-.617 1.322-1.118 1.847-.458.48-1.011.868-1.619 1.134v7.416h-2-7-17c0-.727-.012-1.453.002-2.18.026-.818.181-1.632.486-2.393.21-.523.477-1.021.804-1.481.717-1.007 1.7-1.818 2.826-2.327.3-.135.61-.25.926-.342-.503-.396-.96-.853-1.355-1.361-.461-.592-.838-1.248-1.117-1.945-.254-.636-.427-1.305-.511-1.985-.037-.294-.055-.59-.06-.887-.005-.699-.005-1.399-.001-2.099zm15.058 5.765c-.417.783-.965 1.495-1.616 2.098-.155.145-.317.283-.484.415.315.092.624.206.924.341.564.255 1.094.586 1.572.98 1.112.918 1.927 2.177 2.303 3.569.162.596.239 1.209.243 1.826v.006-5.417c-.535-.233-1.027-.561-1.45-.964-.554-.528-.983-1.182-1.246-1.9-.113-.309-.195-.629-.246-.954z"/><path d="m16.854 25.073c2.355.405 4.146 2.457 4.146 4.927h-16c0-2.47 1.791-4.522 4.146-4.927.469 1.687 7.239 1.687 7.708 0z" fill="#598d60"/><path d="m9.146 25.073c.277-.048.563-.073.854-.073h6c.291 0 .577.025.854.073-.469 1.687-2.018 2.927-3.854 2.927s-3.385-1.24-3.854-2.927z" fill="#5c392e"/><path d="m19 15c0-1.591-.632-3.117-1.757-4.243-1.126-1.125-2.652-1.757-4.243-1.757-1.591 0-3.117.632-4.243 1.757-1.125 1.126-1.757 2.652-1.757 4.243v2c0 1.591.632 3.117 1.757 4.243 1.126 1.125 2.652 1.757 4.243 1.757 1.591 0 3.117-.632 4.243-1.757 1.125-1.126 1.757-2.652 1.757-4.243 0-.663 0-1.337 0-2z" fill="#5c392e"/><g clip-path="url(#b)"><path d="m6 12h14v5h-14z" fill="#412116"/><path d="m17 15c0-.552-.448-1-1-1s-1 .448-1 1v1c0 .552.448 1 1 1s1-.448 1-1c0-.322 0-.678 0-1zm-6 0c0-.552-.448-1-1-1s-1 .448-1 1v1c0 .552.448 1 1 1s1-.448 1-1c0-.322 0-.678 0-1z"/></g><path d="m7 12s.841-3.363 1.432-5.728c.334-1.335 1.534-2.272 2.91-2.272h3.316c1.376 0 2.576.937 2.91 2.272.591 2.365 1.432 5.728 1.432 5.728z" fill="#ac8e50"/><g clip-path="url(#c)"><path d="m6 9h14v3h-14z" fill="#594929"/></g><path d="m23 12c0-.265-.105-.52-.293-.707-.187-.188-.442-.293-.707-.293-3.414 0-14.586 0-18 0-.265 0-.52.105-.707.293-.188.187-.293.442-.293.707s.105.52.293.707c.187.188.442.293.707.293h18c.265 0 .52-.105.707-.293.188-.187.293-.442.293-.707z" fill="#ac8e50"/><path d="m25 22h2v8h-2z" fill="#634227"/><path d="m30 14h-8v6c0 1.657 1.343 3 3 3h2c1.657 0 3-1.343 3-3 0-2.618 0-6 0-6z" fill="#919191"/><g clip-path="url(#d)"><path d="m24 13h1v7h-1z"/><path d="m27 13h1v7h-1z"/></g></g></svg>