<svg clip-rule="evenodd" fill-rule="evenodd" stroke-linejoin="round" stroke-miterlimit="1.41421" viewBox="0 0 32 32" xmlns="http://www.w3.org/2000/svg" xmlns:xlink="http://www.w3.org/1999/xlink"><clipPath id="a"><path clip-rule="evenodd" d="m32 32v-32h-32v32z"/></clipPath><metadata/><path d="m32 32v-32h-32v32z" fill="none"/><g clip-path="url(#a)"><path d="m24 32c4.418 0 8-3.582 8-8 0-4.887 0-11.113 0-16 0-4.418-3.582-8-8-8-4.887 0-11.113 0-16 0-4.418 0-8 3.582-8 8v16c0 4.418 3.582 8 8 8z"/><path d="m2 24c0 1.591.632 3.117 1.757 4.243 1.126 1.125 2.652 1.757 4.243 1.757h16c1.591 0 3.117-.632 4.243-1.757 1.125-1.126 1.757-2.652 1.757-4.243 0-4.724 0-11.276 0-16 0-1.591-.632-3.117-1.757-4.243-1.126-1.125-2.652-1.757-4.243-1.757-4.724 0-11.276 0-16 0-1.591 0-3.117.632-4.243 1.757-1.125 1.126-1.757 2.652-1.757 4.243z" fill="#fff"/><path d="m14.727 16s-2.228 0-3.905 0c-.365 0-.701-.199-.877-.519s-.163-.71.033-1.018c1.38-2.168 3.875-6.09 5.178-8.137.184-.289.502-.463.844-.463s.66.174.844.463c1.303 2.047 3.798 5.969 5.178 8.137.196.308.209.698.033 1.018s-.512.519-.877.519c-1.677 0-3.905 0-3.905 0s3.113 4.893 4.749 7.463c.196.308.209.698.033 1.018s-.512.519-.877.519c-2.684 0-7.672 0-10.356 0-.365 0-.701-.199-.877-.519s-.163-.71.033-1.018c1.636-2.57 4.749-7.463 4.749-7.463z" fill="#333"/></g></svg>