<svg clip-rule="evenodd" fill-rule="evenodd" stroke-miterlimit="1.5" viewBox="0 0 32 32" xmlns="http://www.w3.org/2000/svg" xmlns:xlink="http://www.w3.org/1999/xlink"><clipPath id="a"><path clip-rule="evenodd" d="m0 0h32v32h-32z"/></clipPath><metadata/><path d="m0 0h32v32h-32z" fill="none"/><g clip-path="url(#a)"><path d="m3 25v-1.292c0-.466.108-.925.317-1.341.945-1.892 3.683-7.367 3.683-7.367" fill="none" stroke="#000" stroke-width="6"/><path d="m8.5 22v4c0 1.105-.895 2-2 2-.489 0-1.011 0-1.5 0-1.105 0-2-.895-2-2 0-1 0-2 0-2" fill="none" stroke="#000" stroke-width="6"/><path d="m12 9v-6.5c0-.133.053-.26.146-.354.094-.093.221-.146.354-.146h15c.133 0 .26.053.354.146.093.094.146.221.146.354v6.5h1c.265 0 .52.105.707.293.188.187.293.442.293.707v19c0 .265-.105.52-.293.707-.187.188-.442.293-.707.293-4.02 0-18.98 0-23 0-.265 0-.52-.105-.707-.293-.188-.187-.293-.442-.293-.707 0-3.541 0-15.459 0-19 0-.265.105-.52.293-.707.187-.188.442-.293.707-.293z" fill="none" stroke="#000" stroke-linecap="square" stroke-linejoin="round" stroke-width="4"/><path d="m28 2.5c0-.133-.053-.26-.146-.354-.094-.093-.221-.146-.354-.146-2.388 0-12.612 0-15 0-.133 0-.26.053-.354.146-.093.094-.146.221-.146.354v13.5h16z" fill="#313131"/><path d="m13 3h14v12h-14z" fill="#fff"/><path d="m26 8v1h-12v-1zm0-2v1h-12v-1zm0-2v1h-12v-1z" fill="#cbcbcb"/><path d="m5 24h25v5c0 .265-.105.52-.293.707-.187.188-.442.293-.707.293-4.02 0-18.98 0-23 0-.265 0-.52-.105-.707-.293-.188-.187-.293-.442-.293-.707 0-1.707 0-5 0-5z" fill="#404040"/><path d="m3 25v-1.292c0-.466.108-.925.317-1.341.945-1.892 3.683-7.367 3.683-7.367" fill="none" stroke="#252525" stroke-linecap="square" stroke-width="2"/><path d="m5 10c0-.552.448-1 1-1h23c.552 0 1 .448 1 1v14c0 .552-.448 1-1 1-4.02 0-18.98 0-23 0-.552 0-1-.448-1-1 0-2.873 0-11.127 0-14z" fill="#595959"/><path d="m28 27c0-.552-.448-1-1-1-2.873 0-11.127 0-14 0-.552 0-1 .448-1 1s.448 1 1 1h14c.552 0 1-.448 1-1z"/><path d="m11 11c0-.552-.448-1-1-1-.871 0-2.129 0-3 0-.552 0-1 .448-1 1v12c0 .552.448 1 1 1h3c.552 0 1-.448 1-1 0-2.577 0-9.423 0-12z" fill="#252525"/><path d="m8.5 22v4c0 1.105-.895 2-2 2-.489 0-1.011 0-1.5 0-1.105 0-2-.895-2-2 0-.551 0-1 0-1" fill="none" stroke="#252525" stroke-linecap="square" stroke-width="2"/><g fill="#252525"><path d="m17 15c0-.552-.448-1-1-1-.611 0-1.389 0-2 0-.552 0-1 .448-1 1s.448 1 1 1h2c.552 0 1-.448 1-1z"/><path d="m17 18c0-.552-.448-1-1-1-.611 0-1.389 0-2 0-.552 0-1 .448-1 1s.448 1 1 1h2c.552 0 1-.448 1-1z"/><path d="m17 21c0-.552-.448-1-1-1-.611 0-1.389 0-2 0-.552 0-1 .448-1 1s.448 1 1 1h2c.552 0 1-.448 1-1z"/><path d="m22 15c0-.552-.448-1-1-1-.611 0-1.389 0-2 0-.552 0-1 .448-1 1s.448 1 1 1h2c.552 0 1-.448 1-1z"/><path d="m22 18c0-.552-.448-1-1-1-.611 0-1.389 0-2 0-.552 0-1 .448-1 1s.448 1 1 1h2c.552 0 1-.448 1-1z"/><path d="m22 21c0-.552-.448-1-1-1-.611 0-1.389 0-2 0-.552 0-1 .448-1 1s.448 1 1 1h2c.552 0 1-.448 1-1z"/><path d="m27 15c0-.552-.448-1-1-1-.611 0-1.389 0-2 0-.552 0-1 .448-1 1s.448 1 1 1h2c.552 0 1-.448 1-1z"/><path d="m27 18c0-.552-.448-1-1-1-.611 0-1.389 0-2 0-.552 0-1 .448-1 1s.448 1 1 1h2c.552 0 1-.448 1-1z"/><path d="m27 21c0-.552-.448-1-1-1-.611 0-1.389 0-2 0-.552 0-1 .448-1 1s.448 1 1 1h2c.552 0 1-.448 1-1z"/></g><path d="m13 10h14v2h-14z" fill="#313131"/></g></svg>