<svg clip-rule="evenodd" fill-rule="evenodd" stroke-linejoin="round" stroke-miterlimit="2" viewBox="0 0 32 32" xmlns="http://www.w3.org/2000/svg"><metadata/><path d="m0 0h32v32h-32z" fill="none"/><path d="m11 7h10v8h-10z"/><path d="m7.5 10.5c0-4.691 3.809-8.5 8.5-8.5s8.5 3.809 8.5 8.5v2c0 4.18-3.023 7.659-7 8.368v.632h3.5v5h-3.5v3.5h-3v-3.5h-3.5v-5h3.5v-.632c-3.977-.709-7-4.188-7-8.368zm13.624 2h-3.624v3.293c1.66-.471 3.002-1.702 3.624-3.293zm-6.624 0h-3.624c.622 1.591 1.964 2.822 3.624 3.293zm6.624-2c-.8-2.048-2.794-3.5-5.124-3.5s-4.324 1.452-5.124 3.5h3.624v-.5h3v.5z" fill="none" stroke="#000" stroke-width="4"/><path d="m7.737 10.5c.9-3.728 4.261-6.5 8.263-6.5s7.363 2.772 8.263 6.5h.237v2c0 4.18-3.023 7.659-7 8.368v2.632h3.5v3h-3.5v3.5h-3v-3.5h-3.5v-3h3.5v-2.632c-3.977-.709-7-4.188-7-8.368v-2zm8.263-3.5c3.036 0 5.5 2.464 5.5 5.5s-2.464 5.5-5.5 5.5-5.5-2.464-5.5-5.5 2.464-5.5 5.5-5.5z" fill="#747474"/><path d="m14.5 18.868c-3.977-.709-7-4.188-7-8.368 0-4.691 3.809-8.5 8.5-8.5s8.5 3.809 8.5 8.5c0 4.18-3.023 7.659-7 8.368v2.632h3.5v3h-3.5v3.5h-3v-3.5h-3.5v-3h3.5zm1.5-13.868c3.036 0 5.5 2.464 5.5 5.5s-2.464 5.5-5.5 5.5-5.5-2.464-5.5-5.5 2.464-5.5 5.5-5.5z" fill="#fff"/></svg>