<svg clip-rule="evenodd" fill-rule="evenodd" stroke-linejoin="round" stroke-miterlimit="1.41421" viewBox="0 0 32 32" xmlns="http://www.w3.org/2000/svg" xmlns:xlink="http://www.w3.org/1999/xlink"><clipPath id="a"><path clip-rule="evenodd" d="m0 0h32v32h-32z"/></clipPath><metadata/><path d="m0 0h32v32h-32z" fill="none"/><g clip-path="url(#a)"><path d="m0 0h32v32h-32z"/><path d="m30 2h-7l-1 1h-12l-1-1h-7v28h7l1-1h12l1 1h7z" fill="#4d4d4d"/><g fill="#939393"><path d="m23 2h-14v5c0 .552.448 1 1 1h12c.552 0 1-.448 1-1 0-1.707 0-5 0-5z"/><path d="m23 30h-14s0-3.293 0-5c0-.552.448-1 1-1h12c.552 0 1 .448 1 1z"/><path d="m23 21c0 .552-.448 1-1 1-2.577 0-9.423 0-12 0-.552 0-1-.448-1-1 0-2.26 0-7.74 0-10 0-.552.448-1 1-1h12c.552 0 1 .448 1 1z"/><path d="m29 9c0 .552-.448 1-1 1-.611 0-1.389 0-2 0-.552 0-1-.448-1-1 0-.322 0-.678 0-1 0-.552.448-1 1-1h2c.552 0 1 .448 1 1z"/><path d="m29 4c0 .552-.448 1-1 1-.611 0-1.389 0-2 0-.552 0-1-.448-1-1 0-.322 0-.678 0-1 0-.552.448-1 1-1h2c.552 0 1 .448 1 1z"/><path d="m29 29c0 .552-.448 1-1 1-.611 0-1.389 0-2 0-.552 0-1-.448-1-1 0-.322 0-.678 0-1 0-.552.448-1 1-1h2c.552 0 1 .448 1 1z"/><path d="m29 14c0 .552-.448 1-1 1-.611 0-1.389 0-2 0-.552 0-1-.448-1-1 0-.322 0-.678 0-1 0-.552.448-1 1-1h2c.552 0 1 .448 1 1z"/><path d="m29 19c0 .552-.448 1-1 1-.611 0-1.389 0-2 0-.552 0-1-.448-1-1 0-.322 0-.678 0-1 0-.552.448-1 1-1h2c.552 0 1 .448 1 1z"/><path d="m29 24c0 .552-.448 1-1 1-.611 0-1.389 0-2 0-.552 0-1-.448-1-1 0-.322 0-.678 0-1 0-.552.448-1 1-1h2c.552 0 1 .448 1 1z"/><path d="m7 9c0 .552-.448 1-1 1-.611 0-1.389 0-2 0-.552 0-1-.448-1-1 0-.322 0-.678 0-1 0-.552.448-1 1-1h2c.552 0 1 .448 1 1z"/><path d="m7 4c0 .552-.448 1-1 1-.611 0-1.389 0-2 0-.552 0-1-.448-1-1 0-.322 0-.678 0-1 0-.552.448-1 1-1h2c.552 0 1 .448 1 1z"/><path d="m7 29c0 .552-.448 1-1 1-.611 0-1.389 0-2 0-.552 0-1-.448-1-1 0-.322 0-.678 0-1 0-.552.448-1 1-1h2c.552 0 1 .448 1 1z"/><path d="m7 14c0 .552-.448 1-1 1-.611 0-1.389 0-2 0-.552 0-1-.448-1-1 0-.322 0-.678 0-1 0-.552.448-1 1-1h2c.552 0 1 .448 1 1z"/><path d="m7 19c0 .552-.448 1-1 1-.611 0-1.389 0-2 0-.552 0-1-.448-1-1 0-.322 0-.678 0-1 0-.552.448-1 1-1h2c.552 0 1 .448 1 1z"/><path d="m7 24c0 .552-.448 1-1 1-.611 0-1.389 0-2 0-.552 0-1-.448-1-1 0-.322 0-.678 0-1 0-.552.448-1 1-1h2c.552 0 1 .448 1 1z"/></g></g></svg>