<svg clip-rule="evenodd" fill-rule="evenodd" stroke-linecap="round" stroke-miterlimit="1.5" viewBox="0 0 32 32" xmlns="http://www.w3.org/2000/svg" xmlns:xlink="http://www.w3.org/1999/xlink"><clipPath id="a"><path clip-rule="evenodd" d="m0 0h32v32h-32z"/></clipPath><clipPath id="b"><path clip-rule="evenodd" d="m16 14-2.409-1h-10.829l-.762 1v13c0 .552.448 1 1 1l.847-1h8.457l.696 1h3v-9z"/></clipPath><metadata/><path d="m0 0h32v32h-32z" fill="none"/><g clip-path="url(#a)"><g fill="none" stroke="#000" stroke-width="4"><path d="m14 12v-1c0-.552.448-1 1-1h12.172c.53 0 1.039.211 1.414.586.261.261.567.567.828.828.375.375.586.884.586 1.414v14.172c0 .552-.448 1-1 1h-2.171c-.412 1.165-1.524 2-2.829 2s-2.417-.835-2.829-2h-6.171-4.171c-.412 1.165-1.524 2-2.829 2s-2.417-.835-2.829-2h-2.171c-.552 0-1-.448-1-1 0-2.873 0-11.127 0-14 0-.552.448-1 1-1z"/><path d="m28 8c0-.552-.448-1-1-1-.611 0-1.389 0-2 0-.552 0-1 .448-1 1s.448 1 1 1h2c.552 0 1-.448 1-1z" stroke-linecap="square" stroke-linejoin="round" stroke-miterlimit="3"/><path d="m23.203 6.686-18.947 4.464-.459-1.947 18.947-4.463z" stroke-linecap="butt" stroke-linejoin="round" stroke-miterlimit="1.41421"/></g><path d="m28 8c0-.552-.448-1-1-1-.611 0-1.389 0-2 0-.552 0-1 .448-1 1s.448 1 1 1h2c.552 0 1-.448 1-1z" fill="#0e43e3"/><path d="m23.203 6.686-18.947 4.464-.459-1.947 18.947-4.463z" fill="#7f7f7f" fill-rule="nonzero"/><path d="m16 14-2.409-1h-10.829l-.762 1v13c0 .552.448 1 1 1l.847-1h8.457l.696 1h3v-9z" fill="#848484"/><g clip-path="url(#b)"><path d="m3 15h10v6h-10z" fill="#4d4d4d"/></g><path d="m16 12h-13c-.552 0-1 .448-1 1v1h14z" fill="#f55959"/><path d="m13 22h-10v6h1l.64-.692 6.604-.014.756.706h1z" fill="#ccc"/><path d="m30 26v1c0 .552-.448 1-1 1h-1l-1.676-.563-4.705-.058-1.619.621s-3.934 0-5 0c-.265 0-.52-.105-.707-.293-.188-.187-.293-.442-.293-.707v-3l1-1 13.568.218.554.303c-.078.142.326 2.479.878 2.479zm-16-4v-10l1-.866 13 .115 1.82.751c.118.258.18.54.18.828v9.172l-1 .733-14 .053z" fill="#f11717"/><path d="m14 12v-1c0-.552.448-1 1-1h12.172c.53 0 1.039.211 1.414.586.261.261.567.567.828.828.171.171.308.37.406.586z" fill="#f55959"/><path d="m30 23-1 1h-15v-2h16z" fill="#fff"/><path d="m30 23h-.001c-.552 0-.999.447-.999.999v1.001c0 .552.448 1 1 1z" fill="#2c2c2c"/><path d="m17 25h2v1h-2z" fill="#a60a0a"/><path d="m31 13h-1c-.265 0-.52.105-.707.293-.188.187-.293.442-.293.707v4c0 .265.105.52.293.707.187.188.442.293.707.293h1z"/><path d="m28 14c0-.265-.105-.52-.293-.707-.187-.188-.442-.293-.707-.293-.871 0-2.129 0-3 0-.265 0-.52.105-.707.293-.188.187-.293.442-.293.707v4c0 .265.105.52.293.707.187.188.442.293.707.293h3c.265 0 .52-.105.707-.293.188-.187.293-.442.293-.707 0-1.11 0-2.89 0-4z"/><path d="m21 14c0-.552-.448-1-1-1-.322 0-.678 0-1 0-.552 0-1 .448-1 1v4c0 .552.448 1 1 1h1c.552 0 1-.448 1-1 0-1.11 0-2.89 0-4z"/><path d="m12 26.812c0-1.011-.402-1.981-1.117-2.695-.715-.715-1.684-1.117-2.695-1.117-.125 0-.251 0-.376 0-1.011 0-1.98.402-2.695 1.117-.715.714-1.117 1.684-1.117 2.695v1.188h8z" fill="#333"/><circle cx="8" cy="27" fill="#5a5a5a" r="3"/><circle cx="8" cy="27" fill="#bfbfbf" r="1.5"/><path d="m28 26.812c0-1.011-.402-1.981-1.117-2.695-.715-.715-1.684-1.117-2.695-1.117-.125 0-.251 0-.376 0-1.011 0-1.98.402-2.695 1.117-.715.714-1.117 1.684-1.117 2.695v1.188h8z" fill="#333"/><circle cx="24" cy="27" fill="#5a5a5a" r="3"/><circle cx="24" cy="27" fill="#bfbfbf" r="1.5"/></g></svg>