<svg clip-rule="evenodd" fill-rule="evenodd" stroke-linejoin="round" stroke-miterlimit="1.41421" viewBox="0 0 32 32" xmlns="http://www.w3.org/2000/svg" xmlns:xlink="http://www.w3.org/1999/xlink"><clipPath id="a"><path clip-rule="evenodd" d="m0 0h32v32h-32z"/></clipPath><clipPath id="b"><path clip-rule="evenodd" d="m19 9c0-2.761-2.239-5-5-5l-2-1-2 1c-2.761 0-5 2.239-5 5v2l-1 1v1h16v-1l-1-1s0-.872 0-2z"/></clipPath><clipPath id="c"><path clip-rule="evenodd" d="m20 19c0-1.657 1.343-3 3-3h6v6l-6-2v-1z"/></clipPath><metadata/><path d="m0 0h32v32h-32z" fill="none"/><g clip-path="url(#a)"><path d="m4 15h-2v-3.828l1-1c0-.449-.006-.902.002-1.352.026-.817.181-1.632.486-2.393.189-.471.424-.921.708-1.342.692-1.024 1.655-1.857 2.768-2.394.543-.262 1.121-.452 1.713-.566.26-.05.523-.083.787-.105l.027-.002 2.509-1.254c.836.418 1.673.836 2.509 1.254.098.007.195.017.292.028.117.014.233.03.349.048.822.142 1.612.418 2.336.834.826.475 1.552 1.12 2.122 1.882.441.59.788 1.248 1.024 1.945.244.722.363 1.478.368 2.239v1.178l1 1v2.928c.162-.033.326-.058.491-.074.165-.017.331-.024.496-.026h8.013v10.775l-4-1.333v8.558h-25c0-.725-.011-1.45.002-2.175.023-.746.156-1.483.408-2.186.523-1.463 1.537-2.728 2.849-3.557.433-.273.897-.499 1.379-.672.134-.048.269-.092.405-.131-.504-.398-.96-.856-1.354-1.363-.461-.592-.838-1.248-1.117-1.945-.254-.636-.427-1.305-.511-1.985-.037-.294-.055-.59-.06-.887-.005-.7-.005-1.399-.001-2.099zm17 6h-2.072c-.399.69-.901 1.321-1.485 1.863-.156.145-.318.283-.485.415.316.092.624.206.924.341.564.255 1.094.586 1.572.98.614.507 1.137 1.118 1.546 1.797z"/><path d="m15.854 25.073c2.355.405 4.146 2.457 4.146 4.927h-16c0-2.47 1.791-4.522 4.146-4.927.469 1.687 7.239 1.687 7.708 0z" fill="#d57629"/><path d="m8.146 25.073c.277-.048.563-.073.854-.073h6c.291 0 .577.025.854.073-.469 1.687-2.018 2.927-3.854 2.927s-3.385-1.24-3.854-2.927z" fill="#333"/><path d="m18 15v2c0 1.591-.632 3.117-1.757 4.243-1.126 1.125-2.652 1.757-4.243 1.757-1.591 0-3.117-.632-4.243-1.757-1.125-1.126-1.757-2.652-1.757-4.243 0-.663 0-1.337 0-2l6-3z" fill="#ed9298"/><path d="m17.196 12c.522.904.804 1.938.804 3h-12c0-1.062.282-2.096.804-3z" fill="#902f41"/><path d="m16 15c0-.552-.448-1-1-1s-1 .448-1 1v1c0 .552.448 1 1 1s1-.448 1-1c0-.322 0-.678 0-1zm-6 0c0-.552-.448-1-1-1s-1 .448-1 1v1c0 .552.448 1 1 1s1-.448 1-1c0-.322 0-.678 0-1z"/><path d="m19 9c0-2.761-2.239-5-5-5l-2-1-2 1c-2.761 0-5 2.239-5 5v2l-1 1v1h16v-1l-1-1s0-.872 0-2z" fill="#ffcf22"/><g clip-path="url(#b)"><path d="m9 3v6c0 .265-.105.52-.293.707-.187.188-.442.293-.707.293s-.52-.105-.707-.293c-.188-.187-.293-.442-.293-.707v-6zm8 0v6c0 .265-.105.52-.293.707-.187.188-.442.293-.707.293s-.52-.105-.707-.293c-.188-.187-.293-.442-.293-.707v-6z" fill="#c80"/><path d="m14 10.414c0-.265-.105-.519-.293-.707-.262-.262-.656-.656-1-1-.39-.39-1.024-.39-1.414 0-.344.344-.738.738-1 1-.188.188-.293.442-.293.707v.586c0 .552.448 1 1 1h2c.552 0 1-.448 1-1 0-.207 0-.414 0-.586z" fill="#323232"/></g><path d="m23 19h2v11h-2z" fill="#cbb72e"/><path d="m20 19c0-1.657 1.343-3 3-3h6v6l-6-2v-1z" fill="#6b6b6b"/><g clip-path="url(#c)"><path d="m27 15h3v8h-3z" fill="#939393"/></g></g></svg>