<svg clip-rule="evenodd" fill-rule="evenodd" stroke-linecap="round" stroke-linejoin="round" stroke-miterlimit="1.5" viewBox="0 0 32 32" xmlns="http://www.w3.org/2000/svg" xmlns:xlink="http://www.w3.org/1999/xlink"><clipPath id="a"><path clip-rule="evenodd" d="m0 0h32v32h-32z"/></clipPath><metadata/><path d="m0 0h32v32h-32z" fill="none"/><g clip-path="url(#a)"><g fill="none" stroke="#000"><path d="m20 7-10 20 6 3 10-20z" stroke-width="4"/><path d="m22 10s.528-1.056 1.099-2.198c.774-1.547.146-3.429-1.401-4.203-.016-.008-.031-.016-.047-.023-1.487-.744-3.297-.196-4.122 1.247-.222.39-.449.786-.663 1.162-.712 1.246-2.038 2.015-3.473 2.015-2.272 0-5.393 0-5.393 0" stroke-width="6"/><path d="m5 6v-4l3 3 3-3v4l3 2-3 2v4l-3-3-3 3v-4l-3-2z" stroke-width="4"/></g><path d="m5 6v-4l3 3 3-3v4l3 2-3 2v4l-3-3-3 3v-4l-3-2z" fill="#ffa32b"/><path d="m6 7v-3l2 2 2-2v3l2 1-2 1v3l-2-2-2 2v-3l-2-1z" fill="#ffe2be"/><path d="m22 10s.528-1.056 1.099-2.198c.774-1.547.146-3.429-1.401-4.203-.016-.008-.031-.016-.047-.023-1.487-.744-3.297-.196-4.122 1.247-.222.39-.449.786-.663 1.162-.712 1.246-2.038 2.015-3.473 2.015-2.272 0-5.393 0-5.393 0" fill="none" stroke="#c0c0c0" stroke-width="2"/><path d="m20 7-10 20 6 3 10-20z" fill="#d72d35"/></g></svg>