<svg clip-rule="evenodd" fill-rule="evenodd" stroke-linejoin="round" stroke-miterlimit="2" viewBox="0 0 32 32" xmlns="http://www.w3.org/2000/svg" xmlns:xlink="http://www.w3.org/1999/xlink"><clipPath id="a"><path clip-rule="evenodd" d="m0 0h32v32h-32z"/></clipPath><clipPath id="b"><path clip-rule="evenodd" d="m2 2h28v28h-28z"/></clipPath><clipPath id="c"><path clip-rule="evenodd" d="m20.097 17.858c1.228.737 2.152 1.889 2.605 3.248.353 1.059.761 2.283 1.024 3.071.157.472-.057.988-.502 1.211-.063.032-.128.064-.193.096-.259.13-.562.141-.83.03-.267-.111-.474-.333-.566-.608-.345-1.037-.864-2.594-1.224-3.674-.272-.816-.674-1.583-1.19-2.271-.889-1.185-2.221-2.961-2.221-2.961s1.683 1.01 3.097 1.858zm-8.194 0c-1.228.737-2.152 1.889-2.605 3.248-.353 1.059-.761 2.283-1.024 3.071-.157.472.057.988.502 1.211.063.032.128.064.193.096.259.13.562.141.83.03.267-.111.474-.333.566-.608.345-1.037.864-2.594 1.224-3.674.272-.816.674-1.583 1.19-2.271.889-1.185 2.221-2.961 2.221-2.961s-1.683 1.01-3.097 1.858zm14.221-1.296c.58.29 1.11.672 1.569 1.131l.307.307c.552.552.552 1.448 0 2-.552.552-1.448.552-2 0-.177-.177-.355-.355-.51-.51-.326-.326-.683-.619-1.067-.874-.608-.406-1.548-1.033-2.06-1.374-.242-.161-.493-.307-.753-.437-1.006-.503-3.61-1.805-3.61-1.805h3.348c1.086 0 2.158.253 3.13.739.553.277 1.164.582 1.646.823zm-20.248 0c-.58.29-1.11.672-1.569 1.131-.099.099-.203.203-.307.307-.552.552-.552 1.448 0 2 .552.552 1.448.552 2 0l.51-.51c.326-.326.683-.619 1.067-.874.608-.406 1.548-1.033 2.06-1.374.242-.161.493-.307.753-.437 1.006-.503 3.61-1.805 3.61-1.805h-3.348c-1.086 0-2.158.253-3.13.739-.553.277-1.164.582-1.646.823zm16.646-4.823c.972-.486 2.044-.739 3.13-.739h2.348c.265 0 .52.105.707.293.188.187.293.442.293.707s-.105.52-.293.707c-.187.188-.442.293-.707.293-1.06 0-2.69 0-3.503 0-.331 0-.661.027-.987.082-1.432.238-5.51.918-5.51.918s2.745-1.373 4.522-2.261zm-13.044 0c-.972-.486-2.044-.739-3.13-.739h-2.348c-.265 0-.52.105-.707.293-.188.187-.293.442-.293.707s.105.52.293.707c.187.188.442.293.707.293h3.503c.331 0 .661.027.987.082 1.432.238 5.51.918 5.51.918s-2.745-1.373-4.522-2.261zm14.515-5.732c.267-.267.629-.417 1.007-.417s.74.15 1.007.417c0 0 .001.001.002.002.249.249.378.594.353.946-.025.351-.202.675-.484.886-.96.721-2.259 1.695-2.713 2.035-.11.083-.224.159-.342.23-.889.533-4.823 2.894-4.823 2.894s2.892-3.615 3.758-4.697c.161-.202.334-.395.516-.577.387-.387 1.113-1.113 1.719-1.719zm-15.986 0c-.267-.267-.629-.417-1.007-.417s-.74.15-1.007.417c0 0-.001.001-.002.002-.249.249-.378.594-.353.946.025.351.202.675.484.886.96.721 2.259 1.695 2.713 2.035.11.083.224.159.342.23.889.533 4.823 2.894 4.823 2.894s-2.892-3.615-3.758-4.697c-.161-.202-.334-.395-.516-.577-.387-.387-1.113-1.113-1.719-1.719zm6.303-1.456c-.078-.393-.322-.733-.668-.934s-.762-.244-1.142-.117h-.001c-.389.13-.708.415-.88.787-.173.372-.185.799-.032 1.18.395.987.894 2.235 1.181 2.953.154.386.348.754.579 1.1.572.859 1.653 2.48 1.653 2.48v-3.208c0-.527-.052-1.052-.155-1.569-.143-.711-.357-1.785-.535-2.672zm3.38 0c.078-.393.322-.733.668-.934s.762-.244 1.142-.117h.001c.389.13.708.415.88.787.173.372.185.799.032 1.18-.395.987-.894 2.235-1.181 2.953-.154.386-.348.754-.579 1.1-.572.859-1.653 2.48-1.653 2.48v-3.208c0-.527.052-1.052.155-1.569.143-.711.357-1.785.535-2.672z"/></clipPath><metadata/><path d="m0 0h32v32h-32z" fill="none"/><g clip-path="url(#a)"><path d="m32 2c0-.53-.211-1.039-.586-1.414s-.884-.586-1.414-.586h-28c-.53 0-1.039.211-1.414.586s-.586.884-.586 1.414v28c0 .53.211 1.039.586 1.414s.884.586 1.414.586h28c.53 0 1.039-.211 1.414-.586s.586-.884.586-1.414z"/><path d="m2 2h28v28h-28z" fill="#282480"/><g clip-path="url(#b)"><g fill="#b73bff"><path d="m17 19c0-.552-.448-1-1-1s-1 .448-1 1v12c0 .552.448 1 1 1s1-.448 1-1c0-2.577 0-9.423 0-12z"/><path d="m7.5 26.5c0-.133-.053-.26-.146-.354-.094-.093-.221-.146-.354-.146s-.26.053-.354.146c-.093.094-.146.221-.146.354v2c0 .133.053.26.146.354.094.093.221.146.354.146s.26-.053.354-.146c.093-.094.146-.221.146-.354 0-.555 0-1.445 0-2z"/><path d="m8 28c.133 0 .26-.053.354-.146.093-.094.146-.221.146-.354s-.053-.26-.146-.354c-.094-.093-.221-.146-.354-.146-.555 0-1.445 0-2 0-.133 0-.26.053-.354.146-.093.094-.146.221-.146.354s.053.26.146.354c.094.093.221.146.354.146z"/><path d="m24.5 3.5c0-.133-.053-.26-.146-.354-.094-.093-.221-.146-.354-.146s-.26.053-.354.146c-.093.094-.146.221-.146.354v2c0 .133.053.26.146.354.094.093.221.146.354.146s.26-.053.354-.146c.093-.094.146-.221.146-.354 0-.555 0-1.445 0-2z"/><path d="m25 5c.133 0 .26-.053.354-.146.093-.094.146-.221.146-.354s-.053-.26-.146-.354c-.094-.093-.221-.146-.354-.146-.555 0-1.445 0-2 0-.133 0-.26.053-.354.146-.093.094-.146.221-.146.354s.053.26.146.354c.094.093.221.146.354.146z"/></g><path d="m27.5 22.5c0-.133-.053-.26-.146-.354-.094-.093-.221-.146-.354-.146s-.26.053-.354.146c-.093.094-.146.221-.146.354v2c0 .133.053.26.146.354.094.093.221.146.354.146s.26-.053.354-.146c.093-.094.146-.221.146-.354 0-.555 0-1.445 0-2z" fill="#e9c6ff"/><path d="m28 24c.133 0 .26-.053.354-.146.093-.094.146-.221.146-.354s-.053-.26-.146-.354c-.094-.093-.221-.146-.354-.146-.555 0-1.445 0-2 0-.133 0-.26.053-.354.146-.093.094-.146.221-.146.354s.053.26.146.354c.094.093.221.146.354.146z" fill="#e9c6ff"/><path d="m5.5 3.5c0-.133-.053-.26-.146-.354-.094-.093-.221-.146-.354-.146s-.26.053-.354.146c-.093.094-.146.221-.146.354v2c0 .133.053.26.146.354.094.093.221.146.354.146s.26-.053.354-.146c.093-.094.146-.221.146-.354 0-.555 0-1.445 0-2z" fill="#e9c6ff"/><path d="m6 5c.133 0 .26-.053.354-.146.093-.094.146-.221.146-.354s-.053-.26-.146-.354c-.094-.093-.221-.146-.354-.146-.555 0-1.445 0-2 0-.133 0-.26.053-.354.146-.093.094-.146.221-.146.354s.053.26.146.354c.094.093.221.146.354.146z" fill="#e9c6ff"/></g><path d="m20.097 17.858c1.228.737 2.152 1.889 2.605 3.248.353 1.059.761 2.283 1.024 3.071.157.472-.057.988-.502 1.211-.063.032-.128.064-.193.096-.259.13-.562.141-.83.03-.267-.111-.474-.333-.566-.608-.345-1.037-.864-2.594-1.224-3.674-.272-.816-.674-1.583-1.19-2.271-.889-1.185-2.221-2.961-2.221-2.961s1.683 1.01 3.097 1.858zm-8.194 0c-1.228.737-2.152 1.889-2.605 3.248-.353 1.059-.761 2.283-1.024 3.071-.157.472.057.988.502 1.211.063.032.128.064.193.096.259.13.562.141.83.03.267-.111.474-.333.566-.608.345-1.037.864-2.594 1.224-3.674.272-.816.674-1.583 1.19-2.271.889-1.185 2.221-2.961 2.221-2.961s-1.683 1.01-3.097 1.858zm14.221-1.296c.58.29 1.11.672 1.569 1.131l.307.307c.552.552.552 1.448 0 2-.552.552-1.448.552-2 0-.177-.177-.355-.355-.51-.51-.326-.326-.683-.619-1.067-.874-.608-.406-1.548-1.033-2.06-1.374-.242-.161-.493-.307-.753-.437-1.006-.503-3.61-1.805-3.61-1.805h3.348c1.086 0 2.158.253 3.13.739.553.277 1.164.582 1.646.823zm-20.248 0c-.58.29-1.11.672-1.569 1.131-.099.099-.203.203-.307.307-.552.552-.552 1.448 0 2 .552.552 1.448.552 2 0l.51-.51c.326-.326.683-.619 1.067-.874.608-.406 1.548-1.033 2.06-1.374.242-.161.493-.307.753-.437 1.006-.503 3.61-1.805 3.61-1.805h-3.348c-1.086 0-2.158.253-3.13.739-.553.277-1.164.582-1.646.823zm16.646-4.823c.972-.486 2.044-.739 3.13-.739h2.348c.265 0 .52.105.707.293.188.187.293.442.293.707s-.105.52-.293.707c-.187.188-.442.293-.707.293-1.06 0-2.69 0-3.503 0-.331 0-.661.027-.987.082-1.432.238-5.51.918-5.51.918s2.745-1.373 4.522-2.261zm-13.044 0c-.972-.486-2.044-.739-3.13-.739h-2.348c-.265 0-.52.105-.707.293-.188.187-.293.442-.293.707s.105.52.293.707c.187.188.442.293.707.293h3.503c.331 0 .661.027.987.082 1.432.238 5.51.918 5.51.918s-2.745-1.373-4.522-2.261zm14.515-5.732c.267-.267.629-.417 1.007-.417s.74.15 1.007.417c0 0 .001.001.002.002.249.249.378.594.353.946-.025.351-.202.675-.484.886-.96.721-2.259 1.695-2.713 2.035-.11.083-.224.159-.342.23-.889.533-4.823 2.894-4.823 2.894s2.892-3.615 3.758-4.697c.161-.202.334-.395.516-.577.387-.387 1.113-1.113 1.719-1.719zm-15.986 0c-.267-.267-.629-.417-1.007-.417s-.74.15-1.007.417c0 0-.001.001-.002.002-.249.249-.378.594-.353.946.025.351.202.675.484.886.96.721 2.259 1.695 2.713 2.035.11.083.224.159.342.23.889.533 4.823 2.894 4.823 2.894s-2.892-3.615-3.758-4.697c-.161-.202-.334-.395-.516-.577-.387-.387-1.113-1.113-1.719-1.719zm6.303-1.456c-.078-.393-.322-.733-.668-.934s-.762-.244-1.142-.117h-.001c-.389.13-.708.415-.88.787-.173.372-.185.799-.032 1.18.395.987.894 2.235 1.181 2.953.154.386.348.754.579 1.1.572.859 1.653 2.48 1.653 2.48v-3.208c0-.527-.052-1.052-.155-1.569-.143-.711-.357-1.785-.535-2.672zm3.38 0c.078-.393.322-.733.668-.934s.762-.244 1.142-.117h.001c.389.13.708.415.88.787.173.372.185.799.032 1.18-.395.987-.894 2.235-1.181 2.953-.154.386-.348.754-.579 1.1-.572.859-1.653 2.48-1.653 2.48v-3.208c0-.527.052-1.052.155-1.569.143-.711.357-1.785.535-2.672z" fill="#c869ff"/><g clip-path="url(#c)"><circle cx="16" cy="14" fill="#f0c8ff" r="9"/></g><path d="m17 14c0-.552-.448-1-1-1s-1 .448-1 1 .448 1 1 1 1-.448 1-1z" fill="#b73bff"/></g></svg>