<svg clip-rule="evenodd" fill-rule="evenodd" stroke-linecap="round" stroke-linejoin="round" stroke-miterlimit="1.5" viewBox="0 0 32 32" xmlns="http://www.w3.org/2000/svg" xmlns:xlink="http://www.w3.org/1999/xlink"><clipPath id="a"><path clip-rule="evenodd" d="m0 0h32v32h-32z"/></clipPath><clipPath id="b"><path clip-rule="evenodd" d="m15 2c-7.18 0-13 5.82-13 13v2l5-2 5-2h8l10 4v-2c0-7.18-5.82-13-13-13-.666 0-1.334 0-2 0z"/></clipPath><clipPath id="c"><path clip-rule="evenodd" d="m23 20 3 2s-.994.994-1.58 1.58c-.111.111-.174.262-.174.42s.063.309.174.42c.586.586 1.58 1.58 1.58 1.58s-.994.994-1.58 1.58c-.111.111-.174.262-.174.42s.063.309.174.42c.586.586 1.58 1.58 1.58 1.58h-3l-1-2v-8z"/></clipPath><clipPath id="d"><path clip-rule="evenodd" d="m9 20-3 2s.994.994 1.58 1.58c.111.111.174.262.174.42s-.063.309-.174.42c-.586.586-1.58 1.58-1.58 1.58s.994.994 1.58 1.58c.111.111.174.262.174.42s-.063.309-.174.42c-.586.586-1.58 1.58-1.58 1.58h3l1-2v-8z"/></clipPath><metadata/><path d="m0 0h32v32h-32z" fill="none"/><g clip-path="url(#a)"><path d="m6 12c0-5.523 4.477-10 10-10h.04c5.523 0 10 4.477 10 10v2.145c0 1.903-.453 3.778-1.32 5.472-.677 1.321-1.517 2.959-2.273 4.436-1.242 2.423-3.735 3.947-6.458 3.947 0 0 0 0-.001 0-2.751 0-5.267-1.552-6.501-4.011-.739-1.474-1.556-3.1-2.212-4.409-.839-1.67-1.275-3.513-1.275-5.382 0-.665 0-1.411 0-2.198z" fill="none" stroke="#000" stroke-width="4"/><path d="m15 2c-7.18 0-13 5.82-13 13v2l5-2 5-2h8l10 4v-2c0-7.18-5.82-13-13-13-.666 0-1.334 0-2 0z" fill="#30c99e"/><g style="clip-path:url(#b);fill:none;stroke:#219781;stroke-width:4;stroke-linecap:butt;stroke-linejoin:miter;stroke-miterlimit:3"><path d="m23 15s-2.386-4.771-3.472-6.944c-.347-.695-.528-1.46-.528-2.236 0-1.996 0-5.82 0-5.82"/><path d="m9 15s2.386-4.771 3.472-6.944c.347-.695.528-1.46.528-2.236 0-1.996 0-5.82 0-5.82"/></g><path d="m17.193.001.193.004.192.006.192.008.191.011.191.014.19.015.189.018.189.021.188.022.187.025.187.028.186.029.185.032.184.034.184.037.183.038.182.041.181.043.18.045.18.048.178.049.178.052.177.054.176.056.175.058.173.06.174.062.171.064.171.066.17.068.169.071.168.072.167.074.166.076.164.078.164.08.162.082.161.084.16.086.159.087.158.09.156.091.156.093.153.095.153.096.152.099.15.1.149.102.148.104.146.105.145.107.144.109.142.11.141.112.139.114.138.115.137.117.135.119.134.12.132.122.131.123.13.125.128.126.126.128.125.13.123.131.122.132.12.134.119.135.117.137.115.138.114.139.112.141.11.142.109.144.107.145.105.146.104.148.102.149.1.15.099.152.096.153.095.153.093.156.092.156.089.158.087.159.086.16.084.161.082.162.08.164.078.164.076.166.074.167.072.168.071.169.068.17.066.171.064.171.062.173.06.174.058.175.056.176.054.177.052.178.049.178.048.18.045.18.043.181.041.182.038.183.037.184.034.184.032.185.029.186.028.187.025.187.022.188.021.189.018.189.015.19.014.191.011.191.008.191.006.193.004.193.001.187v4.275l-.636.431-7.107-2.843-4.642-1.857h-7.23l-4.642 1.857-7.107 2.843-.636-.431v-4.275l.001-.187.004-.193.006-.193.008-.191.011-.191.014-.191.015-.19.018-.189.021-.189.022-.188.025-.187.028-.187.029-.186.032-.185.034-.184.037-.184.038-.183.041-.182.043-.181.045-.18.048-.18.049-.178.052-.178.054-.177.056-.176.058-.175.06-.174.062-.172.064-.173.066-.171.068-.169.071-.169.072-.168.074-.167.076-.165.078-.165.08-.164.082-.162.084-.161.085-.16.088-.159.09-.158.091-.156.093-.155.095-.155.096-.152.099-.152.1-.15.102-.149.104-.148.105-.146.107-.145.109-.143.11-.143.112-.141.114-.139.115-.138.117-.137.119-.135.12-.134.122-.132.123-.131.125-.13.126-.128.128-.126.13-.125.131-.123.132-.122.134-.12.135-.119.137-.117.138-.115.139-.114.141-.112.142-.11.144-.109.145-.107.146-.105.148-.104.149-.102.15-.1.152-.099.152-.096.155-.095.155-.093.156-.091.158-.09.159-.087.16-.086.161-.084.162-.082.164-.08.164-.078.166-.076.167-.074.168-.072.169-.071.17-.068.171-.066.171-.064.173-.062.174-.06.175-.058.176-.056.177-.054.178-.052.178-.049.18-.048.18-.045.181-.043.182-.041.183-.038.184-.037.184-.034.185-.032.186-.029.187-.028.187-.025.188-.022.189-.021.189-.018.19-.015.191-.014.191-.011.192-.008.192-.006.193-.004.187-.001h2.012l.187.001zm-2.193 1.999-.168.001-.168.003-.167.006-.166.007-.166.009-.165.012-.165.013-.164.016-.164.018-.163.019-.162.022-.162.024-.161.025-.16.028-.16.03-.159.031-.158.034-.158.035-.157.037-.156.039-.155.041-.155.043-.154.045-.153.046-.152.049-.151.05-.151.052-.15.054-.149.055-.148.058-.147.059-.146.061-.146.062-.144.064-.143.066-.143.068-.142.069-.14.071-.14.073-.139.074-.137.076-.137.077-.135.079-.135.081-.133.082-.133.084-.131.085-.13.087-.13.089-.128.089-.126.092-.126.093-.125.094-.123.096-.122.097-.121.099-.12.1-.119.101-.117.103-.116.104-.115.106-.113.107-.112.108-.111.11-.11.111-.108.112-.107.113-.106.115-.104.116-.103.117-.101.119-.1.12-.099.121-.097.122-.096.123-.094.125-.093.126-.092.126-.089.128-.089.13-.087.13-.085.131-.084.133-.082.133-.081.135-.079.135-.077.137-.076.137-.074.139-.073.14-.071.14-.069.142-.068.143-.066.143-.064.144-.062.146-.061.146-.059.147-.058.148-.055.149-.054.15-.052.151-.05.151-.049.152-.046.153-.045.154-.043.155-.041.155-.039.156-.037.157-.035.158-.034.158-.031.159-.03.16-.028.16-.025.161-.024.162-.022.162-.019.163-.018.164-.016.164-.013.165-.012.165-.009.166-.007.166-.006.167-.003.168-.001.168v2l10-4h8l10 4v-2l-.001-.168-.003-.168-.006-.167-.007-.166-.009-.166-.012-.165-.013-.165-.016-.164-.018-.164-.019-.163-.022-.162-.024-.162-.025-.161-.028-.16-.03-.16-.031-.159-.034-.158-.035-.158-.037-.157-.039-.156-.041-.155-.043-.155-.045-.154-.046-.153-.049-.152-.05-.151-.052-.151-.054-.15-.055-.149-.058-.148-.059-.147-.061-.146-.062-.146-.064-.144-.066-.143-.068-.143-.069-.142-.071-.14-.073-.14-.074-.139-.076-.137-.077-.137-.079-.135-.081-.135-.082-.133-.084-.133-.085-.131-.087-.13-.089-.13-.089-.128-.092-.126-.093-.126-.094-.125-.096-.123-.097-.122-.099-.121-.1-.12-.101-.119-.103-.117-.104-.116-.106-.115-.107-.113-.108-.112-.11-.111-.111-.11-.112-.108-.113-.107-.115-.106-.116-.104-.117-.103-.119-.101-.12-.1-.121-.099-.122-.097-.123-.096-.125-.094-.126-.093-.126-.092-.128-.089-.13-.089-.13-.087-.131-.085-.133-.084-.133-.082-.135-.081-.135-.079-.137-.077-.137-.076-.139-.074-.14-.073-.14-.071-.142-.069-.143-.068-.143-.066-.144-.064-.146-.062-.146-.061-.147-.059-.148-.058-.149-.055-.15-.054-.151-.052-.151-.05-.152-.049-.153-.046-.154-.045-.155-.043-.155-.041-.156-.039-.157-.037-.158-.035-.158-.034-.159-.031-.16-.03-.16-.028-.161-.025-.162-.024-.162-.022-.163-.019-.164-.018-.164-.016-.165-.013-.165-.012-.166-.009-.166-.007-.167-.006-.168-.003-.168-.001h-2z"/><g fill="none" stroke="#000" stroke-linecap="butt" stroke-miterlimit="3" stroke-width="4"><path d="m8 21v7l-1 2h18l-1-2v-7z" stroke-linejoin="miter"/><path d="m23 20 3 2s-.994.994-1.58 1.58c-.111.111-.174.262-.174.42s.063.309.174.42c.586.586 1.58 1.58 1.58 1.58s-.994.994-1.58 1.58c-.111.111-.174.262-.174.42s.063.309.174.42c.586.586 1.58 1.58 1.58 1.58h-3l-1-2v-8z"/><path d="m9 20-3 2s.994.994 1.58 1.58c.111.111.174.262.174.42s-.063.309-.174.42c-.586.586-1.58 1.58-1.58 1.58s.994.994 1.58 1.58c.111.111.174.262.174.42s-.063.309-.174.42c-.586.586-1.58 1.58-1.58 1.58h3l1-2v-8z"/></g><path d="m8 21v7l-1 2h18l-1-2v-7z" fill="#219781"/><path d="m23 20 3 2s-.994.994-1.58 1.58c-.111.111-.174.262-.174.42s.063.309.174.42c.586.586 1.58 1.58 1.58 1.58s-.994.994-1.58 1.58c-.111.111-.174.262-.174.42s.063.309.174.42c.586.586 1.58 1.58 1.58 1.58h-3l-1-2v-8z" fill="#a94451"/><g style="clip-path:url(#c);fill:none;stroke:#9c2028;stroke-linecap:butt;stroke-linejoin:miter;stroke-miterlimit:3"><path d="m26 25-4-4"/><path d="m26 29-5-5"/></g><path d="m9 20-3 2s.994.994 1.58 1.58c.111.111.174.262.174.42s-.063.309-.174.42c-.586.586-1.58 1.58-1.58 1.58s.994.994 1.58 1.58c.111.111.174.262.174.42s-.063.309-.174.42c-.586.586-1.58 1.58-1.58 1.58h3l1-2v-8z" fill="#a94451"/><g style="clip-path:url(#d);fill:none;stroke:#9c2028;stroke-linecap:butt;stroke-linejoin:miter;stroke-miterlimit:3"><path d="m6 25 4-4"/><path d="m6 29 5-5"/></g><path d="m6 14c0-2.209 1.791-4 4-4h12.04c2.209 0 4 1.791 4 4v.145c0 1.903-.453 3.778-1.32 5.472-.677 1.321-1.517 2.959-2.273 4.436-1.242 2.423-3.735 3.947-6.458 3.947 0 0 0 0-.001 0-2.751 0-5.267-1.552-6.501-4.011-.739-1.474-1.556-3.1-2.212-4.409-.839-1.67-1.275-3.513-1.275-5.382 0-.066 0-.132 0-.198z" fill="#30c99e"/><path d="m12 22c2.371 1.778 5.629 1.778 8 0" fill="none" stroke="#219781" stroke-linejoin="miter" stroke-width="2"/><path d="m19 12.878c0-1.037.841-1.878 1.878-1.878h.002c.717 0 1.405.285 1.912.792.165.165.339.339.501.501.39.39.39 1.024 0 1.414-.162.162-.336.336-.501.501-.507.507-1.195.792-1.912.792-.001 0-.001 0-.002 0-1.037 0-1.878-.841-1.878-1.878 0-.081 0-.163 0-.244z"/><path d="m13 12.878c0-1.037-.841-1.878-1.878-1.878-.001 0-.001 0-.002 0-.717 0-1.405.285-1.912.792-.165.165-.339.339-.501.501-.39.39-.39 1.024 0 1.414l.501.501c.507.507 1.195.792 1.912.792h.002c1.037 0 1.878-.841 1.878-1.878 0-.081 0-.163 0-.244z"/><path d="m14 19s.428-.855.724-1.447c.169-.339.515-.553.894-.553h.764c.379 0 .725.214.894.553.296.592.724 1.447.724 1.447z" fill="#219781"/></g></svg>