<svg clip-rule="evenodd" fill-rule="evenodd" stroke-linejoin="round" stroke-miterlimit="2" viewBox="0 0 32 32" xmlns="http://www.w3.org/2000/svg"><metadata/><path d="m0 0h32v32h-32z" fill="none"/><path d="m8.401 3.253c.222-.458.532-.872.908-1.214.406-.369.888-.653 1.407-.829.41-.138.837-.204 1.269-.21.038 0 .076.001.114.001.46.017.911.101 1.341.267.382.148.741.354 1.06.61.32-.256.678-.462 1.06-.61.43-.166.881-.25 1.341-.267.099-.001.099-.001.198 0 .46.017.911.101 1.341.267.382.148.741.354 1.06.61.32-.256.678-.462 1.06-.61.43-.166.881-.25 1.341-.267.099-.001.099-.001.198 0 .46.017.911.101 1.341.267.489.189.939.474 1.318.835.451.429.798.963 1.008 1.549.154.43.228.88.234 1.335v2.194.001 4.376c.114.038.228.076.341.115.075.028.149.056.223.087.432.188.83.442 1.174.765.583.548.994 1.269 1.167 2.05.058.259.087.522.094.787.013 1.264.008 2.528 0 3.792-.009.459-.037.917-.095 1.372-.113.887-.325 1.761-.633 2.6-.499 1.363-1.248 2.631-2.198 3.728-1.039 1.2-2.317 2.191-3.739 2.898-1.013.503-2.098.862-3.212 1.061-.996.178-2.01.223-3.019.159-1.05-.067-2.092-.252-3.1-.551-1.252-.373-2.451-.923-3.55-1.628-1.321-.846-2.497-1.915-3.466-3.149-.908-1.154-1.632-2.451-2.137-3.83-.379-1.035-.634-2.114-.759-3.209-.054-.473-.081-.948-.09-1.425-.009-1.508-.006-3.016-.004-4.524-.006-1.92-.02-3.841.004-5.761.005-.135.014-.269.031-.403.042-.329.124-.652.246-.961.2-.508.506-.973.893-1.36.433-.433.965-.764 1.545-.961.41-.138.837-.204 1.269-.21.039 0 .078.001.117.001.136.005.27.014.405.031.305.039.606.113.894.221z"/><path d="m23 12 1 1s.841.28 1.632.544c.817.272 1.368 1.037 1.368 1.898v3.558c0 5.501-4.442 9.965-9.935 10h-.065c-3.183 0-6.235-1.264-8.485-3.515-2.251-2.25-3.515-5.302-3.515-8.485v-2.763c.264.236 8-2.237 8-2.237z" fill="#885030"/><path d="m15.274 16.5c.141.007.277.036.404.096.347.165.573.523.572.907 0 .141-.033.277-.088.406-.73 1.541-1.493 3.067-2.287 4.575-.078.134-.179.25-.307.339-.08.055-.169.099-.262.129-.351.113-.745.019-1.008-.24-.089-.088-.162-.193-.213-.308s-.079-.239-.084-.365c-.006-.156.026-.306.087-.448.73-1.541 1.493-3.067 2.287-4.575.128-.221.325-.389.569-.468.08-.026.162-.039.246-.046.042-.002.042-.002.084-.002z" fill="#6c320e" fill-rule="nonzero"/><path d="m24 11-1 1h-10v3.828c-.344.122-.71.18-1.075.171-.343-.008-.684-.076-1.005-.2-.343-.132-.661-.328-.934-.575-.292-.264-.53-.586-.698-.942-.036-.076-.069-.153-.098-.231-.022.024-.045.048-.068.071-.255.255-.557.464-.886.613-.733.331-1.589.352-2.338.057-.329-.13-.634-.319-.898-.555v-7.237c1.723 0 2-.277 2-2h17z" fill="#3a1804"/><path d="m10 5c0-1.105.895-2 2-2s2 .895 2 2v8c0 1.105-.895 2-2 2s-2-.895-2-2c0-2.22 0-5.78 0-8zm-5 1.998c0-1.103.895-1.998 1.998-1.998h.004c1.103 0 1.998.895 1.998 1.998v5.002c0 .53-.211 1.039-.586 1.414s-.884.586-1.414.586-1.039-.211-1.414-.586-.586-.884-.586-1.414c0-1.489 0-3.513 0-5.002zm19 4.002-2 1-2-1v-6.002c0-.53.21-1.038.585-1.413.375-.374.883-.585 1.413-.585h.004c.53 0 1.038.211 1.413.585.375.375.585.883.585 1.413zm-5 0-2 1-2-1v-6.002c0-1.103.895-1.998 1.998-1.998h.004c1.103 0 1.998.895 1.998 1.998z" fill="#885030"/><path d="m24 13h-9.985c.01.089.023.177.038.265.079.442.218.87.421 1.271.273.537.654 1.019 1.116 1.407.443.373.959.659 1.511.838.449.146.918.216 1.39.219h1.914l3.2 3.1-1.392 1.436-2.618-2.536c-.422 0-.848.006-1.272-.002-.733-.023-1.457-.161-2.144-.422-.784-.297-1.508-.748-2.122-1.32-.834-.777-1.456-1.773-1.788-2.864-.206-.676-.295-1.38-.279-2.086l.04-1.306h11.97z" fill="#3a1804" fill-rule="nonzero"/></svg>