<svg clip-rule="evenodd" fill-rule="evenodd" stroke-linejoin="round" stroke-miterlimit="2" viewBox="0 0 32 32" xmlns="http://www.w3.org/2000/svg" xmlns:xlink="http://www.w3.org/1999/xlink"><clipPath id="a"><path clip-rule="evenodd" d="m0 0h32v32h-32z"/></clipPath><metadata/><path d="m0 0h32v32h-32z" fill="none"/><g clip-path="url(#a)"><path d="m30 8c1.105 0 2 .895 2 2v6c0 1.105-.895 2-2 2h-5.24l-6.726 5.979c-1.465 1.302-3.356 2.021-5.315 2.021-1.724 0-4.068 0-5.719 0-1.061 0-2.078-.421-2.828-1.172-.751-.75-1.172-1.767-1.172-2.828v-.128c-.686-.176-1.319-.534-1.828-1.044-.751-.75-1.172-1.767-1.172-2.828 0-1.743 0-4.257 0-6 0-1.061.421-2.078 1.172-2.828.75-.751 1.767-1.172 2.828-1.172z"/><path d="m4 20c-.246-.002-.49-.045-.72-.134-.175-.068-.34-.16-.49-.273-.493-.375-.79-.973-.79-1.593 0-2 0-4 0-6 0-.62.297-1.218.79-1.593.15-.113.315-.205.49-.273.23-.089.474-.132.72-.134h21l1 1v4l-1 1h-1l-7.579 6.737c-.285.252-.596.472-.93.653-.724.395-1.539.603-2.363.61h-6.13c-.246-.002-.49-.045-.719-.134-.569-.22-1.015-.699-1.193-1.283-.057-.189-.086-.386-.086-.583l1-1-1-1z" fill="#ffd877"/><path d="m11.791 15c-.365 0-.725.085-1.051.248-1.149.574-3.293 1.646-3.293 1.646l-.894-1.788s2.144-1.072 3.292-1.647c.604-.302 1.271-.459 1.946-.459h4.209l.707 1.707s-4.731 4.731-6.414 6.414c-.563.563-1.326.879-2.121.879h-3.172v-2h3.172c.177-.004.351-.05.504-.14.074-.043.141-.095.203-.153l4.707-4.707z" fill="#865e1c"/><path d="m25 10h5v6h-5z" fill="#dfaa50"/></g></svg>