<svg clip-rule="evenodd" fill-rule="evenodd" stroke-linejoin="round" stroke-miterlimit="2" viewBox="0 0 32 32" xmlns="http://www.w3.org/2000/svg"><metadata/><path d="m0 0h32v32h-32z" fill="none"/><path d="m19.75 3.201c.874-.748 2.01-1.201 3.25-1.201 2.76 0 5 2.24 5 5v4.352c.817.324 1.544.861 2.099 1.571.947 1.214 1.283 2.796.909 4.29-.275 1.103-.59 2.36-.91 3.642-1.51 6.04-6.983 10.243-13.207 10.145v.019s-.451-.001-1.142-.003c-6.412-.015-11.995-4.384-13.55-10.604-.678-2.711-1.3-5.199-1.3-5.199-.669-2.678.961-5.394 3.638-6.064.406-.101.812-.15 1.212-.15 0-2.241 1.517-4.282 3.788-4.85.955-.238 1.915-.185 2.785.105.894-1.357 2.432-2.254 4.178-2.254 1.24 0 2.376.453 3.25 1.201z"/><path d="m18 21s-8.235-2-13-2c-.556 0-1.366-1.144-1.38-1.15l-.354-1.416c.255.238 2.734-5.422 2.734-5.422l2-2.012 2-2 8-2h3l5 6.012v9.988z" fill="#2e0a39"/><path d="m26.158 13c.923 0 1.796.426 2.364 1.154.569.728.77 1.677.546 2.574-.262 1.048-.559 2.235-.862 3.448-1.296 5.186-5.956 8.824-11.302 8.824h-1.127c-5.506 0-10.306-3.748-11.642-9.09l-.515-2.06c.06.027.12.052.181.075 1.098.419 2.329.296 3.323-.331.011-.007.021-.014.032-.021.865-.546 1.445-1.405 1.653-2.36.722.613 1.699.908 2.697.733 1.235-.217 2.194-1.101 2.557-2.225.157.163.33.311.518.441.147.102.301.192.461.269-.018.078.958 4.569.958 4.569l6 2 1.564-1h.436v-2h-2c-1.061 0-2.078-.421-2.828-1.172-.751-.75-1.172-1.767-1.172-2.828v-1zm-22.892 3.434-.426-1.706c-.402-1.607.576-3.237 2.182-3.638.774-.194 1.554-.067 2.199.296l.592 2.37c.286 1.144-.194 2.342-1.191 2.972-.011.007-.021.013-.032.02-.727.459-1.629.549-2.432.243-.335-.128-.637-.319-.892-.557zm5.484-3.066-.91-3.64c-.402-1.607.576-3.237 2.182-3.638.907-.227 1.822-.014 2.519.504l.666 5.859c.137 1.2-.684 2.299-1.874 2.508-1.146.201-2.253-.49-2.583-1.593zm7.25.346c-.029-.006-.058-.013-.087-.021-.293-.078-.571-.211-.816-.391-.261-.192-.483-.436-.649-.714-.178-.298-.288-.631-.33-.975l-.579-5.095c.23-1.427 1.469-2.518 2.961-2.518 1.043 0 1.962.533 2.5 1.342v5.658h-3zm4-2.714v-4c.002-.376.07-.749.208-1.1.34-.861 1.08-1.533 1.971-1.786.316-.09.647-.127.975-.11.336.017.668.091.98.218.346.141.665.349.935.607.279.266.507.585.666.937.175.388.262.809.265 1.234v4z" fill="#7d2982"/><path d="m23.564 20c.284.556.436 1.177.436 1.815v.062c0 1.232-.567 2.395-1.538 3.153s-2.237 1.026-3.432.727c-.905-.226-1.739-.434-2.302-.575-.478-.12-.978-.12-1.456 0-.563.141-1.397.349-2.302.575-1.195.299-2.461.031-3.432-.727s-1.538-1.921-1.538-3.153c0-.021 0-.041 0-.062 0-1.153.498-2.251 1.366-3.01 1.095-.958 2.663-2.33 4-3.5.496-.434 1.072-.725 1.676-.874.318.154.657.258 1.004.308.163 1.319.762 2.554 1.711 3.504 1.126 1.125 2.652 1.757 4.243 1.757z" fill="#49154f"/></svg>