<svg clip-rule="evenodd" fill-rule="evenodd" stroke-linejoin="round" stroke-miterlimit="2" viewBox="0 0 32 32" xmlns="http://www.w3.org/2000/svg"><metadata/><path d="m0 0h32v32h-32z" fill="none"/><path d="m16.5 4.43c.157-.155.324-.298.501-.431.911-.683 2.047-1.038 3.185-.996.582.022 1.16.146 1.699.366.578.235 1.11.579 1.562 1.009.475.452.859.997 1.124 1.597.282.635.427 1.324.429 2.019v.006 3h.002c1.326 0 2.597.527 3.534 1.464s1.464 2.208 1.464 3.534v1.002c0 6.627-5.373 12-12 12h-4c-3.448 0-6.754-1.37-9.192-3.808s-3.808-5.744-3.808-9.192v-5.002c0-1.326.527-2.597 1.464-3.534s2.208-1.464 3.534-1.464h.004c.778 0 1.538.182 2.222.523.024-.08.051-.159.079-.238.164-.449.393-.875.678-1.26.288-.389.633-.735 1.02-1.026.911-.683 2.047-1.038 3.185-.996.582.022 1.16.146 1.699.366.578.235 1.11.579 1.562 1.009z"/><path d="m3 12 4-1 2 1v1h1v-1l2-1 4 2 7 1 2.002-1c.795 0 1.558.316 2.12.878s.878 1.325.878 2.12v1.002c0 5.523-4.477 10-10 10h-4c-2.917 0-5.715-1.159-7.778-3.222s-3.222-4.861-3.222-7.778z" fill="#7d2982"/><path d="m15.999 12c-.025 2.045-.427 4.069-1.187 5.969-.43 1.076-.812 2.031-.812 2.031-2.168-2.168-3.531-4.989-3.899-8h-.101v-4.002c0-.795.316-1.558.878-2.12s1.325-.878 2.12-.878h.004c.795 0 1.558.316 2.12.878s.878 1.325.878 2.12v4.002zm-6.999.317c0 1.119-.111 2.236-.33 3.334-.291 1.456-.67 3.349-.67 3.349s-1.516-1.516-2.879-2.879c-1.12-1.12-1.836-2.57-2.052-4.121h-.069v-1.002c0-1.656 1.342-2.998 2.998-2.998h.004c1.656 0 2.998 1.342 2.998 2.998zm11.002-7.317c.795 0 1.558.316 2.12.878s.878 1.325.878 2.12v3.002l-1 2-2 1-3-1s0-2.731 0-5.002c0-.795.316-1.558.878-2.12s1.325-.878 2.12-.878z" fill="#49154f"/><path d="m23 11v2h-.802c-2.113 0-4.206.403-6.167 1.188-1.076.43-2.031.812-2.031.812l.015.03c1.26 2.497 3.636 4.245 6.396 4.705.906.151 1.589.265 1.589.265v2c-.109 0-.219-.009-.329-.027 0 0-.683-.114-1.589-.265-3.389-.565-6.305-2.711-7.853-5.777l-.018-.037c-.25-.5-.279-1.082-.08-1.605.198-.523.607-.938 1.126-1.146 0 0 .956-.382 2.031-.812 2.198-.879 4.543-1.331 6.91-1.331z" fill="#2e0a39"/><path d="m14 15c1.257 2.513 3.64 4.273 6.411 4.735.906.151 1.589.265 1.589.265l3-7h-2.802c-2.113 0-4.206.403-6.167 1.188-1.076.43-2.031.812-2.031.812z" fill="#49154f"/></svg>