<svg clip-rule="evenodd" fill-rule="evenodd" stroke-linejoin="round" stroke-miterlimit="2" viewBox="0 0 32 32" xmlns="http://www.w3.org/2000/svg" xmlns:xlink="http://www.w3.org/1999/xlink"><clipPath id="a"><path clip-rule="evenodd" d="m0 0h32v32h-32z"/></clipPath><metadata/><path d="m0 0h32v32h-32z" fill="none"/><g clip-path="url(#a)"><path d="m7 6c-3.866 0-7 3.134-7 7v3c0 3.171 2.108 5.849 5 6.71v.29c0 1.326.527 2.598 1.464 3.536.938.937 2.21 1.464 3.536 1.464h3.277c2.307 0 4.502-.996 6.021-2.732l4.61-5.268h6.092c1.105 0 2-.895 2-2v-10c0-1.105-.895-2-2-2z"/><path d="m25 18h5v-10h-5l-1 1v8z" fill="#e461b2"/><path d="m25 8h-18c-2.761 0-5 2.239-5 5v3c0 2.751 2.221 4.983 4.968 5h.032l1 1-1 1c0 .796.316 1.559.879 2.121.562.563 1.325.879 2.121.879h3.277c1.731 0 3.377-.747 4.516-2.049l5.207-5.951h2z" fill="#fd9bd6"/><path d="m7 23h3.93c1.003 0 1.939-.501 2.496-1.336l3.861-5.791-.837-.838c-1.326-1.326-3.209-1.933-5.06-1.633s-3.445 1.472-4.284 3.15v.001l1.788.894s.001 0 .001-.001c.551-1.102 1.599-1.872 2.815-2.07 1.067-.173 2.15.113 2.988.774l-2.936 4.405c-.186.278-.498.445-.832.445h-3.93z" fill="#8b2265"/></g></svg>