<svg clip-rule="evenodd" fill-rule="evenodd" stroke-linejoin="round" stroke-miterlimit="2" viewBox="0 0 32 32" xmlns="http://www.w3.org/2000/svg"><metadata/><path d="m0 0h32v32h-32z" fill="none"/><path d="m8.401 3.253c.222-.458.532-.872.908-1.214.406-.369.888-.653 1.407-.829.41-.138.837-.204 1.269-.21.04 0 .08.001.119.001.136.005.27.014.405.031.328.042.651.124.959.246.373.147.722.35 1.034.6.336-.269.715-.486 1.123-.635.41-.15.837-.225 1.273-.242.102-.001.102-.001.204 0 .136.005.27.014.405.031.329.042.652.124.96.246.373.147.722.35 1.034.601.311-.25.658-.454 1.032-.601.308-.122.631-.204.96-.246.135-.017.269-.026.405-.031.102-.001.102-.001.204 0 .136.005.27.014.405.031.329.042.652.124.96.246.569.224 1.083.58 1.494 1.032.369.406.653.888.829 1.408.138.41.205.837.21 1.27v6.012 1.558c.114.038.228.076.341.115.075.027.149.056.223.087.432.189.83.442 1.174.765.583.548.994 1.269 1.167 2.05.058.259.086.521.094.786.013 1.264.008 2.529 0 3.794-.009.458-.037.916-.095 1.371-.113.887-.325 1.761-.633 2.6-.499 1.363-1.248 2.631-2.198 3.728-1.039 1.2-2.317 2.191-3.739 2.898-1.013.503-2.098.862-3.212 1.061-.996.178-2.01.223-3.019.159-1.05-.067-2.092-.252-3.1-.551-1.306-.389-2.554-.971-3.692-1.72-1.31-.862-2.473-1.945-3.427-3.189-.86-1.121-1.548-2.372-2.034-3.698-.379-1.035-.634-2.114-.759-3.209-.054-.473-.081-.948-.09-1.425-.009-1.522-.006-3.044-.003-4.567-.007-2.238-.025-4.477.003-6.715.017-.436.092-.863.242-1.274.39-1.064 1.235-1.93 2.29-2.346.308-.121.631-.204.96-.246.135-.017.269-.026.405-.031.102-.001.102-.001.204 0 .136.005.27.014.405.031.305.039.606.113.894.221z"/><path d="m17 30c-3.183 0-6.235-1.264-8.485-3.515-2.251-2.25-3.515-5.302-3.515-8.485v-2.623l10-2.377h8l1 1s.841.28 1.632.544c.817.272 1.368 1.037 1.368 1.898v3.558c0 5.523-4.477 10-10 10z" fill="#e91c2a"/><path d="m14.356 18.053-2.25 4.5c-.247.493-.047 1.095.447 1.341.493.247 1.095.047 1.341-.447l2.25-4.5c.247-.493.047-1.095-.447-1.341-.493-.247-1.095-.047-1.341.447z" fill="#a41933"/><path d="m24 12-1 1h-11l1.065 2.13c.471.942 1.137 1.746 1.935 2.373v3.911l-5-5v4.001l-4.829-4.829-.171-.209v-7.377c2.457 0 2-.616 2-3h17z" fill="#5e0d1c"/><path d="m10 5c0-1.105.895-2 2-2s2 .895 2 2v14s-2.303-2.303-3.414-3.414c-.375-.375-.586-.884-.586-1.414 0-1.877 0-6.498 0-9.172zm-5 2c0-.53.211-1.039.586-1.414s.884-.586 1.414-.586c1.105 0 2 .895 2 2v11.001s-1.944-1.945-3.122-3.122c-.562-.563-.878-1.326-.878-2.121 0-1.487 0-3.997 0-5.758zm17.002-4c1.103 0 1.998.895 1.998 1.998v7.002l-1 1h-3v-8.002c0-1.103.895-1.998 1.998-1.998zm-4.987 0c.222.002.442.039.651.113.281.099.538.262.749.472.21.211.373.468.472.749.075.213.112.438.113.664v8.002h-4v-8.002c0-1.103.895-1.998 1.998-1.998z" fill="#e91c2a"/><path d="m24 14h-10.382l.342.683c1.016 2.033 3.094 3.317 5.366 3.317h1.079l3.2 3.1-1.392 1.436-2.618-2.536h-.269c-3.03 0-5.8-1.712-7.155-4.422l-1.789-3.578h13.618z" fill="#5e0d1c"/></svg>