<svg clip-rule="evenodd" fill-rule="evenodd" stroke-linejoin="round" stroke-miterlimit="2" viewBox="0 0 32 32" xmlns="http://www.w3.org/2000/svg" xmlns:xlink="http://www.w3.org/1999/xlink"><clipPath id="a"><path clip-rule="evenodd" d="m0 0h32v32h-32z"/></clipPath><metadata/><path d="m0 0h32v32h-32z" fill="none"/><g clip-path="url(#a)"><path d="m28.081 8.001c.46.017.911.101 1.341.267.551.213 1.051.547 1.458.975.383.402.681.885.868 1.408.144.403.217.823.233 1.25.025 2.066.025 4.132 0 6.198-.016.427-.089.847-.233 1.25-.31.866-.922 1.611-1.712 2.084-.329.196-.684.342-1.054.44 0 .409.004.817-.001 1.226-.016.427-.089.847-.233 1.25-.199.554-.521 1.063-.937 1.48-.394.393-.87.703-1.389.903-.43.166-.881.25-1.34.267-1.905.023-3.81.012-5.714 0-.559-.01-1.115-.072-1.66-.195-1.018-.229-1.988-.659-2.841-1.259-.376-.264-.725-.561-1.052-.884l-6.661-6.661h-5.172c-.53 0-1.039-.211-1.414-.586s-.586-.884-.586-1.414c0-1.743 0-4.258 0-6.001 0-1.104.895-1.999 1.999-2 5.077-.002 18.596-.006 26.1.002z" fill-rule="nonzero"/><path d="m6.982 10h-5v6h5l1-3z" fill="#5d1668"/><path d="m6.982 16h1l7.536 7.536c.269.268.567.506.89.707.527.328 1.115.557 1.725.672.293.055.591.082.889.085h5.96c.23-.001.458-.04.674-.117.567-.203 1.021-.662 1.217-1.232.072-.209.108-.429.109-.651v-1l-1-1 1-1h1.001c.53 0 1.038-.211 1.413-.586s.586-.884.586-1.414c0-1.743 0-4.257 0-6 0-.53-.211-1.039-.586-1.414s-.884-.586-1.414-.586c-4.343 0-21 0-21 0z" fill="#7d2982"/><path d="m24.139 20c-.08-.001-.159-.008-.237-.026-.213-.05-.399-.17-.54-.335-.028-.034-.053-.07-.078-.107-.822-1.358-1.601-2.743-2.401-4.115l.044-.022c.246-.119.505-.201.776-.234.693-.083 1.401.153 1.905.635.182.174.33.375.451.596.18.349.353.703.529 1.055l1.788-.894-.504-1.009c-.147-.285-.317-.555-.52-.803-.542-.662-1.278-1.156-2.095-1.406-.377-.116-.764-.174-1.157-.189-.107-.002-.106-.002-.213-.001-.283.01-.564.041-.841.102-.28.061-.549.153-.812.265-.096.043-.095.043-.19.089l-1.963.982 3.462 5.936c.119.195.252.378.41.544.378.4.867.691 1.398.834.253.068.51.099.771.103h2.86v-2z" fill="#2e0a39"/></g></svg>