<svg clip-rule="evenodd" fill-rule="evenodd" stroke-miterlimit="5" viewBox="0 0 32 32" xmlns="http://www.w3.org/2000/svg" xmlns:xlink="http://www.w3.org/1999/xlink"><clipPath id="a"><path clip-rule="evenodd" d="m0 0h32v32h-32z"/></clipPath><metadata/><path d="m0 0h32v32h-32z" fill="none"/><g clip-path="url(#a)"><g stroke="#000"><path d="m2.707 20.293c-.39.39-.39 1.024 0 1.414l.586.586c.39.39 1.024.39 1.414 0l17.293-17.293c.265-.265.414-.625.414-1s-.149-.735-.414-1c-.265-.265-.625-.414-1-.414s-.735.149-1 .414c-3.389 3.389-14.391 14.391-17.293 17.293z" fill="#8e8e8e" stroke-width="4"/><path d="m23.586 18.172 3.364-1.122-1.122 3.364 3.172 1.586-3.172 1.586 1.122 3.364-3.364-1.122-1.586 3.172-1.586-3.172-3.364 1.122 1.122-3.364-3.172-1.586 3.172-1.586-1.122-3.364 3.364 1.122 1.586-3.172z" fill="#919191" stroke-linejoin="round" stroke-miterlimit="1.5" stroke-width="4"/><path d="m22 4v17" fill="none" stroke-linecap="round" stroke-linejoin="round" stroke-miterlimit="1.5" stroke-width="6"/></g><path d="m22 4v17" style="fill:none;stroke:#647982;stroke-width:2;stroke-linecap:round;stroke-linejoin:round;stroke-miterlimit:1.5"/><path d="m3 20v2h2l13-13v-2h-2z" fill="#6e4d31"/><path d="m16 7 2 2s2.541-2.541 4-4c.552-.552.552-1.448 0-2-.552-.552-1.448-.552-2 0-1.459 1.459-4 4-4 4z" fill="#9faeb5"/><path d="m23.586 18.172 3.364-1.122-1.122 3.364 3.172 1.586-3.172 1.586 1.122 3.364-3.364-1.122-1.586 3.172-1.586-3.172-3.364 1.122 1.122-3.364-3.172-1.586 3.172-1.586-1.122-3.364 3.364 1.122 1.586-3.172zm-2.829.828-1.757 1.757v2.486l1.757 1.757h2.486l1.757-1.757v-2.486l-1.757-1.757z" fill="#9faeb5"/><circle cx="22" cy="22" fill="#d8e3e5" r="4"/><circle cx="22" cy="22" fill="#9faeb5" r="2"/><path d="m4.707 22.293c-.187.187-.442.293-.707.293s-.52-.106-.707-.293c-.19-.19-.396-.396-.586-.586-.187-.187-.293-.442-.293-.707s.106-.52.293-.707c.165-.165.293-.293.293-.293l2 2s-.128.128-.293.293z" fill="#9faeb5"/></g></svg>