<svg clip-rule="evenodd" fill-rule="evenodd" stroke-linejoin="round" stroke-miterlimit="1.41421" viewBox="0 0 32 32" xmlns="http://www.w3.org/2000/svg" xmlns:xlink="http://www.w3.org/1999/xlink"><clipPath id="a"><path clip-rule="evenodd" d="m0 0h32v32h-32z"/></clipPath><metadata/><path d="m0 0h32v32h-32z" fill="none"/><g clip-path="url(#a)"><path d="m30 5.414c0-.265-.105-.519-.293-.707-.574-.574-1.84-1.84-2.414-2.414-.188-.188-.442-.293-.707-.293-6.383 0-19.82 0-23.586 0-.552 0-1 .448-1 1v26c0 .552.448 1 1 1h26c.552 0 1-.448 1-1 0-3.766 0-17.203 0-23.586z"/><path d="m26.734.003.148.011.147.018.145.026.143.032.142.039.138.046.137.053.134.059.131.066.127.072.125.079.12.084.117.091.112.097.09.085 2.449 2.449.085.09.097.112.091.117.084.12.079.124.072.128.066.131.059.134.053.136.046.14.039.141.032.143.026.146.018.146.011.147.003.125v23.635l-.003.128-.012.152-.019.149-.026.148-.034.146-.041.144-.047.139-.054.137-.06.134-.067.129-.072.126-.078.122-.084.117-.088.113-.094.109-.099.104-.104.099-.108.094-.114.089-.117.083-.122.078-.125.072-.13.067-.134.06-.137.054-.14.047-.143.041-.146.034-.148.026-.15.019-.151.012-.128.003h-26.05l-.128-.003-.151-.012-.15-.019-.148-.026-.146-.034-.143-.041-.14-.047-.137-.054-.134-.06-.13-.067-.125-.072-.122-.078-.117-.084-.113-.088-.109-.094-.104-.099-.099-.104-.094-.109-.088-.112-.084-.118-.078-.122-.072-.126-.067-.129-.06-.134-.054-.136-.047-.14-.041-.144-.034-.146-.026-.148-.019-.15-.012-.151-.003-.127v-26.052l.003-.127.012-.151.019-.15.026-.148.034-.146.041-.144.047-.14.054-.136.06-.134.067-.13.072-.125.078-.122.083-.117.089-.114.094-.108.099-.104.104-.099.109-.094.113-.088.117-.084.122-.078.126-.072.129-.067.134-.06.136-.054.141-.047.143-.041.146-.034.148-.026.15-.019.151-.012.128-.003h23.635l.124.003zm-22.734 3.997v24h24v-22.172l-1.828-1.828z"/><path d="m30 5.414c0-.265-.105-.519-.293-.707-.574-.574-1.84-1.84-2.414-2.414-.188-.188-.442-.293-.707-.293-1.35 0-2.586 0-2.586 0l-1 1h-17l-1-1s-1.127 0-2 0c-.552 0-1 .448-1 1v26c0 .552.448 1 1 1h2l1-1h20l1 1h2c.552 0 1-.448 1-1 0-3.766 0-17.203 0-23.586z" fill="#4d4d4d"/><path d="m27 17c0-.552-.448-1-1-1-3.665 0-16.335 0-20 0-.552 0-1 .448-1 1v13h22s0-9.797 0-13z" fill="#fff"/><g fill="#b2d6ff"><path d="m6 19h20v1h-20z"/><path d="m6 23h20v1h-20z"/><path d="m6 27h20v1h-20z"/></g><path d="m10 2h-5v9c0 .552.448 1 1 1h4l1-1v-8z" fill="#333"/><path d="m24 2h-14v10h13c.552 0 1-.448 1-1 0-2.533 0-9 0-9z" fill="#ccc"/><path d="m18 3h4v8h-4z" fill="#333"/></g></svg>