<svg clip-rule="evenodd" fill-rule="evenodd" stroke-linejoin="round" stroke-miterlimit="2" viewBox="0 0 32 32" xmlns="http://www.w3.org/2000/svg" xmlns:xlink="http://www.w3.org/1999/xlink"><clipPath id="a"><path clip-rule="evenodd" d="m0 0h32v32h-32z"/></clipPath><clipPath id="b"><path clip-rule="evenodd" d="m2 2h28v28h-28z"/></clipPath><metadata/><path d="m0 0h32v32h-32z" fill="none"/><g clip-path="url(#a)"><path d="m32 2c0-.53-.211-1.039-.586-1.414s-.884-.586-1.414-.586h-28c-.53 0-1.039.211-1.414.586s-.586.884-.586 1.414v28c0 .53.211 1.039.586 1.414s.884.586 1.414.586h28c.53 0 1.039-.211 1.414-.586s.586-.884.586-1.414z"/><path d="m2 2h28v28h-28z" fill="#caddfc"/><g clip-path="url(#b)"><path d="m2 2h28v3h-28z" fill="#dae8fd"/><path d="m22 8c0-.265-.105-.52-.293-.707-.187-.188-.442-.293-.707-.293-4.048 0-19 0-19 0v2h19c.265 0 .52-.105.707-.293.188-.187.293-.442.293-.707z" fill="#accbfa"/><g fill="#addad1"><path d="m12 18 4-12 4 12z"/><path d="m15 16h2v5h-2z"/><path d="m18 18 4-12 4 12z"/><path d="m21 16h2v5h-2z"/><path d="m22 18 4-12 4 12z"/><path d="m25 16h2v5h-2z"/><path d="m6 18 4-12 4 12z"/><path d="m9 16h2v5h-2z"/><path d="m2 18 4-12 4 12z"/><path d="m5 16h2v5h-2z"/><path d="m-3 18 4-12 4 12z"/><path d="m0 16h2v5h-2z"/></g><path d="m-8 14s1.233-.705 2.664-1.522c2.842-1.624 6.057-2.478 9.33-2.478h1.006l2 4h.001c3.236-2.589 7.257-4 11.401-4h2.598l2 4c2.561-2.561 6.035-4 9.656-4h2.344v14h-46v-10z" fill="#d9e7fd"/><path d="m2 24h28v6h-28z" fill="#6fc9af"/><path d="m7 21 5-16 5 16z" fill="#83c8ab"/><path d="m11 19h2v5h-2z" fill="#83c8ab"/><path d="m15 21 5-16 5 16z" fill="#83c8ab"/><path d="m19 19h2v5h-2z" fill="#83c8ab"/><path d="m23 21 5-16 5 16z" fill="#83c8ab"/><path d="m27 19h2v5h-2z" fill="#83c8ab"/><path d="m-2 21 5-16 5 16z" fill="#83c8ab"/><path d="m2 19h2v5h-2z" fill="#83c8ab"/><path d="m5 23s2.394-1.71 4.382-3.13c1.703-1.216 3.743-1.87 5.836-1.87h.355c1.487 0 2.847.84 3.512 2.171.47.94.915 1.829.915 1.829s1.473-1.179 2.82-2.256c1.411-1.129 3.164-1.744 4.971-1.744h.003c1.771 0 3.206 1.435 3.206 3.206v5.794h-29v-4z" fill="#e5effe"/></g><path d="m22 25c0-.265-.105-.52-.293-.707-.187-.188-.442-.293-.707-.293-4.048 0-19 0-19 0v2h19c.265 0 .52-.105.707-.293.188-.187.293-.442.293-.707z" fill="#c8e1f6"/></g></svg>