<svg clip-rule="evenodd" fill-rule="evenodd" stroke-miterlimit="1.5" viewBox="0 0 32 32" xmlns="http://www.w3.org/2000/svg" xmlns:xlink="http://www.w3.org/1999/xlink"><clipPath id="a"><path clip-rule="evenodd" d="m0 0h32v32h-32z"/></clipPath><metadata/><path d="m0 0h32v32h-32z" fill="none"/><g clip-path="url(#a)"><path d="m3 4c-.552 0-1 .448-1 1v21c0 .53.211 1.039.586 1.414s.884.586 1.414.586h24c1.105 0 2-.895 2-2 0-4.01 0-12.99 0-17 0-1.105-.895-2-2-2-4.292 0-14 0-14 0s-1.146-1.719-1.703-2.555c-.186-.278-.498-.445-.832-.445-1.602 0-6.374 0-8.465 0z" fill="none" stroke="#000" stroke-width="4"/><path d="m3 4c-.552 0-1 .448-1 1v21c0 .53.211 1.039.586 1.414s.884.586 1.414.586h24c1.105 0 2-.895 2-2 0-4.01 0-12.99 0-17 0-1.105-.895-2-2-2-4.292 0-14 0-14 0s-1.146-1.719-1.703-2.555c-.186-.278-.498-.445-.832-.445-1.602 0-6.374 0-8.465 0z" fill="#10768b"/><path d="m4 10c-.53 0-1.039.211-1.414.586s-.586.884-.586 1.414v14c0 .53.211 1.039.586 1.414s.884.586 1.414.586h24c.53 0 1.039-.211 1.414-.586s.586-.884.586-1.414c0-3.463 0-10.537 0-14 0-.53-.211-1.039-.586-1.414s-.884-.586-1.414-.586c-5.154 0-18.846 0-24 0z" fill="#30bfdb"/></g></svg>