<svg clip-rule="evenodd" fill-rule="evenodd" stroke-linejoin="round" stroke-miterlimit="1.41421" viewBox="0 0 32 32" xmlns="http://www.w3.org/2000/svg" xmlns:xlink="http://www.w3.org/1999/xlink"><clipPath id="a"><path clip-rule="evenodd" d="m0 0h32v32h-32z"/></clipPath><metadata/><path d="m0 0h32v32h-32z" fill="none"/><g clip-path="url(#a)"><path d="m0 17.172 3.194-3.194 1-4 2.783-2.784c1.284-.321 2.567-.646 3.852-.962.164-.039.329-.077.494-.114.769-.164 1.546-.293 2.328-.377.725-.078 1.453-.117 2.181-.125h.336c.841.01 1.68.061 2.515.164.838.103 1.667.257 2.488.452l.161.039 3.691.923 2.783 2.784 1 4 3.194 3.194v.07l-.087.538-1.537.768 1.624 1.624v.07l-.087.538-3.772 1.885-4.938 4.49-1.094 2.917-.036.09c-.093.211-.201.412-.337.599-.375.517-.915.907-1.524 1.1-.257.081-.52.121-.788.137l-.104.002h-6.646c-.225-.004-.448-.028-.668-.079-.659-.155-1.256-.536-1.674-1.069-.186-.237-.33-.5-.441-.78l-1.094-2.917c-4.019-3.653-3.852-3.947-8.71-6.375l-.087-.538v-.07l1.624-1.624-1.537-.768-.087-.538v-.07z"/><path d="m5 18-2-1 2-2 1-4 2-2s1.47-.367 3.149-.787c3.185-.797 6.517-.797 9.702 0 1.679.42 3.149.787 3.149.787l2 2 1 4 2 2-2 1-11 11z" fill="#d76f29"/><path d="m5 18h.82c.776 0 1.541.181 2.236.528.849.425 1.993.997 2.574 1.287.237.118.417.326.501.578.132.396.342 1.025.522 1.565.216.649.749 1.142 1.412 1.308 1.185.297 2.935.734 2.935.734s1.75-.437 2.935-.734c.663-.166 1.196-.659 1.412-1.308.18-.54.39-1.169.522-1.565.084-.252.264-.46.501-.578.581-.29 1.725-.862 2.574-1.287.695-.347 1.46-.528 2.236-.528h.82l2 2-2 1-5.5 5s-.832 2.218-1.257 3.351c-.146.39-.519.649-.936.649-1.514 0-5.1 0-6.614 0-.417 0-.79-.259-.936-.649-.425-1.133-1.257-3.351-1.257-3.351l-5.5-5-2-1 2-2z" fill="#fff"/><path d="m21 8c0-1.839 1.039-3.519 2.683-4.342 2.325-1.162 5.317-2.658 5.317-2.658v6.578c0 1.579-.468 3.123-1.344 4.437-.362.544-.656.985-.656.985" fill="#d76f29"/><path d="m11 8c0-1.839-1.039-3.519-2.683-4.342-2.325-1.162-5.317-2.658-5.317-2.658v6.578c0 1.579.468 3.123 1.344 4.437.362.544.656.985.656.985" fill="#d76f29"/><path d="m15 22c-.552 0-1 .448-1 1v.131c0 .335.167.647.445.833.295.196.685.456 1 .666.336.224.774.224 1.11 0 .315-.21.705-.47 1-.666.278-.186.445-.498.445-.833 0-.042 0-.086 0-.131 0-.552-.448-1-1-1-.611 0-1.389 0-2 0z"/><path d="m20.541 24.502.041.005.041.008.039.012.039.015.037.018.035.021.034.024.032.027.029.029.027.032.024.033.021.036.018.037.015.039.012.039.008.041.005.041.002.041v.363l-.001.053-.001.055-.003.055-.005.055-.005.055-.007.054-.007.054-.009.054-.01.053-.012.053-.012.053-.013.052-.015.052-.015.051-.017.051-.018.05-.019.05-.019.05-.021.049-.022.048-.023.048-.023.047-.025.047-.026.046-.026.046-.028.045-.029.044-.029.044-.03.043-.032.043-.032.041-.032.041-.035.041-.034.039-.035.039-.037.039-.037.037-.038.037-.039.035-.039.036-.041.034-.04.033-.042.033-.043.032-.043.031-.044.029-.044.03-.046.028-.046.027-.046.026-.047.025-.048.025-.049.023-.049.023-.05.021-.05.02-.051.02-.051.018-.052.017-.053.016-.053.015-.054.014-.053.012-.052.011-.564.113-.056.01-.062.008-.061.006-.062.004h-.062l-.062-.002-.062-.004-.061-.007-.06-.009-.061-.012-.06-.015-.06-.017-.059-.019-.058-.022-.057-.024-.052-.025-1.474-.737-1.474.737-.052.025-.057.024-.058.022-.059.019-.06.017-.06.015-.061.012-.06.009-.061.007-.062.004-.062.002h-.062l-.062-.004-.061-.006-.062-.008-.056-.01-.564-.113-.052-.011-.053-.012-.054-.014-.053-.015-.053-.016-.051-.017-.052-.018-.051-.02-.05-.02-.05-.021-.049-.023-.049-.023-.048-.025-.047-.025-.046-.026-.046-.027-.046-.028-.044-.03-.044-.029-.043-.031-.043-.032-.042-.033-.04-.033-.041-.034-.039-.036-.039-.035-.038-.037-.037-.037-.037-.039-.035-.039-.034-.039-.035-.041-.033-.041-.031-.041-.032-.043-.03-.043-.029-.044-.029-.044-.028-.045-.026-.046-.026-.046-.025-.047-.023-.047-.023-.048-.022-.048-.021-.049-.019-.05-.019-.05-.018-.05-.017-.051-.015-.051-.015-.052-.013-.052-.012-.053-.012-.053-.01-.053-.009-.054-.007-.054-.007-.054-.005-.055-.005-.054-.003-.056-.001-.055-.001-.053v-.363l.002-.041.005-.041.008-.041.012-.039.015-.039.018-.037.021-.036.024-.033.027-.032.029-.029.032-.027.034-.024.035-.021.037-.018.039-.015.039-.012.041-.008.041-.005.041-.002.041.002.041.005.041.008.039.012.039.015.037.018.035.021.034.024.032.027.029.029.027.032.024.033.021.036.018.037.015.039.012.039.008.041.005.041.002.041v.358.036l.002.033.001.033.003.034.003.032.004.033.005.032.005.033.006.031.007.032.007.031.008.032.009.031.009.03.01.031.011.03.011.03.012.029.012.03.013.029.014.029.014.028.015.028.016.028.016.027.016.027.017.027.018.026.018.026.019.025.019.026.02.025.02.023.021.024.022.024.021.023.023.022.022.022.024.022.023.021.024.02.025.021.025.019.026.019.025.018.027.019.027.017.027.017.027.016.028.016.029.015.028.015.029.014.029.013.03.013.031.012.03.012.031.01.031.011.031.009.032.009.032.009.033.007.036.008.548.109.025.005.021.003.021.002.02.001h.021l.02-.001.02-.001.021-.002.021-.004.02-.004.019-.004.021-.006.019-.006.019-.008.02-.008.023-.011 1.912-.956 1.912.956.023.011.02.008.019.008.019.006.021.006.019.004.02.004.021.004.021.002.02.001.02.001h.021l.02-.001.021-.002.021-.003.025-.005.548-.109.036-.008.033-.007.032-.009.032-.009.031-.009.031-.011.031-.01.03-.012.031-.012.03-.013.029-.013.029-.014.028-.015.029-.015.028-.016.027-.016.027-.017.027-.017.027-.019.025-.018.026-.019.025-.019.025-.021.024-.02.023-.021.024-.022.022-.022.023-.022.021-.023.022-.024.021-.024.02-.023.02-.025.019-.026.019-.025.018-.026.018-.026.017-.027.016-.027.016-.027.016-.028.015-.028.014-.028.014-.029.013-.029.012-.03.012-.029.011-.03.011-.03.01-.031.009-.03.009-.031.008-.032.007-.031.007-.032.006-.031.005-.033.005-.032.004-.033.003-.032.003-.033.001-.034.002-.033v-.036-.358l.002-.041.005-.041.008-.041.012-.039.015-.039.018-.037.021-.036.024-.033.027-.032.029-.029.032-.027.034-.024.035-.021.037-.018.039-.015.039-.012.041-.008.041-.005.041-.002z" fill="#666"/><path d="m30 0v7.582c-.002.165-.002.164-.006.328-.026.552-.091 1.099-.212 1.638-.169.752-.434 1.481-.788 2.165-.152.294-.322.576-.503.853l-1.214 1.821-.516-.345-.452-1.805c.197-.294.393-.589.586-.885.137-.218.266-.441.38-.673.285-.575.489-1.189.607-1.82.079-.425.114-.854.118-1.286v-4.955c-1.31.655-2.626 1.3-3.93 1.966-.061.032-.12.065-.179.099-.249.15-.482.323-.693.524-.495.471-.86 1.073-1.049 1.73-.093.325-.139.658-.148.995l-.01 1.077-2-.018c.004-.399.002-.799.013-1.198.022-.511.102-1.015.251-1.504.334-1.09.989-2.073 1.867-2.8.342-.283.715-.521 1.11-.723l5.532-2.766zm-26.764 0 5.532 2.766c.425.217.825.478 1.187.789.866.742 1.504 1.735 1.818 2.831.142.492.213.999.226 1.51l.01 1.095-2 .018c-.004-.382-.001-.764-.011-1.146-.013-.291-.054-.58-.129-.862-.195-.725-.604-1.386-1.165-1.884-.254-.225-.536-.412-.838-.566l-3.866-1.933c0 1.696-.014 3.393.001 5.089.004.129.004.129.01.259.016.257.042.512.085.767.092.548.249 1.085.467 1.596.17.397.379.774.615 1.135l.513.77-.452 1.808-.516.345-1.214-1.821c-.211-.323-.407-.655-.578-1.001-.365-.739-.628-1.529-.779-2.34-.101-.543-.147-1.091-.152-1.643v-7.582h1.236z"/><g fill="#723a15"><path d="m7.572 11.135-.972.972-.707-.707.535-.535-2.06-6.181.948-.316z"/><path d="m27.632 4.684-2.06 6.181.535.535-.707.707-.972-.972 2.256-6.767z"/><path d="m20 17.793.565.565.047.049.048.056.046.059.042.06.039.062.037.064.032.065.03.067.026.068.023.07.02.071.016.071.013.073.009.073.005.074.002.068v2.592h-1v-2.58l-.001-.031-.002-.024-.003-.025-.004-.024-.005-.024-.007-.023-.007-.023-.009-.023-.01-.022-.011-.022-.012-.021-.013-.021-.014-.02-.015-.019-.017-.019-.021-.023-.849-.849v-1.724h1z"/><path d="m13 18.207-.849.849-.022.023-.016.018-.015.02-.014.02-.013.021-.012.021-.011.022-.01.022-.009.023-.007.023-.007.023-.005.024-.004.024-.003.025-.002.024-.001.031v2.597h-1v-2.609l.002-.068.005-.074.009-.073.013-.073.016-.071.02-.071.023-.07.026-.068.03-.067.033-.065.036-.064.039-.062.042-.06.046-.058.048-.057.047-.049.565-.565v-1.293h1z"/></g><path d="m24 16s-.584.584-1.121 1.121c-.563.563-1.326.879-2.122.879-.825 0-1.757 0-1.757 0v-2s.428-.214.889-.444c.711-.356 1.535-.415 2.29-.163.84.28 1.821.607 1.821.607z"/><path d="m8 16s.584.584 1.121 1.121c.563.563 1.326.879 2.122.879h1.757v-2s-.428-.214-.889-.444c-.711-.356-1.535-.415-2.29-.163-.84.28-1.821.607-1.821.607z"/></g></svg>