<svg clip-rule="evenodd" fill-rule="evenodd" stroke-linejoin="round" stroke-miterlimit="1.41421" viewBox="0 0 32 32" xmlns="http://www.w3.org/2000/svg" xmlns:xlink="http://www.w3.org/1999/xlink"><clipPath id="a"><path clip-rule="evenodd" d="m0 0h32v32h-32z"/></clipPath><metadata/><path d="m0 0h32v32h-32z" fill="none"/><g clip-path="url(#a)"><path d="m32 8c0-4.418-3.582-8-8-8-4.887 0-11.113 0-16 0-4.418 0-8 3.582-8 8v16c0 4.418 3.582 8 8 8h16c4.418 0 8-3.582 8-8 0-4.887 0-11.113 0-16z"/><path d="m30 8c0-1.591-.632-3.117-1.757-4.243-1.126-1.125-2.652-1.757-4.243-1.757-4.724 0-11.276 0-16 0-1.591 0-3.117.632-4.243 1.757-1.125 1.126-1.757 2.652-1.757 4.243v16c0 1.591.632 3.117 1.757 4.243 1.126 1.125 2.652 1.757 4.243 1.757h16c1.591 0 3.117-.632 4.243-1.757 1.125-1.126 1.757-2.652 1.757-4.243 0-4.724 0-11.276 0-16z" fill="#ef9b00"/><path d="m24.041 25.636c-.836-1.437-1.841-2.977-3.014-4.62l1.87-1.078c1.144 1.584 2.156 3.131 3.036 4.642zm-5.676.022c-.513-1.613-1.093-3.205-1.738-4.774l2.112-.594c.66 1.584 1.247 3.183 1.76 4.796zm-5.39.044c-.176-1.584-.433-3.197-.77-4.84l2.244-.33c.367 1.848.623 3.469.77 4.862zm-6.798-1.144c1.071-1.335 2.075-2.831 3.014-4.488l1.958.99c-.939 1.745-1.973 3.307-3.102 4.686zm17.248-10.142v3.388h2.2v1.892h-19.14v-1.892h2.2v-3.388h-2.64v-2.046h2.64v-1.54c-.22.22-.565.535-1.034.946l-1.716-1.276c1.804-1.613 3.329-3.41 4.576-5.39l2.112.55c-.308.587-.623 1.115-.946 1.584h13.508v1.936h-1.76v3.19h2.64v2.046zm-12.43-5.236v3.19h1.87v-3.19zm1.87 5.236h-1.87v3.388h1.87zm2.2 0v3.388h1.98v-3.388zm0-2.046h1.98v-3.19h-1.98zm4.18 2.046v3.388h1.87v-3.388zm0-2.046h1.87v-3.19h-1.87z" fill="#fff" fill-rule="nonzero"/></g></svg>