<svg clip-rule="evenodd" fill-rule="evenodd" stroke-linecap="round" stroke-linejoin="round" stroke-miterlimit="1.5" viewBox="0 0 32 32" xmlns="http://www.w3.org/2000/svg"><metadata/><path d="m0 0h32v32h-32z" fill="none"/><circle cx="16" cy="16" r="16"/><circle cx="16" cy="16" fill="#d0e3e6" r="14"/><path d="m14 19s.128.128.293.293c.453.453 1.067.707 1.707.707.64 0 1.254-.254 1.707-.707.165-.165.293-.293.293-.293" fill="none" stroke="#769ab6" stroke-width="2"/><path d="m11 23c1.281 1.281 3.017 2 4.828 2h.344c1.811 0 3.547-.719 4.828-2" fill="none" stroke="#769ab6" stroke-linejoin="miter" stroke-width="2"/><path d="m12.971 13c.029.261.029.502.029.502 0 .928-.369 1.817-1.025 2.473s-1.545 1.025-2.473 1.025h-.002c-1.27 0-2.382-.676-2.995-1.689.156-.311.778-1.608 2.495-2.311 1.366-.56 3.971 0 3.971 0z" fill="#fff"/><path d="m6.505 15.311c-.321-.528-.505-1.148-.505-1.811v-.544c0-.456.207-.887.563-1.172.693-.482 1.53-.784 2.437-.784h1c.907 0 1.744.302 2.415.811.348.278.551.7.551 1.145.002.015.004.03.005.044h-2.971v.983c0 1.105-.895 2-2 2-.595 0-1.129-.259-1.495-.672z"/><path d="m25.971 13c.029.261.029.502.029.502 0 .928-.369 1.817-1.025 2.473s-1.545 1.025-2.473 1.025h-.002c-1.27 0-2.382-.676-2.995-1.689.156-.311.778-1.608 2.495-2.311 1.366-.56 3.971 0 3.971 0z" fill="#fff"/><path d="m19.505 15.311c-.321-.528-.505-1.148-.505-1.811v-.544c0-.456.207-.887.563-1.172.693-.482 1.53-.784 2.437-.784h1c.907 0 1.744.302 2.415.811.348.278.551.7.551 1.145.002.015.004.03.005.044h-2.971v.983c0 1.105-.895 2-2 2-.595 0-1.129-.259-1.495-.672z"/></svg>