<svg clip-rule="evenodd" fill-rule="evenodd" stroke-miterlimit="5" viewBox="0 0 32 32" xmlns="http://www.w3.org/2000/svg" xmlns:xlink="http://www.w3.org/1999/xlink"><clipPath id="a"><path clip-rule="evenodd" d="m0 0h32v32h-32z"/></clipPath><metadata/><path d="m0 0h32v32h-32z" fill="none"/><g clip-path="url(#a)"><g fill="#8e8e8e" stroke="#000" stroke-width="4"><path d="m3 28 1 1 17-17-1-1z"/><path d="m19 12s.987-.987 1.828-1.828c.751-.751 1.172-1.768 1.172-2.829 0-.694 0-1.343 0-1.343 1.657 0 3-1.343 3-3 0-.574 0-1 0-1s0 0 .001.001c2.761 2.761 2.761 7.237 0 9.998-.349.349-.686.686-1.001 1.001-1.105 1.105-2.895 1.105-4 0z" stroke-linejoin="round"/><path d="m16.5 12.5c.276-.276.724-.276 1 0l2 2c.276.276.276.724 0 1-.276.276-.724.276-1 0-.555-.555-1.445-1.445-2-2-.276-.276-.276-.724 0-1z" stroke-linecap="square" stroke-linejoin="round" stroke-miterlimit="1.5"/></g><path d="m3 28 1 1 14-14v-1h-1z" fill="#6e4d31"/><path d="m19 12s.987-.987 1.828-1.828c.751-.751 1.172-1.768 1.172-2.829 0-.694 0-1.343 0-1.343 1.657 0 3-1.343 3-3 0-.574 0-1 0-1s0 0 .001.001c2.761 2.761 2.761 7.237 0 9.998-.349.349-.686.686-1.001 1.001-1.105 1.105-2.895 1.105-4 0l-1 1h-1v-1z" fill="#d1dee1"/><path d="m16.5 12.5c.276-.276.724-.276 1 0l2 2c.276.276.276.724 0 1-.276.276-.724.276-1 0-.555-.555-1.445-1.445-2-2-.276-.276-.276-.724 0-1z" fill="#758b95"/></g></svg>