<svg clip-rule="evenodd" fill-rule="evenodd" stroke-linejoin="round" stroke-miterlimit="2" viewBox="0 0 32 32" xmlns="http://www.w3.org/2000/svg"><metadata/><path d="m0 0h32v32h-32z" fill="none"/><circle cx="16" cy="16" r="16"/><circle cx="16" cy="16" fill="#c0f1fc" r="14"/><circle cx="16" cy="16" fill="#23c2e6" r="12"/><g fill="#c0f1fc"><path d="m3 15h26v2h-26z"/><path d="m4 21h24v2h-24z"/><path d="m4 9h24v2h-24z"/><path d="m16.09 2.001c.241.009.479.037.713.09 1.145.262 2.094 1.048 2.826 1.937.122.149.24.303.353.46.142.196.277.398.404.604.157.253.304.512.443.776.188.359.36.726.518 1.1.446 1.055.782 2.156 1.034 3.273.309 1.364.493 2.756.573 4.152.107 1.869.032 3.752-.244 5.603-.215 1.443-.551 2.872-1.051 4.243-.161.439-.338.872-.535 1.296-.149.319-.308.632-.481.939-.143.253-.294.501-.456.743-.131.197-.27.389-.415.576-.116.149-.237.294-.362.435-.715.799-1.625 1.482-2.695 1.7-.205.041-.415.066-.625.071s-.42-.008-.628-.04c-.149-.022-.296-.054-.44-.095-1.145-.321-2.077-1.151-2.794-2.071-.145-.187-.284-.379-.415-.576-.162-.242-.313-.49-.456-.743-.195-.346-.373-.701-.538-1.063-.194-.428-.369-.866-.527-1.309-.491-1.382-.82-2.82-1.026-4.271-.256-1.798-.324-3.625-.22-5.438.08-1.396.264-2.788.573-4.152.252-1.117.588-2.218 1.034-3.273.158-.374.33-.741.518-1.1.139-.264.286-.523.443-.776.127-.206.262-.408.404-.604.113-.157.231-.311.353-.46.713-.866 1.631-1.634 2.738-1.915.233-.06.47-.093.71-.108.091-.004.181-.005.271-.004zm-.13 2c-.093.003-.185.013-.277.031-.512.105-.959.433-1.328.789-.406.391-.746.848-1.042 1.326-.404.65-.73 1.347-1.003 2.061-.379.987-.657 2.011-.862 3.048-.254 1.287-.393 2.597-.435 3.909-.046 1.464.027 2.934.233 4.384.169 1.19.427 2.369.803 3.511.276.839.616 1.661 1.05 2.432.307.544.662 1.067 1.092 1.522.087.092.177.18.271.265.412.373.926.706 1.498.72.603.016 1.147-.33 1.578-.72.074-.067.146-.137.216-.208.455-.467.827-1.013 1.147-1.579.456-.81.808-1.676 1.091-2.559.369-1.151.621-2.34.783-3.537.198-1.455.262-2.929.206-4.396-.048-1.257-.186-2.511-.429-3.744-.205-1.037-.483-2.061-.862-3.048-.273-.714-.599-1.411-1.003-2.061-.283-.456-.606-.893-.987-1.273-.429-.425-.962-.814-1.581-.869-.053-.004-.106-.005-.159-.004z" fill-rule="nonzero"/></g></svg>