<svg clip-rule="evenodd" fill-rule="evenodd" stroke-linecap="round" stroke-linejoin="round" stroke-miterlimit="1.5" viewBox="0 0 32 32" xmlns="http://www.w3.org/2000/svg"><metadata/><g fill="none"><path d="m0 0h32v32h-32z"/><path d="m24 4 4 4-19 19s-1 1-2 2c-1.105 1.105-2.895 1.105-4 0-.531-.531-.829-1.25-.829-2s.298-1.469.829-2l.5-.5c.276-.276.724-.276 1 0 .276.276.276.724 0 1-.153.153-.326.326-.5.5-.552.552-.552 1.448 0 2 .552.552 1.448.552 2 0 .872-.872 2-2 2-2l-3-3z" stroke="#000" stroke-width="4"/><path d="m25 2 5 5-4 4-5-5z" stroke="#000" stroke-width="4"/><path d="m3 25 3-3" stroke="#000" stroke-linecap="butt" stroke-width="4"/><path d="m14 8v-3" stroke="#000" stroke-width="6"/><path d="m18 24v3" stroke="#000" stroke-width="6"/><path d="m8 14h-3" stroke="#000" stroke-width="6"/><path d="m24 18h3" stroke="#000" stroke-width="6"/><path d="m10 10-2-2" stroke="#000" stroke-width="6"/><path d="m22 22 2 2" stroke="#000" stroke-width="6"/></g><path d="m9 9h13v13h-13z"/><path d="m24 4 4 4-19 19s-1 1-2 2c-1.105 1.105-2.895 1.105-4 0-.531-.531-.829-1.25-.829-2s.298-1.469.829-2l.5-.5c.276-.276.724-.276 1 0 .276.276.276.724 0 1-.153.153-.326.326-.5.5-.552.552-.552 1.448 0 2 .552.552 1.448.552 2 0 .872-.872 2-2 2-2l-3-3z" fill="#3cf875"/><path d="m25 2 5 5-4 4-5-5z" fill="#75cf90"/><path d="m14 8v-3" fill="none" stroke="#3cf875" stroke-width="2"/><path d="m18 24v3" fill="none" stroke="#3cf875" stroke-width="2"/><path d="m8 14h-3" fill="none" stroke="#3cf875" stroke-width="2"/><path d="m24 18h3" fill="none" stroke="#3cf875" stroke-width="2"/><path d="m10 10-2-2" fill="none" stroke="#3cf875" stroke-width="2"/><path d="m22 22 2 2" fill="none" stroke="#3cf875" stroke-width="2"/></svg>