<svg clip-rule="evenodd" fill-rule="evenodd" stroke-linejoin="round" stroke-miterlimit="2" viewBox="0 0 32 32" xmlns="http://www.w3.org/2000/svg" xmlns:xlink="http://www.w3.org/1999/xlink"><clipPath id="a"><path clip-rule="evenodd" d="m0 0h32v32h-32z"/></clipPath><metadata/><path d="m0 0h32v32h-32z" fill="none"/><g clip-path="url(#a)"><path d="m0 8.757.399-.399 6.91 2.304c.063-.235.136-.468.218-.697.46-1.283 1.213-2.456 2.189-3.408.948-.925 2.1-1.635 3.353-2.066.625-.216 1.274-.362 1.931-.435.295-.033.591-.05.888-.055.114-.001.114-.001.228 0 .306.006.611.023.915.058.667.076 1.326.227 1.96.45 1.163.41 2.238 1.062 3.14 1.902 1.034.963 1.837 2.168 2.322 3.494.091.249.171.501.239.756l6.909-2.303.399.399v2.592c-.49 1.498-.978 2.997-1.505 4.483-.04.108-.081.216-.125.323-.247.58-.563 1.126-.953 1.622-.44.561-.967 1.054-1.555 1.456-.261.178-.533.336-.814.479l-2.459 1.23c-.18.605-.416 1.193-.706 1.753-.317.614-.698 1.189-1.131 1.726-.77.934-1.55 1.86-2.325 2.791-.207.241-.429.465-.676.666-.563.459-1.226.792-1.931.97-.357.09-.719.135-1.086.15-.45.007-.901.002-1.351.002-.316-.004-.629-.031-.94-.092-.709-.138-1.387-.431-1.973-.854-.297-.214-.563-.461-.81-.731-.807-.934-1.595-1.885-2.384-2.834-.3-.369-.577-.756-.824-1.162-.449-.74-.801-1.538-1.046-2.368-.871-.434-1.74-.872-2.602-1.323-.102-.055-.203-.112-.302-.171-.54-.326-1.035-.716-1.472-1.172-.513-.536-.939-1.154-1.259-1.823-.123-.259-.229-.525-.321-.796l-1.45-4.349v-2.568z"/><path d="m23 13c0-3.866-3.134-7-7-7-1.857 0-3.637.737-4.95 2.05s-2.05 3.093-2.05 4.95v5.138c0 1.883.665 3.707 1.877 5.148.762.906 1.606 1.91 2.224 2.645.57.678 1.41 1.069 2.296 1.069h1.198c.89 0 1.735-.395 2.305-1.079.624-.75 1.478-1.775 2.246-2.696 1.198-1.438 1.854-3.25 1.854-5.121z" fill="#77b84c"/><path d="m29.5 12.5.5-1.5-8 2.667v6.333l1.714-.857z" fill="#77b84c"/><path d="m29.5 12.5-2.938.979c-.973.325-1.713 1.124-1.961 2.119l-.887 3.545 2.434-1.217c1.186-.593 2.088-1.633 2.507-2.891z" fill="#618e29"/><path d="m2.5 12.5-.5-1.5 8 2.667v6.333l-1.714-.857z" fill="#77b84c"/><path d="m2.5 12.5 2.938.979c.973.325 1.713 1.124 1.961 2.119l.887 3.545-2.434-1.217c-1.186-.593-2.088-1.633-2.507-2.891z" fill="#618e29"/><path d="m19.707 22.707c-.087.087-.173.175-.265.258-.122.11-.25.213-.384.308-.454.318-.973.541-1.517.65-.226.045-.454.067-.684.076-.571.007-1.143.007-1.714 0-.23-.009-.458-.031-.684-.076-.544-.109-1.063-.332-1.516-.65-.135-.095-.263-.198-.385-.308-.092-.083-.178-.171-.265-.258l1.414-1.414c.064.064.127.128.193.19.037.032.075.064.114.095.235.178.5.308.789.373.128.029.258.043.39.048.538.007 1.076.007 1.614 0 .395-.014.776-.135 1.1-.363.143-.1.263-.22.386-.343zm-1-4-2.707 2.707-2.707-2.707 1.414-1.414 1.293 1.293 1.293-1.293z" fill="#456e17"/><path d="m10.748 15.832c-.367-.244-.53-.7-.402-1.122.127-.422.516-.71.957-.71h1.828c.369 0 .708.203.882.528s.155.72-.049 1.027c-.166.248-.33.494-.474.71-.28.42-.828.566-1.28.34-.559-.279-1.21-.605-1.21-.605s-.095-.064-.252-.168zm10.504 0c.367-.244.53-.7.402-1.122-.127-.422-.516-.71-.957-.71-.628 0-1.265 0-1.828 0-.369 0-.708.203-.882.528s-.155.72.049 1.027c.166.248.33.494.474.71.28.42.828.566 1.28.34.559-.279 1.21-.605 1.21-.605s.095-.064.252-.168z"/></g></svg>