<svg clip-rule="evenodd" fill-rule="evenodd" stroke-linecap="square" stroke-linejoin="round" stroke-miterlimit="3" viewBox="0 0 32 32" xmlns="http://www.w3.org/2000/svg" xmlns:xlink="http://www.w3.org/1999/xlink"><clipPath id="a"><path clip-rule="evenodd" d="m8 12h16v13h-16z"/></clipPath><metadata/><path d="m0 0v32h32v-32z" fill="none"/><path d="m8 16-6-3 14-7 14 7-6 3v5c0 1.656-3.585 3-8 3-1.891 0-3.63-.247-5-.659v2.659h-4v-3l1-1z" fill="none" stroke="#000" stroke-width="4"/><path d="m8 18.236h16v2.764c0 1.656-3.585 3-8 3s-8-1.344-8-3z" fill="#343434"/><path d="m8 12h16v13h-16z" fill="none"/><g clip-path="url(#a)"><path d="m2 13 14-7 14 7-14 7z" fill="none" stroke="#2c2c2c" stroke-width="4"/></g><path d="m2 13 14-7 14 7-14 7z" fill="#4b4b4b"/><path d="m16 13-7 4v7" fill="none" stroke="#b38d00" stroke-linecap="round" stroke-width="2"/><path d="m9 21-2 2v3h4v-3z" fill="#b38d00"/></svg>