<svg clip-rule="evenodd" fill-rule="evenodd" stroke-miterlimit="5" viewBox="0 0 32 32" xmlns="http://www.w3.org/2000/svg" xmlns:xlink="http://www.w3.org/1999/xlink"><clipPath id="a"><path clip-rule="evenodd" d="m0 0h32v32h-32z"/></clipPath><metadata/><path d="m0 0h32v32h-32z" fill="none"/><g clip-path="url(#a)"><g fill="#8e8e8e" stroke="#000" stroke-width="4"><path d="m3 27 2 2 19-19-2-2z"/><path d="m22 11s.582.582 1.233 1.233c.45.45 1.07.687 1.705.652s1.225-.339 1.623-.836c1.122-1.403 2.439-3.049 2.439-3.049s.138.896.341 2.218c.388 2.518-.448 5.071-2.25 6.873s-4.355 2.638-6.873 2.25c-1.322-.203-2.218-.341-2.218-.341s1.646-1.317 3.049-2.439c.497-.398.801-.988.836-1.623s-.202-1.255-.652-1.705c-.651-.651-1.233-1.233-1.233-1.233z" stroke-linejoin="round"/><path d="m19 12s-.582-.582-1.233-1.233c-.45-.45-1.07-.687-1.705-.652s-1.225.339-1.623.836c-1.122 1.403-2.439 3.049-2.439 3.049s-.138-.896-.341-2.218c-.388-2.518.448-5.071 2.25-6.873s4.355-2.638 6.873-2.25c1.322.203 2.218.341 2.218.341s-1.646 1.317-3.049 2.439c-.497.398-.801.988-.836 1.623s.202 1.255.652 1.705c.651.651 1.233 1.233 1.233 1.233z" stroke-linejoin="round"/></g><path d="m13.087 12.642-1.087 1.358s-.138-.896-.341-2.218c-.388-2.518.448-5.071 2.25-6.873s4.355-2.638 6.873-2.25c1.322.203 2.218.341 2.218.341l-1.358 1.087c-.195-.03-3.453.714-5.642 2.913-1.991 2-2.941 5.464-2.913 5.642z" fill="#e1f1f4"/><path d="m13.087 12.642c-.057-.373-.087-.754-.087-1.142 0-4.139 3.361-7.5 7.5-7.5.388 0 .769.03 1.142.087l-1.691 1.352c-.497.398-.801.988-.836 1.623s.202 1.255.652 1.705c.651.651 1.233 1.233 1.233 1.233l-2 2s-.582-.582-1.233-1.233c-.45-.45-1.07-.687-1.705-.652s-1.225.339-1.623.836z" fill="#98bdd0"/><path d="m19.358 18.913-1.358 1.087s.896.138 2.218.341c2.518.388 5.071-.448 6.873-2.25s2.638-4.355 2.25-6.873c-.203-1.322-.341-2.218-.341-2.218l-1.087 1.358c.03.195-.714 3.453-2.913 5.642-2 1.991-5.464 2.941-5.642 2.913z" fill="#e1f1f4"/><path d="m19.358 18.913c.373.057.754.087 1.142.087 4.139 0 7.5-3.361 7.5-7.5 0-.388-.03-.769-.087-1.142l-1.352 1.691c-.398.497-.988.801-1.623.836s-1.255-.202-1.705-.652c-.651-.651-1.233-1.233-1.233-1.233l-2 2s.582.582 1.233 1.233c.45.45.687 1.07.652 1.705s-.339 1.225-.836 1.623z" fill="#98bdd0"/><path d="m17 13v2h2l5-5-2-2z" fill="#e1f1f4"/><path d="m17 13 2 2-14 14-2-2z" fill="#6e4d31"/></g></svg>