<svg clip-rule="evenodd" fill-rule="evenodd" stroke-linecap="round" stroke-linejoin="round" stroke-miterlimit="1.5" viewBox="0 0 32 32" xmlns="http://www.w3.org/2000/svg" xmlns:xlink="http://www.w3.org/1999/xlink"><clipPath id="a"><path clip-rule="evenodd" d="m8 11h8v7h-8z"/></clipPath><metadata/><path d="m0 0h32v32h-32z" fill="none"/><path d="m2 7h28v18h-28z" fill="none" stroke="#000" stroke-width="4"/><path d="m29 21h-26l-1 1v3h28v-3z" fill="#60ae33"/><path d="m2 7h28v15h-28z" fill="#80c95b"/><g fill="#5da436"><path d="m8.5 9.5c0-.828-.672-1.5-1.5-1.5h-2.5c-.398 0-.779.158-1.061.439-.281.282-.439.663-.439 1.061 0 .828.672 1.5 1.5 1.5h2.5c.828 0 1.5-.672 1.5-1.5z"/><path d="m8.5 19.5c0-.828-.672-1.5-1.5-1.5h-2.5c-.398 0-.779.158-1.061.439-.281.282-.439.663-.439 1.061 0 .828.672 1.5 1.5 1.5h2.5c.828 0 1.5-.672 1.5-1.5z"/><path d="m29 9.5c0-.828-.672-1.5-1.5-1.5h-2.5c-.398 0-.779.158-1.061.439-.281.282-.439.663-.439 1.061 0 .828.672 1.5 1.5 1.5h2.5c.828 0 1.5-.672 1.5-1.5z"/><path d="m29 19.5c0-.828-.672-1.5-1.5-1.5h-2.5c-.398 0-.779.158-1.061.439-.281.282-.439.663-.439 1.061 0 .828.672 1.5 1.5 1.5h2.5c.828 0 1.5-.672 1.5-1.5z"/><path d="m21 14c0-.552-.448-1-1-1s-1 .448-1 1v1c0 .552.448 1 1 1s1-.448 1-1c0-.322 0-.678 0-1z"/><path d="m24 14c0-.552-.448-1-1-1s-1 .448-1 1v1c0 .552.448 1 1 1s1-.448 1-1c0-.322 0-.678 0-1z"/></g><path d="m8 11h8v7h-8z" fill="none"/><g clip-path="url(#a)" fill="#fff"><path d="m16 14h-8v-1h8z"/><path d="m16 16h-8v-1h8z"/><path d="m15 10.335v7.665h-1v-4.5l-1.771 4.25h-.458l-1.771-4.25v4.5h-1v-7.665l.706-.141 2.294 5.506 2.294-5.506z"/></g><path d="m27 20h-22v-11h22zm-21-10v9h20v-9z" fill="#5da436"/><path d="m20 22-1-1h-6l-1 1v3h8z" fill="#d9d9d9"/><path d="m12 7h8v15h-8z" fill="#fff"/></svg>