<svg clip-rule="evenodd" fill-rule="evenodd" stroke-linejoin="round" stroke-miterlimit="2" viewBox="0 0 32 32" xmlns="http://www.w3.org/2000/svg" xmlns:xlink="http://www.w3.org/1999/xlink"><clipPath id="a"><path clip-rule="evenodd" d="m0 0h32v32h-32z"/></clipPath><metadata/><path d="m0 0h32v32h-32z" fill="none"/><g clip-path="url(#a)"><path d="m28 30c0 .53-.211 1.039-.586 1.414s-.884.586-1.414.586c-4.692 0-16.012 0-16.012 0l-.137-.002c-.198-.007-.394-.019-.591-.044-.486-.06-.964-.18-1.42-.356-.733-.283-1.408-.71-1.976-1.251-.677-.644-1.198-1.445-1.513-2.324-.148-.415-.251-.846-.305-1.283-.025-.197-.037-.393-.044-.591-.083-6.72-.002-13.441-.002-20.161.002-.194.01-.388.029-.581.049-.487.157-.969.322-1.43.315-.879.836-1.68 1.513-2.324.604-.575 1.328-1.021 2.113-1.302.461-.165.943-.273 1.43-.322.193-.019.387-.027.581-.029h16.012c.53 0 1.039.211 1.414.586s.586.884.586 1.414z"/><path d="m26 2h-16c-1.061 0-2.078.421-2.828 1.172-.751.75-1.172 1.767-1.172 2.828v20h19l1-4z" fill="#4cbf1e"/><path d="m26 22h-16c-1.061 0-2.078.421-2.828 1.172-.751.75-1.172 1.767-1.172 2.828 0 2.209 1.791 4 4 4h16z" fill="#337c13"/><path d="m26 24h-16.002c-1.103 0-1.998.895-1.998 1.998v.002c0 .53.211 1.039.586 1.414s.884.586 1.414.586h16z" fill="#fff"/><g fill="#337c13"><path d="m11 7h12v2h-12z"/><path d="m11 10h12v2h-12z"/></g></g></svg>