<svg clip-rule="evenodd" fill-rule="evenodd" stroke-linejoin="round" stroke-miterlimit="2" viewBox="0 0 32 32" xmlns="http://www.w3.org/2000/svg" xmlns:xlink="http://www.w3.org/1999/xlink"><clipPath id="a"><path clip-rule="evenodd" d="m0 .008h32v32h-32z"/></clipPath><metadata/><path d="m0 .008h32v32h-32z" fill="none"/><g clip-path="url(#a)"><path d="m16 .008c4.243 0 8.313 1.686 11.314 4.687 3 3 4.686 7.07 4.686 11.313v3c0 7.18-5.82 13-13 13-1.972 0-4.028 0-6 0-7.18 0-13-5.82-13-13v-3c0-8.836 7.163-16 16-16z"/><path d="m30 16.008c0-3.713-1.475-7.274-4.101-9.899-2.625-2.626-6.186-4.101-9.899-4.101-7.732 0-14 6.268-14 14v3c0 6.075 4.925 11 11 11h6c6.075 0 11-4.925 11-11z" fill="#fbc546"/><path d="m9.5 17.008c1.933 0 3.5-1.567 3.5-3.5v-2c0-1.933-1.567-3.5-3.5-3.5h-.002c-.928 0-1.817.369-2.473 1.025s-1.025 1.546-1.025 2.473v2.002c0 1.933 1.567 3.5 3.5 3.5z" fill="#fff"/><path d="m8 11.008c0-.53.211-1.039.586-1.414s.884-.586 1.414-.586 1.039.211 1.414.586.586.884.586 1.414v2.984c0 .53-.211 1.039-.586 1.414s-.884.586-1.414.586-1.039-.211-1.414-.586-.586-.884-.586-1.414c0-.936 0-2.048 0-2.984z"/><path d="m22.5 17.008c-1.933 0-3.5-1.567-3.5-3.5v-2c0-1.933 1.567-3.5 3.5-3.5h.002c.928 0 1.817.369 2.473 1.025s1.025 1.546 1.025 2.473v2.002c0 1.933-1.567 3.5-3.5 3.5z" fill="#fff"/><path d="m24 11.008c0-.53-.211-1.039-.586-1.414s-.884-.586-1.414-.586-1.039.211-1.414.586-.586.884-.586 1.414v2.984c0 .53.211 1.039.586 1.414s.884.586 1.414.586 1.039-.211 1.414-.586.586-.884.586-1.414c0-.936 0-2.048 0-2.984z"/><path d="m26 21.008c0-.795-.316-1.558-.879-2.121-.562-.563-1.325-.879-2.121-.879-3.776 0-10.224 0-14 0-.796 0-1.559.316-2.121.879-.563.563-.879 1.326-.879 2.121v1c0 .796.316 1.559.879 2.122.562.562 1.325.878 2.121.878h14c.796 0 1.559-.316 2.121-.878.563-.563.879-1.326.879-2.122 0-.331 0-.668 0-1z" fill="#7e5108"/><path d="m23.98 19.265c.158.089.304.199.434.329.375.375.586.884.586 1.414v1c0 .531-.211 1.039-.586 1.415-.327.327-.757.529-1.214.575-.002-.564-2.627-.505-2.627-.505h-9.146s-1.628.038-2.627.505c-.457-.046-.887-.248-1.214-.575-.375-.376-.586-.884-.586-1.415v-1c0-.53.211-1.039.586-1.414.13-.13.276-.24.434-.329 1.521.86 3.104.886 3.104.886h9.752s1.923-.148 3.104-.886z" fill="#707070"/><path d="m8.8 23.998c.002-.564.228-1.106.627-1.505.402-.402.947-.628 1.515-.628h10.116c.568 0 1.113.226 1.515.628.399.399.625.941.627 1.505-.066.007-.133.01-.2.01-3.463 0-10.537 0-14 0-.067 0-.134-.003-.2-.01zm-.78-4.733c.297-.167.634-.257.98-.257h14c.346 0 .683.09.98.257-.597 1.152-1.791 1.886-3.104 1.886-2.682 0-7.07 0-9.752 0-1.313 0-2.507-.734-3.104-1.886z" fill="#fff"/></g></svg>