<svg clip-rule="evenodd" fill-rule="evenodd" stroke-linejoin="round" stroke-miterlimit="2" viewBox="0 0 32 32" xmlns="http://www.w3.org/2000/svg" xmlns:xlink="http://www.w3.org/1999/xlink"><clipPath id="a"><path clip-rule="evenodd" d="m0 0h32v32h-32z"/></clipPath><metadata/><path d="m0 0h32v32h-32z" fill="none"/><g clip-path="url(#a)"><path d="m16 0c4.243 0 8.313 1.686 11.314 4.686 3 3.001 4.686 7.071 4.686 11.314v1c0 8.284-6.716 15-15 15h-2c-8.284 0-15-6.716-15-15v-1c0-8.837 7.163-16 16-16z"/><path d="m30 16c0-3.713-1.475-7.274-4.101-9.899-2.625-2.626-6.186-4.101-9.899-4.101-7.732 0-14 6.268-14 14v1c0 7.18 5.82 13 13 13h2c7.18 0 13-5.82 13-13z" fill="#fbc546"/><path d="m5.789 13.713c.187.187.441.292.706.292s.519-.105.706-.292c.004-.004.007-.006.007-.006.608-.608 1.432-.95 2.292-.95s1.684.342 2.292.95c0 0 .003.002.007.006.187.187.441.292.706.292s.519-.105.706-.292c.001 0 .001-.001.001-.001.391-.39.391-1.024 0-1.414-.003-.004-.005-.006-.005-.006-.983-.983-2.317-1.535-3.707-1.535s-2.724.552-3.707 1.535c0 0-.002.002-.005.006-.391.39-.391 1.024 0 1.414 0 0 0 .001.001.001z"/><path d="m26.211 13.713c-.187.187-.441.292-.706.292s-.519-.105-.706-.292c-.004-.004-.007-.006-.007-.006-.608-.608-1.432-.95-2.292-.95s-1.684.342-2.292.95c0 0-.003.002-.007.006-.187.187-.441.292-.706.292s-.519-.105-.706-.292c-.001 0-.001-.001-.001-.001-.391-.39-.391-1.024 0-1.414.003-.004.005-.006.005-.006.983-.983 2.317-1.535 3.707-1.535s2.724.552 3.707 1.535c0 0 .002.002.005.006.391.39.391 1.024 0 1.414 0 0 0 .001-.001.001z"/><path d="m9.745 23.123c-2.28-1.444-4.034-3.613-4.544-6.123h21.598c-.51 2.51-2.264 4.679-4.544 6.123-1.117-1.318-11.393-1.318-12.51 0z" fill="#722245"/><path d="m9.745 23.123c1.117-1.318 2.778-2.123 4.58-2.123h3.35c1.802 0 3.463.805 4.58 2.123-1.864 1.181-4.08 1.877-6.255 1.877s-4.391-.696-6.255-1.877z" fill="#ca3b8f"/></g></svg>