<svg clip-rule="evenodd" fill-rule="evenodd" stroke-miterlimit="3" viewBox="0 0 32 32" xmlns="http://www.w3.org/2000/svg" xmlns:xlink="http://www.w3.org/1999/xlink"><clipPath id="a"><path clip-rule="evenodd" d="m0 0h32v32h-32z"/></clipPath><metadata/><path d="m0 0h32v32h-32z" fill="none"/><g clip-path="url(#a)"><path d="m16 0c4.243 0 8.313 1.686 11.314 4.686 3 3.001 4.686 7.071 4.686 11.314v1c0 8.284-6.716 15-15 15h-2c-8.284 0-15-6.716-15-15v-1c0-8.837 7.163-16 16-16z"/><path d="m30 16c0-3.713-1.475-7.274-4.101-9.899-2.625-2.626-6.186-4.101-9.899-4.101-7.732 0-14 6.268-14 14v1c0 7.18 5.82 13 13 13h2c7.18 0 13-5.82 13-13z" fill="#fbc546"/><path d="m5.789 14.713c.187.187.441.292.706.292s.519-.105.706-.292c.004-.004.007-.006.007-.006.608-.608 1.432-.95 2.292-.95s1.684.342 2.292.95c0 0 .003.002.007.006.187.187.441.292.706.292s.519-.105.706-.292c.001 0 .001-.001.001-.001.391-.39.391-1.024 0-1.414-.003-.004-.005-.006-.005-.006-.983-.983-2.317-1.535-3.707-1.535s-2.724.552-3.707 1.535c0 0-.002.002-.005.006-.391.39-.391 1.024 0 1.414 0 0 0 .001.001.001z"/><path d="m26.211 14.713c-.187.187-.441.292-.706.292s-.519-.105-.706-.292c-.004-.004-.007-.006-.007-.006-.608-.608-1.432-.95-2.292-.95s-1.684.342-2.292.95c0 0-.003.002-.007.006-.187.187-.441.292-.706.292s-.519-.105-.706-.292c-.001 0-.001-.001-.001-.001-.391-.39-.391-1.024 0-1.414.003-.004.005-.006.005-.006.983-.983 2.317-1.535 3.707-1.535s2.724.552 3.707 1.535c0 0 .002.002.005.006.391.39.391 1.024 0 1.414 0 0 0 .001-.001.001z"/><path d="m25.799 18c-.926 4.562-4.964 8-9.799 8s-8.873-3.438-9.799-8z" fill="none" stroke="#7e5108" stroke-width="2"/><path d="m25.696 18.452c-.433 1.719-1.312 3.261-2.507 4.496-.547-.583-13.749-.632-14.311-.07-.023.023-.045.046-.067.07-1.195-1.236-2.074-2.778-2.507-4.496 1.121 1.595 18.271 1.595 19.392 0z" fill="#707070"/><path d="m8.811 22.948c.022-.024.044-.047.067-.07.562-.562 1.325-.878 2.12-.878h10.002c.863 0 1.642.365 2.189.948-1.819 1.882-4.368 3.052-7.189 3.052s-5.371-1.171-7.189-3.052zm-2.507-4.496c-.038-.149-.072-.3-.103-.452h19.598c-.031.152-.065.303-.103.452-1.121 1.595-2.951 2.548-4.907 2.548-2.784 0-6.794 0-9.578 0-1.956 0-3.786-.953-4.907-2.548z" fill="#fff"/></g></svg>