<svg clip-rule="evenodd" fill-rule="evenodd" stroke-linecap="round" stroke-linejoin="round" stroke-miterlimit="1.5" viewBox="0 0 32 32" xmlns="http://www.w3.org/2000/svg"><metadata/><path d="m0 0h32v32h-32z" fill="none"/><path d="m16 28s-6.877-6.877-11.751-11.751c-2.623-2.623-2.623-6.875 0-9.498l.002-.002c1.26-1.26 2.968-1.967 4.749-1.967s3.489.707 4.749 1.967c1.247 1.247 2.251 2.251 2.251 2.251s1.004-1.004 2.251-2.251c1.26-1.26 2.968-1.967 4.749-1.967s3.489.707 4.749 1.967c.001.001.001.001.002.002 2.623 2.623 2.623 6.875 0 9.498-4.874 4.874-11.751 11.751-11.751 11.751z" fill="none" stroke="#000" stroke-width="4"/><path d="m16 28s-6.877-6.877-11.751-11.751c-2.623-2.623-2.623-6.875 0-9.498l.002-.002c1.26-1.26 2.968-1.967 4.749-1.967s3.489.707 4.749 1.967c1.247 1.247 2.251 2.251 2.251 2.251s1.004-1.004 2.251-2.251c1.26-1.26 2.968-1.967 4.749-1.967s3.489.707 4.749 1.967c.001.001.001.001.002.002 2.623 2.623 2.623 6.875 0 9.498-4.874 4.874-11.751 11.751-11.751 11.751z" fill="#ff4586"/><path d="m16 25.247s-5.184-5.184-8.811-8.81c-1.905-1.906-1.905-4.996 0-6.902h.001c.915-.916 2.157-1.43 3.451-1.43s2.535.514 3.45 1.43c1.039 1.038 1.909 1.908 1.909 1.908s.87-.87 1.909-1.908c.915-.916 2.156-1.43 3.45-1.43s2.536.514 3.451 1.43h.001c1.905 1.906 1.905 4.996 0 6.902-3.627 3.626-8.811 8.81-8.811 8.81z" fill="#ae0b6d"/><path d="m16 20.884s-2.953-2.954-4.927-4.927c-.957-.957-.957-2.509 0-3.467.001 0 .002-.001.003-.002.957-.957 2.509-.957 3.466 0 .75.749 1.458 1.458 1.458 1.458s.708-.709 1.458-1.458c.957-.957 2.509-.957 3.466 0 .001.001.002.002.003.002.957.958.957 2.51 0 3.467-1.974 1.973-4.927 4.927-4.927 4.927z" fill="#670640"/></svg>