<svg clip-rule="evenodd" fill-rule="evenodd" stroke-miterlimit="1.5" viewBox="0 0 32 32" xmlns="http://www.w3.org/2000/svg" xmlns:xlink="http://www.w3.org/1999/xlink"><clipPath id="a"><path clip-rule="evenodd" d="m0 0h32v32h-32z"/></clipPath><metadata/><path d="m0 0h32v32h-32z" fill="none"/><g clip-path="url(#a)"><g fill="none" stroke="#000" stroke-width="4"><path d="m5 14 9 2v-6h-10v2z"/><path d="m14 7s-2.81 0-4.584 0c-.931 0-1.85.217-2.683.633-1.76.881-4.733 2.367-4.733 2.367l3 6v-3h9z" stroke-linejoin="round"/><path d="m30 14c0-2.387-.948-4.676-2.636-6.364s-3.977-2.636-6.364-2.636c-.586 0-1.141 0-1.639 0-1.553 0-3.084.361-4.472 1.056-.962.48-1.889.944-1.889.944v6.757c0 .796.316 1.559.879 2.122l.535.535c.375.375.586.884.586 1.414v3.172l12 4 3 3s0-2.821 0-4.882c0-1.399-.267-2.786-.787-4.085-.56-1.4-1.213-3.033-1.213-3.033l2 1s0-1.278 0-3z" stroke-linejoin="round"/><path d="m27 25h-12.846-2.154v5h15z"/><path d="m14 16h3v14h-5v-3l-2 2s0-.622 0-1.494c0-3.416 1.792-6.581 4.721-8.339.173-.104.279-.29.279-.492 0-.23 0-.549 0-.847 0-.53-.211-1.039-.586-1.414-.218-.218-.414-.414-.414-.414z" stroke-linejoin="round"/><path d="m20 5h10s-1.169 1.169-2.243 2.243c-1.125 1.125-2.651 1.757-4.242 1.757-1.651 0-3.515 0-3.515 0z" stroke-linejoin="round"/></g><path d="m5 14 9 2v-6h-10v2z" fill="#726123"/><path d="m14 7s-2.81 0-4.584 0c-.931 0-1.85.217-2.683.633-1.76.881-4.733 2.367-4.733 2.367l3 6v-3h9z" fill="#a48233"/><path d="m30 14c0-2.387-.948-4.676-2.636-6.364s-3.977-2.636-6.364-2.636c-.586 0-1.141 0-1.639 0-1.553 0-3.084.361-4.472 1.056-.962.48-1.889.944-1.889.944v6.757c0 .796.316 1.559.879 2.122l.535.535c.375.375.586.884.586 1.414v2.172c0 .649-.211 1.281-.6 1.8-.344.458-.788 1.05-1.2 1.6-.779 1.039-1.2 2.302-1.2 3.6v3h15v-5l3 3s0-2.821 0-4.882c0-1.399-.267-2.786-.787-4.085-.56-1.4-1.213-3.033-1.213-3.033l2 1s0-1.278 0-3z" fill="#835118"/><path d="m14 16h.001c1.819 0 3.464 1.084 4.18 2.756.84 1.959 1.819 4.244 1.819 4.244h-2l2.333 7h-8.333v-3l-2 2s0-.622 0-1.494c0-3.416 1.792-6.581 4.721-8.339.173-.104.279-.29.279-.492 0-.23 0-.549 0-.847 0-.53-.211-1.039-.586-1.414-.218-.218-.414-.414-.414-.414z" fill="#c69359"/><path d="m20 5h10s-1.169 1.169-2.243 2.243c-1.125 1.125-2.651 1.757-4.242 1.757-1.651 0-3.515 0-3.515 0z" fill="#835118"/><path d="m12 8.5c0-.133-.053-.26-.146-.354-.094-.093-.221-.146-.354-.146-.305 0-.695 0-1 0-.133 0-.26.053-.354.146-.093.094-.146.221-.146.354s.053.26.146.354c.094.093.221.146.354.146h1c.133 0 .26-.053.354-.146.093-.094.146-.221.146-.354z" fill="#726123"/><path d="m17 9h2c1.105 0 2-.895 2-2s-1.815 0-3 0c-.552 0-1 .448-1 1z"/></g></svg>