<svg clip-rule="evenodd" fill-rule="evenodd" stroke-linecap="round" stroke-linejoin="round" stroke-miterlimit="1.5" viewBox="0 0 32 32" xmlns="http://www.w3.org/2000/svg" xmlns:xlink="http://www.w3.org/1999/xlink"><clipPath id="a"><path clip-rule="nonzero" d="m22.086 11.004c.069.008.087.009.155.025.127.032.248.089.353.166.345.255.49.715.355 1.121-.033.1-.082.194-.144.278-.063.084-.138.159-.223.219-.057.041-.074.048-.135.081l-16 8c-.063.029-.079.038-.145.059-.1.032-.205.048-.31.047-.104-.001-.209-.018-.308-.051-.407-.136-.687-.528-.684-.957.001-.104.018-.209.051-.308.058-.174.165-.331.305-.449.061-.052.127-.091.197-.129l16-8c.072-.033.143-.062.221-.08.068-.016.086-.016.155-.023.079-.003.078-.003.157.001z"/></clipPath><clipPath id="b"><path clip-rule="evenodd" d="m11.098 17.196c1.778 3.557 5.414 5.804 9.391 5.804h.511c3.866 0 7 3.134 7 7h-11c-7.18 0-13-5.82-13-13 0-2.312 0-4 0-4s.118.471.272 1.09c.428 1.71 1.965 2.91 3.728 2.91v-6s1.566 3.132 3.098 6.196z"/></clipPath><metadata/><path d="m0 0h32v32h-32z" fill="none"/><path d="m22.09 9.001.135.007.134.014.133.019.132.025.131.031.13.036.127.043.126.048.123.054.121.059.118.065.115.07.112.075.108.08.105.085.101.089.096.094.093.098.087.102.084.106.078.109.073.113.068.116.063.119.058.122.052.124.046.127.041.128.035.13.029.132.023.132.017.134.011.134.005.134-.001.135-.007.135-.013.134-.02.133-.025.132-.031.131-.036.13-.043.127-.048.126-.054.123-.059.121-.065.118-.07.115-.075.112-.08.108-.085.105-.089.101-.094.096-.098.093-.102.087-.106.084-.109.078-.113.073-.116.068-.119.063-15.5 7.75-.122.058-.124.052-.127.046-.128.041-.13.035-.132.029-.132.023-.134.017-.134.011-.134.005-.135-.001-.135-.007-.134-.013-.133-.02-.132-.025-.131-.031-.13-.036-.127-.043-.126-.048-.123-.054-.121-.059-.118-.065-.115-.07-.112-.075-.108-.08-.105-.085-.101-.089-.096-.094-.093-.098-.087-.102-.084-.106-.078-.109-.073-.113-.068-.116-.063-.119-.058-.122-.052-.124-.046-.127-.041-.128-.035-.13-.029-.132-.023-.132-.017-.134-.011-.134-.005-.134.001-.135.007-.135.013-.134.02-.133.025-.132.031-.131.036-.13.043-.127.048-.126.054-.123.059-.121.065-.118.07-.115.075-.112.08-.108.085-.105.089-.101.094-.096.098-.093.102-.087.106-.084.109-.078.113-.073.116-.068.119-.063 15.5-7.75.122-.058.124-.052.127-.046.128-.041.13-.035.132-.029.132-.023.134-.017.134-.011.134-.005z"/><path d="m6.162 3.004.136.011.135.016.135.023.133.029.132.035.131.041.128.047.126.052.124.059 16 8 .12.064.118.069.115.074.11.08.108.085.103.089.099.094.095.099.09.102.085.107.08.11.076.114.07.118.064.12.059.123.053.126.048.128.042.13.036.132.029.133.024.135.017.135.012.136.005.137-.001.136-.008.137-.013.136-.02.135-.026.134-.032.133-.038.131-.044.129-.049.127-.056.125-.061.122-.067.12-.071.116-.078.112-.082.11-.087.105-.092.101-.096.097-.101.092-.104.088-.109.083-.112.078-.116.072-.119.067-.121.062-.125.057-.127.05-.129.045-.131.038-.132.033-.134.027-.135.02-.136.015-.136.008-.137.002-.137-.004-.136-.011-.135-.016-.135-.023-.133-.029-.132-.035-.131-.041-.128-.047-.126-.052-.124-.059-16-8-.12-.064-.118-.069-.115-.074-.11-.08-.108-.085-.103-.089-.099-.094-.095-.099-.09-.102-.085-.107-.08-.11-.076-.114-.07-.118-.064-.12-.059-.123-.053-.126-.048-.128-.042-.13-.036-.132-.029-.133-.024-.135-.017-.135-.012-.136-.005-.137.001-.136.008-.137.013-.136.02-.135.026-.134.032-.133.038-.131.044-.129.049-.127.056-.125.061-.122.067-.12.071-.116.078-.112.082-.11.087-.105.092-.101.096-.097.101-.092.104-.088.109-.083.112-.078.116-.072.119-.067.121-.062.125-.057.127-.05.129-.045.131-.038.132-.033.134-.027.135-.02.136-.015.136-.008.137-.002.137.004z"/><circle cx="23.5" cy="10" r="2.5"/><path d="m23.64 4.502.141.005.139.009.139.012.138.016.137.019.136.023.136.026.134.029.133.032.131.036.131.039.129.042.127.045.127.048.124.051.123.053.121.057.12.06.118.062.116.065.114.067.113.071.11.073.109.075.106.077.105.081.103.082.1.085.099.088.096.089.094.092.092.094.089.097.088.098.085.1.082.103.081.105.077.106.076.109.072.11.071.113.067.114.065.116.062.118.06.12.057.121.053.123.051.124.048.127.045.127.042.129.039.131.036.131.032.133.029.134.026.136.023.136.019.137.016.138.012.139.009.139.005.14.002.141-.002.141-.005.14-.009.139-.012.139-.016.138-.019.137-.023.136-.026.136-.029.134-.032.133-.036.131-.039.131-.042.129-.045.127-.048.127-.051.124-.053.123-.057.121-.06.12-.062.118-.065.116-.067.114-.071.113-.072.11-.076.109-.077.106-.081.105-.082.103-.085.1-.088.098-.089.097-.092.094-.094.092-.096.089-.099.088-.1.085-.103.082-.105.081-.106.077-.109.075-.11.073-.113.071-.114.067-.116.065-.118.062-.12.06-.121.057-.123.053-.124.051-.127.048-.127.045-.129.042-.131.039-.131.036-.133.032-.134.029-.136.026-.136.023-.137.019-.138.016-.139.012-.139.009-.141.005-.14.002-.14-.002-.141-.005-.139-.009-.139-.012-.138-.016-.137-.019-.136-.023-.136-.026-.134-.029-.133-.032-.131-.036-.131-.039-.129-.042-.127-.045-.127-.048-.124-.051-.123-.053-.121-.057-.12-.06-.118-.062-.116-.065-.114-.067-.113-.071-.11-.073-.109-.075-.106-.077-.105-.081-.103-.082-.1-.085-.099-.088-.096-.089-.094-.092-.092-.094-.089-.097-.088-.098-.085-.1-.082-.103-.081-.105-.077-.106-.076-.109-.072-.11-.071-.113-.067-.114-.065-.116-.062-.118-.06-.12-.057-.121-.053-.123-.051-.124-.048-.127-.045-.127-.042-.129-.039-.131-.036-.131-.032-.133-.029-.134-.026-.136-.023-.136-.019-.137-.016-.138-.012-.139-.009-.139-.005-.14-.002-.141.002-.141.005-.14.009-.139.012-.139.016-.138.019-.137.023-.136.026-.136.029-.134.032-.133.036-.131.039-.131.042-.129.045-.127.048-.127.051-.124.053-.123.057-.121.06-.12.062-.118.065-.116.067-.114.071-.113.072-.11.076-.109.077-.106.081-.105.082-.103.085-.1.088-.098.089-.097.092-.094.094-.092.096-.089.099-.088.1-.085.103-.082.105-.081.106-.077.109-.075.11-.073.113-.071.114-.067.116-.065.118-.062.12-.06.121-.057.123-.053.124-.051.127-.048.127-.045.129-.042.131-.039.131-.036.133-.032.134-.029.136-.026.136-.023.137-.019.138-.016.139-.012.139-.009.141-.005.14-.002zm-.151 4.998h-.013l-.012.001-.012.001-.012.002-.013.001-.013.003-.012.002-.013.003-.013.003-.012.003-.013.004-.012.004-.012.004-.012.005-.012.004-.011.006-.012.005-.011.005-.01.006-.011.006-.01.006-.011.007-.01.006-.009.007-.01.007-.009.007-.009.007-.009.008-.008.007-.009.008-.008.008-.008.008-.008.009-.008.008-.007.009-.007.009-.007.009-.007.01-.007.009-.007.01-.006.01-.006.011-.006.011-.006.01-.005.012-.006.011-.004.011-.005.012-.005.012-.004.012-.004.012-.004.013-.003.012-.003.013-.003.013-.002.012-.003.013-.001.013-.002.012-.001.012-.001.013v.011.012.012.011l.001.013.001.012.002.012.001.013.003.013.002.012.003.013.003.013.003.012.004.013.004.012.004.012.005.012.005.012.004.011.006.011.005.012.006.01.006.011.006.011.006.01.007.01.007.009.007.01.007.009.007.009.007.009.008.008.008.009.008.008.008.008.009.008.008.007.009.008.009.007.009.007.01.007.009.007.01.006.011.007.01.006.011.006.01.006.011.005.012.005.011.006.012.004.012.005.012.004.012.004.013.004.012.003.013.003.013.003.012.002.013.003.013.001.012.002.012.001.012.001h.013.011.011.013l.012-.001.012-.001.012-.002.013-.001.013-.003.012-.002.013-.003.013-.003.012-.003.013-.004.012-.004.012-.004.012-.005.012-.004.011-.006.012-.005.011-.005.01-.006.011-.006.01-.006.011-.007.01-.006.009-.007.01-.007.009-.007.009-.007.009-.008.008-.007.009-.008.008-.008.008-.008.008-.009.008-.008.007-.009.007-.009.007-.009.007-.01.007-.009.007-.01.006-.01.006-.011.006-.011.006-.01.005-.012.006-.011.004-.011.005-.012.005-.012.004-.012.004-.012.004-.013.003-.012.003-.013.003-.013.002-.012.003-.013.001-.013.002-.012.001-.012.001-.013v-.011-.012-.012-.011l-.001-.013-.001-.012-.002-.012-.001-.013-.003-.013-.002-.012-.003-.013-.003-.013-.003-.012-.004-.013-.004-.012-.004-.012-.005-.012-.005-.012-.004-.011-.006-.011-.005-.012-.006-.01-.006-.011-.006-.011-.006-.01-.007-.01-.007-.009-.007-.01-.007-.009-.007-.009-.007-.009-.008-.008-.008-.009-.008-.008-.008-.008-.009-.008-.008-.007-.009-.008-.009-.007-.009-.007-.01-.007-.009-.007-.01-.006-.011-.007-.01-.006-.011-.006-.01-.006-.011-.005-.012-.005-.011-.006-.012-.004-.012-.005-.012-.004-.012-.004-.013-.004-.012-.003-.013-.003-.013-.003-.012-.002-.013-.003-.013-.001-.012-.002-.012-.001-.012-.001h-.013-.011z"/><circle cx="23.5" cy="16" r="2.5"/><path d="m23.64 10.502.141.005.139.009.139.012.138.016.137.019.136.023.136.026.134.029.133.032.131.036.131.039.129.042.127.045.127.048.124.051.123.053.121.057.12.06.118.062.116.065.114.067.113.071.11.073.109.075.106.077.105.081.103.082.1.085.099.088.096.089.094.092.092.094.089.097.088.098.085.1.082.103.081.105.077.106.076.109.072.11.071.113.067.114.065.116.062.118.06.12.057.121.053.123.051.124.048.127.045.127.042.129.039.131.036.131.032.133.029.134.026.136.023.136.019.137.016.138.012.139.009.139.005.14.002.141-.002.141-.005.14-.009.139-.012.139-.016.138-.019.137-.023.136-.026.136-.029.134-.032.133-.036.131-.039.131-.042.129-.045.127-.048.127-.051.124-.053.123-.057.121-.06.12-.062.118-.065.116-.067.114-.071.113-.072.11-.076.109-.077.106-.081.105-.082.103-.085.1-.088.098-.089.097-.092.094-.094.092-.096.089-.099.088-.1.085-.103.082-.105.081-.106.077-.109.075-.11.073-.113.071-.114.067-.116.065-.118.062-.12.06-.121.057-.123.053-.124.051-.127.048-.127.045-.129.042-.131.039-.131.036-.133.032-.134.029-.136.026-.136.023-.137.019-.138.016-.139.012-.139.009-.141.005-.14.002-.14-.002-.141-.005-.139-.009-.139-.012-.138-.016-.137-.019-.136-.023-.136-.026-.134-.029-.133-.032-.131-.036-.131-.039-.129-.042-.127-.045-.127-.048-.124-.051-.123-.053-.121-.057-.12-.06-.118-.062-.116-.065-.114-.067-.113-.071-.11-.073-.109-.075-.106-.077-.105-.081-.103-.082-.1-.085-.099-.088-.096-.089-.094-.092-.092-.094-.089-.097-.088-.098-.085-.1-.082-.103-.081-.105-.077-.106-.076-.109-.072-.11-.071-.113-.067-.114-.065-.116-.062-.118-.06-.12-.057-.121-.053-.123-.051-.124-.048-.127-.045-.127-.042-.129-.039-.131-.036-.131-.032-.133-.029-.134-.026-.136-.023-.136-.019-.137-.016-.138-.012-.139-.009-.139-.005-.14-.002-.141.002-.141.005-.14.009-.139.012-.139.016-.138.019-.137.023-.136.026-.136.029-.134.032-.133.036-.131.039-.131.042-.129.045-.127.048-.127.051-.124.053-.123.057-.121.06-.12.062-.118.065-.116.067-.114.071-.113.072-.11.076-.109.077-.106.081-.105.082-.103.085-.1.088-.098.089-.097.092-.094.094-.092.096-.089.099-.088.1-.085.103-.082.105-.081.106-.077.109-.075.11-.073.113-.071.114-.067.116-.065.118-.062.12-.06.121-.057.123-.053.124-.051.127-.048.127-.045.129-.042.131-.039.131-.036.133-.032.134-.029.136-.026.136-.023.137-.019.138-.016.139-.012.139-.009.141-.005.14-.002zm-.151 4.998h-.013l-.012.001-.012.001-.012.002-.013.001-.013.003-.012.002-.013.003-.013.003-.012.003-.013.004-.012.004-.012.004-.012.005-.012.004-.011.006-.012.005-.011.005-.01.006-.011.006-.01.006-.011.007-.01.006-.009.007-.01.007-.009.007-.009.007-.009.008-.008.007-.009.008-.008.008-.008.008-.008.009-.008.008-.007.009-.007.009-.007.009-.007.01-.007.009-.007.01-.006.01-.006.011-.006.011-.006.01-.005.012-.006.011-.004.011-.005.012-.005.012-.004.012-.004.012-.004.013-.003.012-.003.013-.003.013-.002.012-.003.013-.001.013-.002.012-.001.012-.001.013v.011.012.012.011l.001.013.001.012.002.012.001.013.003.013.002.012.003.013.003.013.003.012.004.013.004.012.004.012.005.012.005.012.004.011.006.011.005.012.006.01.006.011.006.011.006.01.007.01.007.009.007.01.007.009.007.009.007.009.008.008.008.009.008.008.008.008.009.008.008.007.009.008.009.007.009.007.01.007.009.007.01.006.011.007.01.006.011.006.01.006.011.005.012.005.011.006.012.004.012.005.012.004.012.004.013.004.012.003.013.003.013.003.012.002.013.003.013.001.012.002.012.001.012.001h.013.011.011.013l.012-.001.012-.001.012-.002.013-.001.013-.003.012-.002.013-.003.013-.003.012-.003.013-.004.012-.004.012-.004.012-.005.012-.004.011-.006.012-.005.011-.005.01-.006.011-.006.01-.006.011-.007.01-.006.009-.007.01-.007.009-.007.009-.007.009-.008.008-.007.009-.008.008-.008.008-.008.008-.009.008-.008.007-.009.007-.009.007-.009.007-.01.007-.009.007-.01.006-.01.006-.011.006-.011.006-.01.005-.012.006-.011.004-.011.005-.012.005-.012.004-.012.004-.012.004-.013.003-.012.003-.013.003-.013.002-.012.003-.013.001-.013.002-.012.001-.012.001-.013v-.011-.012-.012-.011l-.001-.013-.001-.012-.002-.012-.001-.013-.003-.013-.002-.012-.003-.013-.003-.013-.003-.012-.004-.013-.004-.012-.004-.012-.005-.012-.005-.012-.004-.011-.006-.011-.005-.012-.006-.01-.006-.011-.006-.011-.006-.01-.007-.01-.007-.009-.007-.01-.007-.009-.007-.009-.007-.009-.008-.008-.008-.009-.008-.008-.008-.008-.009-.008-.008-.007-.009-.008-.009-.007-.009-.007-.01-.007-.009-.007-.01-.006-.011-.007-.01-.006-.011-.006-.01-.006-.011-.005-.012-.005-.011-.006-.012-.004-.012-.005-.012-.004-.012-.004-.013-.004-.012-.003-.013-.003-.013-.003-.012-.002-.013-.003-.013-.001-.012-.002-.012-.001-.012-.001h-.013-.011z"/><path d="m11.098 17.196c1.778 3.557 5.414 5.804 9.391 5.804h.511c3.866 0 7 3.134 7 7h-11c-7.18 0-13-5.82-13-13 0-2.312 0-4 0-4s.118.471.272 1.09c.428 1.71 1.965 2.91 3.728 2.91v-6s1.566 3.132 3.098 6.196z" fill="none" stroke="#000" stroke-width="4"/><path d="m27 30h3v2h-3z"/><path d="m22.086 11.004c.069.008.087.009.155.025.127.032.248.089.353.166.345.255.49.715.355 1.121-.033.1-.082.194-.144.278-.063.084-.138.159-.223.219-.057.041-.074.048-.135.081l-16 8c-.063.029-.079.038-.145.059-.1.032-.205.048-.31.047-.104-.001-.209-.018-.308-.051-.407-.136-.687-.528-.684-.957.001-.104.018-.209.051-.308.058-.174.165-.331.305-.449.061-.052.127-.091.197-.129l16-8c.072-.033.143-.062.221-.08.068-.016.086-.016.155-.023.079-.003.078-.003.157.001z" fill="#cacaca" fill-rule="nonzero"/><g clip-path="url(#a)"><path d="m6.071 5.003c.069.007.087.007.155.023.078.018.149.047.221.08l16 8c.07.038.136.077.197.129.14.118.247.275.305.449.033.099.05.204.051.308.003.429-.277.821-.684.957-.099.033-.204.05-.308.051-.105.001-.21-.015-.31-.047-.066-.021-.082-.03-.145-.059l-16-8c-.061-.033-.078-.04-.135-.081-.085-.06-.16-.135-.223-.219-.062-.084-.111-.178-.144-.278-.135-.406.01-.866.355-1.121.105-.077.226-.134.353-.166.068-.016.086-.017.155-.025.079-.004.078-.004.157-.001z" style="fill:#cacaca;fill-rule:nonzero;stroke:#999;stroke-width:4;stroke-linecap:butt;stroke-miterlimit:1.41421"/></g><path d="m11.098 17.196c1.778 3.557 5.414 5.804 9.391 5.804h.511c3.866 0 7 3.134 7 7h-11c-7.18 0-13-5.82-13-13 0-2.312 0-4 0-4s.118.471.272 1.09c.428 1.71 1.965 2.91 3.728 2.91v-6s1.566 3.132 3.098 6.196z" fill="#3e3e3e"/><g clip-path="url(#b)"><path d="m7 15s1.556 3.112 3.012 6.025c1.525 3.049 4.641 4.975 8.05 4.975h.938" fill="none" stroke="#1e1e1e" stroke-linecap="square" stroke-linejoin="miter" stroke-width="2"/></g><path d="m6.071 5.003c.069.007.087.007.155.023.078.018.149.047.221.08l16 8c.07.038.136.077.197.129.14.118.247.275.305.449.033.099.05.204.051.308.003.429-.277.821-.684.957-.099.033-.204.05-.308.051-.105.001-.21-.015-.31-.047-.066-.021-.082-.03-.145-.059l-16-8c-.061-.033-.078-.04-.135-.081-.085-.06-.16-.135-.223-.219-.062-.084-.111-.178-.144-.278-.135-.406.01-.866.355-1.121.105-.077.226-.134.353-.166.068-.016.086-.017.155-.025.079-.004.078-.004.157-.001z" fill="#cacaca" fill-rule="nonzero"/><g fill="none" stroke="#cacaca" stroke-linejoin="miter" stroke-width="2"><circle cx="23.5" cy="10" r="2.5"/><circle cx="23.5" cy="16" r="2.5"/></g></svg>