<svg clip-rule="evenodd" fill-rule="evenodd" viewBox="0 0 32 32" xmlns="http://www.w3.org/2000/svg" xmlns:xlink="http://www.w3.org/1999/xlink"><clipPath id="a"><path clip-rule="evenodd" d="m0 0h32v32h-32z"/></clipPath><clipPath id="b"><path clip-rule="evenodd" d="m23 15 4-2v6c0 1.105-.895 2-2 2-1 0-2 0-2 0z"/></clipPath><clipPath id="c"><path clip-rule="evenodd" d="m9 15-4-2v6c0 1.105.895 2 2 2h2z"/></clipPath><metadata/><path d="m0 0h32v32h-32z" fill="none"/><g clip-path="url(#a)"><g fill="none" stroke="#000" stroke-width="4"><path d="m16 7c-4.971 0-9 4.029-9 9v4c0 1.298.421 2.561 1.2 3.6 1.151 1.534 2.862 3.816 3.9 5.2.567.755 1.456 1.2 2.4 1.2h3c.944 0 1.833-.445 2.4-1.2 1.038-1.384 2.749-3.666 3.9-5.2.779-1.039 1.2-2.302 1.2-3.6 0-1.08 0-2.498 0-4 0-4.971-4.029-9-9-9z"/><path d="m9 9 3-6 2 2 2-2 2 2 2-2 3 6v4h-14z"/><path d="m12.702 9.351c.796.398 1.298 1.211 1.298 2.1v.202c0 1.296-1.051 2.347-2.347 2.347-.034 0-.068 0-.102 0-3.066 0-5.551-2.485-5.551-5.551 0-.648 0-1.264 0-1.792 0-1.061.421-2.078 1.172-2.829.436-.436.828-.828.828-.828v1.528c0 1.515.856 2.9 2.211 3.578.838.419 1.764.882 2.491 1.245z"/><path d="m19.298 9.351c-.796.398-1.298 1.211-1.298 2.1v.202c0 1.296 1.051 2.347 2.347 2.347h.102c3.066 0 5.551-2.485 5.551-5.551 0-.648 0-1.264 0-1.792 0-1.061-.421-2.078-1.172-2.829-.436-.436-.828-.828-.828-.828v1.528c0 1.515-.856 2.9-2.211 3.578-.838.419-1.764.882-2.491 1.245z"/></g><path d="m29 10.709v8.304l-.001.089-.004.103-.006.101-.009.1-.012.101-.014.1-.016.099-.019.098-.021.097-.024.097-.026.096-.028.095-.031.094-.032.093-.035.091-.037.09-.039.09-.041.089-.044.087-.045.085-.047.084-.049.084-.051.081-.053.081-.055.079-.056.077-.059.076-.06.075-.062.073-.063.072-.066.07-.066.068-.069.067-.07.066-.071.063-.074.062-.074.06-.076.058-.079.057-.078.055-.08.053-.083.051-.082.049-.085.047-.085.045-.088.044-.088.041-.089.039-.091.037-.092.035-.092.033-.094.03-.095.028-.096.026-.097.024-.097.021-.098.019-.099.016-.1.014-.1.012-.101.009-.102.006-.102.004-.089.001h-4.013v-9.236l7.154-3.577zm-4 5.527v2.751z"/><path d="m11 13.764v9.236h-4.013l-.089-.001-.102-.004-.102-.006-.101-.009-.1-.012-.1-.014-.099-.016-.098-.019-.098-.021-.096-.024-.096-.026-.095-.028-.093-.03-.093-.033-.092-.035-.091-.037-.089-.039-.088-.041-.087-.044-.086-.045-.085-.047-.083-.049-.081-.051-.081-.053-.079-.055-.077-.057-.077-.058-.074-.06-.073-.062-.072-.063-.07-.066-.069-.067-.066-.068-.065-.07-.064-.071-.062-.074-.06-.074-.059-.077-.056-.077-.055-.079-.053-.08-.051-.082-.049-.084-.047-.084-.045-.086-.044-.087-.041-.088-.039-.089-.037-.091-.035-.092-.033-.093-.03-.093-.028-.095-.026-.096-.024-.096-.021-.098-.019-.099-.016-.098-.014-.1-.012-.1-.009-.101-.006-.102-.004-.102-.001-.089v-8.304l.846-.522zm-4 5.223v-2.751z"/><path d="m16 7c-4.971 0-9 4.029-9 9v4c0 1.298.421 2.561 1.2 3.6 1.151 1.534 2.862 3.816 3.9 5.2.567.755 1.456 1.2 2.4 1.2h3c.944 0 1.833-.445 2.4-1.2 1.038-1.384 2.749-3.666 3.9-5.2.779-1.039 1.2-2.302 1.2-3.6 0-1.08 0-2.498 0-4 0-4.971-4.029-9-9-9z" fill="#e02e34"/><path d="m9 9 3-6 2 2 2-2 2 2 2-2 3 6v2l-7 2-7-2z" fill="#402126"/><path d="m12.723 9.361c.782.392 1.277 1.192 1.277 2.067v.261c0 .613-.243 1.201-.677 1.634-.433.434-1.021.677-1.634.677-.045 0-.091 0-.138 0-3.066 0-5.551-2.485-5.551-5.551 0-.648 0-1.264 0-1.792 0-1.061.421-2.078 1.172-2.829.436-.436.828-.828.828-.828v1.528c0 1.515.856 2.9 2.211 3.578.846.422 1.782.89 2.512 1.255z" fill="#81192b"/><path d="m19.277 9.361c-.782.392-1.277 1.192-1.277 2.067v.261c0 .613.243 1.201.677 1.634.433.434 1.021.677 1.634.677h.138c3.066 0 5.551-2.485 5.551-5.551 0-.648 0-1.264 0-1.792 0-1.061-.421-2.078-1.172-2.829-.436-.436-.828-.828-.828-.828v1.528c0 1.515-.856 2.9-2.211 3.578-.846.422-1.782.89-2.512 1.255z" fill="#81192b"/><path d="m18.999 16c-.265 0-.519.105-.706.293-.188.187-.293.441-.293.706v.001s2.48 1.653 2.93 1.953c.046.031.099.047.154.047h.002c1.057 0 1.914-.857 1.914-1.914 0-.589 0-1.086 0-1.086z"/><path d="m13 16c.552 0 1 .448 1 1s-2.48 1.653-2.93 1.953c-.046.031-.099.047-.154.047-.001 0-.001 0-.002 0-1.057 0-1.914-.857-1.914-1.914 0-.589 0-1.086 0-1.086z"/><path d="m14 21 2 1 2-1" fill="none" stroke="#800e0e" stroke-width="2"/><path d="m12 25s1.275.637 1.789.894c.139.07.292.106.447.106h3.528c.155 0 .308-.036.447-.106.514-.257 1.789-.894 1.789-.894" fill="none" stroke="#800e0e" stroke-width="2"/><path d="m23 15 4-2v6c0 1.105-.895 2-2 2-1 0-2 0-2 0z" fill="#e02e34"/><g clip-path="url(#b)"><path d="m29 21-4 2v-6c0-1.105.895-2 2-2h2z" fill="#9c1b31"/></g><path d="m9 15-4-2v6c0 1.105.895 2 2 2h2z" fill="#e02e34"/><g clip-path="url(#c)"><path d="m3 21 4 2v-6c0-1.105-.895-2-2-2-1 0-2 0-2 0z" fill="#9c1b31"/></g></g></svg>