<svg clip-rule="evenodd" fill-rule="evenodd" stroke-linecap="round" stroke-miterlimit="1.5" viewBox="0 0 32 32" xmlns="http://www.w3.org/2000/svg" xmlns:xlink="http://www.w3.org/1999/xlink"><clipPath id="a"><path clip-rule="evenodd" d="m0 0h32v32h-32z"/></clipPath><metadata/><path d="m0 0h32v32h-32z" fill="none"/><g clip-path="url(#a)"><path d="m2.497 10.461c-1.072-1.091-1.497-2.335-1.497-3.461 0-1.555.811-3.335 3.014-4.627 2.253-1.321 6.763-2.373 11.99-2.373 5.226 0 9.737 1.052 11.989 2.373 2.203 1.292 3.014 3.072 3.014 4.627 0 1.128-.427 2.373-1.501 3.466.957 1.975 1.494 4.192 1.494 6.534v2c0 3.448-1.37 6.754-3.808 9.192s-5.744 3.808-9.192 3.808h-4c-3.448 0-6.754-1.37-9.192-3.808s-3.808-5.744-3.808-9.192v-2c0-2.344.538-4.563 1.497-6.539z"/><path d="m3.207 8c-.14-.334-.207-.671-.207-1 0-.996.614-2.074 2.026-2.902 2.06-1.208 6.198-2.098 10.978-2.098 4.779 0 8.917.89 10.977 2.098 1.412.828 2.026 1.906 2.026 2.902 0 .329-.067.666-.207 1h-4.968c.315-.1.609-.207.88-.319.425-.176.784-.363 1.058-.569.041-.03.086-.071.127-.112-.041-.041-.086-.082-.127-.112-.274-.206-.633-.393-1.058-.569-1.964-.815-5.136-1.319-8.708-1.319s-6.745.504-8.708 1.319c-.426.176-.785.363-1.059.569-.041.03-.086.071-.127.112.041.041.086.082.127.112.274.206.633.393 1.059.569.271.112.565.219.879.319h-4.968z" fill="#1bb0e6"/><path d="m4.275 11.379c.219.182 23.234.185 23.452.004.816 1.7 1.273 3.605 1.273 5.617v2c0 2.917-1.159 5.715-3.222 7.778s-4.861 3.222-7.778 3.222h-4c-2.917 0-5.715-1.159-7.778-3.222s-3.222-4.861-3.222-7.778v-2c0-2.013.458-3.919 1.275-5.621zm11.767-7.379c4.146.014 7.834 1.967 10.206 5l-3.248 1h-14l-3.248-1c2.379-3.043 6.085-5 10.248-5z" fill="#fbc546"/><path d="m26.248 9c.574.735 1.072 1.534 1.479 2.383-.218.181-.466.355-.746.519-2.06 1.208-6.198 2.098-10.977 2.098-4.78 0-8.918-.89-10.978-2.098-.282-.166-.532-.341-.751-.523.407-.848.904-1.645 1.477-2.379z" fill="#e59a10"/><path d="m6.791 17.209c.188.187.442.292.708.292.265 0 .519-.105.707-.292.001-.002.002-.003.002-.003.475-.475 1.12-.742 1.792-.742s1.317.267 1.792.742c0 0 .001.001.003.003.39.39 1.023.39 1.413 0 0 0 .001-.001.001-.001.39-.39.39-1.023 0-1.413-.002-.002-.003-.003-.003-.003-.85-.85-2.004-1.328-3.206-1.328s-2.356.478-3.206 1.328c0 0-.001.001-.003.003-.39.39-.39 1.023 0 1.413z"/><path d="m25.209 17.209c-.188.187-.442.292-.708.292-.265 0-.519-.105-.707-.292-.001-.002-.002-.003-.002-.003-.475-.475-1.12-.742-1.792-.742s-1.317.267-1.792.742c0 0-.001.001-.003.003-.39.39-1.023.39-1.413 0 0 0-.001-.001-.001-.001-.39-.39-.39-1.023 0-1.413.002-.002.003-.003.003-.003.85-.85 2.004-1.328 3.206-1.328s2.356.478 3.206 1.328c0 0 .001.001.003.003.39.39.39 1.023 0 1.413z"/><path d="m9 21s.247.33.6.8c1.511 2.014 3.882 3.2 6.4 3.2 2.518 0 4.889-1.186 6.4-3.2.353-.47.6-.8.6-.8" fill="none" stroke="#593604" stroke-width="2"/><path d="m29.007 7c0 .996-.614 2.074-2.026 2.902-2.06 1.208-6.198 2.098-10.977 2.098-4.78 0-8.918-.89-10.978-2.098-1.412-.828-2.026-1.906-2.026-2.902h3.11c.041.041.086.082.127.112.274.206.633.393 1.059.569 1.963.815 5.136 1.319 8.708 1.319s6.744-.504 8.708-1.319c.425-.176.784-.363 1.058-.569.041-.03.086-.071.127-.112z" fill="#1bb0e6"/></g></svg>