<svg clip-rule="evenodd" fill-rule="evenodd" stroke-linejoin="round" stroke-miterlimit="2" viewBox="0 0 32 32" xmlns="http://www.w3.org/2000/svg" xmlns:xlink="http://www.w3.org/1999/xlink"><clipPath id="a"><path clip-rule="evenodd" d="m0 0h32v32h-32z"/></clipPath><metadata/><path d="m0 0h32v32h-32z" fill="none"/><g clip-path="url(#a)"><path d="m24.149.003c.131.01.164.01.294.029.242.036.479.102.705.196.823.341 1.463 1.047 1.723 1.899.084.277.122.56.129.848v26.05c-.003.121-.002.145-.014.272-.024.244-.079.484-.161.715-.301.838-.975 1.513-1.814 1.813-.23.083-.471.137-.714.161-.127.012-.152.011-.272.014h-16.05c-.12-.003-.145-.002-.272-.014-.243-.024-.484-.079-.715-.161-.838-.3-1.513-.975-1.813-1.814-.083-.23-.137-.471-.161-.715-.012-.123-.011-.152-.014-.27v-26.052c.003-.118.002-.147.014-.27.024-.244.078-.484.161-.715.3-.839.975-1.514 1.813-1.814.231-.082.472-.137.715-.161.127-.012.152-.011.272-.014 5.391 0 10.784-.13 16.174.003z" fill-rule="nonzero"/><path d="m25 3c0-.265-.105-.52-.293-.707-.187-.188-.442-.293-.707-.293-3.151 0-12.849 0-16 0-.265 0-.52.105-.707.293-.188.187-.293.442-.293.707v26c0 .265.105.52.293.707.187.188.442.293.707.293h16c.265 0 .52-.105.707-.293.188-.187.293-.442.293-.707 0-4.355 0-21.645 0-26z" fill="#eb0505"/><path d="m8 19.5v-16.5h16v17.5z" fill="#ff7272"/><path d="m8 19.5 2.528-1.264c2.815-1.408 6.129-1.408 8.944 0l4.528 2.264v8.5h-16z" fill="#370202"/><circle cx="13" cy="10" fill="#fff4f4" r="5"/></g></svg>