<svg clip-rule="evenodd" fill-rule="evenodd" stroke-miterlimit="2" viewBox="0 0 32 32" xmlns="http://www.w3.org/2000/svg" xmlns:xlink="http://www.w3.org/1999/xlink"><clipPath id="a"><path clip-rule="evenodd" d="m0 0h32v32h-32z"/></clipPath><clipPath id="b"><path clip-rule="evenodd" d="m4.233 19.233c-.154-.154-.333-.282-.528-.379-.556-.275-1.705-.843-1.705-.843v-9.5l5 2.489h10.886c.378 0 .724.213.894.551.917 1.825 3.864 7.685 4.997 9.94.12.237.14.512.056.764s-.264.461-.502.579c-1.811.906-5.943 2.972-8.397 4.199-1.155.577-2.55.351-3.463-.562-2.234-2.234-6.236-6.236-7.238-7.238z"/></clipPath><clipPath id="c"><path clip-rule="evenodd" d="m8 25 10-5 5 5-10 5z"/></clipPath><clipPath id="d"><path clip-rule="evenodd" d="m30 18v-10l-10 5h-6.537l-3.938 4h3.097c.562 0 1.101-.223 1.499-.621.204-.204.379-.379.379-.379h2.5s3.535 3.535 5.581 5.581c.376.376.886.586 1.417.585.532-.001 1.042-.213 1.416-.591.109-.109.21-.211.296-.297.186-.188.29-.441.29-.705 0-.27 0-.573 0-.573z"/></clipPath><metadata/><path d="m0 0h32v32h-32z" fill="none"/><g clip-path="url(#a)"><path d="m4.344 19.344c-.228-.228-.491-.418-.779-.562-.589-.294-1.565-.782-1.565-.782v-9.489l5 2.489h10.886c.378 0 .724.213.894.551.917 1.825 3.864 7.685 4.997 9.94.12.237.14.512.056.764s-.264.461-.502.579c-1.811.906-5.943 2.972-8.397 4.199-1.155.577-2.55.351-3.463-.562-2.159-2.159-5.968-5.968-7.127-7.127z" fill="none" stroke="#000" stroke-width="4"/><path d="m30 18v-10l-10 5h-6.537l-2.963 3s.213.213.501.501c.398.398.937.621 1.499.621s1.101-.223 1.499-.621c.288-.288.501-.501.501-.501h2.5s3.535 3.535 5.581 5.581c.376.376.886.586 1.417.585.532-.001 1.042-.213 1.416-.591.109-.109.21-.211.296-.297.186-.188.29-.441.29-.705 0-.27 0-.573 0-.573z" fill="none" stroke="#000" stroke-width="4"/><path d="m4.233 19.233c-.154-.154-.333-.282-.528-.379-.556-.275-1.705-.843-1.705-.843v-9.5l5 2.489h10.886c.378 0 .724.213.894.551.917 1.825 3.864 7.685 4.997 9.94.12.237.14.512.056.764s-.264.461-.502.579c-1.811.906-5.943 2.972-8.397 4.199-1.155.577-2.55.351-3.463-.562-2.234-2.234-6.236-6.236-7.238-7.238z" fill="#ef8e10"/><g clip-path="url(#b)"><path d="m8 25 10-5 5 5-10 5z" fill="none"/><g clip-path="url(#c)" fill="none" stroke="#7b3c12" stroke-width="2"><path d="m20 27-7-7"/><path d="m17 29-7-7"/></g><path d="m12.622 19h-3.122l-1.42-3.408 4.09-4.127 7.362.033 12.468-6.234v13.972l-4.085 2.042c-.127.529-.397 1.017-.786 1.409-.086.086-.187.188-.295.297-.75.755-1.768 1.18-2.832 1.182-1.063.002-2.084-.419-2.836-1.171l-4.994-4.995h-.861c-.745.643-1.699 1-2.689 1zm17.378-1v-9.5l-10 5-7-.031-3.5 3.531h3.122c.562 0 1.101-.223 1.499-.621.204-.204.379-.379.379-.379h2.5s3.535 3.535 5.581 5.581c.376.376.886.586 1.417.585.532-.001 1.042-.213 1.416-.591.109-.109.21-.211.296-.297.186-.188.29-.441.29-.705 0-.27 0-.573 0-.573z"/></g><path d="m30 18v-10l-10 5h-6.537l-3.938 4h3.097c.562 0 1.101-.223 1.499-.621.204-.204.379-.379.379-.379h2.5s3.535 3.535 5.581 5.581c.376.376.886.586 1.417.585.532-.001 1.042-.213 1.416-.591.109-.109.21-.211.296-.297.186-.188.29-.441.29-.705 0-.27 0-.573 0-.573z" fill="#ef8e10"/><g clip-path="url(#d)" fill="none" stroke="#cc600f"><path d="m18 18.5h2.257c.796 0 1.559-.316 2.122-.879.72-.72 1.621-1.621 1.621-1.621" stroke-width="2"/><path d="m14.5 17.5v-2c0-.53-.211-1.039-.586-1.414s-.884-.586-1.414-.586h-2" stroke-linecap="round" stroke-linejoin="round" stroke-miterlimit="1.5"/></g></g></svg>