<svg clip-rule="evenodd" fill-rule="evenodd" stroke-linejoin="round" stroke-miterlimit="2" viewBox="0 0 32 32" xmlns="http://www.w3.org/2000/svg" xmlns:xlink="http://www.w3.org/1999/xlink"><clipPath id="a"><path clip-rule="evenodd" d="m0 0h32v32h-32z"/></clipPath><metadata/><path d="m0 0h32v32h-32z" fill="none"/><g clip-path="url(#a)"><path d="m19.736 10h.792l11.472-5.736v15.972l-1.045.523c-.242 1.979-1.459 3.729-3.272 4.635-.447.224-.908.454-1.322.662-.727.363-1.521.486-2.283.391l-5.528 2.764c-4.94 2.47-10.947.468-13.417-4.472l-1.619-3.239h-3.514v-15.759l6.823 2.262 10.058-.003c1.137 0 2.176.642 2.684 1.659z"/><path d="m21.792 25.354-1.349.675-1.443-.029-.443.971-.902.451c-.426.213-.862.385-1.303.516l-1.852.062-.649.265c-2.85-.083-5.564-1.691-6.929-4.42-1.168-2.338-2.172-4.345-2.172-4.345l-2.75.011v-11l4.5 1.492s8.061-.002 10.382-.003c.358 0 .688.192.866.5h-6.076l-3.5 3.5 3.394 3.395c1.208 1.208 3.049 1.514 4.581.766l5.268 6.773c.117.15.243.291.377.42z" fill="#7f531d"/><path d="m16.352 27.938c-.825.246-1.669.352-2.501.327l-2.127-2.127c.628-.314 1.257-.628 1.885-.943zm4.091-1.909-1.886.942-2.833-2.833c.628-.314 1.257-.628 1.885-.943z" fill="#3e1409"/><path d="m16 16s-.324.162-.711.355c-.77.385-1.7.234-2.308-.374-.87-.87-1.981-1.981-1.981-1.981l2-2h8l9-4.5v11.5l-1 .5v.528c0 1.515-.856 2.9-2.211 3.578-.448.223-.908.454-1.322.661-.513.256-1.092.273-1.6.083 0 0-3.164-7.85-4.867-7.85l-2-.5z" fill="#7f531d"/><path d="m17 16h4.221c1.703 0 3.26.962 4.022 2.486.026.052.052.105.079.157.972 1.944.414 4.305-1.324 5.609l-.131.098-.019-.008c-.338-.133-.631-.351-.855-.636z" fill="#5b2f0e"/></g></svg>