<svg clip-rule="evenodd" fill-rule="evenodd" stroke-linejoin="round" stroke-miterlimit="2" viewBox="0 0 32 32" xmlns="http://www.w3.org/2000/svg" xmlns:xlink="http://www.w3.org/1999/xlink"><clipPath id="a"><path clip-rule="evenodd" d="m0 0h32v32h-32z"/></clipPath><clipPath id="b"><path clip-rule="evenodd" d="m14 15v-10.5c0-.398.158-.779.439-1.061.282-.281.663-.439 1.061-.439s.779.158 1.061.439c.281.282.439.663.439 1.061v9.5h1v-8.5c0-.398.158-.779.439-1.061.282-.281.663-.439 1.061-.439s.779.158 1.061.439c.281.282.439.663.439 1.061v13.5s.449-.899 1-2c1.105-2.209 3.791-3.105 6-2s-3.263 6.526-5.484 10.969c-1.236 2.47-3.761 4.031-6.523 4.031-.316 0-.639 0-.968 0-4.984 0-9.025-4.041-9.025-9.025v-12.475c0-.828.672-1.5 1.5-1.5s1.5.672 1.5 1.5v7.5h1v-10.5c0-.398.158-.779.439-1.061.282-.281.663-.439 1.061-.439s.779.158 1.061.439c.281.282.439.663.439 1.061v9.5z"/></clipPath><metadata/><path d="m0 0h32v32h-32z" fill="none"/><g clip-path="url(#a)"><path d="m12.814 2.256c.104-.124.216-.242.337-.351.36-.326.788-.575 1.249-.728.352-.116.718-.172 1.088-.177.033 0 .066.001.099.001.402.015.797.088 1.173.234.509.196.969.512 1.335.916.031.034.061.069.091.105.018-.007.036-.014.054-.021.376-.146.771-.219 1.173-.234.087-.001.087-.001.174 0 .402.015.797.088 1.173.234.482.185.92.478 1.276.852.355.373.625.825.787 1.314.116.351.172.717.177 1.087v7.782c.106-.055.106-.054.213-.107.388-.181.787-.331 1.202-.436.359-.091.727-.152 1.096-.18.158-.012.316-.016.474-.019.158.002.158.002.315.007.369.022.734.065 1.095.145.362.08.717.191 1.06.331.145.06.286.126.427.194l1.801.901c-2.127 4.254-4.254 8.507-6.38 12.761-.073.143-.073.142-.149.284-.106.19-.215.379-.333.563-.261.408-.554.796-.876 1.159-1.166 1.314-2.703 2.282-4.392 2.767-.518.148-1.048.252-1.583.308-.272.029-.544.043-.817.051-.431.003-.863.003-1.295 0-.374-.007-.747-.028-1.119-.071-.815-.093-1.62-.278-2.394-.55-1.422-.501-2.735-1.298-3.839-2.325-1.264-1.177-2.244-2.649-2.838-4.271-.298-.813-.498-1.661-.596-2.521-.043-.372-.064-.745-.071-1.119l-.001-.136v-.006c0-4.197-.052-8.393.001-12.589.016-.41.092-.812.242-1.195.375-.95 1.167-1.705 2.135-2.032.358-.121.732-.179 1.109-.184.034 0 .068.001.102.001.149.006.297.019.443.041.032-.245.089-.487.173-.722.34-.95 1.093-1.722 2.035-2.085.376-.146.771-.219 1.173-.234.087-.001.087-.001.174 0 .402.015.797.088 1.173.234.018.007.036.014.054.021z"/><path d="m14 15v-10.5c0-.398.158-.779.439-1.061.282-.281.663-.439 1.061-.439s.779.158 1.061.439c.281.282.439.663.439 1.061v9.5h1v-8.5c0-.398.158-.779.439-1.061.282-.281.663-.439 1.061-.439s.779.158 1.061.439c.281.282.439.663.439 1.061v13.5s.449-.899 1-2c1.105-2.209 3.791-3.105 6-2s-3.263 6.526-5.484 10.969c-1.236 2.47-3.761 4.031-6.523 4.031-.316 0-.639 0-.968 0-4.984 0-9.025-4.041-9.025-9.025v-12.475c0-.828.672-1.5 1.5-1.5s1.5.672 1.5 1.5v7.5h1v-10.5c0-.398.158-.779.439-1.061.282-.281.663-.439 1.061-.439s.779.158 1.061.439c.281.282.439.663.439 1.061v9.5z" fill="#e5641a"/><g clip-path="url(#b)"><path d="m22.469 13.004c.126.015.246.044.36.102.343.171.562.535.553.918-.004.149-.043.288-.106.423l-3.471 6.943c-.328-.186-.654-.375-.984-.558-.064-.033-.128-.064-.194-.094-.285-.122-.583-.203-.892-.23-.789-.069-1.586.205-2.165.746-.227.212-.413.461-.562.733-.421.815-.822 1.64-1.232 2.46-.07.131-.158.246-.275.338-.099.078-.212.137-.333.173-.1.03-.205.044-.31.042-.105-.003-.209-.022-.308-.057-.32-.112-.566-.387-.642-.717-.033-.143-.035-.293-.004-.437.014-.062.034-.12.057-.179.384-.832.818-1.64 1.227-2.459.094-.181.194-.357.307-.526.227-.337.497-.646.8-.915.426-.378.919-.679 1.45-.886 1.004-.39 2.134-.434 3.163-.113l2.58-5.158c.03-.056.061-.109.099-.16.128-.167.307-.291.509-.351.081-.024.163-.035.247-.041.063-.001.063-.001.126.003z" fill="#be3e13" fill-rule="nonzero"/></g></g></svg>