<svg clip-rule="evenodd" fill-rule="evenodd" stroke-linejoin="round" stroke-miterlimit="2" viewBox="0 0 32 32" xmlns="http://www.w3.org/2000/svg" xmlns:xlink="http://www.w3.org/1999/xlink"><clipPath id="a"><path clip-rule="evenodd" d="m0 0h32v32h-32z"/></clipPath><metadata/><path d="m0 0h32v32h-32z" fill="none"/><g clip-path="url(#a)"><path d="m1 13.971c0-3.713 1.475-7.274 4.1-9.9.834-.833 1.486-1.485 1.486-1.485.521-.522 1.288-.714 1.994-.5s1.237.799 1.381 1.522l.068.34c.691-1.221 1.548-2.353 2.557-3.362.475-.476 1.158-.68 1.816-.545.659.135 1.205.592 1.455 1.216l.643 1.608.643-1.608c.25-.624.796-1.081 1.455-1.216.658-.135 1.341.069 1.816.545 2.937 2.936 4.586 6.918 4.586 11.07v2.735c1.32-.99 2.794-1.764 4.367-2.288h.001c.568-.19 1.191-.114 1.698.205s.844.849.919 1.444v.001c.378 3.029-.25 6.099-1.788 8.736-.772 1.324-1.469 2.519-1.469 2.519l-.01.016-.018.029-.017.028-.01.014-.009.014c-2.87 4.305-7.701 6.891-12.875 6.891h-1.789c-3.448 0-6.754-1.37-9.192-3.808s-3.808-5.744-3.808-9.192v-5.029z"/><path d="m30 14.001v-.001c-1.973.658-3.765 1.765-5.236 3.236-.437.437-.764.764-.764.764v4l3 2s.697-1.195 1.469-2.519c1.317-2.258 1.855-4.886 1.531-7.48zm-27-.001v-.029c0-3.183 1.264-6.235 3.515-8.486.833-.833 1.485-1.485 1.485-1.485s.379 1.893.67 3.349c.219 1.098.33 2.215.33 3.334v3.317l-3 2.5zm14-1v-2.802c0-2.113.403-4.206 1.188-6.167.43-1.076.812-2.031.812-2.031 2.561 2.561 4 6.035 4 9.656v1.344l-1 1.241-4-.241zm-7 0v-1.344c0-3.621 1.439-7.095 4-9.656s.382.955.812 2.031c.785 1.961 1.188 4.054 1.188 6.167v2.802l-3.162 1z" fill="#138669"/><path d="m23 16.172-.5.828v1.5l.5.5 1-1 3 6-.029.044c-2.503 3.722-6.695 5.956-11.182 5.956h-1.789c-2.917 0-5.715-1.159-7.778-3.222s-3.222-4.861-3.222-7.778v-5h6v1h1v-2h6v2h1v-2h6z" fill="#21e2a8"/><path d="m22.586 19c-1.361 0-2.57.871-3 2.162-.007.02-.025.076-.051.153-.175.524-.741.807-1.265.633 0-.001-.001-.001-.001-.001-.523-.174-.806-.74-.632-1.263.026-.078.045-.135.051-.154.657-1.97 2.423-3.341 4.465-3.512l.847-.846v2.828z" fill="#2bac85"/></g></svg>