<svg clip-rule="evenodd" fill-rule="evenodd" stroke-linejoin="round" stroke-miterlimit="2" viewBox="0 0 32 32" xmlns="http://www.w3.org/2000/svg" xmlns:xlink="http://www.w3.org/1999/xlink"><clipPath id="a"><path clip-rule="evenodd" d="m0 0h32v32h-32z"/></clipPath><clipPath id="b"><path clip-rule="evenodd" d="m12.969 15 .031-10.5s.028-.334.084-.495c.14-.4.45-.729.842-.891.158-.065.321-.097.49-.112.084-.002.084-.002.168 0 .169.015.332.047.49.112.392.162.702.491.842.891.047.134.082.411.082.411l.013 9.584h1.391l2.142-8.364s.086-.265.157-.388c.184-.317.484-.56.832-.673.135-.045.272-.065.413-.074.084 0 .084 0 .168.004.197.02.386.067.564.157.429.218.734.641.805 1.117.025.169-.011.503-.011.503l-2.472 9.936v3.224c0 .412.252.782.636.932.383.15.82.049 1.099-.253.435-.472.913-.99 1.388-1.504.752-.815 1.804-1.288 2.913-1.31s2.179.408 2.964 1.193-6.038 6.038-9.364 9.364c-1.368 1.368-3.223 2.136-5.157 2.136-.148 0-.3 0-.454 0-2.394 0-4.689-.951-6.382-2.643-1.692-1.693-2.643-3.988-2.643-6.382v-2.077c-1.003-2.965-1.933-5.955-2.923-8.924-.057-.19-.087-.382-.073-.581.038-.539.375-1.027.865-1.255.181-.083.371-.124.569-.137.084-.001.084-.001.168.002.113.011.222.028.331.061.296.09.56.273.75.518.086.112.207.364.207.364l2.391 7.054h1.625l-2.365-9.636s-.054-.331-.038-.501c.046-.509.359-.969.815-1.201.178-.09.366-.137.563-.157.084-.005.084-.005.169-.004.141.009.278.029.412.073.322.105.602.32.788.602.078.119.179.379.179.379l2.377 9.445h1.159z"/></clipPath><metadata/><path d="m0 0h32v32h-32z" fill="none"/><g clip-path="url(#a)"><path d="m11.012 4.217c.002-.035.006-.07.009-.104.029-.257.086-.511.171-.756.169-.489.448-.939.81-1.309.363-.369.808-.656 1.294-.834.243-.089.496-.151.753-.185.128-.016.257-.024.386-.028.13 0 .129 0 .259.004.129.01.257.022.385.043.213.036.422.091.625.166.938.343 1.699 1.09 2.06 2.022.093.241.16.493.198.748.011.078.019.155.025.233.004-.006.008-.012.011-.018.446-.743 1.167-1.303 1.997-1.552.291-.087.588-.13.891-.145.13-.002.13-.002.259.001.129.008.258.018.386.038.298.046.591.13.867.251.755.329 1.378.925 1.742 1.663.152.31.258.642.313.982.049.298.059.602.03.903-.013.129-.035.256-.059.383-.751 3.258-1.597 6.493-2.424 9.733v.458l.094-.085c.232-.2.472-.387.73-.553.64-.413 1.357-.703 2.103-.853.404-.08.812-.114 1.224-.117.154.003.154.003.308.009.408.028.811.087 1.207.191.736.194 1.434.528 2.048.978.24.177.464.371.677.579l1.464 1.41c-.98.98-1.96 1.961-2.941 2.941-2.648 2.649-5.281 5.313-7.946 7.945-.083.08-.167.159-.252.237-.369.331-.76.635-1.176.905-.92.598-1.946 1.03-3.017 1.271-.634.143-1.279.215-1.928.227-.236.002-.472.002-.707 0-.364-.007-.726-.027-1.088-.067-.849-.095-1.688-.289-2.493-.578-1.399-.501-2.693-1.287-3.782-2.298-1.324-1.229-2.336-2.782-2.924-4.49-.264-.766-.443-1.561-.533-2.366-.04-.362-.06-.724-.067-1.088l-.001-.131v-1.81c-.955-2.85-1.87-5.714-2.82-8.565-.039-.124-.075-.247-.102-.374-.073-.337-.095-.685-.065-1.029.029-.344.109-.683.237-1.003.339-.846 1.008-1.538 1.842-1.905.276-.121.568-.207.866-.253.128-.021.257-.031.386-.039.13-.004.129-.004.259-.002.303.014.6.056.891.143l.009.002c-.008-.194 0-.388.024-.581.108-.86.541-1.663 1.2-2.226.262-.224.558-.409.874-.547.277-.121.569-.205.867-.251.129-.02.257-.03.386-.038.13-.003.129-.003.259-.001.303.015.6.058.891.145.788.236 1.479.753 1.928 1.442.028.042.054.085.08.128z"/><path d="m12.969 15 .031-10.5s.028-.334.084-.495c.14-.4.45-.729.842-.891.158-.065.321-.097.49-.112.084-.002.084-.002.168 0 .169.015.332.047.49.112.392.162.702.491.842.891.047.134.082.411.082.411l.013 9.584h1.391l2.142-8.364s.086-.265.157-.388c.184-.317.484-.56.832-.673.135-.045.272-.065.413-.074.084 0 .084 0 .168.004.197.02.386.067.564.157.429.218.734.641.805 1.117.025.169-.011.503-.011.503l-2.472 9.936v3.224c0 .412.252.782.636.932.383.15.82.049 1.099-.253.435-.472.913-.99 1.388-1.504.752-.815 1.804-1.288 2.913-1.31s2.179.408 2.964 1.193-6.038 6.038-9.364 9.364c-1.368 1.368-3.223 2.136-5.157 2.136-.148 0-.3 0-.454 0-2.394 0-4.689-.951-6.382-2.643-1.692-1.693-2.643-3.988-2.643-6.382v-2.077c-1.003-2.965-1.933-5.955-2.923-8.924-.057-.19-.087-.382-.073-.581.038-.539.375-1.027.865-1.255.181-.083.371-.124.569-.137.084-.001.084-.001.168.002.113.011.222.028.331.061.296.09.56.273.75.518.086.112.207.364.207.364l2.391 7.054h1.625l-2.365-9.636s-.054-.331-.038-.501c.046-.509.359-.969.815-1.201.178-.09.366-.137.563-.157.084-.005.084-.005.169-.004.141.009.278.029.412.073.322.105.602.32.788.602.078.119.179.379.179.379l2.377 9.445h1.159z" fill="#b8d419"/><g clip-path="url(#b)"><path d="m24.052 15.001c.165.015.32.056.463.142.08.048.153.107.216.175.242.259.329.636.225.974-.048.16-.136.294-.249.415l-6.204 6.204c-.252-.25-.502-.501-.756-.749-.046-.043-.093-.084-.141-.124-.211-.169-.441-.307-.694-.404-.662-.256-1.416-.219-2.05.1-.224.112-.426.258-.609.428-.69.673-1.364 1.363-2.046 2.045-.121.113-.255.201-.415.249-.111.034-.228.049-.344.043-.403-.021-.762-.292-.894-.673-.037-.11-.056-.227-.054-.343.003-.164.046-.325.125-.468.035-.062.076-.116.12-.171.661-.708 1.368-1.372 2.053-2.057.319-.311.673-.579 1.067-.789.987-.527 2.155-.67 3.24-.397.468.117.906.311 1.316.563l4.872-4.871c.051-.048.103-.093.162-.132.14-.09.294-.137.458-.157.07-.004.069-.004.139-.003z" fill="#88a00f" fill-rule="nonzero"/></g></g></svg>