<svg clip-rule="evenodd" fill-rule="evenodd" stroke-linejoin="round" stroke-miterlimit="2" viewBox="0 0 32 32" xmlns="http://www.w3.org/2000/svg" xmlns:xlink="http://www.w3.org/1999/xlink"><clipPath id="a"><path clip-rule="evenodd" d="m0 0h32v32h-32z"/></clipPath><metadata/><path d="m0 0h32v32h-32z" fill="none"/><g clip-path="url(#a)"><path d="m11.414 2.609c.714-1.542 2.276-2.613 4.086-2.613 1.914 0 3.551 1.198 4.201 2.885 1.043-.77 2.41-1.085 3.764-.747 2.41.603 3.877 3.048 3.275 5.457l-1.701 6.805c1.822-.775 4.012-.42 5.496 1.065 1.952 1.951 1.952 5.119 0 7.071 0 0-3.608 3.608-5.979 5.979-2.234 2.234-5.264 3.489-8.423 3.489h-.133v-.004h-1.035c-5.571 0-10.426-3.79-11.778-9.194-1.19-4.754-2.68-10.71-2.68-10.71-.603-2.409.863-4.854 3.272-5.457.293-.074.586-.116.877-.131-.004-2.126 1.507-4.021 3.671-4.427 1.103-.207 2.187.009 3.087.532z"/><path d="m13 4.493c.002-.313.059-.622.173-.913.189-.478.526-.891.955-1.173.211-.14.444-.247.688-.316.263-.075.539-.106.813-.092.279.015.556.076.816.182.288.118.554.291.779.506.233.221.422.488.555.781.146.323.219.673.221 1.028v8.689.315c.001.067.013.133.039.195.081.191.279.315.487.304.058-.003.115-.016.169-.038.055-.024.106-.058.15-.099.046-.044.084-.098.111-.156.029-.065.043-.135.044-.206v-3.812l.949-3.794c.334-1.339 1.693-2.154 3.031-1.819 1.339.334 2.154 1.693 1.819 3.031l-2.799 11.198v1.449l2.879-2.878c1.17-1.171 3.071-1.171 4.242 0s1.171 3.072 0 4.242c0 0-3.608 3.609-5.979 5.98-1.859 1.859-4.38 2.903-7.009 2.903h-.133v-.004h-1.039c-4.65 0-8.705-3.163-9.836-7.674-1.193-4.755-2.687-10.714-2.687-10.714-.336-1.338.478-2.697 1.817-3.033.664-.166 1.333-.05 1.879.273l1.123 6.734c.012.07.038.137.077.196.036.053.082.1.135.136.05.034.106.058.165.072.056.014.115.017.173.011.206-.024.381-.178.429-.381.016-.065.017-.132.007-.198l-1.554-9.324c.01-.062.023-.124.038-.185.076-.312.213-.609.401-.87.182-.253.411-.471.673-.64.236-.152.496-.264.769-.329.266-.064.543-.085.815-.06.253.023.501.085.735.183.473.199.881.543 1.154.978.167.266.28.56.339.868l.387 2.062v5.899c.001.067.013.133.039.195.081.191.279.315.487.304.058-.003.115-.016.169-.038.055-.024.106-.058.15-.099.046-.044.084-.098.111-.156.029-.065.043-.135.044-.206z" fill="#8debcf"/><path d="m14.992 26.375c-.327 0-.652.04-.97.119-.512.129-1.377.345-2.294.574-.897.224-1.846.023-2.574-.546-.728-.568-1.154-1.441-1.154-2.364 0-.172 0-.34 0-.501 0-1.061.421-2.078 1.172-2.829l3-3c.75-.75 1.767-1.171 2.828-1.171s2.078.421 2.828 1.171l3 3c.751.751 1.172 1.768 1.172 2.829v.501c0 .923-.426 1.796-1.154 2.364-.728.569-1.677.77-2.574.546-.917-.229-1.782-.445-2.294-.574-.318-.079-.643-.119-.97-.119zm13.026-8.89c.903.903.59 2.684-.699 3.973s-3.07 1.602-3.973.699c-.904-.904-.591-2.684.699-3.973 1.289-1.29 3.069-1.603 3.973-.699zm-23.847-7.585c.85-.212 1.772.548 2.058 1.695.286 1.148-.171 2.252-1.021 2.464-.85.211-1.772-.548-2.058-1.696s.171-2.252 1.021-2.463zm4.571-4.577c1.022-.255 2.149.728 2.514 2.193.366 1.466-.168 2.862-1.19 3.117s-2.149-.728-2.514-2.193c-.366-1.465.168-2.862 1.19-3.117zm13.939-.189c.989.247 1.487 1.673 1.11 3.184-.376 1.51-1.485 2.536-2.475 2.29-.99-.247-1.487-1.674-1.111-3.184.377-1.511 1.486-2.537 2.476-2.29zm-7.172-1.634c1.104 0 2 1.344 2 3s-.896 3-2 3c-1.103 0-2-1.344-2-3s.897-3 2-3z" fill="#2fa08a"/></g></svg>