<svg clip-rule="evenodd" fill-rule="evenodd" stroke-linejoin="round" stroke-miterlimit="2" viewBox="0 0 32 32" xmlns="http://www.w3.org/2000/svg"><metadata/><path d="m0 0h32v32h-32z" fill="none"/><path d="m20.494 10.517 11.506-5.753v14.472l-4.084 2.042-.005.021c-.035.128-.04.158-.085.282-.065.183-.148.359-.247.526-.101.169-.22.322-.347.472-.19.201-.192.198-.407.414-.303.298-.644.55-1.024.742-.243.123-.499.221-.761.292-.166.172-.353.323-.555.451-.108.068-.13.077-.237.134-2.837 1.418-5.659 2.865-8.51 4.254-.419.194-.857.337-1.313.414-1.115.188-2.28-.012-3.267-.563-.375-.209-.717-.467-1.03-.761-2.437-2.39-4.71-4.95-7.242-7.239-.061-.053-.127-.098-.198-.137l-.027-.013-2.661-1.331v-13.955l7.47 3.719h10.434l.088.002c.209.011.416.036.62.087.566.141 1.085.449 1.48.877.156.169.286.354.402.551z"/><path d="m7 11h10.886c.357 0 .684.19.863.494l-6.581-.029-4.488 4.544 1.915 1.915c.312.304.664.562 1.054.759.511.257 1.075.406 1.647.434.574.028 1.152-.065 1.688-.271.441-.171.843-.418 1.205-.722.069-.062.069-.061.137-.124h.846l5.003 5.003c.215.209.449.395.702.556l.002.001-2.603 1.302-1.14.138-.745.805-1.448.724-1.169.106-.856.697c-.886.097-1.791-.205-2.447-.861-2.234-2.234-6.236-6.236-7.238-7.238-.154-.154-.333-.282-.528-.379-.556-.275-1.705-.843-1.705-.843v-9.5z" fill="#5c392e"/><path d="m14.934 27.033c-.32.158-.661.259-1.015.299l-3.528-3.527c.628-.315 1.257-.629 1.885-.943l3.667 3.667zm4.342-2.171-1.885.943-3.667-3.667c.628-.314 1.257-.628 1.885-.943z" fill="#21120d"/><path d="m20 13 10-5v10l-4 2v.573c0 .264-.104.517-.29.705-.086.086-.187.188-.296.297-.374.378-.884.59-1.416.591-.531.001-1.041-.209-1.417-.585l-2.089-2.089c.119-.007-1.389-1.989-1.991-1.991l-1.501-1.501h-2.5s-.213.213-.501.501c-.398.398-.937.621-1.499.621s-1.101-.223-1.499-.621c-.288-.288-.501-.501-.501-.501l2.963-3z" fill="#5c392e"/><path d="m18.501 17.501c.602.002 1.204.006 1.806-.002.378-.014.744-.125 1.06-.335.112-.075.213-.161.309-.254l1.617-1.617 1.414 1.414c-.564.564-1.122 1.134-1.692 1.691-.073.067-.073.067-.147.133-.201.169-.413.321-.641.451-.426.24-.895.402-1.379.474-.118.018-.237.029-.356.036z" fill="#412116"/></svg>