<svg clip-rule="evenodd" fill-rule="evenodd" stroke-linejoin="round" stroke-miterlimit="2" viewBox="0 0 32 32" xmlns="http://www.w3.org/2000/svg"><metadata/><path d="m0 0h32v32h-32z" fill="none"/><path d="m16 1c8.284 0 15 6.716 15 15v2c0 3.183-1.264 6.235-3.515 8.485-2.25 2.251-5.302 3.515-8.485 3.515h-1.74l-.001.001c-1.12 1.148-2.654 1.799-4.257 1.808-1.604.01-3.144-.623-4.278-1.757l-1.578-1.577c-.956-.534-1.843-1.201-2.631-1.99-2.251-2.25-3.515-5.302-3.515-8.485v-2c0-8.284 6.716-15 15-15z"/><path d="m25.553 25.553s-20.226-1.59-20.206-1.116c-1.51-1.795-2.347-4.073-2.347-6.437v-2c0-7.18 5.82-13 13-13h.084c7.141.045 12.916 5.848 12.916 13v2c0 2.652-1.054 5.196-2.929 7.071-.167.167-.34.328-.518.482z" fill="#fbc546"/><path d="m21.136 21.137c.012.011.024.023.036.035l4.381 4.381c-1.758 1.526-4 2.394-6.338 2.445 0 0 1.785-4.998 1.912-6.87z" fill="#e59a10"/><path d="m5.347 24.437c-.02-.474.017-.953.112-1.428.273-1.369.58-2.901.58-2.901.144-.723.675-1.308 1.381-1.522s1.473-.022 1.994.5l.586.586 1.464-1.465c1.953-1.953 5.119-1.953 7.072 0 .548.549 1.139 1.14 1.687 1.687 1.936 1.937 1.955 5.07.042 7.029l-1.05 1.075c-.071.001-.143.002-.215.002-1.968 0-4.032 0-6 0-2.652 0-5.196-1.054-7.071-2.929-.204-.204-.398-.415-.582-.634z" fill="#7e5108"/><path d="m8 20.5s-.307 1.533-.58 2.901c-.262 1.311.148 2.667 1.094 3.613.495.495 1.063 1.063 1.624 1.624.756.756 1.783 1.178 2.852 1.171 1.069-.006 2.091-.44 2.838-1.205.992-1.016 2.087-2.138 3.006-3.078 1.148-1.176 1.136-3.056-.025-4.217-.548-.548-1.139-1.139-1.688-1.688-1.171-1.171-3.071-1.171-4.242 0-1.363 1.363-2.879 2.879-2.879 2.879z" fill="#fbc546"/><path d="m9.502 17c.928 0 1.817-.369 2.473-1.025s1.025-1.545 1.025-2.473c0-.657 0-1.345 0-2.002 0-1.933-1.567-3.5-3.5-3.5h-.002c-.928 0-1.817.369-2.473 1.025s-1.025 1.545-1.025 2.473v2.002c0 1.933 1.567 3.5 3.5 3.5z" fill="#fff"/><path d="m8 11c0-.53.211-1.039.586-1.414s.884-.586 1.414-.586 1.039.211 1.414.586.586.884.586 1.414v2.983c0 .531-.211 1.039-.586 1.415-.375.375-.884.585-1.414.585s-1.039-.21-1.414-.585c-.375-.376-.586-.884-.586-1.415 0-.935 0-2.047 0-2.983z"/><path d="m22.498 17c-.928 0-1.817-.369-2.473-1.025s-1.025-1.545-1.025-2.473c0-.657 0-1.345 0-2.002 0-1.933 1.567-3.5 3.5-3.5h.002c.928 0 1.817.369 2.473 1.025s1.025 1.545 1.025 2.473v2.002c0 1.933-1.567 3.5-3.5 3.5z" fill="#fff"/><path d="m24 11c0-.53-.211-1.039-.586-1.414s-.884-.586-1.414-.586-1.039.211-1.414.586-.586.884-.586 1.414v2.983c0 .531.211 1.039.586 1.415.375.375.884.585 1.414.585s1.039-.21 1.414-.585c.375-.376.586-.884.586-1.415 0-.935 0-2.047 0-2.983z"/></svg>