<svg clip-rule="evenodd" fill-rule="evenodd" stroke-linejoin="round" stroke-miterlimit="2" viewBox="0 0 32 32" xmlns="http://www.w3.org/2000/svg" xmlns:xlink="http://www.w3.org/1999/xlink"><clipPath id="a"><path clip-rule="evenodd" d="m0 0h32v32h-32z"/></clipPath><metadata/><path d="m0 0h32v32h-32z" fill="none"/><g clip-path="url(#a)"><path d="m4.825 5c.16-.453.402-.88.721-1.256l3.17-3.744h1.392l1.018 4.073c.179-.677.526-1.3 1.016-1.801.194-.199.409-.374.639-.53l2.613-1.742h2.606v4.315c.354-.57.834-1.039 1.412-1.379l3.922-2.269 2.317 1.158-3.651 14.602v.462l.053-.057c1.444-1.562 3.599-2.257 5.684-1.833 1.293.263 3.263.663 3.263.663l.828 2.838s-7.207 7.208-10.778 10.778c-1.743 1.743-4.106 2.722-6.571 2.722h-.454c-2.924 0-5.728-1.162-7.796-3.229-2.067-2.068-3.229-4.872-3.229-7.796v-1.975h-.022l-2.166-6.497c-.099-.3-.164-.61-.191-.924-.048-.56.024-1.128.209-1.658.089-.256.205-.501.343-.734l2.5-4.187z"/><path d="m16 14h1.453l.323-1.291 1.641.029 1.269.699-.686 2.744v2.405l-.18 1.891 1.15-.033c.284.009.564-.104.764-.321.58-.627 1.222-1.321 1.787-1.933.97-1.049 2.417-1.516 3.817-1.231 1.293.263 2.662.541 2.662.541s-6.793 6.793-10.364 10.364c-1.368 1.368-3.223 2.136-5.157 2.136h-.454c-4.984 0-9.025-4.041-9.025-9.025v-2.232l-.624-1.872 1.019-.911 1.692-.444.161.484h1.706l-.699-2.798 1.485-.714 1.425-.014.631 2.526h1.204v-3l1.44-.378 1.56.378zm-9.233.557-1.408 1.03-1.302.326-.967-2.899 1.231-.976 1.48-.379zm14.919-5.12-.757 3.03-1.528.035-1.383-.763.758-3.03 1.505.028zm-10.764 2.067-1.343.69-1.567.038-.757-3.03 1.381-.795 1.529.067zm-5.441-.804-1.256 1.048-1.454.308-.062-.186c-.184-.552-.118-1.158.181-1.658.599-1.003 1.559-2.61 1.559-2.61zm10.519.3-1.473.284-1.527-.284v-3l1.676-.449 1.324.449zm5.929-2.533-1.653.003-1.258-.731.457-1.826c.039-.154.095-.304.17-.445.174-.333.443-.613.769-.801.96-.556 1.921-1.111 2.881-1.667zm-12.007-.963-1.436.729-1.474-.001-.354-1.418c-.043-.174-.064-.352-.06-.531.011-.455.18-.9.474-1.247.575-.679 1.15-1.357 1.724-2.036zm6.078-.504-1.442.449-1.558-.449c0-.643 0-1.286 0-1.93 0-.498.19-.984.526-1.351.109-.118.231-.224.365-.313.703-.469 1.406-.937 2.109-1.406z" fill="#d9e580"/><g fill="#b1c232"><path d="m7.087 15.516-2.711 1.355-.319-.958 2.71-1.356zm13.842-3.049-.243.97-2.91-.728.242-.97zm-9.764.007-2.91.728-.243-.97 2.91-.728zm-5.364-.815-2.711 1.355-.319-.958 2.71-1.356zm10.199.341h-3v-1h3zm5.929-3.533-.243.97-2.91-.728.242-.97zm-11.764.007-2.91.728-.243-.97 2.91-.728zm2.835-.474v-1h3v1z" fill-rule="nonzero"/><path d="m20 18.586v.859c0 .411.252.781.636.931.108.043.221.065.334.068l-2.47 2.47-.708-.708c-.475-.475-1.12-.742-1.792-.742s-1.317.267-1.792.742c-1.036 1.036-2.001 2.001-2.001 2.001-.39.39-1.024.39-1.414 0s-.39-1.024 0-1.414c0 0 .965-.965 2.001-2.001.85-.85 2.004-1.328 3.206-1.328.864 0 1.702.246 2.421.7z"/></g></g></svg>