<svg clip-rule="evenodd" fill-rule="evenodd" stroke-linejoin="round" stroke-miterlimit="2" viewBox="0 0 32 32" xmlns="http://www.w3.org/2000/svg" xmlns:xlink="http://www.w3.org/1999/xlink"><clipPath id="a"><path clip-rule="evenodd" d="m0 0h32v32h-32z"/></clipPath><metadata/><path d="m0 0h32v32h-32z" fill="none"/><g clip-path="url(#a)"><path d="m16 0c4.243 0 8.313 1.686 11.314 4.686 3 3.001 4.686 7.071 4.686 11.314v2c0 7.732-6.268 14-14 14-1.325 0-2.675 0-4 0-7.732 0-14-6.268-14-14v-2c0-8.837 7.163-16 16-16z"/><path d="m30 16c0-3.713-1.475-7.274-4.101-9.899-2.625-2.626-6.186-4.101-9.899-4.101-7.732 0-14 6.268-14 14v2c0 6.627 5.373 12 12 12h4c6.627 0 12-5.373 12-12z" fill="#fbc546"/><path d="m5.784 14.717c.188.187.442.293.707.293s.519-.106.706-.293c.007-.007.011-.01.011-.01.608-.608 1.432-.95 2.292-.95s1.684.342 2.292.95c0 0 .004.003.011.01.39.39 1.022.39 1.413 0 0 0 0 0 0-.001.391-.39.391-1.023 0-1.414-.006-.006-.009-.01-.009-.01-.983-.983-2.317-1.535-3.707-1.535s-2.724.552-3.707 1.535c0 0-.003.004-.01.011-.187.187-.293.441-.293.706s.106.519.293.707z"/><path d="m26.216 14.717c-.188.187-.442.293-.707.293s-.519-.106-.706-.293c-.007-.007-.011-.01-.011-.01-.608-.608-1.432-.95-2.292-.95s-1.684.342-2.292.95c0 0-.004.003-.011.01-.39.39-1.022.39-1.413 0 0 0 0 0 0-.001-.391-.39-.391-1.023 0-1.414.006-.006.009-.01.009-.01.983-.983 2.317-1.535 3.707-1.535s2.724.552 3.707 1.535c0 0 .003.004.01.011.187.187.293.441.293.706s-.106.519-.293.707z"/><path d="m18.221 20.365-3.592-1.437c-.513-.204-.762-.787-.557-1.299.204-.513.787-.762 1.299-.557l5 2c.312.124.541.398.609.727.067.329-.035.67-.273.908l-1.293 1.293 1.293 1.293c.238.238.34.579.273.908-.068.329-.297.603-.609.727l-5 2c-.512.205-1.095-.044-1.299-.557-.205-.512.044-1.095.557-1.299l3.592-1.437-.928-.928c-.383-.402-.383-1.012 0-1.414z" fill="#593604"/></g></svg>