<svg clip-rule="evenodd" fill-rule="evenodd" stroke-linejoin="round" stroke-miterlimit="2" viewBox="0 0 32 32" xmlns="http://www.w3.org/2000/svg" xmlns:xlink="http://www.w3.org/1999/xlink"><clipPath id="a"><path clip-rule="evenodd" d="m0 0h32v32h-32z"/></clipPath><metadata/><path d="m0 0h32v32h-32z" fill="none"/><g clip-path="url(#a)"><path d="m16.002 0c8.835 0 15.998 7.163 15.998 15.998v1.002c0 3.978-1.58 7.794-4.393 10.607s-6.629 4.393-10.607 4.393h-2c-8.284 0-15-6.716-15-15v-1c0-4.243 1.686-8.313 4.686-11.314 3.001-3 7.071-4.686 11.314-4.686z"/><path d="m30 15.998c0-7.731-6.267-13.998-13.998-13.998h-.002c-3.713 0-7.274 1.475-9.899 4.101-2.626 2.625-4.101 6.186-4.101 9.899v1c0 7.18 5.82 13 13 13h2c3.448 0 6.754-1.37 9.192-3.808s3.808-5.744 3.808-9.192z" fill="#fbc546"/><path d="m9.913 23.933c-1.875-1.442-3.224-3.532-3.712-5.933h19.598c-.488 2.401-1.837 4.491-3.712 5.933-1.112-1.205-11.062-1.205-12.174 0z" fill="#722245"/><path d="m9.913 23.933c1.112-1.205 2.698-1.933 4.412-1.933h3.35c1.714 0 3.3.728 4.412 1.933-1.686 1.296-3.797 2.067-6.087 2.067s-4.401-.771-6.087-2.067z" fill="#ca3b8f"/><path d="m9.502 17c.928 0 1.817-.369 2.473-1.025s1.025-1.545 1.025-2.473c0-.657 0-1.345 0-2.002 0-1.933-1.567-3.5-3.5-3.5h-.002c-.928 0-1.817.369-2.473 1.025s-1.025 1.545-1.025 2.473v2.002c0 1.933 1.567 3.5 3.5 3.5z" fill="#fff"/><path d="m8 11c0-.53.211-1.039.586-1.414s.884-.586 1.414-.586 1.039.211 1.414.586.586.884.586 1.414v2.983c0 .531-.211 1.039-.586 1.415-.375.375-.884.585-1.414.585s-1.039-.21-1.414-.585c-.375-.376-.586-.884-.586-1.415 0-.935 0-2.047 0-2.983z"/><path d="m22.498 17c-.928 0-1.817-.369-2.473-1.025s-1.025-1.545-1.025-2.473c0-.657 0-1.345 0-2.002 0-1.933 1.567-3.5 3.5-3.5h.002c.928 0 1.817.369 2.473 1.025s1.025 1.545 1.025 2.473v2.002c0 1.933-1.567 3.5-3.5 3.5z" fill="#fff"/><path d="m24 11c0-.53-.211-1.039-.586-1.414s-.884-.586-1.414-.586-1.039.211-1.414.586-.586.884-.586 1.414v2.983c0 .531.211 1.039.586 1.415.375.375.884.585 1.414.585s1.039-.21 1.414-.585c.375-.376.586-.884.586-1.415 0-.935 0-2.047 0-2.983z"/></g></svg>