<svg clip-rule="evenodd" fill-rule="evenodd" stroke-linejoin="round" stroke-miterlimit="1.41421" viewBox="0 0 32 32" xmlns="http://www.w3.org/2000/svg" xmlns:xlink="http://www.w3.org/1999/xlink"><clipPath id="a"><path clip-rule="evenodd" d="m0 0h32v32h-32z"/></clipPath><metadata/><path d="m0 0h32v32h-32z" fill="none"/><g clip-path="url(#a)"><path d="m23.005 9.235h3.659v5.466h-4.371l-.273 2.145h3.589v5.467h-4.296l-1.017 7.687h-3.919v-2l.752-5.687h-3.955l-1.017 7.687h-3.882v-2l.753-5.687h-3.692v-5.467h4.409l.292-2.145h-3.646v-5.466h4.371l.942-7.235h3.882v2l-.682 5.235h3.96l.942-7.235h3.881v2zm-4.866 5.466h-3.948l-.292 2.145h3.947z" fill="none" stroke="#000" stroke-width="4"/><path d="m13 0h9v5h-9z"/><path d="m10 27h9v5h-9z"/><g fill-rule="nonzero"><path d="m22.293 14.701-.528 4.145 3.844 1.467v2h-4.296l-1.017 7.687h-3.919v-2l1.017-5.687h-4.22l-1.017 7.687h-3.882v-2l1.018-5.687h-3.957v-2l4.409-1.467.565-4.145h-3.919v-2l4.371-1.466.942-7.235 3.882-2v2l-.943 7.235h4.221l.942-7.235 3.881-2v2l-.942 7.235 3.919 1.466v2zm-3.881 0h-4.221l-.565 4.145h4.22z" fill="#727272"/><path d="m22.293 12.701-.528 4.145h3.844v3.467h-4.296l-1.017 7.687h-3.919l1.017-7.687h-4.22l-1.017 7.687h-3.882l1.018-7.687h-3.957v-3.467h4.409l.565-4.145h-3.919v-3.466h4.371l.942-7.235h3.882l-.943 7.235h4.221l.942-7.235h3.881l-.942 7.235h3.919v3.466zm-3.881 0h-4.221l-.565 4.145h4.22z" fill="#fff"/></g></g></svg>