<svg clip-rule="evenodd" fill-rule="evenodd" stroke-linejoin="round" stroke-miterlimit="1.41421" viewBox="0 0 32 32" xmlns="http://www.w3.org/2000/svg" xmlns:xlink="http://www.w3.org/1999/xlink"><clipPath id="a"><path clip-rule="evenodd" d="m0 0h32v32h-32z"/></clipPath><metadata/><path d="m0 0h32v32h-32z" fill="none"/><g clip-path="url(#a)"><path d="m32 8c0-4.418-3.582-8-8-8-4.887 0-11.113 0-16 0-4.418 0-8 3.582-8 8v16c0 4.418 3.582 8 8 8h16c4.418 0 8-3.582 8-8 0-4.887 0-11.113 0-16z"/><path d="m30 20h-28v4c0 3.314 2.686 6 6 6h16c3.314 0 6-2.686 6-6 0-2.126 0-4 0-4z" fill="#b2b2b2"/><path d="m30 8c0-3.314-2.686-6-6-6-4.724 0-11.276 0-16 0-1.591 0-3.117.632-4.243 1.757-1.125 1.126-1.757 2.652-1.757 4.243v12c0 3.314 2.686 6 6 6h16c1.591 0 3.117-.632 4.243-1.757 1.125-1.126 1.757-2.652 1.757-4.243 0-3.665 0-8.335 0-12z" fill="#fff"/><path d="m20.225 12.497-.345 2.71h2.513v2.267h-2.808l-.665 5.026h-2.563l.665-5.026h-2.759l-.665 5.026h-2.538l.665-5.026h-2.587v-2.267h2.883l.37-2.71h-2.563v-2.267h2.858l.616-4.73h2.538l-.616 4.73h2.759l.616-4.73h2.538l-.616 4.73h2.562v2.267zm-2.537 0h-2.76l-.369 2.71h2.759z" fill="#333" fill-rule="nonzero"/></g></svg>