<svg clip-rule="evenodd" fill-rule="evenodd" stroke-linecap="round" stroke-miterlimit="1.5" viewBox="0 0 32 32" xmlns="http://www.w3.org/2000/svg" xmlns:xlink="http://www.w3.org/1999/xlink"><clipPath id="a"><path clip-rule="evenodd" d="m0 .008h32v32h-32z"/></clipPath><metadata/><path d="m0 .008h32v32h-32z" fill="none"/><g clip-path="url(#a)"><path d="m7.009 2.775c.119-1.547 1.414-2.767 2.991-2.767 1.656 0 3 1.345 3 3v2c0 .508-.127.987-.35 1.407 1.087-.268 2.212-.407 3.35-.407h.044c3.697.012 7.24 1.486 9.855 4.101 2.626 2.625 4.101 6.186 4.101 9.899v2c0 5.523-4.477 10-10 10h-8c-5.523 0-10-4.477-10-10 0-.654 0-1.324 0-2 0-2.478.657-4.89 1.876-7h-.876c-1.656 0-3-1.344-3-3 0-1.577 1.22-2.871 2.766-2.991l-.887-.887c-1.171-1.171-1.171-3.072 0-4.243 1.17-1.171 3.072-1.171 4.242 0l.888.888z"/><path d="m28 20.008c0-3.182-1.264-6.234-3.515-8.485-2.25-2.25-5.302-3.515-8.485-3.515-3.183 0-6.235 1.265-8.485 3.515-2.251 2.251-3.515 5.303-3.515 8.485v2c0 4.419 3.582 8 8 8h8c4.418 0 8-3.581 8-8 0-.654 0-1.324 0-2z" fill="#fbc546"/><path d="m10 24.008s.019.057.051.154c.567 1.7 2.157 2.846 3.949 2.846l1.917-2 2.083 2c1.792 0 3.382-1.146 3.949-2.846.032-.097.051-.154.051-.154" fill="none" stroke="#593604" stroke-width="2"/><path d="m19.684 19.957 3 1c.523.175 1.09-.109 1.265-.632.174-.524-.109-1.091-.633-1.265l-3-1c-.523-.175-1.09.109-1.265.632-.174.524.109 1.091.633 1.265z"/><path d="m11.684 18.06-3 1c-.524.174-.807.741-.633 1.265.175.523.742.807 1.265.632l3-1c.524-.174.807-.741.633-1.265-.175-.523-.742-.807-1.265-.632z"/><path d="m32 .008v11.736l-3.894 1.948c-.417.208-.876.316-1.342.316-1.122 0-5.974 0-8.766 0-1.06 0-2.077-.421-2.827-1.171-.156-.156-.298-.324-.424-.501l-9.747 2.166c0-2.146-.456-4.596 1.294-6.203.274-.253.584-.466.917-.632 2.439-1.22 4.878-2.439 7.317-3.659h9.644l4-4h3.828z"/><path d="m15 6.008h11l3.657 4 .01.667-2.456 1.228c-.139.069-.292.105-.447.105h-6.766c-.421 0-1.674-.012-2.357-.373-1.105-.583-1.641-1.627-1.641-1.627v-.002l-9 2.002v-.764c0-.757.428-1.45 1.106-1.788 2.195-1.098 6.894-3.448 6.894-3.448z" fill="#fbc546"/><path d="m25 6.008 4-4h1v8.5l-.333.167z" fill="#e59a10"/><path d="m16 10.01v-.002c0-1.104.895-2 2-2h5v2h-5v.002c0 1.104.895 1.998 1.998 1.998h-2c-.53 0-1.038-.21-1.413-.585-.374-.375-.585-.883-.585-1.413z" fill="#7e5108"/><path d="m5 11.008h-2c-.552 0-1-.448-1-1s.448-1 1-1h2c.552 0 1 .448 1 1s-.448 1-1 1zm1.707-5.707-2-2c-.39-.39-1.024-.39-1.414 0-.39.391-.39 1.024 0 1.414l2 2c.39.391 1.024.391 1.414 0 .39-.39.39-1.023 0-1.414zm2.293-2.293v2c0 .552.448 1 1 1s1-.448 1-1v-2c0-.552-.448-1-1-1s-1 .448-1 1z" fill="#fff"/></g></svg>