<svg clip-rule="evenodd" fill-rule="evenodd" stroke-linejoin="round" stroke-miterlimit="1.41421" viewBox="0 0 32 32" xmlns="http://www.w3.org/2000/svg" xmlns:xlink="http://www.w3.org/1999/xlink"><clipPath id="a"><path clip-rule="evenodd" d="m0 0h32v32h-32z"/></clipPath><clipPath id="b"><path clip-rule="evenodd" d="m18 15c0-1.591-.632-3.117-1.757-4.243-1.126-1.125-2.652-1.757-4.243-1.757-1.591 0-3.117.632-4.243 1.757-1.125 1.126-1.757 2.652-1.757 4.243v2c0 1.591.632 3.117 1.757 4.243 1.126 1.125 2.652 1.757 4.243 1.757 1.591 0 3.117-.632 4.243-1.757 1.125-1.126 1.757-2.652 1.757-4.243 0-.663 0-1.337 0-2z"/></clipPath><metadata/><path d="m0 0h32v32h-32z" fill="none"/><g clip-path="url(#a)"><path d="m7.043 23.279c-.141-.112-.279-.228-.412-.349-.779-.704-1.415-1.562-1.864-2.512-.32-.677-.544-1.4-.664-2.14-.058-.357-.089-.717-.101-1.079-.014-.766-.006-1.532-.001-2.298.016-.886.168-1.763.467-2.598.409-1.141 1.078-2.184 1.946-3.03.843-.822 1.867-1.453 2.981-1.837.807-.278 1.652-.42 2.506-.435.099-.001.099-.001.198 0 .854.015 1.699.157 2.506.435 1.145.395 2.196 1.051 3.052 1.907.274.274.528.568.759.879.222-.447.528-.852.898-1.188.388-.351.845-.624 1.337-.801.308-.11.629-.182.954-.214.167-.017.199-.015.358-.019 1.412 0 2.824-.031 4.235.004.175.013.219.013.393.039.322.048.639.136.94.261.484.2.928.496 1.298.867.417.417.739.925.938 1.48.11.308.182.629.214.954.017.167.015.199.019.358v5.074c-.004.159-.002.191-.019.358-.032.325-.104.646-.214.954-.221.617-.595 1.176-1.081 1.617-.388.351-.845.624-1.337.801-.115.041-.231.076-.349.107v1.163l-.004.161c-.005.066-.008.131-.015.197-.019.195-.053.39-.101.58-.053.214-.125.423-.213.625.353.078.697.201 1.019.366.79.405 1.443 1.058 1.848 1.848.191.372.326.774.4 1.186.076.425.087.861.032 1.289-.057.452-.188.894-.386 1.305-.222.46-.528.879-.898 1.232-.371.354-.805.639-1.277.839-.522.221-1.088.335-1.655.335s-1.133-.114-1.655-.335c-.392-.166-.758-.391-1.083-.665h-.05c-.163-.004-.196-.002-.367-.02-.201-.02-.4-.055-.595-.106v1.126h-20c0-.725-.011-1.451.002-2.176.023-.746.156-1.482.408-2.186.523-1.462 1.537-2.727 2.849-3.556.434-.273.897-.5 1.379-.672.134-.048.269-.092.405-.131zm12.357-3.238c-.276.67-.643 1.303-1.089 1.875-.394.507-.85.964-1.353 1.362.315.092.624.206.924.341.391.177.766.39 1.118.636v-.292c.006-.252.027-.5.077-.747.154-.771.538-1.489 1.094-2.045.14-.14.29-.269.449-.387.009-.007.018-.013.026-.019-.455-.164-.879-.411-1.246-.724z"/><path d="m8 25.1 1 2.9-1 2h-4c0-2.419 1.718-4.437 4-4.9zm8 0c2.282.463 4 2.481 4 4.9h-4l-1-2z" fill="#fff"/><path d="m8 25.1c.048-.01.097-.019.146-.027.469 1.687 7.239 1.687 7.708 0 .049.008.098.017.146.027v4.9h-8z" fill="#40cec0"/><path d="m8.146 25.073c.277-.048.563-.073.854-.073h6c.291 0 .577.025.854.073-.469 1.687-2.018 2.927-3.854 2.927s-3.385-1.24-3.854-2.927z" fill="#885030"/><path d="m18 15c0-1.591-.632-3.117-1.757-4.243-1.126-1.125-2.652-1.757-4.243-1.757-1.591 0-3.117.632-4.243 1.757-1.125 1.126-1.757 2.652-1.757 4.243v2c0 1.591.632 3.117 1.757 4.243 1.126 1.125 2.652 1.757 4.243 1.757 1.591 0 3.117-.632 4.243-1.757 1.125-1.126 1.757-2.652 1.757-4.243 0-.663 0-1.337 0-2z" fill="#885030"/><g clip-path="url(#b)"><path d="m16 15c0-.552-.448-1-1-1s-1 .448-1 1v1c0 .552.448 1 1 1s1-.448 1-1c0-.322 0-.678 0-1zm-6 0c0-.552-.448-1-1-1s-1 .448-1 1v1c0 .552.448 1 1 1s1-.448 1-1c0-.322 0-.678 0-1z"/></g><path d="m25 22.012c-.006.26-.052.513-.152.753-.214.518-.646.929-1.174 1.118-.209.075-.427.111-.649.117h-.025c-.024.996 0 1.992 0 2.987v.013h.013 1.987v2h-2.013c-.198-.005-.392-.031-.581-.09-.558-.173-1.021-.593-1.249-1.131-.064-.152-.109-.312-.134-.476-.014-.089-.014-.111-.021-.201-.026-1.038-.002-2.076-.002-3.114.006-.26.052-.513.152-.753.214-.518.646-.929 1.174-1.118.209-.075.427-.111.649-.117h.025v-.012-3.988h2z" fill="#4d4d4d" fill-rule="nonzero"/><g fill="#b3b3b3"><circle cx="25.75" cy="27.75" r="2.25"/><path d="m23.2 12h-1.188-.012c-.041 1.662 0 3.325 0 4.988v.012c1.329.033 2.658 0 3.988 0h.012c.041-1.662 0-3.325 0-4.988v-.012h-.012-1.188v-2h1.212c.194.005.384.03.57.086.568.173 1.039.6 1.266 1.149.089.214.133.436.15.666.042 1.703.002 3.408.002 5.111-.005.194-.03.384-.086.57-.173.568-.6 1.039-1.149 1.266-.213.089-.436.133-.666.15-1.37.034-2.741.002-4.111.002-.194-.005-.384-.03-.57-.086-.568-.173-1.039-.6-1.266-1.148-.089-.214-.133-.437-.15-.667-.042-1.703-.002-3.408-.002-5.111.006-.227.04-.448.117-.662.2-.559.65-1.009 1.209-1.209.214-.077.435-.111.662-.117h1.212z" fill-rule="nonzero"/></g></g></svg>