<svg clip-rule="evenodd" fill-rule="evenodd" stroke-linecap="round" stroke-miterlimit="1.5" viewBox="0 0 32 32" xmlns="http://www.w3.org/2000/svg" xmlns:xlink="http://www.w3.org/1999/xlink"><clipPath id="a"><path clip-rule="evenodd" d="m0 0h32v32h-32z"/></clipPath><metadata/><path d="m0 0h32v32h-32z" fill="none"/><g clip-path="url(#a)"><path d="m16 0c4.243 0 8.313 1.686 11.314 4.686.329.329.642.671.939 1.025.771.261 1.496.697 2.112 1.308.016.016.033.032.049.048 1.038 1.031 1.623 2.433 1.626 3.896.001.664-.118 1.316-.345 1.927.201 1.017.305 2.058.305 3.11v2c0 7.732-6.268 14-14 14-1.325 0-2.675 0-4 0-7.732 0-14-6.268-14-14v-2c0-1.049.101-2.075.294-3.068-.731-1.956-.309-4.245 1.264-5.818.014-.014.028-.028.042-.042.599-.599 1.322-1.046 2.108-1.315 2.887-3.461 7.207-5.683 12.049-5.755l.243-.002z"/><path d="m30 16c0-3.713-1.475-7.274-4.101-9.899-2.625-2.626-6.186-4.101-9.899-4.101-7.732 0-14 6.268-14 14v2c0 6.627 5.373 12 12 12h4c6.627 0 12-5.373 12-12z" fill="#fbc546"/><path d="m8 21s.921.921 1.879 1.879c.562.562 1.325.878 2.121.878s1.559-.316 2.121-.878c.424-.424.839-.839 1.172-1.172.187-.187.442-.293.707-.293s.52.106.707.293l1.172 1.172c.562.562 1.325.878 2.121.878s1.559-.316 2.121-.878c.958-.958 1.879-1.879 1.879-1.879" fill="none" stroke="#593604" stroke-width="2"/><g fill="#d92020"><path d="m23.464 19s-3.159-3.173-5.498-5.522c-1.363-1.37-1.36-3.584.006-4.95.014-.014.028-.028.042-.042.659-.659 1.552-1.028 2.484-1.026.931.001 1.823.374 2.48 1.034.29.293.486.49.486.49s.232-.228.567-.558c1.369-1.345 3.564-1.339 4.925.013.016.016.032.032.048.048.662.656 1.034 1.548 1.036 2.48.001.931-.368 1.825-1.027 2.484-2.36 2.36-5.549 5.549-5.549 5.549z"/><path d="m8.464 19s-3.159-3.173-5.498-5.522c-1.363-1.37-1.36-3.584.006-4.95l.042-.042c.659-.659 1.552-1.028 2.484-1.026.931.001 1.823.374 2.48 1.034.29.293.486.49.486.49s.232-.228.567-.558c1.369-1.345 3.564-1.339 4.925.013l.048.048c.662.656 1.034 1.548 1.036 2.48.001.931-.368 1.825-1.027 2.484-2.36 2.36-5.549 5.549-5.549 5.549z"/></g></g></svg>