<svg clip-rule="evenodd" fill-rule="evenodd" stroke-linecap="round" stroke-linejoin="round" stroke-miterlimit="1.5" viewBox="0 0 32 32" xmlns="http://www.w3.org/2000/svg" xmlns:xlink="http://www.w3.org/1999/xlink"><clipPath id="a"><path clip-rule="evenodd" d="m16 25.833s-5.615-5.615-9.746-9.747c-1.142-1.142-1.784-2.691-1.784-4.306s.642-3.164 1.784-4.306c1.142-1.142 2.691-1.784 4.306-1.784 1.616 0 3.165.642 4.307 1.784.663.663 1.133 1.133 1.133 1.133s.47-.47 1.133-1.133c1.142-1.142 2.691-1.784 4.307-1.784 1.615 0 3.164.642 4.306 1.784 1.142 1.142 1.784 2.691 1.784 4.306s-.642 3.164-1.784 4.306c-4.131 4.132-9.746 9.747-9.746 9.747z"/></clipPath><clipPath id="b"><path clip-rule="evenodd" d="m16 27s-6.194-6.194-10.751-10.751c-1.26-1.26-1.967-2.968-1.967-4.749s.707-3.489 1.967-4.749c.001-.001.001-.001.002-.002 1.26-1.26 2.968-1.967 4.749-1.967s3.489.707 4.749 1.967c.732.732 1.251 1.251 1.251 1.251s.519-.519 1.251-1.251c1.26-1.26 2.968-1.967 4.749-1.967s3.489.707 4.749 1.967c.001.001.001.001.002.002 1.26 1.26 1.967 2.968 1.967 4.749s-.707 3.489-1.967 4.749c-4.557 4.557-10.751 10.751-10.751 10.751z"/></clipPath><clipPath id="c"><path clip-rule="evenodd" d="m3 14h26v5h-26z"/></clipPath><metadata/><g fill="none"><path d="m0 0h32v32h-32z"/><path d="m16 27s-6.194-6.194-10.751-10.751c-1.26-1.26-1.967-2.968-1.967-4.749s.707-3.489 1.967-4.749c.001-.001.001-.001.002-.002 1.26-1.26 2.968-1.967 4.749-1.967s3.489.707 4.749 1.967c.732.732 1.251 1.251 1.251 1.251s.519-.519 1.251-1.251c1.26-1.26 2.968-1.967 4.749-1.967s3.489.707 4.749 1.967c.001.001.001.001.002.002 1.26 1.26 1.967 2.968 1.967 4.749s-.707 3.489-1.967 4.749c-4.557 4.557-10.751 10.751-10.751 10.751z" stroke="#000" stroke-width="4"/><path d="m13 19-2 5-6-6 5-2z" stroke="#000" stroke-linecap="butt" stroke-width="4"/></g><path d="m16 25.833s-5.615-5.615-9.746-9.747c-1.142-1.142-1.784-2.691-1.784-4.306s.642-3.164 1.784-4.306c1.142-1.142 2.691-1.784 4.306-1.784 1.616 0 3.165.642 4.307 1.784.663.663 1.133 1.133 1.133 1.133s.47-.47 1.133-1.133c1.142-1.142 2.691-1.784 4.307-1.784 1.615 0 3.164.642 4.306 1.784 1.142 1.142 1.784 2.691 1.784 4.306s-.642 3.164-1.784 4.306c-4.131 4.132-9.746 9.747-9.746 9.747z" fill="#ff4586"/><g clip-path="url(#a)"><path d="m13 28h-12v-29h22v5.858c0 2.588-1.003 5.072-2.794 6.934l-5.303-5.303-.409.084-2.571 6.427h-9.923v9h11.006c-.004.104-.006.209-.006.314z" fill="#ff8fb6"/></g><path d="m10.083 4.782.084.002.083.003.083.003.083.005.083.005.082.007.083.008.082.008.082.01.082.011.082.011.081.013.081.014.082.014.08.016.081.017.08.017.08.019.08.019.08.021.079.021.079.023.078.023.079.024.078.026.077.026.077.027.077.028.077.029.076.03.076.031.076.032.075.033.074.033.075.035.073.035.074.037.073.037.072.038.073.039.071.04.071.041.071.042.07.042.07.044.069.044.069.045.068.046.068.047.067.048.067.049.066.049.065.051.065.051.064.052.064.053.063.053.063.055.062.055.061.056.061.057.06.058.059.059 1.251 1.251 1.251-1.251.059-.059.06-.058.061-.057.061-.056.062-.055.063-.055.063-.053.064-.053.064-.052.065-.051.065-.051.066-.049.067-.049.067-.048.068-.047.068-.046.069-.045.069-.044.07-.044.07-.042.071-.042.071-.041.071-.04.073-.039.072-.038.073-.037.074-.037.073-.035.075-.035.074-.033.075-.033.076-.032.076-.031.076-.03.077-.029.077-.028.077-.027.077-.026.078-.026.079-.024.078-.023.079-.023.079-.021.08-.021.08-.019.08-.019.08-.017.081-.017.08-.016.082-.014.081-.014.081-.013.082-.011.082-.011.082-.01.082-.008.083-.008.082-.007.083-.005.083-.005.083-.003.083-.003.084-.002h.083.083l.084.002.083.003.083.003.083.005.083.005.082.007.083.008.082.008.082.01.082.011.082.011.081.013.082.014.081.014.08.016.081.017.08.017.08.019.08.019.08.021.079.021.079.023.078.023.079.024.078.026.077.026.077.027.077.028.077.029.076.03.076.031.076.032.075.033.074.033.075.035.074.035.073.037.073.037.073.038.072.039.071.04.071.041.071.042.07.042.07.044.069.044.069.045.068.046.068.047.067.048.067.049.066.049.065.051.065.051.064.052.064.053.063.053.063.055.062.055.061.056.061.057.06.058.061.061.059.059.058.06.057.061.056.061.055.062.055.063.053.063.053.064.052.064.051.065.051.065.049.066.049.067.048.067.047.068.046.068.045.069.044.069.044.07.042.07.042.071.041.071.04.071.039.072.038.073.037.073.037.073.035.074.035.075.033.074.033.075.032.076.031.076.03.076.029.077.028.077.027.077.026.077.026.078.024.079.023.078.023.079.021.079.021.08.019.08.019.08.017.08.017.081.016.08.014.081.014.082.013.081.011.082.011.082.01.082.008.082.008.083.007.082.005.083.005.083.003.083.003.083.002.084v.083.083l-.002.084-.003.083-.003.083-.005.083-.005.083-.007.082-.008.083-.008.082-.01.082-.011.082-.011.082-.013.081-.014.082-.014.081-.016.08-.017.081-.017.08-.019.08-.019.08-.021.08-.021.079-.023.079-.023.078-.024.079-.026.078-.026.077-.027.077-.028.077-.029.077-.03.076-.031.076-.032.076-.033.075-.033.074-.035.075-.035.074-.037.073-.037.073-.038.073-.039.072-.04.071-.041.071-.042.071-.042.07-.044.07-.044.069-.045.069-.046.068-.047.068-.048.067-.049.067-.049.066-.051.065-.051.065-.052.064-.053.064-.053.063-.055.063-.055.062-.056.061-.057.061-.058.06-.059.059-10.751 10.751-10.751-10.751-.059-.059-.058-.06-.057-.061-.056-.061-.055-.062-.055-.063-.053-.063-.053-.064-.052-.064-.051-.065-.051-.065-.049-.066-.049-.067-.048-.067-.047-.068-.046-.068-.045-.069-.044-.069-.044-.07-.042-.07-.042-.071-.041-.071-.04-.071-.039-.072-.038-.073-.037-.073-.037-.073-.035-.074-.035-.075-.033-.074-.033-.075-.032-.076-.031-.076-.03-.076-.029-.077-.028-.077-.027-.077-.026-.077-.026-.078-.024-.079-.023-.078-.023-.079-.021-.079-.021-.08-.019-.08-.019-.08-.017-.08-.017-.081-.016-.08-.014-.081-.014-.082-.013-.081-.011-.082-.011-.082-.01-.082-.008-.082-.008-.083-.007-.082-.005-.083-.005-.083-.003-.083-.003-.083-.002-.084v-.083-.083l.002-.084.003-.083.003-.083.005-.083.005-.083.007-.082.008-.083.008-.082.01-.082.011-.082.011-.082.013-.081.014-.082.014-.081.016-.08.017-.081.017-.08.019-.08.019-.08.021-.08.021-.079.023-.079.023-.078.024-.079.026-.078.026-.077.027-.077.028-.077.029-.077.03-.076.031-.076.032-.076.033-.075.033-.074.035-.075.035-.074.037-.073.037-.073.038-.073.039-.072.04-.071.041-.071.042-.071.042-.07.044-.07.044-.069.045-.069.046-.068.047-.068.048-.067.049-.067.049-.066.051-.065.051-.065.052-.064.053-.064.053-.063.055-.063.055-.062.056-.061.057-.061.058-.06.059-.059.002-.002.059-.059.06-.058.061-.057.061-.056.062-.055.063-.055.063-.053.064-.053.064-.052.065-.051.065-.051.066-.049.067-.049.067-.048.068-.047.068-.046.069-.045.069-.044.07-.044.07-.042.071-.042.071-.041.071-.04.072-.039.073-.038.073-.037.073-.037.074-.035.075-.035.074-.033.075-.033.076-.032.076-.031.076-.03.077-.029.077-.028.077-.027.077-.026.078-.026.079-.024.078-.023.079-.023.079-.021.08-.021.08-.019.08-.019.08-.017.081-.017.08-.016.081-.014.082-.014.081-.013.082-.011.082-.011.082-.01.082-.008.083-.008.082-.007.083-.005.083-.005.083-.003.083-.003.084-.002h.083.083zm11.858 2-.058.001-.059.002-.058.003-.058.003-.058.004-.058.005-.058.005-.058.006-.058.007-.057.007-.057.009-.058.008-.057.01-.057.01-.056.011-.057.012-.056.012-.056.013-.056.014-.056.014-.056.016-.055.015-.056.017-.054.017-.055.018-.055.018-.054.019-.054.02-.054.02-.053.021-.054.022-.053.022-.052.023-.053.024-.052.024-.052.025-.051.025-.052.027-.051.027-.05.027-.051.028-.05.029-.049.029-.05.03-.049.03-.048.031-.048.032-.048.033-.048.033-.047.033-.047.034-.046.035-.046.035-.046.036-.045.037-.044.037-.045.038-.044.038-.043.039-.043.039-.043.04-.042.041-.046.046-2.661 2.66-2.661-2.661-.046-.045-.042-.041-.043-.04-.043-.039-.043-.039-.044-.038-.045-.038-.044-.037-.045-.037-.046-.036-.046-.035-.046-.035-.047-.034-.047-.033-.048-.033-.048-.033-.048-.031-.048-.032-.049-.03-.05-.03-.049-.029-.05-.029-.05-.028-.051-.028-.051-.026-.051-.026-.052-.026-.052-.025-.052-.024-.052-.024-.053-.023-.053-.022-.054-.022-.053-.021-.054-.02-.054-.02-.054-.019-.055-.018-.055-.018-.055-.017-.055-.017-.055-.015-.056-.016-.056-.014-.056-.014-.056-.013-.056-.012-.057-.012-.056-.011-.057-.01-.057-.01-.058-.008-.057-.009-.058-.007-.057-.007-.058-.006-.058-.005-.058-.005-.058-.004-.058-.003-.058-.003-.059-.002-.058-.001h-.059-.059l-.058.001-.059.002-.058.003-.058.003-.058.004-.058.005-.058.005-.058.006-.058.007-.057.007-.057.009-.058.008-.057.01-.057.01-.056.011-.057.012-.056.012-.056.013-.056.014-.056.015-.056.015-.056.015-.054.017-.055.017-.055.018-.055.018-.054.019-.054.02-.054.02-.053.021-.054.022-.053.022-.053.023-.052.024-.052.024-.052.025-.052.026-.051.026-.051.026-.051.028-.05.028-.05.029-.049.029-.05.03-.049.03-.048.032-.048.031-.048.033-.048.033-.047.033-.047.034-.046.035-.046.035-.046.036-.045.037-.045.037-.044.038-.044.038-.043.039-.043.039-.043.04-.042.041-.043.043-.042.042-.041.042-.04.043-.039.043-.039.043-.038.044-.038.045-.037.044-.037.046-.036.045-.035.046-.035.046-.034.047-.034.047-.032.048-.033.048-.031.048-.032.049-.03.048-.03.05-.029.049-.029.05-.028.051-.027.05-.027.051-.027.052-.025.051-.025.052-.024.052-.024.053-.023.052-.022.053-.022.054-.021.053-.02.054-.02.054-.019.054-.018.055-.018.055-.017.054-.017.056-.015.055-.016.056-.014.056-.014.056-.013.055-.012.057-.012.057-.011.057-.01.056-.009.057-.009.057-.009.058-.007.058-.007.057-.006.058-.005.058-.005.057-.004.059-.003.058-.003.058-.002.059-.001.058v.059.059l.001.058.002.059.003.058.003.058.004.059.005.057.005.058.006.058.007.057.007.058.009.058.009.057.009.057.01.056.011.057.012.057.012.057.013.055.014.056.014.056.016.056.015.055.017.056.017.054.018.055.018.055.019.054.02.054.02.054.021.053.022.054.022.053.023.052.024.053.024.052.025.052.025.051.027.052.027.051.027.05.028.051.029.05.029.049.03.05.03.048.032.049.031.048.033.048.032.048.034.047.034.047.035.046.035.046.036.045.037.046.037.044.038.045.038.044.039.043.039.043.04.043.041.042.046.046 9.332 9.333 9.332-9.333.046-.046.041-.042.04-.043.039-.043.039-.044.038-.043.038-.044.037-.045.037-.046.036-.045.035-.046.035-.046.034-.047.033-.047.033-.048.033-.048.031-.048.032-.049.03-.049.03-.049.029-.049.029-.05.028-.051.028-.05.026-.051.026-.051.026-.052.025-.052.024-.052.024-.052.023-.053.022-.054.022-.052.021-.054.02-.054.02-.054.019-.054.018-.055.018-.055.017-.054.017-.056.016-.056.014-.054.015-.056.014-.057.013-.056.012-.056.012-.056.011-.057.01-.057.01-.057.008-.058.009-.057.007-.057.007-.058.006-.058.005-.057.005-.059.004-.058.003-.058.003-.059.002-.058.001-.058v-.059-.059l-.001-.058-.002-.058-.003-.059-.003-.058-.004-.058-.005-.059-.005-.057-.006-.058-.007-.058-.007-.057-.009-.057-.008-.058-.01-.057-.01-.057-.011-.057-.012-.056-.012-.056-.013-.056-.014-.057-.015-.056-.014-.054-.016-.056-.017-.056-.017-.054-.018-.055-.018-.055-.019-.054-.02-.054-.02-.054-.021-.054-.022-.052-.022-.054-.023-.053-.024-.052-.024-.052-.025-.052-.026-.052-.026-.051-.026-.051-.028-.05-.028-.051-.029-.05-.029-.049-.03-.049-.03-.049-.032-.049-.031-.048-.033-.048-.033-.048-.033-.047-.034-.047-.035-.046-.035-.046-.036-.045-.037-.046-.037-.045-.038-.044-.038-.043-.039-.044-.039-.043-.04-.043-.041-.042-.043-.044-.042-.041-.042-.041-.043-.04-.043-.039-.043-.039-.044-.038-.044-.038-.045-.037-.045-.037-.046-.036-.046-.035-.046-.035-.047-.034-.047-.034-.048-.032-.047-.033-.049-.031-.048-.032-.049-.03-.05-.03-.049-.029-.05-.029-.051-.028-.05-.028-.051-.026-.051-.026-.052-.026-.052-.025-.052-.024-.052-.024-.053-.023-.053-.022-.054-.022-.053-.021-.054-.02-.054-.02-.054-.019-.055-.018-.054-.018-.055-.017-.056-.017-.055-.015-.056-.015-.055-.015-.057-.014-.056-.013-.056-.012-.057-.012-.056-.011-.057-.01-.057-.01-.058-.008-.057-.009-.057-.007-.058-.007-.058-.006-.058-.005-.058-.005-.058-.004-.058-.003-.058-.003-.059-.002-.058-.001h-.059-.059z" fill="#ff4586"/><path d="m16 27s-6.194-6.194-10.751-10.751c-1.26-1.26-1.967-2.968-1.967-4.749s.707-3.489 1.967-4.749c.001-.001.001-.001.002-.002 1.26-1.26 2.968-1.967 4.749-1.967s3.489.707 4.749 1.967c.732.732 1.251 1.251 1.251 1.251s.519-.519 1.251-1.251c1.26-1.26 2.968-1.967 4.749-1.967s3.489.707 4.749 1.967c.001.001.001.001.002.002 1.26 1.26 1.967 2.968 1.967 4.749s-.707 3.489-1.967 4.749c-4.557 4.557-10.751 10.751-10.751 10.751z" fill="none"/><g clip-path="url(#b)"><path d="m3 14h26v5h-26z" fill="#fdef24"/><g clip-path="url(#c)"><path d="m13 13 2-5 6 6-5 2z" fill="none" stroke="#c7ba02" stroke-linecap="butt" stroke-width="4"/><path d="m13 19-2 5-6-6 5-2z" fill="none" stroke="#c7ba02" stroke-linecap="butt" stroke-width="4"/><path d="m13.128 11.001.128.005.127.008.126.012.125.014.125.017.124.021.123.024.121.026.121.03.12.032.118.035.117.038.116.041.115.044.113.046.112.049.11.051.109.054.107.057.105.059.104.061.102.064.101.066.099.069.097.071.095.073.093.075.092.077.089.08.088.081.085.084.084.085.081.088.08.09.077.091.075.093.073.096.071.097.069.098.066.101.064.102.061.104.059.105.057.107.054.109.051.11.049.112.046.113.044.115.041.116.038.116.035.119.032.12.03.121.027.122.023.122.021.124.017.125.014.125.012.126.008.127.005.128.001.128-.001.128-.005.128-.008.127-.012.126-.014.125-.017.125-.021.124-.023.122-.027.122-.03.121-.032.12-.035.119-.038.116-.041.116-.044.115-.046.113-.049.112-.051.11-.054.109-.057.107-.059.105-.061.104-.064.102-.066.101-.069.098-.071.097-.073.096-.075.093-.077.091-.08.09-.081.088-.084.085-.085.084-.088.081-.089.08-.092.077-.093.075-.095.073-.097.071-.099.069-.101.066-.102.064-.104.061-.105.059-.107.057-.109.054-.11.051-.112.049-.113.046-.115.044-.116.041-.117.038-.118.035-.12.032-.121.03-.121.026-.123.024-.124.021-.125.017-.125.014-.126.012-.127.008-.128.005-.128.001-.128-.001-.128-.005-.127-.008-.126-.012-.125-.014-.125-.017-.124-.021-.123-.024-.122-.026-.12-.03-.12-.032-.118-.035-.117-.038-.116-.041-.115-.044-.113-.046-.111-.049-.111-.051-.108-.054-.107-.057-.106-.059-.104-.062-.102-.063-.101-.066-.098-.069-.097-.071-.096-.073-.093-.075-.091-.077-.09-.08-.088-.081-.085-.084-.084-.086-.081-.087-.08-.089-.077-.092-.076-.094-.072-.094-.071-.097-.069-.099-.066-.101-.064-.102-.061-.104-.059-.105-.057-.108-.054-.108-.051-.11-.049-.112-.046-.113-.044-.115-.041-.116-.038-.117-.035-.118-.032-.12-.03-.121-.026-.121-.024-.123-.021-.124-.017-.125-.014-.125-.012-.126-.008-.127-.005-.128-.001-.128.001-.128.005-.128.008-.127.012-.126.014-.125.017-.125.021-.124.024-.123.026-.121.03-.121.032-.12.035-.118.038-.117.041-.116.044-.115.046-.113.049-.112.051-.11.054-.108.057-.108.059-.105.061-.104.064-.102.066-.101.069-.099.071-.097.072-.094.076-.094.077-.092.08-.089.081-.087.084-.086.085-.084.088-.081.09-.08.091-.077.093-.075.096-.073.097-.071.098-.069.101-.066.102-.063.104-.062.106-.059.107-.057.108-.054.111-.051.111-.049.113-.046.115-.044.116-.041.117-.038.118-.035.12-.032.12-.03.122-.026.123-.024.124-.021.125-.017.125-.014.126-.012.127-.008.128-.005.128-.001zm-.155 4-.026.001-.026.001-.025.002-.025.003-.025.004-.025.004-.024.004-.024.006-.024.005-.023.007-.023.007-.023.007-.023.008-.022.009-.023.009-.022.01-.021.01-.022.01-.022.012-.02.011-.021.013-.021.013-.02.013-.02.014-.02.014-.018.015-.019.015-.019.016-.018.016-.018.016-.018.017-.016.018-.017.018-.017.018-.015.018-.015.019-.015.02-.015.019-.013.02-.014.02-.012.021-.013.021-.011.021-.011.021-.011.022-.01.021-.01.022-.009.023-.009.022-.008.023-.007.023-.007.023-.007.023-.005.024-.006.024-.004.024-.004.025-.004.025-.003.025-.002.025-.001.026-.001.026-.001.027.002.053.003.051.007.05.008.049.011.048.014.046.015.046.018.045.02.043.022.043.024.042.026.041.028.039.03.039.032.036.033.036.036.033.037.032.037.03.04.028.041.026.041.024.044.022.043.02.045.018.046.015.046.014.048.011.049.008.05.007.051.003.053.002.027-.001.026-.001.026-.001.025-.002.025-.003.025-.004.025-.004.024-.004.024-.006.024-.005.023-.007.023-.007.023-.007.023-.008.022-.009.023-.009.022-.009.021-.011.022-.01.021-.012.021-.011.021-.013.021-.013.02-.013.02-.014.019-.014.02-.015.019-.015.018-.016.018-.016.018-.016.018-.017.017-.018.016-.018.016-.018.016-.019.015-.018.015-.02.014-.019.014-.02.014-.02.012-.021.013-.021.011-.021.012-.021.01-.022.01-.021.01-.022.009-.022.009-.023.008-.023.007-.023.007-.023.007-.023.005-.024.005-.024.005-.024.004-.025.004-.025.003-.025.002-.025.002-.026.001-.027v-.026-.026l-.001-.027-.002-.026-.002-.025-.003-.025-.004-.025-.004-.025-.005-.024-.005-.024-.005-.024-.007-.023-.007-.023-.007-.023-.008-.023-.009-.023-.009-.022-.01-.022-.01-.021-.01-.022-.012-.021-.011-.021-.013-.021-.012-.021-.014-.02-.014-.02-.014-.019-.015-.02-.015-.018-.016-.019-.016-.018-.016-.018-.017-.018-.018-.017-.018-.016-.018-.016-.018-.016-.019-.015-.02-.015-.019-.014-.02-.014-.02-.013-.021-.013-.021-.013-.021-.011-.021-.012-.022-.01-.021-.011-.022-.009-.023-.009-.022-.009-.023-.008-.023-.007-.023-.007-.023-.007-.024-.005-.024-.006-.024-.004-.025-.004-.025-.004-.025-.003-.025-.002-.026-.001-.026-.001-.027-.001z" fill="#c7ba02"/></g></g><path d="m13 13 2-5 6 6-5 2z" fill="#fdef24"/><path d="m13 19-2 5-6-6 5-2z" fill="#fdef24"/><circle cx="13" cy="16" fill="#fdef24" r="3" stroke="#c7ba02" stroke-linecap="butt" stroke-linejoin="miter" stroke-width="2"/></svg>