<svg clip-rule="evenodd" fill-rule="evenodd" stroke-linecap="round" stroke-linejoin="round" stroke-miterlimit="1.5" viewBox="0 0 32 32" xmlns="http://www.w3.org/2000/svg" xmlns:xlink="http://www.w3.org/1999/xlink"><clipPath id="a"><path clip-rule="evenodd" d="m0 0h32v32h-32z"/></clipPath><clipPath id="b"><path clip-rule="evenodd" d="m16 17.376s-3.852-3.852-6.741-6.741c-1.724-1.724-1.724-4.519 0-6.243.001 0 .001-.001.001-.001 1.453-1.453 3.808-1.453 5.261 0 .803.803 1.479 1.479 1.479 1.479s.676-.676 1.479-1.479c1.453-1.453 3.808-1.453 5.261 0 0 0 0 .001.001.001 1.724 1.724 1.724 4.519 0 6.243-2.889 2.889-6.741 6.741-6.741 6.741z"/></clipPath><clipPath id="c"><circle clip-rule="evenodd" cx="16" cy="26.5" r="3.051"/></clipPath><metadata/><path d="m0 0h32v32h-32z" fill="none"/><g clip-path="url(#a)"><path d="m16.141 21.002.14.005.14.009.139.012.138.016.137.019.136.023.135.026.134.029.133.032.132.036.13.039.129.042.127.044.126.048.125.051.122.054.121.057.12.059.118.062.116.065.114.068.113.07.11.073.109.075.107.078.104.08.103.083.101.085.098.088.097.089.094.093.092.093.089.097.088.098.085.101.083.103.08.104.078.107.075.109.073.11.07.113.068.114.065.116.062.118.059.12.057.121.054.122.051.125.048.126.044.127.042.129.039.131.036.131.032.133.029.134.026.135.023.136.019.137.016.138.012.139.009.139.005.141.002.141-.002.141-.005.141-.009.139-.012.139-.016.138-.019.137-.023.136-.026.135-.029.134-.032.133-.036.131-.039.131-.042.129-.044.127-.048.126-.051.125-.054.122-.057.122-.059.119-.062.118-.065.116-.068.114-.07.113-.073.11-.075.109-.078.107-.08.104-.083.103-.085.101-.088.098-.089.097-.092.093-.094.093-.097.089-.098.088-.101.085-.103.083-.104.08-.107.078-.109.075-.11.073-.113.07-.114.068-.116.065-.118.062-.12.059-.121.057-.122.054-.125.051-.126.048-.127.044-.129.042-.13.039-.132.036-.133.032-.134.029-.135.026-.136.023-.137.019-.138.016-.139.012-.14.009-.14.005-.141.002-.141-.002-.14-.005-.14-.009-.139-.012-.138-.016-.137-.019-.136-.023-.135-.026-.134-.029-.133-.032-.132-.036-.13-.039-.129-.042-.127-.044-.126-.048-.124-.051-.123-.054-.122-.057-.119-.059-.118-.062-.116-.065-.114-.068-.113-.07-.11-.073-.109-.075-.106-.078-.105-.08-.103-.083-.1-.085-.099-.088-.096-.089-.095-.092-.092-.095-.089-.096-.088-.098-.085-.101-.083-.103-.08-.104-.078-.107-.075-.108-.073-.111-.07-.113-.068-.114-.065-.116-.062-.118-.059-.119-.057-.122-.054-.123-.05-.124-.048-.126-.046-.128-.041-.128-.039-.13-.036-.132-.032-.133-.029-.133-.026-.136-.023-.136-.019-.137-.016-.138-.012-.139-.009-.14-.005-.14-.002-.141.002-.141.005-.14.009-.14.012-.139.016-.138.019-.137.023-.136.026-.136.029-.133.032-.133.036-.132.039-.13.041-.128.046-.128.048-.126.05-.124.054-.123.057-.121.059-.12.062-.118.065-.116.068-.114.07-.113.073-.111.075-.108.078-.107.08-.104.083-.103.085-.101.088-.098.089-.096.092-.095.094-.092.097-.089.099-.088.1-.085.102-.082.106-.081.106-.078.109-.075.11-.073.113-.07.114-.068.116-.065.118-.062.119-.059.122-.057.123-.054.124-.051.126-.048.127-.044.129-.042.13-.039.132-.036.133-.032.134-.029.135-.026.136-.023.137-.019.138-.016.139-.012.14-.009.14-.005.141-.002zm-.181 3.999-.039.001-.038.003-.038.003-.038.004-.037.006-.037.006-.037.007-.036.007-.035.009-.036.01-.035.01-.034.011-.035.013-.034.012-.033.014-.034.015-.032.015-.033.016-.032.017-.031.018-.031.018-.031.019-.03.02-.03.021-.03.021-.028.022-.028.023-.029.024-.027.024-.026.025-.026.025-.025.026-.025.027-.025.027-.023.027-.022.028-.023.029-.021.03-.021.03-.02.03-.019.031-.018.031-.018.031-.017.032-.016.033-.015.033-.015.032-.014.035-.013.034-.011.033-.012.035-.01.035-.01.036-.009.035-.007.037-.007.036-.006.037-.006.037-.004.038-.003.038-.003.038-.001.039-.001.04.001.04.001.039.003.038.003.038.004.038.006.037.006.037.007.036.007.037.009.035.01.036.01.035.012.035.011.034.013.033.014.035.015.032.015.033.016.033.017.032.018.031.018.031.019.031.02.03.021.03.021.03.023.029.022.028.024.027.024.027.025.027.025.026.026.025.026.025.028.024.028.024.028.023.028.022.03.021.03.021.03.02.031.019.031.018.031.018.032.017.033.016.032.015.034.015.033.014.034.012.035.013.034.011.035.01.036.01.035.009.036.007.037.007.037.006.037.006.038.004.038.003.038.003.039.001.04.001.04-.001.039-.001.038-.003.038-.003.038-.004.037-.006.037-.006.037-.007.036-.007.035-.009.036-.01.035-.01.035-.012.034-.012.034-.012.033-.014.033-.015.033-.015.033-.016.032-.017.031-.018.031-.018.031-.019.03-.02.03-.021.029-.021.029-.023.029-.022.027-.024.028-.024.026-.025.026-.025.026-.026.024-.027.024-.027.024-.027.023-.029.022-.028.021-.03.021-.03.02-.03.019-.031.018-.031.018-.031.017-.033.016-.032.015-.033.015-.033.013-.033.013-.034.013-.035.011-.035.01-.034.01-.036.009-.035.007-.036.007-.037.006-.037.006-.037.004-.038.003-.038.003-.039.001-.038.001-.04-.001-.04-.001-.038-.003-.039-.003-.038-.004-.038-.006-.037-.006-.037-.007-.037-.007-.036-.009-.035-.01-.036-.01-.034-.011-.035-.013-.035-.013-.034-.013-.033-.015-.033-.015-.033-.016-.032-.017-.033-.018-.031-.018-.031-.019-.031-.02-.03-.021-.03-.021-.03-.022-.028-.023-.029-.024-.027-.024-.027-.024-.027-.026-.026-.026-.025-.026-.025-.028-.024-.027-.024-.029-.023-.029-.022-.029-.021-.03-.021-.03-.02-.031-.019-.031-.018-.031-.018-.032-.017-.033-.016-.033-.015-.033-.015-.033-.014-.034-.012-.034-.012-.035-.012-.035-.01-.036-.01-.035-.009-.036-.007-.037-.007-.037-.006-.037-.006-.038-.004-.038-.003-.038-.003-.039-.001-.04-.001z"/><path d="m16 18s-4.193-4.193-7.338-7.338c-1.877-1.877-1.877-4.92 0-6.797 0-.001 0-.001.001-.001 1.581-1.582 4.145-1.582 5.727 0 .875.874 1.61 1.61 1.61 1.61s.735-.736 1.61-1.61c1.582-1.582 4.146-1.582 5.727 0 .001 0 .001 0 .001.001 1.877 1.877 1.877 4.92 0 6.797-3.145 3.145-7.338 7.338-7.338 7.338z" fill="none" stroke="#000" stroke-width="4"/><path d="m16 17.376s-3.852-3.852-6.741-6.741c-1.724-1.724-1.724-4.519 0-6.243.001 0 .001-.001.001-.001 1.453-1.453 3.808-1.453 5.261 0 .803.803 1.479 1.479 1.479 1.479s.676-.676 1.479-1.479c1.453-1.453 3.808-1.453 5.261 0 0 0 0 .001.001.001 1.724 1.724 1.724 4.519 0 6.243-2.889 2.889-6.741 6.741-6.741 6.741z" fill="#e02a33"/><g clip-path="url(#b)"><path d="m20.593-1.914v3.207c0 2.652-1.054 5.195-2.929 7.071-.69.69-1.416 1.416-2.077 2.076-1.5 1.5-2.343 3.535-2.343 5.657v4.953h-9.185v-22.964h16.534z" fill="#ff7780"/></g><path d="m11.623 2.679.098.003.097.006.097.008.096.011.097.012.096.015.096.018.095.019.096.022.094.025.094.026.094.029.093.032.093.033.091.036.091.038.091.041.089.043.089.045.087.047.087.05.086.052.085.055.083.057.083.059.081.061.081.064.078.066.078.068.076.071.075.073 1.61 1.61 1.61-1.61.075-.073.076-.071.078-.068.078-.066.081-.064.081-.061.083-.059.083-.057.085-.055.086-.052.087-.05.087-.047.089-.045.089-.043.091-.041.091-.038.091-.036.093-.033.093-.032.094-.029.094-.026.094-.025.096-.022.095-.019.096-.018.096-.015.097-.012.096-.011.097-.008.097-.006.098-.003.097-.001.097.001.097.003.097.006.097.008.097.011.096.012.096.015.096.018.096.019.095.022.095.025.094.026.093.029.093.032.093.033.092.036.091.038.09.041.089.043.089.045.088.047.087.05.085.052.085.055.084.057.082.059.082.061.08.064.079.066.077.068.077.071.075.074.044.044.043.045.042.045.042.045.041.046.04.046.04.047.038.047.039.047.037.048.037.048.036.049.035.048.035.049.034.05.033.05.065.1.062.102.059.103.056.104.054.105.051.106.048.108.045.108.043.109.04.109.037.111.034.111.032.112.029.112.026.113.023.113.021.114.018.114.015.115.012.114.01.115.007.116.004.115.001.115-.001.115-.004.116-.007.115-.01.115-.012.115-.015.114-.018.114-.021.114-.023.113-.026.113-.029.113-.032.111-.034.112-.037.11-.04.11-.043.109-.045.108-.048.107-.051.106-.054.105-.056.104-.059.103-.062.102-.065.101-.033.049-.034.05-.035.049-.035.049-.036.048-.037.048-.037.048-.039.047-.038.048-.04.046-.04.046-.041.046-.042.046-.042.045-.043.044-.044.045-7.338 7.338-7.338-7.338-.044-.045-.043-.044-.042-.045-.042-.046-.041-.046-.04-.046-.04-.046-.038-.048-.039-.047-.037-.048-.037-.048-.036-.048-.035-.049-.035-.049-.034-.05-.033-.049-.065-.101-.062-.102-.059-.103-.056-.104-.054-.105-.051-.106-.048-.107-.045-.108-.043-.109-.04-.11-.037-.11-.034-.112-.032-.111-.029-.113-.026-.113-.023-.113-.021-.114-.018-.114-.015-.114-.012-.115-.01-.115-.007-.115-.004-.116-.001-.115.001-.115.004-.115.007-.116.01-.115.012-.114.015-.115.018-.114.021-.114.023-.113.026-.113.029-.112.032-.112.034-.111.037-.111.04-.109.043-.109.045-.108.048-.108.051-.106.054-.105.056-.104.059-.103.062-.102.065-.1.033-.05.034-.05.035-.049.035-.048.036-.049.037-.048.037-.048.039-.047.038-.047.04-.047.04-.046.041-.046.042-.045.042-.045.043-.045.044-.044.001-.001.074-.073.077-.071.077-.068.079-.066.08-.064.082-.061.082-.059.084-.057.085-.055.085-.052.087-.05.088-.047.089-.045.089-.043.09-.041.091-.038.092-.036.093-.033.093-.032.093-.029.094-.026.095-.025.095-.022.096-.019.096-.018.096-.015.096-.012.097-.011.097-.008.097-.006.097-.003.097-.001zm8.777 1-.073.002-.073.005-.073.006-.073.007-.073.01-.072.011-.073.014-.072.014-.071.017-.072.018-.071.02-.07.022-.07.024-.07.025-.069.027-.068.029-.068.03-.067.032-.066.034-.066.036-.066.037-.064.039-.064.041-.063.043-.062.044-.061.047-.06.048-.06.05-.059.051-.057.054-.062.059-2.312 2.313-2.312-2.313-.062-.059-.057-.054-.059-.051-.06-.05-.06-.048-.061-.046-.062-.045-.063-.043-.064-.041-.064-.039-.066-.037-.066-.036-.066-.034-.067-.032-.068-.03-.068-.029-.069-.027-.07-.025-.07-.024-.07-.022-.071-.02-.072-.018-.071-.017-.072-.014-.073-.014-.072-.011-.073-.01-.073-.007-.073-.006-.073-.005-.073-.002-.074-.001-.073.001-.073.002-.074.005-.073.006-.073.007-.072.01-.073.011-.072.014-.072.014-.072.017-.071.018-.071.02-.07.022-.07.024-.07.025-.069.027-.068.029-.068.03-.067.032-.067.034-.066.036-.065.037-.064.039-.064.041-.063.043-.062.044-.061.047-.061.048-.059.05-.059.051-.058.054-.059.058-.033.033-.034.036-.034.035-.033.037-.032.036-.032.037-.032.037-.03.037-.031.037-.029.038-.03.038-.028.039-.028.038-.027.039-.027.039-.025.037-.053.082-.049.081-.046.081-.045.082-.042.083-.041.084-.038.085-.035.086-.034.086-.032.086-.029.088-.027.088-.025.088-.023.089-.021.089-.018.09-.017.09-.014.091-.012.091-.01.091-.007.091-.006.091-.003.092-.001.091.001.092.003.091.006.091.007.092.01.091.012.09.014.091.017.09.018.09.021.089.023.089.025.089.027.088.029.087.032.087.034.086.035.085.038.085.041.084.042.083.045.082.046.082.049.08.053.082.025.037.027.039.027.039.028.039.028.038.03.038.029.038.031.038.03.037.032.037.032.036.032.037.033.036.034.036.034.035.037.038 6.629 6.629 6.629-6.629.037-.038.034-.035.034-.036.033-.036.032-.037.032-.036.032-.037.03-.037.031-.038.029-.038.029-.038.029-.038.028-.039.027-.039.027-.039.025-.037.053-.082.049-.08.046-.082.045-.082.042-.083.041-.084.038-.085.035-.085.034-.086.032-.087.029-.087.027-.088.025-.089.023-.089.021-.089.018-.09.017-.09.014-.091.012-.09.01-.091.007-.092.006-.091.003-.091.001-.092-.001-.091-.003-.092-.006-.091-.007-.091-.01-.091-.012-.091-.014-.091-.017-.09-.018-.089-.021-.09-.023-.089-.025-.088-.027-.088-.029-.088-.032-.086-.034-.086-.035-.086-.038-.085-.041-.084-.042-.083-.045-.082-.046-.081-.049-.081-.053-.082-.025-.037-.027-.039-.027-.039-.028-.038-.028-.039-.03-.038-.029-.038-.031-.037-.03-.037-.032-.037-.032-.037-.032-.036-.033-.037-.034-.035-.034-.036-.033-.033-.059-.058-.058-.054-.059-.051-.059-.05-.061-.048-.061-.047-.062-.044-.063-.043-.064-.041-.064-.039-.065-.037-.066-.036-.067-.034-.067-.032-.068-.03-.068-.029-.069-.027-.07-.025-.07-.024-.07-.022-.071-.02-.071-.018-.072-.017-.072-.014-.072-.014-.073-.011-.072-.01-.073-.007-.073-.006-.074-.005-.073-.002-.073-.001z" fill="#e02a33"/><circle cx="16" cy="26.5" fill="#e02a33" r="3.051"/><g clip-path="url(#c)"><path d="m23 25s-2 0-4 0c-2.209 0-4 1.791-4 4v4h-5v-12h13z" fill="#ff7780"/></g><path d="m16.09 23.001.09.004.089.005.089.008.088.01.087.012.086.015.086.016.085.019.084.02.084.023.082.024.082.027.081.029.08.03.079.032.078.034.077.036.076.038.075.04.074.041.072.043.072.045.07.046.07.048.068.05.066.051.066.053.064.054.063.056.061.057.06.059.059.06.057.061.056.063.054.064.053.066.051.066.05.068.048.07.046.07.045.072.043.072.041.074.04.075.038.076.036.077.034.078.032.079.03.08.029.081.027.082.024.082.023.084.02.084.019.085.016.086.015.086.012.087.01.088.008.089.005.089.004.09.001.09-.001.09-.004.09-.005.089-.008.089-.01.088-.012.087-.015.086-.016.086-.019.085-.02.084-.023.084-.024.082-.027.082-.029.081-.03.08-.032.079-.034.078-.036.077-.038.076-.04.075-.041.074-.043.072-.045.072-.046.07-.048.07-.05.068-.051.066-.053.066-.054.064-.056.063-.057.061-.059.06-.06.059-.061.057-.063.056-.064.054-.066.053-.066.051-.068.05-.07.048-.07.046-.072.045-.072.043-.074.041-.075.04-.076.038-.077.036-.078.034-.079.032-.08.03-.081.029-.082.027-.082.024-.084.023-.084.02-.085.019-.086.016-.086.015-.087.012-.088.01-.089.008-.089.005-.09.004-.09.001-.09-.001-.09-.004-.089-.005-.089-.008-.088-.01-.087-.012-.086-.015-.086-.016-.085-.019-.084-.02-.084-.023-.082-.024-.082-.027-.081-.029-.08-.03-.079-.032-.078-.034-.077-.036-.076-.038-.075-.04-.074-.041-.072-.043-.072-.045-.07-.046-.07-.048-.068-.05-.066-.051-.066-.053-.064-.054-.063-.056-.061-.057-.06-.059-.059-.06-.057-.061-.056-.063-.054-.064-.053-.066-.051-.066-.05-.068-.048-.07-.046-.07-.045-.072-.043-.072-.041-.074-.04-.075-.038-.076-.036-.077-.034-.078-.032-.079-.03-.08-.029-.081-.027-.082-.024-.082-.023-.084-.02-.084-.019-.085-.016-.086-.015-.086-.012-.087-.01-.088-.008-.089-.005-.089-.004-.09-.001-.09.001-.09.004-.09.005-.089.008-.089.01-.088.012-.087.015-.086.016-.086.019-.085.02-.084.023-.084.024-.082.027-.082.029-.081.03-.08.032-.079.034-.078.036-.077.038-.076.04-.075.041-.074.043-.072.045-.072.046-.07.048-.07.05-.068.051-.066.053-.066.054-.064.056-.063.057-.061.059-.06.06-.059.061-.057.063-.056.064-.054.066-.053.066-.051.068-.05.07-.048.07-.046.072-.045.072-.043.074-.041.075-.04.076-.038.077-.036.078-.034.079-.032.08-.03.081-.029.082-.027.082-.024.084-.023.084-.02.085-.019.086-.016.086-.015.087-.012.088-.01.089-.008.089-.005.09-.004.09-.001zm-.155 1-.064.002-.064.004-.063.006-.063.007-.063.009-.061.01-.061.012-.061.013-.06.015-.059.016-.059.017-.058.019-.058.021-.057.021-.056.023-.056.025-.054.025-.055.027-.053.028-.053.03-.052.031-.051.032-.05.033-.05.034-.049.036-.047.036-.047.038-.046.039-.045.04-.044.041-.043.042-.042.043-.041.044-.04.045-.039.046-.038.047-.036.047-.036.049-.034.05-.034.05-.031.051-.031.052-.03.053-.028.053-.027.054-.025.055-.025.056-.023.056-.022.057-.02.058-.019.058-.017.059-.016.059-.015.06-.013.061-.012.061-.01.061-.009.063-.007.063-.006.063-.004.064-.002.064-.001.065.001.065.002.064.004.064.006.063.007.063.009.063.01.061.012.061.013.061.015.06.016.059.017.059.019.058.02.058.022.057.023.056.025.056.025.054.027.055.028.053.03.053.031.052.031.051.034.05.034.05.036.049.036.047.038.047.039.046.04.045.041.044.042.043.043.042.044.041.045.04.046.039.047.038.047.036.049.036.05.034.05.033.051.032.052.031.053.03.053.028.055.027.054.025.056.025.056.023.057.021.058.021.058.019.059.017.059.016.06.015.061.013.061.012.061.01.063.009.063.007.063.006.064.004.064.002.065.001.065-.001.064-.002.064-.004.063-.006.063-.007.062-.009.062-.01.061-.012.061-.013.06-.015.059-.016.059-.017.058-.019.058-.021.057-.021.056-.023.056-.025.054-.025.055-.027.053-.028.053-.03.052-.031.051-.032.05-.033.05-.034.048-.035.048-.037.047-.038.046-.039.045-.04.044-.041.043-.042.042-.043.041-.044.04-.045.039-.046.038-.047.036-.047.036-.049.034-.05.033-.05.032-.051.031-.052.03-.053.028-.053.027-.055.025-.054.025-.056.023-.056.021-.057.021-.058.019-.058.017-.059.016-.059.015-.06.013-.061.012-.061.01-.061.009-.063.007-.063.006-.063.004-.064.002-.064.001-.065-.001-.065-.002-.064-.004-.064-.006-.063-.007-.063-.009-.063-.01-.061-.012-.061-.013-.061-.015-.06-.016-.059-.017-.059-.019-.058-.021-.058-.021-.057-.023-.056-.025-.056-.025-.055-.027-.054-.028-.053-.03-.053-.031-.052-.032-.051-.033-.05-.034-.05-.036-.049-.036-.047-.038-.047-.039-.046-.04-.045-.041-.044-.042-.043-.043-.042-.044-.041-.045-.04-.046-.039-.047-.038-.048-.037-.048-.035-.05-.034-.05-.033-.051-.032-.052-.031-.053-.03-.053-.028-.055-.027-.054-.025-.056-.025-.056-.023-.057-.021-.058-.021-.058-.019-.059-.017-.059-.016-.06-.015-.061-.013-.061-.012-.062-.01-.062-.009-.063-.007-.063-.006-.064-.004-.064-.002-.065-.001z" fill="#e02a33"/></g></svg>