<svg clip-rule="evenodd" fill-rule="evenodd" stroke-linecap="round" stroke-linejoin="round" stroke-miterlimit="1.5" viewBox="0 0 32 32" xmlns="http://www.w3.org/2000/svg" xmlns:xlink="http://www.w3.org/1999/xlink"><clipPath id="a"><path clip-rule="evenodd" d="m0 0h32v32h-32z"/></clipPath><metadata/><path d="m0 0h32v32h-32z" fill="none"/><g clip-path="url(#a)"><path d="m16 8c1.182-3.011 2.582-6 6.535-6 3.29 0 5.509 2.613 5.471 6.373v1.808.191.001c-.001.117-.005.235-.01.354-.174 3.697-2.93 7.56-5.722 11.191-3.447 4.482-6.271 8.078-6.274 8.082 0 0-2.825-3.597-6.274-8.082-2.792-3.631-5.548-7.494-5.722-11.191-.005-.119-.009-.237-.01-.354v-.001c0-.064 0-.128 0-.191v-1.808c-.038-3.76 2.181-6.373 5.471-6.373 3.953 0 5.353 2.989 6.535 6z" fill="none" stroke="#000" stroke-width="4"/><path d="m16.682 8.373c1.095-2.375 2.621-4.373 5.853-4.373 2.668 0 4.632 1.718 5.259 4.373h.212v1.808.191.001c-.001.117-.005.235-.01.354-.174 3.697-2.93 7.56-5.722 11.191-3.233 4.204-5.918 7.629-6.241 8.041l-.033.041s-2.825-3.597-6.274-8.082c-2.792-3.631-5.548-7.494-5.722-11.191-.005-.119-.009-.237-.01-.354v-.001c0-.064 0-.128 0-.191v-1.808h.212c.627-2.655 2.591-4.373 5.259-4.373 3.232 0 4.758 1.998 5.853 4.373z" fill="#9d151d"/><path d="m16.056 7.859c1.17-2.963 2.587-5.859 6.479-5.859 3.393 0 5.646 2.778 5.461 6.727-.174 3.697-2.93 7.56-5.722 11.191-3.018 3.924-5.558 7.169-6.146 7.919l-.128.163s-2.825-3.597-6.274-8.082c-2.792-3.631-5.548-7.494-5.722-11.191-.185-3.949 2.068-6.727 5.461-6.727 3.953 0 5.353 2.989 6.535 6z" fill="#e82731"/></g></svg>