<svg clip-rule="evenodd" fill-rule="evenodd" stroke-linecap="round" stroke-linejoin="round" stroke-miterlimit="1.5" viewBox="0 0 32 32" xmlns="http://www.w3.org/2000/svg" xmlns:xlink="http://www.w3.org/1999/xlink"><clipPath id="a"><path clip-rule="evenodd" d="m0 0h32v32h-32z"/></clipPath><metadata/><path d="m0 0h32v32h-32z" fill="none"/><g clip-path="url(#a)"><circle cx="16" cy="16" r="7"/><g fill="none" stroke="#000" stroke-width="4"><path d="m18 4c0-1.105-.895-2-2-2s-2 .895-2 2v3c0 1.105.895 2 2 2s2-.895 2-2c0-.941 0-2.059 0-3z"/><path d="m25.899 8.929c.782-.781.782-2.047 0-2.828-.781-.782-2.047-.782-2.828 0-.665.665-1.456 1.456-2.121 2.121-.781.781-.781 2.047 0 2.828s2.047.781 2.828 0z"/><path d="m28 18c1.105 0 2-.895 2-2s-.895-2-2-2c-.941 0-2.059 0-3 0-1.105 0-2 .895-2 2s.895 2 2 2z"/><path d="m23.071 25.899c.781.782 2.047.782 2.828 0 .782-.781.782-2.047 0-2.828-.665-.665-1.456-1.456-2.121-2.121-.781-.781-2.047-.781-2.828 0s-.781 2.047 0 2.828z"/><path d="m18 25c0-1.105-.895-2-2-2s-2 .895-2 2v3c0 1.105.895 2 2 2s2-.895 2-2c0-.941 0-2.059 0-3z"/><path d="m11.05 23.778c.781-.781.781-2.047 0-2.828s-2.047-.781-2.828 0c-.665.665-1.456 1.456-2.121 2.121-.782.781-.782 2.047 0 2.828.781.782 2.047.782 2.828 0 .665-.665 1.456-1.456 2.121-2.121z"/><path d="m7 18c1.105 0 2-.895 2-2s-.895-2-2-2c-.941 0-2.059 0-3 0-1.105 0-2 .895-2 2s.895 2 2 2z"/><path d="m8.222 11.05c.781.781 2.047.781 2.828 0s.781-2.047 0-2.828c-.665-.665-1.456-1.456-2.121-2.121-.781-.782-2.047-.782-2.828 0-.782.781-.782 2.047 0 2.828z"/></g><circle cx="16" cy="16" fill="#ef9b00" r="6"/><circle cx="16" cy="16" r="3"/><path d="m18 4c0-1.105-.895-2-2-2s-2 .895-2 2v3c0 1.105.895 2 2 2s2-.895 2-2c0-.941 0-2.059 0-3z" fill="#ef9b00"/><path d="m25.899 8.929c.782-.781.782-2.047 0-2.828-.781-.782-2.047-.782-2.828 0-.665.665-1.456 1.456-2.121 2.121-.781.781-.781 2.047 0 2.828s2.047.781 2.828 0z" fill="#ef9b00"/><path d="m28 18c1.105 0 2-.895 2-2s-.895-2-2-2c-.941 0-2.059 0-3 0-1.105 0-2 .895-2 2s.895 2 2 2z" fill="#ef9b00"/><path d="m23.071 25.899c.781.782 2.047.782 2.828 0 .782-.781.782-2.047 0-2.828-.665-.665-1.456-1.456-2.121-2.121-.781-.781-2.047-.781-2.828 0s-.781 2.047 0 2.828z" fill="#ef9b00"/><path d="m18 25c0-1.105-.895-2-2-2s-2 .895-2 2v3c0 1.105.895 2 2 2s2-.895 2-2c0-.941 0-2.059 0-3z" fill="#ef9b00"/><path d="m11.05 23.778c.781-.781.781-2.047 0-2.828s-2.047-.781-2.828 0c-.665.665-1.456 1.456-2.121 2.121-.782.781-.782 2.047 0 2.828.781.782 2.047.782 2.828 0 .665-.665 1.456-1.456 2.121-2.121z" fill="#ef9b00"/><path d="m7 18c1.105 0 2-.895 2-2s-.895-2-2-2c-.941 0-2.059 0-3 0-1.105 0-2 .895-2 2s.895 2 2 2z" fill="#ef9b00"/><path d="m8.222 11.05c.781.781 2.047.781 2.828 0s.781-2.047 0-2.828c-.665-.665-1.456-1.456-2.121-2.121-.781-.782-2.047-.782-2.828 0-.782.781-.782 2.047 0 2.828z" fill="#ef9b00"/></g></svg>