<svg clip-rule="evenodd" fill-rule="evenodd" stroke-linecap="square" stroke-miterlimit="1.5" viewBox="0 0 32 32" xmlns="http://www.w3.org/2000/svg" xmlns:xlink="http://www.w3.org/1999/xlink"><clipPath id="a"><path clip-rule="evenodd" d="m0 0h32v32h-32z"/></clipPath><clipPath id="b"><path clip-rule="evenodd" d="m3.433 18.914c-.627.538-1.002 1.314-1.034 2.14s.283 1.628.867 2.212c.001.001.001.001.001.001 1.11 1.11 2.614 1.733 4.183 1.733h22.55v-16h-7.602c-4.774 0-9.39 1.708-13.015 4.815-2.07 1.774-4.307 3.691-5.95 5.099z"/></clipPath><metadata/><path d="m0 0h32v32h-32z" fill="none"/><g clip-path="url(#a)"><path d="m3.433 18.914c-.627.538-1.002 1.314-1.034 2.14s.283 1.628.867 2.212c.001.001.001.001.001.001 1.11 1.11 2.614 1.733 4.183 1.733h22.55v-16h-7.602c-4.774 0-9.39 1.708-13.015 4.815-2.07 1.774-4.307 3.691-5.95 5.099z" fill="none" stroke="#000" stroke-width="4"/><path d="m2 28h28v2h-28z" fill="none" stroke="#000" stroke-linecap="round" stroke-width="4"/><path d="m30 23v2s-16.253 0-22.55 0c-1.569 0-3.073-.623-4.183-1.733 0 0 0 0-.001-.001-.084-.084-.163-.173-.236-.266l.97-1h25z" fill="#ccc"/><path d="m5.667 17s10.569-6.55 10.728-7.078c1.928-.606 3.951-.922 6.003-.922h7.602v9l-1 1 1 1v3h-26.97c-.432-.55-.658-1.239-.631-1.946.014-.367.096-.724.237-1.054l2.364-1-.5-1z" fill="#fff"/><path d="m16.395 9.922c-.159.528-.463 1.013-.896 1.392-1.67 1.46-4.307 3.768-5.651 4.944-.547.478-1.249.742-1.975.742h-2.206l3.716-3.185c2.066-1.772 4.455-3.088 7.012-3.893z"/><path d="m30 20h-27.364c.178-.414.448-.787.797-1.086l1.067-.914h25.5z" fill="#f31e1e"/><path d="m3.433 18.914c-.627.538-1.002 1.314-1.034 2.14s.283 1.628.867 2.212c.001.001.001.001.001.001 1.11 1.11 2.614 1.733 4.183 1.733h22.55v-16h-7.602c-4.774 0-9.39 1.708-13.015 4.815-2.07 1.774-4.307 3.691-5.95 5.099z" fill="none"/><g clip-path="url(#b)"><path d="m3.904 17.56s3.493 1.317 3.493 4.472c0 2.612-3.73 4.008-3.73 4.008" fill="none" stroke="#a8a8a8" stroke-linecap="round" stroke-linejoin="round"/></g><path d="m20 13c0-.552-.448-1-1-1-.322 0-.678 0-1 0-.552 0-1 .448-1 1v3c0 .552.448 1 1 1h1c.552 0 1-.448 1-1 0-.871 0-2.129 0-3z"/><path d="m26 13.5c0-.398-.158-.779-.439-1.061-.282-.281-.663-.439-1.061-.439s-.779.158-1.061.439c-.281.282-.439.663-.439 1.061v2c0 .398.158.779.439 1.061.282.281.663.439 1.061.439s.779-.158 1.061-.439c.281-.282.439-.663.439-1.061z"/><path d="m31 13.5c0-.398-.158-.779-.439-1.061-.282-.281-.663-.439-1.061-.439s-.779.158-1.061.439c-.281.282-.439.663-.439 1.061v2c0 .398.158.779.439 1.061.282.281.663.439 1.061.439s.779-.158 1.061-.439c.281-.282.439-.663.439-1.061z"/><path d="m2 28h28v2h-28z" fill="#666"/><path d="m19.05 11.001.049.001.05.004.049.004.049.005.048.007.049.008.048.009.048.01.047.011.048.013.047.013.046.015.046.016.046.017.045.018.045.019.045.021.043.021.044.023.043.023.042.025.042.025.041.027.04.028.04.028.039.03.039.031.037.032.037.032.037.034.035.035.035.035.034.037.032.037.032.037.031.039.03.039.028.04.028.04.027.041.025.042.025.042.023.043.023.044.021.043.021.045.019.045.018.045.017.046.016.046.015.046.013.047.013.048.011.047.01.048.009.048.008.049.007.048.005.049.004.049.004.05.001.049.001.05v6l-.001.05-.001.049-.004.05-.004.049-.005.049-.007.048-.008.049-.009.048-.01.048-.011.047-.013.048-.013.047-.015.046-.016.046-.017.046-.018.045-.019.045-.021.045-.021.043-.023.044-.023.043-.025.042-.025.042-.027.041-.028.04-.028.04-.03.039-.031.039-.032.037-.032.037-.034.037-.035.035-.035.035-.037.034-.037.032-.037.032-.039.031-.039.03-.04.028-.04.028-.041.027-.042.025-.042.025-.043.023-.044.023-.043.021-.045.021-.045.019-.045.018-.046.017-.046.016-.046.015-.047.013-.048.013-.047.011-.048.01-.048.009-.049.008-.048.007-.049.005-.049.004-.05.004-.049.001-.05.001h-1l-.05-.001-.049-.001-.05-.004-.049-.004-.049-.005-.048-.007-.049-.008-.048-.009-.048-.01-.047-.011-.048-.013-.047-.013-.046-.015-.046-.016-.046-.017-.045-.018-.045-.019-.045-.021-.043-.021-.044-.023-.043-.023-.042-.025-.042-.025-.041-.027-.04-.028-.04-.028-.039-.03-.039-.031-.037-.032-.037-.032-.037-.034-.035-.035-.035-.035-.034-.037-.032-.037-.032-.037-.031-.039-.03-.039-.028-.04-.028-.04-.027-.041-.025-.042-.025-.042-.023-.043-.023-.044-.021-.043-.021-.045-.019-.045-.018-.045-.017-.046-.016-.046-.015-.046-.013-.047-.013-.048-.011-.047-.01-.048-.009-.048-.008-.049-.007-.048-.005-.049-.004-.049-.004-.05-.001-.049-.001-.05v-6l.001-.05.001-.049.004-.05.004-.049.005-.049.007-.048.008-.049.009-.048.01-.048.011-.047.013-.048.013-.047.015-.046.016-.046.017-.046.018-.045.019-.045.021-.045.021-.043.023-.044.023-.043.025-.042.025-.042.027-.041.028-.04.028-.04.03-.039.031-.039.032-.037.032-.037.034-.037.035-.035.035-.035.037-.034.037-.032.037-.032.039-.031.039-.03.04-.028.04-.028.041-.027.042-.025.042-.025.043-.023.044-.023.043-.021.045-.021.045-.019.045-.018.046-.017.046-.016.046-.015.047-.013.048-.013.047-.011.048-.01.048-.009.049-.008.048-.007.049-.005.049-.004.05-.004.049-.001.05-.001h1zm-1.044.999h-.031l-.025.001-.024.002-.025.002-.024.003-.025.003-.024.004-.024.004-.024.006-.024.005-.023.006-.024.007-.023.008-.023.008-.023.008-.023.009-.022.01-.022.01-.022.011-.022.011-.021.012-.021.012-.021.013-.021.013-.02.014-.02.014-.02.015-.019.015-.018.016-.019.017-.018.017-.018.017-.017.018-.017.018-.017.018-.015.019-.016.02-.015.019-.014.02-.014.02-.013.021-.013.021-.012.021-.012.021-.011.022-.011.022-.01.022-.01.022-.009.023-.008.023-.008.023-.008.023-.007.024-.006.023-.005.024-.006.024-.004.024-.004.024-.003.025-.003.024-.002.025-.002.024-.001.025v.031 5.988.031l.001.025.002.024.002.025.003.024.003.025.004.024.004.024.006.024.005.024.006.023.007.024.008.023.008.023.008.023.009.023.01.022.01.022.011.022.011.022.012.021.012.021.013.021.013.021.014.02.014.02.015.019.016.02.015.019.017.018.017.018.017.018.018.017.018.017.019.017.018.016.019.015.02.015.02.014.02.014.021.013.021.013.021.012.021.012.022.011.022.011.022.01.022.01.023.009.023.008.023.008.023.008.024.007.023.006.024.005.024.006.024.004.024.004.025.003.024.003.025.002.024.002.025.001h.031.988.031l.025-.001.024-.002.025-.002.024-.003.025-.003.024-.004.024-.004.024-.006.024-.005.023-.006.024-.007.023-.008.023-.008.023-.008.023-.009.022-.01.022-.01.022-.011.022-.011.021-.012.021-.012.021-.013.021-.013.02-.014.02-.014.02-.015.019-.015.018-.016.019-.017.018-.017.018-.017.017-.018.017-.018.017-.018.015-.019.016-.02.015-.019.014-.02.014-.02.013-.021.013-.021.012-.021.012-.021.011-.022.011-.022.01-.022.01-.022.009-.023.008-.023.008-.023.008-.023.007-.024.006-.023.005-.024.006-.024.004-.024.004-.024.003-.025.003-.024.002-.025.002-.024.001-.025v-.031-5.988-.031l-.001-.025-.002-.024-.002-.025-.003-.024-.003-.025-.004-.024-.004-.024-.006-.024-.005-.024-.006-.023-.007-.024-.008-.023-.008-.023-.008-.023-.009-.023-.01-.022-.01-.022-.011-.022-.011-.022-.012-.021-.012-.021-.013-.021-.013-.021-.014-.02-.014-.02-.015-.019-.016-.02-.015-.019-.017-.018-.017-.018-.017-.018-.018-.017-.018-.017-.019-.017-.018-.016-.019-.015-.02-.015-.02-.014-.02-.014-.021-.013-.021-.013-.021-.012-.021-.012-.022-.011-.022-.011-.022-.01-.022-.01-.023-.009-.023-.008-.023-.008-.023-.008-.024-.007-.023-.006-.024-.005-.024-.006-.024-.004-.024-.004-.025-.003-.024-.003-.025-.002-.024-.002-.025-.001h-.031z" fill="#a6a6a6"/></g></svg>