<svg clip-rule="evenodd" fill-rule="evenodd" stroke-linecap="round" stroke-linejoin="round" stroke-miterlimit="10" viewBox="0 0 32 32" xmlns="http://www.w3.org/2000/svg" xmlns:xlink="http://www.w3.org/1999/xlink"><clipPath id="a"><path clip-rule="evenodd" d="m0 0h32v32h-32z"/></clipPath><clipPath id="b"><path clip-rule="evenodd" d="m3 15 13-13 13 13-13 13z"/></clipPath><clipPath id="c"><path clip-rule="evenodd" d="m5 5h32v32h-32z"/></clipPath><clipPath id="d"><path clip-rule="evenodd" d="m19 7c-2.561 2.561-4 6.035-4 9.656v3.344l3 1 3-1v-4.802c0-2.113-.403-4.206-1.188-6.167-.43-1.076-.812-2.031-.812-2.031z"/></clipPath><clipPath id="e"><path clip-rule="evenodd" d="m24 7c2.561 2.561 4 6.035 4 9.656v3.344l-3 1-3-1v-4.802c0-2.113.403-4.206 1.188-6.167.43-1.076.812-2.031.812-2.031z"/></clipPath><clipPath id="f"><path clip-rule="evenodd" d="m13 9s-.652.652-1.485 1.485c-2.251 2.251-3.515 5.303-3.515 8.486v1.029l3 1 3-1v-4.317c0-1.119-.111-2.236-.33-3.334-.291-1.456-.67-3.349-.67-3.349z"/></clipPath><clipPath id="g"><path clip-rule="evenodd" d="m19 35c-2.917 0-5.715-1.159-7.778-3.222s-3.222-4.861-3.222-7.778v-3-1h20v4l1-1 3 6c-2.499 3.748-6.706 6-11.211 6z"/></clipPath><metadata/><path d="m0 0h32v32h-32z" fill="none"/><g clip-path="url(#a)"><path d="m3 15 13-13 13 13v2l-13 13-13-13z" fill="none" stroke="#000" stroke-width="4"/><path d="m3 17v-2l13-11 13 11v2l-13 13z" fill="#464646"/><path d="m3 15 13-13 13 13-13 13z" fill="#fff"/><g clip-path="url(#b)"><g clip-path="url(#c)"><g fill="none"><path d="m5 5h32v32h-32z"/><path d="m13 9s-.652.652-1.485 1.485c-2.251 2.251-3.515 5.303-3.515 8.486v2.029h6v-5.317c0-1.119-.111-2.236-.33-3.334-.291-1.456-.67-3.349-.67-3.349z" stroke="#000" stroke-miterlimit="1.5" stroke-width="4"/><path d="m35 19c-1.973.658-3.765 1.765-5.236 3.236-.437.437-.764.764-.764.764l3 6s.697-1.195 1.469-2.519c1.317-2.258 1.855-4.886 1.531-7.48z" stroke="#000" stroke-miterlimit="1.5" stroke-width="4"/><path d="m19 35c-2.917 0-5.715-1.159-7.778-3.222s-3.222-4.861-3.222-7.778v-3-1h20v4l1-1 3 6c-2.499 3.748-6.706 6-11.211 6z" stroke="#000" stroke-miterlimit="1.5" stroke-width="4"/><path d="m15 14h6v7h-6z" stroke="#000" stroke-miterlimit="1.5" stroke-width="4"/><path d="m19 7c-2.561 2.561-4 6.035-4 9.656v3.344h6v-4.802c0-2.113-.403-4.206-1.188-6.167-.43-1.076-.812-2.031-.812-2.031z" stroke="#000" stroke-miterlimit="1.5" stroke-width="4"/><path d="m24 7c2.561 2.561 4 6.035 4 9.656v3.344h-6v-4.802c0-2.113.403-4.206 1.188-6.167.43-1.076.812-2.031.812-2.031z" stroke="#000" stroke-miterlimit="1.5" stroke-width="4"/></g><path d="m19 7c-2.561 2.561-4 6.035-4 9.656v3.344l3 1 3-1v-4.802c0-2.113-.403-4.206-1.188-6.167-.43-1.076-.812-2.031-.812-2.031z" fill="#464646"/><g clip-path="url(#d)"><path d="m15 18h6v3h-6z" fill="#808080"/></g><path d="m24 7c2.561 2.561 4 6.035 4 9.656v3.344l-3 1-3-1v-4.802c0-2.113.403-4.206 1.188-6.167.43-1.076.812-2.031.812-2.031z" fill="#464646"/><g clip-path="url(#e)"><path d="m22 18h6v3h-6z" fill="#808080"/></g><path d="m13 9s-.652.652-1.485 1.485c-2.251 2.251-3.515 5.303-3.515 8.486v1.029l3 1 3-1v-4.317c0-1.119-.111-2.236-.33-3.334-.291-1.456-.67-3.349-.67-3.349z" fill="#464646"/><g clip-path="url(#f)"><path d="m8 19h6v2h-6z" fill="#808080"/></g><path d="m35 19c-1.973.658-3.765 1.765-5.236 3.236-.437.437-.764.764-.764.764v4l3 2s.697-1.195 1.469-2.519c1.317-2.258 1.855-4.886 1.531-7.48z" fill="#464646"/><path d="m19 35c-2.917 0-5.715-1.159-7.778-3.222s-3.222-4.861-3.222-7.778v-3-1h20v4l1-1 3 6c-2.499 3.748-6.706 6-11.211 6z" fill="#808080"/><g clip-path="url(#g)"><path d="m31.55 19.004-4 4c-1.791 0-3.382 1.147-3.948 2.846-.033.098-.052.154-.052.154" fill="none" stroke="#616161" stroke-linejoin="miter" stroke-miterlimit="1.5" stroke-width="2"/></g></g></g></g></svg>