<svg clip-rule="evenodd" fill-rule="evenodd" stroke-linecap="round" stroke-miterlimit="1.5" viewBox="0 0 32 32" xmlns="http://www.w3.org/2000/svg" xmlns:xlink="http://www.w3.org/1999/xlink"><clipPath id="a"><path clip-rule="evenodd" d="m0 0h32v32h-32z"/></clipPath><clipPath id="b"><path clip-rule="evenodd" d="m28 18c0-7.18-5.82-13-13-13-7.18 0-13 5.82-13 13v1.006c0 6.072 4.922 10.994 10.994 10.994h4.012c6.072 0 10.994-4.922 10.994-10.994 0-.334 0-.67 0-1.006z"/></clipPath><metadata/><path d="m0 0h32v32h-32z" fill="none"/><g clip-path="url(#a)"><path d="m22.701 5.126 2.01-4.02c.339-.678 1.031-1.106 1.789-1.106s1.45.428 1.789 1.106c0 0 1.757 3.514 2.942 5.884 1.017 2.033.618 4.489-.989 6.097-.001 0-.001.001-.001.001-.26.259-.543.489-.846.686.394 1.34.605 2.758.605 4.226v1.006c0 7.176-5.818 12.994-12.994 12.994-1.328 0-2.684 0-4.012 0-7.176 0-12.994-5.818-12.994-12.994v-1.006c0-8.284 6.716-15 15-15 2.816 0 5.45.776 7.701 2.126z"/><path d="m28 18c0-7.18-5.82-13-13-13-7.18 0-13 5.82-13 13v1.006c0 6.072 4.922 10.994 10.994 10.994h4.012c6.072 0 10.994-4.922 10.994-10.994 0-.334 0-.67 0-1.006z" fill="#fb4646"/><g clip-path="url(#b)"><path d="m26.5 2s-1.757 3.514-2.942 5.884c-.632 1.264-.384 2.79.615 3.789 0 0 0 0 .001.001.617.617 1.453.963 2.326.963s1.709-.346 2.326-.963c.001-.001.001-.001.001-.001.999-.999 1.247-2.525.615-3.789-1.185-2.37-2.942-5.884-2.942-5.884z" fill="none" stroke="#dc2a2a" stroke-width="4"/></g><path d="m20.851 14.063 2.465.822c.524.174.807.741.633 1.265-.175.523-.742.807-1.265.632l-5.535-1.845 5.144-5.144c.39-.39 1.024-.39 1.414 0s.39 1.024 0 1.414zm-11.702 0-2.856-2.856c-.39-.39-.39-1.024 0-1.414s1.024-.39 1.414 0l5.144 5.144-5.535 1.845c-.523.175-1.09-.109-1.265-.632-.174-.524.109-1.091.633-1.265z"/><path d="m9 24h-1.259c-.358 0-.689-.191-.867-.502-.178-.31-.177-.693.003-1.002.186-.318.389-.666.597-1.023 1.255-2.151 3.557-3.473 6.047-3.473h2.958c2.49 0 4.792 1.322 6.047 3.473.208.357.411.705.597 1.023.18.309.181.692.003 1.002-.178.311-.509.502-.867.502h-1.259l-2.109-.664c-.557-.835-7.225-.835-7.782 0z" fill="#4d0b0b"/><path d="m21 24h-1l-1-1 1-.5zm-11-1.5 1 .5-1 1h-1z" fill="#801e36"/><path d="m10 23.5v-1l.109-.164c.557-.835 1.494-1.336 2.497-1.336h4.788c1.003 0 1.94.501 2.497 1.336l.109.164v1h-.005c-.055 1.172-.544 2.284-1.377 3.118-.886.885-2.086 1.382-3.338 1.382-.186 0-.374 0-.56 0-1.252 0-2.452-.497-3.338-1.382-.833-.834-1.322-1.946-1.377-3.118z" fill="#9a1756"/><path d="m26.5 2s-1.757 3.514-2.942 5.884c-.632 1.264-.384 2.79.615 3.789 0 0 0 0 .001.001.617.617 1.453.963 2.326.963s1.709-.346 2.326-.963c.001-.001.001-.001.001-.001.999-.999 1.247-2.525.615-3.789-1.185-2.37-2.942-5.884-2.942-5.884z" fill="#fff"/></g></svg>