<svg clip-rule="evenodd" fill-rule="evenodd" stroke-linecap="round" stroke-linejoin="round" stroke-miterlimit="1.5" viewBox="0 0 32 32" xmlns="http://www.w3.org/2000/svg" xmlns:xlink="http://www.w3.org/1999/xlink"><clipPath id="a"><path clip-rule="evenodd" d="m0 0h32v32h-32z"/></clipPath><clipPath id="b"><ellipse clip-rule="evenodd" cx="12.5" cy="11" rx="9" ry="3"/></clipPath><metadata/><path d="m0 0h32v32h-32z" fill="none"/><g clip-path="url(#a)"><path d="m16 10h12.286v8h-12.286z"/><path d="m2 11v6c0 2.652 1.054 5.196 2.929 7.071s4.419 2.929 7.071 2.929h1c2.652 0 5.196-1.054 7.071-2.929s2.929-4.419 2.929-7.071c0-3.233 0-6 0-6h-21z" fill="none" stroke="#000" stroke-width="4"/><path d="m22 11h3.451c1.657 0 3 1.343 3 3v.101c0 1.16-.668 2.215-1.717 2.711-2.47 1.17-6.734 3.188-6.734 3.188" fill="none" stroke="#000" stroke-width="6.5"/><path d="m12.762 4.501.26.003.259.006.257.007.256.01.254.012.253.014.25.016.249.018.248.02.245.022.243.025.242.026.24.028.237.03.236.032.233.034.232.036.229.038.227.04.226.042.223.044.22.046.219.048.216.05.214.052.212.054.21.057.208.058.205.061.203.063.202.066.199.068.197.07.195.074.194.076.191.079.19.083.188.086.187.089.185.094.184.098.173.098.099.058.091.055.09.056.09.058.09.059.09.061.089.063.089.064.089.067.088.068.088.071.088.073.088.075.087.078.087.081.086.083.086.086.085.089.085.093.084.096.083.1.082.103.08.107.079.111.078.115.075.119.074.124.071.128.068.132.066.137.062.141.058.145.054.149.05.153.045.157.039.161.035.163.028.166.022.168.017.17.009.171.004.172-.004.172-.009.171-.017.17-.022.168-.028.166-.035.163-.039.161-.045.157-.05.153-.054.149-.058.145-.062.141-.066.137-.068.132-.071.128-.074.124-.075.119-.078.115-.079.111-.08.107-.082.103-.083.1-.084.096-.085.092-.085.09-.086.086-.086.084-.087.08-.087.078-.088.075-.088.073-.088.071-.089.068-.088.067-.089.064-.09.063-.089.061-.09.059-.09.058-.09.056-.091.055-.099.058-.173.098-.184.098-.185.094-.187.089-.188.086-.19.083-.191.079-.194.076-.195.074-.197.07-.199.068-.202.066-.203.063-.205.061-.208.058-.21.057-.212.054-.214.052-.216.05-.219.048-.22.046-.223.044-.226.042-.227.04-.229.038-.232.036-.233.034-.236.032-.237.03-.24.028-.242.026-.243.025-.245.022-.248.02-.249.018-.25.016-.253.014-.254.012-.256.01-.257.007-.259.006-.26.003-.262.001-.262-.001-.26-.003-.259-.006-.257-.007-.256-.01-.254-.012-.253-.014-.25-.016-.249-.018-.248-.02-.245-.022-.243-.025-.242-.026-.24-.028-.237-.03-.236-.032-.233-.034-.232-.036-.229-.038-.227-.04-.226-.042-.223-.044-.22-.046-.219-.048-.216-.05-.214-.052-.212-.054-.21-.057-.208-.058-.205-.061-.203-.063-.202-.066-.199-.068-.197-.07-.195-.074-.194-.076-.191-.079-.19-.083-.188-.086-.187-.089-.185-.094-.184-.098-.173-.098-.099-.058-.091-.055-.09-.056-.09-.058-.09-.059-.089-.061-.09-.063-.089-.064-.088-.066-.089-.069-.088-.071-.088-.073-.088-.075-.087-.078-.087-.08-.086-.084-.086-.086-.085-.09-.085-.092-.084-.096-.083-.1-.082-.103-.08-.107-.079-.111-.078-.115-.075-.119-.074-.124-.071-.128-.068-.132-.066-.137-.062-.141-.058-.145-.054-.149-.05-.153-.045-.157-.039-.161-.035-.163-.028-.166-.022-.168-.017-.17-.009-.171-.004-.172.004-.172.009-.171.017-.17.022-.168.028-.166.035-.163.039-.161.045-.157.05-.153.054-.149.058-.145.062-.141.066-.137.068-.132.071-.128.074-.124.075-.119.078-.115.079-.111.08-.107.082-.103.083-.1.084-.096.085-.093.085-.089.086-.086.086-.083.087-.081.087-.078.088-.075.088-.073.088-.071.088-.068.089-.067.089-.064.089-.063.09-.061.09-.059.09-.058.09-.056.091-.055.099-.058.173-.098.184-.098.185-.094.187-.089.188-.086.19-.083.191-.079.194-.076.195-.074.197-.07.199-.068.202-.066.203-.063.205-.061.208-.058.21-.057.212-.054.214-.052.216-.05.219-.048.22-.046.223-.044.226-.042.227-.04.229-.038.232-.036.233-.034.236-.032.237-.03.24-.028.242-.026.243-.025.245-.022.248-.02.249-.018.25-.016.253-.014.254-.012.256-.01.257-.007.259-.006.26-.003.262-.001zm-.494 3.5-.231.003-.229.005-.228.007-.226.008-.224.011-.222.012-.221.014-.218.016-.217.018-.215.019-.212.021-.21.023-.208.024-.206.026-.203.028-.2.029-.198.031-.196.032-.192.034-.19.036-.187.037-.184.038-.182.04-.178.041-.174.042-.172.044-.168.045-.165.047-.162.048-.158.049-.155.05-.151.052-.147.052-.143.054-.14.055-.135.056-.132.058-.128.058-.123.059-.119.061-.115.061-.111.062-.054.032-.052.032-.051.032-.051.032-.049.032-.048.033-.047.033-.045.033-.045.033-.043.034-.042.033-.041.034-.04.035-.039.034-.037.034-.036.035-.035.035-.033.035-.032.036-.031.035-.03.036-.028.036-.028.036-.025.036-.025.036-.023.037-.022.036-.02.037-.019.037-.018.037-.017.038-.015.037-.013.038-.012.037-.011.038-.01.038-.008.038-.006.039-.005.038-.004.039-.002.038-.001.039.001.039.002.038.004.039.005.038.006.039.008.038.01.038.011.038.012.037.013.038.015.037.017.038.018.037.019.037.02.037.022.036.023.037.025.036.025.036.028.036.028.036.03.036.031.035.032.036.033.035.035.035.036.035.037.034.039.034.04.035.041.034.042.033.043.034.045.033.045.033.047.033.048.033.049.032.051.032.051.032.052.032.054.032.111.062.115.061.119.061.123.059.128.058.132.058.135.056.14.055.143.054.147.052.151.052.155.05.158.049.162.048.165.047.168.045.172.044.174.042.178.041.182.04.184.038.187.037.19.036.192.034.196.032.198.031.2.029.203.028.206.026.208.024.21.023.212.021.215.019.217.018.218.016.221.014.222.012.224.011.226.008.228.007.229.005.231.003.232.001.232-.001.231-.003.229-.005.228-.007.226-.008.224-.011.222-.012.221-.014.218-.016.217-.018.215-.019.212-.021.21-.023.208-.024.206-.026.203-.028.2-.029.198-.031.196-.032.192-.034.19-.036.187-.037.184-.038.182-.04.178-.041.174-.042.172-.044.168-.045.165-.047.162-.048.158-.049.155-.05.151-.052.147-.052.143-.054.14-.055.135-.056.132-.058.128-.058.123-.059.119-.061.115-.061.111-.062.054-.032.052-.032.051-.032.051-.032.049-.032.048-.033.047-.033.045-.033.045-.033.043-.034.042-.033.041-.034.04-.035.039-.034.037-.034.036-.035.035-.035.033-.035.032-.036.031-.035.03-.036.028-.036.028-.036.025-.036.025-.036.023-.037.022-.036.02-.037.019-.037.018-.037.017-.038.015-.037.013-.038.012-.037.011-.038.01-.038.008-.038.006-.039.005-.038.004-.039.002-.038.001-.039-.001-.039-.002-.038-.004-.039-.005-.038-.006-.039-.008-.038-.01-.038-.011-.038-.012-.037-.013-.038-.015-.037-.017-.038-.018-.037-.019-.037-.02-.037-.022-.036-.023-.037-.025-.036-.025-.036-.028-.036-.028-.036-.03-.036-.031-.035-.032-.036-.033-.035-.035-.035-.036-.035-.037-.034-.039-.034-.04-.035-.041-.034-.042-.033-.043-.034-.045-.033-.045-.033-.047-.033-.048-.033-.049-.032-.051-.032-.051-.032-.052-.032-.054-.032-.111-.062-.115-.061-.119-.061-.123-.059-.128-.058-.132-.058-.135-.056-.14-.055-.143-.054-.147-.052-.151-.052-.155-.05-.158-.049-.162-.048-.165-.047-.168-.045-.172-.044-.174-.042-.178-.041-.182-.04-.184-.038-.187-.037-.19-.036-.192-.034-.196-.032-.198-.031-.2-.029-.203-.028-.206-.026-.208-.024-.21-.023-.212-.021-.215-.019-.217-.018-.218-.016-.221-.014-.222-.012-.224-.011-.226-.008-.228-.007-.229-.005-.231-.003-.232-.001z"/><path d="m22 11h3.451c1.657 0 3 1.343 3 3v.101c0 1.16-.668 2.215-1.717 2.711-2.47 1.17-6.734 3.188-6.734 3.188" fill="none" stroke="#e6e6e6" stroke-width="2.5"/><path d="m23 11v6c0 2.652-1.054 5.196-2.929 7.071-1.618 1.618-3.732 2.624-5.985 2.87-3.434-.448-7.145-3.506-7.145-7.062l1.059-8.879zm-17.202.177-.47 6.212c0 2.652.336 4.081 2.212 5.956 1.757 1.757 3.49 3.519 5.96 3.642-.166.009-.333.013-.5.013-.333 0-.667 0-1 0-2.652 0-5.196-1.054-7.071-2.929s-2.929-4.419-2.929-7.071v-6z" fill="#e6e6e6"/><path d="m8 11v9c0 3.556 2.652 6.493 6.086 6.941-.194.021-.39.037-.586.046-2.47-.123-4.814-1.159-6.571-2.916-1.875-1.875-2.929-4.419-2.929-7.071v-6z" fill="#fff"/><ellipse cx="12.5" cy="11" fill="#929292" rx="9" ry="3"/><g clip-path="url(#b)"><ellipse cx="12.5" cy="13.4" fill="#70533d" rx="9" ry="3"/></g><path d="m12.745 6.501.243.003.242.005.24.007.239.009.237.012.236.013.233.014.232.017.229.019.228.021.226.022.224.024.221.026.219.028.217.03.215.031.212.033.21.035.208.036.205.039.202.039.2.042.197.043.195.045.191.047.189.048.186.05.184.052.18.053.178.055.174.057.172.059.168.06.166.062.163.064.159.066.157.068.153.071.151.072.147.075.145.077.137.077.074.043.068.042.068.042.068.043.066.044.066.045.065.046.064.046.064.048.062.048.062.05.061.051.061.051.059.053.059.055.057.055.057.057.055.059.055.059.054.062.052.063.052.065.05.066.048.068.048.07.045.072.044.074.042.076.041.078.038.08.036.081.033.084.031.086.028.087.026.089.022.09.02.092.015.093.013.094.009.095.005.095.002.096-.002.096-.005.095-.009.095-.013.094-.015.093-.02.092-.022.09-.026.089-.028.087-.031.086-.033.084-.036.081-.038.08-.041.078-.042.076-.044.074-.045.072-.048.07-.048.068-.05.066-.052.065-.052.063-.054.062-.054.059-.056.059-.057.057-.058.055-.058.055-.059.053-.061.051-.061.051-.062.05-.062.048-.064.048-.064.046-.065.046-.066.045-.066.044-.068.043-.068.042-.068.042-.074.043-.137.077-.145.077-.147.075-.151.072-.153.071-.157.068-.159.066-.163.064-.166.062-.168.06-.172.059-.174.057-.178.055-.18.053-.184.052-.186.05-.189.048-.191.047-.195.045-.197.043-.2.042-.202.039-.205.039-.208.036-.21.035-.212.033-.215.031-.217.03-.219.028-.221.026-.224.024-.226.022-.228.021-.229.019-.232.017-.233.014-.236.013-.237.012-.239.009-.24.007-.242.005-.243.003-.245.001-.245-.001-.243-.003-.242-.005-.24-.007-.239-.009-.237-.012-.236-.013-.233-.014-.232-.017-.229-.019-.228-.021-.226-.022-.224-.024-.221-.026-.219-.028-.217-.03-.215-.031-.212-.033-.21-.035-.208-.036-.205-.039-.202-.039-.2-.042-.197-.043-.195-.045-.191-.047-.189-.048-.186-.05-.184-.052-.18-.053-.178-.055-.174-.057-.172-.059-.168-.06-.166-.062-.163-.064-.159-.066-.157-.068-.153-.071-.151-.072-.147-.075-.145-.077-.137-.077-.074-.043-.068-.042-.068-.042-.068-.043-.066-.044-.066-.045-.065-.046-.064-.046-.064-.048-.062-.048-.062-.05-.061-.051-.061-.051-.059-.053-.058-.055-.058-.055-.057-.057-.056-.059-.054-.059-.054-.062-.052-.063-.052-.065-.05-.066-.048-.068-.048-.07-.045-.072-.044-.074-.042-.076-.041-.078-.038-.08-.036-.082-.033-.083-.031-.086-.028-.087-.026-.089-.022-.09-.02-.092-.015-.093-.013-.094-.009-.095-.005-.095-.002-.096.002-.096.005-.095.009-.095.013-.094.015-.093.02-.092.022-.09.026-.089.028-.087.031-.086.033-.084.036-.081.038-.08.041-.078.042-.076.044-.074.045-.072.048-.07.048-.068.05-.066.052-.065.052-.063.054-.062.055-.06.055-.058.057-.057.057-.055.059-.055.059-.053.061-.051.061-.051.062-.05.062-.048.064-.048.064-.046.065-.046.066-.045.066-.044.068-.043.068-.042.068-.042.074-.043.137-.077.145-.077.147-.075.151-.072.153-.071.157-.068.159-.066.163-.064.166-.062.168-.06.172-.059.174-.057.178-.055.18-.053.184-.052.186-.05.189-.048.191-.047.195-.045.197-.043.2-.042.202-.039.205-.039.208-.036.21-.035.212-.033.215-.031.217-.03.219-.028.221-.026.224-.024.226-.022.228-.021.229-.019.232-.017.233-.014.236-.013.237-.012.239-.009.24-.007.242-.005.243-.003.245-.001.245.001zm-.477 1.5-.231.003-.229.005-.228.007-.226.008-.224.011-.222.012-.221.014-.218.016-.217.018-.215.019-.212.021-.21.023-.208.024-.206.026-.203.028-.2.029-.198.031-.196.032-.192.034-.19.036-.187.037-.184.038-.182.04-.178.041-.174.042-.172.044-.168.045-.165.047-.162.048-.158.049-.155.05-.151.052-.147.052-.143.054-.14.055-.135.056-.132.058-.128.058-.123.059-.119.061-.115.061-.111.062-.054.032-.052.032-.051.032-.051.032-.049.032-.048.033-.047.033-.045.033-.045.033-.043.034-.042.033-.041.034-.04.035-.039.034-.037.034-.036.035-.035.035-.033.035-.032.036-.031.035-.03.036-.028.036-.028.036-.025.036-.025.036-.023.037-.022.036-.02.037-.019.037-.018.037-.017.038-.015.037-.013.038-.012.037-.011.038-.01.038-.008.038-.006.039-.005.038-.004.039-.002.038-.001.039.001.039.002.038.004.039.005.038.006.039.008.038.01.038.011.038.012.037.013.038.015.037.017.038.018.037.019.037.02.037.022.036.023.037.025.036.025.036.028.036.028.036.03.036.031.035.032.036.033.035.035.035.036.035.037.034.039.034.04.035.041.034.042.033.043.034.045.033.045.033.047.033.048.033.049.032.051.032.051.032.052.032.054.032.111.062.115.061.119.061.123.059.128.058.132.058.135.056.14.055.143.054.147.052.151.052.155.05.158.049.162.048.165.047.168.045.172.044.174.042.178.041.182.04.184.038.187.037.19.036.192.034.196.032.198.031.2.029.203.028.206.026.208.024.21.023.212.021.215.019.217.018.218.016.221.014.222.012.224.011.226.008.228.007.229.005.231.003.232.001.232-.001.231-.003.229-.005.228-.007.226-.008.224-.011.222-.012.221-.014.218-.016.217-.018.215-.019.212-.021.21-.023.208-.024.206-.026.203-.028.2-.029.198-.031.196-.032.192-.034.19-.036.187-.037.184-.038.182-.04.178-.041.174-.042.172-.044.168-.045.165-.047.162-.048.158-.049.155-.05.151-.052.147-.052.143-.054.14-.055.135-.056.132-.058.128-.058.123-.059.119-.061.115-.061.111-.062.054-.032.052-.032.051-.032.051-.032.049-.032.048-.033.047-.033.045-.033.045-.033.043-.034.042-.033.041-.034.04-.035.039-.034.037-.034.036-.035.035-.035.033-.035.032-.036.031-.035.03-.036.028-.036.028-.036.025-.036.025-.036.023-.037.022-.036.02-.037.019-.037.018-.037.017-.038.015-.037.013-.038.012-.037.011-.038.01-.038.008-.038.006-.039.005-.038.004-.039.002-.038.001-.039-.001-.039-.002-.038-.004-.039-.005-.038-.006-.039-.008-.038-.01-.038-.011-.038-.012-.037-.013-.038-.015-.037-.017-.038-.018-.037-.019-.037-.02-.037-.022-.036-.023-.037-.025-.036-.025-.036-.028-.036-.028-.036-.03-.036-.031-.035-.032-.036-.033-.035-.035-.035-.036-.035-.037-.034-.039-.034-.04-.035-.041-.034-.042-.033-.043-.034-.045-.033-.045-.033-.047-.033-.048-.033-.049-.032-.051-.032-.051-.032-.052-.032-.054-.032-.111-.062-.115-.061-.119-.061-.123-.059-.128-.058-.132-.058-.135-.056-.14-.055-.143-.054-.147-.052-.151-.052-.155-.05-.158-.049-.162-.048-.165-.047-.168-.045-.172-.044-.174-.042-.178-.041-.182-.04-.184-.038-.187-.037-.19-.036-.192-.034-.196-.032-.198-.031-.2-.029-.203-.028-.206-.026-.208-.024-.21-.023-.212-.021-.215-.019-.217-.018-.218-.016-.221-.014-.222-.012-.224-.011-.226-.008-.228-.007-.229-.005-.231-.003-.232-.001z" fill="#fff"/></g></svg>