<svg clip-rule="evenodd" fill-rule="evenodd" stroke-linecap="round" stroke-miterlimit="1.5" viewBox="0 0 32 32" xmlns="http://www.w3.org/2000/svg" xmlns:xlink="http://www.w3.org/1999/xlink"><clipPath id="a"><path clip-rule="evenodd" d="m0 0h32v32h-32z"/></clipPath><metadata/><path d="m0 0h32v32h-32z" fill="none"/><g clip-path="url(#a)"><path d="m5.139 22.523c-1.344-1.823-2.139-4.077-2.139-6.517v-1.008c0-7.179 5.819-12.998 12.998-12.998h.002c7.18 0 13 5.82 13 13v1.006c0 2.44-.795 4.694-2.139 6.517.203.097.391.229.553.391l1.172 1.172c.375.375.586.884.586 1.414s-.211 1.039-.586 1.414c-.555.555-1.211 1.211-1.851 1.851-1.51 1.51-3.96 1.51-5.47 0 0 0-.001-.001-.001-.001-.547-.547-.903-1.244-1.034-1.989-.718.147-1.462.225-2.224.225-1.328 0-2.684 0-4.012 0-.762 0-1.506-.078-2.224-.225-.131.745-.487 1.442-1.034 1.989 0 0-.001.001-.001.001-1.51 1.51-3.96 1.51-5.47 0-.64-.64-1.296-1.296-1.851-1.851-.375-.375-.586-.884-.586-1.414s.211-1.039.586-1.414l1.172-1.172c.162-.162.35-.294.553-.391z" fill="#fbc546"/><path d="m16 0c8.284 0 15 6.716 15 15v1.006c0 2.217-.556 4.304-1.535 6.13l.535.536c.75.75 1.172 1.767 1.172 2.828s-.422 2.078-1.172 2.828c-.555.555-1.211 1.211-1.851 1.851-2.291 2.292-6.007 2.292-8.298 0-.001 0-.001 0-.001-.001-.365-.364-.674-.772-.924-1.211-.304.022-.611.033-.92.033-1.328 0-2.684 0-4.012 0-.309 0-.616-.011-.92-.033-.25.439-.559.847-.924 1.211 0 .001 0 .001-.001.001-2.291 2.292-6.007 2.292-8.298 0-.64-.64-1.296-1.296-1.851-1.851-.75-.75-1.172-1.767-1.172-2.828s.422-2.078 1.172-2.828l.535-.536c-.979-1.826-1.535-3.913-1.535-6.13v-1.008c0-8.283 6.715-14.998 14.998-14.998h.002z"/><path d="m27.899 20.808c-1.312.709-3.147 4.819-6.899 4.786-3.144-.027-6.856-.027-10 0-3.752.033-6.165-4.222-6.899-4.786-.705-1.451-1.101-3.08-1.101-4.802v-1.008c0-.241.007-.48.019-.718.532-.215.305-.627.082-.909.8-6.411 6.269-11.371 12.897-11.371h.002c6.628 0 12.097 4.96 12.899 11.37-.472.21-.511.611.081.911.013.238.02.478.02.719v1.006c0 1.722-.396 3.351-1.101 4.802z" fill="#fbc546"/><path d="m18.299 24.701-.089.801c-.056.503-.045 1.006.03 1.496-.078.001-.156.002-.234.002h-4.012c-.053 0-.106-.001-.16-.001-.017 0-.035-.001-.053-.001-.007 0-.019.006-.021 0-.005-.015.004-.031.007-.046.004-.031.008-.062.012-.093.014-.107.025-.216.032-.324.024-.344.016-.69-.021-1.033l-.089-.801.299.299h4zm5.483-3.701c-.218.145-.423.312-.61.5l-.672.672-.586-.586c-.042-.042-.086-.082-.131-.12.572-.303 1.215-.466 1.874-.466zm-15.564 0h.125c.659 0 1.302.163 1.874.466-.045.038-.089.078-.131.12l-.586.586-.672-.672c-.187-.188-.392-.355-.61-.5z" fill="#e59a10"/><path d="m4.101 20.808c.578-.312 1.23-.48 1.899-.48 1.061 0 2.078.422 2.828 1.172l.672.672.586-.586c.543-.544 1.351-.728 2.076-.473.725.254 1.241.902 1.326 1.666l.302 2.723c.056.503.045 1.006-.03 1.496-4.251-.089-7.908-2.59-9.659-6.19zm14.139 6.19c-.075-.49-.086-.993-.03-1.496l.302-2.723c.085-.764.601-1.412 1.326-1.666.725-.255 1.533-.071 2.076.473l.586.586.672-.672c.75-.75 1.767-1.172 2.828-1.172.669 0 1.321.168 1.899.48-1.751 3.6-5.408 6.101-9.659 6.19z" fill="#7e5108"/><path d="m7.293 11.207c.39.391 1.024.391 1.414 0 .001-.001.001-.001.001-.001.475-.475 1.12-.742 1.792-.742s1.317.267 1.792.742c0 0 0 .001.002.002.187.187.441.292.706.292s.519-.105.706-.292c.001 0 .001-.001.001-.001.391-.39.391-1.024 0-1.414-.001-.001-.001-.001-.001-.001-.85-.85-2.004-1.328-3.206-1.328s-2.356.478-3.206 1.328c0 0-.001 0-.002.002-.187.187-.292.441-.292.706s.105.519.292.706c0 .001.001.001.001.001zm17.414 0c-.39.391-1.024.391-1.414 0-.001-.001-.001-.001-.001-.001-.475-.475-1.12-.742-1.792-.742s-1.317.267-1.792.742c0 0 0 .001-.002.002-.187.187-.441.292-.706.292s-.519-.105-.706-.292c-.001 0-.001-.001-.001-.001-.391-.39-.391-1.024 0-1.414.001-.001.001-.001.001-.001.85-.85 2.004-1.328 3.206-1.328s2.356.478 3.206 1.328c0 0 .001 0 .002.002.187.187.292.441.292.706s-.105.519-.292.706c0 .001-.001.001-.001.001z"/><path d="m20.197 25.723c-.124 1.123.268 2.242 1.067 3.041 0 0 .001.001.001.001 1.51 1.51 3.96 1.51 5.47 0l1.851-1.851c.375-.375.586-.884.586-1.414s-.211-1.039-.586-1.414c-.38-.38-.792-.792-1.172-1.172-.375-.375-.884-.586-1.414-.586s-1.039.211-1.414.586c-.971.971-2.086 2.086-2.086 2.086l-2-2s-.163 1.465-.303 2.723zm-8.394 0c.124 1.123-.268 2.242-1.067 3.041 0 0-.001.001-.001.001-1.51 1.51-3.96 1.51-5.47 0-.64-.64-1.296-1.296-1.851-1.851-.375-.375-.586-.884-.586-1.414s.211-1.039.586-1.414c.38-.38.792-.792 1.172-1.172.375-.375.884-.586 1.414-.586s1.039.211 1.414.586c.971.971 2.086 2.086 2.086 2.086l2-2s.163 1.465.303 2.723z" fill="#fbc546"/><path d="m28.98 14.281c-.136.971-.971 1.719-1.98 1.719-1.222 0-2.778 0-4 0-1.105 0-2-.895-2-2s.895-2 2-2h4c.885 0 1.635.574 1.899 1.37.037.301.065.604.081.911zm-25.879-.91c.263-.796 1.014-1.371 1.899-1.371h4c1.105 0 2 .895 2 2 0 1.105-.895 2-2 2-1.222 0-2.778 0-4 0-1.009 0-1.844-.748-1.981-1.72.017-.306.044-.609.082-.909z" fill="#ed6b44"/><path d="m10 15s.385.385.879.879c1.358 1.358 3.2 2.121 5.121 2.121 1.921 0 3.763-.763 5.121-2.121.494-.494.879-.879.879-.879" fill="none" stroke="#593604" stroke-width="2"/></g></svg>