<svg clip-rule="evenodd" fill-rule="evenodd" stroke-linecap="round" stroke-linejoin="round" stroke-miterlimit="1.5" viewBox="0 0 32 32" xmlns="http://www.w3.org/2000/svg" xmlns:xlink="http://www.w3.org/1999/xlink"><clipPath id="a"><path clip-rule="evenodd" d="m13 10s-2.006-2.507-3.177-3.971c-.542-.678-1.225-1.23-2.002-1.618-1.18-.59-2.821-1.411-2.821-1.411s-1.092 1.716-2.414 3.793c-1.121 1.762-1.388 3.936-.725 5.916.662 1.981 2.182 3.557 4.138 4.29.001.001.001.001.001.001"/></clipPath><clipPath id="b"><path clip-rule="evenodd" d="m19 10s2.006-2.507 3.177-3.971c.542-.678 1.225-1.23 2.002-1.618 1.18-.59 2.821-1.411 2.821-1.411s1.092 1.716 2.414 3.793c1.121 1.762 1.388 3.936.725 5.916-.662 1.981-2.182 3.557-4.138 4.29-.001.001-.001.001-.001.001"/></clipPath><clipPath id="c"><path clip-rule="evenodd" d="m10.933 9.767c-2.899.725-4.933 3.329-4.933 6.317v.002c0 1.916.446 3.806 1.303 5.521.574 1.148 1.187 2.373 1.495 2.99.135.268.293.524.473.764.408.545 1.202 1.603 1.829 2.439.567.755 1.456 1.2 2.4 1.2h5c.944 0 1.833-.445 2.4-1.2.627-.836 1.421-1.894 1.829-2.439.18-.24.338-.496.473-.764.308-.617.921-1.842 1.495-2.99.857-1.715 1.303-3.605 1.303-5.521 0-.001 0-.001 0-.002 0-2.988-2.034-5.592-4.933-6.317-1.645-.411-3.067-.767-3.067-.767l-2-1-2 1s-1.422.356-3.067.767z"/></clipPath><metadata/><path d="m0 0h32v32h-32z" fill="none"/><path d="m10.933 9.767c-2.899.725-4.933 3.329-4.933 6.317v.002c0 1.916.446 3.806 1.303 5.521.574 1.148 1.187 2.373 1.495 2.99.135.268.293.524.473.764.408.545 1.202 1.603 1.829 2.439.567.755 1.456 1.2 2.4 1.2h5c.944 0 1.833-.445 2.4-1.2.627-.836 1.421-1.894 1.829-2.439.18-.24.338-.496.473-.764.308-.617.921-1.842 1.495-2.99.857-1.715 1.303-3.605 1.303-5.521 0-.001 0-.001 0-.002 0-2.988-2.034-5.592-4.933-6.317-1.645-.411-3.067-.767-3.067-.767l-2-1-2 1s-1.422.356-3.067.767z"/><path d="m18.698 7.113 2.865.716.166.044.175.049.173.053.171.057.17.06.168.064.166.067.165.07.162.073.16.077.159.08.156.083.155.086.152.089.15.092.148.094.145.098.144.101.141.103.139.106.136.109.134.112.131.114.129.116.127.119.124.122.121.124.119.126.116.129.113.131.111.134.108.135.106.138.102.139.1.142.096.144.094.146.091.148.088.15.085.151.082.154.078.155.076.157.073.159.069.16.066.162.063.163.059.165.056.167.053.168.05.169.046.17.042.172.039.173.036.175.031.175.029.176.024.178.021.178.017.179.014.181.009.18.006.182.002.172v.019l-.001.201-.005.209-.008.208-.01.208-.014.208-.016.207-.02.207-.023.206-.025.207-.029.205-.031.205-.035.205-.037.204-.04.204-.044.202-.046.202-.049.202-.052.201-.055.2-.058.199-.06.198-.064.198-.066.197-.07.196-.072.194-.075.194-.078.193-.08.192-.084.191-.086.189-.09.189-.088.181-1.504 3.006-.066.13-.076.139-.078.136-.081.135-.084.133-.087.131-.09.129-.087.118-1.845 2.46-.081.104-.093.114-.096.11-.099.107-.102.104-.105.101-.107.098-.11.094-.112.091-.115.087-.117.084-.12.08-.121.077-.124.073-.125.07-.128.066-.129.063-.131.058-.133.055-.135.051-.136.048-.137.043-.139.039-.14.036-.141.031-.142.027-.144.024-.144.019-.145.015-.146.011-.147.006-.132.002h-5.03l-.132-.002-.147-.006-.146-.011-.145-.015-.144-.019-.144-.024-.142-.027-.141-.031-.14-.036-.139-.039-.137-.043-.136-.048-.135-.051-.133-.055-.131-.058-.129-.063-.128-.066-.125-.07-.124-.073-.121-.077-.12-.08-.117-.084-.115-.087-.112-.091-.11-.094-.107-.098-.105-.101-.102-.104-.099-.107-.096-.11-.093-.114-.081-.104-1.845-2.46-.087-.118-.09-.129-.087-.131-.084-.133-.081-.135-.078-.136-.076-.139-.066-.13-1.504-3.006-.088-.181-.09-.189-.086-.189-.084-.191-.08-.192-.078-.193-.075-.194-.072-.194-.07-.196-.066-.197-.064-.198-.06-.198-.058-.199-.055-.2-.052-.201-.049-.202-.046-.202-.044-.202-.04-.204-.037-.204-.035-.205-.031-.205-.029-.205-.025-.207-.023-.206-.02-.207-.016-.207-.014-.208-.01-.208-.008-.208-.005-.209-.001-.201v-.019l.002-.172.006-.182.009-.18.014-.181.017-.179.021-.178.024-.178.029-.176.031-.175.036-.175.039-.173.042-.172.046-.17.05-.169.053-.168.056-.167.059-.165.063-.163.066-.162.069-.16.073-.159.076-.157.078-.155.082-.154.085-.151.088-.15.091-.148.094-.146.096-.144.1-.142.102-.139.106-.138.108-.135.111-.134.113-.131.116-.129.119-.126.121-.124.124-.122.127-.119.129-.116.131-.114.134-.112.136-.109.139-.106.141-.103.144-.101.145-.098.148-.094.15-.092.152-.089.155-.086.156-.083.159-.08.16-.077.162-.073.165-.07.166-.067.168-.064.17-.06.171-.057.173-.053.175-.049.166-.044 2.865-.716 2.698-1.349 2.698 1.349zm-4 3.774-3.27.818-.104.027-.094.026-.092.029-.091.03-.09.032-.089.033-.088.036-.087.037-.086.039-.084.04-.084.042-.083.044-.081.046-.081.047-.079.048-.078.051-.078.051-.075.053-.075.055-.073.056-.073.058-.071.059-.069.061-.069.061-.067.064-.066.064-.064.066-.063.067-.062.068-.06.07-.059.071-.057.072-.056.073-.055.074-.052.075-.052.077-.05.077-.048.079-.046.079-.046.081-.043.081-.042.082-.04.084-.038.084-.037.084-.035.086-.033.087-.032.087-.029.088-.028.089-.026.089-.025.09-.022.091-.021.092-.019.092-.016.093-.015.093-.013.094-.011.094-.01.096-.007.095-.005.096-.003.097-.001.101.001.148.003.15.006.151.008.15.009.149.012.15.014.149.017.149.018.149.021.148.022.148.025.148.027.147.029.146.032.147.033.146.035.145.038.145.039.144.042.144.044.143.046.142.048.142.05.141.052.141.054.14.056.139.058.138.06.137.063.137.064.136.069.142 1.487 2.973.036.07.032.06.034.058.035.058.036.057.037.056.039.055.046.064 1.814 2.418.027.035.019.023.019.022.02.021.02.021.021.02.021.02.023.019.022.018.023.017.023.017.024.016.025.015.024.015.025.014.026.013.026.013.026.011.027.011.027.011.027.009.027.009.028.008.028.007.028.006.029.005.028.005.029.004.029.003.029.002.029.001.045.001h4.97l.045-.001.029-.001.029-.002.029-.003.029-.004.028-.005.029-.005.028-.006.028-.007.028-.008.027-.009.027-.009.027-.011.027-.011.026-.011.026-.013.026-.013.025-.014.024-.015.025-.015.024-.016.023-.017.023-.017.022-.018.023-.019.021-.02.021-.02.02-.021.02-.021.019-.022.019-.023.027-.035 1.814-2.418.046-.064.039-.055.037-.056.036-.057.035-.058.034-.058.032-.06.036-.07 1.487-2.973.069-.142.064-.136.063-.137.06-.137.058-.138.056-.139.054-.14.052-.141.05-.141.048-.142.046-.142.044-.143.042-.144.039-.144.038-.145.035-.145.033-.146.032-.147.029-.146.027-.147.025-.148.022-.148.021-.148.018-.149.017-.149.014-.149.012-.15.009-.149.008-.15.006-.151.003-.15.001-.148-.001-.101-.003-.097-.005-.096-.007-.095-.01-.096-.011-.094-.013-.094-.015-.093-.016-.093-.019-.092-.021-.092-.022-.091-.025-.09-.026-.089-.028-.089-.029-.088-.032-.087-.033-.087-.035-.086-.037-.084-.038-.084-.04-.084-.042-.082-.043-.081-.046-.081-.046-.079-.048-.079-.05-.077-.052-.077-.052-.075-.055-.074-.056-.073-.057-.072-.059-.071-.06-.07-.062-.068-.063-.067-.064-.066-.066-.064-.067-.064-.069-.061-.069-.061-.071-.059-.073-.058-.073-.056-.075-.055-.075-.053-.078-.051-.078-.051-.079-.048-.081-.047-.081-.046-.083-.044-.084-.042-.084-.04-.086-.039-.087-.037-.088-.036-.089-.033-.09-.032-.091-.03-.092-.029-.094-.026-.104-.027-3.27-.818-1.302-.651-1.302.651z"/><path d="m13 10s-2.006-2.507-3.177-3.971c-.542-.678-1.225-1.23-2.002-1.618-1.18-.59-2.821-1.411-2.821-1.411s-1.092 1.716-2.414 3.793c-1.121 1.762-1.388 3.936-.725 5.916.662 1.981 2.182 3.557 4.138 4.29.001.001.001.001.001.001" fill="#606060"/><g clip-path="url(#a)"><path d="m13 10s-2.464-3.08-3.524-4.405c-.316-.395-.681-.749-1.085-1.052-1.12-.84-3.391-2.543-3.391-2.543" fill="none" stroke="#3a3a3a" stroke-width="6"/></g><path d="m8.272 3.518.081.041.084.044.083.046.083.046.082.047.081.049.081.049.08.051.079.052.078.053.078.053.077.055.076.056.075.057.075.058.074.059.073.059.072.061.071.062.071.063.07.063.068.065.069.066.067.066.066.068.065.068.065.069.063.071.063.071.062.072.06.073.058.071 3.804 4.754-1.562 1.25-3.8-4.75-.044-.055-.044-.052-.044-.051-.045-.051-.045-.05-.046-.05-.047-.049-.047-.048-.048-.047-.048-.047-.05-.046-.05-.046-.05-.045-.051-.044-.051-.043-.053-.043-.052-.042-.054-.041-.053-.041-.055-.04-.055-.039-.055-.038-.056-.038-.057-.037-.057-.036-.057-.036-.058-.034-.059-.034-.059-.033-.06-.033-.059-.031-.064-.032-2.012-1.006-1.927 3.029-.047.074-.043.071-.042.072-.041.073-.041.073-.039.073-.038.074-.037.074-.035.075-.035.075-.034.075-.032.076-.032.076-.03.077-.029.076-.029.078-.027.077-.026.078-.025.078-.023.079-.023.079-.022.079-.02.079-.02.079-.018.08-.017.08-.016.08-.015.081-.014.08-.013.081-.011.081-.011.081-.009.081-.008.081-.008.082-.006.081-.005.082-.003.082-.003.082-.001.081-.001.082.001.082.002.082.003.082.004.082.005.082.007.081.007.082.009.082.01.082.011.081.012.082.013.081.014.082.016.081.017.081.018.081.019.081.02.08.021.081.023.08.023.08.025.08.026.079.027.079.028.079.03.078.03.078.031.077.032.076.034.077.034.075.036.075.036.074.037.073.039.074.039.072.04.072.042.071.042.071.043.069.044.07.045.068.046.068.047.067.048.067.049.066.049.065.05.064.052.064.052.063.053.062.054.062.055.061.055.06.056.059.057.058.058.058.059.057.06.056.06.055.061.054.062.054.062.053.064.052.064.051.065.05.065.049.066.048.067.048.068.046.068.046.069.045.07.044.07.043.071.042.072.041.072.04.073.039.073.038.074.037.075.036.075.035.076.034.077.033.077.032.077.031.082.031.934.351-.702 1.872-.941-.352-.101-.039-.104-.042-.103-.042-.102-.045-.102-.045-.1-.047-.1-.049-.099-.049-.099-.051-.097-.052-.097-.054-.096-.055-.094-.056-.095-.057-.093-.059-.092-.06-.091-.061-.091-.062-.089-.064-.089-.064-.087-.066-.087-.067-.086-.068-.084-.07-.084-.07-.083-.072-.082-.073-.08-.073-.08-.075-.078-.076-.078-.077-.076-.079-.076-.079-.074-.08-.073-.081-.072-.083-.071-.083-.069-.084-.069-.085-.068-.086-.066-.088-.065-.088-.064-.089-.062-.09-.062-.091-.06-.091-.059-.093-.058-.093-.056-.095-.056-.095-.054-.096-.052-.097-.052-.097-.05-.099-.048-.099-.048-.1-.046-.101-.044-.102-.043-.102-.042-.103-.041-.104-.039-.105-.038-.105-.036-.106-.035-.106-.033-.107-.031-.107-.03-.107-.029-.107-.027-.108-.025-.108-.024-.109-.023-.108-.02-.109-.02-.108-.018-.109-.016-.109-.014-.109-.014-.11-.011-.109-.01-.11-.009-.109-.007-.11-.005-.109-.004-.11-.003-.109-.001-.11.001-.109.002-.11.003-.109.005-.109.007-.109.008-.109.009-.109.011-.109.013-.109.014-.108.016-.108.017-.108.018-.108.02-.107.022-.108.023-.107.024-.106.026-.107.028-.106.028-.105.031-.106.032-.105.033-.104.035-.104.036-.104.038-.103.039-.103.04-.103.043-.102.043-.101.045-.101.047-.1.047-.1.05-.099.051-.099.052-.098.053-.097.056-.097.056-.096.058-.096.058-.092 2.9-4.557 3.631 1.816z"/><path d="m19 10s2.006-2.507 3.177-3.971c.542-.678 1.225-1.23 2.002-1.618 1.18-.59 2.821-1.411 2.821-1.411s1.092 1.716 2.414 3.793c1.121 1.762 1.388 3.936.725 5.916-.662 1.981-2.182 3.557-4.138 4.29-.001.001-.001.001-.001.001" fill="#606060"/><g clip-path="url(#b)"><path d="m19 10s2.464-3.08 3.524-4.405c.316-.395.681-.749 1.085-1.052 1.12-.84 3.391-2.543 3.391-2.543" fill="none" stroke="#3a3a3a" stroke-width="6"/></g><path d="m30.259 6.259.058.092.058.096.056.096.056.097.053.097.052.098.051.099.05.099.047.1.047.1.045.101.043.101.043.102.04.103.039.103.038.103.036.104.035.104.033.104.032.105.031.106.028.105.028.106.026.107.024.106.023.107.022.108.02.107.018.108.017.108.016.108.014.108.013.109.011.109.009.109.008.109.007.109.005.109.003.109.002.11.001.109-.001.11-.003.109-.004.11-.005.109-.007.11-.009.109-.01.11-.011.109-.014.11-.014.109-.016.109-.018.109-.02.108-.02.109-.023.108-.024.109-.025.108-.027.108-.029.107-.03.107-.031.107-.033.107-.035.106-.036.106-.038.105-.039.105-.041.104-.042.103-.043.102-.044.102-.046.101-.048.1-.048.099-.05.099-.052.097-.052.097-.054.096-.056.095-.056.095-.058.093-.059.093-.06.091-.062.091-.062.09-.064.089-.065.088-.066.088-.068.086-.069.085-.069.084-.071.083-.072.083-.073.081-.074.08-.076.079-.076.079-.078.077-.078.076-.08.075-.08.073-.082.073-.083.072-.084.07-.084.07-.086.068-.087.067-.087.066-.089.064-.089.064-.091.062-.091.061-.092.06-.093.059-.095.057-.094.056-.096.055-.097.054-.097.052-.099.051-.099.049-.1.049-.1.047-.102.045-.102.045-.103.042-.104.042-.101.039-.941.352-.702-1.872.934-.351.082-.031.077-.031.077-.032.077-.033.076-.034.075-.035.075-.036.074-.037.073-.038.073-.039.072-.04.072-.041.071-.042.07-.043.07-.044.069-.045.068-.046.068-.046.067-.048.066-.048.065-.049.065-.05.064-.051.064-.052.062-.053.062-.054.061-.054.06-.055.06-.056.059-.057.058-.058.057-.058.056-.059.055-.06.055-.061.054-.062.053-.062.052-.063.052-.064.05-.064.049-.065.049-.066.048-.067.047-.067.046-.068.045-.068.044-.07.043-.069.042-.071.042-.071.04-.072.039-.072.039-.074.037-.073.036-.074.036-.075.034-.075.034-.077.032-.076.031-.077.03-.078.03-.078.028-.079.027-.079.026-.079.025-.08.023-.08.023-.08.021-.081.02-.08.019-.081.018-.081.017-.081.016-.081.014-.082.013-.081.012-.082.011-.081.01-.082.009-.082.007-.082.007-.081.005-.082.004-.082.003-.082.002-.082.001-.082-.001-.082-.001-.081-.003-.082-.003-.082-.005-.082-.006-.081-.008-.082-.008-.081-.009-.081-.011-.081-.011-.081-.013-.081-.014-.08-.015-.081-.016-.08-.017-.08-.018-.08-.02-.079-.02-.079-.022-.079-.023-.079-.023-.079-.025-.078-.026-.078-.027-.077-.029-.078-.029-.076-.03-.077-.032-.076-.032-.076-.034-.075-.035-.075-.035-.075-.037-.074-.038-.074-.039-.073-.041-.073-.041-.073-.042-.072-.043-.071-.047-.074-1.927-3.029-2.012 1.006-.064.032-.059.031-.06.033-.059.033-.059.034-.058.034-.057.036-.057.036-.057.037-.056.038-.055.038-.055.039-.055.04-.053.041-.054.041-.052.042-.053.043-.051.043-.051.044-.05.045-.05.046-.05.046-.048.047-.048.047-.047.048-.047.049-.046.05-.045.05-.045.051-.044.051-.044.052-.044.055-3.8 4.75-1.562-1.25 3.804-4.754.058-.071.06-.073.062-.072.063-.071.063-.071.065-.069.065-.068.066-.068.067-.066.069-.066.068-.065.07-.063.071-.063.071-.062.072-.061.073-.059.074-.059.075-.058.075-.057.076-.056.077-.055.078-.053.078-.053.079-.052.08-.051.081-.049.081-.049.082-.047.083-.046.083-.046.084-.044.081-.041 3.631-1.816 2.9 4.557z"/><path d="m10.933 9.767c-2.899.725-4.933 3.329-4.933 6.317v.002c0 1.916.446 3.806 1.303 5.521.574 1.148 1.187 2.373 1.495 2.99.135.268.293.524.473.764.408.545 1.202 1.603 1.829 2.439.567.755 1.456 1.2 2.4 1.2h5c.944 0 1.833-.445 2.4-1.2.627-.836 1.421-1.894 1.829-2.439.18-.24.338-.496.473-.764.308-.617.921-1.842 1.495-2.99.857-1.715 1.303-3.605 1.303-5.521 0-.001 0-.001 0-.002 0-2.988-2.034-5.592-4.933-6.317-1.645-.411-3.067-.767-3.067-.767l-2-1-2 1s-1.422.356-3.067.767z" fill="#d6b470"/><g clip-path="url(#c)"><path d="m13 17h6v2l1 1 1 3v7h-10v-7l1-3 1-1z" fill="#a19589"/></g><path d="m19 17.983v.018l.001.015.001.014.001.015.002.014.003.014.002.014.003.014.004.014.004.014.004.014.005.013.005.013.005.014.006.013.006.013.007.012.007.013.007.012.007.012.008.012.009.012.008.011.009.012.01.011.009.01.01.011.011.01.01.01.011.009.011.01.015.011.813.617.055.042.056.047.054.048.053.049.052.051.05.053.048.053.046.055.045.056.043.057.042.059.04.059.038.061.036.061.034.063.033.063.031.065.029.065.027.066.025.067.024.067.021.069.02.069.017.069.016.071.013.07.012.072.009.072.007.072.006.072.003.073.001.07v2.01h-1v-2.003l-.001-.048-.002-.043-.003-.044-.004-.043-.006-.043-.007-.043-.008-.042-.009-.043-.011-.041-.011-.042-.013-.041-.014-.04-.015-.04-.017-.04-.017-.039-.019-.039-.019-.038-.021-.038-.022-.037-.023-.036-.023-.036-.025-.035-.026-.034-.027-.033-.028-.033-.029-.032-.03-.032-.031-.03-.031-.03-.033-.029-.034-.028-.037-.029-.814-.617-.031-.025-.034-.027-.033-.029-.031-.03-.031-.031-.03-.031-.029-.032-.028-.033-.027-.034-.026-.034-.025-.035-.024-.036-.022-.036-.022-.037-.021-.037-.019-.038-.019-.039-.017-.039-.017-.04-.015-.04-.014-.041-.013-.041-.011-.041-.011-.042-.009-.042-.008-.042-.007-.043-.006-.043-.004-.044-.004-.043-.001-.044-.001-.04v-2.507h1v2.5z" fill="#685346"/><path d="m14 18.004-.001.04-.002.044-.003.044-.004.043-.006.044-.007.043-.008.042-.01.043-.01.042-.012.041-.013.042-.014.041-.016.04-.016.04-.018.039-.018.039-.02.038-.021.038-.022.037-.023.036-.024.036-.025.035-.027.035-.027.033-.028.033-.029.033-.03.031-.032.031-.032.029-.033.029-.034.028-.032.025-.8.6-.038.029-.034.028-.033.029-.032.03-.031.03-.031.032-.029.032-.028.033-.027.033-.026.035-.026.035-.024.036-.023.036-.022.037-.021.038-.02.038-.018.039-.018.039-.016.04-.016.041-.014.04-.013.042-.012.041-.01.042-.01.043-.008.042-.007.043-.006.043-.004.044-.003.044-.002.044-.001.048v2.013h-1v-2.021l.001-.07.003-.073.006-.073.007-.072.01-.073.011-.071.014-.072.016-.07.017-.07.02-.07.022-.068.023-.068.026-.067.027-.067.03-.065.031-.065.033-.064.035-.063.036-.061.039-.061.04-.06.042-.058.044-.058.045-.056.047-.055.049-.054.05-.052.052-.051.054-.049.055-.048.057-.047.055-.043.8-.6.015-.011.011-.009.011-.01.011-.01.01-.01.01-.011.01-.01.009-.011.009-.011.009-.012.009-.012.008-.011.007-.013.008-.012.007-.013.006-.012.006-.013.006-.014.006-.013.005-.013.005-.014.004-.013.004-.014.003-.014.004-.014.002-.015.003-.014.002-.014.001-.015.001-.014.001-.015v-.019-2.496h1z" fill="#685346"/><path d="m18.997 26h.029l.026-.001.026-.002.025-.002.025-.003.025-.004.025-.004.024-.004.024-.006.024-.005.024-.007.024-.007.023-.007.023-.009.023-.008.022-.009.022-.01.022-.01.022-.011.021-.011.021-.012.021-.013.021-.012.02-.014.02-.013.019-.014.019-.015.019-.015.018-.016.018-.016.018-.016.017-.017.017-.017.016-.018.016-.018.016-.018.015-.019.015-.019.014-.019.013-.02.014-.02.012-.021.013-.021.012-.021.011-.021.011-.022.01-.022.01-.022.009-.022.008-.023.009-.023.007-.023.007-.024.007-.024.005-.024.006-.024.004-.024.004-.025.004-.025.003-.025.002-.026.002-.025.001-.026v-.029.003l.002-.041.005-.041.008-.041.012-.039.015-.039.018-.037.021-.035.024-.034.027-.032.029-.029.032-.027.034-.024.035-.021.037-.018.039-.015.039-.012.041-.008.041-.005.041-.002.041.002.041.005.041.008.039.012.039.015.037.018.035.021.034.024.032.027.029.029.027.032.024.034.021.035.018.037.015.039.012.039.008.041.005.041.002.041v.003l-.001.048-.002.051-.003.051-.004.051-.006.05-.007.05-.008.049-.01.05-.01.048-.012.049-.013.047-.014.048-.015.046-.016.047-.018.045-.018.046-.02.044-.02.044-.022.044-.023.043-.023.042-.025.041-.025.041-.027.041-.027.039-.029.039-.029.038-.03.037-.031.037-.032.036-.032.035-.034.034-.034.034-.035.032-.036.032-.037.031-.037.03-.038.029-.039.029-.039.027-.041.027-.041.025-.041.025-.042.023-.043.023-.044.022-.044.02-.044.02-.046.018-.045.018-.047.016-.046.015-.048.014-.048.013-.048.012-.048.01-.05.01-.049.008-.05.007-.05.006-.051.004-.051.003-.051.002-.048.001h-2.21l-.793-.793-.793.793h-2.21l-.048-.001-.051-.002-.051-.003-.051-.004-.05-.006-.05-.007-.049-.008-.05-.01-.048-.01-.048-.012-.048-.013-.048-.014-.046-.015-.047-.016-.045-.018-.046-.018-.044-.02-.044-.02-.044-.022-.043-.023-.042-.023-.041-.025-.041-.025-.041-.027-.039-.027-.039-.029-.038-.029-.037-.03-.037-.031-.036-.032-.035-.032-.034-.034-.034-.034-.032-.035-.032-.036-.031-.037-.03-.037-.03-.038-.028-.039-.027-.039-.027-.041-.025-.041-.025-.041-.023-.042-.023-.043-.022-.044-.02-.044-.02-.044-.018-.046-.018-.045-.016-.047-.015-.046-.014-.048-.013-.047-.012-.049-.01-.049-.01-.049-.008-.049-.007-.05-.006-.05-.004-.051-.003-.051-.002-.051-.001-.048v-.003l.002-.041.005-.041.008-.041.012-.039.015-.039.018-.037.021-.035.024-.034.027-.032.029-.029.032-.027.034-.024.035-.021.037-.018.039-.015.039-.012.041-.008.041-.005.041-.002.041.002.041.005.041.008.039.012.039.015.037.018.035.021.034.024.032.027.029.029.027.032.024.034.021.035.018.037.015.039.012.039.008.041.005.041.002.041v-.003.029l.001.026.002.025.002.026.003.025.004.025.004.025.004.024.006.024.005.024.007.024.007.024.008.023.008.023.008.023.009.022.01.022.01.022.011.022.011.021.012.021.013.021.012.021.013.02.014.02.015.019.014.019.015.019.016.018.016.018.016.018.017.017.017.017.018.016.018.016.018.016.019.015.019.015.019.014.02.013.02.014.021.012.021.013.021.012.021.011.022.011.022.01.022.01.022.009.023.008.023.009.023.007.024.007.024.007.024.005.024.006.024.004.025.004.025.004.025.003.025.002.026.002.026.001h.029 1.79l1.207-1.207 1.207 1.207z" fill="#3f3935"/><path d="m23 17s-.094.188-.224.449c-.445.89-1.477 1.317-2.422 1.002-.698-.232-1.354-.451-1.354-.451s-.138-.138-.311-.311c-.16-.16-.233-.386-.197-.609s.177-.415.379-.516h.001c.722-.361 1.558-.421 2.324-.165.836.278 1.804.601 1.804.601z"/><path d="m9 17s.094.188.224.449c.445.89 1.477 1.317 2.422 1.002.698-.232 1.354-.451 1.354-.451s.138-.138.311-.311c.16-.16.233-.386.197-.609s-.177-.415-.379-.516c-.001 0-.001 0-.001 0-.722-.361-1.558-.421-2.324-.165-.836.278-1.804.601-1.804.601z"/><path d="m15.414 21c-.265 0-.519.105-.707.293-.13.13-.284.284-.414.414-.188.188-.293.442-.293.707v.586c0 .552.448 1 1 1h2c.552 0 1-.448 1-1 0-.207 0-.414 0-.586 0-.265-.105-.519-.293-.707-.13-.13-.284-.284-.414-.414-.188-.188-.442-.293-.707-.293-.343 0-.829 0-1.172 0z"/></svg>