<svg clip-rule="evenodd" fill-rule="evenodd" stroke-linecap="round" stroke-linejoin="round" stroke-miterlimit="1.5" viewBox="0 0 32 32" xmlns="http://www.w3.org/2000/svg" xmlns:xlink="http://www.w3.org/1999/xlink"><clipPath id="a"><path clip-rule="evenodd" d="m0 0h32v32h-32z"/></clipPath><clipPath id="b"><path clip-rule="evenodd" d="m2 14h28v9.624h-28z"/></clipPath><metadata/><path d="m0 0h32v32h-32z" fill="none"/><g clip-path="url(#a)"><path d="m15 24.968c-6.712-.432-12-5.178-12-10.968 0-.89.947-1.713 2.549-2.378 1.444-5.588 5.577-9.622 10.451-9.622s9.007 4.034 10.451 9.622c1.602.665 2.549 1.488 2.549 2.378 0 5.79-5.288 10.536-12 10.968v1.365c2.836.147 5 .907 5 1.821 0 1.019-2.689 1.846-6 1.846s-6-.827-6-1.846c0-.914 2.164-1.674 5-1.821z" fill="none" stroke="#000" stroke-width="4"/><ellipse cx="16" cy="28.154" fill="#d6d6d6" rx="6" ry="1.846"/><path d="m17 28c0 .17-.448.308-1 .308s-1-.138-1-.308v-7h2z" fill="#bfbfbf"/><path d="m29 14c0 2.289-.826 4.414-2.24 6.175-1.43 1.308-5.709 3.258-10.76 3.258s-9.33-1.95-10.76-3.258c-1.414-1.761-2.24-3.886-2.24-6.175h13z" fill="#e1e1e1"/><path d="m5.24 20.175c1.43 1.308 5.709 2.258 10.76 2.258s9.33-.95 10.76-2.258c-2.339 2.912-6.285 4.825-10.76 4.825s-8.421-1.913-10.76-4.825z" fill="#bfbfbf"/><ellipse cx="16" cy="14" fill="#a7a7a7" rx="13" ry="4"/><path d="m16.335 10.001.334.004.331.007.328.009.327.011.324.014.321.017.319.018.315.022.313.023.31.026.307.028.304.03.3.033.297.035.293.037.29.039.286.041.282.043.278.045.275.047.27.049.266.052.261.053.257.054.253.057.248.059.243.06.239.062.233.064.115.032.113.033.113.033.111.034.109.034.109.035.107.035.105.035.104.036.103.036.102.036.1.037.099.037.097.038.096.038.094.038.093.039.091.039.09.039.089.04.086.04.086.041.084.04.082.042.081.041.079.042.077.042.076.042.074.043.073.043.071.043.069.043.068.044.066.044.064.045.063.045.061.045.059.045.057.045.056.046.053.046.052.047.051.046.048.047.047.047.044.047.043.048.041.048.04.048.037.048.035.049.034.048.031.049.03.049.027.05.026.049.024.05.021.05.02.05.018.05.015.051.014.05.012.051.009.051.007.051.006.052.003.051.001.052-.001.052-.003.051-.006.052-.007.051-.009.051-.012.051-.014.05-.015.051-.018.05-.02.05-.021.05-.024.05-.026.049-.027.05-.03.049-.031.049-.034.048-.035.049-.037.048-.04.048-.041.048-.043.048-.044.047-.047.047-.048.047-.051.046-.052.047-.053.046-.056.046-.057.045-.059.045-.061.045-.063.045-.064.045-.066.044-.068.044-.069.043-.071.043-.073.043-.074.043-.076.042-.077.042-.079.042-.081.041-.082.042-.084.04-.086.041-.086.04-.089.04-.09.039-.091.039-.093.039-.094.038-.096.038-.097.038-.099.037-.1.037-.102.036-.103.036-.104.036-.105.035-.107.035-.109.035-.109.034-.111.034-.113.033-.113.033-.115.032-.233.064-.239.062-.243.06-.248.059-.253.057-.257.054-.261.053-.266.052-.27.049-.275.047-.278.045-.282.043-.286.041-.29.039-.293.037-.297.035-.3.033-.304.03-.307.028-.31.026-.313.023-.315.022-.319.018-.321.017-.324.014-.327.011-.328.009-.331.007-.334.004-.335.001-.335-.001-.334-.004-.331-.007-.328-.009-.327-.011-.324-.014-.321-.017-.319-.018-.315-.022-.313-.023-.31-.026-.307-.028-.304-.03-.3-.033-.297-.035-.293-.037-.29-.039-.286-.041-.282-.043-.278-.045-.275-.047-.27-.049-.266-.052-.261-.053-.257-.054-.253-.057-.248-.059-.243-.06-.239-.062-.233-.064-.115-.032-.113-.033-.113-.033-.111-.034-.109-.034-.109-.035-.107-.035-.105-.035-.104-.036-.103-.036-.102-.036-.1-.037-.099-.037-.097-.038-.096-.038-.094-.038-.093-.039-.091-.039-.09-.039-.089-.04-.086-.04-.086-.041-.084-.04-.082-.042-.081-.041-.079-.042-.077-.042-.076-.042-.074-.043-.073-.043-.071-.043-.069-.043-.068-.044-.066-.044-.064-.045-.063-.045-.061-.045-.059-.045-.057-.045-.056-.046-.053-.046-.052-.047-.051-.046-.048-.047-.047-.047-.044-.047-.043-.048-.041-.048-.04-.048-.037-.048-.035-.049-.034-.048-.031-.049-.03-.049-.027-.05-.026-.049-.024-.05-.021-.05-.02-.05-.018-.05-.015-.051-.014-.05-.012-.051-.009-.051-.007-.051-.006-.052-.003-.051-.001-.052.001-.052.003-.051.006-.052.007-.051.009-.051.012-.051.014-.05.015-.051.018-.05.02-.05.021-.05.024-.05.026-.049.027-.05.03-.049.031-.049.034-.048.035-.049.037-.048.04-.048.041-.048.043-.048.044-.047.047-.047.048-.047.051-.046.052-.047.053-.046.056-.046.057-.045.059-.045.061-.045.063-.045.064-.045.066-.044.068-.044.069-.043.071-.043.073-.043.074-.043.076-.042.077-.042.079-.042.081-.041.082-.042.084-.04.086-.041.086-.04.089-.04.09-.039.091-.039.093-.039.094-.038.096-.038.097-.038.099-.037.1-.037.102-.036.103-.036.104-.036.105-.035.107-.035.109-.035.109-.034.111-.034.113-.033.113-.033.115-.032.233-.064.239-.062.243-.06.248-.059.253-.057.257-.054.261-.053.266-.052.27-.049.275-.047.278-.045.282-.043.286-.041.29-.039.293-.037.297-.035.3-.033.304-.03.307-.028.31-.026.313-.023.315-.022.319-.018.321-.017.324-.014.327-.011.328-.009.331-.007.334-.004.335-.001zm-.663 1-.325.004-.323.006-.321.009-.319.011-.316.014-.313.016-.311.018-.307.021-.305.023-.302.025-.299.027-.295.03-.292.032-.288.033-.285.036-.281.038-.277.04-.273.042-.269.043-.265.046-.261.047-.256.05-.252.051-.247.052-.242.055-.237.056-.232.057-.227.059-.223.061-.107.03-.108.032-.106.031-.104.032-.104.032-.101.032-.101.033-.099.033-.097.034-.096.033-.094.034-.093.034-.091.035-.089.034-.088.035-.086.035-.085.035-.083.036-.082.036-.079.035-.078.036-.076.036-.075.036-.072.037-.071.036-.069.036-.067.037-.065.036-.064.037-.061.036-.06.036-.057.036-.056.036-.053.036-.052.036-.05.035-.047.036-.046.034-.043.035-.041.034-.04.034-.037.033-.035.032-.033.032-.031.032-.029.03-.027.03-.024.029-.023.028-.021.027-.019.026-.017.024-.015.024-.014.023-.012.021-.01.02-.01.019-.007.018-.007.017-.005.015-.005.014-.003.014-.003.012-.002.012-.002.011-.001.011-.001.011v.01l.001.021.001.011.002.011.002.012.003.012.003.014.005.014.005.015.007.017.007.018.01.019.01.02.012.021.014.023.015.024.017.024.019.026.021.027.023.028.024.029.027.03.029.03.031.032.033.032.035.032.037.033.04.034.041.034.043.034.046.035.047.036.05.035.052.036.053.035.056.037.057.036.06.036.061.036.064.037.065.036.067.037.069.036.071.036.072.037.075.036.076.036.078.036.079.035.082.036.083.036.085.035.086.035.088.035.089.034.091.035.093.034.094.034.096.033.097.034.099.033.101.033.101.032.104.032.104.032.106.031.108.032.107.03.223.061.227.059.232.057.237.056.242.055.247.052.252.051.256.05.261.047.265.046.269.043.273.042.277.04.281.038.285.036.288.033.292.032.295.03.299.027.302.025.305.023.307.021.311.018.313.016.316.014.319.011.321.009.323.006.325.004.328.001.328-.001.325-.004.323-.006.321-.009.319-.011.316-.014.313-.016.311-.018.307-.021.305-.023.302-.025.299-.027.295-.03.292-.032.288-.033.285-.036.281-.038.277-.04.273-.042.269-.043.265-.046.261-.047.256-.05.252-.051.247-.052.242-.055.237-.056.232-.057.227-.059.223-.061.107-.03.108-.032.106-.031.104-.032.104-.032.101-.032.101-.033.099-.033.097-.034.096-.033.094-.034.093-.034.091-.035.089-.034.088-.035.087-.035.084-.035.083-.036.082-.036.079-.035.078-.036.076-.036.075-.036.072-.037.071-.036.069-.036.067-.037.065-.036.064-.037.061-.036.06-.036.057-.036.056-.037.053-.035.052-.036.05-.035.047-.036.046-.035.043-.034.041-.034.04-.034.037-.033.035-.032.033-.032.031-.032.029-.03.027-.03.024-.029.023-.028.021-.027.019-.026.017-.024.015-.024.014-.023.012-.021.01-.02.01-.019.007-.018.007-.017.005-.015.005-.014.003-.014.003-.012.002-.012.002-.011.001-.011.001-.01v-.011-.011l-.001-.01-.001-.011-.002-.011-.002-.012-.003-.012-.003-.014-.005-.014-.005-.015-.007-.017-.007-.018-.01-.019-.01-.02-.012-.021-.014-.023-.015-.024-.017-.024-.019-.026-.021-.027-.023-.028-.024-.029-.027-.03-.029-.03-.031-.032-.033-.032-.035-.032-.037-.033-.04-.034-.041-.034-.043-.034-.046-.035-.047-.036-.05-.035-.052-.036-.053-.036-.056-.036-.057-.036-.06-.036-.061-.036-.064-.037-.065-.036-.067-.037-.069-.036-.071-.036-.072-.037-.075-.036-.076-.036-.078-.036-.079-.035-.082-.036-.083-.036-.084-.035-.087-.035-.088-.035-.089-.034-.091-.035-.093-.034-.094-.034-.096-.033-.098-.034-.098-.033-.101-.033-.101-.032-.104-.032-.104-.032-.106-.031-.108-.032-.107-.03-.223-.061-.227-.059-.232-.057-.237-.056-.242-.055-.247-.052-.252-.051-.256-.05-.261-.047-.265-.046-.269-.043-.273-.042-.277-.04-.281-.038-.285-.036-.288-.033-.292-.032-.295-.03-.299-.027-.302-.025-.305-.023-.307-.021-.311-.018-.313-.016-.316-.014-.319-.011-.321-.009-.323-.006-.325-.004-.328-.001z" fill="#fff"/><path d="m23.296 5.523c1.461 1.648 2.574 3.784 3.183 6.206-1.067 2.336-6.211 5.104-10.479 5.104s-9.525-2.655-10.479-5.104c.501-1.991 1.342-3.789 2.437-5.282.542-.246 3.042-1.447 3.042-1.447h10s1.787.373 2.296.523z" fill="#f6e8cc"/><path d="m26.479 11.729c.338 1.347.521 2.782.521 4.271l-8.25 1.5h-5.5l-8.25-1.5c0-1.489.183-2.924.521-4.271 2.414 1.887 6.211 3.104 10.479 3.104s8.065-1.217 10.479-3.104z" fill="#dec38c"/><path d="m7.958 6.447c2.008-2.736 4.868-4.447 8.042-4.447 2.799 0 5.355 1.331 7.296 3.523-.36.307-.819.477-1.296.477h-1v1c0 .53-.211 1.039-.586 1.414s-.884.586-1.414.586c-.168 0-.336 0-.5 0-.398 0-.779-.158-1.061-.439-.281-.282-.439-.663-.439-1.061 0-.17 0-.339 0-.5 0-.552-.448-1-1-1-.265 0-.52.105-.707.293-.188.187-.293.442-.293.707v3.502c0 .397-.158.778-.439 1.059s-.662.439-1.059.439c-.001 0-.001 0-.002 0-.398 0-.779-.158-1.061-.439-.281-.282-.439-.663-.439-1.061v-2.5s-.987.015-2 0c-1.652-.025-1.999-.928-2.042-1.553z" fill="#4e4229"/><path d="m2 14h28v9.624h-28z" fill="none"/><g clip-path="url(#b)"><path d="m16.335 10.001.334.004.331.007.328.009.327.011.324.014.321.017.319.018.315.022.313.023.31.026.307.028.304.03.3.033.297.035.293.037.29.039.286.041.282.043.278.045.275.047.27.049.266.052.261.053.257.054.253.057.248.059.243.06.239.062.233.064.115.032.113.033.113.033.111.034.109.034.109.035.107.035.105.035.104.036.103.036.102.036.1.037.099.037.097.038.096.038.094.038.093.039.091.039.09.039.089.04.086.04.086.041.084.04.082.042.081.041.079.042.077.042.076.042.074.043.073.043.071.043.069.043.068.044.066.044.064.045.063.045.061.045.059.045.057.045.056.046.053.046.052.047.051.046.048.047.047.047.044.047.043.048.041.048.04.048.037.048.035.049.034.048.031.049.03.049.027.05.026.049.024.05.021.05.02.05.018.05.015.051.014.05.012.051.009.051.007.051.006.052.003.051.001.052-.001.052-.003.051-.006.052-.007.051-.009.051-.012.051-.014.05-.015.051-.018.05-.02.05-.021.05-.024.05-.026.049-.027.05-.03.049-.031.049-.034.048-.035.049-.037.048-.04.048-.041.048-.043.048-.044.047-.047.047-.048.047-.051.046-.052.047-.053.046-.056.046-.057.045-.059.045-.061.045-.063.045-.064.045-.066.044-.068.044-.069.043-.071.043-.073.043-.074.043-.076.042-.077.042-.079.042-.081.041-.082.042-.084.04-.086.041-.086.04-.089.04-.09.039-.091.039-.093.039-.094.038-.096.038-.097.038-.099.037-.1.037-.102.036-.103.036-.104.036-.105.035-.107.035-.109.035-.109.034-.111.034-.113.033-.113.033-.115.032-.233.064-.239.062-.243.06-.248.059-.253.057-.257.054-.261.053-.266.052-.27.049-.275.047-.278.045-.282.043-.286.041-.29.039-.293.037-.297.035-.3.033-.304.03-.307.028-.31.026-.313.023-.315.022-.319.018-.321.017-.324.014-.327.011-.328.009-.331.007-.334.004-.335.001-.335-.001-.334-.004-.331-.007-.328-.009-.327-.011-.324-.014-.321-.017-.319-.018-.315-.022-.313-.023-.31-.026-.307-.028-.304-.03-.3-.033-.297-.035-.293-.037-.29-.039-.286-.041-.282-.043-.278-.045-.275-.047-.27-.049-.266-.052-.261-.053-.257-.054-.253-.057-.248-.059-.243-.06-.239-.062-.233-.064-.115-.032-.113-.033-.113-.033-.111-.034-.109-.034-.109-.035-.107-.035-.105-.035-.104-.036-.103-.036-.102-.036-.1-.037-.099-.037-.097-.038-.096-.038-.094-.038-.093-.039-.091-.039-.09-.039-.089-.04-.086-.04-.086-.041-.084-.04-.082-.042-.081-.041-.079-.042-.077-.042-.076-.042-.074-.043-.073-.043-.071-.043-.069-.043-.068-.044-.066-.044-.064-.045-.063-.045-.061-.045-.059-.045-.057-.045-.056-.046-.053-.046-.052-.047-.051-.046-.048-.047-.047-.047-.044-.047-.043-.048-.041-.048-.04-.048-.037-.048-.035-.049-.034-.048-.031-.049-.03-.049-.027-.05-.026-.049-.024-.05-.021-.05-.02-.05-.018-.05-.015-.051-.014-.05-.012-.051-.009-.051-.007-.051-.006-.052-.003-.051-.001-.052.001-.052.003-.051.006-.052.007-.051.009-.051.012-.051.014-.05.015-.051.018-.05.02-.05.021-.05.024-.05.026-.049.027-.05.03-.049.031-.049.034-.048.035-.049.037-.048.04-.048.041-.048.043-.048.044-.047.047-.047.048-.047.051-.046.052-.047.053-.046.056-.046.057-.045.059-.045.061-.045.063-.045.064-.045.066-.044.068-.044.069-.043.071-.043.073-.043.074-.043.076-.042.077-.042.079-.042.081-.041.082-.042.084-.04.086-.041.086-.04.089-.04.09-.039.091-.039.093-.039.094-.038.096-.038.097-.038.099-.037.1-.037.102-.036.103-.036.104-.036.105-.035.107-.035.109-.035.109-.034.111-.034.113-.033.113-.033.115-.032.233-.064.239-.062.243-.06.248-.059.253-.057.257-.054.261-.053.266-.052.27-.049.275-.047.278-.045.282-.043.286-.041.29-.039.293-.037.297-.035.3-.033.304-.03.307-.028.31-.026.313-.023.315-.022.319-.018.321-.017.324-.014.327-.011.328-.009.331-.007.334-.004.335-.001zm-.663 1-.325.004-.323.006-.321.009-.319.011-.316.014-.313.016-.311.018-.307.021-.305.023-.302.025-.299.027-.295.03-.292.032-.288.033-.285.036-.281.038-.277.04-.273.042-.269.043-.265.046-.261.047-.256.05-.252.051-.247.052-.242.055-.237.056-.232.057-.227.059-.223.061-.107.03-.108.032-.106.031-.104.032-.104.032-.101.032-.101.033-.099.033-.097.034-.096.033-.094.034-.093.034-.091.035-.089.034-.088.035-.086.035-.085.035-.083.036-.082.036-.079.035-.078.036-.076.036-.075.036-.072.037-.071.036-.069.036-.067.037-.065.036-.064.037-.061.036-.06.036-.057.036-.056.036-.053.036-.052.036-.05.035-.047.036-.046.034-.043.035-.041.034-.04.034-.037.033-.035.032-.033.032-.031.032-.029.03-.027.03-.024.029-.023.028-.021.027-.019.026-.017.024-.015.024-.014.023-.012.021-.01.02-.01.019-.007.018-.007.017-.005.015-.005.014-.003.014-.003.012-.002.012-.002.011-.001.011-.001.011v.01l.001.021.001.011.002.011.002.012.003.012.003.014.005.014.005.015.007.017.007.018.01.019.01.02.012.021.014.023.015.024.017.024.019.026.021.027.023.028.024.029.027.03.029.03.031.032.033.032.035.032.037.033.04.034.041.034.043.034.046.035.047.036.05.035.052.036.053.035.056.037.057.036.06.036.061.036.064.037.065.036.067.037.069.036.071.036.072.037.075.036.076.036.078.036.079.035.082.036.083.036.085.035.086.035.088.035.089.034.091.035.093.034.094.034.096.033.097.034.099.033.101.033.101.032.104.032.104.032.106.031.108.032.107.03.223.061.227.059.232.057.237.056.242.055.247.052.252.051.256.05.261.047.265.046.269.043.273.042.277.04.281.038.285.036.288.033.292.032.295.03.299.027.302.025.305.023.307.021.311.018.313.016.316.014.319.011.321.009.323.006.325.004.328.001.328-.001.325-.004.323-.006.321-.009.319-.011.316-.014.313-.016.311-.018.307-.021.305-.023.302-.025.299-.027.295-.03.292-.032.288-.033.285-.036.281-.038.277-.04.273-.042.269-.043.265-.046.261-.047.256-.05.252-.051.247-.052.242-.055.237-.056.232-.057.227-.059.223-.061.107-.03.108-.032.106-.031.104-.032.104-.032.101-.032.101-.033.099-.033.097-.034.096-.033.094-.034.093-.034.091-.035.089-.034.088-.035.087-.035.084-.035.083-.036.082-.036.079-.035.078-.036.076-.036.075-.036.072-.037.071-.036.069-.036.067-.037.065-.036.064-.037.061-.036.06-.036.057-.036.056-.037.053-.035.052-.036.05-.035.047-.036.046-.035.043-.034.041-.034.04-.034.037-.033.035-.032.033-.032.031-.032.029-.03.027-.03.024-.029.023-.028.021-.027.019-.026.017-.024.015-.024.014-.023.012-.021.01-.02.01-.019.007-.018.007-.017.005-.015.005-.014.003-.014.003-.012.002-.012.002-.011.001-.011.001-.01v-.011-.011l-.001-.01-.001-.011-.002-.011-.002-.012-.003-.012-.003-.014-.005-.014-.005-.015-.007-.017-.007-.018-.01-.019-.01-.02-.012-.021-.014-.023-.015-.024-.017-.024-.019-.026-.021-.027-.023-.028-.024-.029-.027-.03-.029-.03-.031-.032-.033-.032-.035-.032-.037-.033-.04-.034-.041-.034-.043-.034-.046-.035-.047-.036-.05-.035-.052-.036-.053-.036-.056-.036-.057-.036-.06-.036-.061-.036-.064-.037-.065-.036-.067-.037-.069-.036-.071-.036-.072-.037-.075-.036-.076-.036-.078-.036-.079-.035-.082-.036-.083-.036-.084-.035-.087-.035-.088-.035-.089-.034-.091-.035-.093-.034-.094-.034-.096-.033-.098-.034-.098-.033-.101-.033-.101-.032-.104-.032-.104-.032-.106-.031-.108-.032-.107-.03-.223-.061-.227-.059-.232-.057-.237-.056-.242-.055-.247-.052-.252-.051-.256-.05-.261-.047-.265-.046-.269-.043-.273-.042-.277-.04-.281-.038-.285-.036-.288-.033-.292-.032-.295-.03-.299-.027-.302-.025-.305-.023-.307-.021-.311-.018-.313-.016-.316-.014-.319-.011-.321-.009-.323-.006-.325-.004-.328-.001z" fill="#fff"/></g></g></svg>