<svg clip-rule="evenodd" fill-rule="evenodd" stroke-linejoin="round" stroke-miterlimit="2" viewBox="0 0 32 32" xmlns="http://www.w3.org/2000/svg" xmlns:xlink="http://www.w3.org/1999/xlink"><clipPath id="a"><path clip-rule="evenodd" d="m0 0h32v32h-32z"/></clipPath><metadata/><path d="m0 0h32v32h-32z" fill="none"/><g clip-path="url(#a)"><path d="m1.802 13.149c-1.169-1.908-1.802-4.117-1.802-6.391v-4.758c0-.809.487-1.538 1.235-1.848.747-.309 1.607-.138 2.179.434 0 0 .941.94 1.768 1.768.664.664 1.431 1.216 2.271 1.636l1.514.757c2.097-1.115 4.49-1.747 7.031-1.747h.002c2.541 0 4.935.632 7.032 1.748l1.515-.758c.84-.42 1.607-.972 2.271-1.636.827-.828 1.768-1.768 1.768-1.768.572-.572 1.432-.743 2.179-.434.748.31 1.235 1.039 1.235 1.848v4.758c0 2.274-.633 4.483-1.802 6.392.52 1.521.802 3.153.802 4.85v1.502c0 3.315-1.317 6.494-3.661 8.837-2.343 2.344-5.522 3.661-8.837 3.661-1.649 0-3.355 0-5.004 0-3.315 0-6.494-1.317-8.837-3.661-2.344-2.343-3.661-5.522-3.661-8.837v-1.504c0-1.697.282-3.328.802-4.849z"/><path d="m23 7s1.319-.659 2.442-1.221c1.032-.516 1.974-1.195 2.79-2.011.828-.828 1.768-1.768 1.768-1.768v4.758c0 2.716-1.079 5.321-3 7.242z" fill="#530f8a"/><path d="m9 7s-1.319-.659-2.442-1.221c-1.032-.516-1.974-1.195-2.79-2.011-.828-.828-1.768-1.768-1.768-1.768v4.758c0 2.716 1.079 5.321 3 7.242z" fill="#530f8a"/><path d="m29 18c0-7.18-5.82-13-13-13h-.002c-7.179 0-12.998 5.819-12.998 12.998v1.504c0 2.784 1.106 5.454 3.075 7.423s4.639 3.075 7.423 3.075h5.004c2.784 0 5.454-1.106 7.423-3.075s3.075-4.639 3.075-7.423c0-.497 0-.999 0-1.502z" fill="#a253e2"/><path d="m23.895 9.947c.027.025.054.051.08.078.656.656 1.025 1.545 1.025 2.473v3.002c0 1.933-1.567 3.5-3.5 3.5h-.023c-1.922-.012-3.477-1.575-3.477-3.5v-.5z"/><path d="m22.941 12.082c.039.134.059.274.059.416v3.004c0 .397-.158.778-.439 1.059s-.662.439-1.059.439c-.001 0-.003 0-.004 0-.397 0-.778-.158-1.059-.439s-.439-.662-.439-1.059v-.899z" fill="#f2c040"/><path d="m8.105 9.947c-.027.025-.054.051-.08.078-.656.656-1.025 1.545-1.025 2.473v3.002c0 1.933 1.567 3.5 3.5 3.5h.023c1.922-.012 3.477-1.575 3.477-3.5v-.5z"/><path d="m9.059 12.082c-.039.134-.059.274-.059.416v3.004c0 .397.158.778.439 1.059s.662.439 1.059.439h.004c.397 0 .778-.158 1.059-.439s.439-.662.439-1.059v-.899z" fill="#f2c040"/><path d="m18.939 22.147 2.169-2.169 3.692 4.922c.331.442.242 1.069-.2 1.4s-1.069.242-1.4-.2l-2.308-3.078-1.831 1.831-3.059-2.55-3.064 2.571-1.833-1.848-2.305 3.074c-.331.442-.958.531-1.4.2s-.531-.958-.2-1.4l3.695-4.926 2.167 2.185 2.936-2.462z" fill="#3f0c69"/></g></svg>