<svg clip-rule="evenodd" fill-rule="evenodd" stroke-linejoin="round" stroke-miterlimit="1.41421" viewBox="0 0 32 32" xmlns="http://www.w3.org/2000/svg"><metadata/><path d="m0 0h32v32h-32z" fill="none"/><path d="m8.963 15.084-.084-.084v-2l2.121-2.121 3.5 3.5v-12.379h3v12.379l3.5-3.5 2.121 2.121v2l-.084.084 3.963 8.916v6h-22v-6z" fill="none" stroke="#000" stroke-width="4"/><path d="m6 24 4.5-9h11l4.5 9v4h-20z" fill="#0f0f0f"/><path d="m5.4 25-.4-1 4-9h14l4 9-.4 1-1.6-.576-3.3-7.424h-11.4l-3.3 7.424z" fill="#4c4c4c" fill-rule="nonzero"/><path d="m27 30h-22v-6h7c0 2.209 1.791 4 4 4 2.209 0 4-1.791 4-4h7z" fill="#868686"/><g fill-rule="nonzero"><path d="m14.5 16.379h3l3.5-3.5 2.121.121v2l-7.121 7.121-7.121-7.121v-2l2.121-.121z" fill="#747474"/><path d="m17.5 14.379 3.5-3.5 2.121 2.121-7.121 7.121-7.121-7.121 2.121-2.121 3.5 3.5v-12.379h3z" fill="#fff"/></g></svg>