<svg clip-rule="evenodd" fill-rule="evenodd" stroke-linejoin="round" stroke-miterlimit="2" viewBox="0 0 32 32" xmlns="http://www.w3.org/2000/svg" xmlns:xlink="http://www.w3.org/1999/xlink"><clipPath id="a"><path clip-rule="evenodd" d="m0 0h32v32h-32z"/></clipPath><metadata/><path d="m0 0h32v32h-32z" fill="none"/><g clip-path="url(#a)"><path d="m30 0c.53 0 1.039.211 1.414.586s.586.884.586 1.414v28c0 .53-.211 1.039-.586 1.414s-.884.586-1.414.586h-28c-.53 0-1.039-.211-1.414-.586s-.586-.884-.586-1.414v-28c0-.53.211-1.039.586-1.414s.884-.586 1.414-.586h28z" fill-rule="nonzero"/><path d="m2 2h28v28h-28z" fill="#fff"/><g fill="#e6e6e6"><path d="m8 4h1v24h-1z"/><path d="m12 4h1v24h-1z"/><path d="m16 4h1v24h-1z"/><path d="m20 4h1v24h-1z"/><path d="m24 4h1v24h-1z"/><path d="m28 8v-1h-24v1z"/><path d="m28 12v-1h-24v1z"/><path d="m28 16v-1h-24v1z"/><path d="m28 20v-1h-24v1z"/><path d="m28 24v-1h-24v1z"/></g><path d="m4 4h1v24h-1z" fill="#b3b3b3"/><path d="m28 28v-1h-24v1z" fill="#b3b3b3"/><path d="m29 10.414-5.707 5.707-3-3-12 12-3.707-3.707 1.414-1.414 2.293 2.293 12-12 3 3 4.293-4.293z" fill="#e82731" fill-rule="nonzero"/></g></svg>