<svg clip-rule="evenodd" fill-rule="evenodd" stroke-linejoin="round" stroke-miterlimit="2" viewBox="0 0 32 32" xmlns="http://www.w3.org/2000/svg" xmlns:xlink="http://www.w3.org/1999/xlink"><clipPath id="a"><path clip-rule="evenodd" d="m0 0h32v32h-32z"/></clipPath><metadata/><path d="m0 0h32v32h-32z" fill="none"/><g clip-path="url(#a)"><path d="m15.017 9.426c.086-2.104.53-4.179 1.314-6.138.43-1.075.812-2.031.812-2.031.25-.624.796-1.081 1.455-1.216.658-.135 1.341.069 1.816.545 2.937 2.936 4.586 6.918 4.586 11.07v2.344h.002c1.326 0 2.597.527 3.534 1.464s1.464 2.208 1.464 3.534v1.002c0 6.627-5.373 12-12 12h-4c-3.448 0-6.754-1.37-9.192-3.808s-3.808-5.744-3.808-9.192v-4.002c0-2.76 2.238-4.998 4.998-4.998h.004c1.125 0 2.163.372 2.998.999.141-.188.296-.367.464-.535.937-.937 2.208-1.464 3.534-1.464h.004c.701 0 1.386.147 2.015.426z"/><path d="m17 16v-3l3-1 3 1v1l-1 1v2h1l2-1h.019c1.648.01 2.981 1.35 2.981 3v1c0 5.523-4.477 10-10 10h-4c-2.917 0-5.715-1.159-7.778-3.222s-3.222-4.861-3.222-7.778c0-1.751 0-3 0-3z" fill="#b8d419"/><path d="m15.909 16c-.128 1.229-.39 2.442-.781 3.617-.539 1.616-1.128 3.383-1.128 3.383s-.189-.189-.485-.485c-1.781-1.781-2.944-4.063-3.352-6.515h-.163s0-.938 0-2.002c0-1.656 1.342-2.998 2.998-2.998h.002c1.657 0 3 1.343 3 3v2zm-6.923 0c-.036.89-.141 1.776-.316 2.651-.291 1.456-.67 3.349-.67 3.349s-.697-.418-1.57-.942c-1.839-1.103-3.061-2.97-3.359-5.058h-.071v-1.002c0-.795.316-1.558.878-2.12s1.325-.878 2.12-.878h.004c.795 0 1.558.316 2.12.878s.878 1.325.878 2.12v1.002zm14.014-3h-6v-2.802c0-2.113.403-4.206 1.188-6.167.43-1.076.812-2.031.812-2.031 2.561 2.561 4 6.035 4 9.657z" fill="#72820a"/><path d="m22 25c-.108 0-.218-.009-.329-.027 0 0-.683-.114-1.589-.265-3.389-.565-6.305-2.711-7.853-5.777l-.018-.037c-.25-.5-.279-1.082-.08-1.605.198-.523.607-.938 1.126-1.146 0 0 .956-.382 2.031-.812 2.198-.879 4.543-1.331 6.91-1.331h.802v2l-1 7z" fill="#48621b"/><path d="m14 18c1.257 2.513 3.64 4.273 6.411 4.735.906.151 1.589.265 1.589.265l3-7h-2.802c-2.113 0-4.206.403-6.167 1.188-1.076.43-2.031.812-2.031.812z" fill="#72820a"/></g></svg>