<svg clip-rule="evenodd" fill-rule="evenodd" stroke-linejoin="round" stroke-miterlimit="2" viewBox="0 0 32 32" xmlns="http://www.w3.org/2000/svg" xmlns:xlink="http://www.w3.org/1999/xlink"><clipPath id="a"><path clip-rule="evenodd" d="m0 0h32v32h-32z"/></clipPath><clipPath id="b"><path clip-rule="evenodd" d="m22.894 18.447c.678.339 1.106 1.032 1.106 1.789v2.471c0 1.934-.768 3.789-2.136 5.157s-3.223 2.136-5.157 2.136c-.226 0-.454 0-.682 0-4.984 0-9.025-4.041-9.025-9.025v-7.475h1.5v-1.5h12v.499h1.5v5.501s.432.216.894.447z"/></clipPath><metadata/><path d="m0 0h32v32h-32z" fill="none"/><g clip-path="url(#a)"><path d="m16.968 9.033c.001-1.873.01-3.747.033-5.62.014-.374.078-.741.204-1.093.34-.951 1.093-1.722 2.035-2.086.376-.145.771-.218 1.173-.233.087-.001.087-.001.174 0 .402.015.797.088 1.173.233.536.207 1.017.547 1.392.982.298.346.527.751.671 1.185.116.351.172.717.177 1.087v13.284c.077.044.076.045.156.095l.117.077c.188.135.368.278.533.441.489.482.85 1.088 1.039 1.748.091.315.136.635.153.962.016.909.007 1.818.001 2.727-.005.307-.022.613-.056.918-.076.678-.227 1.348-.45 1.994-.271.787-.648 1.537-1.118 2.223-.411.6-.892 1.151-1.431 1.639-1.324 1.199-2.989 1.999-4.752 2.285-.377.061-.757.098-1.139.113-.344.012-.691.006-1.035.006-1.107-.001-2.213-.167-3.271-.496-1.15-.358-2.24-.907-3.213-1.617-1.757-1.281-3.117-3.079-3.864-5.121-.283-.771-.478-1.574-.582-2.389-.053-.418-.079-.838-.087-1.26l-.001-.117v-.029c-.003-.567-.004-1.134-.004-1.701-.007-1.952-.019-3.904.005-5.857.014-.374.078-.741.204-1.094.154-.43.393-.829.7-1.168.405-.447.924-.785 1.496-.974.383-.127.782-.181 1.186-.176.423.016.837.097 1.229.256.378-.452.868-.808 1.424-1.022.376-.146.771-.219 1.173-.234.087-.001.087-.001.174 0 .402.015.797.088 1.173.234.262.101.51.233.74.393.276-.192.58-.345.901-.451.383-.127.782-.181 1.186-.176.128.005.255.015.381.032z"/><path d="m22.894 18.447c.678.339 1.106 1.032 1.106 1.789v2.471c0 1.934-.768 3.789-2.136 5.157s-3.223 2.136-5.157 2.136c-.226 0-.454 0-.682 0-4.984 0-9.025-4.041-9.025-9.025v-7.475h1.5v-1.5h12v.499h1.5v5.501s.432.216.894.447z" fill="#925adb"/><g clip-path="url(#b)"><path d="m15.546 20.001c.133.009.262.038.383.096.354.168.581.538.571.929-.004.134-.036.262-.089.385-.651 1.371-1.33 2.728-2.035 4.071-.08.139-.186.259-.319.349-.302.202-.7.223-1.022.054-.094-.049-.18-.113-.254-.189-.083-.086-.15-.187-.198-.296-.053-.122-.081-.254-.083-.386-.002-.148.031-.29.089-.425.651-1.371 1.33-2.728 2.035-4.071.121-.21.303-.373.532-.457.075-.027.152-.044.231-.055.053-.005.106-.006.159-.005z" fill="#7b24cc" fill-rule="nonzero"/><path d="m8.5 13.5v-2.5h12v1.5h2.5v5.499l-8 .001v.506c-.004.327-.065.648-.19.951-.086.207-.2.403-.338.58-.483.619-1.248.982-2.034.962-.286-.007-.571-.063-.838-.167-.286-.11-.551-.273-.778-.479-.243-.22-.442-.488-.582-.785-.031-.064-.058-.13-.083-.196-.501.442-1.173.671-1.843.621-.224-.017-.446-.064-.657-.139-.288-.104-.557-.26-.789-.46-.248-.214-.454-.478-.602-.771-.099-.198-.17-.408-.214-.623h-.052v-.496c-.016-1.334-.016-2.669 0-4.004z" fill="#400b71"/></g><path d="m11 12.5c0-.398.158-.779.439-1.061.282-.281.663-.439 1.061-.439s.779.158 1.061.439c.281.282.439.663.439 1.061v6c0 .398-.158.779-.439 1.061-.282.281-.663.439-1.061.439s-.779-.158-1.061-.439c-.281-.282-.439-.663-.439-1.061 0-1.665 0-4.335 0-6zm-4 1c0-.398.158-.779.439-1.061.282-.281.663-.439 1.061-.439s.779.158 1.061.439c.281.282.439.663.439 1.061v4c0 .398-.158.779-.439 1.061-.282.281-.663.439-1.061.439s-.779-.158-1.061-.439c-.281-.282-.439-.663-.439-1.061 0-1.181 0-2.819 0-4zm15-10c0-.828-.672-1.5-1.5-1.5s-1.5.672-1.5 1.5v12.5h3zm-4 12.499h-3v-3.5c0-.397.158-.779.439-1.06.282-.282.663-.44 1.061-.44s.779.158 1.061.44c.281.281.439.663.439 1.06z" fill="#925adb"/><path d="m22 18h-6.874c.02.08.044.158.069.237.127.384.308.748.542 1.078.505.71 1.241 1.247 2.073 1.505.369.115.752.172 1.138.18l.469.003 2.29 2.29-1.414 1.414-1.722-1.722c-.112-.008-.223-.02-.334-.033-.735-.098-1.445-.322-2.098-.677-1.319-.717-2.342-1.928-2.824-3.351-.209-.619-.311-1.268-.315-1.921v-1.003h9z" fill="#400b71" fill-rule="nonzero"/></g></svg>