<svg clip-rule="evenodd" fill-rule="evenodd" stroke-linejoin="round" stroke-miterlimit="2" viewBox="0 0 32 32" xmlns="http://www.w3.org/2000/svg" xmlns:xlink="http://www.w3.org/1999/xlink"><clipPath id="a"><path clip-rule="evenodd" d="m0 0h32v32h-32z"/></clipPath><metadata/><path d="m0 0h32v32h-32z" fill="none"/><g clip-path="url(#a)"><path d="m17 30h.045c4.656 0 8.697-3.214 9.744-7.751.125-.542.247-1.072.363-1.574.206-.891-.006-1.827-.575-2.543-.57-.715-1.434-1.132-2.348-1.132-.145 0-.229 0-.229 0l-9 11z"/><path d="m24 4.5c0-.663-.263-1.299-.732-1.768s-1.105-.732-1.768-.732-1.299.263-1.768.732-.732 1.105-.732 1.768v15.5h5z"/><path d="m17 7.528v-3.028c0-2.484 2.016-4.5 4.5-4.5s4.5 2.016 4.5 4.5v10.824c.832.315 1.575.85 2.142 1.563.948 1.193 1.301 2.753.959 4.237-.116.502-.238 1.032-.363 1.574-1.257 5.445-6.105 9.302-11.693 9.302h-.873l-.004-.003h-.196c-5.574.003-10.434-3.79-11.785-9.197-.609-2.433-1.178-4.709-1.178-4.709-.602-2.409.865-4.854 3.275-5.457.152-.038.305-.068.458-.09.479-1.394 1.631-2.526 3.167-2.91.92-.23 1.846-.158 2.672.153.773-1.365 2.239-2.287 3.919-2.287.169 0 .336.009.5.028z"/><path d="m16 24-8.458-4c-.046.014-.093.027-.14.039-.455.114-.92.095-1.348-.039h-.054v-.018c-.181-.061-.355-.143-.519-.245l-.521-2.082 1.04-2.655 3-2h1.075l1.925-1 3-1 2-1h3l4 5v8z" fill="#5e0d79"/><path d="m24.229 17c.914 0 1.778.417 2.348 1.132.569.716.781 1.652.575 2.543-.116.502-.238 1.032-.363 1.574-1.047 4.537-5.088 7.751-9.744 7.751h-.045l-.001-.004h-1.034c-4.653 0-8.709-3.166-9.838-7.679l-.646-2.58c.562.351 1.254.469 1.921.302.92-.231 1.618-.894 1.931-1.719.668.584 1.6.844 2.527.617 0-.001.001-.001.002-.001.099-.024.196-.054.29-.088 0 0 2.62.447 4.335.523.919 2.134 3.041 3.629 5.513 3.629h1v-2h-1c-2.209 0-4-1.791-4-4zm-19.269.655-.011-.044c-.335-1.339.48-2.697 1.818-3.032.375-.094.751-.098 1.106-.025l.582 2.329c.004.014.008.029.012.043.221.95-.359 1.905-1.308 2.143h-.001c-.58.146-1.191-.071-1.55-.55zm3.635-4.338c.238-.832.9-1.518 1.799-1.742 1.004-.252 2.02.145 2.606.924v3.712c-.003.266-.058.528-.172.769-.105.223-.256.424-.441.587-.169.149-.366.265-.578.342-.196.071-.404.108-.612.109-.651.003-1.27-.356-1.59-.923-.078-.137-.139-.286-.177-.439zm7.41 3.939c-.268.022-.541-.015-.794-.109-.481-.177-.874-.555-1.07-1.029-.093-.225-.139-.466-.141-.71v-3.413c.001-.291.051-.581.152-.854.185-.506.536-.945.988-1.239.204-.132.427-.235.661-.303.263-.076.538-.109.812-.097.285.013.567.075.832.183.197.081.384.187.555.316v4.999h-2v2c0 .086.002.171.005.256zm2.995-12.756c.004-.332.065-.661.194-.967.272-.646.822-1.163 1.484-1.395.27-.094.557-.14.844-.138.284.003.568.054.835.151.294.108.568.271.803.48.251.223.456.497.6.8.158.335.235.7.24 1.069v10.5h-5z" fill="#d445d9"/><g fill="#7d15a0"><path d="m23 23v1.158c0 .923-.426 1.796-1.154 2.364-.728.569-1.677.77-2.574.546-.917-.229-1.782-.445-2.294-.574-.318-.079-.643-.119-.97-.119h-.016c-.327 0-.652.04-.97.119-.512.129-1.377.345-2.294.574-.897.224-1.846.023-2.574-.546-.728-.568-1.154-1.441-1.154-2.364 0-.172 0-.34 0-.501 0-1.061.421-2.078 1.172-2.829l1.98-1.98c.728-.264 1.303-.813 1.608-1.501.058.063.119.123.183.181.596.537 1.39.799 2.187.721.575 2.714 2.985 4.751 5.87 4.751z"/><ellipse cx="21.5" cy="6.5" rx="2" ry="3"/></g></g></svg>