<svg clip-rule="evenodd" fill-rule="evenodd" stroke-linejoin="round" stroke-miterlimit="2" viewBox="0 0 32 32" xmlns="http://www.w3.org/2000/svg" xmlns:xlink="http://www.w3.org/1999/xlink"><clipPath id="a"><path clip-rule="evenodd" d="m0 0h32v32h-32z"/></clipPath><metadata/><path d="m0 0h32v32h-32z" fill="none"/><g clip-path="url(#a)"><path d="m24 0v14 2.772c.077.044.076.045.156.095l.117.077c.188.135.368.278.533.441.489.482.85 1.088 1.039 1.748.091.315.136.635.153.962.016.909.007 1.818.001 2.728-.005.306-.022.612-.056.916-.076.679-.227 1.349-.45 1.995-.271.787-.648 1.536-1.118 2.223-.411.6-.892 1.151-1.431 1.639-1.324 1.199-2.989 1.999-4.752 2.285-.377.061-.757.098-1.139.113-.085.003-.17.005-.254.006h-.781c-1.108-.001-2.213-.167-3.271-.496-1.15-.358-2.24-.907-3.213-1.617-1.757-1.281-3.117-3.079-3.864-5.121-.283-.771-.478-1.574-.582-2.389-.053-.418-.079-.838-.087-1.26l-.001-.117v-.029c-.003-.588-.004-1.176-.004-1.764-.007-2.265-.023-4.53.005-6.794.015-.402.088-.797.234-1.173.363-.942 1.134-1.695 2.085-2.035.352-.126.72-.19 1.093-.204.087-.001.087-.001.174 0 .402.015.797.088 1.173.234.019.007.038.014.056.022.378-.452.868-.808 1.424-1.022.376-.146.771-.219 1.173-.234.087-.001.087-.001.174 0 .402.015.797.088 1.173.234.262.101.511.233.741.394.228-.16.476-.293.739-.394.376-.146.771-.219 1.173-.234.087-.001.087-.001.174 0 .133.005.265.016.396.034.003-.768.009-1.537.018-2.306.011-.296.047-.588.119-.876.128-.505.354-.985.665-1.404.115-.156.243-.302.378-.44l3.009-3.009h2.828z"/><path d="m18.949 11.001c.032.163 3.048 4.834 3.051 4.999v2l-1 1.5 1 3v2.499h-5l-7.5-1.499s-2.467-5.06-2.5-5.098v-4.902c1.785 0 1.5-.715 1.5-2.5z" fill="#7b3c12"/><path d="m16.707 30h-.682c-4.984 0-9.025-4.041-9.025-9.025v-2.573c.033.038.068.075.102.113.627.642 1.262 1.276 1.898 1.908.51.507 1.491 1.48 2 1.989v-2.995c.918.937 1.852 1.858 2.782 2.782l.218.801 1 .797.933-1.427c.814.388 1.715.608 2.651.628l1.709 1.709 1.414-1.414-2.293-2.293h-.69c-1.84 0-3.495-1.12-4.178-2.829l-.069-.171h7.523l.894.447c.678.339 1.106 1.032 1.106 1.789v2.471c0 1.934-.768 3.789-2.136 5.157s-3.223 2.136-5.157 2.136zm-5.184-14 1.166 2.914c.31.776.759 1.467 1.311 2.051v.035s-1.541-1.541-2.414-2.414c-.375-.375-.586-.884-.586-1.414 0-1.339 0-3.995 0-5.672 0-.398.158-.779.439-1.061.282-.281.663-.439 1.061-.439s.779.158 1.061.439c.281.282.439.663.439 1.061v4.5zm-3.053-5c.845 0 1.53.685 1.53 1.53v7.47s-1.236-1.236-2.121-2.121c-.563-.563-.879-1.326-.879-2.122 0-.956 0-2.28 0-3.289 0-.389.155-.763.43-1.038s.649-.43 1.038-.43zm9.53 5h-3v-4.501c.001-.209.044-.416.129-.607.079-.18.195-.344.337-.479.133-.127.29-.229.46-.299.159-.066.328-.104.5-.113.484-.024.96.194 1.257.577.087.111.157.234.21.364.071.178.106.367.107.557zm1 0h3v-2l-.5-.5.5-.5v-4l-.5-.5.5-.5v-6s-1.541 1.541-2.414 2.414c-.375.375-.586.884-.586 1.414v2.172l.5.5-.5.5v4l.5.5-.5.5z" fill="#ef8e10"/><g fill="#cc600f"><path d="m19 8h3v1h-3z"/><path d="m19 13h3v1h-3z"/><path d="m13.782 22.199c.25.248.969.966 1.218 1.215v-1.586c.295.206.607.388.933.542l-1.539 3.077c-.064.127-.152.239-.263.329-.099.081-.215.142-.338.18-.119.036-.245.051-.369.041-.112-.008-.222-.036-.325-.081-.1-.044-.193-.104-.274-.178-.228-.208-.348-.519-.321-.826.011-.125.046-.247.102-.359z"/></g></g></svg>