<svg clip-rule="evenodd" fill-rule="evenodd" stroke-linejoin="round" stroke-miterlimit="1.41421" viewBox="0 0 32 32" xmlns="http://www.w3.org/2000/svg" xmlns:xlink="http://www.w3.org/1999/xlink"><clipPath id="a"><path clip-rule="evenodd" d="m0 0h32v32h-32z"/></clipPath><metadata/><path d="m0 0h32v32h-32z" fill="none"/><g clip-path="url(#a)"><path d="m32 6c0-.53-.211-1.039-.586-1.414s-.884-.586-1.414-.586c-5.746 0-22.254 0-28 0-.53 0-1.039.211-1.414.586s-.586.884-.586 1.414v20c0 .53.211 1.039.586 1.414s.884.586 1.414.586h28c.53 0 1.039-.211 1.414-.586s.586-.884.586-1.414c0-4.52 0-15.48 0-20z"/><path d="m2 6h28v20h-28z" fill="#dac100"/><path d="m16.097 8.501c.349.006.697.033 1.043.085.701.108 1.387.315 2.03.616 1.559.728 2.842 1.996 3.589 3.546.294.61.505 1.26.624 1.926.14.782.154 1.586.044 2.373-.107.764-.333 1.51-.668 2.205-.392.813-.932 1.553-1.585 2.176-.677.645-1.474 1.163-2.339 1.517-.898.367-1.865.555-2.835.555s-1.937-.188-2.835-.555c-.865-.354-1.662-.872-2.339-1.517-.653-.623-1.193-1.363-1.585-2.176-.335-.695-.561-1.441-.668-2.205-.11-.787-.096-1.591.044-2.373.13-.726.368-1.432.705-2.089.757-1.476 2.005-2.681 3.509-3.383.642-.301 1.328-.508 2.029-.616.346-.052.694-.079 1.043-.085.097-.001.097-.001.194 0zm-.155 2.999c-.637.013-1.264.15-1.841.42-.904.422-1.655 1.146-2.109 2.034-.184.359-.32.743-.4 1.138-.104.505-.12 1.028-.048 1.539.064.456.199.902.399 1.318.236.489.561.933.953 1.308.407.387.885.698 1.405.911.538.22 1.118.332 1.699.332s1.161-.112 1.699-.332c.52-.213.998-.524 1.405-.911.392-.375.717-.82.953-1.308.192-.399.324-.825.391-1.263.078-.509.068-1.032-.029-1.539-.083-.432-.23-.852-.436-1.242-.457-.865-1.197-1.571-2.084-1.985-.577-.27-1.204-.407-1.841-.42-.058 0-.058 0-.116 0z" fill="#730694" fill-rule="nonzero"/></g></svg>