<svg clip-rule="evenodd" fill-rule="evenodd" stroke-linejoin="round" stroke-miterlimit="1.41421" viewBox="0 0 32 32" xmlns="http://www.w3.org/2000/svg" xmlns:xlink="http://www.w3.org/1999/xlink"><clipPath id="a"><path clip-rule="evenodd" d="m0 0h32v32h-32z"/></clipPath><metadata/><path d="m0 0h32v32h-32z" fill="none"/><g clip-path="url(#a)"><path d="m27 10.93v7.242l2.01 2.009-.097.599-2.23 1.114 1.13 2.26-.522.846h-3.13l-3.145 5.503c-.099.166-.209.325-.337.471-.365.418-.846.73-1.377.894-.255.078-.516.117-.781.131-1.652.024-3.304.001-4.956.001-.195-.003-.389-.021-.582-.06-.543-.11-1.052-.373-1.456-.752-.214-.202-.393-.433-.543-.685l-3.145-5.503h-3.13l-.522-.846 1.13-2.26-2.23-1.114-.097-.599 2.01-2.009v-8.614l4.675-1.558h12.931c1.464.977 2.929 1.953 4.394 2.93z" fill-rule="nonzero"/><path d="m22 10 3 2v7l1 1-2 1-4 5h-8l-4-5-2-1 1-1v-8l3-1z" fill="#ae7c31"/><path d="m8 21h.172c.53 0 1.039.211 1.414.586.873.873 2.414 2.414 2.414 2.414h8l2.414-2.414c.375-.375.884-.586 1.414-.586h.172l1 2h-2s-2.795 4.891-3.712 6.496c-.178.312-.509.504-.868.504-1.147 0-3.693 0-4.84 0-.359 0-.69-.192-.868-.504l-3.712-6.496h-2z" fill="#d5b76b"/><path d="m15.414 23c-.265 0-.519.105-.707.293-.062.062-.13.13-.197.197-.305.305-.38.77-.188 1.155.13.258.277.554.402.802.169.339.515.553.894.553h.764c.379 0 .725-.214.894-.553.125-.248.272-.544.402-.802.192-.385.117-.85-.188-1.155-.067-.067-.135-.135-.197-.197-.188-.188-.442-.293-.707-.293-.343 0-.829 0-1.172 0z"/><path d="m20 10s0 0 0-.001c0-1.849 1.01-3.55 2.633-4.435 3.254-1.775 8.367-4.564 8.367-4.564v4.784c0 1.45-.394 2.873-1.14 4.116-.486.81-1.025 1.708-1.397 2.329-.305.508-.719.941-1.211 1.27-.889.592-2.252 1.501-2.252 1.501" fill="#ae7c31"/><path d="m12 10s0 0 0-.001c0-1.849-1.01-3.55-2.633-4.435-3.254-1.775-8.367-4.564-8.367-4.564v4.784c0 1.45.394 2.873 1.14 4.116.486.81 1.025 1.708 1.397 2.329.305.508.719.941 1.211 1.27.889.592 2.252 1.501 2.252 1.501" fill="#ae7c31"/><path d="m20.724 18.93-1.724.862v.001l.565.565.047.049.048.056.046.059.042.06.039.062.036.064.033.065.03.067.026.068.023.07.02.071.016.071.013.073.009.073.005.074.002.068v2.592h-1v-2.58l-.001-.031-.002-.024-.003-.025-.004-.024-.005-.024-.007-.023-.007-.023-.009-.023-.01-.022-.011-.022-.012-.021-.013-.021-.014-.02-.015-.019-.017-.019-.021-.023-.849-.849v-1.033l2.276-1.138z" fill="#583f19"/><path d="m14 19.191v1.016l-.849.849-.022.023-.016.019-.015.019-.014.02-.013.021-.012.021-.011.022-.01.022-.009.023-.007.023-.007.023-.005.024-.004.024-.003.025-.002.024-.001.031v2.597h-1v-2.609l.002-.068.005-.074.009-.073.013-.073.016-.071.02-.071.023-.07.026-.068.03-.067.032-.065.037-.064.039-.062.042-.06.046-.059.048-.056.047-.049.554-.554-1.713-.857.448-.894z" fill="#583f19"/><path d="m16.841 26.86.039.018.041.017.04.015.041.015.042.012.041.012.043.011.042.009.042.008.043.007.043.006.044.004.043.003.044.002.047.001h.985.02l.015-.001.015-.001.016-.002.015-.002.015-.003.015-.003.015-.003.016-.004.013-.005.015-.005.015-.005.013-.005.014-.007.015-.006.013-.007.013-.008.013-.007.012-.008.013-.009.013-.009.012-.009.011-.01.012-.01.012-.011.011-.011.01-.011.01-.011.01-.012.01-.012.009-.013.011-.016.701-1.051.023-.032.025-.03.028-.028.03-.025.032-.023.033-.021.035-.018.036-.015.038-.012.038-.009.039-.006.039-.004h.039l.039.003.039.007.038.009.038.012.036.015.035.017.033.021.032.023.03.025.028.028.025.03.023.032.021.033.018.035.015.036.012.038.009.038.006.039.004.039v.039l-.003.039-.007.039-.009.038-.012.038-.015.036-.017.035-.021.033-.705 1.058-.025.036-.027.037-.029.037-.03.035-.031.035-.032.034-.032.032-.034.031-.034.03-.036.03-.037.028-.036.027-.037.025-.039.025-.04.023-.039.023-.041.021-.041.019-.041.018-.043.018-.043.016-.043.014-.045.014-.044.011-.044.011-.045.009-.046.008-.047.007-.045.004-.046.004-.048.002-.042.001h-1l-.07-.001-.072-.003-.072-.005-.072-.008-.072-.009-.072-.012-.071-.013-.07-.016-.07-.017-.07-.02-.069-.022-.069-.024-.067-.025-.067-.028-.066-.029-.062-.03-.358-.179-.358.179-.062.03-.066.029-.067.028-.067.025-.069.024-.069.022-.07.02-.07.017-.07.016-.071.013-.072.012-.072.009-.072.008-.072.005-.072.003-.07.001h-1l-.042-.001-.048-.002-.046-.004-.045-.004-.047-.007-.046-.008-.045-.009-.044-.011-.044-.011-.045-.014-.043-.014-.043-.016-.043-.018-.041-.018-.041-.019-.041-.021-.039-.023-.04-.023-.039-.025-.037-.025-.036-.027-.037-.028-.036-.03-.034-.03-.034-.031-.032-.032-.032-.034-.031-.035-.03-.035-.029-.037-.027-.037-.025-.036-.705-1.058-.021-.033-.017-.035-.015-.036-.012-.038-.009-.038-.007-.039-.003-.039v-.039l.004-.039.006-.039.009-.038.012-.038.015-.036.018-.035.021-.033.023-.032.025-.03.028-.028.03-.025.032-.023.033-.021.035-.017.036-.015.038-.012.038-.009.039-.007.039-.003h.039l.039.004.039.006.038.009.038.012.036.015.035.018.033.021.032.023.03.025.028.028.025.03.023.032.701 1.051.011.016.009.013.01.012.01.012.01.011.01.011.011.011.012.011.012.01.011.01.012.009.013.009.013.009.012.008.013.007.013.008.013.007.015.006.014.007.013.005.015.005.015.005.013.005.016.004.015.003.015.003.015.003.015.002.016.002.015.001.015.001h.02.985l.047-.001.044-.002.043-.003.044-.004.043-.006.043-.007.042-.008.042-.009.043-.011.041-.012.042-.012.041-.015.04-.015.041-.017.039-.018.043-.02.798-.399.798.399.043.02z" fill="#61451b"/><path d="m23 18s-.584.584-1.121 1.121c-.563.563-1.326.879-2.122.879-.825 0-1.757 0-1.757 0s0-.812 0-1.402c0-.366.207-.702.535-.866h.001c.937-.469 2.023-.546 3.017-.214.732.244 1.447.482 1.447.482z"/><path d="m9 18s.584.584 1.121 1.121c.563.563 1.326.879 2.122.879h1.757s0-.812 0-1.402c0-.366-.207-.702-.535-.866h-.001c-.937-.469-2.023-.546-3.017-.214-.732.244-1.447.482-1.447.482z"/><path d="m29.207 5.5-4.207 4.207v3.293h-3v-1h2v-2.707l4.5-4.5z" fill="#583f19"/><path d="m8 9.293v2.707h2v1h-3v-3.293l-4.207-4.207.707-.707z" fill="#583f19"/><path d="m1.255 0 8.595 4.688c.387.216.752.466 1.086.758.858.752 1.494 1.746 1.817 2.841.154.523.232 1.063.246 1.608l.001.1v1.005h-2c0-.376.007-.76-.002-1.14-.003-.069-.007-.137-.013-.206-.025-.272-.073-.54-.15-.801-.204-.69-.592-1.32-1.117-1.811-.251-.236-.532-.435-.833-.602l-6.885-3.755c0 1.072-.008 2.145.001 3.218.003.119.003.118.008.237.026.433.084.862.186 1.284.157.654.412 1.275.742 1.859.501.85.988 1.709 1.524 2.537.217.324.488.601.808.824l.037.025 3.015 2.01-1.321 1.321v.202c-.976-.646-1.96-1.281-2.921-1.95-.075-.053-.148-.109-.221-.166-.433-.348-.803-.758-1.105-1.225-.508-.806-.982-1.633-1.473-2.45-.282-.481-.527-.98-.721-1.503-.263-.712-.436-1.456-.513-2.211-.03-.302-.043-.605-.046-.909v-5.788h1.255zm29.49 0h1.255v5.789c-.001.15-.001.15-.005.301-.024.557-.09 1.11-.211 1.656-.143.641-.357 1.267-.637 1.862-.108.23-.227.454-.352.675-.509.864-1.014 1.73-1.548 2.578-.2.31-.43.598-.692.859-.229.227-.479.428-.746.609l-2.809 1.873v-.202l-1.321-1.321c1.041-.692 2.105-1.353 3.12-2.083.314-.232.577-.517.785-.846.498-.819.992-1.641 1.479-2.467.136-.241.262-.486.371-.741.217-.506.373-1.037.466-1.58.067-.391.097-.785.1-1.182v-3.095c-2.317 1.263-4.644 2.508-6.949 3.791-.06.034-.119.07-.178.107-.248.161-.479.344-.689.553-.507.508-.875 1.151-1.055 1.847-.086.334-.126.676-.129 1.02v.997h-2c0-.368-.002-.736.001-1.105.014-.545.092-1.085.246-1.608.323-1.095.959-2.089 1.817-2.841.334-.292.699-.542 1.086-.758l8.595-4.688z"/></g></svg>