<svg clip-rule="evenodd" fill-rule="evenodd" stroke-linecap="round" stroke-linejoin="round" stroke-miterlimit="1.5" viewBox="0 0 32 32" xmlns="http://www.w3.org/2000/svg"><metadata/><path d="m0 0h32v32h-32z" fill="none"/><path d="m12 14.928c-.549-.318-1.06-.7-1.519-1.138-.697-.664-1.272-1.454-1.69-2.321-.358-.741-.599-1.538-.713-2.353-.118-.839-.102-1.696.047-2.529.139-.775.393-1.529.752-2.23.792-1.545 2.089-2.812 3.654-3.567.681-.328 1.408-.558 2.154-.682.368-.061.738-.094 1.11-.105.102-.002.205-.003.308-.002.373.007.744.035 1.113.091.748.115 1.479.336 2.165.657 1.663.777 3.031 2.129 3.829 3.782.328.681.558 1.408.682 2.154.133.803.143 1.626.03 2.431-.114.815-.355 1.611-.712 2.353-.419.867-.994 1.657-1.691 2.321-.459.438-.97.82-1.519 1.138v.072h5c1.105 0 2 .895 2 2v13c0 .53-.211 1.039-.586 1.414s-.884.586-1.414.586c-4.184 0-13.816 0-18 0-.53 0-1.039-.211-1.414-.586s-.586-.884-.586-1.414c0-3.271 0-9.729 0-13 0-.53.211-1.039.586-1.414s.884-.586 1.414-.586h5z"/><path d="m25 30h-18v-3l2-1h14l2 1z" fill="#404040"/><path d="m7 17h18v10h-18z" fill="#666"/><ellipse cx="16" cy="22" fill="#1c1c1c" rx="4" ry="2.4"/><ellipse cx="16" cy="22" fill="#373737" rx="2" ry="1.2"/><ellipse cx="22" cy="24.5" fill="#e02a33" rx="2" ry="1.5"/><path d="m14 7h4v15h-4z" fill="#373737"/><circle cx="16" cy="8" fill="#e02a33" r="6"/><path d="m16 4h.002c2.208 0 3.998 1.79 3.998 3.998v.002" fill="none" stroke="#ea9297" stroke-width="2"/></svg>