<svg clip-rule="evenodd" fill-rule="evenodd" stroke-linejoin="round" stroke-miterlimit="1.41421" viewBox="0 0 32 32" xmlns="http://www.w3.org/2000/svg" xmlns:xlink="http://www.w3.org/1999/xlink"><clipPath id="a"><path clip-rule="evenodd" d="m20 30c0-2.761-2.239-5-5-5-1.911 0-4.089 0-6 0-2.761 0-5 2.239-5 5z"/></clipPath><clipPath id="b"><path clip-rule="evenodd" d="m18 15c0-1.591-.632-3.117-1.757-4.243-1.126-1.125-2.652-1.757-4.243-1.757-1.591 0-3.117.632-4.243 1.757-1.125 1.126-1.757 2.652-1.757 4.243v2c0 1.591.632 3.117 1.757 4.243 1.126 1.125 2.652 1.757 4.243 1.757 1.591 0 3.117-.632 4.243-1.757 1.125-1.126 1.757-2.652 1.757-4.243 0-.663 0-1.337 0-2z"/></clipPath><clipPath id="c"><path clip-rule="evenodd" d="m24 21h2v9h-2z"/></clipPath><metadata/><path d="m0 0h32v32h-32z" fill="none"/><path d="m2 32c0-.716-.012-1.454.002-2.18.026-.818.181-1.632.487-2.393.188-.471.423-.921.707-1.342.724-1.071 1.744-1.933 2.922-2.466.3-.135.608-.249.924-.341-.167-.132-.329-.27-.485-.415-.769-.714-1.394-1.579-1.831-2.533-.326-.712-.546-1.471-.652-2.246-.045-.327-.067-.655-.073-.985-.005-.733-.005-1.465 0-2.198.005-.264.019-.527.048-.79.069-.616.21-1.224.419-1.808.386-1.078 1.006-2.069 1.805-2.889.869-.891 1.945-1.573 3.122-1.978.807-.278 1.652-.42 2.506-.435.099-.001.099-.001.198 0 .297.005.593.023.887.06.616.076 1.222.225 1.803.441 1.043.388 2.001.994 2.797 1.771.891.869 1.573 1.945 1.978 3.122.278.807.42 1.653.435 2.506.005.621.005 1.243.002 1.864.281-.252.609-.452.967-.583.235-.086.48-.142.728-.167.129-.013.155-.012.279-.015 2.059 0 4.119-.049 6.178.003.134.01.168.01.301.031.246.037.486.105.715.202.806.341 1.436 1.036 1.696 1.873.06.191.1.388.12.587.013.129.012.155.015.279v2.05c-.003.124-.002.15-.015.279-.02.199-.06.396-.12.587-.275.885-.963 1.609-1.833 1.927-.235.086-.48.142-.728.167-.129.013-.155.012-.279.015h-.025v8h-4-22zm17-11.127c-.202.365-.432.714-.689 1.043-.394.507-.85.964-1.353 1.362.315.092.624.206.924.341.564.255 1.094.586 1.572.98 1.134.937 1.959 2.228 2.325 3.653.147.569.217 1.154.221 1.742v.006-6h-.025c-.124-.003-.15-.002-.279-.015-.248-.025-.493-.081-.728-.167-.87-.318-1.558-1.042-1.833-1.927-.06-.191-.1-.388-.12-.587-.013-.129-.012-.155-.015-.279z"/><path d="m20 30c0-2.761-2.239-5-5-5-1.911 0-4.089 0-6 0-2.761 0-5 2.239-5 5z" fill="#303030"/><g clip-path="url(#a)"><path d="m17 22h-10l3 9h4z" fill="#fff"/><circle cx="12" cy="24" fill="#633a92" r="4"/></g><path d="m18 15c0-1.591-.632-3.117-1.757-4.243-1.126-1.125-2.652-1.757-4.243-1.757-1.591 0-3.117.632-4.243 1.757-1.125 1.126-1.757 2.652-1.757 4.243v2c0 1.591.632 3.117 1.757 4.243 1.126 1.125 2.652 1.757 4.243 1.757 1.591 0 3.117-.632 4.243-1.757 1.125-1.126 1.757-2.652 1.757-4.243 0-.663 0-1.337 0-2z" fill="#633a92"/><g clip-path="url(#b)"><path d="m16 15c0-.552-.448-1-1-1s-1 .448-1 1v1c0 .552.448 1 1 1s1-.448 1-1c0-.322 0-.678 0-1zm-6 0c0-.552-.448-1-1-1s-1 .448-1 1v1c0 .552.448 1 1 1s1-.448 1-1c0-.322 0-.678 0-1z"/></g><path d="m24 21h2v9h-2z" fill="#a1693b"/><g clip-path="url(#c)"><path d="m23 21h4v2h-4z" fill="#51351e"/></g><path d="m29 19c0-.552-.448-1-1-1-1.537 0-4.463 0-6 0-.552 0-1 .448-1 1v2c0 .552.448 1 1 1h6c.552 0 1-.448 1-1 0-.611 0-1.389 0-2z" fill="#a1693b"/></svg>