<svg clip-rule="evenodd" fill-rule="evenodd" stroke-linecap="round" stroke-linejoin="round" stroke-miterlimit="3" viewBox="0 0 32 32" xmlns="http://www.w3.org/2000/svg" xmlns:xlink="http://www.w3.org/1999/xlink"><clipPath id="a"><path clip-rule="evenodd" d="m0 0h32v32h-32z"/></clipPath><metadata/><path d="m0 0h32v32h-32z" fill="none"/><g clip-path="url(#a)"><path d="m10.5 8.5 1.5-1.5 1 1-1.5 1.5 18.5 18.5h-1.515c-1.591 0-3.117-.632-4.242-1.757l-14.743-14.743-1.5 1.5-1-1 1.5-1.5-6.5-6.5 2-2z" fill="none" stroke="#000" stroke-width="4"/><path d="m10 9 16 16 4 3s-.7 0-1.515 0c-1.591 0-3.117-.632-4.242-1.757-4.345-4.345-15.243-15.243-15.243-15.243z" fill="#98bdd0"/><path d="m10 10s10.027 10.027 14.206 14.206c1.188 1.188 2.56 2.177 4.064 2.929.902.451 1.73.865 1.73.865l-19-19z" fill="#e1f1f4"/><path d="m4 2 7 7-2 2-7-7z" fill="#404040"/><path d="m7 12 5-5 1 1-5 5z" fill="#404040"/><g fill="none" stroke="#808080" stroke-linecap="butt" stroke-linejoin="miter"><path d="m7 9 2-2"/><path d="m5 7 2-2"/><path d="m3 5 2-2"/></g></g></svg>