<svg clip-rule="evenodd" fill-rule="evenodd" stroke-linejoin="round" stroke-miterlimit="2" viewBox="0 0 32 32" xmlns="http://www.w3.org/2000/svg" xmlns:xlink="http://www.w3.org/1999/xlink"><clipPath id="a"><path clip-rule="evenodd" d="m0 0h32v32h-32z"/></clipPath><metadata/><path d="m0 0h32v32h-32z" fill="none"/><g clip-path="url(#a)"><path d="m16 3c8.837 0 16 7.163 16 16v.006c0 3.446-1.369 6.751-3.806 9.188s-5.742 3.806-9.188 3.806c-1.976 0-4.036 0-6.012 0-3.446 0-6.751-1.369-9.188-3.806s-3.806-5.742-3.806-9.188c0-.003 0-.005 0-.008 0-8.835 7.163-15.998 15.998-15.998z"/><path d="m30 19c0-7.732-6.268-14-14-14-.001 0-.001 0-.002 0-7.731 0-13.998 6.267-13.998 13.998v.008c0 2.916 1.158 5.712 3.22 7.774s4.858 3.22 7.774 3.22h6.012c2.916 0 5.712-1.158 7.774-3.22s3.22-4.858 3.22-7.774c0-.002 0-.004 0-.006z" fill="#fbc546"/><path d="m18.221 20.365-3.592-1.437c-.513-.204-.762-.787-.557-1.299.204-.513.787-.762 1.299-.557l5 2c.312.124.541.398.609.727.067.329-.035.67-.273.908l-1.293 1.293 1.293 1.293c.238.238.34.579.273.908-.068.329-.297.603-.609.727l-5 2c-.512.205-1.095-.044-1.299-.557-.205-.512.044-1.095.557-1.299l3.592-1.437-.928-.928c-.383-.402-.383-1.012 0-1.414z" fill="#593604"/><g fill-rule="nonzero"><path d="m24.948 15.106c.494.247.694.847.447 1.34 0 .001-.001.002-.001.002-.247.494-.847.694-1.34.447-1.196-.598-3.305-1.652-4.501-2.251-.494-.247-.694-.847-.447-1.341s.847-.694 1.341-.447c1.197.598 3.305 1.652 4.501 2.25z"/><path d="m12.894 13.303c.247.494.047 1.094-.447 1.341-1.196.599-3.305 1.653-4.501 2.251-.493.247-1.093.047-1.34-.447 0 0 0 0 0-.001-.247-.494-.047-1.094.447-1.341l4.5-2.25c.494-.247 1.094-.047 1.341.447z"/></g></g></svg>