<svg clip-rule="evenodd" fill-rule="evenodd" stroke-linecap="round" stroke-miterlimit="3" viewBox="0 0 32 32" xmlns="http://www.w3.org/2000/svg" xmlns:xlink="http://www.w3.org/1999/xlink"><clipPath id="a"><path clip-rule="evenodd" d="m0 0h32v32h-32z"/></clipPath><metadata/><path d="m0 0h32v32h-32z" fill="none"/><g clip-path="url(#a)"><g fill="none" stroke="#000" stroke-width="4"><path d="m10 29c0 .265.105.52.293.707.187.188.442.293.707.293s.52-.105.707-.293c.188-.187.293-.442.293-.707v-18h-2z"/><path d="m7 9c0 1.061.421 2.078 1.172 2.828.75.751 1.767 1.172 2.828 1.172 1.061 0 2.078-.421 2.828-1.172.751-.75 1.172-1.767 1.172-2.828 0-3.146 0-7 0-7h-2v6h-1v-6h-2v6h-1v-6h-2z"/><path d="m21 29c0 .265.105.52.293.707.187.188.442.293.707.293s.52-.105.707-.293c.188-.187.293-.442.293-.707v-18h-2z"/><path d="m17 12c0 3.314 2.686 6 6 6v-16h-.002c-3.313 0-5.998 2.685-5.998 5.998z"/></g><path d="m10 29c0 .265.105.52.293.707.187.188.442.293.707.293s.52-.105.707-.293c.188-.187.293-.442.293-.707v-18h-2z" fill="#cecece"/><path d="m7 9c0 1.061.421 2.078 1.172 2.828.75.751 1.767 1.172 2.828 1.172 1.061 0 2.078-.421 2.828-1.172.751-.75 1.172-1.767 1.172-2.828 0-3.146 0-7 0-7h-2l-.5 1-.5-1h-2l-.5 1-.5-1h-2z" fill="#cecece"/><path d="m21 29c0 .265.105.52.293.707.187.188.442.293.707.293s.52-.105.707-.293c.188-.187.293-.442.293-.707v-18h-2z" fill="#cecece"/><path d="m17 12c0 3.314 2.686 6 6 6v-16h-.002c-3.313 0-5.998 2.685-5.998 5.998z" fill="#cecece"/><path d="m9 2h1v6h-1z" fill="#666"/><path d="m12 2h1v6h-1z" fill="#666"/></g></svg>