<svg clip-rule="evenodd" fill-rule="evenodd" stroke-miterlimit="1.5" viewBox="0 0 32 32" xmlns="http://www.w3.org/2000/svg" xmlns:xlink="http://www.w3.org/1999/xlink"><clipPath id="a"><path clip-rule="evenodd" d="m4.141 11.565c-.092-.369-.077-.757.043-1.118.04-.12.085-.254.132-.396.409-1.225 1.555-2.051 2.846-2.051h.595c.796 0 1.559.316 2.122.879l.535.535c.375.375.884.586 1.414.586h8.344c.53 0 1.039-.211 1.414-.586.167-.167.354-.354.535-.535.563-.563 1.326-.879 2.122-.879h.595c1.291 0 2.437.826 2.846 2.051.047.142.092.276.132.396.12.361.135.749.043 1.118-.222.888-.644 2.574-.799 3.196-.04.159-.06.322-.06.485v4.683c0 1.326-.527 2.598-1.464 3.535-1.408 1.408-3.489 3.489-4.657 4.657-.563.563-1.326.879-2.122.879-1.501 0-4.013 0-5.514 0-.796 0-1.559-.316-2.122-.879-1.168-1.168-3.249-3.249-4.657-4.657-.937-.937-1.464-2.209-1.464-3.535 0-1.701 0-3.945 0-4.683 0-.163-.02-.326-.06-.485-.155-.622-.577-2.308-.799-3.196z"/></clipPath><metadata/><path d="m0 0h32v32h-32z" fill="none"/><path d="m22.63 6.267.819-1.636 5.382-3.589c.39.209.779.417 1.169.626 0 3.889-.05 5.966-.373 7.884.031.093.061.187.092.28l.037.118c.038.138.073.274.098.415.042.232.064.467.065.703.001.285-.033.564-.088.843-.257 1.112-.551 2.214-.827 3.321-.002.005-.004.015-.004.015-.024 1.618.028 3.237-.002 4.856-.004.115-.009.23-.017.346-.055.685-.202 1.358-.45 2-.331.858-.831 1.637-1.46 2.306-1.566 1.625-3.191 3.193-4.787 4.789-.203.199-.419.383-.651.547-.534.375-1.14.643-1.776.787-.321.072-.647.108-.976.121-1.883.023-3.767.001-5.651.001-.284-.004-.567-.025-.847-.074-.642-.112-1.261-.351-1.812-.699-.278-.176-.534-.381-.775-.605-1.643-1.602-3.275-3.216-4.867-4.868-.59-.627-1.066-1.349-1.396-2.146s-.504-1.645-.531-2.505c-.03-1.619.073-3.24-.002-4.857-.251-1.075-.536-2.142-.803-3.213l-.028-.121c-.027-.14-.052-.279-.067-.421-.029-.281-.028-.566.003-.846.024-.216.068-.427.123-.636l-.228-.684v-7.657l1.169-.626c1.794 1.196 3.588 2.392 5.382 3.589l.819 1.636c.371.127.727.297 1.059.506.278.176.534.381.775.605.21.205.414.417.624.622.003.003.009 0 .013 0h8.318.013c.183-.179.363-.363.544-.544.085-.083.084-.082.171-.163.246-.217.506-.415.788-.584.302-.18.623-.329.955-.442z"/><path d="m6 15-2-6v-5l3 2 2 4z" fill="#a18330"/><path d="m26 15 2-6v-5l-3 2-2 4z" fill="#a18330"/><path d="m4.141 11.565c-.092-.369-.077-.757.043-1.118.04-.12.085-.254.132-.396.409-1.225 1.555-2.051 2.846-2.051h.595c.796 0 1.559.316 2.122.879l.535.535c.375.375.884.586 1.414.586h8.344c.53 0 1.039-.211 1.414-.586.167-.167.354-.354.535-.535.563-.563 1.326-.879 2.122-.879h.595c1.291 0 2.437.826 2.846 2.051.047.142.092.276.132.396.12.361.135.749.043 1.118-.222.888-.644 2.574-.799 3.196-.04.159-.06.322-.06.485v4.683c0 1.326-.527 2.598-1.464 3.535-1.408 1.408-3.489 3.489-4.657 4.657-.563.563-1.326.879-2.122.879-1.501 0-4.013 0-5.514 0-.796 0-1.559-.316-2.122-.879-1.168-1.168-3.249-3.249-4.657-4.657-.937-.937-1.464-2.209-1.464-3.535 0-1.701 0-3.945 0-4.683 0-.163-.02-.326-.06-.485-.155-.622-.577-2.308-.799-3.196z" fill="#618e29"/><g clip-path="url(#a)"><path d="m11 15 1 3v.001c0 .587.4 1.099.97 1.241.805.202 1.916.48 2.545.637.318.079.652.079.97 0 .629-.157 1.74-.435 2.545-.637.57-.142.97-.654.97-1.241 0-.001 0-.001 0-.001l1-3s1.379-.69 2.518-1.259c.949-.474 1.67-1.306 2.006-2.313.593-1.778 1.476-4.428 1.476-4.428h-22s.883 2.65 1.476 4.428c.336 1.007 1.057 1.839 2.006 2.313 1.139.569 2.518 1.259 2.518 1.259z" fill="#77b84c"/><path d="m3 19 6 2 2 3 1-1 2 2.5h4l2-2.5 1 1 2-3 6-2" fill="none" stroke="#2f4d00"/><path d="m17 9.5c0-.265-.105-.52-.293-.707-.187-.188-.442-.293-.707-.293s-.52.105-.707.293c-.188.187-.293.442-.293.707v5c0 .265.105.52.293.707.187.188.442.293.707.293s.52-.105.707-.293c.188-.187.293-.442.293-.707 0-1.331 0-3.669 0-5z" fill="#618e29"/></g><path d="m11.32 15.279c-.199-.797-.792-1.436-1.571-1.696h-.001c-.451-.151-.944-.106-1.361.123-.416.228-.719.62-.834 1.081-.034.138-.069.278-.104.416-.253 1.014.317 2.052 1.308 2.383.361.12.702.234.935.311.204.068.418.103.633.103h1.675s-.388-1.55-.68-2.721z"/><path d="m20.68 15.279c.199-.797.792-1.436 1.571-1.696h.001c.451-.151.944-.106 1.361.123.416.228.719.62.834 1.081.034.138.069.278.104.416.253 1.014-.317 2.052-1.308 2.383-.361.12-.702.234-.935.311-.204.068-.418.103-.633.103-.566 0-1.675 0-1.675 0s.388-1.55.68-2.721z"/><path d="m12.43 20c-.306 0-.591-.159-.752-.419-.161-.261-.175-.586-.038-.86 0-.001 0-.001 0-.002.199-.397.682-.558 1.079-.359.24.119.503.251.728.364.339.169.553.515.553.894v1.382l-1-1z"/><path d="m19.57 20c.306 0 .591-.159.752-.419.161-.261.175-.586.038-.86 0-.001 0-.001 0-.002-.199-.397-.682-.558-1.079-.359-.24.119-.503.251-.728.364-.339.169-.553.515-.553.894v1.382s.423-.423.719-.719c.18-.18.424-.281.679-.281z"/></svg>