<svg clip-rule="evenodd" fill-rule="evenodd" stroke-linejoin="round" stroke-miterlimit="2" viewBox="0 0 32 32" xmlns="http://www.w3.org/2000/svg" xmlns:xlink="http://www.w3.org/1999/xlink"><clipPath id="a"><path clip-rule="evenodd" d="m0 0h32v32h-32z"/></clipPath><metadata/><path d="m0 0h32v32h-32z" fill="none"/><g clip-path="url(#a)"><path d="m32 8c0-4.418-3.582-8-8-8h-16c-4.418 0-8 3.582-8 8v16c0 4.418 3.582 8 8 8h16c4.418 0 8-3.582 8-8z"/><path d="m30 8c0-1.591-.632-3.117-1.757-4.243-1.126-1.125-2.652-1.757-4.243-1.757h-16c-1.591 0-3.117.632-4.243 1.757-1.125 1.126-1.757 2.652-1.757 4.243v16c0 1.591.632 3.117 1.757 4.243 1.126 1.125 2.652 1.757 4.243 1.757h16c1.591 0 3.117-.632 4.243-1.757 1.125-1.126 1.757-2.652 1.757-4.243z" fill="#666"/><g fill="#fff"><path d="m18 9.538c0-.265-.105-.519-.293-.707-.187-.187-.442-.293-.707-.293-.611 0-1.389 0-2 0-.265 0-.52.106-.707.293-.188.188-.293.442-.293.707v16.462c0 .265.105.52.293.707.187.188.442.293.707.293h2c.265 0 .52-.105.707-.293.188-.187.293-.442.293-.707 0-3.213 0-13.249 0-16.462z"/><path d="m7.45 7s-2.45 2.16-2.45 6.5 2.45 6.5 2.45 6.5 1.615-4 3.544-4h2.006v-5h-2.006c-1.926 0-3.544-4-3.544-4z"/><path d="m24.55 7s2.45 2.16 2.45 6.5-2.45 6.5-2.45 6.5-1.615-4-3.544-4h-2.006v-5h2.006c1.926 0 3.544-4 3.544-4z"/></g></g></svg>