<svg clip-rule="evenodd" fill-rule="evenodd" stroke-linecap="round" stroke-linejoin="round" stroke-miterlimit="1.5" viewBox="0 0 32 32" xmlns="http://www.w3.org/2000/svg" xmlns:xlink="http://www.w3.org/1999/xlink"><clipPath id="a"><path clip-rule="evenodd" d="m0 0h32v32h-32z"/></clipPath><metadata/><path d="m0 0h32v32h-32z" fill="none"/><g clip-path="url(#a)"><path d="m4.051 22.316c-.033-.101-.051-.208-.051-.316 0-3.151 0-12.849 0-16 0-.265.105-.52.293-.707.187-.188.442-.293.707-.293h22c.265 0 .52.105.707.293.188.187.293.442.293.707v16c0 .108-.018.215-.051.316.113.121.198.272.24.441.346 1.382 1.081 4.322 1.5 6 .075.299.008.616-.182.858-.189.243-.48.385-.788.385-4.672 0-20.766 0-25.438 0-.308 0-.599-.142-.788-.385-.19-.242-.257-.559-.182-.858.419-1.678 1.154-4.618 1.5-6 .042-.169.127-.32.24-.441z" fill="none" stroke="#000" stroke-width="4"/><path d="m28 6c0-.265-.105-.52-.293-.707-.187-.188-.442-.293-.707-.293-3.904 0-18.096 0-22 0-.265 0-.52.105-.707.293-.188.187-.293.442-.293.707v16c0 .265.105.52.293.707.187.188.442.293.707.293h22c.265 0 .52-.105.707-.293.188-.187.293-.442.293-.707 0-3.151 0-12.849 0-16z" fill="#313131"/><path d="m5 6h22v14h-22z" fill="#334cec"/><path d="m2.311 28.757c-.075.299-.008.616.182.858.189.243.48.385.788.385h25.438c.308 0 .599-.142.788-.385.19-.242.257-.559.182-.858-.419-1.678-1.154-4.618-1.5-6-.111-.445-.511-.757-.97-.757-3.627 0-18.811 0-22.438 0-.459 0-.859.312-.97.757-.346 1.382-1.081 4.322-1.5 6z" fill="#e6e6e6"/><path d="m11.89 27c-.229 0-.429.156-.485.379-.07.282-.168.672-.25 1-.037.149-.003.307.091.429.095.121.24.192.394.192h8.72c.154 0 .299-.071.394-.192.094-.122.128-.28.091-.429-.082-.328-.18-.718-.25-1-.056-.223-.256-.379-.485-.379-1.481 0-6.739 0-8.22 0z" fill="#a6a6a6"/><path d="m4.655 23.379c.056-.223.256-.379.485-.379h21.72c.229 0 .429.156.485.379.125.503.349 1.397.5 2 .037.149.003.307-.091.429-.095.121-.24.192-.394.192-3.401 0-19.319 0-22.72 0-.154 0-.299-.071-.394-.192-.094-.122-.128-.28-.091-.429.151-.603.375-1.497.5-2z" fill="#a6a6a6"/><g fill="#8899f4"><path d="m22 8c0-.552-.448-1-1-1s-1 .448-1 1 .448 1 1 1 1-.448 1-1z"/><path d="m22 11c0-.552-.448-1-1-1s-1 .448-1 1 .448 1 1 1 1-.448 1-1z"/><path d="m22 14c0-.552-.448-1-1-1s-1 .448-1 1 .448 1 1 1 1-.448 1-1z"/><path d="m26 8.5c0-.133-.053-.26-.146-.354-.094-.093-.221-.146-.354-.146-.555 0-1.445 0-2 0-.133 0-.26.053-.354.146-.093.094-.146.221-.146.354s.053.26.146.354c.094.093.221.146.354.146h2c.133 0 .26-.053.354-.146.093-.094.146-.221.146-.354z"/><path d="m26 11.5c0-.133-.053-.26-.146-.354-.094-.093-.221-.146-.354-.146-.555 0-1.445 0-2 0-.133 0-.26.053-.354.146-.093.094-.146.221-.146.354s.053.26.146.354c.094.093.221.146.354.146h2c.133 0 .26-.053.354-.146.093-.094.146-.221.146-.354z"/><path d="m26 14.5c0-.133-.053-.26-.146-.354-.094-.093-.221-.146-.354-.146-.555 0-1.445 0-2 0-.133 0-.26.053-.354.146-.093.094-.146.221-.146.354s.053.26.146.354c.094.093.221.146.354.146h2c.133 0 .26-.053.354-.146.093-.094.146-.221.146-.354z"/></g></g></svg>