<svg clip-rule="evenodd" fill-rule="evenodd" stroke-linejoin="round" stroke-miterlimit="1.41421" viewBox="0 0 32 32" xmlns="http://www.w3.org/2000/svg" xmlns:xlink="http://www.w3.org/1999/xlink"><clipPath id="a"><path clip-rule="evenodd" d="m0 0h32v32h-32z"/></clipPath><metadata/><path d="m0 0h32v32h-32z" fill="none"/><g clip-path="url(#a)"><path d="m32 8c0-4.418-3.582-8-8-8-4.887 0-11.113 0-16 0-4.418 0-8 3.582-8 8v16c0 4.418 3.582 8 8 8h16c4.418 0 8-3.582 8-8 0-4.887 0-11.113 0-16z"/><path d="m30 8c0-1.591-.632-3.117-1.757-4.243-1.126-1.125-2.652-1.757-4.243-1.757-4.724 0-11.276 0-16 0-1.591 0-3.117.632-4.243 1.757-1.125 1.126-1.757 2.652-1.757 4.243v16c0 1.591.632 3.117 1.757 4.243 1.126 1.125 2.652 1.757 4.243 1.757h16c1.591 0 3.117-.632 4.243-1.757 1.125-1.126 1.757-2.652 1.757-4.243 0-4.724 0-11.276 0-16z" fill="#fff"/><g fill="#333" fill-rule="nonzero"><path d="m12.649 13.342h-4.395l-.75 2.01h-2.1l4.245-10.35h1.605l4.245 10.35h-2.1zm-.615-1.635-1.59-4.215-1.575 4.215z"/><path d="m25.099 10.942c.275.4.413.88.413 1.44 0 .95-.308 1.683-.923 2.198s-1.497.772-2.647.772h-4.68v-10.35h4.485c1.17 0 2.065.248 2.685.743s.93 1.207.93 2.137c0 .47-.128.893-.383 1.268s-.617.667-1.087.877c.53.21.932.515 1.207.915zm-5.872-4.23v2.52h2.535c1.09 0 1.635-.41 1.635-1.23 0-.86-.52-1.29-1.56-1.29zm4.335 5.535c0-.87-.555-1.305-1.665-1.305h-2.67v2.7h2.745c1.06 0 1.59-.465 1.59-1.395z"/><path d="m7.294 26.55c-.775-.76-1.163-1.895-1.163-3.405v-1.62c0-1.51.39-2.645 1.17-3.405s1.865-1.14 3.255-1.14c1.27 0 2.283.312 3.038.937s1.132 1.493 1.132 2.603v.12h-1.965v-.06c0-.58-.195-1.038-.585-1.373s-.93-.502-1.62-.502c-.82 0-1.432.24-1.837.72s-.608 1.215-.608 2.205v1.485c0 .95.205 1.655.615 2.115s1.025.69 1.845.69c.69 0 1.228-.163 1.613-.488s.577-.772.577-1.342v-.075h1.95v.075c0 1.14-.375 2.025-1.125 2.655s-1.765.945-3.045.945c-1.39 0-2.472-.38-3.247-1.14z"/><path d="m17.262 17.175h4.035c1.38 0 2.447.37 3.202 1.11s1.133 1.88 1.133 3.42v1.275c0 1.54-.385 2.682-1.155 3.427s-1.855 1.118-3.255 1.118h-3.96zm4.02 8.64c.81 0 1.41-.228 1.8-.683s.585-1.172.585-2.152v-1.17c0-1.02-.195-1.763-.585-2.228s-.99-.697-1.8-.697h-2.055v6.93z"/></g></g></svg>