<svg clip-rule="evenodd" fill-rule="evenodd" stroke-linejoin="round" stroke-miterlimit="2" viewBox="0 0 32 32" xmlns="http://www.w3.org/2000/svg" xmlns:xlink="http://www.w3.org/1999/xlink"><clipPath id="a"><path clip-rule="evenodd" d="m0 0h32v32h-32z"/></clipPath><metadata/><path d="m0 0h32v32h-32z" fill="none"/><g clip-path="url(#a)"><path d="m16 2c8.837 0 16 7.163 16 16 0 7.732-6.268 14-14 14-1.325 0-2.675 0-4 0-7.732 0-14-6.268-14-14 0-8.837 7.163-16 16-16z"/><path d="m30 18c0-7.732-6.268-14-14-14-7.732 0-14 6.268-14 14 0 6.627 5.373 12 12 12h4c6.627 0 12-5.373 12-12z" fill="#fbc546"/><path d="m10.149 15.063-2.856-2.856c-.39-.39-.39-1.024 0-1.414s1.024-.39 1.414 0l5.144 5.144-5.535 1.845c-.523.175-1.09-.109-1.265-.632-.174-.524.109-1.091.633-1.265zm11.702 0 2.465.822c.524.174.807.741.633 1.265-.175.523-.742.807-1.265.632l-5.535-1.845 5.144-5.144c.39-.39 1.024-.39 1.414 0s.39 1.024 0 1.414z"/><path d="m9.785 25.077c-1.904-1.25-3.392-3.026-3.95-5.077h20.33c-.558 2.051-2.046 3.827-3.95 5.077-1.116-1.291-11.314-1.291-12.43 0z" fill="#722245"/><path d="m9.785 25.077c1.116-1.291 2.759-2.077 4.54-2.077h3.35c1.781 0 3.424.786 4.54 2.077-1.838 1.207-4.064 1.923-6.215 1.923s-4.377-.716-6.215-1.923z" fill="#ca3b8f"/></g></svg>