<svg clip-rule="evenodd" fill-rule="evenodd" stroke-linejoin="round" stroke-miterlimit="1.41421" viewBox="0 0 32 32" xmlns="http://www.w3.org/2000/svg" xmlns:xlink="http://www.w3.org/1999/xlink"><clipPath id="a"><path clip-rule="evenodd" d="m0 0h32v32h-32z"/></clipPath><clipPath id="b"><path clip-rule="evenodd" d="m2 6h28v20h-28z"/></clipPath><metadata/><path d="m0 0h32v32h-32z" fill="none"/><g clip-path="url(#a)"><path d="m32 6c0-.53-.211-1.039-.586-1.414s-.884-.586-1.414-.586c-5.746 0-22.254 0-28 0-.53 0-1.039.211-1.414.586s-.586.884-.586 1.414v20c0 .53.211 1.039.586 1.414s.884.586 1.414.586h28c.53 0 1.039-.211 1.414-.586s.586-.884.586-1.414c0-4.52 0-15.48 0-20z"/><path d="m2 6h28v20h-28z" fill="#333"/><g clip-path="url(#b)"><path d="m1 14h30v4h-30z" fill="#fff"/><g fill="#5328e0"><path d="m1 21.556h30v2.222h-30z"/><path d="m1 17.111h30v2.222h-30z"/><path d="m1 12.667h30v2.222h-30z"/><path d="m1 8.222h30v2.222h-30z"/></g></g><path d="m8.171 6.424c.226.011.447.043.665.104.133.038.264.085.391.14.887.39 1.547 1.167 1.981 2.015.069.135.133.273.192.413.073.172.138.348.196.526.077.237.146.478.195.723.063.323.096.651.108.98.023.617-.024 1.235-.106 1.846-.081.591-.198 1.175-.338 1.755l-.182.725c-.393.098-.786.201-1.182.288-.704.153-1.419.269-2.138.318-.634.044-1.279.04-1.906-.074-.182-.033-.361-.077-.539-.13-.356-.104-.705-.228-1.04-.387-.345-.164-.675-.36-.978-.591-.682-.523-1.235-1.248-1.397-2.106-.037-.195-.053-.393-.048-.59.026-.98.572-1.902 1.367-2.459.33-.23.702-.399 1.092-.494.153-.038.308-.063.464-.08.01-.089.01-.089.023-.178.021-.128.047-.254.081-.379.075-.27.184-.529.325-.771.421-.722 1.123-1.277 1.932-1.496.22-.059.444-.09.672-.099.085-.001.085-.001.17.001z" fill="#fff" fill-rule="nonzero"/><path d="m6.059 10.436c-.482-1.713.749-2.944 1.914-3.011 1.164-.067 2.262 1.03 2.744 2.744.392 1.254.107 3.185-.268 4.657-1.473.375-3.404.66-4.658.268-1.713-.482-2.811-1.579-2.744-2.744.067-1.164 1.298-2.395 3.012-1.914z" fill="#f6004a"/></g></svg>