<svg clip-rule="evenodd" fill-rule="evenodd" stroke-linecap="round" stroke-miterlimit="3" viewBox="0 0 32 32" xmlns="http://www.w3.org/2000/svg" xmlns:xlink="http://www.w3.org/1999/xlink"><clipPath id="a"><path clip-rule="evenodd" d="m0 0h32v32h-32z"/></clipPath><metadata/><path d="m0 0h32v32h-32z" fill="none"/><g clip-path="url(#a)"><path d="m12.402.102.116.002.115.004.116.005.116.007.115.007.115.01.116.01.115.012.115.013.116.015.114.016.115.017.115.018.115.02.114.021.114.023.114.024.113.025.114.027.113.027.113.03.113.03.113.032.112.034.112.034.111.036.112.038.111.038.11.04.111.042.109.043.11.044.109.045.109.047.108.048.108.05.107.05.107.053.106.053.106.055.105.056.105.058.105.059.103.06.104.062.102.063.102.064.101.066.101.066.1.069.1.07.098.071.099.072.097.074.097.075.096.076.095.078.094.078.094.081.089.077 1.565 1.392-4.761 10.099-9.677 10.887h-.018l-2.599-2.924-.102-.116-.104-.122-.103-.122-.101-.124-.099-.125-.097-.125-.096-.127-.094-.127-.092-.128-.091-.13-.088-.13-.087-.13-.086-.132-.083-.132-.082-.134-.08-.133-.078-.135-.077-.135-.075-.136-.073-.137-.071-.138-.069-.138-.068-.138-.066-.139-.065-.14-.062-.141-.061-.141-.059-.141-.057-.143-.056-.142-.054-.143-.052-.144-.05-.144-.049-.144-.046-.145-.045-.145-.044-.146-.041-.146-.04-.146-.038-.147-.037-.147-.034-.148-.033-.147-.031-.148-.03-.148-.027-.149-.026-.148-.024-.149-.023-.15-.02-.149-.019-.149-.018-.15-.015-.149-.014-.15-.012-.15-.01-.15-.009-.15-.007-.151-.005-.15-.003-.15-.002-.15v-.15l.002-.151.004-.15.005-.15.007-.15.009-.15.01-.15.012-.15.014-.149.016-.15.017-.149.019-.149.021-.149.023-.149.024-.149.026-.148.028-.148.029-.147.031-.148.033-.147.035-.147.036-.147.038-.146.04-.146.041-.145.043-.145.045-.145.047-.145.048-.143.05-.144.052-.142.054-.143.055-.142.057-.141.059-.141.06-.14.062-.14.064-.139.066-.138.067-.138.069-.137.071-.137.072-.136.074-.135.076-.134.077-.134.079-.133.082-.132.082-.132.084-.13.087-.13.087-.129.09-.128.091-.127.093-.127.094-.125.096-.125.098-.123.1-.123.101-.122.103-.12.105-.12.106-.119.108-.117.11-.117.111-.115.109-.11.691-.691.513-.484.043-.043.083-.083.089-.085.089-.085.091-.083.091-.082.092-.081.093-.079.093-.079.094-.076.095-.076.096-.074.097-.073.097-.072.098-.07.098-.069.1-.068.1-.066.1-.066.101-.063.102-.063.102-.061.103-.06.104-.059.104-.057.105-.056.105-.054.105-.054.106-.052.107-.05.107-.05.108-.048.108-.046.108-.046.109-.044.109-.042.11-.042.11-.04.11-.039.111-.037.111-.036.111-.035.112-.033.112-.032.112-.031.113-.029.113-.028.113-.027.113-.026.114-.024.113-.023.114-.021.115-.02.114-.019.114-.017.115-.017.115-.014.115-.014.115-.012.115-.011.115-.009.116-.008.115-.007.116-.006.115-.004.116-.003.116-.001h.115l.116.001zm-.202 3.999-.07.001-.069.001-.07.003-.069.003-.07.004-.069.005-.07.006-.069.006-.069.008-.069.008-.069.009-.069.009-.069.011-.069.011-.069.012-.068.013-.068.014-.069.014-.068.016-.068.016-.067.017-.068.017-.067.019-.067.019-.067.02-.067.021-.067.021-.066.023-.066.023-.066.024-.066.025-.065.025-.065.027-.065.027-.065.028-.064.028-.064.03-.064.03-.063.031-.063.032-.063.033-.063.033-.062.034-.062.035-.061.036-.062.037-.06.037-.061.038-.06.039-.06.04-.059.041-.059.041-.059.042-.058.043-.058.044-.057.044-.057.046-.057.046-.056.047-.056.048-.056.048-.055.05-.054.05-.054.051-.054.052-.057.057-.078.078-.517.487-.64.641-.083.084-.078.08-.076.081-.075.082-.074.082-.073.083-.071.084-.07.084-.069.085-.068.086-.067.086-.065.087-.064.087-.063.088-.062.089-.061.089-.059.09-.059.09-.057.091-.055.091-.055.092-.054.092-.052.093-.051.094-.05.093-.049.095-.048.094-.046.096-.045.095-.045.096-.042.097-.042.097-.041.097-.039.098-.038.098-.037.098-.036.099-.035.099-.033.1-.032.099-.031.1-.03.101-.029.1-.028.101-.026.102-.025.101-.024.102-.023.102-.021.102-.021.102-.019.103-.018.103-.017.103-.015.103-.015.103-.013.104-.012.103-.011.104-.01.104-.008.104-.007.103-.006.104-.005.105-.004.104-.002.104-.002.104v.104l.002.105.002.104.003.104.005.104.006.104.007.104.009.104.009.104.011.104.012.103.013.104.014.104.016.103.016.103.018.103.02.103.02.102.021.103.023.102.024.102.025.102.027.101.027.101.029.101.03.101.031.1.032.101.034.099.035.1.036.099.037.099.038.098.04.099.041.097.042.098.043.097.044.096.046.096.047.096.048.095.049.095.05.095.052.094.053.093.054.093.055.093.057.092.057.091.059.091.061.091.061.09.063.089.064.089.065.089.066.087.052.067 6.301-7.089 3.21-6.81-.057-.037-.061-.039-.062-.038-.061-.037-.062-.036-.063-.035-.062-.034-.063-.034-.064-.033-.063-.032-.064-.031-.064-.03-.065-.03-.064-.029-.065-.028-.066-.027-.065-.026-.066-.026-.066-.025-.066-.024-.066-.023-.067-.022-.067-.022-.067-.02-.067-.02-.067-.019-.068-.019-.068-.017-.068-.017-.067-.016-.069-.015-.068-.015-.069-.013-.068-.013-.069-.012-.069-.011-.069-.01-.069-.01-.069-.008-.069-.008-.07-.007-.069-.007-.069-.005-.07-.005-.069-.004-.07-.003-.07-.002-.069-.002h-.069-.07z"/><path d="m30 21c0-8.837-7.163-16-16-16h-6c-1.657 0-3 1.343-3 3v6c0 8.837 7.163 16 16 16h6c1.657 0 3-1.343 3-3z" fill="none" stroke="#000" stroke-width="4"/><path d="m6 5 .515-.485 1.485.485-2 1z" fill="#219555"/><path d="m30 21c0-8.837-7.163-16-16-16h-6c-1.657 0-3 1.343-3 3v6c0 8.837 7.163 16 16 16h6c1.657 0 3-1.343 3-3z" fill="#fdef24"/><path d="m14 8.666c0-.92.746-1.666 1.666-1.666h.002c6.811 0 12.332 5.521 12.332 12.332v1.096c0 .55-.218 1.077-.607 1.465-.388.389-.915.607-1.465.607-.061 0-.122 0-.183 0-1.584 0-2.936-1.145-3.196-2.707-.02-.116-.039-.234-.059-.353-.609-3.654-3.188-6.673-6.703-7.844 0 0-.001-.001-.001-.001-1.067-.355-1.786-1.353-1.786-2.478 0-.15 0-.302 0-.451z" fill="#fef9b5"/><g fill="#219555"><path d="m6 22s.179-.202.484-.545c4.221-4.748 4.009-11.962-.483-16.454-.001-.001-.001-.001-.001-.001s-.252.252-.666.666c-4.118 4.118-4.313 10.733-.443 15.086.671.755 1.109 1.248 1.109 1.248z"/><path d="m18 4.515s-.166-.148-.443-.394c-3.17-2.818-7.988-2.672-10.982.333-.039.04-.06.061-.06.061 3.027 3.039 7.9 3.186 11.106.337.238-.212.379-.337.379-.337z"/></g></g></svg>