<svg clip-rule="evenodd" fill-rule="evenodd" stroke-linejoin="round" stroke-miterlimit="1.5" viewBox="0 0 32 32" xmlns="http://www.w3.org/2000/svg" xmlns:xlink="http://www.w3.org/1999/xlink"><clipPath id="a"><path clip-rule="evenodd" d="m0 0h32v32h-32z"/></clipPath><metadata/><path d="m0 0h32v32h-32z" fill="none"/><g clip-path="url(#a)"><path d="m32 8c0-4.418-3.582-8-8-8-4.887 0-11.113 0-16 0-4.418 0-8 3.582-8 8v16c0 4.418 3.582 8 8 8h16c4.418 0 8-3.582 8-8 0-4.887 0-11.113 0-16z"/><path d="m30 8c0-1.591-.632-3.117-1.757-4.243-1.126-1.125-2.652-1.757-4.243-1.757-4.724 0-11.276 0-16 0-1.591 0-3.117.632-4.243 1.757-1.125 1.126-1.757 2.652-1.757 4.243v16c0 1.591.632 3.117 1.757 4.243 1.126 1.125 2.652 1.757 4.243 1.757h16c1.591 0 3.117-.632 4.243-1.757 1.125-1.126 1.757-2.652 1.757-4.243 0-4.724 0-11.276 0-16z" fill="#982eee"/><g fill="none" stroke="#fff" stroke-width="2"><circle cx="11" cy="18" r="4"/><path d="m13.38 14.843s-.749-.896-1.407-1.681c-.629-.751-.973-1.698-.973-2.677 0-.001 0-.001 0-.001 0-3.029 2.455-5.484 5.484-5.484h.018c3.036 0 5.498 2.462 5.498 5.498v.19c0 .863-.201 1.714-.587 2.485-1.009 2.02-3.09 6.18-4.357 8.715-.631 1.261-.383 2.785.614 3.782 0 0 0 0 .001.001.618.618 1.455.965 2.329.965s1.711-.347 2.329-.965c.39-.39.671-.671.671-.671"/></g></g></svg>