<svg clip-rule="evenodd" fill-rule="evenodd" stroke-linejoin="round" stroke-miterlimit="1.5" viewBox="0 0 32 32" xmlns="http://www.w3.org/2000/svg" xmlns:xlink="http://www.w3.org/1999/xlink"><clipPath id="a"><path clip-rule="evenodd" d="m0 0h32v32h-32z"/></clipPath><clipPath id="b"><path clip-rule="evenodd" d="m18 9 8 5s.864-.432 1.789-.894c1.355-.678 2.211-2.063 2.211-3.578 0-1.017 0-2.208 0-3.292 0-.693-.359-1.337-.949-1.701-.589-.365-1.325-.398-1.945-.088-3.551 1.776-9.106 4.553-9.106 4.553z"/></clipPath><clipPath id="c"><path clip-rule="evenodd" d="m14 9-8 5s-.864-.432-1.789-.894c-1.355-.678-2.211-2.063-2.211-3.578 0-1.017 0-2.208 0-3.292 0-.693.359-1.337.949-1.701.589-.365 1.325-.398 1.945-.088 3.551 1.776 9.106 4.553 9.106 4.553z"/></clipPath><clipPath id="d"><path clip-rule="evenodd" d="m7.444 7.905c-1.551 1.33-2.444 3.271-2.444 5.315v3.466c0 2.122.843 4.157 2.343 5.657 1.683 1.683 3.657 3.657 3.657 3.657v.002c0 .795.316 1.558.878 2.12s1.325.878 2.12.878h4.002c1.657 0 3-1.343 3-3s1.974-1.974 3.657-3.657c1.5-1.5 2.343-3.535 2.343-5.657 0-1.115 0-2.358 0-3.466 0-2.044-.893-3.985-2.444-5.315-.708-.606-1.478-1.267-2.181-1.87-1.533-1.313-3.484-2.035-5.503-2.035-.573 0-1.171 0-1.744 0-2.019 0-3.97.722-5.503 2.035-.703.603-1.473 1.264-2.181 1.87z"/></clipPath><metadata/><path d="m0 0h32v32h-32z" fill="none"/><g clip-path="url(#a)"><path d="m18 9 8 5s.864-.432 1.789-.894c1.355-.678 2.211-2.063 2.211-3.578 0-1.017 0-2.208 0-3.292 0-.693-.359-1.337-.949-1.701-.589-.365-1.325-.398-1.945-.088-3.551 1.776-9.106 4.553-9.106 4.553z" fill="none" stroke="#000" stroke-width="4"/><path d="m14 9-8 5s-.864-.432-1.789-.894c-1.355-.678-2.211-2.063-2.211-3.578 0-1.017 0-2.208 0-3.292 0-.693.359-1.337.949-1.701.589-.365 1.325-.398 1.945-.088 3.551 1.776 9.106 4.553 9.106 4.553z" fill="none" stroke="#000" stroke-width="4"/><path d="m7.444 7.905c-1.551 1.33-2.444 3.271-2.444 5.315v3.466c0 2.122.843 4.157 2.343 5.657 1.683 1.683 3.657 3.657 3.657 3.657v.002c0 .795.316 1.558.878 2.12s1.325.878 2.12.878h4.002c1.657 0 3-1.343 3-3s1.974-1.974 3.657-3.657c1.5-1.5 2.343-3.535 2.343-5.657 0-1.115 0-2.358 0-3.466 0-2.044-.893-3.985-2.444-5.315-.708-.606-1.478-1.267-2.181-1.87-1.533-1.313-3.484-2.035-5.503-2.035-.573 0-1.171 0-1.744 0-2.019 0-3.97.722-5.503 2.035-.703.603-1.473 1.264-2.181 1.87z" fill="none" stroke="#000" stroke-linecap="round" stroke-width="4"/><path d="m18 9 8 5s.864-.432 1.789-.894c1.355-.678 2.211-2.063 2.211-3.578 0-1.017 0-2.208 0-3.292 0-.693-.359-1.337-.949-1.701-.589-.365-1.325-.398-1.945-.088-3.551 1.776-9.106 4.553-9.106 4.553z" fill="#ab7314"/><g clip-path="url(#b)"><path d="m22 9s4.248-2.124 6.553-3.276c.31-.155.678-.139.973.043.295.183.474.504.474.851v8.382h-8z" fill="#d3d3d3"/></g><path d="m14 9-8 5s-.864-.432-1.789-.894c-1.355-.678-2.211-2.063-2.211-3.578 0-1.017 0-2.208 0-3.292 0-.693.359-1.337.949-1.701.589-.365 1.325-.398 1.945-.088 3.551 1.776 9.106 4.553 9.106 4.553z" fill="#ab7314"/><g clip-path="url(#c)"><path d="m10 9s-4.248-2.124-6.553-3.276c-.31-.155-.678-.139-.973.043-.295.183-.474.504-.474.851v8.382h8z" fill="#d3d3d3"/></g><path d="m7.444 7.905c-1.551 1.33-2.444 3.271-2.444 5.315v3.466c0 2.122.843 4.157 2.343 5.657 1.683 1.683 3.657 3.657 3.657 3.657v.002c0 .795.316 1.558.878 2.12s1.325.878 2.12.878h4.002c1.657 0 3-1.343 3-3s1.974-1.974 3.657-3.657c1.5-1.5 2.343-3.535 2.343-5.657 0-1.115 0-2.358 0-3.466 0-2.044-.893-3.985-2.444-5.315-.708-.606-1.478-1.267-2.181-1.87-1.533-1.313-3.484-2.035-5.503-2.035-.573 0-1.171 0-1.744 0-2.019 0-3.97.722-5.503 2.035-.703.603-1.473 1.264-2.181 1.87z" fill="#e9ae41"/><g clip-path="url(#d)"><path d="m19 21v2h2c1.105 0 2-.895 2-2l2-2h4v12h-26v-12h4l2 2v.002c0 1.103.895 1.998 1.998 1.998h2.002v-2z" fill="#f1f1f1"/></g><path d="m19 5c.552 0 1 .448 1 1s-.448 1-1 1-1-.448-1-1 .448-1 1-1z"/><path d="m13 5c.552 0 1 .448 1 1s-.448 1-1 1-1-.448-1-1 .448-1 1-1z"/><g fill="none" stroke="#000"><path d="m22 8 1 1" stroke-linecap="round" stroke-width="2"/><path d="m10 8-1 1" stroke-linecap="round" stroke-width="2"/><path d="m13 9-1 .5" stroke-linecap="round" stroke-width="2"/><path d="m19 9 1 .5" stroke-linecap="round" stroke-width="2"/></g><path d="m25 11c.552 0 1 .448 1 1s-.448 1-1 1-1-.448-1-1 .448-1 1-1z"/><path d="m7 11c.552 0 1 .448 1 1s-.448 1-1 1-1-.448-1-1 .448-1 1-1z"/><path d="m16 7c.552 0 1 .448 1 1s-.448 1-1 1-1-.448-1-1 .448-1 1-1z"/><path d="m16 4c.552 0 1 .448 1 1s-.448 1-1 1-1-.448-1-1 .448-1 1-1z"/><path d="m16 10c.552 0 1 .448 1 1s-.448 1-1 1-1-.448-1-1 .448-1 1-1z"/><path d="m11 26.5h1.292c.466 0 .925-.108 1.341-.317.881-.44 2.367-1.183 2.367-1.183s1.486.743 2.367 1.183c.416.209.875.317 1.341.317h1.292" fill="none" stroke="#000" stroke-linejoin="miter"/><path d="m13 21h6v.382c0 .379-.214.725-.553.894-.592.296-1.447.724-1.447.724v2h-2v-2s-.855-.428-1.447-.724c-.339-.169-.553-.515-.553-.894 0-.205 0-.382 0-.382z"/><path d="m20.5 15v1.292c0 .466.108.925.317 1.341.293.586.683 1.367.683 1.367" fill="none" stroke="#6f4b0d"/><path d="m11.5 15v1.292c0 .466-.108.925-.317 1.341-.293.586-.683 1.367-.683 1.367" fill="none" stroke="#6f4b0d"/><path d="m11 13c.552 0 1 .448 1 1v2s-.364 0-.838 0c-1.291 0-2.437-.826-2.846-2.051-.175-.527-.316-.949-.316-.949z"/><path d="m21 13c-.552 0-1 .448-1 1v2h.838c1.291 0 2.437-.826 2.846-2.051.175-.527.316-.949.316-.949s-1.815 0-3 0z"/><path d="m25 16 .5 1" fill="none" stroke="#000" stroke-linecap="round" stroke-width="2"/><path d="m7 16-.5 1" fill="none" stroke="#000" stroke-linecap="round" stroke-width="2"/><path d="m24 19c.552 0 1 .448 1 1s-.448 1-1 1-1-.448-1-1 .448-1 1-1z"/><path d="m8 19c.552 0 1 .448 1 1s-.448 1-1 1-1-.448-1-1 .448-1 1-1z"/><path d="m22 22c.552 0 1 .448 1 1s-.448 1-1 1-1-.448-1-1 .448-1 1-1z"/><path d="m10 22c.552 0 1 .448 1 1s-.448 1-1 1-1-.448-1-1 .448-1 1-1z"/></g></svg>