<svg clip-rule="evenodd" fill-rule="evenodd" stroke-linejoin="round" stroke-miterlimit="2" viewBox="0 0 32 32" xmlns="http://www.w3.org/2000/svg" xmlns:xlink="http://www.w3.org/1999/xlink"><clipPath id="a"><path clip-rule="evenodd" d="m0 0h32v32h-32z"/></clipPath><metadata/><path d="m0 0h32v32h-32z" fill="none"/><g clip-path="url(#a)"><path d="m26 2c0-.53-.211-1.039-.586-1.414s-.884-.586-1.414-.586c-3.832 0-12.168 0-16 0-.53 0-1.039.211-1.414.586s-.586.884-.586 1.414v28c0 .53.211 1.039.586 1.414s.884.586 1.414.586h16c.53 0 1.039-.211 1.414-.586s.586-.884.586-1.414c0-5.746 0-22.254 0-28z"/><path d="m8 2h16v28h-16z" fill="#636363"/><path d="m22 13h-12v3c0 .552.448 1 1 1h10c.552 0 1-.448 1-1 0-1.185 0-3 0-3z" fill="#454545"/><path d="m15 4h2v24h-2z" fill="#333"/><path d="m22 12c0-.552-.448-1-1-1-2.26 0-7.74 0-10 0-.552 0-1 .448-1 1v2c0 .552.448 1 1 1h10c.552 0 1-.448 1-1 0-.611 0-1.389 0-2z" fill="#191919"/></g></svg>