<svg clip-rule="evenodd" fill-rule="evenodd" stroke-linejoin="round" stroke-miterlimit="1.41421" viewBox="0 0 32 32" xmlns="http://www.w3.org/2000/svg" xmlns:xlink="http://www.w3.org/1999/xlink"><clipPath id="a"><path clip-rule="evenodd" d="m0 0h32v32h-32z"/></clipPath><metadata/><path d="m0 0h32v32h-32z" fill="none"/><g clip-path="url(#a)"><path d="m32 8c0-4.418-3.582-8-8-8-4.887 0-11.113 0-16 0-4.418 0-8 3.582-8 8v16c0 4.418 3.582 8 8 8h16c4.418 0 8-3.582 8-8 0-4.887 0-11.113 0-16z"/><path d="m30 8c0-1.591-.632-3.117-1.757-4.243-1.126-1.125-2.652-1.757-4.243-1.757-4.724 0-11.276 0-16 0-1.591 0-3.117.632-4.243 1.757-1.125 1.126-1.757 2.652-1.757 4.243v16c0 1.591.632 3.117 1.757 4.243 1.126 1.125 2.652 1.757 4.243 1.757h16c1.591 0 3.117-.632 4.243-1.757 1.125-1.126 1.757-2.652 1.757-4.243 0-4.724 0-11.276 0-16z" fill="#982eee"/><path d="m25 24h-18v-2h18zm-11-5h-7v-2h3.718c-.06-.085-.117-.172-.174-.259-.058-.093-.115-.187-.17-.283-.362-.648-.618-1.349-.746-2.081-.114-.657-.126-1.331-.036-1.991.2-1.451.9-2.813 1.964-3.82.492-.465 1.057-.854 1.669-1.145.563-.268 1.165-.453 1.782-.548.282-.044.565-.066.851-.075.142-.002.141-.002.284 0 .286.009.569.031.851.075.617.095 1.219.28 1.782.548.637.303 1.223.712 1.73 1.203.632.614 1.136 1.357 1.473 2.172.316.766.484 1.593.49 2.423.004.608-.077 1.216-.242 1.801-.2.708-.522 1.377-.944 1.98h3.718v2h-7v-1.406c.417-.413.833-.827 1.239-1.25.445-.474.787-1.033.994-1.649.202-.598.275-1.238.213-1.866-.11-1.119-.652-2.189-1.504-2.926-.387-.335-.824-.607-1.301-.795-.552-.218-1.146-.323-1.739-.31-.594.013-1.185.145-1.727.388-.458.205-.88.489-1.245.833-.637.603-1.087 1.391-1.284 2.245-.116.505-.144 1.029-.081 1.543.05.415.159.822.323 1.206.225.53.552 1.007.956 1.417l1.156 1.156z" fill="#fff"/></g></svg>