<svg clip-rule="evenodd" fill-rule="evenodd" stroke-linecap="round" stroke-miterlimit="1.5" viewBox="0 0 32 32" xmlns="http://www.w3.org/2000/svg" xmlns:xlink="http://www.w3.org/1999/xlink"><clipPath id="a"><path clip-rule="evenodd" d="m0 0h32v32h-32z"/></clipPath><metadata/><path d="m0 0h32v32h-32z" fill="none"/><g clip-path="url(#a)"><path d="m2 28h28v2h-28z" fill="none" stroke="#000" stroke-width="4"/><path d="m30.149 6.006.149.016.147.028.145.039.141.049.137.06.132.07.127.08.12.088.113.098.106.106.098.113.088.12.08.127.07.132.06.137.049.141.039.145.028.147.016.149.006.149v18l-.006.149-.016.149-.028.147-.039.145-.049.141-.06.137-.07.132-.08.127-.088.12-.098.113-.106.106-.113.098-.12.088-.127.08-.132.07-.137.06-.141.049-.145.039-.147.028-.149.016-.149.006h-26.021l-.09-.001-.102-.004-.101-.006-.101-.009-.1-.012-.1-.014-.099-.016-.098-.019-.098-.021-.096-.024-.096-.026-.095-.028-.094-.03-.092-.033-.092-.035-.09-.037-.09-.039-.088-.041-.087-.043-.086-.045-.084-.048-.083-.049-.082-.051-.081-.053-.078-.054-.078-.057-.076-.058-.075-.06-.073-.062-.072-.064-.069-.065-.069-.066-.067-.069-.065-.07-.064-.071-.061-.073-.06-.075-.059-.076-.057-.078-.054-.079-.053-.08-.051-.082-.049-.083-.048-.084-.045-.086-.043-.087-.041-.088-.04-.089-.037-.091-.035-.091-.032-.093-.031-.094-.028-.095-.026-.095-.024-.097-.021-.098-.019-.098-.016-.099-.014-.099-.012-.101-.009-.1-.006-.102-.004-.102-.002-.089v-.753-.775l.003-.772.003-.376.003-.362.003-.214.004-.213.005-.212.006-.21.007-.208.008-.207.009-.205.011-.204.011-.203.012-.2.014-.2.014-.197.016-.196.016-.195.018-.193.018-.191.019-.19.021-.189.021-.187.023-.185.023-.184.024-.182.026-.181.026-.179.027-.178.028-.176.029-.175.03-.173.031-.172.032-.17.033-.169.034-.167.034-.166.036-.164.036-.163.038-.162.038-.159.039-.159.04-.157.041-.155.042-.154.042-.152.044-.151.044-.149.045-.149.047-.146.047-.145.048-.144.048-.142.05-.141.05-.139.052-.138.052-.136.053-.135.054-.134.055-.132.055-.13.057-.129.057-.128.058-.127.059-.124.06-.124.061-.122.062-.121.062-.119.064-.117.064-.117.065-.115.066-.113.067-.112.068-.11.068-.11.07-.107.071-.106.071-.105.072-.104.074-.101.074-.101.075-.099.076-.097.077-.096.078-.094.079-.093.08-.092.081-.09.081-.088.083-.087.084-.085.085-.084.086-.082.087-.08.088-.079.088-.077.09-.075.091-.074.092-.072.093-.071.094-.068.095-.067.096-.065.097-.063.098-.061.1-.059.1-.057.1-.055.103-.054.103-.051.103-.049.105-.047.106-.045.106-.042.107-.041.109-.038.108-.036.11-.033.11-.031.111-.029.111-.026.112-.024.113-.022.113-.019.113-.016.113-.014.114-.012.114-.009.114-.006.115-.004.103-.001h22.011l.149.006zm-22.149 1.994-.07.001-.069.002-.07.004-.07.005-.069.007-.07.009-.069.01-.07.012-.069.013-.069.015-.07.016-.069.018-.068.02-.069.021-.069.022-.068.024-.069.026-.068.028-.068.028-.068.031-.068.032-.067.033-.068.036-.067.036-.067.039-.067.04-.066.041-.066.043-.066.045-.066.046-.066.048-.065.049-.065.051-.065.052-.064.054-.064.056-.064.057-.064.059-.063.06-.063.062-.062.064-.062.065-.062.067-.062.068-.061.07-.061.072-.06.073-.06.074-.06.077-.059.078-.058.079-.059.081-.058.083-.057.084-.057.086-.057.087-.056.089-.055.091-.055.092-.055.094-.054.095-.054.097-.053.099-.052.1-.053.102-.051.104-.051.105-.05.106-.05.109-.05.109-.048.112-.049.113-.047.115-.047.116-.046.118-.046.119-.045.122-.045.122-.044.125-.043.126-.042.127-.042.13-.041.13-.041.133-.04.134-.039.136-.038.137-.038.139-.037.14-.036.143-.036.143-.035.146-.034.147-.033.148-.032.151-.032.152-.031.153-.03.155-.03.157-.028.159-.028.16-.027.161-.026.164-.025.165-.024.166-.024.169-.023.169-.021.172-.021.173-.02.175-.02.176-.018.178-.017.18-.017.181-.015.183-.015.185-.013.186-.013.188-.011.19-.011.191-.01.193-.009.194-.007.197-.007.197-.006.2-.005.201-.003.203-.003.204-.003.356-.003.371-.003.766v.77.739l.001.051.002.051.003.051.005.051.006.05.007.05.008.049.009.049.011.049.012.048.013.048.014.047.015.047.016.046.018.045.018.046.02.044.02.044.022.043.022.043.024.042.024.042.026.041.026.04.028.04.028.038.03.038.03.038.031.036.032.036.032.035.034.035.034.033.035.033.036.032.037.031.037.03.038.029.039.028.04.028.04.026.041.026.041.024.043.024.042.022.044.022.044.021.044.019.045.018.046.018.046.016.047.015.047.014.048.013.048.012.049.01.049.01.049.008.05.007.05.006.051.004.051.003.051.002.051.001h26.009v-18z"/><g fill="none" stroke-linejoin="round"><path d="m19 9-6-3 6-3h1" stroke="#000" stroke-linecap="butt" stroke-width="6"/><path d="m20 4 1 1h1v-3h-3v2z" stroke="#000" stroke-width="4"/><path d="m19 9-6-3 6-3h1" stroke="#737373" stroke-linecap="square" stroke-width="2"/></g><path d="m20 4 1 1h1v-3h-3v2z" fill="#8c8c8c"/><path d="m1.991 23 1.009-1h26l1 1v3h-26.009c-1.104 0-1.999-.894-2-1.998 0-.319-.001-.658 0-1.002zm.009-2c.056-5.3 1.152-8.947 2.669-11l2.331-1h22l1 1v11l-1 1h-25-1z" fill="#e6e6e6"/><path d="m2 21h28v2h-28.009c0-.681.003-1.384.009-2z" fill="#67db40"/><path d="m30 10h-25.331c.989-1.339 2.156-2 3.331-2h22z" fill="#fff"/><path d="m29 13c0-.552-.448-1-1-1-3.014 0-11.986 0-15 0-.552 0-1 .448-1 1v7c0 .552.448 1 1 1h15c.552 0 1-.448 1-1 0-1.732 0-5.268 0-7z"/><path d="m10 12.993c0-.551-.446-.998-.997-1-.456-.001-1.026 0-1.618.007-1.619.02-3.405 3.893-3.385 6.958.002.304.002.689.002 1.043.001.552.448.999 1 .999h3.998c.265 0 .52-.105.707-.293.188-.187.293-.442.293-.707 0-1.734 0-5.278 0-7.007z"/><path d="m2 28h28v2h-28z" fill="#666"/><path d="m27.052 11.001.051.002.051.003.05.004.051.006.05.007.049.008.049.01.049.01.048.012.048.013.047.014.046.015.047.016.045.018.045.018.045.02.044.02.043.022.043.022.043.024.041.025.041.025.04.027.04.027.039.028.038.03.037.03.037.031.036.032.035.032.034.034.034.034.032.035.032.036.031.037.03.037.03.038.028.039.027.04.027.04.025.041.025.041.024.043.022.042.022.044.02.044.02.045.018.045.018.045.016.047.015.046.014.047.013.048.012.048.01.049.01.049.008.049.007.05.006.051.004.05.003.051.002.051.001.052v10l-.001.052-.002.051-.003.051-.004.05-.006.051-.007.05-.008.049-.01.049-.01.049-.012.048-.013.048-.014.047-.015.046-.016.047-.018.045-.018.045-.02.045-.02.044-.022.044-.022.042-.024.043-.025.041-.025.041-.027.04-.027.04-.028.039-.03.038-.03.037-.031.037-.032.036-.032.035-.034.034-.034.034-.035.032-.036.032-.037.031-.037.03-.038.03-.039.028-.04.027-.04.027-.041.025-.041.025-.043.024-.043.022-.043.022-.044.02-.045.02-.045.018-.045.018-.047.016-.046.015-.047.014-.048.013-.048.012-.049.01-.049.01-.049.008-.05.007-.051.006-.05.004-.051.003-.051.002-.052.001h-5l-.052-.001-.051-.002-.051-.003-.05-.004-.051-.006-.05-.007-.049-.008-.049-.01-.049-.01-.048-.012-.048-.013-.047-.014-.046-.015-.047-.016-.045-.018-.045-.018-.045-.02-.044-.02-.043-.022-.043-.022-.043-.024-.041-.025-.041-.025-.04-.027-.04-.027-.039-.028-.038-.03-.037-.03-.037-.031-.036-.032-.035-.032-.034-.034-.034-.034-.032-.035-.032-.036-.031-.037-.03-.037-.03-.038-.028-.039-.027-.04-.027-.04-.025-.041-.025-.041-.024-.043-.022-.042-.022-.044-.02-.044-.02-.045-.018-.045-.018-.045-.016-.047-.015-.046-.014-.047-.013-.048-.012-.048-.01-.049-.01-.049-.008-.049-.007-.05-.006-.051-.004-.05-.003-.051-.002-.051-.001-.052v-10l.001-.052.002-.051.003-.051.004-.05.006-.051.007-.05.008-.049.01-.049.01-.049.012-.048.013-.048.014-.047.015-.046.016-.047.018-.045.018-.045.02-.045.02-.044.022-.044.022-.042.024-.043.025-.041.025-.041.027-.04.027-.04.028-.039.03-.038.03-.037.031-.037.032-.036.032-.035.034-.034.034-.034.035-.032.036-.032.037-.031.037-.03.038-.03.039-.028.04-.027.04-.027.041-.025.041-.025.043-.024.043-.022.043-.022.044-.02.045-.02.045-.018.045-.018.047-.016.046-.015.047-.014.048-.013.048-.012.049-.01.049-.01.049-.008.05-.007.051-.006.05-.004.051-.003.051-.002.052-.001h5zm-5.046.999h-.032l-.026.001-.026.002-.025.002-.026.003-.025.004-.024.004-.025.004-.024.006-.024.006-.023.006-.024.007-.023.007-.023.008-.023.009-.022.009-.022.01-.022.01-.022.011-.021.011-.021.012-.021.012-.02.013-.02.013-.02.014-.02.014-.019.015-.019.015-.018.016-.018.016-.018.016-.017.017-.017.017-.016.018-.016.018-.016.018-.015.019-.015.019-.014.02-.014.02-.013.02-.013.02-.012.021-.012.021-.011.021-.011.022-.01.022-.01.022-.009.022-.009.023-.008.023-.007.023-.007.024-.006.023-.006.024-.006.025-.004.024-.004.024-.004.025-.003.026-.002.025-.002.026-.001.026v.032 9.988.032l.001.026.002.026.002.025.003.026.004.025.004.024.004.024.006.025.006.024.006.023.007.024.007.023.008.023.009.023.009.022.01.022.01.022.011.022.011.021.012.021.012.021.013.02.013.02.014.02.014.02.015.019.015.019.016.018.016.018.016.018.017.017.017.017.018.016.018.016.018.016.019.015.019.015.02.014.02.014.02.013.02.013.021.012.021.012.021.011.022.011.022.01.022.01.022.009.023.008.023.009.023.007.024.007.023.007.024.005.024.006.025.004.024.004.025.004.026.003.025.002.026.002.026.001h.032 4.988.032l.026-.001.026-.002.025-.002.026-.003.025-.004.024-.004.025-.004.024-.006.024-.005.023-.007.024-.007.023-.007.023-.009.023-.008.022-.009.022-.01.022-.01.022-.011.021-.011.021-.012.021-.012.02-.013.02-.013.02-.014.02-.014.019-.015.019-.015.018-.016.018-.016.018-.016.017-.017.017-.017.016-.018.016-.018.016-.018.015-.019.015-.019.014-.02.014-.02.013-.02.013-.02.012-.021.012-.021.011-.021.011-.022.01-.022.01-.022.009-.022.009-.023.008-.023.007-.023.007-.024.007-.023.005-.024.006-.024.004-.025.004-.024.004-.025.003-.026.002-.025.002-.026.001-.026v-.032-9.988-.032l-.001-.026-.002-.026-.002-.025-.003-.026-.004-.025-.004-.024-.004-.025-.006-.024-.005-.024-.007-.023-.007-.024-.007-.023-.008-.023-.009-.023-.009-.022-.01-.022-.01-.022-.011-.022-.011-.021-.012-.021-.012-.021-.013-.02-.013-.02-.014-.02-.014-.02-.015-.019-.015-.019-.016-.018-.016-.018-.016-.018-.017-.017-.017-.017-.018-.016-.018-.016-.018-.016-.019-.015-.019-.015-.02-.014-.02-.014-.02-.013-.02-.013-.021-.012-.021-.012-.021-.011-.022-.011-.022-.01-.022-.01-.022-.009-.023-.009-.023-.008-.023-.007-.024-.007-.023-.006-.024-.006-.024-.006-.025-.004-.024-.004-.025-.004-.026-.003-.025-.002-.026-.002-.026-.001h-.032z" fill="#a6a6a6"/></g></svg>