<svg clip-rule="evenodd" fill-rule="evenodd" stroke-linecap="round" stroke-linejoin="round" stroke-miterlimit="1.5" viewBox="0 0 32 32" xmlns="http://www.w3.org/2000/svg" xmlns:xlink="http://www.w3.org/1999/xlink"><clipPath id="a"><path clip-rule="evenodd" d="m0 0h32v32h-32z"/></clipPath><clipPath id="b"><path clip-rule="evenodd" d="m12 22.172c0-1.403-.492-2.763-1.391-3.841-.497-.597-1.068-1.282-1.606-1.928-1.294-1.553-2.003-3.51-2.003-5.531 0-.001 0-.001 0-.002 0-4.899 3.971-8.87 8.87-8.87h.26c4.899 0 8.87 3.971 8.87 8.87v.002c0 2.021-.709 3.978-2.003 5.531-.538.646-1.109 1.331-1.606 1.928-.899 1.078-1.391 2.438-1.391 3.841v1c0 .53-.211 1.039-.586 1.414-.59.59-1.414 1.414-1.414 1.414h-4s-.824-.824-1.414-1.414c-.375-.375-.586-.884-.586-1.414 0-.296 0-.644 0-1z"/></clipPath><clipPath id="c"><path clip-rule="evenodd" d="m12 22.172c0-1.403-.492-2.763-1.391-3.841-.497-.597-1.068-1.282-1.606-1.928-1.294-1.553-2.003-3.51-2.003-5.531 0-.001 0-.001 0-.002 0-4.899 3.971-8.87 8.87-8.87h.26c4.899 0 8.87 3.971 8.87 8.87v.002c0 2.021-.709 3.978-2.003 5.531-.538.646-1.109 1.331-1.606 1.928-.899 1.078-1.391 2.438-1.391 3.841v1c0 .53-.211 1.039-.586 1.414-.59.59-1.414 1.414-1.414 1.414h-4s-.824-.824-1.414-1.414c-.375-.375-.586-.884-.586-1.414 0-.296 0-.644 0-1z"/></clipPath><clipPath id="d"><path clip-rule="evenodd" d="m6 12h20v14h-20z"/></clipPath><metadata/><path d="m0 0h32v32h-32z" fill="none"/><g clip-path="url(#a)"><path d="m12 22.172c0-1.403-.492-2.763-1.391-3.841-.497-.597-1.068-1.282-1.606-1.928-1.294-1.553-2.003-3.51-2.003-5.531 0-.001 0-.001 0-.002 0-4.899 3.971-8.87 8.87-8.87h.26c4.899 0 8.87 3.971 8.87 8.87v.002c0 2.021-.709 3.978-2.003 5.531-.538.646-1.109 1.331-1.606 1.928-.899 1.078-1.391 2.438-1.391 3.841v1c0 .53-.211 1.039-.586 1.414-.59.59-1.414 1.414-1.414 1.414h-4s-.824-.824-1.414-1.414c-.375-.375-.586-.884-.586-1.414 0-.296 0-.644 0-1z" fill="none"/><g clip-path="url(#b)"><path d="m6 12h20v14h-20z" fill="#c8c8c8"/></g><path d="m12 22.172c0-1.403-.492-2.763-1.391-3.841-.497-.597-1.068-1.282-1.606-1.928-1.294-1.553-2.003-3.51-2.003-5.531 0-.001 0-.001 0-.002 0-4.899 3.971-8.87 8.87-8.87h.26c4.899 0 8.87 3.971 8.87 8.87v.002c0 2.021-.709 3.978-2.003 5.531-.538.646-1.109 1.331-1.606 1.928-.899 1.078-1.391 2.438-1.391 3.841v1c0 .53-.211 1.039-.586 1.414-.59.59-1.414 1.414-1.414 1.414h-4s-.824-.824-1.414-1.414c-.375-.375-.586-.884-.586-1.414 0-.296 0-.644 0-1z" fill="none" stroke="#000" stroke-width="4"/><path d="m19 25h-6v3.586c0 .265.105.519.293.707.13.13.284.284.414.414.188.188.442.293.707.293h3.172c.265 0 .519-.105.707-.293l.414-.414c.188-.188.293-.442.293-.707 0-1.023 0-3.586 0-3.586z" fill="none" stroke="#000" stroke-width="4"/><path d="m12 22.172c0-1.403-.492-2.763-1.391-3.841-.497-.597-1.068-1.282-1.606-1.928-1.294-1.553-2.003-3.51-2.003-5.531 0-.001 0-.001 0-.002 0-4.899 3.971-8.87 8.87-8.87h.26c4.899 0 8.87 3.971 8.87 8.87v.002c0 2.021-.709 3.978-2.003 5.531-.538.646-1.109 1.331-1.606 1.928-.899 1.078-1.391 2.438-1.391 3.841v1c0 .53-.211 1.039-.586 1.414-.59.59-1.414 1.414-1.414 1.414h-4s-.824-.824-1.414-1.414c-.375-.375-.586-.884-.586-1.414 0-.296 0-.644 0-1z" fill="#ededed"/><g clip-path="url(#c)"><path d="m23 14h-14v-3c0-3.866 3.134-7 7-7 3.866 0 7 3.134 7 7z" fill="#fff"/><path d="m6 12h20v14h-20z" fill="#c8c8c8"/><g clip-path="url(#d)"><path d="m9 9v2.183c0 1.804.716 3.533 1.992 4.809.266.266.533.533.781.781.786.786 1.227 1.851 1.227 2.962v3.631c0 .35.284.634.634.634h.732c.169 0 .33-.067.448-.186.119-.118.186-.28.186-.448 0-.986 0-2.93 0-4.412 0-1.274-.377-2.52-1.084-3.58-.597-.896-.916-1.949-.916-3.025 0-1.457 0-3.349 0-3.349z" fill="#fff" fill-opacity=".48"/></g></g><path d="m19 25h-6v3.586c0 .265.105.519.293.707.13.13.284.284.414.414.188.188.442.293.707.293h3.172c.265 0 .519-.105.707-.293l.414-.414c.188-.188.293-.442.293-.707 0-1.023 0-3.586 0-3.586z" fill="#7d7d7d"/><path d="m16 26.5c0-.133-.053-.26-.146-.354-.094-.093-.221-.146-.354-.146-.305 0-.695 0-1 0-.133 0-.26.053-.354.146-.093.094-.146.221-.146.354v2c0 .133.053.26.146.354.094.093.221.146.354.146h1c.133 0 .26-.053.354-.146.093-.094.146-.221.146-.354 0-.555 0-1.445 0-2z" fill="#fff" fill-opacity=".39"/></g></svg>