<svg clip-rule="evenodd" fill-rule="evenodd" stroke-linejoin="round" stroke-miterlimit="1.5" viewBox="0 0 32 32" xmlns="http://www.w3.org/2000/svg" xmlns:xlink="http://www.w3.org/1999/xlink"><clipPath id="a"><path clip-rule="evenodd" d="m0 0h32v32h-32z"/></clipPath><clipPath id="b"><path clip-rule="evenodd" d="m22 5 5 5s.339-.169.789-.394c1.355-.678 2.211-2.063 2.211-3.578 0-.344 0-.694 0-1.028 0-1.105-.895-2-2-2-.464 0-.928 0-1.292 0-.466 0-.925.108-1.341.317-1.128.564-3.367 1.683-3.367 1.683z"/></clipPath><clipPath id="c"><path clip-rule="evenodd" d="m10 5-5 5s-.339-.169-.789-.394c-1.355-.678-2.211-2.063-2.211-3.578 0-.344 0-.694 0-1.028 0-1.105.895-2 2-2h1.292c.466 0 .925.108 1.341.317 1.128.564 3.367 1.683 3.367 1.683z"/></clipPath><metadata/><path d="m0 0h32v32h-32z" fill="none"/><g clip-path="url(#a)"><g fill="none" stroke="#000" stroke-width="4"><path d="m16 30-2-2-2 2-3-3v3l-4-4-2 2v-9l-1 1s0-4.594 0-6.82c0-.776.181-1.541.528-2.236.861-1.721 2.472-4.944 2.472-4.944h-2l6-3-1-1h4.189c.537 0 1.071.087 1.581.257.889.296 2.23.743 2.23.743s1.341-.447 2.23-.743c.51-.17 1.044-.257 1.581-.257h4.189l-1 1 6 3h-2s1.611 3.223 2.472 4.944c.347.695.528 1.46.528 2.236v6.82l-1-1v9l-2-2-4 4v-3l-3 3-2-2z"/><path d="m22 5 5 5s.339-.169.789-.394c1.355-.678 2.211-2.063 2.211-3.578 0-.344 0-.694 0-1.028 0-1.105-.895-2-2-2-.464 0-.928 0-1.292 0-.466 0-.925.108-1.341.317-1.128.564-3.367 1.683-3.367 1.683z"/><path d="m10 5-5 5s-.339-.169-.789-.394c-1.355-.678-2.211-2.063-2.211-3.578 0-.344 0-.694 0-1.028 0-1.105.895-2 2-2h1.292c.466 0 .925.108 1.341.317 1.128.564 3.367 1.683 3.367 1.683z"/></g><path d="m16 30-2-2-2 2-3-3v3l-4-4-2 2v-9l-1 1s0-4.594 0-6.82c0-.776.181-1.541.528-2.236.861-1.721 2.472-4.944 2.472-4.944h-2l6-3-1-1h4.189c.537 0 1.071.087 1.581.257.889.296 2.23.743 2.23.743s1.341-.447 2.23-.743c.51-.17 1.044-.257 1.581-.257h4.189l-1 1 6 3h-2s1.611 3.223 2.472 4.944c.347.695.528 1.46.528 2.236v6.82l-1-1v9l-2-2-4 4v-3l-3 3-2-2z" fill="#865227"/><path d="m7.879 9.121c-.563.563-.879 1.326-.879 2.122v5.813c0 .621.145 1.233.422 1.789.583 1.165 1.654 3.306 2.472 4.944.678 1.355 2.063 2.211 3.578 2.211h5.056c1.515 0 2.9-.856 3.578-2.211.818-1.638 1.889-3.779 2.472-4.944.277-.556.422-1.168.422-1.789 0-1.446 0-4.207 0-5.813 0-.796-.316-1.559-.879-2.122-.666-.666-1.576-1.576-2.242-2.242-.563-.563-1.326-.879-2.122-.879-.479 0-.995 0-1.343 0-.265 0-.519.105-.707.293-.555.555-1.707 1.707-1.707 1.707s-1.152-1.152-1.707-1.707c-.188-.188-.442-.293-.707-.293-.348 0-.864 0-1.343 0-.796 0-1.559.316-2.122.879-.666.666-1.576 1.576-2.242 2.242z" fill="#cf9f5a"/><path d="m12 23 3-1 1-1 1 1 3 1" fill="none" stroke="#000" stroke-linejoin="miter"/><path d="m13 14-1-1h-1l1 1v3l1 1h1l-1-1z" fill="#a3722f"/><path d="m19 14 1-1h1l-1 1v3l-1 1h-1l1-1z" fill="#a3722f"/><path d="m13 17h6v.382c0 .379-.214.725-.553.894-.278.14-.616.308-.894.448-.339.169-.553.515-.553.894v.382h-2s0-.177 0-.382c0-.379-.214-.725-.553-.894-.278-.14-.616-.308-.894-.448-.339-.169-.553-.515-.553-.894 0-.205 0-.382 0-.382z"/><path d="m20 12c-.552 0-1 .448-1 1v1h1.764c.155 0 .308-.036.447-.106.514-.257 1.789-.894 1.789-.894 0-.552-.448-1-1-1-.611 0-1.389 0-2 0z"/><path d="m12 12c.552 0 1 .448 1 1v1s-1.235 0-1.764 0c-.155 0-.308-.036-.447-.106-.514-.257-1.789-.894-1.789-.894 0-.552.448-1 1-1z"/><path d="m22 5 5 5s.339-.169.789-.394c1.355-.678 2.211-2.063 2.211-3.578 0-.344 0-.694 0-1.028 0-1.105-.895-2-2-2-.464 0-.928 0-1.292 0-.466 0-.925.108-1.341.317-1.128.564-3.367 1.683-3.367 1.683z" fill="#cf9f5a"/><g clip-path="url(#b)"><path d="m22 9.5 5-5h2" fill="none" stroke="#a3722f"/></g><path d="m10 5-5 5s-.339-.169-.789-.394c-1.355-.678-2.211-2.063-2.211-3.578 0-.344 0-.694 0-1.028 0-1.105.895-2 2-2h1.292c.466 0 .925.108 1.341.317 1.128.564 3.367 1.683 3.367 1.683z" fill="#cf9f5a"/><g clip-path="url(#c)"><path d="m10 9.5-5-5h-2" fill="none" stroke="#a3722f"/></g></g></svg>