<svg clip-rule="evenodd" fill-rule="evenodd" stroke-linejoin="round" stroke-miterlimit="1.5" viewBox="0 0 32 32" xmlns="http://www.w3.org/2000/svg" xmlns:xlink="http://www.w3.org/1999/xlink"><clipPath id="a"><path clip-rule="evenodd" d="m21 7 5 5s.573-.382 1.219-.813c1.113-.741 1.781-1.99 1.781-3.328 0-.605 0-1.262 0-1.859 0-1.105-.895-2-2-2-.594 0-1.227 0-1.757 0-.796 0-1.559.316-2.122.879-.885.885-2.121 2.121-2.121 2.121z"/></clipPath><clipPath id="b"><path clip-rule="evenodd" d="m11 7-5 5s-.573-.382-1.219-.813c-1.113-.741-1.781-1.99-1.781-3.328 0-.605 0-1.262 0-1.859 0-1.105.895-2 2-2h1.757c.796 0 1.559.316 2.122.879.885.885 2.121 2.121 2.121 2.121z"/></clipPath><metadata/><g fill="none"><path d="m0 0h32v32h-32z"/><path d="m21 7 5 5s.573-.382 1.219-.813c1.113-.741 1.781-1.99 1.781-3.328 0-.605 0-1.262 0-1.859 0-1.105-.895-2-2-2-.594 0-1.227 0-1.757 0-.796 0-1.559.316-2.122.879-.885.885-2.121 2.121-2.121 2.121z" stroke="#000" stroke-width="4"/><path d="m11 7-5 5s-.573-.382-1.219-.813c-1.113-.741-1.781-1.99-1.781-3.328 0-.605 0-1.262 0-1.859 0-1.105.895-2 2-2h1.757c.796 0 1.559.316 2.122.879.885.885 2.121 2.121 2.121 2.121z" stroke="#000" stroke-width="4"/><path d="m6.879 10.121c-.563.563-.879 1.326-.879 2.122v3.868c0 1.242.289 2.467.845 3.578.839 1.678 2.129 4.26 3.049 6.1.678 1.355 2.063 2.211 3.578 2.211h5.056c1.515 0 2.9-.856 3.578-2.211.92-1.84 2.21-4.422 3.049-6.1.556-1.111.845-2.336.845-3.578 0-1.228 0-2.795 0-3.868 0-.796-.316-1.559-.879-2.122-1.177-1.177-3.121-3.121-3.121-3.121h-12s-1.944 1.944-3.121 3.121z" stroke="#000" stroke-linecap="round" stroke-width="4"/></g><path d="m6.879 10.121c-.563.563-.879 1.326-.879 2.122v3.868c0 1.242.289 2.467.845 3.578.839 1.678 2.129 4.26 3.049 6.1.678 1.355 2.063 2.211 3.578 2.211h5.056c1.515 0 2.9-.856 3.578-2.211.92-1.84 2.21-4.422 3.049-6.1.556-1.111.845-2.336.845-3.578 0-1.228 0-2.795 0-3.868 0-.796-.316-1.559-.879-2.122-1.177-1.177-3.121-3.121-3.121-3.121h-12s-1.944 1.944-3.121 3.121z" fill="#cf9f5a"/><path d="m12 25 3-1 1-1 1 1 3 1" fill="none" stroke="#000" stroke-linejoin="miter"/><path d="m13 16-1-1h-1l1 1v3l1 1h1l-1-1z" fill="#a3722f"/><path d="m19 16 1-1h1l-1 1v3l-1 1h-1l1-1z" fill="#a3722f"/><path d="m13 19h6v.382c0 .379-.214.725-.553.894-.278.14-.616.308-.894.448-.339.169-.553.515-.553.894v.382h-2s0-.177 0-.382c0-.379-.214-.725-.553-.894-.278-.14-.616-.308-.894-.448-.339-.169-.553-.515-.553-.894 0-.205 0-.382 0-.382z"/><path d="m20 14c-.552 0-1 .448-1 1v1h1.764c.155 0 .308-.036.447-.106.514-.257 1.789-.894 1.789-.894 0-.552-.448-1-1-1-.611 0-1.389 0-2 0z"/><path d="m12 14c.552 0 1 .448 1 1v1s-1.235 0-1.764 0c-.155 0-.308-.036-.447-.106-.514-.257-1.789-.894-1.789-.894 0-.552.448-1 1-1z"/><path d="m21 7 5 5s.573-.382 1.219-.813c1.113-.741 1.781-1.99 1.781-3.328 0-.605 0-1.262 0-1.859 0-1.105-.895-2-2-2-.594 0-1.227 0-1.757 0-.796 0-1.559.316-2.122.879-.885.885-2.121 2.121-2.121 2.121z" fill="#cf9f5a"/><g clip-path="url(#a)"><path d="m21 11.5 5-5h2" fill="none" stroke="#a3722f"/></g><path d="m11 7-5 5s-.573-.382-1.219-.813c-1.113-.741-1.781-1.99-1.781-3.328 0-.605 0-1.262 0-1.859 0-1.105.895-2 2-2h1.757c.796 0 1.559.316 2.122.879.885.885 2.121 2.121 2.121 2.121z" fill="#cf9f5a"/><g clip-path="url(#b)"><path d="m11 11.5-5-5h-2" fill="none" stroke="#a3722f"/></g></svg>