<svg clip-rule="evenodd" fill-rule="evenodd" stroke-linejoin="round" stroke-miterlimit="1.41421" viewBox="0 0 32 32" xmlns="http://www.w3.org/2000/svg" xmlns:xlink="http://www.w3.org/1999/xlink"><clipPath id="a"><path clip-rule="evenodd" d="m0 0h32v32h-32z"/></clipPath><clipPath id="b"><path clip-rule="evenodd" d="m2 6h28v20h-28z"/></clipPath><metadata/><path d="m0 0h32v32h-32z" fill="none"/><g clip-path="url(#a)"><path d="m32 6c0-.53-.211-1.039-.586-1.414s-.884-.586-1.414-.586c-5.746 0-22.254 0-28 0-.53 0-1.039.211-1.414.586s-.586.884-.586 1.414v20c0 .53.211 1.039.586 1.414s.884.586 1.414.586h28c.53 0 1.039-.211 1.414-.586s.586-.884.586-1.414c0-4.52 0-15.48 0-20z"/><path d="m2 6h28v20h-28z" fill="none"/><g clip-path="url(#b)"><path d="m1 22h30v5h-30z" fill="#84222f"/><path d="m1 19h30v4.143h-30z" fill="#cf4260"/><path d="m1 16.5h30v3.786h-30z" fill="#da84b2"/><path d="m1 14h30v3.429h-30z" fill="#fff"/><path d="m1 11h30v3.571h-30z" fill="#b64883"/><path d="m1 8h30v3.714h-30z" fill="#a43d96"/><path d="m1 5h30v3.857h-30z" fill="#811454"/></g><path d="m3.017 13.742c-.125-.071-.243-.155-.35-.251-.158-.141-.293-.308-.399-.492-.093-.16-.163-.334-.208-.514-.143-.571-.023-1.188.324-1.663.14-.193.316-.36.515-.492.067-.044.136-.082.207-.119l.319-.16.377-.941.048-.112c.057-.117.069-.147.134-.259.096-.166.208-.322.334-.466.367-.42.852-.734 1.386-.896.205-.063.415-.101.628-.12.032-.041.066-.08.1-.119.178-.193.37-.367.589-.512.438-.291.951-.462 1.476-.494.219-.014.435.001.652.032l1.538.256.419-.209c.072-.034.071-.034.145-.065.099-.038.199-.072.303-.096.104-.023.208-.037.314-.046.08-.003.159-.004.239-.001.079.006.158.013.237.027.235.041.462.124.668.245.16.094.307.21.435.344.35.367.55.862.553 1.368.001.091-.005.182-.017.271.01.006.019.011.029.017.46.27.799.722.928 1.24.045.18.065.366.059.552-.006.185-.038.37-.095.547-.074.227-.188.44-.336.628-.183.231-.413.41-.674.547l-.319.16-.377.941-.048.112c-.057.117-.069.147-.134.259-.096.166-.208.322-.334.466-.367.42-.852.734-1.386.896-.205.063-.415.101-.628.12-.032.041-.066.08-.1.119-.178.193-.37.367-.589.512-.438.291-.951.462-1.476.494-.219.014-.435-.001-.652-.032l-1.538-.256-.419.209c-.072.034-.071.034-.145.065-.074.029-.148.055-.226.076-.23.063-.471.084-.709.061-.185-.017-.367-.06-.54-.127-.173-.068-.336-.159-.484-.272-.425-.322-.707-.812-.774-1.341-.022-.169-.021-.341.001-.509z" fill="#fff"/><path d="m6.328 12.547.079.008c.636.094 1.269.211 1.903.316l.011.002c.082-.228.154-.46.23-.689.039-.107.088-.206.158-.296.173-.223.438-.365.72-.385.114-.009.223.005.334.032.217.066.431.142.647.214l.012.004c.181-.423.342-.855.513-1.282.034-.081.07-.16.114-.236.119-.21.277-.398.463-.551.094-.078.195-.144.3-.206.244-.129.493-.249.741-.372.189-.088.392-.126.6-.094.337.052.63.279.765.592.037.085.062.177.074.269.014.112.009.225-.014.335-.027.128-.08.251-.154.358-.086.126-.198.223-.327.302-.23.123-.466.235-.699.351l-.011.006c-.18.423-.342.855-.513 1.282-.075.175-.166.34-.285.489-.29.366-.707.622-1.164.716-.218.045-.437.048-.657.025l-.04-.006c-.025.054-.026.053-.054.106l-.045.078c-.079.124-.166.242-.269.348-.304.314-.708.523-1.14.588-.179.027-.357.026-.537.008-.644-.092-1.282-.224-1.927-.319-.25.085-.472.236-.709.354-.051.024-.05.024-.103.045-.143.048-.29.071-.441.056-.131-.012-.258-.051-.374-.113-.37-.198-.581-.62-.517-1.035.017-.111.053-.219.106-.318.09-.168.224-.298.385-.397.253-.135.512-.257.768-.385.187-.089.382-.154.588-.185.104-.016.208-.021.312-.022.08.002.079.002.157.007zm5.713-5.546c.189.013.368.067.525.175.093.064.175.143.241.233.248.339.255.811.017 1.157-.086.126-.198.223-.327.302-.253.135-.512.257-.768.385-.258.123-.534.197-.822.206-.105.004-.209-.003-.314-.014-.636-.094-1.269-.211-1.903-.316l-.011-.002c-.082.228-.154.46-.23.689-.039.107-.088.206-.158.296-.173.223-.438.365-.72.385-.114.009-.223-.005-.334-.032-.217-.066-.431-.142-.647-.214l-.012-.004c-.181.423-.342.855-.513 1.282-.034.081-.07.16-.114.236-.119.21-.277.398-.463.551-.094.078-.195.144-.3.206-.244.129-.493.249-.741.372-.137.064-.28.104-.432.106-.131.002-.262-.022-.384-.071-.104-.041-.201-.1-.286-.174-.071-.061-.133-.132-.184-.21-.185-.286-.212-.656-.068-.965.088-.191.232-.339.41-.448.23-.123.466-.235.699-.351l.011-.006c.18-.423.342-.855.513-1.282.075-.175.166-.34.285-.489.29-.366.707-.622 1.164-.716.218-.045.437-.048.657-.025l.04.006c.025-.054.026-.053.054-.106l.045-.078c.079-.124.166-.242.269-.348.304-.314.708-.523 1.14-.588.179-.027.357-.026.537-.008.644.092 1.282.224 1.927.319.25-.085.472-.236.709-.354.051-.024.051-.024.103-.045.072-.024.142-.041.217-.053.057-.006.111-.008.168-.007z" fill="#fa007d"/></g></svg>