<svg clip-rule="evenodd" fill-rule="evenodd" stroke-linecap="round" stroke-linejoin="round" stroke-miterlimit="1.5" viewBox="0 0 32 32" xmlns="http://www.w3.org/2000/svg" xmlns:xlink="http://www.w3.org/1999/xlink"><clipPath id="a"><path clip-rule="evenodd" d="m0 0h32v32h-32z"/></clipPath><clipPath id="b"><path clip-rule="evenodd" d="m4 18h12v11h-12z"/></clipPath><metadata/><path d="m0 0h32v32h-32z" fill="none"/><g clip-path="url(#a)"><path d="m32 8c0-4.418-3.582-8-8-8-4.887 0-11.113 0-16 0-4.418 0-8 3.582-8 8v16c0 4.418 3.582 8 8 8h16c4.418 0 8-3.582 8-8 0-4.887 0-11.113 0-16z"/><path d="m30 8c0-1.591-.632-3.117-1.757-4.243-1.126-1.125-2.652-1.757-4.243-1.757-4.724 0-11.276 0-16 0-1.591 0-3.117.632-4.243 1.757-1.125 1.126-1.757 2.652-1.757 4.243v16c0 1.591.632 3.117 1.757 4.243 1.126 1.125 2.652 1.757 4.243 1.757h16c1.591 0 3.117-.632 4.243-1.757 1.125-1.126 1.757-2.652 1.757-4.243 0-4.724 0-11.276 0-16z" fill="#334cec"/><path d="m4 18h12v11h-12z" fill="none"/><g clip-path="url(#b)"><path d="m12.5 28h-5l-3-12h11zm-6.079-10.5 2.25 9h2.658l2.25-9z" fill="#fff"/></g><path d="m13 15 3-1s1.536-1.843 2.2-2.64c.19-.228.472-.36.768-.36h5.278c.446 0 .839.296.961.725.512 1.79 1.793 6.275 1.793 6.275" fill="none" stroke="#fff" stroke-width="2"/><circle cx="21.5" cy="6.5" fill="#fff" r="2.5"/><path d="m19 10h5v9h-5z" fill="#fff"/><path d="m23 19v8" fill="none" stroke="#fff" stroke-width="2"/><path d="m20 19v8" fill="none" stroke="#fff" stroke-width="2"/><path d="m7.636 17.449 1.415-2.449 2.449 1.414-1.414 2.45z" fill="#fff"/></g></svg>