<svg clip-rule="evenodd" fill-rule="evenodd" stroke-linecap="square" stroke-linejoin="round" stroke-miterlimit="1.5" viewBox="0 0 32 32" xmlns="http://www.w3.org/2000/svg" xmlns:xlink="http://www.w3.org/1999/xlink"><clipPath id="a"><path clip-rule="evenodd" d="m0 0h32v32h-32z"/></clipPath><clipPath id="b"><circle clip-rule="evenodd" cx="10.5" cy="10.5" r="8.5"/></clipPath><clipPath id="c"><path clip-rule="evenodd" d="m16.707 3.707c-.39-.39-1.024-.39-1.414 0-2.265 2.265-9.321 9.321-11.586 11.586-.39.39-.39 1.024 0 1.414.19.19.396.396.586.586.39.39 1.024.39 1.414 0 2.265-2.265 9.321-9.321 11.586-11.586.39-.39.39-1.024 0-1.414-.19-.19-.396-.396-.586-.586z"/></clipPath><metadata/><path d="m0 0h32v32h-32z" fill="none"/><g clip-path="url(#a)"><path d="m3.585 15.441c-.998-1.393-1.585-3.099-1.585-4.941 0-4.691 3.809-8.5 8.5-8.5 1.842 0 3.548.587 4.941 1.585.389-.263.922-.222 1.266.122.19.19.396.396.586.586.344.344.385.877.122 1.266.998 1.393 1.585 3.099 1.585 4.941 0 1.986-.682 3.813-1.825 5.261l12.239 12.239-1.414 1.414-12.239-12.239c-1.448 1.143-3.275 1.825-5.261 1.825-1.842 0-3.548-.587-4.941-1.585-.389.263-.922.222-1.266-.122-.19-.19-.396-.396-.586-.586-.344-.344-.385-.877-.122-1.266z" fill="none" stroke="#000" stroke-width="4"/><path d="m19 17.586 1 1.414-1 1.414-7.414-7.414 1.414-1.414z" fill="#b0b0b0" fill-rule="nonzero"/><path d="m19 17.586 10.414 10.414-1.414 1.414-9-9z" fill="#e6e6e6" fill-rule="nonzero"/><circle cx="10.5" cy="10.5" fill="#d21b67" r="8.5"/><g clip-path="url(#b)"><circle cx="10.5" cy="10.5" fill="#be0a55" r="6.5"/><ellipse cx="10.5" cy="6" fill="#f65598" rx="4.5" ry="3"/><path d="m16.707 3.707c-.39-.39-1.024-.39-1.414 0-2.265 2.265-9.321 9.321-11.586 11.586-.39.39-.39 1.024 0 1.414.19.19.396.396.586.586.39.39 1.024.39 1.414 0 2.265-2.265 9.321-9.321 11.586-11.586.39-.39.39-1.024 0-1.414-.19-.19-.396-.396-.586-.586z" fill="#d21b67" stroke="#9b144c" stroke-linecap="butt" stroke-width="2"/></g><path d="m16.707 3.707c-.39-.39-1.024-.39-1.414 0-2.265 2.265-9.321 9.321-11.586 11.586-.39.39-.39 1.024 0 1.414.19.19.396.396.586.586.39.39 1.024.39 1.414 0 2.265-2.265 9.321-9.321 11.586-11.586.39-.39.39-1.024 0-1.414-.19-.19-.396-.396-.586-.586z" fill="#d21b67"/><g clip-path="url(#c)"><circle cx="10.5" cy="10.5" fill="#be0a55" r="7.5"/><path d="m12.572 2.894c1.168.406 2.239 1.051 3.144 1.894.005.005.011.01.016.015.199.185.314.443.319.714.004.272-.101.533-.293.725-.419.419-.957.957-1.447 1.447-.803.803-1.992 1.084-3.07.725-.654-.218-1.241-.414-1.241-.414v-6s1.371.476 2.572.894z" fill="#f65598"/></g></g></svg>