<svg clip-rule="evenodd" fill-rule="evenodd" stroke-linejoin="round" stroke-miterlimit="2" viewBox="0 0 32 32" xmlns="http://www.w3.org/2000/svg" xmlns:xlink="http://www.w3.org/1999/xlink"><clipPath id="a"><path clip-rule="evenodd" d="m0 0h32v32h-32z"/></clipPath><metadata/><path d="m0 0h32v32h-32z" fill="none"/><g clip-path="url(#a)"><path d="m16 2c8.837 0 16 7.163 16 16v1c0 7.18-5.82 13-13 13-1.972 0-4.028 0-6 0-7.18 0-13-5.82-13-13 0-.332 0-.665 0-1 0-8.837 7.163-16 16-16z"/><path d="m6.5 27.875c-2.729-2.002-4.5-5.232-4.5-8.875 0-.332 0-.665 0-1 0-7.732 6.268-14 14-14 7.732 0 14 6.268 14 14v1c0 3.643-1.771 6.873-4.5 8.875l-6 2.114c-.166.007-.332.011-.5.011-1.972 0-4.028 0-6 0-.168 0-.334-.004-.5-.011z" fill="#fbc546"/><path d="m19.5 29.989v-12.989l6 1v9.875c-1.696 1.244-3.761 2.014-6 2.114zm-7 0c-2.239-.1-4.305-.87-6-2.114v-9.875l6-1z" fill="#41b4de"/><path d="m9.649 16.063-2.856-2.856c-.39-.39-.39-1.024 0-1.414s1.024-.39 1.414 0l5.144 5.144-5.535 1.845c-.523.175-1.09-.109-1.265-.632-.174-.524.109-1.091.633-1.265zm12.702 0 2.465.822c.524.174.807.741.633 1.265-.175.523-.742.807-1.265.632l-5.535-1.845 5.144-5.144c.39-.39 1.024-.39 1.414 0s.39 1.024 0 1.414z"/><path d="m9.967 25.875c-.445-.165-.824-.487-1.059-.917-.351-.642-.323-1.424.073-2.04.15-.233.302-.469.452-.703 1.288-2.004 3.507-3.215 5.889-3.215h1.356c2.382 0 4.601 1.211 5.889 3.215.15.234.302.47.452.703.396.616.424 1.398.073 2.04-.235.43-.614.752-1.059.917-1.109-1.171-10.957-1.171-12.066 0z" fill="#722245"/><path d="m9.967 25.875c1.109-1.171 2.672-1.875 4.358-1.875h3.35c1.686 0 3.249.704 4.358 1.875-.22.081-.455.125-.696.125-3.114 0-7.56 0-10.674 0-.241 0-.476-.044-.696-.125z" fill="#ca3b8f"/></g></svg>