<svg clip-rule="evenodd" fill-rule="evenodd" stroke-linecap="round" stroke-linejoin="round" stroke-miterlimit="1.5" viewBox="0 0 32 32" xmlns="http://www.w3.org/2000/svg" xmlns:xlink="http://www.w3.org/1999/xlink"><clipPath id="a"><path clip-rule="evenodd" d="m0 0h32v32h-32z"/></clipPath><clipPath id="b"><path clip-rule="evenodd" d="m30 14c0-.53-.211-1.039-.586-1.414s-.884-.586-1.414-.586c-5.154 0-18.846 0-24 0-.53 0-1.039.211-1.414.586s-.586.884-.586 1.414v14c0 .53.211 1.039.586 1.414s.884.586 1.414.586h24c.53 0 1.039-.211 1.414-.586s.586-.884.586-1.414c0-3.463 0-10.537 0-14z"/></clipPath><metadata/><path d="m0 0h32v32h-32z" fill="none"/><g clip-path="url(#a)"><path d="m11.002 12-1.98-1.987c-1.65-1.656-1.647-4.335.005-5.988.001-.001.002-.001.002-.002.797-.796 1.878-1.244 3.005-1.242 1.127.001 2.207.451 3.002 1.25.555.558.964.969.964.969s.45-.444 1.049-1.035c1.654-1.633 4.316-1.628 5.964.011.001 0 .001 0 .001.001.801.796 1.252 1.877 1.254 3.006.001 1.129-.446 2.212-1.245 3.01l-2.006 2.007h6.983c.53 0 1.039.211 1.414.586s.586.884.586 1.414v14c0 .53-.211 1.039-.586 1.414s-.884.586-1.414.586c-5.154 0-18.846 0-24 0-.53 0-1.039-.211-1.414-.586s-.586-.884-.586-1.414c0-3.463 0-10.537 0-14 0-.53.211-1.039.586-1.414s.884-.586 1.414-.586z" fill="none" stroke="#000" stroke-width="4"/><path d="m30 14c0-.53-.211-1.039-.586-1.414s-.884-.586-1.414-.586c-5.154 0-18.846 0-24 0-.53 0-1.039.211-1.414.586s-.586.884-.586 1.414v14c0 .53.211 1.039.586 1.414s.884.586 1.414.586h24c.53 0 1.039-.211 1.414-.586s.586-.884.586-1.414c0-3.463 0-10.537 0-14z" fill="#fff"/><g clip-path="url(#b)" stroke-width="2"><path d="m2 30 14-13 14 13" fill="none" stroke="#ccc"/><path d="m2 12s7.348 6.298 11.397 9.769c1.498 1.284 3.708 1.284 5.206 0 4.049-3.471 11.397-9.769 11.397-9.769" fill="#fff" stroke="#999"/></g><path d="m16 17.017s-4.042-4.057-6.977-7.003c-1.65-1.656-1.648-4.337.006-5.99 0-.001.001-.002.002-.002.796-.797 1.877-1.243 3.003-1.242s2.206.451 3 1.249c.556.559.966.971.966.971s.448-.442 1.046-1.032c1.656-1.635 4.32-1.63 5.97.01.001.001.001.001.001.002.8.795 1.251 1.875 1.252 3.003.002 1.128-.445 2.21-1.243 3.007-2.956 2.957-7.026 7.027-7.026 7.027z" fill="#d92020"/></g></svg>