<svg clip-rule="evenodd" fill-rule="evenodd" stroke-linecap="round" stroke-linejoin="round" stroke-miterlimit="1.5" viewBox="0 0 32 32" xmlns="http://www.w3.org/2000/svg"><metadata/><path d="m0 0h32v32h-32z" fill="none"/><circle cx="16" cy="16" r="7"/><g fill="none" stroke="#000" stroke-width="4"><path d="m18 7c0-1.105-.895-2-2-2s-2 .895-2 2 .895 2 2 2 2-.895 2-2z"/><path d="m23.778 11.05c.781-.781.781-2.047 0-2.828s-2.047-.781-2.828 0-.781 2.047 0 2.828 2.047.781 2.828 0z"/><path d="m25 18c1.105 0 2-.895 2-2s-.895-2-2-2-2 .895-2 2 .895 2 2 2z"/><path d="m20.95 23.778c.781.781 2.047.781 2.828 0s.781-2.047 0-2.828-2.047-.781-2.828 0-.781 2.047 0 2.828z"/><path d="m18 25c0-1.105-.895-2-2-2s-2 .895-2 2 .895 2 2 2 2-.895 2-2z"/><path d="m11.05 23.778c.781-.781.781-2.047 0-2.828s-2.047-.781-2.828 0-.781 2.047 0 2.828 2.047.781 2.828 0z"/><path d="m7 18c1.105 0 2-.895 2-2s-.895-2-2-2-2 .895-2 2 .895 2 2 2z"/><path d="m8.222 11.05c.781.781 2.047.781 2.828 0s.781-2.047 0-2.828-2.047-.781-2.828 0-.781 2.047 0 2.828z"/></g><circle cx="16" cy="16" fill="#ef9b00" r="6"/><circle cx="16" cy="16" r="3"/><path d="m18 7c0-1.105-.895-2-2-2s-2 .895-2 2 .895 2 2 2 2-.895 2-2z" fill="#ef9b00"/><path d="m23.778 11.05c.781-.781.781-2.047 0-2.828s-2.047-.781-2.828 0-.781 2.047 0 2.828 2.047.781 2.828 0z" fill="#ef9b00"/><path d="m25 18c1.105 0 2-.895 2-2s-.895-2-2-2-2 .895-2 2 .895 2 2 2z" fill="#ef9b00"/><path d="m20.95 23.778c.781.781 2.047.781 2.828 0s.781-2.047 0-2.828-2.047-.781-2.828 0-.781 2.047 0 2.828z" fill="#ef9b00"/><path d="m18 25c0-1.105-.895-2-2-2s-2 .895-2 2 .895 2 2 2 2-.895 2-2z" fill="#ef9b00"/><path d="m11.05 23.778c.781-.781.781-2.047 0-2.828s-2.047-.781-2.828 0-.781 2.047 0 2.828 2.047.781 2.828 0z" fill="#ef9b00"/><path d="m7 18c1.105 0 2-.895 2-2s-.895-2-2-2-2 .895-2 2 .895 2 2 2z" fill="#ef9b00"/><path d="m8.222 11.05c.781.781 2.047.781 2.828 0s.781-2.047 0-2.828-2.047-.781-2.828 0-.781 2.047 0 2.828z" fill="#ef9b00"/></svg>