<svg clip-rule="evenodd" fill-rule="evenodd" stroke-linecap="round" stroke-linejoin="round" stroke-miterlimit="1.5" viewBox="0 0 32 32" xmlns="http://www.w3.org/2000/svg" xmlns:xlink="http://www.w3.org/1999/xlink"><clipPath id="a"><path clip-rule="evenodd" d="m0 0h32v32h-32z"/></clipPath><metadata/><path d="m0 0h32v32h-32z" fill="none"/><g clip-path="url(#a)"><circle cx="16" cy="16" r="16"/><circle cx="16" cy="16" fill="#4d4d4d" r="14"/><circle cx="16" cy="16" fill="#fff" r="6"/><circle cx="16" cy="16" r="1.5"/><g fill="none" stroke="#636363" stroke-width="1.5"><path d="m16 4s-.001 0-.002 0c-3.182 0-6.234 1.264-8.484 3.514s-3.514 5.302-3.514 8.484v.002"/><path d="m16 7s-.001 0-.002 0c-2.386 0-4.675.948-6.363 2.635-1.687 1.688-2.635 3.977-2.635 6.363v.002"/><path d="m16 28c6.627 0 12-5.373 12-12"/><path d="m16 25c4.971 0 9-4.029 9-9"/></g></g></svg>