<svg clip-rule="evenodd" fill-rule="evenodd" stroke-linejoin="round" stroke-miterlimit="2" viewBox="0 0 32 32" xmlns="http://www.w3.org/2000/svg" xmlns:xlink="http://www.w3.org/1999/xlink"><clipPath id="a"><path clip-rule="evenodd" d="m0 0h32v32h-32z"/></clipPath><metadata/><path d="m0 0h32v32h-32z" fill="none"/><g clip-path="url(#a)"><path d="m16 0c4.243 0 8.313 1.686 11.314 4.686 3 3.001 4.686 7.071 4.686 11.314v2c0 7.732-6.268 14-14 14-1.325 0-2.675 0-4 0-7.732 0-14-6.268-14-14v-2c0-8.837 7.163-16 16-16z"/><path d="m30 16c0-3.713-1.475-7.274-4.101-9.899-2.625-2.626-6.186-4.101-9.899-4.101-7.732 0-14 6.268-14 14v2c0 6.627 5.373 12 12 12h4c6.627 0 12-5.373 12-12z" fill="#fbc546"/><path d="m9.5 9c.954 0 1.819.382 2.45 1.001-1.081.026-1.081 6.972.001 6.998-.653.641-1.533 1.001-2.449 1.001h-.002c-1.933 0-3.5-1.567-3.5-3.5 0-.657 0-1.345 0-2.002 0-.928.369-1.817 1.025-2.473s1.545-1.025 2.473-1.025z" fill="#fff"/><path d="m11.95 10.001c.648.635 1.05 1.52 1.05 2.499v2.002c0 .928-.369 1.817-1.025 2.473-.008.008-.016.016-.024.024-1.082-.026-1.951-.911-1.951-1.999 0-.941 0-2.059 0-3 0-1.088.869-1.973 1.95-1.999z"/><path d="m20 24c0-.552-.448-1-1-1-1.537 0-4.463 0-6 0-.552 0-1 .448-1 1s.448 1 1 1h6c.552 0 1-.448 1-1z" fill="#593604"/><path d="m19.035 15c-.023-.163-.035-.33-.035-.5 0-.657 0-1.345 0-2.002 0-.928.369-1.817 1.025-2.473s1.545-1.025 2.473-1.025h.002c.954 0 1.819.382 2.45 1.001-.7.017-.947 2.937-.74 4.999z" fill="#fff"/><path d="m23 15v-3c0-1.088.869-1.973 1.95-1.999.648.635 1.05 1.52 1.05 2.499v2.002c0 .182-.014.363-.042.54l-.013-.002c-.147-.026-.296-.04-.445-.04z"/><path d="m25.5 14c.928 0 1.818.369 2.475 1.025.656.656 1.025 1.547 1.025 2.475s-.369 1.819-1.025 2.475c-.657.656-1.547 1.025-2.475 1.025-3.517 0-9.5 0-9.5 0v-2h9.5c.398 0 .779-.158 1.061-.439.281-.282.439-.663.439-1.061s-.158-.779-.439-1.061c-.282-.281-.663-.439-1.061-.439h-9.5v-2z" fill="#7e5108"/></g></svg>