<svg clip-rule="evenodd" fill-rule="evenodd" stroke-linejoin="round" stroke-miterlimit="1.5" viewBox="0 0 32 32" xmlns="http://www.w3.org/2000/svg" xmlns:xlink="http://www.w3.org/1999/xlink"><clipPath id="a"><path clip-rule="evenodd" d="m0 0h32v32h-32z"/></clipPath><clipPath id="b"><path clip-rule="evenodd" d="m20 8s.641.128 1.465.293c2.263.453 4.254 1.786 5.535 3.707s.34-2.042.624-3.743c.248-1.489.187-3.013-.179-4.477-.018-.07-.035-.141-.053-.21-.084-.337-.336-.605-.666-.711-.33-.105-.691-.032-.955.194-2.007 1.721-5.771 4.947-5.771 4.947z"/></clipPath><clipPath id="c"><path clip-rule="evenodd" d="m12 8s-.641.128-1.465.293c-2.263.453-4.254 1.786-5.535 3.707s-.34-2.042-.624-3.743c-.248-1.489-.187-3.013.179-4.477.018-.07.035-.141.053-.21.084-.337.336-.605.666-.711.33-.105.691-.032.955.194 2.007 1.721 5.771 4.947 5.771 4.947z"/></clipPath><metadata/><path d="m0 0h32v32h-32z" fill="none"/><g clip-path="url(#a)"><path d="m4.6 3.6-1.6-1.6h2l.85.85c.137.039.267.107.379.203l4.4 3.772c1.38-.54 2.861-.825 4.371-.825h2c1.51 0 2.991.285 4.371.825l4.4-3.772c.112-.096.242-.164.379-.203l.85-.85h2l-1.6 1.6.045.18c.366 1.464.427 2.988.179 4.477l-.54 3.238c1.241 1.924 1.916 4.18 1.916 6.505v2.769c0 .818-.1 1.632-.299 2.425-.294 1.179-.701 2.806-.701 2.806l-2-1v4l-4-2h-12l-4 2v-4l-2 1s-.407-1.627-.701-2.806c-.199-.793-.299-1.607-.299-2.425 0-.706 0-1.67 0-2.769 0-2.325.675-4.581 1.916-6.505l-.54-3.238c-.248-1.489-.187-3.013.179-4.477l.045-.18z" fill="none" stroke="#000" stroke-width="4"/><path d="m3 18 2-1.5h22l2 1.5v2.769c0 .818-.1 1.632-.299 2.425-.294 1.179-.701 2.806-.701 2.806l-2-1v4l-4-2h-12l-4 2v-4l-2 1s-.407-1.627-.701-2.806c-.199-.793-.299-1.607-.299-2.425 0-.706 0-1.67 0-2.769zm13.952-12h-1.952z" fill="#e3d9cb"/><path d="m20 22-4-8.146 1-2.854 1.93-1 8.07 1.367c1.295 1.952 2 4.256 2 6.633h-1.5c-.944 0-1.833.445-2.4 1.2-.19.253-.395.527-.6.8-.944 1.259-2.426 2-4 2zm-15-10.633 8.07-1.367 1.93 1 1 2.854-4 8.146h-.5c-1.574 0-3.056-.741-4-2-.205-.273-.41-.547-.6-.8-.567-.755-1.456-1.2-2.4-1.2h-1.5c0-2.377.705-4.681 2-6.633z" fill="#c5b296"/><path d="m15 6h2l1 1 1-.832c.398.067.792.154 1.179.261.314.645.834.915 1.817.66 1.286.589 2.47 1.406 3.489 2.426.57.569 1.076 1.19 1.515 1.852v.633c0 1.105-.895 2-2 2-.156 0-.313 0-.465 0-.959 0-1.854-.479-2.386-1.277-.001 0-.001 0-.001-.001-.717-1.076-1.925-1.722-3.218-1.722-.518 0-.93 0-.93 0s.138.069.342.171c1.016.508 1.658 1.547 1.658 2.683v8.146l-4 1-4-1s0-5.255 0-8.146c0-1.136.642-2.175 1.658-2.683.204-.102.342-.171.342-.171s-.412 0-.93 0c-1.293 0-2.501.646-3.218 1.722 0 .001 0 .001-.001.001-.532.798-1.427 1.277-2.386 1.277-.152 0-.309 0-.465 0-1.105 0-2-.895-2-2v-.633c.439-.662.945-1.283 1.515-1.852 1.019-1.02 2.203-1.837 3.489-2.426.728.099 1.446-.214 1.817-.66.387-.107.781-.194 1.179-.261l1 .832z" fill="#a88a5f"/><g fill="#ebe4da"><path d="m21 14c-1.657 0-3 1.343-3 3v2h1l5-4-2-1s0 0 0-.001c0-.552-.447-.999-.999-.999-.001 0-.001 0-.001 0z"/><path d="m11 14c1.657 0 3 1.343 3 3v2h-1l-5-4 2-1s0 0 0-.001c0-.552.447-.999.999-.999h.001z"/><path d="m23 16-3 3v2l1-1c1.763 0 3.3-1.2 3.728-2.91.154-.619.272-1.09.272-1.09z"/><path d="m9 16 3 3v2l-1-1c-1.763 0-3.3-1.2-3.728-2.91-.154-.619-.272-1.09-.272-1.09z"/></g><path d="m23 15h4c.265 0 .52.105.707.293.188.187.293.442.293.707v.5c0 .133-.053.26-.146.354-.094.093-.221.146-.354.146-.276 0-.5-.224-.5-.5 0-.25 0-.5 0-.5h-4z" fill="#3e2d15"/><path d="m9 15s-2.541 0-4 0c-.265 0-.52.105-.707.293-.188.187-.293.442-.293.707v.5c0 .133.053.26.146.354.094.093.221.146.354.146.276 0 .5-.224.5-.5 0-.25 0-.5 0-.5h4z" fill="#3e2d15"/><path d="m28 20c0-.552-.448-1-1-1s-1 .448-1 1v1.586c0 .265-.105.519-.293.707-.207.207-.472.472-.612.612-.061.061-.095.144-.095.23v.001c0 .2.096.388.259.505.162.117.371.149.561.086.251-.084.535-.179.812-.271.817-.272 1.368-1.037 1.368-1.897 0-.517 0-1.088 0-1.559z" fill="#3e2d15"/><path d="m4 20c0-.552.448-1 1-1s1 .448 1 1v1.586c0 .265.105.519.293.707l.612.612c.061.061.095.144.095.23v.001c0 .2-.096.388-.259.505-.162.117-.371.149-.561.086-.251-.084-.535-.179-.812-.271-.817-.272-1.368-1.037-1.368-1.897 0-.517 0-1.088 0-1.559z" fill="#3e2d15"/><path d="m22 15c-.796 0-1.559.316-2.121.879-.563.562-.879 1.325-.879 2.121v1h1.658c1.376 0 2.576-.937 2.91-2.272.225-.902.432-1.728.432-1.728s-.937 0-2 0z"/><path d="m10 15c.796 0 1.559.316 2.121.879.563.562.879 1.325.879 2.121v1s-.784 0-1.658 0c-1.376 0-2.576-.937-2.91-2.272-.225-.902-.432-1.728-.432-1.728z"/><path d="m15 9.5c0-.133-.053-.26-.146-.354-.094-.093-.221-.146-.354-.146s-.26.053-.354.146c-.093.094-.146.221-.146.354v1c0 .133.053.26.146.354.094.093.221.146.354.146s.26-.053.354-.146c.093-.094.146-.221.146-.354 0-.305 0-.695 0-1zm3 0c0-.133-.053-.26-.146-.354-.094-.093-.221-.146-.354-.146s-.26.053-.354.146c-.093.094-.146.221-.146.354v1c0 .133.053.26.146.354.094.093.221.146.354.146s.26-.053.354-.146c.093-.094.146-.221.146-.354 0-.305 0-.695 0-1z" fill="#543f20"/><path d="m17 6c.675 0 1.343.057 2 .168v.832c0 .552-.448 1-1 1s-1-.448-1-1zm-2 0v1c0 .552-.448 1-1 1s-1-.448-1-1v-.832c.657-.111 1.325-.168 2-.168zm5.179.429c.623.171 1.231.392 1.817.66-.045.511-.474.911-.996.911-.552 0-1-.448-1-1 0-.212.066-.409.179-.571zm-8.358 0c.113.162.179.359.179.571 0 .552-.448 1-1 1-.522 0-.951-.4-.996-.911.586-.268 1.194-.489 1.817-.66z" fill="#543f20"/><path d="m10 24c0 3.314 2.686 6 6 6 3.314 0 6-2.686 6-6" fill="none" stroke="#000" stroke-linejoin="miter" stroke-width="4"/><path d="m10 23h12v1c0 3.314-2.686 6-6 6-3.314 0-6-2.686-6-6 0-.604 0-1 0-1z" fill="#e3d9cb"/><path d="m9 25s.769.512 1.528 1.018c.937.626 2.095.826 3.189.553 1.085-.271 2.283-.571 2.283-.571s1.198.3 2.283.571c1.094.273 2.252.073 3.189-.553.759-.506 1.528-1.018 1.528-1.018" fill="none" stroke="#000" stroke-linejoin="miter"/><path d="m24 5 3-3h2l-4 4z" fill="#333"/><path d="m8 5-3-3h-2l4 4z" fill="#333"/><path d="m20 8s.641.128 1.465.293c2.263.453 4.254 1.786 5.535 3.707s.34-2.042.624-3.743c.248-1.489.187-3.013-.179-4.477-.018-.07-.035-.141-.053-.21-.084-.337-.336-.605-.666-.711-.33-.105-.691-.032-.955.194-2.007 1.721-5.771 4.947-5.771 4.947z" fill="#a88a5f"/><g clip-path="url(#b)"><path d="m18.541 9.529 7.729 3.821s.481-2.889.831-4.99c.236-1.414.178-2.861-.169-4.252-.001-.001-.001-.001-.001-.002-.078-.312-.312-.561-.618-.659-.307-.097-.642-.03-.886.18-2.215 1.899-6.886 5.902-6.886 5.902z" fill="#dfd4c4"/><path d="m26.443 2.812.032.002.031.002.032.003.031.004.032.005.031.007.032.007.031.008.031.009.031.011.03.011.03.012.029.013.029.014.028.015.028.016.027.017.026.017.026.018.025.019.025.02.024.02.023.021.023.022.022.023.021.023.02.024.02.025.019.025.018.026.017.026.017.027.015.028.015.028.014.028.013.029.012.03.011.03.011.03.009.031.008.032.053.21.034.138.031.138.03.138.028.138.026.139.025.139.022.139.021.139.019.14.018.14.015.14.014.14.012.14.01.14.008.141.007.14.004.141.003.141.002.141-.001.14-.003.141-.004.141-.006.141-.008.14-.01.141-.011.14-.013.141-.016.14-.016.14-.019.14-.021.14-.022.14-1.457 8.743-9.167-6.429 8.771-7.518.025-.021.026-.019.026-.019.027-.018.027-.017.027-.017.028-.015.028-.014.029-.014.029-.012.029-.012.03-.01.03-.01.03-.008.031-.008.031-.007.031-.006.031-.004.031-.004.031-.003.032-.002.031-.001h.032zm-.027 1.006-7.787 6.674 6.812 4.778 1.196-7.175.021-.13.018-.127.018-.127.015-.127.014-.128.012-.128.01-.127.009-.128.007-.128.006-.128.004-.128.002-.128.001-.128-.001-.128-.003-.128-.004-.128-.006-.128-.008-.127-.009-.128-.011-.127-.012-.128-.014-.127-.016-.127-.018-.127-.019-.127-.02-.126-.022-.127-.024-.126-.026-.125-.027-.126-.029-.125-.031-.128-.05-.2-.002-.008z" fill="#a88a5f"/></g><path d="m12 8s-.641.128-1.465.293c-2.263.453-4.254 1.786-5.535 3.707s-.34-2.042-.624-3.743c-.248-1.489-.187-3.013.179-4.477.018-.07.035-.141.053-.21.084-.337.336-.605.666-.711.33-.105.691-.032.955.194 2.007 1.721 5.771 4.947 5.771 4.947z" fill="#a88a5f"/><g clip-path="url(#c)"><path d="m13.459 9.529-7.729 3.821s-.481-2.889-.831-4.99c-.236-1.414-.178-2.861.169-4.252.001-.001.001-.001.001-.002.078-.312.312-.561.618-.659.307-.097.642-.03.886.18 2.215 1.899 6.886 5.902 6.886 5.902z" fill="#dfd4c4"/><path d="m5.62 2.813.032.002.031.003.031.004.031.004.031.006.031.007.031.008.03.008.03.01.03.01.029.012.029.012.029.014.028.014.028.015.027.017.027.017.027.018.026.019.026.019.025.021 8.771 7.518-9.167 6.429-1.457-8.743-.022-.14-.021-.14-.019-.14-.016-.14-.016-.14-.013-.141-.011-.14-.01-.141-.008-.14-.006-.141-.004-.141-.003-.141-.001-.14.002-.141.003-.141.004-.141.007-.14.008-.141.01-.14.012-.14.014-.14.015-.14.018-.14.019-.14.021-.139.022-.139.025-.139.026-.139.028-.138.03-.138.031-.138.034-.138.053-.21.008-.032.009-.031.011-.03.011-.03.012-.03.013-.029.014-.028.015-.028.015-.028.017-.027.017-.026.018-.026.019-.025.02-.025.02-.024.021-.023.022-.023.023-.022.023-.021.024-.02.025-.02.025-.019.026-.018.026-.017.027-.017.028-.016.028-.015.029-.014.029-.013.03-.012.03-.011.031-.011.031-.009.031-.008.032-.007.031-.007.032-.005.031-.004.032-.003.031-.002.032-.002h.032l.031.001zm-.044 1.007-.05.2-.031.128-.029.125-.027.126-.026.125-.024.127-.022.126-.02.126-.019.127-.018.127-.016.127-.014.127-.012.128-.011.127-.009.128-.008.127-.006.128-.004.128-.002.128-.002.128.001.128.002.128.004.128.006.128.007.128.009.128.01.127.012.128.014.128.016.127.017.127.018.127.021.131 1.196 7.174 6.812-4.778-7.787-6.674-.006-.006z" fill="#a88a5f"/></g><path d="m15 24h2v2.5h-2z"/><path d="m15.789 24.894c-1.161-.58-2.103-1.522-2.683-2.683-.065-.13-.106-.211-.106-.211s.649-.325 1.208-.604c.521-.26 1.095-.396 1.678-.396h.228c.583 0 1.157.136 1.678.396.559.279 1.208.604 1.208.604s-.041.081-.106.211c-.58 1.161-1.522 2.103-2.683 2.683-.13.065-.211.106-.211.106s-.081-.041-.211-.106z" fill="#7d4836"/><path d="m14 27s.081.041.211.106c1.126.563 2.452.563 3.578 0 .13-.065.211-.106.211-.106l-2-1z"/></g></svg>