<svg clip-rule="evenodd" fill-rule="evenodd" stroke-linejoin="round" stroke-miterlimit="5" viewBox="0 0 32 32" xmlns="http://www.w3.org/2000/svg" xmlns:xlink="http://www.w3.org/1999/xlink"><clipPath id="a"><path clip-rule="evenodd" d="m0 0h32v32h-32z"/></clipPath><metadata/><path d="m0 0h32v32h-32z" fill="none"/><g clip-path="url(#a)"><path d="m24.586 5.172 3.364-1.122-1.122 3.364 3.172 1.586-3.172 1.586 1.122 3.364-3.364-1.122-1.586 3.172-1.586-3.172-.364.122-2.55 2.55.5.5c.276.276.276.724 0 1-.276.276-.724.276-1 0l-.5-.5-12.793 12.793c-.187.187-.442.293-.707.293s-.52-.106-.707-.293c-.19-.19-.396-.396-.586-.586-.187-.187-.293-.442-.293-.707s.106-.52.293-.707l12.793-12.793-.5-.5c-.276-.276-.276-.724 0-1 .276-.276.724-.276 1 0l.5.5 2.55-2.55.122-.364-3.172-1.586 3.172-1.586-1.122-3.364 3.364 1.122 1.586-3.172z" fill="#8e8e8e" stroke="#000" stroke-width="4"/><path d="m3 27v2h2l11-11v-2h-2z" fill="#6e4d31"/><path d="m14 16 2 2 6-6-2-2z" fill="#647982"/><path d="m24.586 5.172 3.364-1.122-1.122 3.364 3.172 1.586-3.172 1.586 1.122 3.364-3.364-1.122-1.586 3.172-1.586-3.172-3.364 1.122 1.122-3.364-3.172-1.586 3.172-1.586-1.122-3.364 3.364 1.122 1.586-3.172zm-2.829.828-1.757 1.757v2.486l1.757 1.757h2.486l1.757-1.757v-2.486l-1.757-1.757z" fill="#9faeb5"/><circle cx="23" cy="9" fill="#d8e3e5" r="4"/><g fill="#9faeb5"><circle cx="23" cy="9" r="2"/><path d="m15 14c-.276-.276-.276-.724 0-1 .276-.276.724-.276 1 0l3 3c.276.276.276.724 0 1-.276.276-.724.276-1 0-.768-.768-2.232-2.232-3-3z"/><path d="m4.707 29.293c-.187.187-.442.293-.707.293s-.52-.106-.707-.293c-.19-.19-.396-.396-.586-.586-.187-.187-.293-.442-.293-.707s.106-.52.293-.707c.165-.165.293-.293.293-.293l2 2s-.128.128-.293.293z"/></g></g></svg>