<svg clip-rule="evenodd" fill-rule="evenodd" stroke-linecap="round" stroke-linejoin="round" stroke-miterlimit="1.5" viewBox="0 0 32 32" xmlns="http://www.w3.org/2000/svg" xmlns:xlink="http://www.w3.org/1999/xlink"><clipPath id="a"><path clip-rule="evenodd" d="m0 0h32v32h-32z"/></clipPath><metadata/><path d="m0 0h32v32h-32z" fill="none"/><g clip-path="url(#a)"><path d="m2 28 2 2 11-11s5.818-6.545 7.531-8.472c.263-.297.25-.747-.03-1.027-.001-.001-.001-.001-.002-.002-.28-.28-.73-.293-1.027-.03-1.927 1.713-8.472 7.531-8.472 7.531l-11 11z" fill="#715845" stroke="#000" stroke-width="4"/><path d="m23 16 2-5 5-2-5-2-2-5-2 5-5 2 5 2z" fill="#fdef24" stroke="#000" stroke-width="4"/><path d="m23 16 2-5 5-2-5-2-2-5-2 5-5 2 5 2z" fill="#fdef24"/><path d="m2 28 2 2 11-11s5.818-6.545 7.531-8.472c.263-.297.25-.747-.03-1.027-.001-.001-.001-.001-.002-.002-.28-.28-.73-.293-1.027-.03-1.927 1.713-8.472 7.531-8.472 7.531l-11 11z" fill="#715845"/></g></svg>