<svg clip-rule="evenodd" fill-rule="evenodd" stroke-linecap="round" stroke-miterlimit="1.5" viewBox="0 0 32 32" xmlns="http://www.w3.org/2000/svg" xmlns:xlink="http://www.w3.org/1999/xlink"><clipPath id="a"><path clip-rule="evenodd" d="m0 0h32v32h-32z"/></clipPath><clipPath id="b"><path clip-rule="evenodd" d="m13 13h-7c-.53 0-1.039.211-1.414.586s-.586.884-.586 1.414v7c0 .53.211 1.039.586 1.414s.884.586 1.414.586h7l1-1v-9z"/></clipPath><clipPath id="c"><path clip-rule="evenodd" d="m13 13h3v11h-3z"/></clipPath><metadata/><path d="m0 0h32v32h-32z" fill="none"/><g clip-path="url(#a)"><path d="m14 23h4v7h-4z" fill="none" stroke="#000" stroke-width="4"/><path d="m18 6v-3c0-.552.448-1 1-1h4c.265 0 .52.105.707.293.188.187.293.442.293.707v2c0 .552-.448 1-1 1 3.866 0 7 3.134 7 7v11h-28v-11c0-3.866 3.134-7 7-7z" fill="none" stroke="#000" stroke-linejoin="round" stroke-width="4"/><path d="m14 20h4v10h-4z" fill="#595959"/><path d="m30 13c0-1.857-.738-3.637-2.05-4.95-1.313-1.313-3.094-2.05-4.95-2.05-6.108 0-14 0-14 0l7 18h14z" fill="#b9b9b9"/><path d="m18 16h3v-10h2c.552 0 1-.448 1-1 0-.611 0-1.389 0-2 0-.265-.105-.52-.293-.707-.187-.188-.442-.293-.707-.293-1.11 0-2.89 0-4 0-.552 0-1 .448-1 1z" fill="#e02a33"/><path d="m6 24h-4v-11c0-3.866 3.134-7 7-7 1.291 0 2.501.35 3.5.971-.627 3.051-6.5 17.029-6.5 17.029z" fill="#333"/><path d="m12.5 6.971c2.11 1.204 3.5 3.454 3.5 6.029l-7 5.121v-5.121c0-2.575 1.39-4.825 3.5-6.029z" fill="#262626"/><path d="m13 13h-7c-.53 0-1.039.211-1.414.586s-.586.884-.586 1.414v7c0 .53.211 1.039.586 1.414s.884.586 1.414.586h7l1-1v-9z" fill="#fff"/><g clip-path="url(#b)" stroke-linejoin="round" stroke-width="2"><path d="m4 24 8-7.944 8 7.944" fill="none" stroke="#ccc"/><path d="m4 13s3.603 3.303 5.973 5.475c1.147 1.051 2.907 1.051 4.054 0 2.37-2.172 5.973-5.475 5.973-5.475" fill="#fff" stroke="#999"/></g><path d="m13 13h3v11h-3z" fill="#bfbfbf"/><g clip-path="url(#c)" stroke-linejoin="round" stroke-width="2"><path d="m4 24 8-7.944 8 7.944" fill="none" stroke="#969696"/><path d="m4 13s3.603 3.303 5.973 5.475c1.147 1.051 2.907 1.051 4.054 0 2.37-2.172 5.973-5.475 5.973-5.475" fill="#bfbfbf" stroke="#717171"/></g></g></svg>