<svg clip-rule="evenodd" fill-rule="evenodd" stroke-linecap="round" stroke-linejoin="round" stroke-miterlimit="2" viewBox="0 0 32 32" xmlns="http://www.w3.org/2000/svg" xmlns:xlink="http://www.w3.org/1999/xlink"><clipPath id="a"><path clip-rule="evenodd" d="m0 0h32v32h-32z"/></clipPath><metadata/><path d="m0 0h32v32h-32z" fill="none"/><g clip-path="url(#a)"><path d="m9 9h10v8h-10z"/><path d="m7 13c0-3.863 3.137-7 7-7 1.275 0 2.47.341 3.5.938v-4.938h8.5v10.5h-3v-3.379l-2.202 2.203c.132.537.202 1.098.202 1.676v2c0 2.945-1.822 5.467-4.399 6.5h2.399v5h-3.5v3.5h-3v-3.5h-3.5v-5h2.399c-2.577-1.033-4.399-3.555-4.399-6.5v-2zm10.874 1c-.445-1.724-2.012-3-3.874-3s-3.429 1.276-3.874 3c.445 1.724 2.012 3 3.874 3s3.429-1.276 3.874-3zm1.005-7h-1.274c.262.158.513.332.751.522z" fill="none" stroke="#000" stroke-width="4"/><path d="m15.5 30h-3v-2l1-1.5h-4.5v-3h3.5v-1.661c-3.144-.688-5.5-3.49-5.5-6.839 0-3.863 3.137-7 7-7 1.646 0 3.161.57 4.356 1.522l2.523-2.522h-3.379v-2l1-1h6.5l1 6.5v2h-3v-2l1-2.379-3.742 3.742c.182.362.334.742.452 1.137h.29v2c0 3.349-2.356 6.151-5.5 6.839v1.661h3.5v3h-4.5l1 1.5zm-1.5-19c2.208 0 4 1.792 4 4s-1.792 4-4 4-4-1.792-4-4 1.792-4 4-4z" fill="#747474"/><path d="m7 13h3v2h-3z" fill="#747474"/><circle cx="14" cy="13" fill="none" r="5.5" stroke="#fff" stroke-width="3"/><path d="m23.5 4.5-5 5" fill="none" stroke="#fff" stroke-linecap="butt" stroke-width="3"/><path d="m26 10.5h-3v-5.5h-5.5v-3h8.5z" fill="#fff"/><g fill="none" stroke="#fff" stroke-linecap="butt" stroke-width="3"><path d="m14 17.911v10.089"/><path d="m19 23h-10"/></g></g></svg>