<svg clip-rule="evenodd" fill-rule="evenodd" stroke-linecap="round" stroke-linejoin="round" stroke-miterlimit="2" viewBox="0 0 32 32" xmlns="http://www.w3.org/2000/svg"><metadata/><path d="m0 0h32v32h-32z" fill="none"/><path d="m8.5 15h10v8h-10z"/><path d="m27.5 16h-3v-4.379l-3.293 3.293c.509 1.09.793 2.305.793 3.586v2c0 4.691-3.809 8.5-8.5 8.5s-8.5-3.809-8.5-8.5v-2c0-4.691 3.809-8.5 8.5-8.5 1.804 0 3.478.563 4.855 1.524l2.024-2.024h-2.379v-5h9.5zm-8.591 3.5c-.471-2.559-2.715-4.5-5.409-4.5s-4.938 1.941-5.409 4.5c.471 2.559 2.715 4.5 5.409 4.5s4.938-1.941 5.409-4.5z" fill="none" stroke="#000" stroke-width="4"/><path d="m22 18.5v2c0 4.691-3.809 8.5-8.5 8.5s-8.5-3.809-8.5-8.5v-2h.237c.9-3.728 4.261-6.5 8.263-6.5 1.804 0 3.478.563 4.855 1.524l4.024-4.024h-4.379v-3h9.5v9.5h-3v-4.379l-4.024 4.024c.594.851 1.036 1.816 1.287 2.855zm-8.5-3.5c3.036 0 5.5 2.464 5.5 5.5s-2.464 5.5-5.5 5.5-5.5-2.464-5.5-5.5 2.464-5.5 5.5-5.5z" fill="#747474"/><path d="m27.5 14h-3v-4.379l-4.024 4.024c.961 1.377 1.524 3.051 1.524 4.855 0 4.691-3.809 8.5-8.5 8.5s-8.5-3.809-8.5-8.5 3.809-8.5 8.5-8.5c1.804 0 3.478.563 4.855 1.524l4.024-4.024h-4.379v-3h9.5zm-14-1c3.036 0 5.5 2.464 5.5 5.5s-2.464 5.5-5.5 5.5-5.5-2.464-5.5-5.5 2.464-5.5 5.5-5.5z" fill="#fff"/></svg>