<svg clip-rule="evenodd" fill-rule="evenodd" stroke-linecap="round" stroke-linejoin="round" stroke-miterlimit="1.5" viewBox="0 0 32 32" xmlns="http://www.w3.org/2000/svg" xmlns:xlink="http://www.w3.org/1999/xlink"><clipPath id="a"><path clip-rule="evenodd" d="m0 0h32v32h-32z"/></clipPath><clipPath id="b"><path clip-rule="evenodd" d="m6.195 5.222c-.114.454.103.927.522 1.137 1.383.691 4.283 2.141 4.283 2.141s-.066.132-.165.329c-.221.443-.61.78-1.08.937s-.983.12-1.426-.101c0-.001 0-.001 0-.001-.285-.142-.623-.127-.894.04-.27.168-.435.463-.435.781v5.515h-.001c-1.194 0-2.254-.764-2.631-1.897-.354-1.061-.779-2.335-1.06-3.179-.204-.612-.308-1.253-.308-1.898 0-2.132 0-7.026 0-7.026h4s-.515 2.058-.805 3.222z"/></clipPath><clipPath id="c"><path clip-rule="evenodd" d="m25.805 5.222c.114.454-.103.927-.522 1.137-1.383.691-4.283 2.141-4.283 2.141s.066.132.165.329c.221.443.61.78 1.08.937s.983.12 1.426-.101c0-.001 0-.001 0-.001.285-.142.623-.127.894.04.27.168.435.463.435.781v5.515h.001c1.194 0 2.254-.764 2.631-1.897.354-1.061.779-2.335 1.06-3.179.204-.612.308-1.253.308-1.898 0-2.132 0-7.026 0-7.026h-4s.515 2.058.805 3.222z"/></clipPath><metadata/><path d="m0 0h32v32h-32z" fill="none"/><g clip-path="url(#a)"><path d="m24 13c0-4.418-3.582-8-8-8-4.418 0-8 3.582-8 8v3c0 4.418 3.582 8 8 8 4.418 0 8-3.582 8-8z" fill="#808080" stroke="#000" stroke-width="4"/><path d="m22.162 24.002.162.004.16.008.16.012.16.014.158.017.158.021.157.024.155.026.155.03.154.032.153.036.151.038.151.042.149.044.148.047.147.049.146.053.144.055.142.058.142.06.14.063.138.066.137.068.136.071.134.073.132.076.131.078.129.08.127.083.126.085.124.087.122.09.12.092.119.094.117.096.114.099.113.1.111.103.109.104.107.107.105.109.103.11.101.113.099.114.096.117.095.118.092.12.09.122.088.124.085.125.083.127.081.129.079.13.076.132.073.134.071.135.069.137.066.138.064.14.061.141.058.143.055.144 1.024 2.811h-29.027l1.022-2.811.055-.144.059-.142.06-.141.064-.14.066-.138.069-.137.071-.135.073-.134.076-.132.079-.131.08-.128.084-.128.085-.125.088-.124.09-.121.092-.121.094-.118.097-.116.099-.115.101-.112.102-.111.105-.109.107-.106.109-.105.111-.103.113-.1.115-.098.117-.097.118-.094.12-.092.123-.089.123-.088.126-.085.127-.083.129-.08.131-.078.133-.076.133-.073.136-.071.137-.068.138-.066.14-.063.142-.06.142-.058.145-.055.145-.053.147-.049.148-.047.149-.044.151-.042.151-.038.153-.036.154-.032.155-.03.155-.026.157-.024.158-.021.158-.017.16-.014.16-.012.16-.008.162-.004.152-.002h12.022zm-12.154 3.998h-.001 11.984-.001z"/><path d="m21.807 26h.193c2.612 0 4.834 1.669 5.657 4h-23.315c.822-2.331 3.044-4 5.656-4h.195c1.458 1.539 10.156 1.539 11.614 0z" fill="#999"/><path d="m21.807 26c-1.458 1.539-3.521 2.5-5.807 2.5s-4.349-.961-5.807-2.5z" fill="#8debcf"/><path d="m24 13c0-4.418-3.582-8-8-8-4.418 0-8 3.582-8 8v3c0 4.418 3.582 8 8 8 4.418 0 8-3.582 8-8z" fill="#8debcf"/><path d="m25 9h-4.5c-.828 0-1.5.672-1.5 1.5s.672 1.5 1.5 1.5h4.5z" fill="#4fc0ae"/><path d="m7 9h4.5c.828 0 1.5.672 1.5 1.5s-.672 1.5-1.5 1.5c-1.777 0-4.5 0-4.5 0z" fill="#4fc0ae"/><g fill="none" stroke="#000"><path d="m18 14 2 1.5 2-1.5" stroke-linejoin="miter" stroke-width="2"/><path d="m10 14 2 1.5 2-1.5" stroke-linejoin="miter" stroke-width="2"/><path d="m6.195 5.222c-.114.454.103.927.522 1.137 1.383.691 4.283 2.141 4.283 2.141s-.066.132-.165.329c-.221.443-.61.78-1.08.937s-.983.12-1.426-.101c0-.001 0-.001 0-.001-.285-.142-.623-.127-.894.04-.27.168-.435.463-.435.781v5.515h-.001c-1.194 0-2.254-.764-2.631-1.897-.354-1.061-.779-2.335-1.06-3.179-.204-.612-.308-1.253-.308-1.898 0-2.132 0-7.026 0-7.026h4s-.515 2.058-.805 3.222z" stroke-linecap="butt" stroke-miterlimit="2" stroke-width="4"/><path d="m25.805 5.222c.114.454-.103.927-.522 1.137-1.383.691-4.283 2.141-4.283 2.141s.066.132.165.329c.221.443.61.78 1.08.937s.983.12 1.426-.101c0-.001 0-.001 0-.001.285-.142.623-.127.894.04.27.168.435.463.435.781v5.515h.001c1.194 0 2.254-.764 2.631-1.897.354-1.061.779-2.335 1.06-3.179.204-.612.308-1.253.308-1.898 0-2.132 0-7.026 0-7.026h-4s.515 2.058.805 3.222z" stroke-linecap="butt" stroke-miterlimit="2" stroke-width="4"/><path d="m6.015 5.939c-.01.04-.028.078-.053.111-.001.002-.002.003-.003.004-.424.566-1.164.797-1.835.574-.671-.224-1.124-.852-1.124-1.56 0-1.645 0-3.068 0-3.068h4s-.859 3.437-.985 3.939z" stroke-linecap="butt" stroke-linejoin="miter" stroke-miterlimit="3" stroke-width="4"/><path d="m25.982 5.929c.012.047.02.095.025.143.037.365.205 2.052.394 3.936.06.604.535 1.085 1.139 1.152.603.067 1.172-.297 1.364-.873.001-.002.002-.004.003-.007.061-.185.093-.38.093-.576 0-1.446 0-7.704 0-7.704h-4s.849 3.394.982 3.929z" stroke-linecap="butt" stroke-linejoin="miter" stroke-miterlimit="3" stroke-width="4"/></g><path d="m6.195 5.222c-.114.454.103.927.522 1.137 1.383.691 4.283 2.141 4.283 2.141s-.066.132-.165.329c-.221.443-.61.78-1.08.937s-.983.12-1.426-.101c0-.001 0-.001 0-.001-.285-.142-.623-.127-.894.04-.27.168-.435.463-.435.781v5.515h-.001c-1.194 0-2.254-.764-2.631-1.897-.354-1.061-.779-2.335-1.06-3.179-.204-.612-.308-1.253-.308-1.898 0-2.132 0-7.026 0-7.026h4s-.515 2.058-.805 3.222z" fill="#808080"/><g clip-path="url(#b)"><path d="m6.5 18-2-8" fill="none" stroke="#656565" stroke-linecap="butt" stroke-linejoin="miter" stroke-miterlimit="2"/><path d="m10 9-8 2v-4h8z" fill="#808080"/></g><path d="m25.805 5.222c.114.454-.103.927-.522 1.137-1.383.691-4.283 2.141-4.283 2.141s.066.132.165.329c.221.443.61.78 1.08.937s.983.12 1.426-.101c0-.001 0-.001 0-.001.285-.142.623-.127.894.04.27.168.435.463.435.781v5.515h.001c1.194 0 2.254-.764 2.631-1.897.354-1.061.779-2.335 1.06-3.179.204-.612.308-1.253.308-1.898 0-2.132 0-7.026 0-7.026h-4s.515 2.058.805 3.222z" fill="#808080"/><g clip-path="url(#c)"><path d="m25.5 18 2-8" fill="none" stroke="#666" stroke-linecap="butt" stroke-linejoin="miter" stroke-miterlimit="2"/><path d="m22 9 8 2v-4h-8z" fill="#808080"/></g></g></svg>