<svg clip-rule="evenodd" fill-rule="evenodd" stroke-linejoin="round" stroke-miterlimit="2" viewBox="0 0 32 32" xmlns="http://www.w3.org/2000/svg" xmlns:xlink="http://www.w3.org/1999/xlink"><clipPath id="a"><path clip-rule="evenodd" d="m0 0h32v32h-32z"/></clipPath><metadata/><path d="m0 0h32v32h-32z" fill="none"/><g clip-path="url(#a)"><path d="m27 5v-1c0-.53-.211-1.039-.586-1.414s-.884-.586-1.414-.586-1.039.211-1.414.586-.586.884-.586 1.414v3l-16 16h-3.002c-1.103 0-1.998.895-1.998 1.998v.004c0 1.103.895 1.998 1.998 1.998h1.002v1.002c0 1.103.895 1.998 1.998 1.998h.004c1.103 0 1.998-.895 1.998-1.998 0-1.393 0-3.002 0-3.002l16-16h3c.53 0 1.039-.211 1.414-.586s.586-.884.586-1.414c0-.001 0-.001 0-.002 0-1.103-.895-1.998-1.998-1.998-.552 0-1.002 0-1.002 0z"/><path d="m12.464 7.536c1.953-1.953 5.119-1.953 7.072 0 1.554 1.554 3.374 3.374 4.928 4.928 1.953 1.953 1.953 5.119 0 7.072-1.554 1.554-3.374 3.374-4.928 4.928-1.953 1.953-5.119 1.953-7.072 0-1.554-1.554-3.374-3.374-4.928-4.928-1.953-1.953-1.953-5.119 0-7.072z"/><path d="m21 6.168c0-.755-.008-1.511.001-2.267.016-.427.089-.847.233-1.25.21-.586.558-1.12 1.008-1.549.38-.361.829-.645 1.318-.834.43-.166.881-.25 1.341-.267.099-.001.099-.001.198 0 .427.016.847.089 1.25.233.898.322 1.663.966 2.133 1.797.19.336.326.696.416 1.071.086.021.086.021.172.043.156.046.31.097.461.159.362.15.701.354 1.004.602.789.646 1.309 1.589 1.435 2.601.044.359.04.725-.014 1.084-.057.386-.172.765-.339 1.118-.196.415-.464.795-.789 1.12-.347.347-.758.629-1.207.828-.508.225-1.054.336-1.609.343h-2.183l.113.114c.588.611 1.076 1.319 1.41 2.101.222.518.385 1.059.479 1.615.206 1.22.084 2.488-.352 3.644-.224.594-.53 1.156-.905 1.667-.176.239-.367.464-.57.68-1.674 1.738-3.401 3.425-5.118 5.121-.611.588-1.319 1.076-2.101 1.41-.518.222-1.059.385-1.615.479-1.219.206-2.488.084-3.644-.352-.594-.224-1.156-.53-1.667-.905-.239-.176-.464-.367-.68-.57-.06-.057-.119-.115-.179-.172 0 .757.009 1.515-.001 2.272-.007.169-.019.337-.045.504-.06.391-.178.772-.349 1.128-.167.347-.385.67-.644.955-.28.307-.607.571-.967.778-.864.497-1.902.652-2.874.433-.445-.1-.872-.277-1.257-.521-.417-.263-.785-.604-1.078-1.001-.328-.442-.555-.947-.683-1.481-.066-.015-.132-.033-.197-.051-.158-.047-.313-.099-.464-.163-.356-.15-.689-.353-.987-.599-.32-.264-.599-.578-.823-.928-.193-.3-.345-.627-.451-.968-.296-.951-.222-1.999.203-2.899.196-.415.464-.795.788-1.12.348-.347.759-.629 1.209-.828.507-.225 1.053-.336 1.608-.343h2.183l-.113-.114c-.588-.611-1.076-1.319-1.411-2.101-.221-.518-.384-1.059-.478-1.615-.206-1.219-.084-2.488.352-3.644.224-.594.53-1.156.905-1.667.176-.238.367-.464.57-.68 1.673-1.739 3.401-3.425 5.118-5.121.278-.267.572-.514.888-.734.704-.491 1.499-.849 2.333-1.053.327-.08.66-.136.995-.168.167-.016.335-.024.502-.03.168-.002.168-.002.336 0 .167.006.335.014.502.03.335.032.668.088.995.168.834.204 1.629.562 2.333 1.053.291.203.564.429.823.672.06.057.119.115.179.172z"/><path d="m27 5v-1c0-.53-.211-1.039-.586-1.414s-.884-.586-1.414-.586-1.039.211-1.414.586-.586.884-.586 1.414v3l-16 16h-3.002c-1.103 0-1.998.895-1.998 1.998v.004c0 1.103.895 1.998 1.998 1.998h1.002v1.002c0 1.103.895 1.998 1.998 1.998h.004c1.103 0 1.998-.895 1.998-1.998 0-1.393 0-3.002 0-3.002l16-16h3c.53 0 1.039-.211 1.414-.586s.586-.884.586-1.414c0-.001 0-.001 0-.002 0-1.103-.895-1.998-1.998-1.998-.552 0-1.002 0-1.002 0z" fill="#d9d9d9"/><path d="m12.464 7.536c1.953-1.953 5.119-1.953 7.072 0 1.554 1.554 3.374 3.374 4.928 4.928 1.953 1.953 1.953 5.119 0 7.072-1.554 1.554-3.374 3.374-4.928 4.928-1.953 1.953-5.119 1.953-7.072 0-1.554-1.554-3.374-3.374-4.928-4.928-1.953-1.953-1.953-5.119 0-7.072z" fill="#a25914"/></g></svg>