<svg clip-rule="evenodd" fill-rule="evenodd" stroke-linejoin="round" stroke-miterlimit="2" viewBox="0 0 32 32" xmlns="http://www.w3.org/2000/svg" xmlns:xlink="http://www.w3.org/1999/xlink"><clipPath id="a"><path clip-rule="evenodd" d="m0 0h32v32h-32z"/></clipPath><metadata/><path d="m0 0h32v32h-32z" fill="none"/><g clip-path="url(#a)"><path d="m10.251 16.921c-.016-.115-.027-.231-.032-.347-.016-.347.018-.69.085-1.03.571-2.451 1.207-4.887 1.831-7.326.268-1.007.668-1.974 1.203-2.869.656-1.095 1.504-2.074 2.494-2.88 1.048-.852 2.251-1.509 3.535-1.928.728-.237 1.48-.398 2.241-.479.349-.037.7-.056 1.051-.061.151-.001.302-.001.453 0 .334.006.666.026.998.068.656.081 1.302.235 1.925.458 1.459.523 2.772 1.425 3.784 2.599.815.946 1.429 2.062 1.792 3.256.182.599.301 1.216.355 1.839.029.335.035.671.034 1.007-.002.889-.108 1.776-.321 2.638-.344 1.388-.961 2.705-1.806 3.859-.843 1.15-1.909 2.133-3.125 2.878-.62.38-1.278.698-1.961.948-.33.121-.665.224-1.005.314-2.401.615-4.809 1.203-7.214 1.805-.249.058-.5.098-.756.11-.245.013-.49.002-.733-.031l-4.079 4.079c0 .757.008 1.514-.001 2.271-.006.165-.018.329-.043.492-.062.419-.192.827-.382 1.206-.177.351-.405.676-.676.96-.703.739-1.681 1.188-2.7 1.238-.361.018-.725-.013-1.078-.093-.445-.1-.872-.277-1.257-.521-.417-.263-.784-.604-1.078-1.001-.328-.443-.555-.947-.683-1.482-.086-.021-.086-.021-.172-.043-.156-.046-.31-.097-.461-.159-.362-.15-.701-.354-1.004-.602-.306-.25-.574-.546-.793-.875-.547-.821-.774-1.834-.628-2.81.057-.387.172-.765.339-1.118.196-.415.464-.795.788-1.119.348-.348.759-.63 1.209-.829.507-.225 1.053-.336 1.608-.343h2.184z"/><path d="m5 27v1.002c0 1.103.895 1.998 1.998 1.998h.002c.53 0 1.039-.211 1.414-.586s.586-.884.586-1.414c0-1.392 0-3 0-3l8-8-2-2-8 8h-3c-.53 0-1.039.211-1.414.586s-.586.884-.586 1.414.211 1.039.586 1.414.884.586 1.414.586z" fill="#d9d9d9"/><path d="m16.099 19.725c-.682.171-1.403-.029-1.9-.526-.433-.433-.965-.965-1.398-1.398-.497-.497-.697-1.218-.526-1.9.378-1.512 1.089-4.358 1.771-7.084 1.001-4.006 4.601-6.817 8.731-6.817h.223c1.857 0 3.637.737 4.95 2.05s2.05 3.093 2.05 4.95v.223c0 4.13-2.811 7.73-6.817 8.731-2.726.682-5.572 1.393-7.084 1.771z" fill="#a25914"/></g></svg>