<svg clip-rule="evenodd" fill-rule="evenodd" stroke-linejoin="round" stroke-miterlimit="1.41421" viewBox="0 0 32 32" xmlns="http://www.w3.org/2000/svg" xmlns:xlink="http://www.w3.org/1999/xlink"><clipPath id="a"><path clip-rule="evenodd" d="m0 0h32v32h-32z"/></clipPath><clipPath id="b"><path clip-rule="evenodd" d="m21 30c0-2.761-2.239-5-5-5-1.911 0-4.089 0-6 0-2.761 0-5 2.239-5 5z"/></clipPath><clipPath id="c"><path clip-rule="evenodd" d="m11 24h4v7h-4z"/></clipPath><clipPath id="d"><path clip-rule="evenodd" d="m19 15c0-1.591-.632-3.117-1.757-4.243-1.126-1.125-2.652-1.757-4.243-1.757-1.591 0-3.117.632-4.243 1.757-1.125 1.126-1.757 2.652-1.757 4.243v2c0 1.591.632 3.117 1.757 4.243 1.126 1.125 2.652 1.757 4.243 1.757 1.591 0 3.117-.632 4.243-1.757 1.125-1.126 1.757-2.652 1.757-4.243 0-.663 0-1.337 0-2z"/></clipPath><metadata/><path d="m0 0h32v32h-32z" fill="none"/><g clip-path="url(#a)"><path d="m8.042 23.278c-.503-.397-.959-.856-1.353-1.362-.461-.592-.838-1.248-1.117-1.945-.254-.636-.427-1.305-.511-1.985-.037-.294-.055-.59-.06-.887-.005-.733-.005-1.465 0-2.198.005-.264.019-.527.048-.79.069-.616.21-1.224.419-1.808.364-1.016.935-1.955 1.669-2.746.869-.936 1.962-1.658 3.166-2.089.835-.299 1.712-.451 2.598-.467.099-.001.099-.001.198 0 .854.015 1.699.157 2.506.435 1.177.405 2.253 1.087 3.122 1.978.799.82 1.419 1.811 1.805 2.889.142.397.252.805.33 1.219.436-.549 1.013-.984 1.671-1.244.308-.122.631-.204.96-.246.135-.017.269-.026.405-.031l2.102-.026v.025c.068 0 .136.002.204.005.102.006.101.006.203.015.396.046.782.139 1.151.295 1.013.429 1.821 1.276 2.199 2.31.15.41.225.837.242 1.272.009.705.001 1.411.001 2.116-.003.202-.013.403-.038.604-.055.445-.171.882-.342 1.296-.188.453-.442.877-.752 1.256-.255.311-.547.59-.868.831v10h-25c0-.716-.012-1.454.002-2.18.026-.818.181-1.632.487-2.393.188-.471.423-.921.707-1.342.724-1.071 1.744-1.933 2.922-2.466.3-.135.608-.249.924-.341zm12.375-3.279c-.045.111-.093.221-.143.331-.437.954-1.062 1.819-1.831 2.533-.156.145-.318.283-.485.415.316.092.624.206.924.341.564.255 1.094.586 1.572.98.614.507 1.137 1.118 1.546 1.797v-4.396c-.09-.067-.178-.138-.264-.212-.497-.428-.908-.955-1.203-1.542-.041-.081-.08-.164-.116-.247z"/><path d="m21 30c0-2.761-2.239-5-5-5-1.911 0-4.089 0-6 0-2.761 0-5 2.239-5 5z" fill="#304fbd"/><g clip-path="url(#b)"><path d="m11 24h4v7h-4z" fill="#fff"/><g clip-path="url(#c)"><circle cx="13" cy="24" fill="#7c6112" r="4"/></g></g><path d="m19 15c0-1.591-.632-3.117-1.757-4.243-1.126-1.125-2.652-1.757-4.243-1.757-1.591 0-3.117.632-4.243 1.757-1.125 1.126-1.757 2.652-1.757 4.243v2c0 1.591.632 3.117 1.757 4.243 1.126 1.125 2.652 1.757 4.243 1.757 1.591 0 3.117-.632 4.243-1.757 1.125-1.126 1.757-2.652 1.757-4.243 0-.663 0-1.337 0-2z" fill="#7c6112"/><g clip-path="url(#d)"><path d="m11 15c0-.552-.448-1-1-1s-1 .448-1 1v1c0 .552.448 1 1 1s1-.448 1-1c0-.322 0-.678 0-1zm6 0c0-.552-.448-1-1-1s-1 .448-1 1v1c0 .552.448 1 1 1s1-.448 1-1c0-.322 0-.678 0-1z"/></g><path d="m24 14v3l1 1 1-1v-3c1.105 0 2 .895 2 2v2c0 .796-.316 1.559-.879 2.121-.319.32-.703.56-1.121.707v9.172h-2v-9.172c-.418-.147-.802-.387-1.121-.707-.563-.562-.879-1.325-.879-2.121 0-.676 0-1.377 0-2 0-1.105.895-2 2-2z" fill="#777"/></g></svg>