<svg clip-rule="evenodd" fill-rule="evenodd" stroke-linejoin="round" stroke-miterlimit="1.41421" viewBox="0 0 32 32" xmlns="http://www.w3.org/2000/svg" xmlns:xlink="http://www.w3.org/1999/xlink"><clipPath id="a"><path clip-rule="evenodd" d="m0 0h32v32h-32z"/></clipPath><clipPath id="b"><path clip-rule="evenodd" d="m30 16c0-3.713-1.475-7.274-4.101-9.899-2.625-2.626-6.186-4.101-9.899-4.101-7.732 0-14 6.268-14 14v3c0 6.075 4.925 11 11 11h6c6.075 0 11-4.925 11-11 0-.986 0-1.993 0-3z"/></clipPath><metadata/><path d="m0 0h32v32h-32z" fill="none"/><g clip-path="url(#a)"><path d="m16.199.001.198.004.198.006.198.009.198.011.197.013.197.016.196.018.196.021.196.023.195.025.195.028.194.031.193.032.194.035.192.037.192.04.191.042.191.044.19.047.189.048.189.051.188.054.187.056.187.058.186.06.185.062.184.065.183.067.183.069.181.071.181.074.18.076.179.078.178.08.177.082.176.085.174.086.174.089.173.091.172.093.171.095.169.097.169.1.167.101.166.104.165.105.164.108.162.11.161.112.16.114.159.116.157.118.156.119.155.122.153.124.152.126.15.128.149.13.148.132.146.134.144.136.143.138.142.139.139.142.138.143.136.144.134.146.132.148.13.149.128.15.126.152.124.153.122.155.119.156.118.157.116.159.114.16.112.161.11.162.108.164.105.165.104.166.101.167.1.169.097.169.095.171.093.172.091.173.089.174.086.175.085.175.082.177.08.178.078.179.076.18.074.181.071.181.069.183.067.183.065.184.062.185.06.186.058.187.056.187.054.188.051.189.048.189.047.19.044.191.042.191.04.192.037.192.035.194.032.193.031.194.028.195.025.195.023.196.021.196.018.196.016.197.013.197.011.198.009.198.006.198.004.198.001.193v3.012l-.001.162-.003.167-.005.166-.008.166-.009.166-.012.165-.013.165-.016.164-.018.163-.019.163-.022.163-.024.161-.025.161-.028.161-.03.16-.031.159-.034.158-.035.158-.037.157-.039.156-.041.156-.043.155-.045.154-.047.153-.048.153-.05.151-.053.151-.053.15-.056.149-.057.148-.06.147-.06.147-.063.145-.064.145-.066.143-.068.143-.069.142-.071.141-.073.139-.074.139-.076.138-.078.136-.079.136-.08.134-.082.134-.084.132-.086.132-.086.13-.089.129-.09.128-.091.127-.093.125-.094.125-.096.123-.097.122-.098.121-.1.12-.102.118-.102.117-.105.116-.105.115-.107.113-.108.113-.11.11-.11.11-.113.108-.113.107-.115.105-.116.105-.117.102-.118.102-.12.1-.121.098-.122.097-.123.096-.125.094-.125.093-.127.091-.128.09-.129.089-.13.086-.132.086-.132.084-.134.082-.134.08-.136.079-.136.078-.138.076-.139.074-.139.073-.141.071-.142.069-.143.068-.143.066-.145.064-.145.063-.147.06-.147.06-.148.057-.149.056-.15.053-.151.053-.152.05-.152.048-.153.047-.154.045-.155.043-.156.041-.156.039-.157.037-.158.035-.158.034-.159.031-.16.03-.161.028-.161.025-.161.024-.163.022-.163.019-.163.018-.164.016-.165.013-.165.012-.166.009-.166.008-.166.005-.167.003-.162.001h-6.012l-.162-.001-.167-.003-.166-.005-.166-.008-.166-.009-.165-.012-.165-.013-.164-.016-.163-.018-.163-.019-.163-.022-.161-.024-.161-.025-.161-.028-.16-.03-.159-.031-.158-.034-.158-.035-.157-.037-.156-.039-.156-.041-.155-.043-.154-.045-.153-.047-.152-.048-.152-.05-.151-.053-.15-.053-.149-.056-.148-.057-.147-.06-.147-.06-.145-.063-.145-.064-.143-.066-.143-.068-.142-.069-.141-.071-.139-.073-.139-.074-.138-.076-.136-.078-.136-.079-.134-.08-.134-.082-.132-.084-.132-.086-.13-.086-.129-.089-.128-.09-.127-.091-.125-.093-.125-.094-.123-.096-.122-.097-.121-.098-.12-.1-.118-.102-.117-.102-.116-.105-.115-.105-.113-.107-.113-.108-.11-.11-.11-.11-.108-.113-.107-.113-.105-.115-.105-.116-.102-.117-.102-.118-.1-.12-.098-.121-.097-.122-.096-.123-.094-.125-.093-.125-.091-.127-.09-.128-.089-.129-.086-.13-.086-.132-.084-.132-.082-.134-.08-.134-.079-.136-.078-.136-.076-.138-.074-.139-.073-.139-.071-.141-.069-.142-.068-.143-.066-.143-.064-.145-.063-.145-.06-.147-.06-.147-.057-.148-.056-.149-.053-.15-.053-.151-.05-.151-.048-.153-.047-.153-.045-.154-.043-.155-.041-.156-.039-.156-.037-.157-.035-.158-.034-.158-.031-.159-.03-.16-.028-.161-.025-.161-.024-.161-.022-.163-.019-.163-.018-.163-.016-.164-.013-.165-.012-.165-.009-.166-.008-.166-.005-.166-.003-.167-.001-.162v-3.012l.001-.2.004-.206.007-.205.009-.205.011-.204.015-.203.016-.203.019-.201.022-.202.024-.2.027-.2.029-.199.032-.198.034-.198.036-.197.039-.195.041-.195.044-.195.046-.193.048-.192.05-.192.053-.19.055-.19.058-.188.059-.188.062-.186.064-.186.066-.184.069-.184.07-.182.073-.181.075-.181.077-.179.079-.177.081-.177.084-.176.085-.174.087-.173.09-.172.091-.171.094-.169.095-.169.097-.166.1-.166.101-.164.103-.163.105-.162.107-.16.108-.159.111-.158.112-.156.115-.154.116-.153.117-.152.12-.151.121-.148.123-.148.125-.145.127-.145.128-.142.13-.142.131-.139.133-.138.135-.137.137-.135.138-.133.139-.131.142-.13.142-.128.145-.127.145-.125.148-.123.148-.121.151-.12.152-.117.153-.116.154-.115.156-.112.158-.111.159-.108.16-.107.162-.105.163-.103.164-.101.166-.1.166-.097.169-.095.169-.094.171-.091.172-.09.173-.087.174-.085.176-.084.177-.081.177-.079.179-.077.181-.075.181-.073.182-.07.184-.069.184-.066.186-.064.186-.062.188-.059.188-.058.19-.055.19-.053.192-.05.192-.048.193-.046.195-.044.195-.041.195-.039.197-.036.198-.034.198-.032.199-.029.2-.027.2-.024.201-.022.202-.019.203-.016.203-.015.204-.011.205-.009.205-.007.206-.004.2-.001h.012l.193.001zm-.355 4-.155.003-.154.005-.154.007-.154.008-.152.011-.153.013-.151.014-.151.016-.151.019-.15.02-.149.021-.149.024-.148.026-.147.027-.147.029-.146.031-.145.032-.145.035-.143.036-.144.038-.142.039-.142.041-.141.043-.141.045-.139.046-.139.048-.138.05-.137.051-.137.053-.135.054-.135.056-.134.058-.134.059-.132.061-.131.062-.131.064-.13.066-.129.067-.127.068-.128.07-.126.072-.125.073-.124.074-.123.076-.122.077-.122.079-.12.08-.119.082-.118.083-.118.084-.116.086-.115.087-.114.089-.113.089-.111.091-.111.093-.109.094-.109.095-.107.096-.106.098-.105.098-.104.1-.102.102-.102.102-.1.104-.098.105-.098.106-.096.107-.095.109-.094.109-.093.111-.091.112-.089.112-.089.114-.087.115-.086.116-.084.118-.083.118-.082.119-.08.12-.079.122-.077.122-.076.123-.074.124-.073.125-.072.126-.07.127-.068.128-.067.129-.066.13-.064.131-.062.131-.061.132-.059.134-.058.134-.056.135-.054.135-.053.137-.051.137-.05.138-.048.139-.046.139-.045.141-.043.141-.041.142-.039.142-.038.144-.036.143-.035.145-.032.145-.031.146-.029.147-.027.147-.026.148-.024.149-.021.149-.02.15-.019.151-.016.151-.014.151-.013.153-.011.152-.008.154-.007.154-.005.154-.003.155-.001.162v2.988l.001.123.002.116.004.116.005.116.006.115.008.115.01.114.011.114.012.113.013.113.015.112.017.112.018.112.019.111.02.11.022.11.023.109.024.109.026.109.027.108.029.107.029.107.031.106.032.106.034.105.034.105.036.104.038.104.038.102.04.103.04.101.042.102.044.1.044.1.046.099.046.099.048.098.05.097.05.097.051.096.053.095.053.094.055.094.056.093.057.093.058.091.059.091.06.091.061.089.062.089.064.088.064.087.065.086.067.085.067.085.068.084.07.083.07.082.071.081.073.081.073.08.074.078.075.078.076.077.077.076.078.075.078.074.08.073.08.073.082.071.082.07.083.07.084.068.085.067.085.067.086.065.087.064.088.064.089.062.089.061.091.06.091.059.091.058.093.057.093.056.094.055.094.053.095.053.096.051.097.05.097.05.098.048.099.046.099.046.1.044.1.044.102.042.101.04.103.04.103.038.103.038.104.036.105.034.105.034.106.032.106.031.107.029.107.029.108.027.109.026.109.024.109.023.11.022.11.02.111.019.112.018.112.017.112.015.113.013.113.012.114.011.114.01.115.008.115.006.116.005.116.004.116.002.123.001h5.988l.123-.001.116-.002.116-.004.116-.005.115-.006.115-.008.114-.01.114-.011.113-.012.113-.013.112-.015.112-.017.112-.018.111-.019.11-.02.11-.022.109-.023.109-.024.109-.026.108-.027.107-.029.107-.029.106-.031.106-.032.105-.034.105-.034.104-.036.104-.038.102-.038.103-.04.101-.04.102-.042.1-.044.1-.044.099-.046.099-.046.098-.048.097-.05.097-.05.096-.051.095-.053.094-.053.094-.055.093-.056.093-.057.091-.058.091-.059.091-.06.089-.061.089-.062.088-.064.087-.064.086-.065.085-.067.085-.067.084-.068.083-.07.082-.07.082-.071.08-.073.08-.073.078-.074.078-.075.077-.076.076-.077.075-.078.074-.078.073-.08.073-.081.071-.081.07-.082.07-.083.068-.084.067-.085.067-.085.065-.086.064-.087.064-.088.062-.089.061-.089.06-.091.059-.091.058-.091.057-.093.056-.093.055-.094.053-.094.053-.095.051-.096.05-.097.05-.097.048-.098.046-.099.046-.099.044-.1.044-.1.042-.102.04-.101.04-.103.038-.102.038-.104.036-.104.034-.105.034-.105.032-.106.031-.106.029-.107.029-.107.027-.108.026-.109.024-.109.023-.109.022-.11.02-.11.019-.111.018-.112.017-.112.015-.112.013-.113.012-.113.011-.114.01-.114.008-.115.006-.115.005-.116.004-.116.002-.116.001-.123v-2.988l-.001-.155-.003-.149-.004-.149-.007-.148-.008-.148-.01-.148-.012-.148-.014-.147-.015-.147-.018-.147-.019-.146-.021-.146-.022-.146-.025-.145-.026-.145-.028-.144-.029-.144-.032-.143-.033-.143-.035-.143-.037-.142-.038-.142-.04-.141-.042-.14-.043-.14-.045-.139-.047-.139-.049-.138-.05-.138-.052-.136-.053-.137-.055-.135-.057-.135-.059-.134-.06-.134-.062-.132-.063-.132-.065-.132-.067-.13-.068-.13-.07-.129-.071-.128-.073-.127-.074-.126-.076-.126-.078-.124-.079-.124-.081-.123-.083-.121-.083-.121-.086-.12-.087-.119-.088-.118-.09-.117-.092-.116-.093-.115-.094-.114-.096-.113-.097-.111-.099-.111-.101-.109-.102-.109-.103-.107-.105-.106-.106-.105-.107-.103-.108-.102-.11-.101-.111-.099-.111-.097-.113-.096-.114-.094-.115-.093-.116-.092-.117-.09-.118-.088-.119-.087-.12-.086-.121-.083-.121-.083-.123-.081-.124-.079-.124-.078-.126-.076-.126-.074-.127-.073-.128-.071-.129-.07-.13-.068-.13-.067-.132-.065-.132-.063-.132-.062-.134-.06-.134-.059-.135-.057-.135-.055-.137-.053-.136-.052-.138-.05-.138-.049-.139-.047-.139-.045-.14-.043-.141-.042-.14-.04-.142-.038-.142-.037-.143-.035-.143-.033-.143-.032-.144-.029-.144-.028-.145-.026-.145-.025-.146-.022-.146-.021-.146-.019-.147-.018-.147-.015-.147-.014-.148-.012-.148-.01-.148-.008-.148-.007-.149-.004-.149-.003-.149-.001z"/><path d="m2.001 15.823c.095-7.65 6.326-13.823 13.999-13.823 3.713 0 7.274 1.475 9.899 4.101 2.584 2.583 4.054 6.073 4.1 9.723l-.999 1.176v1l.999 1.178c-.06 3.788-2.035 7.111-4.999 9.043v-1.221h-18v1.221c-2.964-1.932-4.939-5.255-4.999-9.043l.999-1.178v-1l-.999-1.177z" fill="#fbc546"/><path d="m25.447 11.606c.237.118.418.326.502.578.084.251.064.526-.055.763v.001c-.247.494-.847.694-1.34.447-1.301-.65-3.702-1.851-5.002-2.501-.494-.247-.694-.847-.447-1.34 0-.001 0-.001.001-.001.118-.237.326-.418.578-.502.251-.084.526-.064.763.055 1.301.65 3.7 1.849 5 2.5z" fill-rule="nonzero"/><path d="m12.896 9.556c.118.237.136.512.052.763-.085.252-.266.459-.504.577-1.301.645-3.7 1.835-5.001 2.479-.494.246-1.093.044-1.338-.451-.001 0-.001-.001-.001-.002-.245-.494-.043-1.093.451-1.338 1.301-.645 3.7-1.835 5.001-2.48.237-.118.512-.136.763-.052.252.085.459.266.577.504z" fill-rule="nonzero"/><path d="m30 16c0-3.713-1.475-7.274-4.101-9.899-2.625-2.626-6.186-4.101-9.899-4.101-7.732 0-14 6.268-14 14v3c0 6.075 4.925 11 11 11h6c6.075 0 11-4.925 11-11 0-.986 0-1.993 0-3z" fill="none"/><g clip-path="url(#b)"><path d="m24 23.09c0-1.894-1.07-3.625-2.764-4.472-1.142-.571-2.433-1.216-3.447-1.724-1.126-.563-2.452-.563-3.578 0-1.014.508-2.305 1.153-3.447 1.724-1.694.847-2.764 2.578-2.764 4.472v1.91c0 2.209 1.791 4 4 4h8c2.209 0 4-1.791 4-4 0-.641 0-1.295 0-1.91z" fill="#fff"/><path d="m16.086 14.473.086.002.086.003.087.004.086.006.085.006.086.008.086.01.086.01.086.012.085.013.085.014.085.016.085.016.085.018.085.019.084.021.084.022.084.022.083.025.084.025.083.027.083.027.082.029.082.031.082.031.081.033.081.034.081.035.08.037.08.038.073.035 3.461 1.731.103.052.109.059.108.06.106.062.106.063.104.065.102.067.101.069.1.07.099.072.097.073.095.075.094.076.093.079.091.079.09.081.088.082.086.084.086.085.083.087.082.088.08.089.079.091.077.091.076.093.074.095.072.095.07.097.069.098.067.099.066.1.064.101.062.102.06.104.058.104.057.105.055.107.053.107.051.108.05.109.047.11.046.111.044.112.042.113.04.113.038.114.037.115.034.116.032.116.03.117.029.118.026.119.024.119.023.119.02.12.018.121.016.121.014.122.012.122.01.122.007.123.006.124.003.123.001.115v1.932l-.002.141-.006.153-.009.152-.014.152-.017.151-.021.149-.024.149-.029.147-.032.146-.035.145-.039.143-.042.142-.046.141-.048.139-.053.137-.055.136-.059.134-.062.132-.064.131-.068.128-.071.127-.074.125-.076.122-.08.121-.082.119-.085.116-.088.114-.09.112-.093.11-.095.108-.098.105-.1.103-.103.1-.105.098-.108.095-.11.093-.112.09-.114.088-.116.085-.119.082-.121.08-.122.076-.125.074-.127.071-.128.068-.131.064-.132.062-.134.059-.136.055-.137.053-.139.048-.141.046-.142.042-.143.039-.145.035-.146.032-.147.029-.149.024-.149.021-.151.017-.151.014-.153.009-.153.006-.141.002h-8.026l-.141-.002-.153-.006-.153-.009-.151-.014-.151-.017-.149-.021-.149-.024-.147-.029-.146-.032-.145-.035-.143-.039-.142-.042-.141-.046-.139-.048-.137-.053-.136-.055-.134-.059-.132-.062-.131-.064-.128-.068-.127-.071-.125-.074-.122-.076-.121-.08-.119-.082-.116-.085-.114-.088-.112-.09-.11-.093-.108-.095-.105-.098-.103-.1-.1-.103-.098-.105-.095-.108-.093-.11-.09-.112-.088-.114-.085-.116-.082-.119-.08-.121-.076-.122-.074-.125-.071-.127-.068-.128-.064-.131-.062-.132-.059-.134-.055-.136-.053-.137-.048-.139-.046-.141-.042-.142-.039-.143-.035-.145-.032-.146-.029-.147-.024-.149-.021-.149-.017-.151-.014-.152-.009-.152-.006-.153-.002-.141v-1.932l.001-.115.003-.123.006-.124.007-.123.01-.122.012-.122.014-.122.016-.121.018-.121.02-.12.023-.119.024-.119.026-.119.029-.118.03-.117.032-.116.034-.116.037-.115.038-.114.04-.113.042-.113.044-.112.046-.111.047-.11.05-.109.051-.108.053-.107.055-.107.057-.105.058-.104.06-.104.062-.102.064-.101.066-.1.067-.099.069-.098.07-.097.072-.095.074-.095.076-.093.077-.091.079-.091.08-.089.082-.088.083-.087.086-.085.086-.084.088-.082.09-.081.091-.079.093-.079.094-.076.095-.075.097-.073.099-.072.1-.07.101-.069.102-.067.104-.065.106-.063.106-.062.108-.06.109-.059.103-.052 3.461-1.731.073-.035.08-.038.08-.037.081-.035.081-.034.081-.033.082-.031.082-.031.082-.029.083-.027.083-.027.084-.025.083-.025.084-.022.084-.022.084-.021.085-.019.085-.018.085-.016.085-.016.085-.014.085-.013.086-.012.086-.01.086-.01.086-.008.085-.006.086-.006.087-.004.086-.003.086-.002.086-.001zm-.143 2-.058.001-.057.002-.058.003-.057.003-.057.005-.058.005-.057.007-.057.007-.057.007-.057.009-.057.01-.057.01-.056.011-.057.012-.056.013-.056.013-.056.015-.056.015-.056.016-.056.017-.055.018-.055.018-.055.02-.055.02-.054.021-.054.022-.054.022-.054.024-.054.024-.053.025-.053.026-3.447 1.724-.079.04-.078.042-.077.043-.076.044-.075.045-.075.047-.073.048-.072.049-.071.05-.071.051-.069.052-.068.054-.067.055-.066.055-.066.057-.064.058-.062.059-.062.059-.061.061-.06.062-.058.063-.058.064-.056.064-.055.066-.054.066-.053.068-.051.068-.051.069-.049.07-.048.071-.047.071-.045.073-.045.073-.043.073-.041.075-.041.075-.039.076-.038.077-.037.077-.035.078-.034.079-.033.079-.031.08-.03.08-.029.081-.027.082-.026.082-.024.083-.023.083-.022.083-.02.084-.019.085-.017.085-.016.085-.015.086-.013.086-.011.087-.01.086-.009.088-.007.087-.005.088-.004.088-.002.089-.001.088v1.91l.001.103.004.103.007.102.009.101.011.1.014.1.016.099.019.098.021.097.024.097.026.095.028.094.03.094.033.092.034.092.037.09.039.089.041.088.044.087.045.086.047.084.049.083.051.082.053.08.055.08.057.077.058.077.06.074.062.074.064.072.066.07.067.068.068.067.07.066.072.064.074.062.074.06.077.058.077.057.08.055.08.053.082.051.083.049.084.047.086.045.087.044.088.041.089.039.09.037.092.034.092.033.094.03.094.028.095.026.097.024.097.021.098.019.099.016.1.014.1.011.101.009.102.007.103.004.103.001h8l.103-.001.103-.004.102-.007.101-.009.1-.011.1-.014.099-.016.098-.019.097-.021.097-.024.095-.026.094-.028.094-.03.092-.033.092-.034.09-.037.089-.039.088-.041.087-.044.086-.045.084-.047.083-.049.082-.051.08-.053.08-.055.077-.057.077-.058.074-.06.074-.062.072-.064.07-.066.068-.067.067-.068.066-.07.064-.072.062-.074.06-.074.058-.077.057-.077.055-.08.053-.08.051-.082.049-.083.047-.084.045-.086.044-.087.041-.088.039-.089.037-.09.034-.092.033-.092.03-.094.028-.094.026-.095.024-.097.021-.097.019-.098.016-.099.014-.1.011-.1.009-.101.007-.102.004-.103.001-.103v-1.91l-.001-.088-.002-.089-.004-.088-.005-.088-.007-.087-.009-.088-.01-.086-.011-.087-.013-.086-.015-.086-.016-.085-.017-.085-.019-.085-.02-.084-.022-.083-.023-.083-.024-.083-.026-.082-.027-.082-.029-.081-.03-.08-.031-.08-.033-.079-.034-.079-.035-.078-.037-.077-.038-.077-.039-.076-.041-.075-.041-.075-.043-.073-.045-.073-.045-.073-.047-.071-.048-.071-.049-.07-.051-.069-.051-.068-.053-.068-.054-.066-.055-.066-.056-.064-.058-.064-.058-.063-.06-.062-.061-.061-.062-.059-.062-.059-.064-.058-.066-.057-.066-.055-.067-.055-.068-.054-.069-.052-.071-.051-.071-.05-.072-.049-.073-.048-.075-.047-.075-.045-.076-.044-.077-.043-.078-.042-.079-.04-3.447-1.724-.053-.026-.053-.025-.054-.024-.054-.024-.054-.022-.054-.022-.054-.021-.055-.02-.055-.02-.055-.018-.055-.018-.056-.017-.056-.016-.056-.015-.056-.015-.056-.013-.056-.013-.057-.012-.056-.011-.057-.01-.057-.01-.057-.009-.057-.007-.057-.007-.057-.007-.058-.005-.057-.005-.057-.003-.058-.003-.057-.002-.058-.001-.057-.001-.057.001z" fill="#808080"/></g><path d="m29.999 15.824c.001.058.001.117.001.176v3c0 .059 0 .119-.001.178l-10.328 5.164-1.342-2.684zm-27.998-.001 11.67 5.835-1.342 2.684-10.328-5.164c-.001-.059-.001-.119-.001-.178 0-.986 0-1.993 0-3 0-.059 0-.118.001-.177z" fill="#fff"/><g fill="#ccc"><path d="m20 21c0-.552-.448-1-1-1-1.537 0-4.463 0-6 0-.552 0-1 .448-1 1s.448 1 1 1h6c.552 0 1-.448 1-1z"/><path d="m21 25c0-.552-.448-1-1-1-1.916 0-6.084 0-8 0-.552 0-1 .448-1 1s.448 1 1 1h8c.552 0 1-.448 1-1z"/></g></g></svg>