<svg clip-rule="evenodd" fill-rule="evenodd" stroke-linejoin="round" stroke-miterlimit="2" viewBox="0 0 32 32" xmlns="http://www.w3.org/2000/svg"><metadata/><path d="m0 0h32v32h-32z" fill="none"/><path d="m23 6c1.068.445 2.076 1.033 2.989 1.744 1.055.822 1.982 1.808 2.738 2.912.777 1.135 1.372 2.394 1.756 3.715.388 1.333.56 2.726.508 4.113-.055 1.487-.368 2.962-.921 4.344-.592 1.48-1.457 2.848-2.542 4.016-1.16 1.25-2.566 2.267-4.117 2.976-1.156.53-2.39.888-3.649 1.06-.531.073-1.065.109-1.601.119-1.44.009-2.881.009-4.322 0-.536-.01-1.07-.046-1.601-.119-1.259-.172-2.493-.53-3.649-1.06-1.551-.709-2.957-1.726-4.117-2.976-1.085-1.168-1.95-2.536-2.542-4.016-.553-1.382-.866-2.857-.921-4.344-.05-1.334.107-2.674.464-3.96.382-1.377.993-2.689 1.8-3.868.756-1.104 1.683-2.09 2.738-2.912.195-.151.393-.297.596-.437l-1.402-4.204 4.937-1.646c.455-.147.917-.264 1.39-.341.472-.077.948-.111 1.427-.116h10.041z"/><path d="m15 4h2v4h-2z" fill="#72ab44"/><path d="m21 5c-2.709 0-5.418-.026-8.127.001-.101.003-.1.003-.201.008-.234.017-.467.045-.697.092-.199.04-.394.095-.587.157l-3.02 1.007-.633-1.897 3.03-1.01c.356-.115.718-.208 1.087-.268.37-.06.742-.086 1.117-.09h8.031z" fill="#72ab44" fill-rule="nonzero"/><path d="m14.118 7h1.756c.607.468.963.714.963.714s.813-.414 1.281-.713c.672.007 1.338.076 1.989.203.22.092.316.101.553.152.043.009.313.102.564.127.53.163 1.047.365 1.546.605.254.463.837 1.154.837 1.154s1.145.544 1.736.568c.148.133.294.27.435.412.158.158.311.32.459.487.189.662.38 1.904.518 2.059.667.714 1.887 2.69 1.95 2.703.195.822.295 1.67.295 2.529 0 .581-.046 1.157-.136 1.724-.454.388-1.147.862-1.147.862s.127 1.245.107 2.362c-.522 1.037-1.21 1.994-2.046 2.83-1.2 1.2-2.649 2.094-4.225 2.632-1.047-.094-2.368-.122-2.368-.122s-.469.332-1.303.712h-3.764l-.01-.011c-1.05-.522-2.603-1.262-2.603-1.262s-1.529.065-2.004.311c-.545-.244-1.07-.533-1.57-.863-.073-.214-.643-1.374-.643-1.374s-1.354-.501-1.576-.568c-.502-.576-.94-1.198-1.309-1.857.038.016-.108-2.299-.068-2.285.184.062-1.324-2.591-1.324-2.591-.007-.166-.011-.333-.011-.5 0-1.146.179-2.275.522-3.347.452-.466.998-1.13.998-1.13s.311-1.014.405-1.74c.241-.352.504-.691.787-1.015.042.072 2.961-1.833 2.961-1.833l1.77-1.344c.528-.18 1.07-.321 1.622-.419.266.022 1.08-.022 1.08-.022s.7-.088.973-.15z" fill="#cddf7b"/><path d="m17.882 29c-.141-.161-.249-.346-.313-.551-.041-.132-.064-.268-.068-.406-.013-.439.173-.87.501-1.163.111-.099.237-.181.373-.243.189-.087.392-.131.599-.137.035 0 .034 0 .069.001.103.004.206.016.306.04.259.062.493.193.687.374.508.496 1.019.989 1.517 1.495-1.134.387-2.333.59-3.553.59zm-8.381-.962c-.011-.438.174-.867.501-1.158.111-.099.237-.181.373-.243.189-.087.392-.131.599-.137.035 0 .034 0 .069.001.103.004.206.016.306.04.259.062.493.193.687.374.699.683 1.405 1.36 2.072 2.074l.01.011h-.118c-1.566 0-3.098-.334-4.499-.962zm7.525-5.538c.219.006.433.055.63.151.134.065.259.151.368.252.1.094.188.202.259.32.228.376.279.842.138 1.258-.067.197-.175.375-.313.53-.674.723-1.374 1.423-2.097 2.097-.164.146-.353.258-.562.323-.132.041-.268.064-.406.068-.439.013-.87-.173-1.163-.501-.099-.111-.181-.237-.243-.373-.077-.167-.122-.347-.134-.53-.012-.195.014-.392.076-.576.071-.208.187-.395.336-.555.683-.699 1.36-1.405 2.074-2.072.261-.233.585-.368.934-.39.034-.001.068-.002.103-.002zm8 0c.219.006.433.055.63.151.134.065.259.151.368.252.1.094.188.202.259.32.228.376.279.842.138 1.258-.067.197-.175.375-.313.53-.674.723-1.374 1.423-2.097 2.097-.164.146-.353.258-.562.323-.186.059-.384.08-.578.063-.183-.015-.362-.065-.527-.145-.124-.06-.239-.138-.342-.229-.328-.293-.514-.724-.501-1.163.004-.149.031-.297.078-.438.071-.208.187-.395.336-.555.683-.699 1.36-1.405 2.074-2.072.261-.233.585-.368.934-.39.034-.001.068-.002.103-.002zm-19.314 2.733c.058-.096.126-.186.203-.269.683-.699 1.36-1.405 2.074-2.072.261-.233.585-.368.934-.39.034-.001.068-.002.103-.002.219.006.433.055.63.151.134.065.259.151.368.252.1.094.188.202.259.32.228.376.279.842.138 1.258-.067.197-.175.375-.313.53-.674.723-1.374 1.423-2.097 2.097-.026.023-.052.045-.08.067-.61-.404-1.184-.871-1.709-1.397-.177-.176-.347-.358-.51-.545zm5.331-6.732c.103.004.206.016.306.04.259.062.493.193.687.374.699.683 1.405 1.36 2.072 2.074.146.164.258.353.323.562.041.132.064.268.068.406.013.439-.173.87-.501 1.163-.111.099-.237.181-.373.243-.167.077-.347.122-.53.134-.195.012-.392-.014-.576-.076-.208-.071-.395-.187-.555-.336-.699-.683-1.405-1.36-2.072-2.074-.146-.164-.258-.353-.323-.562-.041-.132-.064-.268-.068-.406-.013-.439.173-.87.501-1.163.111-.099.237-.181.373-.243.189-.087.392-.131.599-.137.035 0 .034 0 .069.001zm-8.032-.001.032.001c.103.004.206.016.306.04.259.062.493.193.687.374.699.683 1.405 1.36 2.072 2.074.146.164.258.353.323.562.132.419.07.885-.166 1.255-.074.116-.164.222-.267.314-.111.099-.237.181-.373.243-.167.077-.347.122-.53.134-.195.012-.392-.014-.576-.076-.04-.014-.078-.029-.116-.045-.832-1.485-1.313-3.153-1.392-4.876zm16.032.001c.103.004.206.016.306.04.259.062.493.193.687.374.699.683 1.405 1.36 2.072 2.074.146.164.258.353.323.562.041.132.064.268.068.406.013.439-.173.87-.501 1.163-.111.099-.237.181-.373.243-.167.077-.347.122-.53.134-.195.012-.392-.014-.576-.076-.208-.071-.395-.187-.555-.336-.699-.683-1.405-1.36-2.072-2.074-.146-.164-.258-.353-.323-.562-.041-.132-.064-.268-.068-.406-.013-.439.173-.87.501-1.163.111-.099.237-.181.373-.243.189-.087.392-.131.599-.137.035 0 .034 0 .069.001zm8.781 4.447c-.653-.637-1.31-1.27-1.932-1.937-.138-.155-.246-.333-.313-.53-.047-.141-.074-.289-.078-.438-.004-.138.011-.276.044-.409.108-.426.404-.791.799-.983.197-.096.411-.145.63-.151.035 0 .034 0 .069.001.265.01.523.085.749.225.088.055.168.119.244.189.276.27.553.538.828.809-.178 1.125-.53 2.213-1.04 3.224zm-2.798-8.448c.207.006.41.05.599.137.136.062.262.144.373.243.103.092.193.198.267.314.236.37.298.836.166 1.255-.065.209-.177.398-.323.562-.674.723-1.374 1.423-2.097 2.097-.164.146-.353.258-.562.323-.142.045-.291.068-.44.069-.44.002-.867-.193-1.151-.528-.089-.105-.164-.222-.221-.347-.077-.167-.122-.347-.134-.53-.012-.195.014-.392.076-.576.071-.208.187-.395.336-.555.683-.699 1.36-1.405 2.074-2.072.261-.233.585-.368.934-.39.034-.001.068-.002.103-.002zm-8 0c.207.006.41.05.599.137.4.183.704.54.821.964.037.132.055.27.054.408-.001.149-.024.298-.069.44-.065.209-.177.398-.323.562-.674.723-1.374 1.423-2.097 2.097-.164.146-.353.258-.562.323-.186.059-.384.08-.578.063-.183-.015-.362-.065-.527-.145-.124-.06-.239-.138-.342-.229-.328-.293-.514-.724-.501-1.163.004-.149.031-.297.078-.438.071-.208.187-.395.336-.555.683-.699 1.36-1.405 2.074-2.072.261-.233.585-.368.934-.39.034-.001.068-.002.103-.002zm-8 0c.207.006.41.05.599.137.4.183.704.54.821.964.037.132.055.27.054.408-.001.149-.024.298-.069.44-.065.209-.177.398-.323.562-.674.723-1.374 1.423-2.097 2.097-.164.146-.353.258-.562.323-.186.059-.384.08-.578.063-.183-.015-.362-.065-.527-.145-.124-.06-.239-.138-.342-.229-.328-.293-.514-.724-.501-1.163.004-.149.031-.297.078-.438.071-.208.187-.395.336-.555.683-.699 1.36-1.405 2.074-2.072.261-.233.585-.368.934-.39.034-.001.068-.002.103-.002zm10.017-3.999c.103.004.206.016.306.04.259.062.493.193.687.374.699.683 1.405 1.36 2.072 2.074.146.164.258.353.323.562.045.142.068.291.069.44.002.44-.193.867-.528 1.151-.105.089-.222.164-.347.221-.167.077-.347.122-.53.134-.195.012-.392-.014-.576-.076-.208-.071-.395-.187-.555-.336-.699-.683-1.405-1.36-2.072-2.074-.146-.164-.258-.353-.323-.562-.041-.132-.064-.268-.068-.406-.013-.439.173-.87.501-1.163.111-.099.237-.181.373-.243.189-.087.392-.131.599-.137.035 0 .034 0 .069.001zm-14.118 1.282c.402.395.799.795 1.183 1.206.146.164.258.353.323.562.045.142.068.291.069.44.002.44-.193.867-.528 1.151-.105.089-.222.164-.347.221-.167.077-.347.122-.53.134-.195.012-.392-.014-.576-.076-.208-.071-.395-.187-.555-.336-.147-.144-.295-.288-.442-.432.324-1.017.797-1.984 1.403-2.87zm6.118-1.282c.103.004.206.016.306.04.259.062.493.193.687.374.699.683 1.405 1.36 2.072 2.074.146.164.258.353.323.562.041.132.064.268.068.406.013.439-.173.87-.501 1.163-.111.099-.237.181-.373.243-.167.077-.347.122-.53.134-.195.012-.392-.014-.576-.076-.208-.071-.395-.187-.555-.336-.699-.683-1.405-1.36-2.072-2.074-.146-.164-.258-.353-.323-.562-.041-.132-.064-.268-.068-.406-.013-.439.173-.87.501-1.163.111-.099.237-.181.373-.243.189-.087.392-.131.599-.137.035 0 .034 0 .069.001zm15.194.208c1.209 1.366 2.053 3.004 2.468 4.762-.063-.013-.125-.03-.186-.05-.208-.071-.395-.187-.555-.336-.699-.683-1.405-1.36-2.072-2.074-.138-.155-.246-.333-.313-.53-.141-.416-.09-.882.138-1.258.071-.118.159-.226.259-.32.08-.074.167-.139.261-.194zm-10.363-3.709h2.126c.039 0 .079 0 .118.001.245.275.384.637.382 1.008-.001.149-.024.298-.069.44-.065.209-.177.398-.323.562-.674.723-1.374 1.423-2.097 2.097-.164.146-.353.258-.562.323-.132.041-.268.064-.406.068-.439.013-.87-.173-1.163-.501-.099-.111-.181-.237-.243-.373-.077-.167-.122-.347-.134-.53-.012-.195.014-.392.076-.576.071-.208.187-.395.336-.555.646-.661 1.287-1.329 1.959-1.964zm6.896 1.088c.929.447 1.796 1.025 2.573 1.722-.435.442-.879.875-1.332 1.298-.164.146-.353.258-.562.323-.142.045-.291.068-.44.069-.44.002-.867-.193-1.151-.528-.089-.105-.164-.222-.221-.347-.077-.167-.122-.347-.134-.53-.012-.195.014-.392.076-.576.071-.208.187-.395.336-.555.285-.292.569-.585.855-.876zm-12.327-.497.003.01c.037.132.055.27.054.408-.001.149-.024.298-.069.44-.065.209-.177.398-.323.562-.674.723-1.374 1.423-2.097 2.097-.164.146-.353.258-.562.323-.142.045-.291.068-.44.069-.44.002-.867-.193-1.151-.528-.055-.064-.104-.132-.146-.204.163-.187.333-.369.51-.546 1.199-1.199 2.646-2.093 4.221-2.631zm9.664-.387c.378.073.75.167 1.117.279-.043.007-.086.011-.129.014-.195.012-.392-.014-.576-.076-.149-.051-.287-.125-.412-.217zm-5.989-.204c-.038.042-.078.082-.12.12-.111.099-.237.181-.373.243-.167.077-.347.122-.53.134-.195.012-.392-.014-.576-.076-.166-.057-.318-.142-.454-.249.634-.114 1.282-.172 1.935-.172z" fill="#98b84d"/></svg>