<svg clip-rule="evenodd" fill-rule="evenodd" stroke-linecap="round" stroke-linejoin="round" stroke-miterlimit="1.5" viewBox="0 0 32 32" xmlns="http://www.w3.org/2000/svg" xmlns:xlink="http://www.w3.org/1999/xlink"><clipPath id="a"><path clip-rule="evenodd" d="m0 0h32v32h-32z"/></clipPath><metadata/><path d="m0 0h32v32h-32z" fill="none"/><g clip-path="url(#a)"><g stroke="#000"><path d="m15 30c-3.314 0-6-2.686-6-6 0-5.568 0-13 0-13h6v11c0 1.657 1.343 3 3 3h.929c1.326 0 2.598-.527 3.535-1.464.305-.305.536-.536.536-.536v-1.414c0-.375.149-.735.414-1 .823-.823 2.586-2.586 2.586-2.586v4h4s-1.763 1.763-2.586 2.586c-.265.265-.625.414-1 .414-.59 0-1.414 0-1.414 0s-1.161 1.161-2.364 2.364c-1.688 1.688-3.977 2.636-6.364 2.636z" fill="#616161" stroke-width="4"/><path d="m15 5.721c0-1.503-1.218-2.721-2.721-2.721-.186 0-.372 0-.558 0-1.503 0-2.721 1.218-2.721 2.721v1.558c0 1.503 1.218 2.721 2.721 2.721h.558c1.503 0 2.721-1.218 2.721-2.721 0-.512 0-1.046 0-1.558z" fill="#616161" stroke-width="4"/><path d="m14 12h2c.552 0 1 .448 1 1v4l3 3" fill="none" stroke-width="6"/><path d="m10 12h-2c-.552 0-1 .448-1 1v4l-3 3" fill="none" stroke-width="6"/></g><path d="m16 20h6v5h-6z"/><path d="m9 23v-12h6v12l-.75 1h-4.5z" fill="#616161"/><path d="m15 5.721c0-1.503-1.218-2.721-2.721-2.721-.186 0-.372 0-.558 0-1.503 0-2.721 1.218-2.721 2.721v1.558c0 1.503 1.218 2.721 2.721 2.721h.558c1.503 0 2.721-1.218 2.721-2.721 0-.512 0-1.046 0-1.558z" fill="#616161"/><path d="m14 12h2c.552 0 1 .448 1 1v4l3 3" fill="none" stroke="#616161" stroke-width="2"/><path d="m10 12h-2c-.552 0-1 .448-1 1v4l-3 3" fill="none" stroke="#616161" stroke-width="2"/><path d="m15 30c-1.591 0-3.117-.632-4.243-1.757-1.125-1.126-1.757-2.652-1.757-4.243 0-1.148 0-2 0-2h6v.002c0 .795.316 1.558.878 2.12s1.325.878 2.12.878h.931c1.326 0 2.598-.527 3.535-1.464.305-.305.536-.536.536-.536v-1.414c0-.375.149-.735.414-1 .823-.823 2.586-2.586 2.586-2.586v4h4s-1.763 1.763-2.586 2.586c-.265.265-.625.414-1 .414-.59 0-1.414 0-1.414 0s-1.161 1.161-2.364 2.364c-1.688 1.688-3.977 2.636-6.364 2.636z" fill="#1aa880"/><path d="m11 5.5c0-.133-.053-.26-.146-.354-.094-.093-.221-.146-.354-.146s-.26.053-.354.146c-.093.094-.146.221-.146.354v1c0 .133.053.26.146.354.094.093.221.146.354.146s.26-.053.354-.146c.093-.094.146-.221.146-.354 0-.305 0-.695 0-1z"/><path d="m14 5.5c0-.133-.053-.26-.146-.354-.094-.093-.221-.146-.354-.146s-.26.053-.354.146c-.093.094-.146.221-.146.354v1c0 .133.053.26.146.354.094.093.221.146.354.146s.26-.053.354-.146c.093-.094.146-.221.146-.354 0-.305 0-.695 0-1z"/></g></svg>