<svg clip-rule="evenodd" fill-rule="evenodd" stroke-linejoin="round" stroke-miterlimit="2" viewBox="0 0 32 32" xmlns="http://www.w3.org/2000/svg" xmlns:xlink="http://www.w3.org/1999/xlink"><clipPath id="a"><path clip-rule="evenodd" d="m0 0h32v32h-32z"/></clipPath><clipPath id="b"><path clip-rule="evenodd" d="m23.894 18.447c.678.339 1.106 1.032 1.106 1.789v2.471c0 1.934-.768 3.789-2.136 5.157s-3.223 2.136-5.157 2.136c-.226 0-.454 0-.682 0-4.984 0-9.025-4.041-9.025-9.025v-8.975h15v6s.432.216.894.447z"/></clipPath><metadata/><path d="m0 0h32v32h-32z" fill="none"/><g clip-path="url(#a)"><path d="m17.967 9.033c.001-1.873.01-3.746.034-5.62.014-.373.078-.74.204-1.093.34-.95 1.093-1.721 2.035-2.085.376-.145.771-.218 1.173-.233.087-.002.087-.002.174 0 .402.015.797.088 1.173.233.455.176.871.446 1.215.791.385.384.677.859.848 1.375.116.352.173.718.177 1.088v13.283c.077.044.076.045.156.095l.117.077c.188.135.368.278.533.441.489.482.85 1.088 1.039 1.748.091.315.135.635.153.961.016.91.007 1.819.001 2.729-.005.306-.022.612-.056.917-.076.678-.227 1.348-.45 1.994-.271.787-.648 1.537-1.118 2.223-.411.6-.892 1.151-1.431 1.639-1.323 1.199-2.989 1.999-4.752 2.285-.377.061-.757.098-1.139.113-.344.012-.691.006-1.035.006-1.107-.001-2.213-.167-3.271-.496-1.066-.332-2.08-.827-2.997-1.463-1.86-1.289-3.302-3.149-4.08-5.275-.283-.771-.478-1.574-.582-2.389-.053-.418-.079-.838-.087-1.26-.006-.967-.005-1.934-.003-2.901-.203-.601-.403-1.204-.602-1.807-.577-1.766-1.145-3.535-1.721-5.301-.17-.516-.34-1.031-.51-1.546l-.043-.149c-.037-.153-.071-.305-.091-.461-.042-.311-.041-.627.002-.938.125-.883.595-1.701 1.292-2.256.24-.19.505-.349.786-.471.287-.124.593-.209.903-.251.097-.013.238-.03.331-.034.069-.003.138-.001.207-.001.068.002.136.004.204.007.124.014.246.027.368.049.178.032.353.077.524.136.68.237 1.282.685 1.699 1.272.164.229.29.478.404.735.145.4.289.801.432 1.203.216.615.429 1.23.638 1.847.396-.47.914-.836 1.499-1.045.353-.127.72-.19 1.093-.204.087-.001.087-.001.174 0 .402.015.797.088 1.173.234.262.101.511.234.741.394.228-.16.476-.293.739-.394.376-.146.771-.219 1.173-.234.087-.001.087-.001.174 0 .128.005.254.015.38.032z"/><path d="m23.894 18.447c.678.339 1.106 1.032 1.106 1.789v2.471c0 1.934-.768 3.789-2.136 5.157s-3.223 2.136-5.157 2.136c-.226 0-.454 0-.682 0-4.984 0-9.025-4.041-9.025-9.025v-8.975h15v6s.432.216.894.447z" fill="#ed9298"/><g clip-path="url(#b)"><path d="m16.546 20.001c.133.009.262.038.383.096.354.168.581.538.571.929-.004.134-.036.262-.089.385-.651 1.371-1.33 2.728-2.035 4.071-.074.128-.168.239-.287.326-.107.078-.23.135-.359.165-.116.028-.237.034-.355.019-.106-.013-.209-.043-.304-.089-.328-.156-.55-.487-.57-.85-.008-.161.024-.317.088-.464.651-1.371 1.33-2.728 2.035-4.071.04-.07.085-.135.139-.194.164-.179.385-.286.624-.318.053-.005.106-.006.159-.005z" fill="#da657a" fill-rule="nonzero"/><path d="m6 11h18v7h-8v.5c0 .663-.263 1.299-.732 1.768s-1.105.732-1.768.732-1.299-.263-1.768-.732-.732-1.105-.732-1.768v-.5h-2v-2h-3z" fill="#902f41"/></g><path d="m11 21h-1.914c-1.446-3.97-2.673-8.017-4.009-12.026-.058-.19-.088-.381-.074-.58.039-.54.375-1.028.866-1.255.181-.084.371-.124.569-.138.084-.001.084-.001.168.003.112.011.222.028.33.061.296.09.561.273.75.517.087.113.152.235.208.365 1.116 3.06 2.101 6.165 3.106 9.264zm1-8.5c0-.398.158-.779.439-1.061.282-.281.663-.439 1.061-.439s.779.158 1.061.439c.281.282.439.663.439 1.061v6c0 .398-.158.779-.439 1.061-.282.281-.663.439-1.061.439s-.779-.158-1.061-.439c-.281-.282-.439-.663-.439-1.061 0-1.665 0-4.335 0-6zm11 3.501h-3s0-8.888 0-12.5c0-.829.672-1.5 1.5-1.5s1.5.671 1.5 1.5zm-4-.002h-3v-3.5c0-.397.158-.779.439-1.06.282-.282.663-.44 1.061-.44s.779.158 1.061.44c.281.281.439.663.439 1.06z" fill="#ed9298"/><path d="m23 18h-6.874c.02.08.044.158.069.237.127.384.308.748.542 1.078.505.71 1.241 1.247 2.073 1.505.369.115.752.172 1.138.18l.469.003 2.29 2.29-1.414 1.414-1.722-1.722c-.112-.008-.223-.02-.334-.033-.735-.098-1.445-.322-2.098-.677-1.319-.717-2.342-1.928-2.824-3.351-.209-.619-.311-1.268-.315-1.921v-1.003h9z" fill="#902f41" fill-rule="nonzero"/></g></svg>