<svg clip-rule="evenodd" fill-rule="evenodd" stroke-linejoin="round" stroke-miterlimit="2" viewBox="0 0 32 32" xmlns="http://www.w3.org/2000/svg" xmlns:xlink="http://www.w3.org/1999/xlink"><clipPath id="a"><path clip-rule="evenodd" d="m0 0h32v32h-32z"/></clipPath><metadata/><path d="m0 0h32v32h-32z" fill="none"/><g clip-path="url(#a)"><path d="m25 4.5c0-.663-.263-1.299-.732-1.768s-1.105-.732-1.768-.732-1.299.263-1.768.732-.732 1.105-.732 1.768v15.5h5z"/><path d="m18 7.528v-3.028c0-1.193.474-2.338 1.318-3.182s1.989-1.318 3.182-1.318c1.193 0 2.338.474 3.182 1.318s1.318 1.989 1.318 3.182v10.824c.832.315 1.575.85 2.142 1.563.948 1.193 1.301 2.753.959 4.237-.116.502-.238 1.032-.363 1.574-1.257 5.445-6.105 9.302-11.693 9.302h-.873l-.004-.004-.689.001c-5.343.003-10.003-3.633-11.299-8.817-1.232-4.927-2.804-11.21-2.804-11.21-.535-2.141.769-4.315 2.91-4.85 2.104-.527 4.239.722 4.821 2.797.253-.117.521-.213.802-.283.92-.23 1.846-.158 2.672.153.773-1.365 2.239-2.287 3.919-2.287.169 0 .336.009.5.028z"/><path d="m21 24-14-4v-9l4 2 2-1 3-1 2-1h3l4 5v8z" fill="#791f8d"/><path d="m23 21c-2.209 0-4-1.791-4-4h6.229c.914 0 1.778.417 2.348 1.132.569.716.781 1.652.575 2.543-.116.502-.238 1.032-.363 1.574-1.047 4.537-5.088 7.751-9.744 7.751h-.045c.001-.001.001-.003.002-.004h-.002-1.526c-4.424 0-8.28-3.011-9.353-7.302-1.232-4.926-2.803-11.209-2.803-11.209-.268-1.071.384-2.157 1.455-2.425s2.158.384 2.426 1.455l.317 1.267c.002.195.027.389.074.578.179.717.726 2.905 1.147 4.587.359 1.436 1.81 2.311 3.247 1.959h.001c.051-.013.101-.026.151-.042 0 0 5.341 5.803 7.864 5.803l3-1.667v-2zm-13.244-8.1c.313-.638.895-1.14 1.638-1.325 1.004-.252 2.02.145 2.606.924v3.839c-.001.225-.046.447-.136.654-.082.19-.201.365-.348.511-.133.132-.288.241-.457.321-.133.063-.274.107-.419.133-.165.03-.334.035-.501.014-.445-.054-.859-.291-1.133-.646-.142-.184-.241-.396-.299-.62zm7.244 2.1v2c0 .086.002.171.005.256-.268.022-.541-.015-.794-.109-.481-.177-.874-.555-1.07-1.029-.093-.225-.139-.466-.141-.71v-3.414c.003-1.377 1.122-2.494 2.5-2.494.563 0 1.082.186 1.5.5v5zm8 0h-5v-10.5c.009-.382.088-.761.258-1.105.149-.303.36-.575.617-.795.231-.197.498-.352.785-.454.628-.223 1.339-.184 1.939.109.247.12.473.282.667.476.184.184.339.397.458.628.182.354.268.745.276 1.141z" fill="#f793fe"/><g fill="#9d41b1"><path d="m13.136 18.864c.756-.233 1.352-.786 1.651-1.487.05.052.102.103.156.151.596.537 1.39.799 2.187.721.574 2.714 2.984 4.751 5.87 4.751h1v1.158c0 .923-.426 1.796-1.154 2.364-.728.569-1.677.77-2.574.546-.917-.229-1.782-.445-2.294-.574-.318-.079-.643-.119-.97-.119h-.016c-.327 0-.652.04-.97.119-.512.129-1.377.345-2.294.574-.897.224-1.846.023-2.574-.546-.728-.568-1.154-1.441-1.154-2.364 0-.172 0-.34 0-.501 0-1.061.421-2.078 1.172-2.829z"/><path d="m6.072 10.393c.849-.212 1.795.641 2.109 1.903.315 1.262-.119 2.459-.969 2.671s-1.795-.641-2.109-1.903c-.315-1.262.119-2.459.969-2.671zm16.416-6.926c1.104 0 2 1.345 2 3 0 1.656-.896 3-2 3s-2-1.344-2-3c0-1.655.896-3 2-3z"/></g></g></svg>