<svg clip-rule="evenodd" fill-rule="evenodd" stroke-linejoin="round" stroke-miterlimit="2" viewBox="0 0 32 32" xmlns="http://www.w3.org/2000/svg" xmlns:xlink="http://www.w3.org/1999/xlink"><clipPath id="a"><path clip-rule="evenodd" d="m0 0h32v32h-32z"/></clipPath><metadata/><path d="m0 0h32v32h-32z" fill="none"/><g clip-path="url(#a)"><path d="m17.791 10.738.246-.823c.743-2.476 1.792-4.851 3.123-7.069.606-1.01 1.125-1.875 1.125-1.875.361-.602 1.012-.971 1.715-.971s1.354.369 1.715.971c2.201 3.668 2.754 8.092 1.525 12.188l-.362 1.207c.615.249 1.18.62 1.658 1.098.937.937 1.464 2.208 1.464 3.534v1.002c0 3.183-1.264 6.235-3.515 8.485-2.25 2.251-5.302 3.515-8.485 3.515h-3c-3.448 0-6.754-1.37-9.192-3.808s-3.808-5.744-3.808-9.192v-2.675l-.152-.457c-1.292-3.877-.826-8.125 1.277-11.63.101-.169.16-.267.16-.267.361-.602 1.012-.971 1.715-.971s1.354.369 1.715.971c0 0 1.162 1.937 2.04 3.4.62 1.034 1.14 2.124 1.554 3.255.05-.055.102-.109.155-.162.937-.937 2.208-1.464 3.534-1.464h.004c1.326 0 2.597.527 3.534 1.464.089.088.173.18.255.274z"/><path d="m25 16c1.657 0 3 1.343 3 3v1c0 2.652-1.054 5.196-2.929 7.071s-4.419 2.929-7.071 2.929h-3c-2.917 0-5.715-1.159-7.778-3.222s-3.222-4.861-3.222-7.778c0-1.751 0-3 0-3l-.087-.261 2.087-1.739 3.391.174.609 1.826h8.3l.636-2.119 3.064-.881 2 2.075v1.925z" fill="#8c441b"/><path d="m16.986 16c-.036.89-.141 1.776-.316 2.651-.291 1.456-.67 3.349-.67 3.349s-.282-.169-.713-.428c-2.076-1.245-3.522-3.269-4.058-5.572h-.229s0-.938 0-2.002c0-1.656 1.342-2.998 2.998-2.998h.004c1.656 0 2.998 1.342 2.998 2.998v2.002zm-13.073-.261-.168-.503c-1.107-3.323-.708-6.965 1.095-9.969.101-.169.16-.267.16-.267s1.162 1.937 2.04 3.4c.638 1.063 1.158 2.194 1.55 3.37l.801 2.404zm20.098-13.72c1.902 3.181 2.379 7.015 1.314 10.566l-.425 1.415-.9 1.4-5.064-1.519 1.017-3.391c.695-2.318 1.677-4.54 2.922-6.615.606-1.01 1.125-1.875 1.125-1.875z" fill="#5a2211"/><path d="m24.9 14-.6 2-2.3 7v2c-.109 0-.219-.009-.329-.027 0 0-.683-.114-1.589-.265-3.389-.565-6.305-2.711-7.853-5.777l-.018-.037c-.25-.5-.279-1.082-.08-1.605.198-.523.607-.938 1.126-1.146 0 0 .956-.382 2.031-.812 2.198-.879 4.543-1.331 6.91-1.331z" fill="#48170a"/><path d="m14 18c1.257 2.513 3.64 4.273 6.411 4.735.906.151 1.589.265 1.589.265l3-7h-2.802c-2.113 0-4.206.403-6.167 1.188-1.076.43-2.031.812-2.031.812z" fill="#5a2211"/></g></svg>