<svg clip-rule="evenodd" fill-rule="evenodd" stroke-linejoin="round" stroke-miterlimit="2" viewBox="0 0 32 32" xmlns="http://www.w3.org/2000/svg" xmlns:xlink="http://www.w3.org/1999/xlink"><clipPath id="a"><path clip-rule="evenodd" d="m0 0h32v32h-32z"/></clipPath><metadata/><path d="m0 0h32v32h-32z" fill="none"/><g clip-path="url(#a)"><path d="m25 0v16.772c.077.044.076.045.156.095l.117.077c.188.135.368.278.533.441.489.482.85 1.088 1.039 1.748.091.315.136.635.153.962.016.909.007 1.818.001 2.728-.005.306-.022.612-.056.916-.076.679-.227 1.349-.45 1.995-.271.787-.648 1.536-1.118 2.223-.411.6-.892 1.151-1.431 1.639-1.324 1.199-2.989 1.999-4.752 2.285-.377.061-.757.098-1.139.113-.085.003-.17.005-.255.006h-.78c-1.108-.001-2.213-.167-3.271-.496-1.15-.358-2.24-.907-3.213-1.617-1.757-1.281-3.117-3.079-3.864-5.121-.299-.815-.5-1.665-.598-2.527-.043-.373-.064-.747-.071-1.122-.007-1.018-.005-2.036-.003-3.054l-1.901-5.702-.045-.143c-.045-.157-.088-.313-.123-.473-.057-.263-.096-.529-.117-.798-.067-.853.051-1.719.343-2.523.129-.353.293-.689.481-1.014l2.221-3.717c.598.065 1.197.13 1.795.195l1.906 5.719c.399-.618.99-1.105 1.682-1.372.376-.146.771-.219 1.173-.234.087-.001.087-.001.174 0 .402.015.797.088 1.173.234.262.101.511.233.741.394.252-.176.527-.32.819-.424.352-.126.719-.19 1.093-.204.087-.001.087-.001.174 0 .139.005.276.017.413.037v-1.394l.002-.136c.014-.395.058-.785.145-1.171.172-.762.494-1.49.944-2.129.197-.281.418-.539.657-.784l2.424-2.424h2.828z"/><path d="m21 11 2 5.001v1.999l1 5-2 2h-11l-3-14z" fill="#0f360f"/><path d="m17.707 30h-.682c-4.984 0-9.025-4.041-9.025-9.025v-3.231l-.465-1.395.465-.27v-.635l-.781-.044-.784-2.351 1.065-1.049.5.028v-.318l-.5.29-1.381.1-.12-.359c-.369-1.105-.237-2.316.361-3.316.531-.889 1.088-1.822 1.088-1.822l1.517 4.548-.69.4.254.507.752.042.784 2.351-.227.224.368.738.175-.013.362 1.085.255.511c.001.083.002.167.003.25.007.197.029.393.072.585.086.382.248.746.473 1.066.085.121.18.234.281.343.973.998 1.966 1.977 2.955 2.959l.218 1.301 1 .257.933-1.387c.814.388 1.715.608 2.651.628l1.709 1.709 1.414-1.414-2.293-2.293h-.69c-.417-.001-.832-.058-1.233-.172-.452-.129-.883-.329-1.273-.59-.39-.262-.739-.584-1.029-.953-.196-.248-.365-.517-.504-.8-.038-.077-.073-.155-.107-.234-.035-.083-.068-.167-.101-.251h7.523l.894.447c.678.339 1.106 1.032 1.106 1.789v2.471c0 1.934-.768 3.789-2.136 5.157s-3.223 2.136-5.157 2.136zm-5.184-14 1.166 2.914c.31.776.759 1.467 1.311 2.051v.035s-1.541-1.541-2.414-2.414c-.375-.375-.586-.884-.586-1.414 0-1.339 0-3.995 0-5.672 0-.398.158-.779.439-1.061.282-.281.663-.439 1.061-.439s.779.158 1.061.439c.281.282.439.663.439 1.061v4.5zm6.477 0h-3v-4.501c.001-.209.044-.416.129-.607.079-.18.195-.344.337-.479.133-.127.29-.229.46-.299.159-.066.328-.104.5-.113.484-.024.96.194 1.257.577.087.111.157.234.21.364.071.178.106.367.107.557zm4 0h-3v-2l.5-.5-.5-.5v-4l.5-.5-.5-.5s0-.649 0-1.343c0-1.061.421-2.078 1.171-2.827.842-.842 1.829-1.829 1.829-1.829v5.999l-.5.5.5.5v4l-.5.5.5.5z" fill="#43782e"/><g fill="#1e6118"><path d="m14.782 22.199c.25.249.969.966 1.218 1.215v-.663-.923c.295.206.607.388.933.542l-1.539 3.077c-.064.127-.152.239-.263.329-.099.081-.215.142-.338.18-.119.036-.245.051-.369.041-.112-.008-.222-.036-.325-.081-.1-.044-.193-.104-.274-.178-.228-.208-.348-.519-.321-.826.011-.125.046-.247.102-.359z"/><path d="m10.381 15.4-2.846.949-.316-.949 2.846-.949zm12.619-2.4v1h-3v-1zm-13.719-.9-2.846.949-.316-.949 2.846-.949zm13.719-4.1v1h-3v-1z"/></g></g></svg>