<svg clip-rule="evenodd" fill-rule="evenodd" stroke-linecap="round" stroke-linejoin="round" stroke-miterlimit="1.5" viewBox="0 0 32 32" xmlns="http://www.w3.org/2000/svg" xmlns:xlink="http://www.w3.org/1999/xlink"><clipPath id="a"><path clip-rule="evenodd" d="m0 0h32v32h-32z"/></clipPath><clipPath id="b"><path clip-rule="evenodd" d="m16 5c7.2 0 9.816 4.204 10.572 9 .137.863.285 2.087.386 2.953.079.679.019 1.367-.178 2.021-.222.74-.53.769-.78 1.601-.254.846-1.032 1.425-1.916 1.425h-8.084-8c-.883 0-1.662-.579-1.916-1.425-.249-.832-.558-.861-.78-1.601-.196-.654-.257-1.342-.177-2.021.101-.866.249-2.09.385-2.953.757-4.796 3.288-9 10.488-9z"/></clipPath><clipPath id="c"><path clip-rule="evenodd" d="m13 21-8-9v-8h22v8l-8 9"/></clipPath><metadata/><path d="m0 0h32v32h-32z" fill="none"/><g clip-path="url(#a)"><path d="m7.362 28c-3.266-2.553-5.362-6.533-5.362-11 0-7.727 6.273-14 14-14 7.719 0 13.987 6.26 14 14-.008 4.473-2.104 8.451-5.362 11z" fill="none" stroke="#000" stroke-width="4"/><path d="m29.963 16c.024.33.036.664.037 1-.008 4.473-2.104 8.451-5.362 11l-1.638-1h-14l-1.638 1c-3.266-2.553-5.362-6.533-5.362-11 0-.336.012-.67.035-1l.965-1h26z" fill="#404040"/><path d="m2.035 16c.514-7.261 6.574-13 13.965-13 7.383 0 13.439 5.728 13.963 13z" fill="#333"/><path d="m24.638 28h-17.276l6.638-7h4z" fill="#696969"/><path d="m12 24h-2v2.5c0 .133.053.26.146.354.094.093.221.146.354.146h1c.133 0 .26-.053.354-.146.093-.094.146-.221.146-.354 0-.853 0-2.5 0-2.5z" fill="#262626"/><path d="m22 24h-2v2.5c0 .133.053.26.146.354.094.093.221.146.354.146h1c.133 0 .26-.053.354-.146.093-.094.146-.221.146-.354 0-.853 0-2.5 0-2.5z" fill="#262626"/><path d="m25 22h-18v4h2l1-1h12l1 1h2z" fill="#1a1a1a"/><path d="m16 4c7.2 0 10.243 5.204 11 10 .136.863.284 2.087.385 2.953.08.679.019 1.367-.177 2.021-.222.74-.531 1.769-.78 2.601-.254.846-1.033 1.425-1.916 1.425h-8.512-8.512c-.883 0-1.662-.579-1.916-1.425-.249-.832-.558-1.861-.78-2.601-.196-.654-.257-1.342-.177-2.021.101-.866.249-2.09.385-2.953.757-4.796 3.8-10 11-10z" fill="#f11717"/><path d="m16.168 4.001.166.003.165.005.164.006.162.008.16.011.159.012.158.014.156.015.154.018.153.019.152.021.15.022.149.024.147.026.146.028.144.029.143.031.142.033.14.034.138.035.138.038.135.039.135.04.133.042.132.043.13.045.129.046.127.048.126.049.125.051.124.052.122.054.121.054.119.057.118.057.117.059.115.06.114.062.113.062.112.064.11.066.109.066.107.068.107.069.105.07.103.071.103.073.101.073.1.075.099.075.097.077.096.078.095.079.094.08.093.081.091.082.09.083.089.084.087.085.087.086.085.087.084.088.083.088.082.09.08.09.08.092.078.092.077.093.076.093.075.095.073.095.073.096.071.097.07.097.069.098.068.099.067.099.066.101.064.1.064.102.062.102.062.102.06.103.059.104.058.104.058.105.056.105.055.106.053.107.053.106.052.107.051.108.05.108.049.108.047.109.047.109.046.11.045.11.044.11.042.11.042.111.041.111.04.111.039.112.038.111.037.112.036.112.035.113.034.112.033.113.032.112.032.113.03.113.03.113.028.113.028.113.027.113.026.113.025.113.024.113.023.113.023.113.021.113.021.113.02.113.019.113.018.112.026.166.026.173.051.365.052.381.051.39.049.39.047.382.043.366.04.34.007.063.006.064.006.064.004.064.004.063.003.064.002.064.002.064v.064.064l-.001.063-.002.064-.003.064-.003.063-.005.064-.005.064-.006.063-.007.063-.007.064-.009.063-.009.063-.01.063-.011.063-.011.063-.013.062-.013.063-.014.062-.015.062-.016.062-.016.062-.017.062-.018.061-.78 2.601-.013.039-.013.039-.014.039-.014.038-.015.038-.016.037-.017.037-.017.037-.018.036-.019.036-.02.035-.02.034-.021.035-.021.033-.022.034-.023.032-.023.033-.024.031-.024.031-.025.031-.026.03-.026.03-.027.029-.027.028-.028.028-.028.028-.029.027-.03.026-.03.025-.03.025-.031.025-.031.024-.032.023-.032.022-.033.022-.033.022-.034.02-.034.02-.034.019-.035.019-.035.018-.035.017-.036.017-.037.016-.036.015-.037.014-.037.014-.038.013-.038.013-.038.011-.038.011-.039.01-.039.009-.039.009-.04.007-.04.007-.04.007-.04.005-.04.005-.041.003-.041.003-.041.002-.041.002h-.041-8.512-8.512-.041l-.041-.002-.041-.002-.041-.003-.041-.003-.04-.005-.04-.005-.04-.007-.04-.007-.04-.007-.039-.009-.039-.009-.039-.01-.038-.011-.038-.011-.038-.013-.038-.013-.037-.014-.037-.014-.036-.015-.037-.016-.036-.017-.035-.017-.035-.018-.035-.019-.034-.019-.034-.02-.034-.02-.033-.022-.033-.022-.032-.022-.032-.023-.031-.024-.031-.025-.03-.025-.03-.025-.03-.026-.029-.027-.028-.028-.028-.028-.027-.028-.027-.029-.026-.03-.026-.03-.025-.031-.024-.031-.024-.031-.023-.033-.023-.032-.022-.034-.021-.033-.021-.035-.02-.034-.02-.035-.019-.036-.018-.036-.017-.037-.017-.037-.016-.037-.015-.038-.014-.038-.014-.039-.013-.039-.013-.039-.78-2.601-.018-.061-.017-.062-.016-.062-.016-.062-.015-.062-.014-.062-.013-.063-.013-.062-.011-.063-.011-.063-.01-.063-.009-.063-.009-.063-.007-.064-.007-.063-.006-.063-.005-.064-.005-.064-.003-.063-.003-.064-.002-.064-.001-.063v-.064-.064l.002-.064.002-.064.003-.064.004-.063.004-.064.006-.064.006-.064.007-.063.04-.34.043-.366.047-.382.049-.39.051-.39.052-.381.051-.365.026-.173.026-.166.018-.112.019-.113.02-.113.021-.113.021-.113.023-.113.023-.113.024-.113.025-.113.026-.113.027-.113.028-.113.028-.113.03-.113.03-.113.032-.113.032-.112.033-.113.034-.112.035-.113.036-.112.037-.112.038-.111.039-.112.04-.111.041-.111.042-.111.042-.11.044-.11.045-.11.046-.11.047-.109.047-.109.049-.108.05-.108.051-.108.052-.107.053-.106.053-.107.055-.106.056-.105.058-.105.058-.104.059-.104.06-.103.062-.102.062-.102.064-.102.064-.1.066-.101.067-.099.068-.099.069-.098.07-.097.071-.097.073-.096.073-.095.075-.095.076-.093.077-.093.078-.092.08-.092.08-.09.082-.089.083-.089.084-.088.085-.087.086-.086.088-.085.089-.084.09-.083.091-.082.093-.081.094-.08.095-.079.096-.078.097-.076.099-.076.1-.075.101-.073.103-.073.103-.071.105-.07.107-.069.107-.068.109-.066.11-.066.112-.064.113-.062.114-.062.115-.06.117-.059.118-.057.119-.057.121-.054.122-.054.124-.052.125-.051.126-.049.127-.048.129-.046.13-.045.132-.043.133-.042.135-.04.135-.039.138-.038.138-.035.14-.034.142-.033.143-.031.144-.029.146-.028.147-.026.149-.024.15-.022.152-.021.153-.019.154-.018.156-.015.158-.014.159-.012.16-.011.162-.008.164-.006.165-.005.166-.003.168-.001s.168.001.168.001zm-.319 1.5-.149.002-.148.005-.146.006-.144.007-.143.009-.141.011-.139.012-.138.014-.136.015-.135.017-.133.018-.132.02-.13.021-.128.023-.127.024-.126.025-.124.027-.122.028-.121.03-.12.031-.118.032-.117.033-.115.035-.114.036-.113.037-.111.038-.11.04-.109.04-.107.042-.106.043-.104.044-.104.046-.102.046-.101.048-.1.048-.098.05-.098.051-.096.051-.095.053-.094.054-.093.055-.091.056-.091.057-.089.058-.089.059-.087.06-.086.061-.085.062-.085.063-.083.063-.082.065-.081.066-.08.066-.079.068-.078.068-.077.07-.076.07-.076.071-.074.072-.073.073-.072.073-.072.075-.07.075-.07.077-.068.077-.068.077-.067.079-.066.08-.065.08-.064.081-.063.081-.062.083-.062.083-.06.084-.06.085-.059.085-.057.086-.057.087-.057.088-.055.088-.054.088-.054.09-.052.09-.052.09-.051.092-.05.091-.049.093-.048.093-.048.093-.046.094-.046.095-.045.094-.044.096-.043.096-.042.096-.042.097-.04.097-.04.098-.039.098-.038.098-.038.099-.036.099-.036.099-.034.1-.034.1-.033.1-.033.101-.031.1-.031.101-.03.101-.029.102-.028.101-.027.102-.027.102-.026.102-.025.102-.024.102-.024.102-.022.102-.022.102-.021.103-.02.102-.02.102-.019.103-.018.102-.017.102-.016.102-.025.157-.024.165-.051.354-.05.373-.05.382-.048.385-.046.377-.044.362-.039.334-.005.049-.005.045-.003.044-.004.045-.002.045-.002.044-.002.045-.001.045v.045.044l.001.045.001.044.002.045.003.044.003.045.003.045.004.044.005.044.005.044.006.045.007.044.007.044.007.044.009.044.008.044.01.044.009.043.011.043.011.044.011.043.012.044.014.048.777 2.588.005.017.004.011.003.01.004.009.004.009.004.01.008.018.005.009.004.009.01.017.011.017.011.016.011.016.012.015.014.016.013.014.014.014.015.013.015.013.016.012.016.012.016.01.017.011.018.009.018.009.017.008.019.008.018.006.019.006.019.005.02.005.009.002.01.001.01.002.01.001.01.001.01.001.011.001h.01l.01.001h.019 17.008.019l.01-.001h.01l.011-.001.01-.001.01-.001.01-.001.01-.002.01-.001.01-.002.009-.003.01-.002.009-.002.01-.003.009-.003.01-.003.009-.003.01-.004.009-.003.008-.004.01-.004.009-.004.008-.004.009-.005.009-.004.009-.005.008-.005.008-.005.009-.006.008-.005.008-.006.009-.006.007-.006.008-.006.008-.007.007-.006.007-.006.008-.007.007-.007.007-.007.007-.007.006-.007.007-.008.006-.007.007-.008.006-.008.006-.008.005-.008.006-.008.006-.008.005-.008.005-.008.005-.009.005-.009.005-.009.004-.009.004-.009.004-.009.004-.009.004-.009.004-.011.003-.009.004-.01.005-.018.777-2.589.014-.047.012-.044.011-.043.011-.043.011-.044.009-.043.01-.044.009-.044.008-.044.007-.044.007-.044.007-.044.005-.044.006-.045.005-.044.004-.044.003-.045.003-.045.003-.044.002-.044.001-.045.001-.045v-.045-.044l-.001-.045-.002-.044-.002-.045-.002-.045-.004-.045-.003-.044-.005-.045-.005-.049-.039-.334-.044-.362-.046-.377-.048-.385-.05-.383-.05-.372-.051-.354-.024-.165-.025-.157-.016-.102-.017-.102-.018-.102-.019-.102-.02-.103-.02-.102-.021-.102-.022-.103-.022-.102-.024-.102-.024-.102-.025-.102-.026-.102-.027-.102-.027-.102-.028-.101-.029-.101-.03-.102-.031-.101-.031-.1-.033-.101-.033-.1-.034-.1-.034-.1-.036-.099-.036-.099-.038-.099-.038-.098-.039-.098-.04-.098-.04-.097-.042-.097-.042-.096-.043-.096-.044-.095-.045-.095-.046-.095-.046-.094-.048-.093-.048-.093-.049-.092-.05-.092-.051-.092-.052-.09-.052-.09-.054-.09-.054-.088-.055-.088-.057-.088-.056-.087-.058-.086-.059-.085-.06-.085-.06-.084-.062-.083-.062-.082-.063-.082-.064-.081-.065-.081-.066-.079-.067-.079-.068-.077-.068-.077-.07-.077-.07-.075-.072-.075-.072-.073-.073-.073-.075-.072-.075-.071-.076-.07-.077-.07-.078-.068-.079-.068-.08-.066-.081-.066-.082-.065-.083-.063-.085-.063-.085-.062-.086-.061-.087-.06-.089-.059-.089-.058-.091-.057-.091-.056-.093-.055-.094-.054-.095-.053-.096-.051-.098-.051-.098-.05-.1-.049-.101-.047-.102-.046-.103-.046-.105-.044-.106-.043-.108-.042-.108-.041-.11-.039-.111-.038-.113-.037-.114-.036-.115-.035-.117-.033-.118-.032-.12-.031-.121-.03-.122-.028-.124-.027-.126-.025-.127-.024-.128-.023-.13-.021-.132-.02-.133-.018-.135-.017-.136-.015-.138-.014-.139-.012-.141-.011-.143-.009-.144-.007-.146-.006-.148-.005-.149-.002-.151-.001-.151.001z" fill="#f11717"/><path d="m16 5c7.2 0 9.816 4.204 10.572 9 .137.863.285 2.087.386 2.953.079.679.019 1.367-.178 2.021-.222.74-.53.769-.78 1.601-.254.846-1.032 1.425-1.916 1.425h-8.084-8c-.883 0-1.662-.579-1.916-1.425-.249-.832-.558-.861-.78-1.601-.196-.654-.257-1.342-.177-2.021.101-.866.249-2.09.385-2.953.757-4.796 3.288-9 10.488-9z" fill="none"/><g clip-path="url(#b)"><path d="m19 21h1.586c.265 0 .519-.105.707-.293 1.204-1.204 5.707-5.707 5.707-5.707v-3l-5 3z" fill="#f5f5f5"/><path d="m13 21h-1.586c-.265 0-.519-.105-.707-.293-1.204-1.204-5.707-5.707-5.707-5.707v-3l5 3z" fill="#f5f5f5"/><path d="m13 21-8-9v-8h22v8l-8 9"/><g clip-path="url(#c)"><path d="m13 5h6v16h-6z" fill="#262626"/><path d="m13 5h6v4h-6z" fill="#4f4f4f"/></g></g><path d="m16.168 4.001.166.003.165.005.164.006.162.008.16.011.159.012.158.014.156.015.154.018.153.019.152.021.15.022.149.024.147.026.146.028.144.029.143.031.142.033.14.034.138.035.138.038.135.039.135.04.133.042.132.043.13.045.129.046.127.048.126.049.125.051.124.052.122.054.121.054.119.057.118.057.117.059.115.06.114.062.113.062.112.064.11.066.109.066.107.068.107.069.105.07.103.071.103.073.101.073.1.075.099.075.097.077.096.078.095.079.094.08.093.081.091.082.09.083.089.084.087.085.087.086.085.087.084.088.083.088.082.09.08.09.08.092.078.092.077.093.076.093.075.095.073.095.073.096.071.097.07.097.069.098.068.099.067.099.066.101.064.1.064.102.062.102.062.102.06.103.059.104.058.104.058.105.056.105.055.106.053.107.053.106.052.107.051.108.05.108.049.108.047.109.047.109.046.11.045.11.044.11.042.11.042.111.041.111.04.111.039.112.038.111.037.112.036.112.035.113.034.112.033.113.032.112.032.113.03.113.03.113.028.113.028.113.027.113.026.113.025.113.024.113.023.113.023.113.021.113.021.113.02.113.019.113.018.112.026.166.026.173.051.365.052.381.051.39.049.39.047.382.043.366.04.34.007.063.006.064.006.064.004.064.004.063.003.064.002.064.002.064v.064.064l-.001.063-.002.064-.003.064-.003.063-.005.064-.005.064-.006.063-.007.063-.007.064-.009.063-.009.063-.01.063-.011.063-.011.063-.013.062-.013.063-.014.062-.015.062-.016.062-.016.062-.017.062-.018.061-.78 2.601-.013.039-.013.039-.014.039-.014.038-.015.038-.016.037-.017.037-.017.037-.018.036-.019.036-.02.035-.02.034-.021.035-.021.033-.022.034-.023.032-.023.033-.024.031-.024.031-.025.031-.026.03-.026.03-.027.029-.027.028-.028.028-.028.028-.029.027-.03.026-.03.025-.03.025-.031.025-.031.024-.032.023-.032.022-.033.022-.033.022-.034.02-.034.02-.034.019-.035.019-.035.018-.035.017-.036.017-.037.016-.036.015-.037.014-.037.014-.038.013-.038.013-.038.011-.038.011-.039.01-.039.009-.039.009-.04.007-.04.007-.04.007-.04.005-.04.005-.041.003-.041.003-.041.002-.041.002h-.041-8.512-8.512-.041l-.041-.002-.041-.002-.041-.003-.041-.003-.04-.005-.04-.005-.04-.007-.04-.007-.04-.007-.039-.009-.039-.009-.039-.01-.038-.011-.038-.011-.038-.013-.038-.013-.037-.014-.037-.014-.036-.015-.037-.016-.036-.017-.035-.017-.035-.018-.035-.019-.034-.019-.034-.02-.034-.02-.033-.022-.033-.022-.032-.022-.032-.023-.031-.024-.031-.025-.03-.025-.03-.025-.03-.026-.029-.027-.028-.028-.028-.028-.027-.028-.027-.029-.026-.03-.026-.03-.025-.031-.024-.031-.024-.031-.023-.033-.023-.032-.022-.034-.021-.033-.021-.035-.02-.034-.02-.035-.019-.036-.018-.036-.017-.037-.017-.037-.016-.037-.015-.038-.014-.038-.014-.039-.013-.039-.013-.039-.78-2.601-.018-.061-.017-.062-.016-.062-.016-.062-.015-.062-.014-.062-.013-.063-.013-.062-.011-.063-.011-.063-.01-.063-.009-.063-.009-.063-.007-.064-.007-.063-.006-.063-.005-.064-.005-.064-.003-.063-.003-.064-.002-.064-.001-.063v-.064-.064l.002-.064.002-.064.003-.064.004-.063.004-.064.006-.064.006-.064.007-.063.04-.34.043-.366.047-.382.049-.39.051-.39.052-.381.051-.365.026-.173.026-.166.018-.112.019-.113.02-.113.021-.113.021-.113.023-.113.023-.113.024-.113.025-.113.026-.113.027-.113.028-.113.028-.113.03-.113.03-.113.032-.113.032-.112.033-.113.034-.112.035-.113.036-.112.037-.112.038-.111.039-.112.04-.111.041-.111.042-.111.042-.11.044-.11.045-.11.046-.11.047-.109.047-.109.049-.108.05-.108.051-.108.052-.107.053-.106.053-.107.055-.106.056-.105.058-.105.058-.104.059-.104.06-.103.062-.102.062-.102.064-.102.064-.1.066-.101.067-.099.068-.099.069-.098.07-.097.071-.097.073-.096.073-.095.075-.095.076-.093.077-.093.078-.092.08-.092.08-.09.082-.089.083-.089.084-.088.085-.087.086-.086.088-.085.089-.084.09-.083.091-.082.093-.081.094-.08.095-.079.096-.078.097-.076.099-.076.1-.075.101-.073.103-.073.103-.071.105-.07.107-.069.107-.068.109-.066.11-.066.112-.064.113-.062.114-.062.115-.06.117-.059.118-.057.119-.057.121-.054.122-.054.124-.052.125-.051.126-.049.127-.048.129-.046.13-.045.132-.043.133-.042.135-.04.135-.039.138-.038.138-.035.14-.034.142-.033.143-.031.144-.029.146-.028.147-.026.149-.024.15-.022.152-.021.153-.019.154-.018.156-.015.158-.014.159-.012.16-.011.162-.008.164-.006.165-.005.166-.003.168-.001s.168.001.168.001zm-.319 1.5-.149.002-.148.005-.146.006-.144.007-.143.009-.141.011-.139.012-.138.014-.136.015-.135.017-.133.018-.132.02-.13.021-.128.023-.127.024-.126.025-.124.027-.122.028-.121.03-.12.031-.118.032-.117.033-.115.035-.114.036-.113.037-.111.038-.11.04-.109.04-.107.042-.106.043-.104.044-.104.046-.102.046-.101.048-.1.048-.098.05-.098.051-.096.051-.095.053-.094.054-.093.055-.091.056-.091.057-.089.058-.089.059-.087.06-.086.061-.085.062-.085.063-.083.063-.082.065-.081.066-.08.066-.079.068-.078.068-.077.07-.076.07-.076.071-.074.072-.073.073-.072.073-.072.075-.07.075-.07.077-.068.077-.068.077-.067.079-.066.08-.065.08-.064.081-.063.081-.062.083-.062.083-.06.084-.06.085-.059.085-.057.086-.057.087-.057.088-.055.088-.054.088-.054.09-.052.09-.052.09-.051.092-.05.091-.049.093-.048.093-.048.093-.046.094-.046.095-.045.094-.044.096-.043.096-.042.096-.042.097-.04.097-.04.098-.039.098-.038.098-.038.099-.036.099-.036.099-.034.1-.034.1-.033.1-.033.101-.031.1-.031.101-.03.101-.029.102-.028.101-.027.102-.027.102-.026.102-.025.102-.024.102-.024.102-.022.102-.022.102-.021.103-.02.102-.02.102-.019.103-.018.102-.017.102-.016.102-.025.157-.024.165-.051.354-.05.373-.05.382-.048.385-.046.377-.044.362-.039.334-.005.049-.005.045-.003.044-.004.045-.002.045-.002.044-.002.045-.001.045v.045.044l.001.045.001.044.002.045.003.044.003.045.003.045.004.044.005.044.005.044.006.045.007.044.007.044.007.044.009.044.008.044.01.044.009.043.011.043.011.044.011.043.012.044.014.048.777 2.588.005.017.004.011.003.01.004.009.004.009.004.01.008.018.005.009.004.009.01.017.011.017.011.016.011.016.012.015.014.016.013.014.014.014.015.013.015.013.016.012.016.012.016.01.017.011.018.009.018.009.017.008.019.008.018.006.019.006.019.005.02.005.009.002.01.001.01.002.01.001.01.001.01.001.011.001h.01l.01.001h.019 17.008.019l.01-.001h.01l.011-.001.01-.001.01-.001.01-.001.01-.002.01-.001.01-.002.009-.003.01-.002.009-.002.01-.003.009-.003.01-.003.009-.003.01-.004.009-.003.008-.004.01-.004.009-.004.008-.004.009-.005.009-.004.009-.005.008-.005.008-.005.009-.006.008-.005.008-.006.009-.006.007-.006.008-.006.008-.007.007-.006.007-.006.008-.007.007-.007.007-.007.007-.007.006-.007.007-.008.006-.007.007-.008.006-.008.006-.008.005-.008.006-.008.006-.008.005-.008.005-.008.005-.009.005-.009.005-.009.004-.009.004-.009.004-.009.004-.009.004-.009.004-.011.003-.009.004-.01.005-.018.777-2.589.014-.047.012-.044.011-.043.011-.043.011-.044.009-.043.01-.044.009-.044.008-.044.007-.044.007-.044.007-.044.005-.044.006-.045.005-.044.004-.044.003-.045.003-.045.003-.044.002-.044.001-.045.001-.045v-.045-.044l-.001-.045-.002-.044-.002-.045-.002-.045-.004-.045-.003-.044-.005-.045-.005-.049-.039-.334-.044-.362-.046-.377-.048-.385-.05-.383-.05-.372-.051-.354-.024-.165-.025-.157-.016-.102-.017-.102-.018-.102-.019-.102-.02-.103-.02-.102-.021-.102-.022-.103-.022-.102-.024-.102-.024-.102-.025-.102-.026-.102-.027-.102-.027-.102-.028-.101-.029-.101-.03-.102-.031-.101-.031-.1-.033-.101-.033-.1-.034-.1-.034-.1-.036-.099-.036-.099-.038-.099-.038-.098-.039-.098-.04-.098-.04-.097-.042-.097-.042-.096-.043-.096-.044-.095-.045-.095-.046-.095-.046-.094-.048-.093-.048-.093-.049-.092-.05-.092-.051-.092-.052-.09-.052-.09-.054-.09-.054-.088-.055-.088-.057-.088-.056-.087-.058-.086-.059-.085-.06-.085-.06-.084-.062-.083-.062-.082-.063-.082-.064-.081-.065-.081-.066-.079-.067-.079-.068-.077-.068-.077-.07-.077-.07-.075-.072-.075-.072-.073-.073-.073-.075-.072-.075-.071-.076-.07-.077-.07-.078-.068-.079-.068-.08-.066-.081-.066-.082-.065-.083-.063-.085-.063-.085-.062-.086-.061-.087-.06-.089-.059-.089-.058-.091-.057-.091-.056-.093-.055-.094-.054-.095-.053-.096-.051-.098-.051-.098-.05-.1-.049-.101-.047-.102-.046-.103-.046-.105-.044-.106-.043-.108-.042-.108-.041-.11-.039-.111-.038-.113-.037-.114-.036-.115-.035-.117-.033-.118-.032-.12-.031-.121-.03-.122-.028-.124-.027-.126-.025-.127-.024-.128-.023-.13-.021-.132-.02-.133-.018-.135-.017-.136-.015-.138-.014-.139-.012-.141-.011-.143-.009-.144-.007-.146-.006-.148-.005-.149-.002-.151-.001-.151.001z" fill="#f11717"/><path d="m14 7h4v1h-4z" fill="#e9a620"/><path d="m15 14.5h2v1h-2z" fill="#999"/><path d="m6.672 18.172c-.084-.084-.213-.101-.316-.043s-.154.178-.126.293c.176.703.416 1.661.581 2.321.111.445.511.757.97.757h1.584c.106 0 .202-.064.243-.162.041-.099.018-.212-.057-.287-.702-.702-2.061-2.061-2.879-2.879z" fill="#9e0a0a"/><circle cx="16" cy="18" fill="#4c4c4c" r="1"/></g></svg>