<svg clip-rule="evenodd" fill-rule="evenodd" stroke-linecap="round" stroke-linejoin="round" stroke-miterlimit="1.5" viewBox="0 0 32 32" xmlns="http://www.w3.org/2000/svg" xmlns:xlink="http://www.w3.org/1999/xlink"><clipPath id="a"><path clip-rule="evenodd" d="m0 0h32v32h-32z"/></clipPath><metadata/><path d="m0 0h32v32h-32z" fill="none"/><g clip-path="url(#a)"><path d="m12 6h1l4-4 3 3-4 4v1h2c4.418 0 8 3.582 8 8v12h-20c0-2.034 1.518-3.714 3.483-3.967l1.517-3.033h3l1.5 3h.5c.338 0 .673-.034 1-.101v-3.899h-9v-2h13v-2c0-1.591-.632-3.117-1.757-4.243-.887-.886-2.023-1.467-3.243-1.673v1.166l-7 1.75s-.287-.573-.553-1.106c-.294-.588-.447-1.236-.447-1.894s0-1.5 0-3c0-.796.316-1.559.879-2.121.562-.563 1.325-.879 2.121-.879zm-1 9h2v4h-2zm3 0 2-1 1 2-2 1z" fill="none" stroke="#000" stroke-width="4"/><path d="m9 27 2-4h3l2 4z" fill="#4d4d4d"/><path d="m17 22h-9v-2h9l1 1z" fill="#4d4d4d"/><path d="m17 20h7v7h-7z" fill="#999"/><path d="m8 12c0 .658.153 1.306.447 1.894.266.533.553 1.106.553 1.106l7-1.75v-1.25l-1-1h-6z" fill="#4d4d4d"/><path d="m12 6h1l4-4 3 3-4 4v1h-4z" fill="#4d4d4d"/><path d="m15 12h-7s0-1.5 0-3c0-.796.316-1.559.879-2.121.562-.563 1.325-.879 2.121-.879h1l4 4h2c4.418 0 8 3.582 8 8v12h-20c0-2.209 1.791-4 4-4h6c1.326 0 2.598-.527 3.536-1.464.937-.938 1.464-2.21 1.464-3.536 0-.972 0-2 0-3 0-1.591-.632-3.117-1.757-4.243-1.126-1.125-2.652-1.757-4.243-1.757z" fill="#fff"/><circle cx="22" cy="25" fill="#4d4d4d" r="3"/><path d="m11 15h2v4h-2z" fill="#999"/><path d="m14 15 2-1 1 2-2 1z" fill="#999"/><path d="m17.182 14.978-7 1.75-.364-1.456 7-1.75z" fill="#4d4d4d" fill-rule="nonzero"/></g></svg>