<svg clip-rule="evenodd" fill-rule="evenodd" stroke-linecap="square" stroke-linejoin="round" stroke-miterlimit="1.5" viewBox="0 0 32 32" xmlns="http://www.w3.org/2000/svg" xmlns:xlink="http://www.w3.org/1999/xlink"><clipPath id="a"><path clip-rule="evenodd" d="m0 0h32v32h-32z"/></clipPath><metadata/><path d="m0 0h32v32h-32z" fill="none"/><g clip-path="url(#a)"><path d="m10 13v-7.816c0-1.485 1.086-2.747 2.554-2.967.962-.113 2.14-.217 3.446-.217s2.484.104 3.443.233c1.461.219 2.541 1.474 2.541 2.951.016 3.039.016 7.812.016 7.816v2h2v-2h2v7c0 3.314-2.686 6-6 6-2.53 0-5.47 0-8 0-3.314 0-6-2.686-6-6 0-3.408 0-7 0-7h2v2h2z" fill="none" stroke="#000" stroke-width="4"/><path d="m14 26h4v4h-4z" fill="#404040" stroke="#000" stroke-linejoin="miter" stroke-width="4"/><path d="m7 16h18v9h-18z"/><path d="m7 15h18v2h-18z" fill="#333"/><path d="m10 19c0 .796.316 1.559.879 2.121.562.563 1.325.879 2.121.879h6c.796 0 1.559-.316 2.121-.879.563-.562.879-1.325.879-2.121 0-2.618 0-6 0-6l-1-1h-10l-1 1z" fill="#666"/><path d="m10 5.184c0-1.485 1.086-2.747 2.554-2.967.962-.113 2.14-.217 3.446-.217s2.484.104 3.443.233c1.461.219 2.541 1.474 2.541 2.951.016 3.041.016 7.816.016 7.816h-12z" fill="#333"/><g fill="#595959"><path d="m6 13h2v7c0 1.061.421 2.078 1.172 2.828.75.751 1.767 1.172 2.828 1.172h8c1.061 0 2.078-.421 2.828-1.172.751-.75 1.172-1.767 1.172-2.828 0-3.146 0-7 0-7h2v7c0 3.314-2.686 6-6 6-2.53 0-5.47 0-8 0-3.314 0-6-2.686-6-6 0-3.408 0-7 0-7z"/><path d="m14 25h4v5h-4z"/></g></g></svg>