<svg clip-rule="evenodd" fill-rule="evenodd" stroke-linejoin="round" stroke-miterlimit="2" viewBox="0 0 32 32" xmlns="http://www.w3.org/2000/svg" xmlns:xlink="http://www.w3.org/1999/xlink"><clipPath id="a"><path clip-rule="evenodd" d="m0 0h32v32h-32z"/></clipPath><clipPath id="b"><path clip-rule="evenodd" d="m10 18c-1.657 0-3 1.343-3 3v.456c0 .36.065.717.191 1.053.222.594.614 1.636 1.034 2.759 1.068 2.846 3.789 4.732 6.829 4.732h.921c2.394 0 4.689-.951 6.382-2.643 1.692-1.693 2.643-3.988 2.643-6.382 0-2.709 0-4.975 0-4.975h-5v-1h-10z"/></clipPath><metadata/><path d="m0 0h32v32h-32z" fill="none"/><g clip-path="url(#a)"><path d="m19 0v11.038c.137-.02.274-.032.413-.037.087-.001.087-.001.174 0 .402.015.797.088 1.173.234.428.165.821.414 1.153.729.096.092.188.19.273.292.044-.018.089-.035.134-.051.352-.126.72-.19 1.093-.204.087-.001.087-.001.174 0 .402.015.797.088 1.173.234.401.154.771.383 1.089.67.447.405.785.924.974 1.496.116.351.173.717.177 1.087v1.012c0 1.538.009 3.075-.001 4.612-.002.137-.007.273-.013.41-.02.362-.053.722-.107 1.081-.119.8-.327 1.587-.618 2.341-.536 1.389-1.355 2.664-2.394 3.73-1.134 1.163-2.525 2.068-4.048 2.634-.928.346-1.903.565-2.89.651-.322.028-.644.038-.967.041h-.918l-.171-.002c-.3-.008-.598-.026-.896-.06-.585-.068-1.164-.192-1.726-.37-1.887-.597-3.559-1.803-4.721-3.406-.312-.43-.587-.888-.821-1.365-.106-.216-.2-.436-.291-.658-.389-1.008-.77-2.018-1.138-3.033-.06-.177-.113-.356-.155-.539-.082-.36-.124-.73-.125-1.1 0-.237-.006-.479.006-.717.016-.327.065-.652.145-.97.168-.672.478-1.307.904-1.854.429-.55.974-1.009 1.589-1.337.113-.06.228-.116.345-.167 0-.671.004-1.341.012-2.011.014-.381.08-.756.212-1.114.351-.96 1.124-1.733 2.084-2.084.358-.132.733-.198 1.114-.212.089-.001.089-.001.178 0 .129.005.258.016.385.033.002-1.435.009-2.87.027-4.305.004-.099.004-.099.01-.198.023-.261.064-.519.135-.772.13-.471.348-.917.639-1.31.115-.156.243-.302.378-.44l4.009-4.009h1.828z"/><g fill="#09a4e7"><path d="m14 6.828c0-.53.211-1.039.586-1.414.873-.873 2.414-2.414 2.414-2.414v17h-3z"/><path d="m10 14.498c0-.397.158-.778.439-1.059s.662-.439 1.059-.439h.004c.397 0 .778.158 1.059.439s.439.662.439 1.059v4.502h-3z"/><path d="m18 14.498c0-.827.671-1.498 1.498-1.498h.004c.827 0 1.498.671 1.498 1.498v3.502h-3z"/><path d="m22 15.5c0-.398.158-.779.439-1.061.282-.281.663-.439 1.061-.439s.779.158 1.061.439c.281.282.439.663.439 1.061v2.5h-3z"/><path d="m10 18c-1.657 0-3 1.343-3 3v.456c0 .36.065.717.191 1.053.222.594.614 1.636 1.034 2.759 1.068 2.846 3.789 4.732 6.829 4.732h.921c2.394 0 4.689-.951 6.382-2.643 1.692-1.693 2.643-3.988 2.643-6.382 0-2.709 0-4.975 0-4.975h-5v-1h-10z"/></g><g clip-path="url(#b)"><path d="m10 18-2-2v4c0 .265.105.52.293.707.187.188.442.293.707.293.552 0 1-.448 1-1 0-.873 0-2 0-2z" fill="#0072cf"/></g></g></svg>