<svg clip-rule="evenodd" fill-rule="evenodd" stroke-linejoin="round" stroke-miterlimit="2" viewBox="0 0 32 32" xmlns="http://www.w3.org/2000/svg" xmlns:xlink="http://www.w3.org/1999/xlink"><clipPath id="a"><path clip-rule="evenodd" d="m0 0h32v32h-32z"/></clipPath><clipPath id="b"><path clip-rule="evenodd" d="m14 15v-10.5c0-.398.158-.779.439-1.061.282-.281.663-.439 1.061-.439s.779.158 1.061.439c.281.282.439.663.439 1.061v10.5h1v-.5c0-.398.158-.779.439-1.061.282-.281.663-.439 1.061-.439s.779.158 1.061.439c.281.282.439.663.439 1.061v1.5h1v-.5c0-.398.158-.779.439-1.061.282-.281.663-.439 1.061-.439s.779.158 1.061.439c.281.282.439.663.439 1.061v5.475c0 2.394-.951 4.689-2.643 6.382-1.693 1.692-3.988 2.643-6.382 2.643-.311 0-.619 0-.921 0-3.04 0-5.761-1.886-6.829-4.732-.42-1.123-.812-2.165-1.034-2.759-.126-.336-.191-.693-.191-1.053 0-.136 0-.29 0-.458 0-.795.316-1.558.878-2.12s1.325-.878 2.12-.878h.002v-3.5c0-.828.672-1.5 1.5-1.5s1.5.672 1.5 1.5v.5z"/></clipPath><metadata/><path d="m0 0h32v32h-32z" fill="none"/><g clip-path="url(#a)"><path d="m11.968 11.033c-.003-2.207.005-4.414.033-6.62.014-.374.078-.741.204-1.094.174-.485.455-.929.82-1.294.344-.344.76-.615 1.215-.79.376-.146.771-.219 1.173-.234.087-.001.087-.001.174 0 .402.015.797.088 1.173.234.942.363 1.695 1.134 2.035 2.084.135.376.2.77.205 1.168v6.551c.137-.02.274-.032.413-.037.087-.001.087-.001.174 0 .402.015.797.088 1.173.234.428.165.821.414 1.153.729.096.092.188.19.273.292.044-.018.089-.035.134-.051.352-.126.72-.19 1.093-.204.087-.001.087-.001.174 0 .431.016.853.1 1.252.265.933.387 1.667 1.176 1.984 2.135.116.351.173.717.177 1.087v1.041c0 1.528.008 3.055-.001 4.583-.002.137-.007.273-.013.41-.02.362-.053.722-.107 1.081-.119.8-.327 1.587-.618 2.342-.553 1.431-1.405 2.741-2.49 3.826-1.117 1.116-2.472 1.987-3.952 2.537-.928.346-1.903.565-2.89.651-.627.054-1.255.041-1.885.041l-.171-.002c-.24-.007-.479-.018-.718-.041-.529-.052-1.054-.149-1.567-.29-1.908-.525-3.625-1.667-4.847-3.224-.363-.464-.683-.962-.952-1.487-.137-.266-.258-.54-.371-.817-.389-1.007-.77-2.018-1.138-3.033-.06-.177-.113-.356-.155-.539-.082-.36-.124-.73-.125-1.1 0-.237-.006-.479.006-.717.014-.286.053-.572.116-.852.171-.755.519-1.468 1.01-2.068.416-.508.933-.932 1.513-1.241.112-.06.227-.116.344-.167 0-.671.004-1.341.012-2.011.014-.382.08-.756.212-1.115.351-.959 1.124-1.732 2.084-2.083.358-.132.733-.198 1.114-.212.089-.001.089-.001.178 0 .127.005.254.015.379.032z"/><path d="m14 15v-10.5c0-.398.158-.779.439-1.061.282-.281.663-.439 1.061-.439s.779.158 1.061.439c.281.282.439.663.439 1.061v10.5h1v-.5c0-.398.158-.779.439-1.061.282-.281.663-.439 1.061-.439s.779.158 1.061.439c.281.282.439.663.439 1.061v1.5h1v-.5c0-.398.158-.779.439-1.061.282-.281.663-.439 1.061-.439s.779.158 1.061.439c.281.282.439.663.439 1.061v5.475c0 2.394-.951 4.689-2.643 6.382-1.693 1.692-3.988 2.643-6.382 2.643-.311 0-.619 0-.921 0-3.04 0-5.761-1.886-6.829-4.732-.42-1.123-.812-2.165-1.034-2.759-.126-.336-.191-.693-.191-1.053 0-.136 0-.29 0-.458 0-.795.316-1.558.878-2.12s1.325-.878 2.12-.878h.002v-3.5c0-.828.672-1.5 1.5-1.5s1.5.672 1.5 1.5v.5z" fill="#8debcf"/><g clip-path="url(#b)"><path d="m9.072 13.003c.114.011.223.035.327.08.253.11.453.325.544.585.033.092.049.187.056.284.049 2.031.049 4.065 0 6.096-.011.146-.045.286-.114.417-.059.114-.142.216-.24.299-.086.073-.185.131-.29.171-.091.034-.186.055-.283.062-.375.028-.743-.165-.934-.49-.083-.141-.125-.296-.137-.459-.049-2.031-.049-4.065 0-6.096.007-.097.023-.192.056-.284.091-.26.291-.475.544-.585.104-.045.213-.069.327-.08.048-.003.096-.003.144 0z" fill="#4fc0ae" fill-rule="nonzero"/></g></g></svg>