<svg clip-rule="evenodd" fill-rule="evenodd" stroke-linejoin="round" stroke-miterlimit="2" viewBox="0 0 32 32" xmlns="http://www.w3.org/2000/svg" xmlns:xlink="http://www.w3.org/1999/xlink"><clipPath id="a"><path clip-rule="evenodd" d="m0 0h32v32h-32z"/></clipPath><metadata/><path d="m0 0h32v32h-32z" fill="none"/><g clip-path="url(#a)"><path d="m12 9.142v-4.646c0-2.484 2.016-4.5 4.5-4.5s4.5 2.016 4.5 4.5v4.647c.704-.183 1.462-.197 2.216-.009 1.733.433 2.978 1.819 3.317 3.459.061.012.122.026.183.041 2.41.603 3.877 3.048 3.275 5.457 0 0-.569 2.276-1.178 4.709-1.351 5.407-6.211 9.2-11.785 9.197h-.196l-.004.003h-2.179c-5.557 0-10.387-3.815-11.674-9.221-.217-.91-.43-1.804-.624-2.621-.355-1.488-.008-3.057.94-4.257.78-.988 1.897-1.637 3.12-1.836-.284-2.23 1.14-4.372 3.374-4.931.754-.188 1.511-.174 2.215.008z"/><path d="m12 12h9l3 1 2 2v4h-14z" fill="#48621b"/><path d="m9.924 20.538-1.924.462-2-.462 1-4.537c.029 0 .063-.001.092-.001h1.832z" fill="#88a00f"/><path d="m8.924 16-.473-1.894c-.335-1.338.48-2.697 1.819-3.031 1.079-.27 2.172.208 2.73 1.106v2.819c.001.071.015.141.044.206.027.058.065.112.111.156.044.041.095.075.15.099.054.022.111.035.169.038.208.011.406-.113.487-.304.026-.062.038-.128.039-.195v-2-8.5c.003-.344.07-.684.208-1 .306-.697.93-1.231 1.667-1.421.258-.066.526-.091.791-.074.249.017.496.071.729.16.289.111.557.277.787.486.248.226.45.502.591.807.15.327.224.683.227 1.042v4.497.003 6c0 .276.224.5.5.5s.5-.224.5-.5v-2.818c.557-.898 1.651-1.377 2.731-1.107 1.116.278 1.868 1.268 1.894 2.365l-.985 3.939c-.016.069-.02.14-.007.21.011.063.035.124.07.178.032.051.073.096.122.133.046.035.098.061.154.078.199.061.421-.011.546-.178.04-.053.068-.114.085-.179l.777-3.106c.276-.027.561-.007.846.064 1.338.335 2.153 1.693 1.818 3.032 0 0-.569 2.275-1.178 4.706-1.129 4.513-5.185 7.679-9.838 7.679h-1.031l-.004.004h-1.442c-4.589 0-8.589-3.123-9.702-7.575-.234-.935-.464-1.857-.674-2.697-.224-.897-.023-1.846.546-2.574.549-.704 1.383-1.125 2.272-1.153v3.537c0 .134.028.267.082.39.052.115.125.22.217.307.087.083.189.149.3.194.104.042.215.066.327.07.093.004.186-.006.276-.029.213-.055.403-.183.533-.36.055-.074.099-.156.131-.242.038-.106.058-.218.058-.33z" fill="#b8d419"/></g></svg>