<svg clip-rule="evenodd" fill-rule="evenodd" stroke-linecap="round" stroke-linejoin="round" stroke-miterlimit="1.5" viewBox="0 0 32 32" xmlns="http://www.w3.org/2000/svg" xmlns:xlink="http://www.w3.org/1999/xlink"><clipPath id="a"><path clip-rule="evenodd" d="m0-.017h32v32h-32z"/></clipPath><metadata/><path d="m0-.017h32v32h-32z" fill="none"/><g clip-path="url(#a)"><path d="m16-.017c2.891 0 5.702.783 8.148 2.231l.563-1.125c.339-.678 1.031-1.106 1.789-1.106s1.45.428 1.789 1.106c0 0 1.757 3.514 2.942 5.884.716 1.432.73 3.074.114 4.481.431 1.457.655 2.982.655 4.529v1c0 8.285-6.716 15-15 15h-2c-8.284 0-15-6.715-15-15v-1c0-8.836 7.163-16 16-16z"/><path d="m16.087 1.984c2.547.015 5.02.725 7.165 2.024 0 0 5.595 10.209 6.523 9.477.149.818.225 1.654.225 2.498v1c0 7.18-5.82 13-13 13h-2c-7.18 0-13-5.82-13-13v-1c0-7.732 6.268-14 14-14z" fill="#fbc546"/><path d="m23.252 4.008c.955.578 1.845 1.273 2.647 2.076 2.029 2.029 3.371 4.616 3.876 7.401-.928.732-2.081 1.136-3.275 1.136-1.403 0-2.749-.558-3.741-1.55 0 0 0 0-.001-.001-1.607-1.607-2.006-4.063-.989-6.097z" fill="#e59a10"/><path d="m11 20.983c1.281 1.281 3.017 2 4.828 2h.344c1.811 0 3.547-.719 4.828-2" fill="none" stroke="#593604" stroke-width="2"/><circle cx="9" cy="13.983" fill="#fff" r="5"/><path d="m21.211 9.313c-.005 1.378 6.294 5.235 6.771 5.096-.216 2.56-2.366 4.574-4.982 4.574-2.76 0-5-2.24-5-5 0-2.129 1.334-3.95 3.211-4.67z" fill="#fff"/><path d="m21.211 9.313c.556-.213 1.159-.33 1.789-.33 2.76 0 5 2.241 5 5 0 .144-.006.285-.018.426-.477.139-.976.212-1.482.212-1.403 0-2.749-.558-3.741-1.55 0 0 0 0-.001-.001-1.019-1.019-1.552-2.379-1.547-3.757z" fill="#d2d2d2"/><path d="m25 13.983c0-1.104-.895-2-2-2h-.038c-.52 0-1.019.207-1.387.575s-.575.867-.575 1.387v.076c0 .521.207 1.02.575 1.388s.867.574 1.387.574h.038c1.105 0 2-.895 2-2z"/><path d="m11 13.983c0-1.104-.895-2-2-2h-.038c-.52 0-1.019.207-1.387.575s-.575.867-.575 1.387v.076c0 .521.207 1.02.575 1.388s.867.574 1.387.574h.038c1.105 0 2-.895 2-2z"/><path d="m26.5 1.983s-1.757 3.514-2.942 5.885c-.632 1.263-.384 2.789.615 3.788 0 0 0 .001.001.001.617.617 1.453.964 2.326.964s1.709-.347 2.326-.964c.001 0 .001-.001.001-.001.999-.999 1.247-2.525.615-3.788-1.185-2.371-2.942-5.885-2.942-5.885z" fill="#fff"/></g></svg>