<svg clip-rule="evenodd" fill-rule="evenodd" stroke-linecap="square" stroke-linejoin="round" stroke-miterlimit="1.5" viewBox="0 0 32 32" xmlns="http://www.w3.org/2000/svg" xmlns:xlink="http://www.w3.org/1999/xlink"><clipPath id="a"><path clip-rule="evenodd" d="m0 0h32v32h-32z"/></clipPath><clipPath id="b"><path clip-rule="evenodd" d="m2 2h28v28h-28z"/></clipPath><metadata/><path d="m0 0h32v32h-32z" fill="none"/><g clip-path="url(#a)"><path d="m32 2c0-.53-.211-1.039-.586-1.414s-.884-.586-1.414-.586h-28c-.53 0-1.039.211-1.414.586s-.586.884-.586 1.414v28c0 .53.211 1.039.586 1.414s.884.586 1.414.586h28c.53 0 1.039-.211 1.414-.586s.586-.884.586-1.414z"/><path d="m2 2h28v28h-28z" fill="#282480"/><g clip-path="url(#b)"><path d="m20 12s-.066-.066-.183-.183c-1.278-1.278-3.01-1.995-4.817-1.995s-3.539.717-4.817 1.995c-.012.012-.024.024-.037.037-1.63 1.63-2.546 3.841-2.546 6.146s.916 4.516 2.546 6.146c0 0 .001.001.001.001 1.817 1.817 4.283 2.838 6.853 2.838s5.036-1.021 6.853-2.838c3.953-3.953 8.147-8.147 8.147-8.147" fill="none" stroke="#4258c7" stroke-width="6"/><path d="m12 20s.066.066.183.183c1.278 1.278 3.01 1.995 4.817 1.995s3.539-.717 4.817-1.995l.037-.037c1.63-1.63 2.546-3.841 2.546-6.146s-.916-4.516-2.546-6.146c0 0-.001-.001-.001-.001-1.817-1.817-4.283-2.838-6.853-2.838s-5.036 1.021-6.853 2.838c-3.953 3.953-8.147 8.147-8.147 8.147" fill="none" stroke="#4258c7" stroke-width="6"/><path d="m9 10h14v13h-14z" fill="#4258c7"/><g stroke-linecap="round"><path d="m20 12s-.066-.066-.183-.183c-1.278-1.278-3.01-1.995-4.817-1.995s-3.539.717-4.817 1.995c-.012.012-.024.024-.037.037-1.63 1.63-2.546 3.841-2.546 6.146s.916 4.516 2.546 6.146c0 0 .001.001.001.001 1.817 1.817 4.283 2.838 6.853 2.838s5.036-1.021 6.853-2.838c2.232-2.232 4.147-4.147 4.147-4.147" fill="none" stroke="#98aaf1" stroke-width="2"/><path d="m12 20s.066.066.183.183c1.278 1.278 3.01 1.995 4.817 1.995s3.539-.717 4.817-1.995l.037-.037c1.63-1.63 2.546-3.841 2.546-6.146s-.916-4.516-2.546-6.146c0 0-.001-.001-.001-.001-1.817-1.817-4.283-2.838-6.853-2.838s-5.036 1.021-6.853 2.838c-2.232 2.232-4.147 4.147-4.147 4.147" fill="none" stroke="#98aaf1" stroke-width="2"/><path d="m17 19h.001c2.325 0 4.327-1.641 4.783-3.921.126-.63.216-1.079.216-1.079" fill="none" stroke="#5a7aed"/><path d="m15 13h-.001c-2.325 0-4.327 1.641-4.783 3.921-.126.63-.216 1.079-.216 1.079" fill="none" stroke="#5a7aed"/><path d="m27 14v-1.275c0-1.777-.526-3.514-1.512-4.992-.281-.422-.488-.733-.488-.733" fill="none" stroke="#5a7aed"/><path d="m5 18v1.275c0 1.777.526 3.514 1.512 4.992.281.422.488.733.488.733" fill="none" stroke="#5a7aed"/><path d="m20 12h-.002c-2.121 0-4.156.843-5.655 2.343-1.5 1.499-2.343 3.534-2.343 5.655v.002c4.418 0 8-3.582 8-8z" fill="#f5ecbc" stroke="#c6a80e" stroke-width="2"/></g></g><path d="m25.5 25c0-.133-.053-.26-.146-.354-.094-.093-.221-.146-.354-.146s-.26.053-.354.146c-.093.094-.146.221-.146.354v2c0 .133.053.26.146.354.094.093.221.146.354.146s.26-.053.354-.146c.093-.094.146-.221.146-.354 0-.555 0-1.445 0-2z" fill="#e4cc43"/><path d="m26 26.5c.133 0 .26-.053.354-.146.093-.094.146-.221.146-.354s-.053-.26-.146-.354c-.094-.093-.221-.146-.354-.146-.555 0-1.445 0-2 0-.133 0-.26.053-.354.146-.093.094-.146.221-.146.354s.053.26.146.354c.094.093.221.146.354.146z" fill="#e4cc43"/><path d="m22 19.5c0-.133-.053-.26-.146-.354-.094-.093-.221-.146-.354-.146s-.26.053-.354.146c-.093.094-.146.221-.146.354v2c0 .133.053.26.146.354.094.093.221.146.354.146s.26-.053.354-.146c.093-.094.146-.221.146-.354 0-.555 0-1.445 0-2z" fill="#ff92ef"/><path d="m22.5 21c.133 0 .26-.053.354-.146.093-.094.146-.221.146-.354s-.053-.26-.146-.354c-.094-.093-.221-.146-.354-.146-.555 0-1.445 0-2 0-.133 0-.26.053-.354.146-.093.094-.146.221-.146.354s.053.26.146.354c.094.093.221.146.354.146z" fill="#ff92ef"/><path d="m5 3.5c0-.133-.053-.26-.146-.354-.094-.093-.221-.146-.354-.146s-.26.053-.354.146c-.093.094-.146.221-.146.354v2c0 .133.053.26.146.354.094.093.221.146.354.146s.26-.053.354-.146c.093-.094.146-.221.146-.354 0-.555 0-1.445 0-2z" fill="#ff92ef"/><path d="m5.5 5c.133 0 .26-.053.354-.146.093-.094.146-.221.146-.354s-.053-.26-.146-.354c-.094-.093-.221-.146-.354-.146-.555 0-1.445 0-2 0-.133 0-.26.053-.354.146-.093.094-.146.221-.146.354s.053.26.146.354c.094.093.221.146.354.146z" fill="#ff92ef"/><g fill="#e4cc43"><path d="m27 4.5c0-.133-.053-.26-.146-.354-.094-.093-.221-.146-.354-.146s-.26.053-.354.146c-.093.094-.146.221-.146.354v2c0 .133.053.26.146.354.094.093.221.146.354.146s.26-.053.354-.146c.093-.094.146-.221.146-.354 0-.555 0-1.445 0-2z"/><path d="m27.5 6c.133 0 .26-.053.354-.146.093-.094.146-.221.146-.354s-.053-.26-.146-.354c-.094-.093-.221-.146-.354-.146-.555 0-1.445 0-2 0-.133 0-.26.053-.354.146-.093.094-.146.221-.146.354s.053.26.146.354c.094.093.221.146.354.146z"/><path d="m11 26c0-.133-.053-.26-.146-.354-.094-.093-.221-.146-.354-.146h-.001c-.276 0-.499.223-.499.499v2.002c0 .276.223.499.499.499h.001c.133 0 .26-.053.354-.146.093-.094.146-.221.146-.354 0-.555 0-1.445 0-2z"/><path d="m11.5 27.5c.133 0 .26-.053.354-.146.093-.094.146-.221.146-.354s-.053-.26-.146-.354c-.094-.093-.221-.146-.354-.146-.555 0-1.445 0-2 0-.133 0-.26.053-.354.146-.093.094-.146.221-.146.354s.053.26.146.354c.094.093.221.146.354.146z"/></g></g></svg>