<svg clip-rule="evenodd" fill-rule="evenodd" stroke-linecap="round" stroke-linejoin="round" stroke-miterlimit="10" viewBox="0 0 32 32" xmlns="http://www.w3.org/2000/svg" xmlns:xlink="http://www.w3.org/1999/xlink"><clipPath id="a"><path clip-rule="evenodd" d="m0 0h32v32h-32z"/></clipPath><clipPath id="b"><path clip-rule="evenodd" d="m20.995 27.091c-.119 1.062-2.312 1.909-4.995 1.909s-4.876-.847-4.995-1.909l-2.593-17.446h15.176z"/></clipPath><metadata/><path d="m0 0h32v32h-32z" fill="none"/><g clip-path="url(#a)"><path d="m7.168 6.773c-.11-.25-.168-.509-.168-.773 0-2.208 4.033-4 9-4s9 1.792 9 4c0 .264-.058.523-.168.773.027.116.033.238.017.359-.56 4.201-2.7 18.948-2.861 20.055-.002.022-.005.044-.009.066-.257 1.538-2.838 2.747-5.979 2.747s-5.722-1.209-5.979-2.747c-.004-.022-.007-.044-.009-.066-.161-1.107-2.301-15.854-2.861-20.055-.016-.121-.01-.243.017-.359z" fill="none" stroke="#000" stroke-width="4"/><path d="m10.01 27.178-3.01-21.178h18l-3.01 21.178c-.003.025-.007.05-.011.075-.257 1.538-2.838 2.747-5.979 2.747s-5.722-1.209-5.979-2.747c-.004-.025-.008-.05-.011-.075z" fill="#a5a5a5"/><path d="m20.995 27.091c-.119 1.062-2.312 1.909-4.995 1.909s-4.876-.847-4.995-1.909l-2.593-17.446h15.176z" fill="#ebebeb"/><g clip-path="url(#b)"><path d="m11.425 9.818 2.57 20.8" fill="none" stroke="#fff" stroke-linecap="square" stroke-width="2"/></g><ellipse cx="16" cy="6" fill="#c5c5c5" rx="8.477" ry="3.414"/><ellipse cx="16" cy="9.422" fill="#fff" rx="7.611" ry="2.901"/><path d="m16.232 2.001.231.004.229.007.228.009.226.011.224.014.222.017.221.018.218.022.217.023.215.026.212.028.21.03.208.033.206.035.203.037.2.039.198.041.196.043.192.045.19.047.187.049.184.052.182.053.178.054.174.057.172.059.168.06.165.062.162.064.158.065.155.067.151.069.074.035.073.035.072.036.071.036.07.036.07.037.068.037.067.038.067.038.065.038.064.039.064.039.062.039.061.04.06.04.059.041.058.04.057.042.056.041.055.042.054.042.052.042.051.043.051.043.049.043.048.043.047.044.045.044.045.045.043.045.042.045.041.045.04.045.039.046.037.046.036.047.035.046.033.047.032.047.031.047.03.048.028.048.028.048.025.048.025.049.023.048.022.049.02.049.019.05.018.049.017.05.015.05.013.05.012.05.011.051.01.05.008.051.006.051.005.051.004.052.002.051.001.052-.001.052-.002.051-.004.052-.005.051-.006.051-.008.051-.01.05-.011.051-.012.05-.013.05-.015.05-.017.05-.018.049-.019.05-.02.049-.022.049-.023.048-.025.049-.025.048-.028.048-.028.048-.03.048-.031.047-.032.047-.033.047-.035.046-.036.047-.037.046-.039.046-.04.045-.041.045-.042.045-.043.045-.045.045-.045.044-.047.044-.048.043-.049.043-.051.043-.051.043-.052.042-.054.042-.055.042-.056.041-.057.042-.058.04-.059.041-.06.04-.061.04-.062.039-.064.039-.064.039-.065.038-.067.038-.067.038-.068.037-.07.037-.07.036-.071.036-.072.036-.073.035-.074.035-.151.069-.155.067-.158.065-.162.064-.165.062-.168.06-.172.059-.174.057-.178.054-.182.053-.184.052-.187.049-.19.047-.192.045-.196.043-.198.041-.2.039-.203.037-.206.035-.208.033-.21.03-.212.028-.215.026-.217.023-.218.022-.221.018-.222.017-.224.014-.226.011-.228.009-.229.007-.231.004-.232.001-.232-.001-.231-.004-.229-.007-.228-.009-.226-.011-.224-.014-.222-.017-.221-.018-.218-.022-.217-.023-.215-.026-.212-.028-.21-.03-.208-.033-.206-.035-.203-.037-.2-.039-.198-.041-.196-.043-.192-.045-.19-.047-.187-.049-.184-.052-.182-.053-.178-.054-.174-.057-.172-.059-.168-.06-.165-.062-.162-.064-.158-.065-.155-.067-.151-.069-.074-.035-.073-.035-.072-.036-.071-.036-.07-.036-.07-.037-.068-.037-.067-.038-.067-.038-.065-.038-.064-.039-.064-.039-.062-.039-.061-.04-.06-.04-.059-.041-.058-.04-.057-.042-.056-.041-.055-.042-.054-.042-.052-.042-.051-.043-.051-.043-.049-.043-.048-.043-.047-.044-.045-.044-.045-.045-.043-.045-.042-.045-.041-.045-.04-.045-.039-.046-.037-.046-.036-.047-.035-.046-.033-.047-.032-.047-.031-.047-.03-.048-.028-.048-.028-.048-.025-.048-.025-.049-.023-.048-.022-.049-.02-.049-.019-.05-.018-.049-.017-.05-.015-.05-.013-.05-.012-.05-.011-.051-.01-.05-.008-.051-.006-.051-.005-.051-.004-.052-.002-.051-.001-.052.001-.052.002-.051.004-.052.005-.051.006-.051.008-.051.01-.05.011-.051.012-.05.013-.05.015-.05.017-.05.018-.049.019-.05.02-.049.022-.049.023-.048.025-.049.025-.048.028-.048.028-.048.03-.048.031-.047.032-.047.033-.047.035-.046.036-.047.037-.046.039-.046.04-.045.041-.045.042-.045.043-.045.045-.045.045-.044.047-.044.048-.043.049-.043.051-.043.051-.043.052-.042.054-.042.055-.042.056-.041.057-.042.058-.04.059-.041.06-.04.061-.04.062-.039.064-.039.064-.039.065-.038.067-.038.067-.038.068-.037.07-.037.07-.036.071-.036.072-.036.073-.035.074-.035.151-.069.155-.067.158-.065.162-.064.165-.062.168-.06.172-.059.174-.057.178-.054.182-.053.184-.052.187-.049.19-.047.192-.045.196-.043.198-.041.2-.039.203-.037.206-.035.208-.033.21-.03.212-.028.215-.026.217-.023.218-.022.221-.018.222-.017.224-.014.226-.011.228-.009.229-.007.231-.004.232-.001zm-.453 1-.219.004-.218.006-.217.009-.214.011-.213.013-.211.015-.209.018-.207.02-.205.023-.203.024-.201.027-.198.028-.196.031-.194.033-.191.034-.188.037-.186.039-.183.04-.18.042-.177.044-.173.046-.171.047-.168.049-.164.051-.161.052-.157.054-.154.055-.15.056-.146.058-.143.059-.138.06-.137.062-.064.03-.065.031-.063.032-.063.032-.061.032-.061.032-.059.032-.058.033-.057.032-.056.033-.055.033-.054.033-.052.033-.052.034-.05.033-.049.034-.047.033-.047.034-.045.033-.044.034-.043.034-.042.033-.04.034-.04.033-.037.033-.037.034-.035.033-.035.033-.032.033-.032.032-.03.033-.029.032-.028.032-.027.031-.025.032-.024.031-.023.03-.022.031-.02.03-.02.029-.018.029-.017.029-.016.029-.015.027-.014.028-.013.027-.012.026-.011.027-.009.025-.01.026-.008.025-.007.024-.007.024-.006.024-.005.024-.004.023-.004.024-.003.023-.002.023-.002.023-.001.023v.023.023l.001.023.002.023.002.023.003.023.004.024.004.023.005.024.006.024.007.024.007.024.008.025.01.026.009.025.011.027.012.026.013.027.014.028.015.027.016.029.017.029.018.029.02.029.02.03.022.031.023.03.024.031.025.032.027.031.028.032.029.032.03.033.032.032.032.033.035.033.035.033.037.034.037.033.04.033.04.034.042.033.043.034.044.034.045.033.047.034.047.033.049.034.05.033.052.034.052.033.054.033.055.033.056.033.057.032.058.033.059.032.061.032.061.032.063.032.063.032.065.031.064.03.137.062.138.06.143.059.146.058.15.056.154.055.157.054.161.052.164.051.168.049.171.047.173.046.177.044.18.042.183.04.186.039.188.037.191.034.194.033.196.031.198.028.201.027.203.024.205.023.207.02.209.018.211.015.213.013.214.011.217.009.218.006.219.004.221.001.221-.001.219-.004.218-.006.217-.009.214-.011.213-.013.211-.015.209-.018.207-.02.205-.023.203-.024.201-.027.198-.028.196-.031.194-.033.191-.034.188-.037.186-.039.183-.04.18-.042.177-.044.173-.046.171-.047.168-.049.164-.051.161-.052.157-.054.154-.055.15-.056.146-.058.143-.059.138-.06.137-.062.064-.03.065-.031.063-.032.063-.032.061-.032.061-.032.059-.032.058-.033.057-.032.056-.033.055-.033.054-.033.052-.033.052-.034.05-.033.049-.034.047-.033.047-.034.045-.033.044-.034.043-.034.042-.033.04-.034.04-.033.037-.033.037-.034.035-.033.035-.033.032-.033.032-.032.03-.033.029-.032.028-.032.027-.031.025-.032.024-.031.023-.03.022-.031.02-.03.02-.029.018-.029.017-.029.016-.029.015-.027.014-.028.013-.027.012-.026.011-.027.01-.025.009-.026.008-.024.007-.025.007-.024.006-.024.005-.024.004-.023.004-.024.003-.023.002-.023.002-.023.001-.023v-.023-.023l-.001-.023-.002-.023-.002-.023-.003-.023-.004-.024-.004-.023-.005-.024-.006-.024-.007-.024-.007-.024-.008-.025-.01-.026-.009-.025-.011-.027-.012-.026-.013-.027-.014-.028-.015-.027-.016-.029-.017-.029-.018-.029-.02-.029-.02-.03-.022-.031-.023-.03-.024-.031-.025-.032-.027-.031-.028-.032-.029-.032-.03-.033-.032-.032-.032-.033-.035-.033-.035-.033-.037-.034-.037-.033-.04-.033-.04-.034-.042-.033-.043-.034-.044-.034-.045-.033-.047-.034-.047-.033-.049-.034-.05-.033-.052-.034-.052-.033-.054-.033-.055-.033-.056-.033-.057-.032-.058-.033-.059-.032-.061-.032-.061-.032-.063-.032-.063-.032-.065-.031-.064-.03-.136-.062-.139-.06-.143-.059-.146-.058-.15-.056-.154-.055-.157-.054-.161-.052-.164-.051-.168-.049-.171-.047-.173-.046-.177-.044-.18-.042-.183-.04-.186-.039-.188-.037-.191-.034-.194-.033-.196-.031-.198-.028-.201-.027-.203-.024-.205-.023-.207-.02-.209-.018-.211-.015-.213-.013-.214-.011-.217-.009-.218-.006-.219-.004-.221-.001z" fill="#a5a5a5"/></g></svg>