<svg clip-rule="evenodd" fill-rule="evenodd" stroke-linejoin="round" stroke-miterlimit="2" viewBox="0 0 32 32" xmlns="http://www.w3.org/2000/svg" xmlns:xlink="http://www.w3.org/1999/xlink"><clipPath id="a"><path clip-rule="evenodd" d="m0-.017h32v32h-32z"/></clipPath><metadata/><path d="m0-.017h32v32h-32z" fill="none"/><g clip-path="url(#a)"><path d="m8.124 2.289c.099-.266.255-.513.462-.72 0 0 .174-.174.419-.419 1.553-1.553 3.925-1.938 5.889-.956.036.018.071.037.105.057 1.023-.595 2.363-.124 2.858.99l1.145 2.863c-.001-.04-.002-.08-.002-.121 0-1.655 1.344-3 3-3 .943 0 1.784.436 2.334 1.117 1.278-.427 2.672.501 2.666 1.892-.001.31-.079.607-.211.886l-.759 1.518 4.253.607c1.485.243 2.239 2.013 1.287 3.22-.184.232-.414.412-.676.549l-2.062 1.031c.362.089.718.219 1.062.391.988.494 1.389 1.696.895 2.684l-.998 1.995c-.024.049-.051.098-.08.145l-.012.021-.008.012c-.093.148-.204.281-.329.397.421 1.209.638 2.484.638 3.771v.764c0 5.523-4.477 10-10 10h-8c-5.523 0-10-4.477-10-10v-.764c0-1.287.217-2.562.638-3.771-.206-.192-.374-.429-.486-.699-.309-.748-.138-1.608.434-2.18l2.038-2.038-3.518-1.759c-1.332-.7-1.488-2.617-.203-3.461.248-.163.523-.26.814-.308l4.253-.607-.759-1.518c-.607-1.276.247-2.813 1.68-2.892.31-.017.611.043.897.159z"/><g fill="#fbc546"><circle cx="22" cy="3.983" r="1"/><path d="m29 13.983-1 2-3-1s.174-.174.419-.419c.944-.944 2.387-1.178 3.581-.581z"/><path d="m14 1.983-1 2-3-1s.174-.174.419-.419c.944-.944 2.387-1.178 3.581-.581z"/></g><path d="m16 1.983-2 5-7-3 2 4-7 1 6 3-4 4h6l-3 3h18l-3-3h6l-4-4 6-3-7-1 2-4-7 3z" fill="#f30800"/><path d="m16 5.983-2 3-4-2 2 3h-5l4 2-3 3h4l-2 3 4-1 2 2 2-2 3 1-1-3h4l-3-3 4-2h-5l2-3-4 2z" fill="#ffa32b"/><path d="m27 16.983h-22c-.658 1.316-1 2.766-1 4.236v.764c0 4.419 3.582 8 8 8h8c4.418 0 8-3.581 8-8v-.764c0-1.47-.342-2.92-1-4.236z" fill="#fbc546"/><circle cx="10.5" cy="20.483" fill="#fff" r="2.5"/><circle cx="21.5" cy="20.483" fill="#fff" r="2.5"/><path d="m12 20.499c0-.398-.158-.78-.439-1.061-.282-.281-.663-.439-1.061-.439s-.779.158-1.061.439c-.281.281-.439.663-.439 1.061v.018c0 .398.158.779.439 1.06.282.282.663.44 1.061.44s.779-.158 1.061-.44c.281-.281.439-.662.439-1.06z"/><path d="m23 20.497c0-.828-.671-1.498-1.498-1.498h-.004c-.827 0-1.498.67-1.498 1.498v.022c0 .827.671 1.498 1.498 1.498h.004c.827 0 1.498-.671 1.498-1.498z"/><path d="m21.276 26.536c.155.31.139.678-.043.973-.183.295-.504.474-.851.474-2.295 0-6.469 0-8.764 0-.347 0-.668-.179-.851-.474-.182-.295-.198-.663-.043-.973.281-.563.613-1.226.934-1.869.823-1.645 2.503-2.684 4.342-2.684 1.839 0 3.519 1.039 4.342 2.684.321.643.653 1.306.934 1.869z" fill="#5b2b02"/><path d="m12.711 27.983h-1.093c-.347 0-.668-.179-.851-.474-.182-.295-.198-.663-.043-.973.281-.563.613-1.226.934-1.869.823-1.645 2.503-2.684 4.342-2.684 1.839 0 3.519 1.039 4.342 2.684.321.643.653 1.306.934 1.869.155.31.139.678-.043.973-.183.295-.504.474-.851.474h-1.093c-1.554-.304-2.641-.278-3.396-.278-.79-.001-1.989.041-3.182.278z" fill="#722245"/><path d="m12.711 27.983c.953-.638 2.091-1 3.289-1 1.198 0 2.336.362 3.289 1z" fill="#ca3b8f"/><path d="m6 13.983h-3c-1.105 0-2-.895-2-2v-.002c0-1.325.527-2.597 1.464-3.534s2.208-1.464 3.534-1.464h.002c1.105 0 2 .896 2 2v3c0 1.105-.895 2-2 2z"/><path d="m3 11.983v-.002c0-.795.316-1.557.878-2.12.562-.562 1.325-.878 2.12-.878h.002v3z" fill="#fbc546"/><path d="m12.586 9.569c-.609.609-.76 1.539-.375 2.309l1 2c.494.988 1.695 1.388 2.683.894l2-1c.575-.287.977-.834 1.08-1.468.103-.635-.105-1.28-.56-1.735l-2-2c-.781-.781-2.047-.781-2.828 0z"/><path d="m14 10.983 1-1 2 2-2 1z" fill="#fbc546"/></g></svg>