<svg clip-rule="evenodd" fill-rule="evenodd" stroke-linecap="round" stroke-miterlimit="1.5" viewBox="0 0 32 32" xmlns="http://www.w3.org/2000/svg" xmlns:xlink="http://www.w3.org/1999/xlink"><clipPath id="a"><path clip-rule="evenodd" d="m0 0h32v32h-32z"/></clipPath><clipPath id="b"><path clip-rule="evenodd" d="m27.32 11.969c-.803-1.805-2.593-2.969-4.569-2.969-5.508 0-16.406 0-19.751 0-.265 0-.52.105-.707.293-.188.187-.293.442-.293.707v15c0 .53.211 1.039.586 1.414s.884.586 1.414.586h23c1.657 0 3-1.343 3-3 0-1.607 0-3.503 0-4.727 0-.839-.176-1.669-.517-2.437-.545-1.225-1.424-3.204-2.163-4.867z"/></clipPath><metadata/><path d="m0 0h32v32h-32z" fill="none"/><g clip-path="url(#a)"><g stroke="#000" stroke-width="4"><path d="m27.32 11.969c-.803-1.805-2.593-2.969-4.569-2.969-5.508 0-16.406 0-19.751 0-.265 0-.52.105-.707.293-.188.187-.293.442-.293.707v15c0 .53.211 1.039.586 1.414s.884.586 1.414.586h23c1.657 0 3-1.343 3-3 0-1.607 0-3.503 0-4.727 0-.839-.176-1.669-.517-2.437-.545-1.225-1.424-3.204-2.163-4.867z" fill="none"/><circle cx="8" cy="27" fill="#fff" r="3"/><circle cx="24" cy="27" fill="#fff" r="3"/></g><path d="m27.32 11.969c-.803-1.805-2.593-2.969-4.569-2.969-5.508 0-16.406 0-19.751 0-.265 0-.52.105-.707.293-.188.187-.293.442-.293.707v15c0 .53.211 1.039.586 1.414s.884.586 1.414.586h23c1.657 0 3-1.343 3-3 0-1.607 0-3.503 0-4.727 0-.839-.176-1.669-.517-2.437-.545-1.225-1.424-3.204-2.163-4.867z" fill="#e6e6e6"/><g clip-path="url(#b)"><path d="m1 7h30v4h-30z" fill="#fff"/><path d="m20 23c0-.265-.105-.52-.293-.707-.187-.188-.442-.293-.707-.293-3.782 0-17 0-17 0v2h17c.265 0 .52-.105.707-.293.188-.187.293-.442.293-.707z" fill="#6e6e6e"/><g fill="#2c2c2c"><path d="m30 23h-.001c-.552 0-.999.447-.999.999v1.001c0 .552.448 1 1 1z"/><path d="m30 23h-.001c-.552 0-.999.447-.999.999v1.001c0 .552.448 1 1 1z"/></g></g><path d="m12 26.812c0-1.011-.402-1.981-1.117-2.695-.715-.715-1.684-1.117-2.695-1.117-.125 0-.251 0-.376 0-1.011 0-1.98.402-2.695 1.117-.715.714-1.117 1.684-1.117 2.695v.188h8z" fill="#333"/><path d="m28 26.812c0-1.011-.402-1.981-1.117-2.695-.715-.715-1.684-1.117-2.695-1.117-.125 0-.251 0-.376 0-1.011 0-1.98.402-2.695 1.117-.715.714-1.117 1.684-1.117 2.695v.188h8z" fill="#333"/><path d="m26.973 13.579c-.442-.962-1.403-1.579-2.462-1.579-.175 0-.348 0-.511 0-.265 0-.52.105-.707.293-.188.187-.293.442-.293.707v4.219c0 .459.312.859.757.97 1.194.299 3.49.873 4.604 1.151.154.039.317.004.441-.093.125-.098.198-.247.198-.405 0-.001 0-.001 0-.001 0-.554-.12-1.102-.35-1.605-.421-.917-1.136-2.477-1.677-3.657z"/><path d="m22 13c0-.552-.448-1-1-1-3.284 0-13.716 0-17 0-.552 0-1 .448-1 1v6c0 .552.448 1 1 1h17c.552 0 1-.448 1-1 0-1.537 0-4.463 0-6z"/><path d="m7 12h2v8h-2z" fill="#333"/><path d="m16 12h2v8h-2z" fill="#333"/><circle cx="8" cy="27" fill="#5a5a5a" r="3"/><circle cx="24" cy="27" fill="#5a5a5a" r="3"/><circle cx="24" cy="27" fill="#bfbfbf" r="1.5"/><circle cx="8" cy="27" fill="#bfbfbf" r="1.5"/></g></svg>