<svg clip-rule="evenodd" fill-rule="evenodd" stroke-linecap="round" viewBox="0 0 32 32" xmlns="http://www.w3.org/2000/svg" xmlns:xlink="http://www.w3.org/1999/xlink"><clipPath id="a"><path clip-rule="evenodd" d="m0 0h32v32h-32z"/></clipPath><clipPath id="b"><path clip-rule="evenodd" d="m8 7v11.757c0 .796.316 1.559.879 2.122.885.885 2.121 2.121 2.121 2.121v2c0 1.657 1.343 3 3 3h4c1.657 0 3-1.343 3-3 0-1.063 0-2 0-2s1.236-1.236 2.121-2.121c.563-.563.879-1.326.879-2.122 0-3.251 0-11.757 0-11.757z"/></clipPath><clipPath id="c"><path clip-rule="evenodd" d="m23 17v-3c0-1.105.895-2 2-2h4s-1.92 2.4-3.099 3.874c-.57.712-1.432 1.126-2.343 1.126-.316 0-.558 0-.558 0z"/></clipPath><clipPath id="d"><path clip-rule="evenodd" d="m9 17v-3c0-1.105-.895-2-2-2-1.745 0-4 0-4 0s1.92 2.4 3.099 3.874c.57.712 1.432 1.126 2.343 1.126z"/></clipPath><metadata/><path d="m0 0h32v32h-32z" fill="none"/><g clip-path="url(#a)"><g stroke="#000" stroke-width="4"><path d="m8 7v11.757c0 .796.316 1.559.879 2.122.885.885 2.121 2.121 2.121 2.121v2c0 1.657 1.343 3 3 3h4c1.657 0 3-1.343 3-3 0-1.063 0-2 0-2s1.236-1.236 2.121-2.121c.563-.563.879-1.326.879-2.122 0-3.251 0-11.757 0-11.757z" fill="none"/><path d="m21 8c0-.552.448-1 1-1h2.757c.796 0 1.559-.316 2.122-.879.181-.181.368-.368.535-.535.375-.375.884-.586 1.414-.586h1.172s-1.633 2.45-2.813 4.219c-.741 1.113-1.99 1.781-3.328 1.781-.646 0-1.325 0-1.859 0-.552 0-1-.448-1-1 0-.611 0-1.389 0-2z" fill="none"/><path d="m11 8c0-.552-.448-1-1-1-.793 0-1.907 0-2.757 0-.796 0-1.559-.316-2.122-.879-.181-.181-.368-.368-.535-.535-.375-.375-.884-.586-1.414-.586-.551 0-1.172 0-1.172 0s1.633 2.45 2.813 4.219c.741 1.113 1.99 1.781 3.328 1.781h1.859c.552 0 1-.448 1-1 0-.611 0-1.389 0-2z" fill="none"/><path d="m23 17v-3c0-1.105.895-2 2-2h4s-1.92 2.4-3.099 3.874c-.57.712-1.432 1.126-2.343 1.126-.316 0-.558 0-.558 0z" fill="#ad8348" stroke-linejoin="round"/><path d="m9 17v-3c0-1.105-.895-2-2-2-1.745 0-4 0-4 0s1.92 2.4 3.099 3.874c.57.712 1.432 1.126 2.343 1.126z" fill="#ad8348" stroke-linejoin="round"/><path d="m8 8 2-4 2 2 2-2 2 2 2-2 2 2 2-2 2 4v2h-16z" fill="#5b4526" stroke-linejoin="round"/></g><path d="m8 8 2-4 2 2 2-2 2 2 2-2 2 2 2-2 2 4v2h-16z" fill="#5b4526"/><path d="m8 7v11.757c0 .796.316 1.559.879 2.122.885.885 2.121 2.121 2.121 2.121v2c0 1.657 1.343 3 3 3h4c1.657 0 3-1.343 3-3 0-1.063 0-2 0-2s1.236-1.236 2.121-2.121c.563-.563.879-1.326.879-2.122 0-3.251 0-11.757 0-11.757z" fill="#ad8348"/><g clip-path="url(#b)"><path d="m11 25s.69.345 1.259.63c.474.237 1.024.276 1.527.108.889-.296 2.214-.738 2.214-.738s1.325.442 2.214.738c.503.168 1.053.129 1.527-.108.569-.285 1.259-.63 1.259-.63" fill="none" stroke="#5b4526"/></g><path d="m18 23 1-1v-.5c0-.133-.053-.26-.146-.354-.094-.093-.221-.146-.354-.146-.305 0-.695 0-1 0-.133 0-.26.053-.354.146-.093.094-.146.221-.146.354v1c0 .133.053.26.146.354.094.093.221.146.354.146z" fill="#3c2e19"/><path d="m14 23-1-1v-.5c0-.133.053-.26.146-.354.094-.093.221-.146.354-.146h1c.133 0 .26.053.354.146.093.094.146.221.146.354v1c0 .133-.053.26-.146.354-.094.093-.221.146-.354.146-.25 0-.5 0-.5 0z" fill="#3c2e19"/><path d="m10 11s2.55 1.275 3.578 1.789c.277.139.584.211.894.211h3.056c.31 0 .617-.072.894-.211 1.028-.514 3.578-1.789 3.578-1.789v-5h-12z" fill="#5b4526"/><path d="m21 8c0-.552.448-1 1-1h2.757c.796 0 1.559-.316 2.122-.879.181-.181.368-.368.535-.535.375-.375.884-.586 1.414-.586h1.172s-1.633 2.45-2.813 4.219c-.741 1.113-1.99 1.781-3.328 1.781-.646 0-1.325 0-1.859 0-.552 0-1-.448-1-1 0-.611 0-1.389 0-2z" fill="#beac92"/><path d="m11 8c0-.552-.448-1-1-1-.793 0-1.907 0-2.757 0-.796 0-1.559-.316-2.122-.879-.181-.181-.368-.368-.535-.535-.375-.375-.884-.586-1.414-.586-.551 0-1.172 0-1.172 0s1.633 2.45 2.813 4.219c.741 1.113 1.99 1.781 3.328 1.781h1.859c.552 0 1-.448 1-1 0-.611 0-1.389 0-2z" fill="#beac92"/><path d="m22 15h-1.764c-.757 0-1.45.428-1.789 1.106-.231.462-.447.894-.447.894h3c.552 0 1-.448 1-1 0-.5 0-1 0-1z"/><path d="m10 15h1.764c.757 0 1.45.428 1.789 1.106.231.462.447.894.447.894h-3c-.552 0-1-.448-1-1 0-.5 0-1 0-1z"/><path d="m23 17v-3c0-1.105.895-2 2-2h4s-1.92 2.4-3.099 3.874c-.57.712-1.432 1.126-2.343 1.126-.316 0-.558 0-.558 0z" fill="#ad8348"/><g clip-path="url(#c)"><path d="m29 13h-3c-.53 0-1.039.211-1.414.586s-.586.884-.586 1.414v3h5z" fill="#5b4526"/></g><path d="m9 17v-3c0-1.105-.895-2-2-2-1.745 0-4 0-4 0s1.92 2.4 3.099 3.874c.57.712 1.432 1.126 2.343 1.126z" fill="#ad8348"/><g clip-path="url(#d)"><path d="m3 13h3c.53 0 1.039.211 1.414.586s.586.884.586 1.414v3h-5z" fill="#5b4526"/></g></g></svg>