<svg clip-rule="evenodd" fill-rule="evenodd" stroke-linejoin="round" stroke-miterlimit="2" viewBox="0 0 32 32" xmlns="http://www.w3.org/2000/svg" xmlns:xlink="http://www.w3.org/1999/xlink"><clipPath id="a"><path clip-rule="evenodd" d="m0 0h32v32h-32z"/></clipPath><metadata/><path d="m0 0h32v32h-32z" fill="none"/><g clip-path="url(#a)"><path d="m10.432 1c1.766-.655 3.649-1 5.568-1h.002c1.962 0 3.842.353 5.58 1h1.918c.74 0 1.386.402 1.732 1h1.768c1.105 0 2 .895 2 2v2.669c1.888 2.626 3 5.848 3 9.329v2.002c0 7.732-6.268 14-14 14h-4c-7.732 0-14-6.268-14-14v-2c0-2.734.7-5.396 2-7.746v-1.254c0-1.326.527-2.598 1.464-3.536.883-.882 2.061-1.4 3.301-1.458.345-.601.993-1.006 1.735-1.006z"/><path d="m30 15.998c0-7.731-6.267-13.998-13.998-13.998h-.002c-3.713 0-7.274 1.475-9.899 4.101-2.626 2.625-4.101 6.186-4.101 9.899v2c0 6.627 5.373 12 12 12h4c6.627 0 12-5.373 12-12z" fill="#fbc546"/><path d="m28 13c0 .796-.316 1.559-.879 2.121-.562.563-1.325.879-2.121.879h-1.5v1c-.667 0-1.333 0-2 0v-1h-3.5c0-.667 0-1.333 0-2h2v-2c-.796 0-1.559-.316-2.121-.879-.563-.562-.879-1.325-.879-2.121v-2s2.204-1 3-1h1.5v-1h2v1h3.5v2h-3.5v2h1.5c.796 0 3 1 3 1zm-13 0c0 .796-.316 1.559-.879 2.121-.562.563-1.325.879-2.121.879h-1.5v1c-.667 0-1.333 0-2 0v-1h-3.5c0-.667 0-1.333 0-2h2v-2c-.796 0-1.559-.316-2.121-.879-.563-.562-.879-1.325-.879-2.121v-2s2.204-1 3-1h1.5v-1h2v1h3.5v2h-2v2c.796 0 3 1 3 1z" fill="#269710"/><path d="m21.5 4v-1h2v1h3.5v2h-3.5v2h1.5c.796 0 1.559.316 2.121.879.563.562.879 1.325.879 2.121s-.316 1.559-.879 2.121c-.562.563-1.325.879-2.121.879h-1.5v1c-.667 0-1.333 0-2 0v-1h-3.5c0-.667 0-1.333 0-2h3.5v-2h-1.5c-.796 0-1.559-.316-2.121-.879-.563-.562-.879-1.325-.879-2.121s.316-1.559.879-2.121c.562-.563 1.325-.879 2.121-.879zm-13 0v-1h2v1h3.5v2h-3.5v2h1.5c.796 0 1.559.316 2.121.879.563.562.879 1.325.879 2.121s-.316 1.559-.879 2.121c-.562.563-1.325.879-2.121.879h-1.5v1c-.667 0-1.333 0-2 0v-1h-3.5c0-.667 0-1.333 0-2h3.5v-2h-1.5c-.796 0-1.559-.316-2.121-.879-.563-.562-.879-1.325-.879-2.121s.316-1.559.879-2.121c.562-.563 1.325-.879 2.121-.879zm15 8h1.5c.265 0 .52-.105.707-.293.188-.187.293-.442.293-.707s-.105-.52-.293-.707c-.187-.188-.442-.293-.707-.293h-1.5zm-11.5-2h-1.5v2h1.5c.265 0 .52-.105.707-.293.188-.187.293-.442.293-.707s-.105-.52-.293-.707c-.187-.188-.442-.293-.707-.293zm8-2h1.5v-2h-1.5c-.265 0-.52.105-.707.293-.188.187-.293.442-.293.707s.105.52.293.707c.187.188.442.293.707.293zm-13 0h1.5v-2h-1.5c-.265 0-.52.105-.707.293-.188.187-.293.442-.293.707s.105.52.293.707c.187.188.442.293.707.293z" fill="#6dec51"/><path d="m9.354 23.469c-1.583-1.409-2.715-3.314-3.153-5.469h19.598c-.438 2.155-1.57 4.06-3.153 5.469z" fill="#165011"/><path d="m12 23.28c0 .121-.995 1.242-.986 1.363l.002.027c-.595-.344-1.152-.746-1.662-1.201l.755-1.133c.13-.193.28-.371.45-.53.136-.127.284-.241.441-.34zm9-1.814c.349.221.654.515.891.87l.755 1.133c-.51.455-1.067.857-1.662 1.201l.002-.027c.009-.121-.986-1.242-.986-1.363z" fill="#1d8016"/><path d="m21 24.28c0 .122-.005.244-.014.363-.185 2.437-2.221 4.357-4.706 4.357-.186 0-.374 0-.56 0-2.607 0-4.72-2.113-4.72-4.72v-2.814c.262-.165.548-.291.848-.369.248-.064.502-.096.758-.097h6.788c.578 0 1.133.166 1.606.466z" fill="#2abd20"/></g></svg>