<svg clip-rule="evenodd" fill-rule="evenodd" stroke-linejoin="round" stroke-miterlimit="2" viewBox="0 0 32 32" xmlns="http://www.w3.org/2000/svg" xmlns:xlink="http://www.w3.org/1999/xlink"><clipPath id="a"><path clip-rule="evenodd" d="m11 7s-2.853 3.566-5.151 6.439c-1.844 2.305-2.849 5.169-2.849 8.121v.44c0 2.122.843 4.157 2.343 5.657s3.535 2.343 5.657 2.343h10c2.122 0 4.157-.843 5.657-2.343s2.343-3.535 2.343-5.657c0-.148 0-.295 0-.44 0-2.952-1.005-5.816-2.849-8.121-2.298-2.873-5.151-6.439-5.151-6.439z"/></clipPath><clipPath id="b"><path clip-rule="evenodd" d="m7 12h18v13h-18z"/></clipPath><metadata/><path d="m0 0h32v32h-32z" fill="none"/><path d="m21.138 5.005.137.014.136.024.133.033.132.042.128.051.124.059.12.068.115.077.109.084.103.091.097.098.09.105 5.154 6.443.096.121.098.126.096.127.095.128.093.129.092.129.09.131.089.131.088.133.086.133.084.134.084.134.081.136.08.136.079.137.077.138.076.139.074.139.073.14.071.141.07.141.068.142.067.143.065.143.064.144.062.145.061.146.059.145.057.147.056.147.055.148.052.148.052.149.05.149.048.15.046.15.045.151.044.152.042.151.04.153.039.153.037.153.035.153.034.154.033.155.03.154.029.156.028.155.025.156.025.156.022.157.021.157.019.157.018.157.016.158.014.158.013.158.011.158.009.159.007.159.006.159.005.159.002.16.001.154v.451l-.001.118-.002.124-.004.124-.005.124-.007.123-.009.124-.009.123-.012.122-.013.123-.014.122-.016.122-.018.122-.018.121-.021.121-.022.121-.023.12-.025.12-.026.119-.027.12-.03.119-.03.118-.032.118-.033.117-.035.117-.036.117-.038.116-.039.116-.041.115-.041.114-.044.114-.044.114-.046.113-.048.112-.048.112-.05.111-.052.111-.053.11-.054.109-.055.109-.057.108-.058.107-.06.107-.06.106-.063.105-.063.105-.065.104-.066.103-.067.102-.069.102-.07.1-.071.1-.072.099-.074.099-.075.097-.076.097-.078.096-.078.094-.08.095-.082.093-.082.092-.084.091-.085.09-.086.09-.087.088-.088.087-.09.086-.09.085-.091.084-.092.082-.093.082-.094.08-.095.078-.096.078-.097.076-.097.075-.099.074-.099.072-.1.071-.101.07-.101.069-.102.067-.103.066-.104.065-.105.063-.105.063-.106.06-.107.06-.107.058-.108.057-.109.055-.109.054-.11.053-.111.052-.111.05-.112.048-.112.048-.113.046-.114.044-.114.044-.114.041-.115.041-.116.039-.116.038-.117.036-.117.035-.117.033-.118.032-.118.03-.119.029-.119.028-.12.026-.12.025-.12.023-.121.022-.121.021-.121.018-.122.018-.122.016-.122.014-.123.013-.122.012-.124.009-.123.009-.123.007-.124.005-.124.004-.124.002-.118.001h-10.012l-.118-.001-.124-.002-.124-.004-.124-.005-.123-.007-.123-.009-.123-.009-.123-.012-.123-.013-.122-.014-.122-.016-.122-.018-.121-.018-.121-.021-.121-.022-.12-.023-.12-.025-.12-.026-.119-.028-.119-.029-.118-.03-.118-.032-.117-.033-.117-.035-.117-.036-.116-.038-.116-.039-.115-.041-.114-.041-.114-.044-.114-.044-.113-.046-.112-.048-.112-.048-.111-.05-.111-.052-.11-.053-.109-.054-.109-.055-.108-.057-.107-.058-.107-.06-.106-.06-.105-.063-.105-.063-.104-.065-.103-.066-.102-.067-.102-.069-.1-.07-.1-.071-.099-.072-.099-.074-.097-.075-.097-.076-.096-.078-.095-.078-.094-.08-.093-.082-.092-.082-.091-.084-.09-.085-.09-.086-.088-.087-.087-.088-.086-.09-.085-.09-.084-.091-.082-.092-.082-.093-.08-.094-.078-.095-.078-.096-.076-.097-.075-.097-.074-.099-.072-.099-.071-.1-.07-.1-.069-.102-.067-.102-.066-.103-.065-.104-.063-.105-.063-.105-.06-.106-.06-.107-.058-.107-.057-.108-.055-.109-.054-.109-.053-.11-.052-.111-.05-.111-.048-.112-.048-.112-.046-.113-.044-.114-.044-.114-.041-.114-.041-.115-.039-.116-.038-.116-.036-.117-.035-.117-.033-.117-.032-.118-.03-.118-.03-.119-.027-.12-.026-.119-.025-.12-.023-.12-.022-.121-.021-.121-.018-.121-.018-.122-.016-.122-.014-.122-.013-.123-.012-.123-.009-.123-.009-.123-.007-.123-.005-.124-.004-.124-.002-.124-.001-.118v-.451l.001-.154.002-.16.005-.159.006-.159.007-.159.009-.159.011-.158.013-.158.014-.158.016-.158.018-.157.019-.157.021-.157.022-.157.025-.156.025-.156.028-.155.029-.156.03-.154.033-.155.034-.154.035-.153.037-.153.039-.153.04-.153.042-.151.044-.152.045-.151.046-.15.048-.15.05-.149.052-.149.052-.148.055-.148.056-.147.057-.147.059-.146.061-.145.062-.145.064-.144.065-.143.067-.143.068-.142.07-.141.071-.141.073-.14.074-.139.076-.139.077-.138.079-.137.08-.136.082-.136.083-.134.084-.134.086-.134.088-.132.089-.131.09-.131.092-.129.093-.129.095-.128.096-.127.098-.126.096-.121 5.154-6.443.09-.105.097-.098.103-.091.109-.084.115-.077.12-.068.124-.059.128-.051.132-.042.133-.033.136-.024.137-.014.138-.005h10l.138.005zm-10.138 1.995-5.151 6.439-.086.109-.085.109-.083.11-.082.111-.081.111-.08.113-.078.113-.077.114-.076.114-.075.116-.073.116-.072.117-.071.117-.069.118-.068.119-.067.119-.066.12-.064.121-.063.122-.062.122-.061.122-.059.123-.058.124-.056.124-.055.125-.054.126-.053.126-.051.126-.05.127-.048.128-.047.128-.046.128-.045.129-.043.129-.042.13-.04.131-.039.13-.038.132-.036.131-.035.132-.033.133-.033.132-.03.133-.03.134-.028.134-.026.134-.025.134-.024.135-.023.135-.021.135-.019.136-.018.136-.017.136-.015.137-.014.136-.012.137-.011.137-.01.138-.008.137-.006.138-.005.138-.004.138-.002.138-.001.138v.44l.001.099.001.1.004.099.004.099.005.098.007.099.008.098.009.099.01.098.012.097.013.098.014.097.015.097.016.097.018.097.018.096.02.096.021.096.022.095.023.095.025.095.025.094.027.094.028.094.029.093.03.093.031.092.032.092.034.092.034.091.036.091.037.09.038.09.039.09.04.089.041.088.042.088.044.088.044.087.045.086.047.086.048.085.048.085.05.084.051.084.051.083.053.083.054.081.055.082.056.08.057.08.058.08.059.078.06.078.061.077.062.077.063.076.064.075.065.075.066.073.067.073.067.073.069.071.07.071.071.07.071.069.073.067.073.067.073.066.075.065.075.064.076.063.077.062.077.061.078.06.078.059.08.058.08.057.08.056.082.055.081.054.083.053.083.051.084.051.084.05.085.048.085.048.086.047.086.045.087.044.088.044.088.042.088.041.089.04.09.039.09.038.09.037.091.036.091.034.092.034.092.032.092.031.093.03.093.029.094.028.094.027.094.025.095.025.095.023.095.022.096.021.096.02.096.018.097.018.097.016.097.015.097.014.098.013.097.012.098.01.099.009.098.008.099.007.098.005.099.004.099.004.1.001.099.001h10l.099-.001.1-.001.099-.004.099-.004.098-.005.099-.007.098-.008.099-.009.098-.01.097-.012.098-.013.097-.014.097-.015.097-.016.097-.018.096-.018.096-.02.096-.021.095-.022.095-.023.095-.025.094-.025.094-.027.094-.028.093-.029.093-.03.092-.031.092-.032.092-.034.091-.034.091-.036.09-.037.09-.038.09-.039.089-.04.088-.041.088-.042.088-.044.087-.044.086-.045.086-.047.085-.048.085-.048.084-.05.084-.051.083-.051.083-.053.081-.054.082-.055.08-.056.08-.057.08-.058.078-.059.078-.06.077-.061.077-.062.076-.063.075-.064.075-.065.073-.066.073-.067.073-.067.071-.069.071-.07.07-.071.069-.071.067-.073.067-.073.066-.073.065-.075.064-.075.063-.076.062-.077.061-.077.06-.078.059-.078.058-.08.057-.08.056-.08.055-.082.054-.081.053-.083.051-.083.051-.084.05-.084.048-.085.048-.085.047-.086.045-.086.044-.087.044-.088.042-.088.041-.088.04-.089.039-.09.038-.09.037-.09.036-.091.034-.091.034-.092.032-.092.031-.092.03-.093.029-.093.028-.094.027-.094.025-.094.025-.095.023-.095.022-.095.021-.096.02-.096.018-.096.018-.097.016-.097.015-.097.014-.097.013-.098.012-.097.01-.098.009-.099.008-.098.007-.099.005-.098.004-.099.004-.099.001-.1.001-.099v-.44l-.001-.138-.002-.138-.004-.138-.005-.138-.006-.138-.008-.137-.01-.138-.011-.137-.012-.137-.014-.136-.015-.137-.017-.136-.018-.136-.019-.136-.021-.135-.023-.135-.024-.135-.025-.134-.026-.134-.028-.134-.03-.134-.03-.133-.033-.132-.033-.133-.035-.132-.036-.131-.038-.132-.039-.13-.04-.131-.042-.13-.043-.129-.045-.129-.046-.128-.047-.128-.048-.128-.05-.127-.051-.126-.053-.126-.054-.126-.055-.125-.056-.124-.058-.124-.059-.123-.061-.122-.062-.122-.063-.122-.064-.121-.066-.12-.067-.119-.068-.119-.069-.118-.071-.117-.072-.117-.073-.116-.075-.116-.076-.114-.077-.114-.078-.113-.08-.113-.081-.111-.082-.111-.083-.11-.085-.109-.086-.109-5.151-6.439z"/><path d="m9.072.001.104.007.104.012.103.017.102.023 3.435.858 2.448-.815.094-.029.096-.025.097-.019.098-.015.099-.009.099-.005h.099l.098.005.099.009.098.015.097.019.096.025.094.029 2.448.815 3.435-.858.102-.023.103-.017.104-.012.104-.007.105-.001.104.005.105.01.103.015.102.021.102.026.1.031.098.037.096.041.093.047.091.051.089.056.085.061.082.065.078.069.075.073.071.077.066.08.063.084.058.087.053.09.048.093.044.095.039.097.033.099.028.101.023.102.018.103.012.104.007.104.001.105-.004.104-.01.105-.015.103-.021.103-.026.101-.031.1-.036.098-2 5-.041.095-.046.093-.05.09-.055.088-.06.084-.064.082-.068.078-.072.074-.075.071-.08.066-.082.063-.086.058-.089.053-.091.049-.093.044-.096.039-.098.034-.099.029-.101.024-.102.019-.102.013-.104.008-.103.003h-10l-.103-.003-.104-.008-.102-.013-.102-.019-.101-.024-.099-.029-.098-.034-.096-.039-.093-.044-.091-.049-.089-.053-.086-.058-.082-.063-.08-.066-.075-.071-.072-.074-.068-.078-.064-.082-.06-.084-.055-.088-.05-.09-.046-.093-.041-.095-2-5-.036-.098-.031-.1-.026-.101-.021-.103-.015-.103-.01-.105-.004-.104.001-.105.007-.104.012-.104.018-.103.023-.102.028-.101.033-.099.039-.097.044-.095.048-.093.053-.09.058-.087.063-.084.066-.08.071-.077.075-.073.078-.069.082-.065.085-.061.089-.056.091-.051.094-.047.095-.041.098-.037.1-.031.102-.026.102-.021.103-.015.105-.01.104-.005.105.001zm9.928 2.999-3-1-3 1-4-1 2 5h10l2-5z"/><path d="m22.153 4.003.151.012.15.019.149.026.145.034.143.041.141.047.137.054.133.06.13.067.125.072.122.078.117.084.114.088.108.094.104.099.099.104.094.109.088.113.084.117.078.122.072.125.067.13.06.134.054.137.047.14.041.143.034.146.026.148.019.15.012.151.004.153-.004.153-.012.151-.019.15-.026.148-.034.146-.041.143-.047.14-.054.137-.06.134-.067.13-.072.125-.078.122-.083.117-.089.113-.094.109-.099.104-.104.099-.108.094-.114.088-.117.084-.122.078-.125.072-.13.067-.133.06-.137.054-.141.047-.143.041-.145.034-.149.026-.15.019-.151.012-.128.003h-12.05l-.128-.003-.151-.012-.15-.019-.148-.026-.146-.034-.143-.041-.141-.047-.136-.054-.134-.06-.13-.067-.125-.072-.122-.078-.117-.083-.114-.089-.108-.094-.104-.099-.099-.104-.094-.109-.089-.113-.083-.117-.078-.122-.072-.125-.067-.13-.06-.134-.054-.137-.047-.14-.041-.143-.034-.146-.026-.148-.019-.15-.012-.151-.004-.153.004-.153.012-.151.019-.15.026-.148.034-.146.041-.143.047-.14.054-.137.06-.134.067-.13.072-.125.078-.122.084-.117.088-.113.094-.109.099-.104.104-.099.108-.094.114-.089.117-.083.122-.078.125-.072.13-.067.134-.06.136-.054.141-.047.143-.041.145-.034.149-.026.15-.019.151-.012.128-.003h12.05zm-12.204 1.998-.051.004-.05.007-.05.008-.048.011-.047.014-.047.016-.045.018-.045.02-.043.022-.042.024-.04.026-.039.028-.038.029-.036.032-.035.033-.033.035-.032.036-.029.038-.028.039-.026.04-.024.042-.022.043-.02.045-.018.045-.016.047-.014.047-.011.048-.008.05-.007.05-.004.051-.001.051s.001.051.001.051l.004.051.007.05.008.05.011.048.014.047.016.047.018.045.02.045.022.043.024.042.026.04.028.039.029.038.032.036.033.035.035.033.036.032.038.029.039.028.04.026.042.024.043.022.045.02.045.018.047.016.047.014.048.011.05.008.05.007.051.004.051.001h12l.051-.001.051-.004.05-.007.05-.008.048-.011.047-.014.047-.016.045-.018.045-.02.043-.022.042-.024.04-.026.039-.028.038-.029.036-.032.035-.033.033-.035.032-.036.029-.038.028-.039.026-.04.024-.042.022-.043.02-.045.018-.045.016-.047.014-.047.011-.048.008-.05.007-.05.004-.051.001-.051s-.001-.051-.001-.051l-.004-.051-.007-.05-.008-.05-.011-.048-.014-.047-.016-.047-.018-.045-.02-.045-.022-.043-.024-.042-.026-.04-.028-.039-.029-.038-.032-.036-.033-.035-.035-.033-.036-.032-.038-.029-.039-.028-.04-.026-.042-.024-.043-.022-.045-.02-.045-.018-.047-.016-.047-.014-.048-.011-.05-.008-.05-.007-.051-.004-.051-.001h-12z"/><path d="m11 7s-2.853 3.566-5.151 6.439c-1.844 2.305-2.849 5.169-2.849 8.121v.44c0 2.122.843 4.157 2.343 5.657s3.535 2.343 5.657 2.343h10c2.122 0 4.157-.843 5.657-2.343s2.343-3.535 2.343-5.657c0-.148 0-.295 0-.44 0-2.952-1.005-5.816-2.849-8.121-2.298-2.873-5.151-6.439-5.151-6.439z" fill="#d0b275"/><g clip-path="url(#a)"><path d="m2 15s.517 3.101 1.025 6.151c.563 3.375 3.483 5.849 6.905 5.849h12.228c3.383 0 6.282-2.419 6.887-5.748.485-2.665.955-5.252.955-5.252h1v15h-30v-16z" fill="#bb9240"/></g><path d="m11 7-2-5 4 1 3-1 3 1 4-1-2 5z" fill="#d0b275"/><path d="m23 7c0-.552-.448-1-1-1-2.577 0-9.423 0-12 0-.552 0-1 .448-1 1s.448 1 1 1h12c.552 0 1-.448 1-1z" fill="#754628"/><path d="m7 12h18v13h-18z" fill="none"/><g clip-path="url(#b)" fill="#8e7549"><path d="m24 18h-16v-2h16z"/><path d="m24 22h-16v-2h16z"/><path d="m22 25h-2v-7.764l-3.632 7.264h-.736l-3.632-7.264v7.764h-2v-13.305l1.311-.31 4.689 9.379 4.689-9.379 1.311.31z"/></g></svg>