<svg clip-rule="evenodd" fill-rule="evenodd" stroke-linejoin="round" stroke-miterlimit="2" viewBox="0 0 32 32" xmlns="http://www.w3.org/2000/svg" xmlns:xlink="http://www.w3.org/1999/xlink"><clipPath id="a"><path clip-rule="evenodd" d="m0 0h32v32h-32z"/></clipPath><metadata/><path d="m0 0h32v32h-32z" fill="none"/><g clip-path="url(#a)"><path d="m16 1c4.243 0 8.313 1.686 11.314 4.686 3 3.001 4.686 7.071 4.686 11.314v1c0 7.732-6.268 14-14 14-1.325 0-2.675 0-4 0-7.732 0-14-6.268-14-14v-1c0-1.065.104-2.106.303-3.113-.198-.763-.303-1.563-.303-2.387 0-5.243 4.257-9.5 9.5-9.5.279 0 .555.012.828.036 1.763-.67 3.675-1.036 5.672-1.036z"/><path d="m2.449 21.263c-.293-1.038-.449-2.132-.449-3.263v-1c0-.243.006-.484.018-.725.323.553 1.329-5.275 1.329-5.275 2.247-4.73 7.068-8 12.653-8h.044c3.697.012 7.24 1.485 9.855 4.101 2.626 2.625 4.101 6.186 4.101 9.899v1c0 6.627-5.373 12-12 12h-4c-4.45 0-8.335-2.423-10.406-6.02-.088-1.1-.81-2.205-1.145-2.717z" fill="#fbc546"/><path d="m16 11v1.5c0 4.142-3.358 7.5-7.5 7.5-.001 0-.001 0-.002 0-1.989 0-3.896-.79-5.302-2.196-.461-.461-.855-.976-1.178-1.529.096-1.88.563-3.663 1.329-5.275z" fill="#e59a10"/><path d="m2.449 21.263c.367.45.925.737 1.551.737 1.105 0 2-.895 2-2v-2h2v2c0 2.209-1.791 4-4 4l-.103-.001c-.102-.003-.203-.009-.303-.019-.488-.847-.875-1.758-1.145-2.717z" fill="#808080"/><path d="m11.707 22.707s1.516-1.516 2.879-2.879c.375-.375.884-.585 1.414-.585s1.039.21 1.414.585c1.363 1.363 2.879 2.879 2.879 2.879.39.39 1.024.39 1.414 0s.39-1.024 0-1.414c0 0-1.516-1.516-2.879-2.879-.75-.75-1.767-1.171-2.828-1.171s-2.078.421-2.828 1.171c-1.363 1.363-2.879 2.879-2.879 2.879-.39.39-.39 1.024 0 1.414s1.024.39 1.414 0z" fill="#593604"/><circle cx="9.5" cy="11.5" fill="#999" r="7.5"/><circle cx="9.5" cy="11.5" fill="#fff" r="5.5"/><path d="m13 12c0-.265-.105-.52-.293-.707-.187-.188-.442-.293-.707-.293-1.331 0-3.669 0-5 0-.265 0-.52.105-.707.293-.188.187-.293.442-.293.707 0 .265.105.52.293.707.187.188.442.293.707.293h5c.265 0 .52-.105.707-.293.188-.187.293-.442.293-.707z"/><path d="m26 12c0-.265-.105-.52-.293-.707-.187-.188-.442-.293-.707-.293-1.331 0-3.669 0-5 0-.265 0-.52.105-.707.293-.188.187-.293.442-.293.707 0 .265.105.52.293.707.187.188.442.293.707.293h5c.265 0 .52-.105.707-.293.188-.187.293-.442.293-.707z"/></g></svg>