<svg clip-rule="evenodd" fill-rule="evenodd" stroke-linecap="square" stroke-miterlimit="1.5" viewBox="0 0 32 32" xmlns="http://www.w3.org/2000/svg" xmlns:xlink="http://www.w3.org/1999/xlink"><clipPath id="a"><path clip-rule="evenodd" d="m0 0h32v32h-32z"/></clipPath><clipPath id="b"><path clip-rule="evenodd" d="m2 19h28v7h-28z"/></clipPath><clipPath id="c"><path clip-rule="evenodd" d="m30 12h-27.958c.127-.752.538-1.435 1.158-1.9l8.133-6.1h18.667z"/></clipPath><metadata/><path d="m0 0h32v32h-32z" fill="none"/><g clip-path="url(#a)"><path d="m19 26v1l-1 1v2h-4v-2l-1-1v-1zm11-24v24h-28v-7h7.8l-1.91-2.047c-.568-.608-1.362-.953-2.194-.953h-.696c-1.657 0-3-1.343-3-3 0-.171 0-.339 0-.5 0-.944.445-1.833 1.2-2.4 2.024-1.518 6.141-4.606 8.667-6.5 1.384-1.039 3.069-1.6 4.8-1.6z" fill="none" stroke="#000" stroke-width="4"/><path d="m19 26h-6v1l1 1v2h4v-2l1-1z" fill="#3f3f3f"/><path d="m2 19h28v7h-28z" fill="#828282"/><g clip-path="url(#b)"><path d="m2 18h28v3h-28z" fill="#666"/><path d="m3.2 10.1c-.755.567-1.2 1.456-1.2 2.4v.5c0 1.657 1.343 3 3 3h.696c.832 0 1.626.345 2.194.953 1.046 1.122 2.774 2.972 3.82 4.094.568.608 1.362.953 2.194.953h16.096v-20h-13.333c-1.731 0-3.416.561-4.8 1.6-2.526 1.894-6.643 4.982-8.667 6.5z" fill="none" stroke="#666" stroke-width="4"/></g><path d="m7.933 17-.043-.047c-.568-.608-1.362-.953-2.194-.953h-.696c-1.306 0-2.417-.835-2.829-2l.829-1-.958-1 .958-1h26l1 1-1 1 1 1v3l-1 1h-19z" fill="#f2f2f2"/><path d="m30 17v5s-12.054 0-16.096 0c-.832 0-1.626-.345-2.194-.953l-3.777-4.047z" fill="#b9b9b9"/><path d="m30 4-1 1h-16l-1.667-1 .534-.4c1.384-1.039 3.069-1.6 4.8-1.6h13.333z" fill="#f2f2f2"/><path d="m30 12h-27.958c.127-.752.538-1.435 1.158-1.9l8.133-6.1h18.667z"/><g clip-path="url(#c)"><path d="m22 2h-5.333c-1.731 0-3.416.561-4.8 1.6-2.526 1.894-6.643 4.982-8.667 6.5-.755.567-1.2 1.456-1.2 2.4v3.5" fill="none" stroke="#414141" stroke-width="2"/></g><path d="m2.042 12h27.958v2h-27.829c-.111-.313-.171-.649-.171-1 0-.171 0-.339 0-.5 0-.169.014-.336.042-.5z" fill="#e57c21"/><path d="m27.052 3.001.051.002.051.003.05.004.051.006.05.007.049.008.049.01.049.01.048.012.048.013.047.014.046.015.047.016.045.018.045.018.045.02.044.02.043.022.043.022.043.024.041.025.041.025.04.027.04.027.039.028.038.03.037.03.037.031.036.032.035.032.034.034.034.034.032.035.032.036.031.037.03.037.03.038.028.039.027.04.027.04.025.041.025.041.024.043.022.042.022.044.02.044.02.045.018.045.018.045.016.047.015.046.014.047.013.048.012.048.01.049.01.049.008.049.007.05.006.051.004.05.003.051.002.051.001.052v8l-.001.052-.002.051-.003.051-.004.05-.006.051-.007.05-.008.049-.01.049-.01.049-.012.048-.013.048-.014.047-.015.046-.016.047-.018.045-.018.045-.02.045-.02.044-.022.044-.022.042-.024.043-.025.041-.025.041-.027.04-.027.04-.028.039-.03.038-.03.037-.031.037-.032.036-.032.035-.034.034-.034.034-.035.032-.036.032-.037.031-.037.03-.038.03-.039.028-.04.027-.04.027-.041.025-.041.025-.043.024-.043.022-.043.022-.044.02-.045.02-.045.018-.045.018-.047.016-.046.015-.047.014-.048.013-.048.012-.049.01-.049.01-.049.008-.05.007-.051.006-.05.004-.051.003-.051.002-.052.001h-5l-.052-.001-.051-.002-.051-.003-.05-.004-.051-.006-.05-.007-.049-.008-.049-.01-.049-.01-.048-.012-.048-.013-.047-.014-.046-.015-.047-.016-.045-.018-.045-.018-.045-.02-.044-.02-.043-.022-.043-.022-.043-.024-.041-.025-.041-.025-.04-.027-.04-.027-.039-.028-.038-.03-.037-.03-.037-.031-.036-.032-.035-.032-.034-.034-.034-.034-.032-.035-.032-.036-.031-.037-.03-.037-.03-.038-.028-.039-.027-.04-.027-.04-.025-.041-.025-.041-.024-.043-.022-.042-.022-.044-.02-.044-.02-.045-.018-.045-.018-.045-.016-.047-.015-.046-.014-.047-.013-.048-.012-.048-.01-.049-.01-.049-.008-.049-.007-.05-.006-.051-.004-.05-.003-.051-.002-.051-.001-.052v-8l.001-.052.002-.051.003-.051.004-.05.006-.051.007-.05.008-.049.01-.049.01-.049.012-.048.013-.048.014-.047.015-.046.016-.047.018-.045.018-.045.02-.045.02-.044.022-.044.022-.042.024-.043.025-.041.025-.041.027-.04.027-.04.028-.039.03-.038.03-.037.031-.037.032-.036.032-.035.034-.034.034-.034.035-.032.036-.032.037-.031.037-.03.038-.03.039-.028.04-.027.04-.027.041-.025.041-.025.043-.024.043-.022.043-.022.044-.02.045-.02.045-.018.045-.018.047-.016.046-.015.047-.014.048-.013.048-.012.049-.01.049-.01.049-.008.05-.007.051-.006.05-.004.051-.003.051-.002.052-.001h5zm-5.046.999h-.032l-.026.001-.026.002-.025.002-.026.003-.025.004-.024.004-.025.004-.024.006-.024.006-.023.006-.024.007-.023.007-.023.008-.022.009-.023.009-.022.01-.022.01-.022.011-.021.011-.021.012-.021.012-.02.013-.02.013-.02.014-.02.014-.019.015-.019.015-.018.016-.018.016-.018.016-.017.017-.017.017-.016.018-.016.018-.016.018-.015.019-.015.019-.014.02-.014.02-.013.02-.013.02-.012.021-.012.021-.011.021-.011.022-.01.022-.01.022-.009.023-.009.022-.008.023-.007.023-.007.024-.006.023-.006.024-.006.025-.004.024-.004.024-.004.025-.003.026-.002.025-.002.026-.001.026v.032 7.988.032l.001.026.002.026.002.025.003.026.004.025.004.024.004.024.006.025.006.024.006.023.007.024.007.023.008.023.009.023.009.022.01.022.01.022.011.022.011.021.012.021.012.021.013.02.013.02.014.02.014.02.015.019.015.019.016.018.016.018.016.018.017.017.017.017.018.016.018.016.018.016.019.015.019.015.02.014.02.014.02.013.02.013.021.012.021.012.021.011.022.011.022.01.022.01.022.009.023.009.023.008.023.007.024.007.023.006.024.006.024.006.025.004.024.004.025.004.026.003.025.002.026.002.026.001h.032 4.988.032l.026-.001.026-.002.025-.002.026-.003.025-.004.024-.004.025-.004.024-.006.024-.006.023-.006.024-.007.023-.007.023-.008.023-.009.022-.009.022-.01.022-.01.022-.011.021-.011.021-.012.021-.012.02-.013.02-.013.02-.014.02-.014.019-.015.019-.015.018-.016.018-.016.018-.016.017-.017.017-.017.016-.018.016-.018.016-.018.015-.019.015-.019.014-.02.014-.02.013-.02.013-.02.012-.021.012-.021.011-.021.011-.022.01-.022.01-.022.009-.022.009-.023.008-.023.007-.023.007-.024.006-.023.006-.024.006-.024.004-.025.004-.024.004-.025.003-.026.002-.025.002-.026.001-.026v-.032-7.988-.032l-.001-.026-.002-.026-.002-.025-.003-.026-.004-.025-.004-.024-.004-.025-.006-.024-.006-.024-.006-.023-.007-.024-.007-.023-.008-.023-.009-.022-.009-.023-.01-.022-.01-.022-.011-.022-.011-.021-.012-.021-.012-.021-.013-.02-.013-.02-.014-.02-.014-.02-.015-.019-.015-.019-.016-.018-.016-.018-.016-.018-.017-.017-.017-.017-.018-.016-.018-.016-.018-.016-.019-.015-.019-.015-.02-.014-.02-.014-.02-.013-.02-.013-.021-.012-.021-.012-.021-.011-.022-.011-.022-.01-.022-.01-.023-.009-.022-.009-.023-.008-.023-.007-.024-.007-.023-.006-.024-.006-.024-.006-.025-.004-.024-.004-.025-.004-.026-.003-.025-.002-.026-.002-.026-.001h-.032z" fill="#a6a6a6"/><path d="m13.051 6.001.051.004.05.007.05.008.048.011.047.014.047.016.045.018.045.02.043.022.042.024.04.026.039.028.038.029.036.032.035.033.033.035.032.036.029.038.028.039.026.04.024.042.022.043.02.045.018.045.016.047.014.047.011.048.008.05.007.05.004.051.001.051v2l-.001.051-.004.051-.007.05-.008.05-.011.048-.014.047-.016.047-.018.045-.02.045-.022.043-.024.042-.026.04-.028.039-.029.038-.032.036-.033.035-.035.033-.036.032-.038.029-.039.028-.04.026-.042.024-.043.022-.045.02-.045.018-.047.016-.047.014-.048.011-.05.008-.05.007-.051.004-.051.001s-.051-.001-.051-.001l-.051-.004-.05-.007-.05-.008-.048-.011-.047-.014-.047-.016-.045-.018-.045-.02-.043-.022-.042-.024-.04-.026-.039-.028-.038-.029-.036-.032-.035-.033-.033-.035-.032-.036-.029-.038-.028-.039-.026-.04-.024-.042-.022-.043-.02-.045-.018-.045-.016-.047-.014-.047-.011-.048-.008-.05-.007-.05-.004-.051-.001-.051v-2l.001-.051.004-.051.007-.05.008-.05.011-.048.014-.047.016-.047.018-.045.02-.045.022-.043.024-.042.026-.04.028-.039.029-.038.032-.036.033-.035.035-.033.036-.032.038-.029.039-.028.04-.026.042-.024.043-.022.045-.02.045-.018.047-.016.047-.014.048-.011.05-.008.05-.007.051-.004.051-.001s.051.001.051.001zm-.051 1.012v1.974z" fill="#878787"/></g></svg>