<svg clip-rule="evenodd" fill-rule="evenodd" stroke-linejoin="round" stroke-miterlimit="1.41421" viewBox="0 0 32 32" xmlns="http://www.w3.org/2000/svg" xmlns:xlink="http://www.w3.org/1999/xlink"><clipPath id="a"><path clip-rule="evenodd" d="m0 0h32v32h-32z"/></clipPath><metadata/><path d="m0 0h32v32h-32z" fill="none"/><g clip-path="url(#a)"><path d="m32 8c0-4.418-3.582-8-8-8-4.887 0-11.113 0-16 0-4.418 0-8 3.582-8 8v16c0 4.418 3.582 8 8 8h16c4.418 0 8-3.582 8-8 0-4.887 0-11.113 0-16z"/><path d="m30 8c0-1.591-.632-3.117-1.757-4.243-1.126-1.125-2.652-1.757-4.243-1.757-4.724 0-11.276 0-16 0-1.591 0-3.117.632-4.243 1.757-1.125 1.126-1.757 2.652-1.757 4.243v16c0 1.591.632 3.117 1.757 4.243 1.126 1.125 2.652 1.757 4.243 1.757h16c1.591 0 3.117-.632 4.243-1.757 1.125-1.126 1.757-2.652 1.757-4.243 0-4.724 0-11.276 0-16z" fill="#ef9b00"/><path d="m9.886 5.951h14.96v16.06c0 1.452-.162 2.347-.484 2.684-.323.337-1.174.506-2.552.506-.411 0-1.621-.037-3.63-.11l-.088-2.024c1.54.059 2.618.088 3.234.088.572 0 .905-.048 1.001-.143.095-.095.143-.429.143-1.001v-3.476h-10.45c-.426 2.713-1.57 5.001-3.432 6.864l-1.87-1.386c1.202-1.232 2.031-2.552 2.486-3.96.454-1.408.682-3.395.682-5.962zm2.376 5.236h10.208v-3.256h-10.208zm0 1.914v1.914c0 .396-.015.931-.044 1.606h10.252v-3.52z" fill="#fff" fill-rule="nonzero"/></g></svg>