<svg clip-rule="evenodd" fill-rule="evenodd" stroke-linejoin="round" stroke-miterlimit="1.5" viewBox="0 0 32 32" xmlns="http://www.w3.org/2000/svg" xmlns:xlink="http://www.w3.org/1999/xlink"><clipPath id="a"><path clip-rule="evenodd" d="m0 0h32v32h-32z"/></clipPath><clipPath id="b"><path clip-rule="evenodd" d="m2 2h28v28h-28z"/></clipPath><metadata/><path d="m0 0h32v32h-32z" fill="none"/><g clip-path="url(#a)"><path d="m32 2c0-.53-.211-1.039-.586-1.414s-.884-.586-1.414-.586h-28c-.53 0-1.039.211-1.414.586s-.586.884-.586 1.414v28c0 .53.211 1.039.586 1.414s.884.586 1.414.586h28c.53 0 1.039-.211 1.414-.586s.586-.884.586-1.414z"/><path d="m2 2h28v28h-28z" fill="#282480"/><g clip-path="url(#b)"><path d="m30 10h-12c-3.974-1.325-8.135-2-12.324-2-1.989 0-3.676 0-3.676 0v22h28z" fill="#2e2b98"/><path d="m30 14h-8.708c-1.949 0-3.83.711-5.292 2h-14v14h28z" fill="#3331ae"/><path d="m18 6c0-.552-.448-1-1-1-3.502 0-15 0-15 0v2h15c.552 0 1-.448 1-1z" fill="#3733b5"/><path d="m12 22c0-.53.211-1.039.586-1.414s.884-.586 1.414-.586h16v4h-16c-.53 0-1.039-.211-1.414-.586s-.586-.884-.586-1.414z" fill="#4a48cb"/><circle cx="26" cy="6" fill="#c0d6ff" r="6"/><g fill="#cebd5f"><circle cx="18" cy="22" r="2"/><circle cx="21" cy="22" r="2"/><circle cx="19.5" cy="19" r="2"/><circle cx="24" cy="22" r="2"/><circle cx="22.5" cy="19" r="2"/><circle cx="21" cy="16" r="2"/></g><path d="m17 24h8v6h-8z" fill="#67523b"/><path d="m27 23.5c0-.133-.053-.26-.146-.354-.094-.093-.221-.146-.354-.146-1.952 0-9.048 0-11 0-.133 0-.26.053-.354.146-.093.094-.146.221-.146.354v2c0 .133.053.26.146.354.094.093.221.146.354.146h11c.133 0 .26-.053.354-.146.093-.094.146-.221.146-.354 0-.555 0-1.445 0-2z" fill="#7f6549"/><path d="m8 30c0-3.288.766-6.531 2.236-9.472.438-.875.764-1.528.764-1.528" fill="none" stroke="#3e8c3c" stroke-width="1.5"/><path d="m7 30v-3.292c0-4.411 1.027-8.762 3-12.708" fill="none" stroke="#3e8c3c" stroke-width="1.5"/><path d="m7 30s-.367-1.837-.787-3.936c-.799-3.993-.701-8.113.287-12.064" fill="none" stroke="#3e8c3c" stroke-width="1.5"/><path d="m9.5 21s.781-.426 1.755-.957c2.364-1.29 4.004-3.595 4.446-6.251.168-1.004.299-1.792.299-1.792s-.952.635-2.098 1.398c-2.47 1.647-4.073 4.314-4.369 7.269-.021.209-.033.333-.033.333z" fill="#d3ecd3"/><path d="m8.5 16s.781-.426 1.755-.957c2.364-1.29 4.004-3.595 4.446-6.251.168-1.004.299-1.792.299-1.792s-.952.635-2.098 1.398c-2.47 1.647-4.073 4.314-4.369 7.269-.021.209-.033.333-.033.333z" fill="#d3ecd3"/><path d="m5.5 16s.434-.372.995-.853c1.615-1.384 2.671-3.308 2.972-5.413.26-1.824.533-3.734.533-3.734s-.753.753-1.675 1.675c-2.105 2.105-3.153 5.042-2.857 8.003.02.203.032.322.032.322z" fill="#d3ecd3"/></g></g></svg>