<svg clip-rule="evenodd" fill-rule="evenodd" stroke-linecap="square" stroke-linejoin="round" stroke-miterlimit="1.5" viewBox="0 0 32 32" xmlns="http://www.w3.org/2000/svg" xmlns:xlink="http://www.w3.org/1999/xlink"><clipPath id="a"><path clip-rule="evenodd" d="m0 0h32v32h-32z"/></clipPath><clipPath id="b"><path clip-rule="evenodd" d="m14.969 17c-.319 5.164-3.092 9.668-7.165 12.359 1.325.416 2.734.641 4.196.641 7.727 0 14-6.273 14-14s-6.273-14-14-14c-1.462 0-2.871.225-4.196.641 3.602 2.38 6.188 6.178 6.958 10.597l-3.762 3.762z"/></clipPath><metadata/><path d="m0 0h32v32h-32z" fill="none"/><g clip-path="url(#a)"><path d="m14.969 17c-.319 5.164-3.092 9.668-7.165 12.359 1.325.416 2.734.641 4.196.641 7.727 0 14-6.273 14-14s-6.273-14-14-14c-1.462 0-2.871.225-4.196.641 3.603 2.38 6.188 6.179 6.956 10.599l-3.76 3.76z" fill="none" stroke="#000" stroke-width="4"/><path d="m14.969 17c-.319 5.164-3.092 9.668-7.165 12.359 1.325.416 2.734.641 4.196.641 7.727 0 14-6.273 14-14s-6.273-14-14-14c-1.462 0-2.871.225-4.196.641 3.602 2.38 6.188 6.178 6.958 10.597l-3.762 3.762z" fill="#d0e3e6"/><g clip-path="url(#b)"><path d="m20 20s-.392.392-.828.828c-.751.751-1.768 1.172-2.829 1.172-1.455 0-3.343 0-3.343 0" fill="none" stroke="#4c728e" stroke-linecap="round" stroke-linejoin="miter" stroke-width="2"/></g><path d="m16 12.5c0-.663.263-1.299.732-1.768s1.105-.732 1.768-.732 1.299.263 1.768.732.732 1.105.732 1.768v2c0 .663-.263 1.299-.732 1.768s-1.105.732-1.768.732-1.299-.263-1.768-.732-.732-1.105-.732-1.768c0-.65 0-1.35 0-2z" fill="#fff"/><path d="m16 12.5c0-.398.158-.779.439-1.061.282-.281.663-.439 1.061-.439s.779.158 1.061.439c.281.282.439.663.439 1.061v2c0 .398-.158.779-.439 1.061-.282.281-.663.439-1.061.439s-.779-.158-1.061-.439c-.281-.282-.439-.663-.439-1.061z"/></g></svg>