<svg clip-rule="evenodd" fill-rule="evenodd" stroke-linecap="round" stroke-linejoin="round" stroke-miterlimit="1.5" viewBox="0 0 32 32" xmlns="http://www.w3.org/2000/svg" xmlns:xlink="http://www.w3.org/1999/xlink"><clipPath id="a"><path clip-rule="evenodd" d="m0 0h32v32h-32z"/></clipPath><clipPath id="b"><path clip-rule="evenodd" d="m2 2h28v28h-28z"/></clipPath><clipPath id="c"><path clip-rule="evenodd" d="m3.941 21.883c-1.085 1.184-1.046 3.012.09 4.148.071.071.141.141.212.212 1.125 1.125 2.651 1.757 4.242 1.757h21.515v-16h-8.202c-5.606 0-10.955 2.353-14.743 6.486-1.127 1.229-2.228 2.43-3.114 3.397z"/></clipPath><metadata/><path d="m0 0h32v32h-32z" fill="none"/><g clip-path="url(#a)"><path d="m32 2c0-.53-.211-1.039-.586-1.414s-.884-.586-1.414-.586h-28c-.53 0-1.039.211-1.414.586s-.586.884-.586 1.414v28c0 .53.211 1.039.586 1.414s.884.586 1.414.586h28c.53 0 1.039-.211 1.414-.586s.586-.884.586-1.414z"/><path d="m2 2h28v28h-28z" fill="#2e62db"/><g clip-path="url(#b)"><path d="m2 17 20-8 8 4v16h-28z" fill="#1b439a"/><path d="m2 11 5-2 13 6v14h-18z" fill="#1b439a"/><path d="m1 22h2v7h-2z" fill="#446d29"/><path d="m8 22h2v7h-2z" fill="#446d29"/><g fill="#6db142"><path d="m9 4-6 21h12z"/><path d="m2 4-6 21h12z"/><path d="m16 4-6 21h12z"/><path d="m23 4-6 21h12z"/><path d="m30 4-6 21h12z"/></g><path d="m3.941 21.883c-1.085 1.184-1.046 3.012.09 4.148.071.071.141.141.212.212 1.125 1.125 2.651 1.757 4.242 1.757h21.515v-16h-8.202c-5.606 0-10.955 2.353-14.743 6.486-1.127 1.229-2.228 2.43-3.114 3.397z" fill="#fff"/><g clip-path="url(#c)"><path d="m0 26h31v3h-31z" fill="#ccc"/><path d="m13 11s.273 1.09.533 2.132c.285 1.138-.12 2.338-1.036 3.071-.878.702-1.951 1.56-2.675 2.14-.532.425-1.193.657-1.874.657-1.185 0-2.948 0-2.948 0l1-8z"/><path d="m-1 22h31v2h-31z" fill="#2bc2f4"/><path d="m4.904 20.56s3.493 1.317 3.493 4.472c0 2.612-3.73 4.008-3.73 4.008" fill="none" stroke="#a8a8a8"/><path d="m20 16c0-.265-.105-.52-.293-.707-.187-.188-.442-.293-.707-.293-.611 0-1.389 0-2 0-.265 0-.52.105-.707.293-.188.187-.293.442-.293.707v4c0 .265.105.52.293.707.187.188.442.293.707.293h2c.265 0 .52-.105.707-.293.188-.187.293-.442.293-.707 0-1.11 0-2.89 0-4z"/><path d="m31 15h-5c-1.105 0-2 .895-2 2v2c0 1.105.895 2 2 2h5z"/><path d="m19.05 14.001.049.001.05.004.049.004.049.005.048.007.049.008.048.009.048.01.048.011.047.013.047.013.046.015.046.016.046.017.045.018.045.019.045.021.043.021.044.023.043.023.042.025.042.025.041.027.04.028.04.028.039.03.039.031.037.032.037.032.037.034.035.035.035.035.034.037.032.037.032.037.031.039.03.039.028.04.028.04.027.041.025.042.025.042.023.043.023.044.021.043.021.045.019.045.018.045.017.046.016.046.015.046.013.047.013.048.011.047.01.048.009.048.008.049.007.048.005.049.004.049.004.05.001.049.001.05v7l-.001.05-.001.049-.004.05-.004.049-.005.049-.007.048-.008.049-.009.048-.01.048-.011.047-.013.048-.013.047-.015.046-.016.046-.017.046-.018.045-.019.045-.021.045-.021.043-.023.044-.023.043-.025.042-.025.042-.027.041-.028.04-.028.04-.03.039-.031.039-.032.037-.032.037-.034.037-.035.035-.035.035-.037.034-.037.032-.037.032-.039.031-.039.03-.04.028-.04.028-.041.027-.042.025-.042.025-.043.023-.044.023-.043.021-.045.021-.045.019-.045.018-.046.017-.046.016-.046.015-.047.013-.047.013-.048.011-.048.01-.048.009-.049.008-.048.007-.049.005-.049.004-.05.004-.049.001-.05.001h-2l-.05-.001-.049-.001-.05-.004-.049-.004-.049-.005-.048-.007-.049-.008-.048-.009-.048-.01-.048-.011-.047-.013-.047-.013-.046-.015-.046-.016-.046-.017-.045-.018-.045-.019-.045-.021-.043-.021-.044-.023-.043-.023-.042-.025-.042-.025-.041-.027-.04-.028-.04-.028-.039-.03-.039-.031-.037-.032-.037-.032-.037-.034-.035-.035-.035-.035-.034-.037-.032-.037-.032-.037-.031-.039-.03-.039-.028-.04-.028-.04-.027-.041-.025-.042-.025-.042-.023-.043-.023-.044-.021-.043-.021-.045-.019-.045-.018-.045-.017-.046-.016-.046-.015-.046-.013-.047-.013-.048-.011-.047-.01-.048-.009-.048-.008-.049-.007-.048-.005-.049-.004-.049-.004-.05-.001-.049-.001-.05v-7l.001-.05.001-.049.004-.05.004-.049.005-.049.007-.048.008-.049.009-.048.01-.048.011-.047.013-.048.013-.047.015-.046.016-.046.017-.046.018-.045.019-.045.021-.045.021-.043.023-.044.023-.043.025-.042.025-.042.027-.041.028-.04.028-.04.03-.039.031-.039.032-.037.032-.037.034-.037.035-.035.035-.035.037-.034.037-.032.037-.032.039-.031.039-.03.04-.028.04-.028.041-.027.042-.025.042-.025.043-.023.044-.023.043-.021.045-.021.045-.019.045-.018.046-.017.046-.016.046-.015.047-.013.047-.013.048-.011.048-.01.048-.009.049-.008.048-.007.049-.005.049-.004.05-.004.049-.001.05-.001h2zm-2.044.999h-.031l-.025.001-.024.002-.025.002-.024.003-.025.003-.024.004-.024.004-.024.006-.024.005-.023.006-.024.007-.023.008-.023.008-.023.008-.023.009-.022.01-.022.01-.022.011-.022.011-.021.012-.021.012-.021.013-.021.013-.02.014-.02.014-.02.015-.019.015-.019.016-.018.017-.018.017-.018.017-.017.018-.017.018-.017.018-.016.019-.015.02-.015.019-.014.02-.014.02-.013.021-.013.021-.012.021-.012.021-.011.022-.011.022-.01.022-.01.022-.009.023-.008.023-.008.023-.008.023-.007.024-.006.023-.005.024-.006.024-.004.024-.004.024-.003.025-.003.024-.002.025-.002.024-.001.025v.031 6.988.031l.001.025.002.024.002.025.003.024.003.025.004.024.004.024.006.024.005.024.006.023.007.024.008.023.008.023.008.023.009.023.01.022.01.022.011.022.011.022.012.021.012.021.013.021.013.021.014.02.014.02.015.019.015.02.016.019.017.018.017.018.017.018.018.017.018.017.018.017.019.016.019.015.02.015.02.014.02.014.021.013.021.013.021.012.021.012.022.011.022.011.022.01.022.01.023.009.023.008.023.008.023.008.024.007.023.006.024.005.024.006.024.004.024.004.025.003.024.003.025.002.024.002.025.001h.031 1.988.031l.025-.001.024-.002.025-.002.024-.003.025-.003.024-.004.024-.004.024-.006.024-.005.023-.006.024-.007.023-.008.023-.008.023-.008.023-.009.022-.01.022-.01.022-.011.022-.011.021-.012.021-.012.021-.013.021-.013.02-.014.02-.014.019-.015.02-.015.018-.016.019-.017.019-.017.017-.017.017-.018.017-.018.017-.019.016-.018.015-.02.015-.019.014-.02.014-.02.013-.02.013-.021.012-.022.012-.021.011-.022.011-.021.01-.023.01-.022.009-.023.008-.023.008-.023.008-.023.007-.024.006-.023.005-.024.005-.024.005-.024.004-.024.003-.025.003-.024.002-.024.002-.025.001-.025v-.031-6.988-.031l-.001-.025-.002-.025-.002-.024-.003-.024-.003-.025-.004-.024-.005-.024-.005-.024-.005-.024-.006-.023-.007-.024-.008-.023-.008-.023-.008-.023-.009-.023-.01-.022-.01-.023-.011-.021-.011-.022-.012-.021-.012-.022-.013-.021-.013-.02-.014-.02-.014-.02-.015-.019-.015-.02-.016-.018-.017-.019-.017-.019-.017-.017-.017-.017-.019-.017-.019-.017-.018-.016-.02-.015-.019-.015-.02-.014-.021-.014-.02-.013-.021-.013-.021-.012-.021-.012-.022-.011-.022-.011-.022-.01-.022-.01-.023-.009-.023-.008-.023-.008-.023-.008-.024-.007-.023-.006-.024-.005-.024-.006-.024-.004-.024-.004-.025-.003-.024-.003-.025-.002-.024-.002-.025-.001h-.031z" fill="#a6a6a6"/></g><path d="m2 28h28v2h-28z" fill="#666"/></g></g></svg>