<svg clip-rule="evenodd" fill-rule="evenodd" stroke-linejoin="round" stroke-miterlimit="1.41421" viewBox="0 0 32 32" xmlns="http://www.w3.org/2000/svg" xmlns:xlink="http://www.w3.org/1999/xlink"><clipPath id="a"><path clip-rule="evenodd" d="m0 0h32v32h-32z"/></clipPath><metadata/><path d="m0 0h32v32h-32z" fill="none"/><g clip-path="url(#a)"><path d="m32 2c0-.53-.211-1.039-.586-1.414s-.884-.586-1.414-.586c-5.746 0-22.254 0-28 0-.53 0-1.039.211-1.414.586s-.586.884-.586 1.414v28c0 .53.211 1.039.586 1.414s.884.586 1.414.586h28c.53 0 1.039-.211 1.414-.586s.586-.884.586-1.414c0-5.746 0-22.254 0-28z"/><path d="m30 2h-28v7l1 1h26l1-1z" fill="#1185fa"/><path d="m30 16-1 1h-26l-1-1v-7h28z" fill="#3899fb"/><path d="m2 20.5v-4.5h6zm21.5-4.5h6.5v3l-5-2z" fill="#67b2fc"/><path d="m2 22.303v-1.803l3-4.5 6-5 4-5 5 3 5 6 3 2 2 2v2l-1 6h-25z" fill="#d7ccb4"/><path d="m2 22.303 2.876-4.315-.876 7.012 6-5 2-2 3 2 1 5 3-5v-3l4 2 1 3 3 3v-2l2 3v-6l1 1v9h-28z" fill="#a78e5c"/></g></svg>