<svg clip-rule="evenodd" fill-rule="evenodd" stroke-linejoin="round" stroke-miterlimit="1.41421" viewBox="0 0 32 32" xmlns="http://www.w3.org/2000/svg" xmlns:xlink="http://www.w3.org/1999/xlink"><clipPath id="a"><path clip-rule="evenodd" d="m12 11s0 0 0-.001c-.622-3.109-2.805-5.676-5.774-6.789-1.711-.642-3.226-1.21-3.226-1.21s-.544 1.994-1.168 4.284c-1.051 3.851.898 7.886 4.566 9.458.374.16.602.258.602.258"/></clipPath><clipPath id="b"><path clip-rule="evenodd" d="m20 11s0 0 0-.001c.622-3.109 2.805-5.676 5.774-6.789 1.711-.642 3.226-1.21 3.226-1.21s.544 1.994 1.168 4.284c1.051 3.851-.898 7.886-4.566 9.458-.374.16-.602.258-.602.258"/></clipPath><metadata/><path d="m0 0h32v32h-32z" fill="none"/><path d="m13.859 9c-2.876 0-5.404 1.907-6.194 4.672v.001c-.439 1.536-.563 3.144-.365 4.728.127 1.018.275 2.2.402 3.216.193 1.544.896 2.981 1.996 4.081.701.701 1.496 1.496 2.13 2.13.751.751 1.768 1.172 2.829 1.172h2.686c1.061 0 2.078-.421 2.829-1.172l2.13-2.13c1.1-1.1 1.803-2.537 1.996-4.081.127-1.016.275-2.198.402-3.216.198-1.584.074-3.192-.365-4.728 0 0 0 0 0-.001-.79-2.765-3.318-4.672-6.194-4.672-1.386 0-2.896 0-4.282 0z"/><path d="m18.317 7.002.175.005.175.009.174.013.173.016.172.02.172.023.17.026.17.03.169.034.167.036.167.04.165.044.164.046.162.05.162.053.16.056.159.06.157.062.156.065.154.069.153.071.151.075.149.077.148.08.146.083.144.086.143.089.14.091.139.095.137.097.135.099.132.103.131.104.129.108.127.11.124.113.122.115.12.117.118.12.115.123.113.125.111.127.108.129.106.132.103.134.101.136.098.139.095.141.093.142.089.145.087.147.085.149.081.151.078.153.076.155.072.157.07.158.066.161.063.162.06.163.057.166.053.167.047.159.005.017.045.162.045.169.043.17.04.17.039.17.036.17.034.171.032.172.029.172.028.172.025.172.023.172.021.173.019.173.017.174.014.173.013.174.01.173.008.174.006.174.003.174.001.175v.174l-.003.174-.006.174-.007.174-.01.175-.011.174-.014.174-.017.174-.018.173-.02.168-.403 3.227-.012.088-.013.093-.014.092-.015.092-.016.093-.016.091-.018.092-.019.091-.02.092-.021.095-.043.176-.048.18-.051.179-.055.177-.059.176-.062.175-.065.173-.07.172-.072.17-.077.169-.079.167-.083.165-.087.164-.089.162-.093.16-.097.158-.1.156-.103.155-.106.152-.109.15-.113.148-.112.142-.063.076-.06.071-.06.071-.062.07-.062.07-.063.069-.063.069-.065.068-.065.067-.062.063-2.143 2.142-.098.096-.109.101-.111.098-.113.095-.116.093-.117.089-.12.086-.121.083-.123.08-.125.077-.127.074-.128.07-.131.068-.131.064-.133.061-.135.057-.136.055-.137.051-.138.047-.14.045-.14.041-.142.037-.143.034-.144.031-.144.027-.146.023-.146.02-.147.017-.147.013-.148.009-.149.005-.136.002h-2.712l-.136-.002-.149-.005-.148-.009-.147-.013-.147-.017-.146-.02-.146-.023-.144-.027-.144-.031-.143-.034-.142-.037-.14-.041-.14-.045-.138-.047-.137-.051-.136-.055-.135-.057-.133-.061-.131-.064-.131-.068-.128-.07-.127-.074-.125-.077-.123-.08-.121-.083-.12-.086-.117-.089-.116-.093-.113-.095-.111-.098-.109-.101-.098-.096-2.143-2.142-.062-.063-.065-.067-.065-.068-.063-.069-.063-.069-.062-.07-.062-.07-.06-.071-.06-.071-.063-.076-.112-.142-.113-.148-.109-.15-.106-.152-.103-.155-.1-.156-.097-.158-.093-.16-.089-.162-.087-.164-.083-.165-.079-.167-.077-.169-.072-.17-.07-.172-.065-.173-.062-.175-.059-.176-.055-.177-.051-.179-.048-.18-.043-.176-.021-.095-.02-.092-.019-.091-.018-.092-.016-.091-.016-.093-.015-.092-.014-.092-.013-.093-.012-.088-.403-3.227-.02-.168-.018-.173-.017-.174-.014-.174-.011-.174-.01-.175-.007-.174-.006-.174-.003-.174v-.174l.001-.175.003-.174.006-.174.008-.174.01-.173.013-.174.014-.173.017-.174.019-.173.021-.173.023-.172.025-.172.028-.173.029-.171.032-.172.034-.171.036-.17.039-.17.04-.17.043-.17.045-.169.045-.161.005-.018.047-.159.053-.167.057-.166.06-.163.063-.162.066-.161.07-.158.072-.157.076-.155.078-.153.081-.151.085-.149.087-.147.089-.145.093-.142.095-.141.098-.139.101-.136.103-.134.106-.132.108-.129.111-.127.113-.125.115-.123.118-.12.12-.117.122-.115.124-.113.127-.11.129-.108.131-.104.132-.103.135-.099.137-.097.139-.095.14-.091.143-.089.144-.086.146-.083.148-.08.149-.077.151-.075.153-.071.154-.069.156-.065.157-.062.159-.06.16-.056.162-.053.162-.05.164-.046.165-.044.167-.04.167-.036.169-.034.17-.03.17-.026.172-.023.172-.02.173-.016.174-.013.175-.009.175-.005.166-.002h4.302zm-4.447 3.998-.104.001-.093.003-.092.005-.092.006-.091.009-.09.01-.091.012-.089.014-.089.016-.089.018-.088.019-.087.021-.087.023-.086.024-.085.026-.085.028-.084.03-.083.031-.083.032-.082.035-.081.036-.08.037-.08.04-.078.04-.078.042-.077.044-.076.046-.075.046-.074.049-.073.049-.073.051-.071.053-.07.054-.069.055-.068.057-.066.058-.066.059-.064.061-.063.062-.062.063-.061.064-.06.066-.058.067-.057.068-.055.069-.054.071-.053.071-.052.073-.05.074-.048.075-.048.076-.045.077-.044.078-.043.079-.041.081-.04.081-.038.082-.036.084-.035.084-.034.085-.031.087-.03.087-.028.088-.028.094-.033.117-.031.12-.031.12-.029.121-.027.121-.026.122-.024.121-.023.122-.021.122-.019.123-.018.122-.017.123-.015.123-.013.123-.012.123-.01.124-.009.123-.007.124-.006.123-.004.124-.002.124-.001.124v.124l.002.124.004.124.005.124.007.123.009.124.009.124.012.124.013.123.015.13.401 3.205.007.056.008.052.007.051.009.052.009.051.009.051.01.051.01.051.011.05.011.046.025.105.027.1.028.099.031.099.032.097.035.097.036.097.039.095.04.095.042.093.045.093.046.092.048.091.05.09.051.089.054.088.055.087.058.085.059.085.06.083.063.083.067.085.03.036.033.039.034.04.034.039.034.038.035.039.036.038.036.038.036.037.04.041 2.118 2.117.044.044.037.034.037.032.038.032.038.031.039.029.04.029.04.028.041.027.042.025.042.025.043.023.043.023.044.021.045.02.045.02.045.018.046.017.046.016.046.014.047.014.047.013.048.011.048.01.048.009.048.008.049.007.049.005.049.004.05.003.049.002.062.001h2.662l.062-.001.049-.002.05-.003.049-.004.049-.005.049-.007.048-.008.048-.009.048-.01.048-.011.047-.013.047-.014.046-.014.046-.016.046-.017.045-.018.045-.02.045-.02.044-.021.043-.023.043-.023.042-.025.042-.025.041-.027.04-.028.04-.029.039-.029.038-.031.038-.032.037-.032.037-.034.044-.044 2.118-2.117.04-.041.036-.037.036-.038.036-.038.035-.039.034-.038.034-.039.034-.04.033-.039.03-.036.067-.085.063-.083.06-.083.059-.085.058-.085.055-.087.054-.088.051-.089.05-.09.048-.091.046-.092.045-.093.042-.093.04-.095.039-.095.036-.097.035-.097.032-.097.031-.099.028-.099.027-.1.025-.105.011-.046.011-.05.01-.051.01-.051.009-.051.009-.051.009-.052.007-.051.008-.052.007-.056.401-3.205.015-.13.013-.123.012-.124.009-.124.009-.124.007-.123.005-.124.004-.124.002-.124v-.124l-.001-.124-.002-.124-.004-.124-.006-.123-.007-.124-.009-.123-.01-.124-.012-.123-.013-.123-.015-.123-.017-.123-.018-.122-.019-.123-.021-.122-.023-.122-.024-.121-.026-.122-.027-.121-.029-.121-.031-.12-.031-.12-.033-.117-.028-.094-.028-.088-.03-.087-.031-.087-.034-.085-.035-.084-.036-.084-.038-.082-.04-.081-.041-.081-.043-.079-.044-.078-.045-.077-.048-.076-.048-.075-.05-.074-.052-.073-.053-.071-.054-.071-.055-.069-.057-.068-.058-.067-.06-.066-.061-.064-.062-.063-.063-.062-.064-.061-.066-.059-.066-.058-.068-.057-.069-.055-.07-.054-.071-.053-.073-.051-.073-.049-.074-.049-.075-.046-.076-.046-.077-.044-.078-.042-.078-.04-.08-.04-.08-.037-.081-.036-.082-.035-.083-.032-.083-.031-.084-.03-.085-.028-.085-.026-.086-.024-.087-.023-.087-.021-.088-.019-.089-.018-.089-.016-.089-.014-.091-.012-.09-.01-.091-.009-.092-.006-.092-.005-.093-.003-.104-.001z"/><path d="m12 11s0 0 0-.001c-.622-3.109-2.805-5.676-5.774-6.789-1.711-.642-3.226-1.21-3.226-1.21s-.544 1.994-1.168 4.284c-1.051 3.851.898 7.886 4.566 9.458.374.16.602.258.602.258" fill="#d0c1a4"/><g clip-path="url(#a)"><path d="m9 12s-.076-.379-.186-.928c-.517-2.587-2.129-4.823-4.419-6.132-1.715-.98-3.395-1.94-3.395-1.94l1-2 9 4 3 7z" fill="#a69068"/></g><path d="m6.581 3.275.15.058.153.061.151.064.149.066.149.068.147.07.145.073.145.075.142.077.142.079.139.082.139.083.137.086.135.088.134.089.132.092.131.094.129.095.127.098.126.1.124.101.122.103.121.105.118.107.118.109.115.111.114.112.111.114.11.116.108.117.107.12.104.12.102.123.101.124.099.125.096.127.095.129.092.13.091.132.088.133.087.135.084.135.083.138.08.139.078.14.076.141.074.143.071.144.069.145.067.146.065.148.063.149.06.15.058.151.055.152.053.153.051.155.049.155.046.157.043.157.041.158.039.16.036.16.033.157.197.985-1.961.393-.196-.977-.028-.134-.029-.129-.031-.128-.033-.127-.035-.127-.037-.125-.039-.125-.04-.124-.043-.123-.045-.123-.046-.121-.049-.121-.05-.119-.052-.119-.054-.117-.055-.117-.058-.116-.059-.114-.061-.114-.063-.112-.064-.112-.066-.11-.068-.109-.069-.108-.072-.107-.072-.106-.075-.105-.076-.103-.077-.102-.08-.101-.08-.1-.083-.098-.084-.097-.085-.096-.087-.094-.088-.093-.09-.092-.091-.09-.093-.089-.094-.087-.096-.086-.096-.085-.099-.083-.099-.081-.101-.08-.103-.079-.103-.076-.105-.076-.106-.073-.108-.072-.108-.071-.11-.069-.111-.067-.113-.065-.113-.064-.115-.062-.116-.06-.117-.058-.118-.057-.119-.055-.12-.053-.122-.051-.122-.049-.127-.049-2.196-.823-.879 3.222-.022.082-.02.08-.019.079-.018.079-.017.079-.017.079-.015.08-.015.079-.013.079-.013.079-.011.08-.011.079-.01.079-.009.079-.008.079-.007.079-.006.079-.005.079-.004.079-.004.079-.002.079-.002.078v.079.078l.001.079.002.078.003.078.003.078.005.078.005.078.006.077.008.078.008.077.008.077.01.077.011.077.011.077.012.077.013.076.014.076.015.076.016.076.016.075.017.075.018.075.019.075.02.075.02.074.022.074.022.074.023.073.023.074.025.073.025.072.026.073.027.072.028.072.028.071.029.071.03.071.031.07.032.07.032.07.033.07.034.069.034.068.036.069.036.068.037.067.037.067.038.067.039.066.04.066.041.065.041.065.042.065.042.064.044.064.044.063.044.063.046.062.046.062.047.061.047.061.049.06.049.06.049.059.05.059.051.058.052.058.052.057.053.057.054.056.054.055.055.055.056.055.056.053.057.054.057.052.059.052.058.052.06.05.06.051.061.049.061.049.062.048.063.048.063.047.064.046.064.046.065.045.066.044.066.044.067.043.067.042.068.042.069.041.069.04.07.039.071.039.071.038.071.037.073.037.072.036.074.035.074.034.074.033.078.034 1.518.651-.788 1.838-1.523-.653-.094-.041-.095-.042-.095-.044-.094-.045-.094-.046-.092-.047-.092-.048-.092-.049-.09-.049-.09-.051-.089-.052-.088-.052-.088-.054-.087-.054-.086-.056-.085-.056-.085-.057-.083-.058-.083-.059-.082-.059-.082-.061-.08-.061-.08-.062-.079-.063-.078-.064-.078-.065-.076-.065-.076-.066-.075-.067-.074-.068-.073-.068-.073-.07-.071-.07-.071-.07-.07-.072-.069-.072-.068-.073-.067-.073-.067-.074-.065-.075-.065-.076-.064-.076-.062-.077-.062-.078-.062-.078-.06-.078-.059-.08-.059-.08-.057-.081-.057-.081-.055-.082-.055-.082-.054-.083-.053-.083-.052-.085-.051-.084-.05-.085-.049-.086-.048-.086-.048-.087-.046-.087-.045-.088-.045-.088-.043-.089-.042-.089-.042-.089-.04-.091-.04-.09-.038-.091-.038-.091-.036-.092-.036-.092-.034-.093-.034-.093-.033-.093-.031-.094-.03-.094-.03-.095-.028-.094-.028-.096-.026-.095-.025-.096-.025-.096-.023-.097-.022-.096-.021-.097-.02-.098-.019-.097-.018-.098-.017-.099-.016-.098-.014-.099-.014-.098-.012-.1-.012-.099-.01-.099-.009-.1-.008-.1-.007-.1-.006-.101-.005-.1-.003-.101-.003-.1-.001-.101v-.101-.101l.003-.102.003-.101.004-.102.006-.101.006-.102.008-.101.009-.102.011-.102.011-.102.013-.101.013-.102.015-.102.016-.102.018-.102.018-.102.02-.102.021-.101.022-.102.023-.102.025-.101.026-.102.026-.098 1.458-5.346 4.257 1.597z"/><path d="m20 11s0 0 0-.001c.622-3.109 2.805-5.676 5.774-6.789 1.711-.642 3.226-1.21 3.226-1.21s.544 1.994 1.168 4.284c1.051 3.851-.898 7.886-4.566 9.458-.374.16-.602.258-.602.258" fill="#d0c1a4"/><g clip-path="url(#b)"><path d="m23 12s.076-.379.186-.928c.517-2.587 2.129-4.823 4.419-6.132 1.715-.98 3.395-1.94 3.395-1.94l-1-2-9 4-3 7z" fill="#a69068"/></g><path d="m31.134 7.024.026.098.026.102.025.101.023.102.022.102.021.102.02.101.018.102.018.102.016.102.015.102.013.102.013.101.011.102.011.102.009.102.008.101.006.102.006.101.004.102.003.101.003.102v.101.101l-.001.101-.003.1-.003.101-.005.1-.006.101-.007.1-.008.1-.009.099-.01.1-.012.099-.012.1-.014.098-.014.099-.016.098-.017.099-.018.098-.019.097-.02.098-.021.097-.022.096-.023.097-.025.096-.025.096-.026.095-.028.096-.028.094-.03.095-.03.094-.031.094-.033.093-.034.093-.034.093-.036.092-.036.092-.038.091-.038.091-.04.09-.04.091-.042.089-.042.089-.043.089-.045.088-.045.088-.046.087-.048.087-.048.086-.049.086-.05.085-.051.084-.052.085-.053.083-.054.083-.055.082-.055.082-.057.081-.057.081-.059.08-.059.08-.06.078-.062.078-.062.078-.062.077-.064.076-.065.076-.065.075-.067.074-.067.073-.068.073-.069.072-.07.072-.071.07-.071.07-.073.07-.073.068-.074.068-.075.067-.076.066-.076.065-.078.065-.078.064-.079.063-.08.062-.08.061-.082.061-.082.059-.083.059-.083.058-.085.057-.085.056-.086.056-.087.054-.088.054-.088.052-.089.052-.09.051-.09.049-.092.049-.092.048-.092.047-.094.046-.094.045-.095.044-.095.042-.094.041-1.523.653-.788-1.838 1.518-.651.078-.034.074-.033.074-.034.074-.035.072-.036.073-.037.071-.037.071-.038.071-.039.07-.039.069-.04.069-.041.068-.042.067-.042.067-.043.066-.044.066-.044.065-.045.064-.046.064-.046.063-.047.063-.048.062-.048.061-.049.061-.049.06-.051.06-.05.058-.052.059-.052.057-.052.057-.054.056-.053.056-.055.055-.055.054-.055.054-.056.053-.057.052-.057.052-.058.051-.058.05-.059.049-.059.049-.06.049-.06.047-.061.047-.061.046-.062.046-.062.044-.063.044-.063.044-.064.042-.064.042-.064.041-.066.041-.065.04-.066.039-.066.038-.067.037-.067.037-.067.036-.068.036-.069.034-.068.034-.069.033-.07.032-.07.032-.07.031-.07.03-.071.029-.071.028-.071.028-.072.027-.072.026-.073.025-.072.025-.073.023-.074.023-.073.022-.074.022-.074.02-.074.02-.075.019-.075.018-.075.017-.075.016-.075.016-.076.015-.076.014-.076.013-.076.012-.077.011-.077.011-.077.01-.077.008-.077.008-.077.008-.078.006-.077.005-.078.005-.078.003-.078.003-.078.002-.078.001-.079v-.078-.079l-.002-.078-.002-.079-.004-.079-.004-.079-.005-.079-.006-.079-.007-.079-.008-.079-.009-.079-.01-.079-.011-.079-.011-.08-.013-.079-.013-.079-.015-.079-.015-.08-.017-.079-.017-.079-.018-.079-.019-.079-.02-.08-.022-.082-.879-3.222-2.196.823-.127.049-.122.049-.122.051-.12.053-.119.055-.118.057-.117.058-.116.06-.115.062-.113.064-.113.065-.111.067-.11.069-.108.071-.108.072-.106.073-.105.076-.103.076-.103.079-.101.08-.099.081-.099.083-.096.085-.096.086-.094.087-.093.089-.091.09-.09.092-.088.093-.087.094-.085.096-.084.097-.083.098-.08.1-.08.101-.077.102-.076.103-.075.105-.072.106-.072.107-.069.108-.068.109-.066.11-.064.112-.063.112-.061.114-.059.114-.058.116-.055.117-.054.117-.052.119-.05.119-.049.121-.046.121-.045.123-.043.123-.04.124-.039.125-.037.125-.035.127-.033.127-.031.128-.029.129-.028.134-.196.977-1.961-.393.197-.985.033-.157.036-.16.039-.16.041-.158.043-.157.046-.157.049-.155.051-.155.053-.153.055-.152.058-.151.06-.15.063-.149.065-.148.067-.146.069-.145.071-.144.074-.143.076-.141.078-.14.08-.139.083-.138.084-.135.087-.135.088-.133.091-.132.092-.13.095-.129.096-.127.099-.125.101-.124.102-.123.104-.12.107-.12.108-.117.11-.116.111-.114.114-.112.115-.111.118-.109.118-.107.121-.105.122-.103.124-.101.126-.1.127-.098.129-.095.131-.094.132-.092.134-.089.135-.088.137-.086.139-.083.139-.082.142-.079.142-.077.145-.075.145-.073.147-.07.149-.068.149-.066.151-.064.153-.061.15-.058 4.257-1.597 1.458 5.346z"/><path d="m13.859 9c-2.876 0-5.404 1.907-6.194 4.672v.001c-.439 1.536-.563 3.144-.365 4.728.127 1.018.275 2.2.402 3.216.193 1.544.896 2.981 1.996 4.081.701.701 1.496 1.496 2.13 2.13.751.751 1.768 1.172 2.829 1.172h2.686c1.061 0 2.078-.421 2.829-1.172l2.13-2.13c1.1-1.1 1.803-2.537 1.996-4.081.127-1.016.275-2.198.402-3.216.198-1.584.074-3.192-.365-4.728 0 0 0 0 0-.001-.79-2.765-3.318-4.672-6.194-4.672-1.386 0-2.896 0-4.282 0z" fill="#a69068"/><path d="m18.598 26.01.031.007.03.009.029.011.029.012.028.015.027.016.025.018.025.02.024.021.022.022.02.024.019.025.018.026.015.027.014.028.013.029.01.03.008.03.007.031.005.031.002.031.001.031-.001.032-.004.031-.005.031-.007.031-.009.03-.011.029-.012.029-.015.028-.016.027-.018.025-.02.025-.021.024-.022.022-.024.02-.025.019-.026.018-.027.015-.028.014-.029.013-.03.01-.03.008-.031.007-.031.005-.031.002-.031.001-.032-.001-.031-.004-.031-.005-2.402-.48-2.402.48-.031.005-.031.004-.032.001-.031-.001-.031-.002-.031-.005-.031-.007-.03-.008-.03-.01-.029-.013-.028-.014-.027-.015-.026-.018-.025-.019-.024-.02-.022-.022-.021-.024-.02-.025-.018-.025-.016-.027-.015-.028-.012-.029-.011-.029-.009-.03-.007-.031-.005-.031-.004-.031-.001-.032.001-.031.002-.031.005-.031.007-.031.008-.03.01-.03.013-.029.014-.028.015-.027.018-.026.019-.025.02-.024.022-.022.024-.021.025-.02.025-.018.027-.016.028-.015.029-.012.029-.011.03-.009.031-.007 2.598-.52z" fill="#57422d"/><path d="m20.461 16c.904 0 1.693.616 1.912 1.493.077.306.157.629.234.937.095.377.01.777-.229 1.084-.24.307-.607.486-.996.486-.033 0-.065 0-.097 0-1.262 0-2.285-1.023-2.285-2.285 0-.143 0-.285 0-.422 0-.714.579-1.293 1.293-1.293z"/><path d="m11.539 16c-.904 0-1.693.616-1.912 1.493-.077.306-.157.629-.234.937-.095.377-.01.777.229 1.084.24.307.607.486.996.486h.097c1.262 0 2.285-1.023 2.285-2.285 0-.143 0-.285 0-.422 0-.714-.579-1.293-1.293-1.293-.056 0-.112 0-.168 0z"/><path d="m15.387 22c-.321 0-.623.155-.811.415-.188.261-.239.596-.137.901.115.345.234.703.333 1 .136.409.518.684.949.684h.558c.431 0 .813-.275.949-.684.099-.297.218-.655.333-1 .102-.305.051-.64-.137-.901-.188-.26-.49-.415-.811-.415-.397 0-.829 0-1.226 0z" fill="#f69191"/></svg>