<svg clip-rule="evenodd" fill-rule="evenodd" stroke-linecap="square" stroke-linejoin="round" stroke-miterlimit="1.5" viewBox="0 0 32 32" xmlns="http://www.w3.org/2000/svg" xmlns:xlink="http://www.w3.org/1999/xlink"><clipPath id="a"><path clip-rule="evenodd" d="m0 0h32v32h-32z"/></clipPath><metadata/><path d="m0 0h32v32h-32z" fill="none"/><g clip-path="url(#a)"><path d="m3 10h21v10h-21z"/><path d="m11 19v-2c0-.552.448-1 1-1h7.351c.43 0 .857-.069 1.265-.205 1.151-.384 3.617-1.206 4.768-1.59.408-.136.835-.205 1.265-.205h2.351c.552 0 1 .448 1 1v10c0 .265-.105.52-.293.707-.187.188-.442.293-.707.293-3.284 0-13.716 0-17 0-.552 0-1-.448-1-1v-2h-3l-3 3h-3v-10h3l3 3zm4-9c0-1.105-.895-2-2-2h-9c-.53 0-1.039.211-1.414.586s-.586.884-.586 1.414c0 1.105.895 2 2 2h9c1.105 0 2-.895 2-2zm8-2 5-3 2 4-6 2h-6v-3z" fill="none" stroke="#000" stroke-width="4"/><path d="m18 8h5l3.462-2.077.538.077 2 3-.714.571-4.286 1.429h-6z" fill="#404040"/><path d="m4 17v8l1 1 3-3 .477-1 .523 1h1l.577-1 .423 1h1v-4h-1l-.4 1-.6-1h-1l-.436 1-.564-1-3-3z" fill="#404040"/><path d="m2 16h3v10h-3z" fill="#333"/><path d="m10 19h1v4h-1z" fill="#676767"/><path d="m8 19h1v4h-1z" fill="#676767"/><path d="m26.649 14c-.43 0-.857.069-1.265.205-1.151.384-3.617 1.206-4.768 1.59-.408.136-.835.205-1.265.205-1.553 0-5.492 0-7.351 0-.552 0-1 .448-1 1v8c0 .552.448 1 1 1h17c.265 0 .52-.105.707-.293.188-.187.293-.442.293-.707 0-2.26 0-7.74 0-10 0-.552-.448-1-1-1-.736 0-1.715 0-2.351 0z" fill="#404040"/><path d="m15 10c0-1.105-.895-2-2-2h-9c-.53 0-1.039.211-1.414.586s-.586.884-.586 1.414c0 1.105.895 2 2 2h9c1.105 0 2-.895 2-2z" fill="#333"/><path d="m20 18-7-7" fill="none" stroke="#404040" stroke-linecap="round" stroke-width="3"/><path d="m28 18c0-.552-.448-1-1-1h-6c-.552 0-1 .448-1 1v6c0 .552.448 1 1 1h6c.552 0 1-.448 1-1z" fill="#1a1a1a"/><g fill="#666"><path d="m15 19c0-.552-.448-1-1-1s-1 .448-1 1v2c0 .552.448 1 1 1s1-.448 1-1c0-.611 0-1.389 0-2z"/><path d="m18 19c0-.552-.448-1-1-1s-1 .448-1 1v2c0 .552.448 1 1 1s1-.448 1-1c0-.611 0-1.389 0-2z"/><path d="m15 24c0-.552-.448-1-1-1s-1 .448-1 1 .448 1 1 1 1-.448 1-1z"/><path d="m18 24c0-.552-.448-1-1-1s-1 .448-1 1 .448 1 1 1 1-.448 1-1z"/><path d="m21 18h1v3h-1z"/><path d="m23 18h1v1h-1z"/><path d="m24.5 18h1v1h-1z"/><path d="m23 22h1v1h-1z"/><path d="m24.5 22h1v1h-1z"/><path d="m21 22h1v2h-1z"/></g><path d="m26.462 5.923 1.538-.923 2 4-1.714.571z" fill="#323232"/></g></svg>