<svg clip-rule="evenodd" fill-rule="evenodd" stroke-linejoin="round" stroke-miterlimit="1.41421" viewBox="0 0 32 32" xmlns="http://www.w3.org/2000/svg"><metadata/><path d="m0 0v32h32v-32z" fill="none"/><path d="m16 11.5 7.425-7.424 3.535 3.535v2l-6.424 6.425 6.424 6.424v2l-3.535 3.536-7.425-7.425-7.425 7.425-3.535-3.536v-2l6.424-6.424-6.424-6.425v-2l3.535-3.535z" fill="none" stroke="#000" stroke-width="4"/><g fill-rule="nonzero"><path d="m16 13.741 7.425-7.665 3.535 1.535v2l-7.599 7.599 4.639 4.79 2.96.46v2l-3.535 3.536-7.425-7.425-7.425 7.425-3.535-3.536v-2l2.96-.46 4.639-4.79-7.599-7.599v-2l3.535-1.535z" fill="#747474"/><path d="m16 11.5 7.425-7.424 3.535 3.535-7.424 7.425 7.424 7.424-3.535 3.536-7.425-7.425-7.425 7.425-3.535-3.536 7.424-7.424-7.424-7.425 3.535-3.535z" fill="#fff"/></g></svg>