<svg clip-rule="evenodd" fill-rule="evenodd" stroke-linecap="round" stroke-miterlimit="2" viewBox="0 0 32 32" xmlns="http://www.w3.org/2000/svg" xmlns:xlink="http://www.w3.org/1999/xlink"><clipPath id="a"><path clip-rule="evenodd" d="m0 0h32v32h-32z"/></clipPath><metadata/><path d="m0 0h32v32h-32z" fill="none"/><g clip-path="url(#a)"><path d="m15.489 16.34c2.765-1.119 5.851-1.391 8.85-.699 3.115.719 6.111 1.41 6.111 1.41.907.21 1.55 1.018 1.55 1.949v8c0 .834-.517 1.58-1.298 1.873 0 0-1.424.534-3.07 1.151-3.485 1.307-7.175 1.976-10.897 1.976-5.417 0-10.74-1.414-15.443-4.101-.181-.104-.284-.163-.284-.163-.623-.356-1.008-1.018-1.008-1.736 0 0 0-1.702 0-3.626 0-3.899 1.156-7.711 3.322-10.953l3.732-5.586c.39-.584.927-1.056 1.558-1.366 1.395-.687 5.5-2.711 7.997-3.941 2.074-1.021 4.584-.263 5.744 1.736.698 1.204 1.599 2.757 2.326 4.011.612 1.054.758 2.316.403 3.482s-1.179 2.132-2.275 2.667c-.422.205-.85.414-1.236.602-1.542.753-3.375.58-4.75-.448l-.202-.151-1.373.686-.071.32c-.087.388-.091.79-.013 1.18.072.36.157.785.245 1.222.033.168.061.336.082.505z"/><path d="m22.836 7.082-.336.722-4.872 2.196-.8.086-.948.474-.621-.06-.274.507-.92.461-2.065.532 1.169 1.277c-.093.573-.082 1.158.032 1.728.072.36.157.785.244 1.222.126.628.135 1.264.035 1.878l-1.98 2.895.5.5 4.209-3.295c2.399-.977 5.078-1.216 7.68-.615 3.115.719 6.111 1.41 6.111 1.41v8s-1.424.534-3.071 1.152c-3.259 1.222-6.712 1.848-10.194 1.848-5.069 0-10.05-1.323-14.451-3.838-.181-.103-.284-.162-.284-.162v-3.626c0-3.504 1.039-6.929 2.985-9.842 1.478-2.212 3.082-4.614 3.732-5.586.195-.292.464-.528.779-.683 1.395-.687 5.5-2.71 7.997-3.941 1.13-.557 2.498-.143 3.13.946zm.389.924c.078.384.06.785-.056 1.168-.194.635-.642 1.161-1.239 1.452-.422.206-.85.415-1.235.603-.869.423-1.902.326-2.676-.253l-.295-.22.154-.519 4.725-2.317z" fill="#f793fe"/><path d="m13.709 8.455.894-.448 1.277 2.553-.895.447zm3.119 1.631.663-.331-1.277-2.553c.299-.149.597-.298.895-.447l1.276 2.552 1.611-.805-1.276-2.553c.298-.149.596-.298.894-.447l1.277 2.553 1.945-.973.113.196c.133.228.225.474.276.728l-5.501 2.75z" fill="#791f8d"/><path d="m13.169 13.277-2.486-.829c-.251-.083-.459-.264-.578-.501-.118-.237-.138-.511-.054-.762 0-.001 0-.002.001-.002.083-.252.264-.459.501-.578.237-.118.511-.138.762-.054l2.75.917-.33.164c-.149.075-.256.212-.292.375-.054.244-.139.627-.221.992-.02.093-.038.185-.053.278z" fill="#d470f5"/><path d="m13.48 18.105c-.174 1.082-.683 2.098-1.48 2.895l.001-.001c1.221-1.221 2.656-2.162 4.208-2.794l-4.003 4.003c-.39.39-1.022.39-1.412 0-.001 0-.001-.001-.001-.001-.188-.187-.293-.442-.293-.707s.105-.52.293-.707z" fill="#d470f5"/><path d="m15.5 24.5c2.728 1.273 5.868 1.329 8.639.153.225-.095.361-.153.361-.153" fill="none" stroke="#d470f5" stroke-width="2"/></g></svg>