<svg clip-rule="evenodd" fill-rule="evenodd" stroke-linecap="round" stroke-miterlimit="2" viewBox="0 0 32 32" xmlns="http://www.w3.org/2000/svg" xmlns:xlink="http://www.w3.org/1999/xlink"><clipPath id="a"><path clip-rule="evenodd" d="m0 0h32v32h-32z"/></clipPath><metadata/><path d="m0 0h32v32h-32z" fill="none"/><g clip-path="url(#a)"><path d="m15.489 16.34c2.765-1.119 5.851-1.391 8.85-.699 3.115.719 6.111 1.41 6.111 1.41.907.21 1.55 1.018 1.55 1.949v8c0 .834-.517 1.58-1.298 1.873 0 0-1.424.534-3.07 1.151-3.485 1.307-7.175 1.976-10.897 1.976-5.417 0-10.74-1.414-15.443-4.101-.181-.104-.284-.163-.284-.163-.623-.356-1.008-1.018-1.008-1.736v-4.103c0-3.566.967-7.066 2.799-10.126l3.261-5.449c.772-1.289 1.899-2.328 3.246-2.992 1.38-.68 3.46-1.705 5.268-2.596 3.017-1.486 6.669-.382 8.357 2.527.387.667.789 1.361 1.17 2.017.761 1.312.943 2.882.501 4.333s-1.467 2.653-2.831 3.318c-.067.033-.134.065-.2.097-1.542.753-3.375.58-4.75-.448l-.202-.151-1.373.686-.071.32c-.087.388-.091.79-.013 1.18.072.36.157.785.245 1.222.033.168.061.336.082.505z"/><path d="m22.725 7.138-.142.272-5.083 2.782-.672-.106-.943.472-.665-.058-.23.505-.925.463-1.565.532.669 1.277c-.093.573-.082 1.158.032 1.728.072.36.157.785.244 1.222.126.628.135 1.264.035 1.878l-2.175 3.237.535.39 4.369-3.527c2.399-.977 5.078-1.216 7.68-.615 3.115.719 6.111 1.41 6.111 1.41v8s-1.424.534-3.071 1.152c-3.259 1.222-6.712 1.848-10.194 1.848-5.069 0-10.05-1.323-14.451-3.838-.181-.103-.284-.162-.284-.162v-4.103c0-3.205.869-6.349 2.515-9.099 1.147-1.917 2.432-4.063 3.261-5.449.574-.959 1.412-1.731 2.415-2.225 1.379-.68 3.459-1.705 5.267-2.596 2.073-1.021 4.583-.262 5.743 1.737.387.667.789 1.361 1.17 2.017.157.271.275.559.354.856zm.109 1.063c-.015.278-.063.556-.145.827-.28.92-.93 1.682-1.795 2.103-.067.033-.134.066-.199.098-.869.423-1.902.326-2.676-.253l-.295-.22.061-.571 4.715-2.473z" fill="#633a92"/><path d="m14.009 9.042.894-.447.982 1.963-.895.447zm2.819 1.044.668-.334-.982-1.962c.299-.149.597-.298.895-.448l.981 1.963 1.611-.806-.981-1.962c.298-.149.596-.298.894-.447l.982 1.962 1.829-.914c.091.346.128.705.109 1.063l-5.11 2.555z" fill="#2b123f"/><path d="m13.48 18.105c-.174 1.082-.683 2.098-1.48 2.895l.001-.001c1.221-1.221 2.656-2.162 4.208-2.794l-4.003 4.003c-.39.39-1.022.39-1.412 0-.001 0-.001-.001-.001-.001-.188-.187-.293-.442-.293-.707s.105-.52.293-.707zm-.311-4.828-2.486-.829c-.251-.083-.459-.264-.578-.501-.118-.237-.138-.511-.054-.762 0-.001 0-.002.001-.002.083-.252.264-.459.501-.578.237-.118.511-.138.762-.054l2.75.917-.33.164c-.149.075-.256.212-.292.375-.054.244-.139.627-.221.992-.02.093-.038.185-.053.278z" fill="#4f246c"/><path d="m15.5 24.5c2.728 1.273 5.868 1.329 8.639.153.225-.095.361-.153.361-.153" fill="none" stroke="#4f246c" stroke-width="2"/></g></svg>