<svg clip-rule="evenodd" fill-rule="evenodd" stroke-linecap="round" stroke-miterlimit="2" viewBox="0 0 32 32" xmlns="http://www.w3.org/2000/svg" xmlns:xlink="http://www.w3.org/1999/xlink"><clipPath id="a"><path clip-rule="evenodd" d="m0 0h32v32h-32z"/></clipPath><metadata/><path d="m0 0h32v32h-32z" fill="none"/><g clip-path="url(#a)"><path d="m15.489 16.34c2.765-1.119 5.851-1.391 8.85-.699 3.115.719 6.111 1.41 6.111 1.41.907.21 1.55 1.018 1.55 1.949v8c0 .834-.517 1.58-1.298 1.873 0 0-1.424.534-3.07 1.151-3.485 1.307-7.175 1.976-10.897 1.976-5.417 0-10.74-1.414-15.443-4.101-.181-.104-.284-.163-.284-.163-.623-.356-1.008-1.018-1.008-1.736 0 0 0-1.702 0-3.626 0-3.899 1.156-7.711 3.322-10.953l3.732-5.586c.39-.584.927-1.056 1.558-1.366 1.395-.687 5.5-2.711 7.997-3.941 2.074-1.021 4.584-.263 5.744 1.736.461.796 1.011 1.744 1.541 2.657.815 1.405 1.01 3.084.539 4.638-.472 1.554-1.567 2.842-3.025 3.556 0 .001-.001.001-.001.001-1.925.944-4.162.899-6.027-.07l-.134.067-.071.32c-.087.388-.091.79-.013 1.18.072.36.157.785.245 1.222.033.168.061.336.082.505z"/><path d="m16.735 30c-5.069 0-10.05-1.323-14.451-3.838-.181-.103-.284-.162-.284-.162v-3.626c0-3.504 1.039-6.929 2.985-9.842 1.478-2.212 3.082-4.614 3.732-5.586.195-.292.464-.528.779-.683 1.395-.687 5.5-2.71 7.997-3.941 1.13-.557 2.498-.143 3.13.946l1.213 2.092-.511 1.013-5.771 2.783-.564 1.849-.925.463-1.065.167.169 1.642c-.093.573-.082 1.158.032 1.728.072.36.157.785.244 1.222.126.628.135 1.264.035 1.878l-1.98 2.895.5.5 4.209-3.295c2.399-.977 5.078-1.216 7.68-.615 3.115.719 6.111 1.41 6.111 1.41v8s-1.424.534-3.071 1.152c-3.259 1.222-6.712 1.848-10.194 1.848z" fill="#4d4d4d"/><path d="m22.662 8.275c-.025.237-.073.472-.143.703-.311 1.023-1.032 1.871-1.991 2.342-.001 0-.001 0-.002 0-1.286.631-2.771.632-4.04.043l.257-.647 5.477-2.425zm-4.78 1.604c-.537.268-1.529.594-2.066.863l-.963-1.538.143-.424 1.611-.805.512.214zm2.451-1.089c-.537.268-1.538.655-2.075.924l-.878-1.692.121-.495 1.611-.805.388.278zm1.503-3.43c.11.188.219.377.328.565.046.079.089.16.13.242.155.319.265.657.329 1.005l.001.004-.157.533-1.758.94-.886-1.844.184-.53z" fill="#2c2c2c"/><path d="m15.5 10.75-.51.255-.021-.042-1.26-2.521c.298-.149.596-.298.894-.447l1.277 2.553 1.611-.806-1.277-2.552c.299-.149.597-.298.895-.448l1.276 2.553 1.611-.805-1.276-2.553c.298-.149.596-.298.894-.447l1.277 2.553 1.733-.867c.065.361.078.732.038 1.099l-6.176 3.088-.03-.014c-.195-.094-.385-.199-.566-.318-.134-.088-.261-.185-.39-.281z" fill="#1a1a1a"/><path d="m13.48 18.105c-.174 1.082-.683 2.098-1.48 2.895l.001-.001c1.221-1.221 2.656-2.162 4.208-2.794l-4.002 4.002c-.101.1-.22.178-.353.228-.121.046-.249.068-.378.065-.125-.003-.249-.03-.364-.078-.103-.043-.199-.104-.282-.179-.081-.074-.15-.161-.204-.256-.15-.27-.166-.603-.043-.886.05-.115.122-.219.21-.308zm-2.796-5.656c-.119-.041-.23-.101-.326-.182-.237-.198-.371-.503-.357-.812.005-.109.028-.218.068-.32.041-.104.099-.201.172-.286.081-.095.18-.174.291-.232.113-.06.238-.099.366-.112.141-.015.283.002.418.046l2.749.917-.33.164c-.149.075-.256.212-.292.375-.054.244-.139.627-.221.992-.02.093-.038.185-.053.278z" fill="#333"/><path d="m15.5 24.5c2.728 1.273 5.868 1.329 8.639.153.225-.095.361-.153.361-.153" fill="none" stroke="#333" stroke-width="2"/></g></svg>