<svg clip-rule="evenodd" fill-rule="evenodd" stroke-linejoin="round" stroke-miterlimit="1.5" viewBox="0 0 32 32" xmlns="http://www.w3.org/2000/svg" xmlns:xlink="http://www.w3.org/1999/xlink"><clipPath id="a"><path clip-rule="evenodd" d="m0 0v32h32v-32z"/></clipPath><metadata/><path d="m0 0v32h32v-32z" fill="none"/><g clip-path="url(#a)"><path d="m25 15v11.5c0 1.932-2.24 3.5-5 3.5s-5-1.568-5-3.5v-2c0-1.932 2.24-3.5 5-3.5.711 0 1.387.104 2 .292v-14.292l8 4v6.5zm-23 4.5c0-1.932 2.24-3.5 5-3.5.711 0 1.387.104 2 .292v-14.292l8 4v6.5l-5-2.5v11.5c0 1.932-2.24 3.5-5 3.5s-5-1.568-5-3.5z" fill="none" stroke="#000" stroke-width="4"/><g fill="#956607"><path d="m2.897 19.5c.904-.906 2.405-1.5 4.103-1.5s3.199.594 4.103 1.5h.897v2c0 1.932-2.24 3.5-5 3.5s-5-1.568-5-3.5v-2z"/><path d="m15.897 24.5c.904-.906 2.405-1.5 4.103-1.5s3.199.594 4.103 1.5h.897v2c0 1.932-2.24 3.5-5 3.5s-5-1.568-5-3.5v-2z"/><path d="m17 10.5v2l-5-2.5-2-4 5 2z"/><path d="m30 15.5v2l-5-2.5-2-4 5 2z"/></g><path d="m9 16.292v-14.292l8 4v4.5l-5-2.5v11.5c0 1.932-2.24 3.5-5 3.5s-5-1.568-5-3.5 2.24-3.5 5-3.5c.711 0 1.387.104 2 .292z" fill="#ef9b00"/><path d="m22 21.292v-14.292l8 4v4.5l-5-2.5v11.5c0 1.932-2.24 3.5-5 3.5s-5-1.568-5-3.5 2.24-3.5 5-3.5c.711 0 1.387.104 2 .292z" fill="#ef9b00"/></g></svg>