<svg clip-rule="evenodd" fill-rule="evenodd" stroke-linecap="square" stroke-linejoin="round" stroke-miterlimit="3" viewBox="0 0 32 32" xmlns="http://www.w3.org/2000/svg" xmlns:xlink="http://www.w3.org/1999/xlink"><clipPath id="a"><path clip-rule="evenodd" d="m0 0v32h32v-32z"/></clipPath><metadata/><path d="m0 0v32h32v-32z" fill="none"/><g clip-path="url(#a)"><path d="m9 9v-1s0-.066 0-.179c0-1.75.918-3.372 2.419-4.272 1.276-.766 2.581-1.549 2.581-1.549s.086 1.205.187 2.616c.11 1.54-.216 3.054-.908 4.384h16.721v17h-19.5c0 .796-.316 1.559-.879 2.121-.562.563-1.325.879-2.121.879-.167 0-.335 0-.5 0-1.381 0-2.5-1.119-2.5-2.5 0-.009 0-.018 0-.027 0-.163.027-.322.078-.473h-2.578v-17zm-.076 17h-1.502c.051.151.078.31.078.473v.527h.034c.646 0 1.195-.419 1.39-1zm1.701-17 .846-.712c.969-.817 1.529-2.02 1.529-3.288s-.986.789-1.719 1.375c-.494.395-.781.993-.781 1.625v1z" fill="none" stroke="#000" stroke-width="4"/><path d="m6.59 25h3.133v3.014h-3.133z"/><path d="m30 24-1-1h-26l-1 1v2h28z" fill="#737373"/><path d="m30 9h-28v3l.394.512-.394.488v3l.359.564-.359.436v3l.43.562-.43.438v3h28v-3l-.484-.492.484-.508v-3l-.484-.634.484-.366v-3l-.43-.541.43-.459z" fill="#fff"/><g fill="#b0b0b0"><path d="m2 20h28v1h-28z"/><path d="m2 16h28v1h-28z"/><path d="m2 12h28v1h-28z"/></g><path d="m9 8v-.179c0-1.75.918-3.372 2.419-4.272 1.276-.766 2.581-1.549 2.581-1.549s.086 1.205.187 2.616c.196 2.739-.988 5.396-3.157 7.083l-.53.412v1.911c.146-.015.294-.022.445-.022h.11c2.455 0 4.445 1.99 4.445 4.445v.054c0 2.869-2.197 5.225-5 5.478v2.023c0 .796-.316 1.559-.879 2.121-.562.563-1.325.879-2.121.879-.167 0-.335 0-.5 0-1.381 0-2.5-1.119-2.5-2.5 0-.009 0-.018 0-.027 0-.391.155-.765.431-1.042.277-.276.651-.431 1.042-.431h.054c.391 0 .765.155 1.042.431.276.277.431.651.431 1.042v.527h.034c.809 0 1.466-.656 1.466-1.466 0-.304 0-.534 0-.534v-1h-.074c-2.997 0-5.426-2.429-5.426-5.426 0-.001 0-.001 0-.002 0-2.265 1-4.414 2.732-5.873l2.768-2.331zm0 5.278-1.516 1.179c-1.252.973-1.984 2.471-1.984 4.057v.532c0 .783.311 1.535.865 2.089s1.306.865 2.089.865h.546v-4.323c-.311.353-.5.816-.5 1.323v2c-1.105 0-2-.895-2-2 0-.179 0-.365 0-.555 0-1.758 1.02-3.277 2.5-3.998zm1.5 3.722v4.855c1.161-.382 2-1.476 2-2.765 0-.031 0-.061 0-.092 0-1.103-.895-1.998-1.998-1.998zm0-7.895.971-.817c.969-.817 1.529-2.02 1.529-3.288s-.986.789-1.719 1.375c-.494.395-.781.993-.781 1.625z" fill="#199d4e"/></g></svg>