<svg clip-rule="evenodd" fill-rule="evenodd" stroke-linejoin="round" stroke-miterlimit="1.5" viewBox="0 0 32 32" xmlns="http://www.w3.org/2000/svg" xmlns:xlink="http://www.w3.org/1999/xlink"><clipPath id="a"><path clip-rule="evenodd" d="m0 0v32h32v-32z"/></clipPath><metadata/><path d="m0 0v32h32v-32z" fill="none"/><g clip-path="url(#a)"><path d="m12 24.5v2c0 1.932-2.24 3.5-5 3.5s-5-1.568-5-3.5v-2c0-1.932 2.24-3.5 5-3.5.711 0 1.387.104 2 .292v-12.959l19-6.333v21.5c0 1.932-2.24 3.5-5 3.5s-5-1.568-5-3.5v-2c0-1.932 2.24-3.5 5-3.5.711 0 1.387.104 2 .292v-7.959l-13 4.334z" fill="none" stroke="#000" stroke-width="4"/><g fill="#aa2252"><path d="m2.897 24.5c.904-.906 2.405-1.5 4.103-1.5s3.199.594 4.103 1.5h.897v2c0 1.932-2.24 3.5-5 3.5s-5-1.568-5-3.5v-2z"/><path d="m18.897 21.5c.904-.906 2.405-1.5 4.103-1.5s3.199.594 4.103 1.5h.897v2c0 1.932-2.24 3.5-5 3.5s-5-1.568-5-3.5v-2z"/><path d="m27 6.667v3l-15 5-2-1.667 4-5z"/></g><path d="m9 21.292v-12.959l19-6.333v19.5c0 1.932-2.24 3.5-5 3.5s-5-1.568-5-3.5 2.24-3.5 5-3.5c.711 0 1.387.104 2 .292v-9.959l-13 4.334v11.833c0 1.932-2.24 3.5-5 3.5s-5-1.568-5-3.5 2.24-3.5 5-3.5c.711 0 1.387.104 2 .292z" fill="#ff4586"/></g></svg>