<svg clip-rule="evenodd" fill-rule="evenodd" stroke-linejoin="round" stroke-miterlimit="2" viewBox="0 0 32 32" xmlns="http://www.w3.org/2000/svg" xmlns:xlink="http://www.w3.org/1999/xlink"><clipPath id="a"><path clip-rule="evenodd" d="m0 0h32v32h-32z"/></clipPath><metadata/><path d="m0 0h32v32h-32z" fill="none"/><g clip-path="url(#a)"><path d="m27.434 6.605c.577.593.746 1.508.355 2.289 0 0-.814 1.629-1.404 2.808-.58 1.161-1.522 2.103-2.683 2.683-.428.214-.808.404-.808.404-.563.281-1.225.281-1.788 0l-1.345-.672-1.336 4.677c.047.324.075.649.084.977l.001.053c.738-.534 1.556-.954 2.425-1.244l5.03-1.676-2.545 8.906c.234 1.636-.066 3.308-.804 4.87l-.042.088-.737 1.232h-21.837v-17.828l4.417-4.418c.988-.988 2.193-1.732 3.518-2.174l5.03-1.676-2.54 8.89c.044.291.07.582.081.872l1.911-1.912c.988-.988 2.193-1.732 3.518-2.174l.138-.046c-.048-.171-.073-.351-.073-.534 0-.758.428-1.45 1.106-1.789 0 0 .379-.189.807-.404.387-.193.701-.507.894-.894.59-1.179 1.404-2.807 1.404-2.807.391-.782 1.225-1.196 2.045-1.09l2.008-4.016h6.472l-3.302 6.605z"/><path d="m16.372 18.697c.429 1.935-.11 4.041-1.615 5.546l-5.757 5.757h-7v-3l7.207-7.207c.142.662 7.165-1.096 7.165-1.096zm5 7c.321 1.446.101 2.988-.66 4.303h-9.712l3.207-3.207c1.069-.153 7.165-1.096 7.165-1.096zm-13-11c.429 1.935-.11 4.041-1.615 5.546l-4.757 4.757v-7.007c.742.024 6.372-3.296 6.372-3.296z" fill="#ef8e10"/><path d="m14.207 28.207c-.39-.39-.39-1.024 0-1.414l4.625-4.625c.768-.768 1.705-1.347 2.736-1.691.726-.242 1.432-.477 1.432-.477s-1.069 3.742-1.644 5.754c-.234.817-.671 1.561-1.272 2.162-.29.29-.624.624-.963.963-.562.562-1.325.878-2.121.878s-1.559-.316-2.121-.878c-.24-.24-.471-.471-.672-.672zm-5-7c-.39-.39-.39-1.024 0-1.414l4.625-4.625c.768-.768 1.705-1.347 2.736-1.691.726-.242 1.432-.477 1.432-.477s-1.069 3.742-1.644 5.754c-.234.817-.671 1.561-1.272 2.162-.29.29-.624.624-.963.963-.562.562-1.325.878-2.121.878s-1.559-.316-2.121-.878c-.24-.24-.471-.471-.672-.672zm-7.207-6.207 3.832-3.832c.768-.768 1.705-1.347 2.736-1.691.726-.242 1.432-.477 1.432-.477s-1.069 3.742-1.644 5.754c-.234.817-.671 1.561-1.272 2.162-.29.29-.624.624-.963.963-.562.562-1.325.878-2.121.878-.74 0-1.451-.273-2-.764z" fill="#6febeb"/><path d="m27.5 2h-2l-4.5 9h2z" fill="#575757"/><path d="m18 11s.379-.19.807-.404c.775-.387 1.402-1.014 1.789-1.789.59-1.178 1.404-2.807 1.404-2.807l4 2s-.814 1.629-1.404 2.807c-.387.775-1.014 1.402-1.789 1.789-.428.214-.807.404-.807.404z" fill="#6febeb"/></g></svg>