<svg clip-rule="evenodd" fill-rule="evenodd" stroke-linejoin="round" stroke-miterlimit="2" viewBox="0 0 32 32" xmlns="http://www.w3.org/2000/svg" xmlns:xlink="http://www.w3.org/1999/xlink"><clipPath id="a"><path clip-rule="evenodd" d="m0 0h32v32h-32z"/></clipPath><metadata/><path d="m0 0h32v32h-32z" fill="none"/><g clip-path="url(#a)"><path d="m16 11c0-.758.428-1.45 1.106-1.789 0 0 .379-.189.807-.404.387-.193.701-.507.894-.894.59-1.179 1.404-2.807 1.404-2.807.391-.782 1.225-1.196 2.045-1.09l2.008-4.016h6.472l-3.302 6.605c.577.593.746 1.508.355 2.289 0 0-.814 1.629-1.404 2.808-.58 1.161-1.522 2.103-2.683 2.683-.428.214-.808.404-.808.404-.563.281-1.225.281-1.788 0l-.125-.062c.001.008.003.017.004.025 0 0 .055.443.055.443.168 1.342.179 2.684.04 4.003l.288-.095c.503-.168 1.054-.129 1.528.109.475.238.836.655 1.003 1.16 0 0 .021.064.023.069 1.26 3.837 1.121 7.913-.259 11.559h-23.663v-17.828c3.379-3.326 8.096-4.926 12.805-4.337.856.107 1.443.18 1.443.18.645.081 1.181.461 1.484.985z"/><path d="m2 24.638 5.979-5.814 1.186-.402 1.835 1.578-9 9z" fill="#84511a"/><path d="m2 15.044c.808-.705 1.691-1.306 2.628-1.794-.149.847 2.937 3.745 4.872 5.46-.336.336-1.024.401-1.391.768-1.827 1.826-3.998 3.997-6.109 6.108z" fill="#bf7a2c"/><path d="m8.109 19.478c-1.163-.461-2.154-1.302-2.799-2.407-.678-1.165-.911-2.521-.682-3.821 2.408-1.258 5.17-1.775 7.929-1.43.856.107 1.443.18 1.443.18s-.117 1.287-.238 2.616c-.006.064-.012.129-.02.193-.472.547-4.696 4.438-5.633 4.669z" fill="#8ce45f"/><path d="m13.742 14.809c-.206 1.791-1.013 3.462-2.29 4.739l-.452.452-1.433-.159c-.506-.056-.996-.18-1.458-.363l2.701-2.701c.819-.819 1.818-1.491 2.932-1.968z" fill="#4b892a"/><path d="m8.441 30 4.559-4 1.062-.476c.708.333 1.378.523 1.935.476h.003s-.076 1.076-1.385 2.385l-1.615 1.615z" fill="#84511a"/><path d="m2 27 6.335-6.335c.18.651 3.2 3.67 5.727 4.859l-4.476 4.476h-7.586z" fill="#bf7a2c"/><path d="m13.747 25.839c-1.695-.39-3.223-1.378-4.276-2.824-.525-.72-.905-1.517-1.136-2.35l3.095-3.095c1.646-1.646 3.877-2.57 6.204-2.57h1.366s.02.163.055.443c.253 2.019.104 4.04-.409 5.958-.356.733-3.21 3.795-4.899 4.438z" fill="#8ce45f"/><path d="m18.646 21.401c-.231.864-.537 1.707-.913 2.52l-1.733 2.079s-.001 0-.003 0c-.765.064-1.523.007-2.25-.161l2.7-2.7c.665-.665 1.404-1.248 2.199-1.738z" fill="#4b892a"/><path d="m11 30 3.249-3.249c.2.688 2.056 1.197 4.209 2.249l-1.969 1z" fill="#bf7a2c"/><path d="m16.489 30c-.138-.104-.273-.215-.403-.331-.882-.79-1.513-1.804-1.837-2.918l2.913-2.913c1.209-1.209 2.682-2.119 4.304-2.66.317-.106.534-.178.534-.178.989 2.968 1.031 6.1.217 9z" fill="#8ce45f"/><path d="m27.5 2h-2l-4.5 9h2z" fill="#575757"/><path d="m18 11s.379-.19.807-.404c.775-.387 1.402-1.014 1.789-1.789.59-1.178 1.404-2.807 1.404-2.807l4 2s-.814 1.629-1.404 2.807c-.387.775-1.014 1.402-1.789 1.789-.428.214-.807.404-.807.404z" fill="#8ce45f"/></g></svg>