<svg clip-rule="evenodd" fill-rule="evenodd" stroke-linejoin="round" stroke-miterlimit="2" viewBox="0 0 32 32" xmlns="http://www.w3.org/2000/svg" xmlns:xlink="http://www.w3.org/1999/xlink"><clipPath id="a"><path clip-rule="evenodd" d="m0 0h32v32h-32z"/></clipPath><metadata/><path d="m0 0h32v32h-32z" fill="none"/><g clip-path="url(#a)"><path d="m27.434 6.605c.577.593.746 1.508.355 2.289 0 0-.814 1.629-1.404 2.808-.58 1.161-1.522 2.103-2.683 2.683-.428.214-.808.404-.808.404-.563.281-1.225.281-1.788 0l-.224-.112-.007.019c-.103.27-.258.514-.461.718l-.645.645c.579.814.928 1.742 1.048 2.692 1.102-.279 2.274-.29 3.414-.005l1.254.314c.699.174 1.25.712 1.442 1.406.193.695-.003 1.439-.513 1.948l-1.262 1.263c.464.859.713 1.828.713 2.823 0 1.578-.627 3.09-1.742 4.206l-1.295 1.294h-22.828v-19.9l.814-.599c.59-.435 1.227-.778 1.891-1.028.042-.046.085-.091.13-.136.238-.239.494-.494.749-.749 1.739-1.739 4.262-2.438 6.647-1.842l1.254.314c.699.174 1.25.712 1.442 1.406.193.695-.003 1.439-.513 1.948l-1.091 1.091c.183.202.351.415.503.637.107-.023.216-.044.325-.063 1.129-.907 2.503-1.434 3.927-1.527-.051-.177-.078-.362-.078-.552 0-.758.428-1.45 1.106-1.789 0 0 .379-.189.807-.404.387-.193.701-.507.894-.894.59-1.179 1.404-2.807 1.404-2.807.391-.782 1.225-1.196 2.045-1.09l2.008-4.016h6.472z"/><path d="m8 15c.161-.154.389-.225.602-.27.39-.082.795-.094 1.193-.085.15.004.299.011.449.022.052.004.104.009.156.014.007 0 .017-.003.022.002.013.015.018.035.026.052.027.053.052.106.076.16.087.196.159.4.213.609.253.97.122 2.019-.36 2.897-.18.328-.407.625-.669.891l-4.708 5.405-3-.697v-1.414l1-1.904z" fill="#2b123f"/><path d="m2 13.102c2.326-1.698 5.606-1.496 7.706.604.001.001.002.002.002.002.289.289.529.619.714.975l-.043.021c-.663.338-1.263.772-1.792 1.295l-6.587 6.587z" fill="#633a92"/><path d="m12 22.271c.209-.205.458-.365.715-.501.31-.164.635-.297.965-.414 1.039-.372 2.122-.596 3.198-.829.133-.029.263-.057.398-.066.337-.021.68.054.971.23.09.054.174.118.252.189.022.02.043.041.064.062.007.008.018.013.021.022.002.008-.005.015-.008.022-.007.015-.013.03-.02.045-.038.091-.081.181-.126.269-.189.366-.434.697-.722.992l-7.841 6.708-1.867 1h-1.414l-1.586-1.22z" fill="#2b123f"/><path d="m9.294 16.706c.4-.395.848-.736 1.341-1.007 1.286-.707 2.817-.913 4.244-.573.826.197 1.607.572 2.276 1.093.293.228.57.482.807.768.401.485.682 1.064.814 1.678.065.3.094.608.088.914-.008.378-.069.755-.184 1.116-.021.068-.045.136-.07.202-.008.023-.005.055-.026.067-.024.015-.056 0-.085 0-.112 0-.225.002-.338.008-.367.018-.733.065-1.093.14-.901.189-1.762.558-2.519 1.083-.344.239-.664.509-.962.804l-7.001 7.001h-4.586v-6z" fill="#633a92"/><path d="m8 30 6.294-6.294c2.323-2.323 6.089-2.323 8.412 0 .001.001.002.002.002.002.741.741 1.157 1.745 1.157 2.792s-.416 2.051-1.157 2.792l-.708.708z" fill="#633a92"/><path d="m27.5 2h-2l-4.5 9h2z" fill="#575757"/><g fill="#c7be54"><path d="m18 11s.379-.19.807-.404c.775-.387 1.402-1.014 1.789-1.789.59-1.178 1.404-2.807 1.404-2.807l4 2s-.814 1.629-1.404 2.807c-.387.775-1.014 1.402-1.789 1.789-.428.214-.807.404-.807.404z"/><path d="m23.746 20.687c-1.703-.426-3.506.073-4.748 1.315-.255.255-.511.511-.749.749-.69.69-.69 1.808 0 2.498l.002.002c.69.69 1.808.69 2.498 0 1.623-1.623 4.251-4.251 4.251-4.251s-.556-.139-1.254-.313zm-6-7c-1.703-.426-3.506.073-4.748 1.315-.255.255-.511.511-.749.749-.69.69-.69 1.808 0 2.498.001.001.001.001.002.002.69.69 1.808.69 2.498 0 1.623-1.623 4.251-4.251 4.251-4.251s-.556-.139-1.254-.313zm-8-4c-1.703-.426-3.506.073-4.748 1.315-.255.255-.511.511-.749.749-.69.69-.69 1.808 0 2.498.001.001.001.001.002.002.69.69 1.808.69 2.498 0 1.623-1.623 4.251-4.251 4.251-4.251s-.556-.139-1.254-.313z"/></g></g></svg>