<svg clip-rule="evenodd" fill-rule="evenodd" stroke-linejoin="round" stroke-miterlimit="2" viewBox="0 0 32 32" xmlns="http://www.w3.org/2000/svg" xmlns:xlink="http://www.w3.org/1999/xlink"><clipPath id="a"><path clip-rule="evenodd" d="m0 0h32v32h-32z"/></clipPath><metadata/><path d="m0 0h32v32h-32z" fill="none"/><g clip-path="url(#a)"><path d="m24.264 0h6.472l-3.302 6.605c.577.593.746 1.508.355 2.289 0 0-.814 1.629-1.404 2.808-.58 1.161-1.522 2.103-2.683 2.683-.428.214-.808.404-.808.404-.563.281-1.225.281-1.788 0l-.74-.37c.056.355.084.717.084 1.081 0 .147-.004.293-.014.438.096.55.141 1.107.134 1.663l.43-.429 1.415 1.415c1.303 1.303 2.035 3.07 2.035 4.913 0 .147-.004.293-.014.439.443 2.543-.205 5.238-1.94 7.336l-.6.725h-21.896v-17.828l9-9.001 1.415 1.416c1.303 1.303 2.035 3.07 2.035 4.913 0 .147-.004.293-.014.438.096.55.141 1.107.134 1.663l4.43-4.43.063.062c.014-.007.028-.015.043-.022 0 0 .379-.189.807-.404.387-.193.701-.507.894-.894.59-1.179 1.404-2.807 1.404-2.807.391-.782 1.225-1.196 2.045-1.09l2.008-4.016z"/><path d="m2 27 8.5-8.5s7.798-1.344 7.921-2.457c.473 2.258-.167 4.703-1.92 6.456l-7.501 7.501h-7v-3zm20.421-2.957c.429 2.051-.059 4.256-1.466 5.957h-9.955l3.5-3.5s7.798-1.344 7.921-2.457zm-20.421-9.043.5-.5s7.798-1.344 7.921-2.457c.473 2.258-.167 4.703-1.92 6.456l-6.501 6.501z" fill="#43782e"/><path d="m14.5 26.5 6.5-6.5s0 0 .001.001c.928.928 1.449 2.187 1.449 3.499s-.521 2.571-1.449 3.499c-.561.561-1.113 1.113-1.587 1.587-.375.375-.884.586-1.414.586s-1.039-.211-1.414-.586c-.971-.971-2.086-2.086-2.086-2.086zm-4-8 6.5-6.5s0 0 .001.001c.928.928 1.449 2.187 1.449 3.499s-.521 2.571-1.449 3.499c-.561.561-1.113 1.113-1.587 1.587-.375.375-.884.586-1.414.586s-1.039-.211-1.414-.586c-.971-.971-2.086-2.086-2.086-2.086zm-8-4 6.5-6.5s0 0 .001.001c.928.928 1.449 2.187 1.449 3.499s-.521 2.571-1.449 3.499c-.561.561-1.113 1.113-1.587 1.587-.375.375-.884.586-1.414.586s-1.039-.211-1.414-.586c-.971-.971-2.086-2.086-2.086-2.086z" fill="#b3c11c"/><path d="m27.5 2h-2l-4.5 9h2z" fill="#575757"/><path d="m18 11s.379-.19.807-.404c.775-.387 1.402-1.014 1.789-1.789.59-1.178 1.404-2.807 1.404-2.807l4 2s-.814 1.629-1.404 2.807c-.387.775-1.014 1.402-1.789 1.789-.428.214-.807.404-.807.404z" fill="#b3c11c"/></g></svg>