<svg clip-rule="evenodd" fill-rule="evenodd" stroke-linejoin="round" stroke-miterlimit="1.5" viewBox="0 0 32 32" xmlns="http://www.w3.org/2000/svg" xmlns:xlink="http://www.w3.org/1999/xlink"><clipPath id="a"><path clip-rule="evenodd" d="m0 0h32v32h-32z"/></clipPath><clipPath id="b"><path clip-rule="evenodd" d="m2 2h28v28h-28z"/></clipPath><clipPath id="c"><path clip-rule="evenodd" d="m34 12h-.001c-5.097 0-9.96 2.139-13.404 5.897-.724.789-1.449 1.581-2.127 2.32-2.256 2.461-5.222 4.159-8.486 4.858-4.017.861-8.982 1.925-8.982 1.925v10h33z"/></clipPath><metadata/><path d="m0 0h32v32h-32z" fill="none"/><g clip-path="url(#a)"><path d="m32 2c0-.53-.211-1.039-.586-1.414s-.884-.586-1.414-.586h-28c-.53 0-1.039.211-1.414.586s-.586.884-.586 1.414v28c0 .53.211 1.039.586 1.414s.884.586 1.414.586h28c.53 0 1.039-.211 1.414-.586s.586-.884.586-1.414z"/><path d="m2 2h28v28h-28z" fill="none"/><g clip-path="url(#b)"><path d="m30 2h-28v7l1 1h26l1-1z" fill="#409fff"/><path d="m30 12.445-4 6.555h-20l-4-7v-3h28z" fill="#64b0fc"/><path d="m30 17-4 7h-20l-4-7v-3h28z" fill="#37b1a7"/><path d="m-8 12h11.342c3.058 0 6.07.753 8.768 2.192 4.441 2.369 10.89 5.808 10.89 5.808v14h-25z" fill="#16977b"/><path d="m34 12h-.001c-5.097 0-9.96 2.139-13.404 5.897-.724.789-1.449 1.581-2.127 2.32-2.256 2.461-5.222 4.159-8.486 4.858-4.017.861-8.982 1.925-8.982 1.925v10h33z" fill="#65c44f"/><g clip-path="url(#c)"><path d="m10 23s.017.006.05.017c5.785 1.928 10.718 5.812 13.95 10.983" fill="none" stroke="#cfc995" stroke-width="4"/></g><g fill="#0c795f"><path d="m10 11.5c0-.398-.158-.779-.439-1.061-.282-.281-.663-.439-1.061-.439s-.779.158-1.061.439c-.281.282-.439.663-.439 1.061v1c0 .398.158.779.439 1.061.282.281.663.439 1.061.439s.779-.158 1.061-.439c.281-.282.439-.663.439-1.061 0-.327 0-.673 0-1z"/><path d="m8 13h1v2h-1z"/><path d="m14 14.5c0-.398-.158-.779-.439-1.061-.282-.281-.663-.439-1.061-.439s-.779.158-1.061.439c-.281.282-.439.663-.439 1.061v1c0 .398.158.779.439 1.061.282.281.663.439 1.061.439s.779-.158 1.061-.439c.281-.282.439-.663.439-1.061 0-.327 0-.673 0-1z"/><path d="m12 16h1v2h-1z"/><path d="m7 15.5c0-.398-.158-.779-.439-1.061-.282-.281-.663-.439-1.061-.439s-.779.158-1.061.439c-.281.282-.439.663-.439 1.061v1c0 .398.158.779.439 1.061.282.281.663.439 1.061.439s.779-.158 1.061-.439c.281-.282.439-.663.439-1.061 0-.327 0-.673 0-1z"/><path d="m5 17h1v2h-1z"/></g><path d="m31 17.5c0-.663-.263-1.299-.732-1.768s-1.105-.732-1.768-.732-1.299.263-1.768.732-.732 1.105-.732 1.768v1c0 .663.263 1.299.732 1.768s1.105.732 1.768.732 1.299-.263 1.768-.732.732-1.105.732-1.768c0-.331 0-.669 0-1z" fill="#459331"/><path d="m28 20h1v3h-1z" fill="#459331"/></g></g></svg>