<svg clip-rule="evenodd" fill-rule="evenodd" stroke-linejoin="round" stroke-miterlimit="1.41421" viewBox="0 0 32 32" xmlns="http://www.w3.org/2000/svg" xmlns:xlink="http://www.w3.org/1999/xlink"><clipPath id="a"><path clip-rule="evenodd" d="m0 0h32v32h-32z"/></clipPath><metadata/><path d="m0 0h32v32h-32z" fill="none"/><g clip-path="url(#a)"><path d="m16.206 1.001.206.004.205.007.205.009.204.011.203.015.203.016.201.019.202.022.2.024.2.027.199.029.198.032.198.034.197.036.195.039.195.041.195.044.193.046.192.048.192.05.19.053.19.055.188.058.188.059.186.062.186.064.184.066.184.069.182.07.181.073.181.075.179.077.177.079.177.082.176.083.174.085.173.087.172.09.171.091.169.094.169.095.166.097.166.1.164.101.163.103.162.105.16.107.159.108.158.111.156.112.154.115.153.116.152.117.151.12.148.121.148.123.145.125.145.127.142.128.142.13.139.131.138.133.137.135.135.137.133.138.131.139.13.142.128.142.127.145.125.145.123.148.121.148.12.151.117.152.116.153.115.154.112.156.111.158.108.159.107.16.105.162.103.163.101.164.1.166.097.166.095.169.094.169.091.171.09.172.087.173.085.174.084.176.081.177.079.177.077.179.075.181.073.181.07.182.069.184.066.184.064.186.062.186.059.188.058.188.055.19.053.19.05.192.048.192.046.193.044.195.041.195.039.195.036.197.034.198.032.198.029.199.027.2.024.2.022.201.019.202.016.203.015.203.011.204.009.205.007.205.004.206.001.2v.012l-.001.174-.004.18-.005.18-.008.179-.01.178-.013.178-.014.177-.017.177-.019.176-.021.176-.024.174-.025.175-.028.173-.03.173-.031.172-.034.171-.036.171-.038.17-.041.169-.042.168-.044.168-.046.167-.048.165-.051.165-.052.165-.054.163-.056.162-.058.162-.06.16-.062.16-.063.158-.066.158-.067.157-.07.155-.071.155-.073.154-.074.152-.077.152-.078.15-.08.15-.082.148-.083.147-.085.146-.087.145-.089.144-.09.142-.092.142-.093.14-.095.139-.097.138-.098.136-.1.136-.102.134-.103.132-.104.132-.107.13-.107.129-.109.128-.111.126-.112.125-.114.123-.115.122-.117.121-.117.12-.12.117-.121.117-.122.115-.123.114-.125.112-.126.11-.128.11-.129.107-.13.106-.132.105-.132.103-.134.102-.136.1-.136.098-.138.097-.139.095-.14.093-.142.092-.142.09-.144.089-.145.087-.146.085-.147.083-.148.082-.15.08-.15.078-.152.077-.152.074-.154.073-.155.071-.155.07-.157.067-.158.066-.158.063-.16.062-.16.06-.162.058-.162.056-.163.054-.165.052-.165.05-.165.049-.167.046-.168.044-.168.042-.169.041-.17.038-.171.036-.171.034-.172.031-.173.03-.173.028-.175.025-.174.024-.176.021-.176.019-.177.017-.177.014-.178.013-.178.01-.179.008-.18.005-.18.004-.174.001h-4.012l-.174-.001-.18-.004-.18-.005-.179-.008-.178-.01-.178-.013-.177-.014-.177-.017-.176-.019-.176-.021-.174-.024-.175-.025-.173-.028-.173-.03-.172-.031-.171-.034-.171-.036-.17-.038-.169-.041-.168-.042-.168-.044-.167-.046-.165-.049-.165-.05-.165-.052-.163-.054-.162-.056-.162-.058-.16-.06-.16-.062-.158-.063-.158-.066-.157-.067-.155-.07-.155-.071-.154-.073-.152-.074-.152-.077-.15-.078-.15-.08-.148-.082-.147-.083-.146-.085-.145-.087-.144-.089-.142-.09-.142-.092-.14-.093-.139-.095-.138-.097-.136-.098-.136-.1-.134-.102-.133-.103-.131-.105-.13-.106-.129-.107-.128-.11-.126-.11-.125-.112-.123-.114-.122-.115-.121-.117-.12-.117-.117-.12-.117-.121-.115-.122-.114-.123-.112-.125-.111-.126-.109-.128-.107-.129-.107-.13-.104-.132-.103-.132-.102-.134-.1-.136-.098-.136-.097-.138-.095-.139-.093-.14-.092-.142-.09-.142-.089-.144-.087-.145-.085-.146-.083-.147-.082-.148-.08-.15-.078-.15-.077-.152-.074-.152-.073-.154-.071-.155-.07-.155-.067-.157-.066-.158-.063-.158-.062-.16-.06-.16-.058-.162-.056-.162-.054-.163-.052-.165-.05-.165-.049-.165-.046-.167-.044-.168-.042-.168-.041-.169-.038-.17-.036-.171-.034-.171-.031-.172-.03-.173-.028-.173-.025-.175-.024-.174-.021-.176-.019-.176-.017-.177-.014-.177-.013-.178-.01-.178-.008-.179-.005-.18-.004-.18-.001-.174v-.012l.001-.2.004-.206.007-.205.009-.205.011-.204.015-.203.016-.203.019-.201.022-.202.024-.2.027-.2.029-.199.032-.198.034-.198.036-.197.039-.195.041-.195.044-.195.046-.193.048-.192.05-.192.053-.19.055-.19.058-.188.059-.188.062-.186.064-.186.066-.184.069-.184.07-.182.073-.181.075-.181.077-.179.079-.177.081-.177.084-.176.085-.174.087-.173.09-.172.091-.171.094-.169.095-.169.097-.166.1-.166.101-.164.103-.163.105-.162.107-.16.108-.159.111-.158.112-.156.115-.154.116-.153.117-.152.12-.151.121-.148.123-.148.125-.145.127-.145.128-.143.13-.141.131-.139.133-.138.135-.137.137-.135.138-.133.139-.131.141-.13.143-.128.145-.127.145-.125.148-.123.148-.121.151-.12.152-.117.153-.116.154-.115.156-.112.158-.111.159-.108.16-.107.162-.105.163-.103.164-.101.166-.1.166-.097.169-.095.169-.094.171-.091.172-.09.173-.087.174-.085.176-.083.177-.082.177-.079.179-.077.181-.075.181-.073.182-.07.184-.069.184-.066.186-.064.186-.062.188-.059.188-.058.19-.055.19-.053.192-.05.192-.048.193-.046.195-.044.195-.041.195-.039.197-.036.198-.034.198-.032.199-.029.2-.027.2-.024.202-.022.201-.019.203-.016.203-.015.204-.011.205-.009.205-.007.206-.004.2-.001h.012zm-.362 4-.155.003-.154.005-.154.007-.154.008-.152.011-.153.013-.151.014-.151.016-.151.019-.15.02-.149.021-.149.024-.148.026-.147.027-.147.029-.146.031-.145.032-.145.035-.143.036-.144.038-.142.039-.142.041-.141.043-.141.045-.139.046-.139.048-.138.05-.137.051-.137.053-.135.054-.135.056-.134.058-.134.059-.132.061-.131.062-.131.064-.13.066-.129.067-.128.068-.127.07-.126.072-.125.073-.124.074-.123.076-.122.077-.122.079-.12.08-.119.082-.118.083-.117.084-.117.086-.115.087-.114.089-.112.089-.112.092-.111.092-.109.094-.109.095-.107.096-.106.098-.105.098-.104.1-.102.102-.102.102-.1.104-.098.105-.098.106-.096.107-.095.109-.094.109-.092.111-.092.112-.089.112-.089.114-.087.115-.086.117-.084.117-.083.118-.082.119-.08.12-.079.122-.077.122-.076.123-.074.124-.073.125-.072.126-.07.127-.068.128-.067.129-.066.13-.064.131-.062.131-.061.132-.059.134-.058.134-.056.135-.054.135-.053.137-.051.137-.05.138-.048.139-.046.139-.045.141-.043.141-.041.142-.039.142-.038.144-.036.143-.035.145-.032.145-.031.146-.029.147-.027.147-.026.148-.024.149-.021.149-.02.15-.019.151-.016.151-.014.151-.013.153-.011.152-.008.154-.007.154-.005.154-.003.155-.001.156.001.13.002.129.004.129.006.128.007.128.009.128.011.126.012.127.013.126.015.125.017.125.018.124.02.124.021.124.023.122.024.122.026.122.027.121.029.121.03.12.031.119.033.119.035.118.035.117.037.117.039.117.04.115.041.115.043.115.044.113.045.113.047.113.048.112.049.111.051.11.052.109.053.109.055.108.056.108.057.106.058.106.06.105.061.104.062.104.063.102.064.102.066.102.067.1.068.099.069.099.07.097.072.097.072.096.074.095.075.094.076.093.077.092.078.092.079.09.08.089.082.089.082.087.084.087.084.085.085.084.087.084.087.082.089.082.089.08.09.079.092.078.092.077.093.076.094.075.095.074.096.072.097.072.097.07.099.069.099.068.1.067.102.066.101.064.103.063.104.062.104.061.105.06.106.058.106.057.108.056.108.055.109.053.109.052.11.051.111.049.112.048.112.047.114.045.113.044.115.043.115.041.115.04.117.039.117.037.117.035.118.035.119.033.119.031.12.03.121.029.121.027.122.026.122.024.122.023.124.021.124.02.124.018.125.017.125.015.126.013.127.012.126.011.128.009.128.007.128.006.129.004.129.002.136.001h3.988l.136-.001.129-.002.129-.004.128-.006.128-.007.128-.009.126-.011.127-.012.126-.013.125-.015.125-.017.124-.018.124-.02.124-.021.122-.023.122-.024.122-.026.121-.027.121-.029.12-.03.119-.031.119-.033.118-.035.117-.035.117-.037.117-.039.115-.04.115-.041.115-.043.113-.044.114-.045.112-.047.112-.048.111-.049.11-.051.109-.052.109-.053.108-.055.108-.056.106-.057.106-.058.105-.06.104-.06.104-.063.103-.063.101-.064.102-.066.1-.067.099-.068.099-.069.097-.07.097-.072.096-.072.095-.074.094-.075.093-.076.092-.077.092-.078.09-.079.089-.08.089-.082.087-.082.087-.084.085-.084.084-.085.084-.087.082-.087.082-.089.08-.089.079-.09.078-.092.077-.092.076-.093.075-.094.074-.095.072-.096.072-.097.07-.097.069-.099.068-.099.067-.101.066-.101.064-.101.063-.103.062-.104.061-.104.06-.105.058-.106.057-.106.056-.108.055-.108.053-.109.052-.109.051-.111.049-.11.048-.112.047-.113.045-.113.044-.113.043-.115.041-.115.04-.115.039-.117.037-.117.035-.117.035-.118.033-.119.031-.119.03-.12.029-.121.027-.121.026-.122.024-.122.023-.122.021-.124.02-.124.018-.124.017-.125.015-.125.013-.126.012-.127.011-.126.009-.128.007-.128.006-.128.004-.129.002-.129.001-.13-.001-.156-.003-.155-.005-.154-.007-.154-.008-.154-.011-.152-.013-.153-.014-.151-.016-.151-.019-.151-.02-.15-.021-.149-.024-.149-.026-.148-.027-.147-.029-.147-.031-.146-.032-.145-.035-.145-.036-.144-.038-.143-.039-.142-.041-.142-.043-.141-.045-.141-.046-.139-.048-.139-.05-.138-.051-.137-.053-.137-.054-.135-.056-.135-.058-.134-.059-.134-.061-.132-.062-.131-.064-.131-.066-.13-.067-.129-.068-.127-.07-.128-.072-.126-.073-.125-.074-.124-.076-.123-.077-.122-.079-.122-.08-.12-.082-.119-.083-.118-.084-.118-.086-.116-.087-.115-.089-.114-.089-.113-.091-.111-.093-.111-.094-.109-.095-.109-.096-.107-.098-.106-.098-.105-.1-.104-.102-.102-.102-.102-.104-.1-.105-.098-.106-.098-.107-.096-.109-.095-.109-.094-.111-.093-.112-.091-.112-.089-.114-.089-.115-.087-.117-.086-.117-.084-.118-.083-.119-.082-.12-.08-.122-.079-.122-.077-.123-.076-.124-.074-.125-.073-.126-.072-.127-.07-.128-.068-.129-.067-.13-.066-.131-.064-.131-.062-.132-.061-.134-.059-.134-.058-.135-.056-.135-.054-.137-.053-.137-.051-.138-.05-.139-.048-.139-.046-.141-.045-.141-.043-.142-.041-.142-.039-.144-.038-.143-.036-.145-.035-.145-.032-.146-.031-.147-.029-.147-.027-.148-.026-.149-.024-.149-.021-.15-.02-.151-.019-.151-.016-.151-.014-.153-.013-.152-.011-.154-.008-.154-.007-.154-.005-.155-.003-.156-.001-.156.001z"/><path d="m29.798 19.202c-1.033 5.575-5.923 9.798-11.798 9.798-1.325 0-2.675 0-4 0-6.627 0-12-5.373-12-12 0-7.732 6.268-14 14-14 5.503 0 10.265 3.175 12.552 7.793-.182-.024 1.246 8.409 1.246 8.409z" fill="#77b84c"/><path d="m29.798 19.202-4.798 4.798-6-3h-3s5.446-5.446 9-9c.796-.796 1.875-1.243 3-1.243.186 0 .37.012.552.036.927 1.871 1.448 3.978 1.448 6.207 0 .752-.069 1.488-.202 2.202z" fill="#519424"/><path d="m24.448 14.106c.494.247.694.847.447 1.34 0 .001-.001.002-.001.002-.247.494-.847.694-1.34.447-1.088-.544-2.914-1.457-4.002-2.001-.494-.247-.694-.847-.447-1.34 0-.001 0-.001.001-.001.118-.237.326-.418.578-.502.251-.084.526-.064.763.055 1.088.544 2.914 1.456 4.001 2z" fill-rule="nonzero"/><path d="m12.896 12.556c.245.495.043 1.095-.452 1.34-1.088.539-2.912 1.444-4 1.983-.495.246-1.095.043-1.34-.451 0-.001 0-.001 0-.001-.245-.495-.043-1.094.451-1.339 1.088-.54 2.914-1.445 4.002-1.984.494-.245 1.093-.043 1.338.451.001 0 .001 0 .001.001z" fill-rule="nonzero"/><path d="m19 21s4.941-4.941 7.501-7.501c.828-.828 2.17-.828 2.998 0 .001.001.001.001.002.002.828.828.828 2.17 0 2.998-2.316 2.316-6.501 6.501-6.501 6.501z" fill="#fff"/><path d="m25 16 2 2-4 4-3-1z" fill="#d92020"/><path d="m28.051 12.879.051.002.05.003.051.004.051.005.05.007.051.008.05.009.05.01.05.012.049.013.05.013.049.016.048.016.049.018.048.018.047.02.048.022.047.022.046.024.046.025.045.026.045.027.044.028.044.03.043.031.043.032.042.034.041.034.041.036.04.037.041.04.038.039.037.04.036.041.034.041.034.042.032.043.031.043.03.044.028.044.027.045.026.045.025.046.024.046.022.047.022.048.02.047.018.048.018.049.016.048.016.049.013.05.013.049.012.05.01.05.009.05.008.051.007.05.005.051.004.051.003.05.002.051.001.051-.001.051-.002.051-.003.05-.004.051-.005.051-.007.05-.008.051-.009.05-.01.05-.012.05-.013.049-.013.05-.016.049-.016.048-.018.049-.018.048-.02.047-.022.048-.022.047-.024.046-.025.046-.026.045-.027.045-.028.044-.03.044-.031.043-.032.043-.034.042-.034.041-.036.041-.037.04-.038.039-6.501 6.501-4-2 7.501-7.501.039-.038.04-.037.041-.036.041-.034.042-.034.043-.032.043-.031.044-.03.044-.028.045-.027.045-.026.046-.025.046-.024.047-.022.048-.022.047-.02.048-.018.049-.018.048-.016.049-.016.05-.013.049-.013.05-.012.05-.01.05-.009.051-.008.05-.007.051-.005.051-.004.05-.003.051-.002.051-.001.051.001zm-.078 1h-.027l-.027.002-.027.002-.027.003-.027.004-.026.004-.027.005-.026.005-.027.006-.026.007-.026.007-.026.008-.025.009-.026.009-.025.01-.025.011-.025.011-.024.012-.025.012-.024.013-.024.014-.023.014-.023.015-.023.016-.023.016-.023.017-.022.018-.022.018-.022.019-.021.02-.025.025-6.516 6.515 2.115 1.057 5.986-5.987.025-.025.02-.022.019-.021.018-.022.018-.022.017-.023.016-.022.016-.024.015-.023.014-.023.014-.024.013-.024.012-.025.012-.024.011-.025.011-.025.01-.025.009-.026.009-.025.008-.026.007-.026.007-.026.006-.027.005-.026.005-.027.004-.027.004-.026.003-.027.002-.027.002-.027v-.027l.001-.027-.001-.027v-.027l-.002-.027-.002-.027-.003-.027-.004-.026-.004-.027-.005-.027-.005-.026-.006-.027-.007-.026-.007-.026-.008-.026-.009-.025-.009-.026-.01-.025-.011-.025-.011-.025-.012-.024-.012-.025-.013-.024-.014-.024-.014-.023-.015-.023-.016-.024-.016-.022-.017-.023-.018-.022-.018-.022-.019-.021-.02-.022-.021-.022-.022-.021-.021-.02-.022-.019-.022-.018-.022-.018-.023-.017-.023-.016-.023-.016-.023-.015-.023-.014-.024-.014-.024-.013-.025-.012-.024-.012-.025-.011-.025-.011-.025-.01-.026-.009-.025-.009-.026-.008-.026-.007-.026-.007-.027-.006-.026-.005-.027-.005-.026-.004-.027-.004-.027-.003-.027-.002-.027-.002h-.027l-.027-.001-.027.001z" fill="#fff"/><path d="m18.464 20.001.116.002.116.005.116.005.116.008.116.009.115.011.115.013.115.014.115.016.114.018.114.019.114.021.114.022.113.024.113.026.112.027.112.029.111.031.112.032.11.034.11.036.11.037.109.038.109.041.108.041.108.044.107.045.106.046.106.049.105.049.101.05 3.525 1.763.06.032.058.037.055.04.052.044.049.048.046.051.042.054.038.056.034.059.03.061.026.064.022.064.017.066.013.068.008.067.003.069-.001.068-.006.068-.011.067-.015.067-.02.065-.024.064-.029.062-.032.06-.037.058-.04.055-.044.052-.048.049-.051.046-.054.042-.056.038-.059.034-.061.03-.064.026-.064.022-.066.017-.068.013-.067.008-.069.003-.068-.001-.068-.006-.067-.011-.067-.015-.065-.02-.064-.024-.062-.029-3.519-1.759-.082-.04-.078-.037-.08-.036-.079-.035-.081-.034-.08-.033-.081-.031-.082-.03-.082-.029-.082-.028-.083-.027-.083-.025-.083-.024-.084-.023-.084-.022-.084-.02-.084-.02-.085-.018-.085-.017-.086-.015-.085-.015-.086-.013-.086-.012-.086-.011-.087-.009-.086-.008-.087-.007-.087-.006-.087-.004-.087-.003-.087-.002-.091-.001h-5.344l-.068-.002-.068-.007-.067-.012-.067-.016-.065-.021-.063-.025-.062-.029-.06-.034-.057-.037-.054-.041-.052-.045-.048-.048-.045-.052-.041-.054-.037-.057-.034-.06-.029-.062-.025-.063-.021-.065-.016-.067-.012-.067-.007-.068-.002-.068.002-.068.007-.068.012-.067.016-.067.021-.065.025-.063.029-.062.034-.06.037-.057.041-.054.045-.052.048-.048.052-.045.054-.041.057-.037.06-.034.062-.029.063-.025.065-.021.067-.016.067-.012.068-.007.068-.002h5.351z" fill="#23480a"/></g></svg>