<svg clip-rule="evenodd" fill-rule="evenodd" stroke-linejoin="round" stroke-miterlimit="1.41421" viewBox="0 0 32 32" xmlns="http://www.w3.org/2000/svg" xmlns:xlink="http://www.w3.org/1999/xlink"><clipPath id="a"><path clip-rule="evenodd" d="m0 0h32v32h-32z"/></clipPath><metadata/><path d="m0 0h32v32h-32z" fill="none"/><g clip-path="url(#a)"><path d="m24.099.001.1.001.099.003.099.005.098.005.099.007.098.008.099.009.098.01.097.012.098.013.097.014.097.015.097.016.097.017.096.019.096.02.096.021.095.022.095.023.095.025.094.025.094.027.094.028.093.029.093.03.092.031.092.032.092.034.091.034.091.036.09.037.09.038.09.039.089.04.088.041.088.042.088.044.087.044.086.045.086.047.085.047.085.049.084.05.084.051.083.051.083.053.081.054.082.055.08.056.08.057.08.058.078.059.078.06.078.061.076.062.076.063.075.064.075.065.074.066.072.067.073.067.071.069.071.07.07.071.069.071.067.073.067.072.066.074.065.075.064.075.063.076.062.077.061.077.06.078.059.078.058.08.057.08.056.08.055.082.054.081.053.083.051.083.051.084.05.084.049.085.047.085.047.086.045.086.044.087.044.088.042.088.041.088.04.089.039.09.038.089.037.091.036.091.034.091.034.092.032.092.031.092.03.093.029.093.028.094.027.094.025.094.025.095.023.095.022.095.021.096.02.096.019.096.017.097.016.097.015.097.014.097.013.098.012.097.01.098.009.099.008.098.007.098.005.099.005.099.003.099.001.1.001.093v16.012l-.001.093-.001.1-.003.099-.005.099-.005.099-.007.098-.008.098-.009.099-.01.098-.012.097-.013.098-.014.097-.015.097-.016.097-.017.097-.019.096-.02.096-.021.096-.022.095-.023.095-.025.095-.025.094-.027.094-.028.094-.029.093-.03.093-.031.092-.032.092-.034.092-.034.091-.036.091-.037.091-.038.089-.039.09-.04.089-.041.088-.042.088-.044.088-.044.087-.045.086-.047.086-.047.085-.049.085-.05.084-.051.084-.051.083-.053.083-.054.081-.055.082-.056.08-.057.08-.058.08-.059.078-.06.078-.061.077-.062.077-.063.076-.064.075-.065.075-.066.073-.067.073-.067.073-.069.071-.07.071-.071.07-.071.069-.073.068-.072.066-.074.066-.075.065-.075.064-.076.063-.076.062-.078.061-.078.06-.078.059-.08.058-.08.057-.08.056-.082.055-.081.054-.083.053-.083.051-.084.051-.084.05-.085.049-.085.047-.086.047-.086.045-.087.044-.088.044-.088.042-.088.041-.089.04-.09.039-.089.038-.091.037-.091.036-.091.034-.092.034-.092.032-.092.031-.093.03-.093.029-.094.028-.094.027-.094.025-.095.025-.095.023-.095.022-.096.021-.096.02-.096.019-.097.017-.097.016-.097.015-.097.014-.098.013-.097.012-.098.01-.099.009-.098.008-.099.007-.098.005-.099.005-.099.003-.1.001-.093.001h-16.012l-.093-.001-.1-.001-.099-.003-.099-.005-.098-.005-.099-.007-.098-.008-.099-.009-.098-.01-.097-.012-.098-.013-.097-.014-.097-.015-.097-.016-.097-.017-.096-.019-.096-.02-.096-.021-.095-.022-.095-.023-.095-.025-.094-.025-.094-.027-.094-.028-.093-.029-.093-.03-.092-.031-.092-.032-.092-.034-.091-.034-.091-.036-.091-.037-.089-.038-.09-.039-.089-.04-.088-.041-.088-.042-.088-.044-.087-.044-.086-.045-.086-.047-.085-.047-.085-.049-.084-.05-.084-.051-.083-.051-.083-.053-.081-.054-.082-.055-.08-.056-.08-.057-.08-.058-.078-.059-.078-.06-.078-.061-.076-.062-.076-.063-.075-.064-.075-.065-.073-.066-.073-.067-.073-.067-.071-.069-.071-.07-.07-.071-.069-.071-.067-.073-.067-.073-.066-.073-.065-.075-.064-.075-.063-.076-.062-.076-.061-.078-.06-.078-.059-.079-.058-.079-.057-.08-.056-.08-.055-.082-.054-.081-.053-.083-.051-.083-.051-.084-.05-.084-.049-.085-.047-.085-.047-.086-.045-.086-.044-.087-.044-.088-.042-.088-.041-.088-.04-.089-.039-.09-.038-.09-.037-.09-.036-.091-.034-.091-.034-.092-.032-.092-.031-.092-.03-.093-.029-.093-.028-.094-.027-.094-.025-.094-.025-.095-.023-.095-.022-.095-.021-.096-.02-.096-.019-.096-.017-.097-.016-.097-.015-.097-.014-.097-.013-.098-.012-.097-.01-.098-.009-.099-.008-.098-.007-.099-.005-.098-.005-.099-.003-.099-.001-.1-.001-.093v-16.012l.001-.093.001-.1.003-.099.005-.099.005-.098.007-.099.008-.098.009-.099.01-.098.012-.097.013-.098.014-.097.015-.097.016-.097.017-.097.019-.096.02-.096.021-.096.022-.095.023-.095.025-.095.025-.094.027-.094.028-.094.029-.093.03-.093.031-.092.032-.092.034-.092.034-.091.036-.091.037-.09.038-.09.039-.09.04-.089.041-.088.042-.088.044-.088.044-.087.045-.086.047-.086.047-.085.049-.085.05-.084.051-.084.051-.083.053-.083.054-.081.055-.082.056-.08.057-.08.058-.079.059-.079.06-.078.061-.078.062-.076.063-.076.064-.075.065-.075.066-.074.066-.072.068-.073.069-.071.07-.071.071-.07.071-.069.072-.067.074-.067.073-.066.075-.065.075-.064.076-.063.076-.062.078-.061.078-.06.078-.059.08-.058.08-.057.08-.056.082-.055.081-.054.083-.053.083-.051.084-.051.084-.05.085-.049.085-.047.086-.047.086-.045.087-.044.088-.044.088-.042.088-.041.089-.04.09-.039.09-.038.09-.037.091-.036.091-.034.092-.034.092-.032.092-.031.093-.03.093-.029.094-.028.094-.027.094-.025.095-.025.095-.023.095-.022.096-.021.096-.02.096-.019.097-.017.097-.016.097-.015.097-.014.098-.013.097-.012.098-.01.099-.009.098-.008.099-.007.098-.005.099-.005.099-.003.1-.001.093-.001h16.012l.093.001zm-16.093 3.999h-.056l-.049.001-.05.002-.049.002-.05.003-.049.003-.049.004-.049.005-.049.005-.049.006-.049.006-.049.007-.048.007-.049.009-.048.008-.048.01-.048.009-.048.011-.047.011-.048.012-.047.012-.047.013-.047.013-.047.014-.047.014-.046.015-.047.016-.046.016-.046.017-.045.017-.045.018-.046.019-.045.018-.044.02-.045.02-.044.021-.044.021-.044.021-.043.023-.044.022-.043.024-.042.023-.043.025-.042.025-.042.025-.041.026-.041.026-.041.027-.041.028-.04.027-.04.029-.04.029-.039.029-.039.03-.039.031-.038.031-.038.031-.037.032-.038.033-.037.033-.036.033-.036.034-.036.035-.035.035-.035.035-.035.036-.034.036-.033.036-.033.037-.033.037-.032.038-.031.038-.031.038-.031.039-.03.039-.029.039-.029.04-.029.04-.027.04-.028.041-.027.041-.026.041-.026.041-.026.042-.024.042-.025.043-.023.042-.024.043-.022.044-.023.043-.021.044-.021.044-.021.044-.02.045-.02.044-.018.045-.019.045-.018.046-.017.046-.017.045-.016.046-.016.047-.015.046-.014.047-.014.047-.013.047-.013.047-.012.047-.012.048-.011.047-.011.048-.009.048-.01.048-.008.048-.009.049-.007.048-.007.049-.006.049-.006.049-.005.049-.005.049-.004.049-.003.049-.003.05-.002.049-.002.05-.001.049v.056 15.988.056l.001.049.002.05.002.049.003.05.003.049.004.049.005.049.005.049.006.049.006.049.007.049.007.048.009.049.008.048.01.048.009.048.011.048.011.047.012.048.012.047.013.047.013.047.014.047.014.047.015.046.016.047.016.046.017.045.017.046.018.046.019.045.018.045.02.044.02.045.021.044.021.044.021.044.023.043.022.044.024.043.023.042.025.043.024.042.026.042.026.041.026.041.027.041.028.041.027.04.029.04.029.04.029.039.03.039.031.039.031.038.031.038.032.038.033.037.033.037.033.036.034.036.035.036.035.035.035.035.036.035.036.034.036.033.037.033.038.033.037.032.038.031.038.031.039.031.039.03.039.029.04.029.04.029.04.027.041.028.041.027.041.026.041.026.042.026.042.024.043.025.042.023.043.024.044.022.043.023.044.021.044.021.044.021.045.02.044.02.045.019.045.018.046.018.046.017.045.017.046.016.047.016.046.015.047.014.047.014.047.013.047.013.047.012.048.012.047.011.048.011.048.009.048.01.048.008.049.009.048.007.049.007.049.006.049.006.049.005.049.005.049.004.049.003.05.003.049.002.05.002.049.001h.056 15.988.056l.049-.001.05-.002.049-.002.05-.003.049-.003.049-.004.049-.005.049-.005.049-.006.049-.006.049-.007.048-.007.049-.009.048-.008.048-.01.048-.009.048-.011.047-.011.048-.012.047-.012.047-.013.047-.013.047-.014.047-.014.046-.015.047-.016.046-.016.045-.017.046-.017.046-.018.045-.018.045-.019.044-.02.045-.02.044-.021.044-.021.044-.021.043-.023.044-.022.043-.024.042-.023.043-.025.042-.025.042-.025.041-.026.041-.026.041-.027.041-.028.04-.027.04-.029.04-.029.039-.029.039-.03.039-.031.038-.031.038-.031.038-.032.037-.033.037-.033.036-.033.036-.034.036-.035.035-.035.035-.035.035-.036.034-.036.033-.036.033-.037.033-.038.032-.037.031-.038.031-.038.031-.039.03-.039.029-.039.029-.04.028-.04.028-.04.028-.041.027-.041.026-.041.026-.041.026-.042.024-.042.025-.043.023-.042.024-.044.022-.043.023-.043.021-.044.021-.044.021-.044.02-.045.019-.044.02-.045.018-.046.018-.045.017-.045.017-.046.016-.046.016-.047.015-.046.014-.047.014-.046.013-.048.013-.047.012-.047.012-.048.011-.047.011-.048.009-.048.01-.048.008-.048.009-.049.007-.048.007-.049.006-.049.006-.049.005-.049.005-.049.004-.049.003-.049.003-.049.002-.05.002-.05.001-.049v-.056-15.988-.056l-.001-.049-.002-.05-.002-.05-.003-.049-.003-.049-.004-.049-.005-.049-.005-.049-.006-.049-.006-.049-.007-.049-.007-.048-.009-.049-.008-.048-.01-.048-.009-.048-.011-.048-.011-.047-.012-.048-.012-.047-.013-.047-.013-.048-.014-.046-.014-.047-.015-.046-.016-.047-.016-.046-.017-.046-.017-.045-.018-.045-.018-.046-.02-.045-.019-.044-.02-.045-.021-.044-.021-.044-.021-.044-.023-.043-.022-.043-.024-.044-.023-.042-.025-.043-.024-.042-.026-.042-.026-.041-.026-.041-.027-.041-.028-.041-.028-.04-.028-.04-.029-.04-.029-.039-.03-.039-.031-.039-.031-.038-.031-.038-.032-.037-.033-.038-.033-.037-.033-.036-.034-.036-.035-.036-.035-.035-.035-.035-.036-.035-.036-.034-.036-.033-.037-.033-.037-.033-.038-.032-.038-.031-.038-.031-.039-.031-.039-.03-.039-.029-.04-.029-.04-.029-.04-.027-.041-.028-.041-.027-.041-.026-.041-.026-.042-.025-.042-.025-.043-.025-.042-.023-.043-.024-.044-.022-.043-.023-.044-.021-.044-.021-.044-.021-.045-.02-.044-.02-.045-.018-.046-.019-.045-.018-.046-.017-.045-.017-.046-.016-.047-.016-.046-.015-.047-.014-.047-.014-.047-.013-.047-.013-.047-.012-.048-.012-.047-.011-.048-.011-.048-.009-.048-.01-.048-.008-.049-.009-.048-.007-.049-.007-.049-.006-.049-.006-.049-.005-.049-.005-.049-.004-.049-.003-.05-.003-.049-.002-.05-.002-.049-.001h-.056-15.988z"/><path d="m30 8c0-1.591-.632-3.117-1.757-4.243-1.126-1.125-2.652-1.757-4.243-1.757-4.724 0-11.276 0-16 0-1.591 0-3.117.632-4.243 1.757-1.125 1.126-1.757 2.652-1.757 4.243v16c0 1.591.632 3.117 1.757 4.243 1.126 1.125 2.652 1.757 4.243 1.757h16c1.591 0 3.117-.632 4.243-1.757 1.125-1.126 1.757-2.652 1.757-4.243 0-4.724 0-11.276 0-16z" fill="#ae60e5"/><g fill="#fff" fill-rule="nonzero"><path d="m15.109 9.241v13.518h-2.567l-4.976-8.444v8.444h-2.566v-13.518h2.566l4.976 8.463v-8.463z"/><path d="m25.119 15.804c.614.274 1.081.673 1.401 1.195.32.523.48 1.149.48 1.881 0 1.227-.366 2.181-1.097 2.86s-1.75 1.019-3.056 1.019h-5.427v-13.518h5.211c1.319 0 2.348.327 3.086.98s1.107 1.58 1.107 2.782c0 .6-.151 1.152-.451 1.655s-.718.885-1.254 1.146zm-5.132-4.329v3.291h2.448c.588 0 1.035-.141 1.342-.421.307-.281.461-.676.461-1.186 0-.548-.154-.966-.461-1.253-.307-.288-.754-.431-1.342-.431zm2.605 9.05c.614 0 1.074-.16 1.381-.48s.461-.767.461-1.342c0-.535-.154-.953-.461-1.253-.307-.301-.767-.451-1.381-.451h-2.605v3.526z"/></g></g></svg>