<svg clip-rule="evenodd" fill-rule="evenodd" stroke-linecap="round" stroke-miterlimit="1.5" viewBox="0 0 32 32" xmlns="http://www.w3.org/2000/svg" xmlns:xlink="http://www.w3.org/1999/xlink"><clipPath id="a"><path clip-rule="evenodd" d="m0 0h32v32h-32z"/></clipPath><metadata/><path d="m0 0h32v32h-32z" fill="none"/><g clip-path="url(#a)"><path d="m16 0c4.243 0 8.313 1.686 11.314 4.686 3 3.001 4.686 7.071 4.686 11.314v2c0 7.732-6.268 14-14 14-1.325 0-2.675 0-4 0-7.732 0-14-6.268-14-14v-2c0-8.837 7.163-16 16-16z"/><path d="m30 16c0-3.713-1.475-7.274-4.101-9.899-2.625-2.626-6.186-4.101-9.899-4.101-7.732 0-14 6.268-14 14v2c0 6.627 5.373 12 12 12h4c6.627 0 12-5.373 12-12z" fill="#fbc546"/><path d="m12 9c.53 0 1.039.211 1.414.586s.586.884.586 1.414v2.757c0 .796-.316 1.559-.879 2.122-.391.391-.851.851-1.242 1.242-.563.563-1.326.879-2.122.879h-2.757c-1.061 0-2.078-.421-2.828-1.172-.751-.75-1.172-1.767-1.172-2.828 0-1.476 0-3.024 0-4 0-.552.448-1 1-1zm16 0c.552 0 1 .448 1 1v4c0 1.061-.421 2.078-1.172 2.828-.75.751-1.767 1.172-2.828 1.172h-2.757c-.796 0-1.559-.316-2.122-.879-.391-.391-.851-.851-1.242-1.242-.563-.563-.879-1.326-.879-2.122 0-.795 0-1.846 0-2.757 0-.53.211-1.039.586-1.414s.884-.586 1.414-.586z" fill="#fff"/><path d="m11 22c1.281 1.281 3.017 2 4.828 2h.344c1.811 0 3.547-.719 4.828-2" fill="none" stroke="#593604" stroke-width="2"/><path d="m11 12.5c0-.398-.158-.779-.439-1.061-.282-.281-.663-.439-1.061-.439s-.779.158-1.061.439c-.281.282-.439.663-.439 1.061v2c0 .398.158.779.439 1.061.282.281.663.439 1.061.439s.779-.158 1.061-.439c.281-.282.439-.663.439-1.061z"/><path d="m24 12.5c0-.398-.158-.779-.439-1.061-.282-.281-.663-.439-1.061-.439s-.779.158-1.061.439c-.281.282-.439.663-.439 1.061v2c0 .398.158.779.439 1.061.282.281.663.439 1.061.439s.779-.158 1.061-.439c.281-.282.439-.663.439-1.061z"/><path d="m14.993 14c-.059.972-.472 1.893-1.165 2.586-.391.391-.851.851-1.242 1.242-.75.751-1.768 1.172-2.829 1.172h-2.757c-1.326 0-2.598-.527-3.536-1.464-.937-.938-1.464-2.21-1.464-3.536 0-1.476 0-3.024 0-4 0-1.105.895-2 2-2h8c.796 0 1.559.316 2.121.879.32.319.56.703.707 1.121h2.344c.147-.418.387-.802.707-1.121.562-.563 1.325-.879 2.121-.879h8c1.105 0 2 .895 2 2v4c0 1.326-.527 2.598-1.464 3.536-.938.937-2.21 1.464-3.536 1.464h-2.757c-1.061 0-2.079-.421-2.829-1.172-.391-.391-.851-.851-1.242-1.242-.693-.693-1.106-1.614-1.165-2.586zm-10.993 0c0 .796.316 1.559.879 2.121.562.563 1.325.879 2.121.879h2.757c.531 0 1.039-.211 1.415-.586l1.242-1.242c.375-.376.586-.884.586-1.415 0-.795 0-1.846 0-2.757 0-.265-.105-.52-.293-.707-.187-.188-.442-.293-.707-.293h-8zm24-4h-8c-.265 0-.52.105-.707.293-.188.187-.293.442-.293.707v2.757c0 .531.211 1.039.586 1.415.391.391.851.851 1.242 1.242.376.375.884.586 1.415.586h2.757c.796 0 1.559-.316 2.121-.879.563-.562.879-1.325.879-2.121z"/></g></svg>