<svg clip-rule="evenodd" fill-rule="evenodd" stroke-linejoin="round" stroke-miterlimit="2" viewBox="0 0 32 32" xmlns="http://www.w3.org/2000/svg" xmlns:xlink="http://www.w3.org/1999/xlink"><clipPath id="a"><path clip-rule="evenodd" d="m0 0h32v32h-32z"/></clipPath><clipPath id="b"><path clip-rule="nonzero" d="m2 15h.179c.256-1.361.792-2.68 1.627-3.841 1.239-1.724 3.061-2.659 4.868-2.659 1.841 0 3.626.979 4.868 2.656.75 1.015 1.615 2.184 2.458 3.323v.001-.001c.843-1.139 1.708-2.308 2.458-3.323 1.242-1.677 3.027-2.656 4.868-2.656 1.807 0 3.629.935 4.868 2.659.835 1.161 1.371 2.48 1.627 3.841h.179v2c.014 2.042-.565 4.115-1.806 5.841-1.239 1.724-3.061 2.659-4.868 2.659-1.841 0-3.626-.979-4.868-2.656-.75-1.015-1.615-2.184-2.458-3.323v-.001.001c-.843 1.139-1.708 2.308-2.458 3.323-1.242 1.677-3.027 2.656-4.868 2.656-1.807 0-3.629-.935-4.868-2.659-1.241-1.726-1.82-3.799-1.806-5.841v-2zm15.866 2 3.004 4.059c.78 1.054 1.646 1.441 2.456 1.441.809 0 1.71-.429 2.454-1.441.835-1.137 1.227-2.607 1.224-4.059v-.034c-.003-1.441-.395-2.897-1.224-4.025-.744-1.012-1.645-1.441-2.454-1.441-.81 0-1.676.387-2.456 1.441zm-9.192-5.5c-.809 0-1.71.429-2.454 1.441-.829 1.128-1.221 2.584-1.224 4.025v.034c-.003 1.452.389 2.922 1.224 4.059.744 1.012 1.645 1.441 2.454 1.441h.019c.804-.006 1.663-.395 2.437-1.441l3.004-4.059-3.004-4.059c-.774-1.046-1.633-1.435-2.437-1.441z"/></clipPath><clipPath id="c"><path clip-rule="nonzero" d="m16 12.48v-.001c.843-1.139 1.708-2.308 2.458-3.323 1.242-1.677 3.027-2.656 4.868-2.656 1.807 0 3.629.935 4.868 2.659 1.231 1.712 1.811 3.767 1.806 5.793v.048c.014 2.042-.565 4.115-1.806 5.841-1.239 1.724-3.061 2.659-4.868 2.659-1.841 0-3.626-.979-4.868-2.656-.75-1.015-1.615-2.184-2.458-3.323v-.001.001c-.843 1.139-1.708 2.308-2.458 3.323-1.242 1.677-3.027 2.656-4.868 2.656-1.807 0-3.629-.935-4.868-2.659-1.241-1.726-1.82-3.799-1.806-5.841v-.048c-.005-2.026.575-4.081 1.806-5.793 1.239-1.724 3.061-2.659 4.868-2.659 1.841 0 3.626.979 4.868 2.656.75 1.015 1.615 2.184 2.458 3.323zm1.866 2.52 3.004 4.059c.78 1.054 1.646 1.441 2.456 1.441.809 0 1.71-.429 2.454-1.441.835-1.137 1.227-2.607 1.224-4.059v-.034c-.003-1.441-.395-2.897-1.224-4.025-.744-1.012-1.645-1.441-2.454-1.441-.81 0-1.676.387-2.456 1.441zm-9.192-5.5c-.809 0-1.71.429-2.454 1.441-.829 1.128-1.221 2.584-1.224 4.025v.034c-.003 1.452.389 2.922 1.224 4.059.744 1.012 1.645 1.441 2.454 1.441h.019c.804-.006 1.663-.395 2.437-1.441l3.004-4.059-3.004-4.059c-.774-1.046-1.633-1.435-2.437-1.441z"/></clipPath><metadata/><path d="m0 0h32v32h-32z" fill="none"/><g clip-path="url(#a)"><path d="m2 15v-.048c-.005-2.026.575-4.081 1.806-5.793 1.239-1.724 3.061-2.659 4.868-2.659 1.841 0 3.626.979 4.868 2.656.75 1.015 1.615 2.184 2.458 3.323v.001-.001c.843-1.139 1.708-2.308 2.458-3.323 1.242-1.677 3.027-2.656 4.868-2.656 1.807 0 3.629.935 4.868 2.659 1.231 1.712 1.811 3.767 1.806 5.793v.048 2c.014 2.042-.565 4.115-1.806 5.841-1.239 1.724-3.061 2.659-4.868 2.659-1.841 0-3.626-.979-4.868-2.656-.75-1.015-1.615-2.184-2.458-3.323v-.001.001c-.843 1.139-1.708 2.308-2.458 3.323-1.242 1.677-3.027 2.656-4.868 2.656-1.807 0-3.629-.935-4.868-2.659-1.241-1.726-1.82-3.799-1.806-5.841v-2zm24.943 1c-.14-1.11-.52-2.184-1.163-3.059-.744-1.012-1.645-1.441-2.454-1.441-.81 0-1.676.387-2.456 1.441l-2.264 3.059 2.264 3.059c.78 1.054 1.646 1.441 2.456 1.441.809 0 1.71-.429 2.454-1.441.643-.875 1.023-1.949 1.163-3.059zm-13.549 0-2.264-3.059c-.774-1.046-1.633-1.435-2.437-1.441h-.019c-.809 0-1.71.429-2.454 1.441-.643.875-1.023 1.949-1.163 3.059.14 1.11.52 2.184 1.163 3.059.744 1.012 1.645 1.441 2.454 1.441h.019c.804-.006 1.663-.395 2.437-1.441z" fill="none" stroke="#000" stroke-width="4"/><path d="m3 11h26v10.491h-26z"/><path d="m2 15h.179c.256-1.361.792-2.68 1.627-3.841 1.239-1.724 3.061-2.659 4.868-2.659 1.841 0 3.626.979 4.868 2.656.75 1.015 1.615 2.184 2.458 3.323v.001-.001c.843-1.139 1.708-2.308 2.458-3.323 1.242-1.677 3.027-2.656 4.868-2.656 1.807 0 3.629.935 4.868 2.659.835 1.161 1.371 2.48 1.627 3.841h.179v2c.014 2.042-.565 4.115-1.806 5.841-1.239 1.724-3.061 2.659-4.868 2.659-1.841 0-3.626-.979-4.868-2.656-.75-1.015-1.615-2.184-2.458-3.323v-.001.001c-.843 1.139-1.708 2.308-2.458 3.323-1.242 1.677-3.027 2.656-4.868 2.656-1.807 0-3.629-.935-4.868-2.659-1.241-1.726-1.82-3.799-1.806-5.841v-2zm15.866 2 3.004 4.059c.78 1.054 1.646 1.441 2.456 1.441.809 0 1.71-.429 2.454-1.441.835-1.137 1.227-2.607 1.224-4.059v-.034c-.003-1.441-.395-2.897-1.224-4.025-.744-1.012-1.645-1.441-2.454-1.441-.81 0-1.676.387-2.456 1.441zm-9.192-5.5c-.809 0-1.71.429-2.454 1.441-.829 1.128-1.221 2.584-1.224 4.025v.034c-.003 1.452.389 2.922 1.224 4.059.744 1.012 1.645 1.441 2.454 1.441h.019c.804-.006 1.663-.395 2.437-1.441l3.004-4.059-3.004-4.059c-.774-1.046-1.633-1.435-2.437-1.441z" fill-rule="nonzero"/><g clip-path="url(#b)"><path d="m2 6h6v20h-6z" fill="#850e16"/><path d="m6.667 6h6.333v20h-6.333z" fill="#844008"/><path d="m11.333 6h6.074v20h-6.074z" fill="#826400"/><path d="m16 6h6v20h-6z" fill="#26670a"/><path d="m20.667 6h5.842v20h-5.842z" fill="#0f6572"/><path d="m25.333 6h6.03v20h-6.03z" fill="#49177b"/></g><path d="m16 12.48v-.001c.843-1.139 1.708-2.308 2.458-3.323 1.242-1.677 3.027-2.656 4.868-2.656 1.807 0 3.629.935 4.868 2.659 1.231 1.712 1.811 3.767 1.806 5.793v.048c.014 2.042-.565 4.115-1.806 5.841-1.239 1.724-3.061 2.659-4.868 2.659-1.841 0-3.626-.979-4.868-2.656-.75-1.015-1.615-2.184-2.458-3.323v-.001.001c-.843 1.139-1.708 2.308-2.458 3.323-1.242 1.677-3.027 2.656-4.868 2.656-1.807 0-3.629-.935-4.868-2.659-1.241-1.726-1.82-3.799-1.806-5.841v-.048c-.005-2.026.575-4.081 1.806-5.793 1.239-1.724 3.061-2.659 4.868-2.659 1.841 0 3.626.979 4.868 2.656.75 1.015 1.615 2.184 2.458 3.323zm1.866 2.52 3.004 4.059c.78 1.054 1.646 1.441 2.456 1.441.809 0 1.71-.429 2.454-1.441.835-1.137 1.227-2.607 1.224-4.059v-.034c-.003-1.441-.395-2.897-1.224-4.025-.744-1.012-1.645-1.441-2.454-1.441-.81 0-1.676.387-2.456 1.441zm-9.192-5.5c-.809 0-1.71.429-2.454 1.441-.829 1.128-1.221 2.584-1.224 4.025v.034c-.003 1.452.389 2.922 1.224 4.059.744 1.012 1.645 1.441 2.454 1.441h.019c.804-.006 1.663-.395 2.437-1.441l3.004-4.059-3.004-4.059c-.774-1.046-1.633-1.435-2.437-1.441z" fill-rule="nonzero"/><g clip-path="url(#c)"><path d="m2 5h6v19h-6z" fill="#e82731"/><path d="m6.667 5h6.333v19h-6.333z" fill="#f1780f"/><path d="m11.333 5h6.074v19h-6.074z" fill="#eeba00"/><path d="m16 5h6v19h-6z" fill="#4cbf1e"/><path d="m20.667 5h5.842v19h-5.842z" fill="#30bfdb"/><path d="m25.333 5h6.03v19h-6.03z" fill="#9146dc"/></g></g></svg>