<svg clip-rule="evenodd" fill-rule="evenodd" stroke-linejoin="round" stroke-miterlimit="2" viewBox="0 0 32 32" xmlns="http://www.w3.org/2000/svg"><metadata/><path d="m0 0h32v32h-32z" fill="none"/><path d="m17.5 30h-3v-7.141c-3.699-.703-6.5-3.956-6.5-7.859v-2c0-4.415 3.585-8 8-8s8 3.585 8 8v2c0 3.903-2.801 7.156-6.5 7.859zm3.4-16c-.464-2.281-2.483-4-4.9-4s-4.436 1.719-4.9 4c.464 2.281 2.483 4 4.9 4s4.436-1.719 4.9-4z" fill="none" stroke="#000" stroke-width="4"/><path d="m11 9h10v8h-10z"/><path d="m8.252 13c.89-3.449 4.023-6 7.748-6s6.858 2.551 7.748 6h.252v2c0 3.903-2.801 7.156-6.5 7.859v7.141h-3v-7.141c-3.699-.703-6.5-3.956-6.5-7.859v-2zm7.748-3c2.76 0 5 2.24 5 5s-2.24 5-5 5-5-2.24-5-5 2.24-5 5-5z" fill="#747474"/><g fill="none" stroke="#fff" stroke-width="3"><circle cx="16" cy="13" r="6.5" stroke-linecap="round"/><path d="m16 20v8"/></g></svg>