<svg clip-rule="evenodd" fill-rule="evenodd" stroke-linejoin="round" stroke-miterlimit="1.41421" viewBox="0 0 32 32" xmlns="http://www.w3.org/2000/svg" xmlns:xlink="http://www.w3.org/1999/xlink"><clipPath id="a"><path clip-rule="evenodd" d="m0 0h32v32h-32z"/></clipPath><metadata/><path d="m0 0h32v32h-32z" fill="none"/><g clip-path="url(#a)"><path d="m32 8c0-4.418-3.582-8-8-8-4.887 0-11.113 0-16 0-4.418 0-8 3.582-8 8v16c0 4.418 3.582 8 8 8h16c4.418 0 8-3.582 8-8 0-4.887 0-11.113 0-16z"/><path d="m30 8c0-1.591-.632-3.117-1.757-4.243-1.126-1.125-2.652-1.757-4.243-1.757-4.724 0-11.276 0-16 0-1.591 0-3.117.632-4.243 1.757-1.125 1.126-1.757 2.652-1.757 4.243v16c0 1.591.632 3.117 1.757 4.243 1.126 1.125 2.652 1.757 4.243 1.757h16c1.591 0 3.117-.632 4.243-1.757 1.125-1.126 1.757-2.652 1.757-4.243 0-4.724 0-11.276 0-16z" fill="#666"/><g fill="#fff" fill-rule="nonzero"><path d="m10.443 10.3v11.4h-2.032l-2.379-6.08v6.08h-2.032v-11.4h2.032l2.379 6.344v-6.344z"/><path d="m13.847 12.134v2.858h2.643v1.818h-2.643v3.072h3.073v1.818h-5.089v-11.4h5.089v1.834z"/><path d="m28.369 10.3-2.032 11.4h-2.198l-1.239-7.005-1.255 7.005h-2.181l-2.032-11.4h2.065l1.107 8.525 1.074-8.525h2.478l1.074 8.525 1.107-8.525z"/></g></g></svg>