<svg clip-rule="evenodd" fill-rule="evenodd" stroke-linejoin="round" stroke-miterlimit="1.41421" viewBox="0 0 32 32" xmlns="http://www.w3.org/2000/svg" xmlns:xlink="http://www.w3.org/1999/xlink"><clipPath id="a"><path clip-rule="evenodd" d="m0 0h32v32h-32z"/></clipPath><metadata/><path d="m0 0h32v32h-32z" fill="none"/><g clip-path="url(#a)"><path d="m32 8c0-4.418-3.582-8-8-8-4.887 0-11.113 0-16 0-4.418 0-8 3.582-8 8v16c0 4.418 3.582 8 8 8h16c4.418 0 8-3.582 8-8 0-4.887 0-11.113 0-16z"/><path d="m30 8c0-1.591-.632-3.117-1.757-4.243-1.126-1.125-2.652-1.757-4.243-1.757-4.724 0-11.276 0-16 0-1.591 0-3.117.632-4.243 1.757-1.125 1.126-1.757 2.652-1.757 4.243v16c0 1.591.632 3.117 1.757 4.243 1.126 1.125 2.652 1.757 4.243 1.757h16c1.591 0 3.117-.632 4.243-1.757 1.125-1.126 1.757-2.652 1.757-4.243 0-4.724 0-11.276 0-16z" fill="#e82731"/><g fill="#fff" fill-rule="nonzero"><path d="m15.091 9.273v13.493h-2.562l-4.967-8.428v8.428h-2.562v-13.493h2.562l4.967 8.448v-8.448z"/><path d="m22.131 22.923c-3.273 0-4.909-1.793-4.909-5.378v-3.09c0-3.585 1.649-5.378 4.948-5.378 1.473 0 2.646.388 3.52 1.164.873.776 1.31 1.848 1.31 3.217v.137h-2.562v-.137c0-.613-.199-1.121-.596-1.526-.398-.404-.962-.606-1.692-.606-.821 0-1.418.254-1.789.763-.372.508-.557 1.343-.557 2.503v2.914c0 1.108.198 1.906.596 2.395s1.014.734 1.848.734c.782 0 1.353-.202 1.711-.607.359-.404.538-1.016.538-1.838v-.645h-2.386v-2.112h4.889v2.307c0 3.455-1.623 5.183-4.869 5.183z"/></g></g></svg>