<svg clip-rule="evenodd" fill-rule="evenodd" stroke-linejoin="round" stroke-miterlimit="2" viewBox="0 0 32 32" xmlns="http://www.w3.org/2000/svg" xmlns:xlink="http://www.w3.org/1999/xlink"><clipPath id="a"><path clip-rule="evenodd" d="m0 0h32v32h-32z"/></clipPath><clipPath id="b"><path clip-rule="evenodd" d="m2 2h28v28h-28z"/></clipPath><metadata/><path d="m0 0h32v32h-32z" fill="none"/><g clip-path="url(#a)"><path d="m32 2c0-.53-.211-1.039-.586-1.414s-.884-.586-1.414-.586h-28c-.53 0-1.039.211-1.414.586s-.586.884-.586 1.414v28c0 .53.211 1.039.586 1.414s.884.586 1.414.586h28c.53 0 1.039-.211 1.414-.586s.586-.884.586-1.414z"/><path d="m2 2h28v28h-28z" fill="#282480"/><g clip-path="url(#b)"><circle cx="20" cy="20" fill="#8f6d06" r="1"/><circle cx="30" cy="20" fill="#8f6d06" r="1"/><circle cx="3" cy="4" fill="#8f6d06" r="1"/><circle cx="5" cy="22" fill="#8f6d06" r="1"/><path d="m23 1.5c0-.133-.053-.26-.146-.354-.094-.093-.221-.146-.354-.146s-.26.053-.354.146c-.093.094-.146.221-.146.354v2c0 .133.053.26.146.354.094.093.221.146.354.146s.26-.053.354-.146c.093-.094.146-.221.146-.354 0-.555 0-1.445 0-2z" fill="#8f6d06"/><path d="m23.5 3c.133 0 .26-.053.354-.146.093-.094.146-.221.146-.354s-.053-.26-.146-.354c-.094-.093-.221-.146-.354-.146-.555 0-1.445 0-2 0-.133 0-.26.053-.354.146-.093.094-.146.221-.146.354s.053.26.146.354c.094.093.221.146.354.146z" fill="#8f6d06"/><path d="m22 13.5c0-.133-.053-.26-.146-.354-.094-.093-.221-.146-.354-.146s-.26.053-.354.146c-.093.094-.146.221-.146.354v2c0 .133.053.26.146.354.094.093.221.146.354.146s.26-.053.354-.146c.093-.094.146-.221.146-.354 0-.555 0-1.445 0-2z" fill="#8f6d06"/><path d="m22.5 15c.133 0 .26-.053.354-.146.093-.094.146-.221.146-.354s-.053-.26-.146-.354c-.094-.093-.221-.146-.354-.146-.555 0-1.445 0-2 0-.133 0-.26.053-.354.146-.093.094-.146.221-.146.354s.053.26.146.354c.094.093.221.146.354.146z" fill="#8f6d06"/><g fill="#e4be43"><circle cx="25" cy="8" r="1"/><circle cx="18" cy="29" r="1"/><circle cx="16" cy="6" r="1"/><circle cx="2" cy="29" r="1"/><path d="m11 22c0-.133-.053-.26-.146-.354-.094-.093-.221-.146-.354-.146s-.26.053-.354.146c-.093.094-.146.221-.146.354v2c0 .133.053.26.146.354.094.093.221.146.354.146s.26-.053.354-.146c.093-.094.146-.221.146-.354 0-.555 0-1.445 0-2z"/><path d="m11.5 23.5c.133 0 .26-.053.354-.146.093-.094.146-.221.146-.354s-.053-.26-.146-.354c-.094-.093-.221-.146-.354-.146-.555 0-1.445 0-2 0-.133 0-.26.053-.354.146-.093.094-.146.221-.146.354s.053.26.146.354c.094.093.221.146.354.146z"/><path d="m30 11.5c0-.133-.053-.26-.146-.354-.094-.093-.221-.146-.354-.146s-.26.053-.354.146c-.093.094-.146.221-.146.354v2c0 .133.053.26.146.354.094.093.221.146.354.146s.26-.053.354-.146c.093-.094.146-.221.146-.354 0-.555 0-1.445 0-2z"/><path d="m30.5 13c.133 0 .26-.053.354-.146.093-.094.146-.221.146-.354s-.053-.26-.146-.354c-.094-.093-.221-.146-.354-.146-.555 0-1.445 0-2 0-.133 0-.26.053-.354.146-.093.094-.146.221-.146.354s.053.26.146.354c.094.093.221.146.354.146z"/><path d="m19.5 3c0-.133-.053-.26-.146-.354-.094-.093-.221-.146-.354-.146s-.26.053-.354.146c-.093.094-.146.221-.146.354v2c0 .133.053.26.146.354.094.093.221.146.354.146s.26-.053.354-.146c.093-.094.146-.221.146-.354 0-.555 0-1.445 0-2z"/><path d="m20 4.5c.133 0 .26-.053.354-.146.093-.094.146-.221.146-.354s-.053-.26-.146-.354c-.094-.093-.221-.146-.354-.146-.555 0-1.445 0-2 0-.133 0-.26.053-.354.146-.093.094-.146.221-.146.354s.053.26.146.354c.094.093.221.146.354.146z"/><path d="m25.5 22.5c0-.133-.053-.26-.146-.354-.094-.093-.221-.146-.354-.146s-.26.053-.354.146c-.093.094-.146.221-.146.354v2c0 .133.053.26.146.354.094.093.221.146.354.146s.26-.053.354-.146c.093-.094.146-.221.146-.354 0-.555 0-1.445 0-2z"/><path d="m26 24c.133 0 .26-.053.354-.146.093-.094.146-.221.146-.354s-.053-.26-.146-.354c-.094-.093-.221-.146-.354-.146-.555 0-1.445 0-2 0-.133 0-.26.053-.354.146-.093.094-.146.221-.146.354s.053.26.146.354c.094.093.221.146.354.146z"/><path d="m24.5 26.5c0-.133-.053-.26-.146-.354-.094-.093-.221-.146-.354-.146s-.26.053-.354.146c-.093.094-.146.221-.146.354v2c0 .133.053.26.146.354.094.093.221.146.354.146s.26-.053.354-.146c.093-.094.146-.221.146-.354 0-.555 0-1.445 0-2z"/><path d="m25 28c.133 0 .26-.053.354-.146.093-.094.146-.221.146-.354s-.053-.26-.146-.354c-.094-.093-.221-.146-.354-.146-.555 0-1.445 0-2 0-.133 0-.26.053-.354.146-.093.094-.146.221-.146.354s.053.26.146.354c.094.093.221.146.354.146z"/></g><path d="m9.437 5.182c-1.481 1.09-2.437 2.843-2.437 4.818 0 3.311 2.689 6 6 6 1.975 0 3.728-.956 4.818-2.437-.707 3.115-3.494 5.437-6.818 5.437-3.863 0-7-3.137-7-7 0-3.324 2.322-6.111 5.437-6.818z" fill="#c0d6ff"/></g></g></svg>