<svg clip-rule="evenodd" fill-rule="evenodd" stroke-linecap="round" stroke-linejoin="round" stroke-miterlimit="1.5" viewBox="0 0 32 32" xmlns="http://www.w3.org/2000/svg" xmlns:xlink="http://www.w3.org/1999/xlink"><clipPath id="a"><path clip-rule="evenodd" d="m0 0h32v32h-32z"/></clipPath><metadata/><path d="m0 0h32v32h-32z" fill="none"/><g clip-path="url(#a)"><path d="m16.193.001.192.004.192.006.192.008.19.011.191.014.189.015.19.018.188.021.188.022.187.025.187.028.186.029.185.032.185.035.183.036.183.039.182.04.182.044.18.045.18.047.179.05.178.052.176.054.177.056.175.058.174.06.173.062.172.064.171.067.17.068.169.07.168.073.167.074.166.076.164.078.164.08.162.082.162.084.16.086.158.088.158.089.157.091.155.093.154.095.153.097.151.098.15.1.149.102.148.104.146.105.145.108.143.108.143.111.14.112.14.113.138.116.136.116.135.119.134.12.132.122.131.123.129.125.128.126.126.128.125.129.123.131.122.132.12.134.119.135.116.136.116.138.113.14.112.14.111.143.109.143.106.145.106.146.104.148.102.149.1.15.098.151.097.153.095.154.093.155.091.157.089.157.088.159.086.16.084.162.082.162.08.164.078.164.076.166.074.167.073.168.07.169.068.17.067.171.064.172.062.173.06.174.058.175.056.176.054.177.052.178.05.179.047.18.045.18.044.182.04.182.039.183.036.183.035.185.032.185.029.186.028.187.025.187.022.188.021.189.018.188.015.19.014.191.011.19.008.192.006.192.004.192.001.193-.001.193-.004.192-.006.192-.008.191-.011.191-.014.191-.015.19-.018.188-.021.189-.022.188-.025.187-.028.187-.029.186-.032.185-.035.185-.036.183-.039.183-.04.182-.044.182-.045.18-.047.18-.05.179-.052.178-.054.177-.056.176-.058.175-.06.174-.062.173-.064.172-.067.171-.068.17-.07.169-.073.168-.074.167-.076.166-.078.164-.08.164-.082.162-.084.162-.086.16-.088.159-.089.157-.091.157-.093.155-.095.154-.097.153-.098.151-.1.15-.102.149-.104.148-.106.146-.106.145-.109.143-.111.143-.112.14-.113.14-.116.138-.116.136-.119.135-.12.134-.122.132-.123.131-.125.129-.126.128-.128.126-.129.125-.131.123-.132.122-.134.12-.135.119-.136.116-.138.116-.14.113-.14.112-.143.111-.143.108-.145.108-.146.105-.148.104-.149.102-.15.1-.151.098-.153.097-.154.095-.155.093-.157.091-.157.089-.159.088-.16.086-.162.084-.162.082-.164.08-.164.078-.166.076-.167.074-.168.073-.169.07-.17.068-.171.067-.172.064-.173.062-.174.06-.175.058-.177.056-.176.054-.178.052-.179.05-.18.047-.18.045-.181.043-.183.041-.183.039-.183.036-.185.035-.185.032-.186.029-.187.028-.187.025-.188.022-.188.021-.19.018-.189.015-.191.014-.19.011-.192.008-.192.006-.192.004-.193.001-.193-.001-.192-.004-.192-.006-.192-.008-.19-.011-.191-.014-.189-.015-.19-.018-.188-.021-.188-.022-.187-.025-.187-.028-.186-.029-.185-.032-.185-.035-.183-.036-.183-.039-.183-.041-.181-.043-.18-.045-.18-.047-.179-.05-.178-.052-.176-.054-.177-.056-.175-.058-.174-.06-.173-.062-.172-.064-.171-.067-.17-.068-.169-.07-.168-.073-.167-.074-.166-.076-.164-.078-.164-.08-.162-.082-.162-.084-.16-.086-.159-.088-.157-.089-.157-.091-.155-.093-.154-.095-.153-.097-.151-.098-.15-.1-.149-.102-.148-.104-.146-.105-.145-.108-.143-.108-.143-.111-.14-.112-.14-.113-.138-.116-.136-.116-.135-.119-.134-.12-.132-.122-.131-.123-.129-.125-.128-.126-.126-.128-.125-.129-.123-.131-.122-.132-.12-.134-.119-.135-.116-.136-.116-.138-.113-.14-.112-.14-.111-.143-.108-.143-.108-.145-.105-.146-.104-.148-.102-.149-.1-.15-.098-.151-.097-.153-.095-.154-.093-.155-.091-.157-.089-.157-.088-.159-.086-.16-.084-.162-.082-.162-.08-.164-.078-.164-.076-.166-.074-.167-.073-.168-.07-.169-.068-.17-.067-.171-.064-.172-.062-.173-.06-.174-.058-.175-.056-.177-.054-.176-.052-.178-.05-.179-.047-.18-.045-.18-.043-.181-.041-.183-.039-.183-.036-.183-.035-.185-.032-.185-.029-.186-.028-.187-.025-.187-.022-.188-.021-.188-.018-.19-.015-.189-.014-.191-.011-.19-.008-.192-.006-.192-.004-.192-.001-.193.001-.193.004-.192.006-.192.008-.192.011-.19.014-.191.015-.189.018-.19.021-.188.022-.188.025-.187.028-.187.029-.186.032-.185.035-.185.036-.183.039-.183.041-.183.043-.181.045-.18.047-.18.05-.179.052-.178.054-.176.056-.177.058-.175.06-.174.062-.173.064-.172.067-.171.068-.17.07-.169.073-.168.074-.167.076-.166.078-.164.08-.164.082-.162.084-.162.086-.16.088-.159.089-.157.091-.157.093-.155.095-.154.097-.153.098-.151.1-.15.102-.149.104-.148.105-.146.108-.145.108-.143.111-.143.112-.14.113-.14.116-.138.116-.136.119-.135.12-.134.122-.132.123-.131.125-.129.126-.128.128-.126.129-.125.131-.123.132-.122.134-.12.135-.119.136-.116.138-.116.14-.113.14-.112.143-.111.143-.108.145-.108.146-.105.148-.104.149-.102.15-.1.151-.098.153-.097.154-.095.155-.093.157-.091.158-.089.158-.088.16-.086.162-.084.162-.082.164-.08.164-.078.166-.076.167-.074.168-.073.169-.07.17-.068.171-.067.172-.064.173-.062.174-.06.175-.058.177-.056.176-.054.178-.052.179-.05.18-.047.18-.045.182-.044.182-.04.183-.039.183-.036.185-.035.185-.032.186-.029.187-.028.187-.025.188-.022.188-.021.19-.018.189-.015.191-.014.19-.011.192-.008.192-.006.192-.004.193-.001.193.001zm-.284 8-.091.001-.091.003-.09.004-.09.005-.089.007-.089.007-.088.008-.088.01-.088.011-.087.011-.087.013-.087.014-.086.015-.086.015-.085.017-.085.018-.084.019-.085.02-.083.021-.083.022-.083.023-.083.024-.082.025-.081.026-.081.027-.081.028-.08.029-.08.03-.079.03-.079.032-.079.033-.078.033-.077.035-.077.035-.077.037-.076.037-.076.038-.075.039-.074.04-.074.041-.074.041-.073.043-.072.044-.072.044-.072.045-.07.046-.071.047-.069.048-.069.048-.069.049-.068.051-.067.05-.067.052-.066.053-.065.053-.065.054-.064.055-.063.056-.063.056-.062.057-.062.058-.06.059-.06.059-.059.06-.059.061-.058.061-.057.062-.056.063-.056.063-.055.064-.054.065-.053.065-.053.066-.052.067-.05.067-.051.068-.049.069-.048.069-.048.069-.047.071-.046.07-.045.072-.044.072-.044.072-.042.073-.042.074-.041.074-.04.074-.039.075-.038.076-.037.076-.037.077-.035.077-.035.077-.033.078-.033.079-.032.079-.03.079-.03.08-.029.08-.028.081-.027.081-.026.081-.025.082-.024.083-.023.083-.022.083-.021.084-.02.084-.019.084-.018.085-.017.085-.015.086-.015.086-.014.087-.013.087-.011.087-.011.088-.01.088-.008.088-.007.089-.007.089-.005.09-.004.09-.003.091-.001.091-.001.091.001.091.001.091.003.091.004.09.005.09.007.089.007.089.008.088.01.088.011.088.011.087.013.087.014.087.015.086.015.086.017.085.018.085.019.084.02.084.021.084.022.083.023.083.024.083.025.082.026.081.027.081.028.081.029.08.03.08.03.079.032.079.033.079.033.078.035.077.035.077.037.077.037.076.038.076.039.075.04.074.041.074.042.074.042.073.044.072.044.072.045.072.046.07.047.071.048.069.048.069.049.069.051.068.05.067.052.067.053.066.053.065.054.065.055.064.056.063.056.063.057.062.058.061.059.061.059.06.06.059.061.059.061.058.062.057.063.056.063.056.064.055.065.054.065.053.066.053.067.052.067.05.068.051.069.049.069.048.069.048.071.047.07.046.072.045.072.044.072.044.073.042.074.042.074.041.074.04.075.039.076.038.076.037.077.037.077.035.077.035.078.033.079.033.079.032.079.03.08.03.08.029.081.028.081.027.081.026.082.025.083.024.083.023.083.022.084.021.084.02.084.019.085.018.085.017.086.015.086.015.087.014.087.013.087.011.088.011.088.01.088.008.089.007.089.007.09.005.09.004.091.003.091.001.091.001.091-.001.091-.001.091-.003.09-.004.09-.005.089-.007.089-.007.088-.008.088-.01.088-.011.087-.011.087-.013.087-.014.086-.015.086-.015.085-.017.085-.018.084-.019.084-.02.084-.021.083-.022.083-.023.083-.024.082-.025.081-.026.081-.027.081-.028.08-.029.08-.03.079-.03.079-.032.079-.033.078-.033.077-.035.077-.035.077-.037.076-.037.076-.038.075-.039.074-.04.074-.041.074-.042.073-.042.072-.044.072-.044.072-.045.07-.046.071-.047.069-.048.069-.048.069-.049.068-.051.067-.05.067-.052.066-.053.065-.053.065-.054.064-.055.063-.056.063-.056.062-.057.061-.058.061-.059.06-.059.059-.06.059-.06.058-.062.057-.062.056-.063.056-.063.055-.064.054-.065.053-.065.053-.066.051-.067.051-.067.051-.068.049-.069.048-.069.048-.069.047-.071.046-.07.045-.072.044-.072.044-.072.043-.073.041-.074.041-.074.04-.074.039-.075.038-.076.037-.076.037-.077.035-.077.035-.077.033-.078.033-.079.032-.079.03-.079.03-.08.029-.08.028-.081.027-.081.026-.082.025-.081.024-.083.023-.083.022-.083.021-.084.02-.084.019-.084.018-.085.017-.085.015-.086.015-.086.014-.086.013-.088.012-.087.01-.088.01-.087.008-.089.007-.089.007-.089.005-.09.004-.09.003-.091.001-.091.001-.091-.001-.091-.001-.091-.003-.091-.004-.09-.005-.09-.007-.089-.007-.089-.008-.089-.01-.087-.01-.088-.012-.087-.013-.088-.014-.086-.015-.086-.015-.086-.017-.085-.018-.085-.019-.084-.02-.084-.021-.084-.022-.083-.023-.083-.024-.083-.025-.081-.026-.082-.027-.081-.028-.081-.029-.08-.03-.08-.03-.079-.032-.079-.033-.079-.033-.078-.035-.077-.035-.077-.037-.077-.037-.076-.038-.076-.039-.075-.04-.074-.041-.074-.041-.074-.043-.073-.044-.072-.044-.072-.045-.072-.046-.07-.047-.071-.048-.069-.048-.069-.049-.069-.051-.068-.051-.067-.051-.067-.053-.066-.053-.065-.054-.065-.055-.064-.056-.063-.056-.063-.057-.062-.058-.062-.059-.06-.059-.06-.06-.059-.06-.059-.062-.058-.062-.057-.063-.056-.063-.056-.064-.055-.065-.054-.065-.053-.066-.053-.067-.052-.067-.05-.068-.051-.069-.049-.069-.048-.069-.048-.071-.047-.07-.046-.072-.045-.072-.044-.072-.044-.073-.043-.074-.041-.074-.041-.074-.04-.075-.039-.076-.038-.076-.037-.077-.037-.077-.035-.077-.035-.078-.033-.079-.033-.079-.032-.079-.03-.08-.03-.08-.029-.081-.028-.081-.027-.081-.026-.082-.025-.083-.024-.083-.023-.083-.022-.083-.021-.085-.02-.084-.019-.085-.018-.085-.017-.086-.015-.086-.015-.087-.014-.087-.013-.087-.011-.088-.011-.088-.01-.088-.008-.089-.007-.089-.007-.09-.005-.09-.004-.091-.003-.091-.001-.091-.001z"/><path d="m28.657 8-19.657 19.657-5.657-5.657 19.657-19.657z"/><path d="m29 15-7 9-6 2-6-2-7-9v2c0 3.448 1.37 6.754 3.808 9.192s5.744 3.808 9.192 3.808c3.448 0 6.754-1.37 9.192-3.808s3.808-5.744 3.808-9.192c0-1.774 0-2 0-2z" fill="none" stroke="#000" stroke-width="4"/><circle cx="16" cy="16" r="10"/><g fill="#93151c"><path d="m25.828 10-16.828 16.828-2.828-2.828 16.828-16.828z"/><path d="m16.167 4.001.167.003.167.005.166.008.166.009.165.012.164.013.164.016.164.018.163.019.162.022.162.024.161.025.16.028.16.03.159.031.159.034.157.035.157.038.157.039.155.041.155.043.154.045.153.046.152.049.152.05.151.052.15.054.149.056.148.057.147.059.147.061.145.063.145.064.143.066.143.068.141.069.141.071.14.073.139.074.137.076.137.078.135.079.135.08.133.083.133.083.131.086.13.087.129.088.128.09.127.091.126.093.124.094.124.096.122.097.12.099.12.1.119.101.117.103.116.104.115.106.113.106.112.109.111.109.109.111.109.112.106.113.106.115.104.116.103.117.101.119.1.119.099.121.097.122.096.124.094.124.093.126.091.127.09.128.088.129.087.13.086.131.083.133.083.133.08.135.079.135.078.137.076.137.074.139.073.14.071.141.069.141.068.143.066.143.064.145.063.145.061.147.059.147.057.148.056.149.054.15.052.151.05.152.049.152.046.153.045.154.043.155.041.155.039.157.038.157.035.158.034.158.031.159.03.16.028.16.025.161.024.162.022.162.019.163.018.164.016.164.013.164.012.165.009.166.008.166.005.167.003.167.001.167-.001.167-.003.167-.005.167-.008.166-.009.166-.012.165-.013.164-.016.164-.018.164-.019.163-.022.162-.024.162-.025.161-.028.16-.03.16-.031.159-.034.158-.035.158-.038.157-.039.157-.041.155-.043.155-.045.154-.046.153-.049.152-.05.152-.052.151-.054.15-.056.149-.057.148-.059.147-.061.147-.063.145-.064.145-.066.143-.068.143-.069.141-.071.141-.073.14-.074.139-.076.137-.078.137-.079.135-.08.135-.083.133-.083.133-.086.131-.087.13-.088.129-.09.128-.091.127-.093.126-.094.124-.096.124-.097.122-.099.121-.1.119-.101.119-.103.117-.104.116-.106.114-.106.114-.109.112-.109.111-.111.109-.112.109-.113.106-.115.106-.116.104-.117.103-.119.101-.119.1-.121.099-.123.097-.123.096-.124.094-.126.093-.127.091-.128.09-.129.088-.13.087-.131.086-.133.083-.133.083-.135.08-.135.079-.137.078-.137.076-.139.074-.14.073-.141.071-.141.069-.143.068-.143.066-.145.064-.145.063-.147.061-.147.059-.148.057-.149.056-.15.054-.151.052-.152.05-.152.049-.153.046-.154.045-.155.043-.155.041-.157.039-.157.038-.158.035-.158.034-.159.031-.16.03-.16.028-.161.025-.162.024-.162.022-.163.019-.164.018-.164.016-.164.013-.165.012-.166.009-.166.008-.167.005-.167.003-.167.001-.167-.001-.167-.003-.167-.005-.166-.008-.166-.009-.165-.012-.164-.013-.164-.016-.164-.018-.163-.019-.162-.022-.162-.024-.161-.025-.16-.028-.16-.03-.159-.031-.158-.034-.158-.035-.157-.038-.157-.039-.155-.041-.155-.043-.154-.045-.153-.046-.152-.049-.152-.05-.151-.052-.15-.054-.149-.056-.148-.057-.147-.059-.147-.061-.145-.063-.145-.064-.143-.066-.143-.068-.141-.069-.141-.071-.14-.073-.139-.074-.137-.076-.137-.078-.135-.079-.135-.08-.133-.083-.133-.083-.131-.086-.13-.087-.129-.088-.128-.09-.127-.091-.126-.093-.124-.094-.123-.096-.123-.097-.121-.099-.119-.1-.119-.101-.117-.103-.116-.104-.115-.106-.113-.106-.112-.109-.111-.109-.109-.111-.109-.112-.106-.114-.106-.114-.104-.116-.103-.117-.101-.119-.1-.12-.099-.12-.097-.122-.096-.124-.094-.124-.093-.126-.091-.127-.09-.128-.088-.129-.087-.13-.086-.131-.083-.133-.083-.133-.08-.135-.079-.135-.078-.137-.076-.137-.074-.139-.073-.14-.071-.141-.069-.141-.068-.143-.066-.143-.064-.145-.063-.145-.061-.147-.059-.147-.057-.148-.056-.149-.054-.15-.052-.151-.05-.152-.049-.152-.046-.153-.045-.154-.043-.155-.041-.156-.039-.156-.038-.157-.035-.157-.034-.159-.031-.159-.03-.16-.028-.16-.025-.161-.024-.162-.022-.162-.019-.163-.018-.164-.016-.164-.013-.164-.012-.165-.009-.166-.008-.166-.005-.167-.003-.167-.001-.167.001-.167.003-.167.005-.167.008-.166.009-.166.012-.165.013-.164.016-.164.018-.164.019-.163.022-.162.024-.162.025-.161.028-.16.03-.16.031-.159.034-.159.035-.157.038-.157.039-.156.041-.156.043-.155.045-.154.046-.153.049-.152.05-.152.052-.151.054-.15.056-.149.057-.148.059-.147.061-.147.063-.145.064-.145.066-.143.068-.143.069-.141.071-.141.073-.14.074-.139.076-.137.078-.137.079-.135.08-.135.083-.133.083-.133.086-.131.087-.13.088-.129.09-.128.091-.127.093-.126.094-.124.096-.124.097-.122.099-.12.1-.12.101-.119.103-.117.104-.116.106-.115.106-.113.109-.112.109-.111.111-.109.112-.109.113-.106.115-.106.116-.104.117-.103.119-.101.12-.1.12-.099.122-.097.124-.096.124-.094.126-.093.127-.091.128-.09.129-.088.13-.087.131-.086.133-.083.133-.083.135-.08.135-.079.137-.078.137-.076.139-.074.14-.073.141-.071.141-.069.143-.068.143-.066.145-.064.145-.063.147-.061.147-.059.148-.057.149-.056.15-.054.151-.052.152-.05.152-.049.153-.046.154-.045.155-.043.155-.041.157-.039.157-.038.157-.035.159-.034.159-.031.16-.03.16-.028.161-.025.162-.024.162-.022.163-.019.164-.018.164-.016.164-.013.165-.012.166-.009.166-.008.167-.005.167-.003.167-.001zm-.284 4-.116.002-.116.004-.115.005-.115.006-.115.008-.114.01-.114.011-.113.012-.113.013-.112.015-.112.017-.111.018-.111.019-.11.02-.11.022-.11.023-.109.025-.108.025-.108.027-.107.029-.107.029-.106.031-.106.033-.105.033-.105.035-.104.036-.103.037-.103.038-.103.04-.101.041-.101.042-.101.043-.1.045-.099.045-.099.047-.097.048-.098.049-.096.05-.096.052-.096.052-.094.054-.094.055-.093.056-.093.056-.091.058-.091.06-.091.06-.089.061-.089.062-.088.064-.087.064-.086.065-.086.067-.084.067-.084.069-.083.069-.082.07-.082.072-.08.072-.08.073-.079.074-.077.076-.077.076-.076.077-.076.077-.074.079-.073.08-.072.08-.072.082-.07.082-.069.083-.069.084-.067.084-.067.086-.065.086-.064.087-.064.088-.062.089-.061.089-.06.091-.06.091-.058.091-.056.093-.056.093-.055.094-.054.094-.052.096-.052.096-.05.096-.049.098-.048.097-.047.099-.045.099-.045.1-.043.101-.042.101-.041.101-.04.103-.038.103-.037.103-.036.104-.035.105-.033.105-.033.106-.031.106-.029.107-.029.107-.027.108-.025.108-.025.109-.023.11-.022.11-.02.11-.019.111-.018.111-.017.112-.015.112-.013.113-.012.113-.011.114-.01.114-.008.115-.006.115-.005.115-.004.116-.002.116-.001.117.001.117.002.116.004.116.005.115.006.115.008.115.01.114.011.114.012.113.013.113.015.112.017.112.018.111.019.111.02.11.022.11.023.11.025.109.025.108.027.108.029.107.029.107.031.106.033.106.033.105.035.105.036.104.037.103.038.103.04.103.041.101.042.101.043.101.045.1.045.099.047.099.048.097.049.098.05.096.052.096.052.096.054.094.055.094.056.093.056.093.058.091.06.091.06.091.061.089.062.089.064.088.064.087.065.086.067.086.067.084.069.084.069.083.07.082.072.082.072.08.073.08.074.079.076.077.076.077.077.076.077.076.079.074.08.073.08.072.082.072.082.07.083.069.084.069.084.067.086.067.086.065.087.064.088.064.089.062.089.061.091.06.091.059.091.059.093.057.093.055.094.055.094.054.096.052.096.052.096.05.098.049.097.048.099.047.099.045.1.045.101.043.101.042.101.041.103.04.103.038.103.037.104.036.105.035.105.033.106.033.106.031.107.029.107.029.108.027.108.025.109.025.11.023.11.022.11.02.111.019.111.018.112.017.112.015.113.013.113.012.114.011.114.01.115.008.115.006.115.005.116.004.116.002.117.001.117-.001.116-.002.116-.004.115-.005.115-.006.115-.008.114-.01.114-.011.113-.012.113-.013.112-.015.112-.017.111-.018.111-.019.11-.02.11-.022.11-.023.109-.025.108-.025.108-.027.107-.029.107-.029.106-.031.106-.033.105-.033.105-.035.104-.036.103-.037.103-.038.103-.04.101-.041.101-.042.101-.043.1-.045.099-.045.099-.047.097-.048.098-.049.096-.05.096-.052.096-.052.094-.054.094-.055.093-.055.093-.057.091-.059.091-.059.091-.06.089-.061.089-.062.088-.064.087-.064.086-.065.086-.067.084-.067.084-.069.083-.069.082-.07.082-.072.08-.072.08-.073.079-.074.077-.076.077-.076.076-.077.076-.077.074-.079.073-.08.072-.08.072-.082.07-.082.069-.083.069-.084.067-.084.067-.086.065-.086.064-.087.064-.088.062-.089.061-.089.06-.091.059-.091.059-.091.056-.093.056-.093.055-.094.054-.094.052-.096.052-.096.05-.096.049-.097.048-.098.047-.099.045-.099.045-.1.043-.101.042-.101.041-.101.04-.103.038-.103.037-.103.036-.104.035-.105.033-.105.033-.106.031-.106.029-.107.029-.107.027-.108.025-.108.025-.109.023-.11.022-.11.02-.11.019-.111.018-.111.016-.112.016-.112.013-.113.012-.113.011-.114.01-.114.008-.115.006-.115.005-.115.004-.116.002-.116.001-.117-.001-.117-.002-.116-.004-.116-.005-.115-.006-.115-.008-.115-.01-.114-.011-.114-.012-.113-.013-.113-.016-.112-.016-.112-.018-.111-.019-.111-.02-.11-.022-.11-.023-.11-.025-.109-.025-.108-.027-.108-.029-.107-.029-.107-.031-.106-.033-.106-.033-.105-.035-.105-.036-.104-.037-.103-.038-.103-.04-.103-.041-.101-.042-.101-.043-.101-.045-.1-.045-.099-.047-.099-.048-.098-.049-.097-.05-.096-.052-.096-.052-.096-.054-.094-.055-.094-.056-.093-.056-.093-.058-.091-.06-.091-.06-.091-.061-.089-.062-.089-.064-.088-.064-.087-.065-.086-.067-.086-.067-.084-.069-.084-.069-.083-.07-.082-.072-.082-.072-.08-.073-.08-.074-.079-.076-.077-.076-.077-.077-.076-.077-.076-.079-.074-.08-.073-.08-.072-.082-.072-.082-.07-.083-.069-.084-.069-.084-.067-.086-.067-.086-.065-.087-.064-.088-.064-.089-.062-.089-.061-.091-.06-.091-.06-.091-.058-.093-.056-.093-.056-.094-.055-.094-.054-.096-.052-.096-.052-.096-.05-.098-.049-.097-.048-.099-.047-.099-.045-.1-.045-.101-.043-.101-.042-.101-.041-.103-.04-.103-.038-.103-.037-.104-.036-.105-.035-.105-.033-.106-.033-.106-.031-.107-.029-.107-.029-.108-.027-.108-.025-.109-.025-.11-.023-.11-.022-.11-.02-.111-.019-.111-.018-.112-.017-.112-.015-.113-.013-.113-.012-.114-.011-.114-.01-.115-.008-.115-.006-.115-.005-.116-.004-.116-.002-.117-.001z"/><path d="m3 15h3v2h-3z"/><path d="m26 15h3v2h-3z"/></g><path d="m16.167 2.001.167.003.167.005.166.008.166.009.165.012.164.013.164.016.164.018.163.019.162.022.162.024.161.025.16.028.16.03.159.031.159.034.157.035.157.037.157.04.155.041.155.043.154.045.153.046.152.049.152.05.151.052.15.054.149.056.148.057.147.059.147.061.145.063.145.064.143.066.143.068.141.069.141.071.14.073.139.074.137.076.137.078.135.079.135.08.133.083.133.083.131.086.13.087.129.088.128.09.127.091.126.093.124.094.124.096.122.097.12.099.12.1.119.101.117.103.116.104.115.106.113.106.112.109.111.109.109.111.109.112.106.113.106.115.104.116.103.117.101.119.1.119.099.121.097.122.096.124.094.124.093.126.091.127.09.128.088.129.087.13.086.131.083.133.083.133.08.135.079.135.078.137.076.137.074.139.073.14.071.141.069.141.068.143.066.143.064.145.063.145.061.147.059.147.057.148.056.149.054.15.052.151.05.152.049.152.046.153.045.154.043.155.041.155.039.157.038.157.035.158.034.158.031.159.03.16.028.16.025.161.024.162.022.162.019.163.018.164.016.164.013.164.012.165.009.166.008.166.005.167.003.167.001.167-.001.167-.003.167-.005.167-.008.166-.009.166-.012.165-.013.164-.016.164-.018.164-.019.163-.022.162-.024.162-.025.161-.028.16-.03.16-.031.159-.034.158-.035.158-.038.157-.039.157-.041.155-.043.155-.045.154-.046.153-.049.152-.05.152-.052.151-.054.15-.056.149-.057.148-.059.147-.061.147-.063.145-.064.145-.066.143-.068.143-.069.141-.071.141-.073.14-.074.139-.076.137-.078.137-.079.135-.08.135-.083.133-.083.133-.086.131-.087.13-.088.129-.09.128-.091.127-.093.126-.094.124-.096.124-.097.122-.099.121-.1.119-.101.119-.103.117-.104.116-.106.115-.106.113-.109.112-.109.111-.111.109-.112.109-.113.106-.115.106-.116.104-.117.103-.119.101-.12.1-.12.099-.122.097-.124.096-.124.094-.126.093-.127.091-.128.09-.129.088-.13.087-.131.086-.133.083-.133.083-.135.08-.135.079-.137.078-.137.076-.139.074-.14.073-.141.071-.141.069-.143.068-.143.066-.145.064-.145.063-.147.061-.147.059-.148.057-.149.056-.15.054-.151.052-.152.05-.152.049-.153.046-.154.045-.155.043-.156.041-.156.039-.157.038-.157.035-.159.034-.159.031-.16.03-.16.028-.161.025-.162.024-.162.022-.163.019-.164.018-.164.016-.164.013-.165.012-.166.009-.166.008-.167.005-.167.003-.167.001-.167-.001-.167-.003-.167-.005-.166-.008-.166-.009-.165-.012-.164-.013-.164-.016-.164-.018-.163-.019-.162-.022-.162-.024-.161-.025-.16-.028-.16-.03-.159-.031-.159-.034-.157-.035-.157-.038-.156-.039-.156-.041-.155-.043-.154-.045-.153-.046-.152-.049-.152-.05-.151-.052-.15-.054-.149-.056-.148-.057-.147-.059-.147-.061-.145-.063-.145-.064-.143-.066-.143-.068-.141-.069-.141-.071-.14-.073-.139-.074-.137-.076-.137-.078-.135-.079-.135-.08-.133-.083-.133-.083-.131-.086-.13-.087-.129-.088-.128-.09-.127-.091-.126-.093-.124-.094-.124-.096-.122-.097-.12-.099-.12-.1-.119-.101-.117-.103-.116-.104-.115-.106-.113-.106-.112-.109-.111-.109-.109-.111-.109-.112-.106-.113-.106-.115-.104-.116-.103-.117-.101-.119-.1-.12-.099-.12-.097-.122-.096-.124-.094-.124-.093-.126-.091-.127-.09-.128-.088-.129-.087-.13-.086-.131-.083-.133-.083-.133-.08-.135-.079-.135-.078-.137-.076-.137-.074-.139-.073-.14-.071-.141-.069-.141-.068-.143-.066-.143-.064-.145-.063-.145-.061-.147-.059-.147-.057-.148-.056-.149-.054-.15-.052-.151-.05-.152-.049-.152-.046-.153-.045-.154-.043-.155-.041-.156-.039-.156-.038-.157-.035-.157-.034-.159-.031-.159-.03-.16-.028-.16-.025-.161-.024-.162-.022-.162-.019-.163-.018-.164-.016-.164-.013-.164-.012-.165-.009-.166-.008-.166-.005-.167-.003-.167-.001-.167.001-.167.003-.167.005-.167.008-.166.009-.166.012-.165.013-.164.016-.164.018-.164.019-.163.022-.162.024-.162.025-.161.028-.16.03-.16.031-.159.034-.159.035-.157.038-.157.039-.156.041-.156.043-.155.045-.154.046-.153.049-.152.05-.152.052-.151.054-.15.056-.149.057-.148.059-.147.061-.147.063-.145.064-.145.066-.143.068-.143.069-.141.071-.141.073-.14.074-.139.076-.137.078-.137.079-.135.08-.135.083-.133.083-.133.086-.131.087-.13.088-.129.09-.128.091-.127.093-.126.094-.124.096-.124.097-.122.099-.12.1-.12.101-.119.103-.117.104-.116.106-.115.106-.113.109-.112.109-.111.111-.109.112-.109.113-.106.115-.106.116-.104.117-.103.119-.101.12-.1.12-.099.122-.097.124-.096.124-.094.126-.093.127-.091.128-.09.129-.088.13-.087.131-.086.133-.083.133-.083.135-.08.135-.079.137-.078.137-.076.139-.074.14-.073.141-.071.141-.069.143-.068.143-.066.145-.064.145-.063.147-.061.147-.059.148-.057.149-.056.15-.054.151-.052.152-.05.152-.049.153-.046.154-.045.155-.043.155-.041.157-.04.157-.037.157-.035.159-.034.159-.031.16-.03.16-.028.161-.025.162-.024.162-.022.163-.019.164-.018.164-.016.164-.013.165-.012.166-.009.166-.008.167-.005.167-.003.167-.001zm-.284 4-.116.002-.116.004-.115.005-.115.006-.115.008-.114.01-.114.011-.113.012-.113.013-.112.015-.112.017-.111.018-.111.019-.11.02-.11.022-.11.023-.109.025-.108.025-.108.027-.107.029-.107.029-.106.031-.106.033-.105.033-.105.035-.104.036-.103.037-.103.038-.103.04-.101.041-.101.042-.101.043-.1.045-.099.045-.099.047-.097.048-.098.049-.096.05-.096.052-.096.052-.094.054-.094.055-.093.056-.093.056-.091.058-.091.06-.091.06-.089.061-.089.062-.088.064-.087.064-.086.065-.086.067-.084.067-.084.069-.083.069-.082.07-.082.072-.08.072-.08.073-.079.074-.077.076-.077.076-.076.077-.076.077-.074.079-.073.08-.072.08-.072.082-.07.082-.069.083-.069.084-.067.084-.067.086-.065.086-.064.087-.064.088-.062.089-.061.089-.06.091-.06.091-.058.091-.056.093-.056.093-.055.094-.054.094-.052.096-.052.096-.05.096-.049.098-.048.097-.047.099-.045.099-.045.1-.043.101-.042.101-.041.101-.04.103-.038.103-.037.103-.036.104-.035.105-.033.105-.033.106-.031.106-.029.107-.029.107-.027.108-.025.108-.025.109-.023.11-.022.11-.02.11-.019.111-.018.111-.017.112-.015.112-.013.113-.012.113-.011.114-.01.114-.008.115-.006.115-.005.115-.004.116-.002.116-.001.117.001.117.002.116.004.116.005.115.006.115.008.115.01.114.011.114.012.113.013.113.015.112.017.112.018.111.019.111.02.11.022.11.023.11.025.109.025.108.027.108.029.107.029.107.031.106.033.106.033.105.035.105.036.104.037.103.038.103.04.103.041.101.042.101.043.101.045.1.045.099.047.099.048.097.049.098.05.096.052.096.052.096.054.094.055.094.056.093.056.093.058.091.06.091.06.091.061.089.062.089.064.088.064.087.065.086.067.086.067.084.069.084.069.083.07.082.072.082.072.08.073.08.074.079.076.077.076.077.077.076.077.076.079.074.08.073.08.072.082.072.082.07.083.069.084.069.084.067.086.067.086.065.087.064.088.064.089.062.089.061.091.06.091.06.091.058.093.056.093.056.094.055.094.054.096.052.096.052.096.05.098.049.097.048.099.047.099.045.1.045.101.043.101.042.101.041.103.04.103.038.103.037.104.036.105.035.105.033.106.033.106.031.107.029.107.029.108.027.108.025.109.025.11.023.11.022.11.02.111.019.111.018.112.017.112.015.113.013.113.012.114.011.114.01.115.008.115.006.115.005.116.004.116.002.117.001.117-.001.116-.002.116-.004.115-.005.115-.006.115-.008.114-.01.114-.011.113-.012.113-.013.112-.015.112-.017.111-.018.111-.019.11-.02.11-.022.11-.023.109-.025.108-.025.108-.027.107-.029.107-.029.106-.031.106-.033.105-.033.105-.035.104-.036.103-.037.103-.038.103-.04.101-.041.101-.042.101-.043.1-.045.099-.045.099-.047.097-.048.098-.049.096-.05.096-.052.096-.052.094-.054.094-.055.093-.056.093-.056.091-.058.091-.06.091-.06.089-.061.089-.062.088-.064.087-.064.086-.065.086-.067.084-.067.084-.069.083-.069.082-.07.082-.072.08-.072.08-.073.079-.074.077-.076.077-.076.076-.077.076-.077.074-.079.073-.08.072-.08.072-.082.07-.082.069-.083.069-.084.067-.084.067-.086.065-.086.064-.087.064-.088.062-.089.061-.089.06-.091.06-.091.058-.091.056-.093.056-.093.055-.094.054-.094.052-.096.052-.096.05-.096.049-.097.048-.098.047-.099.045-.099.045-.1.043-.101.042-.101.041-.101.04-.103.038-.103.037-.103.036-.104.035-.105.033-.105.033-.106.031-.106.029-.107.029-.107.027-.108.025-.108.025-.109.023-.11.022-.11.02-.11.019-.111.018-.111.016-.112.016-.112.013-.113.012-.113.011-.114.01-.114.008-.115.006-.115.005-.115.004-.116.002-.116.001-.117-.001-.117-.002-.116-.004-.116-.005-.115-.006-.115-.008-.115-.01-.114-.011-.114-.012-.113-.013-.113-.016-.112-.016-.112-.018-.111-.019-.111-.02-.11-.022-.11-.023-.11-.025-.109-.025-.108-.027-.108-.029-.107-.029-.107-.031-.106-.033-.106-.033-.105-.035-.105-.036-.104-.037-.103-.038-.103-.04-.103-.041-.101-.042-.101-.043-.101-.045-.1-.045-.099-.047-.099-.048-.098-.049-.097-.05-.096-.052-.096-.052-.096-.054-.094-.055-.094-.056-.093-.056-.093-.058-.091-.06-.091-.06-.091-.061-.089-.062-.089-.064-.088-.064-.087-.065-.086-.067-.086-.067-.084-.069-.084-.069-.083-.07-.082-.072-.082-.072-.08-.073-.08-.074-.079-.076-.077-.076-.077-.077-.076-.077-.076-.079-.074-.08-.073-.08-.072-.082-.072-.082-.07-.083-.069-.084-.069-.084-.067-.086-.067-.086-.065-.087-.064-.088-.064-.089-.062-.089-.061-.091-.06-.091-.06-.091-.058-.093-.056-.093-.056-.094-.055-.094-.054-.096-.052-.096-.052-.096-.05-.098-.049-.097-.048-.099-.047-.099-.045-.1-.045-.101-.043-.101-.042-.101-.041-.103-.04-.103-.038-.103-.037-.104-.036-.105-.035-.105-.033-.106-.033-.106-.031-.107-.029-.107-.029-.108-.027-.108-.025-.109-.025-.11-.023-.11-.022-.11-.02-.111-.019-.111-.018-.112-.017-.112-.015-.113-.013-.113-.012-.114-.011-.114-.01-.115-.008-.115-.006-.115-.005-.116-.004-.116-.002-.117-.001z" fill="#e02a33"/><path d="m25.828 8-16.828 16.828-2.828-2.828 16.828-16.828z" fill="#e02a33"/></g></svg>