<svg clip-rule="evenodd" fill-rule="evenodd" stroke-linejoin="round" stroke-miterlimit="1.41421" viewBox="0 0 32 32" xmlns="http://www.w3.org/2000/svg" xmlns:xlink="http://www.w3.org/1999/xlink"><clipPath id="a"><path clip-rule="evenodd" d="m0 0h32v32h-32z"/></clipPath><metadata/><path d="m0 0h32v32h-32z" fill="none"/><g clip-path="url(#a)"><path d="m31 15c0-3.978-1.58-7.794-4.393-10.607s-6.629-4.393-10.607-4.393c-3.978 0-7.794 1.58-10.607 4.393s-4.393 6.629-4.393 10.607v2c0 3.978 1.58 7.794 4.393 10.607s6.629 4.393 10.607 4.393c3.978 0 7.794-1.58 10.607-4.393s4.393-6.629 4.393-10.607c0-.666 0-1.334 0-2z"/><path d="m29 14h-26v3c0 3.448 1.37 6.754 3.808 9.192s5.744 3.808 9.192 3.808c3.448 0 6.754-1.37 9.192-3.808s3.808-5.744 3.808-9.192c0-1.774 0-3 0-3z" fill="#93151c"/><circle cx="16" cy="15" fill="#e02a33" r="13"/><path d="m26 13c0-.265-.105-.52-.293-.707-.187-.188-.442-.293-.707-.293-3.414 0-14.586 0-18 0-.265 0-.52.105-.707.293-.188.187-.293.442-.293.707v4c0 .265.105.52.293.707.187.188.442.293.707.293h18c.265 0 .52-.105.707-.293.188-.187.293-.442.293-.707 0-1.11 0-2.89 0-4z" fill="#fff"/></g></svg>