<svg clip-rule="evenodd" fill-rule="evenodd" stroke-linejoin="round" stroke-miterlimit="1.41421" viewBox="0 0 32 32" xmlns="http://www.w3.org/2000/svg" xmlns:xlink="http://www.w3.org/1999/xlink"><clipPath id="a"><path clip-rule="evenodd" d="m0 0h32v32h-32z"/></clipPath><metadata/><path d="m0 0h32v32h-32z" fill="none"/><g clip-path="url(#a)"><path d="m32 8c0-4.418-3.582-8-8-8-4.887 0-11.113 0-16 0-4.418 0-8 3.582-8 8v16c0 4.418 3.582 8 8 8h16c4.418 0 8-3.582 8-8 0-4.887 0-11.113 0-16z"/><path d="m30 8c0-1.591-.632-3.117-1.757-4.243-1.126-1.125-2.652-1.757-4.243-1.757-4.724 0-11.276 0-16 0-1.591 0-3.117.632-4.243 1.757-1.125 1.126-1.757 2.652-1.757 4.243v16c0 1.591.632 3.117 1.757 4.243 1.126 1.125 2.652 1.757 4.243 1.757h16c1.591 0 3.117-.632 4.243-1.757 1.125-1.126 1.757-2.652 1.757-4.243 0-4.724 0-11.276 0-16z" fill="#ef9b00"/><path d="m6.244 18.157-.99-2.09c2.875-1.936 4.972-4.18 6.292-6.732h-5.61v-1.936h6.468c.249-.616.477-1.305.682-2.068l2.442.176c-.161.602-.359 1.232-.594 1.892h10.582v1.936h-11.374c-.411.822-.792 1.511-1.144 2.068h11.044v10.956c0 1.247-.176 2.065-.528 2.453-.352.389-1.188.583-2.508.583-.323 0-1.408-.044-3.256-.132l-.044-1.914c1.687.074 2.655.11 2.904.11.499 0 .792-.025.88-.077.088-.051.132-.231.132-.539v-1.694h-9.68v4.29h-2.42v-9.856c-1.027.939-2.119 1.797-3.278 2.574zm5.698-4.862v2.134h9.68v-2.134zm0 3.894v2.2h9.68v-2.2z" fill="#fff" fill-rule="nonzero"/></g></svg>