<svg clip-rule="evenodd" fill-rule="evenodd" stroke-linejoin="round" stroke-miterlimit="1.41421" viewBox="0 0 32 32" xmlns="http://www.w3.org/2000/svg" xmlns:xlink="http://www.w3.org/1999/xlink"><clipPath id="a"><path clip-rule="evenodd" d="m0 0h32v32h-32z"/></clipPath><metadata/><path d="m0 0h32v32h-32z" fill="none"/><g clip-path="url(#a)"><path d="m32 8c0-4.418-3.582-8-8-8-4.887 0-11.113 0-16 0-4.418 0-8 3.582-8 8v16c0 4.418 3.582 8 8 8h16c4.418 0 8-3.582 8-8 0-4.887 0-11.113 0-16z"/><path d="m30 8c0-1.591-.632-3.117-1.757-4.243-1.126-1.125-2.652-1.757-4.243-1.757-4.724 0-11.276 0-16 0-1.591 0-3.117.632-4.243 1.757-1.125 1.126-1.757 2.652-1.757 4.243v16c0 1.591.632 3.117 1.757 4.243 1.126 1.125 2.652 1.757 4.243 1.757h16c1.591 0 3.117-.632 4.243-1.757 1.125-1.126 1.757-2.652 1.757-4.243 0-4.724 0-11.276 0-16z" fill="#fff"/><g fill="#333" fill-rule="nonzero"><path d="m10.403 6.702-2.129 1.23v-1.954l2.129-1.26h1.897v9.991h-1.897z"/><path d="m17.696 13.203 3.736-3.996c.319-.309.541-.587.666-.833.126-.246.188-.514.188-.804v-.159c0-.386-.128-.69-.383-.912-.256-.222-.606-.333-1.05-.333-.435 0-.777.106-1.028.318-.251.213-.377.507-.377.884v.231h-1.81v-.347c0-.821.29-1.475.869-1.962.579-.488 1.371-.731 2.375-.731.676 0 1.264.118 1.766.354.502.237.886.567 1.152.992.265.425.398.912.398 1.463v.188c0 .512-.102.975-.304 1.39-.203.415-.517.835-.942 1.26l-2.693 2.838h3.953v1.665h-6.516z"/><path d="m8.258 26.365c-.569-.468-.854-1.142-.854-2.02v-.159h1.767v.115c0 .377.13.664.391.862.26.198.637.297 1.129.297.483 0 .854-.118 1.115-.355.261-.236.391-.567.391-.992v-.217c0-.454-.138-.789-.413-1.006-.275-.218-.692-.326-1.252-.326h-.565v-1.608h.55c.493 0 .867-.106 1.122-.318.256-.212.384-.517.384-.912v-.174c0-.377-.12-.669-.362-.876-.241-.208-.584-.312-1.028-.312-.454 0-.801.102-1.042.305-.242.202-.362.492-.362.868v.131h-1.738v-.131c0-.897.275-1.585.825-2.063.551-.478 1.337-.717 2.361-.717 1.004 0 1.79.232 2.36.695.569.464.854 1.101.854 1.912v.188c0 .463-.118.869-.355 1.216-.236.348-.581.623-1.035.826.512.173.9.458 1.166.854.265.396.398.878.398 1.448v.232c0 .907-.302 1.624-.905 2.15s-1.417.789-2.44.789c-1.072 0-1.892-.234-2.462-.702z"/><path d="m24.596 25.315h-.912v1.593h-1.897v-1.593h-4.532v-1.665l3.2-6.734h1.94l-3.215 6.734h2.607v-2.346h1.897v2.346h.912z"/></g></g></svg>