<svg clip-rule="evenodd" fill-rule="evenodd" stroke-linecap="square" stroke-linejoin="round" stroke-miterlimit="1.5" viewBox="0 0 32 32" xmlns="http://www.w3.org/2000/svg" xmlns:xlink="http://www.w3.org/1999/xlink"><clipPath id="a"><path clip-rule="evenodd" d="m0 0h32v32h-32z"/></clipPath><clipPath id="b"><path clip-rule="evenodd" d="m3 2c-.552 0-1 .448-1 1v9.586c0 .404.244.769.617.924.374.154.804.069 1.09-.217 2.491-2.491 7.095-7.095 9.586-9.586.286-.286.371-.716.217-1.09-.155-.373-.52-.617-.924-.617-2.877 0-7.551 0-9.586 0z"/></clipPath><metadata/><path d="m0 0h32v32h-32z" fill="none"/><g clip-path="url(#a)"><path d="m6 6 21 21" fill="none" stroke="#000" stroke-width="6"/><path d="m3 2c-.552 0-1 .448-1 1v9.586c0 .404.244.769.617.924.374.154.804.069 1.09-.217 2.491-2.491 7.095-7.095 9.586-9.586.286-.286.371-.716.217-1.09-.155-.373-.52-.617-.924-.617-2.877 0-7.551 0-9.586 0z" fill="#334c68" stroke="#000" stroke-width="4"/><circle cx="13" cy="13" r="8"/><path d="m24.172 12.151c-.391-.391-1.024-.391-1.415 0-2.131 2.131-8.475 8.475-10.606 10.606-.391.391-.391 1.024 0 1.415l2.121 2.121c.391.39 1.024.39 1.414 0 2.131-2.131 8.476-8.476 10.607-10.607.39-.39.39-1.023 0-1.414-.616-.616-1.505-1.505-2.121-2.121z" fill="#ae9660" stroke="#000" stroke-width="4"/><path d="m6 6 21 21" fill="none" stroke="#a78847" stroke-width="2"/><circle cx="13" cy="13" fill="#d19644" r="6"/><path d="m24.172 12.151c-.391-.391-1.024-.391-1.415 0-2.131 2.131-8.475 8.475-10.606 10.606-.391.391-.391 1.024 0 1.415l2.121 2.121c.391.39 1.024.39 1.414 0 2.131-2.131 8.476-8.476 10.607-10.607.39-.39.39-1.023 0-1.414-.616-.616-1.505-1.505-2.121-2.121z" fill="#c7c2be"/><path d="m3 2c-.552 0-1 .448-1 1v9.586c0 .404.244.769.617.924.374.154.804.069 1.09-.217 2.491-2.491 7.095-7.095 9.586-9.586.286-.286.371-.716.217-1.09-.155-.373-.52-.617-.924-.617-2.877 0-7.551 0-9.586 0z" fill="#677aa0"/><g clip-path="url(#b)" fill="#425273"><circle cx="5.5" cy="5.5" r="1.5"/><circle cx="8.5" cy="2.5" r="1.5"/><circle cx="2.5" cy="2.5" r="1.5"/><circle cx="2.5" cy="8.5" r="1.5"/></g><g fill="#ac7931"><path d="m14 9c0-.552-.448-1-1-1s-1 .448-1 1v2c0 .552.448 1 1 1s1-.448 1-1c0-.611 0-1.389 0-2z"/><path d="m17 14c.552 0 1-.448 1-1s-.448-1-1-1c-.611 0-1.389 0-2 0-.552 0-1 .448-1 1s.448 1 1 1z"/><path d="m14 15c0-.552-.448-1-1-1s-1 .448-1 1v2c0 .552.448 1 1 1s1-.448 1-1c0-.611 0-1.389 0-2z"/><path d="m11 14c.552 0 1-.448 1-1s-.448-1-1-1c-.611 0-1.389 0-2 0-.552 0-1 .448-1 1s.448 1 1 1z"/></g></g></svg>