<svg clip-rule="evenodd" fill-rule="evenodd" stroke-linejoin="round" stroke-miterlimit="1.41421" viewBox="0 0 32 32" xmlns="http://www.w3.org/2000/svg" xmlns:xlink="http://www.w3.org/1999/xlink"><clipPath id="a"><path clip-rule="evenodd" d="m0 0h32v32h-32z"/></clipPath><metadata/><path d="m0 0h32v32h-32z" fill="none"/><g clip-path="url(#a)"><path d="m21 11.102c.1.103.198.208.292.317.442.51.81 1.084 1.088 1.7.605 1.336.772 2.853.478 4.29-.138.673-.376 1.325-.704 1.929-.31.57-.7 1.096-1.154 1.56v3.102h-1v.171c.057.02.113.042.169.065.806.341 1.436 1.036 1.696 1.872.06.192.1.389.12.588.013.129.012.155.015.279v5.025h-12v-5.025c.003-.124.002-.15.015-.279.02-.199.06-.396.12-.588.275-.884.963-1.608 1.834-1.926.01-.004.02-.008.031-.011v-.171h-1v-3.102c-.454-.464-.844-.99-1.154-1.56-.328-.604-.566-1.256-.704-1.929-.282-1.38-.14-2.837.409-4.134.264-.623.618-1.206 1.049-1.728.127-.154.26-.302.4-.445v-11.102h10z"/><path d="m13 2h6v20h-6z" fill="#e5e5e5"/><circle cx="16" cy="16" fill="#e5e5e5" r="5"/><circle cx="16" cy="16" fill="#f6c738" r="4"/><circle cx="16" cy="18" fill="#fce9b0" r="2"/><circle cx="16" cy="18" fill="#fff" r="1"/><path d="m18 21-1-1h-2l-1 1v6h4z" fill="#915732"/><path d="m20 27c0-.552-.448-1-1-1-1.537 0-4.463 0-6 0-.552 0-1 .448-1 1v3h8s0-1.815 0-3z" fill="#be916a"/><path d="m16 2h-2v8c0 .265.105.52.293.707.187.188.442.293.707.293.265 0 .52-.105.707-.293.188-.187.293-.442.293-.707 0-2.345 0-8 0-8z" fill="#fff"/></g></svg>