<svg clip-rule="evenodd" fill-rule="evenodd" stroke-linejoin="round" stroke-miterlimit="1.41421" viewBox="0 0 32 32" xmlns="http://www.w3.org/2000/svg" xmlns:xlink="http://www.w3.org/1999/xlink"><clipPath id="a"><path clip-rule="evenodd" d="m0 0h32v32h-32z"/></clipPath><metadata/><path d="m0 0h32v32h-32z" fill="none"/><g clip-path="url(#a)"><path d="m32 8c0-4.418-3.582-8-8-8-4.887 0-11.113 0-16 0-4.418 0-8 3.582-8 8v16c0 4.418 3.582 8 8 8h16c4.418 0 8-3.582 8-8 0-4.887 0-11.113 0-16z"/><path d="m30 8c0-1.591-.632-3.117-1.757-4.243-1.126-1.125-2.652-1.757-4.243-1.757-4.724 0-11.276 0-16 0-1.591 0-3.117.632-4.243 1.757-1.125 1.126-1.757 2.652-1.757 4.243v16c0 1.591.632 3.117 1.757 4.243 1.126 1.125 2.652 1.757 4.243 1.757h16c1.591 0 3.117-.632 4.243-1.757 1.125-1.126 1.757-2.652 1.757-4.243 0-4.724 0-11.276 0-16z" fill="#4cbf1e"/><g fill="#fff" fill-rule="nonzero"><path d="m9.75 22.808c-3.167 0-4.75-1.763-4.75-5.289v-3.038c0-3.526 1.609-5.289 4.827-5.289 1.474 0 2.641.414 3.5 1.241s1.288 2.176 1.288 4.048v3.038c0 1.872-.439 3.221-1.317 4.048s-2.061 1.241-3.548 1.241zm.077-2.25c.769 0 1.34-.247 1.711-.741.372-.493.558-1.272.558-2.336v-2.866c0-1.128-.186-1.945-.558-2.452-.371-.506-.942-.759-1.711-.759-.808 0-1.391.247-1.75.74-.359.494-.539 1.318-.539 2.471v2.866c0 1.09.18 1.875.539 2.356.359.48.942.721 1.75.721z"/><path d="m20.788 16.75-1.75 2.192v3.712h-2.519v-13.269h2.519v6.192l4.597-6.192h3.019l-4.25 5.327 4.596 7.942h-2.923z"/></g></g></svg>