<svg clip-rule="evenodd" fill-rule="evenodd" stroke-linecap="round" stroke-miterlimit="2" viewBox="0 0 32 32" xmlns="http://www.w3.org/2000/svg" xmlns:xlink="http://www.w3.org/1999/xlink"><clipPath id="a"><path clip-rule="evenodd" d="m0 0h32v32h-32z"/></clipPath><metadata/><path d="m0 0h32v32h-32z" fill="none"/><g clip-path="url(#a)"><g stroke="#000" stroke-width="4"><path d="m19.745 30c1.084 0 2.084-.585 2.615-1.529 1.042-1.852 2.737-4.865 3.381-6.01.17-.302.259-.643.259-.99 0-.861 0-2.471 0-2.471h-6s-.575 1.726-.853 2.56c-.093.279-.305.503-.578.612-.735.294-2.259.904-3.345 1.338-.742.297-1.591.123-2.157-.443-.521-.521-1.067-1.067-1.067-1.067v-.343c0-1.061-.421-2.078-1.172-2.829-1.18-1.18-2.828-2.828-2.828-2.828v5.675c0 .215.035.429.103.633.177.532.542 1.627.748 2.244.098.295.263.562.483.782.835.835 3.025 3.025 4.08 4.08.375.375.884.586 1.414.586z" fill="none"/><path d="m24.894 17.211-1.788 3.578-7.578-3.789h-1.528v-4h2c.31 0 .617.072.894.211 1.707.853 8 4 8 4z" fill="none" stroke-linecap="butt" stroke-miterlimit="3"/><path d="m9 13s.965 1.286 1.8 2.4c.755 1.007 1.941 1.6 3.2 1.6v-4z" fill="none" stroke-miterlimit="3"/><path d="m25.789 9.106c.139.277.211.584.211.894v8h-4v-7.528s-.503-1.006-1.048-2.096c-.828-1.657-.673-3.635.403-5.142.485-.679.881-1.234.881-1.234 1.132 2.264 2.405 4.809 3.553 7.106z" fill="none" stroke-linecap="butt" stroke-miterlimit="3"/><path d="m24.828 10-2.828 2.828s-1.944-1.944-3.365-3.365c-.918-.917-1.333-2.224-1.113-3.503.226-1.318.478-2.788.478-2.788z" fill="#565656" fill-rule="nonzero" stroke-linecap="butt" stroke-miterlimit="3"/></g><path d="m19.737 30c1.089 0 2.093-.587 2.627-1.536 1.042-1.853 2.734-4.86 3.377-6.003.17-.302.259-.643.259-.99 0-.861 0-2.471 0-2.471h-6s-.575 1.726-.853 2.56c-.093.279-.305.503-.578.612-.735.294-2.259.904-3.345 1.338-.742.297-1.591.123-2.157-.443-.521-.521-1.067-1.067-1.067-1.067v-.343c0-1.061-.421-2.078-1.172-2.829-1.18-1.18-2.828-2.828-2.828-2.828v5.675c0 .215.035.429.103.633.177.532.542 1.627.748 2.244.098.295.263.562.483.782l4.08 4.08c.375.375.884.586 1.414.586z" fill="#ffc20b"/><path d="m24.828 10-2.828 2.828s-1.944-1.944-3.365-3.365c-.918-.917-1.333-2.224-1.113-3.503.226-1.318.478-2.788.478-2.788z" fill="#ce8d15" fill-rule="nonzero"/><path d="m23.528 19-1.528-.764v-4.472l.156-.764 3.685 2 .159.764v3.236z" fill="#ce8d15"/><path d="m22 13.764v-3.292s-.503-1.006-1.048-2.096c-.828-1.657-.673-3.635.403-5.142.485-.679.881-1.234.881-1.234 1.132 2.264 2.405 4.809 3.553 7.106.139.277.211.584.211.894v5.764z" fill="#ffc20b"/><path d="m24.894 17.211-1.788 3.578-7.578-3.789h-1.528v-4h2c.31 0 .617.072.894.211 1.707.853 8 4 8 4z" fill="#ffc20b" fill-rule="nonzero"/><path d="m9 13s.965 1.286 1.8 2.4c.755 1.007 1.941 1.6 3.2 1.6h1v-4z" fill="#ffc20b"/><circle cx="24" cy="19" fill="#ffc20b" r="2"/></g></svg>