<svg clip-rule="evenodd" fill-rule="evenodd" stroke-linejoin="round" stroke-miterlimit="2" viewBox="0 0 32 32" xmlns="http://www.w3.org/2000/svg" xmlns:xlink="http://www.w3.org/1999/xlink"><clipPath id="a"><path clip-rule="evenodd" d="m0 0h32v32h-32z"/></clipPath><metadata/><path d="m0 0h32v32h-32z" fill="none"/><g clip-path="url(#a)"><path d="m18.451 1.916c.196-.251.408-.492.636-.722.357-.36.597-.603.597-.603.768-.774 2.015-.79 2.803-.036 0 0 .153.146.382.365 1.498 1.434 2.739 3.115 3.666 4.97l2.043 4.085c.277.555.422 1.168.422 1.789v6.235.001 3.464c0 .699-.183 1.387-.53 1.994-.658 1.152-2.385 4.175-3.441 6.023-.89 1.558-2.547 2.519-4.341 2.519h-7.659c-1.292 0-2.504-.624-3.255-1.675-.257-.361-.581-.814-.935-1.31-2.497-3.495-3.839-7.683-3.839-11.978v-1.037c0-.664.329-1.284.879-1.656.407-.276.896-.389 1.373-.328l-.109-.273c-.205-.512-.189-1.085.043-1.584.231-.5.659-.882 1.182-1.056 0 0 .625-.209 1.305-.436 1.326-.442 2.715-.667 4.113-.667h.558c-1.089-1.826-1.422-4.039-.862-6.15.201-.761.357-1.348.357-1.348.139-.526.487-.972.963-1.236s1.039-.323 1.56-.162c.717.221 1.415.493 2.089.812z"/><g fill-rule="nonzero"><path d="m20 13.086-2.966-2.882c-1.556-1.511-2.175-3.744-1.619-5.841.202-.761.357-1.348.357-1.348.888.274 1.742.636 2.55 1.079-.2 2.114 1.678 8.85 1.678 8.85z" fill="#53390c"/><path d="m18.322 4.094c1.131.621 2.173 1.401 3.092 2.32 1.936 1.936 4.508 4.508 5.586 5.586l-4 4-3-2.914v-.142l-1.494-2.988c-.936-1.871-.967-4.013-.184-5.862z" fill="#3a2305"/><path d="m26.789 10.87c.139.277.211.583.211.894v8.236h-6v-7.292s-.776-1.552-1.6-3.199c-1.15-2.302-.705-5.08 1.107-6.907.357-.36.597-.602.597-.602s.153.146.382.365c1.333 1.275 2.436 2.77 3.26 4.419.607 1.213 1.352 2.704 2.043 4.086z" fill="#53390c"/></g><path d="m21 12.708 6 3v4.292h-6v-6l-.5-1z" fill="#3a2305"/><path d="m20.47 20.589s4.271-4.553 4.275-4.57l.56.279c1.003.486 1.695 1.514 1.695 2.702v2.464c0 .351-.092.696-.266 1.001-.657 1.151-2.381 4.168-3.438 6.016-.536.939-1.535 1.519-2.617 1.519h-7.65c-.646 0-1.252-.312-1.627-.838-.258-.36-.582-.813-.936-1.309-.435-.61-.831-1.242-1.187-1.894 1.29-2.414 2.984-2.706 5.018-3.365l.054.108c.097.193.254.35.447.447.323.162.843.422 1.223.612.299.149.653.139.944-.027.717-.409 2.076-1.186 2.703-1.544.214-.123.375-.319.453-.552z" fill="#7c6112"/><path d="m20.485 20.596-5.193-2.596h-.001c-2.592 0-4.922-1.578-5.885-3.984-.238-.596-.406-1.016-.406-1.016s.626-.209 1.306-.435c1.122-.374 2.297-.565 3.48-.565h2.218c.463 0 .92.108 1.334.315l7.407 3.704c-.313 1.117-.91 2.146-1.745 2.981-.718.718-1.579 1.259-2.515 1.596z" fill="#53390c"/><path d="m9.279 25.959c-1.49-2.726-2.279-5.792-2.279-8.922v-1.037s.758.303 1.684.673c2.136.855 3.884 2.464 4.913 4.522l.7 1.399c-1.065 1.745-2.859 3.022-5.018 3.365z" fill="#53390c"/></g></svg>