<svg clip-rule="evenodd" fill-rule="evenodd" stroke-linejoin="round" stroke-miterlimit="2" viewBox="0 0 32 32" xmlns="http://www.w3.org/2000/svg" xmlns:xlink="http://www.w3.org/1999/xlink"><clipPath id="a"><path clip-rule="evenodd" d="m0 0h32v32h-32z"/></clipPath><metadata/><path d="m0 0h32v32h-32z" fill="none"/><g clip-path="url(#a)"><path d="m19.565 1.494c.556-.519 1.188-.961 1.88-1.307.002 0 .002-.001.002-.001.988-.494 2.19-.093 2.683.895l4.448 8.894c.277.555.422 1.168.422 1.789v3.875 5.832c0 .69-.178 1.369-.516 1.97-.644 1.145-2.339 4.158-3.381 6.01-.885 1.575-2.551 2.549-4.358 2.549h-7.716c-1.292 0-2.504-.624-3.255-1.675-1.044-1.462-3.17-4.438-4.029-5.641-.485-.678-.745-1.491-.745-2.325v-6.359h2.674c-.432-.909-.674-1.926-.674-3v-3h7.824c-1.166-2.887-.579-6.317 1.762-8.657l.018-.018c.783-.763 2.035-.757 2.81.018l.151.151z"/><path d="m21 14.243-1-1-.419-.55-1.489-2.558c-.83-1.66-.736-3.687-.149-5.447.16-.48.454-.727 1.064-.924l5.736 7.736 2.257 4.208v3.292h-6z" fill="#88a00f"/><path d="m19.007 3.764c-.254.428-.464.885-.624 1.364-.587 1.761-.45 3.682.38 5.342l.206.413c-.921-1.325-2.051-2.612-2.569-2.513-.457-1.952.076-4.089 1.599-5.611.001-.001.001-.002.001-.002z" fill="#b8d419"/><path d="m20 13.243-2.001-2.002c-.821-.82-1.354-1.819-1.599-2.871.574-.11 1.172-.061 1.724.148.115.673.328 1.331.639 1.952l1.237 2.474z" fill="#72820a"/><path d="m21.83 13.123c.01-1.888-2.113-7.84-2.44-7.845.526-1.435 1.58-2.617 2.95-3.302.001-.001.002-.001.002-.001 1.482 2.965 2.964 5.93 4.447 8.894.139.278.211.584.211.895v3.944z" fill="#b8d419"/><path d="m21 12.708s-.603-1.206-1.343-2.685c-.711-1.423-.828-3.07-.325-4.579.019-.056.038-.111.058-.166.378.006.755.069 1.12.191.941.314 1.718.988 2.162 1.875.217.434.439.878.656 1.312.444.887.516 1.914.203 2.854-.243.728-.701 1.357-1.306 1.811z" fill="#72820a"/><path d="m20.47 20.589-4.47-2.235s-1.799-2.153-2.5-2.854-3.835-1.382-4.319-1.16c-.118-.427-.181-.876-.181-1.34v-1h7.236c.311 0 .617.072.895.211l8.174 4.087.182.096.002.001c.902.518 1.511 1.491 1.511 2.605v2.471c0 .347-.089.688-.259.99l-3.377 6.003c-.534.949-1.538 1.536-2.627 1.536-2.207 0-5.917 0-7.708 0-.646 0-1.252-.312-1.627-.838-1.044-1.461-3.17-4.438-4.029-5.64-.243-.34-.373-.746-.373-1.163v-4.359h1.028c-.06 1.155 5.046 4.068 5.834 3.723l.489.979c.097.193.254.35.447.447.323.162.843.422 1.223.612.299.149.653.139.944-.027.717-.409 2.076-1.186 2.703-1.544.214-.123.375-.319.453-.552z" fill="#b8d419"/><g fill="#72820a"><path d="m8.028 18h1.5c1.515 0 2.9.856 3.578 2.211l.756 1.512c-.788.345-1.717.35-2.545-.065-.536-.267-1.098-.549-1.634-.816-1.101-.551-1.715-1.687-1.655-2.842z"/><path d="m9.181 14.34c.484-.222 1.015-.34 1.558-.34h1.522c.992 0 1.943.394 2.644 1.095s1.095 1.652 1.095 2.643v.616l-.708-.354h-1.292c-2.297 0-4.233-1.549-4.819-3.66z"/></g></g></svg>