<svg clip-rule="evenodd" fill-rule="evenodd" stroke-linejoin="round" stroke-miterlimit="2" viewBox="0 0 32 32" xmlns="http://www.w3.org/2000/svg" xmlns:xlink="http://www.w3.org/1999/xlink"><clipPath id="a"><path clip-rule="evenodd" d="m0 0h32v32h-32z"/></clipPath><metadata/><path d="m0 0h32v32h-32z" fill="none"/><g clip-path="url(#a)"><path d="m16 11c.604 0 1.2.137 1.743.4l-.33-.33c-2.343-2.343-2.343-6.14 0-8.483.001-.001.001-.001.001-.001.482-.482 1.147-.666 1.77-.554.559-.763 1.295-1.389 2.156-1.82.001-.001.002-.001.002-.001.988-.494 2.189-.093 2.683.895l3.553 7.105c.277.556.422 1.168.422 1.789v11.471c0 .69-.178 1.369-.516 1.97-.644 1.145-2.339 4.158-3.381 6.01-.885 1.575-2.551 2.549-4.358 2.549h-5.917c-1.06 0-2.078-.421-2.828-1.172-1.056-1.055-3.245-3.245-4.08-4.08-.439-.439-.77-.974-.967-1.563-.205-.617-.57-1.712-.748-2.245-.136-.407-.205-.835-.205-1.265v-6.675h2c.116 0 .231.003.345.01l-.006-.016c-.143-.411-.243-.835-.295-1.267-.03-.241-.044-.484-.044-.727 0-.667 0-1.333 0-2zm-3.341 8c.221.626.341 1.299.341 2v.172l.54.54 3.879-1.293.068-.204-2.431-1.215z"/><path d="m22.37 13.199-3.543-3.544c-1.561-1.561-1.561-4.092 0-5.654.001-.001.001-.001.001-.001l5.172 5.172v4.762l1.71 1.066c.097.255.193.509.29.764v3.236h-2.472l-1.528-.764v-4.472z" fill="#7b24cc" fill-rule="nonzero"/><g fill="#925adb"><path d="m22 13.764v-3.292s-.759-1.518-1.554-3.107c-.474-.949-.552-2.047-.217-3.052.336-1.006 1.057-1.838 2.005-2.312.001-.001.002-.001.002-.001s2.759 5.518 3.553 7.106c.139.277.211.584.211.894v5.764z"/><path d="m13 17c-1.061 0-2.078-.421-2.828-1.172-.751-.75-1.172-1.767-1.172-2.828h7c.155.001.309.018.46.054.15.035.296.088.434.157l7.975 3.988c.669.323 1.131 1.009 1.131 1.801v2.471c0 .347-.089.688-.259.99-.643 1.143-2.335 4.15-3.377 6.003-.534.949-1.538 1.536-2.627 1.536h-5.909c-.53 0-1.039-.211-1.414-.586-1.055-1.055-3.245-3.245-4.08-4.08-.22-.22-.385-.487-.483-.782-.206-.617-.571-1.712-.748-2.244-.068-.204-.103-.418-.103-.633v-4.675h.026c2.197.014 3.974 1.799 3.974 4v1s.588.588 1.126 1.126c.536.536 1.328.723 2.047.483 1.325-.442 3.42-1.14 4.353-1.451.298-.099.533-.334.632-.632l.775-2.324-4.405-2.202z"/></g></g></svg>