<svg clip-rule="evenodd" fill-rule="evenodd" stroke-linejoin="round" stroke-miterlimit="1.41421" viewBox="0 0 32 32" xmlns="http://www.w3.org/2000/svg" xmlns:xlink="http://www.w3.org/1999/xlink"><clipPath id="a"><path clip-rule="evenodd" d="m0 0h32v32h-32z"/></clipPath><metadata/><path d="m0 0h32v32h-32z" fill="none"/><g clip-path="url(#a)"><path d="m30 22c0-3.314-2.686-6-6-6-4.724 0-11.276 0-16 0-3.314 0-6 2.686-6 6v4c0 3.314 2.686 6 6 6h16c3.314 0 6-2.686 6-6 0-1.308 0-2.692 0-4z"/><path d="m8 14.5h13v4h-13z"/><g fill-rule="nonzero"><path d="m9.621 13 1.5 1.5v2l-2.121 2.121-7.121-7.121v-2l7.121-7.121 2.121 2.121v2l-1.5 1.5h12.758l-1.5-1.5v-2l2.121-2.121 7.121 7.121v2l-7.121 7.121-2.121-2.121v-2l1.5-1.5z" fill="#747474" stroke="#000" stroke-width="4"/><path d="m7.621 13 3.5 1.5v2l-2.121 2.121-7.121-7.121v-2l7.121-5.121 2.121.121v2l-3.5 3.5h16.758l-3.5-3.5v-2l2.121-.121 7.121 5.121v2l-7.121 7.121-2.121-2.121v-2l3.5-1.5h-16.758z" fill="#747474"/><path d="m7.621 11 3.5 3.5-2.121 2.121-7.121-7.121 7.121-7.121 2.121 2.121-3.5 3.5h16.758l-3.5-3.5 2.121-2.121 7.121 7.121-7.121 7.121-2.121-2.121 3.5-3.5h-16.758z" fill="#fff"/></g><path d="m28 22c0-1.061-.421-2.078-1.172-2.828-.75-.751-1.767-1.172-2.828-1.172-4.439 0-11.561 0-16 0-1.061 0-2.078.421-2.828 1.172-.751.75-1.172 1.767-1.172 2.828v4c0 1.061.421 2.078 1.172 2.828.75.751 1.767 1.172 2.828 1.172h16c1.061 0 2.078-.421 2.828-1.172.751-.75 1.172-1.767 1.172-2.828 0-1.287 0-2.713 0-4z" fill="#666"/><path d="m8.37 27.148c-.56-.567-.841-1.415-.841-2.543v-1.21c0-1.128.286-1.976.858-2.543.571-.568 1.361-.852 2.369-.852.994 0 1.774.284 2.342.852.568.567.852 1.415.852 2.543v1.21c0 1.12-.29 1.966-.869 2.538-.579.571-1.369.857-2.37.857-1 0-1.781-.284-2.341-.852zm4.112-2.565v-1.11c0-1.456-.575-2.184-1.726-2.184-.59 0-1.029.179-1.316.537-.288.359-.432.908-.432 1.647v1.11c0 .709.144 1.236.432 1.579.287.344.726.516 1.316.516 1.151 0 1.726-.699 1.726-2.095z" fill="#fff" fill-rule="nonzero"/><path d="m21.625 20.146v7.731h-1.468l-3.574-5.121v5.121h-1.468v-7.731h1.468l3.574 5.131v-5.131z" fill="#fff" fill-rule="nonzero"/><path d="m22.891 20.146h1.58l-.269 5.154h-1.042zm.056 6.274h1.468v1.457h-1.468z" fill="#fff" fill-rule="nonzero"/></g></svg>