<svg clip-rule="evenodd" fill-rule="evenodd" viewBox="0 0 32 32" xmlns="http://www.w3.org/2000/svg" xmlns:xlink="http://www.w3.org/1999/xlink"><clipPath id="a"><path clip-rule="evenodd" d="m0 0h32v32h-32z"/></clipPath><metadata/><path d="m0 0h32v32h-32z" fill="none"/><g clip-path="url(#a)"><path d="m12 4s1.146-.573 2.211-1.106c1.126-.563 2.452-.563 3.578 0 1.065.533 2.211 1.106 2.211 1.106 1.259-.63 2.741-.63 4 0 1.745.873 4 2 4 2l-2 1s.181.181.433.433c1.025 1.025 1.753 2.31 2.104 3.717.593 2.369 1.463 5.85 1.463 5.85h-3c1.281 1.281 2 3.017 2 4.828v2.172l-2-2v6l-4-4h-14l-4 4v-6l-2 2v-2.172c0-1.811.719-3.547 2-4.828h-3s.87-3.481 1.463-5.85c.351-1.407 1.079-2.692 2.104-3.717.252-.252.433-.433.433-.433l-2-1s2.379-1.19 4.141-2.071c1.17-.585 2.548-.585 3.718 0 .088.045.141.071.141.071z" fill="none" stroke="#000" stroke-width="4"/><path d="m6.303 16.787c-.199.797-.199 1.629 0 2.426.367 1.466.982 3.927 1.362 5.448.213.85.786 1.564 1.569 1.956.706.353 1.562.781 2.133 1.066.416.209.875.317 1.341.317h6.584c.466 0 .925-.108 1.341-.317.571-.285 1.427-.713 2.133-1.066.783-.392 1.356-1.106 1.569-1.956.38-1.521.995-3.982 1.362-5.448.199-.797.199-1.629 0-2.426-.451-1.802-1.311-5.244-1.94-7.757-.445-1.781-2.045-3.03-3.88-3.03-2.31 0-5.444 0-7.754 0-1.835 0-3.435 1.249-3.88 3.03-.629 2.513-1.489 5.955-1.94 7.757z" fill="none" stroke="#000" stroke-linejoin="round" stroke-miterlimit="1.5" stroke-width="4"/><path d="m12 4s1.146-.573 2.211-1.106c1.126-.563 2.452-.563 3.578 0 1.065.533 2.211 1.106 2.211 1.106 1.259-.63 2.741-.63 4 0 1.745.873 4 2 4 2l-2 1s.181.181.433.433c1.025 1.025 1.753 2.31 2.104 3.717.593 2.369 1.463 5.85 1.463 5.85h-3c1.281 1.281 2 3.017 2 4.828v2.172l-2-2v6l-4-4h-14l-4 4v-6l-2 2v-2.172c0-1.811.719-3.547 2-4.828h-3s.87-3.481 1.463-5.85c.351-1.407 1.079-2.692 2.104-3.717.252-.252.433-.433.433-.433l-2-1s2.379-1.19 4.141-2.071c1.17-.585 2.548-.585 3.718 0 .088.045.141.071.141.071z" fill="#262626"/><path d="m6.303 16.787c-.199.797-.199 1.629 0 2.426.367 1.466.982 3.927 1.362 5.448.213.85.786 1.564 1.569 1.956.706.353 1.562.781 2.133 1.066.416.209.875.317 1.341.317h6.584c.466 0 .925-.108 1.341-.317.571-.285 1.427-.713 2.133-1.066.783-.392 1.356-1.106 1.569-1.956.38-1.521.995-3.982 1.362-5.448.199-.797.199-1.629 0-2.426-.451-1.802-1.311-5.244-1.94-7.757-.445-1.781-2.045-3.03-3.88-3.03-2.31 0-5.444 0-7.754 0-1.835 0-3.435 1.249-3.88 3.03-.629 2.513-1.489 5.955-1.94 7.757z" fill="#e02e34"/><path d="m8 12c0-2.209 1.791-4 4-4h8c2.209 0 4 1.791 4 4v5l3-3v-3l-3-4-1-2h-14l-1 2-3 3v4l3 3z" fill="#262626"/><path d="m21.483 12.322c-.299-.199-.681-.223-1.002-.062-.285.142-.638.319-.928.464-.339.169-.553.515-.553.894v.162c0 .3.134.584.366.774.232.189.536.266.83.207.433-.087.938-.188 1.437-.288.396-.079.706-.389.785-.786.078-.397-.09-.802-.427-1.026-.185-.124-.359-.24-.508-.339z"/><path d="m10.517 12.322c.299-.199.681-.223 1.002-.062.285.142.638.319.928.464.339.169.553.515.553.894v.162c0 .3-.134.584-.366.774-.232.189-.536.266-.83.207-.433-.087-.938-.188-1.437-.288-.396-.079-.706-.389-.785-.786-.078-.397.09-.802.427-1.026.185-.124.359-.24.508-.339z"/><path d="m13 17s1.487.496 2.368.789c.41.137.854.137 1.264 0 .881-.293 2.368-.789 2.368-.789" fill="none" stroke="#800e0e" stroke-linejoin="round" stroke-miterlimit="1.5" stroke-width="2"/><path d="m9 22 1-4 3 5z" fill="#fff"/><path d="m23 22-1-4-3 5z" fill="#fff"/><path d="m8 22s1.697.566 2.538.846c.306.102.626.154.949.154h9.026c.323 0 .643-.052.949-.154.841-.28 2.538-.846 2.538-.846" fill="none" stroke="#800e0e" stroke-linejoin="round" stroke-miterlimit="1.5" stroke-width="2"/><g fill="#dacd17"><path d="m19 9.314c0-.203.069-.4.196-.559.803-1.004 3.804-4.755 3.804-4.755v5.302c0 .452-.154.89-.436 1.243-.004.005-.009.011-.013.016-.529.661-1.418.916-2.217.636s-1.334-1.035-1.334-1.881c0-.001 0-.002 0-.002z"/><path d="m13 9.314c0-.203-.069-.4-.196-.559-.803-1.004-3.804-4.755-3.804-4.755v5.302c0 .452.154.89.436 1.243.004.005.009.011.013.016.529.661 1.418.916 2.217.636s1.334-1.035 1.334-1.881c0-.001 0-.002 0-.002z"/></g></g></svg>