<svg clip-rule="evenodd" fill-rule="evenodd" stroke-linecap="round" stroke-linejoin="round" stroke-miterlimit="1.5" viewBox="0 0 32 32" xmlns="http://www.w3.org/2000/svg" xmlns:xlink="http://www.w3.org/1999/xlink"><clipPath id="a"><path clip-rule="evenodd" d="m16.011 4.038c.001-.013.002-.026.002-.038 2.461 0 5.778 2.757 8 6.144 5.828 8.882 5.677 13.248 4.697 15.325-.581 1.035-1.676 1.675-2.863 1.675h-9.834l-.002-.003v.003h-9.834c-1.187 0-2.282-.64-2.863-1.675-.981-2.077-1.132-6.443 4.697-15.325 2.222-3.387 5.539-6.144 8-6.144z"/></clipPath><metadata/><path d="m0 0h32v32h-32z" fill="none"/><path d="m16.011 4.038c.001-.013.002-.026.002-.038 2.461 0 5.778 2.757 8 6.144 5.828 8.882 5.677 13.248 4.697 15.325-.581 1.035-1.676 1.675-2.863 1.675h-9.834l-.002-.003v.003h-9.834c-1.187 0-2.282-.64-2.863-1.675-.981-2.077-1.132-6.443 4.697-15.325 2.222-3.387 5.539-6.144 8-6.144z" fill="none" stroke="#000" stroke-width="4"/><path d="m16.011 4.038c.001-.013.002-.026.002-.038 2.461 0 5.778 2.757 8 6.144 5.828 8.882 5.677 13.248 4.697 15.325-.581 1.035-1.676 1.675-2.863 1.675h-9.834l-.002-.003v.003h-9.834c-1.187 0-2.282-.64-2.863-1.675-.981-2.077-1.132-6.443 4.697-15.325 2.222-3.387 5.539-6.144 8-6.144z" fill="#fff"/><g clip-path="url(#a)" fill="none" stroke="#e1e1e1" stroke-width="2"><path d="m20 12-2 2"/><path d="m9 13-2 2"/><path d="m20 19-2 2"/><path d="m27 12-2 2"/><path d="m29 20-2 2"/><path d="m18 6-2 2"/><path d="m10 20-2 2"/><path d="m13 11-2-2"/><path d="m13 5-2-2"/><path d="m24 18-2-2"/><path d="m24 9-2-2"/><path d="m25 26-2-2"/><path d="m14 18-2-2"/><path d="m4 20-2-2"/><path d="m7 28-2-2"/></g><path d="m24 19c0-.53-.211-1.039-.586-1.414s-.884-.586-1.414-.586c-3.074 0-8.926 0-12 0-.53 0-1.039.211-1.414.586s-.586.884-.586 1.414v9h16z"/></svg>