<svg clip-rule="evenodd" fill-rule="evenodd" stroke-miterlimit="3" viewBox="0 0 32 32" xmlns="http://www.w3.org/2000/svg" xmlns:xlink="http://www.w3.org/1999/xlink"><clipPath id="a"><path clip-rule="evenodd" d="m0 0h32v32h-32z"/></clipPath><metadata/><path d="m0 0h32v32h-32z" fill="none"/><g clip-path="url(#a)"><path d="m9.007 15.806.521-.26-1.861-3.738c-.138-.276-.16-.596-.062-.889.229-.682.632-1.885.632-1.885l4.153 8.34s.15-.819.29-1.582c.148-.806.668-1.497 1.402-1.863.477-.237.09-.045.09-.045s.821 3.836.817 6.728c-.004 1.609-.914 3.078-2.354 3.794-.165.082-.333.166-.505.252-2.597 1.293-5.752.236-7.046-2.362l-2.893-5.81c-.137-.276-.16-.596-.061-.889.228-.681.631-1.885.631-1.885l2.596 5.213.521-.26-2.381-4.781c-.137-.276-.159-.596-.061-.889.228-.681.631-1.884.631-1.884l3.115 6.254.521-.259-2.38-4.781c-.138-.276-.16-.596-.062-.889.228-.682.632-1.885.632-1.885z" fill="none" stroke="#000" stroke-width="4"/><path d="m22.993 15.806-.521-.26 1.861-3.738c.138-.276.16-.596.062-.889-.229-.682-.632-1.885-.632-1.885l-4.153 8.34s-.15-.819-.29-1.582c-.148-.806-.668-1.497-1.402-1.863-.477-.237-.09-.045-.09-.045s-.821 3.836-.817 6.728c.004 1.609.914 3.078 2.354 3.794.165.082.333.166.505.252 2.597 1.293 5.752.236 7.046-2.362l2.893-5.81c.137-.276.16-.596.061-.889-.228-.681-.631-1.885-.631-1.885l-2.596 5.213-.521-.26 2.381-4.781c.137-.276.159-.596.061-.889-.228-.681-.631-1.884-.631-1.884l-3.115 6.254-.521-.259 2.38-4.781c.138-.276.16-.596.062-.889-.228-.682-.632-1.885-.632-1.885z" fill="none" stroke="#000" stroke-width="4"/><path d="m17.486 13.715c1.188.592.03 1.71.269 3.016.227 1.234.47 2.56.47 2.56h-4.45s.243-1.326.47-2.56c.239-1.306-.919-2.424.269-3.016.771-.384 1.486-.74 1.486-.74z" fill="none" stroke="#000" stroke-width="4"/><path d="m12.452 17.036c.056-.309.144-.786.228-1.244.148-.806.668-1.497 1.402-1.863.477-.237.918-.457.918-.457s-.007 4.248-.011 7.14c-.004 1.609-.914 3.078-2.354 3.794-.165.082-.333.166-.505.252-2.597 1.293-5.752.236-7.046-2.362l-1.291-2.593.131-.39-.391-.131-1.038-2.085.131-.39-.39-.131-.045-.09c-.137-.276-.16-.596-.061-.889.228-.681.631-1.885.631-1.885l1.038 2.085-.13.391.39.13 1.038 2.085-.131.391.391.131.521-.26-.26-.521.131-.391-.39-.13-1.038-2.085.13-.391-.39-.13-.564-1.133c-.137-.276-.159-.596-.061-.889.228-.681.631-1.884.631-1.884l1.558 3.127-.131.39.39.131 1.038 2.085-.13.39.39.131.521-.259-.259-.522.13-.39-.39-.131-1.298-2.606.131-.39-.39-.131-.304-.611c-.138-.276-.16-.596-.062-.889.228-.682.632-1.885.632-1.885l1.297 2.606-.13.391.39.131 1.298 2.606-.131.39.39.131.521-.26.131-.39-.39-.131-1.298-2.606.131-.39-.39-.131-.045-.09c-.138-.276-.16-.596-.062-.889.229-.682.632-1.885.632-1.885l1.038 2.085-.131.391.391.13 1.297 2.606-.13.391.39.131.198.398-.004 2.569c-.62.1-1.197.416-1.619.88-.223.246-.402.531-.526.838-.088.219-.149.45-.18.685-.015.117-.021.235-.023.354-.001.533-.017 1.066-.001 1.6.003.036.008.072.016.108.022.083.061.161.116.227.038.047.085.087.136.12.167.106.381.12.56.036.055-.026.106-.06.151-.102.053-.05.097-.11.128-.177.037-.078.053-.161.056-.247.001-.534-.004-1.068.003-1.602.007-.18.04-.358.104-.528.16-.432.505-.782.934-.951.168-.066.344-.101.525-.111.042-.002.083-.002.125-.002.22.01.438.024.658.036z" fill="#1f5f7d"/><g fill="#1a466a"><path d="m12.39 17.374.062-.338-.003 1.863c-.22-.012-.438-.026-.658-.036-.042 0-.083 0-.125.002-.181.01-.357.045-.525.111-.429.169-.774.519-.934.951-.064.17-.097.348-.104.528-.007.534-.002 1.068-.003 1.602-.003.086-.019.169-.056.247-.031.067-.075.127-.128.177-.045.042-.096.076-.151.102-.179.084-.393.07-.56-.036-.051-.033-.098-.073-.136-.12-.055-.066-.094-.144-.116-.227-.008-.036-.013-.072-.016-.108-.016-.534 0-1.067.001-1.6.002-.119.008-.237.023-.354.031-.235.092-.466.18-.685.124-.307.303-.592.526-.838.422-.464.999-.78 1.619-.88l.004-2.569z"/><path d="m9.275 11.119-1.563.779.259.521 1.564-.779z"/><path d="m10.832 14.246-1.563.779.259.521 1.564-.778z"/><path d="m7.19 12.157-1.563.779.259.521 1.564-.778z"/><path d="m8.748 15.285-1.564.778.26.521 1.563-.778z"/><path d="m5.625 14.238-1.564.779.26.521 1.563-.779z"/><path d="m6.922 16.844-1.563.779.259.521 1.564-.779z"/><path d="m3.799 15.797-1.563.779.259.521 1.564-.779z"/><path d="m5.097 18.403-1.564.779.26.521 1.564-.778z"/></g><path d="m20.71 15.166.198-.398.39-.131-.13-.391 1.297-2.606.391-.13-.131-.391 1.038-2.085s.403 1.203.632 1.885c.098.293.076.613-.062.889l-.045.09-.39.131.131.39-1.298 2.606-.39.131.131.39.521.26.39-.131-.131-.39 1.298-2.606.39-.131-.13-.391 1.297-2.606s.404 1.203.632 1.885c.098.293.076.613-.062.889l-.304.611-.39.131.131.39-1.298 2.606-.39.131.13.39-.259.522.521.259.39-.131-.13-.39 1.038-2.085.39-.131-.131-.39 1.558-3.127s.403 1.203.631 1.884c.098.293.076.613-.061.889l-.564 1.133-.39.13.13.391-1.038 2.085-.39.13.131.391-.26.521.521.26.391-.131-.131-.391 1.038-2.085.39-.13-.13-.391 1.038-2.085s.403 1.204.631 1.885c.099.293.076.613-.061.889l-.045.09-.39.131.131.39-1.038 2.085-.391.131.131.39-1.291 2.593c-1.294 2.598-4.449 3.655-7.046 2.362-.172-.086-.34-.17-.505-.252-1.44-.716-2.35-2.185-2.354-3.794-.004-2.892-.011-7.14-.011-7.14s.441.22.918.457c.734.366 1.254 1.057 1.402 1.863.084.458.172.935.228 1.244l.074.816c.219-.011 1.088-2.686 1.088-2.686z" fill="#1f5f7d"/><path d="m20.71 15.166.004 2.569c.62.1 1.197.416 1.619.88.223.246.402.531.526.838.088.219.149.45.18.685.015.117.021.235.023.354.001.533.017 1.066.001 1.6-.003.036-.008.072-.016.108-.022.083-.061.161-.116.227-.038.047-.085.087-.136.12-.167.106-.381.12-.56.036-.055-.026-.106-.06-.151-.102-.053-.05-.097-.11-.128-.177-.037-.078-.053-.161-.056-.247-.001-.534.004-1.068-.003-1.602-.007-.18-.04-.358-.104-.528-.16-.432-.505-.782-.934-.951-.168-.066-.344-.101-.525-.111-.042-.002-.083-.002-.125-.002-.22.01-.438.024-.658.036l-.003-1.863.062.338z" fill="#1a466a"/><path d="m22.725 11.119 1.563.779-.259.521-1.564-.779z" fill="#1a466a"/><path d="m21.168 14.246 1.563.779-.259.521-1.564-.778z" fill="#1a466a"/><path d="m24.81 12.157 1.563.779-.259.521-1.564-.778z" fill="#1a466a"/><path d="m23.252 15.285 1.564.778-.26.521-1.563-.778z" fill="#1a466a"/><path d="m26.375 14.238 1.564.779-.26.521-1.563-.779z" fill="#1a466a"/><path d="m25.078 16.844 1.563.779-.259.521-1.564-.779z" fill="#1a466a"/><path d="m28.201 15.797 1.563.779-.259.521-1.564-.779z" fill="#1a466a"/><path d="m26.903 18.403 1.564.779-.26.521-1.564-.778z" fill="#1a466a"/></g></svg>