<svg clip-rule="evenodd" fill-rule="evenodd" stroke-linejoin="round" stroke-miterlimit="1.41421" viewBox="0 0 32 32" xmlns="http://www.w3.org/2000/svg"><metadata/><path d="m0 0h32v32h-32z" fill="none"/><path d="m6.891 15.526-2.845-2.844-.042-.044-.04-.046-.037-.049-.034-.05-.033-.052-.029-.053-.026-.055-.024-.056-.021-.057-.017-.058-.015-.06-.012-.059-.008-.061-.006-.06-.002-.061v-.061l.004-.061.007-.06.01-.06.014-.06.016-.059.019-.057.022-.057.026-.055.028-.054.03-.053.034-.051.036-.049.038-.047.041-.046.043-.043.045-.04.047-.039.05-.036.05-.033.053-.031.054-.028.056-.025.056-.022.058-.02.059-.016.059-.013.06-.01.06-.007.061-.004.061-.001.061.003.061.005.06.008.06.012.059.015.058.018.058.02.056.024.055.027.053.029.052.032.05.035.048.037.046.039.044.042 2.845 2.845.058-.058-1.783-2.971-.029-.05-.026-.052-.024-.053-.02-.055-.018-.055-.016-.055-.013-.057-.01-.057-.007-.058-.004-.058-.002-.058.001-.058.005-.058.007-.057.01-.058.013-.056.015-.056.018-.055.021-.054.024-.053.026-.052.028-.051.031-.049.034-.047.035-.046.038-.044.04-.042.042-.04.044-.038.046-.036.048-.033.048-.031.051-.029.052-.026.053-.024.054-.021.055-.018.056-.015.057-.013.057-.01.057-.007.058-.004.058-.002.058.001.058.005.058.007.057.01.057.012.055.016.056.018.054.021.053.024.052.025.05.029.049.031.048.033.046.036.044.038.042.04.04.042.038.044.036.046.033.047.031.049 2.877 4.795.417.418v-1.972l.001-.053.003-.054.005-.054.007-.053.01-.053.011-.052.012-.053.016-.051.016-.051.02-.05.02-.05.023-.048.024-.049.027-.046.028-.046.029-.045.032-.044.033-.042.034-.04.037-.041.037-.038.039-.037.041-.035.041-.034.043-.032.044-.031.046-.028.046-.028.048-.025.048-.024.049-.021.05-.02.051-.018.05-.016.053-.014.052-.012.053-.01.052-.008.054-.006.054-.004.053-.003h.054l.054.003.053.004.054.006.053.008.052.01.053.012.052.014.051.016.051.018.049.02.05.021.048.024.047.025.046.028.046.028.044.031.043.032.042.034.04.035.039.037.038.038.036.041.035.04.032.042.032.044.03.045.028.046.026.047.025.048.022.048.021.05.019.05.017.051.015.051.013.053.011.052.009.053.007.053.005.054.003.054.001.053v4.005.054l-.001.058-.002.058-.002.058-.004.058-.004.058-.004.057-.006.058-.006.057-.006.058-.008.057-.008.057-.009.057-.009.057-.011.056-.011.057-.011.056-.012.056-.013.055-.014.056-.014.056-.016.055-.015.055-.016.055-.017.055-.018.055-.018.053-.019.055-.02.053-.041.107-.021.053-.023.052-.023.053-.023.052-.024.052-.025.052-.026.051-.025.051-.027.05-.027.051-.028.05-.028.049-.03.05-.029.049-.031.048-.031.049-.031.048-.032.047-.033.048-.004.005-.017.034-.028.052-.032.051-.034.049-.037.048-.039.045-.041.044-.198.197-.009.01-.041.042-.038.039-.048.047-.038.038-.012.01-.335.335-.037.036-.037.035-.037.034-.038.035-.038.033-.039.034-.077.066-.039.031-.04.032-.04.031-.04.031-.04.03-.041.03-.041.029-.041.029-.042.028-.041.028-.084.055-.042.026-.043.026-.043.026-.043.025-.043.024-.043.024-.044.024-.044.023-.044.023-.044.022-.045.022-.044.021-.045.021-.045.02-.045.02-.046.019-.045.019-.045.018-.047.018-.046.018-.046.017-.046.016-.046.016-.046.016-.094.029-.047.014-.047.014-.047.013-.047.012-.048.012-.047.012-.048.011-.047.011-.048.01-.048.01-.048.009-.048.008-.048.009-.049.007-.048.008-.048.006-.048.007-.049.005-.097.01-.049.004-.048.004-.049.003-.049.003-.097.004-.05.001-.048.002h-.098l-.049-.001-.049-.001-.097-.004-.049-.003-.05-.003-.048-.004-.049-.004-.049-.005-.049-.005-.097-.012-.049-.007-.049-.007-.049-.008-.097-.016-.048-.01-.097-.02-.049-.011-.048-.011-.048-.012-.048-.012-.048-.013-.048-.013-.048-.014-.047-.014-.048-.015-.047-.015-.048-.016-.047-.017-.047-.017-.047-.017-.047-.018-.047-.019-.093-.038-.047-.02-.046-.02-.046-.022-.092-.043-.045-.023-.091-.046-.045-.025-.044-.024-.045-.025-.044-.026-.042-.025-4.485-2.686-.051-.032-.048-.035-.048-.037-.045-.039-.043-.042-.041-.044-.038-.046-.037-.047-.034-.05-.031-.05-.029-.053-.026-.054-.023-.055-.02-.057-.018-.057-.015-.058-.011-.059-.008-.059-.006-.06-.003-.06.001-.06.003-.059.007-.06.009-.059.013-.059.015-.058.019-.057.021-.056.024-.054.027-.054.029-.053.032-.05.035-.049.037-.047.039-.045.042-.043.043-.041.046-.039.048-.036.049-.034.052-.031.052-.029.054-.026.055-.023.057-.021.057-.017.058-.014.059-.012.059-.009.06-.006.06-.002h.06l.059.004.06.007.059.009.059.013.058.015.057.018.056.021.055.025.053.026.053.03.359.215-1.704-1.166-.049-.035-.047-.038-.044-.04-.043-.041-.041-.045-.038-.046-.036-.048-.033-.05-.031-.051-.028-.053-.026-.054-.022-.056-.02-.056-.017-.058-.014-.058-.011-.059-.008-.059-.005-.06-.002-.06.001-.06.004-.059.007-.06.01-.059.013-.058.016-.058.019-.057.022-.056.025-.054.027-.054.03-.052.033-.05.035-.048.037-.047.04-.045.042-.043.044-.04.046-.038.048-.036.05-.034.051-.031.053-.028.054-.025.056-.023.057-.02.057-.017.058-.013.059-.012.06-.008.059-.004.06-.003.06.001.06.005.059.007.06.01.058.013.058.016.057.018.055.023.055.024.053.027.052.03.05.033 2.765 1.892.028-.028z" fill="none" stroke="#000" stroke-width="4"/><path d="m25.109 15.526 2.845-2.844.042-.044.04-.046.037-.049.034-.05.033-.052.029-.053.026-.055.024-.056.021-.057.017-.058.015-.06.012-.059.008-.061.006-.06.002-.061v-.061l-.004-.061-.007-.06-.01-.06-.014-.06-.016-.059-.019-.057-.022-.057-.026-.055-.028-.054-.03-.053-.034-.051-.036-.049-.038-.047-.041-.046-.043-.043-.045-.04-.047-.039-.05-.036-.05-.033-.053-.031-.054-.028-.056-.025-.056-.022-.058-.02-.059-.016-.059-.013-.06-.01-.06-.007-.061-.004-.061-.001-.061.003-.061.005-.06.008-.06.012-.059.015-.058.018-.058.02-.056.024-.055.027-.053.029-.052.032-.05.035-.048.037-.046.039-.044.042-2.845 2.845-.058-.058 1.783-2.971.029-.05.026-.052.024-.053.02-.055.018-.055.016-.055.013-.057.01-.057.007-.058.004-.058.002-.058-.001-.058-.005-.058-.007-.057-.01-.058-.013-.056-.015-.056-.018-.055-.021-.054-.024-.053-.026-.052-.028-.051-.031-.049-.034-.047-.035-.046-.038-.044-.04-.042-.042-.04-.044-.038-.046-.036-.048-.033-.048-.031-.051-.029-.052-.026-.053-.024-.054-.021-.055-.018-.056-.015-.057-.013-.057-.01-.057-.007-.058-.004-.058-.002-.058.001-.058.005-.058.007-.057.01-.057.012-.055.016-.056.018-.054.021-.053.024-.052.025-.05.029-.049.031-.048.033-.046.036-.044.038-.042.04-.04.042-.038.044-.036.046-.033.047-.031.049-2.877 4.795-.417.418v-1.972l-.001-.053-.003-.054-.005-.054-.007-.053-.01-.053-.011-.052-.012-.053-.016-.051-.016-.051-.02-.05-.02-.05-.023-.048-.024-.049-.027-.046-.028-.046-.029-.045-.032-.044-.033-.042-.034-.04-.037-.041-.037-.038-.039-.037-.041-.035-.041-.034-.043-.032-.044-.031-.046-.028-.046-.028-.048-.025-.048-.024-.049-.021-.05-.02-.051-.018-.05-.016-.053-.014-.052-.012-.053-.01-.052-.008-.054-.006-.054-.004-.053-.003h-.054l-.054.003-.053.004-.054.006-.053.008-.052.01-.053.012-.052.014-.051.016-.051.018-.049.02-.05.021-.048.024-.047.025-.046.028-.046.028-.044.031-.043.032-.042.034-.04.035-.039.037-.038.038-.036.041-.035.04-.032.042-.032.044-.03.045-.028.046-.026.047-.025.048-.022.048-.021.05-.019.05-.017.051-.015.051-.013.053-.011.052-.009.053-.007.053-.005.054-.003.054-.001.053v4.005.054l.001.058.002.058.002.058.004.058.004.058.004.057.006.058.006.057.006.058.008.057.008.057.009.057.009.057.011.056.011.057.011.056.012.056.013.055.014.056.014.056.016.055.015.055.016.055.017.055.018.055.018.053.019.055.02.053.041.107.021.053.023.052.023.053.023.052.024.052.025.052.026.051.025.051.027.05.027.051.028.05.028.049.03.05.029.049.031.048.031.049.031.048.032.047.033.048.004.005.017.034.028.052.032.051.034.049.037.048.039.045.041.044.198.197.009.01.041.042.038.039.048.047.038.038.012.01.335.335.037.036.037.035.037.034.038.035.038.033.039.034.077.066.039.031.04.032.04.031.04.031.04.03.041.03.041.029.041.029.042.028.041.028.084.055.042.026.043.026.043.026.043.025.043.024.043.024.044.024.044.023.044.023.044.022.045.022.044.021.045.021.045.02.045.02.046.019.045.019.045.018.047.018.046.018.046.017.046.016.046.016.046.016.094.029.047.014.047.014.047.013.047.012.048.012.047.012.048.011.047.011.048.01.048.01.048.009.048.008.048.009.049.007.048.008.048.006.048.007.049.005.097.01.049.004.048.004.049.003.049.003.097.004.05.001.048.002h.098l.049-.001.049-.001.097-.004.049-.003.05-.003.048-.004.049-.004.049-.005.049-.005.097-.012.049-.007.049-.007.049-.008.097-.016.048-.01.097-.02.049-.011.048-.011.048-.012.048-.012.048-.013.048-.013.048-.014.047-.014.048-.015.047-.015.048-.016.047-.017.047-.017.047-.017.047-.018.047-.019.093-.038.047-.02.046-.02.046-.022.092-.043.045-.023.091-.046.045-.025.044-.024.045-.025.044-.026.042-.025 4.485-2.686.051-.032.048-.035.048-.037.045-.039.043-.042.041-.044.038-.046.037-.047.034-.05.031-.05.029-.053.026-.054.023-.055.02-.057.018-.057.015-.058.011-.059.008-.059.006-.06.003-.06-.001-.06-.003-.059-.007-.06-.009-.059-.013-.059-.015-.058-.019-.057-.021-.056-.024-.054-.027-.054-.029-.053-.032-.05-.035-.049-.037-.047-.039-.045-.042-.043-.043-.041-.046-.039-.048-.036-.049-.034-.052-.031-.052-.029-.054-.026-.055-.023-.057-.021-.057-.017-.058-.014-.059-.012-.059-.009-.06-.006-.06-.002h-.06l-.059.004-.06.007-.059.009-.059.013-.058.015-.057.018-.056.021-.055.025-.053.026-.053.03-.359.215 1.704-1.166.049-.035.047-.038.044-.04.043-.041.041-.045.038-.046.036-.048.033-.05.031-.051.028-.053.026-.054.022-.056.02-.056.017-.058.014-.058.011-.059.008-.059.005-.06.002-.06-.001-.06-.004-.059-.007-.06-.01-.059-.013-.058-.016-.058-.019-.057-.022-.056-.025-.054-.027-.054-.03-.052-.033-.05-.035-.048-.037-.047-.04-.045-.042-.043-.044-.04-.046-.038-.048-.036-.05-.034-.051-.031-.053-.028-.054-.025-.056-.023-.057-.02-.057-.017-.058-.013-.059-.012-.06-.008-.059-.004-.06-.003-.06.001-.06.005-.059.007-.06.01-.058.013-.058.016-.057.018-.055.023-.055.024-.053.027-.052.03-.05.033-2.765 1.892z" fill="none" stroke="#000" stroke-width="4"/><path d="m6.891 15.526-2.845-2.844-.042-.044-.04-.046-.037-.049-.034-.05-.033-.052-.029-.053-.026-.055-.024-.056-.021-.057-.017-.058-.015-.06-.012-.059-.008-.061-.006-.06-.002-.061v-.061l.004-.061.007-.06.01-.06.014-.06.016-.059.019-.057.022-.057.026-.055.028-.054.03-.053.034-.051.036-.049.038-.047.041-.046.043-.043.045-.04.047-.039.05-.036.05-.033.053-.031.054-.028.056-.025.056-.022.058-.02.059-.016.059-.013.06-.01.06-.007.061-.004.061-.001.061.003.061.005.06.008.06.012.059.015.058.018.058.02.056.024.055.027.053.029.052.032.05.035.048.037.046.039.044.042 2.845 2.845.058-.058-1.783-2.971-.029-.05-.026-.052-.024-.053-.02-.055-.018-.055-.016-.055-.013-.057-.01-.057-.007-.058-.004-.058-.002-.058.001-.058.005-.058.007-.057.01-.058.013-.056.015-.056.018-.055.021-.054.024-.053.026-.052.028-.051.031-.049.034-.047.035-.046.038-.044.04-.042.042-.04.044-.038.046-.036.048-.033.048-.031.051-.029.052-.026.053-.024.054-.021.055-.018.056-.015.057-.013.057-.01.057-.007.058-.004.058-.002.058.001.058.005.058.007.057.01.057.012.055.016.056.018.054.021.053.024.052.025.05.029.049.031.048.033.046.036.044.038.042.04.04.042.038.044.036.046.033.047.031.049 2.877 4.795.417.418v-1.972l.001-.053.003-.054.005-.054.007-.053.01-.053.011-.052.012-.053.016-.051.016-.051.02-.05.02-.05.023-.048.024-.049.027-.046.028-.046.029-.045.032-.044.033-.042.034-.04.037-.041.037-.038.039-.037.041-.035.041-.034.043-.032.044-.031.046-.028.046-.028.048-.025.048-.024.049-.021.05-.02.051-.018.05-.016.053-.014.052-.012.053-.01.052-.008.054-.006.054-.004.053-.003h.054l.054.003.053.004.054.006.053.008.052.01.053.012.052.014.051.016.051.018.049.02.05.021.048.024.047.025.046.028.046.028.044.031.043.032.042.034.04.035.039.037.038.038.036.041.035.04.032.042.032.044.03.045.028.046.026.047.025.048.022.048.021.05.019.05.017.051.015.051.013.053.011.052.009.053.007.053.005.054.003.054.001.053v4.005.054l-.001.058-.002.058-.002.058-.004.058-.004.058-.004.057-.006.058-.006.057-.006.058-.008.057-.008.057-.009.057-.009.057-.011.056-.011.057-.011.056-.012.056-.013.055-.014.056-.014.056-.016.055-.015.055-.016.055-.017.055-.018.055-.018.053-.019.055-.02.053-.041.107-.021.053-.023.052-.023.053-.023.052-.024.052-.025.052-.026.051-.025.051-.027.05-.027.051-.028.05-.028.049-.03.05-.029.049-.031.048-.031.049-.031.048-.032.047-.033.048-.004.005-.017.034-.028.052-.032.051-.034.049-.037.048-.039.045-.041.044-.198.197-.009.01-.041.042-.038.039-.048.047-.038.038-.012.01-.335.335-.037.036-.037.035-.037.034-.038.035-.038.033-.039.034-.077.066-.039.031-.04.032-.04.031-.04.031-.04.03-.041.03-.041.029-.041.029-.042.028-.041.028-.084.055-.042.026-.043.026-.043.026-.043.025-.043.024-.043.024-.044.024-.044.023-.044.023-.044.022-.045.022-.044.021-.045.021-.045.02-.045.02-.046.019-.045.019-.045.018-.047.018-.046.018-.046.017-.046.016-.046.016-.046.016-.094.029-.047.014-.047.014-.047.013-.047.012-.048.012-.047.012-.048.011-.047.011-.048.01-.048.01-.048.009-.048.008-.048.009-.049.007-.048.008-.048.006-.048.007-.049.005-.097.01-.049.004-.048.004-.049.003-.049.003-.097.004-.05.001-.048.002h-.098l-.049-.001-.049-.001-.097-.004-.049-.003-.05-.003-.048-.004-.049-.004-.049-.005-.049-.005-.097-.012-.049-.007-.049-.007-.049-.008-.097-.016-.048-.01-.097-.02-.049-.011-.048-.011-.048-.012-.048-.012-.048-.013-.048-.013-.048-.014-.047-.014-.048-.015-.047-.015-.048-.016-.047-.017-.047-.017-.047-.017-.047-.018-.047-.019-.093-.038-.047-.02-.046-.02-.046-.022-.092-.043-.045-.023-.091-.046-.045-.025-.044-.024-.045-.025-.044-.026-.042-.025-4.485-2.686-.051-.032-.048-.035-.048-.037-.045-.039-.043-.042-.041-.044-.038-.046-.037-.047-.034-.05-.031-.05-.029-.053-.026-.054-.023-.055-.02-.057-.018-.057-.015-.058-.011-.059-.008-.059-.006-.06-.003-.06.001-.06.003-.059.007-.06.009-.059.013-.059.015-.058.019-.057.021-.056.024-.054.027-.054.029-.053.032-.05.035-.049.037-.047.039-.045.042-.043.043-.041.046-.039.048-.036.049-.034.052-.031.052-.029.054-.026.055-.023.057-.021.057-.017.058-.014.059-.012.059-.009.06-.006.06-.002h.06l.059.004.06.007.059.009.059.013.058.015.057.018.056.021.055.025.053.026.053.03.359.215-1.704-1.166-.049-.035-.047-.038-.044-.04-.043-.041-.041-.045-.038-.046-.036-.048-.033-.05-.031-.051-.028-.053-.026-.054-.022-.056-.02-.056-.017-.058-.014-.058-.011-.059-.008-.059-.005-.06-.002-.06.001-.06.004-.059.007-.06.01-.059.013-.058.016-.058.019-.057.022-.056.025-.054.027-.054.03-.052.033-.05.035-.048.037-.047.04-.045.042-.043.044-.04.046-.038.048-.036.05-.034.051-.031.053-.028.054-.025.056-.023.057-.02.057-.017.058-.013.059-.012.06-.008.059-.004.06-.003.06.001.06.005.059.007.06.01.058.013.058.016.057.018.055.023.055.024.053.027.052.03.05.033 2.765 1.892.028-.028z" fill="#8c262d"/><path d="m1.873 15.192 4.098 2.927" style="fill:none;stroke:#000;stroke-width:.47;stroke-linecap:round;stroke-linejoin:miter;stroke-miterlimit:1.5"/><path d="m3.713 12.683 3.345 3.345" style="fill:none;stroke:#000;stroke-width:.47;stroke-linecap:round;stroke-linejoin:miter;stroke-miterlimit:1.5"/><path d="m5.72 10.676 3.178 3.178" style="fill:none;stroke:#000;stroke-width:.47;stroke-linecap:round;stroke-linejoin:miter;stroke-miterlimit:1.5"/><g fill="#60071a"><path d="m2.898 14.383c.257-.427.963-.476 1.575-.108.613.368.901 1.014.644 1.441-.256.427-.962.475-1.574.107-.613-.367-.901-1.013-.645-1.44z"/><path d="m2.9 17.443c.214-.355.776-.41 1.256-.122.479.289.696.811.482 1.166-.213.355-.776.41-1.255.121-.48-.288-.696-.81-.483-1.165z"/><path d="m4.552 11.509c.369-.369 1.119-.219 1.673.335.553.554.703 1.303.334 1.672-.369.37-1.119.22-1.672-.334-.554-.554-.704-1.303-.335-1.673z"/><path d="m7.498 9.657c.413-.248 1.057.062 1.436.694.379.631.352 1.345-.062 1.594-.414.248-1.057-.063-1.437-.694-.379-.631-.351-1.345.063-1.594z"/><path d="m13.414 12.003c.604 0 1.095.701 1.095 1.563s-.491 1.563-1.095 1.563c-.605 0-1.095-.7-1.095-1.563s.49-1.563 1.095-1.563z"/><path d="m8.783 20.764c-.355-.355-.554-.836-.554-1.339v-2.007c0-.501.199-.982.554-1.337s.836-.555 1.337-.555h2.007c.503 0 .984.2 1.339.555l.167.167c.309.309.459.744.405 1.177-.053.434-.303.819-.678 1.044-.384.23-.745.447-.96.575-.132.08-.255.175-.364.285-.002.001-.004.003-.005.005-.11.109-.205.231-.285.364-.128.215-.345.576-.575.96-.225.375-.61.625-1.044.678-.433.054-.868-.096-1.177-.405-.057-.057-.113-.113-.167-.167z"/></g><path d="m25.109 15.526 2.845-2.844.042-.044.04-.046.037-.049.034-.05.033-.052.029-.053.026-.055.024-.056.021-.057.017-.058.015-.06.012-.059.008-.061.006-.06.002-.061v-.061l-.004-.061-.007-.06-.01-.06-.014-.06-.016-.059-.019-.057-.022-.057-.026-.055-.028-.054-.03-.053-.034-.051-.036-.049-.038-.047-.041-.046-.043-.043-.045-.04-.047-.039-.05-.036-.05-.033-.053-.031-.054-.028-.056-.025-.056-.022-.058-.02-.059-.016-.059-.013-.06-.01-.06-.007-.061-.004-.061-.001-.061.003-.061.005-.06.008-.06.012-.059.015-.058.018-.058.02-.056.024-.055.027-.053.029-.052.032-.05.035-.048.037-.046.039-.044.042-2.845 2.845-.058-.058 1.783-2.971.029-.05.026-.052.024-.053.02-.055.018-.055.016-.055.013-.057.01-.057.007-.058.004-.058.002-.058-.001-.058-.005-.058-.007-.057-.01-.058-.013-.056-.015-.056-.018-.055-.021-.054-.024-.053-.026-.052-.028-.051-.031-.049-.034-.047-.035-.046-.038-.044-.04-.042-.042-.04-.044-.038-.046-.036-.048-.033-.048-.031-.051-.029-.052-.026-.053-.024-.054-.021-.055-.018-.056-.015-.057-.013-.057-.01-.057-.007-.058-.004-.058-.002-.058.001-.058.005-.058.007-.057.01-.057.012-.055.016-.056.018-.054.021-.053.024-.052.025-.05.029-.049.031-.048.033-.046.036-.044.038-.042.04-.04.042-.038.044-.036.046-.033.047-.031.049-2.877 4.795-.417.418v-1.972l-.001-.053-.003-.054-.005-.054-.007-.053-.01-.053-.011-.052-.012-.053-.016-.051-.016-.051-.02-.05-.02-.05-.023-.048-.024-.049-.027-.046-.028-.046-.029-.045-.032-.044-.033-.042-.034-.04-.037-.041-.037-.038-.039-.037-.041-.035-.041-.034-.043-.032-.044-.031-.046-.028-.046-.028-.048-.025-.048-.024-.049-.021-.05-.02-.051-.018-.05-.016-.053-.014-.052-.012-.053-.01-.052-.008-.054-.006-.054-.004-.053-.003h-.054l-.054.003-.053.004-.054.006-.053.008-.052.01-.053.012-.052.014-.051.016-.051.018-.049.02-.05.021-.048.024-.047.025-.046.028-.046.028-.044.031-.043.032-.042.034-.04.035-.039.037-.038.038-.036.041-.035.04-.032.042-.032.044-.03.045-.028.046-.026.047-.025.048-.022.048-.021.05-.019.05-.017.051-.015.051-.013.053-.011.052-.009.053-.007.053-.005.054-.003.054-.001.053v4.005.054l.001.058.002.058.002.058.004.058.004.058.004.057.006.058.006.057.006.058.008.057.008.057.009.057.009.057.011.056.011.057.011.056.012.056.013.055.014.056.014.056.016.055.015.055.016.055.017.055.018.055.018.053.019.055.02.053.041.107.021.053.023.052.023.053.023.052.024.052.025.052.026.051.025.051.027.05.027.051.028.05.028.049.03.05.029.049.031.048.031.049.031.048.032.047.033.048.004.005.017.034.028.052.032.051.034.049.037.048.039.045.041.044.198.197.009.01.041.042.038.039.048.047.038.038.012.01.335.335.037.036.037.035.037.034.038.035.038.033.039.034.077.066.039.031.04.032.04.031.04.031.04.03.041.03.041.029.041.029.042.028.041.028.084.055.042.026.043.026.043.026.043.025.043.024.043.024.044.024.044.023.044.023.044.022.045.022.044.021.045.021.045.02.045.02.046.019.045.019.045.018.047.018.046.018.046.017.046.016.046.016.046.016.094.029.047.014.047.014.047.013.047.012.048.012.047.012.048.011.047.011.048.01.048.01.048.009.048.008.048.009.049.007.048.008.048.006.048.007.049.005.097.01.049.004.048.004.049.003.049.003.097.004.05.001.048.002h.098l.049-.001.049-.001.097-.004.049-.003.05-.003.048-.004.049-.004.049-.005.049-.005.097-.012.049-.007.049-.007.049-.008.097-.016.048-.01.097-.02.049-.011.048-.011.048-.012.048-.012.048-.013.048-.013.048-.014.047-.014.048-.015.047-.015.048-.016.047-.017.047-.017.047-.017.047-.018.047-.019.093-.038.047-.02.046-.02.046-.022.092-.043.045-.023.091-.046.045-.025.044-.024.045-.025.044-.026.042-.025 4.485-2.686.051-.032.048-.035.048-.037.045-.039.043-.042.041-.044.038-.046.037-.047.034-.05.031-.05.029-.053.026-.054.023-.055.02-.057.018-.057.015-.058.011-.059.008-.059.006-.06.003-.06-.001-.06-.003-.059-.007-.06-.009-.059-.013-.059-.015-.058-.019-.057-.021-.056-.024-.054-.027-.054-.029-.053-.032-.05-.035-.049-.037-.047-.039-.045-.042-.043-.043-.041-.046-.039-.048-.036-.049-.034-.052-.031-.052-.029-.054-.026-.055-.023-.057-.021-.057-.017-.058-.014-.059-.012-.059-.009-.06-.006-.06-.002h-.06l-.059.004-.06.007-.059.009-.059.013-.058.015-.057.018-.056.021-.055.025-.053.026-.053.03-.359.215 1.704-1.166.049-.035.047-.038.044-.04.043-.041.041-.045.038-.046.036-.048.033-.05.031-.051.028-.053.026-.054.022-.056.02-.056.017-.058.014-.058.011-.059.008-.059.005-.06.002-.06-.001-.06-.004-.059-.007-.06-.01-.059-.013-.058-.016-.058-.019-.057-.022-.056-.025-.054-.027-.054-.03-.052-.033-.05-.035-.048-.037-.047-.04-.045-.042-.043-.044-.04-.046-.038-.048-.036-.05-.034-.051-.031-.053-.028-.054-.025-.056-.023-.057-.02-.057-.017-.058-.013-.059-.012-.06-.008-.059-.004-.06-.003-.06.001-.06.005-.059.007-.06.01-.058.013-.058.016-.057.018-.055.023-.055.024-.053.027-.052.03-.05.033-2.765 1.892z" fill="#8c262d"/><path d="m30.127 15.192-4.098 2.927" style="fill:none;stroke:#000;stroke-width:.47;stroke-linecap:round;stroke-linejoin:miter;stroke-miterlimit:1.5"/><path d="m28.287 12.683-3.345 3.345" style="fill:none;stroke:#000;stroke-width:.47;stroke-linecap:round;stroke-linejoin:miter;stroke-miterlimit:1.5"/><path d="m26.28 10.676-3.178 3.178" style="fill:none;stroke:#000;stroke-width:.47;stroke-linecap:round;stroke-linejoin:miter;stroke-miterlimit:1.5"/><path d="m29.102 14.383c-.257-.427-.963-.476-1.575-.108-.613.368-.901 1.014-.644 1.441.256.427.962.475 1.574.107.613-.367.901-1.013.645-1.44z" fill="#60071a"/><path d="m29.1 17.443c-.214-.355-.776-.41-1.256-.122-.479.289-.696.811-.482 1.166.213.355.776.41 1.255.121.48-.288.696-.81.483-1.165z" fill="#60071a"/><path d="m27.448 11.509c-.369-.369-1.119-.219-1.673.335-.553.554-.703 1.303-.334 1.672.369.37 1.119.22 1.672-.334.554-.554.704-1.303.335-1.673z" fill="#60071a"/><path d="m24.502 9.657c-.413-.248-1.057.062-1.436.694-.379.631-.352 1.345.062 1.594.414.248 1.057-.063 1.437-.694.379-.631.351-1.345-.063-1.594z" fill="#60071a"/><path d="m18.586 12.003c-.604 0-1.095.701-1.095 1.563s.491 1.563 1.095 1.563c.605 0 1.095-.7 1.095-1.563s-.49-1.563-1.095-1.563z" fill="#60071a"/><path d="m23.217 20.764c.355-.355.554-.836.554-1.339v-2.007c0-.501-.199-.982-.554-1.337s-.836-.555-1.337-.555h-2.007c-.503 0-.984.2-1.339.555-.054.054-.11.11-.167.167-.309.309-.459.744-.405 1.177.053.434.303.819.678 1.044.384.23.745.447.96.575.132.08.255.175.364.285.002.001.004.003.005.005.11.109.205.231.285.364.128.215.345.576.575.96.225.375.61.625 1.044.678.433.054.868-.096 1.177-.405.057-.057.113-.113.167-.167z" fill="#60071a"/></svg>