<svg clip-rule="evenodd" fill-rule="evenodd" stroke-miterlimit="1.5" viewBox="0 0 32 32" xmlns="http://www.w3.org/2000/svg" xmlns:xlink="http://www.w3.org/1999/xlink"><clipPath id="a"><path clip-rule="evenodd" d="m0 0h32v32h-32z"/></clipPath><metadata/><path d="m0 0h32v32h-32z" fill="none"/><g clip-path="url(#a)"><path d="m3.281 27h-.281c-.265 0-.52-.105-.707-.293-.188-.187-.293-.442-.293-.707 0-3.414 0-14.586 0-18 0-.265.105-.52.293-.707.187-.188.442-.293.707-.293h7.382c.379 0 .725.214.894.553.296.592.724 1.447.724 1.447h13c.552 0 1 .448 1 1v3h2.219c.308 0 .599.142.788.385.19.242.257.559.182.858-.708 2.834-2.427 9.708-3 12-.111.445-.511.757-.97.757-3.479 0-17.591 0-21.938 0z" fill="none" stroke="#000" stroke-width="4"/><path d="m3 7c-.265 0-.52.105-.707.293-.188.187-.293.442-.293.707v18c0 .265.105.52.293.707.187.188.442.293.707.293h22c.265 0 .52-.105.707-.293.188-.187.293-.442.293-.707 0-3.151 0-12.849 0-16 0-.552-.448-1-1-1-3.203 0-13 0-13 0s-.428-.855-.724-1.447c-.169-.339-.515-.553-.894-.553z" fill="#10768b"/><path d="m6.281 13c-.459 0-.859.312-.97.757-.573 2.292-2.292 9.166-3 12-.075.299-.008.616.182.858.189.243.48.385.788.385h21.938c.459 0 .859-.312.97-.757.573-2.292 2.292-9.166 3-12 .075-.299.008-.616-.182-.858-.189-.243-.48-.385-.788-.385-4.347 0-18.459 0-21.938 0z" fill="#30bfdb"/></g></svg>