<svg clip-rule="evenodd" fill-rule="evenodd" stroke-linejoin="round" stroke-miterlimit="2" viewBox="0 0 32 32" xmlns="http://www.w3.org/2000/svg" xmlns:xlink="http://www.w3.org/1999/xlink"><clipPath id="a"><path clip-rule="evenodd" d="m0 0h32v32h-32z"/></clipPath><clipPath id="b"><path clip-rule="evenodd" d="m24.182 15.106 2.628-5.387c.099-.204.114-.439.04-.654-.074-.214-.23-.391-.434-.49-.205-.1-.44-.114-.655-.04-.214.073-.391.23-.49.434l-2.377 4.874-.513-.251 2.126-4.36c.1-.205.114-.44.04-.655-.073-.214-.23-.391-.434-.49-.204-.1-.439-.114-.654-.04s-.391.23-.491.434l-3.378 6.926s-.005-.574-.012-1.277c-.014-1.409-1.168-2.541-2.578-2.527s.041 4.164.069 7c.016 1.576.921 3.009 2.338 3.7.162.079.328.16.496.242 2.557 1.247 5.641.186 6.889-2.372l3.121-6.4c.207-.425.031-.937-.394-1.145-.425-.207-.938-.03-1.145.395l-1.877 3.847-.513-.25 2.628-5.387c.099-.204.114-.439.04-.654-.074-.214-.23-.391-.435-.491-.204-.099-.439-.114-.654-.04-.214.074-.391.231-.49.435l-2.378 4.873z"/></clipPath><clipPath id="c"><path clip-rule="evenodd" d="m7.818 15.106-2.628-5.387c-.099-.204-.114-.439-.04-.654.074-.214.23-.391.434-.49.205-.1.44-.114.655-.04.214.073.391.23.49.434l2.377 4.874.513-.251-2.126-4.36c-.1-.205-.114-.44-.04-.655.073-.214.23-.391.434-.49.204-.1.439-.114.654-.04s.391.23.491.434l3.378 6.926s.005-.574.012-1.277c.014-1.409 1.168-2.541 2.578-2.527s-.041 4.164-.069 7c-.016 1.576-.921 3.009-2.338 3.7-.162.079-.328.16-.496.242-2.557 1.247-5.641.186-6.889-2.372l-3.121-6.4c-.207-.425-.031-.937.394-1.145.425-.207.938-.03 1.145.395l1.877 3.847.513-.25-2.628-5.387c-.099-.204-.114-.439-.04-.654.074-.214.23-.391.435-.491.204-.099.439-.114.654-.04.214.074.391.231.49.435l2.378 4.873z"/></clipPath><metadata/><path d="m0 0h32v32h-32z" fill="none"/><g clip-path="url(#a)"><path d="m16 21.817c-.305.489-.677.937-1.107 1.324-.401.361-.847.662-1.325.911-.252.126-.505.251-.761.369-.276.124-.557.234-.846.324-.619.193-1.263.301-1.911.32-.575.017-1.152-.037-1.715-.158-.447-.096-.884-.235-1.304-.414-1.095-.467-2.066-1.208-2.804-2.143-.299-.379-.556-.788-.775-1.217-.434-.876-.858-1.757-1.286-2.635-.629-1.29-1.258-2.58-1.887-3.87-.049-.107-.061-.128-.104-.245-.082-.222-.136-.455-.16-.69-.082-.782.171-1.58.688-2.173.176-.201.379-.374.602-.52l-.004-.107c.002-.124 0-.155.01-.279.021-.234.07-.465.146-.687.214-.62.643-1.156 1.201-1.501.227-.14.471-.244.727-.317l.04-.083c.061-.111.073-.137.142-.243.127-.195.278-.374.449-.532.481-.447 1.113-.718 1.769-.758.265-.017.528.007.787.061l.072-.052c.105-.069.13-.088.24-.148.247-.136.514-.235.789-.293.644-.136 1.325-.042 1.908.261.248.129.476.294.676.489.231.225.414.486.562.772l1.428 2.928c.063-.048.063-.047.128-.093.09-.062.09-.061.182-.121.221-.134.448-.255.686-.353.553-.227 1.141-.337 1.737-.341.666 0 1.331-.001 1.996 0h.044.077c.116.004.115.004.231.01.267.021.53.058.79.122.59.146 1.149.411 1.635.776l1.429-2.93c.052-.1.062-.123.124-.224.147-.238.329-.455.539-.64.244-.217.527-.391.83-.513.609-.244 1.296-.27 1.922-.072.3.094.577.239.832.422l.09-.019c.123-.02.153-.027.278-.037.123-.011.155-.009.278-.011.14.006.14.006.279.018.232.031.458.078.679.16.483.179.914.49 1.236.892.137.171.25.356.346.552l.087.024c.118.041.149.049.264.098.216.093.42.212.607.354.523.398.897.975 1.049 1.614.062.263.083.531.073.801l.075.049c.102.075.131.093.227.174.178.152.337.326.473.517.429.601.61 1.361.498 2.092-.043.277-.13.54-.246.795-.629 1.29-1.259 2.58-1.888 3.871-.428.878-.852 1.759-1.286 2.635-.206.403-.444.788-.72 1.147-.744.967-1.736 1.734-2.858 2.213-.473.201-.968.352-1.473.448-.624.119-1.263.155-1.895.105-.68-.053-1.352-.205-1.989-.449-.405-.154-.793-.352-1.18-.545-.097-.05-.097-.05-.193-.102-.467-.265-.901-.58-1.288-.954-.365-.352-.685-.749-.952-1.179z"/><path d="m24.182 15.106 2.628-5.387c.099-.204.114-.439.04-.654-.074-.214-.23-.391-.434-.49-.205-.1-.44-.114-.655-.04-.214.073-.391.23-.49.434l-2.377 4.874-.513-.251 2.126-4.36c.1-.205.114-.44.04-.655-.073-.214-.23-.391-.434-.49-.204-.1-.439-.114-.654-.04s-.391.23-.491.434l-3.378 6.926s-.005-.574-.012-1.277c-.014-1.409-1.168-2.541-2.578-2.527s.041 4.164.069 7c.016 1.576.921 3.009 2.338 3.7.162.079.328.16.496.242 2.557 1.247 5.641.186 6.889-2.372l3.121-6.4c.207-.425.031-.937-.394-1.145-.425-.207-.938-.03-1.145.395l-1.877 3.847-.513-.25 2.628-5.387c.099-.204.114-.439.04-.654-.074-.214-.23-.391-.435-.491-.204-.099-.439-.114-.654-.04-.214.074-.391.231-.49.435l-2.378 4.873z" fill="#b1ed9b"/><g clip-path="url(#b)"><path d="m20.114 11.969c.051.007.1.018.147.039.13.057.232.168.276.303.016.049.022.099.024.15l.033 3.353c.051.006.102.015.152.024.067.014.132.029.198.046.261.075.51.181.739.328.538.343.94.878 1.123 1.489.065.218.1.443.11.67.013.533.012 1.065.017 1.598-.002.078-.016.152-.05.222-.115.239-.407.347-.65.241-.047-.02-.09-.048-.129-.082-.099-.087-.153-.204-.169-.333-.027-.551.006-1.103-.02-1.653-.013-.171-.047-.337-.108-.497-.184-.482-.591-.858-1.085-1.006-.193-.058-.392-.077-.593-.067l-.525.033-.043-4.356c.002-.039.001-.038.006-.076.009-.051.022-.099.044-.146.056-.116.156-.207.277-.252.048-.018.098-.026.149-.03.039 0 .039 0 .077.002z" fill="#7ac85b" fill-rule="nonzero"/></g><path d="m7.818 15.106-2.628-5.387c-.099-.204-.114-.439-.04-.654.074-.214.23-.391.434-.49.205-.1.44-.114.655-.04.214.073.391.23.49.434l2.377 4.874.513-.251-2.126-4.36c-.1-.205-.114-.44-.04-.655.073-.214.23-.391.434-.49.204-.1.439-.114.654-.04s.391.23.491.434l3.378 6.926s.005-.574.012-1.277c.014-1.409 1.168-2.541 2.578-2.527s-.041 4.164-.069 7c-.016 1.576-.921 3.009-2.338 3.7-.162.079-.328.16-.496.242-2.557 1.247-5.641.186-6.889-2.372l-3.121-6.4c-.207-.425-.031-.937.394-1.145.425-.207.938-.03 1.145.395l1.877 3.847.513-.25-2.628-5.387c-.099-.204-.114-.439-.04-.654.074-.214.23-.391.435-.491.204-.099.439-.114.654-.04.214.074.391.231.49.435l2.378 4.873z" fill="#b1ed9b"/><g clip-path="url(#c)"><path d="m11.963 11.967c.051.004.101.012.149.03.133.05.241.155.292.287.024.061.033.123.035.187l-.043 4.356c-.202-.013-.41-.031-.615-.036-.057 0-.113.002-.171.006-.169.017-.334.055-.492.12-.409.169-.741.501-.909.91-.071.172-.11.352-.124.537-.026.538-.013 1.076-.018 1.615-.006.13-.051.251-.143.345-.186.189-.497.198-.693.02-.038-.035-.071-.075-.096-.119-.04-.068-.059-.141-.067-.218-.015-.545.004-1.09.016-1.636.013-.273.06-.541.152-.799.236-.666.738-1.221 1.377-1.524.246-.117.506-.191.774-.232l.019-.002.033-3.353c.002-.038.002-.038.006-.076.011-.051.024-.099.048-.145.072-.142.202-.231.355-.265.039-.006.076-.008.115-.008z" fill="#7ac85b" fill-rule="nonzero"/></g></g></svg>