<svg clip-rule="evenodd" fill-rule="evenodd" stroke-linecap="round" viewBox="0 0 32 32" xmlns="http://www.w3.org/2000/svg" xmlns:xlink="http://www.w3.org/1999/xlink"><clipPath id="a"><path clip-rule="evenodd" d="m0 0h32v32h-32z"/></clipPath><clipPath id="b"><path clip-rule="evenodd" d="m14 6c-4.971 0-9 4.029-9 9v.912c0 2.001.667 3.946 1.896 5.525 1.027 1.321 2.29 2.945 3.302 4.247 1.137 1.461 2.885 2.316 4.737 2.316h2.13c1.852 0 3.6-.855 4.737-2.316 1.012-1.302 2.275-2.926 3.302-4.247 1.229-1.579 1.896-3.524 1.896-5.525 0-.292 0-.598 0-.912 0-4.971-4.029-9-9-9-1.32 0-2.68 0-4 0z"/></clipPath><metadata/><path d="m0 0h32v32h-32z" fill="none"/><g clip-path="url(#a)"><path d="m23 11.141c0-1.338.668-2.587 1.781-3.328.162-.108.319-.213.463-.309.493-.329 1.072-.504 1.664-.504h.092c.796 0 1.559.316 2.121.879.563.562.879 1.325.879 2.121v1.146c0 1.136-.642 2.175-1.658 2.683-.135.067-.272.136-.408.204-1.155.577-2.55.351-3.463-.562-.74-.74-1.471-1.471-1.471-1.471s0-.375 0-.859z" fill="none" stroke="#000" stroke-width="4"/><path d="m9 11.141c0-1.338-.668-2.587-1.781-3.328-.162-.108-.319-.213-.463-.309-.493-.329-1.072-.504-1.664-.504-.03 0-.061 0-.092 0-.796 0-1.559.316-2.121.879-.563.562-.879 1.325-.879 2.121v1.146c0 1.136.642 2.175 1.658 2.683.135.067.272.136.408.204 1.155.577 2.55.351 3.463-.562.74-.74 1.471-1.471 1.471-1.471s0-.375 0-.859z" fill="none" stroke="#000" stroke-width="4"/><path d="m14 6c-4.971 0-9 4.029-9 9v.912c0 2.001.667 3.946 1.896 5.525 1.027 1.321 2.29 2.945 3.302 4.247 1.137 1.461 2.885 2.316 4.737 2.316h2.13c1.852 0 3.6-.855 4.737-2.316 1.012-1.302 2.275-2.926 3.302-4.247 1.229-1.579 1.896-3.524 1.896-5.525 0-.292 0-.598 0-.912 0-4.971-4.029-9-9-9-1.32 0-2.68 0-4 0z"/><path d="m18.142 4.001.141.003.141.004.14.006.141.008.139.01.14.011.138.014.139.015.137.016.138.019.137.02.136.021.136.024.135.025.135.026.134.029.133.03.133.031.133.033.131.035.131.036.131.038.129.04.129.041.129.042.127.044.127.046.126.047.126.049.124.05.124.051.124.053.122.055.121.055.121.058.12.058.119.061.118.061.118.063.116.064.116.066.115.066.113.069.113.069.112.071.111.072.111.074.109.075.108.076.107.077.107.078.105.08.104.081.104.082.102.084.101.084.1.086.1.087.098.088.097.089.096.091.094.091.094.093.093.094.091.094.091.096.089.097.088.099.087.099.086.1.084.101.084.102.082.104.081.104.08.105.078.107.077.107.077.108.074.109.074.111.072.111.071.112.069.113.069.113.066.115.066.116.064.116.063.118.062.118.06.119.058.12.058.121.055.121.055.122.053.124.051.124.05.124.049.126.047.126.046.127.044.127.042.129.041.129.04.129.038.131.036.131.035.131.033.133.031.133.03.133.029.134.026.135.025.135.024.136.021.136.02.137.019.137.016.138.015.139.014.138.011.14.01.14.008.14.006.14.004.141.003.141.001.136v.923l-.001.11-.001.114-.003.115-.004.114-.006.114-.006.114-.008.114-.009.113-.01.114-.011.113-.013.113-.013.113-.015.113-.016.112-.017.113-.018.112-.019.112-.021.111-.021.111-.023.111-.024.111-.025.111-.026.11-.027.11-.029.109-.029.11-.031.109-.031.108-.033.108-.034.108-.035.108-.036.107-.038.107-.038.106-.039.106-.041.106-.042.105-.042.105-.044.104-.045.104-.046.103-.047.103-.048.103-.049.102-.05.102-.052.101-.052.1-.053.1-.055.1-.055.099-.057.099-.058.098-.058.097-.06.097-.061.096-.061.096-.063.095-.064.095-.065.094-.066.093-.067.093-.067.092-.069.092-.067.086-3.31 4.256-.067.085-.073.09-.074.088-.075.087-.076.086-.078.085-.078.083-.08.083-.08.081-.082.079-.083.079-.084.077-.085.076-.085.075-.087.073-.088.072-.088.071-.09.07-.09.068-.092.066-.092.066-.093.064-.094.063-.095.061-.096.06-.096.059-.097.057-.098.056-.099.055-.099.053-.101.051-.101.051-.101.048-.103.048-.103.046-.103.044-.105.043-.104.042-.106.04-.106.039-.107.037-.107.035-.108.035-.108.032-.109.031-.109.03-.11.028-.11.026-.111.025-.111.024-.112.022-.112.02-.112.019-.113.017-.113.015-.114.014-.113.013-.114.01-.115.009-.115.008-.114.006-.116.004-.115.002-.108.001h-2.146l-.108-.001-.115-.002-.116-.004-.114-.006-.115-.008-.115-.009-.114-.01-.113-.013-.114-.014-.113-.015-.113-.017-.112-.019-.112-.02-.112-.022-.111-.024-.111-.025-.11-.026-.11-.028-.109-.03-.109-.031-.108-.032-.108-.035-.107-.035-.107-.037-.106-.039-.106-.04-.104-.042-.105-.043-.103-.044-.103-.046-.103-.048-.101-.048-.101-.051-.101-.051-.099-.053-.099-.055-.098-.056-.097-.057-.096-.059-.096-.06-.095-.061-.094-.063-.093-.064-.092-.066-.092-.066-.09-.068-.09-.07-.088-.071-.088-.072-.087-.073-.085-.075-.085-.076-.084-.077-.083-.079-.082-.079-.08-.081-.08-.083-.078-.083-.078-.085-.076-.086-.075-.087-.074-.088-.073-.09-.067-.085-3.31-4.256-.067-.086-.069-.092-.067-.092-.067-.093-.066-.093-.065-.094-.064-.095-.063-.095-.061-.096-.061-.096-.06-.097-.058-.097-.058-.098-.057-.099-.055-.099-.055-.1-.053-.1-.052-.1-.052-.101-.05-.102-.049-.102-.048-.103-.047-.103-.046-.103-.045-.104-.044-.104-.042-.105-.042-.105-.041-.106-.039-.106-.038-.106-.038-.107-.036-.107-.035-.108-.034-.108-.033-.108-.031-.108-.031-.11-.029-.109-.029-.109-.027-.11-.026-.11-.025-.111-.024-.111-.023-.111-.021-.111-.021-.111-.019-.112-.018-.112-.017-.113-.016-.112-.015-.113-.013-.113-.013-.113-.011-.113-.01-.114-.009-.113-.008-.114-.006-.114-.006-.114-.004-.114-.003-.115-.001-.114-.001-.11v-.923l.001-.136.003-.141.004-.141.006-.14.008-.14.01-.14.011-.14.014-.138.015-.139.016-.138.019-.137.02-.137.021-.136.024-.136.025-.135.026-.135.029-.134.03-.133.031-.133.033-.133.035-.131.036-.131.038-.131.04-.129.041-.129.042-.129.044-.127.046-.127.047-.126.049-.126.05-.124.051-.124.053-.124.055-.122.055-.121.058-.121.058-.12.06-.119.062-.118.063-.118.064-.116.066-.116.066-.115.069-.113.069-.113.071-.112.072-.111.074-.111.074-.109.077-.108.077-.107.078-.107.08-.105.081-.104.082-.104.084-.102.084-.101.086-.1.087-.099.088-.099.089-.097.091-.096.091-.094.093-.094.093-.093.095-.091.096-.091.097-.089.098-.088.1-.087.1-.086.101-.084.102-.084.104-.082.104-.081.105-.08.107-.078.107-.077.108-.076.109-.075.111-.074.111-.072.112-.071.113-.069.113-.069.115-.066.116-.066.116-.064.118-.063.118-.061.119-.061.12-.058.121-.058.121-.055.122-.055.124-.053.124-.051.124-.05.126-.049.126-.047.127-.046.127-.044.129-.042.129-.041.129-.04.131-.038.131-.036.131-.035.133-.033.133-.031.133-.03.134-.029.135-.026.135-.025.136-.024.136-.021.137-.02.138-.019.137-.016.139-.015.138-.014.14-.011.139-.01.141-.008.14-.006.141-.004.141-.003.136-.001h4.012zm-4.136 3.999-.097.001-.091.001-.09.003-.09.004-.09.005-.089.007-.089.007-.088.008-.088.01-.088.01-.087.012-.088.013-.086.014-.086.014-.086.016-.086.017-.085.018-.085.019-.084.02-.084.021-.083.022-.083.023-.083.024-.082.025-.082.026-.082.027-.08.028-.081.029-.08.03-.079.031-.079.032-.079.032-.078.034-.078.034-.077.036-.077.036-.076.038-.075.038-.076.039-.074.04-.074.041-.074.041-.073.043-.072.043-.072.045-.071.045-.071.046-.07.046-.07.048-.069.048-.068.05-.068.05-.067.05-.067.052-.066.053-.065.053-.064.054-.064.054-.064.056-.062.056-.062.057-.061.058-.061.058-.06.059-.059.06-.058.061-.058.061-.057.062-.056.062-.056.064-.054.064-.054.064-.053.065-.053.066-.052.067-.05.067-.05.068-.05.068-.048.069-.048.07-.046.07-.046.071-.046.071-.044.072-.043.072-.043.073-.041.074-.041.074-.04.074-.039.075-.038.076-.038.076-.036.077-.036.077-.034.078-.034.078-.032.078-.032.08-.031.079-.03.08-.029.081-.028.081-.027.081-.026.082-.025.082-.024.082-.023.084-.022.083-.021.084-.02.084-.019.085-.018.085-.017.086-.016.086-.014.086-.014.086-.013.088-.012.087-.01.088-.01.088-.008.088-.007.089-.007.089-.005.09-.004.09-.003.09-.001.091-.001.097v.901.078l.002.073.001.073.003.072.003.073.005.073.005.072.005.072.007.072.007.073.008.071.008.072.01.072.01.072.01.071.012.072.012.07.013.072.014.071.015.07.015.071.016.07.016.07.018.07.018.07.018.069.02.069.02.07.021.069.022.068.022.069.023.068.024.068.024.067.025.068.026.067.026.067.028.067.027.066.029.066.029.066.03.066.031.065.031.065.032.065.033.064.033.064.034.064.035.063.035.063.036.063.037.062.037.062.038.062.039.061.039.061.04.061.04.06.042.06.041.059.043.059.043.059.044.058.048.062 3.295 4.236.04.051.036.045.037.044.038.044.038.043.039.042.039.042.04.041.04.04.041.04.041.04.042.038.042.038.043.037.044.037.044.036.044.035.045.035.045.034.046.034.046.032.046.032.047.032.048.03.047.03.049.03.048.028.049.028.05.028.049.026.051.026.05.025.051.025.051.023.052.023.052.023.052.021.052.021.053.02.053.019.053.019.054.018.054.017.054.016.054.016.055.014.055.014.055.014.055.012.056.012.056.011.056.01.056.009.056.009.057.008.056.007.057.006.057.005.058.005.057.003.057.003.058.002.058.002h.065 2.116.065l.058-.002.058-.002.057-.003.057-.003.058-.005.057-.005.057-.006.056-.007.057-.008.056-.009.056-.009.056-.01.056-.011.056-.012.055-.012.055-.014.055-.014.055-.014.054-.016.054-.016.054-.017.054-.018.053-.019.053-.019.053-.02.052-.021.052-.021.052-.023.052-.023.051-.023.051-.025.05-.025.051-.026.049-.026.05-.028.049-.028.048-.028.049-.03.047-.03.048-.03.047-.032.046-.032.046-.032.046-.034.045-.034.045-.035.044-.035.044-.036.044-.037.043-.037.042-.038.042-.038.041-.04.041-.04.04-.04.04-.041.039-.042.039-.042.038-.043.038-.044.037-.044.036-.045.04-.051 3.295-4.236.048-.062.044-.058.043-.059.043-.059.041-.059.042-.06.04-.061.04-.06.039-.061.039-.061.038-.062.037-.062.037-.062.036-.063.035-.063.035-.063.034-.064.033-.064.033-.064.032-.065.031-.065.031-.065.03-.066.029-.066.029-.066.027-.066.028-.067.026-.067.026-.067.025-.068.024-.067.024-.068.023-.068.022-.069.022-.068.021-.069.02-.07.02-.069.018-.069.018-.07.018-.07.016-.07.016-.07.015-.071.015-.07.014-.071.013-.072.012-.07.012-.072.01-.071.01-.072.01-.072.008-.072.008-.071.007-.073.007-.072.005-.072.005-.073.005-.072.003-.073.003-.072.001-.073.002-.073v-.078-.901l-.001-.097-.001-.091-.003-.09-.004-.09-.005-.09-.007-.089-.007-.089-.008-.088-.01-.088-.01-.088-.012-.088-.013-.087-.014-.086-.014-.086-.016-.086-.017-.086-.018-.085-.019-.085-.02-.084-.021-.084-.022-.083-.023-.083-.024-.083-.025-.082-.026-.082-.027-.081-.028-.081-.029-.081-.03-.08-.031-.079-.032-.08-.032-.078-.034-.078-.034-.078-.036-.077-.036-.077-.038-.076-.038-.076-.039-.075-.04-.074-.041-.074-.041-.074-.043-.073-.043-.072-.044-.072-.046-.071-.046-.071-.046-.07-.048-.07-.048-.069-.05-.068-.05-.068-.05-.067-.052-.067-.053-.066-.053-.065-.054-.064-.054-.064-.056-.064-.056-.062-.057-.062-.058-.061-.058-.061-.059-.06-.06-.059-.061-.058-.061-.058-.062-.057-.062-.056-.064-.056-.064-.054-.064-.054-.065-.053-.066-.053-.067-.052-.067-.05-.068-.05-.068-.05-.069-.048-.07-.048-.07-.046-.071-.046-.071-.046-.072-.044-.072-.043-.073-.043-.074-.041-.074-.041-.074-.04-.076-.039-.075-.038-.076-.038-.077-.036-.077-.036-.078-.034-.078-.034-.079-.032-.079-.032-.079-.031-.08-.03-.081-.029-.08-.028-.082-.027-.082-.026-.082-.025-.083-.024-.083-.023-.083-.022-.084-.021-.084-.02-.085-.019-.085-.018-.086-.017-.086-.016-.086-.014-.086-.014-.088-.013-.087-.012-.088-.01-.088-.01-.088-.008-.089-.007-.089-.007-.09-.005-.09-.004-.09-.003-.091-.001-.097-.001h-3.988z"/><g fill="none"><path d="m20 21.667 8-2.667" stroke="#000" stroke-linejoin="round" stroke-width="5"/><path d="m12 21.667-8-2.667" stroke="#000" stroke-linejoin="round" stroke-width="5"/><path d="m12 23.833-5 1.667" stroke="#000" stroke-linejoin="round" stroke-width="5"/><path d="m20 23.833 5 1.667" stroke="#000" stroke-linejoin="round" stroke-width="5"/></g><path d="m14 6c-4.971 0-9 4.029-9 9v.912c0 2.001.667 3.946 1.896 5.525 1.027 1.321 2.29 2.945 3.302 4.247 1.137 1.461 2.885 2.316 4.737 2.316h2.13c1.852 0 3.6-.855 4.737-2.316 1.012-1.302 2.275-2.926 3.302-4.247 1.229-1.579 1.896-3.524 1.896-5.525 0-.292 0-.598 0-.912 0-4.971-4.029-9-9-9-1.32 0-2.68 0-4 0z" fill="#dadada"/><g clip-path="url(#b)"><path d="m14.859 16.011c.081.567.567.989 1.14.989h.002c.573 0 1.059-.422 1.14-.989.211-1.475.601-4.205.773-5.411.057-.396.192-.777.398-1.119.767-1.28 2.688-4.481 2.688-4.481h-10s1.921 3.201 2.688 4.481c.206.342.341.723.398 1.119.172 1.206.562 3.936.773 5.411z" fill="#bdbdbd"/></g><path d="m20.02 24 .039.004.039.006.038.009.038.012.036.015.035.018.033.021.032.023.03.025.028.028.025.03.023.032.021.033.017.035.015.036.012.038.009.038.007.039.003.039v.039l-.004.039-.006.039-.009.038-.012.038-.015.036-.018.035-.021.033-.023.032-.025.03-.028.028-.03.025-.032.023-2.5 1.667-.074.047-.079.047-.081.044-.082.04-.084.038-.085.034-.086.032-.087.028-.088.025-.089.021-.09.019-.09.015-.092.012-.091.008-.092.005-.088.002h-.798l-.088-.002-.092-.005-.091-.008-.092-.012-.09-.015-.09-.019-.089-.021-.088-.025-.087-.028-.086-.032-.085-.034-.084-.038-.082-.04-.081-.044-.079-.047-.074-.047-2.5-1.667-.032-.023-.03-.025-.028-.028-.025-.03-.023-.032-.021-.033-.018-.035-.015-.036-.012-.038-.009-.038-.006-.039-.004-.039v-.039l.003-.039.007-.039.009-.038.012-.038.015-.036.017-.035.021-.033.023-.032.025-.03.028-.028.03-.025.032-.023.033-.021.035-.018.036-.015.038-.012.038-.009.039-.006.039-.004h.039l.039.003.039.007.038.009.038.012.036.015.035.017.033.021 2.493 1.661.05.033.048.028.048.026.05.025.05.022.051.021.052.019.052.017.053.015.053.013.054.011.054.009.055.007.055.005.055.003.06.001h.78l.06-.001.055-.003.055-.005.055-.007.054-.009.054-.011.053-.013.053-.015.052-.017.052-.019.051-.021.05-.022.05-.025.048-.026.048-.028.05-.033 2.493-1.661.033-.021.035-.017.036-.015.038-.012.038-.009.039-.007.039-.003z" fill="#cc8484"/><path d="m9 15.484c0-.394.156-.771.435-1.049.278-.279.655-.435 1.049-.435h.002c1.388 0 2.514 1.126 2.514 2.514v.002c0 .394-.156.771-.435 1.049-.278.279-.655.435-1.049.435-.169 0-.342 0-.516 0-1.105 0-2-.895-2-2 0-.174 0-.347 0-.516z"/><path d="m23 15.484c0-.394-.156-.771-.435-1.049-.278-.279-.655-.435-1.049-.435-.001 0-.001 0-.002 0-1.388 0-2.514 1.126-2.514 2.514v.002c0 .394.156.771.435 1.049.278.279.655.435 1.049.435h.516c1.105 0 2-.895 2-2 0-.174 0-.347 0-.516z"/><path d="m23 11.141c0-1.338.668-2.587 1.781-3.328.162-.108.319-.213.463-.309.493-.329 1.072-.504 1.664-.504h.092c.796 0 1.559.316 2.121.879.563.562.879 1.325.879 2.121v1.146c0 1.136-.642 2.175-1.658 2.683-.135.067-.272.136-.408.204-1.155.577-2.55.351-3.463-.562-.74-.74-1.471-1.471-1.471-1.471s0-.375 0-.859z" fill="#3e3e3e"/><path d="m9 11.141c0-1.338-.668-2.587-1.781-3.328-.162-.108-.319-.213-.463-.309-.493-.329-1.072-.504-1.664-.504-.03 0-.061 0-.092 0-.796 0-1.559.316-2.121.879-.563.562-.879 1.325-.879 2.121v1.146c0 1.136.642 2.175 1.658 2.683.135.067.272.136.408.204 1.155.577 2.55.351 3.463-.562.74-.74 1.471-1.471 1.471-1.471s0-.375 0-.859z" fill="#3e3e3e"/><path d="m20 21.667 8-2.667" fill="none" stroke="#828282" stroke-linejoin="round"/><path d="m12 21.667-8-2.667" fill="none" stroke="#828282" stroke-linejoin="round"/><path d="m12 23.833-5 1.667" fill="none" stroke="#828282" stroke-linejoin="round"/><path d="m20 23.833 5 1.667" fill="none" stroke="#828282" stroke-linejoin="round"/><path d="m14.51 22.49c-.305.305-.38.77-.188 1.155.13.258.277.554.402.802.169.339.515.553.894.553h.764c.379 0 .725-.214.894-.553.125-.248.272-.544.402-.802.192-.385.117-.85-.188-1.155-.025-.025-.05-.05-.076-.076-.375-.375-.884-.586-1.414-.586s-1.039.211-1.414.586c-.026.026-.051.051-.076.076z" fill="#f69191"/></g></svg>