<svg clip-rule="evenodd" fill-rule="evenodd" stroke-linecap="round" stroke-linejoin="round" stroke-miterlimit="3" viewBox="0 0 32 32" xmlns="http://www.w3.org/2000/svg" xmlns:xlink="http://www.w3.org/1999/xlink"><clipPath id="a"><path clip-rule="evenodd" d="m0 0h32v32h-32z"/></clipPath><metadata/><path d="m0 0h32v32h-32z" fill="none"/><g clip-path="url(#a)"><path d="m15 4.5v-2c0-.133.053-.26.146-.354.094-.093.221-.146.354-.146h1c.133 0 .26.053.354.146.093.094.146.221.146.354v3.5c3.183 0 6.235 1.264 8.485 3.515 2.251 2.25 3.515 5.302 3.515 8.485 0 3.183-1.264 6.235-3.515 8.485-2.25 2.251-5.302 3.515-8.485 3.515h-1c-3.183 0-6.235-1.264-8.485-3.515-2.251-2.25-3.515-5.302-3.515-8.485 0-3.183 1.264-6.235 3.515-8.485.926-.927 1.989-1.686 3.141-2.259-1.086.098-2.192-.134-3.165-.69-2.008-1.147-4.491-2.566-4.491-2.566s.447-.268 1.073-.644c2.446-1.467 5.472-1.584 8.023-.308zm0 1.542v-.542l-1.547.773c.508-.11 1.025-.188 1.547-.231z" fill="none" stroke="#000" stroke-width="4"/><path d="m17 2.5c0-.133-.053-.26-.146-.354-.094-.093-.221-.146-.354-.146-.305 0-.695 0-1 0-.133 0-.26.053-.354.146-.093.094-.146.221-.146.354v7.5h2z" fill="#1c7d46"/><path d="m16 5s-1.936-.968-3.904-1.952c-2.551-1.276-5.577-1.159-8.023.308-.626.376-1.073.644-1.073.644s2.483 1.419 4.491 2.566c1.567.896 3.479.949 5.094.142 1.625-.813 3.415-1.708 3.415-1.708z" fill="#219555"/><path d="m29 18c0-3.183-1.264-6.235-3.515-8.485-2.25-2.251-5.302-3.515-8.485-3.515h-1c-3.183 0-6.235 1.264-8.485 3.515-2.251 2.25-3.515 5.302-3.515 8.485 0 3.183 1.264 6.235 3.515 8.485 2.25 2.251 5.302 3.515 8.485 3.515h1c3.183 0 6.235-1.264 8.485-3.515 2.251-2.25 3.515-5.302 3.515-8.485z" fill="#ee9b15"/><path d="m16.685 11.15c.077-.773-.196-1.54-.746-2.089-.549-.55-1.316-.823-2.089-.746 0 0-.001 0-.002 0-3.983.399-7.134 3.55-7.533 7.533v.002c-.077.773.196 1.54.746 2.089.549.55 1.316.823 2.089.746h.002c3.983-.399 7.134-3.55 7.533-7.533 0-.001 0-.002 0-.002z" fill="#ffb96a"/></g></svg>