<svg clip-rule="evenodd" fill-rule="evenodd" stroke-linejoin="round" stroke-miterlimit="2" viewBox="0 0 32 32" xmlns="http://www.w3.org/2000/svg" xmlns:xlink="http://www.w3.org/1999/xlink"><clipPath id="a"><path clip-rule="evenodd" d="m0 0h32v32h-32z"/></clipPath><metadata/><path d="m0 0h32v32h-32z" fill="none"/><g clip-path="url(#a)"><path d="m4.261 9.504c.107-.506.246-1.004.418-1.492.578-1.641 1.519-3.15 2.735-4.395 1.248-1.279 2.781-2.274 4.46-2.888.839-.308 1.713-.52 2.6-.633.455-.058.913-.086 1.371-.095.156-.001.155-.001.31 0 .458.009.916.037 1.371.095.887.113 1.761.325 2.6.633 1.679.614 3.212 1.609 4.46 2.888 1.216 1.245 2.157 2.754 2.735 4.395.172.488.311.986.418 1.492l3.953-.989c.103.08.205.16.308.24 0 2.445.017 4.889-.001 7.333-.002.089-.005.176-.009.264-.031.465-.109.924-.242 1.37-.257.856-.706 1.651-1.307 2.312-.254.28-.535.533-.835.762l-1.739 1.304c-.051.335-.115.668-.194.998-.404 1.696-1.181 3.298-2.263 4.665-.479.606-1.018 1.158-1.6 1.664-.381.322-.765.639-1.147.958-.235.191-.477.37-.732.532-.683.431-1.441.743-2.23.918-.447.099-.9.148-1.358.163-1.514.017-3.029.002-4.544.002-.353-.004-.704-.028-1.053-.081-.749-.115-1.477-.353-2.15-.701-.393-.203-.761-.445-1.111-.715l-.749 1.497h-5.736v-10.745c-.224-.169-.447-.339-.67-.508-.07-.055-.138-.11-.206-.167-.353-.303-.673-.64-.95-1.015-.531-.719-.898-1.555-1.066-2.432-.072-.372-.105-.748-.108-1.126v-7.252l.308-.24 3.953.989z"/><path d="m5 30h2.5l2.5-5v-12h-5z" fill="#1c2c12"/><path d="m30 12.031-2.393 7.764-3.607 2.705v-10l6-1.5z" fill="#77b84c"/><path d="m30 12.031v3.969c0 1.259-.593 2.445-1.6 3.2l-.793.595c-.378-.366-.607-.878-.607-1.435v-5.579z" fill="#618e29"/><path d="m2 12.031 2.393 7.764 3.607 2.705v-10l-6-1.5z" fill="#77b84c"/><path d="m2 12.031v3.969c0 1.259.593 2.445 1.6 3.2l.793.595c.378-.366.607-.878.607-1.435v-5.579z" fill="#618e29"/><path d="m22.001 4c2.428 1.824 3.999 4.729 3.999 8v8.316c0 2.968-1.318 5.783-3.598 7.682-.356.297-.7.584-1.011.843-.899.749-2.032 1.159-3.201 1.159-1.309 0-3.071 0-4.38 0-1.169 0-2.302-.41-3.201-1.159-.311-.259-.655-.546-1.011-.843-2.28-1.899-3.598-4.714-3.598-7.682v-8.222-.094l16-8z" fill="#77b84c"/><path d="m8.036 14.555c-.204-.307-.223-.702-.049-1.027s.513-.528.882-.528h3.131c.552 0 1 .448 1 1v1c0 .552-.448 1-1 1-.781 0-1.837 0-2.465 0-.334 0-.646-.167-.832-.445-.18-.271-.422-.633-.667-1zm15.928 0c.204-.307.223-.702.049-1.027s-.513-.528-.882-.528c-1.034 0-2.28 0-3.131 0-.552 0-1 .448-1 1v1c0 .552.448 1 1 1h2.465c.334 0 .646-.167.832-.445.18-.271.422-.633.667-1z"/><path d="m19.316 19.949c-.709.236-1.416.479-2.128.708-.078.024-.155.045-.234.065-.47.111-.953.145-1.434.087-.24-.029-.476-.082-.708-.152l-.072-.023-2.056-.685.632-1.898c.71.237 1.413.493 2.129.708.065.018.13.033.196.046.32.055.642.036.953-.058l.043-.014 2.047-.682c.211.633.421 1.265.632 1.898z" fill="#456e17" fill-rule="nonzero"/><path d="m12 24h-3l1-4zm11 0-1-4-2 4z" fill="#fff"/><path d="m22.838 22.513.624 1.872-.014.008c-1.156.579-2.307 1.17-3.47 1.739-.179.083-.364.152-.556.2-.384.097-.781.113-1.173.059-.716-.113-1.426-.275-2.146-.358-.083-.008-.166-.006-.248.005-.723.113-1.441.26-2.166.359-.177.02-.353.028-.53.019-.375-.019-.738-.111-1.081-.261-1.192-.553-2.35-1.173-3.525-1.761-.005-.002-.01-.005-.015-.008l.624-1.873c.025.004.05.009.075.015.074.018.141.046.21.078 1.163.581 2.29 1.241 3.491 1.741.166.066.342.087.519.063.705-.111 1.406-.241 2.11-.351.29-.039.578-.039.867.001.723.113 1.438.289 2.166.36.179.014.355-.018.518-.094 1.15-.562 2.289-1.147 3.434-1.721.06-.028.075-.036.138-.057.049-.016.098-.027.148-.035z" fill="#456e17"/><path d="m6 12c0-5.523 4.477-10 10-10 2.251 0 4.329.744 6 1.999v1.93c0 1.326-.527 2.598-1.464 3.535-2.55 2.55-7.536 7.536-7.536 7.536v-6l-7 7v-5.969z" fill="#1c2c12"/></g></svg>