<svg clip-rule="evenodd" fill-rule="evenodd" stroke-linecap="round" viewBox="0 0 32 32" xmlns="http://www.w3.org/2000/svg" xmlns:xlink="http://www.w3.org/1999/xlink"><clipPath id="a"><path clip-rule="evenodd" d="m0 0h32v32h-32z"/></clipPath><clipPath id="b"><path clip-rule="evenodd" d="m25 9s.824-.824 1.414-1.414c.375-.375.884-.586 1.414-.586h.172c.53 0 1.039.211 1.414.586s.586.884.586 1.414v2.172c0 .53-.211 1.039-.586 1.414-.873.873-2.414 2.414-2.414 2.414z"/></clipPath><clipPath id="c"><path clip-rule="evenodd" d="m7 9s-.824-.824-1.414-1.414c-.375-.375-.884-.586-1.414-.586-.056 0-.114 0-.172 0-.53 0-1.039.211-1.414.586s-.586.884-.586 1.414v2.172c0 .53.211 1.039.586 1.414.873.873 2.414 2.414 2.414 2.414z"/></clipPath><metadata/><path d="m0 0h32v32h-32z" fill="none"/><g clip-path="url(#a)"><g fill="none"><path d="m7 9s-.824-.824-1.414-1.414c-.375-.375-.884-.586-1.414-.586-.056 0-.114 0-.172 0-.53 0-1.039.211-1.414.586s-.586.884-.586 1.414v2.172c0 .53.211 1.039.586 1.414.873.873 2.414 2.414 2.414 2.414z" stroke="#000" stroke-width="4"/><path d="m25 9s.824-.824 1.414-1.414c.375-.375.884-.586 1.414-.586h.172c.53 0 1.039.211 1.414.586s.586.884.586 1.414v2.172c0 .53-.211 1.039-.586 1.414-.873.873-2.414 2.414-2.414 2.414z" stroke="#000" stroke-width="4"/><path d="m22 19s1.975 1.975 2.72 2.72c.186.186.354.39.5.61.519.779 1.78 2.67 1.78 2.67" stroke="#000" stroke-width="4"/><path d="m10 19s-1.975 1.975-2.72 2.72c-.186.186-.354.39-.5.61-.519.779-1.78 2.67-1.78 2.67" stroke="#000" stroke-width="4"/><path d="m24 18s1.891 1.261 2.67 1.78c.22.146.424.314.61.5.745.745 2.72 2.72 2.72 2.72" stroke="#000" stroke-width="4"/><path d="m8 18s-1.891 1.261-2.67 1.78c-.22.146-.424.314-.61.5-.745.745-2.72 2.72-2.72 2.72" stroke="#000" stroke-width="4"/></g><path d="m13.311 6c-5.246 0-9.601 4.054-9.974 9.288-.03.412-.058.812-.086 1.194-.158 2.213.743 4.37 2.427 5.813.886.76 1.847 1.583 2.637 2.261 1.087.932 2.472 1.444 3.905 1.444h7.78c1.298 0 2.561-.421 3.6-1.2.885-.664 2.018-1.513 3.084-2.313 2.045-1.534 3.091-4.06 2.73-6.59-.061-.423-.123-.862-.187-1.311-.704-4.927-4.923-8.586-9.9-8.586-1.954 0-4.036 0-6.016 0z"/><path d="m19.467 4.001.139.002.139.004.138.006.138.007.138.009.138.01.137.012.137.013.136.015.136.016.135.018.135.02.135.021.134.022.134.024.133.026.133.027.132.028.132.03.131.031.131.033.13.034.13.035.129.037.129.039.128.039.127.042.127.042.126.044.125.045.125.047.124.048.124.049.123.051.122.052.122.053.121.055.12.055.119.058.119.058.118.06.117.061.117.062.116.063.115.065.114.066.113.067.113.068.112.07.111.07.11.072.11.073.108.075.108.075.107.077.106.077.105.079.104.08.103.081.103.082.101.084.101.084.1.086.098.086.098.088.097.088.096.09.095.091.093.092.093.093.092.094.091.095.09.096.089.097.088.098.087.099.085.1.085.1.083.102.083.103.081.104.081.105.079.105.078.107.077.107.075.109.075.109.073.11.073.111.071.112.07.113.068.114.068.114.066.115.065.117.064.117.063.118.061.118.06.12.059.12.057.121.056.122.055.122.054.124.052.124.051.125.049.125.048.126.047.127.046.128.044.128.042.129.042.13.039.13.039.131.037.132.035.132.034.133.033.134.031.134.029.134.029.135.026.136.025.137.024.137.022.137.02.132.189 1.325.019.144.018.153.015.152.013.152.01.153.007.151.005.152.002.152v.151l-.003.152-.005.15-.008.151-.011.15-.013.15-.015.149-.018.149-.02.149-.023.148-.025.147-.028.147-.03.146-.032.146-.035.145-.037.144-.04.144-.042.142-.044.142-.047.142-.048.14-.052.14-.053.138-.056.138-.058.137-.06.136-.063.135-.064.133-.067.133-.069.132-.072.131-.073.129-.076.128-.078.128-.08.125-.082.125-.084.123-.087.122-.088.121-.091.12-.093.117-.094.117-.097.115-.099.114-.101.112-.103.11-.105.109-.106.107-.109.106-.111.104-.113.102-.114.101-.117.099-.118.097-.121.095-.115.088-3.099 2.324-.123.09-.132.093-.134.091-.136.087-.137.085-.139.081-.14.079-.142.076-.143.073-.144.07-.146.068-.147.064-.148.061-.149.058-.151.055-.151.053-.153.049-.153.046-.154.043-.156.04-.156.037-.157.033-.157.031-.158.027-.159.024-.16.021-.16.018-.161.015-.161.011-.161.009-.162.004-.152.002h-7.802l-.167-.002-.179-.006-.178-.01-.177-.014-.177-.017-.176-.022-.175-.026-.175-.029-.173-.033-.173-.037-.172-.041-.171-.045-.169-.048-.169-.052-.167-.055-.166-.06-.165-.063-.163-.066-.162-.071-.16-.073-.158-.078-.157-.08-.156-.085-.153-.088-.152-.091-.15-.095-.147-.098-.146-.101-.144-.105-.141-.108-.14-.112-.128-.108-2.651-2.272-.095-.083-.1-.089-.097-.09-.097-.092-.094-.092-.094-.094-.092-.096-.09-.096-.088-.098-.088-.099-.085-.1-.084-.101-.083-.103-.081-.103-.079-.104-.077-.106-.076-.107-.075-.107-.073-.109-.071-.109-.069-.111-.068-.111-.067-.113-.064-.113-.063-.114-.061-.115-.06-.116-.058-.116-.056-.118-.054-.118-.053-.119-.051-.12-.049-.12-.048-.121-.046-.122-.044-.122-.042-.124-.04-.123-.039-.125-.037-.125-.035-.125-.033-.126-.032-.127-.029-.127-.028-.128-.026-.128-.024-.128-.022-.129-.021-.13-.018-.13-.017-.13-.015-.13-.013-.131-.011-.132-.009-.131-.007-.132-.005-.132-.003-.132-.002-.133.001-.132.003-.133.004-.133.007-.133.008-.126.086-1.208.011-.14.013-.147.015-.145.016-.145.019-.145.02-.144.021-.143.024-.143.025-.142.026-.142.029-.141.03-.141.031-.14.033-.139.035-.139.036-.138.038-.138.04-.136.041-.136.043-.136.044-.134.046-.134.047-.133.049-.133.05-.131.052-.131.053-.13.054-.13.057-.128.057-.128.059-.127.06-.126.062-.125.063-.125.065-.123.066-.123.067-.122.069-.121.07-.119.071-.12.073-.118.074-.117.075-.116.077-.115.078-.115.079-.113.08-.113.082-.111.083-.11.084-.11.085-.108.087-.108.087-.106.089-.105.09-.104.092-.104.092-.102.093-.101.095-.1.096-.098.097-.098.098-.097.099-.095.1-.094.101-.094.102-.092.103-.09.105-.09.105-.089.107-.087.107-.086.108-.085.11-.083.11-.083.112-.081.112-.08.113-.078.114-.078.115-.076.116-.075.117-.073.118-.072.119-.071.12-.07.12-.068.121-.067.123-.065.123-.064.123-.063.125-.061.126-.06.126-.058.127-.058.128-.055.128-.054.13-.053.13-.051.13-.05.132-.048.132-.047.133-.046.134-.043.134-.043.135-.04.135-.04.137-.037.136-.036.138-.035.138-.033.138-.031.14-.03.139-.028.141-.026.141-.025.141-.023.142-.022.142-.02.143-.018.143-.016.144-.015.144-.013.145-.011.145-.01.146-.008.145-.006.147-.004.146-.003.141-.001h6.028l.134.001zm-6.15 3.999-.104.001-.099.001-.098.003-.097.004-.098.006-.097.006-.096.008-.097.009-.096.009-.095.011-.095.013-.095.013-.095.014-.094.015-.094.017-.093.018-.093.018-.093.02-.092.021-.092.022-.091.023-.091.024-.091.025-.09.026-.089.027-.09.028-.088.029-.089.03-.088.031-.087.032-.087.034-.087.034-.086.035-.085.036-.085.037-.085.038-.084.039-.083.04-.083.04-.083.042-.082.043-.081.043-.081.045-.081.045-.079.047-.079.047-.079.048-.078.049-.078.05-.076.051-.077.051-.075.053-.075.053-.074.054-.074.055-.073.056-.073.057-.071.057-.071.059-.071.059-.069.06-.069.06-.069.062-.067.062-.067.063-.066.064-.066.064-.065.066-.064.066-.063.066-.062.068-.062.068-.061.069-.06.07-.059.07-.059.071-.058.071-.056.073-.057.073-.055.073-.054.075-.054.075-.053.075-.052.077-.051.076-.05.078-.049.078-.049.079-.047.079-.047.08-.045.08-.045.081-.044.082-.043.082-.042.083-.041.083-.041.084-.039.085-.038.085-.037.085-.037.086-.035.087-.034.087-.034.087-.032.088-.032.089-.03.089-.029.089-.029.09-.027.091-.026.091-.026.091-.024.092-.023.092-.022.093-.021.093-.02.094-.019.094-.018.095-.016.095-.016.095-.014.096-.014.096-.012.097-.011.097-.01.098-.009.098-.008.104-.084 1.181-.005.081-.004.075-.003.074-.001.073v.074.074l.002.073.003.074.004.073.005.073.006.073.007.072.008.073.01.072.01.072.011.072.013.072.013.071.014.071.016.071.016.071.018.07.018.07.02.07.02.069.022.069.022.069.024.069.024.068.026.067.026.068.027.067.029.066.029.066.03.066.031.065.033.065.033.064.034.064.035.064.036.063.036.062.038.062.039.061.039.061.041.06.041.06.042.059.043.059.045.058.044.057.046.057.047.056.047.056.049.055.049.054.05.054.051.053.052.052.052.052.054.05.054.051.056.049.061.054 2.623 2.248.077.064.07.056.071.054.071.053.073.05.074.05.075.047.076.046.076.043.078.043.079.04.079.039.08.037.081.035.081.033.083.031.083.03.083.028.085.026.085.024.085.022.086.021.086.018.087.017.087.014.088.013.088.011.088.009.089.007.089.005.089.003.101.001h7.759l.091-.001.081-.002.081-.004.08-.006.08-.008.081-.008.079-.011.08-.012.079-.014.079-.015.078-.017.078-.018.078-.02.077-.022.077-.023.076-.024.076-.026.075-.028.074-.029.074-.031.074-.032.073-.033.072-.036.072-.036.07-.038.071-.039.069-.041.068-.043.068-.043.067-.046.067-.046.073-.054 3.069-2.302.075-.057.067-.053.066-.054.065-.055.064-.056.062-.057.062-.057.06-.059.059-.06.059-.06.057-.061.056-.063.055-.063.053-.063.053-.065.051-.066.051-.066.049-.067.048-.068.046-.068.046-.069.045-.07.043-.071.042-.071.041-.072.039-.073.039-.073.037-.074.036-.074.035-.075.033-.076.033-.076.03-.076.03-.078.029-.077.027-.078.026-.079.024-.079.024-.079.022-.08.02-.08.02-.08.018-.081.016-.082.016-.081.014-.082.012-.082.012-.082.01-.083.008-.083.007-.083.006-.083.004-.084.003-.084.002-.084v-.084l-.001-.084-.003-.084-.004-.085-.005-.084-.007-.085-.009-.085-.01-.084-.012-.094-.186-1.297-.014-.098-.015-.092-.016-.092-.017-.091-.017-.091-.019-.09-.02-.09-.021-.09-.021-.088-.023-.089-.024-.088-.024-.088-.026-.087-.026-.087-.028-.086-.028-.086-.03-.086-.03-.085-.031-.084-.032-.084-.033-.084-.034-.083-.034-.082-.036-.082-.037-.082-.037-.081-.038-.08-.039-.08-.04-.08-.041-.079-.042-.078-.042-.078-.043-.077-.044-.077-.045-.076-.046-.076-.047-.075-.047-.075-.048-.074-.049-.073-.05-.073-.05-.072-.052-.072-.051-.071-.053-.07-.054-.07-.054-.069-.055-.069-.056-.068-.056-.067-.058-.067-.057-.066-.059-.065-.059-.065-.06-.064-.061-.063-.061-.063-.062-.062-.063-.061-.063-.061-.064-.06-.065-.059-.065-.059-.066-.058-.067-.057-.067-.056-.068-.056-.068-.055-.069-.054-.07-.053-.07-.053-.071-.052-.071-.051-.072-.05-.073-.05-.072-.048-.074-.048-.074-.048-.075-.046-.075-.046-.076-.044-.076-.044-.077-.043-.077-.043-.077-.041-.079-.041-.078-.039-.079-.039-.08-.038-.08-.038-.08-.036-.081-.035-.082-.035-.082-.034-.082-.033-.083-.031-.083-.031-.083-.031-.084-.029-.084-.028-.085-.027-.085-.027-.086-.025-.086-.025-.086-.024-.086-.022-.087-.022-.088-.021-.087-.02-.088-.019-.089-.018-.088-.016-.089-.016-.09-.015-.089-.014-.091-.013-.09-.012-.09-.011-.091-.01-.092-.009-.091-.008-.092-.007-.092-.006-.093-.004-.092-.004-.093-.003-.093-.001-.1-.001h-6.004z"/><path d="m25 9s.824-.824 1.414-1.414c.375-.375.884-.586 1.414-.586h.172c.53 0 1.039.211 1.414.586s.586.884.586 1.414v2.172c0 .53-.211 1.039-.586 1.414-.873.873-2.414 2.414-2.414 2.414z" fill="#836f4d"/><g clip-path="url(#b)"><path d="m24 12s2.303-2.303 3.414-3.414c.375-.375.884-.586 1.414-.586h3.172v-3h-9v6z" fill="#a69068"/></g><path d="m7 9s-.824-.824-1.414-1.414c-.375-.375-.884-.586-1.414-.586-.056 0-.114 0-.172 0-.53 0-1.039.211-1.414.586s-.586.884-.586 1.414v2.172c0 .53.211 1.039.586 1.414.873.873 2.414 2.414 2.414 2.414z" fill="#836f4d"/><g clip-path="url(#c)"><path d="m8 12s-2.303-2.303-3.414-3.414c-.375-.375-.884-.586-1.414-.586-1.172 0-3.172 0-3.172 0v-3h9v6z" fill="#a69068"/></g><path d="m13.311 6c-5.246 0-9.601 4.054-9.974 9.288-.03.412-.058.812-.086 1.194-.158 2.213.743 4.37 2.427 5.813.886.76 1.847 1.583 2.637 2.261 1.087.932 2.472 1.444 3.905 1.444h7.78c1.298 0 2.561-.421 3.6-1.2.885-.664 2.018-1.513 3.084-2.313 2.045-1.534 3.091-4.06 2.73-6.59-.061-.423-.123-.862-.187-1.311-.704-4.927-4.923-8.586-9.9-8.586-1.954 0-4.036 0-6.016 0z" fill="#a69068"/><path d="m16.674 20.501.06.002.059.003.06.005.059.007.059.007.058.01.059.01.058.012.058.013.057.015.057.016.057.017.057.019.056.02.053.021 4.645 1.858.043.02.041.023.039.028.036.031.033.034.029.038.026.04.022.042.017.044.014.046.009.047.004.047v.048l-.004.047-.009.047-.013.045-.018.045-.022.042-.026.04-.029.037-.033.035-.036.031-.039.028-.041.023-.043.02-.045.016-.046.011-.047.007-.048.002-.047-.002-.047-.007-.047-.011-.045-.016-4.639-1.856-.036-.014-.034-.012-.034-.011-.034-.01-.034-.01-.035-.009-.035-.008-.035-.007-.035-.006-.035-.006-.035-.004-.036-.004-.035-.003-.036-.002-.035-.002h-.039-1.224-.039l-.035.002-.036.002-.035.003-.036.004-.035.004-.035.006-.035.006-.035.007-.035.008-.035.009-.034.01-.034.01-.034.011-.034.012-.036.014-4.639 1.856-.045.016-.047.011-.047.007-.047.002-.048-.002-.047-.007-.046-.011-.045-.016-.043-.02-.041-.023-.039-.028-.036-.031-.033-.035-.029-.037-.026-.04-.022-.042-.018-.045-.013-.045-.009-.047-.004-.047v-.048l.004-.047.009-.047.014-.046.017-.044.022-.042.026-.04.029-.038.033-.034.036-.031.039-.028.041-.023.043-.02 4.645-1.858.053-.021.056-.02.057-.019.057-.017.057-.016.057-.015.058-.013.058-.012.059-.01.058-.01.059-.007.059-.007.06-.005.059-.003.06-.002.056-.001h1.236l.056.001z" fill="#57422d"/><path d="m7 13.084c0-.483.232-.936.624-1.219.391-.282.895-.359 1.353-.206.123.041.242.081.351.117.43.143.786.452.989.857.293.586.683 1.367.683 1.367s-1.098.275-2.144.536c-.446.111-.919.011-1.281-.272-.363-.283-.575-.717-.575-1.177 0-.001 0-.002 0-.003z"/><path d="m25 13.084c0-.483-.232-.936-.624-1.219-.391-.282-.895-.359-1.353-.206-.123.041-.242.081-.351.117-.43.143-.786.452-.989.857-.293.586-.683 1.367-.683 1.367s1.098.275 2.144.536c.446.111.919.011 1.281-.272.363-.283.575-.717.575-1.177 0-.001 0-.002 0-.003z"/><path d="m13.868 15c-.495 0-.971.197-1.321.547s-.547.826-.547 1.321v.002c0 .083.033.163.092.222.247.247.908.908.908.908v.001c0 .552.447.999.999.999h4.001c.265 0 .52-.105.707-.293.188-.187.293-.442.293-.707s.678-.678.917-.917c.053-.053.083-.125.083-.2v-.001c0-.499-.198-.978-.551-1.331s-.832-.551-1.331-.551c-1.282 0-2.971 0-4.25 0z"/><path d="m22 19s1.975 1.975 2.72 2.72c.186.186.354.39.5.61.519.779 1.78 2.67 1.78 2.67" fill="none" stroke="#c6c6c6"/><path d="m10 19s-1.975 1.975-2.72 2.72c-.186.186-.354.39-.5.61-.519.779-1.78 2.67-1.78 2.67" fill="none" stroke="#c6c6c6"/><path d="m24 18s1.891 1.261 2.67 1.78c.22.146.424.314.61.5.745.745 2.72 2.72 2.72 2.72" fill="none" stroke="#c6c6c6"/><path d="m8 18s-1.891 1.261-2.67 1.78c-.22.146-.424.314-.61.5-.745.745-2.72 2.72-2.72 2.72" fill="none" stroke="#c6c6c6"/></g></svg>