<svg clip-rule="evenodd" fill-rule="evenodd" stroke-linecap="round" stroke-linejoin="round" stroke-miterlimit="1.5" viewBox="0 0 32 32" xmlns="http://www.w3.org/2000/svg" xmlns:xlink="http://www.w3.org/1999/xlink"><clipPath id="a"><path clip-rule="evenodd" d="m0 0h32v32h-32z"/></clipPath><metadata/><path d="m0 0h32v32h-32z" fill="none"/><g clip-path="url(#a)"><path d="m14.5 15v-5.379l-3.5 3.5-2.121-2.121v-2l7.121-7.121 7.121 7.121v2l-2.121 2.121-3.5-3.5v5.379h5.5l4 9v6h-22v-6l4-9z" fill="none" stroke="#000" stroke-width="4"/><path d="m6 24 4.5-9h11l4.5 9v5h-20z" fill="#0f0f0f"/><path d="m5.4 25-.4-1 4-9h14l4 9-.4 1-1.6-.576-3.3-7.424h-11.4l-3.3 7.424z" fill="#4c4c4c" fill-rule="nonzero"/><path d="m27 30h-22v-6h7c0 2.209 1.791 4 4 4 2.209 0 4-1.791 4-4h7z" fill="#868686"/><g fill-rule="nonzero"><path d="m14.5 9.621-3.5 3.5-2.121-2.121v-2l7.121-6.121 7.121 6.121v2l-2.121 2.121-3.5-3.5-1.5 4.88 1.5 4.999v1.879h-3v-1.879l1.5-4.999z" fill="#747474"/><path d="m14.5 7.621-3.5 3.5-2.121-2.121 7.121-7.121 7.121 7.121-2.121 2.121-3.5-3.5v11.879h-3z" fill="#fff"/></g></g></svg>