<svg clip-rule="evenodd" fill-rule="evenodd" stroke-linecap="round" stroke-linejoin="round" stroke-miterlimit="1.5" viewBox="0 0 32 32" xmlns="http://www.w3.org/2000/svg" xmlns:xlink="http://www.w3.org/1999/xlink"><clipPath id="a"><path clip-rule="evenodd" d="m0 0h32v32h-32z"/></clipPath><clipPath id="b"><path clip-rule="evenodd" d="m28 17c0-5.523-4.477-10-10-10-1.322 0-2.678 0-4 0-5.523 0-10 4.477-10 10v13h24s0-6.796 0-13z"/></clipPath><clipPath id="c"><circle clip-rule="evenodd" cx="21.5" cy="17.5" r="2.5"/></clipPath><clipPath id="d"><circle clip-rule="evenodd" cx="10.5" cy="17.5" r="2.5"/></clipPath><metadata/><path d="m0 0h32v32h-32z" fill="none"/><g clip-path="url(#a)"><g fill="none"><path d="m15 8c-5.523 0-10 4.477-10 10v2c0 5.523 4.477 10 10 10h2c5.523 0 10-4.477 10-10 0-.665 0-1.335 0-2 0-5.523-4.477-10-10-10-.665 0-1.335 0-2 0z" stroke="#000" stroke-width="4"/><path d="m18 9h2.737c1.34 0 2.517-.888 2.885-2.176.587-2.055 1.378-4.824 1.378-4.824s0 0-.001 0c-2.325 0-4.327 1.641-4.783 3.921-.019.096-.038.188-.055.275-.094.468-.504.804-.981.804-.552 0-1.18 0-1.18 0z" stroke="#000" stroke-width="4"/><path d="m14 9s-1.413 0-2.737 0c-1.34 0-2.517-.888-2.885-2.176-.587-2.055-1.378-4.824-1.378-4.824h.001c2.325 0 4.327 1.641 4.783 3.921.019.096.038.188.055.275.094.468.504.804.981.804h1.18z" stroke="#000" stroke-width="4"/><path d="m28 17c0-5.523-4.477-10-10-10-1.322 0-2.678 0-4 0-5.523 0-10 4.477-10 10v13h24s0-6.796 0-13z" stroke="#000" stroke-linejoin="miter" stroke-miterlimit="3" stroke-width="4"/></g><path d="m11.504 5c.121.293.216.601.28.921.019.096.038.188.055.275.094.468.504.804.981.804h1.18v2s-1.413 0-2.737 0c0 0-.885-2.257-1.955-4l.096-.273 1.569-.04z" fill="#515151"/><path d="m9.308 5c-.657-1.07-1.384-1.946-2.019-1.99l-.289-1.01h.001c1.998 0 3.758 1.212 4.503 3z" fill="#b28936"/><path d="m7.289 3.01c1.671.115 3.124 1.228 3.66 2.836l1.051 3.154h-.737c-1.34 0-2.517-.888-2.885-2.176z" fill="#343434"/><path d="m20.496 5c-.121.293-.216.601-.28.921-.019.096-.038.188-.055.275-.094.468-.504.804-.981.804-.552 0-1.18 0-1.18 0v2h2.737s.885-2.257 1.955-4l-.096-.273-1.569-.04z" fill="#515151"/><path d="m22.692 5c.657-1.07 1.384-1.946 2.019-1.99l.289-1.01s0 0-.001 0c-1.998 0-3.758 1.212-4.503 3z" fill="#b28936"/><path d="m24.711 3.01c-1.671.115-3.124 1.228-3.66 2.836l-1.051 3.154h.737c1.34 0 2.517-.888 2.885-2.176z" fill="#343434"/><path d="m28 17c0-5.523-4.477-10-10-10-1.322 0-2.678 0-4 0-5.523 0-10 4.477-10 10v13h24s0-6.796 0-13z" fill="#515151"/><g clip-path="url(#b)" fill="#656565"><path d="m7 31c-1.105 0-2-.895-2-2 0-1.392 0-3 0-3 1.105 0 2 .895 2 2z"/><path d="m25 31c1.105 0 2-.895 2-2 0-1.392 0-3 0-3-1.105 0-2 .895-2 2z"/><path d="m22 33c1.105 0 2-.895 2-2 0-1.392 0-3 0-3-1.105 0-2 .895-2 2z"/><path d="m10 33c-1.105 0-2-.895-2-2 0-1.392 0-3 0-3 1.105 0 2 .895 2 2z"/></g><path d="m23 9.516c2.412 1.614 4 4.364 4 7.484v2c0 3.941-2.279 7.349-5.591 8.978l-2.376-9.938zm-14 0 3.5 8.484-1.909 9.978c-3.312-1.629-5.591-5.037-5.591-8.978 0-.668 0-1.338 0-2 0-3.12 1.588-5.87 4-7.484z" fill="#b28936"/><path d="m9 9.516c1.43-.958 3.15-1.516 5-1.516h4c1.85 0 3.57.558 5 1.516v.997c0 .323-.052.643-.154.949-.188.564-.504 1.512-.692 2.076-.055.164-.095.332-.121.502 1.679.258 2.967 1.71 2.967 3.46 0 1.932-1.568 3.5-3.5 3.5l.496.992c.639 1.277.701 2.767.17 4.093l-.757 1.893c-1.33.654-2.827 1.022-4.409 1.022-.665 0-1.335 0-2 0-1.582 0-3.079-.368-4.409-1.022l-.757-1.893c-.531-1.326-.469-2.816.17-4.093l.496-.992c-1.932 0-3.5-1.568-3.5-3.5 0-1.75 1.288-3.202 2.967-3.46-.026-.17-.066-.338-.121-.502-.188-.564-.504-1.512-.692-2.076-.102-.306-.154-.626-.154-.949z" fill="#343434"/><path d="m10 9 1 1 3 8v5h4v-5l3-8 1-1v-1l-5-1h-2l-5 1z" fill="#515151"/><circle cx="21.5" cy="17.5" fill="#e5bf17" r="2.5"/><g clip-path="url(#c)"><circle cx="21.5" cy="17.5" r="1.5"/></g><circle cx="10.5" cy="17.5" fill="#e5bf17" r="2.5"/><g clip-path="url(#d)"><circle cx="10.5" cy="17.5" r="1.5"/></g><path d="m15 19-5 3 1 1-1 3h2l1 3 1-1 1 1h2l1-1 1 1 1-3h2l-1-3 1-1-5-3v4h-2z" fill="#cecdc8"/><path d="m16 19-3 6s.814.407 1.404.702c.387.193.701.507.894.894.295.59.702 1.404.702 1.404s.407-.814.702-1.404c.193-.387.507-.701.894-.894.59-.295 1.404-.702 1.404-.702z" fill="#21201d"/><path d="m19.5 11v3l-2 4v3" fill="none" stroke="#cecdc8" stroke-linejoin="miter" stroke-miterlimit="3"/><path d="m12.5 11v3l2 4v3" fill="none" stroke="#cecdc8" stroke-linejoin="miter" stroke-miterlimit="3"/><path d="m19.5 14 1-1s0-1.647 0-2.5c0-.133-.053-.26-.146-.354-.094-.093-.221-.146-.354-.146s-.26.053-.354.146c-.093.094-.146.221-.146.354z" fill="none" stroke="#cecdc8" stroke-miterlimit="3"/><path d="m12.5 14-1-1s0-1.647 0-2.5c0-.133.053-.26.146-.354.094-.093.221-.146.354-.146s.26.053.354.146c.093.094.146.221.146.354z" fill="none" stroke="#cecdc8" stroke-miterlimit="3"/></g></svg>