<svg clip-rule="evenodd" fill-rule="evenodd" stroke-linejoin="round" stroke-miterlimit="2" viewBox="0 0 32 32" xmlns="http://www.w3.org/2000/svg"><metadata/><path d="m0 0h32v32h-32z" fill="none"/><path d="m30.764 22.829v-12.829c0-1.136-.642-2.175-1.658-2.683-3.026-1.513-9.047-4.523-11.317-5.659-1.126-.563-2.452-.563-3.578 0-2.27 1.136-8.291 4.146-11.317 5.659-1 .5-1.638 1.515-1.657 2.63l-.001.035v.018 12.829c0 1.561.907 2.978 2.324 3.632 2.543 1.174 8.55 3.946 10.764 4.968 1.063.491 2.289.491 3.352 0 2.214-1.022 8.221-3.794 10.764-4.968 1.417-.654 2.324-2.071 2.324-3.632z"/><path d="m28.764 10s-9.643-3.022-12.166-3.813c-.389-.122-.807-.122-1.196 0-2.523.791-12.166 3.813-12.166 3.813v12.829c0 .78.454 1.489 1.162 1.816 2.543 1.174 8.55 3.946 10.764 4.968.532.246 1.144.246 1.676 0 2.214-1.022 8.221-3.794 10.764-4.968.708-.327 1.162-1.036 1.162-1.816 0-3.475 0-12.829 0-12.829z" fill="#b28959"/><path d="m28.211 10.894c.339-.169.553-.515.553-.894s-.214-.725-.553-.894c-3.026-1.513-9.046-4.524-11.317-5.659-.563-.281-1.225-.281-1.788 0-2.271 1.135-8.291 4.146-11.317 5.659-.339.169-.553.515-.553.894s.214.725.553.894c3.026 1.513 9.046 4.524 11.317 5.659.563.281 1.225.281 1.788 0 2.271-1.135 8.291-4.146 11.317-5.659z" fill="#d1ac84"/><path d="m12 5s10.852 5.426 13.447 6.724c.339.169.553.515.553.894v5.382l-4 2v-5.382c0-.379-.214-.725-.553-.894-2.595-1.298-13.447-6.724-13.447-6.724z" fill="#f1d4a2"/><path d="m5 15.708c0-.152.079-.293.207-.372.129-.08.291-.087.426-.019l6.814 3.407c.339.169.553.515.553.894v2.674c0 .152-.079.293-.207.372-.129.08-.291.087-.426.019-1.524-.762-5.376-2.688-6.814-3.407-.339-.169-.553-.515-.553-.894 0-.722 0-1.915 0-2.674z" fill="#fff"/></svg>