<svg clip-rule="evenodd" fill-rule="evenodd" stroke-linejoin="round" stroke-miterlimit="1.5" viewBox="0 0 32 32" xmlns="http://www.w3.org/2000/svg" xmlns:xlink="http://www.w3.org/1999/xlink"><clipPath id="a"><path clip-rule="evenodd" d="m0 0h32v32h-32z"/></clipPath><clipPath id="b"><path clip-rule="evenodd" d="m26 30h-20v-28h13l1 2 4 4 2 1z"/></clipPath><clipPath id="c"><path clip-rule="evenodd" d="m4 13 3-3 10.5 10.5-3 3z"/></clipPath><metadata/><path d="m0 0h32v32h-32z" fill="none"/><g clip-path="url(#a)"><path d="m26 30h-20v-28h13l7 7z" fill="none" stroke="#000" stroke-width="4"/><path d="m4 13 3-3 10.5 10.5 1 4-4-1z" fill="none" stroke="#000" stroke-miterlimit="4" stroke-width="4"/><path d="m26 30h-20v-28h13l1 2 4 4 2 1z" fill="#fff"/><g clip-path="url(#b)"><g fill="#b2b2b2"><path d="m8 8h16v2h-16z"/><path d="m8 11h16v2h-16z"/><path d="m8 14h16v2h-16z"/><path d="m8 17h16v2h-16z"/><path d="m8 20h16v2h-16z"/><path d="m8 23h16v2h-16z"/><path d="m8 26h16v2h-16z"/></g><path d="m4 13 3-3 10.5 10.5 1 4-4-1z" fill="none" stroke="#4c4c4c" stroke-miterlimit="4" stroke-width="4"/></g><path d="m19 9v-7l7 7z" fill="#666"/><path d="m14 22 2-2 1.5.5 1 4-4-1z" fill="#fff"/><path d="m4 13 3-3 10.5 10.5-3 3z" fill="#e4d20b"/><g clip-path="url(#c)"><path d="m3 10 14 14 1-1-14-14z" fill="#78701a"/><path d="m13 25 6-6" fill="none" stroke="#78701a" stroke-width="2"/></g></g></svg>