<svg clip-rule="evenodd" fill-rule="evenodd" stroke-linejoin="round" stroke-miterlimit="1.5" viewBox="0 0 32 32" xmlns="http://www.w3.org/2000/svg" xmlns:xlink="http://www.w3.org/1999/xlink"><clipPath id="a"><path clip-rule="evenodd" d="m0 0h32v32h-32z"/></clipPath><metadata/><path d="m0 0h32v32h-32z" fill="none"/><g clip-path="url(#a)"><path d="m26 30h-20v-28h13l7 7z" fill="none" stroke="#000" stroke-width="4"/><path d="m26 30h-20v-28h13l1 2 4 4 2 1z" fill="#fff"/><g fill="#b2b2b2"><path d="m8 8h16v2h-16z"/><path d="m8 11h16v2h-16z"/><path d="m8 14h16v2h-16z"/><path d="m8 17h16v2h-16z"/><path d="m8 20h16v2h-16z"/><path d="m8 23h16v2h-16z"/><path d="m8 26h16v2h-16z"/></g><path d="m19 9v-7l7 7z" fill="#666"/></g></svg>