<svg clip-rule="evenodd" fill-rule="evenodd" stroke-linejoin="round" stroke-miterlimit="1.41421" viewBox="0 0 32 32" xmlns="http://www.w3.org/2000/svg" xmlns:xlink="http://www.w3.org/1999/xlink"><clipPath id="a"><path clip-rule="evenodd" d="m0 0h32v32h-32z"/></clipPath><metadata/><path d="m0 0h32v32h-32z" fill="none"/><g clip-path="url(#a)"><path d="m32 11c0-1.591-.632-3.117-1.757-4.243-1.126-1.125-2.652-1.757-4.243-1.757-5.718 0-14.282 0-20 0-1.591 0-3.117.632-4.243 1.757-1.125 1.126-1.757 2.652-1.757 4.243v10c0 1.591.632 3.117 1.757 4.243 1.126 1.125 2.652 1.757 4.243 1.757h20c1.591 0 3.117-.632 4.243-1.757 1.125-1.126 1.757-2.652 1.757-4.243 0-3.108 0-6.892 0-10z"/><path d="m30 11c0-1.061-.421-2.078-1.172-2.828-.75-.751-1.767-1.172-2.828-1.172-5.322 0-14.678 0-20 0-1.061 0-2.078.421-2.828 1.172-.751.75-1.172 1.767-1.172 2.828v10c0 1.061.421 2.078 1.172 2.828.75.751 1.767 1.172 2.828 1.172h20c1.061 0 2.078-.421 2.828-1.172.751-.75 1.172-1.767 1.172-2.828 0-2.977 0-7.023 0-10z" fill="#4d4d4d"/><path d="m28 11c0-.53-.211-1.039-.586-1.414s-.884-.586-1.414-.586c-4.52 0-15.48 0-20 0-.53 0-1.039.211-1.414.586s-.586.884-.586 1.414v10c0 .53.211 1.039.586 1.414s.884.586 1.414.586h20c.53 0 1.039-.211 1.414-.586s.586-.884.586-1.414c0-2.661 0-7.339 0-10z" fill="#262626"/><g fill="#666"><path d="m9 21c0-.552-.448-1-1-1-.611 0-1.389 0-2 0-.552 0-1 .448-1 1 0 .552.448 1 1 1h2c.552 0 1-.448 1-1z"/><path d="m15 21c0-.552-.448-1-1-1-.611 0-1.389 0-2 0-.552 0-1 .448-1 1 0 .552.448 1 1 1h2c.552 0 1-.448 1-1z"/><path d="m21 21c0-.552-.448-1-1-1-.611 0-1.389 0-2 0-.552 0-1 .448-1 1 0 .552.448 1 1 1h2c.552 0 1-.448 1-1z"/><path d="m27 21c0-.552-.448-1-1-1-.611 0-1.389 0-2 0-.552 0-1 .448-1 1 0 .552.448 1 1 1h2c.552 0 1-.448 1-1z"/></g><path d="m27 11c0-.265-.105-.52-.293-.707-.187-.188-.442-.293-.707-.293-3.665 0-16.335 0-20 0-.265 0-.52.105-.707.293-.188.187-.293.442-.293.707v5c0 .265.105.52.293.707.187.188.442.293.707.293h20c.265 0 .52-.105.707-.293.188-.187.293-.442.293-.707 0-1.331 0-3.669 0-5z" fill="#92d85d"/><path d="m7 12h8v2h-8z" fill="#415631"/><path d="m16 12h2v2h-2z" fill="#415631"/><path d="m19 12h2v2h-2z" fill="#415631"/></g></svg>