<svg clip-rule="evenodd" fill-rule="evenodd" stroke-linecap="round" stroke-miterlimit="2" viewBox="0 0 32 32" xmlns="http://www.w3.org/2000/svg" xmlns:xlink="http://www.w3.org/1999/xlink"><clipPath id="a"><path clip-rule="evenodd" d="m0 0h32v32h-32z"/></clipPath><clipPath id="b"><path clip-rule="evenodd" d="m18.946 15.858h.649v-.649l.188-.321-.188-.32.001-2.523.139-.332-.139-.309s-.001-.956-.001-1.376c0-.339.132-.664.368-.906.564-.58 1.578-1.622 1.578-1.622v3.904l-.184.314.185.327-.001 2.523-.102.328.102.313h.648v-.648l.203-.315-.203-.326v-3.17l.228-.32-.226-.321v-.719c0-.339.132-.664.368-.907.564-.58 1.578-1.621 1.578-1.621v3.247l-.175.321.173.32v3.17l-.135.326.135.315h.649l.216-.315-.216-.326v-3.17l.216-.314-.216-.327s0 .026 0-.081c0-.339.132-.664.368-.906.564-.58 1.578-1.622 1.578-1.622v2.609l-.221.321.221.32v3.17l-.199.326.199.315v3.939h.001c.191 0 .375-.076.51-.211.136-.136.212-.32.212-.511 0-.74 0-1.897 0-2.717 0-.614.282-1.194.765-1.573.75-.589 1.782-1.4 1.782-1.4v6.382c0 3.537-2.837 6.42-6.374 6.476-.048-.007-.096-.006-.144-.006-.205 0-.415 0-.628 0-3.233-.001-5.854-2.621-5.854-5.855 0-1.757 0-3.227 0-3.227l.187-.32-.187-.321.001-2.523.206-.301-.206-.34-.001-.093c0-.339.132-.664.368-.907.564-.58 1.578-1.621 1.578-1.621v2.621l-.18.337.18.304v2.523l-.195.321z"/></clipPath><clipPath id="c"><path clip-rule="evenodd" d="m26.75 18.485.403-1.321.05-4.076-4.786 3.25v6.5h4.333z"/></clipPath><clipPath id="d"><path clip-rule="evenodd" d="m13.054 15.858h-.649v-.649l-.188-.321.188-.32-.001-2.523-.139-.332.139-.309s.001-.956.001-1.376c0-.339-.132-.664-.368-.906-.564-.58-1.578-1.622-1.578-1.622v3.904l.184.314-.185.327.001 2.523.102.328-.102.313h-.648v-.648l-.203-.315.203-.326v-3.17l-.228-.32.226-.321v-.719c0-.339-.132-.664-.368-.907-.564-.58-1.578-1.621-1.578-1.621v3.247l.175.321-.173.32v3.17l.135.326-.135.315h-.649l-.216-.315.216-.326v-3.17l-.216-.314.216-.327s0 .026 0-.081c0-.339-.132-.664-.368-.906-.564-.58-1.578-1.622-1.578-1.622v2.609l.221.321-.221.32v3.17l.199.326-.199.315v3.939h-.001c-.191 0-.375-.076-.51-.211-.136-.136-.212-.32-.212-.511 0-.74 0-1.897 0-2.717 0-.614-.282-1.194-.765-1.573-.75-.589-1.782-1.4-1.782-1.4v6.382c0 3.537 2.837 6.42 6.374 6.476.048-.007.096-.006.144-.006h.628c3.233-.001 5.854-2.621 5.854-5.855 0-1.757 0-3.227 0-3.227l-.187-.32.187-.321-.001-2.523-.206-.301.206-.34.001-.093c0-.339-.132-.664-.368-.907-.564-.58-1.578-1.621-1.578-1.621v2.621l.18.337-.18.304v2.523l.195.321z"/></clipPath><clipPath id="e"><path clip-rule="evenodd" d="m5.25 18.485-.403-1.321-.05-4.076 4.786 3.25v6.5h-4.333z"/></clipPath><metadata/><path d="m0 0h32v32h-32z" fill="none"/><g clip-path="url(#a)"><path d="m8.459 4.606v-2.029l2.595 2.666v-.735l4.946 5.083 4.946-5.083v.735l2.595-2.666v2.029l2.596-2.668v3.304l2.593-2.665v7.966l3.27-2.568v10.495c0 4.629-3.713 8.402-8.342 8.476l-.157.002-.061-.008h-.586c-2.943-.001-5.509-1.62-6.854-4.017-1.345 2.397-3.911 4.016-6.854 4.017h-.586l-.061.008-.157-.002c-4.629-.074-8.342-3.847-8.342-8.476v-10.495l3.27 2.568v-7.966l2.593 2.665v-3.304z"/><path d="m18.946 15.858h.649v-.649l.188-.321-.188-.32.001-2.523.139-.332-.139-.309s-.001-.956-.001-1.376c0-.339.132-.664.368-.906.564-.58 1.578-1.622 1.578-1.622v3.904l-.184.314.185.327-.001 2.523-.102.328.102.313h.648v-.648l.203-.315-.203-.326v-3.17l.228-.32-.226-.321v-.719c0-.339.132-.664.368-.907.564-.58 1.578-1.621 1.578-1.621v3.247l-.175.321.173.32v3.17l-.135.326.135.315h.649l.216-.315-.216-.326v-3.17l.216-.314-.216-.327s0 .026 0-.081c0-.339.132-.664.368-.906.564-.58 1.578-1.622 1.578-1.622v2.609l-.221.321.221.32v3.17l-.199.326.199.315v3.939h.001c.191 0 .375-.076.51-.211.136-.136.212-.32.212-.511 0-.74 0-1.897 0-2.717 0-.614.282-1.194.765-1.573.75-.589 1.782-1.4 1.782-1.4v6.382c0 3.537-2.837 6.42-6.374 6.476-.048-.007-.096-.006-.144-.006-.205 0-.415 0-.628 0-3.233-.001-5.854-2.621-5.854-5.855 0-1.757 0-3.227 0-3.227l.187-.32-.187-.321.001-2.523.206-.301-.206-.34-.001-.093c0-.339.132-.664.368-.907.564-.58 1.578-1.621 1.578-1.621v2.621l-.18.337.18.304v2.523l-.195.321z" fill="#808080"/><g clip-path="url(#b)"><path d="m26.75 18.485.403-1.321.05-4.076-4.786 3.25v6.5h4.333z" fill="none"/><g clip-path="url(#c)"><path d="m27.453 15.255v1.917c0 .457-.371.828-.828.828-.225 0-.481 0-.747 0-.631 0-1.236.251-1.681.696-.446.446-.697 1.051-.697 1.682v1.122" fill="none" stroke="#616161"/></g></g><g fill="#616161"><path d="m24.784 13.92h1.946v.641h-1.946z"/><path d="m22.189 13.92h1.946v.641h-1.946z"/><path d="m19.595 14.568h1.946v.641h-1.946z"/><path d="m17 15.217h1.946v.641h-1.946z"/><path d="m24.784 10.109h1.946v.641h-1.946z"/><path d="m22.191 10.109h1.946v.641h-1.946z"/><path d="m19.596 11.404h1.946v.641h-1.946z"/><path d="m17.001 12.053h1.946v.641h-1.946z"/></g><path d="m13.054 15.858h-.649v-.649l-.188-.321.188-.32-.001-2.523-.139-.332.139-.309s.001-.956.001-1.376c0-.339-.132-.664-.368-.906-.564-.58-1.578-1.622-1.578-1.622v3.904l.184.314-.185.327.001 2.523.102.328-.102.313h-.648v-.648l-.203-.315.203-.326v-3.17l-.228-.32.226-.321v-.719c0-.339-.132-.664-.368-.907-.564-.58-1.578-1.621-1.578-1.621v3.247l.175.321-.173.32v3.17l.135.326-.135.315h-.649l-.216-.315.216-.326v-3.17l-.216-.314.216-.327s0 .026 0-.081c0-.339-.132-.664-.368-.906-.564-.58-1.578-1.622-1.578-1.622v2.609l.221.321-.221.32v3.17l.199.326-.199.315v3.939h-.001c-.191 0-.375-.076-.51-.211-.136-.136-.212-.32-.212-.511 0-.74 0-1.897 0-2.717 0-.614-.282-1.194-.765-1.573-.75-.589-1.782-1.4-1.782-1.4v6.382c0 3.537 2.837 6.42 6.374 6.476.048-.007.096-.006.144-.006h.628c3.233-.001 5.854-2.621 5.854-5.855 0-1.757 0-3.227 0-3.227l-.187-.32.187-.321-.001-2.523-.206-.301.206-.34.001-.093c0-.339-.132-.664-.368-.907-.564-.58-1.578-1.621-1.578-1.621v2.621l.18.337-.18.304v2.523l.195.321z" fill="#808080"/><g clip-path="url(#d)"><path d="m5.25 18.485-.403-1.321-.05-4.076 4.786 3.25v6.5h-4.333z" fill="none"/><g clip-path="url(#e)"><path d="m4.547 15.255v1.917c0 .457.371.828.828.828h.747c.631 0 1.236.251 1.681.696.446.446.697 1.051.697 1.682v1.122" fill="none" stroke="#616161"/></g></g><path d="m5.27 13.92h1.946v.641h-1.946z" fill="#616161"/><path d="m7.865 13.92h1.946v.641h-1.946z" fill="#616161"/><path d="m10.459 14.568h1.946v.641h-1.946z" fill="#616161"/><path d="m13.054 15.217h1.946v.641h-1.946z" fill="#616161"/><path d="m5.27 10.109h1.946v.641h-1.946z" fill="#616161"/><path d="m7.863 10.109h1.946v.641h-1.946z" fill="#616161"/><path d="m10.458 11.404h1.946v.641h-1.946z" fill="#616161"/><path d="m13.053 12.053h1.946v.641h-1.946z" fill="#616161"/></g></svg>