<svg clip-rule="evenodd" fill-rule="evenodd" stroke-linejoin="round" stroke-miterlimit="2" viewBox="0 0 32 32" xmlns="http://www.w3.org/2000/svg"><metadata/><path d="m0 0h32v32h-32z" fill="none"/><path d="m16 11.827c.373-.361.837-.634 1.365-.78.361-1.123 1.337-1.999 2.582-2.171.381-.053.755-.036 1.11.042.578-.624 1.405-1.015 2.323-1.015.91 0 1.732.385 2.31 1.002.423-.114.877-.142 1.337-.066 1.725.286 2.893 1.917 2.608 3.642l-.149.904c1.813.512 2.87 2.4 2.358 4.214 0 0-.237.841-.518 1.835-.944 3.346-3.999 5.649-7.468 5.643v.016h-.508c-3.433 0-6.41-2.278-7.35-5.514-.94 3.236-3.917 5.514-7.35 5.514h-.508v-.016c-3.469.006-6.524-2.297-7.468-5.643-.281-.994-.518-1.835-.518-1.835-.512-1.814.545-3.702 2.358-4.214l-.149-.904c-.285-1.725.883-3.356 2.608-3.642.46-.076.914-.048 1.337.066.578-.617 1.4-1.002 2.31-1.002.918 0 1.745.391 2.323 1.015.355-.078.729-.095 1.11-.042 1.245.172 2.221 1.048 2.582 2.171.528.146.992.419 1.365.78z"/><path d="m7.404 15.159h.022v-4.089c.001-.15.028-.298.083-.438.135-.343.43-.611.785-.711.126-.036.257-.051.388-.044.134.007.266.036.39.087.138.056.265.138.373.241.111.106.201.233.264.373.07.155.105.322.106.492v4.089h.021v.383c.001.032.007.064.019.093.039.092.133.151.233.146.027-.002.055-.008.08-.019.027-.011.051-.027.072-.047.022-.021.041-.046.053-.074.014-.032.021-.065.021-.099v-2.817l.121-.876c.091-.653.694-1.11 1.347-1.02.653.091 1.11.694 1.02 1.347l-.14 1.01-.519 3.022c-.005.031-.004.063.003.094.023.097.106.172.205.183.027.004.055.002.082-.004.028-.007.055-.018.079-.035.026-.017.048-.039.065-.064.019-.028.031-.06.037-.093l.547-3.18c.24-.146.533-.208.832-.154.648.118 1.079.74.961 1.389 0 0-.38 2.092-.745 4.104-.489 2.687-2.828 4.64-5.559 4.64h-.285v.005s-.06.001-.163.002c-2.608.033-4.913-1.689-5.622-4.199-.28-.994-.518-1.835-.518-1.835-.214-.762.229-1.554.991-1.769.619-.175 1.26.086 1.593.6l.313 1.036c.01.03.024.059.045.083.063.076.17.106.264.072.026-.009.05-.023.071-.041.022-.018.041-.041.055-.066.015-.026.025-.056.029-.086.005-.034.001-.068-.008-.1l-1.104-4.631c-.026-.171-.02-.346.027-.513.043-.154.117-.298.216-.424.092-.116.206-.215.334-.29.263-.154.584-.201.88-.13.149.036.292.101.417.191.105.075.198.168.274.273.108.149.177.322.209.503l.259 3.538c.001.032.007.063.019.093.039.091.133.15.232.145.027-.002.055-.008.08-.019.027-.011.051-.027.072-.047.022-.021.04-.046.053-.074.014-.031.02-.064.021-.098v-.148z" fill="#7c6112"/><path d="m11.967 19.909c0-.362-.146-.708-.406-.959-.139-.136-.307-.299-.492-.478-1.391-1.35-3.603-1.35-4.994 0-.184.179-.352.342-.492.478-.259.251-.406.597-.406.959v.002c0 .544.25 1.058.678 1.395.428.336.986.457 1.515.329.291-.071.549-.133.724-.176.157-.038.317-.057.478-.057s.322.019.478.057c.175.043.433.105.725.176.529.128 1.087.007 1.515-.329.427-.337.677-.851.677-1.395 0-.001 0-.002 0-.002zm-8.809-4.068c-.592.147-.883.947-.648 1.786s.906 1.401 1.499 1.254c.593-.146.883-.947.648-1.786-.234-.839-.906-1.401-1.499-1.254zm10.957-2.228c-.412-.1-.86.258-.998.798-.139.54.083 1.059.495 1.159.412.099.859-.258.998-.798.138-.54-.083-1.06-.495-1.159zm-8.728-2.246c-.489.068-.796.712-.685 1.438.112.725.599 1.259 1.088 1.191s.796-.712.685-1.437c-.112-.726-.599-1.26-1.088-1.192zm6.311.065c-.505-.067-1 .451-1.103 1.155-.103.705.223 1.331.729 1.398s1-.451 1.103-1.155c.104-.705-.223-1.331-.729-1.398zm-3.082-.831c-.535 0-.97.633-.97 1.412s.435 1.412.97 1.412.97-.633.97-1.412-.435-1.412-.97-1.412z" fill="#53390c"/><path d="m22.164 15.159h.021v-4.089c.001-.15.028-.298.083-.438.135-.343.43-.611.785-.711.126-.036.257-.051.388-.044.134.007.266.036.39.087.138.056.265.138.373.241.111.106.201.233.265.373.069.155.104.322.105.492v4.089h.022v.148c.001.032.007.063.019.093.039.091.133.15.232.145.027-.002.055-.008.08-.019.027-.011.051-.027.072-.047.022-.021.04-.046.053-.074.014-.031.02-.064.021-.098l.259-3.538c.03-.17.093-.333.19-.477.091-.132.208-.245.342-.331.125-.081.264-.138.41-.168.298-.061.617-.002.874.161.13.082.244.19.334.315.075.105.133.223.171.346.054.176.064.362.036.544l-1.104 4.631c-.009.032-.013.066-.008.1.004.03.014.06.029.086.014.025.033.048.055.066.021.018.045.032.071.041.094.034.201.004.264-.072.021-.024.035-.053.045-.083l.313-1.036c.333-.514.974-.775 1.593-.6.762.215 1.205 1.007.991 1.769 0 0-.238.841-.518 1.835-.709 2.51-3.014 4.232-5.622 4.199-.103-.001-.163-.002-.163-.002v-.005h-.285c-2.731 0-5.07-1.953-5.559-4.64-.365-2.012-.745-4.104-.745-4.104-.118-.649.313-1.271.961-1.389.299-.054.592.008.832.154l.547 3.18c.005.031.017.061.034.088.054.084.157.126.254.104.027-.006.053-.017.076-.032.024-.015.046-.035.063-.058.018-.025.032-.053.039-.083.009-.033.01-.067.005-.1l-.519-3.022-.14-1.01c-.02-.148-.013-.299.022-.445.058-.238.191-.456.375-.617.091-.08.194-.146.305-.195.12-.053.248-.085.379-.096.133-.012.268-.001.398.032.144.037.281.101.402.189.125.089.232.203.314.333.09.143.147.305.172.472l.121.876v2.817c0 .032.006.064.019.093.038.092.133.151.232.146.028-.002.055-.008.081-.019s.051-.027.071-.047c.023-.021.041-.046.053-.074.014-.032.021-.065.022-.099z" fill="#7c6112"/><path d="m20.033 19.909c0-.362.146-.708.406-.959.139-.136.307-.299.492-.478 1.391-1.35 3.603-1.35 4.994 0 .184.179.352.342.492.478.259.251.406.597.406.959v.002c0 .544-.25 1.058-.678 1.395-.428.336-.986.457-1.515.329-.291-.071-.549-.133-.724-.176-.157-.038-.317-.057-.478-.057s-.322.019-.478.057c-.175.043-.433.105-.725.176-.529.128-1.087.007-1.515-.329-.427-.337-.677-.851-.677-1.395 0-.001 0-.002 0-.002zm8.809-4.068c.592.147.883.947.648 1.786s-.906 1.401-1.499 1.254c-.593-.146-.883-.947-.648-1.786.234-.839.906-1.401 1.499-1.254zm-10.957-2.228c.412-.1.86.258.998.798.139.54-.083 1.059-.495 1.159-.412.099-.859-.258-.998-.798-.138-.54.083-1.06.495-1.159zm8.728-2.246c.489.068.796.712.685 1.438-.112.725-.599 1.259-1.088 1.191s-.796-.712-.685-1.437c.112-.726.599-1.26 1.088-1.192zm-6.311.065c.505-.067 1 .451 1.103 1.155.103.705-.223 1.331-.729 1.398s-1-.451-1.103-1.155c-.104-.705.223-1.331.729-1.398zm3.082-.831c.535 0 .97.633.97 1.412s-.435 1.412-.97 1.412-.97-.633-.97-1.412.435-1.412.97-1.412z" fill="#53390c"/></svg>