<svg clip-rule="evenodd" fill-rule="evenodd" stroke-linecap="round" stroke-linejoin="round" stroke-miterlimit="3" viewBox="0 0 32 32" xmlns="http://www.w3.org/2000/svg" xmlns:xlink="http://www.w3.org/1999/xlink"><clipPath id="a"><path clip-rule="evenodd" d="m0 0h32v32h-32z"/></clipPath><metadata/><path d="m0 0h32v32h-32z" fill="none"/><g clip-path="url(#a)"><path d="m9.941 5.882-7.941-.882s1.802-1.351 2.987-2.24c.648-.487 1.464-.696 2.267-.581 1.209.173 3.037.434 4.305.615.447.064.868.225 1.236.465.823-.622 1.862-.906 2.9-.778 1.222.15 2.307.856 2.941 1.912l.102.17c.496-.361 1.1-.563 1.729-.563h3.258c.813 0 1.59.338 2.145.932.822.881 1.93 2.068 1.93 2.068l-4.851.836c.033.026.065.053.096.081 1.139.999 2.932 2.572 3.927 3.445.473.414.8.97.933 1.584.366 1.69 1.095 5.054 1.095 5.054l-6.015-3.538.682 1.705c.216.542.257 1.138.115 1.703-.294 1.177-.782 3.13-.782 3.13l-5-9.286v1.106c0 .776-.181 1.541-.528 2.236l-2.472 4.944v5.092c0 .592.175 1.171.504 1.664.592.888 1.496 2.244 1.496 2.244s-.318.159-.776.388c-1.993.997-4.369.849-6.224-.388s.904-1.356 1.496-2.244c.329-.493.504-1.072.504-1.664 0-1.502 0-4.617 0-7.432 0-2.491.455-4.95 1.333-7.26l-7.333 6.6s.545-2.18.83-3.321c.112-.447.323-.863.618-1.216l2.939-3.528-.094.016c-.195.033-.386.084-.571.153-1.412.53-7.722 2.896-7.722 2.896s1.659-2.212 2.51-3.346c.321-.428.749-.765 1.241-.976z" fill="none" stroke="#000" stroke-width="4"/><path d="m14 17 1 2.785v5.307c0 .592.175 1.171.504 1.664.592.888 1.496 2.244 1.496 2.244s-.318.159-.776.388c-1.993.997-4.369.849-6.224-.388s.904-1.356 1.496-2.244c.329-.493.504-1.072.504-1.664v-6.171z" fill="#574213"/><path d="m12 18.921v-1.261c0-3.703 1.007-7.338 2.912-10.514h.001c.054-.091.151-.146.257-.146h.394c.333 0 .645.16.84.43.194.27.247.617.142.932-.013.04-.026.079-.04.12-.997 2.992-1.506 6.126-1.506 9.281v2.022l-1.812-.407z" fill="#43330f"/><path d="m23 21-5-9.286v1.106c0 .776-.181 1.541-.528 2.236-.861 1.721-2.472 4.944-2.472 4.944s-.652-3.259-.903-4.515c-.064-.322-.097-.651-.097-.98v-4.705l-8 7.2s.545-2.18.83-3.321c.112-.447.323-.863.618-1.216l2.939-3.528-.094.016c-.195.033-.386.084-.571.153-1.412.53-7.722 2.896-7.722 2.896s1.659-2.212 2.51-3.346c.321-.428.749-.765 1.241-.976l4.19-1.796-7.941-.882s1.802-1.351 2.987-2.24c.648-.487 1.464-.696 2.267-.581 1.209.173 3.037.434 4.305.615.447.064.868.225 1.236.465.823-.622 1.862-.906 2.9-.778 1.222.15 2.307.856 2.941 1.912l.102.17c.496-.361 1.1-.563 1.729-.563h3.258c.813 0 1.59.338 2.145.932l1.755 1.881-6.625.187 1 3z" fill="#199d4e"/><path d="m23 21s-1.181-5.907-1.728-8.641c-.18-.899-.513-1.761-.985-2.547-.461-.769-1.062-1.77-1.531-2.553-.171-.283-.189-.633-.051-.933.139-.301.417-.513.744-.567.788-.132 1.774-.296 2.626-.438 1.251-.209 2.536-.016 3.67.552l1.88.94.175.187-4.851.836c.033.026.065.053.096.081 1.139.999 2.932 2.572 3.927 3.445.473.414.8.97.933 1.584.366 1.69 1.095 5.054 1.095 5.054l-6.015-3.538.682 1.705c.216.542.257 1.138.115 1.703z" fill="#126d36"/></g></svg>