<svg clip-rule="evenodd" fill-rule="evenodd" stroke-linejoin="round" stroke-miterlimit="2" viewBox="0 0 32 32" xmlns="http://www.w3.org/2000/svg" xmlns:xlink="http://www.w3.org/1999/xlink"><clipPath id="a"><path clip-rule="evenodd" d="m0 0h32v32h-32z"/></clipPath><metadata/><path d="m0 0h32v32h-32z" fill="none"/><g clip-path="url(#a)"><path d="m16 8.769c.479-.425 1.096-.697 1.775-.742.147-.403.381-.773.69-1.082.558-.558 1.314-.871 2.103-.871.221 0 .441.025.653.074.538-.465 1.226-.723 1.941-.723.716 0 1.404.258 1.941.723.213-.049.432-.074.654-.074.789 0 1.545.313 2.102.871.558.557.871 1.314.871 2.102v2.108c.235-.044.476-.067.723-.067h.547c1.105 0 2 .896 2 2v5.382c0 4.629-3.713 8.402-8.342 8.476-.062.001-.124-.001-.186-.006h-.618c-2.943-.001-5.509-1.62-6.854-4.017-1.345 2.397-3.911 4.016-6.854 4.017h-.618c-.062.005-.124.007-.186.006-4.629-.074-8.342-3.847-8.342-8.476v-5.382c0-1.104.895-2 2-2h.547c.247 0 .489.023.723.067v-2.108c0-.788.313-1.545.871-2.102.557-.558 1.313-.871 2.102-.871.222 0 .441.025.654.074.537-.465 1.225-.723 1.941-.723.715 0 1.403.258 1.941.723.212-.049.432-.074.653-.074.789 0 1.545.313 2.103.871.309.309.543.679.69 1.082.679.045 1.296.317 1.775.742zm-7.438 18.168c.015-.001.031-.003.046-.005.016-.002.031-.004.047-.006-.031.004-.062.008-.093.011zm14.876 0c-.015-.002-.031-.003-.046-.005-.016-.002-.031-.004-.047-.006.031.004.062.009.093.011z"/><path d="m5.27 9.047c.001-.124.024-.246.07-.361.033-.085.079-.165.135-.237.138-.176.336-.302.554-.351.09-.02.182-.028.274-.022.111.007.221.033.323.077.11.047.211.114.296.198.092.089.165.196.215.313.052.121.079.252.079.383v5.514h.649v-6.163c0-.258.102-.505.285-.688.182-.182.43-.285.688-.285s.505.103.688.285c.182.183.285.43.285.688v6.811h.648v-6.162c0-.258.103-.505.285-.688.183-.182.43-.285.688-.285s.506.103.688.285c.183.183.285.43.285.688v6.811h.649v-4.865c0-.537.436-.973.973-.973s.973.436.973.973v8.092c0 3.234-2.621 5.854-5.854 5.855-.213 0-.423 0-.628 0-.048 0-.096-.001-.144.006-3.537-.056-6.374-2.939-6.374-6.476v-5.382h.547c1.105 0 2 .896 2 2v2.69c0 .399.323.722.722.722h.001v-.004c.035.003.104-.496.104-.496s-.062-.391-.104-.517v-8.436z" fill="#885030"/><path d="m5.27 17.483c.033.011.068.017.105.017h.747c.763 0 1.495.303 2.035.843s.843 1.272.843 2.035v1.123c0 .132-.053.259-.146.353-.094.093-.221.146-.353.146h-.002c-.132 0-.259-.053-.353-.146-.093-.094-.146-.221-.146-.353 0-.34 0-.787 0-1.123 0-.498-.198-.976-.55-1.328s-.83-.55-1.328-.55c-.266 0-.522 0-.747 0-.035 0-.07-.001-.105-.004z" fill="#6c320e"/><path d="m26.73 9.047c-.001-.124-.024-.246-.07-.361-.033-.085-.079-.165-.135-.237-.138-.176-.336-.302-.554-.351-.09-.02-.182-.028-.274-.022-.111.007-.221.033-.323.077-.11.047-.211.114-.296.198-.092.089-.165.196-.215.313-.052.121-.079.252-.079.383v5.514h-.649v-6.163c0-.258-.102-.505-.285-.688-.182-.182-.43-.285-.688-.285s-.505.103-.688.285c-.182.183-.285.43-.285.688v6.811h-.648v-6.162c0-.258-.103-.505-.285-.688-.183-.182-.43-.285-.688-.285s-.506.103-.688.285c-.183.183-.285.43-.285.688v6.811h-.649v-4.865c0-.537-.436-.973-.973-.973s-.973.436-.973.973v8.092c0 3.234 2.621 5.854 5.854 5.855h.628c.048 0 .096-.001.144.006 3.537-.056 6.374-2.939 6.374-6.476v-5.382h-.547c-1.105 0-2 .896-2 2v2.69c0 .399-.323.722-.722.722h-.001v-.004c-.035.003-.104-.496-.104-.496s.062-.391.104-.517z" fill="#885030"/><path d="m26.73 17.483c-.033.011-.068.017-.105.017h-.747c-.763 0-1.495.303-2.035.843s-.843 1.272-.843 2.035v1.123c0 .132.053.259.146.353.094.093.221.146.353.146h.002c.132 0 .259-.053.353-.146.093-.094.146-.221.146-.353 0-.34 0-.787 0-1.123 0-.498.198-.976.55-1.328s.83-.55 1.328-.55h.747c.035 0 .07-.001.105-.004z" fill="#6c320e"/></g></svg>