<svg clip-rule="evenodd" fill-rule="evenodd" stroke-linecap="round" viewBox="0 0 32 32" xmlns="http://www.w3.org/2000/svg" xmlns:xlink="http://www.w3.org/1999/xlink"><clipPath id="a"><path clip-rule="evenodd" d="m0 0h32v32h-32z"/></clipPath><metadata/><path d="m0 0h32v32h-32z" fill="none"/><g clip-path="url(#a)"><path d="m23 9s.814-.407 1.404-.702c.387-.193.701-.507.894-.894.048-.095.098-.196.149-.298.339-.678 1.032-1.106 1.789-1.106h.764c1.105 0 2 .895 2 2v3c0 1.105-.895 2-2 2-.347 0-.695 0-1 0-.63 0-1.222-.296-1.6-.8-.875-1.167-2.4-3.2-2.4-3.2z" fill="none" stroke="#000" stroke-width="4"/><path d="m9 9s-.814-.407-1.404-.702c-.387-.193-.701-.507-.894-.894-.048-.095-.098-.196-.149-.298-.339-.678-1.032-1.106-1.789-1.106-.243 0-.503 0-.764 0-1.105 0-2 .895-2 2v3c0 1.105.895 2 2 2h1c.63 0 1.222-.296 1.6-.8.875-1.167 2.4-3.2 2.4-3.2z" fill="none" stroke="#000" stroke-width="4"/><path d="m15.54 4c-3.973 0-7.569 2.352-9.161 5.992-.722 1.649-1.496 3.419-2.19 5.006-1.32 3.017-.657 6.534 1.672 8.863.482.482.955.955 1.382 1.382 1.125 1.125 2.651 1.757 4.242 1.757h9.03c1.591 0 3.117-.632 4.242-1.757.427-.427.9-.9 1.382-1.382 2.329-2.329 2.992-5.846 1.672-8.863-.694-1.587-1.468-3.357-2.19-5.006-1.592-3.64-5.188-5.992-9.161-5.992-.306 0-.614 0-.92 0z"/><path d="m16.571 2 .112.002.111.003.111.003.111.005.111.005.11.007.11.008.111.008.109.01.11.011.11.011.109.013.109.014.109.014.108.016.108.016.109.018.107.018.108.02.107.02.107.022.107.022.106.023.106.025.106.025.105.026.105.027.105.028.104.029.105.03.103.03.104.032.103.033.103.033.102.034.102.036.102.036.101.037.101.038.1.039.1.04.1.04.099.042.099.042.098.043.098.044.098.045.097.046.097.047.096.048.096.048.095.049.095.05.094.051.094.052.094.052.093.054.092.054.092.055.092.056.091.056.09.058.09.058.089.059.089.06.089.061.087.061.088.062.087.063.086.064.085.065.085.065.085.066.083.067.084.067.083.069.082.069.081.07.081.07.081.072.079.072.079.073.079.073.077.075.078.075.076.075.076.077.075.077.075.078.074.079.073.079.073.08.072.081.07.081.071.082.07.083.069.083.068.084.068.085.067.085.066.087.066.087.064.087.064.088.063.089.063.089.062.09.06.091.061.091.059.092.058.093.058.093.057.094.056.094.056.095.054.096.054.096.053.097.052.097.051.098.051.099.049.099.049.1.048.1.047.101.046.101.043.098 2.196 5.019.071.168.072.178.068.179.065.179.061.181.058.181.054.181.05.183.047.183.043.183.04.184.036.184.033.185.029.184.025.186.023.185.018.186.015.185.012.185.008.186.005.185.001.186-.002.185-.005.185-.009.184-.012.185-.016.184-.019.184-.023.183-.025.183-.03.182-.032.181-.036.181-.039.181-.043.179-.046.179-.049.178-.052.177-.056.176-.059.175-.062.175-.066.173-.069.172-.072.171-.075.17-.078.168-.082.167-.085.166-.088.165-.092.163-.094.161-.098.16-.1.158-.104.157-.108.155-.11.154-.113.151-.117.15-.119.147-.123.146-.126.144-.128.141-.132.14-.128.13-1.393 1.393-.066.066-.072.069-.072.067-.073.067-.074.066-.074.065-.075.064-.076.063-.077.062-.077.061-.078.06-.079.059-.079.058-.08.057-.081.056-.081.055-.082.054-.082.053-.083.051-.084.051-.084.05-.085.048-.085.048-.086.047-.087.045-.086.044-.088.044-.088.042-.089.041-.089.04-.089.039-.09.038-.09.037-.091.036-.091.034-.092.034-.092.032-.092.031-.093.03-.094.029-.093.028-.094.027-.094.025-.095.025-.095.023-.096.022-.095.021-.096.02-.096.018-.097.018-.097.016-.097.015-.097.014-.098.013-.098.012-.098.01-.098.009-.098.008-.099.007-.099.005-.099.005-.099.003-.099.001-.093.001h-9.042l-.093-.001-.099-.001-.099-.003-.099-.005-.099-.005-.099-.007-.098-.008-.098-.009-.098-.01-.098-.012-.098-.013-.097-.014-.097-.015-.097-.016-.097-.018-.096-.018-.096-.02-.095-.021-.096-.022-.095-.023-.094-.025-.095-.025-.094-.027-.093-.028-.094-.029-.093-.03-.092-.031-.092-.032-.092-.034-.091-.034-.091-.036-.09-.037-.09-.038-.09-.039-.088-.04-.089-.041-.088-.042-.087-.044-.087-.044-.087-.045-.086-.047-.085-.048-.085-.048-.084-.05-.084-.05-.083-.052-.082-.053-.082-.054-.081-.055-.081-.056-.08-.057-.079-.058-.079-.059-.078-.06-.077-.061-.077-.062-.076-.063-.075-.064-.074-.065-.074-.066-.073-.067-.073-.068-.071-.068-.066-.066-1.393-1.393-.128-.13-.132-.14-.128-.141-.126-.144-.123-.146-.119-.147-.117-.15-.113-.151-.11-.154-.108-.155-.103-.156-.101-.159-.098-.16-.095-.161-.091-.163-.088-.165-.085-.166-.082-.167-.078-.168-.075-.17-.072-.171-.069-.172-.066-.173-.062-.174-.059-.176-.056-.176-.052-.177-.049-.178-.046-.179-.043-.179-.039-.181-.036-.181-.032-.181-.03-.182-.025-.183-.023-.183-.019-.184-.016-.184-.012-.185-.009-.184-.005-.185-.002-.185.001-.186.005-.185.008-.186.012-.185.015-.186.019-.185.022-.185.025-.185.029-.185.033-.185.036-.184.04-.184.043-.183.047-.183.05-.182.054-.182.058-.181.061-.181.065-.18.068-.178.072-.178.071-.168 2.196-5.019.043-.098.046-.101.047-.101.048-.101.049-.099.049-.099.051-.099.051-.098.052-.097.053-.097.054-.096.054-.096.056-.095.056-.094.057-.094.058-.093.058-.093.059-.092.061-.091.061-.091.061-.09.063-.089.063-.089.064-.088.065-.088.065-.086.066-.086.067-.086.068-.085.068-.084.069-.084.07-.082.07-.082.072-.082.071-.08.073-.08.073-.079.074-.079.075-.078.075-.077.076-.077.076-.076.078-.074.077-.075.079-.073.079-.073.079-.072.081-.072.081-.07.081-.07.082-.069.083-.069.083-.067.084-.067.085-.066.085-.065.085-.065.086-.064.087-.063.088-.062.087-.061.089-.061.088-.06.09-.059.09-.058.09-.058.091-.056.092-.056.092-.055.092-.054.093-.054.094-.052.094-.052.094-.051.095-.05.095-.049.096-.048.096-.048.097-.047.097-.046.098-.044.098-.045.098-.043.099-.042.099-.042.1-.04.1-.04.1-.039.101-.038.101-.037.102-.036.102-.036.102-.034.103-.033.103-.033.104-.032.103-.03.104-.03.105-.029.105-.028.105-.027.105-.026.106-.025.106-.025.107-.023.106-.022.107-.022.107-.02.108-.02.107-.018.109-.018.108-.016.108-.016.109-.014.109-.014.109-.013.11-.011.11-.011.109-.01.111-.008.11-.008.11-.007.111-.005.111-.005.111-.003.111-.003.112-.002h.107.928.107zm-1.026 4h-.079l-.075.001-.074.002-.074.003-.074.003-.074.003-.074.005-.073.005-.074.006-.073.006-.073.007-.073.008-.073.008-.073.009-.072.01-.073.011-.072.011-.072.011-.071.013-.072.013-.071.013-.072.014-.071.015-.07.016-.071.016-.07.017-.071.017-.07.018-.07.019-.069.019-.069.02-.07.02-.069.021-.068.022-.069.022-.068.023-.068.024-.067.024-.068.025-.067.025-.067.026-.067.026-.066.028-.066.027-.066.028-.066.029-.065.03-.065.03-.065.03-.065.031-.064.032-.064.032-.063.033-.064.034-.062.034-.063.034-.062.035-.062.036-.062.036-.062.037-.061.037-.06.038-.061.038-.06.039-.059.039-.059.04-.06.041-.058.041-.058.041-.058.042-.058.043-.057.043-.056.043-.057.044-.056.045-.055.045-.056.046-.054.046-.055.046-.054.047-.053.048-.053.048-.053.049-.052.049-.052.049-.052.05-.05.051-.051.051-.05.051-.05.052-.049.052-.049.053-.048.053-.048.054-.048.054-.047.055-.046.055-.046.056-.046.056-.045.056-.044.057-.044.058-.044.058-.043.058-.043.058-.042.059-.041.06-.042.06-.04.06-.04.061-.04.061-.039.062-.038.062-.038.063-.037.062-.037.064-.037.064-.036.064-.035.064-.034.065-.035.066-.033.065-.033.067-.033.066-.032.067-.031.067-.031.068-.032.073-2.184 4.992-.049.116-.044.107-.041.108-.038.107-.037.108-.035.109-.032.109-.03.109-.028.11-.026.11-.024.11-.022.11-.019.111-.018.111-.015.11-.013.112-.012.111-.009.111-.007.111-.005.112-.003.111v.111l.001.111.003.111.006.111.007.111.009.11.012.11.013.11.016.11.017.11.02.109.021.108.024.109.026.107.027.108.03.107.031.106.034.106.035.105.037.104.04.104.041.104.043.102.045.102.047.101.049.1.051.1.053.098.055.098.056.097.059.096.06.094.063.094.064.093.066.092.068.091.07.09.072.088.073.088.075.086.078.085.079.084.088.09 1.37 1.37.04.039.036.035.036.034.037.033.036.033.038.033.037.032.039.031.038.031.038.031.039.03.04.029.039.029.04.029.041.028.04.027.041.027.041.026.042.026.041.025.043.025.042.025.043.023.043.024.043.022.043.023.044.021.044.021.044.021.045.02.045.02.045.019.045.018.045.018.046.017.046.017.046.016.046.016.046.015.047.014.047.014.047.013.047.013.047.012.048.012.048.011.047.011.048.009.049.01.048.008.048.009.049.007.048.007.049.006.049.006.049.005.049.005.049.004.05.003.049.003.049.002.05.002.05.001h.056 9.016.056l.05-.001.05-.002.049-.002.049-.003.05-.003.049-.004.049-.005.049-.005.049-.006.049-.006.048-.007.049-.007.048-.009.048-.008.049-.01.048-.009.048-.011.047-.011.048-.012.047-.012.047-.013.047-.013.047-.014.047-.014.046-.015.046-.016.046-.016.046-.017.046-.017.045-.018.045-.018.045-.019.045-.02.045-.02.044-.021.044-.021.043-.021.044-.023.043-.022.043-.024.043-.023.042-.025.043-.025.041-.025.042-.026.041-.026.041-.027.041-.028.04-.027.04-.029.039-.029.04-.029.039-.03.038-.031.039-.031.038-.031.037-.032.037-.033.037-.033.037-.033.036-.034.036-.035.039-.039 1.371-1.37.088-.09.079-.084.078-.085.075-.086.074-.088.071-.088.07-.09.068-.091.066-.092.064-.093.063-.094.06-.094.059-.096.056-.097.055-.098.053-.098.051-.1.049-.1.047-.101.045-.102.043-.102.041-.104.04-.104.037-.104.035-.105.034-.106.031-.106.03-.107.027-.108.026-.107.023-.109.022-.108.02-.109.017-.11.016-.11.013-.11.012-.11.009-.111.007-.11.006-.111.003-.111.001-.111v-.111l-.003-.111-.005-.112-.007-.111-.009-.111-.012-.111-.013-.111-.015-.111-.018-.111-.019-.111-.022-.11-.024-.11-.026-.11-.028-.11-.03-.109-.032-.109-.035-.109-.036-.108-.039-.108-.041-.107-.044-.107-.049-.116-2.184-4.992-.032-.073-.031-.068-.031-.067-.032-.067-.033-.066-.033-.067-.033-.065-.034-.066-.035-.065-.035-.064-.036-.064-.037-.064-.036-.063-.038-.063-.038-.063-.038-.062-.039-.062-.04-.061-.04-.061-.041-.06-.041-.06-.041-.059-.042-.06-.043-.058-.043-.059-.044-.057-.044-.058-.044-.057-.045-.056-.046-.056-.046-.056-.046-.055-.047-.054-.048-.055-.048-.054-.048-.053-.049-.053-.049-.052-.05-.052-.05-.051-.05-.051-.051-.051-.052-.05-.052-.049-.052-.049-.053-.049-.053-.048-.053-.048-.055-.047-.054-.046-.054-.046-.056-.046-.055-.045-.056-.045-.057-.044-.056-.043-.057-.043-.058-.043-.058-.042-.058-.041-.058-.041-.06-.041-.059-.04-.059-.039-.06-.039-.061-.038-.061-.038-.06-.037-.062-.037-.062-.036-.062-.036-.062-.035-.063-.034-.063-.034-.063-.034-.063-.033-.064-.032-.064-.032-.065-.031-.065-.03-.065-.03-.065-.03-.066-.029-.066-.028-.066-.027-.066-.028-.067-.026-.067-.026-.067-.025-.068-.025-.067-.024-.068-.024-.068-.023-.069-.022-.068-.022-.069-.021-.07-.02-.069-.02-.069-.019-.07-.019-.07-.018-.071-.017-.07-.017-.071-.016-.07-.016-.071-.015-.072-.014-.071-.013-.072-.013-.071-.013-.072-.011-.072-.011-.073-.011-.072-.01-.073-.009-.073-.008-.073-.008-.073-.007-.073-.006-.074-.006-.073-.005-.074-.005-.074-.003-.074-.003-.074-.003-.074-.002-.075-.001h-.079-.91z"/><path d="m15.54 4c-3.973 0-7.569 2.352-9.161 5.992-.722 1.649-1.496 3.419-2.19 5.006-1.32 3.017-.657 6.534 1.672 8.863.482.482.955.955 1.382 1.382 1.125 1.125 2.651 1.757 4.242 1.757h9.03c1.591 0 3.117-.632 4.242-1.757.427-.427.9-.9 1.382-1.382 2.329-2.329 2.992-5.846 1.672-8.863-.694-1.587-1.468-3.357-2.19-5.006-1.592-3.64-5.188-5.992-9.161-5.992-.306 0-.614 0-.92 0z" fill="#e3e3e3"/><path d="m17.841 23.361.039.017.041.017.04.015.041.014.042.013.041.012.043.011.042.009.042.008.043.007.043.006.044.004.043.003.044.002.047.001h.692.041l.037-.002.037-.002.037-.003.037-.004.036-.005.036-.006.037-.007.035-.008.036-.008.036-.01.035-.01.035-.011.034-.012.035-.013.034-.013.033-.015.033-.015.033-.016.033-.017.032-.017.032-.019.031-.019.031-.02.03-.021.03-.021.029-.023.029-.023.029-.024.027-.024.027-.025.029-.029 1.412-1.412.036-.032.038-.028.04-.025.043-.021.045-.016.046-.013.047-.007.047-.004.048.001.047.006.046.01.046.015.043.018.042.023.04.027.036.03.034.034.03.036.027.04.023.042.018.043.015.046.01.046.006.047.001.048-.004.047-.007.047-.013.046-.016.045-.021.043-.025.04-.028.038-.032.036-1.417 1.416-.042.041-.045.042-.047.041-.047.04-.048.038-.049.037-.05.036-.05.035-.052.033-.052.032-.053.031-.053.03-.054.028-.055.026-.056.026-.056.024-.056.022-.057.022-.058.02-.058.018-.059.017-.059.016-.06.014-.059.013-.061.011-.06.01-.061.008-.061.007-.062.005-.061.004-.062.002-.059.001h-.707l-.069-.001-.072-.003-.072-.005-.073-.008-.071-.009-.072-.012-.071-.013-.07-.016-.07-.017-.07-.02-.069-.022-.068-.023-.068-.026-.067-.028-.066-.029-.063-.03-1.357-.679-1.357.679-.063.03-.066.029-.067.028-.068.026-.068.023-.069.022-.07.02-.07.017-.07.016-.071.013-.072.012-.071.009-.073.008-.072.005-.072.003-.069.001h-.707l-.059-.001-.062-.002-.061-.004-.062-.005-.061-.007-.061-.008-.06-.01-.061-.011-.059-.013-.06-.014-.059-.016-.059-.017-.058-.018-.058-.02-.057-.022-.056-.022-.056-.024-.056-.026-.055-.026-.054-.028-.053-.03-.053-.031-.052-.032-.052-.033-.05-.035-.05-.036-.049-.037-.048-.038-.047-.04-.047-.041-.045-.042-.042-.041-1.417-1.416-.032-.036-.028-.038-.025-.04-.021-.043-.016-.045-.013-.046-.007-.047-.004-.047.001-.048.006-.047.01-.046.015-.046.018-.043.023-.042.027-.04.03-.036.034-.034.036-.03.04-.027.042-.023.043-.018.046-.015.046-.01.047-.006.048-.001.047.004.047.007.046.013.045.016.043.021.04.025.038.028.036.032 1.412 1.412.029.029.027.025.027.024.029.024.029.023.029.023.03.021.03.021.031.02.031.019.032.019.032.017.033.017.033.016.033.015.033.015.034.013.035.013.034.012.035.011.035.01.036.01.036.008.035.008.037.007.036.006.036.005.037.004.037.003.037.002.037.002h.041.692l.047-.001.044-.002.043-.003.044-.004.043-.006.043-.007.042-.008.042-.009.043-.011.041-.012.042-.013.041-.014.04-.015.041-.017.039-.017.043-.021 1.798-.899 1.798.899z" fill="#888"/><path d="m15.243 22c-.796 0-1.559-.316-2.122-.879-.406-.406-.839-.839-1.026-1.026-.061-.061-.095-.143-.095-.23 0-.478.387-.865.865-.865h6.262c.232 0 .454.092.617.256.164.163.256.385.256.617v.001c0 .081-.032.158-.089.215-.184.184-.622.622-1.032 1.032-.563.563-1.326.879-2.122.879-.482 0-1.032 0-1.514 0z"/><path d="m9.647 12.03c.332-.499.871-.822 1.467-.881s1.187.152 1.611.576l.313.313c.454.454.663 1.1.56 1.734-.103.635-.505 1.181-1.08 1.469-.45.225-.865.433-1.148.574-.237.118-.417.326-.501.578-.163.488-.443 1.329-.641 1.923-.136.409-.518.684-.949.684-.383 0-.86 0-1.279 0-.552 0-1-.448-1-1 0-.592 0-1.302 0-1.697 0-.198.058-.391.168-.555.421-.631 1.553-2.33 2.479-3.718z"/><path d="m22.353 12.03c-.332-.499-.871-.822-1.467-.881s-1.187.152-1.611.576c-.104.104-.208.208-.313.313-.454.454-.663 1.1-.56 1.734.103.635.505 1.181 1.08 1.469.45.225.865.433 1.148.574.237.118.417.326.501.578.163.488.443 1.329.641 1.923.136.409.518.684.949.684h1.279c.552 0 1-.448 1-1 0-.592 0-1.302 0-1.697 0-.198-.058-.391-.168-.555-.421-.631-1.553-2.33-2.479-3.718z"/><g fill="#404040"><path d="m23 9s.814-.407 1.404-.702c.387-.193.701-.507.894-.894.048-.095.098-.196.149-.298.339-.678 1.032-1.106 1.789-1.106h.764c1.105 0 2 .895 2 2v3c0 1.105-.895 2-2 2-.347 0-.695 0-1 0-.63 0-1.222-.296-1.6-.8-.875-1.167-2.4-3.2-2.4-3.2z"/><path d="m9 9s-.814-.407-1.404-.702c-.387-.193-.701-.507-.894-.894-.048-.095-.098-.196-.149-.298-.339-.678-1.032-1.106-1.789-1.106-.243 0-.503 0-.764 0-1.105 0-2 .895-2 2v3c0 1.105.895 2 2 2h1c.63 0 1.222-.296 1.6-.8.875-1.167 2.4-3.2 2.4-3.2z"/></g></g></svg>