<svg clip-rule="evenodd" fill-rule="evenodd" stroke-linecap="square" stroke-linejoin="round" stroke-miterlimit="1.5" viewBox="0 0 32 32" xmlns="http://www.w3.org/2000/svg" xmlns:xlink="http://www.w3.org/1999/xlink"><clipPath id="a"><path clip-rule="evenodd" d="m0 0h32v32h-32z"/></clipPath><metadata/><path d="m0 0h32v32h-32z" fill="none"/><g clip-path="url(#a)"><path d="m22 8c0-4.418-3.582-8-8-8-4.418 0-8 3.582-8 8v14.5c0 2.52 1.001 4.936 2.782 6.718 1.782 1.781 4.198 2.782 6.718 2.782 5.247 0 9.5-4.253 9.5-9.5 0-4.617 0-9.75 0-12.5 0-.53-.211-1.039-.586-1.414s-.884-.586-1.414-.586c-.551 0-1 0-1 0z"/><path d="m22 11v11.5c0 1.724-.685 3.377-1.904 4.596s-2.872 1.904-4.596 1.904c-3.59 0-6.5-2.91-6.5-6.5v-14.5c0-1.326.527-2.598 1.464-3.536.938-.937 2.21-1.464 3.536-1.464 2.761 0 5 2.239 5 5v11.5c0 1.933-1.567 3.5-3.5 3.5s-3.5-1.567-3.5-3.5c0-3.542 0-8.5 0-8.5" fill="none" stroke="#a7a7a7" stroke-width="2"/></g></svg>