<svg clip-rule="evenodd" fill-rule="evenodd" stroke-linejoin="round" stroke-miterlimit="1.41421" viewBox="0 0 32 32" xmlns="http://www.w3.org/2000/svg" xmlns:xlink="http://www.w3.org/1999/xlink"><clipPath id="a"><path clip-rule="evenodd" d="m0 0h32v32h-32z"/></clipPath><metadata/><path d="m0 0h32v32h-32z" fill="none"/><g clip-path="url(#a)"><path d="m32 8c0-4.418-3.582-8-8-8-4.887 0-11.113 0-16 0-4.418 0-8 3.582-8 8v16c0 4.418 3.582 8 8 8h16c4.418 0 8-3.582 8-8 0-4.887 0-11.113 0-16z"/><path d="m30 8c0-1.591-.632-3.117-1.757-4.243-1.126-1.125-2.652-1.757-4.243-1.757-4.724 0-11.276 0-16 0-1.591 0-3.117.632-4.243 1.757-1.125 1.126-1.757 2.652-1.757 4.243v16c0 1.591.632 3.117 1.757 4.243 1.126 1.125 2.652 1.757 4.243 1.757h16c1.591 0 3.117-.632 4.243-1.757 1.125-1.126 1.757-2.652 1.757-4.243 0-4.724 0-11.276 0-16z" fill="#334cec"/><path d="m22.449 8.129c1.19 1.016 1.784 2.469 1.784 4.357 0 1.816-.594 3.233-1.784 4.249-1.189 1.017-2.882 1.526-5.079 1.526h-4.413v7.136h-3.568v-18.794h8.117c2.106 0 3.754.509 4.943 1.526zm-1.784 4.33c0-.926-.263-1.616-.79-2.07-.526-.454-1.271-.681-2.233-.681h-4.685v5.42h4.685c2.016 0 3.023-.889 3.023-2.669z" fill="#fff" fill-rule="nonzero"/></g></svg>