<svg clip-rule="evenodd" fill-rule="evenodd" stroke-linecap="round" stroke-miterlimit="3" viewBox="0 0 32 32" xmlns="http://www.w3.org/2000/svg" xmlns:xlink="http://www.w3.org/1999/xlink"><clipPath id="a"><path clip-rule="evenodd" d="m0 0h32v32h-32z"/></clipPath><metadata/><path d="m0 0h32v32h-32z" fill="none"/><g clip-path="url(#a)"><g fill="none" stroke="#000" stroke-width="4"><path d="m30 30s0-7.896 0-12.23c0-1.813-.493-3.591-1.425-5.145-.774-1.29-1.575-2.625-1.575-2.625h2s-.464-.464-1.027-1.027c-1.263-1.263-2.977-1.973-4.763-1.973-.677 0-1.21 0-1.21 0l2-2h-7v-2s-.947.316-2.089.696c-2.436.812-4.288 2.812-4.911 5.303v.001l-2 5 4 2 4 7v.675c0 .215-.035.429-.103.633-.408 1.226-1.897 5.692-1.897 5.692z"/><path d="m10 9v3l4 4s-2.376.634-4.453 1.187c-1.938.517-3.561 1.84-4.457 3.634-.568 1.134-1.09 2.179-1.09 2.179s-.884-2.651-1.476-4.429c-.34-1.02-.34-2.122 0-3.142.094-.284.196-.589.301-.903.74-2.22 2.481-3.961 4.701-4.701 1.306-.436 2.474-.825 2.474-.825z" stroke-linejoin="round"/><path d="m5 19h2.58c.919 0 1.809-.316 2.522-.896 1.184-.962 2.898-2.354 2.898-2.354s.205.026.484.061c.895.111 1.604.808 1.732 1.701.294 2.058.784 5.488.784 5.488s-.587.147-1.312.328c-1.705.426-3.512.083-4.943-.938-2.046-1.462-4.745-3.39-4.745-3.39z"/></g><path d="m30 30s0-7.896 0-12.23c0-1.813-.493-3.591-1.425-5.145-.774-1.29-1.575-2.625-1.575-2.625h2s-.464-.464-1.027-1.027c-1.263-1.263-2.977-1.973-4.763-1.973-.677 0-1.21 0-1.21 0l2-2h-7v-2s-.947.316-2.089.696c-2.436.812-4.288 2.812-4.911 5.303v.001l-2 5 4 2 4 7v.675c0 .215-.035.429-.103.633-.408 1.226-1.897 5.692-1.897 5.692z" fill="#2442c8"/><path d="m20 11c0-1.105-.895-2-2-2s-2 .895-2 2 .895 2 2 2 2-.895 2-2z" fill="#ffde05"/><circle cx="18" cy="11" r="1"/><path d="m13 16h.541c.87 0 1.697.377 2.266 1.034.57.657.827 1.529.704 2.39-.254 1.775-.511 3.576-.511 3.576h-3z" fill="#ffde05"/><path d="m10 9v.929c0 1.326.527 2.598 1.464 3.535 1.142 1.142 2.536 2.536 2.536 2.536s-2.376.634-4.453 1.187c-1.938.517-3.561 1.84-4.457 3.634-.568 1.134-1.09 2.179-1.09 2.179s-.884-2.651-1.476-4.429c-.34-1.02-.34-2.122 0-3.142.094-.284.196-.589.301-.903.74-2.22 2.481-3.961 4.701-4.701 1.306-.436 2.474-.825 2.474-.825z" fill="#2e2f34"/><path d="m5 19h2.58c.919 0 1.809-.316 2.522-.896 1.184-.962 2.898-2.354 2.898-2.354s.205.026.484.061c.895.111 1.604.808 1.732 1.701.294 2.058.784 5.488.784 5.488s-.587.147-1.312.328c-1.705.426-3.512.083-4.943-.938-2.046-1.462-4.745-3.39-4.745-3.39z" fill="#2e2f34"/></g></svg>