<svg clip-rule="evenodd" fill-rule="evenodd" stroke-linejoin="round" stroke-miterlimit="2" viewBox="0 0 32 32" xmlns="http://www.w3.org/2000/svg" xmlns:xlink="http://www.w3.org/1999/xlink"><clipPath id="a"><path clip-rule="evenodd" d="m0 0h32v32h-32z"/></clipPath><metadata/><path d="m0 0h32v32h-32z" fill="none"/><g clip-path="url(#a)"><path d="m3 2c.048-1.483 1.546-2.409 2.894-1.789l7.919 3.959c.712-.112 1.443-.17 2.187-.17h.002l.348.004c.115.005.231.009.346.013l.304.019v-2.036c0-.809.487-1.538 1.235-1.848.747-.309 1.607-.138 2.179.434 0 0 .231.231.536.535.562.563 1.325.879 2.121.879h.929c1.105 0 2 .895 2 2v3c0 .347-.089.674-.245.959l.145.141c.75.75 1.407 1.577 1.961 2.463.159-.025.317-.064.471-.115.567-.189 1.036-.345 1.036-.345.609-.204 1.28-.101 1.801.275.522.375.831.979.831 1.622v3c0 .861-.551 1.625-1.368 1.897l-.661.221c.02.292.029.585.029.88v1.002c0 1.352-.211 2.682-.615 3.947.201.035.406.053.614.053h.001c.738 0 1.415.406 1.763 1.056.348.651.31 1.44-.099 2.053l-2 3c-.371.557-.995.891-1.664.891h-.001c-.706 0-1.399-.098-2.062-.286l-.109.114c-.75.751-1.767 1.172-2.828 1.172h-1.003c-1.568.654-3.265 1-4.997 1-.665 0-1.335 0-2 0-3.448 0-6.754-1.37-9.192-3.808-.206-.205-.404-.417-.594-.635-1.04.293-2.121.443-3.214.443-.643 0-1.247-.309-1.622-.831-.376-.521-.479-1.192-.275-1.801l1-3c.181-.544.58-.97 1.081-1.193-.122-.714-.184-1.441-.184-2.175v-1c0-2.034.434-3.967 1.214-5.71-.141-.412-.214-.847-.214-1.29v-.101c-.555-.256-1.092-.557-1.605-.899-.301-.2-.504-.336-.504-.336-.919-.613-1.168-1.854-.555-2.773l2-3c.172-.259.401-.471.664-.622v-1.269z"/><path d="m23 25s.136.204.336.505c1.04 1.559 2.789 2.495 4.663 2.495h.001l2-3h-.001c-1.874 0-3.623-.936-4.663-2.495-.2-.301-.336-.505-.336-.505z" fill="#f229a2"/><path d="m2 8 2-3c1.281 1.281 3.017 2 4.828 2h1.172l-2 3c-1.956 0-3.869-.579-5.496-1.664-.301-.201-.504-.336-.504-.336z" fill="#f229a2"/><path d="m4.756 23.007c-.495-1.265-.756-2.622-.756-4.007v-1c0-6.627 5.373-12 12-12h.002c.342 0 .683.015 1.022.044l7.03 3.059c.147.133.291.27.432.411 1.278 1.278 2.237 2.814 2.828 4.486 0 0 .179 2.489.682 3.671.003.109.004.218.004.327v1.002c0 2.917-1.159 5.715-3.222 7.778s-4.861 3.222-7.778 3.222h-2c-2.706 0-5.309-.997-7.318-2.788-.212-1.509-1.917-3.738-2.926-4.205z" fill="#fbc546"/><path d="m4.756 23.007c.946.036 1.884.206 2.784.506.736.246 1.46.487 1.46.487l-1 3-.318.212c-.157-.14-.311-.284-.46-.434-1.084-1.084-1.918-2.37-2.466-3.771zm22.558-9.007c.414 1.171.647 2.409.682 3.671-.88-.734-1.894-1.304-2.996-1.671l1-2zm-10.29-7.956c2.61.223 5.081 1.295 7.03 3.059l-2.036.221c-1.827.199-3.593-.723-4.476-2.334z" fill="#e59a10"/><path d="m25.207 16.793c.391.39.391 1.024 0 1.414-.39.391-1.024.391-1.414 0-.739-.739-1.793-1.793-1.793-1.793s-1.071 1.071-1.811 1.811c-.183.183-.431.286-.689.286s-.506-.103-.689-.286c-.193-.192-.301-.453-.301-.725s.108-.533.301-.725c1.131-1.131 3.189-3.189 3.189-3.189s2.08 2.079 3.207 3.207z" fill-rule="nonzero"/><path d="m13.208 16.794c.187.187.292.441.292.706s-.105.519-.292.706c0 .001-.001.001-.001.001-.39.391-1.024.391-1.414 0-.739-.739-1.793-1.793-1.793-1.793s-1.071 1.071-1.811 1.811c-.183.183-.431.286-.689.286s-.506-.103-.689-.286c-.193-.192-.301-.453-.301-.725s.108-.533.301-.725c1.131-1.131 3.189-3.189 3.189-3.189s2.08 2.08 3.208 3.208z" fill-rule="nonzero"/><path d="m10.196 12.392c-.941.395-1.966.608-3.023.608-.058 0-.116 0-.173 0-.53 0-1.039-.211-1.414-.586s-.586-.884-.586-1.414c0-3.172 0-9 0-9l1.45 1.366 4.169 7.123z" fill="#8012da"/><path d="m10.196 12.392-5.196-10.392s5.47 2.735 8.318 4.159c.929.465 1.306 1.594.841 2.523v.001c-.851 1.7-2.271 2.998-3.963 3.709z" fill="#982eee"/><path d="m14 22.91c0 .059.01.119.029.176.162.488.985 2.957 1.515 4.546.272.817 1.037 1.368 1.898 1.368h3.558c1.105 0 2-.895 2-2s-3.072-3.687-4.4-5.28c-.38-.456-.943-.72-1.537-.72-.346 0-.753 0-1.155 0-1.054 0-1.908.854-1.908 1.908z" fill="#5462cb"/><path d="m25 27c0-.53-.211-1.039-.586-1.414s-.884-.586-1.414-.586c-1.488 0-3.512 0-5 0-.53 0-1.039.211-1.414.586s-.586.884-.586 1.414.211 1.039.586 1.414.884.586 1.414.586h5c.53 0 1.039-.211 1.414-.586s.586-.884.586-1.414z" fill="#2438b9"/><g fill="#f229a2"><path d="m2 26 1-3c1.956 0 3.869-.579 5.496-1.664.301-.201.504-.336.504-.336l-1 3s-.203.135-.504.336c-1.627 1.085-3.54 1.664-5.496 1.664z"/><path d="m30 15v-3s-.468.156-1.035.345c-1.258.419-2.631.322-3.817-.271-.093-.046-.148-.074-.148-.074v3s.055.028.148.074c1.186.593 2.559.69 3.817.271.567-.189 1.035-.345 1.035-.345z"/><path d="m24 7v-3h-.929c-1.326 0-2.598-.527-3.535-1.464-.305-.305-.536-.536-.536-.536v3s.231.231.536.536c.937.937 2.209 1.464 3.535 1.464z"/></g></g></svg>