<svg clip-rule="evenodd" fill-rule="evenodd" stroke-linejoin="round" stroke-miterlimit="1.41421" viewBox="0 0 32 32" xmlns="http://www.w3.org/2000/svg" xmlns:xlink="http://www.w3.org/1999/xlink"><clipPath id="a"><path clip-rule="evenodd" d="m0 0h32v32h-32z"/></clipPath><metadata/><path d="m0 0h32v32h-32z" fill="none"/><g clip-path="url(#a)"><path d="m32 8c0-4.418-3.582-8-8-8-4.887 0-11.113 0-16 0-4.418 0-8 3.582-8 8v16c0 4.418 3.582 8 8 8h16c4.418 0 8-3.582 8-8 0-4.887 0-11.113 0-16z"/><path d="m30 8c0-1.591-.632-3.117-1.757-4.243-1.126-1.125-2.652-1.757-4.243-1.757-4.724 0-11.276 0-16 0-1.591 0-3.117.632-4.243 1.757-1.125 1.126-1.757 2.652-1.757 4.243v16c0 1.591.632 3.117 1.757 4.243 1.126 1.125 2.652 1.757 4.243 1.757h16c1.591 0 3.117-.632 4.243-1.757 1.125-1.126 1.757-2.652 1.757-4.243 0-4.724 0-11.276 0-16z" fill="#e8272e"/><path d="m5.946 12.047c3.183-1.73 6.05-3.82 8.602-6.27h2.904c2.552 2.45 5.419 4.54 8.602 6.27l-.99 1.958c-1.159-.63-2.127-1.195-2.904-1.694v1.54h-12.32v-1.54c-.777.499-1.745 1.064-2.904 1.694zm15.378 10.538v-4.488h-10.648v4.488zm-10.912-10.648h11.176c-1.98-1.334-3.843-2.874-5.588-4.62-1.745 1.746-3.608 3.286-5.588 4.62zm.264 12.54v1.1h-2.376v-9.416h15.4v9.416h-2.376v-1.1z" fill="#fff" fill-rule="nonzero"/></g></svg>