<svg clip-rule="evenodd" fill-rule="evenodd" stroke-linecap="round" stroke-linejoin="round" stroke-miterlimit="10" viewBox="0 0 32 32" xmlns="http://www.w3.org/2000/svg" xmlns:xlink="http://www.w3.org/1999/xlink"><clipPath id="a"><path clip-rule="evenodd" d="m0 0h32v32h-32z"/></clipPath><clipPath id="b"><path clip-rule="evenodd" d="m3 15 13-13 13 13-13 13z"/></clipPath><clipPath id="c"><path clip-rule="evenodd" d="m6 5h32v32h-32z"/></clipPath><metadata/><path d="m0 0h32v32h-32z" fill="none"/><g clip-path="url(#a)"><path d="m3 15 13-13 13 13v2l-13 13-13-13z" fill="none" stroke="#000" stroke-width="4"/><path d="m3 17v-2l13-11 13 11v2l-13 13z" fill="#464646"/><path d="m3 15 13-13 13 13-13 13z" fill="#fff"/><g clip-path="url(#b)"><g clip-path="url(#c)"><path d="m6 5h32v32h-32z" fill="none"/><path d="m15.259 7.001.17.007.17.014.169.02.168.026.167.033.166.039.164.045.163.051.16.058.158.064.156.069.152.075.15.081.147.087.143.092.14.098.136.102.131.108.128.113.123.117.119.122.114.127.11.131.104.134.099.139.094.142.088.146.083.149.077.151.071.155.065.157.06.16.053.162.047.164.041.165.034.167 3.094 16.5.028.168.022.169.015.169.009.17.003.171-.004.17-.01.17-.017.169-.023.169-.03.168-.036.166-.042.165-.048.164-.054.161-.061.159-.067.157-.072.154-.078.151-.084.149-.089.145-.095.141-.1.138-.106.134-.11.13-.115.125-.12.121-.124.117-.129.111-.132.107-.137.102-.14.096-.144.091-.148.086-.15.08-.153.074-.156.068-.159.062-.161.057-.163.05-.164.044-.166.037-.168.032-.168.025-.169.018-.17.013-.17.005h-.171l-.17-.007-.17-.014-.169-.02-.168-.026-.167-.033-.166-.039-.164-.045-.163-.051-.16-.058-.158-.064-.155-.069-.153-.075-.15-.081-.147-.087-.143-.092-.139-.098-.136-.102-.132-.108-.128-.113-.123-.117-.119-.122-.114-.127-.109-.131-.105-.134-.099-.139-.093-.142-.089-.146-.082-.149-.077-.151-.072-.155-.065-.157-.059-.16-.053-.162-.048-.164-.04-.165-.035-.167-3.094-16.5-.028-.168-.022-.169-.015-.169-.009-.17-.003-.171.004-.17.011-.17.016-.169.023-.169.03-.168.036-.166.042-.165.048-.164.055-.161.06-.159.067-.157.072-.154.078-.151.084-.149.09-.145.095-.141.1-.138.105-.134.11-.13.115-.125.12-.121.124-.117.129-.111.133-.107.136-.102.141-.096.144-.091.147-.086.15-.08.154-.074.156-.068.158-.062.161-.057.163-.05.164-.044.166-.037.168-.032.168-.025.17-.018.169-.013.171-.005h.17z"/><path d="m28.562 7.004.166.01.165.016.165.022.164.029.163.034.161.04.16.047.158.052.155.058.154.063.151.07.149.074.145.081.143.085.139.091.136.096.133.101.128.106.124.11.121.115.116.119.111.123.107.128.102.131.097.135.092.139.087.142.082.144.076.148.07.151.065.153.06.155.053.158.048.159.042.161.036.162.029.164.024.165.018.165.011.166.006.166-.001.166-.007.167-.013.165-.019.166-.026.164-.031.163-.037.162-3.874 15.496-.044.161-.049.159-.055.157-.061.155-.066.152-.072.15-.078.147-.083.144-.088.141-.093.138-.099.134-.103.13-.108.127-.113.122-.117.118-.121.114-.126.109-.129.105-.133.099-.137.095-.14.089-.144.084-.146.079-.149.074-.152.068-.154.062-.157.056-.158.051-.16.045-.162.038-.163.033-.164.027-.165.021-.166.014-.166.009-.166.002-.167-.004-.166-.01-.165-.016-.165-.022-.164-.029-.163-.034-.161-.04-.16-.046-.158-.053-.155-.058-.154-.063-.151-.07-.149-.074-.145-.081-.143-.085-.139-.091-.136-.096-.132-.101-.129-.105-.124-.111-.121-.115-.116-.119-.111-.123-.107-.128-.102-.131-.097-.135-.092-.139-.087-.141-.082-.145-.076-.148-.07-.151-.065-.153-.06-.155-.053-.158-.048-.159-.042-.161-.036-.162-.029-.164-.024-.165-.018-.165-.011-.166-.006-.166.001-.166.007-.167.013-.165.019-.166.026-.164.031-.163.037-.162 3.874-15.496.044-.161.049-.159.055-.157.061-.155.066-.152.072-.15.078-.147.083-.144.088-.141.093-.138.099-.134.103-.13.108-.127.113-.122.117-.118.121-.114.126-.109.129-.104.133-.1.137-.095.14-.089.144-.084.146-.079.149-.074.152-.068.154-.062.157-.056.158-.051.16-.045.162-.038.163-.033.164-.027.165-.021.166-.014.166-.009.166-.002.167.004z"/><path d="m21.762 5.004.174.013.173.02.172.027.172.034.169.04.169.047.166.053.164.06.161.066.159.072.156.079.153.084.149.09.146.096.142.101.138.107.134.113.129.117.125.122.119.127.115.132.11.135.104.14.099.144.093.148.087.151.081.154.076.158.069.16.063.163.056.165.05.167.044.169.037.171.03.172.024.173.016.173.011.175.003.174v17l-.003.175-.011.174-.016.173-.024.173-.03.172-.037.171-.044.169-.05.167-.056.165-.063.163-.069.16-.076.158-.081.154-.087.151-.093.148-.099.144-.104.14-.11.136-.115.131-.119.127-.125.122-.129.118-.134.112-.138.107-.142.101-.146.096-.149.09-.153.084-.156.079-.159.072-.161.066-.164.06-.166.053-.169.047-.169.04-.172.034-.172.027-.173.02-.174.013-.175.007h-.174l-.175-.007-.174-.013-.173-.02-.172-.027-.172-.034-.17-.04-.168-.047-.166-.053-.164-.06-.161-.066-.159-.072-.156-.079-.153-.084-.149-.09-.146-.096-.142-.101-.138-.107-.134-.112-.129-.118-.125-.122-.119-.127-.115-.131-.11-.136-.104-.14-.099-.144-.093-.148-.087-.151-.081-.154-.076-.158-.069-.16-.063-.163-.056-.165-.05-.167-.044-.169-.037-.171-.03-.172-.024-.173-.017-.173-.01-.174-.003-.175v-17l.003-.174.01-.175.017-.173.024-.173.03-.172.037-.171.044-.169.05-.167.056-.165.063-.163.069-.16.076-.158.081-.154.087-.151.093-.148.099-.144.104-.14.11-.135.115-.132.119-.127.125-.122.129-.117.134-.113.138-.107.142-.101.146-.096.149-.09.153-.084.156-.079.159-.072.161-.066.164-.06.166-.053.168-.047.17-.04.172-.034.172-.027.173-.02.174-.013.175-.007h.174z"/><path d="m33.074 18.997.148.004.148.009.148.013.147.017.146.022.146.027.145.03.144.035.143.039.142.043.14.048.139.051.138.056.135.06.134.063.132.068.13.072.127.075.125.079.123.083.121.086.118.09.115.094.112.096.109.1.106.104.104.106.1.109.096.112.094.116.09.117.086.121.083.123.079.125.075.127.072.13.068.132.063.134.06.135.056.138.051.139.048.14.043.142.039.143.035.144.03.145.027.146.022.146.017.147.013.148.009.148.004.148v.148l-.004.148-.009.148-.013.148-.017.147-.022.146-.027.146-.03.145-.035.144-.039.143-.043.142-.048.14-.051.139-.056.138-.06.135-.063.134-.068.132-.072.13-.075.127-.079.126-.083.122-.086.121-.09.118-.094.115-.096.112-.1.109-.104.107-5.99 5.99-.094.093-.107.103-.107.101-.109.1-.11.098-.111.096-.112.096-.113.093-.114.093-.115.091-.116.089-.117.088-.118.086-.119.085-.121.083-.12.082-.122.08-.123.079-.124.077-.124.075-.126.075-.126.072-.127.071-.128.069-.129.068-.129.066-.13.064-.131.063-.132.061-.133.06-.133.058-.133.056-.135.055-.135.053-.136.052-.136.05-.138.048-.137.046-.138.045-.139.043-.14.042-.14.039-.14.038-.141.037-.142.034-.142.033-.142.032-.143.029-.143.028-.144.026-.144.024-.145.023-.145.02-.145.019-.145.017-.147.016-.146.013-.146.012-.147.01-.147.008-.147.007-.148.004-.148.003-.132.001h-.149l-.148-.002-.148-.007-.148-.011-.147-.015-.147-.02-.146-.024-.146-.028-.144-.033-.144-.037-.142-.041-.141-.045-.14-.05-.138-.054-.137-.057-.134-.062-.133-.066-.131-.069-.129-.074-.126-.077-.124-.081-.122-.085-.119-.088-.116-.091-.114-.095-.111-.099-.108-.101-.105-.105-.101-.108-.099-.111-.095-.114-.091-.116-.088-.119-.085-.122-.081-.124-.077-.126-.074-.129-.069-.131-.066-.133-.062-.134-.057-.137-.054-.138-.05-.14-.045-.141-.041-.142-.037-.144-.033-.144-.028-.146-.024-.146-.02-.147-.015-.147-.011-.148-.007-.148-.002-.148.002-.148.007-.148.011-.148.015-.147.02-.147.024-.146.028-.146.033-.144.037-.144.041-.142.045-.141.05-.14.054-.138.057-.137.062-.134.066-.133.069-.131.074-.129.077-.126.081-.124.085-.122.088-.119.091-.116.095-.114.099-.111.101-.108.105-.105.108-.101.111-.099.114-.095.116-.091.119-.088.122-.085.124-.081.126-.077.129-.074.131-.069.133-.066.134-.062.137-.057.138-.054.14-.05.141-.045.142-.041.144-.037.144-.033.146-.028.146-.024.147-.02.147-.015.148-.011.148-.007.148-.002h.157l.024-.001h.023l.024-.001.024-.002.023-.001.024-.002.024-.002.023-.003.023-.003.024-.003.023-.003.023-.004.023-.003.023-.005.023-.004.023-.005.023-.005.022-.005.023-.006.022-.005.023-.007.023-.006.022-.007.022-.006.023-.008.022-.007.022-.008.021-.008.022-.008.022-.009.022-.009.021-.009.022-.009.021-.009.021-.01.021-.01.021-.011.021-.01.02-.011.021-.011.02-.012.021-.011.02-.012.02-.012.019-.013.02-.012.02-.013.019-.013.019-.014.019-.013.019-.014.019-.014.019-.014.018-.015.018-.015.019-.015.017-.015.018-.016.018-.015.017-.016.018-.017.017-.016.028-.028 5.968-5.968.107-.104.109-.1.112-.096.115-.094.118-.09.121-.086.122-.083.126-.079.127-.075.13-.072.132-.068.134-.063.135-.06.138-.056.139-.051.14-.048.142-.043.143-.039.144-.035.145-.03.146-.027.146-.022.147-.017.148-.013.148-.009.148-.004z"/><path d="m11.046 11.503.17.01.169.016.169.023.168.029.167.035.165.042.163.048.162.054.159.06.157.066.155.072.151.078.149.083.145.089.142.094.138.1.134.105.13.11.126.115.121.119.117.124.112.128.108.132.102.137.096.14.092.144.086.147.08.15.075.153.069.156.062.158.057.161.051.162.044.165 2.678 10.698.011.045.009.033.009.032.009.033.03.096.011.032.011.031.011.032.012.03.012.032.024.06.013.031.013.03.014.03.013.03.014.029.014.03.015.028.045.087.064.112.017.028.034.054.018.028.018.026.018.027.018.026.019.027.018.026.019.025.02.026.02.025.02.026.04.05.063.072.022.025.021.023.022.024.044.046.023.023.023.022.023.023.023.022.024.022.024.021.023.022.025.021.024.021.025.021.025.02.024.02.026.02.025.02.052.038.025.019.027.019.026.018.054.036.027.017.027.018.027.016.027.017.028.017.028.016.028.015.028.016.056.03.029.015.029.014.029.015.029.013.029.014.058.026.03.012.03.013.03.012.03.011.03.012.06.022.062.02.03.01.031.01.062.018.032.008.03.009.032.007.064.016.031.006.032.007.031.006.066.012.031.005.066.01.032.004.033.005.033.003.033.004.033.003.034.002.034.003.033.001.033.002.102.003h2.07l.17.003.17.01.17.016.169.023.168.028.166.036.165.041.164.048.161.054.16.06.157.065.154.072.152.078.149.083.145.089.142.094.138.1.134.105.13.109.126.115.122.119.117.124.112.128.107.133.103.136.097.14.091.143.086.147.081.151.074.153.069.155.063.159.057.16.051.163.044.164.039.166.032.167.026.169.019.169.013.17.006.17v.17l-.006.17-.013.17-.019.169-.026.169-.032.167-.039.166-.044.164-.051.163-.057.161-.063.158-.069.156-.074.153-.081.15-.086.147-.091.143-.097.14-.103.137-.107.132-.112.128-.117.124-.122.119-.126.115-.13.109-.134.105-.138.1-.142.094-.145.089-.149.083-.152.078-.154.072-.157.066-.16.059-.161.054-.164.048-.165.042-.166.035-.168.029-.169.022-.17.016-.17.01-.17.003h-2.047l-.118-.001-.13-.002-.13-.003-.128-.005-.13-.006-.129-.008-.128-.008-.128-.011-.129-.011-.127-.013-.127-.014-.127-.016-.128-.017-.125-.018-.126-.019-.127-.021-.124-.022-.125-.024-.125-.024-.124-.026-.124-.028-.123-.028-.122-.03-.123-.031-.122-.032-.121-.033-.121-.035-.121-.036-.12-.037-.12-.038-.119-.04-.118-.04-.118-.042-.118-.043-.116-.044-.117-.046-.116-.046-.115-.048-.114-.049-.114-.05-.114-.051-.113-.052-.112-.054-.112-.054-.11-.056-.111-.056-.11-.058-.109-.059-.108-.06-.108-.061-.107-.062-.106-.063-.106-.065-.105-.065-.105-.066-.103-.068-.103-.068-.103-.07-.101-.07-.1-.071-.101-.073-.099-.073-.099-.075-.097-.075-.097-.077-.097-.078-.095-.078-.094-.079-.094-.081-.093-.081-.092-.082-.092-.084-.09-.084-.09-.085-.089-.086-.088-.087-.087-.088-.086-.088-.086-.09-.084-.091-.084-.092-.082-.092-.082-.093-.081-.094-.08-.096-.079-.096-.078-.096-.077-.098-.076-.098-.075-.099-.075-.101-.073-.101-.072-.101-.072-.103-.07-.104-.069-.104-.068-.105-.068-.106-.066-.107-.065-.107-.064-.108-.063-.109-.062-.11-.061-.111-.059-.111-.059-.111-.057-.113-.057-.114-.055-.114-.054-.115-.053-.115-.052-.116-.051-.117-.049-.117-.049-.119-.047-.119-.046-.119-.044-.12-.044-.121-.042-.121-.041-.122-.04-.123-.039-.123-.037-.124-.036-.124-.035-.124-.033-.126-.029-.114-2.683-10.722-.039-.166-.032-.167-.025-.168-.019-.169-.013-.17-.006-.171v-.17l.006-.17.013-.17.02-.169.026-.168.032-.168.038-.166.045-.164.051-.162.057-.161.063-.158.069-.156.075-.153.081-.15.086-.147.091-.143.098-.14.102-.136.107-.133.112-.128.118-.123.121-.12.126-.114.131-.11.134-.104.138-.1.142-.094.146-.089.148-.083.152-.077.154-.072.157-.066.16-.06.162-.053.163-.048.165-.041.167-.035.168-.029.169-.022.169-.016.17-.01.171-.003.17.003z"/><g fill="#808080"><path d="m15.326 9.006.126.012.126.018.124.024.123.031.121.037.119.043.117.049.114.055.111.06.108.067.105.071.101.077.096.082.093.086.088.091.083.096.078.099.074.104.067.107.063.11.057.113.05.116.045.119.039.12.033.122.026.124 3.094 16.5.02.125.014.126.008.127.001.126-.006.127-.012.126-.018.125-.024.125-.031.122-.037.122-.043.119-.049.117-.055.114-.06.111-.067.108-.071.105-.077.1-.082.097-.086.093-.091.088-.096.083-.099.078-.104.073-.107.068-.11.063-.113.056-.116.051-.119.045-.12.039-.122.033-.124.026-.125.02-.126.014-.127.008-.126.001-.127-.006-.126-.012-.125-.018-.125-.024-.122-.031-.122-.037-.119-.043-.117-.049-.114-.055-.111-.06-.108-.067-.105-.071-.1-.077-.097-.082-.093-.086-.088-.091-.083-.096-.078-.099-.073-.104-.068-.107-.063-.11-.056-.113-.051-.116-.045-.119-.039-.12-.033-.122-.026-.124-3.094-16.5-.02-.125-.014-.126-.007-.127-.001-.126.005-.127.012-.126.018-.125.025-.125.03-.122.037-.122.043-.119.049-.117.055-.114.061-.111.066-.108.071-.105.077-.1.082-.097.086-.093.092-.088.095-.083.099-.078.104-.073.107-.068.11-.063.113-.056.116-.051.119-.045.12-.039.123-.033.124-.026.125-.02.125-.014.127-.008.127-.001.126.006z"/><path d="m28.496 9.003.122.009.122.015.121.021.119.027.119.032.116.039.115.044.112.05.109.055.107.06.104.066.1.07.097.076.093.08.089.084.085.089.08.093.075.097.071.1.066.104.06.106.055.11.05.112.044.115.039.116.033.118.027.12.021.121.015.122.009.122.003.123-.003.123-.009.122-.015.122-.021.121-.027.119-3.874 15.496-.032.119-.039.116-.044.115-.05.112-.055.11-.06.106-.066.104-.07.1-.076.097-.08.093-.084.089-.089.085-.093.08-.097.075-.1.071-.104.066-.106.06-.11.056-.112.049-.115.045-.116.038-.118.033-.12.027-.121.021-.122.015-.122.009-.123.003-.123-.003-.122-.009-.122-.015-.121-.021-.119-.027-.119-.032-.116-.039-.115-.044-.112-.049-.109-.056-.107-.06-.104-.066-.1-.07-.097-.076-.093-.08-.089-.084-.085-.089-.08-.093-.075-.097-.071-.1-.066-.104-.06-.106-.055-.11-.05-.112-.044-.115-.039-.116-.033-.118-.027-.12-.021-.121-.015-.122-.009-.122-.003-.123.003-.122.009-.123.015-.122.021-.121.027-.119 3.874-15.496.032-.119.039-.116.044-.115.05-.112.055-.109.06-.107.066-.104.07-.1.076-.097.08-.093.084-.089.089-.085.093-.08.097-.075.1-.071.104-.066.107-.06.109-.055.112-.05.115-.044.116-.039.118-.033.12-.027.121-.021.122-.015.122-.009.123-.003z"/><path d="m21.693 7.004.128.013.127.02.126.026.125.033.122.039.121.045.118.052.115.057.112.064.109.069.104.074.101.08.097.085.092.09.088.095.082.099.078.102.071.107.067.111.06.113.055.117.048.119.043.122.036.123.029.126.023.126.017.128.01.128.003.129v17l-.003.129-.01.128-.017.128-.023.126-.029.126-.036.123-.043.122-.048.119-.055.117-.06.113-.067.111-.071.107-.078.103-.082.098-.088.095-.092.09-.097.085-.101.08-.104.074-.109.069-.112.064-.115.057-.118.052-.121.045-.122.039-.125.033-.126.027-.127.019-.128.014-.129.006h-.128l-.129-.006-.128-.014-.127-.019-.126-.027-.125-.033-.122-.039-.121-.045-.118-.052-.115-.057-.112-.064-.109-.069-.105-.074-.101-.08-.096-.085-.092-.09-.088-.095-.082-.098-.078-.103-.071-.107-.067-.111-.06-.113-.055-.117-.048-.119-.043-.122-.036-.123-.029-.126-.023-.126-.017-.128-.01-.128-.003-.129v-17l.003-.129.01-.128.017-.128.023-.126.029-.126.036-.123.043-.122.048-.119.055-.117.06-.113.067-.111.071-.107.078-.102.082-.099.088-.095.092-.09.096-.085.101-.08.105-.074.109-.069.112-.064.115-.057.118-.052.121-.045.122-.039.125-.033.126-.026.127-.02.128-.013.129-.007h.128z"/><path d="m33.142 20.999.113.008.113.012.112.016.112.02.111.025.11.028.109.033.107.037.106.041.104.045.103.049.1.052.099.057.096.06.094.064.091.067.089.071.086.074.084.077.08.08.077.084.074.086.071.089.067.091.064.094.06.096.057.099.052.1.049.103.045.104.041.106.037.107.033.109.028.11.025.111.02.112.016.112.012.113.008.113.003.114-.001.113-.006.114-.009.113-.014.112-.018.113-.023.111-.026.11-.031.11-.035.108-.039.106-.043.105-.047.104-.051.101-.054.1-.059.097-.062.095-.065.093-.069.09-.072.088-.076.085-.079.081-5.986 5.987-.081.08-.089.085-.089.084-.09.083-.092.082-.092.08-.093.079-.094.078-.095.077-.096.076-.097.074-.097.073-.098.072-.1.071-.099.069-.101.068-.101.067-.102.065-.103.064-.104.063-.105.062-.105.06-.105.059-.107.058-.107.056-.108.055-.108.053-.109.053-.109.051-.111.049-.111.049-.111.047-.112.045-.112.044-.113.043-.114.042-.114.04-.115.038-.114.038-.116.036-.116.034-.117.033-.116.032-.118.03-.117.029-.119.027-.118.026-.119.025-.119.023-.12.022-.12.02-.12.018-.121.018-.12.015-.122.015-.121.013-.122.011-.122.01-.122.008-.122.007-.123.005-.122.004-.123.002-.114.001h-.143l-.114-.002-.113-.007-.113-.01-.112-.015-.112-.02-.111-.023-.111-.028-.109-.031-.107-.036-.107-.04-.104-.044-.103-.048-.101-.052-.099-.055-.097-.06-.095-.063-.092-.066-.089-.07-.087-.073-.084-.076-.081-.08-.078-.082-.075-.086-.072-.088-.068-.091-.064-.093-.061-.096-.058-.098-.053-.1-.05-.102-.046-.104-.042-.105-.038-.107-.034-.109-.03-.109-.025-.111-.022-.111-.017-.113-.013-.113-.008-.113-.004-.113v-.114l.004-.113.008-.113.013-.113.017-.113.022-.111.025-.111.03-.109.034-.109.038-.107.042-.105.046-.104.05-.102.053-.1.058-.098.061-.096.064-.093.068-.091.072-.088.075-.086.078-.082.081-.08.084-.076.087-.073.089-.07.092-.066.095-.063.097-.06.099-.055.101-.052.103-.048.104-.044.107-.04.107-.036.109-.031.111-.028.111-.023.112-.02.112-.015.113-.01.113-.007.114-.002h.182l.048-.001.049-.002.048-.002.049-.003.048-.003.048-.004.048-.004.048-.005.048-.006.047-.006.048-.007.047-.007.048-.008.047-.009.047-.009.047-.01.047-.01.046-.011.047-.011.046-.012.046-.012.046-.014.046-.013.045-.014.046-.015.045-.015.045-.016.045-.016.044-.017.045-.018.044-.018.044-.018.044-.019.043-.02.043-.02.044-.021.042-.021.043-.022.042-.022.042-.023.042-.023.041-.024.041-.024.041-.025.041-.025.04-.026.04-.026.04-.027.039-.027.039-.028.039-.028.039-.029.038-.03.037-.029.038-.031.037-.031.037-.031.036-.032.036-.032.036-.032.035-.034.035-.033.042-.041 5.973-5.973.081-.079.085-.076.088-.072.09-.069.093-.065.095-.062.097-.059.1-.054.101-.051.104-.047.105-.043.106-.039.109-.035.109-.031.11-.026.111-.023.113-.018.112-.014.113-.009.114-.006.113-.001z"/><path d="m11.008 13.504.127.011.125.017.125.023.123.03.121.035.12.042.117.048.115.054.112.059.108.066.106.07.101.076.098.081.093.085.089.09.084.095.079.099.074.103.069.106.064.109.058.113.052.116.046.118.04.12.034.122 2.685 10.707.016.06.014.054.03.106.016.052.016.053.017.052.018.051.018.052.018.051.019.051.02.05.019.05.021.051.042.098.022.049.023.049.022.049.048.096.024.047.075.141.027.046.026.046.027.046.056.09.028.044.029.045.029.044.03.044.06.086.031.043.096.126.033.041.032.041.034.04.034.041.034.04.105.117.072.076.037.038.074.074.038.037.038.036.038.035.039.036.039.035.04.034.039.034.041.034.04.033.041.033.082.064.042.032.042.031.043.031.129.09.044.029.088.056.045.028.045.027.044.027.138.078.046.025.046.024.094.048.047.022.048.023.048.022.047.022.048.021.049.021.098.04.049.019.049.018.1.036.1.034.05.016.051.016.051.015.051.014.051.015.051.013.104.026.052.012.104.022.159.03.053.008.053.009.053.007.054.007.053.007.055.006.162.015.055.004.055.003.109.004.056.002.055.001h2.094l.127.003.126.01.126.016.124.022.124.029.121.035.12.041.118.047.115.053.112.058.109.064.106.07.102.075.098.08.094.085.09.09.085.094.08.098.075.102.07.106.064.109.059.112.052.115.047.118.041.12.035.121.029.124.022.124.016.126.01.126.003.127-.003.127-.01.126-.016.126-.022.124-.029.124-.035.121-.041.12-.047.118-.052.115-.059.112-.064.109-.07.106-.075.102-.08.098-.085.094-.09.09-.094.085-.098.08-.102.075-.106.07-.109.064-.112.059-.115.052-.118.047-.12.041-.121.035-.124.029-.124.022-.126.016-.126.01-.127.003h-2.045-.102l-.109-.002-.108-.003-.108-.004-.108-.005-.107-.007-.108-.007-.107-.009-.107-.009-.106-.011-.106-.012-.107-.013-.106-.014-.105-.015-.105-.016-.105-.018-.104-.018-.105-.02-.104-.02-.103-.022-.103-.022-.104-.024-.102-.025-.102-.026-.102-.027-.101-.027-.101-.029-.101-.03-.1-.031-.1-.032-.099-.033-.099-.034-.098-.035-.098-.036-.098-.037-.097-.038-.097-.039-.096-.039-.095-.041-.096-.042-.095-.043-.094-.043-.093-.045-.094-.045-.092-.046-.092-.048-.092-.048-.091-.049-.091-.05-.09-.051-.089-.052-.089-.053-.088-.053-.088-.055-.087-.055-.087-.057-.086-.057-.085-.058-.085-.059-.084-.059-.084-.061-.083-.061-.082-.062-.082-.063-.081-.064-.08-.065-.08-.065-.079-.067-.078-.067-.078-.068-.077-.068-.076-.07-.076-.07-.075-.072-.074-.071-.073-.073-.073-.073-.072-.074-.072-.075-.07-.076-.07-.076-.069-.077-.069-.079-.067-.078-.067-.079-.066-.08-.065-.081-.064-.082-.064-.082-.063-.083-.062-.083-.061-.085-.06-.085-.06-.085-.059-.087-.057-.087-.057-.087-.057-.089-.055-.089-.054-.089-.054-.09-.052-.092-.052-.091-.051-.092-.05-.093-.049-.093-.048-.094-.047-.095-.046-.095-.045-.096-.044-.096-.044-.097-.042-.098-.041-.098-.041-.098-.039-.1-.039-.099-.037-.101-.036-.101-.036-.101-.034-.101-.033-.103-.033-.103-.031-.103-.03-.104-.029-.104-.028-.105-.026-.099-2.688-10.72-.028-.123-.021-.125-.015-.126-.009-.126-.002-.127.004-.127.011-.126.017-.125.023-.125.029-.123.036-.122.042-.119.048-.117.054-.115.059-.112.065-.109.071-.105.076-.101.08-.098.086-.093.09-.089.095-.084.099-.08.102-.074.107-.069.109-.063.113-.058.115-.052.118-.046.121-.04.122-.034.123-.028.125-.021.126-.015.126-.009.127-.002.126.004z"/><path d="m27.932 18v9l4.068-2.28-9.16 8.98-9.908-3.7v-12z"/></g><path d="m12 10 1.75 10.5" fill="none" stroke="#000" stroke-linejoin="miter" stroke-miterlimit="1.5"/><path d="m18.5 9v10" fill="none" stroke="#000" stroke-linejoin="miter" stroke-miterlimit="1.5"/><path d="m24.5 9v9.5" fill="none" stroke="#000" stroke-linejoin="miter" stroke-miterlimit="1.5"/><path d="m14.742 10.323c1.022-.255 2.149.728 2.514 2.193.366 1.466-.168 2.862-1.19 3.117s-2.149-.728-2.514-2.193c-.366-1.465.168-2.862 1.19-3.117z" fill="#464646"/><path d="m10.171 14.9c.85-.212 1.772.548 2.058 1.695.286 1.148-.171 2.252-1.021 2.464-.85.211-1.772-.548-2.058-1.696s.171-2.252 1.021-2.463z" fill="#464646"/><ellipse cx="21.509" cy="11.5" fill="#464646" rx="2" ry="3"/><path d="m28.681 10.134c.989.247 1.487 1.673 1.11 3.184-.376 1.51-1.485 2.536-2.475 2.29-.99-.247-1.487-1.674-1.111-3.184.377-1.511 1.486-2.537 2.476-2.29z" fill="#464646"/><path d="m34.018 22.485c.903.903.59 2.684-.699 3.973s-3.07 1.602-3.973.699c-.904-.904-.591-2.684.699-3.973 1.289-1.29 3.069-1.603 3.973-.699z" fill="#464646"/><path d="m14 28.657c0-1.061.421-2.078 1.172-2.829l3-3c.75-.75 1.767-1.171 2.828-1.171s2.078.421 2.828 1.171l3 3c.751.751 1.172 1.768 1.172 2.829v.501c0 .923-.426 1.796-1.154 2.364-.728.569-1.677.77-2.574.546-.917-.229-1.782-.445-2.294-.574-.318-.079-.643-.119-.97-.119h-.016c-.327 0-.652.04-.97.119-.512.129-1.377.345-2.294.574-.897.224-1.846.023-2.574-.546-.728-.568-1.154-1.441-1.154-2.364z" fill="#464646"/></g></g></g></svg>