<svg clip-rule="evenodd" fill-rule="evenodd" stroke-linejoin="round" stroke-miterlimit="1.41421" viewBox="0 0 32 32" xmlns="http://www.w3.org/2000/svg" xmlns:xlink="http://www.w3.org/1999/xlink"><clipPath id="a"><path clip-rule="evenodd" d="m0 0h32v32h-32z"/></clipPath><metadata/><path d="m0 0h32v32h-32z" fill="none"/><g clip-path="url(#a)"><path d="m20.655 1.002.155.008.154.012.153.018.151.022.151.027.148.032.147.036.146.041.143.045.141.049.139.053.137.058.135.061.133.065.13.068.127.072.126.075.122.078.12.082.118.084.115.088.112.09.11.093.107.096.105.098.102.1.099.103.097.106.094.107.092.11.089.112.087.113.083.116.082.118.078.12.077.121.073.123.071.125.068.127.066.128.063.13.061.132.058.133.055.134.052.136.05.138.048.139.044.14.042.141.039.143.036.144.034.145.031.146.028.148.025.148.022.149.02.151.016.151.014.153.01.153.008.154.005.155.001.155-.001.155-.005.155-.008.154-.01.153-.014.153-.016.151-.02.151-.022.149-.025.148-.028.148-.006.028.038-.005.153-.018.154-.012.155-.008.155-.002.155.002.155.008.154.012.153.018.151.022.151.027.148.032.147.036.146.041.143.045.141.049.14.053.136.058.135.061.133.065.13.068.127.072.126.075.122.078.12.082.118.084.115.088.112.09.11.093.107.096.105.098.102.1.099.103.097.106.095.107.091.11.089.112.087.114.083.115.082.118.078.12.077.121.073.123.071.125.068.127.066.128.063.13.061.132.058.133.055.135.052.135.05.138.048.139.044.14.042.141.039.143.036.144.034.145.031.146.028.147.025.149.022.149.02.151.016.151.014.153.01.153.008.154.005.154.001.156-.001.156-.005.154-.008.154-.01.153-.014.153-.016.151-.02.151-.022.149-.025.149-.028.147-.031.146-.034.145-.036.144-.039.143-.042.141-.044.14-.048.139-.05.138-.052.135-.055.135-.058.133-.061.132-.063.13-.066.128-.068.127-.071.125-.073.123-.077.121-.078.12-.082.118-.083.116-.087.113-.089.112-.091.11-.095.107-.097.106-.099.103-.102.1-.105.098-.107.096-.11.093-.112.09-.115.088-.118.084-.12.082-.122.078-.126.075-.127.072-.13.068-.133.065-.134.061-.137.058-.14.053-.141.049-.143.045-.146.041-.147.036-.085.018.103.112.102.119.099.121.096.124.092.126.088.129.085.131.08.133.077.136.074.137.069.139.066.142.061.143.058.144.053.147.05.148.045.149.041.151.037.152.033.153.029.154.024.156.02.156.016.157.011.158.007.159.002.145v.023l-.001.08-.002.087-.003.087-.004.087-.006.087-.007.086-.009.087-.009.085-.011.086-.012.086-.013.085-.015.085-.016.084-.017.084-.018.084-.019.084-.021.083-.022.083-.023.082-.024.082-.026.082-.026.081-.028.081-.029.08-.03.08-.031.079-.032.079-.034.078-.034.078-.036.078-.037.077-.038.076-.039.075-.04.075-.041.075-.043.074-.043.073-.044.073-.046.072-.047.071-.047.071-.049.07-.049.07-.051.069-.052.068-.053.067-.054.066-.055.066-.055.065-.057.065-.058.063-.059.063-.06.062-.06.061-.062.06-.063.06-.064.059-.064.057-.066.057-.066.056-.068.055-.068.054-.069.053-.07.053-.071.051-.071.05-.072.049-.073.047-.073.047-.074.045-.075.045-.075.043-.075.042-.076.041-.077.039-.077.039-.077.037-.078.036-.079.035-.079.034-.079.032-.08.032-.08.03-.08.029-.081.028-.081.026-.082.026-.081.024-.083.023-.082.022-.083.02-.083.02-.083.018-.083.017-.084.015-.084.015-.084.013-.084.012-.085.011-.084.01-.085.008-.085.007-.085.006-.085.005-.086.003-.085.003-.086.001-.085-.001-.085-.001-.086-.003-.086-.004-.085-.005-.086-.007-.085-.007-.086-.009-.085-.011-.085-.011-.086-.013-.085-.014-.084-.016-.085-.016-.085-.018-.085-.019-.084-.021-.085-.022-.084-.023-.083-.024-.077-.023-4.581-1.442-.065-.02-.056-.015-.056-.015-.057-.014-.056-.012-.057-.012-.057-.01-.057-.009-.057-.008-.057-.007-.057-.006-.058-.005-.057-.003-.058-.003-.057-.002h-.058l-.057.001-.058.002-.057.003-.058.004-.057.005-.057.006-.057.007-.057.009-.057.01-.057.01-.057.012-.056.013-.056.014-.056.015-.056.016-.065.02-4.326 1.393-.077.024-.083.024-.085.024-.084.022-.084.021-.085.02-.084.019-.085.017-.085.016-.086.014-.085.014-.085.012-.086.011-.085.009-.086.009-.085.007-.086.005-.086.005-.085.003-.086.002-.086.001-.085-.001-.085-.002-.086-.003-.085-.004-.085-.005-.085-.007-.085-.008-.085-.009-.085-.011-.084-.011-.085-.013-.084-.014-.084-.016-.083-.016-.084-.018-.083-.019-.083-.02-.082-.022-.083-.022-.082-.024-.081-.025-.082-.027-.081-.027-.081-.029-.08-.03-.08-.031-.079-.032-.079-.033-.079-.035-.078-.036-.078-.037-.078-.038-.076-.04-.077-.04-.076-.042-.075-.043-.074-.044-.075-.045-.073-.047-.073-.047-.073-.049-.071-.05-.071-.051-.071-.052-.069-.053-.069-.054-.067-.055-.067-.055-.066-.057-.065-.058-.064-.058-.063-.06-.062-.06-.061-.061-.06-.062-.059-.063-.058-.063-.057-.064-.056-.065-.055-.066-.054-.067-.053-.067-.052-.068-.051-.069-.05-.069-.049-.07-.048-.071-.047-.072-.045-.072-.045-.073-.044-.073-.042-.074-.042-.074-.04-.076-.039-.075-.038-.077-.037-.076-.036-.078-.035-.078-.033-.078-.033-.079-.031-.079-.03-.08-.029-.081-.028-.08-.027-.082-.026-.081-.024-.082-.023-.083-.022-.083-.021-.083-.019-.084-.019-.084-.017-.084-.016-.085-.014-.085-.014-.085-.012-.086-.011-.085-.009-.086-.009-.087-.007-.087-.006-.086-.004-.087-.003-.088-.002-.087-.001-.08v-.023l.002-.144.007-.157.011-.157.015-.156.02-.155.024-.155.029-.153.032-.152.037-.151.041-.15.045-.148.049-.147.054-.145.057-.143.061-.142.065-.14.069-.139.072-.136.077-.135.08-.132.084-.13.087-.128.092-.125.095-.123.098-.12.102-.118.105-.116.005-.004-.082-.018-.147-.036-.146-.041-.143-.045-.141-.049-.139-.053-.138-.058-.134-.061-.133-.065-.13-.068-.127-.072-.126-.075-.122-.078-.12-.082-.118-.084-.115-.088-.112-.09-.11-.093-.107-.096-.105-.098-.102-.1-.099-.103-.097-.106-.094-.107-.092-.11-.089-.112-.087-.113-.083-.116-.082-.118-.078-.12-.077-.121-.073-.123-.071-.125-.068-.127-.066-.128-.063-.13-.061-.132-.058-.133-.055-.134-.052-.136-.05-.138-.048-.139-.044-.14-.042-.141-.039-.143-.036-.144-.034-.145-.031-.146-.028-.148-.025-.148-.022-.149-.02-.151-.016-.151-.014-.153-.01-.153-.008-.154-.005-.155-.001-.155.001-.155.005-.155.008-.154.01-.153.014-.153.016-.151.02-.151.022-.149.025-.148.028-.148.031-.146.034-.145.036-.144.039-.143.042-.141.044-.14.048-.139.05-.138.052-.136.055-.134.058-.133.061-.132.063-.13.066-.128.068-.127.071-.125.073-.123.077-.121.078-.12.082-.118.083-.116.087-.113.089-.112.092-.11.094-.107.097-.106.099-.103.102-.1.105-.098.107-.096.11-.093.112-.09.115-.088.118-.084.12-.082.122-.078.126-.075.127-.072.13-.068.133-.065.135-.061.137-.058.139-.053.141-.049.143-.045.146-.041.147-.036.148-.032.151-.027.151-.022.153-.018.154-.012.155-.008.155-.002.155.002.155.008.154.012.153.018.038.005-.006-.028-.028-.147-.025-.149-.022-.149-.02-.151-.016-.151-.014-.153-.01-.153-.008-.154-.005-.154-.001-.156.001-.156.005-.154.008-.154.01-.153.014-.153.016-.151.02-.151.022-.149.025-.149.028-.147.031-.146.034-.145.036-.144.039-.143.042-.141.044-.14.048-.139.05-.138.052-.135.055-.135.058-.133.061-.132.063-.13.066-.128.068-.127.071-.125.073-.123.077-.121.078-.12.082-.118.083-.115.087-.114.089-.112.091-.11.095-.107.097-.106.099-.103.102-.1.105-.098.107-.096.11-.093.112-.09.115-.088.118-.084.12-.082.122-.078.126-.075.127-.072.13-.068.133-.065.135-.061.136-.058.14-.053.141-.049.143-.045.146-.041.147-.036.148-.032.151-.027.151-.022.153-.018.154-.012.155-.008.155-.002.155.002.155.008.154.012.153.018.151.022.151.027.148.032.147.036.146.041.143.045.141.049.139.053.137.058.135.061.133.065.13.068.127.072.126.075.122.078.12.082.118.084.115.088.112.09.11.093.107.096.105.098.102.1.099.103.097.106.094.107.092.11.089.112.087.113.083.116.082.118.078.12.077.121.04.068.04-.068.077-.121.078-.12.082-.118.083-.115.087-.114.089-.112.091-.11.095-.107.097-.106.099-.103.102-.1.105-.098.107-.096.11-.093.112-.09.115-.088.118-.084.12-.082.122-.078.126-.075.127-.072.13-.068.133-.065.135-.061.136-.058.14-.053.141-.049.143-.045.146-.041.147-.036.148-.032.151-.027.151-.022.153-.018.154-.012.155-.008.155-.002.155.002zm-4.725 13.999-.069.002-.069.004-.068.004-.068.007-.067.007-.067.01-.067.01-.066.012-.065.013-.066.014-.065.016-.064.016-.064.019-.064.019-.062.021-.063.022-.062.023-.061.024-.061.026-.06.026-.06.028-.059.029-.059.031-.058.031-.057.033-.056.033-.056.035-.055.036-.055.037-.053.038-.053.039-.052.04-.051.041-.051.042-.05.043-.048.045-.048.045-.047.046-.046.047-.045.048-.045.048-.043.05-.042.051-.041.051-.041.053-.039.053-.038.054-.037.055-.037.055-.035.057-.033.057-.033.058-.032.059-.031.06-.029.06-.028.061-.027.062-.026.063-.025.063-.024.065-.022.065-.021.065-.023.077-.638 2.233-.025.084-.029.093-.031.091-.033.092-.034.09-.037.09-.038.088-.039.088-.042.087-.043.087-.044.085-.046.084-.048.084-.05.082-.051.082-.052.081-.054.079-.056.078-.057.078-.058.076-.06.075-.062.075-.063.072-.064.072-.066.071-.067.069-.069.068-.07.067-.071.065-.073.065-.074.062-.068.056-2.912 2.329-.045.038-.033.029-.033.03-.031.031-.031.031-.029.032-.029.033-.028.034-.026.035-.026.035-.024.036-.024.036-.022.038-.022.037-.02.039-.02.038-.018.04-.017.04-.016.04-.015.041-.014.041-.013.042-.011.042-.01.042-.009.043-.008.043-.007.043-.006.043-.004.044-.003.044-.002.044-.001.052v.022l.001.028.001.028.001.027.002.028.002.027.003.028.003.027.004.027.003.027.005.027.004.027.005.027.006.026.006.027.006.026.006.027.007.026.007.026.008.026.008.026.009.025.009.026.009.025.009.026.01.025.01.025.011.025.011.024.012.025.011.024.012.024.013.024.012.024.014.024.013.023.014.023.014.023.014.023.015.023.015.022.016.022.016.022.016.022.016.022.017.021.017.021.018.021.017.02.018.021.019.02.018.02.019.019.02.019.019.02.02.018.02.019.021.018.021.018.021.018.021.017.022.017.022.017.022.016.023.017.023.016.023.015.023.015.023.015.024.014.023.014.024.014.024.013.024.012.024.013.025.012.024.012.025.011.025.011.025.011.025.01.025.01.026.009.025.009.026.009.026.008.026.008.025.008.027.007.026.007.026.006.026.006.027.006.026.005.027.005.026.004.027.004.027.004.027.003.027.003.026.003.027.002.028.002.026.001.027.001.028.001h.027l.027-.001h.027l.027-.001.027-.002.027-.001.027-.003.027-.002.027-.003.027-.004.027-.004.027-.004.027-.004.027-.005.027-.006.026-.006.027-.006.027-.007.027-.007.026-.007.027-.008.034-.011 4.33-1.393.12-.038.13-.038.131-.035.131-.032.132-.03.132-.028.133-.025.133-.022.133-.02.133-.017.134-.015.134-.012.134-.009.134-.007.134-.004.134-.002.135.001.134.003.134.006.134.009.134.011.134.014.133.016.134.019.132.021.133.024.132.027.132.029.132.032.131.034.13.037.121.037 4.586 1.442.033.011.027.008.027.007.026.007.027.006.027.006.027.006.027.005.027.005.027.005.027.004.027.004.027.003.028.003.027.002.027.002.027.002.027.001.027.001.027.001h.028l.027-.001h.027l.027-.002.027-.001.027-.002.027-.002.027-.003.027-.003.027-.003.027-.004.027-.004.026-.005.027-.005.026-.005.027-.006.026-.006.027-.007.026-.007.026-.007.026-.008.026-.008.026-.008.025-.009.026-.009.025-.01.026-.01.025-.01.025-.011.025-.011.024-.012.025-.012.025-.012.024-.012.024-.013.024-.013.024-.014.023-.014.024-.015.023-.015.023-.015.023-.015.023-.016.023-.016.022-.017.022-.017.022-.017.021-.018.021-.018.021-.018.021-.018.02-.019.02-.019.019-.019.02-.019.019-.02.018-.02.019-.02.018-.02.017-.021.018-.021.017-.021.017-.021.016-.022.016-.022.016-.022.016-.022.015-.023.015-.023.014-.022.014-.023.014-.024.013-.023.014-.024.012-.024.013-.024.012-.024.012-.025.011-.024.011-.025.011-.025.01-.025.01-.025.009-.026.009-.025.009-.026.009-.026.008-.026.007-.026.008-.026.007-.026.006-.027.007-.026.005-.027.006-.026.005-.027.004-.027.005-.027.003-.027.004-.027.003-.028.003-.027.002-.028.002-.027.001-.028.001-.028.001-.027v-.023l-.001-.053-.002-.045-.003-.045-.004-.045-.006-.045-.007-.044-.008-.044-.01-.044-.01-.044-.012-.043-.013-.043-.014-.042-.016-.042-.016-.041-.018-.041-.018-.041-.02-.039-.021-.04-.022-.039-.024-.038-.024-.037-.025-.037-.026-.036-.028-.036-.028-.034-.029-.034-.031-.034-.031-.032-.032-.031-.034-.031-.034-.03-.046-.038-2.896-2.317-.068-.056-.074-.062-.073-.065-.071-.065-.07-.067-.069-.068-.067-.069-.066-.071-.064-.072-.063-.073-.062-.074-.06-.075-.058-.076-.057-.078-.056-.078-.054-.079-.053-.081-.05-.082-.05-.082-.048-.084-.046-.084-.044-.085-.043-.087-.042-.087-.039-.088-.038-.088-.037-.09-.034-.09-.033-.092-.031-.091-.029-.093-.025-.084-.639-2.233-.022-.077-.021-.065-.022-.065-.024-.064-.025-.064-.026-.063-.027-.062-.028-.061-.029-.06-.031-.06-.032-.059-.032-.058-.034-.057-.035-.057-.037-.055-.037-.055-.038-.054-.039-.053-.041-.053-.041-.051-.042-.051-.043-.05-.045-.048-.045-.048-.046-.047-.047-.046-.048-.045-.048-.045-.05-.043-.051-.042-.051-.041-.052-.04-.053-.039-.053-.038-.055-.037-.055-.036-.056-.035-.056-.033-.057-.033-.058-.031-.059-.031-.059-.029-.06-.028-.06-.026-.061-.026-.061-.024-.062-.023-.063-.022-.062-.021-.064-.019-.064-.019-.064-.016-.065-.016-.065-.014-.066-.013-.066-.012-.067-.01-.067-.01-.067-.007-.068-.007-.068-.004-.069-.004-.069-.002-.07-.001-.07.001zm10.545-2-.025.001-.024.002-.024.003-.025.003-.024.005-.024.005-.025.006-.025.007-.025.008-.025.009-.026.009-.027.012-.026.012-.028.013-.028.015-.028.016-.029.017-.029.019-.03.02-.03.022-.031.023-.03.025-.031.026-.032.028-.031.029-.032.031-.031.033-.032.034-.031.036-.031.038-.032.039-.031.04-.03.043-.03.043-.03.046-.03.047-.029.048-.028.05-.028.051-.027.053-.026.054-.025.056-.025.057-.024.058-.023.059-.022.061-.021.062-.02.063-.019.064-.018.065-.017.066-.015.067-.015.069-.013.069-.012.07-.01.071-.01.072-.007.073-.007.074-.005.074-.004.076-.002.075-.001.077.001.077.002.075.004.076.005.074.007.074.007.073.01.072.01.071.012.07.013.069.015.069.015.067.017.066.018.065.019.064.02.063.021.062.022.061.023.059.024.058.025.057.025.056.026.054.027.053.028.051.028.05.029.048.03.047.03.046.03.043.03.043.031.04.032.039.031.038.031.036.032.034.031.033.032.031.031.029.032.028.031.026.03.025.031.023.03.022.03.02.029.019.029.017.028.016.028.015.028.013.026.012.027.012.026.009.025.009.026.008.024.007.025.006.024.005.024.005.025.003.024.003.024.002.025.001.025.001.025-.001.025-.001.024-.002.024-.003.025-.003.024-.005.024-.005.025-.006.024-.007.026-.008.025-.009.026-.009.027-.012.027-.012.027-.013.028-.015.028-.016.029-.017.029-.019.03-.02.03-.022.031-.023.03-.025.031-.026.032-.028.031-.029.032-.031.031-.033.032-.034.031-.036.031-.038.032-.039.031-.04.03-.043.03-.043.03-.046.03-.047.028-.048.029-.05.028-.051.027-.053.026-.054.025-.056.025-.057.024-.058.023-.059.022-.061.021-.062.02-.063.019-.064.018-.065.017-.066.015-.067.015-.069.013-.069.012-.07.01-.071.01-.072.007-.073.007-.074.005-.074.004-.075.002-.076.001-.077-.001-.077-.002-.076-.004-.075-.005-.074-.007-.074-.007-.073-.01-.072-.01-.071-.012-.07-.013-.069-.015-.069-.015-.067-.017-.066-.018-.065-.019-.064-.02-.063-.021-.062-.022-.061-.023-.059-.024-.058-.025-.057-.025-.056-.026-.054-.027-.053-.028-.051-.029-.05-.028-.048-.03-.047-.03-.046-.03-.043-.03-.043-.031-.04-.032-.039-.031-.038-.031-.036-.032-.034-.031-.033-.032-.031-.031-.029-.032-.028-.031-.026-.03-.025-.031-.023-.03-.022-.03-.02-.029-.019-.029-.017-.028-.016-.028-.015-.027-.013-.027-.012-.027-.012-.026-.009-.025-.009-.026-.008-.024-.007-.025-.006-.024-.005-.024-.005-.025-.003-.024-.003-.024-.002-.025-.001-.025-.001zm-21 0-.025.001-.024.002-.024.003-.025.003-.024.005-.024.005-.025.006-.025.007-.025.008-.025.009-.026.009-.027.012-.026.012-.028.013-.028.015-.028.016-.029.017-.029.019-.03.02-.03.022-.031.023-.03.025-.031.026-.032.028-.031.029-.032.031-.031.033-.032.034-.031.036-.031.038-.032.039-.031.04-.03.043-.03.043-.03.046-.03.047-.029.048-.028.05-.028.051-.027.053-.026.054-.025.056-.025.057-.024.058-.023.059-.022.061-.021.062-.02.063-.019.064-.018.065-.017.066-.015.067-.015.069-.013.069-.012.07-.01.071-.01.072-.007.073-.007.074-.005.074-.004.076-.002.075-.001.077.001.077.002.075.004.076.005.074.007.074.007.073.01.072.01.071.012.07.013.069.015.069.015.067.017.066.018.065.019.064.02.063.021.062.022.061.023.059.024.058.025.057.025.056.026.054.027.053.028.051.028.05.029.048.03.047.03.046.03.043.03.043.031.04.032.039.031.038.031.036.032.034.031.033.032.031.031.029.032.028.031.026.03.025.031.023.03.022.03.02.029.019.029.017.028.016.028.015.028.013.026.012.027.012.026.009.025.009.026.008.024.007.025.006.024.005.024.005.025.003.024.003.024.002.025.001.025.001.025-.001.025-.001.024-.002.024-.003.025-.003.024-.005.024-.005.025-.006.024-.007.026-.008.025-.009.026-.009.027-.012.027-.012.027-.013.028-.015.028-.016.029-.017.029-.019.03-.02.03-.022.031-.023.03-.025.031-.026.032-.028.031-.029.032-.031.031-.033.032-.034.031-.036.031-.038.032-.039.031-.04.03-.043.03-.043.03-.046.03-.047.028-.048.029-.05.028-.051.027-.053.026-.054.025-.056.025-.057.024-.058.023-.059.022-.061.021-.062.02-.063.019-.064.018-.065.017-.066.015-.067.015-.069.013-.069.012-.07.01-.071.01-.072.007-.073.007-.074.005-.074.004-.075.002-.076.001-.077-.001-.077-.002-.076-.004-.075-.005-.074-.007-.074-.007-.073-.01-.072-.01-.071-.012-.07-.013-.069-.015-.069-.015-.067-.017-.066-.018-.065-.019-.064-.02-.063-.021-.062-.022-.061-.023-.059-.024-.058-.025-.057-.025-.056-.026-.054-.027-.053-.028-.051-.029-.05-.028-.048-.03-.047-.03-.046-.03-.043-.03-.043-.031-.04-.032-.039-.031-.038-.031-.036-.032-.034-.031-.033-.032-.031-.031-.029-.032-.028-.031-.026-.03-.025-.031-.023-.03-.022-.03-.02-.029-.019-.029-.017-.028-.016-.028-.015-.027-.013-.027-.012-.027-.012-.026-.009-.025-.009-.026-.008-.024-.007-.025-.006-.024-.005-.024-.005-.025-.003-.024-.003-.024-.002-.025-.001-.025-.001zm15-8-.025.001-.024.002-.024.003-.025.003-.024.005-.024.005-.025.006-.024.007-.026.008-.025.009-.026.009-.027.012-.027.012-.027.013-.028.015-.028.016-.029.017-.029.019-.03.02-.03.022-.031.023-.03.025-.031.026-.032.028-.031.029-.032.031-.031.033-.032.034-.031.036-.031.038-.032.039-.031.04-.03.043-.03.043-.03.046-.03.047-.028.048-.029.05-.028.051-.027.053-.026.054-.025.056-.025.057-.024.058-.023.059-.022.061-.021.062-.02.063-.019.064-.018.065-.017.066-.015.067-.015.069-.013.069-.012.07-.01.071-.01.072-.007.073-.007.074-.005.074-.004.075-.002.076-.001.077.001.077.002.076.004.075.005.074.007.074.007.073.01.072.01.071.012.07.013.069.015.069.015.067.017.066.018.065.019.064.02.063.021.062.022.061.023.059.024.058.025.057.025.056.026.054.027.053.028.051.029.05.028.048.03.047.03.045.03.044.03.043.031.04.032.039.031.038.031.036.032.034.031.033.032.031.031.029.032.028.031.026.03.025.031.023.03.022.03.02.029.019.029.017.028.016.028.015.027.013.027.012.027.012.026.009.025.009.026.008.024.007.025.006.024.005.024.005.025.003.024.003.024.002.025.001.025.001.025-.001.025-.001.024-.002.024-.003.025-.003.024-.005.024-.005.025-.006.024-.007.026-.008.025-.009.026-.009.027-.012.026-.012.028-.013.028-.015.028-.016.029-.017.029-.019.03-.02.03-.022.031-.023.03-.025.031-.026.032-.028.031-.029.032-.031.031-.033.032-.034.031-.036.031-.038.032-.039.031-.04.03-.043.03-.044.03-.045.03-.047.029-.048.028-.05.028-.051.027-.053.026-.054.025-.056.025-.057.024-.058.023-.059.022-.061.021-.062.02-.063.019-.064.018-.065.017-.066.015-.067.015-.069.013-.069.012-.07.01-.071.01-.072.007-.073.007-.074.005-.074.004-.076.002-.075.001-.077-.001-.077-.002-.075-.004-.076-.005-.074-.007-.074-.007-.073-.01-.072-.01-.071-.012-.07-.013-.069-.015-.069-.015-.067-.017-.066-.018-.065-.019-.064-.02-.063-.021-.062-.022-.061-.023-.059-.024-.058-.025-.057-.025-.056-.026-.054-.027-.053-.028-.051-.028-.05-.029-.048-.03-.047-.03-.046-.03-.043-.03-.043-.031-.04-.032-.039-.031-.038-.031-.036-.032-.034-.031-.033-.032-.031-.031-.029-.032-.028-.031-.026-.03-.025-.031-.023-.03-.022-.03-.02-.029-.019-.029-.017-.028-.016-.028-.015-.028-.013-.026-.012-.027-.012-.026-.009-.025-.009-.026-.008-.024-.007-.025-.006-.024-.005-.024-.005-.025-.003-.024-.003-.024-.002-.025-.001-.025-.001zm-9 0-.025.001-.024.002-.024.003-.025.003-.024.005-.024.005-.025.006-.024.007-.026.008-.025.009-.026.009-.027.012-.027.012-.027.013-.028.015-.028.016-.029.017-.029.019-.03.02-.03.022-.031.023-.03.025-.031.026-.032.028-.031.029-.032.031-.031.033-.032.034-.031.036-.031.038-.032.039-.031.04-.03.043-.03.043-.03.046-.03.047-.029.048-.028.05-.027.051-.028.053-.026.054-.025.056-.025.057-.024.058-.023.059-.022.061-.021.062-.02.063-.019.064-.018.065-.017.066-.015.067-.015.069-.013.069-.012.07-.01.071-.01.072-.007.073-.007.074-.005.074-.004.075-.002.076-.001.077.001.077.002.076.004.075.005.074.007.074.007.073.01.072.01.071.012.07.013.069.015.069.015.067.017.066.018.065.019.064.02.063.021.062.022.061.023.059.024.058.025.057.025.056.026.054.028.053.027.051.028.05.029.048.03.047.03.045.03.044.03.043.031.04.032.039.031.038.031.036.032.034.031.033.032.031.031.029.032.028.031.026.03.025.031.023.03.022.03.02.029.019.029.017.028.016.028.015.027.013.027.012.027.012.026.009.025.009.026.008.024.007.025.006.024.005.024.005.025.003.024.003.024.002.025.001.025.001.025-.001.025-.001.024-.002.024-.003.025-.003.024-.005.024-.005.025-.006.024-.007.026-.008.025-.009.026-.009.027-.012.026-.012.028-.013.028-.015.028-.016.029-.017.029-.019.03-.02.03-.022.031-.023.03-.025.031-.026.032-.028.031-.029.032-.031.031-.033.032-.034.031-.036.031-.038.032-.039.031-.04.03-.043.03-.043.03-.046.03-.047.029-.048.028-.05.028-.051.027-.053.026-.054.025-.056.025-.057.024-.058.023-.059.022-.061.021-.062.02-.063.019-.064.018-.065.017-.066.015-.067.015-.069.013-.069.012-.07.01-.071.01-.072.007-.073.007-.074.005-.074.004-.076.002-.075.001-.077-.001-.077-.002-.075-.004-.076-.005-.074-.007-.074-.007-.073-.01-.072-.01-.071-.012-.07-.013-.069-.015-.069-.015-.067-.017-.066-.018-.065-.019-.064-.02-.063-.021-.062-.022-.061-.023-.059-.024-.058-.025-.057-.025-.056-.026-.054-.027-.053-.028-.051-.028-.05-.029-.048-.03-.047-.03-.046-.03-.043-.03-.043-.031-.04-.032-.039-.031-.038-.031-.036-.032-.034-.031-.033-.032-.031-.031-.029-.032-.028-.031-.026-.03-.025-.031-.023-.03-.022-.03-.02-.029-.019-.029-.017-.028-.016-.028-.015-.028-.013-.026-.012-.027-.012-.026-.009-.025-.009-.026-.008-.024-.007-.025-.006-.024-.005-.024-.005-.025-.003-.024-.003-.024-.002-.025-.001-.025-.001z"/><path d="m6 10h19v15h-19z"/><path d="m25.647 22.918c.855.684 1.353 1.719 1.353 2.814v.002c0 1.23-.586 2.387-1.578 3.115s-2.272.94-3.446.571c-1.664-.524-3.393-1.068-4.583-1.443-.988-.31-2.047-.307-3.033.01-1.133.365-2.753.887-4.328 1.393-1.172.378-2.453.172-3.449-.553-.995-.725-1.583-1.882-1.583-3.113 0-.001 0-.001 0-.002 0-1.082.492-2.106 1.337-2.781.934-.748 2.147-1.718 2.916-2.333.486-.389.839-.92 1.01-1.518.168-.59.4-1.399.638-2.235.651-2.276 2.731-3.845 5.098-3.845h.002c2.367 0 4.447 1.569 5.098 3.845.238.836.47 1.645.638 2.235.171.598.524 1.129 1.01 1.518.765.611 1.968 1.574 2.9 2.32zm.853-11.918c1.932 0 3.5 2.016 3.5 4.5s-1.568 4.5-3.5 4.5-3.5-2.016-3.5-4.5 1.568-4.5 3.5-4.5zm-21 0c1.932 0 3.5 2.016 3.5 4.5s-1.568 4.5-3.5 4.5-3.5-2.016-3.5-4.5 1.568-4.5 3.5-4.5zm15-8c1.932 0 3.5 2.016 3.5 4.5s-1.568 4.5-3.5 4.5-3.5-2.016-3.5-4.5 1.568-4.5 3.5-4.5zm-9 0c1.932 0 3.5 2.016 3.5 4.5s-1.568 4.5-3.5 4.5-3.5-2.016-3.5-4.5 1.568-4.5 3.5-4.5z" fill="#666"/></g></svg>