<svg clip-rule="evenodd" fill-rule="evenodd" stroke-linejoin="round" stroke-miterlimit="1.41421" viewBox="0 0 32 32" xmlns="http://www.w3.org/2000/svg" xmlns:xlink="http://www.w3.org/1999/xlink"><clipPath id="a"><path clip-rule="evenodd" d="m0 0h32v32h-32z"/></clipPath><metadata/><path d="m0 0h32v32h-32z" fill="none"/><g clip-path="url(#a)"><path d="m7.615.002.114.005.114.009.113.013.113.016.111.019.11.023.109.026.107.029.106.033.105.035.103.038.101.041.099.044.098.047.096.049.093.051.092.054.09.055.088.058.086.06.084.062.082.064.08.066.077.068.014.012.014-.012.077-.068.08-.066.082-.064.084-.062.086-.06.088-.058.09-.055.092-.054.094-.051.095-.049.098-.047.099-.044.101-.041.103-.038.105-.035.106-.033.107-.029.109-.026.11-.023.111-.019.113-.016.113-.013.114-.009.114-.005.115-.002.115.002.114.005.114.009.113.013.113.016.111.019.11.023.109.026.107.029.106.033.105.035.103.038.101.041.099.044.098.047.096.049.093.051.092.054.09.055.088.058.086.06.084.062.082.064.08.066.077.068.076.069.074.071.072.072.07.074.068.075.066.077.064.078.062.079.06.081.058.082.056.083.054.084.053.085.05.087.049.087.046.089.045.089.043.091.041.091.039.093.037.093.035.094.033.095.031.095.03.097.027.097.026.098.023.099.022.1.02.1.017.101.016.101.013.103.012.102.009.103.008.104.005.104.003.105.001.105-.001.105-.003.105-.005.104-.008.104-.009.103-.001.01.096.014.111.019.11.023.109.026.107.029.106.033.105.035.103.038.101.041.099.044.098.047.095.049.094.051.092.053.09.056.088.058.086.06.084.062.082.064.08.066.077.068.076.069.074.071.072.072.07.074.068.075.066.077.064.078.062.079.06.081.058.082.056.083.054.084.053.086.05.086.049.087.046.089.045.089.043.091.041.091.039.093.037.093.035.094.033.095.032.096.029.096.027.097.026.099.023.098.022.1.019.1.018.101.016.101.013.103.012.102.009.103.008.104.005.104.003.105.001.105-.001.105-.003.105-.005.104-.008.104-.009.103-.012.102-.013.103-.016.101-.018.101-.019.1-.022.1-.023.098-.026.099-.027.097-.029.096-.032.096-.033.095-.035.094-.037.093-.039.093-.041.091-.043.091-.045.089-.046.089-.049.087-.05.086-.053.086-.054.084-.056.083-.058.082-.06.081-.062.079-.064.078-.066.077-.068.075-.07.074-.072.072-.074.071-.076.069-.077.068-.08.066-.065.05.019-.007.105-.035.106-.033.107-.029.109-.026.11-.023.111-.019.113-.016.113-.013.114-.009.114-.005.115-.002.115.002.114.005.114.009.113.013.113.016.111.019.11.023.109.026.107.029.106.033.105.035.103.038.101.041.099.044.098.047.095.049.094.051.092.054.09.055.088.058.086.06.084.063.082.063.08.066.077.068.014.012.014-.012.077-.068.08-.066.082-.064.084-.062.086-.06.088-.058.09-.055.092-.054.094-.051.095-.049.098-.047.099-.044.101-.041.103-.038.105-.035.106-.033.107-.029.109-.026.11-.023.111-.019.113-.016.113-.013.114-.009.114-.005.115-.002.115.002.114.005.114.009.113.013.113.016.111.019.11.023.109.026.107.029.106.033.105.035.103.038.101.041.099.044.098.047.096.049.093.051.092.054.09.055.088.058.086.06.084.062.082.064.08.066.077.068.076.069.074.071.072.072.07.074.068.075.066.077.064.078.062.079.06.081.058.082.056.083.054.084.053.085.05.087.049.087.046.089.045.089.043.091.041.091.039.093.037.093.035.094.033.095.031.095.03.097.027.098.026.098.023.098.022.1.02.1.017.101.016.101.013.103.012.102.009.103.008.104.005.104.003.105.001.105-.001.105-.003.105-.005.104-.008.104-.009.103-.001.01.096.014.111.019.11.023.109.026.107.029.106.033.105.035.103.038.101.041.099.044.098.047.095.049.094.051.092.053.09.056.088.058.086.06.084.062.082.064.08.066.077.068.076.069.074.071.072.072.07.074.068.075.066.077.064.078.062.079.06.081.058.082.056.083.054.084.053.086.05.086.049.087.046.089.045.089.043.091.041.091.039.093.037.093.035.094.033.095.032.096.029.096.027.097.026.099.023.098.022.1.02.1.017.101.016.101.013.103.012.102.009.103.008.104.005.104.003.105.001.105-.001.105-.003.105-.005.104-.008.104-.009.103-.012.102-.013.103-.016.101-.017.101-.02.1-.022.1-.023.098-.026.099-.027.097-.029.096-.032.096-.033.095-.035.094-.037.093-.039.093-.041.091-.043.091-.045.089-.046.089-.049.087-.05.086-.053.086-.054.084-.056.083-.058.082-.06.081-.062.079-.064.078-.066.077-.068.075-.07.074-.072.072-.074.071-.076.069-.077.068-.08.066-.082.063-.084.063-.086.06-.088.058-.09.055-.092.054-.062.034.036.1.035.106.031.106.029.108.026.108.023.109.019.11.017.111.014.111.011.112.008.112.005.113.001.099v.173l-.002.108-.005.122-.009.121-.013.121-.016.12-.02.12-.023.118-.027.118-.03.116-.033.115-.037.114-.04.113-.044.112-.046.11-.05.108-.053.108-.056.105-.059.104-.062.102-.065.1-.068.099-.071.097-.074.094-.077.093-.08.09-.082.088-.085.086-.088.083-.091.081-.093.079-.096.075-.098.074-.101.07-.102.067-.104.063-.105.061-.107.057-.109.053-.109.051-.111.047-.112.043-.113.041-.114.037-.115.033-.116.03-.117.027-.117.023-.118.02-.118.016-.119.013-.119.009-.12.006-.119.002-.12-.001-.12-.005-.12-.008-.12-.012-.12-.015-.119-.019-.119-.023-.119-.026-.118-.03-.118-.033-.102-.032-1.689-.563-.067-.022-.058-.018-.059-.016-.058-.015-.059-.014-.059-.012-.06-.012-.059-.01-.06-.009-.059-.008-.06-.006-.06-.006-.06-.004-.06-.003-.06-.002h-.06-.06l-.06.002-.06.003-.06.004-.06.006-.06.006-.059.008-.06.009-.059.01-.06.012-.059.012-.059.014-.058.015-.059.016-.058.018-.067.022-1.689.562-.102.033-.118.033-.118.03-.119.026-.119.023-.119.019-.12.015-.12.012-.12.008-.12.005-.12.001-.119-.002-.12-.006-.119-.009-.119-.013-.118-.016-.118-.02-.117-.023-.117-.027-.116-.03-.115-.033-.114-.037-.113-.041-.112-.043-.111-.047-.109-.051-.109-.053-.107-.057-.105-.061-.104-.063-.102-.067-.101-.07-.098-.074-.096-.075-.093-.079-.091-.081-.088-.083-.085-.086-.082-.088-.08-.091-.077-.092-.074-.094-.071-.097-.068-.099-.065-.1-.062-.102-.059-.104-.056-.105-.053-.108-.05-.108-.046-.11-.044-.112-.04-.113-.037-.114-.033-.115-.03-.116-.027-.118-.023-.118-.02-.12-.016-.12-.013-.121-.009-.121-.005-.122-.002-.108v-.173l.001-.099.005-.113.008-.112.011-.112.014-.111.017-.111.019-.11.023-.109.026-.108.029-.108.031-.106.035-.106.036-.1-.062-.034-.092-.054-.09-.055-.088-.058-.086-.06-.084-.063-.082-.063-.08-.066-.077-.068-.076-.069-.074-.071-.072-.072-.07-.074-.068-.075-.066-.077-.064-.078-.062-.079-.06-.081-.058-.082-.056-.083-.054-.084-.053-.086-.05-.086-.049-.087-.046-.089-.045-.089-.043-.091-.041-.091-.039-.093-.037-.093-.035-.094-.033-.095-.032-.096-.029-.096-.027-.097-.026-.099-.023-.098-.022-.1-.02-.1-.017-.101-.016-.101-.013-.102-.012-.103-.009-.103-.008-.104-.005-.104-.003-.105-.001-.105.001-.105.003-.105.005-.104.008-.104.009-.103.012-.103.013-.102.016-.101.017-.101.02-.1.022-.1.023-.098.026-.099.027-.097.029-.096.032-.096.033-.095.035-.094.037-.093.039-.093.041-.091.043-.091.045-.089.046-.089.049-.087.05-.086.053-.086.054-.084.056-.083.058-.082.06-.081.062-.079.064-.078.066-.077.068-.075.07-.074.028-.029-.097-.015-.119-.023-.119-.026-.118-.03-.118-.033-.102-.032-1.689-.563-.067-.022-.058-.018-.059-.016-.058-.015-.059-.014-.059-.012-.06-.012-.059-.01-.06-.009-.059-.008-.06-.006-.06-.006-.06-.004-.06-.003-.06-.002h-.06-.06l-.06.002-.06.003-.06.004-.06.006-.06.006-.059.008-.06.009-.059.01-.06.012-.059.012-.059.014-.058.015-.059.016-.058.018-.067.022-1.689.563-.102.032-.118.033-.118.03-.119.026-.119.023-.119.019-.12.015-.12.012-.12.008-.12.005-.12.001-.119-.002-.12-.006-.119-.009-.119-.013-.118-.016-.118-.02-.117-.023-.117-.027-.116-.03-.115-.033-.114-.037-.113-.041-.112-.043-.111-.047-.109-.051-.109-.053-.107-.057-.105-.061-.104-.063-.102-.067-.101-.071-.098-.073-.096-.075-.093-.079-.091-.081-.088-.083-.085-.086-.082-.088-.08-.09-.077-.093-.074-.094-.071-.097-.068-.099-.065-.1-.062-.102-.059-.104-.056-.105-.053-.108-.05-.108-.046-.11-.044-.112-.04-.113-.037-.114-.033-.115-.03-.117-.027-.117-.023-.118-.02-.12-.016-.12-.013-.121-.009-.121-.005-.122-.002-.108v-.173l.001-.099.005-.113.008-.112.011-.112.014-.111.017-.111.019-.11.023-.109.026-.108.029-.108.031-.106.035-.106.036-.1-.062-.034-.092-.054-.09-.055-.088-.058-.086-.06-.084-.063-.082-.063-.08-.066-.077-.068-.076-.069-.074-.071-.072-.072-.07-.074-.068-.075-.066-.077-.064-.078-.062-.079-.06-.081-.058-.082-.056-.083-.054-.084-.053-.086-.05-.086-.049-.087-.046-.089-.045-.089-.043-.091-.041-.091-.039-.093-.037-.093-.035-.094-.033-.095-.032-.096-.029-.096-.027-.097-.026-.099-.023-.098-.022-.1-.02-.1-.017-.101-.016-.101-.013-.103-.012-.102-.009-.103-.008-.104-.005-.104-.003-.105-.001-.105.001-.105.003-.105.005-.104.008-.104.009-.103.012-.103.013-.102.016-.101.017-.101.02-.1.022-.1.023-.098.026-.099.027-.097.029-.096.032-.096.033-.095.035-.094.037-.094.039-.092.041-.091.043-.091.045-.089.046-.089.049-.087.05-.086.053-.086.054-.084.056-.083.058-.082.06-.081.062-.079.064-.078.066-.077.068-.075.07-.074.072-.072.074-.071.076-.069.077-.068.08-.066.082-.064.084-.062.086-.06.088-.058.09-.055.092-.054.094-.051.095-.049.098-.047.099-.044.101-.041.103-.038.105-.035.106-.033.107-.029.109-.026.11-.023.111-.019.096-.014-.001-.01-.009-.103-.008-.104-.005-.104-.003-.105-.001-.105.001-.105.003-.105.005-.104.008-.104.009-.103.012-.102.013-.103.016-.101.017-.101.02-.1.022-.1.023-.098.026-.098.027-.098.03-.096.031-.096.033-.095.035-.094.037-.094.039-.092.041-.091.043-.091.045-.089.046-.089.049-.087.05-.087.053-.085.054-.084.056-.083.058-.082.06-.081.062-.079.064-.078.066-.077.068-.075.07-.074.072-.072.074-.071.076-.069.077-.068.08-.066.082-.064.084-.062.086-.06.088-.058.09-.055.092-.054.093-.051.096-.049.098-.047.099-.044.101-.041.103-.038.105-.035.106-.033.107-.029.109-.026.11-.023.111-.019.113-.016.113-.013.114-.009.114-.005.115-.002.115.002zm14.37 22.998-.014.001h-.014l-.013.001-.013.002-.014.001-.013.002-.013.002-.013.002-.013.003-.012.003-.013.003-.013.003-.012.003-.012.004-.013.004-.012.005-.012.004-.012.005-.012.005-.012.005-.012.006-.011.005-.012.006-.011.007-.011.006-.012.007-.011.006-.011.008-.01.007-.011.007-.01.008-.011.008-.01.008-.01.009-.01.008-.009.009-.01.009-.009.009-.009.009-.009.01-.009.009-.008.01-.009.01-.008.01-.008.01-.007.011-.008.01-.007.011-.007.011-.007.011-.007.011-.006.011-.006.012-.006.012-.006.011-.005.012-.006.012-.005.013-.005.012-.004.013-.005.013-.004.013-.007.023-.197.689-.024.081-.028.089-.03.089-.031.088-.034.088-.035.087-.036.086-.038.085-.039.085-.041.083-.043.083-.044.082-.046.081-.047.081-.048.079-.05.078-.052.078-.053.077-.054.075-.056.075-.057.073-.059.073-.06.071-.061.07-.063.07-.064.068-.065.067-.067.065-.067.065-.07.063-.07.062-.064.055-1.539 1.283-.013.01-.001.001-.002.002-.001.002-.002.001-.001.002-.001.001-.002.002-.001.001-.001.002-.001.002-.001.002-.002.002-.001.001-.001.002-.001.002v.002l-.001.002-.001.002-.001.002v.002l-.001.002v.002l-.001.002v.002l-.001.002v.002.002l-.001.003v.002.002.016.115.02l.002.011.003.011.005.011.006.009.007.009.009.007.01.006.011.005.011.003.011.001h.002.003.002.002l.003-.001h.002.002l.002-.001h.002l.003-.001h.002l.016-.006 1.68-.559.125-.041.136-.041.136-.037.137-.036.138-.032.137-.029.139-.027.138-.024.139-.021.14-.018.139-.016.14-.012.14-.01.14-.007.14-.004.14-.002.14.002.14.004.14.007.14.01.14.012.139.016.14.018.139.021.138.024.139.027.137.029.138.032.137.036.136.037.136.041.125.041 1.68.559.018.006.011.002.01.001h.002.002l.002-.001h.003.002.002l.003-.001h.002l.002-.001.002-.001h.002l.002-.001.003-.001.002-.001.002-.001.002-.001.002-.001.002-.001.001-.001.003-.001.002-.002.001-.001.002-.002.002-.001.002-.002.002-.001.001-.002.002-.002.001-.001.002-.002.001-.002.001-.002.002-.001.001-.002.001-.002.001-.002.001-.002.001-.002.001-.003.001-.002.001-.002.001-.002v-.002l.001-.002.001-.002v-.003l.001-.002v-.002-.002-.002l.001-.003v-.002-.018-.115-.016-.002-.002l-.001-.003v-.002-.002l-.001-.002v-.002l-.001-.002v-.002l-.001-.002v-.002l-.001-.002-.001-.002-.001-.002-.001-.002v-.002l-.001-.002-.001-.001-.001-.002-.002-.002-.001-.002-.001-.002-.001-.001-.002-.002-.001-.001-.001-.002-.002-.001-.001-.002-.002-.002-.001-.001-.013-.01-1.539-1.283-.064-.055-.07-.062-.069-.063-.068-.065-.067-.066-.065-.066-.064-.068-.063-.07-.061-.07-.06-.072-.059-.072-.057-.073-.056-.075-.054-.076-.053-.076-.051-.078-.051-.078-.048-.079-.047-.081-.046-.081-.044-.082-.042-.083-.042-.084-.039-.084-.038-.085-.036-.086-.035-.087-.034-.088-.031-.088-.03-.089-.028-.089-.024-.081-.197-.689-.007-.023-.004-.013-.005-.013-.004-.013-.005-.012-.005-.013-.006-.012-.005-.012-.006-.011-.006-.012-.006-.012-.006-.011-.007-.011-.007-.011-.007-.011-.007-.011-.008-.01-.007-.011-.008-.01-.008-.01-.009-.01-.008-.01-.009-.009-.009-.01-.009-.009-.009-.009-.01-.009-.009-.009-.01-.008-.01-.009-.01-.008-.011-.008-.01-.008-.011-.007-.01-.007-.011-.008-.011-.006-.012-.007-.011-.006-.011-.007-.012-.006-.011-.005-.012-.006-.012-.005-.012-.005-.012-.005-.012-.004-.012-.005-.013-.004-.012-.004-.012-.003-.013-.003-.013-.003-.012-.003-.013-.003-.013-.002-.013-.002-.013-.002-.014-.001-.013-.002-.013-.001h-.014l-.014-.001h-.015-.015zm-11.705-8.724.14.007.14.01.14.012.14.016.139.018.139.021.138.024.139.027.137.029.138.032.137.036.136.037.136.041.125.04 1.679.56.019.006.012.002.009.001h.002.002.002l.003-.001h.002.002l.002-.001h.003l.002-.001.002-.001h.002l.002-.001.003-.001.002-.001.002-.001.002-.001.002-.001.002-.001.001-.001.003-.001.002-.002.002-.001.001-.002.002-.001.002-.002.002-.001.001-.002.002-.002.001-.001.002-.002.001-.002.001-.002.002-.001.001-.002.001-.002.001-.002.001-.002.001-.002.001-.003.001-.002.001-.002.001-.002v-.002l.001-.002.001-.002v-.003l.001-.002v-.002-.002-.002l.001-.003v-.002-.018-.115-.016-.002-.002l-.001-.003v-.002-.002l-.001-.002v-.002l-.001-.002v-.002l-.001-.002v-.002l-.001-.002-.001-.002-.001-.002-.001-.002v-.002l-.001-.002-.001-.001-.002-.002-.001-.002-.001-.002-.001-.001-.001-.002-.002-.002-.001-.001-.001-.002-.002-.001-.001-.002-.002-.001-.001-.002-.013-.01-1.539-1.283-.064-.055-.07-.062-.07-.063-.067-.065-.067-.065-.065-.067-.064-.068-.063-.07-.061-.07-.06-.071-.059-.073-.057-.073-.056-.075-.054-.076-.053-.076-.051-.077-.051-.079-.048-.079-.047-.081-.046-.081-.044-.082-.043-.083-.041-.083-.039-.085-.038-.085-.036-.086-.035-.087-.034-.088-.031-.088-.03-.089-.028-.089-.024-.081-.197-.689-.007-.023-.004-.013-.005-.013-.004-.013-.005-.012-.005-.013-.006-.012-.005-.012-.006-.011-.006-.012-.006-.012-.006-.011-.007-.011-.007-.011-.007-.011-.007-.011-.008-.01-.007-.011-.008-.01-.008-.01-.009-.01-.008-.01-.009-.009-.009-.01-.009-.009-.009-.009-.01-.009-.009-.009-.01-.008-.01-.009-.01-.008-.011-.008-.01-.008-.011-.007-.01-.007-.011-.008-.011-.006-.011-.007-.012-.006-.011-.007-.012-.006-.011-.005-.012-.006-.012-.005-.012-.005-.012-.005-.012-.004-.012-.005-.013-.004-.012-.004-.012-.003-.013-.003-.013-.003-.012-.003-.013-.003-.013-.002-.013-.002-.013-.002-.014-.001-.013-.002-.013-.001h-.014l-.014-.001h-.015-.015l-.014.001h-.013l-.014.001-.013.002-.014.001-.013.002-.013.002-.013.002-.013.003-.012.003-.013.003-.013.003-.012.003-.012.004-.013.004-.012.005-.012.004-.012.005-.012.005-.012.005-.012.006-.011.005-.012.006-.011.007-.012.006-.011.007-.011.006-.011.008-.01.007-.011.007-.01.008-.011.008-.01.008-.01.009-.01.008-.009.009-.01.009-.009.009-.009.009-.009.01-.009.009-.008.01-.009.01-.008.01-.008.01-.007.011-.008.01-.007.011-.007.011-.007.011-.007.011-.006.011-.006.012-.006.011-.006.012-.005.012-.006.012-.005.013-.005.012-.004.013-.005.013-.004.013-.007.023-.197.689-.024.081-.028.089-.03.089-.032.088-.033.088-.035.087-.036.086-.038.085-.039.085-.041.083-.043.083-.044.082-.046.081-.047.081-.049.079-.05.078-.051.078-.053.076-.054.076-.056.075-.057.073-.059.073-.06.071-.061.07-.063.07-.064.068-.065.067-.067.065-.067.065-.07.063-.07.062-.064.055-1.539 1.283-.013.01-.001.002-.002.001-.001.001-.002.002-.001.002-.001.001-.002.002-.001.002-.001.001-.001.002-.001.002-.002.002-.001.002-.001.001v.002l-.001.002-.001.002-.001.002-.001.002v.002l-.001.002v.002l-.001.002v.002l-.001.002v.002.002l-.001.003v.002.002.016.115.02l.002.011.003.011.005.011.006.009.007.009.009.007.01.006.011.005.011.003.011.001h.002.003.002.002l.002-.001h.003.002l.002-.001h.002l.003-.001h.002l.017-.006 1.679-.56.125-.04.136-.041.136-.037.137-.036.138-.032.137-.029.139-.027.138-.024.139-.021.139-.018.14-.016.14-.012.14-.01.14-.007.14-.004.14-.002.14.002.14.004z"/><path d="m27.252 26.377c.474.395.748.98.748 1.596v.144c0 .668-.321 1.295-.863 1.686-.542.39-1.238.497-1.872.285-.577-.192-1.167-.389-1.684-.561-1.026-.342-2.136-.342-3.162 0-.517.172-1.107.369-1.684.561-.634.212-1.33.105-1.872-.285-.542-.391-.863-1.018-.863-1.686 0-.049 0-.097 0-.144 0-.616.274-1.201.748-1.596.471-.393 1.077-.898 1.542-1.285.463-.386.798-.902.964-1.481.061-.213.128-.449.197-.689.325-1.138 1.365-1.922 2.548-1.922h.002c1.183 0 2.223.784 2.548 1.922.069.24.136.476.197.689.166.579.501 1.095.964 1.481.465.387 1.071.892 1.542 1.285zm.748-6.377c1.104 0 2 1.12 2 2.5s-.896 2.5-2 2.5-2-1.12-2-2.5.896-2.5 2-2.5zm-12 0c-1.104 0-2 1.12-2 2.5s.896 2.5 2 2.5 2-1.12 2-2.5-.896-2.5-2-2.5zm8.5-5c1.104 0 2 1.12 2 2.5s-.896 2.5-2 2.5-2-1.12-2-2.5.896-2.5 2-2.5zm-5 0c-1.104 0-2 1.12-2 2.5s.896 2.5 2 2.5 2-1.12 2-2.5-.896-2.5-2-2.5zm-4.248-1.623c.474.395.748.98.748 1.596v.144c0 .668-.321 1.295-.863 1.686-.542.39-1.238.497-1.872.285-.577-.192-1.167-.389-1.684-.561-1.026-.342-2.136-.342-3.162 0-.517.172-1.107.369-1.684.561-.634.212-1.33.105-1.872-.285-.542-.391-.863-1.018-.863-1.686 0-.049 0-.097 0-.144 0-.616.274-1.201.748-1.596.471-.393 1.077-.898 1.542-1.285.463-.386.798-.902.964-1.481.061-.213.128-.449.197-.689.325-1.138 1.365-1.922 2.548-1.922h.002c1.183 0 2.223.784 2.548 1.922.069.24.136.476.197.689.166.579.501 1.095.964 1.481.465.387 1.071.892 1.542 1.285zm-11.252-6.377c-1.104 0-2 1.12-2 2.5s.896 2.5 2 2.5 2-1.12 2-2.5-.896-2.5-2-2.5zm12 0c1.104 0 2 1.12 2 2.5s-.896 2.5-2 2.5-2-1.12-2-2.5.896-2.5 2-2.5zm-8.5-5c-1.104 0-2 1.12-2 2.5s.896 2.5 2 2.5 2-1.12 2-2.5-.896-2.5-2-2.5zm5 0c1.104 0 2 1.12 2 2.5s-.896 2.5-2 2.5-2-1.12-2-2.5.896-2.5 2-2.5z" fill="#666"/></g></svg>