<svg clip-rule="evenodd" fill-rule="evenodd" stroke-linecap="round" stroke-miterlimit="1.5" viewBox="0 0 32 32" xmlns="http://www.w3.org/2000/svg" xmlns:xlink="http://www.w3.org/1999/xlink"><clipPath id="a"><path clip-rule="evenodd" d="m0 0h32v32h-32z"/></clipPath><clipPath id="b"><path clip-rule="evenodd" d="m2 30s0-8.295 0-14.201c0-3.713 1.475-7.274 4.101-9.9 1.965-1.965 3.899-3.899 3.899-3.899h20v28h-8l-1-.347h-7l-1 .347z"/></clipPath><clipPath id="c"><path clip-rule="evenodd" d="m24 8v5c0 1.061.421 2.078 1.172 2.828.75.751 1.767 1.172 2.828 1.172h5s0-2.596 0-5c0-1.061-.421-2.078-1.172-2.828-.75-.751-1.767-1.172-2.828-1.172-2.404 0-5 0-5 0z"/></clipPath><clipPath id="d"><path clip-rule="evenodd" d="m13 0v5c0 1.061.421 2.078 1.172 2.828.75.751 1.767 1.172 2.828 1.172h5s0-2.596 0-5c0-1.061-.421-2.078-1.172-2.828-.75-.751-1.767-1.172-2.828-1.172-2.404 0-5 0-5 0z"/></clipPath><clipPath id="e"><path clip-rule="evenodd" d="m5 9v5c0 1.061.421 2.078 1.172 2.828.75.751 1.767 1.172 2.828 1.172h5s0-2.596 0-5c0-1.061-.421-2.078-1.172-2.828-.75-.751-1.767-1.172-2.828-1.172-2.404 0-5 0-5 0z"/></clipPath><clipPath id="f"><path clip-rule="evenodd" d="m17 16v5c0 1.061.421 2.078 1.172 2.828.75.751 1.767 1.172 2.828 1.172h5s0-2.596 0-5c0-1.061-.421-2.078-1.172-2.828-.75-.751-1.767-1.172-2.828-1.172-2.404 0-5 0-5 0z"/></clipPath><clipPath id="g"><path clip-rule="evenodd" d="m28 24v5c0 1.061.421 2.078 1.172 2.828.75.751 1.767 1.172 2.828 1.172h5s0-2.596 0-5c0-1.061-.421-2.078-1.172-2.828-.75-.751-1.767-1.172-2.828-1.172-2.404 0-5 0-5 0z"/></clipPath><clipPath id="h"><path clip-rule="evenodd" d="m3 21v5c0 1.061.421 2.078 1.172 2.828.75.751 1.767 1.172 2.828 1.172h5s0-2.596 0-5c0-1.061-.421-2.078-1.172-2.828-.75-.751-1.767-1.172-2.828-1.172-2.404 0-5 0-5 0z"/></clipPath><clipPath id="i"><path clip-rule="evenodd" d="m14 27v5c0 1.061.421 2.078 1.172 2.828.75.751 1.767 1.172 2.828 1.172h5s0-2.596 0-5c0-1.061-.421-2.078-1.172-2.828-.75-.751-1.767-1.172-2.828-1.172-2.404 0-5 0-5 0z"/></clipPath><clipPath id="j"><path clip-rule="evenodd" d="m10 13c.552 0 1 .448 1 1v2l2 3s-4.161 0-5.553 0c-.297 0-.593.036-.881.108-1.035.259-3.566.892-3.566.892s.069-.276.171-.683c.526-2.105 1.946-3.876 3.887-4.846 1.48-.74 2.942-1.471 2.942-1.471z"/></clipPath><metadata/><path d="m0 0h32v32h-32z" fill="none"/><g clip-path="url(#a)"><path d="m2 30s0-8.295 0-14.201c0-3.713 1.475-7.274 4.101-9.9 1.965-1.965 3.899-3.899 3.899-3.899h20v28z" fill="none" stroke="#000" stroke-width="4"/><path d="m2 30s0-8.295 0-14.201c0-3.713 1.475-7.274 4.101-9.9 1.965-1.965 3.899-3.899 3.899-3.899h20v28h-8l-1-.347h-7l-1 .347z" fill="#21b9b6"/><g clip-path="url(#b)"><path d="m24 8v5c0 1.061.421 2.078 1.172 2.828.75.751 1.767 1.172 2.828 1.172h5s0-2.596 0-5c0-1.061-.421-2.078-1.172-2.828-.75-.751-1.767-1.172-2.828-1.172-2.404 0-5 0-5 0z" fill="#49ff7a"/><g clip-path="url(#c)"><path d="m25 9v4c0 .796.316 1.559.879 2.121.562.563 1.325.879 2.121.879h4s0-2.1 0-4c0-.796-.316-1.559-.879-2.121-.562-.563-1.325-.879-2.121-.879-1.9 0-4 0-4 0z" fill="#a2976a"/><path d="m28 10c-1.105 0-2 .895-2 2s.895 2 2 2 2-.895 2-2-.895-2-2-2z" fill="#0085f3"/></g><path d="m13 0v5c0 1.061.421 2.078 1.172 2.828.75.751 1.767 1.172 2.828 1.172h5s0-2.596 0-5c0-1.061-.421-2.078-1.172-2.828-.75-.751-1.767-1.172-2.828-1.172-2.404 0-5 0-5 0z" fill="#49ff7a"/><g clip-path="url(#d)"><path d="m14 1v4c0 .796.316 1.559.879 2.121.562.563 1.325.879 2.121.879h4s0-2.1 0-4c0-.796-.316-1.559-.879-2.121-.562-.563-1.325-.879-2.121-.879-1.9 0-4 0-4 0z" fill="#a2976a"/><path d="m17 2c-1.105 0-2 .895-2 2s.895 2 2 2 2-.895 2-2-.895-2-2-2z" fill="#0085f3"/></g><path d="m5 9v5c0 1.061.421 2.078 1.172 2.828.75.751 1.767 1.172 2.828 1.172h5s0-2.596 0-5c0-1.061-.421-2.078-1.172-2.828-.75-.751-1.767-1.172-2.828-1.172-2.404 0-5 0-5 0z" fill="#49ff7a"/><g clip-path="url(#e)"><path d="m6 10v4c0 .796.316 1.559.879 2.121.562.563 1.325.879 2.121.879h4s0-2.1 0-4c0-.796-.316-1.559-.879-2.121-.562-.563-1.325-.879-2.121-.879-1.9 0-4 0-4 0z" fill="#a2976a"/><path d="m9 11c-1.105 0-2 .895-2 2s.895 2 2 2 2-.895 2-2-.895-2-2-2z" fill="#0085f3"/></g><path d="m17 16v5c0 1.061.421 2.078 1.172 2.828.75.751 1.767 1.172 2.828 1.172h5s0-2.596 0-5c0-1.061-.421-2.078-1.172-2.828-.75-.751-1.767-1.172-2.828-1.172-2.404 0-5 0-5 0z" fill="#49ff7a"/><g clip-path="url(#f)"><path d="m18 17v4c0 .796.316 1.559.879 2.121.562.563 1.325.879 2.121.879h4s0-2.1 0-4c0-.796-.316-1.559-.879-2.121-.562-.563-1.325-.879-2.121-.879-1.9 0-4 0-4 0z" fill="#a2976a"/><path d="m21 18c-1.105 0-2 .895-2 2s.895 2 2 2 2-.895 2-2-.895-2-2-2z" fill="#0085f3"/><path d="m21 19c-.552 0-1 .448-1 1 0 .552.448 1 1 1 .552 0 1-.448 1-1 0-.552-.448-1-1-1z" fill="#0000b9"/></g><path d="m28 24v5c0 1.061.421 2.078 1.172 2.828.75.751 1.767 1.172 2.828 1.172h5s0-2.596 0-5c0-1.061-.421-2.078-1.172-2.828-.75-.751-1.767-1.172-2.828-1.172-2.404 0-5 0-5 0z" fill="#49ff7a"/><g clip-path="url(#g)"><path d="m29 25v4c0 .796.316 1.559.879 2.121.562.563 1.325.879 2.121.879h4s0-2.1 0-4c0-.796-.316-1.559-.879-2.121-.562-.563-1.325-.879-2.121-.879-1.9 0-4 0-4 0z" fill="#a2976a"/><path d="m32 26c-1.105 0-2 .895-2 2s.895 2 2 2 2-.895 2-2-.895-2-2-2z" fill="#0085f3"/><path d="m32 27c-.552 0-1 .448-1 1 0 .552.448 1 1 1 .552 0 1-.448 1-1 0-.552-.448-1-1-1z" fill="#0000b9"/></g><path d="m3 21v5c0 1.061.421 2.078 1.172 2.828.75.751 1.767 1.172 2.828 1.172h5s0-2.596 0-5c0-1.061-.421-2.078-1.172-2.828-.75-.751-1.767-1.172-2.828-1.172-2.404 0-5 0-5 0z" fill="#49ff7a"/><g clip-path="url(#h)"><path d="m4 22v4c0 .796.316 1.559.879 2.121.562.563 1.325.879 2.121.879h4s0-2.1 0-4c0-.796-.316-1.559-.879-2.121-.562-.563-1.325-.879-2.121-.879-1.9 0-4 0-4 0z" fill="#a2976a"/><path d="m7 23c-1.105 0-2 .895-2 2s.895 2 2 2 2-.895 2-2-.895-2-2-2z" fill="#0085f3"/></g><path d="m14 27v5c0 1.061.421 2.078 1.172 2.828.75.751 1.767 1.172 2.828 1.172h5s0-2.596 0-5c0-1.061-.421-2.078-1.172-2.828-.75-.751-1.767-1.172-2.828-1.172-2.404 0-5 0-5 0z" fill="#49ff7a"/><g clip-path="url(#i)"><path d="m15 28v4c0 .796.316 1.559.879 2.121.562.563 1.325.879 2.121.879h4s0-2.1 0-4c0-.796-.316-1.559-.879-2.121-.562-.563-1.325-.879-2.121-.879-1.9 0-4 0-4 0z" fill="#a2976a"/><path d="m18 29c-1.105 0-2 .895-2 2s.895 2 2 2 2-.895 2-2-.895-2-2-2z" fill="#0085f3"/><path d="m17.974 30c-.258 0-.506.103-.689.285-.182.183-.285.431-.285.689v.026c0 .552.448 1 1 1h.001c.552 0 .999-.447.999-.999 0-.009 0-.018 0-.027 0-.258-.103-.506-.285-.689-.183-.182-.431-.285-.689-.285-.017 0-.035 0-.052 0z" fill="#0000b9"/></g></g><g fill="none" stroke="#000" stroke-linecap="butt"><path d="m19 11v-5"/><path d="m19 10.536 3.536-3.536"/><path d="m19.071 10.536-3.535-3.536"/></g><path d="m9 18.667-2-.667v-2s2.72-2.72 4.769-4.769c1.428-1.428 3.366-2.231 5.386-2.231h.001c4.332 0 7.844 3.512 7.844 7.844v2.696c0 .967-.156 1.928-.462 2.846-.841 2.524-2.538 7.614-2.538 7.614h-9s.916-2.747 1.735-5.205c.087-.26.146-.527.178-.795l.388-.708-1.217-3.48-3.243-1.201z" fill="#0034b6"/><path d="m9 18.667v-2.667s1.648-1.648 2.828-2.828c.751-.751 1.768-1.172 2.829-1.172h2.343c1.061 0 2.078.421 2.828 1.172.751.75 1.172 1.767 1.172 2.828v4c0 1.061-.421 2.078-1.172 2.828-.75.751-1.767 1.172-2.828 1.172h-2.087c.091-.77-.043-1.555-.395-2.259-.474-.949-1.306-1.67-2.313-2.006z" fill="#027"/><path d="m10 13c.552 0 1 .448 1 1v2l2 3s-4.161 0-5.553 0c-.297 0-.593.036-.881.108-1.035.259-3.566.892-3.566.892s.069-.276.171-.683c.526-2.105 1.946-3.876 3.887-4.846 1.48-.74 2.942-1.471 2.942-1.471z" fill="#000a21"/><g clip-path="url(#j)"><path d="m8 10s3.142 2.514 4.445 3.556c.351.281.555.706.555 1.155v.164l5 .125v-7h-7z" fill="#eeeeec"/></g><path d="m17 12.5s-.811 0-1.702 0c-1.269 0-2.298 1.029-2.298 2.298v.001c0 .387-.314.701-.701.701-.576 0-1.299 0-1.299 0" fill="none" stroke="#fff"/><path d="m19.382 16c.379 0 .725-.214.894-.553.296-.592.724-1.447.724-1.447h-5.5l.5 2-1.5 3h.764c.757 0 1.45-.428 1.789-1.106.427-.855.947-1.894.947-1.894z" fill="#fff"/><circle cx="15.5" cy="15.5" r="1.5"/><path d="m19 7s-.618-.618-1.293-1.293c-.286-.286-.371-.716-.217-1.09.155-.373.52-.617.924-.617h1.172c.404 0 .769.244.924.617.154.374.069.804-.217 1.09-.675.675-1.293 1.293-1.293 1.293z" fill="#0034b6"/><path d="m21.828 7.707s0-.874 0-1.828c0-.405.244-.769.618-.924.373-.155.804-.069 1.09.217.273.273.555.555.828.828.286.286.372.716.217 1.09-.155.373-.52.617-.924.617-.955 0-1.829 0-1.829 0z" fill="#0034b6"/><path d="m16.243 7.707s0-.874 0-1.828c0-.405-.244-.769-.618-.924-.373-.155-.803-.069-1.089.217-.273.273-.556.555-.829.828-.286.286-.371.716-.217 1.09.155.373.52.617.924.617z" fill="#0034b6"/></g></svg>