<svg clip-rule="evenodd" fill-rule="evenodd" stroke-linejoin="round" stroke-miterlimit="2" viewBox="0 0 32 32" xmlns="http://www.w3.org/2000/svg" xmlns:xlink="http://www.w3.org/1999/xlink"><clipPath id="a"><path clip-rule="evenodd" d="m0 0h32v32h-32z"/></clipPath><metadata/><path d="m0 0h32v32h-32z" fill="none"/><g clip-path="url(#a)"><path d="m16 9v-2c0-1.657-1.343-3-3-3-2.946 0-7 0-7 0v.158c0 1.376.937 2.576 2.272 2.91 2.951.738 7.728 1.932 7.728 1.932z" fill="#4eb61e"/><path d="m5.017 7.177c-.377-.497-.662-1.063-.831-1.667-.123-.438-.181-.888-.186-1.342v-2.168c3.043 0 6.086-.037 9.128.001.169.007.338.018.506.039.411.052.815.156 1.2.307.748.295 1.42.773 1.946 1.38.423.488.75 1.058.957 1.67.064.188.116.38.157.574.825-.259 1.68-.418 2.543-.475 1.482-.096 2.98.114 4.377.616 1.64.589 3.129 1.576 4.31 2.857.696.754 1.284 1.608 1.741 2.527.536 1.078.89 2.244 1.045 3.438.149 1.152.108 2.33-.067 3.477-.196 1.278-.574 2.527-1.121 3.698-.766 1.64-1.86 3.122-3.199 4.34-1.222 1.11-2.643 1.997-4.179 2.602-1.051.415-2.153.697-3.274.839-.518.066-1.039.099-1.562.109-1.672.01-3.344.01-5.016 0-.523-.01-1.044-.043-1.562-.109-1.01-.128-2.005-.37-2.961-.72-2.325-.851-4.398-2.342-5.951-4.27-1.039-1.29-1.841-2.768-2.352-4.344-.352-1.084-.566-2.211-.638-3.348-.059-.932-.023-1.868.141-2.788.251-1.407.783-2.761 1.556-3.963.715-1.111 1.633-2.089 2.697-2.872.194-.142.392-.278.595-.408z"/><path d="m17.183 8.408c2.746-1.372 6.006-1.226 8.617.388s4.2 4.464 4.2 7.533v.003c0 6.444-5.224 11.668-11.668 11.668h-4.664c-6.444 0-11.668-5.224-11.668-11.668v-.003c0-3.069 1.589-5.919 4.2-7.533s5.871-1.76 8.617-.388c.735.368 1.183.592 1.183.592s.448-.224 1.183-.592z" fill="#df8721"/><path d="m18.057 9.418c.079.008.155.018.231.041.077.023.146.057.216.094.371.216.743.431 1.112.65.553.341 1.071.73 1.543 1.177 1.212 1.148 2.095 2.628 2.529 4.241.129.479.218.968.267 1.461.025.25.038.5.044.751.002.309.002.617 0 .926-.012.635-.082 1.267-.222 1.888-.252 1.12-.719 2.191-1.368 3.139-.296.432-.631.835-.994 1.213-.566.572-1.139 1.139-1.708 1.708-.051.047-.063.061-.119.102-.085.062-.179.11-.279.142-.407.132-.866-.017-1.118-.363-.062-.085-.11-.179-.142-.279s-.049-.204-.049-.309c0-.184.051-.366.147-.522.042-.069.092-.127.146-.185.584-.584 1.178-1.159 1.751-1.754.3-.319.573-.661.811-1.028.536-.825.897-1.76 1.054-2.731.042-.259.069-.52.082-.782.019-.377.011-.755.008-1.132-.003-.117-.003-.117-.008-.235-.029-.504-.103-1.003-.235-1.49-.318-1.184-.946-2.277-1.807-3.148-.411-.415-.872-.772-1.369-1.079-.36-.214-.722-.423-1.084-.634-.059-.037-.075-.045-.129-.089-.081-.066-.151-.145-.208-.233-.057-.089-.099-.186-.126-.287-.102-.387.043-.808.362-1.05.104-.08.224-.138.351-.171.067-.018.085-.019.154-.028.078-.005.078-.005.157-.004z" fill="#ca5415" fill-rule="nonzero"/><path d="m16 9v-2c0-1.657-1.343-3-3-3-2.946 0-7 0-7 0v.158c0 1.376.937 2.576 2.272 2.91 2.951.738 7.728 1.932 7.728 1.932z" fill="#219555"/></g></svg>