<svg clip-rule="evenodd" fill-rule="evenodd" stroke-linecap="round" stroke-linejoin="round" stroke-miterlimit="1.5" viewBox="0 0 32 32" xmlns="http://www.w3.org/2000/svg"><metadata/><path d="m0 0h32v32h-32z" fill="none"/><path d="m6.575 7.425c-.959.959-1.269 2.391-.793 3.661.667 1.778 1.581 4.217 1.997 5.324.147.392.251.799.31 1.214.107.749.294 2.059.471 3.298.286 1.998 1.212 3.85 2.639 5.277.067.067.135.135.204.204 1.75 1.75 4.123 2.733 6.597 2.733s4.847-.983 6.597-2.733l1.806-1.806c1.75-1.75 2.733-4.123 2.733-6.597s-.983-4.847-2.733-6.597c-.069-.069-.137-.137-.204-.204-1.427-1.427-3.279-2.353-5.277-2.639-1.239-.177-2.549-.364-3.298-.471-.415-.059-.822-.163-1.214-.31-1.107-.416-3.546-1.33-5.324-1.997-1.27-.476-2.702-.166-3.661.793-.28.28-.57.57-.85.85z" fill="none" stroke="#000" stroke-width="4"/><path d="m9 7-2 2-5-5 2-2z" stroke="#000" stroke-width="4"/><path d="m9 7-2 2-5-5 2-2z" fill="#8b5e11"/><path d="m6.575 7.425c-.959.959-1.269 2.391-.793 3.661.667 1.778 1.581 4.217 1.997 5.324.147.392.251.799.31 1.214.107.749.294 2.059.471 3.298.286 1.998 1.212 3.85 2.639 5.277.067.067.135.135.204.204 1.75 1.75 4.123 2.733 6.597 2.733s4.847-.983 6.597-2.733l1.806-1.806c1.75-1.75 2.733-4.123 2.733-6.597s-.983-4.847-2.733-6.597c-.069-.069-.137-.137-.204-.204-1.427-1.427-3.279-2.353-5.277-2.639-1.239-.177-2.549-.364-3.298-.471-.415-.059-.822-.163-1.214-.31-1.107-.416-3.546-1.33-5.324-1.997-1.27-.476-2.702-.166-3.661.793-.28.28-.57.57-.85.85z" fill="#a8d752"/><path d="m12.133 8.004.098.009.097.014.097.019.095.023.094.028.093.032.091.037.089.041.087.046 2.614 1.457.097.053.089.047.09.045.091.044.092.042.092.04.093.039.094.037.094.036.094.034.096.032.095.03.096.029.097.028.097.025.098.024.097.022.099.021.098.018.099.017.1.016.099.013.1.012.1.011.1.008.101.007.1.005.101.003.101.002.101-.001.101-.002.113-.004h-.004l.093-.004.1-.003.101-.002.1-.001h.1l.1.001.1.002.1.003.1.004.1.005.099.006.1.007.099.008.099.009.099.01.099.011.099.012.099.013.098.014.098.015.098.016.098.016.098.018.098.019.097.02.097.021.097.021.096.023.097.024.096.024.096.026.095.026.096.028.095.028.095.03.094.03.094.031.094.033.093.033.094.034.093.035.092.036.092.037.092.038.092.039.091.039.091.041.09.042.09.042.09.044.089.044.089.045.088.046.088.047.088.048.087.049.086.05.087.051.086.051.085.053.085.053.084.055.084.055.079.053.548.373.08.058.077.061.074.064.07.069.068.071.063.075.06.078.056.081.051.083.048.086.043.088.04.09.034.092.03.094.025.094.021.096.016.097.011.098.007.098.001.098-.003.098-.008.098-.013.097-.017.097-.023.095-.027.095-.031.093-.036.091-.041.089-.045.088-.049.085-.053.082-.057.08-.061.077-.065.074-.068.07-.072.067-.075.064-.078.059-.081.056-.083.052-.086.048-.088.043-.09.039-.092.035-.093.03-.095.025-.096.021-.097.016-.097.011-.098.006-.099.002-.098-.003-.097-.008-.098-.013-.096-.018-.096-.022-.094-.027-.093-.032-.092-.036-.089-.04-.087-.045-.085-.049-.083-.054-.54-.367-.054-.036-.05-.033-.05-.033-.051-.032-.051-.031-.051-.031-.051-.03-.052-.03-.052-.029-.052-.029-.052-.028-.053-.027-.053-.027-.054-.027-.053-.025-.053-.026-.054-.025-.055-.024-.054-.023-.055-.024-.054-.022-.055-.022-.056-.022-.055-.021-.055-.02-.056-.02-.056-.019-.056-.019-.057-.018-.056-.017-.057-.017-.057-.017-.057-.015-.057-.016-.057-.014-.058-.014-.057-.014-.058-.013-.058-.012-.058-.012-.058-.011-.058-.011-.059-.01-.058-.01-.059-.008-.059-.009-.059-.007-.058-.008-.059-.006-.06-.006-.059-.005-.059-.005-.059-.004-.06-.004-.059-.003-.06-.002-.059-.002-.06-.001-.059-.001h-.06l-.06.001-.06.001-.06.002-.067.003h-.004l-.16.006-.17.003-.171.001-.171-.003-.17-.005-.17-.009-.169-.011-.169-.015-.169-.017-.169-.02-.168-.023-.168-.026-.167-.029-.166-.031-.166-.035-.165-.037-.165-.041-.164-.043-.163-.046-.162-.049-.162-.051-.16-.054-.16-.058-.159-.06-.158-.062-.157-.066-.156-.068-.155-.071-.153-.074-.153-.076-.151-.08-.142-.077-2.63-1.466-.084-.05-.082-.054-.08-.058-.076-.062-.073-.065-.07-.069-.066-.072-.063-.076-.059-.078-.055-.081-.051-.084-.047-.086-.043-.089-.038-.09-.034-.093-.029-.093-.024-.095-.02-.097-.015-.097-.011-.097-.005-.098-.001-.098.004-.098.009-.098.014-.097.019-.097.023-.095.028-.094.032-.093.037-.091.041-.089.046-.087.05-.084.054-.082.058-.08.062-.076.065-.073.069-.07.072-.066.076-.063.078-.059.081-.055.084-.051.086-.047.089-.043.09-.038.093-.034.093-.029.095-.024.096-.02.097-.015.098-.011.098-.005.098-.001.098.004z" fill="#c3ea68"/></svg>