<svg clip-rule="evenodd" fill-rule="evenodd" stroke-linecap="round" stroke-miterlimit="3" viewBox="0 0 32 32" xmlns="http://www.w3.org/2000/svg" xmlns:xlink="http://www.w3.org/1999/xlink"><clipPath id="a"><path clip-rule="evenodd" d="m0 0h32v32h-32z"/></clipPath><clipPath id="b"><path clip-rule="evenodd" d="m2.075 26.962s0-1.241 0-2.481c0-1.589.63-3.113 1.752-4.237 3.708-3.719 12.027-12.059 12.171-12.204.001-.002.003-.003.004-.004.048-.049.998-.998.998-.998s.378 1.121.67 1.983c.214.635.634 1.179 1.193 1.547.886.583 2.137 1.407 2.137 1.407l5 2.025s-1.733 1.733-1.973 1.973c-.018.018-.035.037-.052.056-.148.173-.934 1.091-1.89 2.208-2.657 3.102-6.215 5.299-10.179 6.283-4.495 1.117-9.831 2.442-9.831 2.442z"/></clipPath><metadata/><path d="m0 0h32v32h-32z" fill="none"/><g clip-path="url(#a)"><g fill="none" stroke="#000" stroke-width="4"><path d="m25.917 30h-7.917s0-1.459 0-2.615c0-.906.246-1.795.713-2.573.854-1.424 2.317-3.863 3.488-5.814 1.03-1.717.633-3.931-.931-5.182-.812-.649-1.591-1.273-1.991-1.593-.185-.148-.394-.261-.617-.336-.785-.261-2.662-.887-2.662-.887v-1s0-.391 0-1c0-1.857.737-3.637 2.05-4.95s3.093-2.05 4.95-2.05h1c1.591 0 3.117.632 4.243 1.757 1.125 1.126 1.757 2.652 1.757 4.243v8.344c0 1.741-.454 3.451-1.318 4.962-.689 1.207-1.502 2.629-2.051 3.589-.414.725-.64 1.542-.657 2.377-.025 1.171-.057 2.728-.057 2.728z"/><path d="m2.075 26.962s0-1.241 0-2.481c0-1.589.63-3.113 1.752-4.237 3.708-3.719 12.027-12.059 12.171-12.204.001-.002.003-.003.004-.004.048-.049.998-.998.998-.998l3-1-2 3.962s3.79 3.79 5.345 5.345c.37.37.393.961.053 1.358-.342.4-.804.938-1.313 1.534-2.657 3.102-6.215 5.299-10.179 6.283-4.495 1.117-9.831 2.442-9.831 2.442z" stroke-linejoin="round"/><path d="m24 2h6l-3.038 3.038h-2.962z" stroke-linejoin="round"/></g><path d="m25.917 30h-7.917s0-1.459 0-2.615c0-.906.246-1.795.713-2.573.854-1.424 2.317-3.863 3.488-5.814 1.03-1.717.633-3.931-.931-5.182-.812-.649-1.591-1.273-1.991-1.593-.185-.148-.394-.261-.617-.336-.785-.261-2.662-.887-2.662-.887v-1s0-.391 0-1c0-1.857.737-3.637 2.05-4.95s3.093-2.05 4.95-2.05h1c1.591 0 3.117.632 4.243 1.757 1.125 1.126 1.757 2.652 1.757 4.243v8.344c0 1.741-.454 3.451-1.318 4.962-.689 1.207-1.502 2.629-2.051 3.589-.414.725-.64 1.542-.657 2.377-.025 1.171-.057 2.728-.057 2.728z" fill="#fff"/><path d="m15 10s1.254-1.254 2.505-2.505c1.598-1.598 3.764-2.495 6.023-2.495h.472v1.929c0 1.326-.527 2.598-1.464 3.535-.748.748-1.502 1.502-1.502 1.502l-1.034.009-2 1.025z" fill="#d9a243"/><path d="m2.075 26.962s0-1.241 0-2.481c0-1.589.63-3.113 1.752-4.237 3.708-3.719 12.027-12.059 12.171-12.204.001-.002.003-.003.004-.004.048-.049.998-.998.998-.998s.378 1.121.67 1.983c.214.635.634 1.179 1.193 1.547.886.583 2.137 1.407 2.137 1.407l5 2.025s-1.733 1.733-1.973 1.973c-.018.018-.035.037-.052.056-.148.173-.934 1.091-1.89 2.208-2.657 3.102-6.215 5.299-10.179 6.283-4.495 1.117-9.831 2.442-9.831 2.442z" fill="#d9a243"/><g clip-path="url(#b)"><path d="m23 11.975s-5.455 1.841-7.853 2.651c-.73.246-1.392.657-1.937 1.202-2.708 2.708-11.135 11.134-11.135 11.134" fill="none" stroke="#ac5c23" stroke-linejoin="round" stroke-width="2"/></g><path d="m24 2h6l-3.038 3.038h-2.962z" fill="#fff"/><path d="m23 7s-.449 0-1 0c-.53 0-1.039.211-1.414.586s-.586.884-.586 1.414v1h1c.53 0 1.039-.211 1.414-.586s.586-.884.586-1.414c0-.551 0-1 0-1z"/></g></svg>