<svg clip-rule="evenodd" fill-rule="evenodd" stroke-linecap="round" stroke-miterlimit="3" viewBox="0 0 32 32" xmlns="http://www.w3.org/2000/svg" xmlns:xlink="http://www.w3.org/1999/xlink"><clipPath id="a"><path clip-rule="evenodd" d="m0 0h32v32h-32z"/></clipPath><clipPath id="b"><path clip-rule="evenodd" d="m30 13s-1.548-2.477-2.921-4.674c-1.293-2.069-3.561-3.326-6.001-3.326-.202 0-.404 0-.604 0-2.224 0-4.358.884-5.931 2.457-.694.694-1.393 1.393-1.882 1.882-.432.432-.977.731-1.573.864-1.582.351-4.846 1.077-6.708 1.49-.901.201-1.727.654-2.38 1.307s4.896 1.224 7.028 1.757c.645.161 1.265.41 1.842.74 1.875 1.072 6.13 3.503 6.13 3.503s-1.412 1.765-2.558 3.197c-.933 1.167-1.442 2.617-1.442 4.111v3.692h17z"/></clipPath><clipPath id="c"><path clip-rule="evenodd" d="m22.731 17.808c-.232.694-.733 1.267-1.391 1.588-.834.406-2.039.994-3.094 1.508-1.374.671-2.246 2.066-2.246 3.595v.853c0 .172.068.337.19.458.121.122.286.19.458.19h.005c.217 0 .419-.108.539-.288.279-.418.805-1.208 1.219-1.828.386-.579.917-1.048 1.539-1.359 1.947-.974 6.362-3.181 8.211-4.105.514-.258.839-.783.839-1.358 0-.001 0-.001 0-.002 0-.64-.39-1.216-.984-1.454-.584-.233-1.345-.537-2.047-.818-.511-.205-1.084-.189-1.584.042-.5.232-.882.66-1.056 1.182-.205.615-.422 1.267-.598 1.796z"/></clipPath><clipPath id="d"><circle clip-rule="evenodd" cx="19" cy="11" r="2"/></clipPath><metadata/><path d="m0 0h32v32h-32z" fill="none"/><g clip-path="url(#a)"><path d="m30 19h-13s-1.412 1.765-2.558 3.197c-.933 1.167-1.442 2.617-1.442 4.111v3.692h17z" fill="none" stroke="#000" stroke-width="4"/><path d="m30 13s-1.548-2.477-2.921-4.674c-1.293-2.069-3.561-3.326-6.001-3.326-.202 0-.404 0-.604 0-2.224 0-4.358.884-5.931 2.457-.694.694-1.393 1.393-1.882 1.882-.432.432-.977.731-1.573.864-1.582.351-4.846 1.077-6.708 1.49-.901.201-1.727.654-2.38 1.307s4.896 1.224 7.028 1.757c.645.161 1.265.41 1.842.74 1.875 1.072 6.13 3.503 6.13 3.503h13z" fill="none" stroke="#000" stroke-linejoin="round" stroke-width="4"/><path d="m30 13s-1.548-2.477-2.921-4.674c-1.293-2.069-3.561-3.326-6.001-3.326-.202 0-.404 0-.604 0-2.224 0-4.358.884-5.931 2.457-.694.694-1.393 1.393-1.882 1.882-.432.432-.977.731-1.573.864-1.582.351-4.846 1.077-6.708 1.49-.901.201-1.727.654-2.38 1.307s4.896 1.224 7.028 1.757c.645.161 1.265.41 1.842.74 1.875 1.072 6.13 3.503 6.13 3.503s-1.412 1.765-2.558 3.197c-.933 1.167-1.442 2.617-1.442 4.111v3.692h17z" fill="#343434"/><g clip-path="url(#b)"><path d="m17 19s1.459.292 2.801.56c1.256.251 2.503-.472 2.908-1.687.075-.225.124-.373.124-.373l.167 3.5s-.648.324-1.342.671c-1.016.508-1.658 1.547-1.658 2.683v.521c0 1.398.325 2.776.95 4.025.516 1.032 1.05 2.1 1.05 2.1h-10v-12z" fill="#fff"/><path d="m22.731 17.808c-.232.694-.733 1.267-1.391 1.588-.834.406-2.039.994-3.094 1.508-1.374.671-2.246 2.066-2.246 3.595v.853c0 .172.068.337.19.458.121.122.286.19.458.19h.005c.217 0 .419-.108.539-.288.279-.418.805-1.208 1.219-1.828.386-.579.917-1.048 1.539-1.359 1.947-.974 6.362-3.181 8.211-4.105.514-.258.839-.783.839-1.358 0-.001 0-.001 0-.002 0-.64-.39-1.216-.984-1.454-.584-.233-1.345-.537-2.047-.818-.511-.205-1.084-.189-1.584.042-.5.232-.882.66-1.056 1.182-.205.615-.422 1.267-.598 1.796z" fill="#dd7b1a"/><g clip-path="url(#c)"><path d="m22 18 9-3.857v12.857h-16v-9z" fill="#f0c33a"/></g><path d="m5 14.5h1.879c1.358 0 2.66-.539 3.621-1.5h-8.5z" fill="#dd7b1a"/><path d="m0 13h9.307c.461 0 .921.046 1.373.136 1.367.273 4.32.864 4.32.864" fill="none" stroke="#0e0e0e"/></g><circle cx="19" cy="11" fill="#848484" r="2"/><g clip-path="url(#d)"><circle cx="19" cy="11" r="1"/></g></g></svg>