<svg clip-rule="evenodd" fill-rule="evenodd" stroke-linejoin="round" stroke-miterlimit="2" viewBox="0 0 32 32" xmlns="http://www.w3.org/2000/svg" xmlns:xlink="http://www.w3.org/1999/xlink"><clipPath id="a"><path clip-rule="evenodd" d="m0 0h32v32h-32z"/></clipPath><metadata/><path d="m0 0h32v32h-32z" fill="none"/><g clip-path="url(#a)"><path d="m16 3c8.837 0 16 7.163 16 16v.502c0 6.902-5.596 12.498-12.498 12.498h-7.004c-6.902 0-12.498-5.596-12.498-12.498 0-.167 0-.334 0-.502 0-8.837 7.163-16 16-16z"/><path d="m30 19c0-7.732-6.268-14-14-14-7.732 0-14 6.268-14 14v.502c0 5.798 4.7 10.498 10.498 10.498h7.004c5.798 0 10.498-4.7 10.498-10.498z" fill="#fbc546"/><path d="m25.207 12.293c.391.39.391 1.024 0 1.414-1.127 1.128-3.207 3.207-3.207 3.207s-2.08-2.079-3.207-3.207c-.391-.39-.391-1.024 0-1.414 0 0 0-.001.001-.001.39-.39 1.022-.39 1.412 0 .74.739 1.794 1.794 1.794 1.794s1.054-1.055 1.794-1.794c.39-.39 1.022-.39 1.412 0 .001 0 .001.001.001.001z" fill-rule="nonzero"/><path d="m13.207 12.293c.391.39.391 1.024 0 1.414-1.127 1.128-3.207 3.207-3.207 3.207s-2.08-2.079-3.207-3.207c-.391-.39-.391-1.024 0-1.414 0 0 0-.001.001-.001.39-.39 1.022-.39 1.412 0 .74.739 1.794 1.794 1.794 1.794s1.054-1.055 1.794-1.794c.39-.39 1.022-.39 1.412 0 .001 0 .001.001.001.001z" fill-rule="nonzero"/><path d="m23 20c.552 0 1 .448 1 1s-.448 1-1 1h-14c-.552 0-1-.448-1-1s.448-1 1-1z" fill="#593604"/></g></svg>