<svg clip-rule="evenodd" fill-rule="evenodd" stroke-linejoin="round" stroke-miterlimit="2" viewBox="0 0 32 32" xmlns="http://www.w3.org/2000/svg" xmlns:xlink="http://www.w3.org/1999/xlink"><clipPath id="a"><path clip-rule="evenodd" d="m0 0h32v32h-32z"/></clipPath><clipPath id="b"><path clip-rule="evenodd" d="m24 12c0-4.418-3.582-8-8-8-4.418 0-8 3.582-8 8v3c0 4.418 3.582 8 8 8 4.418 0 8-3.582 8-8z"/></clipPath><metadata/><path d="m0 0h32v32h-32z" fill="none"/><g clip-path="url(#a)"><path d="m10.083 23.062c-.312-.229-.611-.477-.895-.741-.94-.875-1.71-1.931-2.253-3.094-.4-.858-.677-1.771-.82-2.707-.07-.461-.105-.925-.114-1.391-.007-1.086-.007-2.172 0-3.258.006-.34.025-.679.064-1.017.085-.741.253-1.473.501-2.177.508-1.444 1.353-2.763 2.448-3.832 1.009-.985 2.224-1.753 3.548-2.238.739-.27 1.51-.452 2.292-.542.338-.039.677-.058 1.017-.064.13-.001.129-.001.258 0 .34.006.679.025 1.017.064.782.089 1.553.272 2.292.542 1.324.485 2.539 1.253 3.548 2.238 1.095 1.069 1.94 2.388 2.448 3.832.248.704.416 1.436.501 2.177.039.338.058.677.064 1.017.007 1.086.007 2.172 0 3.258-.007.382-.031.763-.079 1.142-.104.82-.311 1.627-.614 2.396-.689 1.747-1.876 3.281-3.386 4.393.019.003.037.005.056.008.657.092 1.301.278 1.906.551.564.255 1.094.586 1.572.98 1.112.918 1.927 2.177 2.303 3.569.162.596.239 1.209.243 1.826v2.006h-24c0-.725-.011-1.451.002-2.176.023-.746.156-1.482.408-2.186.172-.482.399-.945.672-1.379.829-1.312 2.094-2.326 3.556-2.849.47-.168.954-.283 1.445-.348z"/><path d="m21.709 25.05c2.425.344 4.291 2.429 4.291 4.95h-20s0-.001 0-.002c0-1.326.527-2.597 1.464-3.534.769-.769 1.763-1.262 2.828-1.414 1.269 1.785 10.148 1.785 11.417 0z" fill="#999"/><path d="m10.292 25.05c.232-.033.468-.05.706-.05h10.002c.241 0 .477.017.709.05-1.269 1.785-3.354 2.95-5.709 2.95s-4.439-1.165-5.708-2.95z" fill="#ffd877"/><path d="m24 12c0-4.418-3.582-8-8-8-4.418 0-8 3.582-8 8v3c0 4.418 3.582 8 8 8 4.418 0 8-3.582 8-8z" fill="#ffd877"/><g clip-path="url(#b)"><path d="m17.028 19c.141.006.278.038.406.099.118.057.224.137.312.235.081.09.145.196.188.309.037.096.059.198.064.301.022.39-.192.765-.539.944-.134.07-.281.105-.431.112-.695.009-1.39.028-2.084-.002-.141-.009-.277-.045-.403-.11-.116-.06-.221-.143-.305-.243-.078-.093-.14-.2-.18-.315-.125-.359-.032-.768.237-1.037.073-.073.157-.134.248-.181.134-.07.281-.105.431-.112.685-.009 1.371-.009 2.056 0z" fill="#dfaa50" fill-rule="nonzero"/><path d="m16.266 16.001c.338.007.673.049 1.002.132.798.202 1.533.632 2.099 1.23.125.131.241.269.347.414.063.085.126.171.174.264.082.158.12.337.11.514-.006.113-.031.224-.074.328-.037.089-.087.173-.148.248-.249.306-.666.438-1.045.332-.171-.048-.328-.141-.451-.269-.045-.047-.083-.098-.12-.151-.002-.003.008.012.006.009-.014-.02-.027-.039-.04-.059-.044-.059-.089-.117-.137-.173-.127-.146-.27-.277-.429-.389-.399-.28-.879-.431-1.366-.431-.28 0-.555-.011-.83.041-.426.08-.828.28-1.15.571-.144.13-.271.279-.38.44l.006-.009c-.027.04-.027.039-.056.078-.031.037-.031.037-.064.073-.127.126-.277.221-.451.269-.109.03-.222.042-.335.035-.41-.027-.77-.313-.89-.706-.038-.123-.052-.254-.04-.382s.048-.254.108-.369c.048-.093.111-.179.174-.264.12-.163.251-.318.393-.463.56-.572 1.277-.985 2.053-1.181.329-.083.664-.125 1.002-.132.177-.002.355-.002.532 0zm5.769-5c.162.008.318.049.46.13.09.051.172.117.242.193.253.276.331.681.198 1.031-.041.107-.1.208-.175.295-.082.096-.183.177-.295.235-.134.071-.28.107-.43.114-1.023.018-2.047.018-3.07 0-.15-.007-.296-.043-.43-.114-.112-.058-.213-.139-.295-.235-.075-.087-.134-.188-.175-.295-.133-.35-.055-.755.198-1.031.07-.076.152-.142.242-.193.142-.081.298-.122.46-.13 1.023-.018 2.047-.018 3.07 0zm-9 0c.15.007.296.043.43.114.112.058.213.139.295.235.075.087.134.188.175.295.037.097.058.2.064.303.019.374-.179.736-.504.921-.142.081-.298.122-.46.13-1.023.018-2.047.018-3.07 0-.15-.007-.296-.043-.43-.114-.112-.058-.213-.139-.295-.235-.075-.087-.134-.188-.175-.295-.037-.097-.058-.2-.064-.303-.019-.374.179-.736.504-.921.142-.081.298-.122.46-.13 1.023-.018 2.047-.018 3.07 0z"/></g></g></svg>