<svg clip-rule="evenodd" fill-rule="evenodd" stroke-linejoin="round" stroke-miterlimit="1.41421" viewBox="0 0 32 32" xmlns="http://www.w3.org/2000/svg" xmlns:xlink="http://www.w3.org/1999/xlink"><clipPath id="a"><path clip-rule="evenodd" d="m0 0h32v32h-32z"/></clipPath><metadata/><path d="m0 0h32v32h-32z" fill="none"/><g clip-path="url(#a)"><path d="m22 4c0-1.061-.421-2.078-1.172-2.828-.75-.751-1.767-1.172-2.828-1.172-3.486 0-8.514 0-12 0-1.061 0-2.078.421-2.828 1.172-.751.75-1.172 1.767-1.172 2.828v24c0 1.061.421 2.078 1.172 2.828.75.751 1.767 1.172 2.828 1.172h12c1.061 0 2.078-.421 2.828-1.172.751-.75 1.172-1.767 1.172-2.828 0-6.148 0-17.852 0-24z"/><path d="m13.757 12 2.122-2.121 5 5 5-5 2.121 2.121v2l-4 4 4 4v2l-2.121 2.121-5-5-5 5-2.122-2.121v-2l4-4-4-4z" fill="none" stroke="#000" stroke-width="4"/><path d="m20 4c0-1.105-.895-2-2-2-3.074 0-8.926 0-12 0-1.105 0-2 .895-2 2v24c0 1.105.895 2 2 2h12c1.105 0 2-.895 2-2 0-5.154 0-18.846 0-24z" fill="#fff"/><path d="m19 4c0-.552-.448-1-1-1-2.577 0-9.423 0-12 0-.552 0-1 .448-1 1v24c0 .552.448 1 1 1h12c.552 0 1-.448 1-1 0-4.134 0-19.866 0-24z" fill="#343434"/><path d="m7 3h.5c.133 0 .26.053.354.146.093.094.146.221.146.354v.5c0 .552.448 1 1 1h6c.552 0 1-.448 1-1 0-.174 0-.347 0-.5 0-.133.053-.26.146-.354.094-.093.221-.146.354-.146h.5v-1h-10z" fill="#fff"/><g fill-rule="nonzero"><path d="m20.879 15.474 5-3.595 2.121.121v2l-5.5 5.5 5.5 2.5v2l-2.121 2.121-5-5-5 5-2.122-2.121v-2l5.5-2.5-5.5-5.5v-2l2.122-.121z" fill="#9a1e24"/><path d="m20.879 14.879 5-5 2.121 2.121-5 5 5 5-2.121 2.121-5-5-5 5-2.122-2.121 5-5-5-5 2.122-2.121z" fill="#e02a33"/></g></g></svg>