<svg clip-rule="evenodd" fill-rule="evenodd" stroke-linejoin="round" stroke-miterlimit="1.5" viewBox="0 0 32 32" xmlns="http://www.w3.org/2000/svg"><metadata/><path d="m0 0h32v32h-32z" fill="none"/><path d="m28.612 4.612c.92.92 1.336 2.229 1.114 3.51-.574 3.203-2.274 9.426-7.226 14.378s-11.175 6.652-14.379 7.222c-1.28.221-2.588-.193-3.506-1.112-.39-.385-.812-.807-1.201-1.196-.375-.375-.586-.884-.586-1.414s.211-1.039.586-1.414c1.215-1.215 2.957-2.957 4.172-4.172.781-.781 2.047-.781 2.828 0 .778.778 1.586 1.586 1.586 1.586s3.096.904 7-3 3-7 3-7-.808-.808-1.586-1.586c-.781-.781-.781-2.047 0-2.828 1.215-1.215 2.957-2.957 4.172-4.172.375-.375.884-.586 1.414-.586s1.039.211 1.414.586c.389.389.811.811 1.198 1.198z" fill="#4c4c4c" stroke="#000" stroke-width="4"/><path d="m28.612 4.612c.92.92 1.336 2.229 1.114 3.51-.574 3.203-2.274 9.426-7.226 14.378s-11.175 6.652-14.379 7.222c-1.28.221-2.588-.193-3.506-1.112-.345-.34-.615-.61-.615-.61l7-7s.509.509.8.8c.13.13.293.222.471.266.841.103 3.51.153 6.729-3.066s3.169-5.888 3.053-6.726c-.043-.176-.133-.337-.261-.465-.283-.3-.792-.809-.792-.809l7-7s.27.27.612.612z" fill="#404040"/><g fill="#666"><path d="m28.586 4.586c.375.375.586.884.586 1.414s-.211 1.039-.586 1.414c-1.215 1.215-2.957 2.957-4.172 4.172-.375.375-.884.586-1.414.586s-1.039-.211-1.414-.586c-.38-.38-.792-.792-1.172-1.172-.375-.375-.586-.884-.586-1.414s.211-1.039.586-1.414c1.215-1.215 2.957-2.957 4.172-4.172.375-.375.884-.586 1.414-.586s1.039.211 1.414.586c.38.38.792.792 1.172 1.172z"/><path d="m11.586 21.586c.375.375.586.884.586 1.414s-.211 1.039-.586 1.414c-1.215 1.215-2.957 2.957-4.172 4.172-.375.375-.884.586-1.414.586s-1.039-.211-1.414-.586c-.38-.38-.792-.792-1.172-1.172-.375-.375-.586-.884-.586-1.414s.211-1.039.586-1.414l4.172-4.172c.375-.375.884-.586 1.414-.586s1.039.211 1.414.586c.38.38.792.792 1.172 1.172z"/></g></svg>