<svg clip-rule="evenodd" fill-rule="evenodd" stroke-linejoin="round" stroke-miterlimit="1.41421" viewBox="0 0 32 32" xmlns="http://www.w3.org/2000/svg" xmlns:xlink="http://www.w3.org/1999/xlink"><clipPath id="a"><path clip-rule="evenodd" d="m0 0h32v32h-32z"/></clipPath><clipPath id="b"><path clip-rule="evenodd" d="m30 4c0-1.105-.895-2-2-2-3.074 0-8.926 0-12 0-1.105 0-2 .895-2 2v24c0 1.105.895 2 2 2h12c1.105 0 2-.895 2-2 0-5.154 0-18.846 0-24z"/></clipPath><clipPath id="c"><path clip-rule="evenodd" d="m29 4c0-.552-.448-1-1-1-2.577 0-9.423 0-12 0-.552 0-1 .448-1 1v24c0 .552.448 1 1 1h12c.552 0 1-.448 1-1 0-4.134 0-19.866 0-24z"/></clipPath><metadata/><path d="m0 0h32v32h-32z" fill="none"/><g clip-path="url(#a)"><path d="m32 4c0-1.061-.421-2.078-1.172-2.828-.75-.751-1.767-1.172-2.828-1.172-3.486 0-8.514 0-12 0-1.061 0-2.078.421-2.828 1.172-.751.75-1.172 1.767-1.172 2.828v24c0 1.061.421 2.078 1.172 2.828.75.751 1.767 1.172 2.828 1.172h12c1.061 0 2.078-.421 2.828-1.172.751-.75 1.172-1.767 1.172-2.828 0-6.148 0-17.852 0-24z"/><path d="m11.379 20h-9.379v-5h9.379l-1.5-1.5v-2l2.121-2.121 7.121 7.121v2l-7.121 7.121-2.121-2.121v-2z" fill="#747474" fill-rule="nonzero" stroke="#000" stroke-width="4"/><path d="m30 4c0-1.105-.895-2-2-2-3.074 0-8.926 0-12 0-1.105 0-2 .895-2 2v24c0 1.105.895 2 2 2h12c1.105 0 2-.895 2-2 0-5.154 0-18.846 0-24z" fill="#fff"/><g clip-path="url(#b)"><path d="m29 4c0-.552-.448-1-1-1-2.577 0-9.423 0-12 0-.552 0-1 .448-1 1v24c0 .552.448 1 1 1h12c.552 0 1-.448 1-1 0-4.134 0-19.866 0-24z" fill="#4961ea"/><g clip-path="url(#c)" fill="#263cbd"><path d="m21 9c0-.265-.105-.52-.293-.707-.187-.188-.442-.293-.707-.293-.871 0-2.129 0-3 0-.265 0-.52.105-.707.293-.188.187-.293.442-.293.707v3c0 .265.105.52.293.707.187.188.442.293.707.293h3c.265 0 .52-.105.707-.293.188-.187.293-.442.293-.707 0-.871 0-2.129 0-3z"/><path d="m21 16c0-.265-.105-.52-.293-.707-.187-.188-.442-.293-.707-.293-.871 0-2.129 0-3 0-.265 0-.52.105-.707.293-.188.187-.293.442-.293.707v3c0 .265.105.52.293.707.187.188.442.293.707.293h3c.265 0 .52-.105.707-.293.188-.187.293-.442.293-.707 0-.871 0-2.129 0-3z"/><path d="m21 23c0-.265-.105-.52-.293-.707-.187-.188-.442-.293-.707-.293-.871 0-2.129 0-3 0-.265 0-.52.105-.707.293-.188.187-.293.442-.293.707v3c0 .265.105.52.293.707.187.188.442.293.707.293h3c.265 0 .52-.105.707-.293.188-.187.293-.442.293-.707 0-.871 0-2.129 0-3z"/><path d="m28 9c0-.265-.105-.52-.293-.707-.187-.188-.442-.293-.707-.293-.871 0-2.129 0-3 0-.265 0-.52.105-.707.293-.188.187-.293.442-.293.707v3c0 .265.105.52.293.707.187.188.442.293.707.293h3c.265 0 .52-.105.707-.293.188-.187.293-.442.293-.707 0-.871 0-2.129 0-3z"/><path d="m28 16c0-.265-.105-.52-.293-.707-.187-.188-.442-.293-.707-.293-.871 0-2.129 0-3 0-.265 0-.52.105-.707.293-.188.187-.293.442-.293.707v3c0 .265.105.52.293.707.187.188.442.293.707.293h3c.265 0 .52-.105.707-.293.188-.187.293-.442.293-.707 0-.871 0-2.129 0-3z"/><path d="m28 23c0-.265-.105-.52-.293-.707-.187-.188-.442-.293-.707-.293-.871 0-2.129 0-3 0-.265 0-.52.105-.707.293-.188.187-.293.442-.293.707v3c0 .265.105.52.293.707.187.188.442.293.707.293h3c.265 0 .52-.105.707-.293.188-.187.293-.442.293-.707 0-.871 0-2.129 0-3z"/></g></g><path d="m13.379 20h-11.379v-2l11.379-1-3.5-3.5v-2l2.121-.121 7.121 5.121v2l-7.121 7.121-2.121-2.121v-2z" fill="#8c1c61" fill-rule="nonzero"/><path d="m17 3h.5c.133 0 .26.053.354.146.093.094.146.221.146.354v.5c0 .552.448 1 1 1h6c.552 0 1-.448 1-1 0-.174 0-.347 0-.5 0-.133.053-.26.146-.354.094-.093.221-.146.354-.146h.5v-1h-10z" fill="#fff"/><path d="m13.379 15-3.5-3.5 2.121-2.121 7.121 7.121-7.121 7.121-2.121-2.121 3.5-3.5h-11.379v-3z" fill="#f229a2" fill-rule="nonzero"/></g></svg>