<svg clip-rule="evenodd" fill-rule="evenodd" stroke-linecap="round" stroke-miterlimit="3" viewBox="0 0 32 32" xmlns="http://www.w3.org/2000/svg" xmlns:xlink="http://www.w3.org/1999/xlink"><clipPath id="a"><path clip-rule="evenodd" d="m0 0h32v32h-32z"/></clipPath><clipPath id="b"><path clip-rule="evenodd" d="m29 30s-.616-8.313-1.164-15.713c-.212-2.859-1.64-5.49-3.923-7.224s-5.2-2.406-8.011-1.843c-.022.004-.044.008-.065.013-2.421.484-4.483 2.059-5.587 4.267-.658 1.316-1.25 2.5-1.25 2.5l-1 2s2.334.778 4.625 1.542c1.1.366 1.987 1.192 2.43 2.264.444 1.071.401 2.282-.118 3.319-.118.238-.237.475-.353.708-1.042 2.083-1.584 4.379-1.584 6.708v1.459z"/></clipPath><clipPath id="c"><path clip-rule="evenodd" d="m10 10h.109c.532 0 1.004.34 1.173.845.295.887.718 2.155.718 2.155s-4.533.755-5.719.953c-.187.031-.371.077-.551.137-.738.246-2.73.91-2.73.91s.769-.769 1.353-1.353c.43-.43.911-.805 1.432-1.118 1.407-.844 4.215-2.529 4.215-2.529z"/></clipPath><metadata/><path d="m0 0h32v32h-32z" fill="none"/><g clip-path="url(#a)"><path d="m29 30s-.616-8.313-1.164-15.713c-.212-2.859-1.64-5.49-3.923-7.224s-5.2-2.406-8.011-1.843c-.022.004-.044.008-.065.013-2.421.484-4.483 2.059-5.587 4.267-.658 1.316-1.25 2.5-1.25 2.5l-1 2s2.334.778 4.625 1.542c1.1.366 1.987 1.192 2.43 2.264.444 1.071.401 2.282-.118 3.319-.118.238-.237.475-.353.708-1.042 2.083-1.584 4.379-1.584 6.708v1.459z" fill="none" stroke="#000" stroke-width="4"/><path d="m10 10 2 3s-.216.432-.447.894c-.339.678-1.032 1.106-1.789 1.106-2.245 0-6.764 0-6.764 0s.769-.769 1.353-1.353c.43-.43.911-.805 1.432-1.118 1.407-.844 4.215-2.529 4.215-2.529z" fill="none" stroke="#000" stroke-linejoin="round" stroke-width="4"/><path d="m29 30s-.616-8.313-1.164-15.713c-.212-2.859-1.64-5.49-3.923-7.224s-5.2-2.406-8.011-1.843c-.022.004-.044.008-.065.013-2.421.484-4.483 2.059-5.587 4.267-.658 1.316-1.25 2.5-1.25 2.5l-1 2s2.334.778 4.625 1.542c1.1.366 1.987 1.192 2.43 2.264.444 1.071.401 2.282-.118 3.319-.118.238-.237.475-.353.708-1.042 2.083-1.584 4.379-1.584 6.708v1.459z" fill="#616a83"/><g clip-path="url(#b)"><path d="m30 28h-6l-13 3 .25-5 12.75-4.5 6 .5z" fill="#8e6595"/><path d="m12 23s6.146-3.309 9.986-5.377c1.789-.963 3.998-.639 5.434.797.842.842 1.58 1.58 1.58 1.58v6h-4s-.468-.468-1.034-1.034c-1.199-1.199-2.985-1.595-4.579-1.016-3.253 1.183-8.387 3.05-8.387 3.05z" fill="#659581"/></g><circle cx="17" cy="11" fill="#de742e" r="2"/><circle cx="17" cy="11" r="1"/><path d="m10 10h.109c.532 0 1.004.34 1.173.845.295.887.718 2.155.718 2.155s-4.533.755-5.719.953c-.187.031-.371.077-.551.137-.738.246-2.73.91-2.73.91s.769-.769 1.353-1.353c.43-.43.911-.805 1.432-1.118 1.407-.844 4.215-2.529 4.215-2.529z" fill="#2e2f34"/><g clip-path="url(#c)"><path d="m6 10s3.142 2.514 4.445 3.556c.351.281.555.706.555 1.155v.164l5 .125v-7h-7z" fill="#eeeeec"/></g><path d="m3 15 3-2h6s-.216.432-.447.894c-.339.678-1.032 1.106-1.789 1.106-.41 0-.764 0-.764 0z" fill="#2e2f34"/></g></svg>