<svg clip-rule="evenodd" fill-rule="evenodd" stroke-linejoin="round" stroke-miterlimit="1.41421" viewBox="0 0 32 32" xmlns="http://www.w3.org/2000/svg" xmlns:xlink="http://www.w3.org/1999/xlink"><clipPath id="a"><path clip-rule="evenodd" d="m0 0h32v32h-32z"/></clipPath><clipPath id="b"><path clip-rule="evenodd" d="m24 30c0-2.761-2.239-5-5-5-1.912 0-4.091 0-6.002 0-1.326 0-2.597.527-3.534 1.464s-1.464 2.208-1.464 3.534v.002z"/></clipPath><clipPath id="c"><path clip-rule="evenodd" d="m22 15c0-1.591-.632-3.117-1.757-4.243-1.126-1.125-2.652-1.757-4.243-1.757-1.591 0-3.117.632-4.243 1.757-1.125 1.126-1.757 2.652-1.757 4.243v2c0 1.591.632 3.117 1.757 4.243 1.126 1.125 2.652 1.757 4.243 1.757 1.591 0 3.117-.632 4.243-1.757 1.125-1.126 1.757-2.652 1.757-4.243 0-.663 0-1.337 0-2z"/></clipPath><clipPath id="d"><path clip-rule="evenodd" d="m10 12s.216.432.447.894c.339.678 1.032 1.106 1.789 1.106h7.528c.757 0 1.45-.428 1.789-1.106.231-.462.447-.894.447-.894h1.062c.66 0 1.255-.397 1.507-1.007.253-.609.113-1.311-.354-1.778-.834-.834-1.725-1.725-2.472-2.472-1.116-1.116-2.63-1.743-4.208-1.743-.975 0-2.095 0-3.07 0-1.578 0-3.092.627-4.208 1.743-.747.747-1.638 1.638-2.472 2.472-.467.467-.607 1.169-.354 1.778.252.61.847 1.007 1.507 1.007z"/></clipPath><metadata/><path d="m0 0h32v32h-32z" fill="none"/><g clip-path="url(#a)"><path d="m8.076 13.897c-.025-.006-.05-.013-.075-.019-.384-.103-.75-.269-1.081-.49-.293-.196-.557-.435-.782-.707-.201-.242-.369-.511-.5-.797-.392-.854-.437-1.846-.122-2.732.119-.335.288-.652.499-.939.081-.109.169-.212.26-.313.863-.897 1.753-1.767 2.638-2.641.33-.318.682-.61 1.06-.869.802-.548 1.704-.948 2.648-1.173.573-.137 1.157-.205 1.745-.216 1.089-.007 2.179-.007 3.268 0 .458.008.913.05 1.364.135.986.184 1.936.557 2.785 1.094.47.297.904.644 1.304 1.029.857.847 1.704 1.703 2.556 2.555.121.127.237.257.341.399.212.286.38.604.5.939.132.373.203.768.209 1.164.005.357-.042.714-.141 1.057-.113.391-.292.764-.527 1.096-.358.505-.845.914-1.404 1.18-.224.106-.459.19-.7.248.046.332.072.667.078 1.003.005.733.005 1.467 0 2.2-.005.296-.023.592-.06.886-.084.68-.257 1.349-.511 1.985-.279.697-.656 1.354-1.117 1.945-.394.506-.85.965-1.353 1.362.316.092.624.206.924.341.564.255 1.094.586 1.572.98 1.134.937 1.959 2.228 2.325 3.653.147.569.217 1.154.221 1.742v2.006h-20c0-.725-.011-1.45.002-2.175.023-.746.156-1.483.408-2.186.523-1.463 1.537-2.728 2.849-3.557.433-.273.897-.499 1.379-.672.134-.048.269-.092.405-.131-.167-.132-.329-.271-.486-.416-.769-.714-1.395-1.579-1.831-2.533-.326-.712-.546-1.471-.652-2.246-.045-.327-.067-.655-.073-.985-.005-.733-.005-1.465 0-2.198.005-.264.019-.527.048-.79.008-.071.017-.143.027-.214z"/><path d="m24 30c0-2.761-2.239-5-5-5-1.912 0-4.091 0-6.002 0-1.326 0-2.597.527-3.534 1.464s-1.464 2.208-1.464 3.534v.002z" fill="#323232"/><g clip-path="url(#b)"><path d="m14 26h4v6h-4z" fill="#fff"/><circle cx="16" cy="24" fill="#43782e" r="4"/></g><path d="m22 15c0-1.591-.632-3.117-1.757-4.243-1.126-1.125-2.652-1.757-4.243-1.757-1.591 0-3.117.632-4.243 1.757-1.125 1.126-1.757 2.652-1.757 4.243v2c0 1.591.632 3.117 1.757 4.243 1.126 1.125 2.652 1.757 4.243 1.757 1.591 0 3.117-.632 4.243-1.757 1.125-1.126 1.757-2.652 1.757-4.243 0-.663 0-1.337 0-2z" fill="#43782e"/><g clip-path="url(#c)"><path d="m5.638 11.884c-.392-.854 20.622.253 20.387.585-.358.505-.845.914-1.404 1.18-.321.152-.665.258-1.017.311-.124.018-.248.029-.374.036-.046.081-.047.08-.097.16-.154.232-.322.451-.518.65-.482.489-1.088.85-1.748 1.039-.315.091-.635.136-.962.153-2.562.045-5.124.002-7.687.002-.275-.005-.547-.03-.817-.088-.762-.162-1.469-.55-2.016-1.106-.229-.232-.421-.491-.592-.769l-.023-.041-.105-.006-.135-.013c-.179-.023-.355-.053-.529-.099-.384-.103-.75-.269-1.081-.49-.293-.196-.557-.435-.782-.707-.201-.242-.369-.511-.5-.797z" fill="#1e6118" fill-rule="nonzero"/><path d="m20 15c0-.552-.448-1-1-1s-1 .448-1 1v1c0 .552.448 1 1 1s1-.448 1-1c0-.322 0-.678 0-1zm-6 0c0-.552-.448-1-1-1s-1 .448-1 1v1c0 .552.448 1 1 1s1-.448 1-1c0-.322 0-.678 0-1z"/></g><path d="m10 12s.216.432.447.894c.339.678 1.032 1.106 1.789 1.106h7.528c.757 0 1.45-.428 1.789-1.106.231-.462.447-.894.447-.894h1.062c.66 0 1.255-.397 1.507-1.007.253-.609.113-1.311-.354-1.778-.834-.834-1.725-1.725-2.472-2.472-1.116-1.116-2.63-1.743-4.208-1.743-.975 0-2.095 0-3.07 0-1.578 0-3.092.627-4.208 1.743-.747.747-1.638 1.638-2.472 2.472-.467.467-.607 1.169-.354 1.778.252.61.847 1.007 1.507 1.007z" fill="#323232"/><g clip-path="url(#d)" fill="#cdad2c"><path d="m17.964 7.555c.204-.307.223-.702.049-1.027s-.513-.528-.882-.528c-.72 0-1.542 0-2.262 0-.369 0-.708.203-.882.528s-.155.72.049 1.027c.245.367.487.729.667 1 .186.278.498.445.832.445h.93c.334 0 .646-.167.832-.445.18-.271.422-.633.667-1z"/><path d="m7 11h18v1h-18z"/></g></g></svg>