<svg clip-rule="evenodd" fill-rule="evenodd" stroke-linejoin="round" stroke-miterlimit="2" viewBox="0 0 32 32" xmlns="http://www.w3.org/2000/svg" xmlns:xlink="http://www.w3.org/1999/xlink"><clipPath id="a"><path clip-rule="evenodd" d="m32 32v-32h-32v32z"/></clipPath><metadata/><path d="m32 32v-32h-32v32z" fill="none"/><g clip-path="url(#a)"><path d="m16.225 5.077.01-.017.01-.02.016-.028.018-.031.01-.016c.011-.02.023-.038.035-.057l.001-.002c.14-.213.316-.394.517-.536l.017-.013.028-.019.028-.018.031-.02c.018-.011.036-.022.054-.032l.004-.002c.087-.05.177-.094.271-.13l.002-.001c.03-.011.061-.022.092-.033l.016-.005.024-.008.027-.008.033-.009.033-.009.033-.008.033-.008.033-.007.033-.006.034-.006.034-.006.034-.004.033-.005.035-.003.034-.003.034-.003.035-.002.024-.001.025-.001h.019l.005-.009c.672-1.463 1.972-2.541 3.533-2.931h.002c.366-.092.739-.076 1.081.031.402-.179.826-.315 1.265-.403.45-.09.747-.149.747-.149 1.039-.208 2.06.431 2.327 1.456 0 0 2.161 8.283 2.815 10.79.087.332.151.669.193 1.009.038.216.057.435.057.655v8.498c0 1.537-1.046 2.876-2.536 3.249-3.768.941-16.951 4.237-22.494 5.623-1.195.299-2.461.03-3.432-.728s-1.538-1.921-1.538-3.153v-3.584c0-1.636.996-3.106 2.514-3.714.925-.37 2.155-.861 2.947-1.179l.433-1.082c1.001-2.502 2.983-4.484 5.485-5.485.223-.089.44-.176.641-.256.342-.137.622-.395.787-.724 1.115-2.23 3.404-6.808 3.404-6.808z"/><path d="m18.495 6.278c.012.645 2.24 5.427 2.24 5.427-.079.242-.18.481-.302.713-1.904 3.607-4.433 8.4-4.433 8.4l-4 .182v-4s1.652-2.478 1.953-2.93c.031-.047.06-.095.085-.145.406-.813 3.962-7.925 3.962-7.925l.495.275z" fill="#8debcf"/><path d="m18.495 6.275.132.074c1.923 1.068 2.768 3.333 2.108 5.356l-1.786-3.572c-.287-.577-.442-1.21-.454-1.855z" fill="#1c7268"/><path d="m25 2.5s-.297.059-.747.149c-1.095.219-2.049.887-2.631 1.84-.581.954-.737 2.107-.43 3.182.837 2.93 1.808 6.329 1.808 6.329v1h5v-.266c0-.487-.062-.973-.185-1.444-.654-2.507-2.815-10.79-2.815-10.79z" fill="#4fc0ae"/><path d="m2 27.938c0 .616.284 1.198.769 1.577.486.379 1.119.513 1.716.364 5.543-1.386 18.726-4.682 22.494-5.624.6-.15 1.021-.689 1.021-1.308 0-2.157 0-7.001 0-8.498 0-.295-.074-.585-.215-.843-1.072-1.965-5.785-10.606-5.785-10.606s-.001 0-.002 0c-.973.244-1.782.915-2.201 1.826s-.402 1.963.046 2.86c1.163 2.325 2.529 5.058 2.993 5.987.108.215.164.452.164.693v2.08c0 .364-.085.724-.248 1.049-.119.238-.263.528-.394.789-.232.464-.613.836-1.082 1.056-.158.074-.336.158-.528.248-.739.347-1.616.199-2.2-.373-.583-.571-.75-1.444-.419-2.191.39-.878.677-1.524.677-1.524l-.806-9.5s-2.289 4.579-3.404 6.808c-.384.768-1.036 1.368-1.833 1.687-.202.08-.418.167-.641.256-1.994.798-3.573 2.377-4.371 4.371-.159.398-.309.773-.433 1.082-.203.508-.606.911-1.114 1.114-.793.317-2.022.809-2.947 1.179-.759.304-1.257 1.039-1.257 1.857z" fill="#8debcf"/></g></svg>