<svg clip-rule="evenodd" fill-rule="evenodd" stroke-linejoin="round" stroke-miterlimit="2" viewBox="0 0 32 32" xmlns="http://www.w3.org/2000/svg" xmlns:xlink="http://www.w3.org/1999/xlink"><clipPath id="a"><path clip-rule="evenodd" d="m32 32v-32h-32v32z"/></clipPath><metadata/><path d="m32 32v-32h-32v32z" fill="none"/><g clip-path="url(#a)"><path d="m23.502 1.134c.43-.201.886-.351 1.359-.446.45-.09.747-.149.747-.149 1.039-.208 2.06.431 2.327 1.456 0 0 2.161 8.283 2.815 10.79.166.636.25 1.291.25 1.949v.266c0 .031-.001.062-.002.093.001.059.002.119.002.178v5.845c0 2.466-1.678 4.615-4.071 5.213-5.176 1.294-16.842 4.211-21.959 5.49-1.195.299-2.461.03-3.432-.728s-1.538-1.921-1.538-3.153v-3.584c0-1.636.996-3.106 2.514-3.714.925-.37 2.155-.861 2.947-1.179l.767-1.916c.728-1.821 1.916-3.421 3.446-4.646l1.662-1.329 1.001-2.003c1.048-2.096 2.593-3.904 4.5-5.266h.001c.287-.205.617-.326.954-.362.716-1.347 1.844-2.493 3.312-3.227.001-.001.002-.001.002-.001.677-.339 1.488-.266 2.094.189l.037.028c.089.067.177.136.265.206z"/><path d="m25.5 6.5c-.245-.488-1.018-2.59-1.398-3l.016-.437.02-.011c.265-.143.546-.256.836-.336.092-.026.185-.048.279-.067.249-.049.498-.099.747-.149l1.78 6.825z" fill="#910427"/><path d="m24.129 3.074c.38.41.731.846 1.049 1.305.311.45.589.921.834 1.41l1.768 3.536 1.035 3.965c.123.471.185.957.185 1.444v.266h-5v-1s-.971-3.399-1.808-6.329c-.307-1.075-.151-2.228.43-3.182.369-.604.887-1.093 1.496-1.426z" fill="#5e0d1c"/><path d="m13 12.8s4.309 3.354 5.593 3.181c-.218.557-.138 1.192.222 1.681.398.54 1.07.805 1.73.684.001-.001.003-.001.005-.001.84-.155 1.45-.888 1.45-1.743v-.647c.849.673 6.993-.948 6.993-.948.005.087.007.176.007.264v5.845c0 1.548-1.054 2.897-2.556 3.273-5.176 1.294-16.842 4.211-21.959 5.49-.597.149-1.23.015-1.716-.364-.485-.379-.769-.961-.769-1.577 0-1.202 0-2.587 0-3.584 0-.818.498-1.553 1.257-1.857.925-.37 2.154-.862 2.947-1.179.508-.203.911-.606 1.114-1.114.209-.52.492-1.229.767-1.917.6-1.499 1.578-2.817 2.839-3.826z" fill="#e91c2a"/><path d="m18.082 5.975c.649 1.317 1.912 7.309 1.912 7.309l-1.321 2.523c-.03.057-.057.115-.08.174-.822.553-1.844.769-2.845.569-.001-.001-.001-.001-.002-.001-1.597-.319-2.746-1.721-2.746-3.349v-.4l-.071.057 1.197-2.395c.902-1.804 2.232-3.361 3.874-4.533z" fill="#910427"/><path d="m18.082 5.975.629.36c2.115 1.208 2.894 3.873 1.764 6.031l-.481.918-1.406-2.833c-.716-1.443-.855-3.022-.506-4.476z" fill="#5e0d1c"/><path d="m22 15.955v-.514c0-.24-.055-.476-.162-.69-.379-.764-1.368-2.758-2.354-4.745-1.373-2.767-.248-6.124 2.515-7.505l.001-.001c1.315.986 2.383 2.266 3.118 3.736 1.028 2.056 2.511 5.022 3.314 6.627.334.669.525 1.399.561 2.144l-.579.579c-.905.905-2.133 1.414-3.414 1.414-1.095 0-2.151-.372-3-1.045z" fill="#910427"/></g></svg>