<svg clip-rule="evenodd" fill-rule="evenodd" stroke-linejoin="round" stroke-miterlimit="2" viewBox="0 0 32 32" xmlns="http://www.w3.org/2000/svg" xmlns:xlink="http://www.w3.org/1999/xlink"><clipPath id="a"><path clip-rule="evenodd" d="m32 32v-32h-32v32z"/></clipPath><metadata/><path d="m32 32v-32h-32v32z" fill="none"/><g clip-path="url(#a)"><path d="m15.486 4.557c.163-.305.398-.555.677-.735l.023-.015c.013-.009.026-.017.039-.025l.03-.017.022-.012.028-.016.017-.009.022-.011.03-.015.017-.008.017-.008.036-.016.012-.006c.321-.138.679-.194 1.042-.149l.036.005.017.003.026.004.035.006.014.003c.15.028.294.074.43.134l.027.012c.007.003.015.007.023.01l.017.009c.762-1.328 1.91-2.453 3.381-3.189.371-.185.602-.301.602-.301.861-.43 1.884-.181 2.46.544.097-.025.196-.047.295-.067.45-.09.747-.149.747-.149 1.039-.208 2.06.431 2.327 1.456 0 0 2.161 8.283 2.815 10.79.166.636.25 1.291.25 1.949v.266c0 .031-.001.062-.002.093.001.059.002.119.002.178v5.845c0 2.466-1.678 4.615-4.071 5.213-5.176 1.294-16.842 4.211-21.959 5.49-1.195.299-2.461.03-3.432-.728s-1.538-1.921-1.538-3.153v-3.584c0-1.636.996-3.106 2.514-3.714.925-.37 2.155-.861 2.947-1.179l.408-1.019c1.003-2.506 2.89-4.558 5.305-5.765.218-.109.394-.285.503-.503 1.103-2.206 3.784-7.568 3.784-7.568l.014-.027.011-.022z"/><path d="m17.808 5.819c.191 1.667 1.915 7.982 1.915 7.982l-2.723 5.199-5 1v-3s.802-2.406.97-2.909c.02-.061.044-.12.073-.177.446-.892 4.207-8.414 4.207-8.414z" fill="#a77f58"/><path d="m17.57 7.86c.483 1.08 1.838 5.31 1.838 5.31-.512.224-1.115.227-1.653-.043-.169-.084-.341-.17-.51-.254-.964-.482-1.354-1.654-.872-2.618z" fill="#795036"/><path d="m17.808 5.819.903.516c2.115 1.208 2.894 3.873 1.764 6.031l-.752 1.435-1.357-2.715c-.818-1.636-1.012-3.507-.558-5.267z" fill="#4e3629"/><path d="m26 2.5s-.297.059-.747.149c-1.095.219-2.049.887-2.631 1.84-.581.954-.737 2.107-.43 3.182.837 2.93 1.808 6.329 1.808 6.329v1h5v-.266c0-.487-.062-.973-.185-1.444-.654-2.507-2.815-10.79-2.815-10.79z" fill="#8d6148"/><path d="m19.673 5.044c.563-1.148 1.493-2.127 2.725-2.743.371-.186.602-.301.602-.301s3.935 7.87 5.432 10.863c.373.748.568 1.572.568 2.408v5.845c0 1.548-1.054 2.897-2.556 3.273-5.176 1.294-16.842 4.211-21.959 5.49-.597.149-1.23.015-1.716-.364-.485-.379-.769-.961-.769-1.577 0-1.202 0-2.587 0-3.584 0-.818.498-1.553 1.257-1.857.925-.37 2.154-.862 2.947-1.179.508-.203.911-.606 1.114-1.114.117-.293.258-.645.408-1.019.821-2.052 2.366-3.731 4.342-4.719h.001c.604-.303 1.094-.793 1.397-1.397.261-.522.534-1.069.534-1.069l5 3.182s-.132.251-.327.625c-.312.594-.257 1.315.142 1.855.398.54 1.07.805 1.73.684.001-.001.003-.001.005-.001.84-.155 1.45-.888 1.45-1.743 0-.432 0-.867 0-1.161 0-.24-.055-.476-.162-.69l-.939-1.893c.327-.039-.412-6.657-1.226-7.814z" fill="#a77f58"/><path d="m19.673 5.044c1.244-.226 2.539.38 3.133 1.569.29.58.598 1.194.888 1.774.721 1.443.136 3.198-1.307 3.919-.174.088-.35.175-.524.263-.311.155-.637.25-.964.289l-1.216-2.451c-.871-1.755-.812-3.73-.01-5.363z" fill="#795036"/></g></svg>