<svg clip-rule="evenodd" fill-rule="evenodd" stroke-linejoin="round" stroke-miterlimit="2" viewBox="0 0 32 32" xmlns="http://www.w3.org/2000/svg" xmlns:xlink="http://www.w3.org/1999/xlink"><clipPath id="a"><path clip-rule="evenodd" d="m32 32v-32h-32v32z"/></clipPath><metadata/><path d="m32 32v-32h-32v32z" fill="none"/><g clip-path="url(#a)"><path d="m18.983 2.514 1.219-2.514h2.44l.728 1.334 1.089-1.334h1.956l3.335 12.785c.087.332.151.669.193 1.009.038.216.057.435.057.655v8.498c0 1.537-1.046 2.876-2.536 3.249-3.768.941-16.951 4.237-22.494 5.623-1.195.299-2.461.03-3.432-.728s-1.538-1.921-1.538-3.153v-3.584c0-1.636.996-3.106 2.514-3.714.925-.37 2.155-.861 2.947-1.179l.433-1.082c1.001-2.502 2.983-4.484 5.485-5.485.34-.136.664-.265.944-.377.086-.035.168-.077.245-.126l4.393-8.785c.078-.153.173-.296.286-.425.293-.335.697-.565 1.134-.647.193-.036.39-.042.586-.022z"/><path d="m18.922 4.975c-.092.25 1.749 6.585 1.749 6.585-.085.427-.231.843-.438 1.236-1.495 2.833-4.233 8.022-4.233 8.022l-4 .182v-4s1.652-2.478 1.953-2.93c.031-.047.06-.095.085-.145.446-.894 4.712-9.425 4.712-9.425l.175.467z" fill="#925adb"/><path d="m20.469 9.098c.108.291.188.591.235.898.08.519.067 1.048-.033 1.564l-1.572-3.162c-.15-.305-.266-.626-.341-.957-.127-.556-.142-1.135-.045-1.696.046-.263.117-.52.209-.77z" fill="#400b71"/><path d="m25 2.5s-1.282 1.569-2.294 2.809c-.763.934-1.063 2.163-.818 3.344.445 2.138 1.112 5.347 1.112 5.347v1h5v-.266c0-.487-.062-.973-.185-1.444-.654-2.507-2.815-10.79-2.815-10.79z" fill="#7b24cc"/><path d="m2 27.938c0 .616.284 1.198.769 1.577.486.379 1.119.513 1.716.364 5.543-1.386 18.726-4.682 22.494-5.624.6-.15 1.021-.689 1.021-1.308 0-2.157 0-7.001 0-8.498 0-.295-.074-.585-.215-.843-1.13-2.072-6.33-11.606-6.33-11.606s-.837 1.726-1.474 3.04c-.447.921-.442 1.997.014 2.913.894 1.799 2.358 4.744 2.843 5.721.107.214.162.451.162.69v2.082c0 .364-.085.724-.248 1.049-.119.238-.263.528-.394.789-.232.464-.613.836-1.082 1.056-.158.074-.336.158-.528.248-.739.347-1.616.199-2.2-.373-.583-.571-.75-1.444-.419-2.191.39-.878.677-1.524.677-1.524l-.056-8s-2.882 3.944-4.156 5.688c-.388.53-.918.941-1.528 1.186-.28.112-.604.241-.944.377-1.994.798-3.573 2.377-4.371 4.371-.159.398-.309.773-.433 1.082-.203.508-.606.911-1.114 1.114-.793.317-2.022.809-2.947 1.179-.759.304-1.257 1.039-1.257 1.857v3.584z" fill="#925adb"/></g></svg>