<svg clip-rule="evenodd" fill-rule="evenodd" stroke-linecap="round" stroke-linejoin="round" stroke-miterlimit="1.5" viewBox="0 0 32 32" xmlns="http://www.w3.org/2000/svg" xmlns:xlink="http://www.w3.org/1999/xlink"><clipPath id="a"><path clip-rule="evenodd" d="m20.464 21.536c.938-.938 1.465-2.21 1.465-3.536s-.527-2.598-1.465-3.536c-.95-.95-1.978-1.978-2.928-2.928-.938-.938-2.21-1.465-3.536-1.465s-2.598.527-3.536 1.465c-1.841 1.841-4.087 4.087-5.928 5.928-.938.938-1.465 2.21-1.465 3.536s.527 2.598 1.465 3.536c.95.95 1.978 1.978 2.928 2.928.938.938 2.21 1.465 3.536 1.465s2.598-.527 3.536-1.465c1.841-1.841 4.087-4.087 5.928-5.928z"/></clipPath><metadata/><g fill="none"><path d="m0 0h32v32h-32z"/><path d="m20.464 21.536c.938-.938 1.465-2.21 1.465-3.536s-.527-2.598-1.465-3.536c-.95-.95-1.978-1.978-2.928-2.928-.938-.938-2.21-1.465-3.536-1.465s-2.598.527-3.536 1.465c-1.841 1.841-4.087 4.087-5.928 5.928-.938.938-1.465 2.21-1.465 3.536s.527 2.598 1.465 3.536c.95.95 1.978 1.978 2.928 2.928.938.938 2.21 1.465 3.536 1.465s2.598-.527 3.536-1.465c1.841-1.841 4.087-4.087 5.928-5.928z" stroke="#000" stroke-width="4"/><path d="m16 11v-7l3 6z" stroke="#000" stroke-width="4"/><path d="m21 16h7l-6-3z" stroke="#000" stroke-width="4"/><path d="m20 10v-7l-3 6z" stroke="#000" stroke-width="4"/><path d="m22 12h7l-6 3z" stroke="#000" stroke-width="4"/><path d="m27 5-8 4 4 4z" stroke="#000" stroke-width="4"/><path d="m20 12s1.02-1.223 2.138-2.565c1.739-2.087 2.077-5.005.863-7.434-.001-.001-.001-.001-.001-.001s-.215.862-.446 1.785c-.363 1.449-1.112 2.773-2.168 3.829-1.111 1.111-2.386 2.386-2.386 2.386z" stroke="#000" stroke-width="4"/><path d="m20 12s1.223-1.02 2.565-2.138c2.087-1.739 5.005-2.077 7.434-.863.001.001.001.001.001.001s-.862.215-1.785.446c-1.449.363-2.773 1.112-3.829 2.168-1.111 1.111-2.386 2.386-2.386 2.386z" stroke="#000" stroke-width="4"/><path d="m19 8.5h5v5l-4 4-5-5z" stroke="#000" stroke-width="4"/></g><path d="m16 13v-9l3 6z" fill="#559d3d"/><path d="m19 16h9l-6-3z" fill="#559d3d"/><path d="m20 10v-7l-3 6z" fill="#559d3d"/><path d="m22 12h7l-6 3z" fill="#559d3d"/><path d="m27 5-8 4 4 4z" fill="#559d3d"/><path d="m20 12s1.02-1.223 2.138-2.565c1.739-2.087 2.077-5.005.863-7.434-.001-.001-.001-.001-.001-.001s-.215.862-.446 1.785c-.363 1.449-1.112 2.773-2.168 3.829-1.111 1.111-2.386 2.386-2.386 2.386z" fill="#559d3d"/><path d="m20 12s1.223-1.02 2.565-2.138c2.087-1.739 5.005-2.077 7.434-.863.001.001.001.001.001.001s-.862.215-1.785.446c-1.449.363-2.773 1.112-3.829 2.168-1.111 1.111-2.386 2.386-2.386 2.386z" fill="#559d3d"/><path d="m19 8.5h5v5l-4 4-5-5z" fill="#559d3d"/><path d="m20.464 21.536c.938-.938 1.465-2.21 1.465-3.536s-.527-2.598-1.465-3.536c-.95-.95-1.978-1.978-2.928-2.928-.938-.938-2.21-1.465-3.536-1.465s-2.598.527-3.536 1.465c-1.841 1.841-4.087 4.087-5.928 5.928-.938.938-1.465 2.21-1.465 3.536s.527 2.598 1.465 3.536c.95.95 1.978 1.978 2.928 2.928.938.938 2.21 1.465 3.536 1.465s2.598-.527 3.536-1.465c1.841-1.841 4.087-4.087 5.928-5.928z" fill="#8a9e14"/><g clip-path="url(#a)" fill="#f7ca27"><path d="m14.596 18.617c.085-.341-.015-.701-.263-.95-.249-.248-.609-.348-.95-.263-.637.159-1.328.332-1.801.45-.358.09-.638.37-.728.728-.118.473-.291 1.164-.45 1.801-.085.341.015.701.263.95.249.248.609.348.95.263.637-.159 1.328-.332 1.801-.45.358-.09.638-.37.728-.728.118-.473.291-1.164.45-1.801z"/><path d="m21.596 11.617c.085-.341-.015-.701-.263-.95-.249-.248-.609-.348-.95-.263-.637.159-1.328.332-1.801.45-.358.09-.638.37-.728.728-.118.473-.291 1.164-.45 1.801-.085.341.015.701.263.95.249.248.609.348.95.263.637-.159 1.328-.332 1.801-.45.358-.09.638-.37.728-.728.118-.473.291-1.164.45-1.801z"/><path d="m7.596 25.617c.085-.341-.015-.701-.263-.95-.249-.248-.609-.348-.95-.263-.637.159-1.328.332-1.801.45-.358.09-.638.37-.728.728-.118.473-.291 1.164-.45 1.801-.085.341.015.701.263.95.249.248.609.348.95.263.637-.159 1.328-.332 1.801-.45.358-.09.638-.37.728-.728.118-.473.291-1.164.45-1.801z"/><path d="m9.596 20.617c.085-.341-.015-.701-.263-.95-.249-.248-.609-.348-.95-.263-.637.159-1.328.332-1.801.45-.358.09-.638.37-.728.728-.118.473-.291 1.164-.45 1.801-.085.341.015.701.263.95.249.248.609.348.95.263.637-.159 1.328-.332 1.801-.45.358-.09.638-.37.728-.728.118-.473.291-1.164.45-1.801z"/><path d="m16.596 13.617c.085-.341-.015-.701-.263-.95-.249-.248-.609-.348-.95-.263-.637.159-1.328.332-1.801.45-.358.09-.638.37-.728.728-.118.473-.291 1.164-.45 1.801-.085.341.015.701.263.95.249.248.609.348.95.263.637-.159 1.328-.332 1.801-.45.358-.09.638-.37.728-.728.118-.473.291-1.164.45-1.801z"/><path d="m17.596 21.617c.085-.341-.015-.701-.263-.95-.249-.248-.609-.348-.95-.263-.637.159-1.328.332-1.801.45-.358.09-.638.37-.728.728-.118.473-.291 1.164-.45 1.801-.085.341.015.701.263.95.249.248.609.348.95.263.637-.159 1.328-.332 1.801-.45.358-.09.638-.37.728-.728.118-.473.291-1.164.45-1.801z"/><path d="m24.596 14.617c.085-.341-.015-.701-.263-.95-.249-.248-.609-.348-.95-.263-.637.159-1.328.332-1.801.45-.358.09-.638.37-.728.728-.118.473-.291 1.164-.45 1.801-.085.341.015.701.263.95.249.248.609.348.95.263.637-.159 1.328-.332 1.801-.45.358-.09.638-.37.728-.728.118-.473.291-1.164.45-1.801z"/><path d="m10.596 28.617c.085-.341-.015-.701-.263-.95-.249-.248-.609-.348-.95-.263-.637.159-1.328.332-1.801.45-.358.09-.638.37-.728.728-.118.473-.291 1.164-.45 1.801-.085.341.015.701.263.95.249.248.609.348.95.263.637-.159 1.328-.332 1.801-.45.358-.09.638-.37.728-.728.118-.473.291-1.164.45-1.801z"/><path d="m12.596 23.617c.085-.341-.015-.701-.263-.95-.249-.248-.609-.348-.95-.263-.637.159-1.328.332-1.801.45-.358.09-.638.37-.728.728-.118.473-.291 1.164-.45 1.801-.085.341.015.701.263.95.249.248.609.348.95.263.637-.159 1.328-.332 1.801-.45.358-.09.638-.37.728-.728.118-.473.291-1.164.45-1.801z"/><path d="m19.596 16.617c.085-.341-.015-.701-.263-.95-.249-.248-.609-.348-.95-.263-.637.159-1.328.332-1.801.45-.358.09-.638.37-.728.728-.118.473-.291 1.164-.45 1.801-.085.341.015.701.263.95.249.248.609.348.95.263.637-.159 1.328-.332 1.801-.45.358-.09.638-.37.728-.728.118-.473.291-1.164.45-1.801z"/><path d="m20.596 24.617c.085-.341-.015-.701-.263-.95-.249-.248-.609-.348-.95-.263-.637.159-1.328.332-1.801.45-.358.09-.638.37-.728.728-.118.473-.291 1.164-.45 1.801-.085.341.015.701.263.95.249.248.609.348.95.263.637-.159 1.328-.332 1.801-.45.358-.09.638-.37.728-.728.118-.473.291-1.164.45-1.801z"/><path d="m27.596 17.617c.085-.341-.015-.701-.263-.95-.249-.248-.609-.348-.95-.263-.637.159-1.328.332-1.801.45-.358.09-.638.37-.728.728-.118.473-.291 1.164-.45 1.801-.085.341.015.701.263.95.249.248.609.348.95.263.637-.159 1.328-.332 1.801-.45.358-.09.638-.37.728-.728.118-.473.291-1.164.45-1.801z"/><path d="m13.596 31.617c.085-.341-.015-.701-.263-.95-.249-.248-.609-.348-.95-.263-.637.159-1.328.332-1.801.45-.358.09-.638.37-.728.728-.118.473-.291 1.164-.45 1.801-.085.341.015.701.263.95.249.248.609.348.95.263.637-.159 1.328-.332 1.801-.45.358-.09.638-.37.728-.728.118-.473.291-1.164.45-1.801z"/><path d="m15.596 26.617c.085-.341-.015-.701-.263-.95-.249-.248-.609-.348-.95-.263-.637.159-1.328.332-1.801.45-.358.09-.638.37-.728.728-.118.473-.291 1.164-.45 1.801-.085.341.015.701.263.95.249.248.609.348.95.263.637-.159 1.328-.332 1.801-.45.358-.09.638-.37.728-.728.118-.473.291-1.164.45-1.801z"/><path d="m22.596 19.617c.085-.341-.015-.701-.263-.95-.249-.248-.609-.348-.95-.263-.637.159-1.328.332-1.801.45-.358.09-.638.37-.728.728-.118.473-.291 1.164-.45 1.801-.085.341.015.701.263.95.249.248.609.348.95.263.637-.159 1.328-.332 1.801-.45.358-.09.638-.37.728-.728.118-.473.291-1.164.45-1.801z"/><path d="m11.596 15.617c.085-.341-.015-.701-.263-.95-.249-.248-.609-.348-.95-.263-.637.159-1.328.332-1.801.45-.358.09-.638.37-.728.728-.118.473-.291 1.164-.45 1.801-.085.341.015.701.263.95.249.248.609.348.95.263.637-.159 1.328-.332 1.801-.45.358-.09.638-.37.728-.728.118-.473.291-1.164.45-1.801z"/><path d="m18.596 8.617c.085-.341-.015-.701-.263-.95-.249-.248-.609-.348-.95-.263-.637.159-1.328.332-1.801.45-.358.09-.638.37-.728.728-.118.473-.291 1.164-.45 1.801-.085.341.015.701.263.95.249.248.609.348.95.263.637-.159 1.328-.332 1.801-.45.358-.09.638-.37.728-.728.118-.473.291-1.164.45-1.801z"/><path d="m4.596 22.617c.085-.341-.015-.701-.263-.95-.249-.248-.609-.348-.95-.263-.637.159-1.328.332-1.801.45-.358.09-.638.37-.728.728-.118.473-.291 1.164-.45 1.801-.085.341.015.701.263.95.249.248.609.348.95.263.637-.159 1.328-.332 1.801-.45.358-.09.638-.37.728-.728.118-.473.291-1.164.45-1.801z"/><path d="m6.596 17.617c.085-.341-.015-.701-.263-.95-.249-.248-.609-.348-.95-.263-.637.159-1.328.332-1.801.45-.358.09-.638.37-.728.728-.118.473-.291 1.164-.45 1.801-.085.341.015.701.263.95.249.248.609.348.95.263.637-.159 1.328-.332 1.801-.45.358-.09.638-.37.728-.728.118-.473.291-1.164.45-1.801z"/><path d="m13.596 10.617c.085-.341-.015-.701-.263-.95-.249-.248-.609-.348-.95-.263-.637.159-1.328.332-1.801.45-.358.09-.638.37-.728.728-.118.473-.291 1.164-.45 1.801-.085.341.015.701.263.95.249.248.609.348.95.263.637-.159 1.328-.332 1.801-.45.358-.09.638-.37.728-.728.118-.473.291-1.164.45-1.801z"/><path d="m8.596 12.617c.085-.341-.015-.701-.263-.95-.249-.248-.609-.348-.95-.263-.637.159-1.328.332-1.801.45-.358.09-.638.37-.728.728-.118.473-.291 1.164-.45 1.801-.085.341.015.701.263.95.249.248.609.348.95.263.637-.159 1.328-.332 1.801-.45.358-.09.638-.37.728-.728.118-.473.291-1.164.45-1.801z"/><path d="m15.596 5.617c.085-.341-.015-.701-.263-.95-.249-.248-.609-.348-.95-.263-.637.159-1.328.332-1.801.45-.358.09-.638.37-.728.728-.118.473-.291 1.164-.45 1.801-.085.341.015.701.263.95.249.248.609.348.95.263.637-.159 1.328-.332 1.801-.45.358-.09.638-.37.728-.728.118-.473.291-1.164.45-1.801z"/><path d="m1.596 19.617c.085-.341-.015-.701-.263-.95-.249-.248-.609-.348-.95-.263-.637.159-1.328.332-1.801.45-.358.09-.638.37-.728.728-.118.473-.291 1.164-.45 1.801-.085.341.015.701.263.95.249.248.609.348.95.263.637-.159 1.328-.332 1.801-.45.358-.09.638-.37.728-.728.118-.473.291-1.164.45-1.801z"/><path d="m3.596 14.617c.085-.341-.015-.701-.263-.95-.249-.248-.609-.348-.95-.263-.637.159-1.328.332-1.801.45-.358.09-.638.37-.728.728-.118.473-.291 1.164-.45 1.801-.085.341.015.701.263.95.249.248.609.348.95.263.637-.159 1.328-.332 1.801-.45.358-.09.638-.37.728-.728.118-.473.291-1.164.45-1.801z"/><path d="m10.596 7.617c.085-.341-.015-.701-.263-.95-.249-.248-.609-.348-.95-.263-.637.159-1.328.332-1.801.45-.358.09-.638.37-.728.728-.118.473-.291 1.164-.45 1.801-.085.341.015.701.263.95.249.248.609.348.95.263.637-.159 1.328-.332 1.801-.45.358-.09.638-.37.728-.728.118-.473.291-1.164.45-1.801z"/></g></svg>