<svg clip-rule="evenodd" fill-rule="evenodd" stroke-linecap="round" stroke-linejoin="round" stroke-miterlimit="1.5" viewBox="0 0 32 32" xmlns="http://www.w3.org/2000/svg" xmlns:xlink="http://www.w3.org/1999/xlink"><clipPath id="a"><path clip-rule="evenodd" d="m2 7h28v15h-28z"/></clipPath><clipPath id="b"><path clip-rule="evenodd" d="m3 8h8v7h-8z"/></clipPath><metadata/><path d="m0 0h32v32h-32z" fill="none"/><path d="m2 7h28v18h-28z" fill="none" stroke="#000" stroke-width="4"/><path d="m29 21h-26l-1 1v3h28v-3z" fill="#e46493"/><path d="m2 7h28v15h-28z" fill="#f59aba"/><g clip-path="url(#a)" fill="none" stroke="#facdde" stroke-linecap="butt" stroke-linejoin="miter"><path d="m31 11s-2.975.992-4.735 1.578c-.821.274-1.709.274-2.53 0-1.021-.34-2.449-.816-3.47-1.156-.821-.274-1.709-.274-2.53 0-1.021.34-2.449.816-3.47 1.156-.821.274-1.709.274-2.53 0-.819-.273-1.735-.578-1.735-.578"/><path d="m31 14s-2.975.992-4.735 1.578c-.821.274-1.709.274-2.53 0-1.021-.34-2.449-.816-3.47-1.156-.821-.274-1.709-.274-2.53 0-1.021.34-2.449.816-3.47 1.156-.821.274-1.709.274-2.53 0-.819-.273-1.735-.578-1.735-.578"/><path d="m31 8s-2.975.992-4.735 1.578c-.821.274-1.709.274-2.53 0-1.021-.34-2.449-.816-3.47-1.156-.821-.274-1.709-.274-2.53 0-1.021.34-2.449.816-3.47 1.156-.821.274-1.709.274-2.53 0-.819-.273-1.735-.578-1.735-.578"/></g><g fill="#f16d9e"><path d="m9 19c0-.552-.448-1-1-1-.871 0-2.129 0-3 0-.552 0-1 .448-1 1v1c0 .552.448 1 1 1h3c.552 0 1-.448 1-1 0-.322 0-.678 0-1z"/><path d="m29 18c0-.552-.448-1-1-1s-1 .448-1 1v2c0 .552.448 1 1 1s1-.448 1-1c0-.611 0-1.389 0-2z"/><path d="m26 18c0-.552-.448-1-1-1s-1 .448-1 1v2c0 .552.448 1 1 1s1-.448 1-1c0-.611 0-1.389 0-2z"/><path d="m23 18c0-.552-.448-1-1-1s-1 .448-1 1v2c0 .552.448 1 1 1s1-.448 1-1c0-.611 0-1.389 0-2z"/></g><path d="m3 8h8v7h-8z" fill="none"/><g clip-path="url(#b)" fill="#fff"><path d="m11 11h-8v-1h8z"/><path d="m11 13h-8v-1h8z"/><path d="m10 7.335v7.665h-1v-4.5l-1.771 4.25h-.458l-1.771-4.25v4.5h-1v-7.665l.706-.141 2.294 5.506 2.294-5.506z"/></g><path d="m20 22-1-1h-6l-1 1v3h8z" fill="#d9d9d9"/><path d="m12 7h8v15h-8z" fill="#fff"/></svg>