<svg clip-rule="evenodd" fill-rule="evenodd" stroke-linecap="round" stroke-linejoin="round" stroke-miterlimit="1.5" viewBox="0 0 32 32" xmlns="http://www.w3.org/2000/svg" xmlns:xlink="http://www.w3.org/1999/xlink"><clipPath id="a"><path clip-rule="evenodd" d="m27.607 7.896c-3.529-2.038-7.532-3.11-11.607-3.11s-8.078 1.072-11.607 3.11l11.607 20.104z"/></clipPath><metadata/><path d="m0 0h32v32h-32z" fill="none"/><path d="m3 5.483c3.953-2.282 8.436-3.483 13-3.483s9.047 1.201 13 3.483v2.017l-13 22.5-13-22.5z" fill="none" stroke="#000" stroke-width="4"/><path d="m3 5.483v2.017l1.393 2.411h23.214l1.393-2.411v-2.017z" fill="#64430d"/><path d="m3 5.483v2.017l1.393 2.411h23.214l1.393-2.411v-2.017z" fill="#64430d"/><path d="m4.393 7.896v2.017l11.607 20.087 11.607-20.087v-2.017z" fill="#9c6815"/><path d="m29 5.483c-3.953-2.282-8.436-3.483-13-3.483s-9.047 1.201-13 3.483c0 0 .412.449.788.858.389.424.605.978.605 1.554v.001h23.214s0 0 0-.001c-.039-.57.165-1.13.56-1.543.395-.412.833-.869.833-.869z" fill="#8b5b13"/><path d="m29 5.483c-3.953-2.282-8.436-3.483-13-3.483s-9.047 1.201-13 3.483c0 0 .412.449.788.858.389.424.605.978.605 1.554v.001h23.214s0 0 0-.001c-.039-.57.165-1.13.56-1.543.395-.412.833-.869.833-.869z" fill="#8b5b13"/><path d="m27.607 7.896c-3.529-2.038-7.532-3.11-11.607-3.11s-8.078 1.072-11.607 3.11l11.607 20.104z" fill="#efb03a"/><g clip-path="url(#a)"><ellipse cx="10.5" cy="17" fill="#db1d1d" rx="3.5" ry="3"/><path d="m10.59 14.001.09.003.089.005.089.007.088.008.087.011.086.012.086.014.085.016.084.018.084.019.082.021.082.023.081.024.08.026.079.028.078.029.077.031.076.032.075.034.074.036.072.037.072.038.07.04.07.041.068.042.066.044.066.045.064.047.063.048.061.049.06.05.059.052.057.052.056.054.054.055.053.056.051.058.05.058.048.059.046.061.045.061.043.062.041.064.04.064.038.065.036.066.034.067.032.067.03.069.029.069.027.07.024.071.023.072.02.072.019.073.016.073.015.074.012.075.01.075.008.076.005.077.004.077.001.077-.001.077-.004.077-.005.077-.008.076-.01.075-.012.075-.015.074-.016.073-.019.073-.02.072-.023.072-.024.071-.027.07-.029.069-.03.069-.032.067-.034.067-.036.066-.038.065-.04.064-.041.064-.043.062-.045.061-.046.061-.048.059-.05.058-.051.058-.053.056-.054.055-.056.054-.057.052-.059.052-.06.05-.061.049-.063.048-.064.047-.066.045-.066.044-.068.042-.07.041-.07.04-.072.038-.072.037-.074.036-.075.034-.076.032-.077.031-.078.029-.079.028-.08.026-.081.024-.082.023-.082.021-.084.019-.084.018-.085.016-.086.014-.086.012-.087.011-.088.008-.089.007-.089.005-.09.003-.09.001-.09-.001-.09-.003-.089-.005-.089-.007-.088-.008-.087-.011-.086-.012-.086-.014-.085-.016-.084-.018-.084-.019-.082-.021-.082-.023-.081-.024-.08-.026-.079-.028-.078-.029-.077-.031-.076-.032-.075-.034-.074-.036-.072-.037-.072-.038-.07-.04-.07-.041-.068-.042-.066-.044-.066-.045-.064-.047-.063-.048-.061-.049-.06-.05-.059-.052-.057-.052-.056-.054-.054-.055-.053-.056-.051-.058-.05-.058-.048-.059-.046-.061-.045-.061-.043-.062-.041-.064-.04-.064-.038-.065-.036-.066-.034-.067-.032-.067-.03-.069-.029-.069-.027-.07-.024-.071-.023-.072-.02-.072-.019-.073-.016-.073-.015-.074-.012-.075-.01-.075-.008-.076-.005-.077-.004-.077-.001-.077.001-.077.004-.077.005-.077.008-.076.01-.075.012-.075.015-.074.016-.073.019-.073.02-.072.023-.072.024-.071.027-.07.029-.069.03-.069.032-.067.034-.067.036-.066.038-.065.04-.064.041-.064.043-.062.045-.061.046-.061.048-.059.05-.058.051-.058.053-.056.054-.055.056-.054.057-.052.059-.052.06-.05.061-.049.063-.048.064-.047.066-.045.066-.044.068-.042.07-.041.07-.04.072-.038.072-.037.074-.036.075-.034.076-.032.077-.031.078-.029.079-.028.08-.026.081-.024.082-.023.082-.021.084-.019.084-.018.085-.016.086-.014.086-.012.087-.011.088-.008.089-.007.089-.005.09-.003.09-.001zm-.159 1-.068.002-.067.004-.067.005-.066.006-.066.008-.065.009-.064.011-.064.012-.063.013-.062.015-.061.015-.061.017-.06.018-.059.02-.059.02-.057.022-.057.022-.056.024-.054.025-.054.026-.053.026-.052.028-.051.029-.05.03-.049.03-.047.032-.047.032-.046.033-.044.034-.043.034-.043.035-.04.036-.04.037-.039.037-.037.038-.036.038-.035.039-.033.039-.033.04-.031.041-.029.04-.029.041-.027.042-.025.042-.025.042-.023.043-.022.042-.021.044-.019.043-.018.044-.017.044-.015.044-.014.044-.013.045-.011.045-.01.045-.009.046-.008.046-.006.046-.005.047-.003.047-.002.047-.001.048.001.048.002.047.003.047.005.047.006.046.008.046.009.046.01.045.011.045.013.045.014.044.015.044.017.044.018.044.019.043.021.043.022.043.023.043.025.042.025.042.027.042.029.041.029.04.031.041.033.04.033.039.035.039.036.038.037.038.039.037.04.037.04.036.043.035.043.034.044.034.046.033.047.032.047.032.049.03.05.03.051.029.052.028.053.026.054.026.054.025.056.024.057.022.057.022.059.02.059.02.06.018.061.017.061.015.062.015.063.013.064.012.064.011.065.009.066.008.066.006.067.005.067.004.068.002.069.001.069-.001.068-.002.067-.004.067-.005.066-.006.066-.008.065-.009.064-.011.064-.012.063-.013.062-.015.061-.015.061-.017.06-.018.059-.02.059-.02.057-.022.057-.022.056-.024.054-.025.054-.026.053-.026.052-.028.051-.029.05-.03.049-.03.047-.032.047-.032.046-.033.044-.034.043-.034.043-.035.04-.036.04-.037.039-.037.037-.038.036-.038.035-.039.033-.04.033-.039.031-.041.029-.04.029-.042.027-.041.025-.042.025-.042.023-.043.022-.043.021-.043.019-.043.018-.044.017-.044.015-.044.014-.044.013-.045.011-.045.01-.045.009-.046.008-.046.006-.046.005-.047.003-.047.002-.047.001-.048-.001-.048-.002-.047-.003-.047-.005-.047-.006-.046-.008-.046-.009-.046-.01-.045-.011-.045-.013-.045-.014-.044-.015-.044-.017-.044-.018-.044-.019-.043-.021-.044-.022-.042-.023-.043-.025-.042-.025-.042-.027-.041-.029-.042-.029-.04-.031-.041-.033-.039-.033-.04-.035-.039-.036-.038-.037-.038-.039-.037-.04-.037-.04-.036-.043-.035-.043-.034-.044-.034-.046-.033-.047-.032-.047-.032-.049-.03-.05-.03-.051-.029-.052-.028-.053-.026-.054-.026-.054-.025-.056-.024-.057-.022-.057-.022-.059-.02-.059-.02-.06-.018-.061-.017-.061-.015-.062-.015-.063-.013-.064-.012-.064-.011-.065-.009-.066-.008-.066-.006-.067-.005-.067-.004-.068-.002-.069-.001z" fill="#b52121"/><ellipse cx="21.5" cy="9" fill="#db1d1d" rx="3.5" ry="3"/><path d="m21.59 6.001.09.003.089.005.089.007.088.008.087.011.086.012.086.014.085.016.084.018.084.019.082.021.082.023.081.024.08.026.079.028.078.029.077.031.076.032.075.034.074.036.072.037.072.038.07.04.07.041.068.042.066.044.066.045.064.047.063.048.061.049.06.05.059.052.057.052.056.054.054.055.053.056.051.058.05.058.048.059.046.061.045.061.043.062.041.064.04.064.038.065.036.066.034.067.032.067.03.069.029.069.027.07.024.071.023.072.02.072.019.073.016.073.015.074.012.075.01.075.008.076.005.077.004.077.001.077-.001.077-.004.077-.005.077-.008.076-.01.075-.012.075-.015.074-.016.073-.019.073-.02.072-.023.072-.024.071-.027.07-.029.069-.03.069-.032.067-.034.067-.036.066-.038.065-.04.064-.041.064-.043.062-.045.061-.046.061-.048.059-.05.058-.051.058-.053.056-.054.055-.056.054-.057.052-.059.052-.06.05-.061.049-.063.048-.064.047-.066.045-.066.044-.068.042-.07.041-.07.04-.072.038-.072.037-.074.036-.075.034-.076.032-.077.031-.078.029-.079.028-.08.026-.081.024-.082.023-.082.021-.084.019-.084.018-.085.016-.086.014-.086.012-.087.011-.088.008-.089.007-.089.005-.09.003-.09.001-.09-.001-.09-.003-.089-.005-.089-.007-.088-.008-.087-.011-.086-.012-.086-.014-.085-.016-.084-.018-.084-.019-.082-.021-.082-.023-.081-.024-.08-.026-.079-.028-.078-.029-.077-.031-.076-.032-.075-.034-.074-.036-.072-.037-.072-.038-.07-.04-.07-.041-.068-.042-.066-.044-.066-.045-.064-.047-.063-.048-.061-.049-.06-.05-.059-.052-.057-.052-.056-.054-.054-.055-.053-.056-.051-.058-.05-.058-.048-.059-.046-.061-.045-.061-.043-.062-.041-.064-.04-.064-.038-.065-.036-.066-.034-.067-.032-.067-.03-.069-.029-.069-.027-.07-.024-.071-.023-.072-.02-.072-.019-.073-.016-.073-.015-.074-.012-.075-.01-.075-.008-.076-.005-.077-.004-.077-.001-.077.001-.077.004-.077.005-.077.008-.076.01-.075.012-.075.015-.074.016-.073.019-.073.02-.072.023-.072.024-.071.027-.07.029-.069.03-.069.032-.067.034-.067.036-.066.038-.065.04-.064.041-.064.043-.062.045-.061.046-.061.048-.059.05-.058.051-.058.053-.056.054-.055.056-.054.057-.052.059-.052.06-.05.061-.049.063-.048.064-.047.066-.045.066-.044.068-.042.07-.041.07-.04.072-.038.072-.037.074-.036.075-.034.076-.032.077-.031.078-.029.079-.028.08-.026.081-.024.082-.023.082-.021.084-.019.084-.018.085-.016.086-.014.086-.012.087-.011.088-.008.089-.007.089-.005.09-.003.09-.001zm-.159 1-.068.002-.067.004-.067.005-.066.006-.066.008-.065.009-.064.011-.064.012-.063.013-.062.015-.061.015-.061.017-.06.018-.059.02-.059.02-.057.022-.057.022-.056.024-.054.025-.054.026-.053.026-.052.028-.051.029-.05.03-.049.03-.048.032-.046.032-.046.033-.044.034-.043.034-.043.035-.04.036-.04.037-.039.037-.037.038-.036.038-.035.039-.033.039-.033.04-.031.041-.029.04-.029.042-.027.041-.025.042-.025.042-.023.043-.022.043-.021.043-.019.043-.018.044-.017.044-.015.044-.014.044-.013.045-.011.045-.01.045-.009.046-.008.046-.006.046-.005.047-.003.047-.002.047-.001.048.001.048.002.047.003.047.005.047.006.046.008.046.009.046.01.045.011.045.013.045.014.044.015.044.017.044.018.044.019.043.021.043.022.043.023.043.025.042.025.042.027.041.029.042.029.04.031.041.033.04.033.039.035.039.036.038.037.038.039.037.04.037.04.036.043.035.043.034.044.034.046.033.046.032.048.032.049.03.05.03.051.029.052.028.053.026.054.026.054.025.056.024.057.022.057.022.059.02.059.02.06.018.06.017.062.015.062.015.063.013.064.012.064.011.065.009.066.008.066.006.067.005.067.004.068.002.069.001.069-.001.068-.002.067-.004.067-.005.066-.006.066-.008.065-.009.064-.011.064-.012.063-.013.062-.015.062-.015.06-.017.06-.018.059-.02.059-.02.057-.022.057-.022.056-.024.054-.025.054-.026.053-.026.052-.028.051-.029.05-.03.049-.03.048-.032.046-.032.046-.033.044-.034.043-.034.043-.035.04-.036.04-.037.039-.037.037-.038.036-.038.035-.039.033-.039.033-.04.031-.041.029-.04.029-.042.027-.041.025-.042.025-.042.023-.043.022-.043.021-.043.019-.043.018-.044.017-.044.015-.044.014-.044.013-.045.011-.045.01-.045.009-.046.008-.046.006-.046.005-.047.003-.047.002-.047.001-.048-.001-.048-.002-.047-.003-.047-.005-.047-.006-.046-.008-.046-.009-.046-.01-.045-.011-.045-.013-.045-.014-.044-.015-.044-.017-.044-.018-.044-.019-.043-.021-.043-.022-.043-.023-.043-.025-.042-.025-.042-.027-.041-.029-.042-.029-.04-.031-.041-.033-.04-.033-.039-.035-.039-.036-.038-.037-.038-.039-.037-.04-.037-.04-.036-.043-.035-.043-.034-.044-.034-.046-.033-.046-.032-.048-.032-.049-.03-.05-.03-.051-.029-.052-.028-.053-.026-.054-.026-.054-.025-.056-.024-.057-.022-.057-.022-.059-.02-.059-.02-.06-.018-.061-.017-.061-.015-.062-.015-.063-.013-.064-.012-.064-.011-.065-.009-.066-.008-.066-.006-.067-.005-.067-.004-.068-.002-.069-.001z" fill="#b52121"/><g fill="#397429"><path d="m14.957 6.611c.073-.076.174-.117.279-.113.106.003.204.052.271.133.252.222.552.586.772.854.165.201.149.495-.037.677-1.011.693-3.189.979-4.51-.03-.106-.096-.163-.235-.156-.379.007-.143.078-.275.194-.36.296-.246.692-.538.941-.721.172-.127.411-.104.557.051.403.244 1.216.148 1.689-.112z"/><path d="m17.434 11.217c.124.062.216.172.256.305.039.133.022.276-.048.395-.853 1.403-2.076 2.301-2.734 2.713-.118.068-.259.085-.39.046-.131-.04-.239-.131-.3-.253-.145-.278-.322-.63-.457-.901-.116-.233-.033-.516.19-.651.879-.569 1.57-1.456 1.915-1.951.139-.207.409-.277.632-.166.264.127.617.304.936.463z"/><path d="m8.351 7.825c.135-.068.293-.07.431-.008.137.063.239.185.276.331.268.73.973 1.519 1.789 1.827.138.037.252.134.31.264.059.13.056.28-.008.408-.119.293-.286.628-.411.878-.113.226-.376.332-.614.248-1.754-.615-2.52-1.842-2.891-2.914-.076-.234.031-.487.25-.597.251-.129.587-.297.868-.437z"/></g><path d="m17.183 16.155c-.087-.257.048-.538.304-.63 1.392-.499 2.607-.402 3.74.192.123.066.213.182.245.319.033.136.006.28-.074.396-.175.265-.405.596-.584.855-.076.11-.193.185-.325.207-.131.023-.267-.007-.376-.085-.527-.34-1.264-.352-1.906-.036-.123.067-.269.077-.399.025-.131-.051-.232-.157-.276-.289-.129-.3-.254-.671-.349-.954z" fill="#306223"/><path d="m17.043 20.377c.127-.041.266-.029.384.034.119.062.207.169.246.297.273.94.868 1.541 1.769 1.814.134.04.244.135.302.261.059.127.061.272.005.399-.119.308-.279.674-.395.939-.096.219-.333.339-.566.288-1.568-.363-2.555-1.429-3.035-3.112-.073-.257.071-.525.325-.607.287-.097.665-.218.965-.313z" fill="#397429"/></g></svg>