<svg clip-rule="evenodd" fill-rule="evenodd" stroke-linecap="round" stroke-miterlimit="3" viewBox="0 0 32 32" xmlns="http://www.w3.org/2000/svg" xmlns:xlink="http://www.w3.org/1999/xlink"><clipPath id="a"><path clip-rule="evenodd" d="m0 0h32v32h-32z"/></clipPath><metadata/><path d="m0 0h32v32h-32z" fill="none"/><g clip-path="url(#a)"><g fill="none" stroke="#000" stroke-width="4"><path d="m3 24.5c0 .828.672 1.5 1.5 1.5s1.5-.672 1.5-1.5c0-3.613 0-12.5 0-12.5h-3z"/><path d="m2 13.5c0 1.381 1.119 2.5 2.5 2.5s2.5-1.119 2.5-2.5c0-2.962 0-7.5 0-7.5h-1v5h-1v-5h-1v5h-1v-5h-1z"/><path d="m27 24.5c0 .828.672 1.5 1.5 1.5s1.5-.672 1.5-1.5c0-3.613 0-12.5 0-12.5h-3z"/><path d="m26 16c0 2.209 1.791 4 4 4v-14c-2.209 0-4 1.791-4 4z"/><circle cx="16" cy="16" r="8"/></g><path d="m3 24.5c0 .828.672 1.5 1.5 1.5s1.5-.672 1.5-1.5c0-3.613 0-12.5 0-12.5h-3z" fill="#cecece"/><path d="m2 13.5c0 1.381 1.119 2.5 2.5 2.5s2.5-1.119 2.5-2.5c0-2.962 0-7.5 0-7.5h-1l-.5 1-.5-1h-1l-.5 1-.5-1h-1z" fill="#cecece"/><path d="m3 6h1v5h-1z" fill="#666"/><path d="m5 6h1v5h-1z" fill="#666"/><path d="m27 24.5c0 .828.672 1.5 1.5 1.5s1.5-.672 1.5-1.5c0-3.613 0-12.5 0-12.5h-3z" fill="#cecece"/><path d="m26 16c0 2.209 1.791 4 4 4v-14c-2.209 0-4 1.791-4 4z" fill="#cecece"/><circle cx="16" cy="16" fill="#fff" r="8"/><path d="m16.077 10 .078.002.077.002.077.004.076.004.076.006.076.006.076.007.076.008.075.009.075.01.074.011.075.012.074.013.073.013.074.015.073.015.072.017.073.017.072.018.071.019.072.02.071.02.07.022.071.022.07.023.069.024.069.025.069.026.068.026.068.028.068.028.067.029.066.029.066.031.066.031.066.032.065.033.064.033.064.035.063.035.064.035.062.037.062.037.062.038.061.039.061.039.06.04.059.041.059.042.059.042.058.043.057.043.057.044.057.045.056.046.055.046.055.047.054.047.053.048.053.049.053.05.052.05.051.05.05.051.05.052.05.053.049.053.048.053.047.054.047.055.046.055.046.056.045.057.044.057.043.057.043.058.042.059.042.059.041.059.04.06.039.061.039.061.038.062.037.062.037.062.035.064.035.063.035.064.033.064.033.065.032.066.031.066.031.066.029.066.029.067.028.068.028.068.026.068.026.069.025.069.024.069.023.07.022.071.022.07.02.071.02.072.019.071.018.072.017.073.017.072.015.073.015.074.013.073.013.074.012.075.011.074.01.075.009.075.008.076.007.076.006.076.006.076.004.076.004.077.002.077.002.078v.077.077l-.002.078-.002.077-.004.077-.004.076-.006.076-.006.076-.007.076-.008.076-.009.075-.01.075-.011.074-.012.075-.013.074-.013.073-.015.074-.015.073-.017.072-.017.073-.018.072-.019.071-.02.072-.02.071-.022.07-.022.071-.023.07-.024.069-.025.069-.026.069-.026.068-.028.068-.028.068-.029.067-.029.066-.031.066-.031.066-.032.066-.033.065-.033.064-.035.064-.035.063-.035.064-.037.062-.037.062-.038.062-.039.061-.039.061-.04.06-.041.059-.042.059-.042.059-.043.058-.043.057-.044.057-.045.057-.046.056-.046.055-.047.055-.047.054-.048.053-.049.053-.05.053-.05.052-.05.051-.051.05-.052.05-.053.05-.053.049-.053.048-.054.047-.055.047-.055.046-.056.046-.057.045-.057.044-.057.043-.058.043-.059.042-.059.042-.059.041-.06.04-.061.039-.061.039-.062.038-.062.037-.062.037-.064.035-.063.035-.064.035-.064.033-.065.033-.066.032-.066.031-.066.031-.066.029-.067.029-.068.028-.068.028-.068.026-.069.026-.069.025-.069.024-.07.023-.071.022-.07.022-.071.02-.072.02-.071.019-.072.018-.073.017-.072.017-.073.015-.074.015-.073.013-.074.013-.075.012-.074.011-.075.01-.075.009-.076.008-.076.007-.076.006-.076.006-.076.004-.077.004-.077.002-.078.002h-.077-.077l-.078-.002-.077-.002-.077-.004-.076-.004-.076-.006-.076-.006-.076-.007-.076-.008-.075-.009-.075-.01-.074-.011-.075-.012-.074-.013-.073-.013-.074-.015-.073-.015-.072-.017-.073-.017-.072-.018-.071-.019-.072-.02-.071-.02-.07-.022-.071-.022-.07-.023-.069-.024-.069-.025-.069-.026-.068-.026-.068-.028-.068-.028-.067-.029-.066-.029-.066-.031-.066-.031-.066-.032-.065-.033-.064-.033-.064-.035-.063-.035-.064-.035-.062-.037-.062-.037-.062-.038-.061-.039-.061-.039-.06-.04-.059-.041-.059-.042-.059-.042-.058-.043-.057-.043-.057-.044-.057-.045-.056-.046-.055-.046-.055-.047-.054-.047-.053-.048-.053-.049-.053-.05-.052-.05-.051-.05-.05-.051-.05-.052-.05-.053-.049-.053-.048-.053-.047-.054-.047-.055-.046-.055-.046-.056-.045-.057-.044-.057-.043-.057-.043-.058-.042-.059-.042-.059-.041-.059-.04-.06-.039-.061-.039-.061-.038-.062-.037-.062-.037-.062-.035-.064-.035-.063-.035-.064-.033-.064-.033-.065-.032-.066-.031-.066-.031-.066-.029-.066-.029-.067-.028-.068-.028-.068-.026-.068-.026-.069-.025-.069-.024-.069-.023-.07-.022-.071-.022-.07-.02-.071-.02-.072-.019-.071-.018-.072-.017-.073-.017-.072-.015-.073-.015-.074-.013-.073-.013-.074-.012-.075-.011-.074-.01-.075-.009-.075-.008-.076-.007-.076-.006-.076-.006-.076-.004-.076-.004-.077-.002-.077-.002-.078v-.077-.077l.002-.078.002-.077.004-.077.004-.076.006-.076.006-.076.007-.076.008-.076.009-.075.01-.075.011-.074.012-.075.013-.074.013-.073.015-.074.015-.073.017-.072.017-.073.018-.072.019-.071.02-.072.02-.071.022-.07.022-.071.023-.07.024-.069.025-.069.026-.069.026-.068.028-.068.028-.068.029-.067.029-.066.031-.066.031-.066.032-.066.033-.065.033-.064.035-.064.035-.063.035-.064.037-.062.037-.062.038-.062.039-.061.039-.061.04-.06.041-.059.042-.059.042-.059.043-.058.043-.057.044-.057.045-.057.046-.056.046-.055.047-.055.047-.054.048-.053.049-.053.05-.053.05-.052.05-.051.051-.05.052-.05.053-.05.053-.049.053-.048.054-.047.055-.047.055-.046.056-.046.057-.045.057-.044.057-.043.058-.043.059-.042.059-.042.059-.041.06-.04.061-.039.061-.039.062-.038.062-.037.062-.037.064-.035.063-.035.064-.035.064-.033.065-.033.066-.032.066-.031.066-.031.066-.029.067-.029.068-.028.068-.028.068-.026.069-.026.069-.025.069-.024.07-.023.071-.022.07-.022.071-.02.072-.02.071-.019.072-.018.073-.017.072-.017.073-.015.074-.015.073-.013.074-.013.075-.012.074-.011.075-.01.075-.009.076-.008.076-.007.076-.006.076-.006.076-.004.077-.004.077-.002.078-.002h.077zm-.142 1-.064.002-.065.002-.064.003-.064.003-.063.005-.064.005-.063.006-.063.007-.062.007-.063.009-.062.009-.062.01-.061.01-.062.012-.061.012-.061.013-.06.013-.06.014-.06.015-.06.016-.059.017-.059.017-.059.018-.059.018-.058.02-.058.02-.057.02-.057.022-.057.022-.057.022-.056.024-.055.024-.056.025-.055.025-.055.026-.054.027-.054.027-.054.028-.054.028-.052.029-.053.03-.052.031-.052.031-.051.031-.051.033-.051.032-.05.034-.049.034-.05.034-.048.036-.049.035-.048.037-.047.037-.048.037-.046.038-.046.039-.046.039-.045.039-.045.04-.044.041-.044.041-.043.042-.043.042-.042.043-.042.043-.041.044-.041.044-.04.045-.039.045-.039.046-.039.046-.038.046-.037.048-.037.047-.037.048-.035.048-.035.049-.035.049-.034.05-.034.05-.032.051-.033.051-.031.051-.031.052-.031.052-.03.053-.029.053-.028.053-.028.054-.028.054-.026.054-.026.055-.025.055-.025.055-.024.056-.024.057-.022.056-.022.057-.022.057-.02.057-.02.058-.02.058-.018.059-.018.059-.017.059-.017.059-.016.06-.015.06-.014.06-.014.06-.012.061-.012.061-.012.061-.01.062-.01.062-.009.062-.009.062-.007.063-.007.063-.006.063-.005.064-.005.063-.003.064-.003.064-.002.065-.002.064v.065.065l.002.064.002.065.003.064.003.064.005.063.005.064.006.063.007.063.007.063.009.062.009.062.01.062.01.062.012.061.012.061.013.061.013.06.014.06.015.06.016.06.017.059.017.059.018.059.018.059.02.058.02.058.02.057.022.057.022.057.022.056.024.057.024.056.025.055.025.055.026.055.026.054.028.054.028.054.028.053.029.053.03.053.031.052.031.052.031.051.033.051.032.051.034.05.034.049.035.05.035.049.035.048.037.048.037.047.037.048.038.046.039.046.039.046.039.045.04.045.041.044.041.044.042.043.042.043.043.042.043.042.044.041.044.041.045.04.045.039.046.039.046.039.047.038.047.037.047.037.048.037.049.035.048.035.05.035.049.034.05.034.051.032.051.033.051.031.052.031.052.031.053.03.053.029.053.028.054.028.054.027.054.027.055.026.055.025.055.025.056.024.056.024.057.022.057.022.057.022.057.02.058.02.058.02.059.018.059.018.059.017.059.017.06.016.06.015.06.014.06.014.061.012.061.012.061.012.062.01.062.01.062.009.062.009.063.007.063.007.063.006.064.005.063.005.064.003.064.003.065.002.064.002h.065.065l.064-.002.065-.002.064-.003.064-.003.063-.005.064-.005.063-.006.063-.007.063-.007.062-.009.062-.009.062-.01.062-.01.061-.012.061-.012.061-.012.06-.014.06-.014.06-.015.06-.016.059-.017.059-.017.059-.018.059-.018.058-.02.058-.02.057-.02.057-.022.057-.022.057-.022.056-.024.056-.024.055-.024.055-.026.055-.026.054-.027.055-.027.053-.028.053-.028.053-.029.053-.03.052-.031.052-.031.051-.031.051-.033.051-.032.05-.034.049-.034.05-.035.049-.035.048-.035.048-.037.047-.037.047-.037.047-.038.046-.039.046-.039.045-.039.045-.041.044-.04.044-.041.043-.042.043-.042.042-.043.042-.043.041-.044.041-.044.04-.045.039-.045.039-.046.039-.046.038-.047.037-.047.037-.047.037-.048.035-.048.036-.049.034-.05.034-.049.033-.05.033-.051.033-.051.031-.051.031-.052.031-.052.03-.053.029-.053.028-.053.028-.054.028-.054.026-.054.026-.055.026-.055.024-.055.024-.056.024-.056.022-.057.022-.057.022-.057.02-.057.02-.058.02-.058.018-.059.018-.059.017-.059.017-.059.016-.06.015-.06.014-.06.013-.06.013-.061.012-.061.012-.061.01-.062.01-.062.009-.062.009-.062.007-.063.007-.063.006-.063.005-.064.005-.063.003-.064.003-.064.002-.065.002-.064v-.065-.065l-.002-.064-.002-.065-.003-.064-.003-.064-.005-.063-.005-.064-.006-.063-.007-.063-.007-.063-.009-.062-.009-.062-.01-.062-.01-.062-.012-.061-.012-.061-.013-.061-.013-.06-.014-.06-.015-.06-.016-.06-.017-.059-.017-.059-.018-.059-.018-.059-.02-.058-.02-.058-.02-.057-.022-.057-.022-.057-.022-.057-.024-.056-.024-.056-.024-.055-.026-.055-.026-.055-.026-.054-.028-.054-.028-.054-.028-.053-.029-.053-.03-.053-.031-.052-.031-.052-.031-.051-.033-.051-.032-.051-.034-.05-.034-.049-.034-.05-.036-.049-.035-.048-.037-.048-.037-.047-.037-.047-.038-.047-.039-.046-.039-.046-.039-.045-.04-.045-.041-.044-.041-.044-.042-.043-.042-.043-.043-.042-.043-.042-.044-.041-.044-.041-.045-.04-.045-.039-.046-.039-.046-.039-.047-.038-.046-.037-.048-.037-.048-.037-.048-.035-.049-.036-.05-.034-.049-.034-.05-.034-.051-.032-.051-.033-.051-.031-.052-.031-.052-.031-.053-.03-.053-.029-.053-.028-.054-.028-.054-.027-.054-.027-.055-.026-.055-.026-.056-.024-.055-.024-.056-.024-.057-.022-.057-.022-.057-.022-.057-.02-.058-.02-.059-.02-.058-.018-.059-.018-.059-.017-.059-.017-.06-.016-.06-.015-.06-.014-.06-.013-.061-.013-.061-.012-.062-.012-.061-.01-.062-.01-.062-.009-.063-.009-.062-.007-.063-.007-.063-.006-.064-.005-.063-.005-.064-.003-.064-.003-.065-.002-.064-.002h-.065-.065z" fill="#ccc"/></g></svg>