<svg clip-rule="evenodd" fill-rule="evenodd" stroke-linejoin="round" stroke-miterlimit="1.41421" viewBox="0 0 32 32" xmlns="http://www.w3.org/2000/svg" xmlns:xlink="http://www.w3.org/1999/xlink"><clipPath id="a"><path clip-rule="evenodd" d="m0 0v32h32v-32z"/></clipPath><metadata/><path d="m0 0v32h32v-32z" fill="none"/><g clip-path="url(#a)"><path d="m8 0c-4.418 0-8 3.582-8 8v16c0 4.418 3.582 8 8 8h16c4.418 0 8-3.582 8-8 0-4.887 0-11.113 0-16 0-4.418-3.582-8-8-8-4.887 0-11.113 0-16 0z"/><path d="m30 8c0-1.591-.632-3.117-1.757-4.243-1.126-1.125-2.652-1.757-4.243-1.757-4.724 0-11.276 0-16 0-1.591 0-3.117.632-4.243 1.757-1.125 1.126-1.757 2.652-1.757 4.243v16c0 1.591.632 3.117 1.757 4.243 1.126 1.125 2.652 1.757 4.243 1.757h16c1.591 0 3.117-.632 4.243-1.757 1.125-1.126 1.757-2.652 1.757-4.243 0-4.724 0-11.276 0-16z" fill="#fff"/><path d="m24.162 21.51c.174.309.171.688-.009.995-.179.307-.508.495-.863.495-3.436 0-11.144 0-14.58 0-.355 0-.684-.188-.863-.495-.18-.307-.183-.686-.009-.995 1.705-3.03 5.559-9.882 7.29-12.961.178-.314.511-.509.872-.509s.694.195.872.509c1.731 3.079 5.585 9.931 7.29 12.961z" fill="#333"/></g></svg>