<svg clip-rule="evenodd" fill-rule="evenodd" stroke-linejoin="round" stroke-miterlimit="1.41421" viewBox="0 0 32 32" xmlns="http://www.w3.org/2000/svg" xmlns:xlink="http://www.w3.org/1999/xlink"><clipPath id="a"><path clip-rule="evenodd" d="m0 0h32v32h-32z"/></clipPath><metadata/><path d="m0 0h32v32h-32z" fill="none"/><g clip-path="url(#a)"><path d="m32 8c0-4.418-3.582-8-8-8-4.887 0-11.113 0-16 0-4.418 0-8 3.582-8 8v16c0 4.418 3.582 8 8 8h16c4.418 0 8-3.582 8-8 0-4.887 0-11.113 0-16z"/><path d="m24 30c1.591 0 3.117-.632 4.243-1.757 1.125-1.126 1.757-2.652 1.757-4.243 0-4.724 0-11.276 0-16 0-1.591-.632-3.117-1.757-4.243-1.126-1.125-2.652-1.757-4.243-1.757-4.724 0-11.276 0-16 0-1.591 0-3.117.632-4.243 1.757-1.125 1.126-1.757 2.652-1.757 4.243v16c0 1.591.632 3.117 1.757 4.243 1.126 1.125 2.652 1.757 4.243 1.757z" fill="#fff"/><g fill="#333"><path d="m20 10c0-.552-.448-1-1-1-.611 0-1.389 0-2 0-.552 0-1 .448-1 1v12c0 .552.448 1 1 1h2c.552 0 1-.448 1-1 0-2.577 0-9.423 0-12z"/><path d="m26 10c0-.552-.448-1-1-1-.611 0-1.389 0-2 0-.552 0-1 .448-1 1v12c0 .552.448 1 1 1h2c.552 0 1-.448 1-1 0-2.577 0-9.423 0-12z"/><path d="m7.504 22.123c-.309.18-.692.181-1.002.003-.311-.178-.502-.509-.502-.867 0-2.69 0-7.828 0-10.518 0-.358.191-.689.502-.867.31-.178.693-.177 1.002.003 2.313 1.35 6.716 3.918 9.015 5.259.307.179.496.508.496.864s-.189.685-.496.864c-2.299 1.341-6.702 3.909-9.015 5.259z"/></g></g></svg>