<svg clip-rule="evenodd" fill-rule="evenodd" stroke-linejoin="round" stroke-miterlimit="2" viewBox="0 0 32 32" xmlns="http://www.w3.org/2000/svg" xmlns:xlink="http://www.w3.org/1999/xlink"><clipPath id="a"><path clip-rule="evenodd" d="m0 .017h32v32h-32z"/></clipPath><metadata/><path d="m0 .017h32v32h-32z" fill="none"/><g clip-path="url(#a)"><path d="m16 .017c4.243 0 8.313 1.685 11.314 4.686 3 3.001 4.686 7.07 4.686 11.314v2c0 7.732-6.268 14-14 14-1.325 0-2.675 0-4 0-7.732 0-14-6.268-14-14v-2c0-8.837 7.163-16 16-16z"/><path d="m2 16.017c0-3.713 1.475-7.274 4.101-9.9 2.625-2.625 6.186-4.1 9.899-4.1 7.732 0 14 6.268 14 14v2c0 6.627-5.373 12-12 12h-4c-6.627 0-12-5.373-12-12z" fill="#fbc546"/><path d="m16 22.219-2.445 1.63c-.46.306-1.081.182-1.387-.278-.306-.459-.182-1.08.277-1.386l3-2c.336-.224.774-.224 1.11 0l3 2c.459.306.583.927.277 1.386-.306.46-.927.584-1.387.278z" fill="#593604"/><path d="m21.173 8.132c-.085.259.48 1.338 1.53 1.987.983.608 2.284.606 2.277.551l2.02 1.347v1.5c0 1.193-.474 2.338-1.318 3.182s-1.989 1.318-3.182 1.318-2.338-.474-3.182-1.318-1.318-1.989-1.318-3.182c0-.661 0-1.342 0-2.002 0-1.193.474-2.337 1.317-3.181.304-.303.646-.559 1.016-.762z" fill="#fff"/><path d="m21.173 8.132 3.807 2.538c.013.114.02.229.02.345v1.987c0 .795-.316 1.558-.878 2.12s-1.325.878-2.12.878h-.004c-.795 0-1.558-.316-2.12-.878s-.878-1.325-.878-2.12c0-.65 0-1.337 0-1.987 0-.795.316-1.558.878-2.12.363-.363.81-.624 1.295-.763z"/><path d="m10.827 8.132c.085.259-.48 1.338-1.53 1.987-.983.608-2.284.606-2.277.551l-2.02 1.347v1.5c0 1.193.474 2.338 1.318 3.182s1.989 1.318 3.182 1.318 2.338-.474 3.182-1.318 1.318-1.989 1.318-3.182c0-.661 0-1.342 0-2.002 0-1.193-.474-2.337-1.317-3.181-.304-.303-.646-.559-1.016-.762z" fill="#fff"/><path d="m10.827 8.132-3.807 2.538c-.013.114-.02.229-.02.345v1.987c0 .795.316 1.558.878 2.12s1.325.878 2.12.878h.004c.795 0 1.558-.316 2.12-.878s.878-1.325.878-2.12c0-.65 0-1.337 0-1.987 0-.795-.316-1.558-.878-2.12-.363-.363-.81-.624-1.295-.763z"/></g></svg>