<svg clip-rule="evenodd" fill-rule="evenodd" stroke-linejoin="round" stroke-miterlimit="2" viewBox="0 0 32 32" xmlns="http://www.w3.org/2000/svg" xmlns:xlink="http://www.w3.org/1999/xlink"><clipPath id="a"><path clip-rule="evenodd" d="m0 0h32v32h-32z"/></clipPath><clipPath id="b"><path clip-rule="evenodd" d="m21 13v15.5c0 .828-.672 1.5-1.5 1.5s-1.5-.672-1.5-1.5v-10.5h-1v.5c0 .828-.672 1.5-1.5 1.5s-1.5-.672-1.5-1.5v-1.5h-1v1.5c0 .828-.672 1.5-1.5 1.5s-1.5-.672-1.5-1.5v-2.5h-1v1.5c0 .398-.158.779-.439 1.061-.282.281-.663.439-1.061.439s-.779-.158-1.061-.439c-.281-.282-.439-.663-.439-1.061v-6.475c0-4.984 4.041-9.025 9.025-9.025h.968c2.762 0 5.287 1.561 6.523 4.031 2.221 4.443 5.484 10.969 5.484 10.969-2.209 1.105-4.895.209-6-2-.551-1.101-1-2-1-2z"/></clipPath><metadata/><path d="m0 0h32v32h-32z" fill="none"/><g clip-path="url(#a)"><path d="m23.024 18.73c.012 3.286.017 6.572-.025 9.857-.014.374-.077.74-.204 1.093-.34.95-1.093 1.722-2.035 2.086-.376.145-.771.218-1.173.233-.087.001-.087.001-.174 0-.402-.015-.797-.088-1.173-.233-.455-.176-.871-.447-1.215-.791-.385-.385-.677-.859-.848-1.375-.116-.352-.172-.717-.177-1.087v-6.551c-.137.02-.274.032-.413.037-.087.001-.087.001-.174 0-.402-.015-.797-.088-1.173-.234-.262-.101-.511-.233-.741-.394-.252.176-.527.32-.819.424-.352.126-.72.19-1.093.204-.087.001-.087.001-.174 0-.402-.015-.797-.088-1.173-.234-.509-.196-.969-.512-1.334-.916-.032-.034-.062-.069-.092-.105-.044.018-.089.035-.134.051-.352.126-.72.19-1.093.204-.087.001-.087.001-.174 0-.402-.015-.797-.088-1.173-.234-.942-.363-1.695-1.135-2.035-2.085-.135-.376-.2-.77-.205-1.168v-4.512h.017c.003-.434.006-1.047.006-2v-.006l.001-.136c.007-.374.028-.747.07-1.119.099-.86.299-1.708.597-2.521.594-1.622 1.574-3.094 2.838-4.271 1.104-1.027 2.417-1.824 3.838-2.325.775-.272 1.58-.457 2.395-.55.372-.043.745-.064 1.119-.071.432-.003.863-.003 1.295 0 .273.008.545.022.816.051.536.056 1.066.16 1.584.308 1.689.485 3.226 1.453 4.392 2.767.322.363.615.751.876 1.159.118.184.227.373.333.563.076.142.075.141.148.284 2.127 4.254 4.254 8.507 6.381 12.761l-1.801.901c-.141.068-.282.134-.427.194-.343.14-.698.251-1.06.331-.361.08-.726.123-1.095.145-.157.005-.157.005-.315.007-.158-.003-.316-.007-.474-.019-.369-.028-.737-.089-1.096-.18-.415-.105-.814-.255-1.202-.436-.107-.053-.107-.052-.212-.107z"/><path d="m21 13v15.5c0 .828-.672 1.5-1.5 1.5s-1.5-.672-1.5-1.5v-10.5h-1v.5c0 .828-.672 1.5-1.5 1.5s-1.5-.672-1.5-1.5v-1.5h-1v1.5c0 .828-.672 1.5-1.5 1.5s-1.5-.672-1.5-1.5v-2.5h-1v1.5c0 .398-.158.779-.439 1.061-.282.281-.663.439-1.061.439s-.779-.158-1.061-.439c-.281-.282-.439-.663-.439-1.061v-6.475c0-4.984 4.041-9.025 9.025-9.025h.968c2.762 0 5.287 1.561 6.523 4.031 2.221 4.443 5.484 10.969 5.484 10.969-2.209 1.105-4.895.209-6-2-.551-1.101-1-2-1-2z" fill="#8debcf"/><g clip-path="url(#b)"><path d="m21 18c0 .552.448 1 1 1s1-.448 1-1c0-1.537 0-4.463 0-6 0-.552-.448-1-1-1s-1 .448-1 1z" fill="#4fc0ae"/></g></g></svg>