<svg clip-rule="evenodd" fill-rule="evenodd" stroke-linejoin="round" stroke-miterlimit="2" viewBox="0 0 32 32" xmlns="http://www.w3.org/2000/svg" xmlns:xlink="http://www.w3.org/1999/xlink"><clipPath id="a"><path clip-rule="evenodd" d="m0 0h32v32h-32z"/></clipPath><clipPath id="b"><path clip-rule="evenodd" d="m28.5 18s-3.614-7.229-5.984-11.969c-1.236-2.47-3.761-4.031-6.523-4.031-.316 0-.639 0-.968 0-4.984 0-9.025 4.041-9.025 9.025v4.975h5v1h3v1h7v-5s.633 1.266 1.262 2.525c.759 1.517 2.309 2.475 4.006 2.475z"/></clipPath><metadata/><path d="m0 0h32v32h-32z" fill="none"/><g clip-path="url(#a)"><path d="m16 32v-9.038c-.137.02-.274.032-.413.037-.087.001-.087.001-.174 0-.402-.015-.797-.088-1.173-.234-.262-.101-.511-.233-.741-.394-.229.16-.476.293-.739.394-.376.146-.771.219-1.173.234-.087.001-.087.001-.174 0-.431-.016-.853-.1-1.252-.265-.524-.217-.985-.561-1.345-.991-.045.018-.09.036-.136.052-.352.126-.719.19-1.093.204-.087.001-.087.001-.174 0-.402-.015-.797-.088-1.173-.234-.482-.186-.92-.479-1.276-.852-.355-.373-.625-.824-.787-1.313-.116-.352-.172-.717-.177-1.087v-1.034c0-2.15-.012-4.301 0-6.451v-.028l.001-.117c.003-.142.007-.283.013-.424.021-.372.057-.742.113-1.111.124-.809.338-1.604.638-2.366.586-1.485 1.498-2.836 2.653-3.938 1.093-1.041 2.398-1.855 3.816-2.374.946-.347 1.94-.562 2.945-.638.262-.02.524-.029.787-.032h1.033.003c.16.001.159.001.319.006.272.012.543.031.814.064.533.066 1.06.178 1.574.335 1.731.53 3.29 1.569 4.444 2.964.31.374.59.773.838 1.192.11.186.211.376.31.568l7.435 14.871c-1.861 0-3.722.016-5.583-.001-.114-.003-.114-.003-.229-.008-.414-.026-.824-.083-1.227-.184-.577-.144-1.126-.371-1.645-.661l-.041-.024c.01 2.383.017 4.766-.012 7.149-.01.263-.039.523-.097.78-.114.509-.329.994-.629 1.421-.131.185-.278.357-.436.519l-3.009 3.009z"/><path d="m28.5 18s-3.614-7.229-5.984-11.969c-1.236-2.47-3.761-4.031-6.523-4.031-.316 0-.639 0-.968 0-4.984 0-9.025 4.041-9.025 9.025v4.975h5v1h3v1h7v-5s.633 1.266 1.262 2.525c.759 1.517 2.309 2.475 4.006 2.475z" fill="#21e2a8"/><g clip-path="url(#b)"><path d="m21 20.5h2v-8.5c0-.552-.448-1-1-1s-1 .448-1 1z" fill="#2bac85"/></g><g fill="#21e2a8"><path d="m14 19.5c0 .828.672 1.5 1.5 1.5s1.5-.672 1.5-1.5c0-1.777 0-4.5 0-4.5h-3z"/><path d="m10 19.5c0 .828.672 1.5 1.5 1.5s1.5-.672 1.5-1.5c0-1.777 0-4.5 0-4.5h-3z"/><path d="m6 18.5c0 .398.158.779.439 1.061.282.281.663.439 1.061.439s.779-.158 1.061-.439c.281-.282.439-.663.439-1.061v-3.5h-3z"/><path d="m18 15v15s1.541-1.541 2.414-2.414c.375-.375.586-.884.586-1.414 0-2.715 0-11.172 0-11.172"/></g></g></svg>