<svg clip-rule="evenodd" fill-rule="evenodd" stroke-linejoin="round" stroke-miterlimit="2" viewBox="0 0 32 32" xmlns="http://www.w3.org/2000/svg" xmlns:xlink="http://www.w3.org/1999/xlink"><clipPath id="a"><path clip-rule="evenodd" d="m0 0h32v32h-32z"/></clipPath><metadata/><path d="m0 0h32v32h-32z" fill="none"/><g clip-path="url(#a)"><path d="m28.699 6.947.029.045s.697 1.195 1.469 2.519c1.538 2.637 2.166 5.707 1.788 8.736v.001c-.075.595-.412 1.125-.919 1.444s-1.13.395-1.698.205h-.001c-1.573-.524-3.047-1.298-4.367-2.288v2.735c0 4.152-1.649 8.134-4.586 11.07-.475.476-1.158.68-1.816.545-.659-.135-1.205-.592-1.455-1.216 0 0-.382-.956-.812-2.031-.663-1.657-1.083-3.397-1.249-5.167-.646.297-1.355.455-2.08.455-.001 0-.003 0-.004 0-1.326 0-2.597-.527-3.534-1.464-.168-.168-.323-.347-.464-.535-.86.645-1.911.999-2.998.999h-.004c-1.326 0-2.597-.527-3.534-1.464s-1.464-2.208-1.464-3.534v-5.002c0-3.448 1.37-6.754 3.808-9.192s5.744-3.808 9.192-3.808h1.789c5.168 0 9.994 2.58 12.864 6.875l.011.016z"/><path d="m19 30c2.561-2.561 4-6.035 4-9.657v-1.343l-3-1-3 1v2.802c0 2.113.403 4.206 1.188 6.167.43 1.076.812 2.031.812 2.031zm-5.998-8h-.002c-.796 0-1.559-.316-2.121-.879-.563-.562-.879-1.325-.879-2.121 0-.574 0-1 0-1l1-1h4l1 1v1.002c0 .795-.316 1.558-.878 2.12s-1.325.878-2.12.878zm-7-1h-.004c-.795 0-1.558-.316-2.12-.878s-.878-1.325-.878-2.12v-1.002l1-1h4l1 1v1.002c0 .795-.316 1.558-.878 2.12s-1.325.878-2.12.878zm23.998-3.001v.001c-1.973-.658-3.765-1.765-5.236-3.236-.437-.437-.764-.764-.764-.764v-4l3-2s.697 1.195 1.469 2.519c1.317 2.258 1.855 4.886 1.531 7.48z" fill="#bf7a2c"/><g fill="#f2c181"><path d="m23 19h-6v-2h-1v1h-6v-1h-7v-4c0-2.917 1.159-5.715 3.222-7.778s4.861-3.222 7.778-3.222h1.789c4.505 0 8.712 2.252 11.211 6l-3 6-1-1z"/><path d="m3 14.5h6v2.5h-6z"/></g></g></svg>