<svg clip-rule="evenodd" fill-rule="evenodd" stroke-linejoin="round" stroke-miterlimit="2" viewBox="0 0 32 32" xmlns="http://www.w3.org/2000/svg" xmlns:xlink="http://www.w3.org/1999/xlink"><clipPath id="a"><path clip-rule="evenodd" d="m32 0v32h-32v-32z"/></clipPath><metadata/><path d="m32 0v32h-32v-32z" fill="none"/><g clip-path="url(#a)"><path d="m6.947 3.301.045-.029s1.195-.697 2.519-1.469c2.637-1.538 5.707-2.166 8.736-1.788h.001c.595.075 1.125.412 1.444.919s.395 1.13.205 1.698v.001c-.524 1.573-1.298 3.047-2.288 4.367h2.735c4.152 0 8.134 1.649 11.07 4.586.476.475.68 1.158.545 1.816-.135.659-.592 1.205-1.216 1.455 0 0-.956.382-2.031.812-1.657.663-3.397 1.083-5.167 1.249.297.646.455 1.355.455 2.08v.004c0 1.326-.527 2.597-1.464 3.534-.168.168-.347.323-.535.464.645.86.999 1.911.999 2.998v.004c0 1.326-.527 2.597-1.464 3.534s-2.208 1.464-3.534 1.464h-5.002c-3.448 0-6.754-1.37-9.192-3.808s-3.808-5.744-3.808-9.192c0-.604 0-1.204 0-1.789 0-5.168 2.58-9.994 6.875-12.864l.016-.011.056-.035z"/><path d="m18.002 29h-1.002l-1-1v-4l1-1h1.002c.795 0 1.558.316 2.12.878s.878 1.325.878 2.12v.004c0 .795-.316 1.558-.878 2.12s-1.325.878-2.12.878zm.998-7h-1l-1-1v-4l1-1h1.002c.795 0 1.558.316 2.12.878s.878 1.325.878 2.12v.002c0 .796-.316 1.559-.879 2.121-.562.563-1.325.879-2.121.879zm1.343-13c3.622 0 7.096 1.439 9.657 4s-.955.382-2.031.812c-1.961.785-4.054 1.188-6.167 1.188h-2.802l-1-3 1-3zm-6.343-1h-4l-2-3s1.195-.697 2.519-1.469c2.258-1.317 4.886-1.855 7.48-1.531h.001c-.658 1.973-1.765 3.765-3.236 5.236z" fill="#bf7a2c"/><g fill="#f2c181"><path d="m19 9v6h-2v1h1v6h-1v7h-4c-2.917 0-5.715-1.159-7.778-3.222s-3.222-4.861-3.222-7.778c0-.604 0-1.204 0-1.789 0-4.505 2.252-8.712 6-11.211l6 3-1 1z"/><path d="m17 29v-6h-2.5v6z"/></g></g></svg>