<svg clip-rule="evenodd" fill-rule="evenodd" stroke-linejoin="round" stroke-miterlimit="2" viewBox="0 0 32 32" xmlns="http://www.w3.org/2000/svg" xmlns:xlink="http://www.w3.org/1999/xlink"><clipPath id="a"><path clip-rule="evenodd" d="m32 0v32h-32v-32z"/></clipPath><clipPath id="b"><path clip-rule="evenodd" d="m18 3.5s-7.229 3.614-11.969 5.984c-2.47 1.236-4.031 3.761-4.031 6.523v.968c0 4.984 4.041 9.025 9.025 9.025h4.975v-5h1v-3h1v-7h-5s1.266-.633 2.525-1.262c1.517-.759 2.475-2.309 2.475-4.006 0-1.154 0-2.232 0-2.232z"/></clipPath><metadata/><path d="m32 0v32h-32v-32z" fill="none"/><g clip-path="url(#a)"><path d="m32 16h-9.038c.02.137.032.274.037.413.001.087.001.087 0 .174-.015.402-.088.797-.234 1.173-.101.262-.233.511-.394.741.16.229.293.476.394.739.146.376.219.771.234 1.173.001.087.001.087 0 .174-.016.431-.1.853-.265 1.252-.217.524-.561.985-.991 1.345.018.045.036.09.052.136.126.352.19.719.204 1.093.001.087.001.087 0 .174-.015.402-.088.797-.234 1.173-.186.482-.479.92-.852 1.276-.373.355-.824.625-1.313.787-.352.116-.717.172-1.087.177h-1.034c-2.15 0-4.301.012-6.451 0h-.028l-.117-.001c-.142-.003-.283-.007-.424-.013-.372-.021-.742-.057-1.111-.113-.809-.124-1.604-.338-2.366-.638-1.485-.586-2.836-1.498-3.938-2.653-1.041-1.093-1.855-2.398-2.374-3.816-.347-.946-.562-1.94-.638-2.945-.02-.262-.029-.524-.032-.787v-1.033-.003c.001-.16.001-.159.006-.319.012-.272.031-.543.064-.814.066-.533.178-1.06.335-1.574.53-1.731 1.569-3.29 2.964-4.444.374-.31.773-.59 1.192-.838.186-.11.376-.211.568-.31l14.871-7.435c0 1.861.016 3.722-.001 5.583-.003.114-.003.114-.008.229-.026.414-.083.824-.184 1.227-.144.577-.371 1.126-.661 1.645l-.024.041c2.383-.01 4.766-.017 7.149.012.263.01.523.039.78.097.509.114.994.329 1.421.629.185.131.357.278.519.436l3.009 3.009v2.828z"/><path d="m18 3.5s-7.229 3.614-11.969 5.984c-2.47 1.236-4.031 3.761-4.031 6.523v.968c0 4.984 4.041 9.025 9.025 9.025h4.975v-5h1v-3h1v-7h-5s1.266-.633 2.525-1.262c1.517-.759 2.475-2.309 2.475-4.006 0-1.154 0-2.232 0-2.232z" fill="#43782e"/><g clip-path="url(#b)"><path d="m20.5 11v-2h-8.5c-.552 0-1 .448-1 1s.448 1 1 1z" fill="#1e6118"/></g><g fill="#43782e"><path d="m19.5 18c.828 0 1.5-.672 1.5-1.5s-.672-1.5-1.5-1.5c-1.777 0-4.5 0-4.5 0v3z"/><path d="m19.5 22c.828 0 1.5-.672 1.5-1.5s-.672-1.5-1.5-1.5c-1.777 0-4.5 0-4.5 0v3z"/><path d="m18.5 26c.398 0 .779-.158 1.061-.439.281-.282.439-.663.439-1.061s-.158-.779-.439-1.061c-.282-.281-.663-.439-1.061-.439h-3.5v3z"/><path d="m15 14h15s-1.541-1.541-2.414-2.414c-.375-.375-.884-.586-1.414-.586-2.715 0-11.172 0-11.172 0"/></g></g></svg>