<svg clip-rule="evenodd" fill-rule="evenodd" stroke-linejoin="round" stroke-miterlimit="2" viewBox="0 0 32 32" xmlns="http://www.w3.org/2000/svg" xmlns:xlink="http://www.w3.org/1999/xlink"><clipPath id="a"><path clip-rule="evenodd" d="m32 0v32h-32v-32z"/></clipPath><clipPath id="b"><path clip-rule="evenodd" d="m13 11h15.5c.828 0 1.5.672 1.5 1.5s-.672 1.5-1.5 1.5h-10.5v1h.5c.828 0 1.5.672 1.5 1.5s-.672 1.5-1.5 1.5h-1.5v1h1.5c.828 0 1.5.672 1.5 1.5s-.672 1.5-1.5 1.5h-2.5v1h1.5c.398 0 .779.158 1.061.439.281.282.439.663.439 1.061s-.158.779-.439 1.061c-.282.281-.663.439-1.061.439h-6.475c-4.984 0-9.025-4.041-9.025-9.025 0-.329 0-.652 0-.968 0-2.762 1.561-5.287 4.031-6.523 4.443-2.221 10.969-5.484 10.969-5.484 1.105 2.209.209 4.895-2 6-1.101.551-2 1-2 1z"/></clipPath><metadata/><path d="m32 0v32h-32v-32z" fill="none"/><g clip-path="url(#a)"><path d="m18.73 8.976c3.286-.012 6.572-.017 9.857.025.374.014.74.077 1.093.204.95.34 1.722 1.093 2.086 2.035.145.376.218.771.233 1.173.001.087.001.087 0 .174-.015.402-.088.797-.233 1.173-.176.455-.447.871-.791 1.215-.385.385-.859.677-1.375.848-.352.116-.717.172-1.087.177h-6.551c.02.137.032.274.037.413.001.087.001.087 0 .174-.015.402-.088.797-.234 1.173-.101.262-.233.511-.394.741.176.252.32.527.424.819.126.352.19.72.204 1.093.001.087.001.087 0 .174-.015.402-.088.797-.234 1.173-.196.509-.512.969-.916 1.334-.034.032-.069.062-.105.092.018.044.035.089.051.134.126.352.19.72.204 1.093.001.087.001.087 0 .174-.015.402-.088.797-.234 1.173-.363.942-1.135 1.695-2.085 2.035-.376.135-.77.2-1.168.205h-4.512v-.017c-.434-.003-1.047-.006-2-.006h-.006l-.136-.001c-.374-.007-.747-.028-1.119-.07-.86-.099-1.708-.299-2.521-.597-1.622-.594-3.094-1.574-4.271-2.838-1.027-1.104-1.824-2.417-2.325-3.838-.272-.775-.457-1.58-.55-2.395-.043-.372-.064-.745-.071-1.119-.003-.432-.003-.863 0-1.295.008-.273.022-.545.051-.816.056-.536.16-1.066.308-1.584.485-1.689 1.453-3.226 2.767-4.392.363-.322.751-.615 1.159-.876.184-.118.373-.227.563-.333.142-.076.141-.075.284-.148 4.254-2.127 8.507-4.254 12.761-6.381l.901 1.801c.068.141.134.282.194.427.14.343.251.698.331 1.06.08.361.123.726.145 1.095.005.157.005.157.007.315-.003.158-.007.316-.019.474-.028.369-.089.737-.18 1.096-.105.415-.255.814-.436 1.202-.053.107-.052.107-.107.212z"/><path d="m13 11h15.5c.828 0 1.5.672 1.5 1.5s-.672 1.5-1.5 1.5h-10.5v1h.5c.828 0 1.5.672 1.5 1.5s-.672 1.5-1.5 1.5h-1.5v1h1.5c.828 0 1.5.672 1.5 1.5s-.672 1.5-1.5 1.5h-2.5v1h1.5c.398 0 .779.158 1.061.439.281.282.439.663.439 1.061s-.158.779-.439 1.061c-.282.281-.663.439-1.061.439h-6.475c-4.984 0-9.025-4.041-9.025-9.025 0-.329 0-.652 0-.968 0-2.762 1.561-5.287 4.031-6.523 4.443-2.221 10.969-5.484 10.969-5.484 1.105 2.209.209 4.895-2 6-1.101.551-2 1-2 1z" fill="#ef8e10"/><g clip-path="url(#b)"><path d="m18 11c.552 0 1-.448 1-1s-.448-1-1-1c-1.537 0-4.463 0-6 0-.552 0-1 .448-1 1s.448 1 1 1z" fill="#cc600f"/></g></g></svg>