<svg clip-rule="evenodd" fill-rule="evenodd" stroke-linecap="round" stroke-miterlimit="1.5" viewBox="0 0 32 32" xmlns="http://www.w3.org/2000/svg" xmlns:xlink="http://www.w3.org/1999/xlink"><clipPath id="a"><path clip-rule="evenodd" d="m0 0h32v32h-32z"/></clipPath><metadata/><path d="m0 0h32v32h-32z" fill="none"/><g clip-path="url(#a)"><path d="m11 30c-2.761 0-5-2.239-5-5 0-2.724 0-6.136 0-9.108 0-4.15 2.562-7.868 6.44-9.345 3.754-1.43 8.327-3.172 11.334-4.318.667-.254 1.418-.134 1.972.316.554.449.827 1.16.716 1.865-.322 2.039-.746 4.724-1.152 7.291-.835 5.29-3.845 9.989-8.301 12.959-1.168.779-2.009 1.34-2.009 1.34 0 2.209-1.791 4-4 4z" fill="none" stroke="#000" stroke-width="4"/><path d="m11 30c-2.761 0-5-2.239-5-5 0-2.724 0-6.136 0-9.108 0-4.15 2.562-7.868 6.44-9.345 3.754-1.43 8.327-3.172 11.334-4.318.667-.254 1.418-.134 1.972.316.554.449.827 1.16.716 1.865-.322 2.039-.746 4.724-1.152 7.291-.835 5.29-3.845 9.989-8.301 12.959-1.168.779-2.009 1.34-2.009 1.34 0 2.209-1.791 4-4 4z" fill="#ffc20b"/><path d="m9 16v4c0 2.209 1.791 4 4 4h1l6-6 2-3 2-8-2-1-10 3-3 5z" fill="#ce8d15"/><path d="m12 17c0-1.657-1.343-3-3-3-1.063 0-2 0-2 0v6h2c1.657 0 3-1.343 3-3z" fill="#ffc20b"/><g fill="none" stroke-width="2"><path d="m14 23s2.884-2.523 5.188-4.54c1.821-1.593 3.048-3.756 3.48-6.136.346-1.899.751-4.126 1.022-5.621.064-.352-.064-.71-.336-.942-.273-.231-.647-.299-.984-.179-2.094.748-5.794 2.069-8.603 3.073-2.259.806-3.767 2.946-3.767 5.345s.808.808 1.586 1.586c.781.781.781 2.047 0 2.828-.778.778-1.586 1.586-1.586 1.586" stroke="#765018"/><path d="m14 12h.002c2.208 0 3.998 1.79 3.998 3.998v.002" stroke="#ffc20b"/></g></g></svg>