<svg clip-rule="evenodd" fill-rule="evenodd" stroke-linejoin="round" stroke-miterlimit="2" viewBox="0 0 32 32" xmlns="http://www.w3.org/2000/svg" xmlns:xlink="http://www.w3.org/1999/xlink"><clipPath id="a"><path clip-rule="evenodd" d="m0 0h32v32h-32z"/></clipPath><metadata/><path d="m0 0h32v32h-32z" fill="none"/><g clip-path="url(#a)"><path d="m8 13.368v-8.868c0-2.484 2.016-4.5 4.5-4.5s4.5 2.016 4.5 4.5v3.112c.321-.073.656-.112 1-.112 1.624 0 3.047.862 3.839 2.152.714-.191 1.485-.209 2.252-.018 1.536.384 2.688 1.516 3.167 2.91.153.022.306.052.458.09 2.41.603 3.877 3.048 3.275 5.457 0 0-.569 2.276-1.178 4.709-1.351 5.407-6.211 9.2-11.785 9.197l-.408-.001c-.04.003-.08.004-.12.004h-1.238c-5.596 0-10.564-3.581-12.333-8.889-1.248-3.743-2.493-7.479-2.493-7.479-.203-.609-.101-1.28.275-1.801.376-.522.979-.831 1.622-.831h2.338l.28.005c.709.037 1.396.16 2.049.363z"/><path d="m14 10h5l1 1 3 1 2 1 2 2v5h-13z" fill="#3a2305"/><path d="m10 4.5c.001-.349.073-.696.215-1.015.132-.298.324-.569.56-.795.226-.215.491-.387.78-.505.264-.108.547-.17.832-.183.274-.012.549.021.812.097.234.068.457.17.661.303.452.293.803.732.988 1.238.101.276.151.567.152.86v10c.001.067.013.133.039.195.081.191.279.315.487.304.058-.003.115-.016.169-.038.055-.024.106-.058.15-.099.046-.044.084-.098.111-.156.029-.065.043-.135.044-.206v-3.999c.456-.608 1.183-1.001 2-1.001 1.252 0 2.291.923 2.472 2.125l-.96 4.265c-.015.07-.016.141-.002.211.013.063.038.123.074.176.034.051.076.095.125.13.047.034.1.059.156.075.201.055.42-.022.542-.191.039-.055.065-.116.081-.181l.905-4.025c.593-.496 1.407-.712 2.213-.51 1.116.278 1.868 1.268 1.894 2.365l-.985 3.939c-.015.065-.02.132-.009.198.032.206.194.373.398.414.057.011.116.012.173.003.06-.009.117-.029.17-.059.056-.032.105-.075.145-.125.045-.056.075-.12.093-.189l.902-3.606c.276-.027.561-.007.846.064 1.338.335 2.153 1.693 1.818 3.032 0 0-.569 2.275-1.178 4.706-1.129 4.513-5.185 7.679-9.838 7.679h-.531l-.004.004h-1.238c-4.735 0-8.939-3.03-10.436-7.521-1.247-3.743-2.493-7.479-2.493-7.479h2.338c.814 0 1.604.165 2.329.47.19.577 1.818 1.921 2 1.376z" fill="#7c6112"/><path d="m10 19.71c0 .117-.02.234-.061.344-.074.202-.214.378-.395.495-.082.053-.171.094-.264.121-.106.031-.216.044-.325.039-.114-.005-.227-.03-.333-.073-.115-.047-.222-.116-.312-.202-.094-.09-.171-.199-.224-.318-.057-.128-.086-.266-.086-.406v-4.24c.751.317 1.433.784 2 1.376z" fill="#64420e"/></g></svg>