<svg clip-rule="evenodd" fill-rule="evenodd" stroke-linejoin="round" stroke-miterlimit="2" viewBox="0 0 32 32" xmlns="http://www.w3.org/2000/svg" xmlns:xlink="http://www.w3.org/1999/xlink"><clipPath id="a"><path clip-rule="evenodd" d="m0 0v32h32v-32z"/></clipPath><metadata/><path d="m0 0v32h32v-32z" fill="none"/><g clip-path="url(#a)"><path d="m25.109 3.336.016.011c4.295 2.87 6.875 7.696 6.875 12.864v1.789c0 3.448-1.37 6.754-3.808 9.192s-5.744 3.808-9.192 3.808h-5.002c-1.326 0-2.597-.527-3.534-1.464s-1.464-2.208-1.464-3.534v-.004c0-1.087.354-2.138.999-2.998-.188-.141-.367-.296-.535-.464-.937-.937-1.464-2.208-1.464-3.534 0-.001 0-.003 0-.004 0-.725.158-1.434.455-2.08-1.77-.166-3.51-.586-5.167-1.249-1.075-.43-2.031-.812-2.031-.812-.624-.25-1.081-.796-1.216-1.455-.135-.658.069-1.341.545-1.816 2.936-2.937 6.918-4.586 11.07-4.586h2.735c-.99-1.32-1.764-2.794-2.288-4.367v-.001c-.19-.568-.114-1.191.205-1.698s.849-.844 1.444-.919h.001c3.029-.378 6.099.25 8.736 1.788 1.324.772 2.519 1.469 2.519 1.469l.045.029.056.035z"/><path d="m15 23 1 1v4l-1 1h-1.002c-.795 0-1.558-.316-2.12-.878s-.878-1.325-.878-2.12v-.004c0-.795.316-1.558.878-2.12s1.325-.878 2.12-.878zm-1-7 1 1v4l-1 1s-.426 0-1 0c-.796 0-1.559-.316-2.121-.879-.563-.562-.879-1.325-.879-2.121v-.002c0-.795.316-1.558.878-2.12s1.325-.878 2.12-.878zm0-4-1 3h-2.802c-2.113 0-4.206-.403-6.167-1.188-1.076-.43-2.031-.812-2.031-.812 2.561-2.561 6.035-4 9.657-4h1.343zm.001-10h-.001c.658 1.973 1.765 3.765 3.236 5.236.437.437.764.764.764.764h4l2-3s-1.195-.697-2.519-1.469c-2.258-1.317-4.886-1.855-7.48-1.531z" fill="#25a2b0"/><g fill="#85e9e4"><path d="m13 9v6h2v1h-1v6h1v7h4c2.917 0 5.715-1.159 7.778-3.222s3.222-4.861 3.222-7.778c0-.604 0-1.204 0-1.789 0-4.505-2.252-8.712-6-11.211l-6 3 1 1z"/><path d="m15 29v-6h2.5v6z"/></g></g></svg>