<svg clip-rule="evenodd" fill-rule="evenodd" stroke-linejoin="round" stroke-miterlimit="2" viewBox="0 0 32 32" xmlns="http://www.w3.org/2000/svg"><metadata/><path d="m32 0v32h-32v-32z" fill="none"/><path d="m18.632 8h8.868c2.484 0 4.5 2.016 4.5 4.5s-2.016 4.5-4.5 4.5h-3.112c.073.321.112.656.112 1 0 1.624-.862 3.047-2.152 3.839.191.714.209 1.485.018 2.252-.384 1.536-1.516 2.688-2.91 3.167-.022.153-.052.306-.09.458-.603 2.41-3.048 3.877-5.457 3.275 0 0-2.276-.569-4.709-1.178-5.407-1.351-9.2-6.211-9.197-11.785l.001-.408c-.003-.04-.004-.08-.004-.12v-1.238c0-5.596 3.581-10.564 8.889-12.333 3.743-1.248 7.479-2.493 7.479-2.493.609-.203 1.28-.101 1.801.275.522.376.831.979.831 1.622v2.338l-.005.28c-.037.709-.16 1.396-.363 2.049z"/><path d="m22 14v5l-1 1-1 3-1 2-2 2h-5v-13z" fill="#84511a"/><path d="m27.5 10c.349.001.696.073 1.015.215.298.132.569.324.795.56.215.226.387.491.505.78.108.264.17.547.183.832.012.274-.021.549-.097.812-.068.234-.17.457-.303.661-.293.452-.732.803-1.238.988-.276.101-.567.151-.86.152h-10c-.067.001-.133.013-.195.039-.191.081-.315.279-.304.487.003.058.016.115.038.169.024.055.058.106.099.15.044.046.098.084.156.111.065.029.135.043.206.044h3.999c.608.456 1.001 1.183 1.001 2 0 1.252-.923 2.291-2.125 2.472l-4.265-.96c-.07-.015-.141-.016-.211-.002-.063.013-.123.038-.176.074-.051.034-.095.076-.13.125-.034.047-.059.1-.075.156-.055.201.022.42.191.542.055.039.116.065.181.081l4.025.905c.496.593.712 1.407.51 2.213-.278 1.116-1.268 1.868-2.365 1.894l-3.939-.985c-.065-.015-.132-.02-.198-.009-.206.032-.373.194-.414.398-.011.057-.012.116-.003.173.009.06.029.117.059.17.032.056.075.105.125.145.056.045.12.075.189.093l3.606.902c.027.276.007.561-.064.846-.335 1.338-1.693 2.153-3.032 1.818 0 0-2.275-.569-4.706-1.178-4.513-1.129-7.679-5.185-7.679-9.838v-.531l-.004-.004v-1.238c0-4.735 3.03-8.939 7.521-10.436 3.743-1.247 7.479-2.493 7.479-2.493v2.338c0 .814-.165 1.604-.47 2.329-.577.19-1.921 1.818-1.376 2z" fill="#f2c181"/><path d="m12.29 10c-.117 0-.234-.02-.344-.061-.202-.074-.378-.214-.495-.395-.053-.082-.094-.171-.121-.264-.031-.106-.044-.216-.039-.325.005-.114.03-.227.073-.333.047-.115.116-.222.202-.312.09-.094.199-.171.318-.224.128-.057.266-.086.406-.086h4.24c-.317.751-.784 1.433-1.376 2z" fill="#d99561"/></svg>