<svg clip-rule="evenodd" fill-rule="evenodd" stroke-linejoin="round" stroke-miterlimit="1.41421" viewBox="0 0 32 32" xmlns="http://www.w3.org/2000/svg" xmlns:xlink="http://www.w3.org/1999/xlink"><clipPath id="a"><path clip-rule="evenodd" d="m0 0h32v32h-32z"/></clipPath><clipPath id="b"><path clip-rule="evenodd" d="m2 6h28v20h-28z"/></clipPath><metadata/><path d="m0 0h32v32h-32z" fill="none"/><g clip-path="url(#a)"><path d="m32 6c0-.53-.211-1.039-.586-1.414s-.884-.586-1.414-.586c-5.746 0-22.254 0-28 0-.53 0-1.039.211-1.414.586s-.586.884-.586 1.414v20c0 .53.211 1.039.586 1.414s.884.586 1.414.586h28c.53 0 1.039-.211 1.414-.586s.586-.884.586-1.414c0-4.52 0-15.48 0-20z"/><path d="m2 6h28v20h-28z" fill="none"/><g clip-path="url(#b)"><path d="m1 12h30v8h-30z" fill="#fa0709"/><path d="m1 19.333h30v7.667h-30z" fill="#333"/><path d="m1 5h30v7.667h-30z" fill="#0400ed"/></g><path d="m16 14h1 2v1h-1v1.494c.002.061.009.12.03.178.05.137.161.248.298.298.047.017.096.025.146.029l.538.014-.025.999-.564-.014c-.175-.013-.344-.047-.507-.116-.403-.17-.719-.518-.849-.936-.044-.144-.063-.29-.067-.44v-1.506h-1v1.506c-.004.15-.023.296-.067.44-.13.418-.446.766-.849.936-.163.069-.332.103-.507.116l-.564.014-.025-.999c.188-.005.376-.001.564-.016.188-.024.352-.144.418-.325.021-.058.028-.117.03-.178v-1.494h-1v-1h1z" fill="#ffeb0c"/></g></svg>