<svg clip-rule="evenodd" fill-rule="evenodd" stroke-linejoin="round" stroke-miterlimit="1.41421" viewBox="0 0 32 32" xmlns="http://www.w3.org/2000/svg" xmlns:xlink="http://www.w3.org/1999/xlink"><clipPath id="a"><path clip-rule="evenodd" d="m32 32v-32h-32v32z"/></clipPath><metadata/><path d="m32 32v-32h-32v32z" fill="none"/><g clip-path="url(#a)"><path d="m24 32c4.418 0 8-3.582 8-8 0-4.887 0-11.113 0-16 0-4.418-3.582-8-8-8-4.887 0-11.113 0-16 0-4.418 0-8 3.582-8 8v16c0 4.418 3.582 8 8 8z"/><path d="m2 24c0 1.591.632 3.117 1.757 4.243 1.126 1.125 2.652 1.757 4.243 1.757h16c1.591 0 3.117-.632 4.243-1.757 1.125-1.126 1.757-2.652 1.757-4.243 0-4.724 0-11.276 0-16 0-1.591-.632-3.117-1.757-4.243-1.126-1.125-2.652-1.757-4.243-1.757-4.724 0-11.276 0-16 0-1.591 0-3.117.632-4.243 1.757-1.125 1.126-1.757 2.652-1.757 4.243z" fill="#334cec"/><path d="m7 17h11s-1.364 6.821-1.839 9.196c-.094.468-.504.804-.981.804-1.347 0-4.013 0-5.36 0-.477 0-.887-.336-.981-.804-.475-2.375-1.839-9.196-1.839-9.196zm10.5-8v-2h3v2h4.5v3s-7.289 0-10 0c-.552 0-1 .448-1 1v1.5c0 .133-.053.26-.146.354-.094.093-.221.146-.354.146-.555 0-1.445 0-2 0-.133 0-.26-.053-.354-.146-.093-.094-.146-.221-.146-.354 0-.367 0-.904 0-1.5 0-1.061.421-2.078 1.172-2.828.75-.751 1.767-1.172 2.828-1.172zm5.5-4c0-.552-.448-1-1-1-1.537 0-4.464 0-6.001 0-.552 0-.999.447-.999.999v.002c0 .552.447.999.999.999h6.001c.552 0 1-.448 1-1z" fill="#fff"/></g></svg>