<svg clip-rule="evenodd" fill-rule="evenodd" stroke-linejoin="round" stroke-miterlimit="2" viewBox="0 0 32 32" xmlns="http://www.w3.org/2000/svg"><metadata/><path d="m0 0h32v32h-32z" fill="none"/><path d="m16 2.382c.13-.116.271-.222.423-.316.884-.547 1.989-.596 2.919-.131.008.004.016.008.025.012 4.065 2.033 6.633 6.188 6.633 10.733v8.492l5.414 5.414c.375.375.586.884.586 1.414v2c0 1.105-.895 2-2 2h-8c-.53-.003-1.037-.213-1.414-.586l-4.586-4.586-4.586 4.586c-.371.367-.867.576-1.389.586h-.025-8c-1.105 0-2-.895-2-2v-2c0-.53.211-1.039.586-1.414l5.414-5.414v-8.492c0-4.545 2.568-8.7 6.633-10.733.009-.004.017-.008.025-.012.93-.465 2.035-.416 2.919.131.152.094.293.2.423.316z"/><path d="m24.5 22.5h-2l-3 3v2l2.5 2.5h8v-2z" fill="#663a1d"/><path d="m17 9.171v-4.553c0-.347.179-.668.474-.851.295-.182.663-.198.973-.043.009.004.017.008.025.012 3.388 1.694 5.528 5.157 5.528 8.944v9.32l.5.5-5 5s-1.137-1.137-2.207-2.207c-.188-.188-.293-.442-.293-.707v-12.586c0-.026.029-.422.029-.422.341-.637.271-1.998-.026-2.408z" fill="#7f531d"/><path d="m17.003 9.17c.24-.084.49-.137.743-.159.171-.014.343-.013.514-.002.355.023.707.093 1.044.21.524.18 1.009.471 1.416.848.441.409.787.919 1.006 1.479.182.464.27.957.274 1.454v8h-2v-8c-.001-.209-.033-.417-.097-.617-.073-.225-.186-.436-.333-.622-.241-.306-.572-.537-.942-.66-.159-.052-.325-.085-.492-.096-.109-.008-.218-.008-.325.013-.164.031-.319.104-.447.21-.062.051-.117.11-.165.174-.058.077-.105.163-.138.254-.041.11-.06.227-.061.344v-2.829z" fill="#3e1409"/><path d="m7.5 22.5h2l3 3v2l-2.5 2.5h-8v-2z" fill="#663a1d"/><path d="m15 9.171v-4.553c0-.347-.179-.668-.474-.851-.295-.182-.663-.198-.973-.043-.009.004-.017.008-.025.012-3.388 1.694-5.528 5.157-5.528 8.944v9.32l-.5.5 5 5s1.137-1.137 2.207-2.207c.188-.188.293-.442.293-.707v-12.586c0-.026-.029-.422-.029-.422-.341-.637-.271-1.998.026-2.408z" fill="#7f531d"/><path d="m14.997 9.17c-.24-.084-.49-.137-.743-.159-.171-.014-.343-.013-.514-.002-.355.023-.707.093-1.044.21-.524.18-1.009.471-1.416.848-.441.409-.787.919-1.006 1.479-.182.464-.27.957-.274 1.454v8h2v-8c.001-.209.033-.417.097-.617.073-.225.186-.436.333-.622.241-.306.572-.537.942-.66.159-.052.325-.085.492-.096.109-.008.218-.008.325.013.164.031.319.104.447.21.062.051.117.11.165.174.058.077.105.163.138.254.041.11.06.227.061.344v-2.829z" fill="#3e1409"/></svg>