<svg clip-rule="evenodd" fill-rule="evenodd" stroke-linejoin="round" stroke-miterlimit="2" viewBox="0 0 32 32" xmlns="http://www.w3.org/2000/svg" xmlns:xlink="http://www.w3.org/1999/xlink"><clipPath id="a"><path clip-rule="evenodd" d="m8 23 4.5 4.5s1.547-1.547 2.207-2.207c.188-.188.293-.442.293-.707 0-2.425 0-14.775 0-17.878 0-.466-.108-.925-.317-1.341-.564-1.128-1.683-3.367-1.683-3.367s-3.584 7.168-4.683 9.367c-.209.416-.317.875-.317 1.341z"/></clipPath><clipPath id="b"><path clip-rule="evenodd" d="m24 23-4.5 4.5s-1.547-1.547-2.207-2.207c-.188-.188-.293-.442-.293-.707 0-2.425 0-14.775 0-17.878 0-.466.108-.925.317-1.341.564-1.128 1.683-3.367 1.683-3.367s3.584 7.168 4.683 9.367c.209.416.317.875.317 1.341z"/></clipPath><metadata/><g fill="none"><path d="m0 0h32v32h-32z"/><path d="m24 23 6 6v1h-8s-3.637-3.637-4.707-4.707c-.188-.188-.293-.442-.293-.707 0-2.425 0-14.775 0-17.878 0-.466.108-.925.317-1.341.564-1.128 1.683-3.367 1.683-3.367s3.584 7.168 4.683 9.367c.209.416.317.875.317 1.341z" stroke="#000" stroke-width="4"/><path d="m8 23-6 6v1h8s3.637-3.637 4.707-4.707c.188-.188.293-.442.293-.707 0-2.425 0-14.775 0-17.878 0-.466-.108-.925-.317-1.341-.564-1.128-1.683-3.367-1.683-3.367s-3.584 7.168-4.683 9.367c-.209.416-.317.875-.317 1.341z" stroke="#000" stroke-width="4"/></g><path d="m8 23h1l3.5 3.5v1l-2.5 2.5h-8v-1z" fill="#e461b2"/><path d="m24 23h-1l-3.5 3.5v1l2.5 2.5h8v-1z" fill="#e461b2"/><path d="m8 23 4.5 4.5s1.547-1.547 2.207-2.207c.188-.188.293-.442.293-.707 0-2.425 0-14.775 0-17.878 0-.466-.108-.925-.317-1.341-.564-1.128-1.683-3.367-1.683-3.367s-3.584 7.168-4.683 9.367c-.209.416-.317.875-.317 1.341z" fill="#fd9bd6"/><g clip-path="url(#a)"><path d="m11 22c0 1.105.895 2 2 2h2c1.105 0 2-.895 2-2v-9.586c0-.795-.316-1.558-.879-2.121-.555-.556-1.707-1.707-1.707-1.707-.572-.572-1.432-.743-2.179-.434-.748.31-1.235 1.039-1.235 1.848zm2 0h2v-9.586c0-.265-.105-.519-.293-.707-.555-.555-1.707-1.707-1.707-1.707z" fill="#8b2265"/><path d="m9 23v-2h7v4l-6-1z" fill="#fd9bd6"/></g><path d="m24 23-4.5 4.5s-1.547-1.547-2.207-2.207c-.188-.188-.293-.442-.293-.707 0-2.425 0-14.775 0-17.878 0-.466.108-.925.317-1.341.564-1.128 1.683-3.367 1.683-3.367s3.584 7.168 4.683 9.367c.209.416.317.875.317 1.341z" fill="#fd9bd6"/><g clip-path="url(#b)"><path d="m19 24c1.105 0 2-.895 2-2v-12c0-.809-.487-1.538-1.235-1.848-.747-.309-1.607-.138-2.179.434 0 0-1.152 1.151-1.707 1.707-.563.563-.879 1.326-.879 2.121v9.586c0 1.105.895 2 2 2zm0-14c-.177.177-2 1.458-2 2.414-.002 3.195 0 6.391 0 9.586h2z" fill="#8b2265"/><path d="m23 23v-2h-7v4l6-1z" fill="#fd9bd6"/></g></svg>