<svg clip-rule="evenodd" fill-rule="evenodd" stroke-linejoin="round" stroke-miterlimit="2" viewBox="0 0 32 32" xmlns="http://www.w3.org/2000/svg" xmlns:xlink="http://www.w3.org/1999/xlink"><clipPath id="a"><path clip-rule="evenodd" d="m8 23 4.5 4.5s1.547-1.547 2.207-2.207c.188-.188.293-.442.293-.707 0-2.491 0-15.535 0-20.586 0-1.105-.895-2-2-2s-3.584 7.168-4.683 9.367c-.209.416-.317.875-.317 1.341z"/></clipPath><clipPath id="b"><path clip-rule="evenodd" d="m24 23-4.5 4.5s-1.547-1.547-2.207-2.207c-.188-.188-.293-.442-.293-.707 0-2.491 0-15.535 0-20.586 0-1.105.895-2 2-2s3.584 7.168 4.683 9.367c.209.416.317.875.317 1.341z"/></clipPath><metadata/><g fill="none"><path d="m0 0h32v32h-32z"/><path d="m24 23 6 6v1h-8s-3.637-3.637-4.707-4.707c-.188-.188-.293-.442-.293-.707 0-2.491 0-15.535 0-20.586 0-1.105.895-2 2-2s3.584 7.168 4.683 9.367c.209.416.317.875.317 1.341z" stroke="#000" stroke-width="4"/><path d="m8 23-6 6v1h8s3.637-3.637 4.707-4.707c.188-.188.293-.442.293-.707 0-2.491 0-15.535 0-20.586 0-1.105-.895-2-2-2s-3.584 7.168-4.683 9.367c-.209.416-.317.875-.317 1.341z" stroke="#000" stroke-width="4"/></g><path d="m8 23h2l2.5 2.5v2l-2.5 2.5h-8v-1z" fill="#4f246c"/><path d="m24 23h-2l-2.5 2.5v2l2.5 2.5h8v-1z" fill="#4f246c"/><path d="m8 23 4.5 4.5s1.547-1.547 2.207-2.207c.188-.188.293-.442.293-.707 0-2.491 0-15.535 0-20.586 0-1.105-.895-2-2-2s-3.584 7.168-4.683 9.367c-.209.416-.317.875-.317 1.341z" fill="#633a92"/><g clip-path="url(#a)"><path d="m15 24h-2c-1.105 0-2-.895-2-2 0 0 0-8.118 0-11 0-.796.316-1.559.879-2.121.562-.563 1.325-.879 2.121-.879l.149.004c.741.036 1.445.347 1.972.875.563.562.879 1.325.879 2.121v11c0 1.105-.895 2-2 2zm-2-2h2v-11c0-.265-.105-.52-.293-.707-.187-.188-.442-.293-.707-.293s-.52.105-.707.293c-.188.187-.293.442-.293.707z" fill="#2b123f"/><path d="m10 24v-3h7v4h-6z" fill="#633a92"/></g><path d="m24 23-4.5 4.5s-1.547-1.547-2.207-2.207c-.188-.188-.293-.442-.293-.707 0-2.491 0-15.535 0-20.586 0-1.105.895-2 2-2s3.584 7.168 4.683 9.367c.209.416.317.875.317 1.341z" fill="#633a92"/><g clip-path="url(#b)"><path d="m19 24c1.105 0 2-.895 2-2 0 0 0-8.118 0-11 0-.796-.316-1.559-.879-2.121-.562-.563-1.325-.879-2.121-.879-.796 0-1.559.316-2.121.879-.563.562-.879 1.325-.879 2.121v11c0 1.105.895 2 2 2zm0-2v-11c0-.265-.105-.52-.293-.707-.187-.188-.442-.293-.707-.293s-.52.105-.707.293c-.188.187-.293.442-.293.707v11z" fill="#2b123f"/><path d="m21 25 1-1v-3h-7v4z" fill="#633a92"/></g></svg>