<svg clip-rule="evenodd" fill-rule="evenodd" stroke-linejoin="round" stroke-miterlimit="2" viewBox="0 0 32 32" xmlns="http://www.w3.org/2000/svg" xmlns:xlink="http://www.w3.org/1999/xlink"><clipPath id="a"><path clip-rule="evenodd" d="m0 0h32v32h-32z"/></clipPath><metadata/><path d="m0 0h32v32h-32z" fill="none"/><g clip-path="url(#a)"><path d="m20.021 3.553c1.42-1.898 3.835-2.959 6.286-2.551l.041.008.021.004h.002c1.79.297 3.372 1.333 4.365 2.847.994 1.515 1.311 3.38.871 5.139v.002c-.614 2.456-1.457 5.831-2.039 8.16l-.002.002c-.335 1.339-1.082 2.487-2.075 3.337.652.638 1.059 1.525 1.059 2.499 0 1.92-1.58 3.5-3.501 3.5-.016 0-.032 0-.049 0h-.486c.024.163.036.33.036.5 0 1.92-1.58 3.5-3.501 3.5-.016 0-.033 0-.049 0h-9.025c-.269 0-.536.044-.791.129-1.446.482-4.077 1.359-4.077 1.359-.357.119-.731.18-1.107.18-1.921 0-3.501-1.58-3.501-3.501 0-1.137.553-2.182 1.44-2.829-.233-.38-.395-.807-.468-1.262-1.802-.133-3.243-1.657-3.243-3.49 0-.316.043-.631.127-.936 0 0 1.756-7.019 3.006-12.021-1.167-.598-1.903-1.804-1.903-3.115 0-1.519.988-2.872 2.435-3.334 0 0 .805-.269 1.58-.528.744-.248 1.535-.28 2.281-.119.746.162 1.449.518 2.023 1.051.197.182.374.381.531.593 1.438-1.335 3.456-2.015 5.499-1.675l.041.008.021.004h.002c1.666.277 3.151 1.192 4.15 2.539z"/><path d="m22.512 26.835c.006.054.009.109.009.165 0 .823-.677 1.5-1.5 1.5h-.021-9.025c-.484 0-.965.077-1.424.23-1.446.483-4.076 1.36-4.076 1.36-.161.057-.33.085-.5.085-.823 0-1.5-.677-1.5-1.5 0-.653.427-1.235 1.05-1.431l1.227-.409 2.248-.335h13z" fill="#7706af"/><path d="m22.512 26.835h-15.76c.88-.293 2.048-.683 2.85-.95.765-.255 1.566-.385 2.373-.385h9.025.021c.767 0 1.408.588 1.491 1.335zm3.95-3.418c-.183.623-.762 1.083-1.441 1.083h-.021-14.025c-.484 0-.965.077-1.424.23-.882.295-2.076.694-2.076.694-.153.051-.314.077-.475.077-.823 0-1.501-.678-1.501-1.501 0-.205.042-.402.119-.583l.882-.417h19.5z" fill="#2c3ee5"/><path d="m26.462 23.417h-20.844c.164-.389.49-.702.907-.841 0 0 1.196-.397 2.077-.691.765-.255 1.566-.385 2.373-.385h14.025.021c.823 0 1.5.677 1.5 1.5 0 .144-.02.284-.059.417zm-20.959-3.246-.298 1.192c-.153.682-.764 1.171-1.463 1.171-.823 0-1.501-.677-1.501-1.5 0-.134.018-.268.054-.397l.116-.466.589-.171h2z" fill="#158f25"/><path d="m6.763 15.132-.362 1.448-.401.42h-2.356l-.335-.42.335-1.342.519-2.076.337-.162h2.5l.256.162zm4.993-1.97c-.18.721-.354 1.416-.512 2.049-.102.408-.029.837.201 1.187.043.065.09.126.14.182l-.585.42h-2l-.688-.42c-.157-.683-.153-1.401.02-2.096v-.002c.104-.417.215-.86.33-1.32l.338-.162h2zm6.25 0c-.306 1.223-.604 2.413-.855 3.418l-.651.42h-2l-.609-.42c.151-.174.265-.388.326-.631.206-.827.446-1.785.696-2.787l.587-.162h2zm4.25 0c-.18.721-.354 1.416-.512 2.049-.102.408-.029.837.201 1.187.043.065.09.126.14.182l-.585.42h-2l-.688-.42c-.157-.683-.153-1.401.02-2.096v-.002c.104-.417.215-.86.33-1.32l.338-.162h2zm6.25 0c-.306 1.223-.604 2.413-.855 3.418l-.651.42h-2l-.609-.42c.151-.174.265-.388.326-.631.206-.827.446-1.785.696-2.787l.587-.162h2z" fill="#fb8721"/><path d="m3.309 16.58h3.092l-.898 3.591h-3.092zm13.842 0-.024.096v.002c-.567 2.261-2.804 3.731-5.106 3.347l-.017-.003-.013-.004s-.001 0-.003 0h.003c-.002 0-.026-.003-.034-.004-1.238-.206-2.334-.922-3.021-1.971-.296-.451-.506-.947-.624-1.463h3.273c.226.251.531.419.866.475l.018.002.014.003c.011.002.032.006.066.012l-.035-.008c.538.09 1.047-.104 1.377-.484zm10.5 0-.024.096v.002c-.567 2.261-2.804 3.731-5.106 3.347l-.017-.003-.013-.004s-.001 0-.003 0h.003c-.002 0-.026-.003-.034-.004-1.238-.206-2.334-.922-3.021-1.971-.296-.451-.506-.947-.624-1.463h3.273c.226.251.531.419.866.475l.018.002.014.003c.011.002.032.006.066.012l-.035-.008c.538.09 1.047-.104 1.377-.484zm-4.668.48c-.01-.002-.009-.002.003.001zm-10.5 0c-.01-.002-.009-.002.003.001z" fill="#f1e100"/><path d="m5.807 6.584.074-.297c-.092.031-.406.137-.406.137-.153.051-.314.077-.475.077-.823 0-1.501-.678-1.501-1.501 0-.644.415-1.22 1.026-1.424 0 0 .805-.266 1.58-.525.401-.134.824-.153 1.225-.067.401.087.779.28 1.088.567.617.572.88 1.444.674 2.265l-.192.768-.9.416h-2zm4.501 0 .065-.26v-.002c.567-2.261 2.804-3.731 5.106-3.347l.017.004.014.003c-.001 0 0 0 .002 0h-.002c.002 0 .025.003.031.004h.002c1.238.206 2.334.922 3.021 1.971.328.499.549 1.053.658 1.627l-.222.416h-2l-.957-.416c-.23-.341-.59-.572-.994-.639l-.018-.002-.014-.003c-.011-.002-.032-.006-.066-.012l.035.007c-.611-.101-1.185.163-1.501.649l-.485.416h-2zm10.5 0 .065-.26v-.002c.567-2.261 2.804-3.731 5.106-3.347l.017.004.014.003c-.001 0 0 0 .002 0h-.002c.002 0 .025.003.031.004h.002c1.238.206 2.334.922 3.021 1.971.328.499.549 1.053.658 1.627l-.722.416h-2l-.457-.416c-.23-.341-.59-.572-.994-.639l-.018-.002-.014-.003c-.011-.002-.032-.006-.066-.012l.035.007c-.611-.101-1.185.163-1.501.649l-.485.416h-2.5zm4.709-.644c.01.002.009.002-.003-.001zm-10.5 0c.01.002.009.002-.003-.001z" fill="#333"/><path d="m5.807 6.584h3.093l-.79 3.16-.61.256h-2l-.483-.256zm13.415 0c.121.634.105 1.293-.054 1.932v.002l-.307 1.226-.361.256h-2l-.733-.256.489-1.955c.102-.408.029-.837-.201-1.187-.004-.006-.008-.012-.012-.018zm-5.737 0c-.09.139-.159.295-.202.467l-.673 2.693-.61.256h-2l-.482-.256c.281-1.124.554-2.217.79-3.16zm16.237 0c.121.634.105 1.293-.054 1.932v.002l-.307 1.226-.361.256h-2l-.733-.256.489-1.955c.102-.408.029-.837-.201-1.187-.004-.006-.008-.012-.012-.018zm-5.737 0c-.09.139-.159.295-.202.467l-.673 2.693-.61.256h-2l-.482-.256c.281-1.124.554-2.217.79-3.16z" fill="#88502b"/><path d="m8.051 9.981-.795 3.181h-3.093l.658-2.635.196-.783h3.093zm4.312.754-.607 2.427h-3.094c.272-1.088.568-2.269.856-3.418h3.092zm6.246.018-.603 2.409h-3.093c.281-1.126.576-2.307.854-3.418h3.094zm4.254-.018-.607 2.427h-3.094c.272-1.088.568-2.269.856-3.418h3.092zm6.246.018-.603 2.409h-3.093c.281-1.126.576-2.307.854-3.418h3.094z" fill="#df0000"/></g></svg>