<svg clip-rule="evenodd" fill-rule="evenodd" stroke-linecap="square" stroke-linejoin="round" stroke-miterlimit="1.5" viewBox="0 0 32 32" xmlns="http://www.w3.org/2000/svg" xmlns:xlink="http://www.w3.org/1999/xlink"><clipPath id="a"><path clip-rule="evenodd" d="m0 0h32v32h-32z"/></clipPath><metadata/><path d="m0 0h32v32h-32z" fill="none"/><g clip-path="url(#a)"><path d="m8 9v-6.5c0-.133.053-.26.146-.354.094-.093.221-.146.354-.146h15c.133 0 .26.053.354.146.093.094.146.221.146.354v6.5h3c.552 0 1 .448 1 1v12c0 .552-.448 1-1 1h-3v4.5c0 .133-.053.26-.146.354-.094.093-.221.146-.354.146-2.388 0-12.612 0-15 0-.133 0-.26-.053-.354-.146-.093-.094-.146-.221-.146-.354v-4.5h-3c-.552 0-1-.448-1-1 0-2.577 0-9.423 0-12 0-.552.448-1 1-1z" fill="none" stroke="#000" stroke-width="4"/><path d="m24 2.5c0-.133-.053-.26-.146-.354-.094-.093-.221-.146-.354-.146-2.388 0-12.612 0-15 0-.133 0-.26.053-.354.146-.093.094-.146.221-.146.354v11.5h16z" fill="#313131"/><path d="m9 3h14v10h-14z" fill="#fff"/><path d="m4 18h24v4c0 .265-.105.52-.293.707-.187.188-.442.293-.707.293-3.904 0-18.096 0-22 0-.265 0-.52-.105-.707-.293-.188-.187-.293-.442-.293-.707 0-1.459 0-4 0-4z" fill="#404040"/><path d="m4 10c0-.552.448-1 1-1h1l.5 1 .5-1h18l.496 1 .504-1h1c.552 0 1 .448 1 1v8c0 .552-.448 1-1 1-3.904 0-18.096 0-22 0-.552 0-1-.448-1-1 0-1.916 0-6.084 0-8z" fill="#595959"/><path d="m24 27.5c0 .133-.053.26-.146.354-.094.093-.221.146-.354.146-2.388 0-12.612 0-15 0-.133 0-.26-.053-.354-.146-.093-.094-.146-.221-.146-.354 0-1.266 0-4.5 0-4.5l2-2h12l2 2z" fill="#404040"/><path d="m24 23h-16v-1c0-.53.211-1.039.586-1.414s.884-.586 1.414-.586h12c.53 0 1.039.211 1.414.586s.586.884.586 1.414z" fill="#1a1a1a"/><path d="m26 9v7c0 .265-.105.52-.293.707-.187.188-.442.293-.707.293-3.414 0-14.586 0-18 0-.265 0-.52-.105-.707-.293-.188-.187-.293-.442-.293-.707v-7h1v7h18v-7z" fill="#323232" fill-rule="nonzero"/></g></svg>