<svg clip-rule="evenodd" fill-rule="evenodd" stroke-linecap="round" stroke-linejoin="round" stroke-miterlimit="1.5" viewBox="0 0 32 32" xmlns="http://www.w3.org/2000/svg" xmlns:xlink="http://www.w3.org/1999/xlink"><clipPath id="a"><path clip-rule="evenodd" d="m0 0h32v32h-32z"/></clipPath><metadata/><path d="m0 0h32v32h-32z" fill="none"/><g clip-path="url(#a)"><path d="m30 10.5s-3.01-.753-6.239-1.56c-5.096-1.274-10.426-1.274-15.522 0-3.229.807-6.239 1.56-6.239 1.56v11s3.01.753 6.239 1.56c5.096 1.274 10.426 1.274 15.522 0 3.229-.807 6.239-1.56 6.239-1.56z" fill="none" stroke="#000" stroke-width="4"/><path d="m5 19h22v6h-22z" fill="none" stroke="#000" stroke-linejoin="miter" stroke-width="4"/><path d="m5 19h22v6h-22z" fill="#333"/><path d="m30 10.5s-3.01-.753-6.239-1.56c-5.096-1.274-10.426-1.274-15.522 0-3.229.807-6.239 1.56-6.239 1.56v2.5l1 1-1 1v2l1 1-1 1v2.5s3.01.753 6.239 1.56c5.096 1.274 10.426 1.274 15.522 0 3.229-.807 6.239-1.56 6.239-1.56v-2.5l-1-1 1-1v-2l-1-1 1-1z" fill="#4c4c4c"/><circle cx="16" cy="16" fill="#262626" r="7"/><circle cx="16" cy="16" fill="#3232be" r="5"/><circle cx="16" cy="16" fill="#4144ff" r="3"/><ellipse cx="16" cy="14" fill="#b8b9ff" fill-opacity=".34" rx="2.235" ry="2"/><g fill="#333"><path d="m26 13h4v2h-4z"/><path d="m26 17h4v2h-4z"/><path d="m2 13h4v2h-4z"/><path d="m2 17h4v2h-4z"/></g></g></svg>