<svg clip-rule="evenodd" fill-rule="evenodd" stroke-linecap="round" stroke-miterlimit="1.5" viewBox="0 0 32 32" xmlns="http://www.w3.org/2000/svg" xmlns:xlink="http://www.w3.org/1999/xlink"><clipPath id="a"><path clip-rule="evenodd" d="m0 0h32v32h-32z"/></clipPath><metadata/><path d="m0 0h32v32h-32z" fill="none"/><g clip-path="url(#a)"><g fill="none"><path d="m24 22 4 4" stroke="#000" stroke-width="6"/><path d="m25 19 4 1" stroke="#000" stroke-width="6"/><path d="m7 19-4 1" stroke="#000" stroke-width="6"/><path d="m8 22-4 4" stroke="#000" stroke-width="6"/><path d="m20.5 24 2.5 5" stroke="#000" stroke-width="6"/><path d="m11.5 24-2.5 5" stroke="#000" stroke-width="6"/><path d="m16 24v5" stroke="#000" stroke-width="6"/><path d="m8 10-4-4" stroke="#000" stroke-width="6"/><path d="m20.5 8 2.5-5" stroke="#000" stroke-width="6"/><path d="m11.5 8-2.5-5" stroke="#000" stroke-width="6"/><path d="m16 8v-5" stroke="#000" stroke-width="6"/><path d="m24 10 4-4" stroke="#000" stroke-width="6"/><path d="m7 16 1-2-4-4s-.505 1.01-1.007 2.015c-.641 1.281-.802 2.749-.455 4.138.237.947.462 1.847.462 1.847z" stroke="#000" stroke-linejoin="round" stroke-width="4"/><path d="m25 16-1-2 4-4s.505 1.01 1.007 2.015c.641 1.281.802 2.749.455 4.138-.237.947-.462 1.847-.462 1.847z" stroke="#000" stroke-linejoin="round" stroke-width="4"/><path d="m28 16c0-6.627-5.373-12-12-12-6.627 0-12 5.373-12 12 0 6.627 5.373 12 12 12 6.627 0 12-5.373 12-12z" stroke="#000" stroke-linejoin="round" stroke-width="4"/></g><path d="m4 16c0-6.627 5.373-12 12-12 6.627 0 12 5.373 12 12l-4.146 5h-15.708z" fill="#cec54b"/><path d="m4 16h4.146c1.136 0 2.175.642 2.683 1.658.022.044.044.087.065.131.678 1.355 2.063 2.211 3.578 2.211h3.056c1.515 0 2.9-.856 3.578-2.211.021-.044.043-.087.065-.131.508-1.016 1.547-1.658 2.683-1.658h4.146c0 6.627-5.373 12-12 12-6.627 0-12-5.373-12-12z" fill="#f0eec9"/><circle cx="11.5" cy="13.5" r="1.5"/><circle cx="20.5" cy="13.5" r="1.5"/><path d="m19 17.729c0-.435-.278-.822-.691-.959-.506-.169-1.186-.396-1.677-.559-.41-.137-.854-.137-1.264 0-.491.163-1.171.39-1.677.559-.413.137-.691.524-.691.959v.001c0 .701.569 1.27 1.27 1.27h3.46c.701 0 1.27-.569 1.27-1.27z"/><path d="m24 10 4-4" fill="none" stroke="#a69f3f" stroke-width="2"/><path d="m8 10-4-4" fill="none" stroke="#a69f3f" stroke-width="2"/><path d="m20.5 8 2.5-5" fill="none" stroke="#a69f3f" stroke-width="2"/><path d="m11.5 8-2.5-5" fill="none" stroke="#a69f3f" stroke-width="2"/><path d="m16 8v-5" fill="none" stroke="#a69f3f" stroke-width="2"/><path d="m24 22 4 4" fill="none" stroke="#d5d191" stroke-width="2"/><path d="m25 19 4 1" fill="none" stroke="#d5d191" stroke-width="2"/><path d="m7 19-4 1" fill="none" stroke="#d5d191" stroke-width="2"/><path d="m8 22-4 4" fill="none" stroke="#d5d191" stroke-width="2"/><path d="m20.5 24 2.5 5" fill="none" stroke="#d5d191" stroke-width="2"/><path d="m11.5 24-2.5 5" fill="none" stroke="#d5d191" stroke-width="2"/><path d="m16 24v5" fill="none" stroke="#d5d191" stroke-width="2"/><path d="m7 16 1-2-4-4s-.505 1.01-1.007 2.015c-.641 1.281-.802 2.749-.455 4.138.237.947.462 1.847.462 1.847z" fill="#8a831e"/><path d="m25 16-1-2 4-4s.505 1.01 1.007 2.015c.641 1.281.802 2.749.455 4.138-.237.947-.462 1.847-.462 1.847z" fill="#8a831e"/></g></svg>