<svg clip-rule="evenodd" fill-rule="evenodd" stroke-linejoin="round" stroke-miterlimit="2" viewBox="0 0 32 32" xmlns="http://www.w3.org/2000/svg"><metadata/><path d="m0 0h32v32h-32z" fill="none"/><path d="m1 19.502v-8.177c0-3.444 2.203-6.501 5.47-7.59.357-.119.69-.23.974-.324.816-.272 1.67-.411 2.53-.411h9.026c4.677 0 8.521 3.568 8.958 8.13l1.578 1.577c.937.938 1.464 2.21 1.464 3.536v8.343c0 .795-.316 1.559-.879 2.121-.574.574-1.84 1.84-2.414 2.414-.562.563-1.326.879-2.121.879h-10.586v-2.002c0-.694.144-1.374.417-1.998h-4.417c-1.731 0-3.256-.879-4.154-2.216-1.837.557-3.959-.091-5.09-1.787-.499-.747-.734-1.602-.756-2.495z"/><path d="m18.5 15v-3h7.5l1.5 1.5.5 1.5v10c-.002.628-4 1-4 1h-5l-2 2v-3c0-.265-.105-.52-.293-.707-.187-.188-.442-.293-.707-.293-1.707 0-5 0-5 0v-2h-5v-7z" fill="#2b2b2b"/><path d="m28.121 14.121c.563.563.879 1.326.879 2.122v8.343c0 .265-.105.519-.293.707-.574.574-1.84 1.84-2.414 2.414-.188.188-.442.293-.707.293h-8.586v-.002c0-1.656 1.342-2.998 2.998-2.998h.939c.254.131.521.238.795.319.476.14.975.198 1.471.177.513-.023 1.022-.134 1.498-.329.519-.212.998-.522 1.404-.91.425-.405.77-.893 1.009-1.43.255-.575.384-1.199.386-1.827v-7.5z" fill="#616161"/><path d="m7 21.828c-.318.113-.656.172-1 .172-.796 0-1.559-.316-2.121-.879-.563-.562-.879-1.325-.879-2.121v-7.675c0-2.583 1.653-4.876 4.103-5.693.357-.119.689-.229.973-.324.612-.204 1.253-.308 1.898-.308h9.026c3.866 0 7 3.134 7 7v9c0 1.657-1.343 3-3 3-.768 0-1.469-.289-2-.764v-8.236h-1v6 .019c-.01 1.648-1.35 2.981-3 2.981-1.657 0-3-1.343-3-3v-6h-1v8.236c-.531.475-1.232.764-2 .764-1.58 0-2.875-1.221-2.991-2.772l-.009.008v-6.236h-1z" fill="#808080"/></svg>