<svg clip-rule="evenodd" fill-rule="evenodd" stroke-linecap="round" stroke-linejoin="round" stroke-miterlimit="2" viewBox="0 0 32 32" xmlns="http://www.w3.org/2000/svg" xmlns:xlink="http://www.w3.org/1999/xlink"><clipPath id="a"><path clip-rule="evenodd" d="m0 0h32v32h-32z"/></clipPath><metadata/><path d="m0 0h32v32h-32z" fill="none"/><g clip-path="url(#a)"><path d="m3 19.502v-12.673c0-1.291.826-2.438 2.051-2.846 1.768-.589 4.207-1.402 5.333-1.778.408-.136.835-.205 1.265-.205h11.351c.796 0 1.559.316 2.121.879.563.562.879 1.325.879 2.121v7l3.414 3.414c.375.375.586.884.586 1.414v9.344c0 .53-.211 1.039-.586 1.414-.528.528-1.3 1.3-1.828 1.828-.375.375-.884.586-1.414.586h-15.172s.987-1.234 1.98-2.476c1.277-1.595 3.21-2.524 5.253-2.524h2.767v-12h-7v9.502c0 1.38-1.118 2.498-2.498 2.498h-.004c-1.38 0-2.498-1.118-2.498-2.498v-9.502h-1v6.502c0 1.38-1.118 2.498-2.498 2.498-.001 0-.003 0-.004 0-1.38 0-2.498-1.118-2.498-2.498z" fill="none" stroke="#000" stroke-width="4"/><path d="m5.5 11h16.5v9h1v2.118c.613-.632 1-1.118 1-1.118v-7l2-2 2 2 1 9-2 5h-13v-1.5c0-.828-.672-1.5-1.5-1.5-.531 0-1 0-1 0v-3h-6z" fill="#112747"/><path d="m28 14 1.707 1.707c.188.188.293.442.293.707v9.758c0 .53-.211 1.039-.586 1.414-.528.528-1.3 1.3-1.828 1.828-.375.375-.884.586-1.414.586h-15.172s.987-1.234 1.98-2.476c.484-.604 1.063-1.114 1.706-1.513.77.619 1.749.989 2.814.989h.002c1.109 0 2.176-.41 2.999-1.145.796.712 1.847 1.145 2.999 1.145h.002c1.193 0 2.337-.474 3.181-1.317.843-.844 1.317-1.988 1.317-3.181z" fill="#1a466a"/><path d="m3 19.502v-12.673c0-1.291.826-2.438 2.051-2.846 1.768-.589 4.207-1.402 5.333-1.778.408-.136.835-.205 1.265-.205h11.351c.796 0 1.559.316 2.121.879.563.562.879 1.325.879 2.121v17.502c0 1.38-1.118 2.498-2.498 2.498h-.004c-1.38 0-2.498-1.118-2.498-2.498v-9.502h-1v9.502c0 1.38-1.118 2.498-2.498 2.498h-.004c-1.38 0-2.498-1.118-2.498-2.498v-9.502h-1v9.502c0 1.38-1.118 2.498-2.498 2.498h-.004c-1.38 0-2.498-1.118-2.498-2.498v-9.502h-1v6.502c0 1.38-1.118 2.498-2.498 2.498-.001 0-.003 0-.004 0-1.38 0-2.498-1.118-2.498-2.498z" fill="#1f5f7d"/></g></svg>