<svg clip-rule="evenodd" fill-rule="evenodd" stroke-linejoin="round" stroke-miterlimit="2" viewBox="0 0 32 32" xmlns="http://www.w3.org/2000/svg" xmlns:xlink="http://www.w3.org/1999/xlink"><clipPath id="a"><path clip-rule="evenodd" d="m0 0h32v32h-32z"/></clipPath><metadata/><path d="m0 0h32v32h-32z" fill="none"/><g clip-path="url(#a)"><path d="m23 1c1.326 0 2.598.527 3.536 1.464.937.938 1.464 2.21 1.464 3.536v5.172l2.828 2.828c.751.75 1.172 1.768 1.172 2.828v9.344c0 1.06-.421 2.078-1.172 2.828-.528.528-1.3 1.3-1.828 1.828-.75.751-1.768 1.172-2.828 1.172h-14.172v-2.002c0-1.115.266-2.203.764-3.179-.4.118-.824.181-1.262.181h-.004c-2.075 0-3.822-1.405-4.34-3.316-.512.204-1.071.316-1.656.316-.001 0-.003 0-.004 0-2.484 0-4.498-2.014-4.498-4.498v-11.673c0-2.152 1.377-4.063 3.419-4.743 1.767-.59 4.206-1.403 5.333-1.778.612-.204 1.252-.308 1.897-.308h11.351z"/><path d="m28 14 1.707 1.707c.188.188.293.442.293.707v9.758c0 .53-.211 1.039-.586 1.414-.528.528-1.3 1.3-1.828 1.828-.375.375-.884.586-1.414.586h-12.172c.013-.687-.026-2.758.86-3.66.619-.403 9.823-2.657 9.823-2.657l1.317-3.181z" fill="#8484f6"/><path d="m22 11 4 1 2 2v8.502c0 1.193-.474 2.337-1.317 3.181-.844.843-1.988 1.317-3.181 1.317-.001 0-.001 0-.002 0-1.152 0-2.203-.433-2.999-1.145-.823.735-1.89 1.145-2.999 1.145-.001 0-.001 0-.002 0-.734 0-1.427-.176-2.039-.488l-.029-.014c-.886.902-1.432 2.138-1.432 3.502v-3.5c0-.828-.672-1.5-1.5-1.5-.531 0-1 0-1 0v-3h-6v-11z" fill="#343394"/><path d="m3 19.502v-11.673c0-1.291.826-2.438 2.051-2.846 1.768-.589 4.207-1.402 5.333-1.778.408-.136.835-.205 1.265-.205h11.351c.796 0 1.559.316 2.121.879.563.562.879 1.325.879 2.121v16.502c0 1.38-1.118 2.498-2.498 2.498h-.004c-1.38 0-2.498-1.118-2.498-2.498v-9.502h-1v9.502c0 1.38-1.118 2.498-2.498 2.498h-.004c-1.38 0-2.498-1.118-2.498-2.498v-9.502h-1v9.502c0 1.38-1.118 2.498-2.498 2.498h-.004c-1.38 0-2.498-1.118-2.498-2.498v-9.502h-1v6.502c0 1.38-1.118 2.498-2.498 2.498-.001 0-.003 0-.004 0-1.38 0-2.498-1.118-2.498-2.498z" fill="#a3a9ff"/></g></svg>