<svg clip-rule="evenodd" fill-rule="evenodd" stroke-linecap="round" stroke-linejoin="round" stroke-miterlimit="1.5" viewBox="0 0 32 32" xmlns="http://www.w3.org/2000/svg" xmlns:xlink="http://www.w3.org/1999/xlink"><clipPath id="a"><path clip-rule="evenodd" d="m12 5.5c0-.133.053-.26.146-.354.094-.093.221-.146.354-.146h7c.133 0 .26.053.354.146.093.094.146.221.146.354v1c0 .133-.053.26-.146.354-.094.093-.221.146-.354.146-.25 0-.5 0-.5 0v4s1.588.794 3.13 1.565c1.677.838 2.546 2.729 2.092 4.548-.855 3.421-2.194 8.775-2.843 11.372-.223.89-1.023 1.515-1.941 1.515-1.875 0-5.001 0-6.876 0-.918 0-1.718-.625-1.941-1.515-.649-2.597-1.988-7.951-2.843-11.372-.454-1.819.415-3.71 2.092-4.548 1.542-.771 3.13-1.565 3.13-1.565v-4s-.25 0-.5 0c-.133 0-.26-.053-.354-.146-.093-.094-.146-.221-.146-.354 0-.305 0-.695 0-1z"/></clipPath><metadata/><path d="m0 0h32v32h-32z" fill="none"/><path d="m12 5.5c0-.133.053-.26.146-.354.094-.093.221-.146.354-.146h7c.133 0 .26.053.354.146.093.094.146.221.146.354v1c0 .133-.053.26-.146.354-.094.093-.221.146-.354.146-.25 0-.5 0-.5 0v4s1.588.794 3.13 1.565c1.677.838 2.546 2.729 2.092 4.548-.855 3.421-2.194 8.775-2.843 11.372-.223.89-1.023 1.515-1.941 1.515-1.875 0-5.001 0-6.876 0-.918 0-1.718-.625-1.941-1.515-.649-2.597-1.988-7.951-2.843-11.372-.454-1.819.415-3.71 2.092-4.548 1.542-.771 3.13-1.565 3.13-1.565v-4s-.25 0-.5 0c-.133 0-.26-.053-.354-.146-.093-.094-.146-.221-.146-.354 0-.305 0-.695 0-1z" stroke="#000" stroke-width="4"/><path d="m14 2h4v5h-4z" fill="#63401e" stroke="#000" stroke-width="4"/><path d="m12 5.5c0-.133.053-.26.146-.354.094-.093.221-.146.354-.146h7c.133 0 .26.053.354.146.093.094.146.221.146.354v1c0 .133-.053.26-.146.354-.094.093-.221.146-.354.146-.25 0-.5 0-.5 0v4s1.588.794 3.13 1.565c1.677.838 2.546 2.729 2.092 4.548-.855 3.421-2.194 8.775-2.843 11.372-.223.89-1.023 1.515-1.941 1.515-1.875 0-5.001 0-6.876 0-.918 0-1.718-.625-1.941-1.515-.649-2.597-1.988-7.951-2.843-11.372-.454-1.819.415-3.71 2.092-4.548 1.542-.771 3.13-1.565 3.13-1.565v-4s-.25 0-.5 0c-.133 0-.26-.053-.354-.146-.093-.094-.146-.221-.146-.354 0-.305 0-.695 0-1z" fill="#d8d8d8"/><g clip-path="url(#a)"><path d="m6 13h21v18h-21z" fill="#982eee"/><path d="m6 12h21v3h-21z" fill="#b971f3"/><path d="m16 10.343c0 1.061-.421 2.078-1.172 2.829-.436.436-.937.937-1.395 1.395-.901.901-1.319 2.177-1.125 3.436.561 3.647 1.692 10.997 1.692 10.997v2h-6v-24h8z" fill="#fff" fill-opacity=".494118"/></g><path d="m19.5 5 .025.001.024.001.025.003.024.005.024.005.023.007.024.007.022.009.023.01.021.011.022.012.02.013.02.014.02.015.019.016.018.017.017.018.016.019.015.02.014.02.013.02.012.022.011.021.01.023.009.022.007.024.007.023.005.024.005.024.003.025.001.024.001.025v1l-.001.025-.001.024-.003.025-.005.024-.005.024-.007.023-.007.024-.009.022-.01.023-.011.021-.012.022-.013.02-.014.02-.015.02-.016.019-.017.018-.018.017-.019.016-.02.015-.02.014-.02.013-.022.012-.021.011-.023.01-.022.009-.024.007-.023.007-.024.005-.024.005-.025.003-.024.001-.025.001h-.5v4l3.13 1.565.078.04.077.042.076.043.074.044.073.046.072.048.071.048.069.051.068.051.067.053.066.054.064.055.063.057.061.058.06.058.059.061.058.061.056.062.055.064.053.064.052.066.05.066.049.067.048.069.046.069.044.07.043.072.042.072.04.072.039.074.037.074.035.075.034.076.033.077.03.077.029.078.028.078.026.079.024.08.023.08.021.08.019.081.018.082.016.082.014.082.013.083.011.083.009.084.007.084.005.084.004.084.002.085.001.084-.002.085-.004.085-.005.086-.007.085-.009.085-.011.086-.012.085-.015.086-.016.085-.019.086-.02.085-2.843 11.372-.011.042-.012.041-.012.04-.014.041-.014.04-.015.039-.015.039-.017.039-.017.038-.018.038-.019.037-.019.036-.021.037-.02.035-.022.036-.022.034-.023.035-.024.033-.024.033-.025.033-.026.032-.026.031-.027.031-.027.031-.028.029-.029.03-.029.028-.029.028-.031.027-.031.027-.031.026-.032.025-.032.025-.033.024-.033.024-.034.022-.034.022-.035.022-.035.02-.036.02-.036.02-.037.018-.036.018-.038.017-.037.016-.038.016-.039.015-.039.013-.039.014-.039.012-.04.012-.04.01-.04.01-.041.01-.041.008-.041.007-.041.007-.042.006-.042.005-.042.004-.042.003-.043.002-.043.002h-.043-6.876-.043l-.043-.002-.043-.002-.042-.003-.042-.004-.042-.005-.042-.006-.041-.007-.041-.007-.041-.008-.041-.01-.04-.01-.04-.01-.04-.012-.039-.012-.039-.014-.039-.013-.039-.015-.038-.016-.037-.016-.038-.017-.036-.018-.037-.018-.036-.02-.036-.02-.035-.02-.035-.022-.034-.022-.034-.022-.033-.024-.033-.024-.032-.025-.032-.025-.031-.026-.031-.027-.031-.027-.029-.028-.029-.028-.029-.03-.028-.029-.027-.031-.027-.031-.026-.031-.026-.032-.025-.033-.024-.033-.024-.033-.023-.035-.022-.034-.022-.036-.02-.035-.021-.037-.019-.036-.019-.037-.018-.038-.017-.038-.017-.039-.015-.039-.015-.039-.014-.04-.014-.041-.012-.04-.012-.041-.011-.042-2.843-11.372-.02-.085-.019-.086-.016-.085-.015-.086-.012-.085-.011-.086-.009-.085-.007-.085-.005-.086-.004-.085-.002-.085.001-.084.002-.085.004-.084.005-.084.007-.084.009-.084.011-.083.013-.083.014-.082.016-.082.018-.082.019-.081.021-.08.023-.08.024-.08.026-.079.028-.078.029-.078.03-.077.033-.077.034-.076.035-.075.037-.074.039-.074.04-.072.042-.072.043-.072.044-.07.046-.069.048-.069.049-.067.05-.066.052-.066.053-.064.055-.064.056-.062.058-.061.059-.061.06-.058.061-.058.063-.057.064-.055.066-.054.067-.053.068-.051.069-.051.071-.048.072-.048.073-.046.074-.044.076-.043.077-.042.078-.04 3.13-1.565v-4h-.5l-.025-.001-.024-.001-.025-.003-.024-.005-.024-.005-.023-.007-.024-.007-.022-.009-.023-.01-.021-.011-.022-.012-.02-.013-.02-.014-.02-.015-.019-.016-.018-.017-.017-.018-.016-.019-.015-.02-.014-.02-.013-.02-.012-.022-.011-.021-.01-.023-.009-.022-.007-.024-.007-.023-.005-.024-.005-.024-.003-.025-.001-.024-.001-.025v-1l.001-.025.001-.024.003-.025.005-.024.005-.024.007-.023.007-.024.009-.022.01-.023.011-.021.012-.022.013-.02.014-.02.015-.02.016-.019.017-.018.018-.017.019-.016.02-.015.02-.014.02-.013.022-.012.021-.011.023-.01.022-.009.024-.007.023-.007.024-.005.024-.005.025-.003.024-.001.025-.001zm-6.5 1s.098.005.098.005l.097.014.095.024.093.033.088.042.085.051.078.058.073.066.066.073.058.078.051.085.042.088.033.093.024.095.014.097.005.098v4l-.004.092-.013.091-.021.09-.029.088-.038.084-.044.081-.052.076-.059.071-.065.065-.071.059-.076.052-.081.045-3.125 1.563-.064.033-.057.031-.057.032-.056.034-.055.034-.054.036-.053.036-.052.038-.051.038-.05.04-.049.04-.048.042-.047.042-.046.043-.045.045-.044.045-.043.046-.043.046-.041.048-.039.048-.039.049-.038.05-.037.051-.036.051-.034.052-.034.053-.032.053-.031.054-.03.055-.029.055-.028.056-.027.056-.025.057-.024.058-.024.058-.021.058-.021.059-.02.059-.018.06-.017.06-.016.06-.014.061-.013.061-.012.062-.011.062-.009.062-.008.062-.007.063-.006.062-.004.063-.003.063-.001.064v.063l.001.064.002.064.004.063.006.064.006.064.008.064.01.065.011.064.012.064.014.064.017.07 2.84 11.361.007.027.006.02.006.021.007.02.007.02.007.019.008.02.008.019.009.019.009.019.009.019.01.018.01.018.01.018.011.017.011.018.012.017.012.016.012.017.012.016.013.016.013.016.013.015.014.015.014.015.014.015.015.014.015.014.015.014.015.013.016.013.016.013.016.013.017.012.017.011.017.012.017.011.017.011.018.01.018.01.018.009.018.01.018.009.019.008.019.008.019.008.019.007.019.007.02.007.019.006.02.006.02.005.02.005.02.005.021.004.02.004.021.003.021.003.021.002.021.002.021.002.021.001.022.001h.027 6.866.027l.022-.001.021-.001.021-.002.021-.002.021-.002.021-.003.021-.003.02-.004.021-.004.02-.005.02-.005.02-.005.02-.006.019-.006.02-.007.019-.007.019-.007.019-.008.019-.008.019-.008.018-.009.018-.01.018-.009.018-.01.018-.01.017-.011.017-.011.017-.012.017-.011.017-.012.016-.013.016-.013.016-.013.015-.013.015-.014.015-.014.015-.014.014-.015.014-.015.014-.015.013-.015.013-.016.013-.016.012-.016.012-.017.012-.016.012-.017.011-.018.011-.017.01-.018.01-.018.01-.018.009-.019.009-.019.009-.019.008-.019.008-.02.007-.019.007-.02.007-.02.006-.021.006-.02.007-.027 2.84-11.361.017-.07.014-.064.012-.064.011-.064.01-.065.008-.064.006-.064.006-.064.004-.063.002-.064.001-.064v-.063l-.001-.064-.003-.063-.004-.063-.006-.062-.007-.063-.008-.062-.009-.062-.011-.062-.012-.062-.013-.061-.014-.061-.016-.06-.017-.06-.018-.06-.02-.059-.021-.059-.021-.058-.024-.058-.024-.058-.025-.057-.027-.056-.028-.056-.029-.055-.03-.055-.031-.054-.032-.053-.034-.053-.034-.052-.036-.051-.037-.051-.038-.05-.039-.049-.039-.048-.041-.048-.043-.046-.043-.046-.044-.045-.045-.045-.046-.043-.047-.042-.048-.042-.049-.04-.05-.04-.051-.038-.052-.038-.053-.036-.054-.036-.055-.034-.056-.034-.057-.032-.057-.031-.064-.033-3.125-1.563-.081-.045-.076-.052-.071-.059-.065-.065-.059-.071-.052-.076-.044-.081-.038-.084-.029-.088-.021-.09-.013-.091-.004-.092v-4l.005-.098.014-.097.024-.095.033-.093.042-.088.051-.085.058-.078.066-.073.073-.066.078-.058.085-.051.088-.042.093-.033.095-.024.097-.014.098-.005z" fill="#d8d8d8"/><path d="m14 2h4v4h-4z" fill="#63401e"/></svg>