<svg clip-rule="evenodd" fill-rule="evenodd" stroke-linejoin="round" stroke-miterlimit="1.41421" viewBox="0 0 32 32" xmlns="http://www.w3.org/2000/svg" xmlns:xlink="http://www.w3.org/1999/xlink"><clipPath id="a"><path clip-rule="evenodd" d="m0 0h32v32h-32z"/></clipPath><clipPath id="b"><path clip-rule="evenodd" d="m2 6h28v20h-28z"/></clipPath><metadata/><path d="m0 0h32v32h-32z" fill="none"/><g clip-path="url(#a)"><path d="m32 6c0-.53-.211-1.039-.586-1.414s-.884-.586-1.414-.586c-5.746 0-22.254 0-28 0-.53 0-1.039.211-1.414.586s-.586.884-.586 1.414v20c0 .53.211 1.039.586 1.414s.884.586 1.414.586h28c.53 0 1.039-.211 1.414-.586s.586-.884.586-1.414c0-4.52 0-15.48 0-20z"/><path d="m2 6h28v20h-28z" fill="#f3effe"/><g clip-path="url(#b)"><path d="m0 14 16-8 16 8v13h-32z" fill="#85889f"/><g fill="#d8cbfb"><path d="m17 16.999c0-.552-.447-.999-.999-.999-.001 0-.001 0-.002 0-.552 0-.999.447-.999.999v.002c0 .552.447.999.999.999h.002c.552 0 .999-.447.999-.999 0-.001 0-.001 0-.002z"/><path d="m15 15h4c.265 0 .52-.105.707-.293.188-.187.293-.442.293-.707 0-.683 0-1.621 0-2.5 0-.663-.263-1.299-.732-1.768s-1.105-.732-1.768-.732c-.001 0-.001 0-.002 0-1.38 0-2.498 1.118-2.498 2.498v.502h2s0-.25 0-.5c0-.276.224-.5.5-.5.133 0 .26.053.354.146.093.094.146.221.146.354v1.5s-1.127 0-2 0c-.552 0-1 .448-1 1z"/><path d="m17 19s-2.541 0-4 0c-.265 0-.52.105-.707.293-.188.187-.293.442-.293.707v2.5c0 .663.263 1.299.732 1.768s1.105.732 1.768.732c1.381 0 2.5-1.119 2.5-2.5 0-.299 0-.5 0-.5h-2v.5c0 .276-.224.5-.5.5-.133 0-.26-.053-.354-.146-.093-.094-.146-.221-.146-.354 0-.592 0-1.5 0-1.5h2c.552 0 1-.448 1-1 0-.5 0-1 0-1z"/><path d="m18 16v4c0 .265.105.52.293.707.187.188.442.293.707.293h2.5c.663 0 1.299-.263 1.768-.732s.732-1.105.732-1.768c0-.001 0-.001 0-.002 0-1.38-1.118-2.498-2.498-2.498-.3 0-.502 0-.502 0v2h.5c.276 0 .5.224.5.5 0 .133-.053.26-.146.354-.094.093-.221.146-.354.146-.592 0-1.5 0-1.5 0s0-1.127 0-2c0-.552-.448-1-1-1-.5 0-1 0-1 0z"/><path d="m14 18s0-2.541 0-4c0-.265-.105-.52-.293-.707-.187-.188-.442-.293-.707-.293-.683 0-1.621 0-2.5 0-.663 0-1.299.263-1.768.732s-.732 1.105-.732 1.768c0 1.381 1.119 2.5 2.5 2.5h.5v-2s-.25 0-.5 0c-.276 0-.5-.224-.5-.5 0-.133.053-.26.146-.354.094-.093.221-.146.354-.146h1.5v2c0 .552.448 1 1 1z"/></g></g></g></svg>