<svg clip-rule="evenodd" fill-rule="evenodd" stroke-linejoin="round" stroke-miterlimit="1.41421" viewBox="0 0 32 32" xmlns="http://www.w3.org/2000/svg" xmlns:xlink="http://www.w3.org/1999/xlink"><clipPath id="a"><path clip-rule="evenodd" d="m0 0h32v32h-32z"/></clipPath><clipPath id="b"><path clip-rule="evenodd" d="m16 14s0 0 0-.001c0-2.545 1.08-4.971 2.973-6.674 2.947-2.653 7.027-6.325 7.027-6.325v7.5c0 1.574-.741 3.056-2 4-.62.465-1.241.931-1.622 1.217-.249.186-.45.428-.589.705-.294.587-.789 1.578-.789 1.578"/></clipPath><clipPath id="c"><path clip-rule="evenodd" d="m16 14s0 0 0-.001c0-2.545-1.08-4.971-2.973-6.674-2.947-2.653-7.027-6.325-7.027-6.325v7.5c0 1.574.741 3.056 2 4 .62.465 1.241.931 1.622 1.217.249.186.45.428.589.705.294.587.789 1.578.789 1.578"/></clipPath><metadata/><path d="m0 0h32v32h-32z" fill="none"/><g clip-path="url(#a)"><path d="m15.999 12c-3.451 0-6.386 2.518-6.911 5.929-.215 1.396-.435 2.827-.621 4.034-.298 1.935.229 3.907 1.453 5.437.299.374.602.752.879 1.099.759.949 1.908 1.501 3.123 1.501h4.156c1.215 0 2.364-.552 3.123-1.501.277-.347.58-.725.879-1.099 1.224-1.53 1.751-3.502 1.453-5.437-.186-1.207-.406-2.638-.621-4.034-.525-3.411-3.46-5.929-6.911-5.929-.001 0-.001 0-.002 0z"/><path d="m16.105 10.001.103.001.103.003.104.004.102.006.103.006.102.008.102.008.101.01.102.011.101.012.101.014.1.014.1.015.1.017.1.018.099.018.099.02.098.021.098.022.098.023.097.024.097.026.096.026.096.027.096.029.095.029.095.03.095.032.093.032.094.033.093.035.092.035.093.037.091.037.091.038.091.04.09.04.089.041.089.043.089.043.088.044.087.045.087.046.086.047.086.047.085.049.085.05.084.05.083.051.083.053.082.053.082.054.081.055.08.055.08.057.079.057.079.058.077.06.078.06.076.06.076.062.075.062.074.063.074.064.073.065.073.066.071.066.071.067.071.068.069.069.069.069.068.071.067.07.067.072.065.073.065.073.065.074.063.074.063.076.062.076.061.077.06.077.059.078.059.079.058.08.057.08.056.081.055.081.054.083.054.082.053.084.051.084.051.085.05.085.049.086.048.087.048.087.046.088.045.089.045.089.043.09.043.09.041.091.041.091.04.092.038.092.038.093.037.094.035.094.035.095.034.095.032.096.032.096.03.096.03.097.028.098.027.098.027.099.025.099.024.099.023.1.022.1.021.101.02.101.018.102.018.101.015.097.622 4.046.017.11.015.117.014.117.013.116.011.117.009.117.008.117.007.117.005.116.003.117.002.117v.116l-.001.117-.003.116-.004.116-.006.116-.007.116-.008.116-.011.115-.011.116-.013.115-.015.115-.016.114-.017.115-.019.114-.021.114-.022.113-.023.113-.025.113-.026.113-.028.112-.029.112-.03.111-.032.111-.034.111-.034.11-.037.11-.037.109-.039.109-.041.108-.042.108-.043.108-.045.106-.046.107-.047.105-.049.106-.05.104-.052.104-.053.104-.054.103-.056.102-.057.101-.058.101-.06.1-.061.1-.063.098-.063.098-.065.098-.067.096-.068.096-.069.095-.07.094-.072.094-.069.087-.888 1.11-.049.06-.055.066-.055.064-.056.064-.057.063-.058.062-.059.06-.06.06-.06.06-.061.058-.062.057-.062.056-.063.056-.064.054-.065.054-.065.052-.066.052-.067.051-.067.049-.068.049-.069.048-.069.047-.07.045-.071.045-.071.044-.071.043-.072.041-.073.041-.073.04-.074.039-.075.037-.074.037-.076.035-.075.035-.077.033-.077.033-.077.031-.077.03-.079.03-.078.028-.079.027-.079.026-.08.025-.08.023-.081.023-.081.022-.081.02-.082.019-.081.018-.083.018-.082.015-.083.015-.083.014-.083.012-.084.012-.084.01-.084.009-.084.007-.084.007-.085.005-.085.005-.085.003-.085.001-.078.001h-4.17l-.078-.001-.085-.001-.085-.003-.085-.005-.085-.005-.084-.007-.084-.007-.084-.009-.084-.01-.084-.012-.083-.012-.083-.014-.083-.015-.082-.015-.083-.018-.081-.018-.082-.019-.081-.02-.081-.022-.081-.023-.08-.023-.08-.025-.079-.026-.079-.027-.078-.028-.079-.03-.077-.03-.077-.031-.077-.033-.077-.033-.075-.035-.076-.035-.074-.037-.075-.037-.074-.039-.073-.04-.073-.041-.072-.041-.071-.043-.071-.044-.071-.045-.07-.045-.069-.047-.069-.048-.068-.048-.067-.05-.067-.051-.066-.051-.065-.053-.065-.054-.063-.054-.064-.056-.062-.056-.062-.057-.061-.058-.06-.059-.06-.061-.059-.061-.057-.061-.058-.063-.056-.064-.055-.064-.055-.066-.049-.06-.888-1.11-.069-.087-.072-.094-.07-.094-.069-.095-.068-.096-.067-.096-.065-.098-.063-.098-.063-.098-.061-.1-.06-.1-.058-.101-.057-.101-.056-.102-.054-.103-.053-.104-.052-.104-.05-.104-.049-.106-.047-.105-.046-.107-.045-.106-.043-.108-.042-.108-.041-.108-.039-.109-.037-.109-.037-.11-.034-.11-.034-.111-.032-.111-.03-.111-.029-.112-.028-.112-.026-.113-.025-.113-.023-.113-.022-.113-.021-.114-.019-.114-.017-.115-.016-.114-.015-.115-.013-.115-.011-.116-.011-.115-.008-.116-.007-.116-.006-.116-.004-.116-.003-.116-.001-.117v-.116l.002-.117.003-.117.005-.116.007-.117.008-.117.009-.117.011-.117.013-.116.014-.117.015-.117.017-.11.622-4.046.015-.097.018-.101.018-.102.02-.101.021-.101.022-.1.023-.1.024-.099.025-.099.027-.099.027-.098.028-.098.03-.097.03-.096.032-.096.033-.096.033-.095.035-.095.035-.094.037-.094.038-.093.038-.092.04-.092.041-.091.041-.091.043-.09.043-.09.045-.089.045-.089.046-.088.048-.087.048-.087.049-.086.05-.085.051-.085.052-.084.052-.084.054-.082.054-.083.055-.081.056-.081.057-.08.058-.08.059-.079.059-.078.06-.077.061-.077.062-.076.063-.076.063-.074.065-.074.065-.073.065-.073.067-.072.067-.07.068-.071.069-.069.069-.069.071-.068.071-.067.071-.066.073-.066.073-.065.074-.064.074-.063.075-.062.076-.062.077-.061.077-.059.077-.06.079-.058.079-.057.08-.057.08-.055.081-.055.082-.054.082-.053.083-.053.083-.051.084-.051.085-.049.085-.049.086-.047.086-.047.087-.046.087-.045.088-.044.089-.043.089-.043.089-.041.09-.04.091-.04.091-.038.091-.037.093-.037.092-.035.093-.035.093-.033.094-.032.095-.032.095-.03.095-.029.096-.029.096-.027.096-.026.097-.026.097-.024.098-.023.098-.022.098-.021.099-.02.099-.018.1-.018.1-.017.1-.015.1-.014.101-.014.101-.012.102-.011.101-.01.102-.008.102-.008.103-.006.102-.006.104-.004.103-.003.103-.001.098-.001h.014zm-.164 3.999-.058.001-.058.002-.057.002-.058.003-.057.004-.057.004-.056.005-.057.005-.056.006-.056.007-.056.008-.056.007-.055.009-.056.009-.055.01-.055.01-.054.011-.055.012-.054.012-.054.013-.054.013-.054.014-.053.015-.053.015-.053.016-.053.016-.052.017-.053.017-.052.018-.051.018-.052.02-.051.019-.051.02-.051.021-.05.021-.05.022-.05.022-.05.023-.049.024-.049.024-.049.024-.049.025-.048.026-.048.025-.047.027-.048.027-.047.028-.046.028-.047.028-.046.029-.045.03-.046.03-.045.03-.045.031-.044.032-.044.032-.044.032-.043.033-.043.033-.042.034-.043.034-.041.035-.042.035-.041.036-.041.036-.04.036-.04.037-.039.038-.039.037-.039.039-.038.038-.038.039-.038.04-.037.04-.036.04-.036.041-.036.041-.035.041-.035.042-.034.042-.034.043-.034.043-.033.044-.032.043-.032.044-.032.045-.031.045-.031.045-.03.046-.029.046-.03.046-.028.047-.029.047-.027.047-.027.047-.027.049-.026.048-.026.048-.025.049-.025.05-.024.049-.023.05-.023.051-.023.05-.022.051-.021.051-.021.052-.02.051-.02.053-.019.052-.019.053-.018.053-.017.053-.017.053-.016.054-.016.055-.015.054-.015.055-.014.055-.013.055-.013.056-.012.055-.012.057-.011.056-.01.057-.01.057-.01.063-.619 4.021-.01.072-.009.064-.008.065-.007.065-.006.065-.005.065-.005.065-.003.065-.003.065-.002.064-.001.065v.065l.001.065.001.064.002.065.004.064.004.065.004.064.006.064.006.064.008.064.008.064.009.063.009.064.011.063.011.064.012.063.013.063.014.062.015.063.015.062.016.062.017.062.018.062.019.061.019.062.02.061.021.06.022.061.022.06.023.06.025.06.024.059.026.059.026.059.027.058.028.058.029.058.029.058.03.057.031.056.032.057.033.056.033.055.034.056.034.055.036.054.036.054.037.054.038.053.038.053.039.052.04.052.045.056.87 1.089.023.028.018.021.019.022.018.021.019.021.02.021.019.02.02.02.02.02.02.019.021.019.021.019.021.018.021.018.022.018.021.018.022.017.023.017.022.016.023.017.023.016.023.015.023.015.023.015.024.015.024.014.024.014.024.014.025.013.024.013.025.012.025.013.025.011.026.012.025.011.026.011.025.01.026.01.026.01.027.01.026.009.026.008.027.009.027.007.027.008.026.007.027.007.028.006.027.006.027.006.028.005.027.005.028.005.028.004.027.004.028.003.028.003.028.003.029.002.028.002.028.001.029.001.028.001h.036 4.14.036l.028-.001.029-.001.028-.001.028-.002.029-.002.028-.003.028-.003.028-.003.027-.004.028-.004.028-.005.027-.005.028-.005.027-.006.027-.006.028-.006.027-.007.027-.007.026-.008.027-.007.027-.009.026-.008.027-.009.026-.01.026-.01.026-.01.025-.01.026-.011.025-.011.026-.012.025-.011.025-.013.025-.012.024-.013.025-.013.024-.014.024-.014.024-.014.024-.015.023-.015.023-.015.023-.015.023-.016.023-.017.022-.016.023-.017.022-.017.021-.018.022-.018.021-.018.021-.018.021-.019.021-.019.02-.019.02-.02.02-.02.019-.02.02-.021.019-.021.018-.021.019-.022.018-.022.023-.027.87-1.089.045-.056.04-.052.039-.052.038-.053.038-.053.037-.054.036-.054.036-.055.034-.054.034-.056.033-.055.033-.056.032-.057.031-.056.03-.057.029-.058.029-.058.028-.058.027-.058.026-.059.026-.059.025-.059.024-.06.023-.06.022-.06.022-.061.021-.06.02-.061.019-.062.019-.061.018-.062.017-.062.016-.062.015-.062.015-.063.014-.062.013-.063.012-.063.011-.064.011-.063.009-.064.009-.063.008-.064.008-.064.006-.064.006-.064.004-.064.004-.065.004-.064.002-.065.001-.064.001-.065v-.065l-.001-.065-.002-.064-.003-.065-.003-.065-.005-.065-.005-.065-.006-.065-.007-.065-.008-.065-.009-.064-.01-.072-.619-4.021-.01-.063-.01-.057-.01-.057-.011-.056-.012-.057-.012-.056-.013-.055-.013-.055-.014-.055-.015-.055-.015-.054-.016-.055-.016-.054-.017-.053-.017-.053-.018-.053-.019-.053-.019-.052-.02-.053-.02-.051-.021-.052-.021-.051-.022-.051-.023-.05-.023-.051-.023-.05-.024-.049-.025-.05-.025-.048-.026-.049-.026-.049-.027-.047-.027-.048-.027-.047-.029-.047-.028-.047-.03-.046-.029-.046-.03-.046-.031-.045-.031-.045-.032-.045-.032-.044-.032-.043-.033-.044-.034-.043-.034-.043-.034-.042-.035-.042-.035-.041-.036-.041-.036-.041-.036-.04-.037-.04-.038-.04-.038-.039-.038-.038-.039-.038-.039-.038-.039-.038-.04-.037-.04-.036-.041-.036-.041-.036-.042-.035-.041-.035-.043-.034-.042-.034-.043-.033-.043-.033-.044-.032-.044-.032-.044-.032-.045-.031-.045-.03-.046-.03-.045-.03-.046-.029-.047-.028-.046-.028-.047-.028-.048-.027-.047-.027-.048-.025-.048-.026-.049-.025-.049-.024-.049-.024-.049-.024-.05-.023-.05-.022-.05-.022-.05-.021-.051-.021-.051-.02-.051-.019-.052-.02-.051-.018-.052-.018-.053-.017-.052-.017-.053-.016-.053-.016-.053-.015-.053-.015-.054-.014-.054-.013-.054-.013-.054-.012-.055-.012-.054-.011-.055-.01-.055-.01-.056-.009-.055-.009-.056-.007-.056-.008-.056-.007-.056-.006-.057-.005-.056-.005-.057-.004-.057-.004-.058-.003-.057-.002-.058-.002-.058-.001h-.059-.059z"/><path d="m16 14s0 0 0-.001c0-2.545 1.08-4.971 2.973-6.674 2.947-2.653 7.027-6.325 7.027-6.325v7.5c0 1.574-.741 3.056-2 4-.62.465-1.241.931-1.622 1.217-.249.186-.45.428-.589.705-.294.587-.789 1.578-.789 1.578" fill="#d0c1a4"/><g clip-path="url(#b)"><path d="m21 16c-1.785-2.975-1.431-6.765.874-9.358 2.041-2.296 4.126-4.642 4.126-4.642l-1-3-7 10-3 7z" fill="#a69068"/></g><path d="m27-.197v8.701l-.001.084-.002.089-.003.088-.004.088-.006.087-.007.088-.009.087-.009.087-.011.087-.012.086-.013.086-.015.086-.016.086-.017.085-.018.085-.02.084-.02.085-.022.083-.023.084-.024.083-.026.083-.026.082-.028.082-.029.081-.03.081-.031.08-.033.08-.033.08-.035.079-.036.078-.036.078-.038.077-.04.077-.04.076-.041.076-.042.075-.044.075-.044.073-.046.074-.047.072-.047.072-.049.071-.05.071-.051.07-.052.069-.053.069-.054.067-.055.068-.056.066-.057.065-.058.065-.059.064-.059.063-.061.063-.062.061-.063.061-.064.06-.065.059-.065.058-.067.057-.068.057-.068.055-.07.054-.067.052-1.619 1.214-.029.023-.023.018-.022.019-.021.02-.021.02-.02.021-.019.021-.019.022-.018.022-.018.023-.017.024-.016.024-.015.024-.015.025-.014.026-.017.032-1.233 2.466-1.789-.895 1.24-2.478.036-.071.043-.077.044-.074.047-.074.048-.072.051-.07.053-.069.054-.068.057-.065.058-.065.061-.062.062-.061.064-.059.065-.057.068-.055.063-.049 1.625-1.219.05-.038.046-.036.046-.037.045-.038.044-.038.044-.039.043-.039.043-.04.042-.04.041-.041.041-.042.04-.042.039-.043.039-.043.038-.043.037-.045.037-.044.035-.045.036-.046.034-.046.034-.047.033-.047.033-.047.032-.048.031-.049.03-.049.03-.049.029-.05.028-.05.028-.05.027-.051.026-.051.025-.052.025-.052.023-.052.024-.053.022-.053.021-.053.021-.053.02-.054.02-.055.018-.054.018-.055.017-.055.016-.056.015-.055.015-.056.014-.056.013-.056.012-.057.011-.057.011-.057.009-.057.009-.058.008-.057.008-.058.006-.058.005-.058.005-.058.004-.059.003-.058.002-.059.002-.059v-.063-5.251l-5.356 4.821-.081.073-.077.073-.076.073-.075.074-.074.075-.073.076-.072.077-.071.078-.069.078-.069.079-.067.08-.067.081-.065.082-.064.083-.063.083-.061.084-.061.085-.06.085-.058.087-.057.086-.056.088-.055.088-.054.089-.052.09-.051.09-.05.091-.049.092-.048.092-.047.093-.045.093-.044.094-.043.095-.041.095-.041.095-.039.097-.038.096-.036.097-.036.098-.034.098-.033.099-.031.098-.03.1-.029.1-.028.1-.026.101-.025.101-.024.101-.023.102-.021.102-.02.103-.018.102-.017.104-.016.103-.015.104-.013.104-.011.104-.011.105-.009.104-.008.105-.006.106-.005.105-.003.106-.002.105-.001.11v.997h-2v-1.004l.001-.129.002-.132.005-.133.006-.131.008-.132.009-.131.012-.131.013-.131.014-.13.017-.131.018-.129.02-.13.021-.129.023-.128.025-.128.026-.128.029-.127.029-.127.032-.127.033-.126.034-.125.037-.125.037-.124.04-.124.041-.123.043-.123.044-.122.046-.121.047-.121.049-.121.05-.119.052-.119.054-.118.055-.118.057-.116.058-.116.059-.116.061-.114.063-.114.064-.113.066-.112.067-.111.069-.111.07-.109.071-.109.073-.108.074-.107.076-.106.078-.105.078-.104.08-.104.082-.102.083-.101.084-.1.086-.1.087-.098.089-.097.089-.096.092-.095.092-.094.094-.092.095-.092.097-.09.095-.088 7.92-7.127.779.347z"/><path d="m16 14s0 0 0-.001c0-2.545-1.08-4.971-2.973-6.674-2.947-2.653-7.027-6.325-7.027-6.325v7.5c0 1.574.741 3.056 2 4 .62.465 1.241.931 1.622 1.217.249.186.45.428.589.705.294.587.789 1.578.789 1.578" fill="#d0c1a4"/><g clip-path="url(#c)"><path d="m11 16c1.785-2.975 1.431-6.765-.874-9.358-2.041-2.296-4.126-4.642-4.126-4.642l1-3 7 10 3 7z" fill="#a69068"/></g><path d="m13.699 6.583.095.088.097.09.095.092.094.092.092.094.092.095.089.096.089.097.087.098.086.1.084.1.083.101.082.102.08.104.078.104.078.105.076.106.074.107.073.108.071.109.07.109.069.111.067.111.066.112.064.113.063.114.061.114.059.116.058.116.057.116.055.118.054.118.052.119.05.119.049.121.047.121.046.121.044.122.043.123.041.123.04.124.037.124.037.125.034.125.033.126.032.127.029.127.029.127.026.128.025.128.023.128.021.129.02.13.018.129.017.131.014.13.013.131.012.131.009.131.008.132.006.131.005.133.002.132.001.129v1.004h-2v-.997l-.001-.11-.002-.105-.003-.106-.005-.105-.006-.106-.008-.105-.009-.104-.011-.105-.011-.104-.013-.104-.015-.104-.016-.103-.017-.104-.018-.102-.02-.103-.021-.102-.023-.102-.024-.101-.025-.101-.026-.101-.028-.1-.029-.1-.03-.1-.031-.098-.033-.099-.034-.098-.036-.098-.036-.097-.038-.096-.039-.097-.041-.095-.041-.095-.043-.095-.044-.094-.045-.093-.047-.093-.048-.092-.049-.092-.05-.091-.051-.09-.052-.09-.054-.089-.055-.088-.056-.088-.057-.086-.058-.087-.06-.085-.061-.085-.061-.084-.063-.083-.064-.083-.065-.082-.067-.081-.067-.08-.069-.079-.069-.079-.071-.077-.072-.077-.073-.076-.074-.075-.075-.074-.076-.073-.077-.073-.081-.073-5.356-4.821v5.251.063l.002.059.002.059.003.058.004.059.005.058.005.058.006.058.008.058.008.058.009.057.009.057.011.057.011.057.012.057.013.056.014.056.015.056.015.055.016.056.017.055.018.055.018.054.02.055.02.053.021.054.021.053.022.053.024.053.023.052.025.052.025.052.026.051.027.051.028.05.028.05.029.05.03.049.03.049.031.049.032.048.033.047.033.047.034.047.034.046.036.046.035.045.037.044.037.045.038.043.039.043.039.043.04.042.041.042.041.041.042.04.043.04.043.039.044.039.044.038.045.038.046.037.046.036.05.038 1.625 1.219.063.049.068.055.065.057.064.059.062.061.061.062.058.065.057.065.054.068.053.069.051.07.048.072.047.074.044.074.043.077.036.071 1.24 2.478-1.789.895-1.233-2.466-.017-.032-.014-.026-.015-.025-.015-.024-.016-.024-.017-.024-.018-.022-.018-.023-.019-.022-.019-.021-.02-.021-.021-.02-.021-.02-.022-.019-.023-.018-.029-.023-1.619-1.214-.067-.052-.07-.054-.068-.055-.068-.057-.067-.057-.065-.058-.065-.059-.064-.06-.063-.061-.062-.061-.061-.063-.06-.063-.058-.064-.058-.065-.057-.065-.056-.066-.055-.068-.054-.067-.053-.069-.052-.069-.051-.07-.05-.071-.049-.071-.047-.072-.047-.072-.046-.074-.044-.073-.044-.075-.042-.075-.041-.076-.04-.076-.04-.077-.038-.077-.036-.078-.036-.078-.035-.079-.033-.08-.033-.08-.031-.08-.03-.081-.029-.081-.028-.082-.026-.082-.026-.083-.024-.083-.023-.084-.022-.083-.02-.085-.02-.084-.018-.085-.017-.085-.016-.086-.015-.086-.013-.086-.012-.086-.011-.087-.009-.087-.009-.087-.007-.088-.006-.087-.004-.088-.003-.088-.002-.089-.001-.084v-8.701l.779-.347 7.92 7.127z"/><path d="m15.999 12c-3.451 0-6.386 2.518-6.911 5.929-.215 1.396-.435 2.827-.621 4.034-.298 1.935.229 3.907 1.453 5.437.299.374.602.752.879 1.099.759.949 1.908 1.501 3.123 1.501h4.156c1.215 0 2.364-.552 3.123-1.501.277-.347.58-.725.879-1.099 1.224-1.53 1.751-3.502 1.453-5.437-.186-1.207-.406-2.638-.621-4.034-.525-3.411-3.46-5.929-6.911-5.929-.001 0-.001 0-.002 0z" fill="#a69068"/><path d="m18.598 27.01.031.007.03.009.029.011.029.012.028.015.027.016.025.018.025.02.024.021.022.022.02.024.019.025.018.026.015.027.014.028.013.029.01.03.008.03.007.031.005.031.002.031.001.031-.001.032-.004.031-.005.031-.007.031-.009.03-.011.029-.012.029-.015.028-.016.027-.018.025-.02.025-.021.024-.022.022-.024.02-.025.019-.026.018-.027.015-.028.014-.029.013-.03.01-.03.008-.031.007-.031.005-.031.002-.031.001-.032-.001-.031-.004-.031-.005-2.402-.48-2.402.48-.031.005-.031.004-.032.001-.031-.001-.031-.002-.031-.005-.031-.007-.03-.008-.03-.01-.029-.013-.028-.014-.027-.015-.026-.018-.025-.019-.024-.02-.022-.022-.021-.024-.02-.025-.018-.025-.016-.027-.015-.028-.012-.029-.011-.029-.009-.03-.007-.031-.005-.031-.004-.031-.001-.032.001-.031.002-.031.005-.031.007-.031.008-.03.01-.03.013-.029.014-.028.015-.027.018-.026.019-.025.02-.024.022-.022.024-.021.025-.02.025-.018.027-.016.028-.015.029-.012.029-.011.03-.009.031-.007 2.598-.52z" fill="#57422d"/><path d="m18.544 23.502.031.004.031.005.03.008.03.009.03.012.028.013.028.015.026.017.026.018.024.02.023.021.022.023.02.024.019.025.017.027.015.027.014.029.011.029.01.029.008.031.006.031.004.031.003.031v.032l-.002.031-.004.031-.005.031-.008.03-.009.03-.012.03-.013.028-.015.028-.017.026-.018.026-.02.024-.021.023-.023.022-.024.02-.025.019-.027.017-2.757 1.654-2.757-1.654-.027-.017-.025-.019-.024-.02-.023-.022-.021-.023-.02-.024-.018-.026-.017-.026-.015-.028-.013-.028-.012-.03-.009-.03-.008-.03-.005-.031-.004-.031-.002-.031v-.032l.003-.031.004-.031.006-.031.008-.031.01-.029.011-.029.014-.029.015-.027.017-.027.019-.025.02-.024.022-.023.023-.021.024-.02.026-.018.026-.017.028-.015.028-.013.03-.012.03-.009.03-.008.031-.005.031-.004.031-.002h.032l.031.003.031.004.031.006.031.008.029.01.029.011.029.014.027.015 2.243 1.346 2.243-1.346.027-.015.029-.014.029-.011.029-.01.031-.008.031-.006.031-.004.031-.003h.032z" fill="#57422d"/><path d="m11 18c.53 0 1.039.211 1.414.586s.586.884.586 1.414v2s-.709-.236-1.438-.479c-.933-.311-1.562-1.184-1.562-2.168 0-.12 0-.239 0-.353 0-.552.448-1 1-1z"/><path d="m21 18c-.53 0-1.039.211-1.414.586s-.586.884-.586 1.414v2s.709-.236 1.438-.479c.933-.311 1.562-1.184 1.562-2.168 0-.12 0-.239 0-.353 0-.552-.448-1-1-1z"/></g></svg>