<svg clip-rule="evenodd" fill-rule="evenodd" stroke-miterlimit="3" viewBox="0 0 32 32" xmlns="http://www.w3.org/2000/svg" xmlns:xlink="http://www.w3.org/1999/xlink"><clipPath id="a"><path clip-rule="evenodd" d="m0 0h32v32h-32z"/></clipPath><metadata/><path d="m0 0h32v32h-32z" fill="none"/><g clip-path="url(#a)"><path d="m21.369 8.952c.087-.295.247-.568.471-.792.001-.001.001-.001.002-.002.105-.105.226-.192.358-.258.792-.396 3.729-1.865 5.094-2.547.187-.094.404-.109.603-.043.198.066.362.209.456.396v.001c.407.814.407 1.772 0 2.586-.575 1.151-1.401 2.803-1.906 3.813-.009.017-.018.034-.027.051.715.946 1.222 2.054 1.462 3.255.536 2.68 1.118 5.588 1.118 5.588h-2v2l-2-1s-3.283 2.189-4.992 3.328c-.657.438-1.429.672-2.219.672-1.042 0-2.536 0-3.578 0-.79 0-1.562-.234-2.219-.672-1.709-1.139-4.992-3.328-4.992-3.328l-2 1v-2h-2l1.118-5.588c.24-1.201.747-2.309 1.462-3.255-.009-.017-.018-.034-.027-.051-.505-1.01-1.331-2.662-1.906-3.813-.407-.814-.407-1.772 0-2.586 0-.001 0-.001 0-.001.094-.187.258-.33.456-.396.199-.066.416-.051.603.043 1.365.682 4.302 2.151 5.094 2.547.132.066.253.153.358.258l.002.002c.224.224.384.497.471.792l1.268-.461c2.649-.963 5.553-.963 8.202 0z" fill="none" stroke="#000" stroke-width="4"/><path d="m3.993 16.036.125-.624c.548-2.74 2.485-4.995 5.11-5.95.877-.318 1.799-.654 2.671-.971 2.649-.963 5.553-.963 8.202 0 .872.317 1.794.653 2.671.971 2.625.955 4.562 3.21 5.11 5.95l.125.624c-2.191-1.95-5.028-3.036-7.978-3.036-.009 0-.019 0-.029 0-1.657 0-3 1.343-3 3 0 1.105.895 2 2 2l1 1-4 4-4-4 1-1c1.105 0 2-.895 2-2 0-1.657-1.343-3-3-3-.01 0-.02 0-.029 0-2.95 0-5.787 1.086-7.978 3.036z" fill="#878787"/><path d="m19.333 19.667c.01.004 3.479.333 3.479.333s-.353 2.537 0 3.459l-2.804 1.869c-.657.438-1.429.672-2.219.672-1.042 0-2.536 0-3.578 0-.79 0-1.562-.234-2.219-.672l-2.804-1.869c.342-.893 0-3.097 0-3.097s3.469-.691 3.479-.695l3.333 3.333zm-1.319-1.927c-.606-.343-1.014-.994-1.014-1.74 0-1.657 1.343-3 3-3h.029c2.95 0 5.787 1.086 7.978 3.036l.993 4.964h-1.667s-9.328-3.346-9.319-3.26zm-13.347 3.26h-1.667l.993-4.964c2.191-1.95 5.028-3.036 7.978-3.036h.029c1.657 0 3 1.343 3 3 0 .746-.408 1.397-1.014 1.74.009-.086-9.319 3.26-9.319 3.26z" fill="#e1e1e1"/><path d="m4.667 21 1.626-2.927c1.054-1.897 3.053-3.073 5.222-3.073h.009c1.367 0 2.476 1.109 2.476 2.476v.002c0 .933-.527 1.785-1.361 2.202-.015.008-.03.016-.046.023-1.567.784-2.781 2.126-3.405 3.756l-2.188-1.459-2 1v-2zm18.145 2.459c-.624-1.63-1.838-2.972-3.405-3.756-.016-.007-.031-.015-.046-.023-.834-.417-1.361-1.269-1.361-2.202 0 0 0-.001 0-.002 0-1.367 1.109-2.476 2.476-2.476h.009c2.169 0 4.168 1.176 5.222 3.073l1.626 2.927h-.333v2l-2-1z" fill="#484848"/><circle cx="11.5" cy="17.5" r="1.5"/><circle cx="20.5" cy="17.5" r="1.5"/><path d="m15.236 21c-.155 0-.308.036-.447.106-.047.023-.1.049-.158.078-.901.451-1.266 1.546-.815 2.447v.001c.113.226.343.368.595.368h3.178c.252 0 .482-.142.595-.368 0 0 0 0 0-.001.451-.901.086-1.996-.815-2.447-.058-.029-.111-.055-.158-.078-.139-.07-.292-.106-.447-.106-.385 0-1.143 0-1.528 0z"/><path d="m6.894 12.553c-.494.247-1.094.047-1.341-.447-.505-1.01-1.331-2.662-1.906-3.813-.407-.814-.407-1.772 0-2.586 0-.001 0-.001 0-.001.094-.187.258-.33.456-.396.199-.066.416-.051.603.043 1.365.682 4.302 2.151 5.094 2.547.132.066.253.153.358.258l.002.002c.426.426.621 1.031.525 1.627-.097.595-.474 1.107-1.013 1.377-.973.486-2.044 1.022-2.778 1.389zm18.212 0c.494.247 1.094.047 1.341-.447.505-1.01 1.331-2.662 1.906-3.813.407-.814.407-1.772 0-2.586 0-.001 0-.001 0-.001-.094-.187-.258-.33-.456-.396-.199-.066-.416-.051-.603.043-1.365.682-4.302 2.151-5.094 2.547-.132.066-.253.153-.358.258-.001.001-.001.001-.002.002-.426.426-.621 1.031-.525 1.627.097.595.474 1.107 1.013 1.377.973.486 2.044 1.022 2.778 1.389z" fill="#484848"/></g></svg>