<svg clip-rule="evenodd" fill-rule="evenodd" stroke-linecap="round" stroke-linejoin="round" stroke-miterlimit="1.5" viewBox="0 0 32 32" xmlns="http://www.w3.org/2000/svg" xmlns:xlink="http://www.w3.org/1999/xlink"><clipPath id="a"><path clip-rule="evenodd" d="m0 0h32v32h-32z"/></clipPath><metadata/><path d="m0 0h32v32h-32z" fill="none"/><g clip-path="url(#a)"><path d="m30 13c0-.265-.105-.52-.293-.707-.187-.188-.442-.293-.707-.293-4.355 0-21.645 0-26 0-.265 0-.52.105-.707.293-.188.187-.293.442-.293.707v16c0 .265.105.52.293.707.187.188.442.293.707.293h26c.265 0 .52-.105.707-.293.188-.187.293-.442.293-.707 0-3.151 0-12.849 0-16z" fill="none" stroke="#000" stroke-width="4"/><path d="m30.162 5.5c.168.503.129 1.052-.108 1.527-.237.474-.653.835-1.157 1.003-6.325 2.108-26.294 8.765-26.294 8.765l-1.898-5.692s19.97-6.657 26.295-8.765c.503-.168 1.052-.129 1.527.108.474.237.835.653 1.003 1.157.203.61.429 1.286.632 1.897z"/><path d="m4.5 13 16.5-5.5" fill="none" stroke="#999" stroke-linecap="square" stroke-width="2"/><path d="m4.5 13 22.5-7.5" fill="none" stroke="#999" stroke-linecap="square"/><path d="m25 6.167 2-.667" fill="none" stroke="#999" stroke-linecap="square" stroke-width="2"/><path d="m30 18-3-2h-22l-3 2v11c0 .552.448 1 1 1h26c.552 0 1-.448 1-1 0-2.882 0-11 0-11z" fill="#d9d9d9"/><path d="m30 13c0-.552-.448-1-1-1-4.355 0-21.645 0-26 0-.552 0-1 .448-1 1v5h28z" fill="#333"/><g fill="#999"><circle cx="4" cy="21" r="1"/><circle cx="7" cy="21" r="1"/><circle cx="10" cy="21" r="1"/><circle cx="13" cy="21" r="1"/><circle cx="16" cy="21" r="1"/><circle cx="19" cy="21" r="1"/><circle cx="22" cy="21" r="1"/><circle cx="25" cy="21" r="1"/><circle cx="28" cy="21" r="1"/><circle cx="4" cy="24" r="1"/><circle cx="7" cy="24" r="1"/><circle cx="10" cy="24" r="1"/><circle cx="13" cy="24" r="1"/><circle cx="16" cy="24" r="1"/><circle cx="19" cy="24" r="1"/><circle cx="22" cy="24" r="1"/><circle cx="25" cy="24" r="1"/><circle cx="28" cy="24" r="1"/><circle cx="4" cy="27" r="1"/><circle cx="7" cy="27" r="1"/><circle cx="10" cy="27" r="1"/><circle cx="13" cy="27" r="1"/><circle cx="16" cy="27" r="1"/><circle cx="19" cy="27" r="1"/><circle cx="22" cy="27" r="1"/><circle cx="25" cy="27" r="1"/><circle cx="28" cy="27" r="1"/></g><path d="m3 14h14v3h-14z"/><circle cx="19.5" cy="15.5" fill="#797979" r="1.5"/><circle cx="23.5" cy="15.5" fill="#797979" r="1.5"/><circle cx="27.5" cy="15.5" fill="#797979" r="1.5"/></g></svg>