<svg clip-rule="evenodd" fill-rule="evenodd" stroke-linejoin="round" stroke-miterlimit="1.5" viewBox="0 0 32 32" xmlns="http://www.w3.org/2000/svg" xmlns:xlink="http://www.w3.org/1999/xlink"><clipPath id="a"><path clip-rule="evenodd" d="m0 0h32v32h-32z"/></clipPath><metadata/><path d="m0 0h32v32h-32z" fill="none"/><g clip-path="url(#a)"><path d="m32 9c0-.796-.316-1.559-.879-2.121-.562-.563-1.325-.879-2.121-.879h-26c-.796 0-1.559.316-2.121.879-.563.562-.879 1.325-.879 2.121v23h32z"/><g fill="none"><path d="m15 9 6-3-6-3h-1" stroke="#000" stroke-width="6"/><path d="m14 4-1 1h-1v-3h3v2z" stroke="#000" stroke-linecap="round" stroke-width="4"/><path d="m15 9 6-3-6-3h-1" stroke="#737373" stroke-linecap="square" stroke-width="2"/></g><path d="m2 28h28v2h-28z" fill="#666"/><path d="m5 23h22v4h-22z" fill="#333"/><circle cx="9" cy="26" fill="#808080" r="2"/><circle cx="23" cy="26" fill="#808080" r="2"/><path d="m30 10-1-1h-26l-1 1v16c0 .552.448 1 1 1h2s1.152-1.152 1.707-1.707c.188-.188.442-.293.707-.293h17.172c.265 0 .519.105.707.293.555.555 1.707 1.707 1.707 1.707h2c.552 0 1-.448 1-1 0-3.644 0-16 0-16z" fill="#d9d9d9"/><path d="m30 9c0-.552-.448-1-1-1-4.355 0-21.645 0-26 0-.552 0-1 .448-1 1v1h28z" fill="#f2f2f2"/><path d="m21 13c0-.552-.448-1-1-1-1.185 0-3 0-3 0l-1 1-1-1h-6l-1 1-1-1h-3c-.552 0-1 .448-1 1v7c0 .552.448 1 1 1h3l1-1 1 1h6l1-1 1 1h3c.552 0 1-.448 1-1 0-1.732 0-5.268 0-7z"/><path d="m7 12h2v9h-2z" fill="#404040"/><path d="m15 12h2v9h-2z" fill="#404040"/><path d="m29 22.077v-9.077c0-1.105-.895-2-2-2-.941 0-2.059 0-3 0-1.105 0-2 .895-2 2v9.077l1 .923h5z" fill="#f1d417"/><path d="m29 23c0 .265-.105.52-.293.707-.187.188-.442.293-.707.293-1.331 0-3.669 0-5 0-.265 0-.52-.105-.707-.293-.188-.187-.293-.442-.293-.707 0-.5 0-1 0-1h7z" fill="#666"/><path d="m28 13c0-.265-.105-.52-.293-.707-.187-.188-.442-.293-.707-.293-.871 0-2.129 0-3 0-.265 0-.52.105-.707.293-.188.187-.293.442-.293.707v7c0 .265.105.52.293.707.187.188.442.293.707.293h3c.265 0 .52-.105.707-.293.188-.187.293-.442.293-.707 0-1.732 0-5.268 0-7z"/><path d="m14 4-1 1h-1v-3h3v2z" fill="#8c8c8c"/></g></svg>