<svg clip-rule="evenodd" fill-rule="evenodd" stroke-linecap="round" stroke-linejoin="round" stroke-miterlimit="1.5" viewBox="0 0 32 32" xmlns="http://www.w3.org/2000/svg" xmlns:xlink="http://www.w3.org/1999/xlink"><clipPath id="a"><path clip-rule="evenodd" d="m19.637 17.193c.786-1.313 2.223-2.193 3.863-2.193 2.484 0 4.5 2.016 4.5 4.5 0 .335-.037.661-.107.975 1.254.674 2.107 1.999 2.107 3.523v.004c0 2.208-1.79 3.998-3.998 3.998-2.978 0-7.026 0-10.004 0-2.208 0-3.998-1.79-3.998-3.998 0-.001 0-.003 0-.004 0-1.87 1.283-3.44 3.021-3.873.187-1.756 1.674-3.125 3.479-3.125.399 0 .782.067 1.137.193z"/></clipPath><metadata/><path d="m0 0h32v32h-32z" fill="none"/><path d="m14 30h-12c0-15.464 12.536-28 28-28v12c-1.981 0-3.924.367-5.738 1.064 2.121.363 3.738 2.212 3.738 4.436 0 .335-.037.661-.107.975 1.254.674 2.107 1.999 2.107 3.523v.004c0 2.208-1.79 3.998-3.998 3.998-2.978 0-7.026 0-10.004 0-.652 0-1.268-.156-1.812-.433-.123.8-.186 1.613-.186 2.433z" fill="none" stroke="#000" stroke-width="4"/><path d="m30 4h-.002c-10.673 5.42-17.76 15.47-25.998 25.998v.002h-2c0-15.464 12.536-28 28-28z" fill="#e82731"/><path d="m30 30v-24c-9.425 4.841-18.508 14.792-24 24h-2s0-.001 0-.002c0-14.358 11.64-25.998 25.998-25.998h.002z" fill="#f1780f"/><path d="m29.998 6h.002v2h-.002c-10.126 5.492-16.434 11.294-21.998 21.998v.002h-2s0-.001 0-.002c0-13.254 10.744-23.998 23.998-23.998z" fill="#eeba00"/><path d="m30 8v2s-.001 0-.002 0c-5.304 0-19.998 14.694-19.998 19.998v.002h-2s0-.001 0-.002c0-12.149 9.849-21.998 21.998-21.998z" fill="#4cbf1e"/><path d="m30 12h-.002c-9.94 2.313-15.107 6.758-17.998 17.998v.002h-2s0-.001 0-.002c0-5.304 2.107-10.39 5.857-14.141 3.751-3.75 8.837-5.857 14.141-5.857h.002z" fill="#30bfdb"/><path d="m29.998 12h.002v2c-8.837 0-16 7.163-16 16h-2s0-.001 0-.002c0-9.94 8.058-17.998 17.998-17.998z" fill="#9146dc"/><path d="m19.637 17.193c.786-1.313 2.223-2.193 3.863-2.193 2.484 0 4.5 2.016 4.5 4.5 0 .335-.037.661-.107.975 1.254.674 2.107 1.999 2.107 3.523v.004c0 2.208-1.79 3.998-3.998 3.998-2.978 0-7.026 0-10.004 0-2.208 0-3.998-1.79-3.998-3.998 0-.001 0-.003 0-.004 0-1.87 1.283-3.44 3.021-3.873.187-1.756 1.674-3.125 3.479-3.125.399 0 .782.067 1.137.193z" fill="#e6e6e6"/><path d="m19.637 17.193c.786-1.313 2.223-2.193 3.863-2.193 2.484 0 4.5 2.016 4.5 4.5 0 .335-.037.661-.107.975 1.254.674 2.107 1.999 2.107 3.523v.004c0 2.208-1.79 3.998-3.998 3.998-2.978 0-7.026 0-10.004 0-2.208 0-3.998-1.79-3.998-3.998 0-.001 0-.003 0-.004 0-1.87 1.283-3.44 3.021-3.873.187-1.756 1.674-3.125 3.479-3.125.399 0 .782.067 1.137.193z" fill="none"/><g clip-path="url(#a)"><path d="m27 19s-.001-.001-.002-.002c-.837-.837-2.096-1.088-3.19-.634-1.095.453-1.808 1.521-1.808 2.705v.931s-.564 0-1.268 0c-1.509 0-2.732 1.223-2.732 2.732v.536c0 1.509 1.223 2.732 2.732 2.732h9.268v-9z" fill="#bfbfbf"/></g><path d="m23.616 15.001.115.005.115.007.114.01.113.013.112.016.111.018.11.021.11.024.108.027.107.029.107.031.105.035.104.036.102.039.102.042.1.044.099.046.098.049.096.05.095.054.094.055.092.057.09.06.089.062.088.063.086.066.084.068.082.07.081.072.079.073.077.076.076.077.073.079.072.081.07.082.068.084.066.086.063.088.062.089.06.09.057.092.055.094.054.095.05.096.049.098.046.099.044.1.042.102.039.102.036.104.035.105.031.107.029.107.027.108.024.11.021.11.018.111.016.112.013.113.01.114.007.115.005.115.001.116v.063l-.002.062-.002.062-.003.062-.004.062-.004.062-.006.061-.006.061-.007.061-.008.061-.009.06-.01.06-.01.06-.011.06-.013.059-.012.059.058.032.058.033.057.034.057.035.056.036.055.037.055.037.054.039.054.039.053.04.052.041.051.042.051.043.049.043.05.044.048.046.048.045.047.047.046.048.045.048.045.049.044.049.043.051.042.051.041.052.04.052.04.054.039.054.038.054.037.055.036.056.035.057.034.057.033.058.033.058.031.059.03.059.03.06.028.061.028.061.026.062.026.062.024.063.024.063.022.064.022.064.02.065.019.065.018.066.017.066.016.067.015.067.014.067.012.068.012.068.01.069.009.069.008.069.007.07.005.07.004.07.004.071.001.071.001.075-.001.103-.004.103-.007.102-.009.101-.011.1-.014.1-.016.099-.019.098-.021.097-.024.096-.026.096-.028.094-.03.093-.033.093-.034.091-.037.09-.039.089-.041.088-.043.087-.046.086-.047.084-.049.083-.051.082-.053.08-.055.079-.056.078-.059.076-.06.075-.062.073-.064.072-.065.07-.067.069-.069.067-.07.065-.072.064-.073.062-.075.06-.076.059-.078.056-.079.055-.08.053-.082.051-.083.049-.084.047-.086.046-.087.043-.088.041-.089.039-.09.037-.091.034-.093.033-.093.03-.094.028-.096.026-.096.024-.097.021-.098.019-.099.016-.1.014-.1.011-.101.009-.102.007-.103.004-.103.001h-10.004l-.103-.001-.103-.004-.102-.007-.101-.009-.1-.011-.1-.014-.099-.016-.098-.019-.097-.021-.096-.024-.096-.026-.094-.028-.093-.03-.093-.033-.091-.034-.09-.037-.089-.039-.088-.041-.087-.043-.086-.046-.084-.047-.083-.049-.082-.051-.08-.053-.079-.055-.078-.056-.076-.059-.075-.06-.073-.062-.072-.064-.07-.065-.069-.067-.067-.069-.065-.07-.064-.072-.062-.073-.06-.075-.059-.076-.056-.078-.055-.079-.053-.08-.051-.082-.049-.083-.047-.084-.046-.086-.043-.087-.041-.088-.039-.089-.037-.09-.034-.091-.033-.093-.03-.093-.028-.094-.026-.096-.024-.096-.021-.097-.019-.098-.016-.099-.014-.1-.011-.1-.009-.101-.007-.102-.004-.103-.001-.103v-.004l.001-.087.003-.087.004-.087.007-.086.008-.085.01-.085.012-.085.014-.083.015-.084.017-.082.019-.082.02-.082.022-.08.024-.08.025-.079.027-.079.028-.078.03-.077.032-.076.033-.075.034-.075.036-.074.038-.073.039-.072.04-.071.042-.07.043-.069.044-.069.046-.067.048-.066.048-.066.05-.064.051-.063.052-.062.054-.062.055-.06.056-.058.057-.058.058-.057.059-.055.061-.054.062-.053.062-.052.064-.05.065-.049.066-.048.067-.047.068-.045.069-.044.069-.042.071-.041.072-.04.072-.038.074-.037.074-.035.075-.034.076-.032.077-.031.077-.029.078-.027.079-.026.08-.025.081-.023.081-.021.009-.082.012-.081.013-.081.016-.08.017-.08.019-.079.02-.078.023-.077.024-.077.026-.076.027-.075.03-.074.03-.074.033-.072.034-.072.035-.071.038-.07.038-.069.04-.068.042-.067.043-.066.045-.065.046-.064.047-.062.049-.062.05-.061.051-.059.053-.058.053-.057.056-.056.056-.055.058-.053.058-.052.06-.051.062-.049.062-.048.063-.047.064-.045.066-.044.066-.042.068-.041.068-.04.07-.037.07-.037.071-.035.072-.033.073-.032.074-.03.075-.028.075-.027.077-.025.077-.023.078-.022.078-.019.079-.019.08-.016.08-.014.082-.013.081-.01.083-.009.082-.007.084-.005.084-.003.084-.001.075.001.074.002.074.004.073.005.073.007.072.009.072.01.072.011.071.013.07.014.07.016.07.018.068.018.069.02.067.022.067.023.037-.061.039-.061.039-.06.04-.059.041-.059.042-.058.043-.057.043-.056.045-.056.045-.055.047-.055.047-.053.048-.053.049-.052.049-.051.051-.051.051-.049.052-.049.052-.048.054-.048.054-.046.055-.046.056-.044.056-.044.057-.043.058-.042.059-.041.059-.04.06-.04.06-.038.061-.037.062-.037.062-.036.063-.034.064-.034.064-.032.065-.032.066-.03.066-.03.066-.028.067-.028.068-.026.068-.026.068-.024.07-.023.069-.022.07-.021.071-.02.071-.019.071-.017.072-.017.073-.015.072-.014.074-.013.073-.012.074-.011.075-.009.074-.008.075-.007.076-.006.076-.004.076-.003.076-.002.077-.001zm-.176 1-.06.001-.059.003-.059.003-.059.004-.058.006-.059.006-.057.007-.058.009-.057.009-.057.01-.056.011-.057.012-.055.013-.056.013-.055.015-.055.015-.054.016-.054.018-.054.018-.053.018-.053.02-.052.021-.053.021-.051.022-.051.023-.051.024-.05.024-.05.026-.05.026-.049.027-.048.027-.049.029-.047.029-.047.03-.047.03-.046.031-.045.032-.045.033-.045.034-.044.034-.043.034-.043.036-.042.036-.042.037-.041.037-.04.039-.04.038-.039.04-.039.04-.038.04-.037.041-.037.042-.036.042-.035.043-.035.044-.034.044-.034.044-.032.045-.032.046-.031.046-.031.046-.03.048-.452.741-.816-.281-.047-.015-.047-.014-.048-.013-.049-.012-.049-.011-.05-.01-.05-.009-.05-.008-.051-.007-.051-.006-.052-.005-.053-.004-.052-.003-.053-.001-.053-.001-.062.001-.06.002-.06.003-.059.005-.059.007-.058.007-.058.009-.057.011-.057.011-.057.013-.055.014-.056.015-.055.017-.054.018-.054.019-.053.02-.052.021-.052.023-.052.024-.051.025-.05.026-.049.027-.049.028-.048.029-.048.03-.047.031-.046.033-.045.033-.045.035-.043.035-.043.036-.042.038-.042.038-.04.039-.039.04-.039.041-.038.041-.037.043-.035.043-.035.044-.034.045-.033.046-.032.046-.031.048-.029.047-.029.049-.028.049-.026.05-.025.051-.025.051-.023.052-.022.052-.021.053-.019.053-.019.055-.017.054-.016.055-.015.056-.013.056-.012.057-.011.057-.01.057-.008.059-.089.748-.731.19-.06.018-.06.018-.059.019-.058.021-.058.022-.058.023-.056.024-.056.025-.056.026-.055.028-.054.028-.054.03-.053.031-.052.032-.052.032-.051.034-.05.035-.049.036-.049.037-.048.038-.047.038-.046.04-.046.041-.044.041-.044.043-.043.043-.042.044-.041.045-.04.046-.04.047-.038.047-.037.048-.036.049-.036.05-.034.051-.034.051-.032.052-.031.053-.03.053-.03.054-.028.054-.027.056-.026.055-.024.057-.024.057-.022.057-.022.059-.02.058-.018.059-.018.06-.017.061-.015.06-.014.062-.013.062-.011.062-.01.063-.009.063-.008.064-.006.064-.005.064-.003.065-.002.066-.001.067.001.081.003.077.005.077.007.076.008.075.011.075.012.074.014.073.016.073.017.072.02.071.021.071.022.07.025.069.026.068.027.068.029.066.031.066.032.065.034.064.036.064.037.062.038.061.039.06.042.06.042.058.044.057.045.057.047.055.048.054.049.052.05.052.052.05.053.049.053.048.055.047.057.045.057.044.058.042.06.041.06.04.061.039.062.036.064.036.064.034.065.032.066.031.066.029.068.027.068.026.069.025.07.022.071.021.071.02.072.017.073.016.073.014.074.012.075.011.075.008.076.007.077.005.077.003.084.001h9.992l.084-.001.077-.003.077-.005.076-.007.075-.008.075-.011.074-.012.073-.014.073-.016.072-.017.071-.02.071-.021.07-.022.069-.025.068-.026.068-.027.066-.029.066-.031.065-.032.064-.034.064-.036.062-.037.061-.038.06-.039.06-.042.058-.042.057-.044.056-.045.056-.047.053-.048.053-.049.052-.05.05-.052.049-.052.048-.054.047-.056.045-.056.044-.057.042-.058.042-.06.039-.06.038-.061.037-.063.036-.063.033-.064.033-.065.031-.066.029-.066.027-.068.026-.068.025-.069.022-.07.021-.07.02-.072.017-.072.016-.073.014-.073.012-.074.011-.075.008-.075.007-.076.005-.077.003-.077.001-.082-.001-.054-.001-.053-.002-.053-.003-.053-.005-.053-.005-.052-.006-.052-.006-.052-.008-.052-.009-.051-.009-.051-.01-.05-.011-.05-.012-.05-.013-.049-.014-.049-.014-.049-.015-.049-.016-.048-.017-.047-.017-.048-.019-.047-.019-.046-.019-.046-.021-.046-.022-.046-.021-.044-.023-.045-.024-.045-.024-.043-.025-.043-.026-.043-.026-.042-.027-.042-.028-.042-.028-.041-.029-.04-.03-.04-.03-.04-.031-.039-.032-.038-.032-.038-.033-.037-.034-.037-.034-.036-.034-.036-.036-.035-.035-.034-.037-.034-.037-.033-.037-.033-.038-.032-.039-.032-.039-.03-.039-.031-.041-.029-.04-.029-.041-.028-.042-.028-.042-.026-.042-.027-.043-.025-.044-.025-.707-.387.171-.783.009-.046.009-.046.008-.046.007-.046.007-.047.006-.047.006-.047.005-.047.004-.047.004-.049.003-.048.002-.048.002-.048.001-.049v-.046l-.001-.094-.004-.09-.005-.089-.008-.089-.01-.088-.012-.087-.015-.086-.016-.086-.019-.085-.02-.084-.023-.083-.024-.082-.027-.082-.028-.081-.031-.079-.032-.079-.034-.078-.036-.077-.038-.076-.039-.075-.041-.074-.043-.072-.045-.072-.047-.07-.048-.07-.049-.068-.052-.066-.052-.066-.055-.064-.056-.063-.057-.062-.059-.06-.06-.059-.062-.057-.063-.056-.064-.055-.065-.052-.067-.052-.068-.049-.07-.048-.07-.047-.072-.045-.073-.043-.073-.041-.075-.039-.076-.038-.077-.036-.078-.034-.079-.032-.08-.031-.08-.028-.082-.027-.082-.024-.083-.023-.084-.02-.085-.019-.086-.016-.086-.015-.087-.012-.088-.01-.089-.008-.089-.005-.09-.004-.093-.001-.058.001z" fill="#e5e5e5"/></svg>