<svg clip-rule="evenodd" fill-rule="evenodd" stroke-linecap="square" viewBox="0 0 32 32" xmlns="http://www.w3.org/2000/svg" xmlns:xlink="http://www.w3.org/1999/xlink"><clipPath id="a"><path clip-rule="evenodd" d="m0 0h32v32h-32z"/></clipPath><clipPath id="b"><path clip-rule="evenodd" d="m13.62 5.342c.981-1.98 3.023-3.342 5.38-3.342 3.311 0 6 2.689 6 6 0 .341-.028.675-.083 1h.085c2.76 0 4.998 2.238 4.998 4.998v.004c0 2.76-2.238 4.998-4.998 4.998-5.084 0-12.92 0-18.004 0-2.76 0-4.998-2.238-4.998-4.998 0-.001 0-.003 0-.004 0-2.76 2.238-4.998 4.998-4.998h1.002c0-2.208 1.792-4 4-4 .577 0 1.125.122 1.62.342z"/></clipPath><metadata/><path d="m0 0h32v32h-32z" fill="none"/><g clip-path="url(#a)"><g fill="none" stroke="#000" stroke-width="4"><path d="m13.62 5.345c.98-1.982 3.022-3.345 5.38-3.345 3.311 0 6 2.689 6 6 0 .341-.029.676-.085 1h.087c2.76 0 4.998 2.238 4.998 4.998v.004c0 2.76-2.238 4.998-4.998 4.998-5.084 0-12.92 0-18.004 0-2.76 0-4.998-2.238-4.998-4.998 0-.001 0-.003 0-.004 0-2.76 2.238-4.998 4.998-4.998h1.002c0-2.208 1.792-4 4-4 .577 0 1.126.122 1.62.345z"/><path d="m18 17v5c0 1.105.895 2 2 2 .53 0 1.039-.211 1.414-.586s.586-.884.586-1.414c0-.042 0-.084 0-.125 0-.56-.223-1.098-.619-1.494-1.123-1.123-3.381-3.381-3.381-3.381z" stroke-linecap="butt" stroke-linejoin="round"/><path d="m23 22v5c0 1.105.895 2 2 2 .53 0 1.039-.211 1.414-.586s.586-.884.586-1.414c0-.042 0-.084 0-.125 0-.56-.223-1.098-.619-1.494-1.123-1.123-3.381-3.381-3.381-3.381z" stroke-linecap="butt" stroke-linejoin="round"/><path d="m4 17v5c0 1.105.895 2 2 2h.002c1.103 0 1.998-.895 1.998-1.998 0-.043 0-.085 0-.127 0-.56-.223-1.098-.619-1.494-1.123-1.123-3.381-3.381-3.381-3.381z" stroke-linecap="butt" stroke-linejoin="round"/><path d="m10 22v5c0 1.105.895 2 2 2h.002c1.103 0 1.998-.895 1.998-1.998 0-.043 0-.085 0-.127 0-.56-.223-1.098-.619-1.494-1.123-1.123-3.381-3.381-3.381-3.381z" stroke-linecap="butt" stroke-linejoin="round"/><path d="m17 25v3.5c0 .398.158.779.439 1.061.282.281.663.439 1.061.439h.058c.382 0 .749-.152 1.02-.422.27-.271.422-.638.422-1.02 0-.001 0-.001 0-.002 0-.356-.141-.697-.393-.949-.814-.814-2.607-2.607-2.607-2.607z" stroke-linecap="butt" stroke-linejoin="round"/><path d="m12 18v3.5c0 .398.158.779.439 1.061.282.281.663.439 1.061.439h.058c.382 0 .749-.152 1.02-.422.27-.271.422-.638.422-1.02 0-.001 0-.001 0-.002 0-.356-.141-.697-.393-.949-.814-.814-2.607-2.607-2.607-2.607z" stroke-linecap="butt" stroke-linejoin="round"/><path d="m16 23h9v4h-9z" stroke-linecap="butt" stroke-linejoin="round"/><path d="m25 17v3.5c0 .398.158.779.439 1.061.282.281.663.439 1.061.439h.058c.382 0 .749-.152 1.02-.422.27-.271.422-.638.422-1.02 0-.001 0-.001 0-.002 0-.356-.141-.697-.393-.949-.814-.814-2.607-2.607-2.607-2.607z" stroke-linecap="butt" stroke-linejoin="round"/></g><path d="m18 17v5c0 1.105.895 2 2 2 .53 0 1.039-.211 1.414-.586s.586-.884.586-1.414c0-.042 0-.084 0-.125 0-.56-.223-1.098-.619-1.494-1.123-1.123-3.381-3.381-3.381-3.381z" fill="#10bfff"/><path d="m17 25v3.5c0 .398.158.779.439 1.061.282.281.663.439 1.061.439h.058c.382 0 .749-.152 1.02-.422.27-.271.422-.638.422-1.02 0-.001 0-.001 0-.002 0-.356-.141-.697-.393-.949-.814-.814-2.607-2.607-2.607-2.607z" fill="#10bfff"/><path d="m12 18v3.5c0 .398.158.779.439 1.061.282.281.663.439 1.061.439h.058c.382 0 .749-.152 1.02-.422.27-.271.422-.638.422-1.02 0-.001 0-.001 0-.002 0-.356-.141-.697-.393-.949-.814-.814-2.607-2.607-2.607-2.607z" fill="#10bfff"/><path d="m25 17v3.5c0 .398.158.779.439 1.061.282.281.663.439 1.061.439h.058c.382 0 .749-.152 1.02-.422.27-.271.422-.638.422-1.02 0-.001 0-.001 0-.002 0-.356-.141-.697-.393-.949-.814-.814-2.607-2.607-2.607-2.607z" fill="#10bfff"/><path d="m23 22v5c0 1.105.895 2 2 2 .53 0 1.039-.211 1.414-.586s.586-.884.586-1.414c0-.042 0-.084 0-.125 0-.56-.223-1.098-.619-1.494-1.123-1.123-3.381-3.381-3.381-3.381z" fill="#10bfff"/><path d="m4 17v5c0 1.105.895 2 2 2h.002c1.103 0 1.998-.895 1.998-1.998 0-.043 0-.085 0-.127 0-.56-.223-1.098-.619-1.494-1.123-1.123-3.381-3.381-3.381-3.381z" fill="#10bfff"/><path d="m10 22v5c0 1.105.895 2 2 2h.002c1.103 0 1.998-.895 1.998-1.998 0-.043 0-.085 0-.127 0-.56-.223-1.098-.619-1.494-1.123-1.123-3.381-3.381-3.381-3.381z" fill="#10bfff"/><path d="m13.62 5.345c.98-1.982 3.022-3.345 5.38-3.345 3.311 0 6 2.689 6 6 0 .341-.029.676-.085 1h.087c2.76 0 4.998 2.238 4.998 4.998v.004c0 2.76-2.238 4.998-4.998 4.998-5.084 0-12.92 0-18.004 0-2.76 0-4.998-2.238-4.998-4.998 0-.001 0-.003 0-.004 0-2.76 2.238-4.998 4.998-4.998h1.002c0-2.208 1.792-4 4-4 .577 0 1.126.122 1.62.345z" fill="#e6e6e6"/><path d="m13.62 5.342c.981-1.98 3.023-3.342 5.38-3.342 3.311 0 6 2.689 6 6 0 .341-.028.675-.083 1h.085c2.76 0 4.998 2.238 4.998 4.998v.004c0 2.76-2.238 4.998-4.998 4.998-5.084 0-12.92 0-18.004 0-2.76 0-4.998-2.238-4.998-4.998 0-.001 0-.003 0-.004 0-2.76 2.238-4.998 4.998-4.998h1.002c0-2.208 1.792-4 4-4 .577 0 1.125.122 1.62.342z" fill="none"/><g clip-path="url(#b)"><path d="m26 5s-.292-.146-.764-.382c-1.55-.775-3.391-.692-4.865.219s-2.371 2.52-2.371 4.253v1.91s-1.14 0-2.5 0c-2.485 0-4.5 2.015-4.5 4.5 0 1.193.474 2.338 1.318 3.182s1.989 1.318 3.182 1.318h17.5v-15z" fill="#bfbfbf"/></g><path d="m19.077 2 .078.002.077.002.077.004.076.004.076.006.076.006.076.007.076.008.075.009.075.01.074.011.075.012.074.013.073.013.074.015.073.015.072.017.073.017.072.018.071.019.072.02.071.02.07.022.071.022.07.023.069.024.069.025.069.026.068.026.068.028.068.028.067.029.066.029.066.031.066.031.066.032.065.033.064.033.064.035.063.035.064.035.062.037.062.037.062.038.061.039.061.039.06.04.059.041.059.042.059.042.058.043.057.043.057.044.057.045.056.046.055.046.055.047.054.047.053.048.053.049.053.05.052.05.051.05.05.051.05.052.05.053.049.053.048.053.047.054.047.055.046.055.046.056.045.057.044.057.043.057.043.058.042.059.042.059.041.059.04.06.039.061.039.061.038.062.037.062.037.062.035.064.035.063.035.064.033.064.033.065.032.066.031.066.031.066.029.066.029.067.028.068.028.068.026.068.026.069.025.069.024.069.023.07.022.071.022.07.02.071.02.072.019.071.018.072.017.073.017.072.015.073.015.074.013.073.013.074.012.075.011.074.01.075.009.075.008.076.007.076.006.076.006.076.004.076.004.077.002.077.002.078v.077l-.001.127-.004.127-.007.126-.009.126-.012.125-.014.123-.017.124-.019.122h.085.065l.064.002.064.002.064.003.064.003.064.005.063.005.063.006.063.007.063.007.062.008.062.01.062.009.062.011.061.011.061.013.061.012.061.014.06.014.06.015.06.016.059.017.059.017.059.018.059.018.058.02.058.02.057.02.058.022.057.022.112.046.112.049.11.051.108.054.107.056.106.059.104.062.102.063.1.067.099.068.097.071.096.073.093.075.092.078.09.079.087.082.086.084.084.086.082.087.079.09.078.092.075.093.073.096.071.097.068.099.067.1.063.102.062.104.059.106.056.107.054.108.051.11.049.112.046.112.022.057.022.058.02.057.02.058.02.058.018.059.018.059.017.059.017.059.016.06.015.06.014.06.014.061.012.061.013.061.011.061.011.062.009.062.01.062.008.062.007.063.007.063.006.063.005.063.005.064.003.064.003.064.002.064.002.064v.069.065l-.002.064-.002.064-.003.064-.003.064-.005.064-.005.063-.006.063-.007.063-.007.063-.008.062-.01.062-.009.062-.011.062-.011.061-.013.061-.012.061-.014.061-.014.06-.015.06-.016.06-.017.059-.017.059-.018.059-.018.059-.02.058-.02.058-.02.057-.022.058-.022.057-.046.112-.049.112-.051.11-.054.108-.056.107-.059.106-.062.104-.063.102-.067.1-.068.099-.071.097-.073.096-.075.093-.078.092-.079.09-.082.087-.084.086-.086.084-.087.082-.09.079-.092.078-.093.075-.096.073-.097.071-.099.068-.1.067-.102.063-.104.062-.106.059-.107.056-.108.054-.11.051-.112.049-.112.046-.057.022-.058.022-.057.02-.058.02-.058.02-.059.018-.059.018-.059.017-.059.017-.06.016-.06.015-.06.014-.061.014-.061.012-.061.013-.061.011-.062.011-.062.009-.062.01-.062.008-.063.007-.063.007-.063.006-.063.005-.064.005-.064.003-.064.003-.064.002-.064.002h-.065-18.004-.065l-.064-.002-.064-.002-.064-.003-.064-.003-.064-.005-.063-.005-.063-.006-.063-.007-.063-.007-.062-.008-.062-.01-.062-.009-.062-.011-.061-.011-.061-.013-.061-.012-.061-.014-.06-.014-.06-.015-.06-.016-.059-.017-.059-.017-.059-.018-.059-.018-.058-.02-.058-.02-.057-.02-.058-.022-.057-.022-.112-.046-.112-.049-.11-.051-.108-.054-.107-.056-.106-.059-.104-.062-.102-.063-.1-.067-.099-.068-.097-.071-.096-.073-.093-.075-.092-.078-.09-.079-.087-.082-.086-.084-.084-.086-.082-.087-.079-.09-.078-.092-.075-.093-.073-.096-.071-.097-.068-.099-.067-.1-.063-.102-.062-.104-.059-.106-.056-.107-.054-.108-.051-.11-.049-.112-.046-.112-.022-.057-.022-.058-.02-.057-.02-.058-.02-.058-.018-.059-.018-.059-.017-.059-.017-.059-.016-.06-.015-.06-.014-.06-.014-.061-.012-.061-.013-.061-.011-.061-.011-.062-.009-.062-.01-.062-.008-.062-.007-.063-.007-.063-.006-.063-.005-.063-.005-.064-.003-.064-.003-.064-.002-.064-.002-.064v-.065-.004-.065l.002-.064.002-.064.003-.064.003-.064.005-.064.005-.063.006-.063.007-.063.007-.063.008-.062.01-.062.009-.062.011-.062.011-.061.013-.061.012-.061.014-.061.014-.06.015-.06.016-.06.017-.059.017-.059.018-.059.018-.059.02-.058.02-.058.02-.057.022-.058.022-.057.046-.112.049-.112.051-.11.054-.108.056-.107.059-.106.062-.104.063-.102.067-.1.068-.099.071-.097.073-.096.075-.093.078-.092.079-.09.082-.087.084-.086.086-.084.087-.082.09-.079.092-.078.093-.075.096-.073.097-.071.099-.068.1-.067.102-.063.104-.062.106-.059.107-.056.108-.054.11-.051.112-.049.112-.046.057-.022.058-.022.057-.02.058-.02.058-.02.059-.018.059-.018.059-.017.059-.017.06-.016.06-.015.06-.014.061-.014.061-.012.061-.013.061-.011.062-.011.062-.009.062-.01.062-.008.063-.007.063-.007.063-.006.063-.005.064-.005.064-.003.064-.003.064-.002.064-.002h.065 1.002s.001-.103.001-.103l.004-.103.007-.102.009-.101.011-.1.014-.1.017-.099.018-.098.022-.097.023-.096.026-.096.028-.094.03-.093.033-.093.035-.091.037-.09.039-.09.041-.088.043-.086.045-.086.047-.084.049-.083.052-.082.053-.081.054-.079.057-.078.059-.076.06-.075.062-.073.064-.072.065-.07.067-.069.069-.067.07-.065.072-.064.073-.062.075-.06.076-.059.078-.057.079-.054.081-.053.082-.052.083-.049.084-.047.086-.045.086-.043.088-.041.09-.039.09-.037.091-.035.093-.033.093-.03.094-.028.096-.026.096-.023.097-.022.098-.018.099-.017.1-.014.1-.011.101-.009.102-.007.103-.004.103-.001.108.001.107.005.106.007.106.01.104.012.104.015.103.018.103.021.101.023.1.025.099.028.098.031.097.033.096.035.095.038.093.04.047-.092.048-.092.05-.09.051-.09.053-.088.054-.088.056-.086.057-.086.059-.084.06-.084.061-.082.063-.081.064-.081.065-.079.067-.077.068-.077.069-.076.071-.074.072-.073.073-.072.074-.071.075-.069.077-.068.078-.067.079-.066.08-.064.081-.063.082-.061.084-.06.084-.059.085-.057.087-.056.087-.055.089-.053.089-.051.091-.05.091-.048.092-.047.093-.046.094-.044.095-.042.096-.04.097-.039.097-.038.098-.035.099-.034.1-.033.101-.03.101-.029.102-.027.103-.026.103-.023.104-.022.105-.02.105-.018.106-.017.107-.014.107-.013.108-.01.108-.009.109-.007.109-.005.11-.003.11-.001h.077zm-.169 1.001-.092.002-.091.004-.091.006-.09.008-.09.009-.089.01-.089.012-.088.014-.088.015-.087.017-.087.018-.086.019-.085.021-.085.023-.084.024-.084.026-.083.026-.082.029-.082.029-.081.031-.081.033-.079.034-.079.035-.079.036-.077.038-.077.039-.076.04-.076.042-.074.043-.074.044-.073.045-.072.047-.071.048-.07.049-.07.05-.069.051-.067.052-.067.054-.066.055-.065.055-.064.057-.063.058-.062.059-.061.06-.06.061-.058.062-.058.063-.057.064-.056.065-.054.066-.054.067-.052.068-.051.069-.05.069-.049.071-.048.071-.046.072-.045.073-.044.074-.043.075-.042.075-.04.076-.466.922-.945-.405-.071-.028-.071-.027-.073-.024-.073-.023-.074-.021-.075-.019-.076-.017-.076-.016-.078-.013-.077-.012-.079-.009-.079-.007-.08-.006-.081-.003-.081-.001-.078.001-.077.003-.077.005-.076.007-.075.008-.075.011-.074.012-.073.014-.073.016-.072.017-.071.02-.071.021-.07.023-.069.024-.068.026-.068.028-.066.029-.066.031-.065.032-.064.034-.064.035-.062.037-.061.038-.061.04-.059.041-.059.043-.057.044-.056.045-.055.047-.054.048-.053.049-.052.05-.05.052-.049.053-.048.054-.047.055-.045.056-.044.057-.043.059-.041.059-.04.061-.038.061-.037.062-.035.064-.034.064-.032.065-.031.066-.029.066-.028.068-.026.068-.024.069-.023.07-.021.071-.02.071-.017.072-.016.073-.014.073-.012.074-.011.075-.008.075-.007.076-.005.077-.003.077-.014 1.078h-1.986-.055l-.052.001-.051.002-.052.002-.051.003-.051.004-.05.004-.051.005-.05.005-.051.006-.049.007-.05.007-.05.008-.049.009-.049.009-.049.009-.048.011-.049.01-.048.012-.048.012-.048.012-.047.014-.047.013-.047.015-.047.014-.047.016-.046.016-.046.016-.045.017-.043.017-.093.038-.089.039-.088.041-.086.043-.086.045-.084.047-.083.049-.082.051-.081.053-.079.055-.077.057-.077.058-.075.061-.073.062-.072.063-.07.066-.069.067-.067.069-.066.07-.063.072-.062.073-.061.075-.058.077-.057.077-.055.079-.053.081-.051.082-.049.083-.047.084-.045.086-.043.086-.041.088-.039.089-.038.093-.017.043-.017.045-.016.046-.016.047-.016.046-.014.047-.015.047-.013.047-.014.047-.012.048-.012.048-.012.048-.01.049-.011.048-.009.049-.009.049-.009.049-.008.05-.007.05-.007.05-.006.05-.005.05-.005.051-.004.05-.004.051-.003.051-.002.052-.002.051-.001.052v.054.054l.001.052.002.051.002.052.003.051.004.051.004.05.005.051.005.05.006.05.007.05.007.05.008.05.009.049.009.049.009.049.011.048.01.049.012.048.012.048.012.048.014.047.013.047.015.047.014.047.016.046.016.047.016.046.017.045.017.043.038.093.039.089.041.088.043.086.045.086.047.084.049.083.051.082.053.081.055.079.057.077.058.077.061.075.062.073.063.072.066.07.067.069.069.067.07.066.072.063.073.062.075.061.077.058.077.057.079.055.081.053.082.051.083.049.084.047.086.045.086.043.088.041.089.039.093.038.043.017.045.017.046.016.047.016.046.016.047.014.047.015.047.013.047.014.048.012.048.012.048.012.049.01.048.011.049.009.049.009.049.009.05.008.05.007.049.007.051.006.05.005.051.005.05.004.051.004.051.003.052.002.051.002.052.001h.055 17.998.055l.052-.001.051-.002.052-.002.051-.003.051-.004.05-.004.051-.005.05-.005.051-.006.049-.007.05-.007.05-.008.049-.009.049-.009.049-.009.048-.011.049-.01.048-.012.048-.012.048-.012.047-.014.047-.013.047-.015.047-.014.046-.016.047-.016.046-.016.045-.017.043-.017.093-.038.089-.039.088-.041.086-.043.086-.045.084-.047.083-.049.082-.051.081-.053.079-.055.077-.057.077-.058.075-.061.073-.062.072-.063.07-.066.069-.067.067-.069.066-.07.063-.072.062-.073.061-.075.058-.077.057-.077.055-.079.053-.081.051-.082.049-.083.047-.084.045-.086.043-.086.041-.088.039-.089.038-.093.017-.043.017-.045.016-.046.016-.047.016-.046.014-.047.015-.047.013-.047.014-.047.012-.048.012-.048.012-.048.01-.048.011-.049.009-.049.01-.049.008-.049.008-.05.007-.05.007-.049.006-.051.005-.05.005-.05.004-.051.004-.051.003-.051.002-.052.002-.051.001-.052v-.054-.054l-.001-.052-.002-.051-.002-.052-.003-.051-.004-.051-.004-.051-.005-.05-.005-.05-.006-.051-.007-.049-.007-.05-.008-.05-.008-.049-.01-.049-.009-.049-.011-.049-.01-.048-.012-.048-.012-.048-.012-.048-.014-.047-.013-.047-.015-.047-.014-.047-.016-.046-.016-.047-.016-.046-.017-.045-.017-.043-.038-.093-.039-.089-.041-.088-.043-.086-.045-.086-.047-.084-.049-.083-.051-.082-.053-.081-.055-.079-.057-.077-.058-.077-.061-.075-.062-.073-.063-.072-.066-.07-.067-.069-.069-.067-.07-.066-.072-.063-.073-.062-.075-.061-.077-.058-.077-.057-.079-.055-.081-.053-.082-.051-.083-.049-.084-.047-.086-.045-.086-.043-.088-.041-.089-.039-.093-.038-.043-.017-.045-.017-.046-.016-.047-.016-.046-.016-.047-.014-.047-.015-.047-.013-.047-.014-.048-.012-.048-.012-.048-.012-.049-.01-.048-.011-.049-.009-.049-.009-.049-.009-.05-.008-.05-.007-.049-.007-.051-.006-.05-.005-.051-.005-.05-.004-.051-.004-.051-.003-.052-.002-.051-.002-.052-.001h-.055-1.252l.2-1.268.014-.102.012-.104.009-.104.008-.104.006-.106.003-.105.001-.109v-.063l-.002-.065-.002-.064-.003-.064-.003-.064-.005-.063-.005-.064-.006-.063-.007-.063-.007-.063-.009-.062-.009-.062-.01-.062-.01-.061-.012-.062-.012-.061-.013-.061-.013-.06-.014-.06-.015-.06-.016-.06-.017-.059-.017-.059-.018-.059-.018-.059-.02-.058-.02-.058-.02-.057-.022-.057-.022-.057-.022-.057-.024-.056-.024-.056-.024-.055-.026-.055-.026-.055-.026-.054-.028-.054-.028-.054-.028-.053-.029-.053-.03-.053-.031-.052-.031-.052-.031-.051-.033-.051-.032-.051-.034-.05-.034-.049-.035-.05-.035-.049-.035-.048-.037-.048-.037-.047-.037-.048-.038-.046-.039-.046-.039-.046-.039-.045-.041-.045-.04-.044-.041-.044-.042-.043-.042-.043-.043-.042-.043-.042-.044-.041-.044-.041-.045-.04-.045-.039-.046-.039-.046-.039-.047-.038-.047-.037-.047-.037-.048-.037-.048-.035-.049-.036-.05-.034-.049-.034-.05-.034-.051-.032-.051-.033-.051-.031-.052-.031-.052-.031-.053-.03-.053-.029-.053-.028-.054-.028-.054-.028-.054-.026-.055-.026-.055-.026-.055-.024-.056-.024-.056-.024-.057-.022-.057-.022-.057-.022-.057-.02-.058-.02-.058-.02-.059-.018-.059-.018-.059-.017-.059-.017-.06-.016-.06-.015-.06-.014-.06-.013-.061-.013-.061-.012-.062-.012-.061-.01-.062-.01-.062-.009-.063-.009-.062-.007-.063-.007-.063-.006-.064-.005-.063-.005-.064-.003-.064-.003-.065-.002-.064-.002h-.064z" fill="#e6e6e6"/></g></svg>