<svg clip-rule="evenodd" fill-rule="evenodd" stroke-linejoin="round" stroke-miterlimit="1.41421" viewBox="0 0 32 32" xmlns="http://www.w3.org/2000/svg" xmlns:xlink="http://www.w3.org/1999/xlink"><clipPath id="a"><path clip-rule="evenodd" d="m0 0h32v32h-32z"/></clipPath><clipPath id="b"><path clip-rule="evenodd" d="m2 6h28v20h-28z"/></clipPath><metadata/><path d="m0 0h32v32h-32z" fill="none"/><g clip-path="url(#a)"><path d="m32 6c0-.53-.211-1.039-.586-1.414s-.884-.586-1.414-.586c-5.746 0-22.254 0-28 0-.53 0-1.039.211-1.414.586s-.586.884-.586 1.414v20c0 .53.211 1.039.586 1.414s.884.586 1.414.586h28c.53 0 1.039-.211 1.414-.586s.586-.884.586-1.414c0-4.52 0-15.48 0-20z"/><path d="m2 6h28v20h-28z" fill="none"/><g clip-path="url(#b)"><path d="m1 22h30v5h-30z" fill="#7706af"/><path d="m1 19.5h30v4h-30z" fill="#2c3ee5"/><path d="m1 17h30v4h-30z" fill="#158f25"/><path d="m1 14h30v4.5h-30z" fill="#f1e100"/><path d="m1 12h30v4h-30z" fill="#fb8721"/><path d="m1 10h30v3.5h-30z" fill="#df0000"/><path d="m1 7.5h30v3.5h-30z" fill="#88502b"/><path d="m1 5.5h30v3h-30z" fill="#333"/></g></g></svg>