<svg clip-rule="evenodd" fill-rule="evenodd" stroke-linecap="round" stroke-miterlimit="2" viewBox="0 0 32 32" xmlns="http://www.w3.org/2000/svg" xmlns:xlink="http://www.w3.org/1999/xlink"><clipPath id="a"><path clip-rule="evenodd" d="m0 0h32v32h-32z"/></clipPath><metadata/><path d="m0 0h32v32h-32z" fill="none"/><g clip-path="url(#a)"><path d="m16 1c4.243 0 8.313 1.686 11.314 4.686 3 3.001 4.686 7.071 4.686 11.314v1c0 7.732-6.268 14-14 14-1.325 0-2.675 0-4 0-7.732 0-14-6.268-14-14v-1c0-8.837 7.163-16 16-16z"/><path d="m30 17c0-3.713-1.475-7.274-4.101-9.899-2.625-2.626-6.186-4.101-9.899-4.101-7.732 0-14 6.268-14 14v1c0 6.627 5.373 12 12 12h4c6.627 0 12-5.373 12-12 0-.332 0-.666 0-1z" fill="#fbc546"/><path d="m11.814 12h.919c.172.414.267.867.267 1.342v2.002c0 .928-.369 1.818-1.025 2.474s-1.545 1.024-2.473 1.024h-.002c-1.933 0-3.5-1.567-3.5-3.5 0-.657 0-1.344 0-2.002 0-.464.092-.919.267-1.34h1.919c-.121.261 3.749.261 3.628 0z" fill="#fff"/><path d="m11.814 12c.121.261.186.549.186.842v2.984c0 .53-.211 1.039-.586 1.414s-.884.586-1.414.586-1.039-.211-1.414-.586-.586-.884-.586-1.414c0-.936 0-2.048 0-2.984 0-.293.065-.581.186-.842z"/><path d="m22.498 18.842c-.928 0-1.817-.368-2.473-1.024s-1.025-1.546-1.025-2.474c0-.657 0-1.344 0-2.002 0-1.933 1.567-3.5 3.5-3.5h.002c.928 0 1.817.369 2.473 1.025s1.025 1.546 1.025 2.473v2.002c0 1.933-1.567 3.5-3.5 3.5z" fill="#fff"/><path d="m24 12.842c0-.53-.211-1.039-.586-1.414s-.884-.586-1.414-.586-1.039.211-1.414.586-.586.884-.586 1.414v2.984c0 .53.211 1.039.586 1.414s.884.586 1.414.586 1.039-.211 1.414-.586.586-.884.586-1.414c0-.936 0-2.048 0-2.984z"/><g fill="none" stroke-width="2"><path d="m11 21h4.686c2.122 0 4.157.843 5.657 2.343.383.383.657.657.657.657" stroke="#593604"/><path d="m19 7h1.929c1.326 0 2.598.527 3.535 1.464.305.305.536.536.536.536" stroke="#000" stroke-miterlimit="1.5"/></g></g></svg>