<svg clip-rule="evenodd" fill-rule="evenodd" stroke-linejoin="round" stroke-miterlimit="1.41421" viewBox="0 0 32 32" xmlns="http://www.w3.org/2000/svg" xmlns:xlink="http://www.w3.org/1999/xlink"><clipPath id="a"><path clip-rule="evenodd" d="m0 0h32v32h-32z"/></clipPath><metadata/><path d="m0 0h32v32h-32z" fill="none"/><g clip-path="url(#a)"><path d="m6.958 20.047v-4.023l.002-.061.004-.061.008-.06.011-.06.014-.059.017-.059.02-.057.023-.057.026-.055.028-.053.032-.053.034-.05.037-.049.038-.047.042-.045.044-.042.045-.04.048-.038.049-.035.052-.033.053-.03.054-.027.056-.025.057-.021.058-.018.059-.016.06-.012.06-.01.06-.006.061-.003h.061l.061.003.061.006.06.01.059.012.059.016.058.018.057.021.056.025.055.027.053.03.051.033.049.035.048.038.046.04.044.042.041.045.039.047.037.049.033.05.032.053.029.053.026.055.022.057.021.057.017.059.013.059.011.06.008.06.005.061.001.061v4.023h.082l.84-3.362.016-.056.018-.055.021-.054.023-.053.026-.052.029-.05.031-.05.033-.047.036-.046.038-.044.04-.042.042-.04.044-.038.046-.035.047-.034.049-.031.051-.029.051-.026.053-.023.055-.021.055-.019.055-.015.057-.013.057-.01.058-.007.058-.004.058-.002.058.002.058.004.058.007.057.01.056.013.056.015.055.018.055.021.053.024.051.026.051.028.049.031.047.034.046.036.044.037.042.04.041.042.037.044.036.046.034.047.031.05.028.05.026.052.024.053.021.054.018.055.016.056.012.057.01.057.007.058.005.057.001.058-.001.059-.005.057-.007.058-.01.057-.012.057-1.357 5.425v.59l1.395-1.394.038-.038.04-.035.042-.035.042-.032.044-.031.045-.029.046-.028.047-.026.048-.024.049-.022.05-.02.05-.019.052-.016.051-.015.052-.012.053-.011.053-.009.053-.006.054-.005.054-.002.053-.001.054.001.053.004.054.006.053.007.053.01.052.012.052.013.052.016.051.017.05.02.049.021.049.023.047.025.047.027.045.028.045.03.043.032.042.034.041.035.039.036.038.038.037.04.035.04.033.042.032.043.03.045.028.045.027.047.025.047.023.049.022.049.019.05.017.051.016.052.013.052.012.052.01.053.007.053.006.054.004.053.001.054v.053l-.003.054-.005.054-.006.053-.009.053-.011.053-.012.052-.015.052-.016.051-.019.05-.02.05-.022.049-.024.048-.026.047-.028.046-.029.045-.031.044-.032.042-.034.042-.036.04-.038.039-2.831 2.832-.039.038-.042.04-.042.039-.043.04-.043.039-.044.037-.044.038-.044.037-.045.036-.045.036-.046.035-.046.035-.047.034-.047.033-.047.033-.047.032-.048.032-.049.03-.048.031-.049.03-.05.029-.05.028-.049.028-.051.028-.051.026-.051.026-.051.025-.051.025-.052.024-.105.047-.053.022-.052.021-.053.021-.054.02-.054.02-.054.019-.054.018-.054.018-.055.017-.055.016-.055.016-.055.015-.056.014-.055.014-.057.013-.055.012-.057.012-.056.011-.057.01-.006.001-.036.012-.057.017-.059.014-.058.01-.06.008-.06.004-.06.002h-.279-.014l-.058.001-.054.001h-.068l-.054-.001-.015-.001h-.473l-.052-.001-.051-.002-.051-.001-.051-.003-.051-.003-.051-.003-.101-.009-.05-.005-.05-.006-.051-.006-.05-.007-.05-.007-.049-.007-.05-.009-.049-.008-.05-.01-.049-.009-.098-.021-.049-.011-.048-.012-.048-.013-.049-.012-.047-.013-.048-.014-.048-.014-.047-.015-.048-.015-.046-.015-.047-.017-.047-.016-.046-.017-.046-.018-.046-.018-.046-.018-.045-.018-.045-.02-.046-.02-.045-.02-.044-.02-.044-.022-.045-.021-.043-.022-.087-.045-.043-.023-.043-.024-.043-.024-.042-.025-.042-.025-.042-.025-.041-.026-.042-.026-.041-.027-.04-.027-.041-.027-.04-.028-.04-.028-.039-.029-.04-.029-.038-.029-.039-.03-.038-.03-.076-.062-.037-.031-.037-.032-.037-.032-.037-.032-.072-.067-.035-.034-.035-.033-.069-.069-.034-.035-.034-.036-.067-.072-.032-.036-.033-.038-.031-.036-.032-.038-.031-.038-.031-.038-.061-.078-.029-.039-.03-.039-.029-.04-.056-.081-.028-.041-.054-.082-.027-.042-.026-.042-.026-.042-.025-.043-.025-.044-.025-.043-.024-.043-.023-.044-.024-.044-.022-.045-.022-.045-.022-.044-.021-.046-.021-.045-.021-.046-.02-.047-.039-.092-.018-.048-.019-.046-.017-.048-.034-.096-.016-.048-.032-.097-.014-.049-.014-.049-.014-.049-.013-.05-.013-.047-1.271-5.071-.013-.058-.01-.059-.008-.06-.004-.059-.001-.06.002-.06.005-.06.008-.059.011-.059.014-.058.017-.058.02-.056.023-.056.025-.054.028-.053.031-.052.033-.049.036-.048.038-.047.041-.044.042-.042.045-.039.047-.038.048-.035.051-.033.052-.03.053-.027.055-.025.055-.021.058-.019.057-.016.058-.014.06-.01.059-.007.06-.004.06-.001.06.002.06.005.059.008.059.011.058.014.057.017.057.02.055.022.055.026.053.028.051.031.05.033.048.036.046.038.044.041.042.042.04.045.037.047.035.049.033.05.03.051.028.054.024.055.022.056.019.056.016.058.102.407-.381-2.03-.009-.059-.007-.06-.003-.06v-.059l.002-.06.006-.06.008-.059.012-.059.014-.058.018-.058.02-.056.023-.055.026-.054.029-.053.031-.051.034-.05.036-.047.039-.046.041-.044.043-.041.045-.04.047-.037.049-.034.051-.032.052-.03.053-.027.055-.024.057-.021.056-.018.058-.016.059-.012.059-.01.059-.006.06-.004.061-.001.059.003.06.006.059.008.059.012.058.014.057.018.057.02.055.023.054.026.053.029.051.031.049.034.048.037.045.038.044.041.042.043.039.045.037.047.035.049.032.051.03.052.027.054.023.054.022.057.018.057.016.057.012.059.617 3.293h.039z" fill="none" stroke="#000" stroke-width="4"/><path d="m25.042 20.047v-4.023l-.002-.061-.004-.061-.008-.06-.011-.06-.014-.059-.017-.059-.02-.057-.023-.057-.026-.055-.028-.053-.032-.053-.034-.05-.037-.049-.038-.047-.042-.045-.044-.042-.045-.04-.048-.038-.049-.035-.052-.033-.053-.03-.054-.027-.056-.025-.057-.021-.058-.018-.059-.016-.06-.012-.06-.01-.06-.006-.061-.003h-.061l-.061.003-.061.006-.06.01-.059.012-.059.016-.058.018-.057.021-.056.025-.055.027-.053.03-.051.033-.049.035-.048.038-.046.04-.044.042-.041.045-.039.047-.037.049-.033.05-.032.053-.029.053-.026.055-.022.057-.021.057-.017.059-.013.059-.011.06-.008.06-.005.061-.001.061v4.023h-.082l-.84-3.362-.016-.056-.018-.055-.021-.054-.023-.053-.026-.052-.029-.05-.031-.05-.033-.047-.036-.046-.038-.044-.04-.042-.042-.04-.044-.038-.046-.035-.047-.034-.049-.031-.051-.029-.051-.026-.053-.023-.055-.021-.055-.019-.055-.015-.057-.013-.057-.01-.058-.007-.058-.004-.058-.002-.058.002-.058.004-.058.007-.057.01-.056.013-.056.015-.055.018-.055.021-.053.024-.051.026-.051.028-.049.031-.047.034-.046.036-.044.037-.042.04-.041.042-.037.044-.036.046-.034.047-.031.05-.028.05-.026.052-.024.053-.021.054-.018.055-.016.056-.012.057-.01.057-.007.058-.005.057-.001.058.001.059.005.057.007.058.01.057.012.057 1.357 5.425v.59l-1.395-1.394-.038-.038-.04-.035-.042-.035-.042-.032-.044-.031-.045-.029-.046-.028-.047-.026-.048-.024-.049-.022-.05-.02-.05-.019-.052-.016-.051-.015-.052-.012-.053-.011-.053-.009-.053-.006-.054-.005-.054-.002-.053-.001-.054.001-.053.004-.054.006-.053.007-.053.01-.052.012-.052.013-.052.016-.051.017-.05.02-.049.021-.049.023-.047.025-.047.027-.045.028-.045.03-.043.032-.042.034-.041.035-.039.036-.038.038-.037.04-.035.04-.033.042-.032.043-.03.045-.028.045-.027.047-.025.047-.023.049-.022.049-.019.05-.017.051-.016.052-.013.052-.012.052-.01.053-.007.053-.006.054-.004.053-.001.054v.053l.003.054.005.054.006.053.009.053.011.053.012.052.015.052.016.051.019.05.02.05.022.049.024.048.026.047.028.046.029.045.031.044.032.042.034.042.036.04.038.039 2.831 2.832.039.038.042.04.042.039.043.04.043.039.044.037.044.038.044.037.045.036.045.036.046.035.046.035.047.034.047.033.047.033.047.032.048.032.049.03.048.031.049.03.05.029.05.028.049.028.051.028.051.026.051.026.051.025.051.025.052.024.105.047.053.022.052.021.053.021.054.02.054.02.054.019.054.018.054.018.055.017.055.016.055.016.055.015.056.014.055.014.057.013.055.012.057.012.056.011.057.01.006.001.036.012.057.017.059.014.058.01.06.008.06.004.06.002h.279.014l.058.001.054.001h.068l.054-.001.015-.001h.473l.052-.001.051-.002.051-.001.051-.003.051-.003.051-.003.101-.009.05-.005.05-.006.051-.006.05-.007.05-.007.049-.007.05-.009.049-.008.05-.01.049-.009.098-.021.049-.011.048-.012.048-.013.049-.012.047-.013.048-.014.048-.014.047-.015.048-.015.046-.015.047-.017.047-.016.046-.017.046-.018.046-.018.046-.018.045-.018.045-.02.046-.02.045-.02.044-.02.044-.022.045-.021.043-.022.087-.045.043-.023.043-.024.043-.024.042-.025.042-.025.042-.025.041-.026.042-.026.041-.027.04-.027.041-.027.04-.028.04-.028.039-.029.04-.029.038-.029.039-.03.038-.03.076-.062.037-.031.037-.032.037-.032.037-.032.072-.067.035-.034.035-.033.069-.069.034-.035.034-.036.067-.072.032-.036.033-.038.031-.036.032-.038.031-.038.031-.038.061-.078.029-.039.03-.039.029-.04.056-.081.028-.041.054-.082.027-.042.026-.042.026-.042.025-.043.025-.044.025-.043.024-.043.023-.044.024-.044.022-.045.022-.045.022-.044.021-.046.021-.045.021-.046.02-.047.039-.092.018-.048.019-.046.017-.048.034-.096.016-.048.032-.097.014-.049.014-.049.014-.049.013-.05.013-.047 1.271-5.071.013-.058.01-.059.008-.06.004-.059.001-.06-.002-.06-.005-.06-.008-.059-.011-.059-.014-.058-.017-.058-.02-.056-.023-.056-.025-.054-.028-.053-.031-.052-.033-.049-.036-.048-.038-.047-.041-.044-.042-.042-.045-.039-.047-.038-.048-.035-.051-.033-.052-.03-.053-.027-.055-.025-.055-.021-.058-.019-.057-.016-.058-.014-.06-.01-.059-.007-.06-.004-.06-.001-.06.002-.06.005-.059.008-.059.011-.058.014-.057.017-.057.02-.055.022-.055.026-.053.028-.051.031-.05.033-.048.036-.046.038-.044.041-.042.042-.04.045-.037.047-.035.049-.033.05-.03.051-.028.054-.024.055-.022.056-.019.056-.016.058-.102.407.381-2.03.009-.059.007-.06.003-.06v-.059l-.002-.06-.006-.06-.008-.059-.012-.059-.014-.058-.018-.058-.02-.056-.023-.055-.026-.054-.029-.053-.031-.051-.034-.05-.036-.047-.039-.046-.041-.044-.043-.041-.045-.04-.047-.037-.049-.034-.051-.032-.052-.03-.053-.027-.055-.024-.057-.021-.056-.018-.058-.016-.059-.012-.059-.01-.059-.006-.06-.004-.061-.001-.059.003-.06.006-.059.008-.059.012-.058.014-.057.018-.057.02-.055.023-.054.026-.053.029-.051.031-.049.034-.048.037-.045.038-.044.041-.042.043-.039.045-.037.047-.035.049-.032.051-.03.052-.027.054-.023.054-.022.057-.018.057-.016.057-.012.059-.617 3.293h-.039z" fill="none" stroke="#000" stroke-width="4"/><path d="m6.526 5.5c.247.011.472.103.656.269 1.034.998 2.051 2.015 3.049 3.049.101.112.179.24.224.384.037.121.052.249.042.376-.009.114-.038.227-.085.332-.154.342-.495.573-.869.589-.103.005-.207-.007-.307-.035-.158-.043-.298-.124-.418-.233-1.034-.998-2.05-2.015-3.049-3.049-.093-.103-.167-.22-.213-.352-.034-.098-.053-.201-.056-.304-.009-.362.185-.709.498-.891.14-.081.297-.124.459-.134.035-.001.034-.001.069-.001zm19.017.001c.139.008.273.04.399.102.324.16.541.492.557.854.005.103-.007.207-.035.307-.043.158-.124.298-.233.418-.998 1.034-2.015 2.051-3.049 3.049-.112.101-.24.179-.384.224-.121.037-.249.052-.376.042-.114-.009-.227-.038-.332-.085-.342-.154-.573-.495-.589-.869-.005-.103.007-.207.035-.307.043-.158.124-.298.233-.418.998-1.034 2.015-2.051 3.049-3.049.184-.166.409-.258.656-.269.035 0 .034 0 .069.001zm-9.483-3.499c.106.008.209.029.309.069.26.103.469.316.568.579.037.1.056.204.062.31.027 1.36.027 2.72 0 4.08-.009.16-.05.314-.13.454-.179.316-.526.513-.889.506-.106-.002-.212-.021-.312-.057-.112-.039-.217-.099-.309-.176-.102-.085-.186-.19-.247-.308-.068-.131-.102-.272-.111-.419-.027-1.36-.027-2.72 0-4.08.006-.106.025-.21.062-.31.094-.25.288-.456.531-.564.098-.043.201-.068.307-.081.053-.004.105-.005.159-.003z" fill="#fff" stroke="#000" stroke-width="4"/><path d="m6.958 20.047v-4.023l.002-.061.004-.061.008-.06.011-.06.014-.059.017-.059.02-.057.023-.057.026-.055.028-.053.032-.053.034-.05.037-.049.038-.047.042-.045.044-.042.045-.04.048-.038.049-.035.052-.033.053-.03.054-.027.056-.025.057-.021.058-.018.059-.016.06-.012.06-.01.06-.006.061-.003h.061l.061.003.061.006.06.01.059.012.059.016.058.018.057.021.056.025.055.027.053.03.051.033.049.035.048.038.046.04.044.042.041.045.039.047.037.049.033.05.032.053.029.053.026.055.022.057.021.057.017.059.013.059.011.06.008.06.005.061.001.061v4.023h.082l.84-3.362.016-.056.018-.055.021-.054.023-.053.026-.052.029-.05.031-.05.033-.047.036-.046.038-.044.04-.042.042-.04.044-.038.046-.035.047-.034.049-.031.051-.029.051-.026.053-.023.055-.021.055-.019.055-.015.057-.013.057-.01.058-.007.058-.004.058-.002.058.002.058.004.058.007.057.01.056.013.056.015.055.018.055.021.053.024.051.026.051.028.049.031.047.034.046.036.044.037.042.04.041.042.037.044.036.046.034.047.031.05.028.05.026.052.024.053.021.054.018.055.016.056.012.057.01.057.007.058.005.057.001.058-.001.059-.005.057-.007.058-.01.057-.012.057-1.357 5.425v.59l1.395-1.394.038-.038.04-.035.042-.035.042-.032.044-.031.045-.029.046-.028.047-.026.048-.024.049-.022.05-.02.05-.019.052-.016.051-.015.052-.012.053-.011.053-.009.053-.006.054-.005.054-.002.053-.001.054.001.053.004.054.006.053.007.053.01.052.012.052.013.052.016.051.017.05.02.049.021.049.023.047.025.047.027.045.028.045.03.043.032.042.034.041.035.039.036.038.038.037.04.035.04.033.042.032.043.03.045.028.045.027.047.025.047.023.049.022.049.019.05.017.051.016.052.013.052.012.052.01.053.007.053.006.054.004.053.001.054v.053l-.003.054-.005.054-.006.053-.009.053-.011.053-.012.052-.015.052-.016.051-.019.05-.02.05-.022.049-.024.048-.026.047-.028.046-.029.045-.031.044-.032.042-.034.042-.036.04-.038.039-2.831 2.832-.039.038-.042.04-.042.039-.043.04-.043.039-.044.037-.044.038-.044.037-.045.036-.045.036-.046.035-.046.035-.047.034-.047.033-.047.033-.047.032-.048.032-.049.03-.048.031-.049.03-.05.029-.05.028-.049.028-.051.028-.051.026-.051.026-.051.025-.051.025-.052.024-.105.047-.053.022-.052.021-.053.021-.054.02-.054.02-.054.019-.054.018-.054.018-.055.017-.055.016-.055.016-.055.015-.056.014-.055.014-.057.013-.055.012-.057.012-.056.011-.057.01-.006.001-.036.012-.057.017-.059.014-.058.01-.06.008-.06.004-.06.002h-.279-.014l-.058.001-.054.001h-.068l-.054-.001-.015-.001h-.473l-.052-.001-.051-.002-.051-.001-.051-.003-.051-.003-.051-.003-.101-.009-.05-.005-.05-.006-.051-.006-.05-.007-.05-.007-.049-.007-.05-.009-.049-.008-.05-.01-.049-.009-.098-.021-.049-.011-.048-.012-.048-.013-.049-.012-.047-.013-.048-.014-.048-.014-.047-.015-.048-.015-.046-.015-.047-.017-.047-.016-.046-.017-.046-.018-.046-.018-.046-.018-.045-.018-.045-.02-.046-.02-.045-.02-.044-.02-.044-.022-.045-.021-.043-.022-.087-.045-.043-.023-.043-.024-.043-.024-.042-.025-.042-.025-.042-.025-.041-.026-.042-.026-.041-.027-.04-.027-.041-.027-.04-.028-.04-.028-.039-.029-.04-.029-.038-.029-.039-.03-.038-.03-.076-.062-.037-.031-.037-.032-.037-.032-.037-.032-.072-.067-.035-.034-.035-.033-.069-.069-.034-.035-.034-.036-.067-.072-.032-.036-.033-.038-.031-.036-.032-.038-.031-.038-.031-.038-.061-.078-.029-.039-.03-.039-.029-.04-.056-.081-.028-.041-.054-.082-.027-.042-.026-.042-.026-.042-.025-.043-.025-.044-.025-.043-.024-.043-.023-.044-.024-.044-.022-.045-.022-.045-.022-.044-.021-.046-.021-.045-.021-.046-.02-.047-.039-.092-.018-.048-.019-.046-.017-.048-.034-.096-.016-.048-.032-.097-.014-.049-.014-.049-.014-.049-.013-.05-.013-.047-1.271-5.071-.013-.058-.01-.059-.008-.06-.004-.059-.001-.06.002-.06.005-.06.008-.059.011-.059.014-.058.017-.058.02-.056.023-.056.025-.054.028-.053.031-.052.033-.049.036-.048.038-.047.041-.044.042-.042.045-.039.047-.038.048-.035.051-.033.052-.03.053-.027.055-.025.055-.021.058-.019.057-.016.058-.014.06-.01.059-.007.06-.004.06-.001.06.002.06.005.059.008.059.011.058.014.057.017.057.02.055.022.055.026.053.028.051.031.05.033.048.036.046.038.044.041.042.042.04.045.037.047.035.049.033.05.03.051.028.054.024.055.022.056.019.056.016.058.102.407-.381-2.03-.009-.059-.007-.06-.003-.06v-.059l.002-.06.006-.06.008-.059.012-.059.014-.058.018-.058.02-.056.023-.055.026-.054.029-.053.031-.051.034-.05.036-.047.039-.046.041-.044.043-.041.045-.04.047-.037.049-.034.051-.032.052-.03.053-.027.055-.024.057-.021.056-.018.058-.016.059-.012.059-.01.059-.006.06-.004.061-.001.059.003.06.006.059.008.059.012.058.014.057.018.057.02.055.023.054.026.053.029.051.031.049.034.048.037.045.038.044.041.042.043.039.045.037.047.035.049.032.051.03.052.027.054.023.054.022.057.018.057.016.057.012.059.617 3.293h.039z" fill="#ffd877"/><path d="m3.647 16.262.828 4.967" style="fill:none;stroke:#000;stroke-width:.47;stroke-linecap:round;stroke-linejoin:miter;stroke-miterlimit:1.5"/><path d="m6.722 15.789v4.731" style="fill:none;stroke:#000;stroke-width:.47;stroke-linecap:round;stroke-linejoin:miter;stroke-miterlimit:1.5"/><path d="m9.56 15.789v4.494" style="fill:none;stroke:#000;stroke-width:.47;stroke-linecap:round;stroke-linejoin:miter;stroke-miterlimit:1.5"/><g fill="#bb871f"><path d="m4.944 16.415c.483-.12 1.016.345 1.189 1.038s-.079 1.353-.563 1.474c-.483.121-1.016-.344-1.189-1.037s.079-1.354.563-1.475z"/><path d="m2.782 18.58c.402-.1.838.26.973.802.135.543-.081 1.065-.483 1.166-.402.1-.838-.259-.973-.803-.136-.543.08-1.065.483-1.165z"/><ellipse cx="8.145" cy="16.972" rx=".946" ry="1.419"/><path d="m11.538 16.326c.468.117.703.791.525 1.506-.178.714-.703 1.2-1.171 1.083s-.703-.792-.526-1.506c.179-.715.703-1.2 1.172-1.083z"/><path d="m14.062 22.168c.428.428.28 1.27-.33 1.88s-1.453.758-1.88.331c-.427-.428-.279-1.27.331-1.88s1.452-.758 1.879-.331z"/><path d="m4.593 25.088c0-.502.199-.983.554-1.338l1.419-1.419c.355-.355.836-.554 1.338-.554s.983.199 1.338.554c.496.496 1.032 1.031 1.419 1.419.355.355.555.836.555 1.338v.237c0 .437-.202.85-.546 1.118-.345.27-.794.365-1.218.259-.434-.109-.843-.211-1.085-.272-.151-.037-.304-.056-.459-.056h-.008c-.154 0-.308.019-.458.056-.243.061-.652.163-1.086.272-.424.106-.873.011-1.217-.259-.345-.268-.546-.681-.546-1.118z"/></g><path d="m25.042 20.047v-4.023l-.002-.061-.004-.061-.008-.06-.011-.06-.014-.059-.017-.059-.02-.057-.023-.057-.026-.055-.028-.053-.032-.053-.034-.05-.037-.049-.038-.047-.042-.045-.044-.042-.045-.04-.048-.038-.049-.035-.052-.033-.053-.03-.054-.027-.056-.025-.057-.021-.058-.018-.059-.016-.06-.012-.06-.01-.06-.006-.061-.003h-.061l-.061.003-.061.006-.06.01-.059.012-.059.016-.058.018-.057.021-.056.025-.055.027-.053.03-.051.033-.049.035-.048.038-.046.04-.044.042-.041.045-.039.047-.037.049-.033.05-.032.053-.029.053-.026.055-.022.057-.021.057-.017.059-.013.059-.011.06-.008.06-.005.061-.001.061v4.023h-.082l-.84-3.362-.016-.056-.018-.055-.021-.054-.023-.053-.026-.052-.029-.05-.031-.05-.033-.047-.036-.046-.038-.044-.04-.042-.042-.04-.044-.038-.046-.035-.047-.034-.049-.031-.051-.029-.051-.026-.053-.023-.055-.021-.055-.019-.055-.015-.057-.013-.057-.01-.058-.007-.058-.004-.058-.002-.058.002-.058.004-.058.007-.057.01-.056.013-.056.015-.055.018-.055.021-.053.024-.051.026-.051.028-.049.031-.047.034-.046.036-.044.037-.042.04-.041.042-.037.044-.036.046-.034.047-.031.05-.028.05-.026.052-.024.053-.021.054-.018.055-.016.056-.012.057-.01.057-.007.058-.005.057-.001.058.001.059.005.057.007.058.01.057.012.057 1.357 5.425v.59l-1.395-1.394-.038-.038-.04-.035-.042-.035-.042-.032-.044-.031-.045-.029-.046-.028-.047-.026-.048-.024-.049-.022-.05-.02-.05-.019-.052-.016-.051-.015-.052-.012-.053-.011-.053-.009-.053-.006-.054-.005-.054-.002-.053-.001-.054.001-.053.004-.054.006-.053.007-.053.01-.052.012-.052.013-.052.016-.051.017-.05.02-.049.021-.049.023-.047.025-.047.027-.045.028-.045.03-.043.032-.042.034-.041.035-.039.036-.038.038-.037.04-.035.04-.033.042-.032.043-.03.045-.028.045-.027.047-.025.047-.023.049-.022.049-.019.05-.017.051-.016.052-.013.052-.012.052-.01.053-.007.053-.006.054-.004.053-.001.054v.053l.003.054.005.054.006.053.009.053.011.053.012.052.015.052.016.051.019.05.02.05.022.049.024.048.026.047.028.046.029.045.031.044.032.042.034.042.036.04.038.039 2.831 2.832.039.038.042.04.042.039.043.04.043.039.044.037.044.038.044.037.045.036.045.036.046.035.046.035.047.034.047.033.047.033.047.032.048.032.049.03.048.031.049.03.05.029.05.028.049.028.051.028.051.026.051.026.051.025.051.025.052.024.105.047.053.022.052.021.053.021.054.02.054.02.054.019.054.018.054.018.055.017.055.016.055.016.055.015.056.014.055.014.057.013.055.012.057.012.056.011.057.01.006.001.036.012.057.017.059.014.058.01.06.008.06.004.06.002h.279.014l.058.001.054.001h.068l.054-.001.015-.001h.473l.052-.001.051-.002.051-.001.051-.003.051-.003.051-.003.101-.009.05-.005.05-.006.051-.006.05-.007.05-.007.049-.007.05-.009.049-.008.05-.01.049-.009.098-.021.049-.011.048-.012.048-.013.049-.012.047-.013.048-.014.048-.014.047-.015.048-.015.046-.015.047-.017.047-.016.046-.017.046-.018.046-.018.046-.018.045-.018.045-.02.046-.02.045-.02.044-.02.044-.022.045-.021.043-.022.087-.045.043-.023.043-.024.043-.024.042-.025.042-.025.042-.025.041-.026.042-.026.041-.027.04-.027.041-.027.04-.028.04-.028.039-.029.04-.029.038-.029.039-.03.038-.03.076-.062.037-.031.037-.032.037-.032.037-.032.072-.067.035-.034.035-.033.069-.069.034-.035.034-.036.067-.072.032-.036.033-.038.031-.036.032-.038.031-.038.031-.038.061-.078.029-.039.03-.039.029-.04.056-.081.028-.041.054-.082.027-.042.026-.042.026-.042.025-.043.025-.044.025-.043.024-.043.023-.044.024-.044.022-.045.022-.045.022-.044.021-.046.021-.045.021-.046.02-.047.039-.092.018-.048.019-.046.017-.048.034-.096.016-.048.032-.097.014-.049.014-.049.014-.049.013-.05.013-.047 1.271-5.071.013-.058.01-.059.008-.06.004-.059.001-.06-.002-.06-.005-.06-.008-.059-.011-.059-.014-.058-.017-.058-.02-.056-.023-.056-.025-.054-.028-.053-.031-.052-.033-.049-.036-.048-.038-.047-.041-.044-.042-.042-.045-.039-.047-.038-.048-.035-.051-.033-.052-.03-.053-.027-.055-.025-.055-.021-.058-.019-.057-.016-.058-.014-.06-.01-.059-.007-.06-.004-.06-.001-.06.002-.06.005-.059.008-.059.011-.058.014-.057.017-.057.02-.055.022-.055.026-.053.028-.051.031-.05.033-.048.036-.046.038-.044.041-.042.042-.04.045-.037.047-.035.049-.033.05-.03.051-.028.054-.024.055-.022.056-.019.056-.016.058-.102.407.381-2.03.009-.059.007-.06.003-.06v-.059l-.002-.06-.006-.06-.008-.059-.012-.059-.014-.058-.018-.058-.02-.056-.023-.055-.026-.054-.029-.053-.031-.051-.034-.05-.036-.047-.039-.046-.041-.044-.043-.041-.045-.04-.047-.037-.049-.034-.051-.032-.052-.03-.053-.027-.055-.024-.057-.021-.056-.018-.058-.016-.059-.012-.059-.01-.059-.006-.06-.004-.061-.001-.059.003-.06.006-.059.008-.059.012-.058.014-.057.018-.057.02-.055.023-.054.026-.053.029-.051.031-.049.034-.048.037-.045.038-.044.041-.042.043-.039.045-.037.047-.035.049-.032.051-.03.052-.027.054-.023.054-.022.057-.018.057-.016.057-.012.059-.617 3.293h-.039z" fill="#ffd877"/><path d="m28.353 16.262-.828 4.967" style="fill:none;stroke:#000;stroke-width:.47;stroke-linecap:round;stroke-linejoin:miter;stroke-miterlimit:1.5"/><path d="m25.278 15.789v4.731" style="fill:none;stroke:#000;stroke-width:.47;stroke-linecap:round;stroke-linejoin:miter;stroke-miterlimit:1.5"/><path d="m22.44 15.789v4.494" style="fill:none;stroke:#000;stroke-width:.47;stroke-linecap:round;stroke-linejoin:miter;stroke-miterlimit:1.5"/><path d="m27.056 16.415c-.483-.12-1.016.345-1.189 1.038s.079 1.353.563 1.474c.483.121 1.016-.344 1.189-1.037s-.079-1.354-.563-1.475z" fill="#bb871f"/><path d="m29.218 18.58c-.402-.1-.838.26-.973.802-.135.543.081 1.065.483 1.166.402.1.838-.259.973-.803.136-.543-.08-1.065-.483-1.165z" fill="#bb871f"/><ellipse cx="23.855" cy="16.972" fill="#bb871f" rx=".946" ry="1.419"/><path d="m20.462 16.326c-.468.117-.703.791-.525 1.506.178.714.703 1.2 1.171 1.083s.703-.792.526-1.506c-.179-.715-.703-1.2-1.172-1.083z" fill="#bb871f"/><path d="m17.938 22.168c-.428.428-.28 1.27.33 1.88s1.453.758 1.88.331c.427-.428.279-1.27-.331-1.88s-1.452-.758-1.879-.331z" fill="#bb871f"/><path d="m27.407 25.088c0-.502-.199-.983-.554-1.338-.388-.388-.923-.923-1.419-1.419-.355-.355-.836-.554-1.338-.554s-.983.199-1.338.554c-.496.496-1.032 1.031-1.419 1.419-.355.355-.555.836-.555 1.338v.237c0 .437.202.85.546 1.118.345.27.794.365 1.218.259.434-.109.843-.211 1.085-.272.151-.037.304-.056.459-.056h.008c.154 0 .308.019.458.056.243.061.652.163 1.086.272.424.106.873.011 1.217-.259.345-.268.546-.681.546-1.118z" fill="#bb871f"/><path d="m6.526 5.5c.247.011.472.103.656.269 1.034.998 2.051 2.015 3.049 3.049.101.112.179.24.224.384.037.121.052.249.042.376-.009.114-.038.227-.085.332-.154.342-.495.573-.869.589-.103.005-.207-.007-.307-.035-.158-.043-.298-.124-.418-.233-1.034-.998-2.05-2.015-3.049-3.049-.093-.103-.167-.22-.213-.352-.034-.098-.053-.201-.056-.304-.009-.362.185-.709.498-.891.14-.081.297-.124.459-.134.035-.001.034-.001.069-.001zm19.017.001c.139.008.273.04.399.102.324.16.541.492.557.854.005.103-.007.207-.035.307-.043.158-.124.298-.233.418-.998 1.034-2.015 2.051-3.049 3.049-.112.101-.24.179-.384.224-.121.037-.249.052-.376.042-.114-.009-.227-.038-.332-.085-.342-.154-.573-.495-.589-.869-.005-.103.007-.207.035-.307.043-.158.124-.298.233-.418.998-1.034 2.015-2.051 3.049-3.049.184-.166.409-.258.656-.269.035 0 .034 0 .069.001zm-9.483-3.499c.106.008.209.029.309.069.26.103.469.316.568.579.037.1.056.204.062.31.027 1.36.027 2.72 0 4.08-.009.16-.05.314-.13.454-.179.316-.526.513-.889.506-.106-.002-.212-.021-.312-.057-.112-.039-.217-.099-.309-.176-.102-.085-.186-.19-.247-.308-.068-.131-.102-.272-.111-.419-.027-1.36-.027-2.72 0-4.08.006-.106.025-.21.062-.31.094-.25.288-.456.531-.564.098-.043.201-.068.307-.081.053-.004.105-.005.159-.003z" fill="#fff"/></g></svg>