<svg clip-rule="evenodd" fill-rule="evenodd" stroke-linejoin="round" stroke-miterlimit="2" viewBox="0 0 32 32" xmlns="http://www.w3.org/2000/svg" xmlns:xlink="http://www.w3.org/1999/xlink"><clipPath id="a"><path clip-rule="evenodd" d="m7.772 21.256v-5.421c0-.206.082-.403.227-.548s.342-.227.547-.227c.206 0 .403.082.548.227s.227.342.227.548v4.905h.516v-4.389c0-.205.082-.402.227-.547.145-.146.342-.227.548-.227.205 0 .402.081.547.227.145.145.227.342.227.547v6.97s.232-.464.516-1.033c.571-1.14 1.957-1.602 3.098-1.032s-1.685 3.369-2.831 5.663c-.638 1.275-1.942 2.081-3.368 2.081-.163 0-.33 0-.5 0-2.573 0-4.659-2.086-4.659-4.659v-6.441c0-.428.347-.774.774-.774.428 0 .775.346.775.774v3.872h.516v-5.421c0-.205.082-.402.227-.547.145-.146.342-.227.547-.227.206 0 .403.081.548.227.145.145.227.342.227.547v4.905h.516z"/></clipPath><clipPath id="b"><path clip-rule="evenodd" d="m24.228 21.256v-5.421c0-.206-.082-.403-.227-.548s-.342-.227-.547-.227c-.206 0-.403.082-.548.227s-.227.342-.227.548v4.905h-.516v-4.389c0-.205-.082-.402-.227-.547-.145-.146-.342-.227-.548-.227-.205 0-.402.081-.547.227-.145.145-.227.342-.227.547v6.97s-.232-.464-.516-1.033c-.571-1.14-1.957-1.602-3.098-1.032s1.685 3.369 2.831 5.663c.638 1.275 1.942 2.081 3.368 2.081h.5c2.573 0 4.659-2.086 4.659-4.659v-6.441c0-.428-.347-.774-.774-.774-.428 0-.775.346-.775.774v3.872h-.516v-5.421c0-.205-.082-.402-.227-.547-.145-.146-.342-.227-.547-.227-.206 0-.403.081-.548.227-.145.145-.227.342-.227.547v4.905z"/></clipPath><metadata/><path d="m0 0h32v32h-32z" fill="none"/><path d="m16 19.52.117-.059c.094-.045.093-.045.188-.088.234-.098.472-.182.719-.242.343-.083.696-.123 1.048-.119.174.001.347.015.519.036l.023.003v-2.725l.003-.111c.01-.138.023-.273.05-.408.071-.355.212-.694.412-.995.152-.228.338-.433.55-.607.457-.375 1.032-.596 1.622-.625.181-.009.369-.005.548.027.037-.029.077-.054.115-.081.102-.065.126-.082.233-.139.199-.107.411-.188.63-.244.62-.155 1.285-.09 1.862.183.164.077.326.169.469.281.045-.008.091-.012.136-.017.138-.011.137-.01.275-.014.137.004.136.003.274.014.226.028.446.071.661.149.515.184.969.521 1.295.961.107.145.195.299.276.461l.116.02c.12.028.15.033.267.069.216.067.423.161.616.278.574.349 1.01.905 1.209 1.547.082.26.118.527.125.799 0 2.212.04 4.425-.002 6.636-.019.614-.115 1.223-.297 1.81-.479 1.541-1.527 2.877-2.906 3.715-1.035.629-2.237.964-3.448.965-.235 0-.474.005-.71-.003-.235-.009-.471-.032-.704-.069-1.176-.187-2.281-.745-3.131-1.579-.453-.445-.824-.962-1.113-1.528l-2.043-4.084c-.691 1.392-1.385 2.783-2.093 4.167-.048.09-.097.178-.148.266-.242.401-.524.775-.853 1.109-.741.753-1.687 1.293-2.712 1.549-.425.106-.858.16-1.295.171-.258.002-.515.004-.773-.001-.723-.023-1.438-.153-2.118-.402-.957-.351-1.828-.923-2.531-1.66-.63-.66-1.121-1.449-1.435-2.306-.249-.68-.379-1.395-.402-2.118-.042-2.212-.002-4.424-.002-6.636.006-.272.043-.539.124-.799.213-.686.695-1.273 1.325-1.616.2-.108.413-.192.633-.249.115-.029.139-.031.251-.051l.059-.117c.058-.103.073-.134.138-.232.127-.19.277-.365.447-.518.472-.428 1.088-.683 1.725-.714.181-.009.369-.005.548.027.037-.029.076-.054.114-.08.103-.066.126-.083.234-.141.199-.106.412-.188.63-.243.62-.155 1.285-.09 1.862.183.164.077.326.169.469.281.045-.008.091-.012.136-.017.138-.011.137-.01.275-.014.137.004.136.003.274.014.121.015.149.016.269.04.222.044.438.116.642.212.702.332 1.243.958 1.469 1.701.078.255.113.517.12.783v2.725c.076-.011.152-.018.229-.025.104-.007.104-.007.208-.012.246-.006.49.004.734.038.463.064.907.206 1.326.409l.117.059zm9.589-16.019c.4.016.791.103 1.155.269.307.14.591.333.835.567.2.193.374.414.514.654.454.781.531 1.746.206 2.588-.144.373-.362.709-.636 1-1.018 1.038-2.046 2.066-3.084 3.084-.306.288-.661.514-1.056.657-.374.136-.775.196-1.172.176-.358-.018-.712-.1-1.04-.242-.311-.134-.598-.321-.846-.55-.337-.311-.6-.698-.764-1.125-.165-.427-.23-.891-.189-1.347.025-.277.089-.551.189-.811.144-.373.362-.709.636-1 1.018-1.038 2.046-2.066 3.084-3.084.145-.137.3-.261.468-.368.44-.28.943-.434 1.462-.465.08-.003.159-.004.238-.003zm-19 0c.2.008.397.032.591.077.508.118.97.369 1.355.718 1.073 1.011 2.096 2.073 3.128 3.125.288.306.514.661.657 1.056.136.374.196.775.176 1.172-.017.358-.1.712-.242 1.04-.134.311-.321.598-.55.846-.311.337-.698.6-1.125.764-.427.165-.891.23-1.347.189-.277-.025-.551-.089-.811-.189-.373-.144-.709-.362-1-.636-1.038-1.018-2.066-2.046-3.084-3.084-.274-.291-.492-.627-.636-1-.1-.26-.164-.534-.189-.811-.041-.456.024-.92.189-1.347.164-.427.427-.814.764-1.125.248-.229.535-.416.846-.55.367-.159.76-.238 1.159-.246.06 0 .06 0 .119.001zm9.514-3.499c.345.016.684.082 1.005.21.795.316 1.428.972 1.716 1.776.109.304.164.621.175.943.016 1.379.016 2.759 0 4.138-.015.438-.115.866-.309 1.259-.132.268-.304.515-.509.732-.189.2-.405.374-.641.515-.775.463-1.738.551-2.584.237-.344-.127-.664-.319-.939-.561-.293-.258-.534-.573-.707-.923-.194-.393-.294-.821-.309-1.259-.016-1.379-.016-2.759 0-4.138.011-.322.066-.639.175-.943.288-.804.921-1.46 1.716-1.776.321-.128.66-.194 1.005-.21.069-.002.137-.002.206 0z"/><path d="m6.526 5.5c.247.011.472.103.656.269 1.034.998 2.051 2.015 3.049 3.049.101.112.179.24.224.384.037.121.052.249.042.376-.009.114-.038.227-.085.332-.154.342-.495.573-.869.589-.103.005-.207-.007-.307-.035-.158-.043-.298-.124-.418-.233-1.034-.998-2.05-2.015-3.049-3.049-.093-.103-.167-.22-.213-.352-.034-.098-.053-.201-.056-.304-.009-.362.185-.709.498-.891.14-.081.297-.124.459-.134.035-.001.034-.001.069-.001zm19.017.001c.139.008.273.04.399.102.324.16.541.492.557.854.005.103-.007.207-.035.307-.043.158-.124.298-.233.418-.998 1.034-2.015 2.051-3.049 3.049-.112.101-.24.179-.384.224-.121.037-.249.052-.376.042-.114-.009-.227-.038-.332-.085-.342-.154-.573-.495-.589-.869-.005-.103.007-.207.035-.307.043-.158.124-.298.233-.418.998-1.034 2.015-2.051 3.049-3.049.184-.166.409-.258.656-.269.035 0 .034 0 .069.001zm-9.483-3.499c.106.008.209.029.309.069.26.103.469.316.568.579.037.1.056.204.062.31.027 1.36.027 2.72 0 4.08-.009.16-.05.314-.13.454-.179.316-.526.513-.889.506-.106-.002-.212-.021-.312-.057-.112-.039-.217-.099-.309-.176-.102-.085-.186-.19-.247-.308-.068-.131-.102-.272-.111-.419-.027-1.36-.027-2.72 0-4.08.006-.106.025-.21.062-.31.094-.25.288-.456.531-.564.098-.043.201-.068.307-.081.053-.004.105-.005.159-.003z" fill="#fff"/><path d="m7.772 21.256v-5.421c0-.206.082-.403.227-.548s.342-.227.547-.227c.206 0 .403.082.548.227s.227.342.227.548v4.905h.516v-4.389c0-.205.082-.402.227-.547.145-.146.342-.227.548-.227.205 0 .402.081.547.227.145.145.227.342.227.547v6.97s.232-.464.516-1.033c.571-1.14 1.957-1.602 3.098-1.032s-1.685 3.369-2.831 5.663c-.638 1.275-1.942 2.081-3.368 2.081-.163 0-.33 0-.5 0-2.573 0-4.659-2.086-4.659-4.659v-6.441c0-.428.347-.774.774-.774.428 0 .775.346.775.774v3.872h.516v-5.421c0-.205.082-.402.227-.547.145-.146.342-.227.547-.227.206 0 .403.081.548.227.145.145.227.342.227.547v4.905h.516z" fill="#a3a9ff"/><g clip-path="url(#a)"><path d="m12.141 20.24c.076.006.147.023.215.06.172.093.276.284.26.479-.005.065-.024.125-.051.184l-1.789 3.578c-.163-.097-.323-.197-.489-.288-.045-.024-.09-.045-.136-.065-.15-.059-.306-.098-.468-.108-.413-.025-.825.129-1.12.418-.107.105-.195.226-.267.357-.222.431-.421.873-.651 1.299-.052.083-.119.151-.207.195-.196.098-.439.055-.589-.104-.037-.039-.067-.084-.09-.132-.027-.059-.042-.122-.045-.186-.004-.076.011-.148.038-.219.207-.448.435-.885.661-1.322.111-.203.245-.391.406-.557.438-.453 1.046-.725 1.677-.75.271-.01.539.027.8.101l.037.011c.45-.901.873-1.817 1.353-2.703.017-.027.016-.027.035-.053.085-.104.193-.167.324-.19.033-.004.064-.005.096-.005z" fill="#8484f6" fill-rule="nonzero"/></g><path d="m24.228 21.256v-5.421c0-.206-.082-.403-.227-.548s-.342-.227-.547-.227c-.206 0-.403.082-.548.227s-.227.342-.227.548v4.905h-.516v-4.389c0-.205-.082-.402-.227-.547-.145-.146-.342-.227-.548-.227-.205 0-.402.081-.547.227-.145.145-.227.342-.227.547v6.97s-.232-.464-.516-1.033c-.571-1.14-1.957-1.602-3.098-1.032s1.685 3.369 2.831 5.663c.638 1.275 1.942 2.081 3.368 2.081h.5c2.573 0 4.659-2.086 4.659-4.659v-6.441c0-.428-.347-.774-.774-.774-.428 0-.775.346-.775.774v3.872h-.516v-5.421c0-.205-.082-.402-.227-.547-.145-.146-.342-.227-.547-.227-.206 0-.403.081-.548.227-.145.145-.227.342-.227.547v4.905z" fill="#a3a9ff"/><g clip-path="url(#b)"><path d="m19.922 20.241c.13.015.249.07.336.169.028.032.05.068.071.106l1.338 2.675c.052-.016.104-.03.157-.043.061-.015.122-.027.183-.038.206-.031.414-.041.622-.023.565.051 1.103.3 1.508.697.18.177.328.38.449.601.226.438.455.875.661 1.323.035.091.049.186.032.283-.039.215-.22.384-.437.408-.053.006-.107.004-.16-.008-.062-.013-.122-.038-.176-.074-.063-.043-.111-.099-.152-.163-.236-.437-.43-.896-.669-1.332-.082-.14-.182-.267-.303-.375-.328-.291-.78-.421-1.213-.35-.173.028-.336.089-.489.174l-.457.27-1.802-3.607s-.011-.03-.021-.06c-.015-.064-.022-.126-.015-.191.02-.172.13-.325.288-.398.059-.027.121-.04.185-.045.033 0 .032 0 .064.001z" fill="#8484f6" fill-rule="nonzero"/></g></svg>