<svg clip-rule="evenodd" fill-rule="evenodd" stroke-linecap="round" stroke-linejoin="round" stroke-miterlimit="2" viewBox="0 0 32 32" xmlns="http://www.w3.org/2000/svg" xmlns:xlink="http://www.w3.org/1999/xlink"><clipPath id="a"><path clip-rule="evenodd" d="m0 0h32v32h-32z"/></clipPath><metadata/><path d="m0 0h32v32h-32z" fill="none"/><g clip-path="url(#a)"><path d="m16 4v4" fill="none" stroke="#000" stroke-width="6"/><path d="m9.5 10.5-3-3" fill="none" stroke="#000" stroke-width="6"/><path d="m22.5 10.5 3-3" fill="none" stroke="#000" stroke-width="6"/><path d="m9.319 20.697h.517v-3.704c0-.273.109-.536.302-.73.451-.451 1.247-1.247 1.247-1.247v8.263s.443-.59.856-1.14c.436-.582 1.122-.925 1.85-.925h.909s-1.685 3.37-2.832 5.664c-.638 1.276-1.942 2.082-3.369 2.082h-.5c-2.574 0-4.661-2.087-4.661-4.661v-5.756c0-.274.109-.537.303-.731.451-.45 1.247-1.246 1.247-1.246v5.164h.516v-4.737c0-.273.109-.536.303-.73.451-.451 1.247-1.247 1.247-1.247v6.198h.516v-4.737c0-.274.109-.537.303-.73.45-.451 1.246-1.247 1.246-1.247z" style="fill:none;stroke:#000;stroke-width:4;stroke-linecap:butt;stroke-linejoin:miter;stroke-miterlimit:3"/><path d="m22.681 20.697h-.517v-3.704c0-.273-.109-.536-.302-.73-.451-.451-1.247-1.247-1.247-1.247v8.263s-.443-.59-.856-1.14c-.436-.582-1.122-.925-1.85-.925h-.909s1.685 3.37 2.832 5.664c.638 1.276 1.942 2.082 3.369 2.082h.5c2.574 0 4.661-2.087 4.661-4.661v-5.756c0-.274-.109-.537-.303-.731-.451-.45-1.247-1.246-1.247-1.246v5.164h-.516v-4.737c0-.273-.109-.536-.303-.73-.451-.451-1.247-1.247-1.247-1.247v6.198h-.516v-4.737c0-.274-.109-.537-.303-.73-.45-.451-1.246-1.247-1.246-1.247z" style="fill:none;stroke:#000;stroke-width:4;stroke-linecap:butt;stroke-linejoin:miter;stroke-miterlimit:3"/><path d="m16 4v4" fill="none" stroke="#fff" stroke-width="2"/><path d="m9.5 10.5-3-3" fill="none" stroke="#fff" stroke-width="2"/><path d="m22.5 10.5 3-3" fill="none" stroke="#fff" stroke-width="2"/><path d="m3.638 21.73.259-.258-.259-.258v-2.066l.259-.258-.259-.259v-.088c0-.274.109-.537.303-.731.451-.45 1.247-1.246 1.247-1.246v2.065l-.258.259.258.258v2.066l-.258.258.258.258h.516v-.516l.258-.259-.258-.258v-2.066l.258-.258-.258-.258v-1.122c0-.273.109-.536.303-.73.451-.451 1.247-1.247 1.247-1.247v3.099l-.259.258.259.258v2.066l-.259.258.259.259h.516v-.517l.258-.258-.258-.258v-2.582l.258-.259-.258-.258v-.605c0-.274.109-.537.303-.73.45-.451 1.246-1.247 1.246-1.247v2.582l-.258.258.258.259v2.582l-.258.258.258.258h.517l.258-.258-.258-.258v-2.582l.258-.259-.258-.258v-.089c0-.273.109-.536.302-.73.451-.451 1.247-1.247 1.247-1.247v2.066l-.258.258.258.259v2.582l-.258.258.258.258v.395s-.263 2.288-.093 2.384l.275-.44.674-.897c.436-.582 1.122-.925 1.85-.925h.909s-1.685 3.37-2.832 5.664c-.638 1.276-1.942 2.082-3.369 2.082h-.5c-2.574 0-4.661-2.087-4.661-4.661z" fill="#ed399f"/><g fill="#b72477"><path d="m11.385 23.279.182-.243-.738 1.478c-.17-.096-.338-.194-.508-.289-.033-.017-.066-.033-.101-.048-.147-.063-.301-.105-.46-.119-.408-.036-.819.106-1.118.385-.118.11-.214.238-.291.379-.217.421-.424.847-.636 1.27-.036.068-.081.127-.142.175-.051.04-.109.071-.172.089-.051.016-.106.023-.16.022-.175-.004-.34-.1-.43-.25-.028-.046-.049-.097-.06-.15-.018-.074-.018-.151-.003-.225.008-.032.018-.062.03-.093.198-.43.422-.847.634-1.27.048-.093.1-.184.158-.271.117-.174.257-.334.413-.473.22-.195.475-.351.749-.458.519-.201 1.102-.224 1.634-.058l1.019-2.038z"/><path d="m9.836 17.082h1.549v.516h-1.549z"/><path d="m9.836 20.181h1.549v.516h-1.549z"/><path d="m7.77 17.082h1.549v.516h-1.549z"/><path d="m7.77 20.181h1.549v.516h-1.549z"/><path d="m5.704 18.115h1.549v.516h-1.549z"/><path d="m5.704 20.697h1.549v.516h-1.549z"/><path d="m3.638 18.631h1.549v.516h-1.549z"/><path d="m3.638 21.214h1.549v.516h-1.549z"/></g><path d="m22.681 20.697.258-.258-.258-.258v-2.582l.258-.259-.258-.258v-2.582s.796.796 1.246 1.247c.194.193.303.456.303.73v.605l-.258.258.258.259v2.582l-.258.258.258.258v.517h.516l.259-.259-.259-.258v-2.066l.259-.258-.259-.258v-3.099s.796.796 1.247 1.247c.194.194.303.457.303.73v1.122l-.258.258.258.258v2.066l-.258.258.258.259v.516h.516l.258-.258-.258-.258v-2.066l.258-.258-.258-.259v-2.065s.796.796 1.247 1.246c.194.194.303.457.303.731v.088l-.259.259.259.258v2.066l-.259.258.259.258v2.569c0 2.574-2.087 4.661-4.661 4.661h-.5c-1.427 0-2.731-.806-3.369-2.082-1.146-2.292-2.828-5.657-2.832-5.664h.909c.728 0 1.414.343 1.85.925l.674.897.6.933c.17-.096-.418-2.877-.418-2.877v-.395l.258-.258-.258-.258v-2.582l.258-.259-.258-.258v-2.066s.796.796 1.247 1.247c.193.194.302.457.302.73v.089l-.258.258.258.259v2.582l-.258.258.258.258z" fill="#ed399f"/><path d="m20.615 21.092 1.019 2.038c.532-.166 1.115-.143 1.634.058.274.107.529.263.749.458.156.139.296.299.413.473.058.087.11.178.158.271.212.423.436.84.634 1.27.012.031.022.061.03.093.015.074.015.151-.003.225-.011.053-.032.104-.06.15-.09.15-.255.246-.43.25-.054.001-.109-.006-.16-.022-.063-.018-.121-.049-.172-.089-.061-.048-.106-.107-.142-.175-.212-.423-.419-.849-.636-1.27-.077-.141-.173-.269-.291-.379-.299-.279-.71-.421-1.118-.385-.159.014-.313.056-.46.119-.035.015-.068.031-.101.048-.17.095-.338.193-.508.289l-.738-1.478.182.243z" fill="#b72477"/><path d="m20.615 17.082h1.549v.516h-1.549z" fill="#b72477"/><path d="m20.615 20.181h1.549v.516h-1.549z" fill="#b72477"/><path d="m22.681 17.082h1.549v.516h-1.549z" fill="#b72477"/><path d="m22.681 20.181h1.549v.516h-1.549z" fill="#b72477"/><path d="m24.746 18.115h1.549v.516h-1.549z" fill="#b72477"/><path d="m24.746 20.697h1.549v.516h-1.549z" fill="#b72477"/><path d="m26.812 18.631h1.549v.516h-1.549z" fill="#b72477"/><path d="m26.812 21.214h1.549v.516h-1.549z" fill="#b72477"/></g></svg>