<svg clip-rule="evenodd" fill-rule="evenodd" stroke-linecap="round" stroke-miterlimit="2" viewBox="0 0 32 32" xmlns="http://www.w3.org/2000/svg" xmlns:xlink="http://www.w3.org/1999/xlink"><clipPath id="a"><path clip-rule="evenodd" d="m0 0h32v32h-32z"/></clipPath><clipPath id="b"><path clip-rule="evenodd" d="m19 16s.361-.542.777-1.165c.789-1.185 1.975-2.05 3.344-2.441 2.06-.589 4.879-1.394 4.879-1.394s-.544 1.631-1.064 3.192c-.604 1.812-1.836 3.348-3.474 4.331-1.237.742-2.462 1.477-2.462 1.477"/></clipPath><clipPath id="c"><path clip-rule="evenodd" d="m13 16s-.361-.542-.777-1.165c-.789-1.185-1.975-2.05-3.344-2.441-2.06-.589-4.879-1.394-4.879-1.394s.544 1.631 1.064 3.192c.604 1.812 1.836 3.348 3.474 4.331 1.237.742 2.462 1.477 2.462 1.477"/></clipPath><clipPath id="d"><path clip-rule="evenodd" d="m15.08 10c-2.437 0-4.6 1.559-5.37 3.87v.001c-.467 1.4-.601 2.89-.393 4.351.166 1.158.362 2.533.502 3.51.119.832.445 1.62.95 2.293.313.418.683.911 1.031 1.375.755 1.007 1.941 1.6 3.2 1.6h2c1.259 0 2.445-.593 3.2-1.6.348-.464.718-.957 1.031-1.375.505-.673.831-1.461.95-2.293.14-.977.336-2.352.502-3.51.208-1.461.074-2.951-.393-4.351 0-.001 0-.001 0-.001-.77-2.311-2.933-3.87-5.37-3.87-.607 0-1.233 0-1.84 0z"/></clipPath><metadata/><path d="m0 0h32v32h-32z" fill="none"/><g clip-path="url(#a)"><path d="m15.08 10c-2.437 0-4.6 1.559-5.37 3.87v.001c-.467 1.4-.601 2.89-.393 4.351.166 1.158.362 2.533.502 3.51.119.832.445 1.62.95 2.293.313.418.683.911 1.031 1.375.755 1.007 1.941 1.6 3.2 1.6h2c1.259 0 2.445-.593 3.2-1.6.348-.464.718-.957 1.031-1.375.505-.673.831-1.461.95-2.293.14-.977.336-2.352.502-3.51.208-1.461.074-2.951-.393-4.351 0-.001 0-.001 0-.001-.77-2.311-2.933-3.87-5.37-3.87-.607 0-1.233 0-1.84 0z"/><path d="m17.074 8.001.154.005.153.008.152.01.152.014.151.017.15.019.15.023.149.025.148.028.147.031.146.034.145.037.144.04.143.042.143.045.14.047.14.051.139.052.137.056.137.058.134.061.134.063.132.066.131.068.13.071.128.073.126.075.125.078.123.08.122.083.12.085.119.087.117.089.115.092.113.094.112.096.11.098.108.101.106.103.104.104.102.107.1.109.099.111.096.112.094.115.092.117.089.118.088.121.086.123.082.124.081.126.079.128.076.13.073.131.071.133.069.135.066.136.064.139.061.139.058.141.055.143.053.144.037.107.006.017.059.181.05.16.047.161.045.161.042.161.04.162.038.163.035.162.033.164.03.163.028.165.026.164.023.165.021.165.019.165.016.166.013.166.012.166.009.166.006.166.004.166.002.167-.001.167-.003.166-.005.167-.008.166-.01.167-.013.166-.015.167-.018.166-.02.166-.021.159-.504 3.525-.015.101-.018.108-.02.109-.022.107-.023.108-.025.107-.026.106-.029.106-.029.106-.032.105-.033.104-.035.104-.036.104-.038.102-.039.102-.041.101-.043.101-.044.101-.046.099-.047.099-.049.097-.051.098-.052.096-.053.096-.055.095-.057.094-.058.093-.059.092-.062.092-.062.091-.064.089-.061.082-1.04 1.388-.049.064-.055.07-.055.068-.057.068-.057.066-.058.066-.059.065-.06.064-.061.063-.061.062-.063.061-.063.06-.064.058-.065.058-.065.058-.066.055-.067.055-.068.054-.069.053-.069.052-.07.051-.071.05-.071.049-.072.047-.072.047-.074.046-.073.044-.075.044-.075.042-.076.041-.076.041-.077.039-.077.038-.078.036-.078.036-.079.035-.08.033-.08.033-.08.031-.081.03-.081.029-.082.028-.082.026-.083.026-.083.024-.083.023-.084.022-.085.02-.084.02-.085.018-.085.017-.086.016-.086.015-.086.013-.086.012-.087.011-.087.009-.087.009-.088.007-.088.006-.087.004-.088.003-.089.002-.081.001h-2.014l-.081-.001-.089-.002-.088-.003-.088-.004-.087-.006-.088-.007-.087-.009-.087-.009-.087-.011-.086-.012-.086-.013-.086-.015-.086-.016-.085-.017-.085-.018-.085-.02-.084-.02-.084-.022-.083-.023-.083-.024-.083-.026-.082-.026-.082-.028-.081-.029-.081-.03-.08-.031-.08-.033-.08-.033-.079-.035-.078-.036-.078-.036-.077-.038-.077-.039-.076-.041-.076-.041-.075-.042-.075-.044-.073-.044-.074-.046-.072-.047-.072-.047-.071-.049-.071-.05-.07-.051-.069-.052-.069-.053-.067-.054-.068-.055-.066-.056-.065-.057-.065-.058-.064-.058-.063-.06-.063-.061-.061-.062-.061-.063-.06-.064-.059-.065-.058-.065-.057-.067-.057-.068-.055-.068-.055-.07-.049-.064-1.04-1.388-.061-.082-.064-.089-.062-.091-.062-.092-.059-.092-.058-.093-.057-.094-.055-.095-.053-.096-.052-.096-.051-.097-.049-.098-.047-.099-.046-.099-.044-.101-.043-.101-.041-.101-.039-.102-.038-.103-.036-.103-.035-.104-.033-.104-.032-.105-.029-.106-.029-.105-.026-.107-.025-.107-.023-.108-.022-.107-.019-.108-.019-.109-.015-.102-.504-3.524-.021-.159-.02-.166-.018-.166-.015-.167-.013-.166-.01-.167-.008-.166-.005-.167-.003-.166-.001-.167.002-.167.004-.166.006-.166.009-.166.012-.166.013-.166.016-.166.019-.165.021-.165.023-.165.026-.164.028-.165.03-.163.033-.164.035-.162.038-.163.04-.162.042-.161.045-.161.047-.161.05-.16.044-.137.006-.017.052-.151.053-.144.055-.143.058-.141.061-.139.064-.139.066-.136.069-.135.071-.133.073-.131.076-.13.079-.128.081-.126.083-.124.085-.123.087-.12.09-.119.092-.117.094-.115.096-.113.099-.11.1-.109.102-.107.104-.104.106-.103.108-.101.11-.098.112-.096.113-.094.115-.092.117-.089.119-.087.12-.085.122-.083.123-.08.125-.078.126-.075.128-.073.13-.071.131-.068.132-.066.133-.063.135-.061.137-.058.137-.056.139-.052.14-.051.14-.047.143-.045.143-.042.144-.04.145-.037.146-.034.147-.031.148-.028.149-.025.15-.023.15-.019.151-.017.152-.014.152-.01.153-.008.154-.005.144-.001h1.86l.144.001zm3.294 6.432-.025-.07-.027-.068-.027-.067-.03-.067-.03-.066-.031-.065-.033-.065-.034-.063-.035-.063-.037-.062-.037-.061-.038-.06-.04-.059-.041-.058-.041-.058-.043-.056-.044-.056-.045-.055-.046-.054-.047-.053-.047-.052-.049-.051-.05-.05-.051-.049-.051-.048-.053-.047-.053-.046-.055-.045-.055-.044-.056-.042-.056-.042-.058-.041-.058-.039-.059-.039-.06-.037-.061-.036-.061-.035-.062-.034-.062-.032-.064-.032-.063-.03-.065-.029-.065-.028-.066-.026-.066-.026-.066-.024-.068-.022-.067-.022-.069-.02-.068-.019-.07-.017-.069-.016-.07-.015-.071-.014-.071-.012-.071-.01-.072-.01-.072-.008-.073-.006-.072-.005-.074-.004-.073-.002-.084-.001h-1.822l-.084.001-.073.002-.074.004-.072.005-.073.006-.072.008-.072.01-.071.01-.071.012-.071.014-.07.015-.069.016-.07.017-.068.019-.069.02-.067.022-.068.022-.066.024-.066.026-.066.026-.065.028-.064.029-.064.03-.064.032-.062.032-.062.034-.061.035-.061.036-.06.037-.059.039-.058.039-.058.041-.056.042-.056.043-.055.043-.055.045-.053.046-.053.047-.051.048-.051.049-.05.05-.049.051-.047.052-.047.053-.046.054-.045.055-.044.056-.043.056-.041.058-.041.058-.04.059-.038.06-.037.061-.037.062-.035.063-.034.063-.033.065-.031.065-.03.066-.03.067-.027.067-.027.068-.026.07-.022.064.005-.016-.041.126-.032.104-.031.105-.029.105-.027.105-.026.106-.025.106-.023.106-.021.107-.02.107-.019.107-.016.107-.015.108-.014.107-.012.108-.011.108-.009.108-.007.109-.006.108-.004.108-.003.109-.001.109v.108l.002.109.004.109.005.108.007.109.008.109.01.108.012.109.013.108.015.115.5 3.495.008.055.008.046.008.047.009.046.01.046.011.046.011.045.012.046.013.045.014.045.014.045.015.044.015.045.016.043.017.044.018.044.018.043.019.043.02.043.02.042.021.042.022.041.022.042.023.041.024.04.024.041.025.04.025.039.026.04.027.038.028.039.032.044 1.023 1.363.022.03.018.023.019.023.018.022.019.022.02.022.02.022.019.021.021.021.02.021.021.02.021.02.021.019.022.02.022.019.022.019.022.018.023.018.022.017.024.018.023.017.023.016.024.017.024.015.024.016.025.015.024.015.025.015.025.014.025.013.026.014.025.013.026.012.027.013.026.012.026.011.026.011.027.011.027.011.027.01.027.009.027.01.028.008.027.009.028.008.028.008.028.007.028.007.028.006.028.006.028.006.029.005.028.005.029.005.029.004.029.003.029.003.029.003.029.003.029.001.03.002.029.001.029.001h.037 1.986.037l.029-.001.029-.001.03-.002.029-.001.029-.003.029-.003.029-.003.029-.003.029-.004.029-.005.028-.005.029-.005.028-.006.028-.006.028-.006.028-.007.028-.007.028-.008.028-.008.027-.009.028-.008.027-.01.027-.009.027-.01.027-.011.027-.011.026-.011.026-.011.027-.012.026-.013.026-.012.025-.013.025-.014.026-.013.025-.015.025-.014.024-.015.025-.015.024-.016.024-.015.024-.017.023-.016.023-.017.024-.018.022-.017.023-.018.022-.018.022-.019.022-.019.022-.02.021-.019.021-.02.021-.02.02-.021.021-.021.019-.021.02-.022.019-.022.02-.022.018-.023.019-.022.018-.023.022-.03 1.023-1.363.032-.044.028-.039.027-.039.026-.039.025-.039.025-.04.024-.041.024-.04.023-.041.022-.042.022-.041.021-.042.02-.043.02-.042.019-.043.018-.043.018-.044.017-.044.016-.044.015-.044.015-.044.014-.045.014-.045.013-.045.012-.045.011-.046.011-.046.01-.046.009-.046.008-.047.008-.046.008-.055.5-3.495.015-.115.013-.108.012-.109.01-.108.008-.109.007-.109.005-.108.004-.109.002-.109v-.109l-.001-.108-.003-.108-.004-.109-.006-.108-.007-.109-.009-.108-.011-.108-.012-.108-.014-.107-.015-.108-.016-.107-.019-.107-.02-.107-.021-.107-.023-.106-.025-.106-.026-.106-.027-.105-.029-.105-.031-.105-.032-.104-.027-.081.006.015-.038-.108z"/><path d="m18 9c.649-1.298 1.702-2.351 3-3 .265-.132.547-.274.843-.421 1.533-.767 3.353-.685 4.811.216s2.346 2.493 2.346 4.207v13.998l1 2h-1s-.011 0-.032 0c-1.127 0-2.079-.834-2.228-1.951-.453-3.393-1.363-10.224-1.651-12.381-.051-.382-.377-.668-.763-.668-.002 0-.005 0-.007 0-.204 0-.4.081-.545.226-.294.294-.774.774-.774.774z" fill="none" stroke="#000" stroke-width="4"/><path d="m14 9c-.649-1.298-1.702-2.351-3-3-.265-.132-.547-.274-.843-.421-1.533-.767-3.353-.685-4.811.216s-2.346 2.493-2.346 4.207v13.998l-1 2h1 .032c1.127 0 2.079-.834 2.228-1.951.453-3.393 1.363-10.224 1.651-12.381.051-.382.377-.668.763-.668h.007c.204 0 .4.081.545.226.294.294.774.774.774.774z" fill="none" stroke="#000" stroke-width="4"/><path d="m18 9c.649-1.298 1.702-2.351 3-3 .265-.132.547-.274.843-.421 1.533-.767 3.353-.685 4.811.216s2.346 2.493 2.346 4.207v13.998l1 2h-1s-.011 0-.032 0c-1.127 0-2.079-.834-2.228-1.951-.453-3.393-1.363-10.224-1.651-12.381-.051-.382-.377-.668-.763-.668-.002 0-.005 0-.007 0-.204 0-.4.081-.545.226-.294.294-.774.774-.774.774z" fill="#57472e"/><path d="m14 9c-.649-1.298-1.702-2.351-3-3-.265-.132-.547-.274-.843-.421-1.533-.767-3.353-.685-4.811.216s-2.346 2.493-2.346 4.207v13.998l-1 2h1 .032c1.127 0 2.079-.834 2.228-1.951.453-3.393 1.363-10.224 1.651-12.381.051-.382.377-.668.763-.668h.007c.204 0 .4.081.545.226.294.294.774.774.774.774z" fill="#57472e"/><path d="m19 16s.361-.542.777-1.165c.789-1.185 1.975-2.05 3.344-2.441 2.06-.589 4.879-1.394 4.879-1.394s-.544 1.631-1.064 3.192c-.604 1.812-1.836 3.348-3.474 4.331-1.237.742-2.462 1.477-2.462 1.477" fill="#7b6d56"/><g clip-path="url(#b)"><path d="m28 12s-2.051.879-3.932 1.685c-.646.277-1.099.873-1.194 1.569-.095.697.184 1.392.732 1.831 1.214.971 2.394 1.915 2.394 1.915l2 1z" fill="#958770"/></g><path d="m13 16s-.361-.542-.777-1.165c-.789-1.185-1.975-2.05-3.344-2.441-2.06-.589-4.879-1.394-4.879-1.394s.544 1.631 1.064 3.192c.604 1.812 1.836 3.348 3.474 4.331 1.237.742 2.462 1.477 2.462 1.477" fill="#7b6d56"/><g clip-path="url(#c)"><path d="m4 12s2.051.879 3.932 1.685c.646.277 1.099.873 1.194 1.569.095.697-.184 1.392-.732 1.831-1.214.971-2.394 1.915-2.394 1.915l-2 1z" fill="#958770"/></g><path d="m15.08 10c-2.437 0-4.6 1.559-5.37 3.87v.001c-.467 1.4-.601 2.89-.393 4.351.166 1.158.362 2.533.502 3.51.119.832.445 1.62.95 2.293.313.418.683.911 1.031 1.375.755 1.007 1.941 1.6 3.2 1.6h2c1.259 0 2.445-.593 3.2-1.6.348-.464.718-.957 1.031-1.375.505-.673.831-1.461.95-2.293.14-.977.336-2.352.502-3.51.208-1.461.074-2.951-.393-4.351 0-.001 0-.001 0-.001-.77-2.311-2.933-3.87-5.37-3.87-.607 0-1.233 0-1.84 0z" fill="#7b6d56"/><g clip-path="url(#d)"><path d="m10 26s1.283-2.566 2.171-4.342c.508-1.016 1.547-1.658 2.683-1.658h2.292c1.136 0 2.175.642 2.683 1.658.888 1.776 2.171 4.342 2.171 4.342v3h-12z" fill="#c9c4ba"/></g><path d="m18.028 25.001.028.002.028.004.027.006.027.007.027.008.026.01.026.012.025.012.024.015.023.015.023.017.021.018.021.019.019.021.018.021.017.023.015.023.015.024.012.025.012.026.01.026.008.027.007.027.006.027.004.028.002.028.001.028-.001.028-.002.028-.004.028-.006.027-.007.027-.008.027-.01.026-.012.026-.012.025-.015.024-.015.023-.017.023-.018.021-.019.021-.021.019-.021.018-.023.017-.023.015-.024.015-.025.012-.026.012-.026.01-.027.008-.027.007-.027.006-.028.004-.028.002-.028.001h-4l-.028-.001-.028-.002-.028-.004-.027-.006-.027-.007-.027-.008-.026-.01-.026-.012-.025-.012-.024-.015-.023-.015-.023-.017-.021-.018-.021-.019-.019-.021-.018-.021-.017-.023-.015-.023-.015-.024-.012-.025-.012-.026-.01-.026-.008-.027-.007-.027-.006-.027-.004-.028-.002-.028-.001-.028.001-.028.002-.028.004-.028.006-.027.007-.027.008-.027.01-.026.012-.026.012-.025.015-.024.015-.023.017-.023.018-.021.019-.021.021-.019.021-.018.023-.017.023-.015.024-.015.025-.012.026-.012.026-.01.027-.008.027-.007.027-.006.028-.004.028-.002.028-.001h4z" fill="#43413e"/><path d="m22 16v.225c0 .643-.309 1.247-.831 1.623-.521.376-1.192.478-1.801.275-.225-.075-.368-.123-.368-.123s.216-.432.447-.894c.339-.678 1.032-1.106 1.789-1.106z"/><path d="m10 16v.225c0 .643.309 1.247.831 1.623.521.376 1.192.478 1.801.275.225-.075.368-.123.368-.123s-.216-.432-.447-.894c-.339-.678-1.032-1.106-1.789-1.106-.41 0-.764 0-.764 0z"/><path d="m14.78 21.39c-.167-.084-.365-.075-.524.024-.159.098-.256.271-.256.458v.001c0 .081.032.159.09.217l1.91 1.91 1-1s.664-.664.91-.91c.058-.058.09-.136.09-.217v-.001c0-.187-.097-.36-.256-.458-.159-.099-.357-.108-.524-.024-.561.281-1.22.61-1.22.61s-.659-.329-1.22-.61z"/><g fill="#57472e"><path d="m17.322 10.355c-.192.385-.117.85.188 1.155.136.136.289.289.443.443.67.67 1.579 1.047 2.527 1.047h1.106c.265 0 .519-.105.707-.293.555-.555 1.707-1.707 1.707-1.707l-3-2h-3s-.385.771-.678 1.355z"/><path d="m14.678 10.355c.192.385.117.85-.188 1.155-.136.136-.289.289-.443.443-.67.67-1.579 1.047-2.527 1.047-.407 0-.815 0-1.106 0-.265 0-.519-.105-.707-.293-.555-.555-1.707-1.707-1.707-1.707l3-2h3s.385.771.678 1.355z"/></g></g></svg>