<svg clip-rule="evenodd" fill-rule="evenodd" stroke-linecap="round" stroke-miterlimit="1.5" viewBox="0 0 32 32" xmlns="http://www.w3.org/2000/svg" xmlns:xlink="http://www.w3.org/1999/xlink"><clipPath id="a"><path clip-rule="evenodd" d="m0 0h32v32h-32z"/></clipPath><metadata/><path d="m0 0h32v32h-32z" fill="none"/><g clip-path="url(#a)"><path d="m6 4s.163-.163.382-.382c.618-.618 1.618-.618 2.236 0 .486.486 1.048 1.048 1.503 1.503.563.563.879 1.326.879 2.122v1.757" fill="none" stroke="#000" stroke-width="6"/><path d="m8.5 10.5-5.5-5.5c-.552-.552-.552-1.448 0-2 .552-.552 1.448-.552 2 0l5.5 5.5 2.564-2.564c-.041-.138-.064-.285-.064-.436 0-.828.672-1.5 1.5-1.5s1.5.672 1.5 1.5-.672 1.5-1.5 1.5c-.151 0-.298-.023-.436-.064l-1.149 1.149c.211.101.409.239.584.414l.002.002c.828.828.828 2.17 0 2.998l-.001.001 16.5 16.5v2h-2l-16.5-16.5-.001.001c-.828.828-2.17.828-2.998 0-.001-.001-.001-.001-.002-.002-.175-.175-.313-.373-.414-.584l-1.149 1.149c.041.138.064.285.064.436 0 .828-.672 1.5-1.5 1.5s-1.5-.672-1.5-1.5.672-1.5 1.5-1.5c.151 0 .298.023.436.064l2.563-2.563s.001-.001.001-.001z" fill="none" stroke="#000" stroke-width="4"/><path d="m6 4s.163-.163.382-.382c.618-.618 1.618-.618 2.236 0 .341.341.719.719 1.071 1.071.803.803 1.084 1.992.725 3.07-.218.654-.414 1.241-.414 1.241" fill="none" stroke="#98bdd0" stroke-width="2"/><path d="m11 9 19 19v2l-2-1-18-18z" fill="#e1f1f4"/><path d="m10 10 20 20h-2l-19-19z" fill="#98bdd0"/><path d="m3 3c.552-.552 1.448-.552 2 0 1.934 1.934 6 6 6 6l-2 2s-4.066-4.066-6-6c-.552-.552-.552-1.448 0-2z" fill="#e1f1f4"/><g fill="#708e94"><path d="m5 14 9-9 1 1-9 9z"/><circle cx="14.5" cy="5.5" r="1.5"/><circle cx="5.5" cy="14.5" r="1.5"/><path d="m10.501 8.499c.828-.828 2.17-.828 2.998 0l.002.002c.828.828.828 2.17 0 2.998-.633.633-1.369 1.369-2.002 2.002-.828.828-2.17.828-2.998 0-.001-.001-.001-.001-.002-.002-.828-.828-.828-2.17 0-2.998.633-.633 1.369-1.369 2.002-2.002z"/></g></g></svg>