<svg clip-rule="evenodd" fill-rule="evenodd" stroke-linejoin="round" stroke-miterlimit="1.41421" viewBox="0 0 32 32" xmlns="http://www.w3.org/2000/svg" xmlns:xlink="http://www.w3.org/1999/xlink"><clipPath id="a"><path clip-rule="evenodd" d="m14.978 7c-2.696 0-5.25 1.209-6.96 3.294-1.709 2.085-2.394 4.827-1.865 7.471.214 1.069.406 2.028.552 2.762.195.971.593 1.89 1.168 2.696.725 1.015 1.773 2.482 2.631 3.683.939 1.314 2.454 2.094 4.069 2.094h2.854c1.615 0 3.13-.78 4.069-2.094.858-1.201 1.906-2.668 2.631-3.683.575-.806.973-1.725 1.168-2.696.146-.734.338-1.693.552-2.762.529-2.644-.156-5.386-1.865-7.471-1.71-2.085-4.264-3.294-6.96-3.294-.68 0-1.364 0-2.044 0z"/></clipPath><clipPath id="b"><path clip-rule="evenodd" d="m26.462 14.415c-.852.341-1.826.039-2.335-.725-.548-.821-1.262-1.893-1.87-2.805-.318-.477-.416-1.068-.269-1.623.147-.554.525-1.019 1.038-1.275 1.482-.741 3.446-1.723 4.71-2.355.29-.145.633-.14.919.013s.48.435.52.757c.099.788.227 1.812.352 2.818.279 2.227-.98 4.361-3.064 5.195-.001 0-.001 0-.001 0z"/></clipPath><clipPath id="c"><path clip-rule="evenodd" d="m5.538 14.415c.852.341 1.826.039 2.335-.725.548-.821 1.262-1.893 1.87-2.805.318-.477.416-1.068.269-1.623-.147-.554-.525-1.019-1.038-1.275-1.482-.741-3.446-1.723-4.71-2.355-.29-.145-.633-.14-.919.013s-.48.435-.52.757c-.099.788-.227 1.812-.352 2.818-.279 2.227.98 4.361 3.064 5.195z"/></clipPath><metadata/><path d="m0 0h32v32h-32z" fill="none"/><path d="m14.978 7c-2.696 0-5.25 1.209-6.96 3.294-1.709 2.085-2.394 4.827-1.865 7.471.214 1.069.406 2.028.552 2.762.195.971.593 1.89 1.168 2.696.725 1.015 1.773 2.482 2.631 3.683.939 1.314 2.454 2.094 4.069 2.094h2.854c1.615 0 3.13-.78 4.069-2.094.858-1.201 1.906-2.668 2.631-3.683.575-.806.973-1.725 1.168-2.696.146-.734.338-1.693.552-2.762.529-2.644-.156-5.386-1.865-7.471-1.71-2.085-4.264-3.294-6.96-3.294-.68 0-1.364 0-2.044 0z"/><path d="m17.176 5.001.154.003.154.006.153.007.153.01.153.012.153.013.152.016.151.018.151.021.151.022.151.024.149.026.15.029.148.03.148.033.148.034.147.037.147.038.145.04.145.043.145.044.144.047.143.048.142.05.142.052.141.054.14.056.139.058.138.06.138.062.136.063.136.066.135.067.134.069.133.071.132.073.131.075.131.076.129.078.128.08.127.082.126.084.124.085.124.087.123.089.121.09.12.093.119.094.118.096.117.097.115.099.114.101.113.102.111.105.11.105.109.108.108.109.105.111.105.112.103.114.102.115.1.117.099.119.097.12.095.121.093.123.091.123.09.125.088.125.086.127.084.128.082.128.08.13.079.131.076.131.075.133.072.133.071.134.069.136.067.136.065.136.063.138.061.138.06.14.057.139.055.141.053.141.052.142.049.143.048.143.045.144.044.144.041.145.04.146.037.146.036.146.033.147.032.148.029.147.028.149.025.148.023.149.022.15.019.15.017.15.016.15.013.151.011.151.009.151.007.151.004.152.003.151.001.152-.002.152-.003.152-.006.152-.008.152-.009.153-.013.152-.014.152-.016.152-.018.152-.021.152-.023.152-.025.152-.027.152-.027.144-.555 2.776-.023.11-.026.116-.027.116-.029.116-.03.115-.032.115-.033.114-.035.114-.036.113-.038.112-.039.113-.041.111-.042.111-.044.111-.045.11-.046.109-.048.108-.049.108-.051.108-.052.106-.054.106-.055.106-.056.104-.058.104-.059.103-.061.102-.062.102-.063.101-.065.1-.066.099-.067.099-.065.092-2.639 3.695-.058.079-.063.085-.065.083-.065.083-.067.081-.068.08-.069.079-.07.078-.071.076-.072.076-.074.074-.074.073-.075.072-.076.071-.077.07-.078.068-.079.067-.08.066-.081.064-.082.064-.083.062-.083.061-.084.059-.086.059-.086.057-.086.055-.088.055-.088.053-.089.052-.09.05-.091.049-.091.048-.092.047-.093.045-.093.044-.094.042-.094.041-.095.039-.096.039-.097.037-.097.035-.097.034-.098.033-.099.031-.099.029-.099.029-.101.026-.1.026-.101.024-.102.022-.101.021-.103.019-.102.018-.103.016-.104.015-.103.014-.104.011-.105.011-.104.008-.105.007-.105.006-.106.004-.105.002-.099.001h-2.868l-.099-.001-.105-.002-.106-.004-.105-.006-.105-.007-.104-.008-.105-.011-.104-.011-.103-.014-.104-.015-.103-.016-.102-.018-.103-.019-.101-.021-.102-.022-.101-.024-.1-.026-.101-.026-.099-.029-.099-.029-.099-.031-.098-.033-.097-.034-.097-.035-.097-.037-.096-.039-.095-.039-.094-.041-.094-.042-.093-.044-.093-.045-.092-.047-.091-.048-.091-.049-.09-.05-.089-.052-.088-.053-.088-.055-.086-.055-.086-.057-.085-.059-.085-.059-.083-.061-.083-.062-.082-.064-.081-.064-.08-.066-.079-.067-.078-.068-.077-.07-.076-.071-.075-.072-.074-.073-.074-.074-.072-.076-.071-.076-.07-.078-.069-.079-.068-.08-.067-.081-.065-.083-.065-.083-.063-.085-.058-.079-2.639-3.695-.065-.092-.067-.099-.066-.099-.065-.1-.063-.101-.062-.101-.061-.103-.059-.103-.058-.104-.056-.104-.055-.106-.054-.106-.052-.106-.051-.108-.049-.108-.048-.108-.046-.11-.045-.109-.044-.111-.042-.111-.041-.111-.039-.113-.038-.112-.036-.113-.035-.114-.033-.114-.032-.115-.03-.115-.029-.116-.027-.116-.026-.116-.023-.111-.555-2.775-.027-.144-.027-.152-.025-.152-.023-.152-.021-.152-.018-.152-.016-.152-.014-.152-.013-.152-.009-.153-.008-.152-.006-.152-.003-.152-.002-.152.001-.152.003-.151.004-.152.007-.151.009-.151.011-.151.013-.151.016-.15.017-.15.019-.15.022-.15.023-.149.025-.148.028-.149.029-.147.032-.148.033-.147.036-.146.037-.146.04-.146.041-.145.044-.144.045-.144.048-.143.049-.143.052-.142.053-.141.055-.141.057-.139.06-.14.061-.138.063-.138.065-.136.067-.136.069-.136.071-.134.072-.133.075-.133.076-.131.079-.131.08-.13.082-.128.084-.128.086-.127.088-.125.09-.125.091-.123.093-.123.095-.121.097-.12.099-.119.1-.117.102-.115.103-.114.105-.112.105-.111.108-.109.109-.108.11-.105.111-.105.113-.102.114-.101.115-.099.117-.097.118-.096.119-.094.12-.093.121-.09.123-.089.124-.087.124-.085.126-.084.127-.082.128-.08.129-.078.131-.076.131-.075.132-.073.133-.071.134-.069.135-.067.136-.066.136-.063.138-.062.138-.06.139-.058.14-.056.141-.054.142-.052.142-.05.143-.048.144-.047.145-.044.145-.043.145-.04.147-.038.147-.037.148-.034.148-.033.148-.03.15-.029.149-.026.151-.024.151-.022.151-.021.151-.018.152-.016.153-.013.153-.012.153-.01.153-.007.154-.006.154-.003.147-.001h2.058l.147.001zm-2.191 3.999-.105.001-.098.002-.098.003-.098.005-.097.006-.097.008-.097.008-.097.011-.097.011-.096.013-.096.014-.095.015-.095.017-.095.018-.095.02-.094.02-.094.022-.094.023-.093.025-.093.026-.092.027-.092.028-.091.029-.091.031-.091.032-.09.033-.09.035-.089.035-.089.037-.088.038-.087.039-.087.041-.087.042-.086.042-.085.044-.085.046-.084.046-.083.047-.083.049-.082.05-.082.051-.08.052-.08.053-.08.054-.079.056-.078.056-.077.058-.076.059-.076.059-.075.061-.074.062-.074.063-.072.065-.072.065-.071.066-.07.067-.069.069-.068.069-.068.071-.066.071-.066.072-.065.074-.063.075-.063.075-.062.077-.061.077-.059.078-.058.078-.057.079-.056.08-.055.081-.053.081-.052.082-.051.083-.05.083-.049.083-.047.085-.047.085-.045.085-.044.086-.042.087-.041.087-.041.087-.039.088-.037.089-.037.089-.035.089-.034.09-.033.09-.031.091-.03.091-.029.092-.028.092-.026.092-.025.093-.024.092-.023.094-.021.093-.02.094-.019.094-.017.095-.017.094-.015.095-.013.095-.012.096-.011.095-.01.096-.008.096-.007.096-.006.096-.005.096-.003.096-.001.097-.001.097.001.096.002.097.004.097.005.096.006.097.008.097.009.097.01.097.012.097.013.096.015.097.015.097.018.096.02.104.549 2.748.015.071.014.065.015.065.016.064.017.064.018.064.018.063.02.063.02.063.021.063.021.062.023.062.023.062.025.061.025.061.026.061.026.06.028.06.028.06.029.059.029.059.031.058.031.058.032.058.033.057.034.057.034.057.036.056.036.055.036.055.038.055.042.059 2.623 3.673.031.043.027.036.027.036.029.035.028.035.029.034.03.034.03.033.03.033.031.032.032.032.031.031.033.031.032.031.033.029.034.03.034.028.034.028.034.028.035.027.036.027.036.026.036.026.036.025.037.024.037.024.038.023.038.023.038.022.038.022.039.021.039.02.04.02.039.02.041.018.04.019.04.017.041.017.041.017.042.015.041.016.042.014.042.014.042.013.043.013.042.012.043.012.043.011.043.01.044.009.044.009.043.009.044.007.044.007.044.007.045.005.045.005.044.005.045.003.045.003.045.003.045.002.046.001h.053 2.838.053l.046-.001.045-.002.045-.003.045-.003.045-.003.044-.005.045-.005.045-.005.044-.007.044-.007.044-.007.043-.009.044-.009.044-.009.043-.01.043-.011.043-.012.042-.012.043-.013.042-.013.042-.014.042-.014.041-.016.042-.015.041-.017.041-.017.04-.017.04-.019.041-.018.039-.02.04-.02.039-.02.039-.021.038-.022.038-.022.038-.023.038-.023.037-.024.037-.024.036-.025.036-.026.036-.026.036-.027.035-.027.034-.028.035-.028.033-.028.034-.03.033-.029.032-.031.033-.031.031-.031.032-.032.031-.032.03-.033.03-.033.03-.034.029-.034.028-.035.028-.035.028-.036.027-.037.031-.042 2.623-3.673.042-.059.038-.055.037-.055.035-.055.036-.056.034-.057.034-.057.033-.057.032-.058.031-.058.031-.058.029-.059.029-.059.028-.06.028-.06.026-.06.026-.061.025-.061.025-.061.023-.062.023-.062.021-.062.021-.063.02-.063.02-.063.018-.064.018-.063.017-.064.016-.064.015-.065.014-.065.015-.071.549-2.748.02-.104.018-.096.015-.097.015-.097.013-.096.012-.097.01-.097.009-.097.008-.097.006-.097.005-.096.004-.097.002-.097.001-.096-.001-.097-.001-.097-.003-.096-.005-.096-.006-.096-.007-.096-.008-.096-.01-.096-.011-.095-.012-.096-.013-.095-.015-.095-.017-.094-.017-.095-.019-.094-.02-.094-.021-.093-.023-.094-.024-.092-.025-.093-.026-.092-.028-.092-.029-.092-.03-.091-.031-.091-.033-.09-.034-.09-.035-.089-.037-.089-.037-.089-.039-.088-.041-.087-.041-.087-.042-.087-.044-.086-.045-.085-.047-.085-.047-.085-.049-.083-.05-.083-.051-.083-.052-.082-.053-.081-.055-.081-.056-.08-.057-.079-.058-.078-.059-.078-.061-.077-.062-.077-.063-.075-.063-.075-.065-.074-.066-.072-.066-.072-.068-.07-.068-.069-.069-.069-.07-.067-.071-.066-.072-.065-.072-.065-.074-.063-.074-.062-.075-.061-.076-.059-.076-.059-.077-.058-.078-.056-.079-.056-.079-.054-.081-.053-.08-.052-.082-.051-.082-.05-.083-.049-.083-.047-.084-.046-.085-.046-.085-.044-.086-.042-.087-.042-.087-.041-.087-.039-.088-.038-.089-.037-.089-.035-.09-.035-.09-.033-.091-.032-.091-.031-.091-.029-.092-.028-.092-.027-.093-.026-.093-.025-.094-.023-.094-.022-.094-.02-.095-.02-.095-.018-.095-.017-.095-.015-.096-.014-.096-.013-.097-.011-.097-.011-.097-.008-.097-.008-.097-.006-.098-.005-.098-.003-.098-.002-.105-.001h-2.03z"/><path d="m28.313 3.529.089.005.088.008.089.01.087.013.088.016.087.018.087.021.087.024.085.026.085.029.085.031.083.034.083.037.082.039.081.041.079.044.078.047.076.048.075.051.073.053.071.055.069.057.068.059.065.06.064.063.062.064.059.066.058.067.055.07.054.07.051.073.049.074.047.075.045.077.042.077.04.08.038.081.036.081.033.083.03.084.029.085.025.086.024.087.02.088.018.089.015.089.011.075.355 2.843.016.136.013.146.011.146.007.145.005.146.001.145-.002.145-.005.144-.007.144-.011.143-.014.143-.016.142-.02.141-.022.141-.025.14-.028.139-.031.139-.034.137-.036.137-.039.135-.042.135-.044.134-.047.132-.05.132-.052.13-.055.129-.057.128-.06.127-.063.125-.065.124-.067.123-.07.121-.073.12-.074.118-.078.117-.079.116-.082.113-.084.113-.087.11-.088.109-.091.107-.094.105-.095.104-.098.101-.1.1-.102.098-.104.096-.106.094-.108.092-.111.089-.112.088-.114.085-.117.084-.118.081-.12.078-.122.077-.124.074-.126.071-.128.069-.129.067-.131.064-.133.061-.134.059-.125.051-.021.009-.072.028-.082.029-.081.028-.082.026-.083.023-.083.023-.083.02-.083.018-.083.017-.084.014-.083.013-.084.011-.084.009-.083.008-.084.005-.083.004-.084.002h-.083l-.084-.001-.083-.003-.083-.005-.082-.007-.082-.009-.083-.01-.081-.012-.082-.013-.081-.016-.08-.017-.081-.018-.079-.021-.08-.021-.079-.024-.078-.025-.078-.027-.077-.029-.077-.03-.076-.031-.075-.034-.075-.035-.074-.036-.074-.038-.072-.04-.072-.041-.071-.043-.071-.044-.069-.046-.069-.048-.067-.049-.067-.05-.066-.052-.065-.054-.063-.055-.063-.056-.062-.058-.06-.06-.059-.06-.059-.063-.056-.063-.056-.065-.054-.067-.054-.067-.051-.069-.051-.071-.042-.062-1.884-2.826-.051-.078-.056-.092-.053-.093-.05-.093-.048-.095-.046-.096-.042-.097-.04-.098-.038-.099-.035-.1-.032-.1-.029-.102-.027-.101-.024-.103-.021-.103-.019-.103-.015-.104-.013-.105-.011-.104-.007-.105-.005-.106-.002-.105v-.106l.004-.105.006-.106.009-.106.012-.105.015-.106.018-.105.02-.104.023-.105.027-.104.029-.103.031-.103.034-.101.037-.1.04-.099.042-.097.044-.096.047-.095.049-.094.052-.092.054-.09.057-.089.058-.088.061-.086.064-.084.065-.082.067-.081.07-.079.072-.077.073-.075.076-.073.078-.071.079-.07.082-.067.083-.065.085-.063.087-.061.089-.059.091-.056.092-.054.094-.052.083-.043 4.735-2.368.068-.032.083-.037.084-.034.084-.032.086-.029.085-.026.087-.024.087-.021.087-.019.088-.016.088-.013.088-.01.089-.008.088-.006.089-.002h.089l.088.002zm-4.38 6.241-.012.006.007.011 1.836 2.753.014-.006.057-.025.057-.026.055-.027.055-.029.054-.029.053-.03.053-.031.051-.033.051-.033.05-.034.049-.035.048-.036.048-.037.046-.038.046-.038.045-.04.044-.041.043-.041.042-.042.041-.043.041-.044.039-.044.039-.046.037-.046.037-.047.036-.047.034-.049.034-.049.033-.049.032-.05.03-.051.03-.052.029-.052.027-.053.027-.053.025-.054.025-.054.023-.055.022-.055.021-.055.02-.057.019-.056.017-.057.017-.057.015-.058.014-.058.013-.059.012-.058.011-.059.009-.06.008-.059.007-.06.006-.06.005-.061.003-.061.002-.06.001-.062-.001-.061-.002-.062-.003-.061-.004-.062-.006-.063-.008-.073-.176-1.404z"/><path d="m3.864 3.527.089.002.088.006.089.008.088.01.088.013.088.016.087.019.087.021.087.024.085.026.086.029.084.032.084.034.083.037.068.032 4.735 2.368.083.043.094.052.092.054.091.056.089.059.087.061.085.063.083.065.082.067.079.07.078.071.076.073.073.075.072.077.07.079.067.081.065.082.064.084.061.086.058.088.057.089.054.09.051.092.05.094.047.095.044.096.042.097.04.099.037.1.034.101.031.103.029.103.027.104.023.105.02.104.018.106.015.105.012.105.009.106.006.106.004.105v.106l-.002.105-.005.106-.007.105-.011.104-.013.105-.015.104-.019.103-.021.103-.024.103-.027.101-.029.102-.032.1-.035.1-.038.099-.04.098-.042.097-.046.096-.048.095-.05.093-.053.093-.056.092-.051.078-1.884 2.826-.042.062-.051.071-.051.069-.054.067-.054.067-.056.065-.056.063-.059.063-.059.06-.06.06-.062.058-.063.056-.063.055-.065.054-.066.052-.067.05-.067.049-.069.048-.069.046-.071.044-.071.043-.072.041-.072.04-.074.038-.074.036-.075.035-.075.034-.076.031-.077.03-.077.029-.078.027-.078.025-.079.024-.08.021-.079.021-.081.018-.08.017-.081.016-.082.013-.081.012-.083.01-.082.009-.082.007-.083.005-.083.003-.084.001h-.083l-.084-.002-.083-.004-.084-.005-.083-.008-.084-.009-.084-.011-.083-.013-.084-.014-.083-.017-.083-.018-.083-.02-.083-.023-.083-.023-.081-.026-.082-.028-.082-.029-.072-.028-.021-.009-.125-.051-.134-.059-.133-.061-.131-.064-.129-.067-.128-.069-.126-.071-.124-.074-.122-.077-.12-.078-.118-.081-.117-.084-.114-.085-.112-.088-.111-.089-.108-.092-.106-.094-.104-.096-.102-.098-.1-.1-.098-.101-.095-.104-.094-.105-.091-.107-.088-.109-.087-.11-.084-.113-.082-.113-.079-.116-.078-.117-.074-.118-.073-.12-.07-.121-.067-.123-.065-.124-.063-.125-.06-.127-.057-.128-.055-.129-.052-.13-.05-.132-.047-.132-.044-.134-.042-.135-.039-.135-.036-.137-.034-.137-.031-.139-.028-.139-.025-.14-.022-.141-.02-.141-.016-.142-.014-.143-.011-.143-.007-.144-.005-.144-.002-.145.001-.145.005-.146.007-.145.011-.146.013-.146.016-.136.355-2.843.011-.075.015-.089.018-.089.02-.088.024-.087.025-.086.028-.085.031-.084.033-.083.036-.081.038-.081.04-.079.042-.078.045-.077.047-.075.049-.074.051-.073.054-.07.055-.07.058-.067.059-.066.062-.064.064-.063.065-.06.068-.059.069-.057.071-.055.073-.053.075-.051.076-.048.078-.047.079-.044.081-.041.082-.039.083-.037.083-.034.085-.031.085-.029.085-.026.087-.024.087-.021.087-.018.088-.016.087-.013.089-.01.088-.008.089-.005.088-.002h.089zm.594 5.93-.008.073-.006.063-.004.062-.003.061-.002.062-.001.061.001.062.002.06.003.061.005.061.006.06.007.06.008.059.009.06.011.059.012.058.013.059.014.058.015.058.017.057.017.057.019.056.02.057.021.055.022.055.023.055.025.054.025.054.027.053.027.053.029.052.03.052.03.051.032.05.033.049.034.049.034.049.036.047.037.047.037.046.039.046.039.044.041.044.041.043.042.042.043.041.044.041.045.04.046.038.046.038.048.037.048.036.049.035.05.034.051.033.051.033.053.031.053.03.054.029.055.029.055.027.057.026.057.025.014.006 1.836-2.753.007-.011-.012-.006-3.433-1.717z"/><path d="m14.978 7c-2.696 0-5.25 1.209-6.96 3.294-1.709 2.085-2.394 4.827-1.865 7.471.214 1.069.406 2.028.552 2.762.195.971.593 1.89 1.168 2.696.725 1.015 1.773 2.482 2.631 3.683.939 1.314 2.454 2.094 4.069 2.094h2.854c1.615 0 3.13-.78 4.069-2.094.858-1.201 1.906-2.668 2.631-3.683.575-.806.973-1.725 1.168-2.696.146-.734.338-1.693.552-2.762.529-2.644-.156-5.386-1.865-7.471-1.71-2.085-4.264-3.294-6.96-3.294-.68 0-1.364 0-2.044 0z" fill="#8b8b8b"/><g clip-path="url(#a)"><path d="m19.448 20.463c-.259-1.426-1.502-2.463-2.952-2.463-.328 0-.664 0-.992 0-1.45 0-2.693 1.037-2.952 2.463-.268 1.473-.612 3.369-.909 5-.159.876.078 1.776.648 2.459s1.414 1.078 2.304 1.078h2.81c.89 0 1.734-.395 2.304-1.078s.807-1.583.648-2.459c-.297-1.631-.641-3.527-.909-5z" fill="#aeaeae"/></g><path d="m19.158 25.526.032.012.031.014.03.016.029.018.028.02.026.022.025.024.023.025.021.027.019.028.017.029.016.031.013.031.011.033.008.033.007.033.004.034.002.034-.001.034-.002.034-.006.034-.007.033-.01.033-.012.032-.014.031-.016.03-.018.029-.02.028-.022.026-.024.025-.025.023-.027.021-.028.019-.029.017-.031.016-.031.013-.033.011-.033.008-.033.007-.034.004-.034.002-.034-.001-.034-.002-.034-.006-.033-.007-.033-.01-2.842-.947-2.842.947-.033.01-.033.007-.034.006-.034.002-.034.001-.034-.002-.034-.004-.033-.007-.033-.008-.033-.011-.031-.013-.031-.016-.029-.017-.028-.019-.027-.021-.025-.023-.024-.025-.022-.026-.02-.028-.018-.029-.016-.03-.014-.031-.012-.032-.01-.033-.007-.033-.006-.034-.002-.034-.001-.034.002-.034.004-.034.007-.033.008-.033.011-.033.013-.031.016-.031.017-.029.019-.028.021-.027.023-.025.025-.024.026-.022.028-.02.029-.018.03-.016.031-.014.032-.012 3.158-1.053z" fill="#424242"/><path d="m10.868 15c-1.032 0-1.868.836-1.868 1.868v.002c0 .624.506 1.13 1.13 1.13h1.87s0-1.127 0-2c0-.552-.448-1-1-1-.043 0-.087 0-.132 0z"/><path d="m15.5 20c-.398 0-.779.158-1.061.439-.281.282-.439.663-.439 1.061v1c0 .398.158.779.439 1.061.282.281.663.439 1.061.439h1c.398 0 .779-.158 1.061-.439.281-.282.439-.663.439-1.061 0-.327 0-.673 0-1 0-.398-.158-.779-.439-1.061-.282-.281-.663-.439-1.061-.439-.327 0-.673 0-1 0z" fill="#e78888"/><path d="m26.462 14.415c-.852.341-1.826.039-2.335-.725-.548-.821-1.262-1.893-1.87-2.805-.318-.477-.416-1.068-.269-1.623.147-.554.525-1.019 1.038-1.275 1.482-.741 3.446-1.723 4.71-2.355.29-.145.633-.14.919.013s.48.435.52.757c.099.788.227 1.812.352 2.818.279 2.227-.98 4.361-3.064 5.195-.001 0-.001 0-.001 0z" fill="#e8a2a2"/><g clip-path="url(#b)"><path d="m23 13s0 0 0-.001c0-1.9.844-3.702 2.304-4.919 1.692-1.41 3.696-3.08 3.696-3.08l3-3-9 3-3 7z" fill="#ca8181"/></g><path d="m5.538 14.415c.852.341 1.826.039 2.335-.725.548-.821 1.262-1.893 1.87-2.805.318-.477.416-1.068.269-1.623-.147-.554-.525-1.019-1.038-1.275-1.482-.741-3.446-1.723-4.71-2.355-.29-.145-.633-.14-.919.013s-.48.435-.52.757c-.099.788-.227 1.812-.352 2.818-.279 2.227.98 4.361 3.064 5.195z" fill="#e8a2a2"/><g clip-path="url(#c)"><path d="m9 13s0 0 0-.001c0-1.9-.844-3.702-2.304-4.919-1.692-1.41-3.696-3.08-3.696-3.08l-3-3 9 3 3 7z" fill="#ca8181"/></g><path d="m21.132 15c1.032 0 1.868.836 1.868 1.868v.002c0 .624-.506 1.13-1.13 1.13-.85 0-1.87 0-1.87 0s0-1.127 0-2c0-.552.448-1 1-1z"/></svg>