<svg clip-rule="evenodd" fill-rule="evenodd" stroke-linejoin="round" stroke-miterlimit="1.41421" viewBox="0 0 32 32" xmlns="http://www.w3.org/2000/svg" xmlns:xlink="http://www.w3.org/1999/xlink"><clipPath id="a"><path clip-rule="evenodd" d="m0 0v32h32v-32z"/></clipPath><metadata/><path d="m0 0v32h32v-32z" fill="none"/><g clip-path="url(#a)"><path d="m12.535 21.164c-.118 0-.219-.044-.302-.133-.083-.088-.124-.195-.124-.321v-.906c0-.956.177-1.781.533-2.473.355-.693.782-1.259 1.279-1.7.498-.44 1.149-.95 1.955-1.529.9-.604 1.557-1.133 1.972-1.586s.622-.994.622-1.624c0-.679-.249-1.214-.746-1.605-.498-.39-1.161-.585-1.991-.585-.9 0-1.616.22-2.15.661-.533.44-.799 1.013-.799 1.718v.416c0 .276-.142.415-.427.415l-5.046-.227c-.118 0-.219-.031-.302-.094s-.124-.145-.124-.246v-.264c0-1.586.379-2.989 1.137-4.21s1.818-2.172 3.18-2.851c1.363-.68 2.92-1.02 4.674-1.02 1.729 0 3.239.315 4.531.944 1.291.629 2.286 1.517 2.985 2.662.699 1.146 1.048 2.474 1.048 3.984 0 1.133-.189 2.096-.568 2.889-.38.793-.836 1.441-1.369 1.945-.533.503-1.214 1.045-2.043 1.624s-1.445 1.088-1.848 1.529c-.403.44-.604.975-.604 1.605v.528c0 .126-.042.233-.125.321-.082.089-.183.133-.302.133zm2.31 8.798c-.877 0-1.605-.308-2.186-.925-.58-.617-.87-1.403-.87-2.36 0-.982.284-1.775.853-2.379.568-.604 1.303-.906 2.203-.906s1.641.302 2.221.906c.581.604.871 1.397.871 2.379 0 .931-.29 1.712-.871 2.341-.58.63-1.321.944-2.221.944z" fill="none" stroke="#000" stroke-width="4"/><path d="m12.535 20.164c-.118 0-.219-.044-.302-.133-.083-.088-.124-.195-.124-.321v-.906c0-.956.177-1.781.533-2.473.355-.693.782-1.259 1.279-1.7.498-.44 1.149-.95 1.955-1.529.9-.604 1.557-1.133 1.972-1.586s.622-.994.622-1.624c0-.679-.249-1.214-.746-1.605-.498-.39-1.161-.585-1.991-.585-.9 0-1.616.22-2.15.661-.533.44-.799 1.013-.799 1.718v.416c0 .276-.142.415-.427.415l-5.046-.227c-.118 0-.219-.031-.302-.094s-.124-.145-.124-.246v-.264c0-1.586.379-2.989 1.137-4.21s1.818-2.172 3.18-2.851c1.363-.68 2.92-1.02 4.674-1.02 1.729 0 3.239.315 4.531.944 1.291.629 2.286 1.517 2.985 2.662.699 1.146 1.048 2.474 1.048 3.984 0 1.133-.189 2.096-.568 2.889-.38.793-.836 1.441-1.369 1.945-.533.503-1.214 1.045-2.043 1.624s-1.445 1.088-1.848 1.529c-.403.44-.604.975-.604 1.605v.528c0 .126-.042.233-.125.321-.082.089-.183.133-.302.133zm2.31 8.798c-.877 0-1.605-.308-2.186-.925-.58-.617-.87-1.403-.87-2.36 0-.982.284-1.775.853-2.379.568-.604 1.303-.906 2.203-.906s1.641.302 2.221.906c.581.604.871 1.397.871 2.379 0 .931-.29 1.712-.871 2.341-.58.63-1.321.944-2.221.944z" fill="none" stroke="#000" stroke-width="4"/><path d="m10 8h10v4h-10z"/><g fill-rule="nonzero"><path d="m12.535 21.164c-.118 0-.219-.044-.302-.133-.083-.088-.124-.195-.124-.321v-.906c0-.956.177-1.781.533-2.473.355-.693.782-1.259 1.279-1.7.498-.44 1.149-.95 1.955-1.529.9-.604 1.557-1.133 1.972-1.586s.622-.994.622-1.624c0-.679-.249-1.214-.746-1.605-.498-.39-1.161-.585-1.991-.585-.9 0-1.616.22-2.15.661-.533.44-.799 1.013-.799 1.718v.416c0 .276-.142.415-.427.415l-5.046-.227c-.118 0-.219-.031-.302-.094s-.124-.145-.124-.246v-.264c0-1.586.379-2.989 1.137-4.21s1.818-2.172 3.18-2.851c1.363-.68 2.92-1.02 4.674-1.02 1.729 0 3.239.315 4.531.944 1.291.629 2.286 1.517 2.985 2.662.699 1.146 1.048 2.474 1.048 3.984 0 1.133-.189 2.096-.568 2.889-.38.793-.836 1.441-1.369 1.945-.533.503-1.214 1.045-2.043 1.624s-1.445 1.088-1.848 1.529c-.403.44-.604.975-.604 1.605v.528c0 .126-.042.233-.125.321-.082.089-.183.133-.302.133zm2.31 8.798c-.877 0-1.605-.308-2.186-.925-.58-.617-.87-1.403-.87-2.36 0-.982.284-1.775.853-2.379.568-.604 1.303-.906 2.203-.906s1.641.302 2.221.906c.581.604.871 1.397.871 2.379 0 .931-.29 1.712-.871 2.341-.58.63-1.321.944-2.221.944z" fill="#841319"/><path d="m12.535 20.164c-.118 0-.219-.044-.302-.133-.083-.088-.124-.195-.124-.321v-.906c0-.956.177-1.781.533-2.473.355-.693.782-1.259 1.279-1.7.498-.44 1.149-.95 1.955-1.529.9-.604 1.557-1.133 1.972-1.586s.622-.994.622-1.624c0-.679-.249-1.214-.746-1.605-.498-.39-1.161-.585-1.991-.585-.9 0-1.616.22-2.15.661-.533.44-.799 1.013-.799 1.718v.416c0 .276-.142.415-.427.415l-5.046-.227c-.118 0-.219-.031-.302-.094s-.124-.145-.124-.246v-.264c0-1.586.379-2.989 1.137-4.21s1.818-2.172 3.18-2.851c1.363-.68 2.92-1.02 4.674-1.02 1.729 0 3.239.315 4.531.944 1.291.629 2.286 1.517 2.985 2.662.699 1.146 1.048 2.474 1.048 3.984 0 1.133-.189 2.096-.568 2.889-.38.793-.836 1.441-1.369 1.945-.533.503-1.214 1.045-2.043 1.624s-1.445 1.088-1.848 1.529c-.403.44-.604.975-.604 1.605v.528c0 .126-.042.233-.125.321-.082.089-.183.133-.302.133zm2.31 8.798c-.877 0-1.605-.308-2.186-.925-.58-.617-.87-1.403-.87-2.36 0-.982.284-1.775.853-2.379.568-.604 1.303-.906 2.203-.906s1.641.302 2.221.906c.581.604.871 1.397.871 2.379 0 .931-.29 1.712-.871 2.341-.58.63-1.321.944-2.221.944z" fill="#e82731"/></g></g></svg>