<svg clip-rule="evenodd" fill-rule="evenodd" stroke-linecap="round" stroke-linejoin="round" stroke-miterlimit="1.5" viewBox="0 0 32 32" xmlns="http://www.w3.org/2000/svg" xmlns:xlink="http://www.w3.org/1999/xlink"><clipPath id="a"><path clip-rule="evenodd" d="m12 5.5c0-.133.053-.26.146-.354.094-.093.221-.146.354-.146h7c.133 0 .26.053.354.146.093.094.146.221.146.354v1c0 .133-.053.26-.146.354-.094.093-.221.146-.354.146-.25 0-.5 0-.5 0v3s.43.537 1.008 1.259c1.937 2.422 2.992 5.43 2.992 8.531v5.089c0 1.358-.539 2.66-1.5 3.621-.961.961-2.263 1.5-3.621 1.5-1.161 0-2.597 0-3.758 0-1.358 0-2.66-.539-3.621-1.5-.961-.961-1.5-2.263-1.5-3.621 0-1.411 0-3.323 0-5.089 0-3.101 1.055-6.109 2.992-8.531.578-.722 1.008-1.259 1.008-1.259v-3s-.25 0-.5 0c-.133 0-.26-.053-.354-.146-.093-.094-.146-.221-.146-.354 0-.305 0-.695 0-1z"/></clipPath><metadata/><path d="m0 0h32v32h-32z" fill="none"/><path d="m12 5.5c0-.133.053-.26.146-.354.094-.093.221-.146.354-.146h7c.133 0 .26.053.354.146.093.094.146.221.146.354v1c0 .133-.053.26-.146.354-.094.093-.221.146-.354.146-.25 0-.5 0-.5 0v3s.43.537 1.008 1.259c1.937 2.422 2.992 5.43 2.992 8.531v5.089c0 1.358-.539 2.66-1.5 3.621-.961.961-2.263 1.5-3.621 1.5-1.161 0-2.597 0-3.758 0-1.358 0-2.66-.539-3.621-1.5-.961-.961-1.5-2.263-1.5-3.621 0-1.411 0-3.323 0-5.089 0-3.101 1.055-6.109 2.992-8.531.578-.722 1.008-1.259 1.008-1.259v-3s-.25 0-.5 0c-.133 0-.26-.053-.354-.146-.093-.094-.146-.221-.146-.354 0-.305 0-.695 0-1z" stroke="#000" stroke-width="4"/><path d="m14 2h4v5h-4z" fill="#63401e" stroke="#000" stroke-width="4"/><path d="m12 5.5c0-.133.053-.26.146-.354.094-.093.221-.146.354-.146h7c.133 0 .26.053.354.146.093.094.146.221.146.354v1c0 .133-.053.26-.146.354-.094.093-.221.146-.354.146-.25 0-.5 0-.5 0v3s.43.537 1.008 1.259c1.937 2.422 2.992 5.43 2.992 8.531v5.089c0 1.358-.539 2.66-1.5 3.621-.961.961-2.263 1.5-3.621 1.5-1.161 0-2.597 0-3.758 0-1.358 0-2.66-.539-3.621-1.5-.961-.961-1.5-2.263-1.5-3.621 0-1.411 0-3.323 0-5.089 0-3.101 1.055-6.109 2.992-8.531.578-.722 1.008-1.259 1.008-1.259v-3s-.25 0-.5 0c-.133 0-.26-.053-.354-.146-.093-.094-.146-.221-.146-.354 0-.305 0-.695 0-1z" fill="#d8d8d8"/><g clip-path="url(#a)"><path d="m6 13h21v18h-21z" fill="#e82731"/><path d="m6 12h21v3h-21z" fill="#e8636a"/><path d="m16 10s-1.303 3.04-2.191 5.113c-.534 1.245-.809 2.585-.809 3.94v5.462c0 1.591.632 3.117 1.757 4.242.148.148.243.243.243.243v2h-7v-24h8z" fill="#fff" fill-opacity=".494118"/></g><path d="m19.5 5 .025.001.024.001.025.003.024.005.024.005.023.007.024.007.022.009.023.01.021.011.022.012.02.013.02.014.02.015.019.016.018.017.017.018.016.019.015.02.014.02.013.02.012.022.011.021.01.023.009.022.007.024.007.023.005.024.005.024.003.025.001.024.001.025v1l-.001.025-.001.024-.003.025-.005.024-.005.024-.007.023-.007.024-.009.022-.01.023-.011.021-.012.022-.013.02-.014.02-.015.02-.016.019-.017.018-.018.017-.019.016-.02.015-.02.014-.02.013-.022.012-.021.011-.023.01-.022.009-.024.007-.023.007-.024.005-.024.005-.025.003-.024.001-.025.001h-.5v3l1.008 1.259.09.114.089.115.087.116.086.116.085.117.084.119.082.118.081.12.08.12.078.122.077.121.076.123.074.123.073.125.072.124.07.126.069.126.068.127.066.127.065.128.063.129.063.13.06.13.06.13.058.131.056.132.055.132.054.133.053.134.05.134.05.134.048.135.047.136.045.135.044.137.043.137.041.137.039.138.038.138.037.139.035.139.034.139.032.14.031.14.03.141.027.141.027.141.025.142.023.142.022.142.021.142.019.143.017.143.016.143.015.144.013.144.011.144.01.144.009.144.007.145.005.145.004.145.002.145.001.145v5.089.064l-.002.063-.002.064-.002.063-.004.063-.004.063-.005.063-.006.063-.007.063-.007.063-.008.062-.009.062-.01.062-.01.062-.011.062-.012.062-.013.061-.013.061-.015.061-.014.061-.016.061-.016.06-.017.06-.018.06-.019.06-.019.059-.02.06-.021.059-.021.058-.022.059-.023.058-.024.058-.024.057-.025.057-.026.057-.026.057-.027.056-.028.056-.028.056-.029.055-.03.055-.03.055-.032.054-.031.054-.033.053-.033.054-.034.052-.034.053-.035.052-.036.051-.037.052-.037.05-.037.051-.039.05-.039.049-.04.049-.04.049-.041.048-.041.047-.043.048-.042.046-.044.047-.044.045-.045.046-.046.045-.045.044-.047.044-.046.042-.048.043-.047.041-.048.041-.049.04-.049.04-.049.039-.05.039-.051.037-.05.037-.052.037-.051.036-.052.035-.053.034-.052.034-.053.033-.054.033-.054.031-.054.032-.055.03-.055.03-.055.029-.056.028-.056.028-.056.027-.057.026-.057.026-.057.025-.057.024-.058.024-.058.023-.059.022-.058.021-.059.021-.06.02-.059.019-.06.019-.06.018-.06.017-.06.016-.061.016-.061.014-.061.015-.061.013-.061.013-.062.012-.062.011-.062.01-.062.01-.062.009-.062.008-.063.007-.063.007-.063.006-.063.005-.063.004-.063.004-.063.002-.064.002-.063.002h-.064-3.758-.064l-.063-.002-.064-.002-.063-.002-.063-.004-.063-.004-.063-.005-.063-.006-.063-.007-.063-.007-.062-.008-.062-.009-.062-.01-.062-.01-.062-.011-.062-.012-.061-.013-.061-.013-.061-.015-.061-.014-.061-.016-.06-.016-.06-.017-.06-.018-.06-.019-.059-.019-.06-.02-.059-.021-.058-.021-.059-.022-.058-.023-.058-.024-.057-.024-.057-.025-.057-.026-.057-.026-.056-.027-.056-.028-.056-.028-.055-.029-.055-.03-.055-.03-.054-.032-.054-.031-.054-.033-.053-.033-.052-.034-.053-.034-.052-.035-.051-.036-.052-.037-.05-.037-.051-.037-.05-.039-.049-.039-.049-.04-.049-.04-.048-.041-.047-.041-.048-.043-.046-.042-.047-.044-.045-.044-.046-.045-.045-.046-.044-.045-.044-.047-.042-.046-.043-.048-.041-.047-.041-.048-.04-.049-.04-.049-.039-.049-.039-.05-.037-.051-.037-.05-.037-.052-.036-.051-.035-.052-.034-.053-.034-.052-.033-.054-.033-.053-.031-.054-.032-.054-.03-.055-.03-.055-.029-.055-.028-.056-.028-.056-.027-.056-.026-.057-.026-.057-.025-.057-.024-.057-.024-.058-.023-.058-.022-.059-.021-.058-.021-.059-.02-.06-.019-.059-.019-.06-.018-.06-.017-.06-.016-.06-.016-.061-.014-.061-.015-.061-.013-.061-.013-.061-.012-.062-.011-.062-.01-.062-.01-.062-.009-.062-.008-.062-.007-.063-.007-.063-.006-.063-.005-.063-.004-.063-.004-.063-.002-.063-.002-.064-.002-.063v-.064-5.089l.001-.145.002-.145.004-.145.005-.145.007-.145.009-.144.01-.144.011-.144.013-.144.015-.144.016-.143.017-.143.019-.143.021-.142.022-.142.023-.142.025-.142.027-.141.027-.141.03-.141.031-.14.032-.14.034-.139.035-.139.037-.139.038-.138.039-.138.041-.137.043-.137.044-.137.045-.135.047-.136.048-.135.05-.134.05-.134.053-.134.054-.133.055-.132.056-.132.058-.131.06-.13.06-.13.063-.13.063-.129.065-.128.066-.127.068-.127.069-.126.07-.126.072-.124.073-.125.074-.123.076-.123.077-.121.078-.122.08-.12.081-.12.082-.118.084-.119.085-.117.086-.116.087-.116.089-.115.09-.114 1.008-1.259v-3h-.5l-.025-.001-.024-.001-.025-.003-.024-.005-.024-.005-.023-.007-.024-.007-.022-.009-.023-.01-.021-.011-.022-.012-.02-.013-.02-.014-.02-.015-.019-.016-.018-.017-.017-.018-.016-.019-.015-.02-.014-.02-.013-.02-.012-.022-.011-.021-.01-.023-.009-.022-.007-.024-.007-.023-.005-.024-.005-.024-.003-.025-.001-.024-.001-.025v-1l.001-.025.001-.024.003-.025.005-.024.005-.024.007-.023.007-.024.009-.022.01-.023.011-.021.012-.022.013-.02.014-.02.015-.02.016-.019.017-.018.018-.017.019-.016.02-.015.02-.014.02-.013.022-.012.021-.011.023-.01.022-.009.024-.007.023-.007.024-.005.024-.005.025-.003.024-.001.025-.001h7zm-6.5 1s.098.005.098.005l.097.014.095.024.093.033.088.042.085.051.078.058.073.066.066.073.058.078.051.085.042.088.033.093.024.095.014.097.005.098v3l-.005.096-.014.096-.023.093-.031.091-.041.088-.049.083-.056.078-1.006 1.257-.085.108-.083.106-.081.107-.08.108-.078.109-.078.109-.076.11-.075.111-.074.112-.073.112-.071.113-.07.114-.069.114-.068.115-.066.116-.065.116-.064.117-.063.117-.061.119-.06.118-.059.12-.058.12-.056.12-.055.121-.054.122-.052.122-.051.122-.05.124-.049.123-.047.124-.046.125-.045.125-.043.126-.042.126-.041.126-.039.127-.038.127-.037.128-.035.128-.034.129-.033.128-.031.13-.03.129-.028.13-.028.13-.025.131-.025.131-.023.131-.022.132-.02.131-.019.132-.018.133-.016.132-.015.133-.013.133-.012.133-.011.134-.009.134-.008.133-.007.135-.005.134-.003.134-.002.135-.001.137v5.083.054l.001.052.002.051.002.051.003.05.003.051.004.051.005.05.006.051.005.05.007.051.007.05.008.05.008.049.009.05.01.05.01.049.011.049.011.05.012.048.013.049.013.049.014.048.014.048.015.048.016.048.016.048.016.047.018.048.017.047.019.046.019.047.019.046.02.046.021.046.021.046.022.045.022.045.023.045.023.044.024.045.025.044.025.043.025.044.027.043.026.042.027.043.028.042.028.042.029.041.03.042.029.04.031.041.031.04.031.04.032.039.032.039.033.039.034.038.034.038.034.038.035.037.036.037.036.037.037.036.037.036.037.035.038.034.038.034.038.034.039.033.039.032.039.032.04.031.04.031.041.031.04.029.042.03.041.029.042.028.042.028.043.027.042.026.043.026.044.026.043.025.044.025.045.024.044.023.045.023.045.022.045.022.046.021.046.021.046.02.046.019.047.019.046.019.047.017.048.018.047.016.048.016.048.016.048.015.048.014.048.014.049.013.049.013.048.012.05.011.049.011.049.01.05.01.05.009.049.008.05.008.05.007.051.007.05.005.051.006.05.005.051.004.051.003.05.003.051.002.051.002.052.001h.054 3.752.054l.052-.001.051-.002.051-.002.05-.003.051-.003.051-.004.05-.005.051-.006.05-.005.051-.007.05-.007.05-.008.049-.008.05-.009.05-.01.049-.01.049-.011.05-.011.048-.012.049-.013.049-.013.048-.014.048-.014.048-.015.048-.016.048-.016.047-.016.048-.018.047-.017.046-.019.047-.019.046-.019.046-.02.046-.021.046-.021.045-.022.045-.022.045-.023.044-.023.045-.024.044-.025.043-.025.044-.026.043-.026.042-.026.043-.027.042-.028.042-.028.041-.029.042-.03.04-.029.041-.031.04-.031.04-.031.039-.032.039-.032.039-.033.038-.034.038-.034.038-.034.037-.035.037-.036.037-.036.036-.037.036-.037.035-.037.034-.038.034-.038.034-.038.033-.039.032-.039.032-.039.031-.04.031-.04.031-.041.029-.04.03-.042.029-.041.028-.042.028-.042.027-.043.026-.042.027-.043.025-.044.025-.043.025-.044.024-.045.023-.044.023-.045.022-.045.022-.045.021-.046.021-.046.02-.046.019-.046.019-.047.019-.046.017-.047.018-.048.016-.047.016-.048.016-.048.015-.048.014-.048.014-.048.013-.049.013-.049.012-.048.011-.05.011-.049.01-.049.01-.05.009-.05.008-.049.008-.05.007-.05.007-.051.005-.05.006-.051.005-.05.004-.051.003-.051.003-.05.002-.051.002-.051.001-.052v-.054-5.083l-.001-.137-.002-.135-.003-.134-.005-.134-.007-.135-.008-.133-.009-.134-.011-.134-.012-.133-.013-.133-.015-.133-.016-.132-.018-.133-.019-.132-.02-.131-.022-.132-.023-.131-.025-.131-.025-.131-.028-.13-.028-.13-.03-.129-.031-.13-.033-.128-.034-.129-.035-.128-.037-.128-.038-.127-.039-.127-.041-.126-.042-.126-.043-.126-.045-.125-.046-.125-.047-.124-.049-.123-.05-.124-.051-.122-.052-.122-.054-.122-.055-.121-.056-.12-.058-.12-.059-.12-.06-.118-.061-.119-.063-.117-.064-.117-.065-.116-.066-.116-.068-.115-.069-.114-.07-.114-.071-.113-.073-.112-.074-.112-.075-.111-.076-.11-.078-.109-.078-.109-.08-.108-.081-.107-.083-.106-.085-.108-1.006-1.257-.056-.078-.049-.083-.041-.088-.031-.091-.023-.093-.014-.096-.005-.096v-3l.005-.098.014-.097.024-.095.033-.093.042-.088.051-.085.058-.078.066-.073.073-.066.078-.058.085-.051.088-.042.093-.033.095-.024.097-.014.098-.005h-6z" fill="#d8d8d8"/><path d="m14 2h4v4h-4z" fill="#63401e"/></svg>