<svg clip-rule="evenodd" fill-rule="evenodd" stroke-linecap="round" viewBox="0 0 32 32" xmlns="http://www.w3.org/2000/svg" xmlns:xlink="http://www.w3.org/1999/xlink"><clipPath id="a"><path clip-rule="evenodd" d="m0 0h32v32h-32z"/></clipPath><clipPath id="b"><path clip-rule="evenodd" d="m14.755 6c-5.012 0-9.25 3.71-9.912 8.678-.093.695-.183 1.375-.269 2.017-.358 2.685.667 5.369 2.723 7.131.699.6 1.409 1.208 2.018 1.73 1.087.932 2.472 1.444 3.905 1.444h5.56c1.433 0 2.818-.512 3.905-1.444.609-.522 1.319-1.13 2.018-1.73 2.056-1.762 3.081-4.446 2.723-7.131-.086-.642-.176-1.322-.269-2.017-.662-4.968-4.9-8.678-9.912-8.678-.826 0-1.664 0-2.49 0z"/></clipPath><clipPath id="c"><path clip-rule="evenodd" d="m23.949 10.897c-.247-.492-.279-1.065-.09-1.582.19-.517.584-.934 1.091-1.151 1.144-.49 2.566-1.099 3.609-1.547.272-.116.586-.068.811.123.225.192.321.494.25.781-.395 1.579-1.003 4.011-1.351 5.402-.174.695-.093 1.429.227 2.07.067.133.138.274.211.42.216.433.151.955-.167 1.321-.317.366-.824.505-1.284.351-.001 0-.002 0-.003-.001-.162-.054-.296-.17-.372-.322-.43-.86-1.928-3.856-2.932-5.865z"/></clipPath><clipPath id="d"><path clip-rule="evenodd" d="m8.051 10.897c.247-.492.279-1.065.09-1.582-.19-.517-.584-.934-1.091-1.151-1.144-.49-2.566-1.099-3.609-1.547-.272-.116-.586-.068-.811.123-.225.192-.321.494-.25.781.395 1.579 1.003 4.011 1.351 5.402.174.695.093 1.429-.227 2.07-.067.133-.138.274-.211.42-.216.433-.151.955.167 1.321.317.366.824.505 1.284.351.001 0 .002 0 .003-.001.162-.054.296-.17.372-.322.43-.86 1.928-3.856 2.932-5.865z"/></clipPath><metadata/><path d="m0 0h32v32h-32z" fill="none"/><g clip-path="url(#a)"><path d="m23.949 10.897c-.247-.492-.279-1.065-.09-1.582.19-.517.584-.934 1.091-1.151 1.144-.49 2.566-1.099 3.609-1.547.272-.116.586-.068.811.123.225.192.321.494.25.781-.395 1.579-1.003 4.011-1.351 5.402-.174.695-.093 1.429.227 2.07.067.133.138.274.211.42.216.433.151.955-.167 1.321-.317.366-.824.505-1.284.351-.001 0-.002 0-.003-.001-.162-.054-.296-.17-.372-.322-.43-.86-1.928-3.856-2.932-5.865z" fill="#c3c3c3" stroke="#000" stroke-width="4"/><path d="m8.051 10.897c.247-.492.279-1.065.09-1.582-.19-.517-.584-.934-1.091-1.151-1.144-.49-2.566-1.099-3.609-1.547-.272-.116-.586-.068-.811.123-.225.192-.321.494-.25.781.395 1.579 1.003 4.011 1.351 5.402.174.695.093 1.429-.227 2.07-.067.133-.138.274-.211.42-.216.433-.151.955.167 1.321.317.366.824.505 1.284.351.001 0 .002 0 .003-.001.162-.054.296-.17.372-.322.43-.86 1.928-3.856 2.932-5.865z" fill="#c3c3c3" stroke="#000" stroke-width="4"/><path d="m14.755 6c-5.012 0-9.25 3.71-9.912 8.678-.093.695-.183 1.375-.269 2.017-.358 2.685.667 5.369 2.723 7.131.699.6 1.409 1.208 2.018 1.73 1.087.932 2.472 1.444 3.905 1.444h5.56c1.433 0 2.818-.512 3.905-1.444.609-.522 1.319-1.13 2.018-1.73 2.056-1.762 3.081-4.446 2.723-7.131-.086-.642-.176-1.322-.269-2.017-.662-4.968-4.9-8.678-9.912-8.678-.826 0-1.664 0-2.49 0z"/><path d="m17.385 4.001.14.002.14.004.14.006.139.007.139.009.138.01.138.012.138.014.137.015.137.017.137.018.135.02.136.021.135.023.135.024.134.026.134.027.133.029.132.03.132.032.132.033.131.034.13.036.13.038.13.039.128.04.128.042.128.043.127.044.126.046.125.047.125.049.125.05.123.051.123.053.122.054.122.055.12.056.12.058.12.059.118.061.118.062.117.062.117.065.115.065.115.067.114.068.113.069.112.07.112.072.11.073.11.074.109.075.108.076.107.078.107.078.105.08.105.081.103.082.103.083.102.084.101.086.1.086.098.088.098.089.097.089.097.091.095.092.094.093.093.094.091.095.092.096.09.097.088.098.088.099.087.1.086.101.084.102.084.103.082.104.081.105.081.106.079.107.077.107.077.109.076.11.074.11.073.111.072.113.071.113.07.114.068.115.067.115.066.117.065.117.063.119.062.119.061.119.06.121.058.122.057.122.056.123.054.124.053.124.052.126.05.125.049.127.047.128.046.128.045.129.043.129.042.13.04.131.039.132.038.132.036.133.035.133.033.134.031.135.03.135.029.136.027.137.026.137.024.137.022.138.021.139.019.133.271 2.031.018.149.017.157.015.157.012.157.01.157.007.157.005.157.002.157v.156l-.003.156-.005.156-.007.156-.01.155-.012.155-.015.154-.017.155-.02.153-.021.154-.025.152-.026.153-.029.152-.031.151-.033.15-.036.15-.038.15-.041.148-.042.148-.045.147-.047.147-.05.146-.051.145-.054.144-.056.143-.058.143-.06.141-.063.141-.065.14-.067.138-.069.138-.071.137-.073.136-.076.134-.077.133-.08.133-.082.131-.084.13-.085.129-.088.127-.091.127-.092.125-.094.123-.096.123-.098.121-.1.119-.102.118-.104.117-.106.115-.108.114-.11.112-.112.111-.114.109-.116.107-.117.106-.114.099-2.032 1.741-.128.108-.14.112-.141.108-.144.105-.146.101-.147.098-.15.095-.152.091-.153.088-.156.085-.157.08-.158.078-.16.073-.162.071-.163.066-.165.063-.166.06-.167.055-.169.052-.169.048-.171.045-.172.041-.173.037-.173.033-.175.029-.175.026-.176.022-.177.017-.177.014-.178.01-.179.006-.167.002h-5.584l-.167-.002-.179-.006-.178-.01-.177-.014-.177-.017-.176-.022-.175-.026-.175-.029-.173-.033-.173-.037-.172-.041-.171-.045-.169-.048-.169-.052-.167-.055-.166-.06-.165-.063-.163-.066-.162-.071-.16-.073-.158-.078-.157-.08-.156-.085-.153-.088-.152-.091-.15-.095-.147-.098-.146-.101-.144-.105-.141-.108-.14-.112-.128-.108-2.032-1.741-.114-.099-.117-.106-.116-.107-.114-.109-.112-.111-.11-.112-.108-.114-.106-.115-.104-.117-.102-.118-.1-.119-.098-.121-.096-.123-.094-.123-.092-.125-.091-.127-.088-.127-.085-.129-.084-.13-.082-.131-.08-.133-.077-.133-.076-.134-.073-.136-.071-.137-.069-.138-.067-.138-.065-.14-.063-.141-.06-.141-.058-.143-.056-.143-.054-.144-.052-.145-.049-.146-.047-.146-.045-.148-.042-.148-.041-.148-.038-.15-.036-.15-.033-.15-.031-.151-.029-.152-.026-.153-.025-.152-.021-.154-.02-.153-.017-.155-.015-.154-.012-.155-.01-.155-.007-.156-.005-.156-.003-.156v-.156l.002-.157.005-.157.007-.157.01-.157.012-.157.015-.157.017-.157.018-.149.271-2.031.019-.133.021-.139.022-.138.024-.137.026-.137.027-.137.029-.136.03-.135.031-.135.033-.134.035-.133.036-.133.038-.132.039-.132.04-.131.042-.13.043-.129.045-.129.046-.128.047-.128.049-.127.05-.126.052-.125.053-.124.054-.124.056-.123.057-.122.058-.122.06-.121.061-.119.062-.119.063-.119.065-.117.066-.117.067-.115.068-.115.07-.114.071-.113.072-.112.073-.112.074-.11.076-.11.077-.109.077-.107.079-.107.081-.106.081-.105.082-.104.084-.103.084-.102.086-.101.087-.1.088-.099.088-.098.09-.097.091-.096.092-.095.093-.094.094-.093.095-.092.097-.091.097-.089.098-.089.098-.088.1-.086.101-.086.102-.084.103-.083.103-.082.105-.081.105-.08.107-.078.107-.078.108-.076.109-.075.11-.074.11-.073.112-.072.112-.07.113-.069.114-.068.115-.067.115-.065.117-.065.117-.062.118-.062.118-.061.12-.059.12-.058.12-.056.122-.055.122-.054.123-.053.123-.051.125-.05.125-.049.125-.047.126-.046.127-.044.128-.043.128-.042.128-.04.13-.039.13-.038.13-.036.131-.034.132-.033.132-.032.132-.03.133-.029.134-.027.134-.026.135-.024.135-.023.135-.021.136-.02.137-.018.137-.017.137-.015.138-.014.138-.012.138-.01.139-.009.139-.007.14-.006.14-.004.14-.002.134-.001h2.502l.134.001zm-2.624 3.999-.1.001-.094.001-.094.003-.093.004-.093.005-.093.005-.092.007-.092.008-.092.009-.092.011-.091.011-.091.012-.091.013-.09.014-.09.015-.089.016-.09.018-.089.018-.088.019-.088.02-.088.021-.088.022-.087.023-.087.024-.086.025-.086.026-.086.027-.085.027-.085.029-.084.03-.084.03-.083.031-.084.033-.082.033-.083.034-.081.035-.082.036-.081.037-.08.038-.08.038-.08.039-.079.041-.078.041-.078.042-.078.043-.077.043-.076.045-.076.045-.076.046-.075.047-.074.048-.074.048-.073.05-.073.05-.072.051-.072.052-.071.052-.07.053-.07.055-.069.054-.069.056-.068.056-.067.057-.067.058-.066.059-.065.059-.065.06-.064.06-.063.062-.063.062-.062.062-.062.064-.061.064-.06.065-.059.065-.059.066-.057.067-.058.067-.056.068-.056.069-.055.07-.054.07-.053.07-.053.071-.052.072-.051.073-.051.073-.049.073-.049.074-.048.075-.047.075-.046.076-.046.077-.044.077-.044.077-.043.079-.043.078-.041.079-.04.08-.04.08-.039.081-.038.081-.037.082-.036.083-.035.083-.034.083-.034.084-.032.084-.032.085-.03.085-.03.086-.029.086-.028.087-.027.087-.026.087-.025.088-.024.089-.023.089-.022.089-.021.09-.02.091-.019.09-.018.091-.017.092-.017.092-.015.092-.014.093-.013.099-.267 2.003-.013.103-.011.094-.008.095-.008.094-.006.094-.004.094-.003.094-.001.094v.094l.002.094.003.093.004.094.006.093.007.092.009.093.01.093.012.092.013.092.015.091.016.092.017.091.019.09.02.091.021.09.023.089.024.09.026.089.027.088.028.088.029.087.031.087.033.087.033.086.035.085.037.086.037.084.039.084.04.083.042.083.042.082.044.081.046.081.046.08.048.079.049.079.05.078.052.077.053.077.053.075.056.075.056.075.058.073.059.072.06.072.061.071.062.07.064.069.065.068.066.068.067.066.068.065.07.065.07.063.078.068 2.003 1.717.077.064.07.056.07.054.072.053.073.05.074.05.075.047.076.046.077.043.077.043.079.04.079.039.08.037.081.035.081.033.083.031.083.03.083.028.085.026.085.024.085.022.086.021.086.018.087.017.087.014.088.013.088.011.088.009.089.007.089.005.089.003.101.001h5.538l.101-.001.089-.003.089-.005.089-.007.088-.009.088-.011.088-.013.087-.014.087-.017.086-.018.086-.021.085-.022.085-.024.085-.026.083-.028.083-.03.082-.031.082-.033.081-.035.08-.037.079-.039.079-.04.078-.043.076-.043.076-.046.075-.047.074-.05.073-.05.072-.053.07-.054.07-.056.077-.064 2.003-1.717.078-.068.07-.063.07-.065.068-.065.067-.067.066-.067.065-.068.064-.069.062-.07.061-.071.06-.072.059-.072.058-.073.056-.075.056-.075.053-.075.053-.077.052-.077.05-.078.049-.079.048-.079.046-.08.046-.081.044-.081.042-.082.042-.083.04-.083.039-.084.037-.084.037-.086.035-.085.033-.086.033-.087.031-.087.029-.087.028-.088.027-.089.026-.088.024-.09.023-.089.021-.09.02-.091.019-.09.017-.091.016-.092.015-.091.013-.092.012-.092.01-.093.009-.093.007-.092.006-.093.004-.094.003-.093.002-.094v-.094l-.001-.094-.003-.094-.004-.094-.006-.094-.008-.094-.008-.095-.011-.094-.012-.102-.268-2.004-.013-.099-.014-.093-.015-.092-.017-.092-.017-.092-.018-.091-.019-.09-.02-.091-.021-.09-.022-.089-.023-.089-.024-.089-.025-.088-.026-.087-.027-.087-.028-.087-.029-.086-.03-.086-.03-.085-.032-.085-.032-.084-.034-.084-.034-.084-.035-.082-.036-.083-.037-.082-.038-.081-.039-.081-.04-.08-.04-.08-.041-.079-.043-.078-.043-.079-.043-.077-.045-.077-.046-.077-.046-.076-.047-.075-.048-.075-.049-.074-.049-.073-.051-.073-.051-.073-.052-.072-.053-.071-.053-.07-.054-.07-.055-.07-.056-.069-.056-.068-.058-.067-.057-.067-.059-.066-.059-.065-.06-.065-.061-.064-.062-.064-.062-.062-.063-.062-.063-.062-.064-.06-.065-.06-.065-.06-.066-.058-.067-.058-.067-.057-.068-.056-.069-.056-.069-.054-.07-.055-.07-.053-.071-.052-.072-.052-.072-.051-.073-.05-.073-.05-.074-.048-.074-.048-.075-.047-.076-.046-.076-.045-.076-.045-.077-.043-.078-.043-.078-.042-.078-.041-.079-.041-.08-.039-.08-.038-.08-.038-.081-.037-.082-.036-.081-.035-.083-.034-.082-.033-.084-.033-.083-.031-.084-.03-.084-.03-.085-.029-.085-.027-.086-.027-.086-.026-.086-.025-.087-.024-.087-.023-.088-.022-.088-.021-.088-.02-.088-.019-.089-.019-.09-.017-.089-.016-.09-.015-.09-.014-.091-.013-.091-.012-.091-.011-.092-.011-.092-.009-.092-.008-.092-.007-.093-.005-.093-.005-.093-.004-.094-.003-.094-.001-.1-.001h-2.478z"/><path d="m14.755 6c-5.012 0-9.25 3.71-9.912 8.678-.093.695-.183 1.375-.269 2.017-.358 2.685.667 5.369 2.723 7.131.699.6 1.409 1.208 2.018 1.73 1.087.932 2.472 1.444 3.905 1.444h5.56c1.433 0 2.818-.512 3.905-1.444.609-.522 1.319-1.13 2.018-1.73 2.056-1.762 3.081-4.446 2.723-7.131-.086-.642-.176-1.322-.269-2.017-.662-4.968-4.9-8.678-9.912-8.678-.826 0-1.664 0-2.49 0z" fill="#c0744b"/><g clip-path="url(#b)" fill="#e3e3e3"><path d="m6.588 17.412c.264-.264.621-.412.994-.412h.002c.782 0 1.416.634 1.416 1.416v.002c0 .373-.148.73-.412.994-.207.207-.466.466-.714.714-.536.536-.723 1.328-.483 2.047.582 1.746 1.609 4.827 1.609 4.827l-4-2s0-2.194 0-3.929c0-1.326.527-2.598 1.464-3.535z"/><path d="m25.412 17.412c-.264-.264-.621-.412-.994-.412-.001 0-.001 0-.002 0-.782 0-1.416.634-1.416 1.416v.002c0 .373.148.73.412.994l.714.714c.536.536.723 1.328.483 2.047-.582 1.746-1.609 4.827-1.609 4.827l4-2s0-2.194 0-3.929c0-1.326-.527-2.598-1.464-3.535-.043-.043-.085-.085-.124-.124z"/></g><path d="m14 16h4s2.621 2.621 4.067 4.067c.566.566.74 1.415.443 2.157-.227.569-.503 1.258-.756 1.89-.455 1.139-1.558 1.886-2.785 1.886-1.731 0-4.207 0-5.938 0-1.227 0-2.33-.747-2.785-1.886-.253-.632-.529-1.321-.756-1.89-.297-.742-.123-1.591.443-2.157 1.446-1.446 4.067-4.067 4.067-4.067z" fill="#e3e3e3"/><path d="m11 23s.573.286 1.106.553c.563.281 1.225.281 1.788 0 .332-.166.68-.34.895-.447.139-.07.292-.106.447-.106h1.528c.155 0 .308.036.447.106.215.107.563.281.895.447.563.281 1.225.281 1.788 0 .533-.267 1.106-.553 1.106-.553" fill="none" stroke="#573b2d" stroke-linejoin="round" stroke-miterlimit="1.5"/><path d="m20 16.206c0 .474.304.895.754 1.045.013.005.026.009.04.014.511.17 1.073.084 1.51-.231s.696-.821.696-1.359c0-.001 0-.001 0-.001 0-.403-.258-.76-.639-.887-.103-.034-.213-.071-.329-.11-.471-.157-.988-.078-1.391.213-.402.29-.641.756-.641 1.252z"/><path d="m12 16.206c0 .474-.304.895-.754 1.045-.013.005-.026.009-.04.014-.511.17-1.073.084-1.51-.231s-.696-.821-.696-1.359c0-.001 0-.001 0-.001 0-.403.258-.76.639-.887.103-.034.213-.071.329-.11.471-.157.988-.078 1.391.213.402.29.641.756.641 1.252z"/><path d="m15.562 22c-.616 0-1.198-.284-1.577-.769-.379-.486-.513-1.119-.364-1.716.068-.273.133-.532.19-.758.111-.445.511-.757.97-.757h2.438c.459 0 .859.312.97.757.057.226.122.485.19.758.149.597.015 1.23-.364 1.716-.379.485-.961.769-1.577.769-.29 0-.586 0-.876 0z"/><path d="m19.316 12.439c-.305-.102-.64-.051-.901.137-.26.188-.415.49-.415.811v.893c0 .398.322.72.72.72h.001c.179 0 .35-.071.476-.197.505-.505 1.803-1.803 1.803-1.803s-.878-.293-1.684-.561z" fill="#e3e3e3"/><path d="m12.684 12.439c.305-.102.64-.051.901.137.26.188.415.49.415.811v.893c0 .398-.322.72-.72.72h-.001c-.179 0-.35-.071-.476-.197-.505-.505-1.803-1.803-1.803-1.803s.878-.293 1.684-.561z" fill="#e3e3e3"/><path d="m23.949 10.897c-.247-.492-.279-1.065-.09-1.582.19-.517.584-.934 1.091-1.151 1.144-.49 2.566-1.099 3.609-1.547.272-.116.586-.068.811.123.225.192.321.494.25.781-.395 1.579-1.003 4.011-1.351 5.402-.174.695-.093 1.429.227 2.07.067.133.138.274.211.42.216.433.151.955-.167 1.321-.317.366-.824.505-1.284.351-.001 0-.002 0-.003-.001-.162-.054-.296-.17-.372-.322-.43-.86-1.928-3.856-2.932-5.865z" fill="#e6e6e6"/><g clip-path="url(#c)"><path d="m21 11s3.073-1.317 5.147-2.206c.349-.15.753-.088 1.042.158.29.246.414.635.322 1.004-.85 3.401-2.511 10.044-2.511 10.044z" fill="#a7a7a7"/></g><path d="m8.051 10.897c.247-.492.279-1.065.09-1.582-.19-.517-.584-.934-1.091-1.151-1.144-.49-2.566-1.099-3.609-1.547-.272-.116-.586-.068-.811.123-.225.192-.321.494-.25.781.395 1.579 1.003 4.011 1.351 5.402.174.695.093 1.429-.227 2.07-.067.133-.138.274-.211.42-.216.433-.151.955.167 1.321.317.366.824.505 1.284.351.001 0 .002 0 .003-.001.162-.054.296-.17.372-.322.43-.86 1.928-3.856 2.932-5.865z" fill="#e6e6e6"/><g clip-path="url(#d)"><path d="m11 11s-3.073-1.317-5.147-2.206c-.349-.15-.753-.088-1.042.158-.29.246-.414.635-.322 1.004.85 3.401 2.511 10.044 2.511 10.044z" fill="#a7a7a7"/></g></g></svg>