<svg clip-rule="evenodd" fill-rule="evenodd" stroke-linejoin="round" stroke-miterlimit="1.41421" viewBox="0 0 32 32" xmlns="http://www.w3.org/2000/svg"><metadata/><g fill="none"><path d="m0 0v32h32v-32z"/><path d="m14.058 20.589c-.121 0-.224-.045-.309-.135-.084-.09-.127-.2-.127-.328l-.617-16.663c0-.309.146-.463.436-.463h5.154c.291 0 .436.154.436.463l-.617 16.663c0 .128-.042.238-.127.328s-.188.135-.309.135zm1.706 9.372c-.92 0-1.676-.315-2.269-.945-.592-.63-.889-1.433-.889-2.41s.297-1.775.889-2.392c.593-.617 1.349-.925 2.269-.925s1.676.308 2.269.925.889 1.415.889 2.392c0 .951-.296 1.748-.889 2.391s-1.349.964-2.269.964z" stroke="#000" stroke-width="4"/><path d="m14.058 19.589c-.121 0-.224-.045-.309-.135-.084-.09-.127-.2-.127-.328l-.617-16.663c0-.309.146-.463.436-.463h5.154c.291 0 .436.154.436.463l-.617 16.663c0 .128-.042.238-.127.328s-.188.135-.309.135zm1.706 9.372c-.92 0-1.676-.315-2.269-.945-.592-.63-.889-1.433-.889-2.41s.297-1.775.889-2.392c.593-.617 1.349-.925 2.269-.925s1.676.308 2.269.925.889 1.415.889 2.392c0 .951-.296 1.748-.889 2.391s-1.349.964-2.269.964z" stroke="#000" stroke-width="4"/></g><path d="m14.058 20.589c-.121 0-.224-.045-.309-.135-.084-.09-.127-.2-.127-.328l-.617-16.663c0-.309.146-.463.436-.463h5.154c.291 0 .436.154.436.463l-.617 16.663c0 .128-.042.238-.127.328s-.188.135-.309.135zm1.706 9.372c-.92 0-1.676-.315-2.269-.945-.592-.63-.889-1.433-.889-2.41s.297-1.775.889-2.392c.593-.617 1.349-.925 2.269-.925s1.676.308 2.269.925.889 1.415.889 2.392c0 .951-.296 1.748-.889 2.391s-1.349.964-2.269.964z" fill="#841319" fill-rule="nonzero"/><path d="m14.058 19.589c-.121 0-.224-.045-.309-.135-.084-.09-.127-.2-.127-.328l-.617-16.663c0-.309.146-.463.436-.463h5.154c.291 0 .436.154.436.463l-.617 16.663c0 .128-.042.238-.127.328s-.188.135-.309.135zm1.706 9.372c-.92 0-1.676-.315-2.269-.945-.592-.63-.889-1.433-.889-2.41s.297-1.775.889-2.392c.593-.617 1.349-.925 2.269-.925s1.676.308 2.269.925.889 1.415.889 2.392c0 .951-.296 1.748-.889 2.391s-1.349.964-2.269.964z" fill="#e82731" fill-rule="nonzero"/></svg>