<svg clip-rule="evenodd" fill-rule="evenodd" stroke-linecap="round" stroke-linejoin="round" stroke-miterlimit="2" viewBox="0 0 32 32" xmlns="http://www.w3.org/2000/svg" xmlns:xlink="http://www.w3.org/1999/xlink"><clipPath id="a"><path clip-rule="evenodd" d="m0 0h32v32h-32z"/></clipPath><metadata/><path d="m0 0h32v32h-32z" fill="none"/><g clip-path="url(#a)"><path d="m15 5.5v-2c0-.133.053-.26.146-.354.094-.093.221-.146.354-.146h1c.133 0 .26.053.354.146.093.094.146.221.146.354v4.36c1.14-.279 2.588-.87 4-.86 1.351.01 2.767.032 4.548.841 1.384.628 3.36 2.811 3.624 6.544.161 2.274-.221 4.81-2.704 9.726-2.517 4.982-4.542 5.904-6.468 5.889-1.639-.013-4-1-4-1s-2.361.987-4 1c-1.926.015-3.951-.907-6.468-5.889-2.483-4.916-2.865-7.452-2.704-9.726.264-3.733 2.24-5.916 3.624-6.544.31-.141.609-.258.898-.355l-4.35-2.486s.447-.268 1.073-.644c2.446-1.467 5.472-1.584 8.023-.308zm0 2.36v-1.36l-1.733.866c.621.172 1.209.366 1.733.494z" fill="none" stroke="#000" stroke-width="4"/><path d="m17 3.5c0-.133-.053-.26-.146-.354-.094-.093-.221-.146-.354-.146-.305 0-.695 0-1 0-.133 0-.26.053-.354.146-.093.094-.146.221-.146.354v7.5h2z" fill="#675230"/><path d="m16 6s-1.936-.968-3.904-1.952c-2.551-1.276-5.577-1.159-8.023.308-.626.376-1.073.644-1.073.644s2.483 1.419 4.491 2.566c1.567.896 3.479.949 5.094.142 1.625-.813 3.415-1.708 3.415-1.708z" fill="#219555"/><path d="m16.03 8c1.2.011 3.116-1.013 4.97-1 1.351.01 2.767.032 4.548.841 1.384.628 3.36 2.811 3.624 6.544.161 2.274-.221 4.81-2.704 9.726-2.517 4.982-4.542 5.904-6.468 5.889-1.639-.013-4-1-4-1s-2.361.987-4 1c-1.926.015-3.951-.907-6.468-5.889-2.483-4.916-2.865-7.452-2.704-9.726.264-3.733 2.24-5.916 3.624-6.544 1.781-.809 3.197-.831 4.548-.841 1.854-.013 3.77 1.011 4.97 1h.013.017.017z" fill="#d72d35"/><path d="m12.056 12.775c.227-.908.023-1.869-.552-2.607-.576-.737-1.459-1.168-2.395-1.168-.001 0-.002 0-.003 0-1.291 0-2.471.729-3.048 1.884-.092.184-.188.375-.285.57-1.135 2.27-1.322 4.899-.519 7.307.482 1.446.998 2.995 1.343 4.031.258.773.813 1.413 1.542 1.777 0 .001.001.001.001.001.613.306 1.34.274 1.923-.086.582-.36.937-.996.937-1.681 0-1.225 0-2.59 0-3.688 0-1.405.172-2.804.513-4.166.166-.665.356-1.425.543-2.174z" fill="#fd626a"/></g></svg>