<svg clip-rule="evenodd" fill-rule="evenodd" stroke-linecap="round" stroke-miterlimit="1.5" viewBox="0 0 32 32" xmlns="http://www.w3.org/2000/svg" xmlns:xlink="http://www.w3.org/1999/xlink"><clipPath id="a"><path clip-rule="evenodd" d="m0 0h32v32h-32z"/></clipPath><metadata/><path d="m0 0h32v32h-32z" fill="none"/><g clip-path="url(#a)"><path d="m16.002 3c8.835 0 15.998 7.163 15.998 15.998v.008c0 3.446-1.369 6.751-3.806 9.188s-5.742 3.806-9.188 3.806c-1.976 0-4.036 0-6.012 0-3.446 0-6.751-1.369-9.188-3.806s-3.806-5.742-3.806-9.188c0-.002 0-.004 0-.006 0-8.837 7.163-16 16-16h.002z"/><path d="m30 18.998c0-7.731-6.267-13.998-13.998-13.998-.001 0-.001 0-.002 0-7.732 0-14 6.268-14 14v.006c0 2.916 1.158 5.712 3.22 7.774s4.858 3.22 7.774 3.22h6.012c2.916 0 5.712-1.158 7.774-3.22s3.22-4.858 3.22-7.774c0-.003 0-.005 0-.008z" fill="#fbc546"/><path d="m12.394 12.553c.119.237.139.512.055.763-.084.252-.265.46-.502.578-1.088.544-2.913 1.457-4.001 2.001-.493.247-1.093.047-1.34-.447 0 0 0 0 0-.001-.119-.237-.139-.512-.055-.763.084-.252.265-.46.502-.578 1.088-.544 2.913-1.457 4.001-2.001.493-.247 1.093-.047 1.34.447zm12.553 1.553c.237.118.418.326.502.578.084.251.064.526-.055.763-.118.237-.326.418-.578.502-.251.084-.526.064-.763-.055-1.088-.543-2.913-1.456-4-2-.237-.118-.418-.326-.502-.578-.084-.251-.064-.526.055-.763.118-.237.326-.418.578-.502.251-.084.526-.064.763.055 1.088.543 2.913 1.456 4 2z" fill-rule="nonzero"/><path d="m27 17c1.1 0 1.993.888 2 1.987v.013c0 1.105-.895 2-2 2-1.222 0-2.778 0-4 0-1.105 0-2-.895-2-2s.895-2 2-2zm-18 0c1.1 0 1.993.888 2 1.987v.013c0 1.105-.895 2-2 2-1.222 0-2.778 0-4 0-1.105 0-2-.895-2-2s.895-2 2-2z" fill="#ed6b44"/><path d="m10 20s.562.75 1.2 1.6c1.133 1.511 2.911 2.4 4.8 2.4s3.667-.889 4.8-2.4c.638-.85 1.2-1.6 1.2-1.6" fill="none" stroke="#593604" stroke-width="2"/></g></svg>