<svg clip-rule="evenodd" fill-rule="evenodd" stroke-linejoin="round" stroke-miterlimit="1.41421" viewBox="0 0 32 32" xmlns="http://www.w3.org/2000/svg" xmlns:xlink="http://www.w3.org/1999/xlink"><clipPath id="a"><path clip-rule="evenodd" d="m0 32v-32h32v32z"/></clipPath><metadata/><path d="m0 32v-32h32v32z" fill="none"/><g clip-path="url(#a)"><path d="m24 32c4.418 0 8-3.582 8-8 0-4.887 0-11.113 0-16 0-4.418-3.582-8-8-8-4.887 0-11.113 0-16 0-4.418 0-8 3.582-8 8v16c0 4.418 3.582 8 8 8z"/><path d="m24 30c1.591 0 3.117-.632 4.243-1.757 1.125-1.126 1.757-2.652 1.757-4.243 0-4.724 0-11.276 0-16 0-1.591-.632-3.117-1.757-4.243-1.126-1.125-2.652-1.757-4.243-1.757-4.724 0-11.276 0-16 0-1.591 0-3.117.632-4.243 1.757-1.125 1.126-1.757 2.652-1.757 4.243v16c0 1.591.632 3.117 1.757 4.243 1.126 1.125 2.652 1.757 4.243 1.757z" fill="#fff"/><path d="m11 16c2.76 0 5 2.24 5 5s-2.24 5-5 5-5-2.24-5-5 2.24-5 5-5zm1 2h-2l-1 2h1v4h2zm7.505 5h-1.796c.05-.167.094-.336.131-.507.176-.808.205-1.644.092-2.46.566-.007 1.132-.018 1.698-.035.359-.016.712-.082 1.05-.203.759-.272 1.409-.807 1.823-1.498.132-.22.239-.455.32-.698.113-.341.17-.696.177-1.055 0-.096.001-.193.002-.289.905-.894 1.81-1.788 2.703-2.694.187.602.283 1.226.295 1.856.002.415.006.83-.002 1.244-.021.693-.144 1.377-.379 2.031-.504 1.409-1.498 2.618-2.782 3.386-.408.244-.843.444-1.295.593-.658.218-1.345.325-2.037.329zm-.505-14s0-1.615 0-2.793c0-.202.122-.384.309-.462.186-.077.402-.034.545.109 1.226 1.226 3.435 3.435 4.292 4.292.196.196.196.512 0 .708-.857.857-3.066 3.066-4.292 4.292-.143.143-.359.186-.545.109-.187-.078-.309-.26-.309-.462 0-1.183 0-2.808 0-2.808-2.211-.021-4.421-.051-6.63.017-.087.004-.173.011-.259.02-.326.038-.646.118-.95.245-.692.286-1.28.794-1.664 1.436-.1.166-.185.341-.256.521-.494.128-.974.31-1.428.543-.673.345-1.288.799-1.817 1.339-.001-.255.001-.511.006-.767.021-.693.144-1.377.379-2.031.504-1.409 1.498-2.618 2.782-3.386.408-.244.843-.444 1.295-.593.658-.218 1.345-.325 2.037-.329z" fill="#333"/></g></svg>