<svg clip-rule="evenodd" fill-rule="evenodd" stroke-linejoin="round" stroke-miterlimit="1.41421" viewBox="0 0 32 32" xmlns="http://www.w3.org/2000/svg" xmlns:xlink="http://www.w3.org/1999/xlink"><clipPath id="a"><path clip-rule="evenodd" d="m0 32v-32h32v32z"/></clipPath><metadata/><path d="m0 32v-32h32v32z" fill="none"/><g clip-path="url(#a)"><path d="m24 32c4.418 0 8-3.582 8-8 0-4.887 0-11.113 0-16 0-4.418-3.582-8-8-8-4.887 0-11.113 0-16 0-4.418 0-8 3.582-8 8v16c0 4.418 3.582 8 8 8z"/><path d="m24 30c1.591 0 3.117-.632 4.243-1.757 1.125-1.126 1.757-2.652 1.757-4.243 0-4.724 0-11.276 0-16 0-1.591-.632-3.117-1.757-4.243-1.126-1.125-2.652-1.757-4.243-1.757-4.724 0-11.276 0-16 0-1.591 0-3.117.632-4.243 1.757-1.125 1.126-1.757 2.652-1.757 4.243v16c0 1.591.632 3.117 1.757 4.243 1.126 1.125 2.652 1.757 4.243 1.757z" fill="#fff"/><path d="m13 20.015c2.211.021 4.421.051 6.63-.017.359-.016.712-.082 1.05-.203.759-.272 1.409-.807 1.823-1.498.132-.22.239-.454.32-.698.113-.341.17-.696.177-1.055 0-.096.001-.192.002-.289.905-.894 1.81-1.788 2.703-2.694.187.602.283 1.226.295 1.856.002.415.006.83-.002 1.244-.021.693-.144 1.377-.378 2.031-.505 1.409-1.499 2.618-2.783 3.386-.408.244-.843.444-1.295.593-.658.218-1.345.325-2.037.329h-6.505v2.793c0 .202-.122.384-.309.462-.186.077-.402.034-.545-.109-1.226-1.226-3.435-3.435-4.292-4.292-.196-.196-.196-.512 0-.708.857-.857 3.066-3.066 4.292-4.292.143-.143.359-.186.545-.109.187.078.309.26.309.462zm6-11.015s0-1.615 0-2.793c0-.202.122-.384.309-.462.186-.077.402-.034.545.109 1.226 1.226 3.435 3.435 4.292 4.292.196.196.196.512 0 .708-.857.857-3.066 3.066-4.292 4.292-.143.143-.359.186-.545.109-.187-.078-.309-.26-.309-.462 0-1.183 0-2.808 0-2.808-2.211-.021-4.421-.051-6.63.017-.087.004-.173.011-.259.02-.326.038-.646.118-.95.245-.692.286-1.28.794-1.664 1.436-.132.22-.239.454-.32.698-.113.341-.17.696-.177 1.055 0 .096-.001.192-.002.288-.905.895-1.811 1.79-2.704 2.697-.179-.574-.273-1.173-.292-1.774-.008-.443-.008-.886 0-1.329.022-.693.144-1.376.379-2.03.504-1.409 1.498-2.618 2.782-3.386.408-.244.843-.444 1.295-.593.658-.218 1.345-.325 2.037-.329z" fill="#333"/></g></svg>