<svg clip-rule="evenodd" fill-rule="evenodd" stroke-linejoin="round" stroke-miterlimit="1.41421" viewBox="0 0 32 32" xmlns="http://www.w3.org/2000/svg" xmlns:xlink="http://www.w3.org/1999/xlink"><clipPath id="a"><path clip-rule="evenodd" d="m0 0h32v32h-32z"/></clipPath><metadata/><path d="m0 0h32v32h-32z" fill="none"/><g clip-path="url(#a)"><path d="m32 8c0-4.418-3.582-8-8-8-4.887 0-11.113 0-16 0-4.418 0-8 3.582-8 8v16c0 4.418 3.582 8 8 8h16c4.418 0 8-3.582 8-8 0-4.887 0-11.113 0-16z"/><path d="m30 8c0-1.591-.632-3.117-1.757-4.243-1.126-1.125-2.652-1.757-4.243-1.757-4.724 0-11.276 0-16 0-1.591 0-3.117.632-4.243 1.757-1.125 1.126-1.757 2.652-1.757 4.243v16c0 1.591.632 3.117 1.757 4.243 1.126 1.125 2.652 1.757 4.243 1.757h16c1.591 0 3.117-.632 4.243-1.757 1.125-1.126 1.757-2.652 1.757-4.243 0-4.724 0-11.276 0-16z" fill="#4bbf1e"/><path d="m22.974 19.311v-1.892h-6.556v1.892zm2.948-9.526c-.044.865-.103 1.54-.176 2.024s-.172.902-.297 1.254-.334.601-.627.748-.616.249-.968.308-.858.088-1.518.088c-1.232.029-2.141.044-2.728.044-.66 0-1.577-.015-2.75-.044-1.305-.015-2.127-.139-2.464-.374s-.506-.777-.506-1.628v-5.83h2.31v2.178c2.904-.499 5.793-1.188 8.668-2.068l.726 1.892c-3.065.924-6.197 1.643-9.394 2.156v.946c0 .381.055.609.165.682s.473.117 1.089.132c.44.015 1.115.022 2.024.022.851 0 1.525-.007 2.024-.022.396-.015.678-.022.847-.022s.352-.04.55-.121.326-.158.385-.231.125-.235.198-.484.117-.488.132-.715.037-.598.066-1.111zm-17.446 15.95c-.337 0-1.056-.037-2.156-.11l-.088-1.914c.821.059 1.474.088 1.958.088.191 0 .304-.051.341-.154s.055-.433.055-.99v-3.63c-1.217.293-2.002.477-2.354.55l-.154-2.09c.792-.147 1.628-.337 2.508-.572v-5.082h-2.486v-1.98h2.486v-3.696h2.31v3.696h2.244v1.98h-2.244v4.422c.528-.176 1.239-.425 2.134-.748l.33 1.958c-.601.249-1.423.543-2.464.88v4.202c0 1.452-.128 2.347-.385 2.684s-.935.506-2.035.506zm7.942-4.62v1.936h6.556v-1.936zm0 3.85v.88h-2.376v-10.406h11.286v10.406h-2.354v-.88z" fill="#fff" fill-rule="nonzero"/></g></svg>