<svg clip-rule="evenodd" fill-rule="evenodd" stroke-linejoin="round" stroke-miterlimit="1.41421" viewBox="0 0 32 32" xmlns="http://www.w3.org/2000/svg" xmlns:xlink="http://www.w3.org/1999/xlink"><clipPath id="a"><path clip-rule="evenodd" d="m0 0h32v32h-32z"/></clipPath><metadata/><path d="m0 0h32v32h-32z" fill="none"/><g clip-path="url(#a)"><path d="m32 8c0-4.418-3.582-8-8-8-4.887 0-11.113 0-16 0-4.418 0-8 3.582-8 8v16c0 4.418 3.582 8 8 8h16c4.418 0 8-3.582 8-8 0-4.887 0-11.113 0-16z"/><path d="m24 30c1.591 0 3.117-.632 4.243-1.757 1.125-1.126 1.757-2.652 1.757-4.243 0-4.724 0-11.276 0-16 0-1.591-.632-3.117-1.757-4.243-1.126-1.125-2.652-1.757-4.243-1.757-4.724 0-11.276 0-16 0-1.591 0-3.117.632-4.243 1.757-1.125 1.126-1.757 2.652-1.757 4.243v16c0 1.591.632 3.117 1.757 4.243 1.126 1.125 2.652 1.757 4.243 1.757z" fill="#fff"/><path d="m16 14.727s4.893-3.113 7.463-4.749c.308-.196.698-.209 1.018-.033s.519.512.519.877v10.356c0 .365-.199.701-.519.877s-.71.163-1.018-.033c-2.57-1.636-7.463-4.749-7.463-4.749v3.905c0 .365-.199.701-.519.877s-.71.163-1.018-.033c-2.168-1.38-6.09-3.875-8.137-5.178-.289-.184-.463-.502-.463-.844s.174-.66.463-.844c2.047-1.303 5.969-3.798 8.137-5.178.308-.196.698-.209 1.018-.033s.519.512.519.877z" fill="#333"/></g></svg>