<svg clip-rule="evenodd" fill-rule="evenodd" stroke-linecap="round" stroke-linejoin="round" stroke-miterlimit="1.5" viewBox="0 0 32 32" xmlns="http://www.w3.org/2000/svg" xmlns:xlink="http://www.w3.org/1999/xlink"><clipPath id="a"><path clip-rule="evenodd" d="m2 10h28v5h-28z"/></clipPath><clipPath id="b"><path clip-rule="evenodd" d="m30 13-2.407 2h-23.039l-2.554-2v18h28z"/></clipPath><metadata/><path d="m0 0h32v32h-32z" fill="none"/><path d="m5.385 12.692c1.437-5.039 5.649-8.692 10.615-8.692s9.178 3.653 10.615 8.692c1.502.652 2.385 1.449 2.385 2.308 0 4.63-2.84 8.647-7 10.648v1.352c0 1.104-2.689 2-6 2s-6-.896-6-2v-1.352c-4.16-2.001-7-6.018-7-10.648 0-.859.883-1.656 2.385-2.308z" fill="none" stroke="#000" stroke-width="4"/><path d="m22 27c0 1.104-2.689 2-6 2s-6-.896-6-2v-2h12z" fill="#353535"/><path d="m29 15c0 6.627-5.82 12-13 12-.776 0-1.535-.063-2.274-.183l-2.029-1.441c-1.104-1.545-1.697-3.397-1.697-5.295l1-5.081h5zm-23 0 1 3.067c0 1.95.36 3.924.079 5.662-2.512-2.188-4.079-5.29-4.079-8.729z" fill="#4f4f4f"/><path d="m11 15v5.081c0 1.898.593 3.75 1.697 5.295l1.029 1.441c-2.549-.415-4.842-1.516-6.647-3.088-.709-1.793-1.079-3.712-1.079-5.662v-3.067z" fill="#808080"/><ellipse cx="16" cy="15" fill="#464646" rx="12.452" ry="3.447"/><path d="m2 10h28v5h-28z" fill="none"/><g clip-path="url(#a)"><path d="m16.335 11.001.334.004.331.007.328.009.327.011.324.014.321.017.319.018.315.022.313.023.31.026.307.028.304.03.3.033.297.035.293.037.29.039.286.041.282.043.278.045.275.047.27.049.266.052.261.053.257.054.253.057.248.059.243.06.239.062.233.064.115.032.113.033.113.033.111.034.109.034.109.035.107.035.105.035.104.036.103.036.102.036.1.037.099.037.097.038.096.038.094.038.093.039.091.039.09.039.089.04.086.04.086.041.084.04.082.042.081.041.079.042.077.042.076.042.074.043.073.043.071.043.069.043.068.044.066.044.064.045.063.045.061.045.059.045.057.045.056.046.053.046.052.047.051.046.048.047.047.047.044.047.043.048.041.048.04.048.037.048.035.049.034.048.031.049.03.049.027.05.026.049.024.05.021.05.02.05.018.05.015.051.014.05.012.051.009.051.007.051.006.052.003.051.001.052-.001.052-.003.051-.006.052-.007.051-.009.051-.012.051-.014.05-.015.051-.018.05-.02.05-.021.05-.024.05-.026.049-.027.05-.03.049-.031.049-.034.048-.035.049-.037.048-.04.048-.041.048-.043.048-.044.047-.047.047-.048.047-.051.046-.052.047-.053.046-.056.046-.057.045-.059.045-.061.045-.063.045-.064.045-.066.044-.068.044-.069.043-.071.043-.073.043-.074.043-.076.042-.077.042-.079.042-.081.041-.082.042-.084.04-.086.041-.086.04-.089.04-.09.039-.091.039-.093.039-.094.038-.096.038-.097.038-.099.037-.1.037-.102.036-.103.036-.104.036-.105.035-.107.035-.109.035-.109.034-.111.034-.113.033-.113.033-.115.032-.233.064-.239.062-.243.06-.248.059-.253.057-.257.054-.261.053-.266.052-.27.049-.275.047-.278.045-.282.043-.286.041-.29.039-.293.037-.297.035-.3.033-.304.03-.307.028-.31.026-.313.023-.315.022-.319.018-.321.017-.324.014-.327.011-.328.009-.331.007-.334.004-.335.001-.335-.001-.334-.004-.331-.007-.328-.009-.327-.011-.324-.014-.321-.017-.319-.018-.315-.022-.313-.023-.31-.026-.307-.028-.304-.03-.3-.033-.297-.035-.293-.037-.29-.039-.286-.041-.282-.043-.278-.045-.275-.047-.27-.049-.266-.052-.261-.053-.257-.054-.253-.057-.248-.059-.243-.06-.239-.062-.233-.064-.115-.032-.113-.033-.113-.033-.111-.034-.109-.034-.109-.035-.107-.035-.105-.035-.104-.036-.103-.036-.102-.036-.1-.037-.099-.037-.097-.038-.096-.038-.094-.038-.093-.039-.091-.039-.09-.039-.089-.04-.086-.04-.086-.041-.084-.04-.082-.042-.081-.041-.079-.042-.077-.042-.076-.042-.074-.043-.073-.043-.071-.043-.069-.043-.068-.044-.066-.044-.064-.045-.063-.045-.061-.045-.059-.045-.057-.045-.056-.046-.053-.046-.052-.047-.051-.046-.048-.047-.047-.047-.044-.047-.043-.048-.041-.048-.04-.048-.037-.048-.035-.049-.034-.048-.031-.049-.03-.049-.027-.05-.026-.049-.024-.05-.021-.05-.02-.05-.018-.05-.015-.051-.014-.05-.012-.051-.009-.051-.007-.051-.006-.052-.003-.051-.001-.052.001-.052.003-.051.006-.052.007-.051.009-.051.012-.051.014-.05.015-.051.018-.05.02-.05.021-.05.024-.05.026-.049.027-.05.03-.049.031-.049.034-.048.035-.049.037-.048.04-.048.041-.048.043-.048.044-.047.047-.047.048-.047.051-.046.052-.047.053-.046.056-.046.057-.045.059-.045.061-.045.063-.045.064-.045.066-.044.068-.044.069-.043.071-.043.073-.043.074-.043.076-.042.077-.042.079-.042.081-.041.082-.042.084-.04.086-.041.086-.04.089-.04.09-.039.091-.039.093-.039.094-.038.096-.038.097-.038.099-.037.1-.037.102-.036.103-.036.104-.036.105-.035.107-.035.109-.035.109-.034.111-.034.113-.033.113-.033.115-.032.233-.064.239-.062.243-.06.248-.059.253-.057.257-.054.261-.053.266-.052.27-.049.275-.047.278-.045.282-.043.286-.041.29-.039.293-.037.297-.035.3-.033.304-.03.307-.028.31-.026.313-.023.315-.022.319-.018.321-.017.324-.014.327-.011.328-.009.331-.007.334-.004.335-.001zm-.663 1-.325.004-.323.006-.321.009-.319.011-.316.014-.313.016-.311.018-.307.021-.305.023-.302.025-.299.027-.295.03-.292.032-.288.033-.285.036-.281.038-.277.04-.273.042-.269.043-.265.046-.261.047-.256.05-.252.051-.247.052-.242.055-.237.056-.232.057-.227.059-.223.061-.107.03-.108.032-.106.031-.104.032-.104.032-.101.032-.101.033-.099.033-.097.034-.096.033-.094.034-.093.034-.091.035-.089.034-.088.035-.087.035-.084.035-.083.036-.082.036-.079.035-.078.036-.076.036-.075.036-.072.037-.071.036-.069.036-.067.037-.065.036-.064.037-.061.036-.06.036-.057.036-.056.036-.053.036-.052.036-.05.035-.047.036-.046.035-.043.034-.041.034-.04.034-.037.033-.035.032-.033.032-.031.032-.029.03-.027.03-.024.029-.023.028-.021.027-.019.025-.017.025-.015.024-.014.023-.012.021-.01.02-.01.019-.007.018-.007.017-.005.015-.005.014-.003.014-.003.012-.002.012-.002.011-.001.011-.001.011v.01.01l.001.011.001.011.002.011.002.012.003.012.003.014.005.014.005.015.007.017.007.018.01.019.01.02.012.021.014.023.015.024.017.024.019.026.021.027.023.028.024.029.027.03.029.03.031.032.033.032.035.032.037.033.04.034.041.034.043.034.046.035.047.036.05.035.052.036.053.036.056.036.057.036.06.036.061.036.064.037.065.036.067.037.069.036.071.036.072.037.075.036.076.036.078.036.079.035.082.036.083.036.084.035.087.035.088.035.089.034.091.035.093.034.094.034.096.033.098.034.098.033.101.033.101.032.104.032.104.032.106.031.108.032.107.03.223.061.227.059.232.057.237.056.242.055.247.052.252.051.256.05.261.047.265.046.269.043.273.042.277.04.281.038.285.036.288.033.292.032.295.03.299.027.302.025.305.023.307.021.311.018.313.016.316.014.319.011.321.009.323.006.325.004.328.001.327-.001.326-.004.323-.006.321-.009.319-.011.316-.014.313-.016.311-.018.307-.021.305-.023.302-.025.299-.027.295-.03.292-.032.288-.033.285-.036.281-.038.277-.04.273-.042.269-.043.265-.046.261-.047.256-.05.252-.051.247-.052.242-.055.237-.056.232-.057.227-.059.223-.061.107-.03.108-.032.106-.031.104-.032.104-.032.101-.032.101-.033.098-.033.098-.034.096-.033.094-.034.093-.034.091-.035.089-.034.088-.035.087-.035.084-.035.083-.036.082-.036.079-.035.078-.036.076-.036.075-.036.072-.037.071-.036.069-.036.067-.037.065-.036.064-.037.061-.036.06-.036.057-.036.056-.036.053-.036.052-.036.05-.035.047-.036.046-.034.043-.035.041-.034.04-.034.037-.033.035-.032.033-.032.031-.032.029-.03.027-.03.024-.029.023-.028.021-.027.019-.026.017-.024.015-.024.014-.023.012-.021.01-.02.01-.019.007-.018.007-.017.005-.015.005-.014.003-.014.003-.012.002-.012.002-.011.001-.011.001-.01v-.011-.011l-.001-.01-.001-.011-.002-.011-.002-.012-.003-.012-.003-.014-.005-.014-.005-.015-.007-.017-.007-.018-.01-.019-.01-.02-.012-.021-.014-.023-.015-.024-.017-.024-.019-.026-.021-.027-.023-.028-.024-.029-.027-.03-.029-.03-.031-.032-.033-.032-.035-.032-.037-.033-.04-.034-.041-.034-.043-.035-.046-.034-.047-.036-.05-.035-.052-.036-.053-.036-.056-.036-.057-.036-.06-.036-.061-.036-.064-.037-.065-.036-.067-.037-.069-.036-.071-.036-.072-.037-.075-.036-.076-.036-.078-.036-.079-.035-.082-.036-.083-.036-.084-.035-.087-.035-.088-.035-.089-.034-.091-.035-.093-.034-.094-.034-.096-.033-.097-.034-.099-.033-.101-.033-.101-.032-.104-.032-.104-.032-.106-.031-.108-.032-.107-.03-.223-.061-.227-.059-.232-.057-.237-.056-.242-.055-.247-.052-.252-.051-.256-.05-.261-.047-.265-.046-.269-.043-.273-.042-.277-.04-.281-.038-.285-.036-.288-.033-.292-.032-.295-.03-.299-.027-.302-.025-.305-.023-.307-.021-.311-.018-.313-.016-.316-.014-.319-.011-.321-.009-.323-.006-.325-.004-.328-.001z" fill="#808080"/></g><path d="m4.857 16.536v-.036c0-6.899 4.993-12.5 11.143-12.5.191 0 .381.005.57.016l2.396.432c2.554.791 4.742 2.577 6.21 4.962 0 0 .061.426.301.931 0 0 .652.945.652.945.651 1.587 1.014 3.353 1.014 5.214v.036c-2.276 1.162-6.417 1.94-11.143 1.94s-8.867-.778-11.143-1.94z" fill="#fff"/><path d="m17.113 18.461c-.197-.376-.136-.852.18-1.168.586-.586 1.415-1.415 2.001-2.001.39-.39 1.022-.39 1.412 0 .001 0 .001.001.001.001.391.39.391 1.024 0 1.414l-1.658 1.658c-.629.047-1.276.079-1.936.096zm-9.147-.841 1.328-1.328c.39-.39 1.022-.39 1.412 0l.002.002c.39.39.39 1.022 0 1.412l-.371.371c-.845-.126-1.64-.28-2.371-.457zm16.741-3.327c.391.39.391 1.024 0 1.414 0 0 0 .001-.001.001-.39.39-1.022.39-1.412 0-.586-.586-1.416-1.416-2.002-2.002-.39-.39-.39-1.022 0-1.412.001-.001.001-.001.002-.002.39-.39 1.022-.39 1.412 0 .586.586 1.415 1.415 2.001 2.001zm-10 0c.391.39.391 1.024 0 1.414 0 0 0 .001-.001.001-.39.39-1.022.39-1.412 0-.586-.586-1.416-1.416-2.002-2.002-.39-.39-.39-1.022 0-1.412 0-.001.001-.001.001-.001.39-.391 1.024-.391 1.414 0zm-4.999-4.999c.39.39.39 1.022 0 1.412-.586.586-1.416 1.416-2.002 2.002-.39.39-1.022.39-1.412 0-.001-.001-.001-.001-.002-.002-.39-.39-.39-1.022 0-1.412.586-.586 1.416-1.416 2.002-2.002.39-.39 1.022-.39 1.412 0zm10.999-1.001c.391.39.391 1.024 0 1.414-.586.586-1.415 1.415-2.001 2.001-.39.39-1.022.39-1.412 0-.001 0-.001-.001-.001-.001-.391-.39-.391-1.024 0-1.414.586-.586 1.415-1.415 2.001-2.001.39-.39 1.022-.39 1.412 0 .001 0 .001.001.001.001zm4.469 1.117c.363.59.683 1.218.953 1.876l-.423.422c-.39.39-1.022.39-1.412 0-.001 0-.001-.001-.001-.001-.391-.39-.391-1.024 0-1.414zm-10.469-1.117c.391.39.391 1.024 0 1.414 0 0 0 .001-.001.001-.39.39-1.022.39-1.412 0-.586-.586-1.415-1.415-2.001-2.001-.391-.39-.391-1.024 0-1.414 0 0 0-.001.001-.001.39-.39 1.022-.39 1.412 0 .586.586 1.415 1.415 2.001 2.001zm1.863-4.277c.825.047 1.627.195 2.396.432l-1.26 1.26c-.39.39-1.022.39-1.412 0-.001-.001-.001-.001-.002-.002-.39-.39-.39-1.022 0-1.412z" fill="#e1e1e1"/><path d="m30 13-2.407 2h-23.039l-2.554-2v18h28z" fill="none"/><g clip-path="url(#b)"><path d="m16.335 11.001.334.004.331.007.328.009.327.011.324.014.321.017.319.018.315.022.313.023.31.026.307.028.304.03.3.033.297.035.293.037.29.039.286.041.282.043.278.045.275.047.27.049.266.052.261.053.257.054.253.057.248.059.243.06.239.062.233.064.115.032.113.033.113.033.111.034.109.034.109.035.107.035.105.035.104.036.103.036.102.036.1.037.099.037.097.038.096.038.094.038.093.039.091.039.09.039.089.04.086.04.086.041.084.04.082.042.081.041.079.042.077.042.076.042.074.043.073.043.071.043.069.043.068.044.066.044.064.045.063.045.061.045.059.045.057.045.056.046.053.046.052.047.051.046.048.047.047.047.044.047.043.048.041.048.04.048.037.048.035.049.034.048.031.049.03.049.027.05.026.049.024.05.021.05.02.05.018.05.015.051.014.05.012.051.009.051.007.051.006.052.003.051.001.052-.001.052-.003.051-.006.052-.007.051-.009.051-.012.051-.014.05-.015.051-.018.05-.02.05-.021.05-.024.05-.026.049-.027.05-.03.049-.031.049-.034.048-.035.049-.037.048-.04.048-.041.048-.043.048-.044.047-.047.047-.048.047-.051.046-.052.047-.053.046-.056.046-.057.045-.059.045-.061.045-.063.045-.064.045-.066.044-.068.044-.069.043-.071.043-.073.043-.074.043-.076.042-.077.042-.079.042-.081.041-.082.042-.084.04-.086.041-.086.04-.089.04-.09.039-.091.039-.093.039-.094.038-.096.038-.097.038-.099.037-.1.037-.102.036-.103.036-.104.036-.105.035-.107.035-.109.035-.109.034-.111.034-.113.033-.113.033-.115.032-.233.064-.239.062-.243.06-.248.059-.253.057-.257.054-.261.053-.266.052-.27.049-.275.047-.278.045-.282.043-.286.041-.29.039-.293.037-.297.035-.3.033-.304.03-.307.028-.31.026-.313.023-.315.022-.319.018-.321.017-.324.014-.327.011-.328.009-.331.007-.334.004-.335.001-.335-.001-.334-.004-.331-.007-.328-.009-.327-.011-.324-.014-.321-.017-.319-.018-.315-.022-.313-.023-.31-.026-.307-.028-.304-.03-.3-.033-.297-.035-.293-.037-.29-.039-.286-.041-.282-.043-.278-.045-.275-.047-.27-.049-.266-.052-.261-.053-.257-.054-.253-.057-.248-.059-.243-.06-.239-.062-.233-.064-.115-.032-.113-.033-.113-.033-.111-.034-.109-.034-.109-.035-.107-.035-.105-.035-.104-.036-.103-.036-.102-.036-.1-.037-.099-.037-.097-.038-.096-.038-.094-.038-.093-.039-.091-.039-.09-.039-.089-.04-.086-.04-.086-.041-.084-.04-.082-.042-.081-.041-.079-.042-.077-.042-.076-.042-.074-.043-.073-.043-.071-.043-.069-.043-.068-.044-.066-.044-.064-.045-.063-.045-.061-.045-.059-.045-.057-.045-.056-.046-.053-.046-.052-.047-.051-.046-.048-.047-.047-.047-.044-.047-.043-.048-.041-.048-.04-.048-.037-.048-.035-.049-.034-.048-.031-.049-.03-.049-.027-.05-.026-.049-.024-.05-.021-.05-.02-.05-.018-.05-.015-.051-.014-.05-.012-.051-.009-.051-.007-.051-.006-.052-.003-.051-.001-.052.001-.052.003-.051.006-.052.007-.051.009-.051.012-.051.014-.05.015-.051.018-.05.02-.05.021-.05.024-.05.026-.049.027-.05.03-.049.031-.049.034-.048.035-.049.037-.048.04-.048.041-.048.043-.048.044-.047.047-.047.048-.047.051-.046.052-.047.053-.046.056-.046.057-.045.059-.045.061-.045.063-.045.064-.045.066-.044.068-.044.069-.043.071-.043.073-.043.074-.043.076-.042.077-.042.079-.042.081-.041.082-.042.084-.04.086-.041.086-.04.089-.04.09-.039.091-.039.093-.039.094-.038.096-.038.097-.038.099-.037.1-.037.102-.036.103-.036.104-.036.105-.035.107-.035.109-.035.109-.034.111-.034.113-.033.113-.033.115-.032.233-.064.239-.062.243-.06.248-.059.253-.057.257-.054.261-.053.266-.052.27-.049.275-.047.278-.045.282-.043.286-.041.29-.039.293-.037.297-.035.3-.033.304-.03.307-.028.31-.026.313-.023.315-.022.319-.018.321-.017.324-.014.327-.011.328-.009.331-.007.334-.004.335-.001zm-.663 1-.325.004-.323.006-.321.009-.319.011-.316.014-.313.016-.311.018-.307.021-.305.023-.302.025-.299.027-.295.03-.292.032-.288.033-.285.036-.281.038-.277.04-.273.042-.269.043-.265.046-.261.047-.256.05-.252.051-.247.052-.242.055-.237.056-.232.057-.227.059-.223.061-.107.03-.108.032-.106.031-.104.032-.104.032-.101.032-.101.033-.099.033-.097.034-.096.033-.094.034-.093.034-.091.035-.089.034-.088.035-.087.035-.084.035-.083.036-.082.036-.079.035-.078.036-.076.036-.075.036-.072.037-.071.036-.069.036-.067.037-.065.036-.064.037-.061.036-.06.036-.057.036-.056.036-.053.036-.052.036-.05.035-.047.036-.046.035-.043.034-.041.034-.04.034-.037.033-.035.032-.033.032-.031.032-.029.03-.027.03-.024.029-.023.028-.021.027-.019.025-.017.025-.015.024-.014.023-.012.021-.01.02-.01.019-.007.018-.007.017-.005.015-.005.014-.003.014-.003.012-.002.012-.002.011-.001.011-.001.011v.01.01l.001.011.001.011.002.011.002.012.003.012.003.014.005.014.005.015.007.017.007.018.01.019.01.02.012.021.014.023.015.024.017.024.019.026.021.027.023.028.024.029.027.03.029.03.031.032.033.032.035.032.037.033.04.034.041.034.043.034.046.035.047.036.05.035.052.036.053.036.056.036.057.036.06.036.061.036.064.037.065.036.067.037.069.036.071.036.072.037.075.036.076.036.078.036.079.035.082.036.083.036.084.035.087.035.088.035.089.034.091.035.093.034.094.034.096.033.098.034.098.033.101.033.101.032.104.032.104.032.106.031.108.032.107.03.223.061.227.059.232.057.237.056.242.055.247.052.252.051.256.05.261.047.265.046.269.043.273.042.277.04.281.038.285.036.288.033.292.032.295.03.299.027.302.025.305.023.307.021.311.018.313.016.316.014.319.011.321.009.323.006.325.004.328.001.327-.001.326-.004.323-.006.321-.009.319-.011.316-.014.313-.016.311-.018.307-.021.305-.023.302-.025.299-.027.295-.03.292-.032.288-.033.285-.036.281-.038.277-.04.273-.042.269-.043.265-.046.261-.047.256-.05.252-.051.247-.052.242-.055.237-.056.232-.057.227-.059.223-.061.107-.03.108-.032.106-.031.104-.032.104-.032.101-.032.101-.033.098-.033.098-.034.096-.033.094-.034.093-.034.091-.035.089-.034.088-.035.087-.035.084-.035.083-.036.082-.036.079-.035.078-.036.076-.036.075-.036.072-.037.071-.036.069-.036.067-.037.065-.036.064-.037.061-.036.06-.036.057-.036.056-.036.053-.036.052-.036.05-.035.047-.036.046-.034.043-.035.041-.034.04-.034.037-.033.035-.032.033-.032.031-.032.029-.03.027-.03.024-.029.023-.028.021-.027.019-.026.017-.024.015-.024.014-.023.012-.021.01-.02.01-.019.007-.018.007-.017.005-.015.005-.014.003-.014.003-.012.002-.012.002-.011.001-.011.001-.01v-.011-.011l-.001-.01-.001-.011-.002-.011-.002-.012-.003-.012-.003-.014-.005-.014-.005-.015-.007-.017-.007-.018-.01-.019-.01-.02-.012-.021-.014-.023-.015-.024-.017-.024-.019-.026-.021-.027-.023-.028-.024-.029-.027-.03-.029-.03-.031-.032-.033-.032-.035-.032-.037-.033-.04-.034-.041-.034-.043-.035-.046-.034-.047-.036-.05-.035-.052-.036-.053-.036-.056-.036-.057-.036-.06-.036-.061-.036-.064-.037-.065-.036-.067-.037-.069-.036-.071-.036-.072-.037-.075-.036-.076-.036-.078-.036-.079-.035-.082-.036-.083-.036-.084-.035-.087-.035-.088-.035-.089-.034-.091-.035-.093-.034-.094-.034-.096-.033-.097-.034-.099-.033-.101-.033-.101-.032-.104-.032-.104-.032-.106-.031-.108-.032-.107-.03-.223-.061-.227-.059-.232-.057-.237-.056-.242-.055-.247-.052-.252-.051-.256-.05-.261-.047-.265-.046-.269-.043-.273-.042-.277-.04-.281-.038-.285-.036-.288-.033-.292-.032-.295-.03-.299-.027-.302-.025-.305-.023-.307-.021-.311-.018-.313-.016-.316-.014-.319-.011-.321-.009-.323-.006-.325-.004-.328-.001z" fill="#808080"/></g></svg>