<svg clip-rule="evenodd" fill-rule="evenodd" stroke-linecap="square" stroke-linejoin="round" stroke-miterlimit="3" viewBox="0 0 32 32" xmlns="http://www.w3.org/2000/svg" xmlns:xlink="http://www.w3.org/1999/xlink"><clipPath id="a"><path clip-rule="evenodd" d="m0 0h32v32h-32z"/></clipPath><metadata/><path d="m0 0h32v32h-32z" fill="none"/><g clip-path="url(#a)"><path d="m9 18-2-2s6.017-5.265 7.614-6.663c.256-.223.547-.401.862-.527 1.121-.449 3.877-1.551 4.427-1.771.065-.026.126-.058.184-.097.662-.442 4.927-3.285 5.769-3.846.095-.063.201-.11.312-.138.759-.19 3.832-.958 3.832-.958s-.768 3.073-.958 3.832c-.028.111-.075.217-.138.312-.547.82-3.261 4.892-3.808 5.712-.063.095-.11.201-.138.312-.131.526-.54 2.161-.779 3.117-.118.47-.347.904-.668 1.266-1.739 1.955-7.511 8.449-7.511 8.449l-2-2v.969c0 3.331-2.7 6.031-6.031 6.031-1.132 0-1.969 0-1.969 0l2-3-4 1 1-4-3 2s0-.837 0-1.969c0-3.331 2.7-6.031 6.031-6.031z" fill="none" stroke="#000" stroke-width="4"/><path d="m14 18s-2.979 0-5.969 0c-3.331 0-6.031 2.7-6.031 6.031v1.969l3-2-1 4 4-1-2 3h1.969c3.331 0 6.031-2.7 6.031-6.031 0-2.99 0-5.969 0-5.969z" fill="#f05400"/><path d="m13 19s-1.416 0-3.056 0c-2.875 0-5.35 2.029-5.914 4.848-.019.098-.03.152-.03.152l3-2-1 4 4-1-2 3s.054-.011.152-.03c2.819-.564 4.848-3.039 4.848-5.914 0-1.64 0-3.056 0-3.056z" fill="#f08c00"/><path d="m8 24s.352-1.408.638-2.554c.223-.89.918-1.585 1.808-1.808 1.146-.286 2.554-.638 2.554-.638s-.352 1.408-.638 2.554c-.223.89-.918 1.585-1.808 1.808-1.146.286-2.554.638-2.554.638z" fill="#ffbf36"/><path d="m10.2 13.2 1.014-.2 7.344 7.44.266 1.384-2.824 3.176-9-9zm6.229-4.771.865.009 6.491 6.522.149.974c-.115.222-.257.429-.423.617l-2.335 2.625-1.282-.228-6.894-6.948-.133-1.133 1.747-1.53c.256-.223.547-.401.862-.527zm9.937 1.522-1.132 1.698-.699-.097-4.172-4.115-.012-.671 1.698-1.132.866.2 3.206 3.202z" fill="#414141"/><path d="m15.381 13.381 5.795 5.795-2.352 2.648-2.824-2.824-2.5 2.5-3-3 2.5-2.5-.238-.238-.039-.762 1.807-1.646zm7.412-4.174 2.441 2.442-.138.207c-.063.095-.11.201-.138.312-.131.526-.54 2.161-.779 3.117-.057.226-.139.444-.245.649l-2.434-2.434-2.5 2.5-3-3 1.708-1.708 1.052-.867 2.692-1.139zm7.207-7.207-.958 3.832c-.028.111-.075.217-.138.312l-2.538 3.807-2.159-2.158-.016-.97 4.509-4.299z" fill="#e6e6e6"/><path d="m15.381 13.381-2.619 2.381-2.562-2.562 2.667-2.333zm7.412-4.174-.205.205c-.385.385-.867.658-1.394.79-.72.18-1.766.441-2.462.615-.369.092-.717.254-1.024.475l.792-.792-2.071-2.071 3.474-1.39c.065-.026.126-.058.184-.097l.264-.176zm7.207-7.207-5.793 5.793-2.158-2.159 3.807-2.538c.095-.063.201-.11.312-.138.759-.19 3.832-.958 3.832-.958z" fill="#fff"/><path d="m26.5 4.5c-.276-.276-.724-.276-1 0-.276.276-.276.724 0 1l1 1c.276.276.724.276 1 0 .276-.276.276-.724 0-1-.305-.305-.695-.695-1-1z" fill="#414141"/></g></svg>