<svg clip-rule="evenodd" fill-rule="evenodd" stroke-linejoin="round" stroke-miterlimit="2" viewBox="0 0 32 32" xmlns="http://www.w3.org/2000/svg" xmlns:xlink="http://www.w3.org/1999/xlink"><clipPath id="a"><path clip-rule="evenodd" d="m0 0h32v32h-32z"/></clipPath><metadata/><path d="m0 0h32v32h-32z" fill="none"/><g clip-path="url(#a)"><path d="m7.741 29.608c-1.093-.613-2.12-1.384-3.049-2.313-6.248-6.248-6.248-16.379 0-22.627 6.248-6.249 16.379-6.249 22.627 0 .929.929 1.7 1.956 2.313 3.049 1.318.831 2.214 2.258 2.323 3.897.001.015.002.029.003.044.063.938-.138 1.836-.542 2.618.077 3.679-1.289 7.383-4.097 10.191-.937.937-1.891 1.891-2.828 2.828-2.808 2.808-6.511 4.174-10.191 4.097-.782.404-1.68.605-2.618.542-.014-.001-.029-.002-.044-.003-1.639-.109-3.066-1.005-3.897-2.323z"/><path d="m9.77 28.388c-1.33-.583-2.575-1.419-3.664-2.507-5.467-5.467-5.467-14.332 0-19.799 5.468-5.467 14.332-5.467 19.799 0 1.089 1.088 1.924 2.334 2.507 3.664-.124-.032.617 5.67.994 5.404-.139 2.874-1.306 5.708-3.501 7.903-.937.937-1.891 1.891-2.828 2.828-2.195 2.195-5.029 3.362-7.903 3.501.266-.377-5.436-1.118-5.404-.994z" fill="#fbc546"/><path d="m9.77 28.388c-.032-.124-.056-.251-.071-.381-.314-2.615-.764-6.369-.764-6.369s3.27 1.963 5.363 3.218c1.035.621 1.597 1.802 1.426 2.997-.011.074-.021.149-.032.224-.069.485-.252.928-.518 1.305-1.837.088-3.691-.243-5.404-.994zm19.636-13.238c-.377.266-.82.449-1.305.518-.075.011-.15.021-.224.032-1.195.171-2.376-.391-2.997-1.426-1.255-2.093-3.217-5.363-3.217-5.363s3.753.45 6.368.764c.13.015.257.039.381.071.751 1.713 1.083 3.567.994 5.404z" fill="#e59a10"/><path d="m9.791 18.042h-4.038c-.552 0-1-.448-1-1s.448-1 1-1h7.275l-2.61 5.219c-.247.493-.848.694-1.341.447-.494-.247-.694-.848-.448-1.342zm8.275-8.275 2.324-1.162c.494-.246 1.095-.046 1.342.448.247.493.046 1.094-.447 1.341l-5.219 2.609v-7.274c0-.552.448-1 1-1s1 .448 1 1z"/><path d="m16.615 25.381c-2.23.462-4.538.258-6.383-.798l14.375-14.375c1.057 1.845 1.26 4.153.798 6.383-1.703-.124-8.914 7.087-8.79 8.79z" fill="#722245"/><path d="m16.615 25.381c-.124-1.703.482-3.42 1.742-4.679.77-.771 1.598-1.599 2.369-2.37 1.259-1.259 2.976-1.865 4.679-1.741-.447 2.153-1.514 4.234-3.035 5.755-1.521 1.52-3.602 2.588-5.755 3.035z" fill="#ca3b8f"/><g fill="#1bb0e6"><path d="m20.955 8.203s3.754.451 6.369.765c1.432.172 2.54 1.339 2.636 2.779.001.015.002.03.003.044.104 1.566-1.016 2.948-2.569 3.17-.075.011-.15.021-.224.032-1.195.17-2.376-.392-2.997-1.427-1.255-2.092-3.218-5.363-3.218-5.363z"/><path d="m8.228 20.931s.45 3.754.764 6.369c.172 1.432 1.339 2.54 2.779 2.636.015.001.03.002.045.003 1.565.104 2.947-1.016 3.169-2.569.011-.075.021-.15.032-.224.171-1.195-.391-2.376-1.426-2.997-2.093-1.255-5.363-3.218-5.363-3.218z"/></g></g></svg>