<svg clip-rule="evenodd" fill-rule="evenodd" stroke-linejoin="round" stroke-miterlimit="2" viewBox="0 0 32 32" xmlns="http://www.w3.org/2000/svg" xmlns:xlink="http://www.w3.org/1999/xlink"><clipPath id="a"><path clip-rule="evenodd" d="m0 0h32v32h-32z"/></clipPath><metadata/><path d="m0 0h32v32h-32z" fill="none"/><g clip-path="url(#a)"><path d="m16 0c4.243 0 8.313 1.686 11.314 4.686 3 3.001 4.686 7.071 4.686 11.314v2c0 7.732-6.268 14-14 14-1.325 0-2.675 0-4 0-7.732 0-14-6.268-14-14v-2c0-8.837 7.163-16 16-16z"/><path d="m30 16c0-3.713-1.475-7.274-4.101-9.899-2.625-2.626-6.186-4.101-9.899-4.101-7.732 0-14 6.268-14 14v2c0 6.627 5.373 12 12 12h4c6.627 0 12-5.373 12-12z" fill="#fbc546"/><path d="m24.952 11.001c.647.635 1.048 1.519 1.048 2.497v1.002c0 .928-.369 1.818-1.025 2.475-.656.656-1.547 1.025-2.475 1.025h-.022c-.92-.006-1.802-.374-2.453-1.025-.656-.657-1.025-1.547-1.025-2.475 0-.332 0-.668 0-1 0-.928.369-1.818 1.025-2.475.008-.007.015-.015.023-.022-.032.157 4.936.156 4.904-.002z" fill="#fff"/><path d="m20.048 11.003c.654-.643 1.534-1.003 2.452-1.003h.002c.954 0 1.819.382 2.45 1.001.032.158.048.322.048.489v.003c0 1.376-1.115 2.49-2.49 2.49-.007 0-.013 0-.02 0-1.375 0-2.49-1.114-2.49-2.49 0-.001 0-.002 0-.003 0-.167.016-.33.048-.487z"/><path d="m11.952 11.001c.647.635 1.048 1.519 1.048 2.497v1.002c0 .928-.369 1.818-1.025 2.475-.656.656-1.547 1.025-2.475 1.025h-.022c-.92-.006-1.802-.374-2.453-1.025-.656-.657-1.025-1.547-1.025-2.475 0-.332 0-.668 0-1 0-.928.369-1.818 1.025-2.475.008-.007.015-.015.023-.022-.032.157 4.936.156 4.904-.002z" fill="#fff"/><path d="m7.048 11.003c.654-.643 1.534-1.003 2.452-1.003h.002c.954 0 1.819.382 2.45 1.001.032.158.048.322.048.489v.003c0 1.376-1.115 2.49-2.49 2.49-.007 0-.013 0-.02 0-1.375 0-2.49-1.114-2.49-2.49 0-.001 0-.002 0-.003 0-.167.016-.33.048-.487z"/><path d="m21 22c0-.552-.448-1-1-1-1.916 0-6.084 0-8 0-.552 0-1 .448-1 1s.448 1 1 1h8c.552 0 1-.448 1-1z" fill="#593604"/></g></svg>