<svg clip-rule="evenodd" fill-rule="evenodd" stroke-linecap="round" stroke-miterlimit="3" viewBox="0 0 32 32" xmlns="http://www.w3.org/2000/svg" xmlns:xlink="http://www.w3.org/1999/xlink"><clipPath id="a"><path clip-rule="evenodd" d="m0 0h32v32h-32z"/></clipPath><clipPath id="b"><path clip-rule="evenodd" d="m29 30s-1.107-6.644-2.157-12.94c-.483-2.9-2.122-5.48-4.541-7.15-2.42-1.67-5.414-2.288-8.296-1.711-.183.036-.361.072-.536.107-2.189.438-4.054 1.862-5.053 3.859-.721 1.443-1.417 2.835-1.417 2.835s4.863 2.432 5.833 2.916c.111.056.219.119.322.188.284.189.912.607 1.505 1.003.766.51 1.031 1.51.62 2.333-.27.539-.586 1.171-.895 1.79-.911 1.822-1.385 3.83-1.385 5.867v.903z"/></clipPath><metadata/><path d="m0 0h32v32h-32z" fill="none"/><g clip-path="url(#a)"><g fill="none" stroke="#000" stroke-width="4"><path d="m29 30s-1.107-6.644-2.157-12.94c-.483-2.9-2.122-5.48-4.541-7.15-2.42-1.67-5.414-2.288-8.296-1.711-.183.036-.361.072-.536.107-2.189.438-4.054 1.862-5.053 3.859-.721 1.443-1.417 2.835-1.417 2.835l6 3s.861.574 1.66 1.107c.766.51 1.031 1.51.62 2.333-.27.539-.586 1.171-.895 1.79-.911 1.822-1.385 3.83-1.385 5.867v.903z"/><path d="m8 12 3 5s-.991-.495-1.578-.789c-.277-.139-.584-.211-.894-.211-1.416 0-5.528 0-5.528 0s.887-.887 1.48-1.48c.346-.346.725-.657 1.132-.928.878-.585 2.388-1.592 2.388-1.592z"/><path d="m8 13s0-.931 0-1.895c0-1.363.464-2.685 1.315-3.748 1.166-1.458 2.685-3.357 2.685-3.357v2s.041-.081.106-.211c.58-1.161 1.522-2.103 2.683-2.683.13-.065.211-.106.211-.106v2c.64-1.281 1.763-2.254 3.121-2.707.494-.165.879-.293.879-.293v4s.041-.081.106-.211c.548-1.096 1.668-1.789 2.894-1.789v2s.128-.128.293-.293c.453-.453 1.067-.707 1.707-.707v1c0 .649-.211 1.281-.6 1.8-.875 1.167-2.4 3.2-2.4 3.2h-11v2z" stroke-linejoin="round"/><path d="m10 17v1.169c0 .544-.148 1.077-.428 1.544-.38.633-.952 1.587-1.461 2.435-.286.478-.361 1.053-.205 1.588s.527.981 1.026 1.23c.137.069.276.138.411.206.935.467 2.072.136 2.61-.76.878-1.464 2.047-3.412 2.047-3.412h3v-4z" stroke-linejoin="round"/></g><path d="m8 13s0-.931 0-1.895c0-1.363.464-2.685 1.315-3.748 1.166-1.458 2.685-3.357 2.685-3.357v2s.041-.081.106-.211c.58-1.161 1.522-2.103 2.683-2.683.13-.065.211-.106.211-.106v2c.64-1.281 1.763-2.254 3.121-2.707.494-.165.879-.293.879-.293v4s.041-.081.106-.211c.548-1.096 1.668-1.789 2.894-1.789v2s.128-.128.293-.293c.453-.453 1.067-.707 1.707-.707v1c0 .649-.211 1.281-.6 1.8-.875 1.167-2.4 3.2-2.4 3.2h-11v2z" fill="#d4211e"/><path d="m29 30s-1.107-6.644-2.157-12.94c-.483-2.9-2.122-5.48-4.541-7.15-2.42-1.67-5.414-2.288-8.296-1.711-.183.036-.361.072-.536.107-2.189.438-4.054 1.862-5.053 3.859-.721 1.443-1.417 2.835-1.417 2.835s4.863 2.432 5.833 2.916c.111.056.219.119.322.188.284.189.912.607 1.505 1.003.766.51 1.031 1.51.62 2.333-.27.539-.586 1.171-.895 1.79-.911 1.822-1.385 3.83-1.385 5.867v.903z" fill="#8a4714"/><g clip-path="url(#b)"><path d="m11 28 4-4v4l6-6v4l5-5v4l4-4v11h-25v-4h2l4-4z" fill="#ca6315"/><path d="m5 9h6v1c0 1.105.895 2 2 2h2.637c.627 0 1.228.249 1.671.692s.692 1.044.692 1.671v.079c0 .367-.085.729-.249 1.057-.352.702-.993 1.986-1.395 2.788-.233.467-.584.865-1.019 1.155-.883.589-2.337 1.558-2.337 1.558l-8-4z" fill="#d4211e"/></g><circle cx="14" cy="14" fill="#de742e" r="2"/><circle cx="14" cy="14" r="1"/><path d="m10 16v2.169c0 .544-.148 1.077-.428 1.544-.38.633-.952 1.587-1.461 2.435-.286.478-.361 1.053-.205 1.588s.527.981 1.026 1.23c.137.069.276.138.411.206.935.467 2.072.136 2.61-.76.878-1.464 2.047-3.412 2.047-3.412s1.084-1.084 1.656-1.656c.228-.228.418-.491.562-.779.294-.589.782-1.565.782-1.565z" fill="#d4211e"/><path d="m3 16s.848-.848 1.44-1.44c.372-.372.781-.707 1.219-.999.883-.589 2.341-1.561 2.341-1.561l3 5s-.991-.495-1.578-.789c-.277-.139-.584-.211-.894-.211-1.416 0-5.528 0-5.528 0z" fill="#c8a031"/></g></svg>