<svg clip-rule="evenodd" fill-rule="evenodd" stroke-linecap="round" stroke-linejoin="round" stroke-miterlimit="1.5" viewBox="0 0 32 32" xmlns="http://www.w3.org/2000/svg" xmlns:xlink="http://www.w3.org/1999/xlink"><clipPath id="a"><path clip-rule="evenodd" d="m0 0h32v32h-32z"/></clipPath><metadata/><path d="m0 0h32v32h-32z" fill="none"/><g clip-path="url(#a)"><path d="m13.214 4.334c.566-.937 1.507-1.63 2.642-1.857.265-.053.526-.105.772-.155 1.056-.211 2.15-.143 3.172.198.651.217 1.327.442 1.632.544.112.037.226.068.341.091.432.086 1.603.32 2.747.549.707.141 1.328.561 1.724 1.163.395.603.533 1.34.381 2.045l-.523 2.425 2.098-1.217s-1.286 3.396-1.854 4.899c-.176.463-.266.955-.266 1.451v1.555c0 .917-.171 1.818-.495 2.657 1.471-.743 2.415-1.682 2.415-1.682s-.113 1.792-.469 2.616c-1.213 2.815-3.962 3.75-5.478 4.057-1.206 1.181-2.703 2.051-4.366 2.506l-.567.155v3.666h-2.24v-3.727l-.769-.253c-1.596-.523-3.035-1.424-4.199-2.617-1.519-.486-3.472-1.535-4.443-3.787-.356-.824-.469-2.616-.469-2.616s1.352 1.344 3.342 2.09c.022.008.044.017.067.025-.126-.421-.206-.861-.236-1.315h-1.133s-.683-4.314-.92-5.814c-.053-.337-.121-.672-.204-1.003-.292-1.167-.996-3.983-.996-3.983l1.514.565c-.365-1.83-.198-3.788 2.004-4.161 1.238-.21 2.989.267 4.776.93z" fill="none" stroke="#000" stroke-width="4"/><path d="m14.88 23.4h2.24v6.6h-2.24z" fill="#607f14"/><path d="m21 23.82s4.81-.212 6.531-4.204c.356-.824.469-2.616.469-2.616s-1.352 1.344-3.342 2.09c-1.627.61-3.658.526-3.658.526z" fill="#91bf1e"/><path d="m12 23.82s-4.81-.212-6.531-4.204c-.356-.824-.469-2.616-.469-2.616s1.352 1.344 3.342 2.09c1.627.61 3.658.526 3.658.526z" fill="#91bf1e"/><path d="m7.63 10.971s-3.513-6.835.808-7.567c2.365-.401 6.601 1.705 9.384 2.819 2.784 1.113-.24 6.836-.24 6.836h-9.812l-.14-2.088z" fill="#6b171f"/><path d="m12.64 6.399c0-1.907 1.346-3.548 3.216-3.922.265-.053.526-.105.772-.155 1.056-.211 2.15-.143 3.172.198.651.217 1.327.442 1.632.544.112.037.226.068.341.091.432.086 1.603.32 2.747.549.707.141 1.328.561 1.724 1.163.395.603.533 1.34.381 2.045-.699 3.244-1.785 8.288-1.785 8.288h-12.2s0-5.224 0-8.801z" fill="#9e212f"/><path d="m10.411 7.189c-.005-.898 1.125-2.752 5.791-2.687 4.528.062 5.789 1.773 5.789 2.687 0 1.186.706 9.686.706 9.686h-12.886z" fill="#d53447"/><path d="m12.64 6.182h6.72v5.04h-6.72z" fill="#b92335"/><ellipse cx="16" cy="6.182" fill="#791925" rx="3.36" ry=".56"/><path d="m17.079 9.774c-.009-.901.671-1.66 1.567-1.751 1.984-.137 3.33-.443 4.238-1.51.176 2.718.833 5.389.906 6.174.125 1.329-1.083 3.667-1.083 3.667h-5.562s-.042-4.182-.066-6.58z" fill="#db5462"/><path d="m9.749 6.142s1.894 2.318 2.852 2.694c2.034.799 4.009.73 5.23.557.843-.126 1.701.085 2.39.588.123.088.248.179.372.27.835.61 1.329 1.582 1.329 2.616v3.955h-12.32s-1.663-3.122-1.618-4.724c.063-2.257 1.619-4.589 1.765-5.956z" fill="#aa1d2b"/><path d="m4.92 7s2.456.917 4.929 1.841c3.026 1.13 5.031 4.02 5.031 7.249v1.71l-3.758 3.36s0 0-.001 0c-2.566-1.409-4.311-3.952-4.701-6.854-.116-.863-.223-1.658-.294-2.183-.057-.428-.139-.853-.243-1.272-.309-1.234-.963-3.851-.963-3.851z" fill="#d22c3b"/><path d="m8 21s.469.625 1.035 1.381c1.279 1.705 3.051 2.975 5.076 3.639 1.016.334 1.889.62 1.889.62s.733-.2 1.687-.461c2.745-.75 5.04-2.633 6.313-5.178 0-.001 0-.001 0-.001s-.366.137-.942.353c-4.551 1.707-9.565 1.707-14.116 0-.576-.216-.942-.353-.942-.353z" fill="#91bf1e"/><path d="m8.16 17.218c0-.342.145-.669.399-.9.586-.532 1.726-1.566 2.79-2.531 1.526-1.384 3.593-2.011 5.63-1.708.378.056.758.113 1.121.167 1.541.229 3.114-.072 4.461-.854 2.287-1.327 5.639-3.272 5.639-3.272s-1.286 3.396-1.854 4.899c-.176.463-.266.955-.266 1.451v1.555c0 1.956-.777 3.832-2.16 5.215s-3.259 2.16-5.215 2.16c-1.513 0-3.088 0-4.545 0-3.314 0-6-2.686-6-6 0-.064 0-.125 0-.182z" fill="#e74b5b"/><path d="m13.76 23.4s.505-.505 1.124-1.124c1.471-1.471 2.578-3.263 3.236-5.236.074-.221.12-.36.12-.36s.247.37.576.864c1.085 1.627 1.664 3.54 1.664 5.496v.36l-3.36 1.12z" fill="#91bf1e"/></g></svg>