<svg clip-rule="evenodd" fill-rule="evenodd" stroke-linecap="round" stroke-linejoin="round" stroke-miterlimit="1.5" viewBox="0 0 32 32" xmlns="http://www.w3.org/2000/svg" xmlns:xlink="http://www.w3.org/1999/xlink"><clipPath id="a"><path clip-rule="evenodd" d="m0 0h32v32h-32z"/></clipPath><metadata/><path d="m0 0h32v32h-32z" fill="none"/><g clip-path="url(#a)"><path d="m7 30c-1.326 0-2.598-.527-3.536-1.464-.937-.938-1.464-2.21-1.464-3.536 0-.628 0-1.298 0-2 0-5.57 2.212-10.911 6.151-14.849 3.938-3.939 9.279-6.151 14.849-6.151h2c1.326 0 2.598.527 3.536 1.464.937.938 1.464 2.21 1.464 3.536v2c0 5.57-2.212 10.911-6.151 14.849-3.938 3.939-9.279 6.151-14.849 6.151-.702 0-1.372 0-2 0z" fill="none" stroke="#000" stroke-width="4"/><path d="m15.007 29.122c-1.932.577-3.954.878-6.007.878-.702 0-1.372 0-2 0-1.326 0-2.598-.527-3.536-1.464 0 0-.464-1.536-.464-1.536l24-24 1.536.464c.937.938 1.464 2.21 1.464 3.536v2c0 .66-.031 1.317-.093 1.969-.03-.154-16.29 18.33-14.9 18.153z" fill="#2f45a6"/><path d="m21.031 2.093c.652-.062 1.309-.093 1.969-.093h2c1.326 0 2.598.527 3.536 1.464 0 0-25.072 25.072-25.072 25.072-.937-.938-1.464-2.21-1.464-3.536 0-.628 0-1.298 0-2 0-2.053.301-4.075.878-6.007-.177 1.39 18.307-14.87 18.153-14.9z" fill="#de4141"/><path d="m21.031 2.093c.154.03.302.063.446.096.621.142 1.136.571 1.387 1.156s.208 1.254-.117 1.802c-1.447 2.332-4.107 6.213-7.747 9.853-3.353 3.353-6.91 5.874-9.268 7.39-.609.372-1.37.392-1.998.051-.627-.34-1.025-.989-1.044-1.703-.027-1.075.011-2.355.188-3.745.988-3.31 2.786-6.356 5.273-8.842 3.471-3.472 8.033-5.602 12.88-6.058z" fill="#fff"/><path d="m15.007 29.122c-1.39.177-2.67.215-3.745.188-.714-.019-1.363-.417-1.703-1.044-.341-.628-.321-1.389.051-1.998 1.516-2.358 4.037-5.915 7.39-9.268 3.64-3.64 7.521-6.3 9.853-7.747.548-.325 1.217-.368 1.802-.117s1.014.766 1.156 1.387c.033.144.066.292.096.446-.456 4.847-2.586 9.409-6.058 12.88-2.486 2.487-5.532 4.285-8.842 5.273z" fill="#f1f1f1"/><g fill-rule="nonzero"><path d="m13.039 7.918c.598.598.598 1.566 0 2.164-.877.878-2.108 2.108-2.98 2.98-.281.281-.662.439-1.059.439s-.778-.158-1.059-.439c-.001 0-.001-.001-.002-.001-.281-.282-.439-.663-.439-1.061s.158-.779.439-1.061c.887-.886 2.143-2.142 3.023-3.022.275-.276.649-.43 1.038-.43s.763.154 1.038.43c0 0 .001.001.001.001z" fill="#999"/><path d="m24.083 18.962c.276.275.43.649.43 1.038s-.154.763-.43 1.038c-.88.88-2.136 2.136-3.022 3.023-.282.281-.663.439-1.061.439s-.779-.158-1.061-.439c-.281-.282-.439-.663-.439-1.061s.158-.779.439-1.061c.872-.871 2.102-2.101 2.979-2.978.598-.598 1.566-.598 2.164 0 0 0 .001 0 .001.001z" fill="#8c8c8c"/></g></g></svg>