<svg clip-rule="evenodd" fill-rule="evenodd" stroke-linecap="square" stroke-miterlimit="3" viewBox="0 0 32 32" xmlns="http://www.w3.org/2000/svg" xmlns:xlink="http://www.w3.org/1999/xlink"><clipPath id="a"><path clip-rule="evenodd" d="m0 0h32v32h-32z"/></clipPath><metadata/><path d="m0 0h32v32h-32z" fill="none"/><g clip-path="url(#a)"><path d="m11.296 11.296-5.296-5.296s-.513.513-1.172 1.172c-1.562 1.562-1.562 4.094 0 5.656l.344.344c1.562 1.562 4.094 1.562 5.656 0 1.155-1.155 2.344-2.344 2.879-2.879.188-.188.442-.293.707-.293h.586" fill="none" stroke="#000" stroke-width="6"/><path d="m12 11c2.962 3.023 6.912 7.212 11.683 10.504 1.93 1.332 4.653 2.624 6.317 3.496-1.779-.028-3.515.089-5.249-.322-2.423-.573-5.468-2.588-7.618-4.643-2.112-2.019-7.133-7.035-7.133-7.035z" style="fill:#a6a6a6;stroke:#000;stroke-width:4;stroke-linecap:round;stroke-linejoin:round;stroke-miterlimit:1.5"/><path d="m11.411 11.589c2.962 3.023 6.801 7.096 11.572 10.388 1.93 1.331 5.221 2.56 7.017 3.023-1.779-.028-3.515.089-5.249-.322-2.423-.573-5.468-2.588-7.618-4.643-2.112-2.019-7.133-7.035-7.133-7.035z" fill="#98bdd0"/><path d="m12 11c2.962 3.023 6.912 7.212 11.683 10.504 1.93 1.332 4.653 2.624 6.317 3.496-1.779-.028-4.257-1.05-5.968-1.876-1.889-.912-3.917-2.033-6.032-4.124-2.079-2.056-7-7-7-7z" fill="#e1f1f4"/><path d="m6 8 4 4 1-1-5-5s-.513.513-1.172 1.172c-1.562 1.562-1.562 4.094 0 5.656.115.115.229.229.344.344 1.562 1.562 4.094 1.562 5.656 0 1.155-1.155 2.344-2.344 2.879-2.879.188-.188.442-.293.707-.293h.586" fill="none" stroke="#7c5636" stroke-width="2"/></g></svg>