<svg clip-rule="evenodd" fill-rule="evenodd" stroke-linecap="round" stroke-linejoin="round" stroke-miterlimit="1.5" viewBox="0 0 32 32" xmlns="http://www.w3.org/2000/svg"><metadata/><g fill="none"><path d="m0 0h32v32h-32z"/><path d="m17 23c0-1.104 2.913-2 6.5-2s6.5.896 6.5 2c0 3.59-2.91 6.5-6.5 6.5s-6.5-2.91-6.5-6.5z" stroke="#000" stroke-width="4"/><path d="m4.318 5.027c-.205-.164-.318-.341-.318-.527 0-.828 2.24-1.5 5-1.5s5 .672 5 1.5c0 .186-.113.363-.318.527-.237.208-1.682 1.615-1.682 4.973 0 3.657 2.888 5.13 3.778 10 1.056 5.771-2.527 9.943-6.729 10h-.049-.049c-4.202-.057-7.785-4.229-6.729-10 .89-4.87 3.778-6.343 3.778-10 0-3.358-1.445-4.765-1.682-4.973z" stroke="#000" stroke-miterlimit="3" stroke-width="4"/></g><path d="m5.981 10.5h6.038c.247 3.303 2.911 4.858 3.759 9.5 1.06 5.794-2.555 9.975-6.778 10-4.223-.025-7.838-4.206-6.778-10 .848-4.642 3.512-6.197 3.759-9.5z" fill="#4f46b8"/><path d="m5.981 10.5c.013-.162.019-.329.019-.5 0-3.652-1.709-4.996-1.714-5h9.428s-1.714 1.343-1.714 5c0 .171.006.338.019.5h-.019c0 .497-1.344.9-3 .9s-3-.403-3-.9z" fill="#e6e6e6"/><ellipse cx="9" cy="4.5" fill="#818181" rx="4.726" ry="1.186"/><path d="m30 23c0 .698-.11 1.37-.313 2-.463.821-.687 1-.687 1l-5.5 1-5.5-1s-.4-.803-.687-1c-.203-.63-.313-1.302-.313-2h6.5z" fill="#e1e1e1"/><path d="m29.687 25c-.844 2.611-3.295 4.5-6.187 4.5s-5.343-1.889-6.187-4.5c1.353.929 3.62 1.538 6.187 1.538s4.834-.609 6.187-1.538z" fill="#4f46b8"/><ellipse cx="23.5" cy="23" fill="#818181" rx="6.222" ry="1.731"/><path d="m9.129 3 .128.002.127.002.127.004.125.004.125.005.124.006.122.007.122.008.12.009.119.01.118.01.117.012.115.012.115.013.112.014.112.015.11.015.108.016.107.017.106.018.104.018.102.019.101.02.099.021.097.021.095.022.094.023.091.023.09.024.088.024.086.026.084.025.081.027.08.027.078.027.075.028.073.029.071.029.069.03.066.03.064.03.061.032.059.031.057.032.054.033.051.033.049.033.046.034.043.034.041.035.038.035.035.036.032.035.03.036.026.037.024.037.02.037.018.037.007.019.007.019.006.019.005.019.005.019.003.019.003.019.002.019.002.02v.019.019l-.002.02-.002.019-.003.019-.003.019-.005.019-.005.019-.006.019-.007.019-.007.019-.018.037-.02.037-.024.037-.026.037-.03.036-.032.035-.035.036-.038.035-.041.035-.043.034-.046.034-.049.033-.051.033-.054.033-.057.032-.059.031-.061.032-.064.03-.066.03-.069.03-.071.029-.073.029-.075.028-.078.027-.08.027-.081.027-.084.025-.086.026-.088.024-.09.024-.091.023-.094.023-.095.022-.097.021-.099.021-.101.02-.102.019-.104.018-.106.018-.107.017-.108.016-.11.015-.112.015-.112.014-.115.013-.115.012-.117.012-.118.01-.119.01-.12.009-.122.008-.122.007-.124.006-.125.005-.125.004-.127.004-.127.002-.128.002h-.129-.129l-.128-.002-.127-.002-.127-.004-.125-.004-.125-.005-.124-.006-.122-.007-.122-.008-.12-.009-.119-.01-.118-.01-.117-.012-.115-.012-.115-.013-.112-.014-.112-.015-.11-.015-.108-.016-.107-.017-.106-.018-.104-.018-.102-.019-.101-.02-.099-.021-.097-.021-.095-.022-.094-.023-.091-.023-.09-.024-.088-.024-.086-.026-.084-.025-.081-.027-.08-.027-.078-.027-.075-.028-.073-.029-.071-.029-.069-.03-.066-.03-.064-.03-.061-.032-.059-.031-.057-.032-.054-.033-.051-.033-.049-.033-.046-.034-.043-.034-.041-.035-.038-.035-.035-.036-.032-.035-.03-.036-.026-.037-.024-.037-.02-.037-.018-.037-.007-.019-.007-.019-.006-.019-.005-.019-.005-.019-.003-.019-.003-.019-.002-.019-.002-.02v-.019-.019l.002-.02.002-.019.003-.019.003-.019.005-.019.005-.019.006-.019.007-.019.007-.019.018-.037.02-.037.024-.037.026-.037.03-.036.032-.035.035-.036.038-.035.041-.035.043-.034.046-.034.049-.033.051-.033.054-.033.057-.032.059-.031.061-.032.064-.03.066-.03.069-.03.071-.029.073-.029.075-.028.078-.027.08-.027.081-.027.084-.025.086-.026.088-.024.09-.024.091-.023.094-.023.095-.022.097-.021.099-.021.101-.02.102-.019.104-.018.106-.018.107-.017.108-.016.11-.015.112-.015.112-.014.115-.013.115-.012.117-.012.118-.01.119-.01.12-.009.122-.008.122-.007.124-.006.125-.005.125-.004.127-.004.127-.002.128-.002h.129zm-.254.5-.125.002-.123.002-.123.004-.121.004-.121.005-.12.006-.118.007-.118.007-.116.009-.116.009-.114.01-.112.011-.112.012-.11.013-.108.013-.108.014-.105.015-.104.015-.103.017-.101.017-.099.017-.098.018-.095.019-.094.02-.092.02-.09.021-.088.021-.087.022-.084.022-.081.023-.08.023-.078.024-.075.024-.072.025-.071.025-.068.025-.065.026-.063.026-.06.026-.057.026-.054.026-.052.026-.048.026-.046.026-.042.025-.04.026-.036.024-.032.024-.029.023-.026.022-.023.021-.019.019-.016.018-.012.015-.01.014-.007.011-.005.008v.001.001l.005.008.007.011.01.014.012.015.016.018.019.019.023.021.026.022.029.023.032.024.036.024.04.026.042.025.046.026.048.026.052.026.054.026.057.026.06.026.063.026.065.026.068.025.071.025.072.025.075.024.078.024.08.023.081.023.084.022.087.022.088.021.09.021.092.02.094.02.095.019.098.018.099.017.101.017.103.017.104.015.105.015.108.014.108.013.11.013.112.012.112.011.114.01.116.009.116.009.118.007.118.007.12.006.121.005.121.004.123.004.123.002.125.002h.125.125l.125-.002.123-.002.123-.004.121-.004.121-.005.12-.006.118-.007.118-.007.116-.009.116-.009.114-.01.112-.011.112-.012.11-.013.108-.013.108-.014.105-.015.104-.015.103-.017.101-.017.099-.017.098-.018.095-.019.094-.02.092-.02.09-.021.088-.021.087-.022.084-.022.081-.023.08-.023.078-.024.075-.024.072-.025.071-.025.068-.025.065-.026.063-.026.06-.026.057-.026.054-.026.052-.026.048-.026.046-.026.042-.025.04-.026.036-.024.032-.024.029-.023.026-.022.023-.021.019-.019.016-.018.012-.015.01-.014.007-.011.005-.008v-.001-.001l-.005-.008-.007-.011-.01-.014-.012-.015-.016-.018-.019-.019-.023-.021-.026-.022-.029-.023-.032-.024-.036-.024-.04-.026-.042-.025-.046-.026-.048-.026-.052-.026-.054-.026-.057-.026-.06-.026-.063-.026-.065-.026-.068-.025-.071-.025-.072-.025-.075-.024-.078-.024-.08-.023-.081-.023-.084-.022-.087-.022-.088-.021-.09-.021-.092-.02-.094-.02-.095-.019-.098-.018-.099-.017-.101-.017-.103-.017-.104-.015-.105-.015-.108-.014-.108-.013-.11-.013-.112-.012-.112-.011-.114-.01-.116-.009-.116-.009-.118-.007-.118-.007-.12-.006-.121-.005-.121-.004-.123-.004-.123-.002-.125-.002h-.125z" fill="#e6e6e6"/><path d="m23.668 21.001.166.002.166.003.164.004.163.006.162.007.161.008.159.01.158.01.157.012.155.013.153.014.152.015.15.016.148.018.147.018.145.02.143.02.141.022.139.023.137.023.135.025.133.025.131.027.129.027.126.029.124.029.122.03.119.031.116.032.115.033.111.033.109.034.107.036.103.035.101.037.098.038.095.038.092.039.089.039.086.04.083.041.08.042.077.042.073.043.071.043.066.044.064.045.06.045.056.046.053.046.05.047.045.047.022.024.02.023.02.024.018.025.018.024.017.024.016.025.014.024.014.025.013.025.012.024.011.025.01.025.008.026.008.025.007.025.006.026.005.025.003.026.003.025.001.026.001.026-.001.026-.001.026-.003.025-.003.026-.005.025-.006.026-.007.025-.008.025-.008.026-.01.025-.011.025-.012.024-.013.025-.014.025-.014.024-.016.025-.017.024-.018.024-.018.025-.02.024-.02.023-.022.024-.045.047-.05.047-.053.046-.056.046-.06.045-.064.045-.066.044-.071.043-.073.043-.077.042-.08.042-.083.041-.086.04-.089.039-.092.039-.095.038-.098.038-.101.037-.103.035-.107.036-.109.034-.111.033-.115.033-.116.032-.119.031-.122.03-.124.029-.126.029-.129.027-.131.027-.133.025-.135.025-.137.023-.139.023-.141.022-.143.02-.145.02-.147.018-.148.018-.15.016-.152.015-.153.014-.155.013-.157.012-.158.01-.159.01-.161.008-.162.007-.163.006-.164.004-.166.003-.166.002-.168.001-.168-.001-.166-.002-.166-.003-.164-.004-.163-.006-.162-.007-.161-.008-.159-.01-.158-.01-.157-.012-.155-.013-.153-.014-.152-.015-.15-.016-.148-.018-.147-.018-.145-.02-.143-.02-.141-.022-.139-.023-.137-.023-.135-.025-.133-.025-.131-.027-.129-.027-.126-.029-.124-.029-.122-.03-.119-.031-.116-.032-.115-.033-.111-.033-.109-.034-.107-.036-.103-.035-.101-.037-.098-.038-.095-.038-.092-.039-.089-.039-.086-.04-.083-.041-.08-.042-.077-.042-.073-.043-.071-.043-.066-.044-.064-.045-.06-.045-.056-.046-.053-.046-.05-.047-.045-.047-.022-.024-.02-.023-.02-.024-.018-.025-.018-.024-.017-.024-.016-.025-.014-.024-.014-.025-.013-.025-.012-.024-.011-.025-.01-.025-.008-.026-.008-.025-.007-.025-.006-.026-.005-.025-.003-.026-.003-.025-.001-.026-.001-.026.001-.026.001-.026.003-.025.003-.026.005-.025.006-.026.007-.025.008-.025.008-.026.01-.025.011-.025.012-.024.013-.025.014-.025.014-.024.016-.025.017-.024.018-.024.018-.025.02-.024.02-.023.022-.024.045-.047.05-.047.053-.046.056-.046.06-.045.064-.045.066-.044.071-.043.073-.043.077-.042.08-.042.083-.041.086-.04.089-.039.092-.039.095-.038.098-.038.101-.037.103-.035.107-.036.109-.034.111-.033.115-.033.116-.032.119-.031.122-.03.124-.029.126-.029.129-.027.131-.027.133-.025.135-.025.137-.023.139-.023.141-.022.143-.02.145-.02.147-.018.148-.018.15-.016.152-.015.153-.014.155-.013.157-.012.158-.01.159-.01.161-.008.162-.007.163-.006.164-.004.166-.003.166-.002.168-.001zm-.332.5-.162.002-.162.003-.161.004-.159.006-.158.007-.157.008-.155.009-.154.01-.152.011-.151.013-.149.014-.148.014-.146.016-.144.017-.142.018-.141.019-.139.02-.136.021-.135.022-.132.022-.13.024-.129.025-.125.025-.124.027-.121.027-.118.028-.116.029-.114.029-.111.03-.108.031-.105.032-.103.032-.099.033-.097.034-.093.034-.091.034-.087.035-.084.035-.08.036-.077.036-.074.036-.069.037-.067.036-.062.036-.059.037-.054.036-.051.035-.046.035-.043.034-.038.034-.034.032-.032.033-.011.013-.013.014-.011.014-.011.014-.009.013-.009.012-.007.012-.007.011-.006.011-.005.01-.005.01-.004.009-.003.008-.003.007-.002.008-.002.006-.001.007-.001.006-.001.005v.005l-.001.006v.005.005l.001.005v.006l.001.005.001.006.001.007.002.006.002.007.003.008.003.008.004.009.005.01.005.01.006.011.007.011.007.012.009.012.009.013.011.014.011.014.013.014.011.013.032.033.034.032.038.034.043.034.046.035.051.035.054.036.059.037.062.036.067.036.069.037.074.036.077.036.08.036.084.035.087.035.091.034.093.034.097.034.099.033.103.032.105.032.108.031.111.03.114.029.116.029.118.028.121.027.124.027.125.025.129.025.13.024.132.022.135.022.136.021.139.02.141.019.142.018.144.017.146.016.148.014.149.014.151.013.152.011.154.01.155.009.157.008.158.007.159.006.161.004.162.003.162.002.164.001.164-.001.162-.002.162-.003.161-.004.159-.006.158-.007.157-.008.155-.009.154-.01.152-.011.151-.013.149-.014.148-.014.146-.016.144-.017.142-.018.141-.019.139-.02.136-.021.135-.022.132-.022.13-.024.129-.025.125-.025.124-.027.121-.027.118-.028.116-.029.114-.029.111-.03.108-.031.105-.032.103-.032.099-.033.097-.034.093-.034.091-.034.087-.035.084-.035.08-.036.077-.036.074-.036.069-.037.067-.036.062-.036.059-.037.054-.036.051-.035.046-.035.043-.034.038-.034.034-.032.032-.033.011-.013.013-.014.011-.014.011-.014.009-.013.009-.012.007-.012.007-.011.006-.011.005-.01.005-.01.004-.009.003-.008.003-.008.002-.007.002-.006.001-.007.001-.006.001-.005v-.005l.001-.006v-.005-.005l-.001-.006v-.005l-.001-.005-.001-.006-.001-.007-.002-.006-.002-.008-.003-.007-.003-.008-.004-.009-.005-.01-.005-.01-.006-.011-.007-.011-.007-.012-.009-.012-.009-.013-.011-.014-.011-.014-.013-.014-.011-.013-.032-.033-.034-.032-.038-.034-.043-.034-.046-.035-.051-.035-.054-.036-.059-.037-.062-.036-.067-.036-.069-.037-.074-.036-.077-.036-.08-.036-.084-.035-.087-.035-.091-.034-.093-.034-.097-.034-.099-.033-.103-.032-.105-.032-.108-.031-.111-.03-.114-.029-.116-.029-.118-.028-.121-.027-.124-.027-.125-.025-.129-.025-.13-.024-.132-.022-.135-.022-.136-.021-.139-.02-.141-.019-.142-.018-.144-.017-.146-.016-.148-.014-.149-.014-.151-.013-.152-.011-.154-.01-.155-.009-.157-.008-.158-.007-.159-.006-.161-.004-.162-.003-.162-.002-.164-.001z" fill="#e6e6e6"/></svg>