<svg clip-rule="evenodd" fill-rule="evenodd" stroke-linecap="round" stroke-linejoin="round" stroke-miterlimit="1.5" viewBox="0 0 32 32" xmlns="http://www.w3.org/2000/svg" xmlns:xlink="http://www.w3.org/1999/xlink"><clipPath id="a"><path clip-rule="evenodd" d="m0 0h32v32h-32z"/></clipPath><metadata/><path d="m0 0h32v32h-32z" fill="none"/><g clip-path="url(#a)"><path d="m28 4c0-.53-.211-1.039-.586-1.414s-.884-.586-1.414-.586c-4.52 0-15.48 0-20 0-.53 0-1.039.211-1.414.586s-.586.884-.586 1.414v24c0 .53.211 1.039.586 1.414s.884.586 1.414.586h20c.53 0 1.039-.211 1.414-.586s.586-.884.586-1.414c0-5.154 0-18.846 0-24z" fill="none" stroke="#000" stroke-width="4"/><path d="m28 20h-24v8c0 .53.211 1.039.586 1.414s.884.586 1.414.586h20c.53 0 1.039-.211 1.414-.586s.586-.884.586-1.414c0-2.918 0-8 0-8z" fill="#4d4d4d"/><path d="m28 4c0-.53-.211-1.039-.586-1.414s-.884-.586-1.414-.586c-4.52 0-15.48 0-20 0-.53 0-1.039.211-1.414.586s-.586.884-.586 1.414v16c0 .53.211 1.039.586 1.414s.884.586 1.414.586h20c.53 0 1.039-.211 1.414-.586s.586-.884.586-1.414c0-3.832 0-12.168 0-16z" fill="#999"/><path d="m27 18h-22v1c0 .53.211 1.039.586 1.414s.884.586 1.414.586h18c.53 0 1.039-.211 1.414-.586s.586-.884.586-1.414c0-.551 0-1 0-1z" fill="#808080"/><path d="m27 5c0-.53-.211-1.039-.586-1.414s-.884-.586-1.414-.586c-4.184 0-13.816 0-18 0-.53 0-1.039.211-1.414.586s-.586.884-.586 1.414v13c0 .53.211 1.039.586 1.414s.884.586 1.414.586h18c.53 0 1.039-.211 1.414-.586s.586-.884.586-1.414c0-3.271 0-9.729 0-13z" fill="#f3f3f3"/><path d="m19 24c0-.552-.448-1-1-1-2.577 0-9.423 0-12 0-.552 0-1 .448-1 1v4c0 .552.448 1 1 1h12c.552 0 1-.448 1-1 0-1.11 0-2.89 0-4z" fill="#1a1a1a"/><path d="m10 26.5c0-.133-.053-.26-.146-.354-.094-.093-.221-.146-.354-.146-.769 0-2.231 0-3 0-.133 0-.26.053-.354.146-.093.094-.146.221-.146.354v1c0 .133.053.26.146.354.094.093.221.146.354.146h3c.133 0 .26-.053.354-.146.093-.094.146-.221.146-.354 0-.305 0-.695 0-1z" fill="#1aa0e4"/><path d="m15 26.5c0-.133-.053-.26-.146-.354-.094-.093-.221-.146-.354-.146-.769 0-2.231 0-3 0-.133 0-.26.053-.354.146-.093.094-.146.221-.146.354v1c0 .133.053.26.146.354.094.093.221.146.354.146h3c.133 0 .26-.053.354-.146.093-.094.146-.221.146-.354 0-.305 0-.695 0-1z" fill="#1aa0e4"/><g fill="#b3b3b3"><path d="m23 24c0-.552-.448-1-1-1-.322 0-.678 0-1 0-.552 0-1 .448-1 1v4c0 .552.448 1 1 1h1c.552 0 1-.448 1-1 0-1.11 0-2.89 0-4z"/><path d="m27 24c0-.552-.448-1-1-1-.322 0-.678 0-1 0-.552 0-1 .448-1 1v4c0 .552.448 1 1 1h1c.552 0 1-.448 1-1 0-1.11 0-2.89 0-4z"/></g></g></svg>