<svg clip-rule="evenodd" fill-rule="evenodd" stroke-linejoin="round" stroke-miterlimit="2" viewBox="0 0 32 32" xmlns="http://www.w3.org/2000/svg" xmlns:xlink="http://www.w3.org/1999/xlink"><clipPath id="a"><path clip-rule="evenodd" d="m0 0h32v32h-32z"/></clipPath><metadata/><path d="m0 0h32v32h-32z" fill="none"/><g clip-path="url(#a)"><path d="m16 0c4.243 0 8.313 1.686 11.314 4.686 3 3.001 4.686 7.071 4.686 11.314v2c0 7.732-6.268 14-14 14-1.325 0-2.675 0-4 0-7.732 0-14-6.268-14-14v-2c0-8.837 7.163-16 16-16z"/><path d="m28 8.789c.608 1.012 1.086 2.097 1.421 3.227l-26.847.002c1.716-5.792 7.077-10.018 13.426-10.018h.087c.33.002.658.016.985.041-.047.147 2.928.543 2.928.543.372.111.739.237 1.1.378-.066.17 2.9 1.549 2.9 1.549.349.243.688.502 1.015.778-.01.069 2.985 3.5 2.985 3.5z" fill="#7aafff"/><path d="m25.015 5.289c.305.257.6.527.884.812.815.814 1.518 1.718 2.101 2.688v1.711c0 .398-.158.779-.439 1.061-.282.281-.663.439-1.061.439s-.779-.158-1.061-.439c-.281-.282-.439-.663-.439-1.061 0-1.43 0-3.57 0-5 0-.071.005-.142.015-.211zm-3.915-2.327c1.021.399 1.995.919 2.9 1.549v4.989c0 .398-.158.779-.439 1.061-.282.281-.663.439-1.061.439s-.779-.158-1.061-.439c-.281-.282-.439-.663-.439-1.061 0-1.665 0-4.335 0-6 0-.186.034-.368.1-.538zm-4.028-.921c.998.077 1.979.26 2.928.543v5.916c0 .398-.158.779-.439 1.061-.282.281-.663.439-1.061.439s-.779-.158-1.061-.439c-.281-.282-.439-.663-.439-1.061 0-1.665 0-4.335 0-6 0-.157.025-.312.072-.459z" fill="#3988ff"/><path d="m18.856 9.983c3.402 0 6.775.612 9.961 1.807l.604.226c.381 1.282.579 2.623.579 3.984v2c0 6.627-5.373 12-12 12h-4c-6.627 0-12-5.373-12-12v-2c0-1.383.201-2.72.574-3.982l.609-.228c3.186-1.195 6.559-1.807 9.961-1.807z" fill="#fbc546"/><path d="m22.766 10.152.133.201.302.047 2.799 1.6v1.502c0 .928-.369 1.817-1.025 2.473s-1.545 1.025-2.473 1.025h-.002c-1.933 0-3.5-1.567-3.5-3.5 0-.657 0-1.345 0-2.002 0-.928.369-1.817 1.025-2.473.095-.096.195-.185.3-.268z" fill="#fff"/><path d="m23.201 10.4c.485.365.799.946.799 1.6v.983c0 .531-.211 1.039-.586 1.415-.375.375-.884.585-1.414.585-1.105 0-2-.895-2-2v-.983c0-.53.211-1.039.586-1.414s.884-.586 1.414-.586c.271 0 .53.054.766.152z"/><path d="m9.234 10.152-.133.201-.302.047-2.799 1.6v1.502c0 .928.369 1.817 1.025 2.473s1.545 1.025 2.473 1.025h.002c1.933 0 3.5-1.567 3.5-3.5 0-.657 0-1.345 0-2.002 0-.928-.369-1.817-1.025-2.473-.095-.096-.195-.185-.3-.268z" fill="#fff"/><path d="m8.799 10.4c-.485.365-.799.946-.799 1.6v.983c0 .531.211 1.039.586 1.415.375.375.884.585 1.414.585 1.105 0 2-.895 2-2v-.983c0-.53-.211-1.039-.586-1.414s-.884-.586-1.414-.586c-.271 0-.53.054-.766.152z"/><path d="m9.794 24.381c-.308.038-.621-.07-.842-.299-.267-.277-.351-.684-.216-1.045.173-.461.364-.972.561-1.495 1.024-2.732 3.636-4.542 6.554-4.542h.298c2.918 0 5.53 1.81 6.554 4.542.197.523.388 1.034.561 1.495.135.361.051.768-.216 1.045-.221.229-.534.337-.842.299-.656-1.018-3.499-1.79-6.206-1.812-2.826-.023-5.521.749-6.206 1.812z" fill="#722245"/><path d="m16.001 21c2.539 0 4.863 1.3 6.205 3.381-.065-.008-.131-.023-.195-.044-.705-.235-1.495-.498-2.186-.729-1.209-.403-2.474-.608-3.748-.608h-.154c-1.274 0-2.539.205-3.748.608-.691.231-1.481.494-2.186.729-.064.021-.13.036-.195.044 1.342-2.081 3.666-3.381 6.205-3.381z" fill="#ca3b8f"/></g></svg>