<svg clip-rule="evenodd" fill-rule="evenodd" stroke-linecap="round" stroke-linejoin="round" stroke-miterlimit="1.5" viewBox="0 0 32 32" xmlns="http://www.w3.org/2000/svg" xmlns:xlink="http://www.w3.org/1999/xlink"><clipPath id="a"><path clip-rule="evenodd" d="m0 0h32v32h-32z"/></clipPath><metadata/><path d="m0 0h32v32h-32z" fill="none"/><g clip-path="url(#a)"><path d="m30 13v17h-28v-17s14-4.667 14-4.667z" fill="none" stroke="#000" stroke-width="4"/><path d="m30 13-4-1h-20l-4 1v2l.567 2-.567 3v2l1 1h26l1-1v-2l-.431-2.565.431-2.435z" fill="#8b6f5a"/><path d="m2 22h8v-8h12v8h8v2l-2 2 2 2v2h-10l-4-2-4 2h-10v-2l2-2-2-2z" fill="#ae9583"/><path d="m2 13 14-4.667 14 4.667z" fill="#6d5646"/><g fill="#352a1f"><path d="m2 24h8v4h-8z"/><path d="m22 24h8v4h-8z"/><path d="m25 15h2v5h-2z"/><path d="m5 15h2v5h-2z"/><path d="m29 15h1v5h-1z"/><path d="m2 15h1v5h-1z"/></g><path d="m12 17h8v3h-8z" fill="#fff"/><path d="m12 22h8v8h-8z" fill="#1a1a1a"/></g></svg>