<svg clip-rule="evenodd" fill-rule="evenodd" stroke-linejoin="round" stroke-miterlimit="1.41421" viewBox="0 0 32 32" xmlns="http://www.w3.org/2000/svg" xmlns:xlink="http://www.w3.org/1999/xlink"><clipPath id="a"><path clip-rule="evenodd" d="m0 0h32v32h-32z"/></clipPath><clipPath id="b"><path clip-rule="evenodd" d="m16.854 25.073c2.355.405 4.146 2.457 4.146 4.927h-16c0-2.47 1.791-4.522 4.146-4.927.469 1.687 7.239 1.687 7.708 0z"/></clipPath><clipPath id="c"><path clip-rule="evenodd" d="m19 15c0-1.591-.632-3.117-1.757-4.243-1.126-1.125-2.652-1.757-4.243-1.757-1.591 0-3.117.632-4.243 1.757-1.125 1.126-1.757 2.652-1.757 4.243v2c0 1.591.632 3.117 1.757 4.243 1.126 1.125 2.652 1.757 4.243 1.757 1.591 0 3.117-.632 4.243-1.757 1.125-1.126 1.757-2.652 1.757-4.243 0-.663 0-1.337 0-2z"/></clipPath><clipPath id="d"><path clip-rule="evenodd" d="m27 14h-5v1l1 1v12.5c0 .828.672 1.5 1.5 1.5s1.5-.672 1.5-1.5c0-3.613 0-12.5 0-12.5l1-1z"/></clipPath><metadata/><path d="m0 0h32v32h-32z" fill="none"/><g clip-path="url(#a)"><path d="m24.472 32h-21.472c0-.716-.012-1.454.002-2.18.026-.818.181-1.632.487-2.393.188-.471.423-.921.707-1.342.724-1.071 1.744-1.933 2.922-2.466.3-.135.608-.249.924-.341-.167-.132-.329-.27-.485-.415-.769-.714-1.394-1.579-1.831-2.533-.312-.682-.528-1.407-.638-2.149-.054-.358-.081-.719-.087-1.081-.005-.733-.005-1.467 0-2.2.005-.296.023-.592.06-.886.072-.584.209-1.159.408-1.712.341-.953.864-1.839 1.535-2.598.911-1.032 2.089-1.819 3.391-2.268.807-.278 1.652-.42 2.506-.435.099-.001.099-.001.198 0 .297.005.593.023.887.06.616.076 1.222.225 1.803.441 1.043.388 2.001.994 2.797 1.771.79.771 1.416 1.705 1.83 2.727h8.584v3.828l-1 1c0 3.921.05 7.841-.001 11.761-.006.148-.017.295-.039.442-.053.342-.156.676-.306.988-.195.404-.468.769-.8 1.071-.313.285-.677.512-1.07.667-.38.15-.786.232-1.195.242-.039.001-.078.001-.117.001zm-3.472-15.007-.001.106c-.006.33-.028.658-.073.985-.088.646-.256 1.281-.498 1.887-.279.696-.656 1.353-1.117 1.945-.395.508-.852.965-1.355 1.362.316.091.626.206.926.341.564.255 1.094.586 1.572.98.191.158.373.326.546.503z"/><path d="m16.854 25.073c2.355.405 4.146 2.457 4.146 4.927h-16c0-2.47 1.791-4.522 4.146-4.927.469 1.687 7.239 1.687 7.708 0z" fill="#fff"/><g clip-path="url(#b)"><path d="m11 26h4v5h-4z" fill="#878787"/></g><path d="m9.146 25.073c.277-.048.563-.073.854-.073h6c.291 0 .577.025.854.073-.469 1.687-2.018 2.927-3.854 2.927s-3.385-1.24-3.854-2.927z" fill="#ffc20b"/><path d="m19 15c0-1.591-.632-3.117-1.757-4.243-1.126-1.125-2.652-1.757-4.243-1.757-1.591 0-3.117.632-4.243 1.757-1.125 1.126-1.757 2.652-1.757 4.243v2c0 1.591.632 3.117 1.757 4.243 1.126 1.125 2.652 1.757 4.243 1.757 1.591 0 3.117-.632 4.243-1.757 1.125-1.126 1.757-2.652 1.757-4.243 0-.663 0-1.337 0-2z" fill="#ffc20b"/><g clip-path="url(#c)"><path d="m17 15c0-.552-.448-1-1-1s-1 .448-1 1v1c0 .552.448 1 1 1s1-.448 1-1c0-.322 0-.678 0-1zm-6 0c0-.552-.448-1-1-1s-1 .448-1 1v1c0 .552.448 1 1 1s1-.448 1-1c0-.322 0-.678 0-1z"/></g><path d="m27 14h-5v1l1 1v12.5c0 .828.672 1.5 1.5 1.5s1.5-.672 1.5-1.5c0-3.613 0-12.5 0-12.5l1-1z" fill="#e6e6e6"/><g clip-path="url(#d)"><path d="m22 21h5v10h-5z" fill="#00a84c"/><path d="m25 21h-1v7.5c0 .276.224.5.5.5.276 0 .5-.224.5-.5 0-1.751 0-7.5 0-7.5z" fill="#00d761"/></g></g></svg>