<svg clip-rule="evenodd" fill-rule="evenodd" stroke-linejoin="round" stroke-miterlimit="2" viewBox="0 0 32 32" xmlns="http://www.w3.org/2000/svg" xmlns:xlink="http://www.w3.org/1999/xlink"><clipPath id="a"><path clip-rule="evenodd" d="m0 0h32v32h-32z"/></clipPath><metadata/><path d="m0 0h32v32h-32z" fill="none"/><g clip-path="url(#a)"><path d="m16 0c3.978 0 7.794 1.58 10.607 4.393s4.393 6.629 4.393 10.607v1.004c0 2.567-.705 5.062-2.009 7.224.006.09.009.181.009.272v2.008c0 .163.02.326.06.485l1.502 6.007h-10.562v-2.324c-.976.214-1.981.324-2.996.324h-2.008c-1.015 0-2.02-.11-2.996-.324v2.324h-10.562l1.502-6.007c.04-.159.06-.322.06-.485v-2.008c0-.091.003-.182.009-.272-1.304-2.162-2.009-4.657-2.009-7.224v-1.004c0-8.284 6.716-15 15-15z"/><path d="m21.967 9.902c-6.633-.28-16.11-.056-18.195.674 1.809-5.001 6.601-8.576 12.228-8.576h.081c.307.002.614.015.919.039.94.362 1.937.567 3 .592.338.109.672.232 1 .369 0 0 .829 6.848.96 6.899zm5.983-.019c.098.228.189.458.274.692-.152.041-.624-.008-.839-.054.127-.162.405-.476.565-.638zm-3.95-5.13c.346.27.68.559 1 .866l.671 3.791c.002.204-.341.631-.55.681l.002.004c-.674-.058-2.422-.108-3.224-.149l.002-.001c.147-.041 2.099-5.192 2.099-5.192z" fill="#7aafff"/><path d="m25 5.619c.065.062.129.125.192.189 1.182 1.181 2.113 2.567 2.758 4.075-.052.198-.144.384-.272.545-.613-.131-1.492-.242-2.555-.333l-.002-.004c-.079-.188-.12-.387-.121-.591zm-4-2.619c1.069.446 2.079 1.034 3 1.753v3.747c-.001.142-.02.282-.06.419-.099.343-.323.644-.623.839-.129.083-.269.146-.416.187l-.002.001c-.303-.016-.614-.03-.932-.044l-.007-.003c-.131-.051-.255-.119-.367-.204-.26-.198-.451-.479-.538-.794-.037-.131-.054-.265-.055-.401zm-4-.961c1.026.079 2.032.279 3 .592v4.869c-.001.191-.036.38-.107.557-.053.131-.123.254-.21.365-.297.382-.773.6-1.257.576-.172-.008-.341-.047-.5-.112-.17-.071-.327-.172-.46-.299-.142-.136-.258-.3-.337-.479-.085-.192-.128-.399-.129-.608v-5.461z" fill="#3988ff"/><path d="m3.964 20.716c-.63-1.475-.964-3.076-.964-4.712v-1.004c0-1.553.272-3.042.772-4.424 3.011-1.054 6.179-1.593 9.372-1.593h5.712c3.191 0 6.358.539 9.368 1.592.509 1.405.776 2.901.776 4.425v1.004c0 1.636-.334 3.237-.964 4.712-.819-1.038-8.036 6.904-8.036 6.904-.971.25-1.977.38-2.996.38h-2.008c-1.019 0-2.025-.13-2.996-.38 0 0-7.212-7.949-8.036-6.904z" fill="#fbc546"/><path d="m3.964 20.716c.824-1.045 2.102-1.716 3.536-1.716h.028c1.183.007 2.317.481 3.154 1.318.844.844 1.318 1.989 1.318 3.182v4.12c-2.058-.531-3.958-1.605-5.486-3.134-1.094-1.093-1.954-2.375-2.55-3.77zm16.036 6.904v-4.12c0-1.193.474-2.338 1.318-3.182s1.989-1.318 3.182-1.318h.029c1.422.009 2.688.678 3.507 1.716-.596 1.395-1.456 2.677-2.55 3.77-1.528 1.529-3.428 2.603-5.486 3.134z" fill="#7e5108"/><path d="m9.498 16c-.928 0-1.817-.369-2.473-1.025s-1.025-1.545-1.025-2.473c0-.657 0-1.345 0-2.002 0-1.933 1.567-3.5 3.5-3.5h.002c.928 0 1.817.369 2.473 1.025s1.025 1.545 1.025 2.473v2.002c0 1.933-1.567 3.5-3.5 3.5z" fill="#fff"/><path d="m12 10.5c0-.663-.263-1.299-.732-1.768s-1.105-.732-1.768-.732c-1.381 0-2.5 1.119-2.5 2.5v1.983c0 .663.263 1.299.732 1.768s1.105.732 1.768.732c1.381 0 2.5-1.119 2.5-2.5z"/><path d="m22.502 16c.928 0 1.817-.369 2.473-1.025s1.025-1.545 1.025-2.473c0-.657 0-1.345 0-2.002 0-1.933-1.567-3.5-3.5-3.5h-.002c-.928 0-1.817.369-2.473 1.025s-1.025 1.545-1.025 2.473v2.002c0 1.933 1.567 3.5 3.5 3.5z" fill="#fff"/><path d="m20 10.5c0-.663.263-1.299.732-1.768s1.105-.732 1.768-.732c1.381 0 2.5 1.119 2.5 2.5v1.983c0 .663-.263 1.299-.732 1.768s-1.105.732-1.768.732c-1.381 0-2.5-1.119-2.5-2.5z"/><path d="m27 23.5c0-1.381-1.119-2.5-2.5-2.5-.663 0-1.299.263-1.768.732s-.732 1.105-.732 1.768v6.5h6s-.615-2.461-.881-3.522c-.079-.318-.119-.643-.119-.97zm-17 6.5h-6s.615-2.461.881-3.522c.079-.318.119-.643.119-.97v-2.008c0-1.381 1.119-2.5 2.5-2.5.663 0 1.299.263 1.768.732s.732 1.105.732 1.768z" fill="#fbc546"/><path d="m13.415 23.523c-.269-.457-.415-.983-.415-1.523v-4c0-.796.316-1.559.879-2.121.562-.563 1.325-.879 2.121-.879s1.559.316 2.121.879c.563.562.879 1.325.879 2.121v4c0 .54-.146 1.066-.415 1.523-.516-.931-4.654-.931-5.17 0z" fill="#722245"/><path d="m13.415 23.523c.516-.931 1.501-1.523 2.585-1.523 1.084 0 2.069.592 2.585 1.523-.128.217-.283.418-.464.598-.562.563-1.325.879-2.121.879s-1.559-.316-2.121-.879c-.181-.18-.336-.381-.464-.598z" fill="#ca3b8f"/></g></svg>