<svg clip-rule="evenodd" fill-rule="evenodd" stroke-linejoin="round" stroke-miterlimit="1.41421" viewBox="0 0 32 32" xmlns="http://www.w3.org/2000/svg" xmlns:xlink="http://www.w3.org/1999/xlink"><clipPath id="a"><path clip-rule="evenodd" d="m0 0h32v32h-32z"/></clipPath><metadata/><path d="m0 0h32v32h-32z" fill="none"/><g clip-path="url(#a)"><circle cx="16" cy="16" r="16"/><circle cx="16" cy="16" fill="#e8272e" r="14"/><path d="m14.899 8.771.828-1.675c1.785.436 3.512 1.097 5.181 1.983l-.924 1.715c-1.606-.874-3.3-1.548-5.085-2.023zm8.186 9.65c-.026.796-.049 1.413-.068 1.849-.019.437-.058.893-.115 1.368-.058.475-.11.818-.154 1.03-.045.212-.145.437-.299.674-.154.238-.295.392-.424.463-.128.07-.337.141-.626.211-.289.071-.562.11-.818.116-.257.006-.623.01-1.098.01-.565 0-1.002-.007-1.31-.02s-.607-.051-.896-.115-.491-.141-.606-.231c-.116-.09-.222-.241-.318-.453s-.154-.44-.173-.684c-.02-.244-.029-.578-.029-1.001v-.02c-1.053.899-2.164 1.721-3.333 2.466l-1.194-1.541c.848-.501 1.702-1.092 2.562-1.772l-1.695-.462c.308-1.028.501-1.689.578-1.984l-.771.501-.963-2.1v7.705h-1.926v-5.971c-.372 1.078-.828 2.073-1.367 2.985l-1.04-2.061c1.194-2.003 1.983-3.916 2.369-5.74h-1.946v-1.733h1.984v-2.254c-.385.052-.944.116-1.675.193l-.174-1.637c1.99-.206 3.865-.578 5.624-1.117l.482 1.54c-.719.257-1.496.482-2.331.675v2.6h2.196v1.733h-2.042l1.85 3.506c.321-1.413.545-2.825.674-4.238l1.868.27c-.244 2.671-.732 5.143-1.464 7.416.642-.54 1.22-1.066 1.734-1.58v-8.552h2.003v6.241c1.836-2.401 3.319-5.336 4.449-8.803l1.714.771c-.475 1.477-1.078 2.973-1.81 4.488l1.656-.366c.565 2.645 1.002 5.329 1.31 8.051l-1.888.289c-.321-2.851-.732-5.406-1.232-7.666-1.182 2.337-2.581 4.391-4.199 6.163v1.869c0 .449.061.722.183.818.122.097.497.145 1.127.145.642 0 1.046-.071 1.213-.212.257-.218.411-.873.462-1.965.013-.372.032-1.098.058-2.176z" fill="#fff" fill-rule="nonzero"/></g></svg>