<svg clip-rule="evenodd" fill-rule="evenodd" stroke-linejoin="round" stroke-miterlimit="2" viewBox="0 0 32 32" xmlns="http://www.w3.org/2000/svg" xmlns:xlink="http://www.w3.org/1999/xlink"><clipPath id="a"><path clip-rule="evenodd" d="m0 0h32v32h-32z"/></clipPath><metadata/><path d="m0 0h32v32h-32z" fill="none"/><g clip-path="url(#a)"><path d="m14 8v-4c0-1.061.421-2.078 1.172-2.828.75-.751 1.767-1.172 2.828-1.172h6c1.061 0 2.078.421 2.828 1.172.751.75 1.172 1.767 1.172 2.828v1.1c1.281 1.307 2 3.066 2 4.898v6.517c0 2.121-.843 4.156-2.343 5.657l-.936.936-3.335 8.892c-4.998 0-9.996 0-14.994 0l5.938-9.502-.93-.698c-1.505-1.164-2.372-2.897-2.4-4.8v-.757l-1.879 1.878c-1.17 1.171-3.072 1.171-4.242 0-1.171-1.17-1.171-3.072 0-4.242l.878-.879h-.757c-1.656 0-3-1.344-3-3s1.344-3 3-3h.757l-.878-.879c-1.171-1.17-1.171-3.072 0-4.242 1.17-1.171 3.072-1.171 4.242 0l2 2c1.132 1.131 1.17 2.944.115 4.121h2.764z"/><path d="m25 22-3 8h-10l5-8 1-1h6z" fill="#7ac85b"/><path d="m23.002 5c1.326 0 2.597.527 3.534 1.464s1.464 2.208 1.464 3.534v6.517c0 1.591-.632 3.117-1.757 4.242l-1.243 1.243h-8c-.8-.6-1.6-1.2-2.4-1.8-.743-.557-1.277-1.371-1.492-2.275-.072-.303-.107-.614-.108-.925v-5h6l4-7z" fill="#b1ed9b"/><path d="m26 4c0-.53-.211-1.039-.586-1.414s-.884-.586-1.414-.586h-6c-.53 0-1.039.211-1.414.586s-.586.884-.586 1.414v12c0 .53.211 1.039.586 1.414s.884.586 1.414.586h6c.53 0 1.039-.211 1.414-.586s.586-.884.586-1.414z" fill="#fff"/><path d="m23 3h1c.552 0 1 .448 1 1v12c0 .552-.448 1-1 1-.296 0-1-1-1-1h-4s-.722 1-1 1c-.552 0-1-.448-1-1 0-2.577 0-9.423 0-12 0-.552.448-1 1-1h1v1h4z"/><path d="m22 11c1.105 0 2 .895 2 2v4h-6v-4c0-1.105.895-2 2-2zm-1-5c1.104 0 2 .896 2 2s-.896 2-2 2-2-.896-2-2 .896-2 2-2z" fill="#333"/><path d="m13 10h7v1c0 .796-.316 1.559-.879 2.121-.562.563-1.325.879-2.121.879h-4z" fill="#b1ed9b"/><path d="m8.293 13.293-2 2c-.39.39-.39 1.024 0 1.414s1.024.39 1.414 0l2-2c.39-.39.39-1.024 0-1.414s-1.024-.39-1.414 0zm.707-2.293h-4c-.552 0-1-.448-1-1s.448-1 1-1h4c.552 0 1 .448 1 1s-.448 1-1 1zm.707-5.707-2-2c-.39-.39-1.024-.39-1.414 0s-.39 1.024 0 1.414l2 2c.39.39 1.024.39 1.414 0s.39-1.024 0-1.414z" fill="#fff"/></g></svg>