<svg clip-rule="evenodd" fill-rule="evenodd" stroke-linejoin="round" stroke-miterlimit="2" viewBox="0 0 32 32" xmlns="http://www.w3.org/2000/svg" xmlns:xlink="http://www.w3.org/1999/xlink"><clipPath id="a"><path clip-rule="evenodd" d="m0 0h32v32h-32z"/></clipPath><metadata/><path d="m0 0h32v32h-32z" fill="none"/><g clip-path="url(#a)"><path d="m13.968 8c.006-1.367.017-2.733.033-4.1.006-.164.018-.328.043-.491.043-.29.118-.575.224-.849.212-.55.547-1.051.975-1.458.402-.383.885-.68 1.408-.868.403-.144.823-.217 1.25-.233 2.066-.025 4.132-.025 6.198 0 .427.016.847.089 1.25.233.523.188 1.006.485 1.408.868.428.407.763.908.975 1.458.106.274.181.559.224.849.025.163.037.327.043.491l.001.099c.255.192.492.407.707.644.439.484.78 1.055 1.001 1.67.123.345.209.704.254 1.068.02.164.031.328.037.493.039 3.16.001 6.321.001 9.482-.005.391-.039.779-.116 1.163-.163.816-.497 1.595-.975 2.275-.197.28-.419.538-.658.783l-1.53 1.531-3.335 8.892h-14.851l-.067-.122 5.862-9.38-1.742-1.307c-.087-.067-.087-.067-.172-.137-.234-.204-.448-.427-.634-.677-.365-.495-.613-1.073-.721-1.678-.04-.226-.058-.454-.061-.684v-1.77c-.643.654-1.284 1.311-1.949 1.944-.312.288-.677.512-1.08.649-.37.127-.764.18-1.154.156-.374-.022-.743-.116-1.082-.274-.31-.144-.595-.342-.839-.581-.197-.195-.367-.416-.504-.657-.226-.396-.359-.844-.386-1.299-.028-.455.049-.916.225-1.337.144-.347.354-.66.613-.933.298-.302.594-.605.892-.906-.268-.002-.536-.005-.805-.008-.438-.015-.866-.115-1.259-.309-.809-.399-1.406-1.161-1.601-2.042-.06-.268-.082-.545-.066-.82.017-.298.079-.592.183-.872.127-.344.319-.664.561-.939.258-.293.573-.534.923-.707.393-.194.821-.294 1.259-.309.268-.003.536-.006.803-.008-.311-.31-.62-.623-.923-.942-.266-.288-.477-.621-.616-.988-.122-.32-.187-.66-.194-1.002-.019-.903.383-1.785 1.076-2.363.212-.178.449-.326.702-.438.344-.153.712-.237 1.087-.257.065-.002.13-.003.195-.002.523.015 1.035.158 1.485.428.181.109.349.238.505.382.73.695 1.443 1.408 2.138 2.138.255.276.46.593.599.943.168.423.238.885.203 1.34s-.175.9-.407 1.293c-.1.169-.217.328-.348.475z"/><path d="m25 22-3 8h-10l5-8 3-1z" fill="#663a1d"/><path d="m25.039 5c1.639.021 2.961 1.356 2.961 3v9.343c0 1.061-.421 2.078-1.172 2.829l-1.828 1.828h-8c-1.067-.8-2.133-1.6-3.2-2.4-.356-.267-.616-.652-.732-1.082-.045-.169-.067-.343-.068-.518v-6h6l6-7z" fill="#7f531d"/><path d="m26 4c0-.53-.211-1.039-.586-1.414s-.884-.586-1.414-.586h-6c-.53 0-1.039.211-1.414.586s-.586.884-.586 1.414v12c0 .53.211 1.039.586 1.414s.884.586 1.414.586h6c.53 0 1.039-.211 1.414-.586s.586-.884.586-1.414z" fill="#fff"/><path d="m23 3h1c.552 0 1 .448 1 1v12c0 .55-.444.997-.994 1h-.006l-1-1h-4l-1 1s0 0-.001 0c-.265 0-.519-.105-.706-.293-.188-.187-.293-.441-.293-.706 0-2.576 0-9.424 0-12.001 0-.552.448-1 1-1h1v1h4z"/><path d="m22 11c1.105 0 2 .895 2 2v4h-6v-4c0-1.105.895-2 2-2zm-1-5c1.104 0 2 .896 2 2s-.896 2-2 2-2-.896-2-2 .896-2 2-2z" fill="#333"/><path d="m13 10h7v.002c0 .795-.316 1.558-.878 2.12s-1.325.878-2.12.878c-1.9 0-4.002 0-4.002 0z" fill="#7f531d"/><path d="m9.028 13c.15.007.297.042.431.112.091.047.175.108.248.181.269.269.362.678.237 1.037-.047.134-.122.253-.217.357-.677.696-1.346 1.402-2.061 2.059-.113.098-.244.173-.389.215-.099.028-.202.041-.305.039-.38-.011-.729-.244-.885-.592-.049-.111-.079-.231-.085-.352-.008-.131.011-.263.054-.386.047-.134.122-.253.217-.357.677-.696 1.346-1.402 2.061-2.059.18-.156.4-.244.638-.254zm.012-3.999c.147.009.288.043.419.111.118.061.223.145.308.247.077.092.137.197.176.309.036.1.055.206.057.312.007.363-.19.71-.506.889-.14.08-.294.121-.454.13-1.36.027-2.72.027-4.08 0-.16-.009-.314-.05-.454-.13-.092-.052-.176-.119-.247-.198-.244-.269-.323-.66-.202-1.003.039-.112.099-.217.176-.309.085-.102.19-.186.308-.247.131-.068.272-.102.419-.111 1.36-.027 2.72-.027 4.08 0zm-2.012-6.001c.238.01.458.098.638.254.722.664 1.416 1.358 2.08 2.08.092.106.164.228.207.362.04.125.054.258.043.388-.01.121-.042.24-.095.35-.045.093-.104.178-.174.253-.262.276-.668.381-1.031.266-.144-.046-.272-.124-.383-.226-.696-.677-1.402-1.346-2.059-2.061-.092-.106-.164-.228-.207-.362-.109-.344-.021-.729.226-.991.071-.075.153-.138.243-.188.132-.073.278-.113.428-.123.028-.002.056-.002.084-.002z" fill="#fff"/></g></svg>