<svg clip-rule="evenodd" fill-rule="evenodd" stroke-linejoin="round" stroke-miterlimit="2" viewBox="0 0 32 32" xmlns="http://www.w3.org/2000/svg" xmlns:xlink="http://www.w3.org/1999/xlink"><clipPath id="a"><path clip-rule="evenodd" d="m0 0h32v32h-32z"/></clipPath><metadata/><path d="m0 0h32v32h-32z" fill="none"/><g clip-path="url(#a)"><path d="m11.236 8h2.732c.006-1.366.017-2.733.033-4.099.016-.427.089-.847.233-1.251.166-.46.416-.89.735-1.261.428-.497.979-.885 1.591-1.121.43-.166.881-.25 1.341-.267 2.066-.025 4.132-.025 6.198 0 .46.017.911.101 1.341.267.612.236 1.163.624 1.591 1.121.278.323.504.691.667 1.085l1.363-1.364c.313.13.626.259.939.389v15.857l-.002.136c-.014.395-.058.785-.145 1.171-.183.811-.536 1.582-1.03 2.25-.175.235-.367.454-.571.664l-1.531 1.531-3.335 8.892h-14.851l-.067-.122 5.862-9.38-1.742-1.307c-.087-.067-.087-.067-.172-.137-.234-.205-.449-.427-.634-.677-.365-.495-.614-1.074-.721-1.679-.04-.226-.058-.454-.061-.683v-1.772l-1.879 1.878c-1.17 1.171-3.072 1.171-4.242 0-1.171-1.17-1.171-3.072 0-4.242l.878-.879h-.757c-1.656 0-3-1.344-3-3s1.344-3 3-3h.757l-.878-.879c-1.171-1.17-1.171-3.072 0-4.242 1.17-1.171 3.072-1.171 4.242 0l2 2c1.132 1.131 1.17 2.944.115 4.121z"/><path d="m13 12v6c0 .63.296 1.222.8 1.6 1.167.875 3.2 2.4 3.2 2.4v1h7l2.828-2.828c.751-.751 1.172-1.768 1.172-2.829 0-3.706 0-12.343 0-12.343l-3 3-6 4z" fill="#434895"/><path d="m17 22h8l-3 8h-10z" fill="#373087"/><path d="m26 4c0-.53-.211-1.039-.586-1.414s-.884-.586-1.414-.586h-6c-.53 0-1.039.211-1.414.586s-.586.884-.586 1.414v12c0 .53.211 1.039.586 1.414s.884.586 1.414.586h6c.53 0 1.039-.211 1.414-.586s.586-.884.586-1.414z" fill="#fff"/><path d="m23 3h1c.552 0 1 .448 1 1v12c0 .552-.448 1-1 1-1.537 0-4.463 0-6 0-.552 0-1-.448-1-1 0-2.577 0-9.423 0-12 0-.552.448-1 1-1h1v1h4z"/><path d="m22 11c1.105 0 2 .895 2 2v4h-6v-4c0-1.105.895-2 2-2zm-1-5c1.104 0 2 .896 2 2s-.896 2-2 2-2-.896-2-2 .896-2 2-2z" fill="#333"/><path d="m13 10h9s-.382.573-.813 1.219c-.741 1.113-1.99 1.781-3.328 1.781-2.058 0-4.859 0-4.859 0z" fill="#434895"/><path d="m8.293 13.293-2 2c-.39.39-.39 1.024 0 1.414s1.024.39 1.414 0l2-2c.39-.39.39-1.024 0-1.414s-1.024-.39-1.414 0zm.707-2.293h-4c-.552 0-1-.448-1-1s.448-1 1-1h4c.552 0 1 .448 1 1s-.448 1-1 1zm.707-5.707-2-2c-.39-.39-1.024-.39-1.414 0s-.39 1.024 0 1.414l2 2c.39.39 1.024.39 1.414 0s.39-1.024 0-1.414z" fill="#fff"/></g></svg>