<svg clip-rule="evenodd" fill-rule="evenodd" stroke-linejoin="round" stroke-miterlimit="2" viewBox="0 0 32 32" xmlns="http://www.w3.org/2000/svg" xmlns:xlink="http://www.w3.org/1999/xlink"><clipPath id="a"><path clip-rule="evenodd" d="m0 0h32v32h-32z"/></clipPath><metadata/><path d="m0 0h32v32h-32z" fill="none"/><g clip-path="url(#a)"><path d="m14 7.816v-3.816c0-1.061.421-2.078 1.172-2.828.75-.751 1.767-1.172 2.828-1.172h6c1.061 0 2.078.421 2.828 1.172.751.75 1.172 1.767 1.172 2.828v2.042c1.276 1.546 2 3.507 2 5.563v5.738c0 1.591-.632 3.118-1.757 4.243l-1.522 1.522-3.335 8.892h-14.994l5.938-9.502-1.73-1.298c-.993-.768-1.6-1.938-1.6-3.2 0-.586 0-1.171 0-1.757l-1.879 1.878c-1.17 1.171-3.072 1.171-4.242 0-1.171-1.17-1.171-3.072 0-4.242l.878-.879h-.757c-1.656 0-3-1.344-3-3s1.344-3 3-3h.757l-.878-.879c-1.171-1.17-1.171-3.072 0-4.242 1.17-1.171 3.072-1.171 4.242 0l2 2c1.132 1.131 1.17 2.944.115 4.121.415.464.688 1.057.75 1.711.51-.773 1.197-1.426 2.014-1.895z"/><path d="m25 22-3 8h-10l5-8 1-1h6z" fill="#4f246c"/><path d="m19 11 9 3.5v2.843c-.002.525-.104 1.046-.304 1.531-.201.485-.498.925-.868 1.298l-1.828 1.828h-8s-2.033-1.525-3.2-2.4c-.504-.378-.8-.97-.8-1.6 0-1.459 0-4 0-4z" fill="#633a92"/><path d="m25 6c.606.404 1.145.905 1.59 1.481.524.676.916 1.452 1.151 2.275.172.601.257 1.224.259 1.849v2.895h-9v-3.5z" fill="#41186c"/><path d="m26 4c0-.53-.211-1.039-.586-1.414s-.884-.586-1.414-.586h-6c-.53 0-1.039.211-1.414.586s-.586.884-.586 1.414v12c0 .53.211 1.039.586 1.414s.884.586 1.414.586h6c.53 0 1.039-.211 1.414-.586s.586-.884.586-1.414z" fill="#fff"/><path d="m23 3h1c.552 0 1 .448 1 1v12c0 .55-.444.997-.994 1h-.006l-1-1h-4l-1 1s0 0-.001 0c-.265 0-.519-.105-.706-.293-.188-.187-.293-.441-.293-.706 0-2.576 0-9.424 0-12.001 0-.552.448-1 1-1h1v1h4z"/><path d="m22 11c1.105 0 2 .895 2 2v4h-6v-4c0-1.105.895-2 2-2zm-1-5c1.104 0 2 .896 2 2s-.896 2-2 2-2-.896-2-2 .896-2 2-2z" fill="#333"/><path d="m13 12.999c0-1.775 1.177-3.335 2.884-3.823 1.929-.551 4.116-1.176 4.116-1.176v1.737c0 1.34-.888 2.517-2.176 2.885-2.055.587-4.824 1.378-4.824 1.378z" fill="#41186c"/><path d="m8.293 13.293-2 2c-.39.39-.39 1.024 0 1.414s1.024.39 1.414 0l2-2c.39-.39.39-1.024 0-1.414s-1.024-.39-1.414 0zm.707-2.293h-4c-.552 0-1-.448-1-1s.448-1 1-1h4c.552 0 1 .448 1 1s-.448 1-1 1zm.707-5.707-2-2c-.39-.39-1.024-.39-1.414 0s-.39 1.024 0 1.414l2 2c.39.39 1.024.39 1.414 0s.39-1.024 0-1.414z" fill="#fff"/></g></svg>