<svg clip-rule="evenodd" fill-rule="evenodd" stroke-linecap="round" stroke-linejoin="round" stroke-miterlimit="1.5" viewBox="0 0 32 32" xmlns="http://www.w3.org/2000/svg" xmlns:xlink="http://www.w3.org/1999/xlink"><clipPath id="a"><path clip-rule="evenodd" d="m0 0h32v32h-32z"/></clipPath><metadata/><path d="m0 0h32v32h-32z" fill="none"/><g clip-path="url(#a)"><circle cx="16" cy="16" r="16"/><circle cx="16" cy="16" fill="#d89728" r="14"/><path d="m16 4h.002c3.182 0 6.234 1.264 8.484 3.514s3.514 5.302 3.514 8.484v.002" fill="none" stroke="#edcf9e" stroke-width="2"/><path d="m25 17c0-.53-.211-1.039-.586-1.414s-.884-.586-1.414-.586c-3.463 0-10.537 0-14 0-.53 0-1.039.211-1.414.586s-.586.884-.586 1.414v12l9 2 9-2z"/></g></svg>