<svg clip-rule="evenodd" fill-rule="evenodd" stroke-linecap="round" stroke-linejoin="round" stroke-miterlimit="1.5" viewBox="0 0 32 32" xmlns="http://www.w3.org/2000/svg" xmlns:xlink="http://www.w3.org/1999/xlink"><clipPath id="a"><path clip-rule="evenodd" d="m0 0h32v32h-32z"/></clipPath><clipPath id="b"><path clip-rule="evenodd" d="m16 9 9 4 3-7z"/></clipPath><metadata/><path d="m0 0h32v32h-32z" fill="none"/><g clip-path="url(#a)"><g fill="none" stroke="#000" stroke-width="4"><path d="m16 9 9 4 3-7z"/><path d="m30 13s-5.61-2.805-10.186-5.093c-3.66-1.83-7.968-1.83-11.628 0-3.061 1.53-6.186 3.093-6.186 3.093 0 2.448 1.394 4.682 3.592 5.759 2.127 1.041 4.408 2.158 4.408 2.158s3.349 1.675 5.713 2.857c1.505.752 3.162 1.149 4.844 1.161 3.524.024 9.443.065 9.443.065z" stroke-linejoin="miter"/><path d="m11 16s-1.169 1.169-2.243 2.243c-1.125 1.125-1.757 2.651-1.757 4.242v2.515l8-8z"/><path d="m25 18s1.169 1.169 2.243 2.243c1.125 1.125 1.757 2.651 1.757 4.242v2.515l-8-8z"/></g><path d="m11 16s-1.169 1.169-2.243 2.243c-1.125 1.125-1.757 2.651-1.757 4.242v2.515l8-8z" fill="#a9c3d4"/><path d="m2 11s3.125-1.563 6.186-3.093c3.66-1.83 7.968-1.83 11.628 0 4.576 2.288 10.186 5.093 10.186 5.093v10l-6.042-.042z" fill="#78a0ba"/><path d="m6.085 17-.493-.241c-2.198-1.077-3.592-3.311-3.592-5.759h1.657c1.541 0 3.061.359 4.439 1.048.891.445 1.899.949 2.667 1.334.822.411 1.687.73 2.579.953.515.129 1.096.275 1.583.396.703.176 1.346.54 1.858 1.052l7.175 7.175-3.401-.023c-1.682-.012-3.339-.409-4.844-1.161l-5.547-2.774-1.166-1z" fill="#ebf1f5"/><path d="m15 17-.828.828c-.751.751-1.768 1.172-2.829 1.172h-1.177l-.166-.083-3.915-1.917z" fill="#bc84a0"/><path d="m16 9 9 4 3-7z" fill="#78a0ba"/><g clip-path="url(#b)"><path d="m0 11h4.2c1.19 0 2.371.214 3.485.632 2.403.901 6.886 2.582 10.198 3.824 2.666 1 4.914 2.873 6.379 5.314 2.666 4.444 6.738 11.23 6.738 11.23v4h-31z" fill="#ebf1f5"/></g><path d="m14 11c0-.552-.448-1-1-1s-1 .448-1 1v1c0 .552.448 1 1 1s1-.448 1-1c0-.322 0-.678 0-1z"/><path d="m7 12.5c0-.133-.053-.26-.146-.354-.094-.093-.221-.146-.354-.146s-.26.053-.354.146c-.093.094-.146.221-.146.354v1c0 .133.053.26.146.354.094.093.221.146.354.146s.26-.053.354-.146c.093-.094.146-.221.146-.354 0-.305 0-.695 0-1z" fill="#7492a5"/><path d="m25 18s1.169 1.169 2.243 2.243c1.125 1.125 1.757 2.651 1.757 4.242v2.515l-8-8z" fill="#46708c"/></g></svg>