<svg clip-rule="evenodd" fill-rule="evenodd" stroke-linecap="square" stroke-linejoin="round" stroke-miterlimit="1.5" viewBox="0 0 32 32" xmlns="http://www.w3.org/2000/svg" xmlns:xlink="http://www.w3.org/1999/xlink"><clipPath id="a"><path clip-rule="evenodd" d="m0 0h32v32h-32z"/></clipPath><clipPath id="b"><path clip-rule="evenodd" d="m2 16h28v9h-28z"/></clipPath><metadata/><path d="m0 0h32v32h-32z" fill="none"/><g clip-path="url(#a)"><path d="m6.337 13.325 3.825-7.65c1.106-2.211 3.366-3.607 5.838-3.607s4.732 1.396 5.838 3.607l3.825 7.65c2.074.709 3.337 1.647 3.337 2.675v1.172c0 .542-.147 1.074-.425 1.539l-5.675 9.5c-.01.018-.021.035-.032.053v.001c-.634.988-3.47 1.735-6.868 1.735s-6.234-.747-6.868-1.735v-.001c-.011-.018-.022-.035-.032-.053l-5.675-9.5c-.278-.465-.425-.997-.425-1.539v-1.172c0-1.028 1.263-1.966 3.337-2.675z" fill="none" stroke="#000" stroke-width="4"/><path d="m29 16v1.172c0 .542-.147 1.074-.425 1.539l-5.675 9.5c-.01.018-.021.035-.032.053v.001c-.634.988-3.47 1.735-6.868 1.735s-6.234-.747-6.868-1.735v-.001c-.011-.018-.022-.035-.032-.053l-5.675-9.5c-.278-.465-.425-.997-.425-1.539v-1.172z" fill="#338ceb"/><ellipse cx="16" cy="16" fill="#136cc5" rx="13" ry="4"/><path d="m16.335 12.001.334.004.331.007.328.009.327.011.324.014.321.017.319.018.315.022.313.023.31.026.307.028.304.03.3.033.297.035.293.037.29.039.286.041.282.043.278.045.275.047.27.049.266.052.261.053.257.054.253.057.248.059.243.06.239.062.233.064.115.032.113.033.113.033.111.034.109.034.109.035.107.035.105.035.104.036.103.036.102.036.1.037.099.037.097.038.096.038.094.038.093.039.091.039.09.039.089.04.086.04.086.041.084.04.082.042.081.041.079.042.077.042.076.042.074.043.073.043.071.043.069.043.068.044.066.044.064.045.063.045.061.045.059.045.057.045.056.046.053.046.052.047.051.046.048.047.047.047.044.047.043.048.041.048.04.048.037.048.035.049.034.048.031.049.03.049.027.05.026.049.024.05.021.05.02.05.018.05.015.051.014.05.012.051.009.051.007.051.006.052.003.051.001.052-.001.052-.003.051-.006.052-.007.051-.009.051-.012.051-.014.05-.015.051-.018.05-.02.05-.021.05-.024.05-.026.049-.027.05-.03.049-.031.049-.034.048-.035.049-.037.048-.04.048-.041.048-.043.048-.044.047-.047.047-.048.047-.051.046-.052.047-.053.046-.056.046-.057.045-.059.045-.061.045-.063.045-.064.045-.066.044-.068.044-.069.043-.071.043-.073.043-.074.043-.076.042-.077.042-.079.042-.081.041-.082.042-.084.04-.086.041-.086.04-.089.04-.09.039-.091.039-.093.039-.094.038-.096.038-.097.038-.099.037-.1.037-.102.036-.103.036-.104.036-.105.035-.107.035-.109.035-.109.034-.111.034-.113.033-.113.033-.115.032-.233.064-.239.062-.243.06-.248.059-.253.057-.257.054-.261.053-.266.052-.27.049-.275.047-.278.045-.282.043-.286.041-.29.039-.293.037-.297.035-.3.033-.304.03-.307.028-.31.026-.313.023-.315.022-.319.018-.321.017-.324.014-.327.011-.328.009-.331.007-.334.004-.335.001-.335-.001-.334-.004-.331-.007-.328-.009-.327-.011-.324-.014-.321-.017-.319-.018-.315-.022-.313-.023-.31-.026-.307-.028-.304-.03-.3-.033-.297-.035-.293-.037-.29-.039-.286-.041-.282-.043-.278-.045-.275-.047-.27-.049-.266-.052-.261-.053-.257-.054-.253-.057-.248-.059-.243-.06-.239-.062-.233-.064-.115-.032-.113-.033-.113-.033-.111-.034-.109-.034-.109-.035-.107-.035-.105-.035-.104-.036-.103-.036-.102-.036-.1-.037-.099-.037-.097-.038-.096-.038-.094-.038-.093-.039-.091-.039-.09-.039-.089-.04-.086-.04-.086-.041-.084-.04-.082-.042-.081-.041-.079-.042-.077-.042-.076-.042-.074-.043-.073-.043-.071-.043-.069-.043-.068-.044-.066-.044-.064-.045-.063-.045-.061-.045-.059-.045-.057-.045-.056-.046-.053-.046-.052-.047-.051-.046-.048-.047-.047-.047-.044-.047-.043-.048-.041-.048-.04-.048-.037-.048-.035-.049-.034-.048-.031-.049-.03-.049-.027-.05-.026-.049-.024-.05-.021-.05-.02-.05-.018-.05-.015-.051-.014-.05-.012-.051-.009-.051-.007-.051-.006-.052-.003-.051-.001-.052.001-.052.003-.051.006-.052.007-.051.009-.051.012-.051.014-.05.015-.051.018-.05.02-.05.021-.05.024-.05.026-.049.027-.05.03-.049.031-.049.034-.048.035-.049.037-.048.04-.048.041-.048.043-.048.044-.047.047-.047.048-.047.051-.046.052-.047.053-.046.056-.046.057-.045.059-.045.061-.045.063-.045.064-.045.066-.044.068-.044.069-.043.071-.043.073-.043.074-.043.076-.042.077-.042.079-.042.081-.041.082-.042.084-.04.086-.041.086-.04.089-.04.09-.039.091-.039.093-.039.094-.038.096-.038.097-.038.099-.037.1-.037.102-.036.103-.036.104-.036.105-.035.107-.035.109-.035.109-.034.111-.034.113-.033.113-.033.115-.032.233-.064.239-.062.243-.06.248-.059.253-.057.257-.054.261-.053.266-.052.27-.049.275-.047.278-.045.282-.043.286-.041.29-.039.293-.037.297-.035.3-.033.304-.03.307-.028.31-.026.313-.023.315-.022.319-.018.321-.017.324-.014.327-.011.328-.009.331-.007.334-.004.335-.001zm-.659 1.5-.321.004-.319.006-.317.009-.315.011-.312.013-.31.016-.306.018-.304.021-.301.022-.297.025-.295.027-.291.029-.288.031-.284.034-.28.035-.277.037-.273.039-.268.042-.265.043-.26.044-.256.047-.251.048-.247.05-.242.052-.237.053-.231.055-.227.056-.221.057-.218.06-.104.029-.104.03-.103.031-.101.031-.1.031-.099.031-.097.032-.095.032-.094.032-.092.032-.091.033-.089.033-.087.033-.086.033-.084.033-.082.034-.081.033-.079.034-.077.034-.075.033-.073.034-.072.034-.07.034-.067.034-.066.034-.064.033-.062.034-.06.033-.058.034-.056.033-.054.032-.051.033-.05.032-.047.032-.046.031-.043.031-.04.03-.039.03-.037.029-.034.028-.032.027-.03.027-.027.025-.026.025-.023.023-.021.022-.018.021-.017.02-.015.017-.012.017-.002.002.014.019.015.017.017.02.018.021.021.022.023.023.026.025.027.025.03.027.032.027.034.028.037.029.039.03.04.03.043.031.046.031.047.032.05.032.051.033.054.032.056.033.058.034.06.033.062.034.064.033.066.034.067.034.07.034.072.034.073.034.075.033.077.034.079.034.081.033.082.034.084.033.086.033.087.033.089.033.091.033.092.032.094.032.095.032.097.032.099.031.1.031.101.031.103.031.104.03.104.029.218.06.221.057.227.056.231.055.237.053.242.052.247.05.251.048.256.047.26.044.265.043.268.042.273.039.277.037.28.035.284.034.288.031.291.029.295.027.297.025.301.022.304.021.306.018.31.016.312.013.315.011.317.009.319.006.321.004.324.001.324-.001.321-.004.319-.006.317-.009.315-.011.312-.013.31-.016.306-.018.304-.021.301-.022.297-.025.295-.027.291-.029.288-.031.284-.034.28-.035.277-.037.273-.039.268-.042.265-.043.26-.044.256-.047.251-.048.247-.05.242-.052.237-.053.231-.055.227-.056.221-.057.218-.06.104-.029.104-.03.103-.031.101-.031.1-.031.099-.031.097-.032.095-.032.094-.032.092-.032.091-.033.089-.033.087-.033.086-.033.084-.033.082-.034.081-.033.079-.034.077-.034.075-.033.073-.034.072-.034.07-.034.067-.034.066-.034.064-.033.062-.034.06-.033.058-.034.056-.033.054-.032.051-.033.05-.032.047-.032.046-.031.043-.031.04-.03.039-.03.037-.029.034-.028.032-.027.03-.027.027-.025.026-.025.023-.023.021-.022.018-.021.017-.02.015-.017.012-.017.002-.002-.002-.002-.012-.017-.015-.017-.017-.02-.018-.021-.021-.022-.023-.023-.026-.025-.027-.025-.03-.027-.032-.027-.034-.028-.037-.029-.039-.03-.04-.03-.043-.031-.046-.031-.047-.032-.05-.032-.051-.033-.054-.032-.056-.033-.058-.034-.06-.033-.062-.034-.064-.033-.066-.034-.067-.034-.07-.034-.072-.034-.073-.034-.075-.033-.077-.034-.079-.034-.081-.033-.082-.034-.084-.033-.086-.033-.087-.033-.089-.033-.091-.033-.092-.032-.094-.032-.095-.032-.097-.032-.099-.031-.1-.031-.101-.031-.103-.031-.104-.03-.104-.029-.218-.06-.221-.057-.227-.056-.231-.055-.237-.053-.242-.052-.247-.05-.251-.048-.256-.047-.26-.044-.265-.043-.268-.042-.273-.039-.277-.037-.28-.035-.284-.034-.288-.031-.291-.029-.295-.027-.297-.025-.301-.022-.304-.021-.306-.018-.31-.016-.312-.013-.315-.011-.317-.009-.319-.006-.321-.004-.324-.001z" fill="#68aef9"/><path d="m7.012 11.977c.232.351 2.174-1.852 4.77-1.455 2.186.334 6.72.003 9.115.754 3.681 1.153 4.905 3.419 5.025 3.334.052.344.078.693.078 1.042v2.348l-10 1-10-1v-2.348c0-1.086.253-2.158.739-3.13z" fill="#fff"/><path d="m9 8 3.521-2.623 9.028 1.112 2.784 4.178.928 1.855c.329.659.552 1.364.661 2.088-.29.205-.634.329-.996.355-.57.04-1.13-.169-1.534-.573-.369-.369-.87-.577-1.392-.577s-1.023.208-1.392.577c-.574.574-1.223 1.223-1.729 1.729-.563.563-1.326.879-2.122.879h-1.235c-.669 0-1.31-.266-1.783-.739s-.739-1.114-.739-1.783c0-.001 0-.002 0-.002 0-.557-.276-1.077-.736-1.388-.461-.312-1.046-.375-1.562-.169-.098.039-.195.078-.293.117-1.254.502-2.669.041-3.397-1.059z" fill="#ffb8c9"/><path d="m9 8 1.162-2.325c1.106-2.211 3.366-3.607 5.838-3.607s4.732 1.396 5.838 3.607l2.495 4.992-.555.138c-.454.114-.927-.103-1.137-.522-.007-.014-.014-.028-.021-.042-.143-.288-.416-.488-.734-.54-.317-.051-.64.053-.867.28-.763.763-1.795 1.795-2.433 2.433-.375.375-.884.586-1.414.586-.056 0-.114 0-.172 0-.53 0-1.039-.211-1.414-.586s-.586-.884-.586-1.414c0-.914 0-1.996 0-2.919 0-.385-.22-.735-.567-.902-.346-.166-.758-.119-1.058.121-.795.636-1.727 1.381-2.409 1.927-.236.189-.544.261-.839.196s-.545-.259-.68-.529z" fill="#f63a69"/><path d="m2 16h28v9h-28z" fill="none"/><g clip-path="url(#b)"><path d="m16.335 12.001.334.004.331.007.328.009.327.011.324.014.321.017.319.018.315.022.313.023.31.026.307.028.304.03.3.033.297.035.293.037.29.039.286.041.282.043.278.045.275.047.27.049.266.052.261.053.257.054.253.057.248.059.243.06.239.062.233.064.115.032.113.033.113.033.111.034.109.034.109.035.107.035.105.035.104.036.103.036.102.036.1.037.099.037.097.038.096.038.094.038.093.039.091.039.09.039.089.04.086.04.086.041.084.04.082.042.081.041.079.042.077.042.076.042.074.043.073.043.071.043.069.043.068.044.066.044.064.045.063.045.061.045.059.045.057.045.056.046.053.046.052.047.051.046.048.047.047.047.044.047.043.048.041.048.04.048.037.048.035.049.034.048.031.049.03.049.027.05.026.049.024.05.021.05.02.05.018.05.015.051.014.05.012.051.009.051.007.051.006.052.003.051.001.052-.001.052-.003.051-.006.052-.007.051-.009.051-.012.051-.014.05-.015.051-.018.05-.02.05-.021.05-.024.05-.026.049-.027.05-.03.049-.031.049-.034.048-.035.049-.037.048-.04.048-.041.048-.043.048-.044.047-.047.047-.048.047-.051.046-.052.047-.053.046-.056.046-.057.045-.059.045-.061.045-.063.045-.064.045-.066.044-.068.044-.069.043-.071.043-.073.043-.074.043-.076.042-.077.042-.079.042-.081.041-.082.042-.084.04-.086.041-.086.04-.089.04-.09.039-.091.039-.093.039-.094.038-.096.038-.097.038-.099.037-.1.037-.102.036-.103.036-.104.036-.105.035-.107.035-.109.035-.109.034-.111.034-.113.033-.113.033-.115.032-.233.064-.239.062-.243.06-.248.059-.253.057-.257.054-.261.053-.266.052-.27.049-.275.047-.278.045-.282.043-.286.041-.29.039-.293.037-.297.035-.3.033-.304.03-.307.028-.31.026-.313.023-.315.022-.319.018-.321.017-.324.014-.327.011-.328.009-.331.007-.334.004-.335.001-.335-.001-.334-.004-.331-.007-.328-.009-.327-.011-.324-.014-.321-.017-.319-.018-.315-.022-.313-.023-.31-.026-.307-.028-.304-.03-.3-.033-.297-.035-.293-.037-.29-.039-.286-.041-.282-.043-.278-.045-.275-.047-.27-.049-.266-.052-.261-.053-.257-.054-.253-.057-.248-.059-.243-.06-.239-.062-.233-.064-.115-.032-.113-.033-.113-.033-.111-.034-.109-.034-.109-.035-.107-.035-.105-.035-.104-.036-.103-.036-.102-.036-.1-.037-.099-.037-.097-.038-.096-.038-.094-.038-.093-.039-.091-.039-.09-.039-.089-.04-.086-.04-.086-.041-.084-.04-.082-.042-.081-.041-.079-.042-.077-.042-.076-.042-.074-.043-.073-.043-.071-.043-.069-.043-.068-.044-.066-.044-.064-.045-.063-.045-.061-.045-.059-.045-.057-.045-.056-.046-.053-.046-.052-.047-.051-.046-.048-.047-.047-.047-.044-.047-.043-.048-.041-.048-.04-.048-.037-.048-.035-.049-.034-.048-.031-.049-.03-.049-.027-.05-.026-.049-.024-.05-.021-.05-.02-.05-.018-.05-.015-.051-.014-.05-.012-.051-.009-.051-.007-.051-.006-.052-.003-.051-.001-.052.001-.052.003-.051.006-.052.007-.051.009-.051.012-.051.014-.05.015-.051.018-.05.02-.05.021-.05.024-.05.026-.049.027-.05.03-.049.031-.049.034-.048.035-.049.037-.048.04-.048.041-.048.043-.048.044-.047.047-.047.048-.047.051-.046.052-.047.053-.046.056-.046.057-.045.059-.045.061-.045.063-.045.064-.045.066-.044.068-.044.069-.043.071-.043.073-.043.074-.043.076-.042.077-.042.079-.042.081-.041.082-.042.084-.04.086-.041.086-.04.089-.04.09-.039.091-.039.093-.039.094-.038.096-.038.097-.038.099-.037.1-.037.102-.036.103-.036.104-.036.105-.035.107-.035.109-.035.109-.034.111-.034.113-.033.113-.033.115-.032.233-.064.239-.062.243-.06.248-.059.253-.057.257-.054.261-.053.266-.052.27-.049.275-.047.278-.045.282-.043.286-.041.29-.039.293-.037.297-.035.3-.033.304-.03.307-.028.31-.026.313-.023.315-.022.319-.018.321-.017.324-.014.327-.011.328-.009.331-.007.334-.004.335-.001zm-.659 1.5-.321.004-.319.006-.317.009-.315.011-.312.013-.31.016-.306.018-.304.021-.301.022-.297.025-.295.027-.291.029-.288.031-.284.034-.28.035-.277.037-.273.039-.268.042-.265.043-.26.044-.256.047-.251.048-.247.05-.242.052-.237.053-.231.055-.227.056-.221.057-.218.06-.104.029-.104.03-.103.031-.101.031-.1.031-.099.031-.097.032-.095.032-.094.032-.092.032-.091.033-.089.033-.087.033-.086.033-.084.033-.082.034-.081.033-.079.034-.077.034-.075.033-.073.034-.072.034-.07.034-.067.034-.066.034-.064.033-.062.034-.06.033-.058.034-.056.033-.054.032-.051.033-.05.032-.047.032-.046.031-.043.031-.04.03-.039.03-.037.029-.034.028-.032.027-.03.027-.027.025-.026.025-.023.023-.021.022-.018.021-.017.02-.015.017-.012.017-.002.002.014.019.015.017.017.02.018.021.021.022.023.023.026.025.027.025.03.027.032.027.034.028.037.029.039.03.04.03.043.031.046.031.047.032.05.032.051.033.054.032.056.033.058.034.06.033.062.034.064.033.066.034.067.034.07.034.072.034.073.034.075.033.077.034.079.034.081.033.082.034.084.033.086.033.087.033.089.033.091.033.092.032.094.032.095.032.097.032.099.031.1.031.101.031.103.031.104.03.104.029.218.06.221.057.227.056.231.055.237.053.242.052.247.05.251.048.256.047.26.044.265.043.268.042.273.039.277.037.28.035.284.034.288.031.291.029.295.027.297.025.301.022.304.021.306.018.31.016.312.013.315.011.317.009.319.006.321.004.324.001.324-.001.321-.004.319-.006.317-.009.315-.011.312-.013.31-.016.306-.018.304-.021.301-.022.297-.025.295-.027.291-.029.288-.031.284-.034.28-.035.277-.037.273-.039.268-.042.265-.043.26-.044.256-.047.251-.048.247-.05.242-.052.237-.053.231-.055.227-.056.221-.057.218-.06.104-.029.104-.03.103-.031.101-.031.1-.031.099-.031.097-.032.095-.032.094-.032.092-.032.091-.033.089-.033.087-.033.086-.033.084-.033.082-.034.081-.033.079-.034.077-.034.075-.033.073-.034.072-.034.07-.034.067-.034.066-.034.064-.033.062-.034.06-.033.058-.034.056-.033.054-.032.051-.033.05-.032.047-.032.046-.031.043-.031.04-.03.039-.03.037-.029.034-.028.032-.027.03-.027.027-.025.026-.025.023-.023.021-.022.018-.021.017-.02.015-.017.012-.017.002-.002-.002-.002-.012-.017-.015-.017-.017-.02-.018-.021-.021-.022-.023-.023-.026-.025-.027-.025-.03-.027-.032-.027-.034-.028-.037-.029-.039-.03-.04-.03-.043-.031-.046-.031-.047-.032-.05-.032-.051-.033-.054-.032-.056-.033-.058-.034-.06-.033-.062-.034-.064-.033-.066-.034-.067-.034-.07-.034-.072-.034-.073-.034-.075-.033-.077-.034-.079-.034-.081-.033-.082-.034-.084-.033-.086-.033-.087-.033-.089-.033-.091-.033-.092-.032-.094-.032-.095-.032-.097-.032-.099-.031-.1-.031-.101-.031-.103-.031-.104-.03-.104-.029-.218-.06-.221-.057-.227-.056-.231-.055-.237-.053-.242-.052-.247-.05-.251-.048-.256-.047-.26-.044-.265-.043-.268-.042-.273-.039-.277-.037-.28-.035-.284-.034-.288-.031-.291-.029-.295-.027-.297-.025-.301-.022-.304-.021-.306-.018-.31-.016-.312-.013-.315-.011-.317-.009-.319-.006-.321-.004-.324-.001z" fill="#68aef9"/></g></g></svg>