<svg clip-rule="evenodd" fill-rule="evenodd" stroke-linecap="round" stroke-linejoin="round" stroke-miterlimit="1.5" viewBox="0 0 32 32" xmlns="http://www.w3.org/2000/svg" xmlns:xlink="http://www.w3.org/1999/xlink"><clipPath id="a"><path clip-rule="evenodd" d="m0 0h32v32h-32z"/></clipPath><metadata/><path d="m0 0h32v32h-32z" fill="none"/><g clip-path="url(#a)"><path d="m16.6 7.25c.571-.163 1.17-.25 1.784-.25h.562c2.213 0 4.274 1.131 5.462 2.999.819 1.287 1.592 2.501 1.592 2.501s-2.56-.914-4.583-1.637c-.452-.161-.91-.3-1.374-.417l1.957 1.054-.871.218c1.068.743 1.883 1.818 2.303 3.078.711 2.132 1.568 4.704 1.568 4.704s-1.263-1.105-2.369-2.073c-1.083-.947-2.282-1.753-3.569-2.396-1.257-.629-2.586-1.1-3.956-1.406-.082.047-.164.095-.245.145l-.139.524c-.481 1.803-.864 3.63-1.148 5.474l-1.574 10.232-3.74-9.35c-.173-.433-.364-.859-.573-1.276-.943-1.885-3.687-7.374-3.687-7.374h.001c1.153.231 2.23.635 3.207 1.182-.805-2.201-2.011-4.243-3.566-6.019-.09-.104-.142-.163-.142-.163s.576.082 1.261.18c1.425.204 2.695 1.004 3.493 2.202.001 0 .001 0 .001.001.076.114.147.229.214.347.049-.297.104-.594.163-.89.704-3.518 1.368-6.84 1.368-6.84s.086.172.222.445c1.107 2.213 1.711 4.641 1.773 7.112 1.13-2.814 3.017-5.316 5.521-7.194.305-.229.484-.363.484-.363z" fill="none" stroke="#000" stroke-width="4"/><path d="m13.745 6.292c1.021-1.486 2.288-2.817 3.771-3.929.305-.229.484-.363.484-.363s-2.126 7.974-3.278 12.294c-.481 1.803-.864 3.63-1.148 5.474-.587 3.817-1.574 10.232-1.574 10.232s-.605-6.654-1.149-12.643c-.004-.035-.007-.069-.009-.104l.158-.253z" fill="#5b9c41"/><path d="m13.745 6.292-.464 4.178c-.186 1.674-.666 3.301-1.419 4.807-.45.899-.862 1.723-.862 1.723l-.158.253c-.334-3.933.727-7.797 2.903-10.961z" fill="#487a33"/><path d="m12 30-1.923-5h1.923zm-3.36-21.2 1.36-6.8s.086.172.222.445c1.169 2.338 1.778 4.916 1.778 7.53v8.031c0-3.24-3.36-9.206-3.36-9.206z" fill="#5b9c41"/><path d="m8.64 8.8.232.291c2.025 2.53 3.128 5.675 3.128 8.915v6.994h-1.923l-.09-.233c-1.951-5.073-2.421-10.597-1.355-15.927z" fill="#487a33"/><path d="m8 16s.26-.521.593-1.187c.87-1.739.741-3.812-.338-5.43 0-.001 0-.001-.001-.001-.798-1.198-2.068-1.998-3.493-2.202-.685-.098-1.261-.18-1.261-.18s.052.059.142.163c2.2 2.514 3.703 5.561 4.358 8.837z" fill="#b7913a"/><path d="m12 30s-2.853-7.132-3.74-9.35c-.173-.433-.364-.859-.573-1.276-.943-1.885-3.687-7.374-3.687-7.374h.001c5.637 1.128 9.447 6.414 8.734 12.118-.397 3.182-.735 5.882-.735 5.882z" fill="#5b9c41"/><path d="m12 12s.152-.38.372-.93c.983-2.458 3.364-4.07 6.012-4.07h.562c2.213 0 4.274 1.131 5.462 2.999.819 1.287 1.592 2.501 1.592 2.501s-2.56-.914-4.583-1.637c-1.6-.571-3.285-.863-4.983-.863 0 0 0 0-.001 0-.934 0-1.848.277-2.626.795-.837.558-1.807 1.205-1.807 1.205z" fill="#b7913a"/><path d="m12 13s1.256-.754 2.51-1.506c1.575-.945 3.493-1.129 5.219-.502 0 .001.001.001.001.001 1.75.636 3.113 2.037 3.702 3.803.711 2.132 1.568 4.704 1.568 4.704s-1.263-1.105-2.369-2.073c-1.083-.947-2.282-1.753-3.569-2.396-1.369-.684-2.822-1.183-4.322-1.483-1.325-.265-2.74-.548-2.74-.548z" fill="#b7913a"/><path d="m10 19s0-1.597 0-3.143c0-1.82.768-3.555 2.114-4.779 0 0 .001 0 .001-.001 2.028-1.844 4.999-2.208 7.413-.908 1.328.715 2.472 1.331 2.472 1.331s-2.483.621-4.254 1.064c-1.155.288-2.253.774-3.243 1.434-.001 0-.001 0-.001.001-.994.662-1.868 1.489-2.585 2.445-.86 1.146-1.917 2.556-1.917 2.556z" fill="#dbc38c"/></g></svg>