<svg clip-rule="evenodd" fill-rule="evenodd" stroke-linecap="round" stroke-linejoin="round" stroke-miterlimit="1.5" viewBox="0 0 32 32" xmlns="http://www.w3.org/2000/svg" xmlns:xlink="http://www.w3.org/1999/xlink"><clipPath id="a"><path clip-rule="evenodd" d="m0 0h32v32h-32z"/></clipPath><metadata/><path d="m0 0h32v32h-32z" fill="none"/><g clip-path="url(#a)"><path d="m2 5c.005.001 5.088 1 14 1 8.915 0 14-1 14-1v1l-1 2s-.36.045-1.105.108l-.895 1.892s-1.151.114-3 .233v1.767h3v3h-3v12h1v3h-1-2-1v-3h1v-12h-12v12h1v3h-1-2-1v-3h1v-12h-3v-3h3v-1.767c-1.849-.119-3-.233-3-.233l-.895-1.892c-.745-.063-1.105-.108-1.105-.108l-1-2zm8 5.346v1.654h4.5v-1.51c-1.631-.022-3.163-.078-4.5-.144zm12 0c-1.337.066-2.869.122-4.5.144v1.51h4.5z" fill="none" stroke="#000" stroke-width="4"/><path d="m27 14-1-1h-20l-1 1v1h22z" fill="#740a0e"/><path d="m3 8-1-2v-1s7.582 2 14 2c6.721 0 14-2 14-2v1l-1 2s-4.021.5-13 .5-13-.5-13-.5z" fill="#2c2e31"/><path d="m28 7.885v-1h-24v1l1 2.115s5.057.5 11 .5 11-.5 11-.5z" fill="#740a0e"/><path d="m28 6.885-1 2.115s-1.151.114-3 .233v2.767h3v2h-3v16h-2v-16h-12v16h-2v-16h-3v-2h3v-2.767c-1.849-.119-3-.233-3-.233l-1-2.115zm-18 2.461v2.654h4.5v-2.51c-1.631-.022-3.163-.078-4.5-.144zm12 0c-1.337.066-2.869.122-4.5.144v2.51h4.5z" fill="#d41613"/><g fill="#404247"><path d="m21 27h4v3h-4z"/><path d="m7 27h4v3h-4z"/><path d="m3 7-1-2s5.085 1 14 1 14-1 14-1l-1 2s-4.021.5-13 .5-13-.5-13-.5z"/></g></g></svg>