<svg clip-rule="evenodd" fill-rule="evenodd" stroke-linecap="round" stroke-linejoin="round" stroke-miterlimit="1.5" viewBox="0 0 32 32" xmlns="http://www.w3.org/2000/svg" xmlns:xlink="http://www.w3.org/1999/xlink"><clipPath id="a"><path clip-rule="evenodd" d="m0 0h32v32h-32z"/></clipPath><metadata/><path d="m0 0h32v32h-32z" fill="none"/><g clip-path="url(#a)"><g fill="none"><path d="m16 15-8.296-11.453" stroke="#000" stroke-width="6"/><path d="m10.193 6.983-2.489-3.436" stroke="#fdef24" stroke-width="2"/><path d="m16 15 8.296-11.453" stroke="#000" stroke-width="6"/><path d="m21.807 6.983 2.489-3.436" stroke="#fdef24" stroke-width="2"/><path d="m16 15 .047 14.142" stroke="#000" stroke-width="6"/><path d="m16.033 24.899.014 4.243" stroke="#fdef24" stroke-width="2"/><path d="m16 15-13.436 4.412" stroke="#000" stroke-width="6"/><path d="m6.595 18.089-4.031 1.323" stroke="#fdef24" stroke-width="2"/><path d="m16 15 13.436 4.412" stroke="#000" stroke-width="6"/><path d="m25.405 18.089 4.031 1.323" stroke="#fdef24" stroke-width="2"/></g><path d="m15.049 3.927c.134-.412.518-.691.951-.691s.817.279.951.691c.925 2.847 2.192 6.747 2.192 6.747h7.094c.433 0 .817.279.951.691s-.013.863-.363 1.118c-2.422 1.76-5.739 4.169-5.739 4.169s1.267 3.9 2.192 6.747c.134.412-.013.864-.363 1.118-.351.255-.825.255-1.176 0-2.422-1.76-5.739-4.169-5.739-4.169s-3.317 2.409-5.739 4.169c-.351.255-.825.255-1.176 0-.35-.254-.497-.706-.363-1.118.925-2.847 2.192-6.747 2.192-6.747s-3.317-2.409-5.739-4.169c-.35-.255-.497-.706-.363-1.118s.518-.691.951-.691h7.094s1.267-3.9 2.192-6.747z" fill="#fdef24"/><path d="m16.121 1.238.12.007.119.012.118.017.117.021.116.026.115.03.112.035.111.039.108.043.107.047.105.051.102.055.1.059.098.062.095.067.092.07.089.073.088.077.084.08.08.084.078.087.075.09.071.093.067.097.064.099.061.102.056.105.053.107.048.11.044.112.033.095 1.749 5.384h5.661l.101.002.12.007.119.012.119.017.117.021.115.026.115.03.112.035.111.039.109.043.106.047.105.051.102.055.1.059.098.062.095.066.092.07.09.074.087.077.084.08.08.084.078.087.075.09.071.093.068.096.064.1.06.101.056.105.053.108.048.11.044.111.04.115.035.115.03.117.025.117.021.117.016.118.011.119.007.117.002.118-.003.117-.008.117-.011.116-.017.115-.02.115-.025.113-.03.112-.033.111-.038.109-.042.108-.047.107-.05.104-.055.103-.059.101-.062.099-.067.096-.071.094-.074.092-.079.089-.082.086-.085.083-.09.08-.093.076-.08.061-4.58 3.327 1.749 5.384.029.097.031.116.025.117.021.118.016.118.011.118.006.118.002.118-.002.117-.008.116-.012.117-.016.115-.02.114-.026.114-.029.111-.034.111-.038.11-.042.108-.046.106-.05.105-.055.103-.059.1-.062.099-.067.097-.071.094-.074.091-.079.089-.082.086-.086.083-.089.08-.093.077-.097.073-.099.069-.101.064-.104.061-.105.056-.107.051-.109.048-.11.042-.112.038-.112.034-.113.029-.114.025-.115.02-.115.015-.116.012-.115.006-.116.003-.116-.003-.116-.006-.115-.012-.115-.015-.115-.02-.114-.025-.113-.029-.113-.034-.111-.038-.11-.042-.109-.048-.107-.051-.105-.056-.104-.061-.102-.064-.082-.058-4.58-3.327-4.58 3.327-.082.058-.102.064-.104.061-.105.056-.107.051-.109.048-.11.042-.111.038-.113.034-.113.029-.114.025-.115.02-.115.015-.115.012-.116.006-.116.003-.116-.003-.115-.006-.116-.012-.115-.015-.115-.02-.114-.025-.113-.029-.113-.034-.111-.038-.11-.042-.109-.048-.107-.051-.105-.056-.104-.061-.101-.064-.099-.069-.097-.073-.093-.077-.089-.08-.086-.083-.082-.086-.079-.089-.074-.091-.071-.094-.067-.097-.062-.099-.059-.1-.055-.103-.05-.105-.046-.106-.042-.108-.038-.11-.034-.111-.029-.112-.026-.113-.02-.114-.016-.115-.012-.117-.008-.116-.002-.118.002-.117.006-.118.011-.118.016-.118.021-.118.025-.117.031-.116.029-.097 1.749-5.384-4.58-3.327-.08-.061-.093-.076-.089-.08-.086-.083-.082-.086-.079-.089-.074-.092-.071-.094-.067-.096-.062-.099-.059-.101-.055-.103-.05-.104-.047-.107-.042-.108-.038-.109-.033-.111-.03-.112-.025-.113-.02-.115-.017-.115-.011-.116-.008-.117-.003-.117.002-.118.007-.117.011-.119.016-.118.021-.117.025-.117.03-.117.035-.115.04-.115.044-.112.048-.109.053-.108.056-.104.06-.102.064-.1.068-.096.071-.093.075-.09.078-.087.08-.084.084-.08.087-.077.09-.074.092-.07.095-.066.098-.062.1-.059.102-.055.105-.051.106-.047.109-.043.111-.039.112-.035.115-.03.115-.026.117-.021.119-.017.119-.012.12-.007.101-.002h5.661l1.749-5.384.033-.095.044-.112.048-.11.053-.107.056-.105.061-.102.064-.1.067-.096.071-.093.075-.09.078-.087.08-.084.084-.08.087-.077.09-.073.092-.07.096-.067.097-.062.1-.059.102-.055.105-.051.107-.047.108-.043.111-.039.112-.035.115-.03.116-.026.117-.021.118-.017.119-.012.12-.007.121-.002.121.002zm-.161 1.999-.041.002-.039.004-.04.006-.039.007-.038.009-.038.01-.038.011-.036.013-.037.014-.035.016-.035.017-.034.018-.034.02-.032.021-.032.022-.031.023-.03.025-.029.026-.028.026-.027.028-.025.029-.025.03-.024.031-.022.032-.022.033-.02.034-.019.035-.017.036-.016.036-.015.038-.013.038-2.192 6.747h-7.094l-.041.001-.04.002-.039.004-.04.006-.039.007-.038.008-.038.01-.038.012-.036.013-.037.014-.035.016-.035.017-.034.018-.034.02-.032.021-.032.022-.031.023-.03.025-.029.025-.028.027-.027.028-.026.029-.024.03-.024.031-.023.032-.021.033-.02.034-.019.035-.017.035-.016.037-.015.038-.013.038-.012.038-.01.039-.008.039-.007.04-.006.039-.003.039-.003.039v.039l.001.039.002.039.004.039.006.038.006.039.009.037.01.038.011.037.012.036.015.036.015.036.017.035.018.034.02.034.02.032.023.033.023.031.025.03.026.03.027.029.029.027.03.027.031.025.032.025 5.739 4.169-2.192 6.747-.012.039-.01.039-.008.039-.007.039-.005.039-.004.04-.002.039-.001.039.001.039.002.039.004.038.006.039.007.038.008.038.01.037.011.037.013.037.014.036.015.035.017.035.018.034.02.034.021.033.022.032.023.031.025.031.026.029.028.029.028.028.03.026.031.026.032.024.034.023.033.022.035.02.035.019.036.017.036.016.037.014.037.012.037.012.038.009.038.009.038.006.038.005.039.004.038.002.039.001.039-.001.038-.002.039-.004.038-.005.039-.006.038-.009.037-.009.038-.012.037-.012.036-.014.036-.016.036-.017.035-.019.035-.02.034-.022.033-.023 5.739-4.169 5.739 4.169.033.023.034.022.035.02.035.019.036.017.036.016.036.014.037.012.038.012.037.009.038.009.039.006.038.005.039.004.038.002.039.001.039-.001.038-.002.039-.004.038-.005.038-.006.038-.009.038-.009.037-.012.037-.012.037-.014.036-.016.036-.017.035-.019.035-.02.033-.022.034-.023.032-.024.031-.026.03-.026.028-.028.028-.029.026-.029.025-.031.023-.031.022-.032.021-.033.02-.034.018-.034.017-.035.015-.035.014-.036.013-.037.011-.037.01-.037.008-.038.007-.038.006-.039.004-.038.002-.039.001-.039-.001-.039-.002-.039-.004-.04-.005-.039-.007-.039-.008-.039-.01-.039-.012-.039-2.192-6.747 5.739-4.169.032-.025.031-.025.03-.027.029-.027.027-.029.026-.03.025-.03.023-.031.023-.033.02-.032.02-.034.018-.034.017-.035.015-.036.015-.036.012-.036.011-.037.01-.038.009-.037.006-.039.006-.038.004-.039.002-.039.001-.039v-.039l-.003-.039-.003-.039-.006-.039-.007-.04-.008-.039-.01-.039-.012-.038-.013-.038-.015-.038-.016-.037-.017-.035-.019-.035-.02-.034-.021-.033-.023-.032-.024-.031-.024-.03-.026-.029-.027-.028-.028-.027-.029-.025-.03-.025-.031-.023-.032-.022-.032-.021-.034-.02-.034-.018-.035-.017-.035-.016-.037-.014-.036-.013-.038-.012-.038-.01-.038-.008-.039-.007-.04-.006-.039-.004-.04-.002-.041-.001h-7.094l-2.192-6.747-.013-.038-.015-.038-.016-.036-.017-.036-.019-.035-.02-.034-.022-.033-.022-.032-.024-.031-.025-.03-.025-.029-.027-.028-.028-.026-.029-.026-.03-.025-.031-.023-.032-.022-.032-.021-.034-.02-.034-.018-.035-.017-.035-.016-.037-.014-.036-.013-.038-.011-.038-.01-.038-.009-.039-.007-.04-.006-.039-.004-.041-.002-.04-.001-.04.001z"/></g></svg>