<svg clip-rule="evenodd" fill-rule="evenodd" stroke-linejoin="round" stroke-miterlimit="2" viewBox="0 0 32 32" xmlns="http://www.w3.org/2000/svg" xmlns:xlink="http://www.w3.org/1999/xlink"><clipPath id="a"><path clip-rule="evenodd" d="m0 0h32v32h-32z"/></clipPath><metadata/><path d="m0 0h32v32h-32z" fill="none"/><g clip-path="url(#a)"><path d="m21.103 1.019c1.069.082 1.87.927 1.897 1.998v4.412c1.045.369 2.005.968 2.804 1.767 1.406 1.406 2.196 3.313 2.196 5.302v.004c0 .503-.05 1-.149 1.486.657.361 1.266.815 1.806 1.355 1.488 1.489 2.33 3.504 2.343 5.607v.05c0 2.122-.843 4.157-2.343 5.657s-3.535 2.343-5.657 2.343c0 0-16 0-16.006 0-.884-.003-1.763-.148-2.599-.436-1.35-.465-2.564-1.293-3.488-2.38-.677-.796-1.195-1.724-1.517-2.718-.258-.794-.387-1.625-.39-2.46v-.056c.013-2.103.855-4.118 2.343-5.607.54-.54 1.149-.994 1.806-1.355-.099-.486-.149-.983-.149-1.486v-.004c0-1.989.79-3.896 2.196-5.302 1.05-1.05 2.38-1.756 3.814-2.047.087-1.591.758-3.099 1.891-4.231 1.217-1.218 2.868-1.901 4.589-1.901h4.51z"/><path d="m21 7.5c-.002.508-.087 1.011-.254 1.491l-.005.014c1.371.06 2.674.631 3.649 1.605 1.031 1.031 1.61 2.43 1.61 3.888v.004c0 .933-.237 1.842-.678 2.645 1.097.248 2.112.802 2.921 1.61 1.116 1.117 1.747 2.628 1.757 4.206v.037c0 1.591-.632 3.117-1.757 4.243-1.126 1.125-2.652 1.757-4.243 1.757h-16c-1.591 0-3.117-.632-4.243-1.757-1.125-1.126-1.757-2.652-1.757-4.243v-.037c.01-1.578.641-3.089 1.757-4.206.809-.808 1.824-1.362 2.921-1.61-.441-.803-.678-1.712-.678-2.645v-.004c0-1.458.579-2.857 1.61-3.888s2.43-1.61 3.888-1.61h.756c-.166-.474-.254-.978-.254-1.49 0-.001 0-.002 0-.003 0-1.191.473-2.333 1.315-3.175s1.984-1.315 3.175-1.315h4.51z" fill="#9a6f42"/><path d="m11.002 19c.795 0 1.558-.316 2.12-.878s.878-1.325.878-2.12c0-.64 0-1.316 0-1.958 0-1.681-1.363-3.044-3.044-3.044-.001 0-.001 0-.002 0-1.631 0-2.954 1.323-2.954 2.954v2.046c0 1.657 1.343 3 3 3z" fill="#fff"/><path d="m10 13.5c0-.398.158-.779.439-1.061.282-.281.663-.439 1.061-.439h.002c.397 0 .778.158 1.059.439s.439.662.439 1.059v2.985c0 .398-.158.78-.439 1.061-.282.281-.663.439-1.061.439s-.779-.158-1.061-.439c-.281-.281-.439-.663-.439-1.061 0-.911 0-2.071 0-2.983z"/><path d="m20.998 19c-.795 0-1.558-.316-2.12-.878s-.878-1.325-.878-2.12c0-.64 0-1.316 0-1.958 0-1.681 1.363-3.044 3.044-3.044h.002c1.631 0 2.954 1.323 2.954 2.954v2.046c0 1.657-1.343 3-3 3-.001 0-.001 0-.002 0z" fill="#fff"/><path d="m22 13.498c0-.397-.158-.778-.439-1.059s-.662-.439-1.059-.439h-.004c-.397 0-.778.158-1.059.439s-.439.662-.439 1.059v2.987c0 .398.158.779.439 1.06.281.28.662.438 1.059.438h.004c.397 0 .778-.158 1.059-.438.281-.281.439-.662.439-1.06z"/><path d="m11.591 25.436c-1.336-1.086-2.264-2.653-2.519-4.436h13.856c-.255 1.783-1.183 3.35-2.519 4.436-1.085-.924-7.733-.924-8.818 0z" fill="#452e18"/><path d="m16.507 24c1.434 0 2.817.512 3.902 1.436-1.204.978-2.738 1.564-4.409 1.564s-3.205-.586-4.409-1.564c1.085-.924 2.468-1.436 3.902-1.436z" fill="#1f140a"/></g></svg>