<svg clip-rule="evenodd" fill-rule="evenodd" stroke-linejoin="round" stroke-miterlimit="2" viewBox="0 0 32 32" xmlns="http://www.w3.org/2000/svg" xmlns:xlink="http://www.w3.org/1999/xlink"><clipPath id="a"><path clip-rule="evenodd" d="m0 0h32v32h-32z"/></clipPath><clipPath id="b"><path clip-rule="evenodd" d="m8.989 24.337c-.366.122-.769.023-1.037-.255-.267-.277-.351-.684-.216-1.045.173-.461.364-.972.561-1.495 1.024-2.732 3.636-4.542 6.554-4.542h.298c2.918 0 5.53 1.81 6.554 4.542.197.523.388 1.034.561 1.495.135.361.051.768-.216 1.045-.268.278-.671.377-1.037.255-.978-.326-2.119-.706-2.933-.978-.714-.238-1.462-.359-2.214-.359-.541 0-1.187 0-1.728 0-.752 0-1.5.121-2.214.359-.814.272-1.955.652-2.933.978z"/></clipPath><metadata/><path d="m0 0h32v32h-32z" fill="none"/><g clip-path="url(#a)"><path d="m29 0c1.657 0 3 1.343 3 3v7c0 .917-.412 1.739-1.061 2.288.659.713 1.061 1.666 1.061 2.712 0 1.479-.805 2.772-2 3.463v.537c0 3.448-1.37 6.754-3.808 9.192s-5.744 3.808-9.192 3.808c-1.324 0-2.676 0-4 0-3.448 0-6.754-1.37-9.192-3.808s-3.808-5.744-3.808-9.192v-2c0-8.284 6.716-15 15-15 3.377 0 6.493 1.116 9 2.999v-1.999c0-1.657 1.343-3 3-3h2z"/><path d="m15.042 4c3.477.011 6.632 1.387 8.958 3.619 0 0 1.006 1.924 1.684 4.663.73 2.944 1.172 6.718 2.316 6.718 0 2.917-1.159 5.715-3.222 7.778s-4.861 3.222-7.778 3.222h-4c-2.917 0-5.715-1.159-7.778-3.222s-3.222-4.861-3.222-7.778v-2c0-7.18 5.82-13 13-13z" fill="#fbc546"/><path d="m24 7.619c2.465 2.366 4 5.694 4 9.381v2c-2.208 0-4-1.792-4-4 0-1.046.402-1.998 1.06-2.711-.648-.551-1.06-1.372-1.06-2.289z" fill="#e59a10"/><g fill="#fff"><path d="m28 13c1.104 0 2 .896 2 2s-.896 2-2 2-2-.896-2-2 .896-2 2-2zm1-11c.552 0 1 .448 1 1v7c0 .552-.448 1-1 1-.611 0-1.389 0-2 0-.552 0-1-.448-1-1 0-1.732 0-5.268 0-7 0-.552.448-1 1-1z"/><path d="m20.192 8.253 4.769 2.725c.026.17.039.345.039.522v2.002c0 .928-.369 1.817-1.025 2.473s-1.545 1.025-2.473 1.025h-.002c-1.933 0-3.5-1.567-3.5-3.5 0-.657 0-1.345 0-2.002 0-.928.369-1.817 1.025-2.473.336-.337.734-.598 1.167-.772z"/><path d="m9.808 8.253-4.769 2.725c-.026.17-.039.345-.039.522v2.002c0 .928.369 1.817 1.025 2.473s1.545 1.025 2.473 1.025h.002c1.933 0 3.5-1.567 3.5-3.5 0-.657 0-1.345 0-2.002 0-.928-.369-1.817-1.025-2.473-.336-.337-.734-.598-1.167-.772z"/></g><path d="m19 12c0-.53.211-1.039.586-1.414s.884-.586 1.414-.586 1.039.211 1.414.586.586.884.586 1.414v1c0 .53-.211 1.039-.586 1.414s-.884.586-1.414.586-1.039-.211-1.414-.586-.586-.884-.586-1.414c0-.329 0-.671 0-1z"/><path d="m11 12c0-.53-.211-1.039-.586-1.414s-.884-.586-1.414-.586-1.039.211-1.414.586-.586.884-.586 1.414v1c0 .53.211 1.039.586 1.414s.884.586 1.414.586 1.039-.211 1.414-.586.586-.884.586-1.414c0-.329 0-.671 0-1z"/><path d="m8.989 24.337c-.366.122-.769.023-1.037-.255-.267-.277-.351-.684-.216-1.045.173-.461.364-.972.561-1.495 1.024-2.732 3.636-4.542 6.554-4.542h.298c2.918 0 5.53 1.81 6.554 4.542.197.523.388 1.034.561 1.495.135.361.051.768-.216 1.045-.268.278-.671.377-1.037.255-.978-.326-2.119-.706-2.933-.978-.714-.238-1.462-.359-2.214-.359-.541 0-1.187 0-1.728 0-.752 0-1.5.121-2.214.359-.814.272-1.955.652-2.933.978z" fill="#722245"/><g clip-path="url(#b)"><path d="m8 26s.054-.134.143-.358c1.122-2.804 3.837-4.642 6.856-4.642h.002c3.019 0 5.734 1.838 6.856 4.642.089.224.143.358.143.358z" fill="#ca3b8f"/></g></g></svg>