<svg clip-rule="evenodd" fill-rule="evenodd" stroke-linejoin="round" stroke-miterlimit="1.41421" viewBox="0 0 32 32" xmlns="http://www.w3.org/2000/svg" xmlns:xlink="http://www.w3.org/1999/xlink"><clipPath id="a"><path clip-rule="evenodd" d="m0 32v-32h32v32z"/></clipPath><metadata/><path d="m0 32v-32h32v32z" fill="none"/><g clip-path="url(#a)"><path d="m24 32c4.418 0 8-3.582 8-8 0-4.887 0-11.113 0-16 0-4.418-3.582-8-8-8-4.887 0-11.113 0-16 0-4.418 0-8 3.582-8 8v16c0 4.418 3.582 8 8 8z"/><path d="m24 30c1.591 0 3.117-.632 4.243-1.757 1.125-1.126 1.757-2.652 1.757-4.243 0-4.724 0-11.276 0-16 0-1.591-.632-3.117-1.757-4.243-1.126-1.125-2.652-1.757-4.243-1.757-4.724 0-11.276 0-16 0-1.591 0-3.117.632-4.243 1.757-1.125 1.126-1.757 2.652-1.757 4.243v16c0 1.591.632 3.117 1.757 4.243 1.126 1.125 2.652 1.757 4.243 1.757z" fill="#fff"/><path d="m23 23h-.404c-1.36-.016-2.681-.531-3.696-1.435-.696-.65-1.386-1.305-2.074-1.963.704-.71 1.409-1.419 2.116-2.127.656.628 1.315 1.253 1.979 1.873.464.413 1.068.644 1.693.652h.386v-1.293c0-.202.122-.384.309-.462.186-.077.402-.034.545.109.868.868 2.171 2.171 2.792 2.792.094.094.147.221.147.354s-.053.26-.147.354c-.621.621-1.924 1.924-2.792 2.792-.143.143-.359.186-.545.109-.187-.078-.309-.26-.309-.462zm-15.148.5h-1.852v-3c.635 0 1.27.007 1.905-.001.165-.006.327-.024.488-.06.442-.1.842-.32 1.173-.628 3.107-3.031 6.139-6.138 9.208-9.207.225-.219.463-.423.72-.604.587-.412 1.254-.708 1.953-.865.395-.09.796-.13 1.201-.135h.352s0-.654 0-1.293c0-.202.122-.384.309-.462.186-.077.402-.034.545.109.868.868 2.171 2.171 2.792 2.792.094.094.147.221.147.354s-.053.26-.147.354c-.621.621-1.924 1.924-2.792 2.792-.143.143-.359.186-.545.109-.187-.078-.309-.26-.309-.462 0-.64 0-1.295 0-1.295-.135 0-.27.001-.405.003-.062.002-.124.006-.185.011-.387.044-.759.166-1.089.375-.139.088-.267.19-.388.302-3.106 3.031-6.138 6.138-9.207 9.207-.258.251-.532.48-.831.68-.634.423-1.356.711-2.106.842-.31.054-.622.078-.937.082zm3.962-8.731c-.741-.71-1.485-1.416-2.235-2.117-.464-.413-1.068-.644-1.693-.652h-1.886v-3c.676 0 1.352-.007 2.028.001 1.319.048 2.586.556 3.572 1.434.781.73 1.557 1.467 2.328 2.207-.704.71-1.408 1.419-2.114 2.127z" fill="#333"/></g></svg>