<svg clip-rule="evenodd" fill-rule="evenodd" stroke-linejoin="round" stroke-miterlimit="1.5" viewBox="0 0 32 32" xmlns="http://www.w3.org/2000/svg" xmlns:xlink="http://www.w3.org/1999/xlink"><clipPath id="a"><path clip-rule="evenodd" d="m0 0h32v32h-32z"/></clipPath><metadata/><path d="m0 0h32v32h-32z" fill="none"/><g clip-path="url(#a)"><path d="m23 30h-2.93c-4.057 0-7.496-2.983-8.07-6.999 0-.001 0-.001 0-.001s1.225.816 2.109 1.406c.54.36 1.242.36 1.782 0 .001 0 .001-.001.002-.002.47-.313.752-.84.752-1.404s-.282-1.091-.752-1.404c-.501-.334-.893-.596-.893-.596v-3h4v3.444c0 2.917 1.159 5.715 3.222 7.778zm-9-11s-1.645 0-3.444 0c-2.917 0-5.715 1.159-7.778 3.222-.458.458-.778.778-.778.778s0-1.283 0-2.93c0-4.057 2.983-7.496 6.999-8.07h.001s-.816 1.225-1.406 2.109c-.36.54-.36 1.242 0 1.782 0 .001.001.001.002.002.313.47.84.752 1.404.752s1.091-.282 1.404-.752c.334-.501.596-.893.596-.893h3zm7-2h-3v-4h3.444c2.917 0 5.715-1.159 7.778-3.222.458-.458.778-.778.778-.778v2.93c0 4.057-2.983 7.496-6.999 8.07-.001 0-.001 0-.001 0s.816-1.225 1.406-2.109c.36-.54.36-1.242 0-1.782 0-.001-.001-.001-.002-.002-.313-.47-.84-.752-1.404-.752s-1.091.282-1.404.752zm-4-3h-4s0-1.645 0-3.444c0-2.917-1.159-5.715-3.222-7.778-.458-.458-.778-.778-.778-.778h2.93c4.057 0 7.496 2.983 8.07 6.999v.001s-1.225-.816-2.109-1.406c-.54-.36-1.242-.36-1.782 0-.001 0-.001.001-.002.002-.47.313-.752.84-.752 1.404s.282 1.091.752 1.404c.501.334.893.596.893.596z" fill="none" stroke="#000" stroke-width="4"/><circle cx="16" cy="16" r="8"/><path d="m20.155 11.673c.406.39.757.837 1.041 1.327h.248c2.917 0 5.715-1.159 7.778-3.222.458-.458.778-.778.778-.778v2.93c0 4.057-2.983 7.496-6.999 8.07-.001 0-.001 0-.001 0s.816-1.225 1.406-2.109c.36-.54.36-1.242 0-1.782 0-.001-.001-.001-.002-.002-.313-.47-.84-.752-1.404-.752-.368 0-.721.12-1.008.334.005.103.008.207.008.311 0 2.219-1.207 4.158-3 5.196v.248c0 2.917 1.159 5.715 3.222 7.778l.778.778h-2.93c-4.057 0-7.496-2.983-8.07-6.999 0-.001 0-.001 0-.001s1.225.816 2.109 1.406c.54.36 1.242.36 1.782 0 .001 0 .001-.001.002-.002.47-.313.752-.84.752-1.404 0-.368-.12-.721-.334-1.008-.103.005-.207.008-.311.008-1.699 0-3.235-.708-4.327-1.845l.327-2.155 6.871-6.386zm-12.411 4.411c.317.354.773.561 1.256.561.231 0 .456-.047.662-.135l-.255.88-.95 1.279-2.132 1.177c-1.314.548-2.521 1.35-3.547 2.376-.458.458-.778.778-.778.778v-1.172l1-1.828 4-4zm7.746-7.746c-.088.206-.135.431-.135.662 0 .368.12.721.334 1.008.103-.005.207-.008.311-.008.057 0 .113.001.169.002l-.169.998-5 5-.998.169c-.001-.056-.002-.112-.002-.169 0-1.069.28-2.073.771-2.943l.775-.927 1.442-1.306.337-.851 1.633-1.654zm3.011-3.011c.337.458.627.953.864 1.48l.056.614-.561.432-.557.016-.412-.275c-.453-.302-1.021-.351-1.511-.145l.017-.637 1.467-1.493zm-6.44.783c-.543-1.23-1.313-2.362-2.283-3.332-.458-.458-.778-.778-.778-.778h2.93c1.234 0 2.411.276 3.468.774l-.037.565-2.762 2.652z" fill="#b1cad5"/><path d="m2 21.828v-1.758c0-4.057 2.983-7.496 6.999-8.07h.001s-.816 1.225-1.406 2.109c-.36.54-.36 1.242 0 1.782 0 .001.001.001.002.002.045.068.094.132.148.191l-5.744 5.744zm14.169-11.826c1.545.043 2.946.672 3.986 1.671l-8.482 8.482c-.334-.347-.626-.735-.869-1.155h-.248c-1.466 0-2.903.293-4.231.846l3.337-3.336c.123-.053.239-.119.346-.199-.002-.047-.004-.094-.006-.142zm-.771-7.228c1.232.579 2.299 1.459 3.103 2.553l-2.121 2.122c-.094.039-.184.087-.271.145-.001 0-.001.001-.002.002-.278.184-.49.444-.617.742l-4.719 4.719c.528-.935 1.3-1.715 2.229-2.253v-.248c0-1.546-.326-3.058-.939-4.446zm3.967 4.033c.307.683.524 1.418.635 2.192v.001l-1.697-1.131z" fill="#dee9ed"/><circle cx="16" cy="16" r="2"/></g></svg>