<svg clip-rule="evenodd" fill-rule="evenodd" stroke-linejoin="round" stroke-miterlimit="2" viewBox="0 0 32 32" xmlns="http://www.w3.org/2000/svg" xmlns:xlink="http://www.w3.org/1999/xlink"><clipPath id="a"><path clip-rule="evenodd" d="m0 0h32v32h-32z"/></clipPath><metadata/><path d="m0 0h32v32h-32z" fill="none"/><g clip-path="url(#a)"><path d="m16 0c8.284 0 15 6.716 15 15v1c0 2.779-.89 5.465-2.511 7.679.331.544.511 1.173.511 1.821 0 .928-.369 1.819-1.025 2.475-.657.656-1.547 1.025-2.475 1.025h-.062c-.122.206-.263.401-.422.584-.275.315-.62.711-.91 1.044-.76.872-1.86 1.372-3.016 1.372h-5.09v-3h-2c-3.448 0-6.754-1.37-9.192-3.808s-3.808-5.744-3.808-9.192v-1c0-8.284 6.716-15 15-15z"/><path d="m16 27h-2c-2.917 0-5.715-1.159-7.778-3.222s-3.222-4.861-3.222-7.778v-1c0-7.18 5.82-13 13-13h.084c7.141.045 12.916 5.848 12.916 13v1c0 2.283-.71 4.493-2.007 6.334-.463-.218-10.993 4.666-10.993 4.666z" fill="#fbc546"/><path d="m21.964 19.343c.45.203.856.481 1.208.829l1.828 1.828-4 1c0-.667.538-3.115.927-3.66z" fill="#e59a10"/><path d="m14.413 21.217c-.259-.337-.413-.759-.413-1.217 0-.941 0-2.059 0-3 0-1.105.895-2 2-2s2 .895 2 2v3c0 .458-.154.88-.413 1.217-.54.268-2.23.25-3.174 0z" fill="#722245"/><path d="m14.413 21.217c.508-.142 1.041-.217 1.587-.217.546 0 1.079.075 1.587.217-.365.476-.94.783-1.587.783s-1.222-.307-1.587-.783z" fill="#ca3b8f"/><path d="m16 27v-7c0-1.657 1.343-3 3-3 .796 0 1.559.316 2.121.879.563.562.879 1.325.879 2.121v2h3.5c.521 0 1.03.116 1.493.334-.36.512-.766.995-1.215 1.444-2.063 2.063-4.861 3.222-7.778 3.222z" fill="#7e5108"/><path d="m27 25.5c0-.828-.672-1.5-1.5-1.5h-1.5v2l1 1h.5c.828 0 1.5-.672 1.5-1.5z" fill="#fbc546"/><path d="m22 23h3v4h-3z" fill="#7e5108"/><path d="m18 30h3.09c.578 0 1.128-.25 1.508-.686.29-.333.635-.729.91-1.044.317-.365.492-.831.492-1.314 0-.563 0-1.34 0-1.956 0-.265-.105-.52-.293-.707-.187-.188-.442-.293-.707-.293-1.185 0-3 0-3 0v-4c0-.265-.105-.52-.293-.707-.187-.188-.442-.293-.707-.293-.552 0-1 .448-1 1z" fill="#fbc546"/><path d="m9.502 16c.928 0 1.817-.369 2.473-1.025s1.025-1.545 1.025-2.473c0-.657 0-1.345 0-2.002 0-1.933-1.567-3.5-3.5-3.5h-.002c-.928 0-1.817.369-2.473 1.025s-1.025 1.545-1.025 2.473v2.002c0 1.933 1.567 3.5 3.5 3.5z" fill="#fff"/><path d="m8 10c0-.53.211-1.039.586-1.414s.884-.586 1.414-.586 1.039.211 1.414.586.586.884.586 1.414v2.983c0 .531-.211 1.039-.586 1.415-.375.375-.884.585-1.414.585s-1.039-.21-1.414-.585c-.375-.376-.586-.884-.586-1.415 0-.935 0-2.047 0-2.983z"/><path d="m22.498 16c-.928 0-1.817-.369-2.473-1.025s-1.025-1.545-1.025-2.473c0-.657 0-1.345 0-2.002 0-1.933 1.567-3.5 3.5-3.5h.002c.928 0 1.817.369 2.473 1.025s1.025 1.545 1.025 2.473v2.002c0 1.933-1.567 3.5-3.5 3.5z" fill="#fff"/><path d="m24 10c0-.53-.211-1.039-.586-1.414s-.884-.586-1.414-.586-1.039.211-1.414.586-.586.884-.586 1.414v2.983c0 .531.211 1.039.586 1.415.375.375.884.585 1.414.585s1.039-.21 1.414-.585c.375-.376.586-.884.586-1.415 0-.935 0-2.047 0-2.983z"/></g></svg>