<svg clip-rule="evenodd" fill-rule="evenodd" stroke-linejoin="round" stroke-miterlimit="1.41421" viewBox="0 0 32 32" xmlns="http://www.w3.org/2000/svg"><metadata/><path d="m0 0h32v32h-32z" fill="none"/><path d="m16.206 1.001.206.004.205.007.205.009.204.011.203.015.203.016.201.019.202.022.2.024.2.027.199.029.198.032.198.034.197.036.195.039.195.041.195.044.193.046.192.048.192.05.19.053.19.055.188.058.188.059.186.062.186.064.184.066.184.069.182.07.181.073.181.075.179.077.177.079.177.082.176.083.174.085.173.087.172.09.171.091.169.094.169.095.166.097.166.1.164.101.163.103.162.105.16.107.159.108.158.111.156.112.154.115.153.116.152.117.151.12.148.121.148.123.145.125.145.127.143.128.141.13.139.131.138.133.137.135.135.137.133.138.131.139.13.142.128.142.127.145.125.145.123.148.121.148.12.151.117.152.116.153.115.154.112.156.111.158.108.159.107.16.105.162.103.163.101.164.1.166.097.166.095.168.094.17.091.171.089.172.088.173.085.174.083.176.082.177.079.177.077.179.075.181.072.181.071.182.069.184.066.184.064.186.062.186.059.188.058.188.055.19.053.19.05.192.048.192.046.193.044.195.041.195.039.195.036.197.034.198.032.198.029.199.027.2.024.2.022.202.019.201.016.203.015.203.011.204.009.205.007.205.004.206.001.2v.012l-.001.174-.004.18-.005.18-.008.179-.01.178-.013.178-.014.177-.017.177-.019.176-.021.176-.024.174-.025.175-.028.173-.03.173-.031.172-.034.171-.036.171-.039.17-.04.169-.042.168-.044.168-.046.166-.048.166-.051.165-.052.165-.054.163-.056.162-.058.162-.06.16-.062.16-.063.158-.066.158-.067.157-.07.155-.071.155-.073.154-.074.152-.077.152-.078.15-.08.15-.082.148-.083.147-.085.146-.087.145-.089.144-.09.142-.092.142-.093.14-.095.139-.097.138-.098.136-.1.136-.102.134-.103.132-.105.132-.106.13-.107.129-.109.128-.111.126-.112.125-.114.123-.115.122-.117.121-.117.119-.12.118-.121.117-.122.115-.123.114-.125.112-.126.11-.128.11-.129.107-.13.107-.132.104-.132.103-.134.102-.136.1-.136.098-.138.097-.139.095-.14.093-.142.092-.142.09-.144.089-.145.087-.146.085-.147.083-.148.082-.15.08-.15.078-.152.077-.152.074-.154.073-.155.071-.155.07-.157.067-.158.066-.158.063-.16.062-.16.06-.162.058-.162.056-.163.054-.165.052-.165.05-.165.049-.167.046-.168.044-.168.042-.169.041-.17.038-.171.036-.171.034-.172.031-.173.03-.173.028-.175.025-.174.024-.176.021-.176.019-.177.017-.177.014-.178.013-.178.01-.179.008-.18.005-.18.004-.174.001h-4.012l-.174-.001-.18-.004-.18-.005-.179-.008-.178-.01-.178-.013-.177-.014-.177-.017-.176-.019-.176-.021-.174-.024-.175-.025-.173-.028-.173-.03-.172-.031-.171-.034-.171-.036-.17-.038-.169-.041-.168-.042-.168-.044-.167-.046-.165-.049-.165-.05-.165-.052-.163-.054-.162-.056-.162-.058-.16-.06-.16-.062-.158-.063-.158-.066-.157-.067-.155-.07-.155-.071-.154-.073-.152-.074-.152-.077-.15-.078-.15-.08-.148-.082-.147-.083-.146-.085-.145-.087-.144-.089-.142-.09-.142-.092-.14-.093-.139-.095-.138-.097-.136-.098-.136-.1-.134-.102-.132-.103-.132-.105-.13-.106-.129-.107-.128-.11-.126-.11-.125-.112-.123-.114-.122-.115-.121-.117-.12-.117-.117-.12-.117-.121-.115-.122-.114-.123-.112-.125-.111-.126-.109-.128-.107-.129-.107-.13-.104-.132-.103-.132-.102-.134-.1-.136-.098-.136-.097-.138-.095-.139-.093-.14-.092-.142-.09-.142-.089-.144-.087-.145-.085-.146-.083-.147-.082-.148-.08-.15-.078-.15-.077-.152-.074-.152-.073-.154-.071-.155-.07-.155-.067-.157-.066-.158-.063-.158-.062-.16-.06-.16-.058-.162-.056-.162-.054-.163-.052-.165-.05-.165-.049-.165-.046-.167-.044-.168-.042-.168-.041-.169-.038-.17-.036-.171-.034-.171-.031-.172-.03-.173-.028-.173-.025-.175-.024-.174-.021-.176-.019-.176-.017-.177-.014-.177-.013-.178-.01-.178-.008-.179-.005-.18-.004-.18-.001-.174v-.012l.001-.2.004-.206.007-.205.009-.205.011-.204.015-.203.016-.203.019-.201.022-.202.024-.2.027-.2.029-.199.032-.198.034-.198.036-.197.039-.195.041-.195.044-.195.046-.193.048-.192.05-.192.053-.19.055-.19.058-.188.059-.188.062-.186.064-.186.066-.184.069-.184.07-.182.073-.181.075-.181.077-.179.079-.177.081-.177.084-.176.085-.174.087-.173.09-.172.091-.171.094-.169.095-.169.097-.166.1-.166.101-.164.103-.163.105-.162.107-.16.108-.159.111-.158.112-.156.115-.154.116-.154.117-.151.12-.151.121-.148.123-.148.125-.145.127-.145.128-.143.13-.141.131-.139.133-.138.135-.137.137-.135.138-.133.139-.131.142-.13.142-.128.145-.127.145-.125.148-.123.148-.121.151-.12.152-.117.153-.116.154-.115.156-.112.158-.111.159-.108.16-.107.162-.105.163-.103.164-.101.166-.1.166-.097.169-.095.169-.094.171-.091.172-.09.173-.087.174-.085.176-.083.177-.082.177-.079.179-.077.181-.075.181-.073.182-.07.184-.069.184-.066.186-.064.186-.062.188-.059.188-.058.19-.055.19-.053.192-.05.192-.048.193-.046.195-.044.195-.041.195-.039.197-.036.198-.034.198-.032.199-.029.2-.027.2-.024.202-.022.201-.019.203-.016.203-.015.204-.011.205-.009.205-.007.206-.004.2-.001h.012l.2.001zm-.362 4-.155.003-.154.005-.154.007-.154.008-.152.011-.153.013-.151.014-.151.016-.151.019-.15.02-.149.021-.149.024-.148.026-.147.027-.147.029-.146.031-.145.032-.145.035-.144.036-.143.038-.142.039-.142.041-.141.043-.141.045-.139.046-.139.048-.138.05-.137.051-.137.053-.135.054-.135.056-.134.058-.134.059-.132.061-.131.062-.131.064-.13.066-.129.067-.128.068-.127.07-.126.072-.125.073-.124.074-.123.076-.122.077-.122.079-.12.08-.119.082-.118.083-.117.084-.117.086-.115.087-.114.089-.112.089-.112.091-.111.093-.109.094-.109.095-.107.096-.106.098-.105.098-.104.1-.102.102-.102.102-.1.104-.098.105-.098.106-.096.107-.095.109-.094.109-.093.111-.091.112-.089.112-.089.114-.087.115-.086.116-.084.118-.083.118-.082.119-.08.12-.079.122-.077.122-.076.123-.074.124-.073.125-.072.126-.07.127-.068.128-.067.129-.066.13-.064.131-.062.131-.061.132-.059.134-.058.134-.056.135-.054.135-.053.137-.051.137-.05.138-.048.139-.046.139-.045.141-.043.141-.041.142-.039.142-.038.144-.036.143-.035.145-.032.145-.031.146-.029.147-.027.147-.026.148-.024.149-.021.149-.02.15-.019.151-.016.151-.014.151-.013.153-.011.152-.008.154-.007.154-.005.154-.003.155-.001.156.001.13.002.129.004.129.006.128.007.128.009.128.011.126.012.127.013.126.015.125.017.125.018.124.02.124.021.123.023.123.024.122.026.122.027.121.029.121.03.12.031.119.033.119.035.118.035.117.037.117.039.117.04.115.041.115.043.115.044.113.045.113.047.113.048.112.049.111.051.11.052.109.053.109.055.108.056.108.057.106.058.106.06.105.061.104.061.104.064.103.064.101.066.101.067.101.068.099.069.099.07.097.072.097.072.096.074.095.075.094.076.093.077.092.078.092.079.09.08.089.082.089.082.087.084.087.084.085.085.084.087.084.087.082.089.082.089.08.09.079.092.078.092.077.093.076.094.075.095.074.096.072.097.072.097.07.099.069.099.068.1.067.102.066.101.064.103.063.104.062.104.061.105.06.106.058.106.057.108.056.108.055.109.053.109.052.11.051.111.049.112.048.112.047.114.045.113.044.115.043.115.041.115.04.117.039.117.037.117.035.118.035.119.033.119.031.12.03.121.029.121.027.122.026.122.024.122.023.124.021.124.02.124.018.125.017.125.015.126.013.127.012.126.011.128.009.128.007.128.006.129.004.129.002.136.001h3.988l.136-.001.129-.002.129-.004.128-.006.128-.007.128-.009.126-.011.127-.012.126-.013.125-.015.125-.017.124-.018.124-.02.124-.021.122-.023.122-.024.122-.026.121-.027.121-.029.12-.03.119-.031.119-.033.118-.035.117-.035.117-.037.117-.039.115-.04.115-.041.115-.043.113-.044.114-.045.112-.047.112-.048.111-.049.11-.051.109-.052.109-.053.108-.055.108-.056.106-.057.106-.058.105-.06.104-.06.104-.063.103-.063.101-.064.101-.066.101-.067.099-.068.099-.069.097-.07.097-.072.096-.072.095-.074.094-.075.093-.076.092-.077.092-.078.09-.079.089-.08.089-.082.087-.082.087-.084.085-.084.084-.085.084-.087.082-.087.082-.089.08-.089.079-.09.078-.092.077-.092.076-.093.075-.094.074-.095.072-.096.072-.097.07-.097.069-.099.068-.099.067-.101.066-.101.064-.101.063-.103.062-.104.061-.104.06-.105.058-.106.057-.106.056-.108.055-.108.053-.109.052-.109.051-.11.049-.112.048-.111.047-.113.045-.113.044-.113.043-.115.041-.115.04-.115.039-.117.037-.117.035-.117.035-.118.033-.119.031-.119.03-.12.029-.121.027-.121.026-.122.024-.122.023-.122.021-.124.02-.124.018-.124.017-.125.015-.125.013-.126.012-.127.011-.126.009-.128.007-.128.006-.128.004-.129.002-.129.001-.13-.001-.156-.003-.155-.005-.154-.007-.154-.008-.154-.011-.152-.013-.153-.014-.151-.016-.151-.019-.151-.02-.15-.021-.149-.024-.149-.026-.148-.027-.147-.029-.147-.031-.146-.032-.145-.035-.144-.036-.144-.038-.144-.039-.142-.041-.142-.043-.141-.045-.14-.046-.14-.048-.139-.05-.138-.051-.137-.053-.137-.054-.135-.056-.135-.058-.134-.059-.134-.061-.132-.062-.131-.064-.131-.066-.13-.067-.129-.068-.128-.07-.126-.072-.127-.073-.125-.074-.124-.076-.123-.077-.122-.079-.122-.08-.12-.082-.119-.083-.118-.084-.118-.086-.116-.087-.115-.089-.114-.089-.112-.091-.112-.093-.111-.094-.11-.095-.108-.096-.107-.098-.106-.098-.105-.1-.104-.102-.102-.102-.102-.104-.1-.105-.098-.106-.098-.107-.096-.109-.095-.109-.094-.111-.093-.112-.091-.112-.089-.114-.089-.115-.087-.117-.086-.117-.084-.118-.083-.119-.082-.12-.08-.122-.079-.122-.077-.123-.076-.124-.074-.125-.073-.126-.072-.127-.07-.128-.068-.129-.067-.13-.066-.131-.064-.131-.062-.132-.061-.134-.059-.134-.058-.135-.056-.135-.054-.137-.053-.137-.051-.138-.05-.139-.048-.139-.046-.141-.045-.141-.043-.142-.041-.142-.039-.144-.038-.143-.036-.145-.035-.145-.032-.146-.031-.147-.029-.147-.027-.148-.026-.149-.024-.149-.021-.15-.02-.151-.019-.151-.016-.151-.014-.153-.013-.152-.011-.154-.008-.154-.007-.154-.005-.155-.003-.156-.001-.156.001z"/><path d="m30 17c0-7.732-6.268-14-14-14-7.732 0-14 6.268-14 14 0 6.627 5.373 12 12 12h4c6.627 0 12-5.373 12-12z" fill="#77b84c"/><g fill="#23480a"><path d="m16.464 18.001.116.002.116.005.116.005.116.008.116.009.115.011.115.013.115.014.115.016.114.018.114.019.114.021.114.022.113.024.113.026.112.027.112.029.111.031.112.032.11.034.11.036.11.037.109.038.109.041.108.041.108.044.107.045.106.046.106.049.105.049.101.05 2.525 1.263.06.032.058.037.055.04.052.044.049.048.046.051.042.054.038.056.034.059.03.061.026.064.022.064.017.066.013.068.008.067.003.069-.001.068-.006.068-.011.067-.015.067-.02.065-.024.064-.029.062-.032.06-.037.058-.04.055-.044.052-.048.049-.051.046-.054.042-.056.038-.059.034-.061.03-.064.026-.064.022-.066.017-.068.013-.067.008-.069.003-.068-.001-.068-.006-.067-.011-.067-.015-.065-.02-.064-.024-.062-.029-2.519-1.259-.082-.04-.078-.037-.08-.036-.08-.035-.08-.034-.08-.033-.081-.031-.082-.03-.082-.029-.082-.028-.083-.027-.083-.025-.083-.024-.084-.023-.084-.022-.084-.02-.085-.02-.084-.018-.085-.017-.086-.015-.085-.015-.086-.013-.086-.012-.086-.011-.087-.009-.086-.008-.087-.007-.087-.006-.087-.004-.087-.003-.087-.002-.091-.001h-.688l-.091.001-.087.002-.087.003-.087.004-.087.006-.087.007-.086.008-.087.009-.086.011-.086.012-.086.013-.085.015-.086.015-.085.017-.084.018-.085.02-.084.02-.084.022-.084.023-.083.024-.083.025-.083.027-.082.028-.082.029-.082.03-.081.031-.08.033-.08.034-.08.035-.08.036-.078.037-.082.04-2.519 1.259-.062.029-.064.024-.065.02-.067.015-.067.011-.068.006-.068.001-.069-.003-.067-.008-.068-.013-.066-.017-.064-.022-.064-.026-.061-.03-.059-.034-.056-.038-.054-.042-.051-.046-.048-.049-.044-.052-.04-.055-.037-.058-.032-.06-.029-.062-.024-.064-.02-.065-.015-.067-.011-.067-.006-.068-.001-.068.003-.069.008-.067.013-.068.017-.066.022-.064.026-.064.03-.061.034-.059.038-.056.042-.054.046-.051.049-.048.052-.044.055-.04.058-.037.06-.032 2.525-1.263.101-.05.105-.049.106-.049.106-.046.107-.045.108-.044.108-.041.109-.041.109-.038.11-.037.11-.036.11-.034.112-.032.111-.031.112-.029.112-.027.113-.026.113-.024.114-.022.114-.021.114-.019.114-.018.115-.016.115-.014.115-.013.115-.011.116-.009.116-.008.116-.005.116-.005.116-.002.113-.001h.702z"/><path d="m23.05 18.001.039.003.04.004.039.006.039.008.039.009.038.01.038.012.038.014.036.015.037.016.035.018.035.02.034.02.033.022.032.024.031.024.031.026.029.027.028.028.027.029.026.031.024.031.024.032.022.033.02.034.02.035.018.035.016.037.015.036.014.038.012.038.01.038.009.039.008.039.006.039.004.04.003.039.001.04v.04l-.002.04-.004.039-.005.04-.007.039-.008.039-.01.038-.011.038-.013.038-.014.037-.016.037-.017.035-.019.036-.02.034-.021.034-.023.032-.024.032-.025.031-.026.029-.028.029.004-.004-.036.037-.031.033-.03.034-.029.035-.028.035-.027.036-.026.036-.025.037-.025.037-.023.038-.023.039-.021.039-.021.04-.019.04-.019.041-.017.04-.017.042-.015.042-.015.042-.014.042-.012.043-.011.043-.011.044-.009.044-.008.044-.008.044-.006.045-.005.044-.003.045-.003.045-.002.046-.001.045.001.045.002.046.003.045.003.045.005.044.006.045.008.044.008.044.009.044.011.044.011.043.012.043.014.042.015.042.015.042.017.042.017.04.019.041.019.04.021.04.021.039.023.039.023.038.025.037.025.037.026.036.027.036.028.035.029.035.03.034.031.033.036.037-.004-.004.028.029.026.029.025.031.024.032.023.032.021.034.02.034.019.036.017.035.016.037.014.037.013.038.011.038.01.038.008.039.007.039.005.04.004.039.002.04v.04l-.001.04-.003.039-.004.04-.006.039-.008.039-.009.039-.01.038-.012.038-.014.038-.015.036-.016.037-.018.035-.02.035-.02.034-.022.033-.024.032-.024.031-.026.031-.027.029-.028.028-.029.027-.031.026-.031.024-.032.024-.033.022-.034.02-.035.02-.035.018-.037.016-.036.015-.038.014-.038.012-.038.01-.039.009-.039.008-.039.006-.04.004-.039.003-.04.001h-.04l-.04-.002-.039-.004-.04-.005-.039-.007-.039-.008-.038-.01-.038-.011-.038-.013-.037-.014-.037-.016-.035-.017-.036-.019-.034-.02-.034-.021-.032-.023-.032-.024-.031-.025-.029-.026-.029-.028-.005-.005-.062-.063-.064-.07-.063-.071-.061-.072-.059-.074-.056-.074-.055-.077-.054-.077-.051-.079-.049-.08-.047-.08-.045-.082-.043-.083-.041-.084-.038-.085-.037-.086-.035-.087-.033-.087-.03-.089-.028-.089-.026-.089-.024-.091-.022-.091-.019-.092-.018-.092-.015-.093-.012-.093-.011-.094-.008-.094-.006-.094-.004-.095-.001-.095.001-.095.004-.095.006-.094.008-.094.011-.094.012-.093.015-.093.018-.092.019-.092.022-.091.024-.091.026-.089.028-.089.03-.089.033-.087.035-.087.037-.086.038-.085.041-.084.043-.083.045-.082.047-.08.049-.08.051-.079.054-.077.055-.077.056-.074.059-.074.061-.072.063-.071.064-.07.062-.063.005-.005.029-.028.029-.026.031-.025.032-.024.032-.023.034-.021.034-.02.036-.019.035-.017.037-.016.037-.014.038-.013.038-.011.038-.01.039-.008.039-.007.04-.005.039-.004.04-.002h.04l.04.001z"/><path d="m9.03 18 .04.002.039.004.04.005.039.007.039.008.038.01.038.011.038.013.037.014.037.016.035.017.036.019.034.02.034.021.032.023.032.024.031.025.029.026.029.028.005.005.062.063.064.07.063.071.061.072.059.074.056.074.055.077.054.077.051.079.049.08.047.08.045.082.043.083.041.084.038.085.037.086.035.087.033.087.03.089.028.089.026.089.024.091.022.091.019.092.018.092.015.093.012.093.011.094.008.094.006.094.004.095.001.095-.001.095-.004.095-.006.094-.008.094-.011.094-.012.093-.015.093-.018.092-.019.092-.022.091-.024.091-.026.089-.028.089-.03.089-.033.087-.035.087-.037.086-.038.085-.041.084-.043.083-.045.082-.047.08-.049.08-.051.079-.054.077-.055.077-.056.074-.059.074-.061.072-.063.071-.064.07-.062.063-.005.005-.029.028-.029.026-.031.025-.032.024-.032.023-.034.021-.034.02-.036.019-.035.017-.037.016-.037.014-.038.013-.038.011-.038.01-.039.008-.039.007-.04.005-.039.004-.04.002h-.04l-.04-.001-.039-.003-.04-.004-.039-.006-.039-.008-.039-.009-.038-.01-.038-.012-.038-.014-.036-.015-.037-.016-.035-.018-.035-.02-.034-.02-.033-.022-.032-.024-.031-.024-.031-.026-.029-.027-.028-.028-.027-.029-.026-.031-.024-.031-.024-.032-.022-.033-.02-.034-.02-.035-.018-.035-.016-.037-.015-.036-.014-.038-.012-.038-.01-.038-.009-.039-.008-.039-.006-.039-.004-.04-.003-.039-.001-.04v-.04l.002-.04.004-.039.005-.04.007-.039.008-.039.01-.038.011-.038.013-.038.014-.037.016-.037.017-.035.019-.036.02-.034.021-.034.023-.032.024-.032.025-.031.026-.029.028-.029-.004.004.036-.037.031-.033.03-.034.029-.035.028-.035.027-.036.026-.036.025-.037.025-.037.023-.038.023-.039.021-.039.021-.04.019-.04.019-.041.017-.04.017-.042.015-.042.015-.042.014-.042.012-.043.011-.043.011-.044.009-.044.008-.044.008-.044.006-.045.005-.044.003-.045.003-.045.002-.046.001-.045-.001-.045-.002-.046-.003-.045-.003-.045-.005-.044-.006-.045-.008-.044-.008-.044-.009-.044-.011-.044-.011-.043-.012-.043-.014-.042-.015-.042-.015-.042-.017-.042-.017-.04-.019-.041-.019-.04-.021-.04-.021-.039-.023-.039-.023-.038-.025-.037-.025-.037-.026-.036-.027-.036-.028-.035-.029-.035-.03-.034-.031-.033-.036-.037.004.004-.028-.029-.026-.029-.025-.031-.024-.032-.023-.032-.021-.034-.02-.034-.019-.036-.017-.035-.016-.037-.014-.037-.013-.038-.011-.038-.01-.038-.008-.039-.007-.039-.005-.04-.004-.039-.002-.04v-.04l.001-.04.003-.039.004-.04.006-.039.008-.039.009-.039.01-.038.012-.038.014-.038.015-.036.016-.037.018-.035.02-.035.02-.034.022-.033.024-.032.024-.031.026-.031.027-.029.028-.028.029-.027.031-.026.031-.024.032-.024.033-.022.034-.02.035-.02.035-.018.037-.016.036-.015.038-.014.038-.012.038-.01.039-.009.039-.008.039-.006.04-.004.039-.003.04-.001h.04z"/></g><path d="m24.034 8.501.046.002.045.005.045.007.045.008.044.011.044.013.043.015.042.016.041.019.041.02.04.023.038.024.038.026.036.027.035.029.034.031.032.032.031.034.029.035.027.036.026.038.024.038.023.04.02.041.019.041.016.042.015.043.013.044.011.044.008.045.007.045.005.045.002.046.001.045-.002.046-.003.045-.006.045-.008.045-.009.045-.012.044-.014.043-.016.043-.017.042-.02.041-.021.04-.024.039-.025.038-.026.037-.029.036-.029.034-.032.033-2.856 2.856 2.465.822.043.015.042.017.041.02.041.021.039.022.038.025.038.027.035.028.035.029.033.031.032.033.03.034.029.035.027.037.025.038.024.039.021.04.02.041.018.042.016.042.014.044.013.043.01.045.008.045.006.045.004.045.002.046v.045l-.003.046-.004.045-.006.045-.009.045-.01.044-.012.044-.015.043-.016.043-.018.041-.021.041-.021.04-.024.039-.026.037-.027.037-.029.035-.03.034-.032.033-.034.031-.034.029-.036.028-.038.026-.038.024-.04.023-.04.021-.041.019-.043.017-.043.015-.043.013-.044.011-.045.009-.045.007-.045.005-.046.003-.045.001-.046-.001-.045-.003-.045-.005-.045-.008-.045-.009-.044-.012-.043-.013-5.087-1.695-.114-.484 4.81-4.81.033-.032.034-.029.036-.029.037-.026.038-.025.039-.024.04-.021.041-.02.042-.017.043-.016.043-.014.044-.012.045-.009.045-.008.045-.006.045-.003.046-.002z"/><path d="m8.057 8.502.045.003.045.006.045.008.045.009.044.012.043.014.043.016.042.017.041.02.04.021.039.024.038.025.037.026.036.029.034.029.033.032 4.81 4.81-.114.484-5.087 1.695-.043.013-.044.012-.045.009-.045.008-.045.005-.045.003-.046.001-.045-.001-.046-.003-.045-.005-.045-.007-.045-.009-.044-.011-.043-.013-.043-.015-.043-.017-.041-.019-.04-.021-.04-.023-.038-.024-.038-.026-.036-.028-.034-.029-.034-.031-.032-.033-.03-.034-.029-.035-.027-.037-.026-.037-.024-.039-.021-.04-.021-.041-.018-.041-.016-.043-.015-.043-.012-.044-.01-.044-.009-.045-.006-.045-.004-.045-.003-.046v-.045l.002-.046.004-.045.006-.045.008-.045.01-.045.013-.043.014-.044.016-.042.018-.042.02-.041.021-.04.024-.039.025-.038.027-.037.029-.035.03-.034.032-.033.033-.031.035-.029.035-.028.038-.027.038-.025.039-.022.041-.021.041-.02.042-.017.043-.015 2.465-.822-2.856-2.856-.032-.033-.029-.034-.029-.036-.026-.037-.025-.038-.024-.039-.021-.04-.02-.041-.017-.042-.016-.043-.014-.043-.012-.044-.009-.045-.008-.045-.006-.045-.003-.045-.002-.046.001-.045.002-.046.005-.045.007-.045.008-.045.011-.044.013-.044.015-.043.016-.042.019-.041.02-.041.023-.04.024-.038.026-.038.027-.036.029-.035.031-.034.032-.032.034-.031.035-.029.036-.027.038-.026.038-.024.04-.023.041-.02.041-.019.042-.016.043-.015.044-.013.044-.011.045-.008.045-.007.045-.005.046-.002.045-.001z"/></svg>