<svg clip-rule="evenodd" fill-rule="evenodd" stroke-linecap="round" stroke-linejoin="round" stroke-miterlimit="1.5" viewBox="0 0 32 32" xmlns="http://www.w3.org/2000/svg" xmlns:xlink="http://www.w3.org/1999/xlink"><clipPath id="a"><path clip-rule="evenodd" d="m0 0h32v32h-32z"/></clipPath><clipPath id="b"><path clip-rule="evenodd" d="m10.075 5.333c0-1.287 2.654-2.333 5.923-2.333 3.27 0 5.924 1.046 5.924 2.333 0 0 1.953 15.395 1.953 15.395.015.086.022.173.022.261 0 1.931-3.539 3.5-7.899 3.5-4.359 0-7.898-1.569-7.898-3.5 0-.088.007-.175.022-.261z"/></clipPath><metadata/><path d="m0 0h32v32h-32z" fill="none"/><g clip-path="url(#a)"><g fill="none"><path d="m10.075 5.333c0-1.287 2.654-2.333 5.923-2.333 3.27 0 5.924 1.046 5.924 2.333 0 0 1.63 12.752 1.63 12.752 1.525.778 2.448 1.794 2.448 2.904v3.772h-.003c-.094 2.409-4.538 4.353-9.999 4.353-5.46 0-9.904-1.944-9.998-4.353v-.001c-.001-.025-.002-.051-.002-.077s.001-.052.002-.078v-3.506c-.002-.037-.003-.073-.003-.11 0-1.11.923-2.126 2.448-2.904l1.63-12.752z" stroke="#000" stroke-width="4"/><path d="m25.5 9 2.5-2" stroke="#000" stroke-width="6"/><path d="m6.5 9-2.5-2" stroke="#000" stroke-width="6"/><path d="m26 12.5h3" stroke="#000" stroke-width="6"/><path d="m6 12.5h-3" stroke="#000" stroke-width="6"/><path d="m26 16 2.5 2" stroke="#000" stroke-width="6"/><path d="m6 16-2.5 2" stroke="#000" stroke-width="6"/></g><path d="m10.476 20.989c1.583-.466 3.482-.738 5.522-.738 2.041 0 3.94.272 5.523.738h4.479v3.772h-.003c-.094 2.409-4.538 4.353-9.999 4.353-5.46 0-9.904-1.944-9.998-4.353v-.001c-.001-.025-.002-.051-.002-.077s.001-.052.002-.078v-3.616z" fill="#404040"/><ellipse cx="15.998" cy="20.989" fill="#595959" rx="10.002" ry="4.432"/><path d="m10.075 5.333c0-1.287 2.654-2.333 5.923-2.333 3.27 0 5.924 1.046 5.924 2.333 0 0 1.953 15.395 1.953 15.395.015.086.022.173.022.261 0 1.931-3.539 3.5-7.899 3.5-4.359 0-7.898-1.569-7.898-3.5 0-.088.007-.175.022-.261z" fill="#e82731"/><g clip-path="url(#b)"><path d="m8.727 4.114 4.281 1.777-1.764 18.713-4.982-3.49z" fill="#ff626a"/></g><path d="m16.151 3.001.152.002.151.004.15.005.149.007.147.008.147.009.145.011.144.013.142.014.141.015.14.016.139.018.136.019.136.02.133.021.132.023.131.024.128.025.127.027.125.027.123.029.121.03.12.031.117.032.115.033.113.034.111.035.108.036.107.037.104.039.101.039.1.04.097.041.094.042.092.042.089.044.087.045.084.045.081.046.079.047.075.048.073.048.07.05.067.049.064.051.061.051.058.052.054.053.052.053.048.054.045.055.021.027.02.028.02.028.019.027.018.028.017.029.016.028.015.028.014.029.014.029.012.028.012.029.011.029.01.029.009.03.008.029.007.029.006.03.005.03.005.029.003.03.002.03.002.03v.03s1.953 15.395 1.953 15.395l.01.065.007.065.004.065.001.066-.001.045-.002.045-.003.045-.004.045-.006.044-.007.045-.008.044-.01.044-.011.044-.012.044-.013.044-.014.043-.016.044-.016.043-.018.043-.02.043-.02.042-.021.043-.023.042-.024.042-.025.042-.026.041-.027.042-.028.041-.03.041-.03.041-.032.04-.033.041-.033.04-.035.04-.036.039-.037.04-.038.039-.039.039-.04.038-.041.039-.043.038-.043.038-.044.037-.045.037-.046.038-.047.036-.048.037-.049.036-.05.036-.051.036-.052.035-.053.035-.108.069-.112.068-.116.067-.119.066-.122.064-.126.063-.129.061-.133.06-.135.059-.139.057-.142.056-.145.054-.147.053-.151.051-.153.05-.157.048-.159.046-.161.045-.164.043-.167.041-.169.04-.171.037-.174.036-.176.035-.179.032-.18.03-.182.029-.185.026-.186.025-.189.022-.19.021-.192.019-.193.016-.195.014-.197.013-.198.01-.2.008-.201.005-.203.004-.204.001-.203-.001-.203-.004-.201-.005-.2-.008-.198-.01-.197-.013-.195-.014-.194-.016-.191-.019-.191-.021-.188-.022-.186-.025-.185-.026-.182-.029-.181-.03-.178-.032-.176-.035-.174-.036-.171-.037-.169-.04-.167-.041-.164-.043-.161-.045-.159-.046-.157-.048-.153-.05-.151-.051-.148-.053-.144-.054-.142-.056-.139-.057-.136-.059-.132-.06-.129-.061-.126-.063-.122-.064-.12-.066-.115-.067-.112-.068-.108-.069-.053-.035-.052-.035-.051-.036-.05-.036-.049-.036-.048-.037-.047-.036-.046-.038-.045-.037-.044-.037-.044-.038-.042-.038-.041-.039-.04-.038-.039-.039-.038-.039-.037-.04-.036-.039-.035-.04-.033-.04-.033-.041-.032-.04-.03-.041-.03-.041-.028-.041-.027-.042-.026-.041-.025-.042-.024-.042-.023-.042-.021-.043-.02-.042-.02-.043-.018-.043-.016-.043-.016-.044-.014-.043-.014-.044-.012-.044-.01-.044-.01-.044-.008-.044-.007-.045-.006-.044-.004-.045-.003-.045-.002-.045-.001-.045.001-.066.004-.065.007-.065.01-.065 1.953-15.395v-.03l.002-.03.002-.03.003-.03.005-.029.005-.03.006-.03.007-.029.008-.029.009-.03.01-.029.011-.029.012-.029.012-.028.014-.029.014-.029.015-.028.016-.028.017-.028.018-.029.019-.027.019-.028.021-.028.021-.027.045-.055.048-.054.052-.053.054-.053.058-.052.061-.051.064-.051.067-.049.07-.05.073-.048.075-.048.079-.047.081-.046.084-.045.087-.045.089-.044.092-.042.094-.042.097-.041.099-.04.102-.039.104-.039.107-.037.108-.036.111-.035.113-.034.115-.033.117-.032.12-.031.121-.03.123-.029.125-.027.127-.027.128-.025.131-.024.132-.023.133-.021.136-.02.136-.019.139-.018.14-.016.141-.015.142-.014.144-.013.145-.011.147-.009.147-.008.149-.007.15-.005.151-.004.152-.002.152-.001zm-.295 1-.142.002-.141.003-.14.005-.138.007-.138.007-.136.009-.135.01-.134.012-.132.012-.131.014-.13.016-.127.016-.127.017-.124.019-.123.02-.121.021-.119.022-.118.023-.115.024-.113.025-.111.026-.11.026-.106.028-.105.029-.102.029-.1.03-.098.031-.094.032-.093.032-.089.033-.087.033-.084.034-.081.034-.078.035-.075.035-.072.035-.069.035-.065.036-.063.035-.058.035-.055.035-.052.034-.048.034-.044.033-.041.033-.037.031-.033.029-.03.029-.025.026-.022.025-.022.027-.005.006-.008.01-.006.009-.006.009-.005.007-.004.008-.004.006-.003.006-.002.005-.002.004-.002.003-.001.003v.002l-.001.007-.002.055-.005.055-1.953 15.395-.001-.001-.002.019-.006.045-.003.024-.001.024-.001.027v.013l.001.017.001.016.002.017.002.017.003.016.003.017.004.018.004.017.005.018.005.019.006.018.007.019.008.02.008.02.009.02.01.021.011.021.012.022.012.023.014.022.015.023.015.024.017.024.017.025.019.025.02.025.02.025.022.026.023.027.024.026.025.027.027.027.027.027.028.028.03.027.031.028.032.028.033.028.034.028.035.029.036.028.038.029.038.028.04.028.04.029.042.028.041.027.091.059.093.056.097.056.101.055.104.055.109.055.113.053.116.053.119.052.123.05.127.05.13.049.133.047.137.047.139.045.143.044.145.042.148.041.151.04.154.038.156.036.159.035.162.034.164.032.166.03.168.028.171.027.172.025.175.023.177.021.178.019.181.018.182.015.184.014.185.011.187.01.189.007.19.005.191.004.192.001.193-.001.191-.004.19-.005.189-.007.187-.01.185-.011.184-.014.182-.015.18-.018.179-.019.177-.021.175-.023.172-.025.171-.027.168-.028.166-.03.164-.032.162-.034.159-.035.156-.036.154-.038.151-.04.148-.041.145-.042.143-.044.139-.045.137-.047.133-.047.13-.049.126-.05.124-.05.119-.052.116-.053.113-.053.108-.055.105-.055.101-.055.097-.056.093-.056.091-.059.041-.027.041-.028.041-.029.04-.028.038-.028.038-.029.036-.028.035-.029.034-.028.033-.028.032-.028.031-.028.03-.027.028-.028.027-.027.027-.027.025-.027.024-.026.023-.027.022-.026.02-.025.02-.025.019-.025.017-.025.017-.024.015-.023.015-.024.014-.023.012-.022.012-.022.011-.021.01-.021.009-.02.008-.02.008-.02.007-.019.006-.019.005-.018.005-.018.004-.017.004-.018.003-.016.003-.017.002-.017.002-.017.001-.016.001-.017v-.013l-.001-.027-.001-.024-.003-.024-.008-.054-1.954-15.404-.005-.055-.002-.055-.001-.007v-.002l-.001-.003-.002-.003-.002-.004-.002-.005-.003-.006-.004-.006-.004-.007-.005-.008-.006-.009-.007-.009-.007-.01-.005-.006-.022-.027-.022-.025-.026-.026-.029-.029-.033-.029-.037-.031-.041-.033-.044-.033-.048-.034-.052-.034-.055-.035-.059-.035-.062-.035-.065-.036-.069-.035-.072-.035-.075-.035-.078-.035-.081-.034-.084-.034-.087-.033-.089-.033-.093-.032-.095-.032-.097-.031-.1-.03-.102-.029-.105-.029-.107-.028-.109-.026-.111-.026-.113-.025-.116-.024-.117-.023-.119-.022-.121-.021-.123-.02-.124-.019-.127-.017-.127-.016-.13-.016-.131-.014-.132-.012-.134-.012-.135-.01-.136-.009-.138-.007-.138-.007-.14-.005-.141-.003-.142-.002-.143-.001-.142.001z" fill="#e82731"/><ellipse cx="15.998" cy="5.333" fill="#ff626a" rx="4.917" ry="1.6"/><ellipse cx="15.998" cy="14.5" fill="#ffa7ad" rx="2.539" ry="5.5"/><path d="m25.5 9 2.5-2" fill="none" stroke="#ff5f6a" stroke-width="2"/><path d="m6.5 9-2.5-2" fill="none" stroke="#ff5f6a" stroke-width="2"/><path d="m26 12.5h3" fill="none" stroke="#ff5f6a" stroke-width="2"/><path d="m6 12.5h-3" fill="none" stroke="#ff5f6a" stroke-width="2"/><path d="m26 16 2.5 2" fill="none" stroke="#ff5f6a" stroke-width="2"/><path d="m6 16-2.486 1.988-.014.012" fill="none" stroke="#ff5f6a" stroke-width="2"/></g></svg>