<svg clip-rule="evenodd" fill-rule="evenodd" stroke-linejoin="round" stroke-miterlimit="1.41421" viewBox="0 0 32 32" xmlns="http://www.w3.org/2000/svg" xmlns:xlink="http://www.w3.org/1999/xlink"><clipPath id="a"><path clip-rule="evenodd" d="m0 0h32v32h-32z"/></clipPath><metadata/><path d="m0 0h32v32h-32z" fill="none"/><g clip-path="url(#a)"><path d="m0 8c0-4.418 3.582-8 8-8h16c4.418 0 8 3.582 8 8v16c0 4.418-3.582 8-8 8-4.887 0-11.113 0-16 0-4.418 0-8-3.582-8-8 0-4.887 0-11.113 0-16z"/><path d="m8 30c-1.591 0-3.117-.632-4.243-1.757-1.125-1.126-1.757-2.652-1.757-4.243 0-4.724 0-11.276 0-16 0-1.591.632-3.117 1.757-4.243 1.126-1.125 2.652-1.757 4.243-1.757h16c1.591 0 3.117.632 4.243 1.757 1.125 1.126 1.757 2.652 1.757 4.243v16c0 1.591-.632 3.117-1.757 4.243-1.126 1.125-2.652 1.757-4.243 1.757-4.724 0-11.276 0-16 0z" fill="#fff"/><path d="m26 22c0 .552-.448 1-1 1-.322 0-.678 0-1 0-.552 0-1-.448-1-1 0-1.61 0-4.6 0-4.6s-4.096 2.867-6.427 4.499c-.305.213-.704.24-1.035.067-.331-.172-.538-.514-.538-.887 0-1.853 0-4.379 0-4.379s-4.847 3.393-7.427 5.199c-.305.213-.704.24-1.035.067-.331-.172-.538-.514-.538-.887 0-2.672 0-7.486 0-10.158 0-.373.207-.715.538-.887.331-.173.73-.146 1.035.067 2.58 1.806 7.427 5.199 7.427 5.199s0-2.526 0-4.379c0-.373.207-.715.538-.887.331-.173.73-.146 1.035.067 2.331 1.632 6.427 4.499 6.427 4.499s0-2.99 0-4.6c0-.552.448-1 1-1h1c.552 0 1 .448 1 1z" fill="#333"/></g></svg>