<svg clip-rule="evenodd" fill-rule="evenodd" stroke-linejoin="round" stroke-miterlimit="2" viewBox="0 0 32 32" xmlns="http://www.w3.org/2000/svg" xmlns:xlink="http://www.w3.org/1999/xlink"><clipPath id="a"><path clip-rule="evenodd" d="m0 0h32v32h-32z"/></clipPath><metadata/><path d="m0 0h32v32h-32z" fill="none"/><g clip-path="url(#a)"><path d="m16 2c8.837 0 16 7.163 16 16v1c0 2.154-.524 4.186-1.452 5.975.292.634.452 1.335.452 2.064v.001c0 1.315-.523 2.577-1.453 3.507s-2.192 1.453-3.507 1.453h-.001c-.957 0-1.867-.276-2.64-.765-1.374.495-2.855.765-4.399.765-1.972 0-4.028 0-6 0-7.18 0-13-5.82-13-13 0-.332 0-.665 0-1 0-8.837 7.163-16 16-16z"/><path d="m16.091 4c7.69.049 13.909 6.298 13.909 14v1c0 1.487-.295 2.905-.83 4.199-.406-.329-7.51 6.172-7.348 6.436-.901.238-1.847.365-2.822.365-1.972 0-4.028 0-6 0-6.075 0-11-4.925-11-11 0-.332 0-.665 0-1 0-7.732 6.268-14 14-14h.091z" fill="#fbc546"/><path d="m21.822 29.635c-.162-.264-.299-.545-.411-.842-.887-2.366-2.284-6.091-2.284-6.091-.275-.734-.096-1.562.459-2.116.554-.555 1.382-.734 2.116-.459 0 0 3.725 1.397 6.091 2.284.508.191.971.459 1.377.788-1.299 3.144-4.013 5.553-7.348 6.436z" fill="#e59a10"/><path d="m21 22s1.397 3.725 2.284 6.091c.431 1.148 1.528 1.909 2.755 1.909h.001c.785 0 1.538-.312 2.093-.867s.867-1.308.867-2.093v-.001c0-1.227-.761-2.324-1.909-2.755-2.366-.887-6.091-2.284-6.091-2.284z" fill="#fff"/><path d="m11.172 25.895c-.164-.082-.305-.208-.405-.369-.182-.295-.198-.663-.043-.973.056-.112.113-.227.17-.342.678-1.355 2.063-2.211 3.578-2.211h3.056c1.515 0 2.9.856 3.578 2.211.057.115.114.23.17.342.155.31.139.678-.043.973-.1.161-.241.287-.405.369-.926-.572-8.73-.572-9.656 0z" fill="#722245"/><path d="m11.172 25.895c.926-.572 2.011-.895 3.153-.895h3.35c1.142 0 2.227.323 3.153.895-.136.068-.289.105-.446.105-2.295 0-6.469 0-8.764 0-.157 0-.31-.037-.446-.105z" fill="#ca3b8f"/><path d="m22.5 18.586 2.293-2.293c.39-.39 1.024-.39 1.414 0s.39 1.024 0 1.414l-3.707 3.707-3.707-3.707c-.39-.39-.39-1.024 0-1.414s1.024-.39 1.414 0z"/><path d="m9.5 18.586 2.293-2.293c.39-.39 1.024-.39 1.414 0s.39 1.024 0 1.414l-3.707 3.707-3.707-3.707c-.39-.39-.39-1.024 0-1.414s1.024-.39 1.414 0z"/></g></svg>