<svg clip-rule="evenodd" fill-rule="evenodd" stroke-linecap="round" stroke-linejoin="round" stroke-miterlimit="1.5" viewBox="0 0 32 32" xmlns="http://www.w3.org/2000/svg" xmlns:xlink="http://www.w3.org/1999/xlink"><clipPath id="a"><path clip-rule="evenodd" d="m0 0h32v32h-32z"/></clipPath><metadata/><path d="m0 0h32v32h-32z" fill="none"/><g clip-path="url(#a)"><path d="m16 0c4.243 0 8.313 1.686 11.314 4.686 3 3.001 4.686 7.071 4.686 11.314v3c0 7.18-5.82 13-13 13-1.972 0-4.028 0-6 0-7.18 0-13-5.82-13-13v-3c0-8.837 7.163-16 16-16z"/><path d="m30 16c0-3.713-1.475-7.274-4.101-9.899-2.625-2.626-6.186-4.101-9.899-4.101-7.732 0-14 6.268-14 14v3c0 6.075 4.925 11 11 11h6c6.075 0 11-4.925 11-11z" fill="#fbc546"/><path d="m9.502 18c.928 0 1.817-.369 2.473-1.025s1.025-1.545 1.025-2.473c0-.657 0-1.345 0-2.002 0-1.933-1.567-3.5-3.5-3.5h-.002c-.928 0-1.817.369-2.473 1.025s-1.025 1.545-1.025 2.473v2.002c0 1.933 1.567 3.5 3.5 3.5z" fill="#fff"/><path d="m8 13c0-.53.211-1.039.586-1.414s.884-.586 1.414-.586c1.105 0 2 .895 2 2v.983c0 .531-.211 1.039-.586 1.415-.375.375-.884.585-1.414.585-1.105 0-2-.895-2-2z"/><path d="m22.498 18c-.928 0-1.817-.369-2.473-1.025s-1.025-1.545-1.025-2.473c0-.657 0-1.345 0-2.002 0-1.933 1.567-3.5 3.5-3.5h.002c.928 0 1.817.369 2.473 1.025s1.025 1.545 1.025 2.473v2.002c0 1.933-1.567 3.5-3.5 3.5z" fill="#fff"/><path d="m24 13c0-.53-.211-1.039-.586-1.414s-.884-.586-1.414-.586c-1.105 0-2 .895-2 2v.983c0 .531.211 1.039.586 1.415.375.375.884.585 1.414.585 1.105 0 2-.895 2-2z"/><path d="m11 23s.136-.204.336-.505c1.04-1.559 2.789-2.495 4.663-2.495h.002c1.874 0 3.623.936 4.663 2.495.2.301.336.505.336.505" fill="none" stroke="#593604" stroke-width="2"/></g></svg>