<svg clip-rule="evenodd" fill-rule="evenodd" stroke-linecap="round" viewBox="0 0 32 32" xmlns="http://www.w3.org/2000/svg" xmlns:xlink="http://www.w3.org/1999/xlink"><clipPath id="a"><path clip-rule="evenodd" d="m0 0h32v32h-32z"/></clipPath><metadata/><path d="m0 0h32v32h-32z" fill="none"/><g clip-path="url(#a)"><path d="m2.656 22.607c-.432-2.377-.353-4.82.233-7.164.254-1.014.542-2.167.839-3.353 1.335-5.342 6.135-9.09 11.641-9.09h1.262c5.506 0 10.306 3.748 11.641 9.09.297 1.186.585 2.339.839 3.353.586 2.344.665 4.787.233 7.164-.166.912-.346 1.904-.519 2.855-.207 1.141-.9 2.136-1.897 2.727-.998.59-2.203.719-3.303.353-.125-.042-.245-.082-.36-.12-.821-.274-1.709-.274-2.53 0-1.021.34-2.449.816-3.47 1.156-.821.274-1.709.274-2.53 0-1.021-.34-2.449-.816-3.47-1.156-.821-.274-1.709-.274-2.53 0-.115.038-.235.078-.36.12-1.1.366-2.305.237-3.303-.353-.997-.591-1.69-1.586-1.897-2.727-.173-.951-.353-1.943-.519-2.855z" fill="none" stroke="#000" stroke-width="4"/><path d="m2.656 22.607c-.432-2.377-.353-4.82.233-7.164.254-1.014.542-2.167.839-3.353 1.335-5.342 6.135-9.09 11.641-9.09h1.262c5.506 0 10.306 3.748 11.641 9.09.297 1.186.585 2.339.839 3.353.586 2.344.665 4.787.233 7.164-.166.912-.346 1.904-.519 2.855-.207 1.141-.9 2.136-1.897 2.727-.998.59-2.203.719-3.303.353-.125-.042-.245-.082-.36-.12-.821-.274-1.709-.274-2.53 0-1.021.34-2.449.816-3.47 1.156-.821.274-1.709.274-2.53 0-1.021-.34-2.449-.816-3.47-1.156-.821-.274-1.709-.274-2.53 0-.115.038-.235.078-.36.12-1.1.366-2.305.237-3.303-.353-.997-.591-1.69-1.586-1.897-2.727-.173-.951-.353-1.943-.519-2.855z" fill="#2af237"/><path d="m12 11.5c0-.828-.672-1.5-1.5-1.5s-1.5.672-1.5 1.5v3c0 .828.672 1.5 1.5 1.5s1.5-.672 1.5-1.5c0-.916 0-2.084 0-3z"/><path d="m23 11.5c0-.828-.672-1.5-1.5-1.5s-1.5.672-1.5 1.5v3c0 .828.672 1.5 1.5 1.5s1.5-.672 1.5-1.5c0-.916 0-2.084 0-3z"/><g fill="none" stroke-width="2"><path d="m9 19s1.155 1.155 2.031 2.031c.579.579 1.463.722 2.194.356.623-.311 1.365-.682 1.925-.962.535-.268 1.165-.268 1.7 0 .56.28 1.302.651 1.925.962.731.366 1.615.223 2.194-.356.876-.876 2.031-2.031 2.031-2.031" stroke="#000"/><path d="m15.5 5s-.001 0-.002 0c-5.246 0-9.498 4.252-9.498 9.498v.502" stroke="#9df78b"/></g></g></svg>