<svg clip-rule="evenodd" fill-rule="evenodd" stroke-linecap="round" stroke-miterlimit="1.5" viewBox="0 0 32 32" xmlns="http://www.w3.org/2000/svg" xmlns:xlink="http://www.w3.org/1999/xlink"><clipPath id="a"><path clip-rule="evenodd" d="m0 0h32v32h-32z"/></clipPath><metadata/><path d="m0 0h32v32h-32z" fill="none"/><g clip-path="url(#a)"><path d="m16 1c4.243 0 8.313 1.686 11.314 4.686 3 3.001 4.686 7.071 4.686 11.314v1c0 7.732-6.268 14-14 14-1.325 0-2.675 0-4 0-7.732 0-14-6.268-14-14v-1c0-8.837 7.163-16 16-16z"/><path d="m30 17c0-3.713-1.475-7.274-4.101-9.899-2.625-2.626-6.186-4.101-9.899-4.101-7.732 0-14 6.268-14 14v1c0 6.627 5.373 12 12 12h4c6.627 0 12-5.373 12-12 0-.332 0-.666 0-1z" fill="#fbc546"/><path d="m21.113 9.207c-.222.569 2.442 1.952 2.882 1.647l2.005 1.146v1.502c0 .928-.369 1.817-1.025 2.473s-1.545 1.025-2.473 1.025h-.002c-1.933 0-3.5-1.567-3.5-3.5 0-.657 0-1.345 0-2.002 0-.928.369-1.817 1.025-2.473.095-.096.195-.185.3-.268z" fill="#fff"/><path d="m21.113 9.207 2.882 1.647c.003.048.005.097.005.146v2.983c0 .531-.211 1.039-.586 1.415-.375.375-.884.585-1.414.585s-1.039-.21-1.414-.585c-.375-.376-.586-.884-.586-1.415 0-.935 0-2.047 0-2.983 0-.53.211-1.039.586-1.414.155-.156.334-.283.527-.379z"/><path d="m10.887 9.207c.222.569-2.442 1.952-2.882 1.647l-2.005 1.146v1.502c0 .928.369 1.817 1.025 2.473s1.545 1.025 2.473 1.025h.002c1.933 0 3.5-1.567 3.5-3.5 0-.657 0-1.345 0-2.002 0-.928-.369-1.817-1.025-2.473-.095-.096-.195-.185-.3-.268z" fill="#fff"/><path d="m10.887 9.207-2.882 1.647c-.003.048-.005.097-.005.146v2.983c0 .531.211 1.039.586 1.415.375.375.884.585 1.414.585s1.039-.21 1.414-.585c.375-.376.586-.884.586-1.415 0-.935 0-2.047 0-2.983 0-.53-.211-1.039-.586-1.414-.155-.156-.334-.283-.527-.379z"/><path d="m8 20s0 0 .001.001c1.888 2.517 4.851 3.999 7.998 3.999h.001c3.148 0 6.111-1.482 8-4" fill="none" stroke="#593604" stroke-width="2"/><path d="m25.5 14s-1.757 3.514-2.942 5.884c-.632 1.264-.384 2.79.615 3.789 0 0 0 0 .001.001.617.617 1.453.963 2.326.963s1.709-.346 2.326-.963c.001-.001.001-.001.001-.001.999-.999 1.247-2.525.615-3.789-1.185-2.37-2.942-5.884-2.942-5.884z" fill="#41b4de"/></g></svg>