<svg clip-rule="evenodd" fill-rule="evenodd" stroke-linecap="round" stroke-miterlimit="1.5" viewBox="0 0 32 32" xmlns="http://www.w3.org/2000/svg" xmlns:xlink="http://www.w3.org/1999/xlink"><clipPath id="a"><path clip-rule="evenodd" d="m0 0h32v32h-32z"/></clipPath><metadata/><path d="m0 0h32v32h-32z" fill="none"/><g clip-path="url(#a)"><path d="m11.006 1.223c1.888-1.523 4.656-1.411 6.415.332 0 0 .001.001.001.001.746.74 1.227 1.697 1.379 2.724 6.187 1.256 10.893 6.593 11.184 13.08.334.18.648.41.931.69 0 .001.001.001.002.002.782.773 1.224 1.826 1.227 2.925.003 1.1-.432 2.155-1.21 2.933l-4.94 4.94-.63-.634c-2.147 1.741-4.883 2.784-7.863 2.784h-3.004c-1.673 0-3.269-.329-4.727-.926l-2.775 2.775-5.427-5.46c-1.856-1.867-1.851-4.883.01-6.744l.07-.07c.146-.146.3-.281.462-.405-.073-.546-.111-1.102-.111-1.668 0-.168 0-.336 0-.504 0-3.401 1.213-6.519 3.231-8.945l-.626-.629c-1.876-1.886-1.872-4.933.009-6.814 0 0 .001-.001.002-.002.907-.907 2.138-1.416 3.422-1.414 1.082.002 2.126.367 2.968 1.029z"/><path d="m28 17.998c0-6.626-5.372-11.998-11.998-11.998-.001 0-.003 0-.004 0-6.626 0-11.998 5.372-11.998 11.998v.504c0 5.798 4.7 10.498 10.498 10.498h3.004c5.798 0 10.498-4.7 10.498-10.498z" fill="#fbc546"/><path d="m6.794 16.207c.188.187.442.293.707.293s.519-.106.706-.293c.001-.001.001-.001.001-.001.475-.475 1.12-.742 1.792-.742s1.317.267 1.792.742c.188.188.442.293.707.293s.52-.105.707-.293c.188-.187.293-.442.293-.707s-.105-.519-.293-.707c-.85-.85-2.004-1.328-3.206-1.328s-2.356.478-3.206 1.328c0 0 0 0-.001.001-.187.187-.293.441-.293.706s.106.519.293.707z"/><path d="m25.206 16.207c-.188.187-.442.293-.707.293s-.519-.106-.706-.293c-.001-.001-.001-.001-.001-.001-.475-.475-1.12-.742-1.792-.742s-1.317.267-1.792.742c-.188.188-.442.293-.707.293s-.52-.105-.707-.293c-.188-.187-.293-.442-.293-.707s.105-.519.293-.707c.85-.85 2.004-1.328 3.206-1.328s2.356.478 3.206 1.328c0 0 0 0 .001.001.187.187.293.441.293.706s-.106.519-.293.707z"/><path d="m11 12.017s-2.919-2.935-4.977-5.004c-1.098-1.104-1.096-2.888.005-3.988 0-.001.001-.002.002-.002.531-.532 1.253-.83 2.004-.829.752.002 1.472.302 2.002.835.533.537.964.971.964.971s.476-.468 1.051-1.033c1.101-1.082 2.866-1.078 3.962.008 0 .001.001.001.001.002.536.53.838 1.252.839 2.006.002.754-.297 1.477-.83 2.01-2.079 2.08-5.023 5.024-5.023 5.024z" fill="#d92020"/><path d="m7 30.017s-2.273-2.288-4.013-4.038c-1.078-1.085-1.076-2.838.006-3.92.024-.023.047-.046.07-.07.523-.522 1.232-.815 1.97-.813.739.002 1.446.298 1.966.823.001.001.001.001.001.001s.03-.029.082-.08c1.085-1.057 2.816-1.049 3.892.016.027.027.054.055.082.082.524.519.82 1.227.821 1.965.002.739-.29 1.447-.813 1.969-1.761 1.761-4.064 4.065-4.064 4.065z" fill="#d92020"/><path d="m11 20s.136.204.336.505c1.04 1.559 2.789 2.495 4.663 2.495h.002c1.874 0 3.623-.936 4.663-2.495.2-.301.336-.505.336-.505" fill="none" stroke="#593604" stroke-width="2"/><path d="m26 26.017s-2.016-2.031-3.479-3.505c-.821-.827-.818-2.162.006-2.986 0-.001.001-.001.001-.002.399-.399.941-.623 1.506-.621.565.001 1.105.228 1.503.629.267.27.463.468.463.468s.238-.232.552-.538c.824-.803 2.14-.798 2.958.011.001 0 .001.001.002.001.403.399.631.942.633 1.509s-.223 1.112-.624 1.513c-1.483 1.483-3.521 3.521-3.521 3.521z" fill="#d92020"/></g></svg>