<svg clip-rule="evenodd" fill-rule="evenodd" stroke-linecap="round" stroke-linejoin="round" stroke-miterlimit="1.5" viewBox="0 0 32 32" xmlns="http://www.w3.org/2000/svg" xmlns:xlink="http://www.w3.org/1999/xlink"><clipPath id="a"><path clip-rule="evenodd" d="m0 0h32v32h-32z"/></clipPath><metadata/><path d="m0 0h32v32h-32z" fill="none"/><g clip-path="url(#a)"><path d="m16 1c8.837 0 16 7.163 16 16v1c0 7.18-5.82 13-13 13-1.972 0-4.028 0-6 0-7.18 0-13-5.82-13-13 0-.332 0-.665 0-1 0-8.837 7.163-16 16-16z"/><path d="m30 17c0-7.732-6.268-14-14-14-7.732 0-14 6.268-14 14v1c0 6.075 4.925 11 11 11h6c6.075 0 11-4.925 11-11 0-.332 0-.665 0-1z" fill="#fbc546"/><path d="m19 12 3-1s2.708 3.6 3.495 4.311c-.613 1.013-1.725 1.689-2.995 1.689h-.002c-.928 0-1.817-.369-2.473-1.025s-1.025-1.545-1.025-2.473z" fill="#fff"/><path d="m25.663 10c.22.464.337.975.337 1.498v2.002c0 .663-.184 1.283-.505 1.811-.366.413-.9.672-1.495.672-1.105 0-2-.895-2-2v-1.983h-3v-.5c.001-.238.024-.476.072-.71.056-.273.146-.538.265-.79z"/><path d="m6 12 3-1s2.708 3.6 3.495 4.311c-.613 1.013-1.725 1.689-2.995 1.689h-.002c-.928 0-1.817-.369-2.473-1.025s-1.025-1.545-1.025-2.473z" fill="#fff"/><path d="m12.663 10c.22.464.337.975.337 1.498v2.002c0 .663-.184 1.283-.505 1.811-.366.413-.9.672-1.495.672-1.105 0-2-.895-2-2v-1.983h-3v-.5c.001-.238.024-.476.072-.71.056-.273.146-.538.265-.79z"/><path d="m13 23h3.395c2.252 0 4.355-1.126 5.605-3" fill="none" stroke="#593604" stroke-width="2"/></g></svg>