<svg clip-rule="evenodd" fill-rule="evenodd" stroke-linejoin="round" stroke-miterlimit="1.41421" viewBox="0 0 32 32" xmlns="http://www.w3.org/2000/svg" xmlns:xlink="http://www.w3.org/1999/xlink"><clipPath id="a"><path clip-rule="evenodd" d="m0 0h32v32h-32z"/></clipPath><metadata/><path d="m0 0h32v32h-32z" fill="none"/><g clip-path="url(#a)"><path d="m23.409 3.167s2.526.676 3.857 1.033c.513.137.95.473 1.215.932.768 1.33 2.404 4.163 3.171 5.493.266.46.337 1.006.2 1.518-.357 1.331-1.033 3.857-1.033 3.857s.676 2.526 1.033 3.857c.137.512.066 1.058-.2 1.518-.767 1.33-2.403 4.163-3.171 5.493-.265.459-.702.795-1.215.932-1.331.357-3.857 1.033-3.857 1.033s-1.862 1.73-2.833 2.632c-.37.344-.857.535-1.362.535-1.531 0-4.897 0-6.428 0-.505 0-.992-.191-1.362-.535-.972-.902-2.833-2.632-2.833-2.632s-2.526-.676-3.857-1.033c-.513-.137-.949-.473-1.215-.932-.768-1.33-2.403-4.163-3.171-5.493-.265-.46-.337-1.006-.2-1.518.357-1.331 1.033-3.857 1.033-3.857s-.676-2.526-1.033-3.857c-.137-.512-.065-1.058.2-1.518.768-1.33 2.403-4.163 3.171-5.493.266-.459.702-.795 1.215-.932 1.331-.357 3.857-1.033 3.857-1.033s1.861-1.73 2.833-2.632c.37-.344.857-.535 1.362-.535h6.428c.505 0 .992.191 1.362.535.971.902 2.833 2.632 2.833 2.632z"/><path d="m17 5.586 3-3 1.414 1.414-4.414 4.414v.854l4.33 2.5.74-.427 1.615-6.03 1.932.518-1.098 4.098 3.105-1.793 1 1.732-3.105 1.793 4.098 1.098-.518 1.932-6.03-1.616-.739.427v5l.739.427 6.03-1.616.518 1.932-4.098 1.098 3.105 1.793-1 1.732-3.105-1.793 1.098 4.098-1.932.518-1.615-6.03-.74-.427-4.33 2.5v.854l4.414 4.414-1.414 1.414-3-3v3.586h-2v-3.586l-3 3-1.414-1.414 4.414-4.414v-.854l-4.33-2.5-.739.427-1.616 6.03-1.932-.518 1.098-4.098-3.105 1.793-1-1.732 3.105-1.793-4.098-1.098.518-1.932 6.03 1.616.739-.427v-5l-.739-.427-6.03 1.616-.518-1.932 4.098-1.098-3.105-1.793 1-1.732 3.105 1.793-1.098-4.098 1.932-.518 1.616 6.03.739.427 4.33-2.5v-.854l-4.414-4.414 1.414-1.414 3 3v-3.586h2zm0 14.837 2.33-1.346-2.33-1.345zm-4.33-1.346 2.33 1.346v-2.691zm5.33-3.077 2.33 1.345v-2.69zm-6.33 1.345 2.33-1.345-2.33-1.345zm5.33-3.077 2.33-1.345-2.33-1.346zm-4.33-1.345 2.33 1.345v-2.691z" fill="#7ddcff"/></g></svg>