<svg clip-rule="evenodd" fill-rule="evenodd" stroke-linejoin="round" stroke-miterlimit="1.41421" viewBox="0 0 32 32" xmlns="http://www.w3.org/2000/svg" xmlns:xlink="http://www.w3.org/1999/xlink"><clipPath id="a"><path clip-rule="evenodd" d="m0 0h32v32h-32z"/></clipPath><metadata/><path d="m0 0h32v32h-32z" fill="none"/><g clip-path="url(#a)"><path d="m24.099.001.1.001.099.003.099.005.098.005.099.007.098.008.099.009.098.01.097.012.098.013.097.014.097.015.097.016.097.017.096.019.096.02.096.021.095.022.095.023.095.025.094.025.094.027.094.028.093.029.093.03.092.031.092.032.092.034.091.034.091.036.09.037.09.038.09.039.089.04.088.041.088.042.088.044.087.044.086.045.086.047.085.047.085.049.084.05.084.051.083.051.083.053.081.054.082.055.08.056.08.057.08.058.078.059.078.06.078.061.076.062.076.063.075.064.075.065.073.066.073.067.073.067.071.069.071.07.07.071.069.071.067.073.067.073.066.073.065.075.064.075.063.076.062.076.061.078.06.078.059.078.058.08.057.08.056.08.055.082.054.081.053.083.051.083.051.084.05.084.049.085.047.085.047.086.045.086.044.087.044.088.042.088.041.088.04.089.039.09.038.089.037.091.036.091.034.091.034.092.032.092.031.092.03.093.029.093.028.094.027.094.025.094.025.095.023.095.022.095.021.096.02.096.019.096.017.097.016.097.015.097.014.097.013.098.012.097.01.098.009.099.008.098.007.099.005.098.005.099.003.099.001.1.001.093v16.012l-.001.093-.001.1-.003.099-.005.099-.005.098-.007.099-.008.098-.009.099-.01.098-.012.097-.013.098-.014.097-.015.097-.016.097-.017.097-.019.096-.02.096-.021.096-.022.095-.023.095-.025.095-.025.094-.027.094-.028.094-.029.093-.03.093-.031.092-.032.092-.034.092-.034.091-.036.091-.037.091-.038.089-.039.09-.04.089-.041.088-.042.088-.044.088-.044.087-.045.086-.047.086-.047.085-.049.085-.05.084-.051.084-.051.083-.053.083-.054.081-.055.082-.056.08-.057.08-.058.08-.059.078-.06.078-.061.078-.062.076-.063.076-.064.075-.065.075-.066.073-.067.073-.067.073-.069.071-.07.071-.071.07-.071.069-.073.067-.072.067-.074.066-.075.065-.075.064-.076.063-.076.062-.078.061-.078.06-.078.059-.08.058-.08.057-.08.056-.082.055-.081.054-.083.053-.083.051-.084.051-.084.05-.085.049-.085.047-.086.047-.086.045-.087.044-.088.044-.088.042-.088.041-.089.04-.09.039-.089.038-.091.037-.091.036-.091.034-.092.034-.092.032-.092.031-.093.03-.093.029-.094.028-.094.027-.094.025-.095.025-.095.023-.095.022-.096.021-.096.02-.096.019-.097.017-.097.016-.097.015-.097.014-.098.013-.097.012-.098.01-.099.009-.098.008-.099.007-.098.005-.099.005-.099.003-.1.001-.093.001h-16.012l-.093-.001-.1-.001-.099-.003-.099-.005-.098-.005-.099-.007-.098-.008-.099-.009-.098-.01-.097-.012-.098-.013-.097-.014-.097-.015-.097-.016-.097-.017-.096-.019-.096-.02-.096-.021-.095-.022-.095-.023-.095-.025-.094-.025-.094-.027-.094-.028-.093-.029-.093-.03-.092-.031-.092-.032-.092-.034-.091-.034-.091-.036-.091-.037-.089-.038-.09-.039-.089-.04-.088-.041-.088-.042-.088-.044-.087-.044-.086-.045-.086-.047-.085-.048-.085-.048-.084-.05-.084-.051-.083-.051-.083-.053-.081-.054-.082-.055-.08-.056-.08-.057-.08-.058-.078-.059-.078-.06-.078-.061-.076-.062-.076-.063-.075-.064-.075-.065-.074-.066-.072-.067-.073-.067-.071-.069-.071-.07-.07-.071-.069-.071-.067-.073-.067-.073-.066-.073-.065-.075-.064-.075-.063-.076-.062-.076-.061-.078-.06-.078-.059-.078-.058-.08-.057-.08-.056-.08-.055-.082-.054-.081-.053-.083-.051-.083-.051-.084-.05-.084-.049-.085-.047-.085-.047-.086-.045-.086-.044-.087-.044-.088-.042-.088-.041-.088-.04-.089-.039-.09-.038-.09-.037-.09-.036-.091-.034-.091-.034-.092-.032-.092-.031-.092-.03-.093-.029-.093-.028-.094-.027-.094-.025-.094-.025-.095-.023-.095-.022-.095-.021-.096-.02-.096-.019-.096-.017-.097-.016-.097-.015-.097-.014-.097-.013-.098-.012-.097-.01-.098-.009-.099-.008-.098-.007-.099-.005-.098-.005-.099-.003-.099-.001-.1-.001-.093v-16.012l.001-.093.001-.1.003-.099.005-.099.005-.098.007-.099.008-.098.009-.099.01-.098.012-.097.013-.098.014-.097.015-.097.016-.097.017-.097.019-.096.02-.096.021-.096.022-.095.023-.095.025-.095.025-.094.027-.094.028-.094.029-.093.03-.093.031-.092.032-.092.034-.092.034-.091.036-.091.037-.09.038-.09.039-.09.04-.089.041-.088.042-.088.044-.088.044-.087.045-.086.047-.086.047-.085.049-.085.05-.084.051-.084.051-.083.053-.083.054-.081.055-.082.056-.08.057-.08.058-.08.059-.078.06-.078.061-.078.062-.076.063-.076.064-.075.065-.075.066-.074.067-.072.067-.073.069-.071.07-.071.071-.07.071-.069.073-.067.073-.067.073-.066.075-.065.075-.064.076-.063.076-.062.078-.061.078-.06.078-.059.08-.058.08-.057.08-.056.082-.055.081-.054.083-.053.083-.051.084-.051.084-.05.085-.049.085-.047.086-.047.086-.045.087-.044.088-.044.088-.042.088-.041.089-.04.09-.039.09-.038.09-.037.091-.036.091-.034.092-.034.092-.032.092-.031.093-.03.093-.029.094-.028.094-.027.094-.025.095-.025.095-.023.095-.022.096-.021.096-.02.096-.019.097-.017.097-.016.097-.015.097-.014.098-.013.097-.012.098-.01.099-.009.098-.008.099-.007.098-.005.099-.005.099-.003.1-.001.093-.001h16.012l.093.001zm-16.093 3.999h-.056l-.049.001-.05.002-.049.002-.05.003-.049.003-.049.004-.049.005-.049.005-.049.006-.049.006-.049.007-.048.007-.049.009-.048.008-.048.01-.048.009-.048.011-.047.011-.048.012-.047.012-.047.013-.047.013-.047.014-.047.014-.046.015-.047.016-.046.016-.046.017-.045.017-.046.018-.045.019-.045.018-.044.02-.045.02-.044.021-.044.021-.044.021-.043.023-.044.022-.043.024-.042.023-.043.025-.042.025-.042.025-.041.026-.041.026-.041.027-.041.028-.04.027-.04.029-.04.029-.039.029-.039.03-.039.031-.038.031-.038.031-.038.032-.037.033-.037.033-.036.033-.036.034-.036.035-.035.035-.035.035-.035.036-.034.036-.033.036-.033.037-.033.038-.032.037-.031.038-.031.038-.031.039-.03.039-.029.039-.029.04-.029.04-.027.04-.028.041-.027.041-.026.041-.026.041-.025.042-.025.042-.025.043-.023.042-.024.043-.022.044-.023.043-.021.044-.021.044-.021.044-.02.045-.02.044-.018.045-.019.045-.018.046-.017.046-.017.045-.016.046-.016.047-.015.046-.014.047-.014.047-.013.047-.013.047-.012.047-.012.048-.011.047-.011.048-.009.048-.01.048-.008.048-.009.049-.007.048-.007.049-.006.049-.006.049-.005.049-.005.049-.004.049-.003.049-.003.05-.002.049-.002.05-.001.049v.056 15.988.056l.001.049.002.05.002.049.003.05.003.049.004.049.005.049.005.049.006.049.006.049.007.049.007.048.009.049.008.048.01.048.009.048.011.048.011.047.012.048.012.047.013.047.013.047.014.047.014.047.015.046.016.047.016.046.017.046.017.045.018.046.019.045.018.045.02.044.02.045.021.044.021.044.021.044.023.043.022.044.024.043.023.042.025.043.024.042.026.042.026.041.026.041.027.041.028.041.027.04.029.04.029.04.029.039.03.039.031.039.031.038.031.038.032.037.033.038.033.037.033.036.034.036.035.036.035.035.035.035.036.035.036.034.036.033.037.033.037.033.038.032.038.031.038.031.039.031.039.03.039.029.04.029.04.029.04.027.041.028.041.027.041.026.041.026.042.026.042.024.043.025.042.023.043.024.044.022.043.023.044.021.044.021.044.021.045.02.044.02.045.018.045.019.046.018.046.017.045.017.046.016.047.016.046.015.047.014.047.014.047.013.047.013.047.012.048.012.047.011.048.011.048.009.048.01.048.008.049.009.048.007.049.007.049.006.049.006.049.005.049.005.049.004.049.003.05.003.049.002.05.002.049.001h.056 15.988.056l.049-.001.05-.002.049-.002.05-.003.049-.003.049-.004.049-.005.049-.005.049-.006.049-.006.049-.007.048-.007.049-.009.048-.008.048-.01.048-.009.048-.011.047-.011.048-.012.047-.012.047-.013.047-.013.047-.014.047-.014.046-.015.047-.016.046-.016.045-.017.046-.017.046-.018.045-.019.045-.018.044-.02.045-.02.044-.021.044-.021.044-.021.043-.023.044-.022.043-.024.042-.023.043-.025.042-.024.042-.026.041-.026.041-.026.041-.027.041-.028.04-.027.04-.029.04-.029.039-.029.039-.03.039-.031.038-.031.038-.031.038-.032.037-.033.037-.033.036-.033.036-.034.036-.035.035-.035.035-.035.035-.036.034-.036.033-.036.033-.037.033-.037.032-.038.031-.038.031-.038.031-.039.03-.039.029-.039.029-.04.029-.04.027-.04.028-.041.027-.041.026-.041.026-.041.026-.042.024-.042.025-.043.023-.042.024-.043.022-.044.023-.043.021-.044.021-.044.021-.044.02-.045.02-.044.019-.045.018-.046.018-.045.017-.045.017-.046.016-.046.016-.047.015-.046.014-.047.014-.047.013-.047.013-.047.012-.047.012-.048.011-.047.011-.048.009-.048.01-.048.008-.048.009-.049.007-.048.007-.049.006-.049.006-.049.005-.049.005-.049.004-.049.003-.049.003-.05.002-.049.002-.05.001-.049v-.056-15.988-.056l-.001-.049-.002-.05-.002-.049-.003-.05-.003-.049-.004-.049-.005-.049-.005-.049-.006-.049-.006-.049-.007-.049-.007-.048-.009-.049-.008-.048-.01-.048-.009-.048-.011-.048-.011-.047-.012-.048-.012-.047-.013-.047-.013-.047-.014-.047-.014-.047-.015-.046-.016-.047-.016-.046-.017-.045-.017-.046-.018-.045-.019-.046-.018-.045-.02-.044-.02-.045-.021-.044-.021-.044-.021-.044-.023-.043-.022-.044-.024-.043-.023-.042-.025-.043-.024-.042-.026-.042-.026-.041-.026-.041-.027-.041-.028-.041-.027-.04-.029-.04-.029-.04-.029-.039-.03-.039-.031-.039-.031-.038-.031-.038-.032-.038-.033-.037-.033-.037-.033-.036-.034-.036-.035-.036-.035-.035-.035-.035-.036-.035-.036-.034-.036-.033-.037-.033-.037-.033-.038-.032-.038-.031-.038-.031-.039-.031-.039-.03-.039-.029-.04-.029-.04-.029-.04-.027-.041-.028-.041-.027-.041-.026-.041-.026-.042-.025-.042-.025-.043-.025-.042-.023-.043-.024-.044-.022-.043-.023-.044-.021-.044-.021-.044-.021-.045-.02-.044-.02-.045-.018-.046-.019-.045-.018-.045-.017-.046-.017-.046-.016-.047-.016-.046-.015-.047-.014-.047-.014-.047-.013-.047-.013-.047-.012-.048-.012-.047-.011-.048-.011-.048-.009-.048-.01-.048-.008-.049-.009-.048-.007-.049-.007-.049-.006-.049-.006-.049-.005-.049-.005-.049-.004-.049-.003-.05-.003-.049-.002-.05-.002-.049-.001h-.056z"/><path d="m30 8c0-1.591-.632-3.117-1.757-4.243-1.126-1.125-2.652-1.757-4.243-1.757-4.724 0-11.276 0-16 0-1.591 0-3.117.632-4.243 1.757-1.125 1.126-1.757 2.652-1.757 4.243v16c0 1.591.632 3.117 1.757 4.243 1.126 1.125 2.652 1.757 4.243 1.757h16c1.591 0 3.117-.632 4.243-1.757 1.125-1.126 1.757-2.652 1.757-4.243 0-4.724 0-11.276 0-16z" fill="#ff4586"/><g fill="#fff" fill-rule="nonzero"><path d="m8.865 26.5c-2.208 0-3.313-1.21-3.313-3.63v-2.086c0-2.42 1.113-3.63 3.34-3.63.994 0 1.786.262 2.376.786.589.523.884 1.247.884 2.171v.093h-1.729v-.093c0-.413-.134-.757-.403-1.029-.268-.273-.649-.41-1.141-.41-.555 0-.957.172-1.208.515s-.376.907-.376 1.69v1.967c0 .748.134 1.287.402 1.617.269.33.684.495 1.248.495.528 0 .913-.137 1.155-.41.242-.272.363-.686.363-1.24v-.436h-1.611v-1.426h3.3v1.558c0 2.332-1.095 3.498-3.287 3.498z"/><path d="m17.973 24.626h-3.128l-.554 1.768h-1.822l3.234-9.108h1.412l3.248 9.108h-1.835zm-.462-1.439-1.108-3.498-1.096 3.498z"/><path d="m23.795 22.646v3.748h-1.73v-3.735l-2.653-5.373h1.888l1.623 3.696 1.624-3.696h1.901z"/><path d="m12.113 14.819c-.977 0-1.738-.244-2.284-.732-.546-.489-.849-1.195-.911-2.119h1.637c.062.502.222.856.482 1.063.259.206.644.31 1.155.31.977 0 1.465-.401 1.465-1.201 0-.361-.097-.636-.29-.825-.194-.19-.502-.319-.924-.39l-.858-.145c-1.646-.273-2.469-1.118-2.469-2.534 0-.845.28-1.514.838-2.007.559-.493 1.301-.739 2.225-.739.897 0 1.608.238 2.131.713.524.475.821 1.144.891 2.006h-1.663c-.026-.44-.154-.761-.383-.963-.228-.203-.563-.304-1.003-.304-.449 0-.787.103-1.016.31s-.343.491-.343.852c0 .316.101.567.303.752.203.185.519.317.951.396l.963.172c1.567.281 2.35 1.135 2.35 2.56 0 .916-.293 1.615-.878 2.099s-1.375.726-2.369.726z"/><path d="m19.742 14.846c-2.173 0-3.26-1.21-3.26-3.63v-2.086c0-2.42 1.104-3.63 3.313-3.63 1.012 0 1.813.284 2.402.851.59.568.885 1.494.885 2.779v2.086c0 1.284-.302 2.211-.904 2.778-.603.568-1.415.852-2.436.852zm.053-1.545c.528 0 .92-.169 1.175-.508s.383-.873.383-1.604v-1.967c0-.774-.128-1.335-.383-1.683-.255-.347-.647-.521-1.175-.521-.554 0-.955.169-1.201.508-.247.339-.37.904-.37 1.696v1.967c0 .748.123 1.287.37 1.617.246.33.647.495 1.201.495z"/></g></g></svg>