<svg clip-rule="evenodd" fill-rule="evenodd" stroke-linejoin="round" stroke-miterlimit="2" viewBox="0 0 32 32" xmlns="http://www.w3.org/2000/svg" xmlns:xlink="http://www.w3.org/1999/xlink"><clipPath id="a"><path clip-rule="evenodd" d="m0 0h32v32h-32z"/></clipPath><metadata/><path d="m0 0h32v32h-32z" fill="none"/><g clip-path="url(#a)"><path d="m15.064.19c.457-.124.939-.19 1.436-.19 2.346 0 4.351 1.472 5.14 3.541 1.405.762 2.36 2.25 2.36 3.959 0 .214-.015.425-.044.631l6.828 6.826c.217.218.41.46.573.722.263.424.445.898.535 1.389.042.232.063.468.065.704v.016 5.371c0 1.286-.727 2.462-1.878 3.038-2.007 1.003-7.406 3.703-9.895 4.947-1.54.77-3.4.468-4.618-.749l-5.941-5.942c-.135.243-.304.468-.504.668-.562.563-1.325.879-2.121.879l-.149-.004c-.741-.036-1.445-.347-1.972-.875-.563-.562-.879-1.325-.879-2.121v-.337c-.359-.17-.689-.401-.975-.688-.656-.656-1.025-1.545-1.025-2.473v-3.761c-1.221-1.009-2-2.535-2-4.241 0-.747.149-1.46.42-2.109-.272-.746-.42-1.551-.42-2.391 0-3.863 3.137-7 7-7 1.199 0 2.328.302 3.314.834.942-.531 2.029-.834 3.186-.834.539 0 1.063.066 1.564.19z"/><path d="m4 12h3v3h1v8c0 .117-.021.233-.061.343-.032.09-.078.175-.135.252-.058.078-.127.147-.204.205-.182.137-.41.208-.637.199-.117-.004-.232-.029-.34-.073-.116-.047-.222-.116-.312-.202-.095-.09-.172-.199-.225-.319-.057-.127-.086-.266-.086-.405l-.002-2.085c-.136.048-.278.076-.422.083-.149.008-.299-.007-.443-.043-.163-.041-.318-.109-.458-.202-.137-.089-.258-.202-.359-.33-.094-.121-.169-.256-.222-.399-.062-.167-.093-.344-.094-.522z" fill="#fcc6e5"/><path d="m15.098 2.292c.429-.188.904-.292 1.402-.292 1.932 0 3.5 1.568 3.5 3.5 0 1.656-1.152 3.045-2.698 3.408-.799 1.257-2.204 2.092-3.802 2.092-.978 0-1.884-.313-2.623-.844-.5.614-1.143 1.107-1.878 1.428-.045 1.893-1.595 3.416-3.499 3.416-1.932 0-3.5-1.568-3.5-3.5 0-.758.241-1.459.651-2.033-.414-.728-.651-1.57-.651-2.467 0-2.76 2.24-5 5-5 1.288 0 2.462.488 3.349 1.289.812-.797 1.925-1.289 3.151-1.289.563 0 1.102.104 1.598.292z" fill="#fff"/><path d="m29.957 17.788-13.667-8.498-12.29.869v5.263c0 .37.147.725.409.987 1.883 1.883 9.743 9.743 12.572 12.572.608.608 1.538.759 2.308.374 2.49-1.244 7.888-3.944 9.896-4.947.473-.237.772-.72.772-1.249 0-1.712 0-5.371 0-5.371z" fill="#e23898"/><path d="m28.333 18.333-12.38-14.374-10.329 5.665 12.376 14.376z" fill="#eb46a4"/><path d="m28.851 19.575c.575-.288.977-.834 1.08-1.469s-.106-1.28-.561-1.735c-3.307-3.306-9.875-9.872-12.397-12.393-.609-.609-1.539-.759-2.309-.375-2.202 1.102-6.726 3.364-9.558 4.78-.575.287-.977.834-1.08 1.468-.103.635.105 1.28.56 1.735l12.395 12.395c.608.608 1.538.759 2.308.374 2.204-1.101 6.729-3.364 9.562-4.78zm-21.163-9.129 10.904 10.904 7.676-3.838-10.907-10.903z" fill="#f876bf"/><path d="m8.042 6.042c.215-1.161 1.235-2.042 2.458-2.042 1.38 0 2.5 1.12 2.5 2.5 0 1.223-.881 2.243-2.042 2.458.028.177.042.358.042.542 0 1.932-1.568 3.5-3.5 3.5s-3.5-1.568-3.5-3.5 1.568-3.5 3.5-3.5c.184 0 .365.014.542.042zm11.458-1.042c1.38 0 2.5 1.12 2.5 2.5s-1.12 2.5-2.5 2.5-2.5-1.12-2.5-2.5 1.12-2.5 2.5-2.5z" fill="#fcc6e5"/></g></svg>