<svg clip-rule="evenodd" fill-rule="evenodd" stroke-linejoin="round" stroke-miterlimit="2" viewBox="0 0 32 32" xmlns="http://www.w3.org/2000/svg" xmlns:xlink="http://www.w3.org/1999/xlink"><clipPath id="a"><path clip-rule="evenodd" d="m0-.008h32v32h-32z"/></clipPath><metadata/><path d="m0-.008h32v32h-32z" fill="none"/><g clip-path="url(#a)"><path d="m16-.008c4.243 0 8.313 1.685 11.314 4.686 3 3.001 4.686 7.07 4.686 11.314v2c0 7.732-6.268 14-14 14-1.325 0-2.675 0-4 0-7.732 0-14-6.268-14-14v-2c0-8.837 7.163-16 16-16z"/><path d="m30 15.992c0-3.713-1.475-7.274-4.101-9.9-2.625-2.625-6.186-4.1-9.899-4.1-7.732 0-14 6.268-14 14v2c0 6.627 5.373 12 12 12h4c6.627 0 12-5.373 12-12z" fill="#fbc546"/><path d="m9.502 16.992c.928 0 1.817-.369 2.473-1.025s1.025-1.546 1.025-2.473c0-.658 0-1.345 0-2.002 0-1.933-1.567-3.5-3.5-3.5h-.002c-.928 0-1.817.368-2.473 1.024s-1.025 1.546-1.025 2.474v2.002c0 1.933 1.567 3.5 3.5 3.5z" fill="#fff"/><path d="m8 10.992c0-.531.211-1.039.586-1.415.375-.375.884-.585 1.414-.585s1.039.21 1.414.585c.375.376.586.884.586 1.415v2.983c0 .53-.211 1.039-.586 1.414s-.884.586-1.414.586-1.039-.211-1.414-.586-.586-.884-.586-1.414c0-.936 0-2.048 0-2.983z"/><path d="m22.498 16.992c-.928 0-1.817-.369-2.473-1.025s-1.025-1.546-1.025-2.473c0-.658 0-1.345 0-2.002 0-1.933 1.567-3.5 3.5-3.5h.002c.928 0 1.817.368 2.473 1.024s1.025 1.546 1.025 2.474v2.002c0 1.933-1.567 3.5-3.5 3.5z" fill="#fff"/><path d="m24 10.992c0-.531-.211-1.039-.586-1.415-.375-.375-.884-.585-1.414-.585s-1.039.21-1.414.585c-.375.376-.586.884-.586 1.415v2.983c0 .53.211 1.039.586 1.414s.884.586 1.414.586 1.039-.211 1.414-.586.586-.884.586-1.414c0-.936 0-2.048 0-2.983z"/><path d="m18.908 23.202 2.235-3.725c.283-.473.898-.627 1.371-.343.474.284.627.899.343 1.372l-3 5c-.171.286-.473.467-.805.484-.333.017-.652-.132-.852-.398l-2.2-2.934-2.2 2.934c-.2.266-.519.415-.852.398-.332-.017-.634-.198-.805-.484l-3-5c-.284-.473-.131-1.088.343-1.372.473-.284 1.088-.13 1.371.343l2.235 3.725 2.108-2.81c.416-.522 1.184-.522 1.6 0z" fill="#593604"/></g></svg>