<svg clip-rule="evenodd" fill-rule="evenodd" stroke-linejoin="round" stroke-miterlimit="1.41421" viewBox="0 0 32 32" xmlns="http://www.w3.org/2000/svg" xmlns:xlink="http://www.w3.org/1999/xlink"><clipPath id="a"><path clip-rule="evenodd" d="m0 0h32v32h-32z"/></clipPath><metadata/><path d="m0 0h32v32h-32z" fill="none"/><g clip-path="url(#a)"><path d="m32 22c0-1.591-.632-3.117-1.757-4.243-1.126-1.125-2.652-1.757-4.243-1.757-5.718 0-14.282 0-20 0-3.314 0-6 2.686-6 6v4c0 1.591.632 3.117 1.757 4.243 1.126 1.125 2.652 1.757 4.243 1.757h20c1.591 0 3.117-.632 4.243-1.757 1.125-1.126 1.757-2.652 1.757-4.243 0-1.308 0-2.692 0-4z"/><path d="m4 13v-5h16.379l-1.5-1.5v-2l2.121-2.121 7.121 7.121v2l-7.121 7.121-2.121-2.121v-2l1.5-1.5z" fill="#747474" fill-rule="nonzero" stroke="#000" stroke-width="4"/><path d="m5 14h14v3h-14z"/><path d="m4 13v-2l2-1h16.379l-3.5-3.5v-2l2.121-.121 7.121 5.121v2l-7.121 7.121-2.121-2.121v-2l3.5-1.5z" fill="#747474" fill-rule="nonzero"/><path d="m22.379 8-3.5-3.5 2.121-2.121 7.121 7.121-7.121 7.121-2.121-2.121 3.5-3.5h-18.379v-3z" fill="#fff" fill-rule="nonzero"/><path d="m30 22c0-1.061-.421-2.078-1.172-2.828-.75-.751-1.767-1.172-2.828-1.172-5.322 0-14.678 0-20 0-1.061 0-2.078.421-2.828 1.172-.751.75-1.172 1.767-1.172 2.828v4c0 1.061.421 2.078 1.172 2.828.75.751 1.767 1.172 2.828 1.172h20c1.061 0 2.078-.421 2.828-1.172.751-.75 1.172-1.767 1.172-2.828 0-1.287 0-2.713 0-4z" fill="#666"/><g fill="#fff" fill-rule="nonzero"><path d="m6.471 27.373c-.359-.396-.542-.964-.549-1.704h1.299c.015.381.092.662.23.841s.342.269.611.269.465-.082.588-.247c.123-.164.185-.426.185-.784 0-.299-.069-.536-.208-.712-.138-.175-.371-.338-.7-.487l-.526-.235c-.501-.224-.861-.501-1.082-.829-.22-.329-.33-.77-.33-1.323 0-.649.188-1.169.566-1.557.377-.388.887-.583 1.529-.583.635 0 1.126.193 1.473.577.348.385.533.94.555 1.664h-1.266c-.008-.351-.069-.614-.185-.79-.116-.175-.308-.263-.577-.263-.5 0-.751.295-.751.885 0 .269.062.484.185.644.123.161.331.305.622.432l.504.224c.538.239.928.538 1.171.896.243.359.364.837.364 1.434 0 .718-.186 1.27-.56 1.659-.373.388-.904.582-1.591.582-.68 0-1.199-.198-1.557-.593z"/><path d="m11.49 27.401c-.388-.378-.582-.929-.582-1.653v-3.485c0-.732.205-1.286.616-1.664.411-.377.952-.565 1.624-.565.65 0 1.171.188 1.563.565.393.378.589.932.589 1.664v3.485c0 .717-.208 1.266-.622 1.647-.415.381-.951.571-1.608.571-.665 0-1.191-.188-1.58-.565zm2.224-.975c.138-.198.208-.476.208-.835v-3.104c0-.395-.068-.696-.202-.902-.135-.205-.336-.308-.605-.308-.291 0-.502.101-.633.303s-.196.504-.196.907v3.104c0 .754.276 1.132.829 1.132.261 0 .461-.099.599-.297z"/><path d="m16.734 27.401c-.389-.378-.583-.929-.583-1.653v-3.485c0-.732.206-1.286.617-1.664.41-.377.952-.565 1.624-.565.65 0 1.171.188 1.563.565.392.378.588.932.588 1.664v3.485c0 .717-.207 1.266-.621 1.647-.415.381-.951.571-1.608.571-.665 0-1.192-.188-1.58-.565zm2.224-.975c.138-.198.207-.476.207-.835v-3.104c0-.395-.067-.696-.201-.902-.135-.205-.337-.308-.605-.308-.292 0-.503.101-.634.303-.13.202-.196.504-.196.907v3.104c0 .754.277 1.132.83 1.132.261 0 .461-.099.599-.297z"/><path d="m25.81 20.146v7.731h-1.379l-1.613-4.123v4.123h-1.378v-7.731h1.378l1.613 4.302v-4.302z"/></g></g></svg>