<svg clip-rule="evenodd" fill-rule="evenodd" stroke-linejoin="round" stroke-miterlimit="1.41421" viewBox="0 0 32 32" xmlns="http://www.w3.org/2000/svg" xmlns:xlink="http://www.w3.org/1999/xlink"><clipPath id="a"><path clip-rule="evenodd" d="m0 0h32v32h-32z"/></clipPath><metadata/><path d="m0 0h32v32h-32z" fill="none"/><g clip-path="url(#a)"><path d="m32 8c0-4.418-3.582-8-8-8-4.887 0-11.113 0-16 0-4.418 0-8 3.582-8 8v16c0 4.418 3.582 8 8 8h16c4.418 0 8-3.582 8-8 0-4.887 0-11.113 0-16z"/><path d="m30 8c0-1.591-.632-3.117-1.757-4.243-1.126-1.125-2.652-1.757-4.243-1.757-4.724 0-11.276 0-16 0-1.591 0-3.117.632-4.243 1.757-1.125 1.126-1.757 2.652-1.757 4.243v16c0 1.591.632 3.117 1.757 4.243 1.126 1.125 2.652 1.757 4.243 1.757h16c1.591 0 3.117-.632 4.243-1.757 1.125-1.126 1.757-2.652 1.757-4.243 0-4.724 0-11.276 0-16z" fill="#e82731"/><g fill="#fff" fill-rule="nonzero"><path d="m7.542 22.678c-1.143 0-2.016-.333-2.619-.998-.603-.666-.91-1.62-.923-2.864h2.185c.025.641.154 1.112.386 1.413.233.302.575.452 1.027.452s.782-.138.989-.414.311-.716.311-1.319c0-.502-.116-.901-.349-1.196-.232-.295-.624-.568-1.177-.82l-.885-.395c-.842-.377-1.448-.842-1.818-1.394-.371-.553-.556-1.294-.556-2.223 0-1.093.317-1.966.951-2.619.635-.653 1.492-.979 2.572-.979 1.067 0 1.893.323 2.477.97s.895 1.579.933 2.797h-2.129c-.013-.59-.116-1.032-.311-1.328-.195-.295-.518-.442-.97-.442-.842 0-1.262.496-1.262 1.488 0 .452.103.813.31 1.083.208.27.556.512 1.046.725l.848.377c.904.402 1.56.904 1.968 1.507s.613 1.407.613 2.412c0 1.205-.314 2.135-.942 2.788s-1.52.979-2.675.979z"/><path d="m16.019 22.678c-1.118 0-2.003-.317-2.656-.951s-.98-1.561-.98-2.779v-5.859c0-1.23.345-2.163 1.036-2.797s1.601-.951 2.732-.951c1.092 0 1.968.317 2.628.951.659.634.989 1.567.989 2.797v5.859c0 1.206-.349 2.129-1.046 2.769-.697.641-1.598.961-2.703.961zm.075-2.091c.44 0 .776-.166 1.008-.499s.349-.801.349-1.404v-5.218c0-.665-.113-1.171-.34-1.516-.226-.346-.565-.518-1.017-.518-.49 0-.844.169-1.064.508s-.33.848-.33 1.526v5.218c0 1.269.465 1.903 1.394 1.903z"/><path d="m24.383 22.678c-1.143 0-2.016-.333-2.618-.998-.603-.666-.911-1.62-.924-2.864h2.186c.025.641.154 1.112.386 1.413.232.302.574.452 1.027.452.452 0 .781-.138.989-.414.207-.276.31-.716.31-1.319 0-.502-.116-.901-.348-1.196s-.625-.568-1.177-.82l-.886-.395c-.841-.377-1.447-.842-1.818-1.394-.37-.553-.556-1.294-.556-2.223 0-1.093.318-1.966.952-2.619s1.491-.979 2.571-.979c1.068 0 1.893.323 2.477.97s.895 1.579.933 2.797h-2.129c-.012-.59-.116-1.032-.311-1.328-.194-.295-.518-.442-.97-.442-.841 0-1.262.496-1.262 1.488 0 .452.104.813.311 1.083s.556.512 1.045.725l.848.377c.904.402 1.561.904 1.969 1.507s.612 1.407.612 2.412c0 1.205-.314 2.135-.942 2.788s-1.52.979-2.675.979z"/></g></g></svg>