<svg clip-rule="evenodd" fill-rule="evenodd" stroke-linecap="round" stroke-linejoin="round" stroke-miterlimit="1.5" viewBox="0 0 32 32" xmlns="http://www.w3.org/2000/svg"><metadata/><path d="m0 0h32v32h-32z" fill="none"/><path d="m16.026 2.037c.256.365 2.386 3.395 5.074 6.963 2.621 3.478 5.3 7.469 5.771 9.958.062.328.088.649.08.958v1.782c.068 2.707-2.399 4.644-5.242 4.24-1.458-.207-2.575-1.242-3.481-2.573l.772 4.635v2h-6v-2l.772-4.635c-.906 1.331-2.023 2.366-3.481 2.573-2.843.404-5.31-1.533-5.242-4.24v-1.782c-.008-.309.018-.63.08-.958.471-2.489 3.15-6.48 5.771-9.958 2.868-3.806 5.1-7 5.1-7l.026.037z" fill="none" stroke="#000" stroke-width="4"/><path d="m16.026 4.037c.256.365 2.386 3.395 5.074 6.963 2.265 3.005 4.572 6.393 5.462 8.864h.389v1.834c.068 2.707-2.399 4.644-5.242 4.24-1.58-.224-2.759-1.42-3.704-2.911l.995 4.973v2h-6v-2l.995-4.973c-.945 1.491-2.124 2.687-3.704 2.911-2.843.404-5.31-1.533-5.242-4.24v-1.834h.389c.89-2.471 3.197-5.859 5.462-8.864 2.868-3.806 5.1-7 5.1-7z" fill="#474747"/><path d="m16.026 2.037c.255.365 2.386 3.395 5.074 6.963 2.621 3.478 5.3 7.469 5.771 9.958.585 3.084-2.066 5.419-5.162 4.98-1.711-.243-2.951-1.625-3.934-3.288l1.225 7.35h-6l1.225-7.35c-.983 1.663-2.223 3.045-3.934 3.288-3.096.439-5.747-1.896-5.162-4.98.471-2.489 3.15-6.48 5.771-9.958 2.868-3.806 5.1-7 5.1-7z" fill="#717171"/></svg>