<svg clip-rule="evenodd" fill-rule="evenodd" stroke-linecap="round" stroke-linejoin="round" stroke-miterlimit="1.5" viewBox="0 0 32 32" xmlns="http://www.w3.org/2000/svg" xmlns:xlink="http://www.w3.org/1999/xlink"><clipPath id="a"><path clip-rule="evenodd" d="m16 25.749s-5.497-5.496-9.541-9.54c-1.117-1.118-1.745-2.634-1.745-4.215 0-1.58.628-3.096 1.745-4.214.001-.001.002-.001.002-.002 1.118-1.117 2.634-1.745 4.215-1.745 1.58 0 3.096.628 4.214 1.745.65.65 1.11 1.11 1.11 1.11s.46-.46 1.11-1.11c1.118-1.117 2.634-1.745 4.214-1.745 1.581 0 3.097.628 4.215 1.745 0 .001.001.001.002.002 1.117 1.118 1.745 2.634 1.745 4.214 0 1.581-.628 3.097-1.745 4.215-4.044 4.044-9.541 9.54-9.541 9.54z"/></clipPath><metadata/><g fill="none"><path d="m0 0h32v32h-32z"/><path d="m16 27s-6.194-6.194-10.751-10.751c-1.26-1.26-1.967-2.968-1.967-4.749s.707-3.489 1.967-4.749c.001-.001.001-.001.002-.002 1.26-1.26 2.968-1.967 4.749-1.967s3.489.707 4.749 1.967c.732.732 1.251 1.251 1.251 1.251s.519-.519 1.251-1.251c1.26-1.26 2.968-1.967 4.749-1.967s3.489.707 4.749 1.967c.001.001.001.001.002.002 1.26 1.26 1.967 2.968 1.967 4.749s-.707 3.489-1.967 4.749c-4.557 4.557-10.751 10.751-10.751 10.751z" stroke="#000" stroke-width="4"/><path d="m7.5 4v7" stroke="#000" stroke-width="7"/><path d="m11 7.5h-7" stroke="#000" stroke-width="7"/><path d="m24 20v4" stroke="#000" stroke-width="7"/><path d="m26 22h-4" stroke="#000" stroke-width="7"/></g><path d="m16 25.749s-5.497-5.496-9.541-9.54c-1.117-1.118-1.745-2.634-1.745-4.215 0-1.58.628-3.096 1.745-4.214.001-.001.002-.001.002-.002 1.118-1.117 2.634-1.745 4.215-1.745 1.58 0 3.096.628 4.214 1.745.65.65 1.11 1.11 1.11 1.11s.46-.46 1.11-1.11c1.118-1.117 2.634-1.745 4.214-1.745 1.581 0 3.097.628 4.215 1.745 0 .001.001.001.002.002 1.117 1.118 1.745 2.634 1.745 4.214 0 1.581-.628 3.097-1.745 4.215-4.044 4.044-9.541 9.54-9.541 9.54z" fill="#ff4586"/><g clip-path="url(#a)"><path d="m23 1v3.858c0 2.652-1.054 5.196-2.929 7.071-1.208 1.208-2.589 2.589-3.728 3.728-1.5 1.5-2.343 3.535-2.343 5.657v5.686h-12v-26z" fill="#ff8fb6"/></g><path d="m10.083 4.782.084.002.083.003.083.003.083.005.083.005.082.007.083.008.082.008.082.01.082.011.082.011.081.013.081.014.082.014.08.016.081.017.08.017.08.019.08.019.08.021.079.021.079.023.078.023.079.024.078.026.077.026.077.027.077.028.077.029.076.03.076.031.076.032.075.033.074.033.075.035.073.035.074.037.073.037.072.038.073.039.071.04.071.041.071.042.07.042.07.044.069.044.069.045.068.046.068.047.067.048.067.049.066.049.065.051.065.051.064.052.064.053.063.053.063.055.062.055.061.056.061.057.06.058.059.059 1.251 1.251 1.251-1.251.059-.059.06-.058.061-.057.061-.056.062-.055.063-.055.063-.053.064-.053.064-.052.065-.051.065-.051.066-.049.067-.049.067-.048.068-.047.068-.046.069-.045.069-.044.07-.044.07-.042.071-.042.071-.041.071-.04.073-.039.072-.038.073-.037.074-.037.073-.035.075-.035.074-.033.075-.033.076-.032.076-.031.076-.03.077-.029.077-.028.077-.027.077-.026.078-.026.079-.024.078-.023.079-.023.079-.021.08-.021.08-.019.08-.019.08-.017.081-.017.08-.016.082-.014.081-.014.081-.013.082-.011.082-.011.082-.01.082-.008.083-.008.082-.007.083-.005.083-.005.083-.003.083-.003.084-.002h.083.083l.084.002.083.003.083.003.083.005.083.005.082.007.083.008.082.008.082.01.082.011.082.011.081.013.082.014.081.014.08.016.081.017.08.017.08.019.08.019.08.021.079.021.079.023.078.023.079.024.078.026.077.026.077.027.077.028.077.029.076.03.076.031.076.032.075.033.074.033.075.035.074.035.073.037.073.037.073.038.072.039.071.04.071.041.071.042.07.042.07.044.069.044.069.045.068.046.068.047.067.048.067.049.066.049.065.051.065.051.064.052.064.053.063.053.063.055.062.055.061.056.061.057.06.058.061.061.059.059.058.06.057.061.056.061.055.062.055.063.053.063.053.064.052.064.051.065.051.065.049.066.049.067.048.067.047.068.046.068.045.069.044.069.044.07.042.07.042.071.041.071.04.071.039.072.038.073.037.073.037.073.035.074.035.075.033.074.033.075.032.076.031.076.03.076.029.077.028.077.027.077.026.077.026.078.024.079.023.078.023.079.021.079.021.08.019.08.019.08.017.08.017.081.016.08.014.081.014.082.013.081.011.082.011.082.01.082.008.082.008.083.007.082.005.083.005.083.003.083.003.083.002.084v.083.083l-.002.084-.003.083-.003.083-.005.083-.005.083-.007.082-.008.083-.008.082-.01.082-.011.082-.011.082-.013.081-.014.082-.014.081-.016.08-.017.081-.017.08-.019.08-.019.08-.021.08-.021.079-.023.079-.023.078-.024.079-.026.078-.026.077-.027.077-.028.077-.029.077-.03.076-.031.076-.032.076-.033.075-.033.074-.035.075-.035.074-.037.073-.037.073-.038.073-.039.072-.04.071-.041.071-.042.071-.042.07-.044.07-.044.069-.045.069-.046.068-.047.068-.048.067-.049.067-.049.066-.051.065-.051.065-.052.064-.053.064-.053.063-.055.063-.055.062-.056.061-.057.061-.058.06-.059.059-10.751 10.751-10.751-10.751-.059-.059-.058-.06-.057-.061-.056-.061-.055-.062-.055-.063-.053-.063-.053-.064-.052-.064-.051-.065-.051-.065-.049-.066-.049-.067-.048-.067-.047-.068-.046-.068-.045-.069-.044-.069-.044-.07-.042-.07-.042-.071-.041-.071-.04-.071-.039-.072-.038-.073-.037-.073-.037-.073-.035-.074-.035-.075-.033-.074-.033-.075-.032-.076-.031-.076-.03-.076-.029-.077-.028-.077-.027-.077-.026-.077-.026-.078-.024-.079-.023-.078-.023-.079-.021-.079-.021-.08-.019-.08-.019-.08-.017-.08-.017-.081-.016-.08-.014-.081-.014-.082-.013-.081-.011-.082-.011-.082-.01-.082-.008-.082-.008-.083-.007-.082-.005-.083-.005-.083-.003-.083-.003-.083-.002-.084v-.083-.083l.002-.084.003-.083.003-.083.005-.083.005-.083.007-.082.008-.083.008-.082.01-.082.011-.082.011-.082.013-.081.014-.082.014-.081.016-.08.017-.081.017-.08.019-.08.019-.08.021-.08.021-.079.023-.079.023-.078.024-.079.026-.078.026-.077.027-.077.028-.077.029-.077.03-.076.031-.076.032-.076.033-.075.033-.074.035-.075.035-.074.037-.073.037-.073.038-.073.039-.072.04-.071.041-.071.042-.071.042-.07.044-.07.044-.069.045-.069.046-.068.047-.068.048-.067.049-.067.049-.066.051-.065.051-.065.052-.064.053-.064.053-.063.055-.063.055-.062.056-.061.057-.061.058-.06.059-.059.002-.002.059-.059.06-.058.061-.057.061-.056.062-.055.063-.055.063-.053.064-.053.064-.052.065-.051.065-.051.066-.049.067-.049.067-.048.068-.047.068-.046.069-.045.069-.044.07-.044.07-.042.071-.042.071-.041.071-.04.072-.039.073-.038.073-.037.073-.037.074-.035.075-.035.074-.033.075-.033.076-.032.076-.031.076-.03.077-.029.077-.028.077-.027.077-.026.078-.026.079-.024.078-.023.079-.023.079-.021.08-.021.08-.019.08-.019.08-.017.081-.017.08-.016.081-.014.082-.014.081-.013.082-.011.082-.011.082-.01.082-.008.083-.008.082-.007.083-.005.083-.005.083-.003.083-.003.084-.002h.083.083zm11.858 2-.058.001-.059.002-.058.003-.058.003-.058.004-.058.005-.058.005-.058.006-.057.007-.058.007-.057.009-.058.008-.057.01-.057.01-.056.011-.057.012-.056.012-.056.013-.056.014-.056.014-.056.016-.055.015-.056.017-.054.017-.055.018-.055.018-.054.019-.054.02-.054.02-.053.021-.054.022-.053.022-.052.023-.053.024-.052.024-.052.025-.052.026-.051.026-.051.027-.05.027-.051.028-.05.029-.049.029-.05.03-.049.03-.048.031-.048.032-.048.033-.048.033-.047.033-.047.034-.046.035-.046.035-.046.036-.045.037-.044.037-.045.038-.044.038-.043.039-.043.039-.043.04-.042.041-.046.046-2.661 2.66-2.661-2.661-.046-.045-.042-.041-.043-.04-.043-.039-.043-.039-.044-.038-.045-.038-.044-.037-.045-.037-.046-.036-.046-.035-.046-.035-.047-.034-.047-.033-.048-.033-.048-.033-.048-.031-.048-.032-.049-.03-.05-.03-.049-.029-.05-.029-.051-.028-.05-.028-.051-.026-.051-.026-.052-.026-.052-.025-.052-.024-.053-.024-.052-.023-.053-.022-.054-.022-.053-.021-.054-.02-.054-.02-.054-.019-.055-.018-.055-.018-.054-.017-.056-.017-.055-.015-.056-.016-.056-.014-.055-.014-.057-.013-.056-.012-.057-.012-.056-.011-.057-.01-.057-.01-.058-.008-.057-.009-.058-.007-.057-.007-.058-.006-.058-.005-.058-.005-.058-.004-.058-.003-.058-.003-.059-.002-.058-.001h-.059-.059l-.058.001-.059.002-.058.003-.058.003-.058.004-.058.005-.058.005-.058.006-.058.007-.057.007-.057.009-.058.008-.057.01-.057.01-.056.011-.057.012-.056.012-.056.013-.057.014-.055.015-.056.015-.055.015-.055.017-.055.017-.055.018-.055.018-.054.019-.054.02-.054.02-.053.021-.054.022-.053.022-.052.023-.053.024-.052.024-.052.025-.052.026-.051.026-.051.026-.05.028-.051.028-.05.029-.049.029-.05.03-.049.03-.048.032-.048.031-.048.033-.048.032-.047.034-.047.034-.046.035-.046.035-.046.036-.045.037-.045.037-.044.038-.044.038-.043.039-.043.039-.043.04-.042.041-.043.042-.042.043-.041.042-.04.043-.039.043-.039.043-.038.044-.038.045-.037.044-.037.045-.036.046-.035.046-.035.046-.034.047-.034.047-.032.048-.033.048-.032.048-.031.048-.03.049-.03.05-.029.049-.029.05-.028.051-.027.05-.027.051-.026.051-.026.052-.025.052-.024.052-.024.053-.023.052-.022.053-.022.054-.021.053-.02.054-.02.054-.019.054-.018.055-.018.055-.017.054-.017.056-.015.055-.016.056-.014.056-.014.056-.013.056-.012.056-.012.057-.011.057-.01.056-.009.057-.009.058-.009.057-.007.058-.007.057-.006.058-.005.058-.005.058-.004.058-.003.058-.003.058-.002.059-.001.058v.059.059l.001.058.002.059.003.058.003.058.004.058.005.058.005.058.006.058.007.057.007.058.009.057.009.058.009.057.01.056.011.057.012.057.012.056.013.056.014.056.014.056.016.056.015.055.017.056.017.054.018.055.018.055.019.054.02.054.02.054.021.053.022.054.022.053.023.052.024.053.024.052.025.052.026.052.026.051.027.051.027.05.028.051.029.05.029.049.03.05.03.049.031.048.032.048.033.048.032.048.034.047.034.047.035.046.035.046.036.046.037.045.037.044.038.045.038.044.039.043.039.043.04.043.041.042.046.046 9.332 9.333 9.332-9.333.046-.046.041-.042.04-.043.039-.043.039-.043.038-.044.038-.044.037-.045.037-.045.036-.046.035-.046.035-.046.034-.047.033-.047.033-.048.033-.048.032-.048.031-.049.03-.048.03-.05.029-.049.029-.05.028-.051.028-.05.026-.051.026-.051.026-.052.025-.052.024-.052.024-.053.023-.052.022-.053.022-.053.021-.054.02-.054.02-.054.019-.054.018-.055.018-.054.017-.056.017-.055.015-.055.015-.056.015-.055.014-.057.013-.056.012-.056.012-.057.011-.056.01-.057.01-.057.008-.058.009-.057.007-.057.007-.058.006-.058.005-.058.005-.058.004-.058.003-.058.003-.059.002-.058.001-.058v-.059-.059l-.001-.058-.002-.058-.003-.059-.003-.058-.004-.058-.005-.058-.005-.058-.006-.058-.007-.058-.007-.057-.009-.057-.008-.058-.01-.057-.01-.057-.011-.056-.012-.057-.012-.056-.013-.056-.014-.057-.015-.055-.015-.056-.015-.055-.017-.055-.017-.056-.018-.054-.018-.055-.019-.054-.02-.054-.02-.054-.021-.054-.022-.053-.022-.053-.023-.052-.024-.053-.024-.052-.025-.052-.026-.052-.026-.051-.026-.051-.028-.05-.028-.051-.029-.05-.029-.049-.03-.05-.03-.048-.031-.049-.032-.048-.033-.048-.033-.048-.033-.047-.034-.047-.035-.046-.035-.046-.036-.046-.037-.045-.037-.045-.038-.044-.038-.044-.039-.043-.039-.043-.04-.043-.041-.042-.042-.043-.043-.042-.042-.041-.043-.04-.043-.039-.043-.039-.044-.038-.045-.038-.044-.037-.045-.037-.046-.036-.046-.035-.046-.035-.047-.034-.047-.034-.048-.032-.047-.033-.049-.032-.048-.031-.049-.03-.05-.03-.049-.029-.05-.029-.051-.028-.05-.027-.051-.027-.051-.026-.052-.026-.052-.025-.052-.024-.053-.024-.052-.023-.053-.022-.054-.022-.053-.021-.054-.02-.054-.02-.054-.019-.055-.018-.055-.018-.055-.017-.055-.017-.055-.015-.056-.015-.056-.015-.056-.014-.056-.013-.056-.012-.057-.012-.056-.011-.057-.01-.057-.01-.058-.008-.057-.009-.057-.007-.058-.007-.058-.006-.058-.005-.058-.005-.058-.004-.058-.003-.058-.003-.059-.002-.058-.001h-.059-.059z" fill="#ff4586"/><path d="m7.5 4v7" fill="none" stroke="#fdef24" stroke-width="3"/><path d="m11 7.5h-7" fill="none" stroke="#fdef24" stroke-width="3"/><path d="m24 20v4" fill="none" stroke="#fdef24" stroke-width="2.5"/><path d="m26 22h-4" fill="none" stroke="#fdef24" stroke-width="2.5"/></svg>