<svg clip-rule="evenodd" fill-rule="evenodd" stroke-linecap="round" stroke-linejoin="round" stroke-miterlimit="1.5" viewBox="0 0 32 32" xmlns="http://www.w3.org/2000/svg" xmlns:xlink="http://www.w3.org/1999/xlink"><clipPath id="a"><path clip-rule="evenodd" d="m13 16 16-16h2v32h-2z"/></clipPath><metadata/><path d="m0 0v32h32v-32z" fill="none"/><path d="m2 12v8h6l6 6v-20l-6 6z" fill="none" stroke="#000" stroke-width="4"/><path d="m24.844 27.844c3.141-3.141 4.906-7.402 4.906-11.844s-1.765-8.703-4.906-11.844l-11.844 11.844z" stroke="#000" stroke-width="4"/><path d="m13 16 16-16h2v32h-2z" fill="none"/><g clip-path="url(#a)" fill="none" stroke="#e6e6e6" stroke-width="2.5"><circle cx="13" cy="16" r="15.5"/><circle cx="13" cy="16" r="11"/><circle cx="13" cy="16" r="6.5"/></g><path d="m14 22-6-3-6-1v-6h6l6-6z" fill="#666"/><path d="m2 18h7.172c.53 0 1.039.211 1.414.586l3.414 3.414v4l-6-6h-6z" fill="#515151"/></svg>