<svg clip-rule="evenodd" fill-rule="evenodd" stroke-linecap="round" stroke-linejoin="round" stroke-miterlimit="1.5" viewBox="0 0 32 32" xmlns="http://www.w3.org/2000/svg" xmlns:xlink="http://www.w3.org/1999/xlink"><clipPath id="a"><path clip-rule="evenodd" d="m0 0v32h32v-32z"/></clipPath><metadata/><path d="m0 0v32h32v-32z" fill="none"/><g clip-path="url(#a)"><path d="m14 11h7v9h-7z"/><path d="m2 12v8h6l6 6v-20l-6 6z" fill="none" stroke="#000" stroke-width="4"/><path d="m23.5 13.5 4.5-4.5 2 2-4.5 4.5 4.5 4.5-2 2-4.5-4.5-4.5 4.5-2-2 4.5-4.5-4.5-4.5 2-2z" fill="none" stroke="#000" stroke-width="4"/><path d="m14 22-6-3-6-1v-6h6l6-6z" fill="#666"/><path d="m2 18h7.172c.53 0 1.039.211 1.414.586l3.414 3.414v4l-6-6h-6z" fill="#515151"/><path d="m23.5 13.5 4.5-4.5 2 2-4.5 4.5 4.5 4.5-2 2-4.5-4.5-4.5 4.5-2-2 4.5-4.5-4.5-4.5 2-2z" fill="#e82731"/></g></svg>