<svg clip-rule="evenodd" fill-rule="evenodd" stroke-linecap="round" stroke-linejoin="round" stroke-miterlimit="1.5" viewBox="0 0 32 32" xmlns="http://www.w3.org/2000/svg" xmlns:xlink="http://www.w3.org/1999/xlink"><clipPath id="a"><path clip-rule="evenodd" d="m0 0v32h32v-32z"/></clipPath><clipPath id="b"><path clip-rule="evenodd" d="m17 16 16-16h2v32h-2z"/></clipPath><metadata/><path d="m0 0v32h32v-32z" fill="none"/><g clip-path="url(#a)"><path d="m22.48 21.48c1.453-1.453 2.27-3.425 2.27-5.48s-.817-4.027-2.27-5.48l-5.48 5.48z" stroke="#000" stroke-width="4"/><path d="m6 12v8h6l6 6v-20l-6 6z" fill="none" stroke="#000" stroke-width="4"/><path d="m17 16 16-16h2v32h-2z" fill="none"/><g clip-path="url(#b)"><circle cx="17" cy="16" fill="none" r="6.5" stroke="#e6e6e6" stroke-width="2.5"/></g><path d="m18 22-6-3-6-1v-6h6l6-6z" fill="#666"/><path d="m6 18h7.172c.53 0 1.039.211 1.414.586l3.414 3.414v4l-6-6h-6z" fill="#515151"/></g></svg>