<svg clip-rule="evenodd" fill-rule="evenodd" stroke-linejoin="round" stroke-miterlimit="1.41421" viewBox="0 0 32 32" xmlns="http://www.w3.org/2000/svg" xmlns:xlink="http://www.w3.org/1999/xlink"><clipPath id="a"><path clip-rule="evenodd" d="m0 0h32v32h-32z"/></clipPath><metadata/><path d="m0 0h32v32h-32z" fill="none"/><g clip-path="url(#a)"><path d="m26 3c0-1.657-1.343-3-3-3-3.776 0-10.224 0-14 0-1.657 0-3 1.343-3 3v26c0 1.657 1.343 3 3 3h14c1.657 0 3-1.343 3-3 0-6.102 0-19.898 0-26z"/><path d="m24 3c0-.552-.448-1-1-1-2.873 0-11.127 0-14 0-.552 0-1 .448-1 1v26c0 .552.448 1 1 1h14c.552 0 1-.448 1-1 0-4.355 0-21.645 0-26z" fill="#4d4d4d"/><circle cx="16" cy="10" fill="#b3b3b3" r="7"/><circle cx="16" cy="10" fill="#666" r="6"/><circle cx="16" cy="10" fill="#1a1a1a" r="2"/><circle cx="16" cy="23.5" fill="#b3b3b3" r="4.5"/><circle cx="16" cy="23.5" fill="#666" r="3.5"/><circle cx="16" cy="23.5" fill="#1a1a1a" r="1.5"/></g></svg>