<svg clip-rule="evenodd" fill-rule="evenodd" stroke-linejoin="round" stroke-miterlimit="1.41421" viewBox="0 0 32 32" xmlns="http://www.w3.org/2000/svg" xmlns:xlink="http://www.w3.org/1999/xlink"><clipPath id="a"><path clip-rule="evenodd" d="m0 0h32v32h-32z"/></clipPath><metadata/><path d="m0 0h32v32h-32z" fill="none"/><g clip-path="url(#a)"><path d="m32 8c0-4.418-3.582-8-8-8-4.887 0-11.113 0-16 0-4.418 0-8 3.582-8 8v16c0 4.418 3.582 8 8 8h16c4.418 0 8-3.582 8-8 0-4.887 0-11.113 0-16z"/><path d="m30 8c0-1.591-.632-3.117-1.757-4.243-1.126-1.125-2.652-1.757-4.243-1.757-4.724 0-11.276 0-16 0-1.591 0-3.117.632-4.243 1.757-1.125 1.126-1.757 2.652-1.757 4.243v16c0 1.591.632 3.117 1.757 4.243 1.126 1.125 2.652 1.757 4.243 1.757h16c1.591 0 3.117-.632 4.243-1.757 1.125-1.126 1.757-2.652 1.757-4.243 0-4.724 0-11.276 0-16z" fill="#fff"/><g fill="#333"><path d="m11.282 21.451c0-.203-.038-.366-.113-.49s-.198-.186-.368-.186-.33.034-.48.103c-.15.068-.287.168-.412.299-.287.313-.431.686-.431 1.117 0 .294.077.518.231.671.153.154.344.23.573.23s.42-.063.573-.191c.154-.127.296-.318.427-.573zm.931 1.274c0 .333.114.5.343.5.104 0 .223-.034.357-.103s.26-.181.378-.338c.281-.366.421-.853.421-1.46 0-.758-.251-1.369-.755-1.833-.542-.497-1.261-.745-2.156-.745-1.078 0-1.96.333-2.646 1-.679.653-1.019 1.476-1.019 2.469 0 .961.323 1.719.97 2.274.68.595 1.607.892 2.784.892v.951c-.745 0-1.42-.11-2.024-.329-.605-.219-1.122-.516-1.554-.892-.431-.375-.762-.818-.994-1.328-.232-.509-.348-1.076-.348-1.7s.121-1.209.362-1.754c.242-.546.579-1.013 1.01-1.402.431-.388.942-.689 1.534-.901.591-.213 1.212-.319 1.862-.319s1.226.093 1.729.279c.504.187.933.443 1.289.77s.632.71.828 1.151.294.9.294 1.377-.068.891-.205 1.24c-.138.35-.316.644-.535.882-.218.239-.47.42-.754.544s-.578.186-.882.186-.554-.057-.75-.171c-.196-.115-.323-.276-.382-.485l-.059-.157c-.131.248-.289.446-.475.593-.187.147-.417.22-.691.22-.275 0-.508-.045-.701-.137-.193-.091-.364-.216-.515-.372-.333-.36-.499-.797-.499-1.314 0-.673.235-1.248.705-1.724.458-.471 1.01-.706 1.657-.706.431 0 .775.129 1.033.387.259.258.388.648.388 1.171z" fill-rule="nonzero"/><path d="m19.045 17.199c.233 0 .457.041.673.123s.406.205.57.369c.354.336.53.824.53 1.462 0 .63-.176 1.122-.53 1.476-.328.328-.747.492-1.256.492-.492 0-.902-.164-1.229-.492-.354-.354-.531-.846-.531-1.476 0-.638.177-1.126.531-1.462.336-.328.75-.492 1.242-.492zm.621 1.954c0-.656-.211-.983-.634-.983-.414 0-.621.327-.621.983 0 .665.207.997.621.997.423 0 .634-.332.634-.997zm3.884-1.786h1.54l-5.682 8.401h-1.554zm.349 4.647c.492 0 .906.164 1.243.492.353.336.53.824.53 1.462 0 .639-.177 1.135-.53 1.489-.328.328-.743.492-1.243.492s-.915-.164-1.243-.492c-.353-.354-.53-.85-.53-1.489 0-.638.177-1.126.53-1.462.337-.328.751-.492 1.243-.492zm0 .971c-.414 0-.621.33-.621.99s.207.99.621.99c.181 0 .332-.075.453-.226s.181-.406.181-.764-.06-.613-.181-.764-.272-.226-.453-.226z" fill-rule="nonzero"/><path d="m15.507 10.499h-3.61v4.302h-1.434v-4.302h-3.561v-1.435h8.605zm0-2.869h-8.605v-1.434h8.605z"/><path d="m21.832 11.094v-5.238l.303-.188c1.201.601 2.402 1.201 3.603 1.802l-.641 1.283-1.831-.916v4.851c0 .965-1.094 1.749-2.442 1.749s-2.442-.784-2.442-1.749c0-.966 1.094-1.75 2.442-1.75.359 0 .701.056 1.008.156z"/></g></g></svg>