<svg clip-rule="evenodd" fill-rule="evenodd" stroke-linejoin="round" stroke-miterlimit="1.41421" viewBox="0 0 32 32" xmlns="http://www.w3.org/2000/svg"><metadata/><path d="m0 0v32h32v-32z" fill="none"/><path d="m25 22h2c1.657 0 3-1.343 3-3 0-3.329 0-8.671 0-12 0-1.657-1.343-3-3-3-5.382 0-16.618 0-22 0-1.657 0-3 1.343-3 3v12c0 1.657 1.343 3 3 3h13l7 7z" fill="none" stroke="#000" stroke-width="4"/><path d="m25 22h2c1.657 0 3-1.343 3-3 0-1.5 0-3 0-3h-28v3c0 1.657 1.343 3 3 3h13l7 7z" fill="#747474" fill-rule="nonzero"/><path d="m25 20h2c1.657 0 3-1.343 3-3 0-2.859 0-7.141 0-10 0-1.657-1.343-3-3-3-5.382 0-16.618 0-22 0-1.657 0-3 1.343-3 3v10c0 1.657 1.343 3 3 3h14l6 6z" fill="#fff"/></svg>