<svg clip-rule="evenodd" fill-rule="evenodd" stroke-linecap="square" stroke-linejoin="round" stroke-miterlimit="1.41421" viewBox="0 0 32 32" xmlns="http://www.w3.org/2000/svg" xmlns:xlink="http://www.w3.org/1999/xlink"><clipPath id="a"><path clip-rule="evenodd" d="m0 0h32v32h-32z"/></clipPath><clipPath id="b"><circle clip-rule="evenodd" cx="19" cy="11" r="5"/></clipPath><metadata/><path d="m0 0h32v32h-32z" fill="none"/><g clip-path="url(#a)"><path d="m26 2s-10.163 0-16 0c-1.061 0-2.078.421-2.828 1.172-.751.75-1.172 1.767-1.172 2.828v20c0 1.061.421 2.078 1.172 2.828.75.751 1.767 1.172 2.828 1.172h16z"/><path d="m28 32h-18.012l-.137-.002c-.198-.007-.394-.019-.591-.044-.486-.06-.964-.18-1.42-.356-.733-.283-1.408-.71-1.976-1.251-.677-.644-1.198-1.445-1.513-2.324-.148-.415-.251-.846-.305-1.283-.025-.197-.037-.393-.044-.591-.086-6.72-.002-13.441-.002-20.162.002-.194.01-.387.029-.58.049-.487.157-.969.322-1.43.332-.926.893-1.765 1.622-2.425.617-.559 1.351-.987 2.142-1.248.419-.139.853-.231 1.292-.275.193-.019.387-.027.581-.029h18.012z" fill-rule="nonzero"/><path d="m26 2s-10.645 0-14 0l-1 1v19l1 1h13l1-1c0-4.175 0-20 0-20z" fill="#7f522f"/><path d="m6 21.008.001-.083c.011-.295-.125-2.111.999-2.925.681-.493.926-.997 1-1 1.025-.013 1.975 1 3 1v8h-5zm0-9.008v-.994c.004-.348.058-.69.176-1.018.283-.791.531-2.955.824-2.988.074-.006 2.975 1 4 1v8l-2 1c-.163.002-2.568-.324-3 0zm5-6-2 1c-.163.002-2.601-.299-3 .001v-1.001c0-1.061.421-2.078 1.172-2.828.75-.751 1.767-1.172 2.828-1.172h.001l.999.999z" fill="#523825"/><g fill="#2e1f15"><path d="m11 16v2c-1.025 0-1.05-.012-2.075.001-.074.003-.147.007-.221.014-.318.035-.627.113-.919.242-.768.341-1.369 1.003-1.633 1.801-.093.281-.14.572-.151.867l-.001.083v-4.008c.432-.324.916-.577 1.429-.747.349-.115.711-.192 1.077-.229.162-.016.325-.022.488-.024zm0-10v2c-1.025 0-1.05-.012-2.075.001-.074.003-.147.007-.222.014-.293.033-.578.1-.851.213-.776.322-1.393.969-1.676 1.76-.118.328-.172.67-.176 1.018v.994-4.999c.399-.3.843-.54 1.314-.708.385-.138.786-.228 1.192-.269.162-.016.325-.022.488-.024z"/><path d="m10 2h2v21h-2z"/><path d="m26 22s-10.163 0-16 0c-1.061 0-2.078.421-2.828 1.172-.751.75-1.172 1.767-1.172 2.828 0 2.209 1.791 4 4 4h16z"/></g><path d="m26 24s-11.31 0-16 0c-.53 0-1.039.211-1.414.586s-.586.884-.586 1.414c0 .53.211 1.039.586 1.414s.884.586 1.414.586h16z" fill="#fff"/><circle cx="19" cy="11" fill="#2e1f15" r="6"/><circle cx="19" cy="11" fill="#7f522f" r="4"/><circle cx="19" cy="11" fill="none" r="5"/><g clip-path="url(#b)"><path d="m19.004 6-2.944 9.06 7.707-5.6h-9.526l7.706 5.6z" fill="none" stroke="#2e1f15" stroke-width="1.5"/></g></g></svg>