<svg clip-rule="evenodd" fill-rule="evenodd" stroke-linecap="square" stroke-linejoin="round" stroke-miterlimit="1.5" viewBox="0 0 32 32" xmlns="http://www.w3.org/2000/svg" xmlns:xlink="http://www.w3.org/1999/xlink"><clipPath id="a"><path clip-rule="evenodd" d="m0 0h32v32h-32z"/></clipPath><metadata/><path d="m0 0h32v32h-32z" fill="none"/><g clip-path="url(#a)"><g stroke="#000"><path d="m19 14c0-1.657-1.343-3-3-3s-3 1.343-3 3v2c0 1.657 1.343 3 3 3s3-1.343 3-3c0-.654 0-1.346 0-2z" fill="#363636" stroke-width="4"/><path d="m20 22c0-1.061-.421-2.078-1.172-2.828-.75-.751-1.767-1.172-2.828-1.172s-2.078.421-2.828 1.172c-.751.75-1.172 1.767-1.172 2.828v2c0 1.061.421 2.078 1.172 2.828.75.751 1.767 1.172 2.828 1.172s2.078-.421 2.828-1.172c.751-.75 1.172-1.767 1.172-2.828 0-.659 0-1.341 0-2z" fill="#363636" stroke-linecap="round" stroke-width="4"/><path d="m18 14 5-5v-6" fill="none" stroke-linecap="round" stroke-width="6"/><path d="m16.5 16.25 10.5-5.25 2-4" fill="none" stroke-linecap="round" stroke-width="6"/><path d="m18 16 5 5v8" fill="none" stroke-linecap="round" stroke-width="6"/><path d="m17.5 14.75 8.5 4.25 2 4" fill="none" stroke-linecap="round" stroke-width="6"/><path d="m15.5 15.5-6.5-6.5v-6" fill="none" stroke-linecap="round" stroke-width="6"/><path d="m15.5 16.25-10.5-5.25-2-4" fill="none" stroke-linecap="round" stroke-width="6"/><path d="m14 16-5 5v8" fill="none" stroke-linecap="round" stroke-width="6"/><path d="m14.5 14.75-8.5 4.25-2 4" fill="none" stroke-linecap="round" stroke-width="6"/><path d="m17.5 12 1-1v-2" fill="none" stroke-linecap="round" stroke-width="6"/><path d="m14.5 12-1-1v-2" fill="none" stroke-linecap="round" stroke-width="6"/></g><path d="m20 22c0-1.061-.421-2.078-1.172-2.828-.75-.751-1.767-1.172-2.828-1.172s-2.078.421-2.828 1.172c-.751.75-1.172 1.767-1.172 2.828v2c0 1.061.421 2.078 1.172 2.828.75.751 1.767 1.172 2.828 1.172s2.078-.421 2.828-1.172c.751-.75 1.172-1.767 1.172-2.828 0-.659 0-1.341 0-2z" fill="#3f3f3f"/><path d="m18 14 5-5v-6" fill="none" stroke="#5a5a5a" stroke-linecap="round" stroke-width="2"/><path d="m16.5 16.25 10.5-5.25 2-4" fill="none" stroke="#5a5a5a" stroke-linecap="round" stroke-width="2"/><path d="m18 16 5 5v8" fill="none" stroke="#5a5a5a" stroke-linecap="round" stroke-width="2"/><path d="m17.5 14.75 8.5 4.25 2 4" fill="none" stroke="#5a5a5a" stroke-linecap="round" stroke-width="2"/><path d="m15.5 15.5-6.5-6.5v-6" fill="none" stroke="#5a5a5a" stroke-linecap="round" stroke-width="2"/><path d="m15.5 16.25-10.5-5.25-2-4" fill="none" stroke="#5a5a5a" stroke-linecap="round" stroke-width="2"/><path d="m14 16-5 5v8" fill="none" stroke="#5a5a5a" stroke-linecap="round" stroke-width="2"/><path d="m14.5 14.75-8.5 4.25-2 4" fill="none" stroke="#5a5a5a" stroke-linecap="round" stroke-width="2"/><path d="m17.5 12 1-1v-2" fill="none" stroke="#5a5a5a" stroke-linecap="round"/><path d="m14.5 12-1-1v-2" fill="none" stroke="#5a5a5a" stroke-linecap="round"/><path d="m19 14c0-1.657-1.343-3-3-3s-3 1.343-3 3v2c0 1.657 1.343 3 3 3s3-1.343 3-3c0-.654 0-1.346 0-2z" fill="#3f3f3f"/></g></svg>