<svg clip-rule="evenodd" fill-rule="evenodd" stroke-linejoin="round" stroke-miterlimit="1.41421" viewBox="0 0 32 32" xmlns="http://www.w3.org/2000/svg" xmlns:xlink="http://www.w3.org/1999/xlink"><clipPath id="a"><path clip-rule="evenodd" d="m0 0h32v32h-32z"/></clipPath><metadata/><path d="m0 0h32v32h-32z" fill="none"/><g clip-path="url(#a)"><path d="m13 0h6v2.636c.134.093.272.179.416.258.971.534 2.112.732 3.207.556.41-.066.804-.187 1.187-.347l1.477-.633 1.713-1.713c1.414 1.415 2.828 2.829 4.243 4.243l-1.715 1.714c-.226.526-.454 1.05-.674 1.578-.035.089-.068.178-.1.268-.118.356-.201.72-.24 1.093-.106 1.009.103 2.042.592 2.932.079.143.165.281.258.415h2.636v6h-2.636c-.127.185-.242.378-.344.579-.442.879-.616 1.884-.496 2.86.058.474.189.931.373 1.371l.633 1.477 1.713 1.713-4.243 4.243-1.714-1.715c-.526-.226-1.05-.454-1.578-.674-.38-.15-.772-.26-1.177-.318-1.066-.151-2.172.051-3.116.57-.143.079-.281.165-.415.258v2.636h-6v-2.636c-.185-.127-.378-.242-.579-.344-.879-.442-1.884-.616-2.86-.496-.474.058-.931.189-1.371.373l-1.477.633-1.713 1.713-4.243-4.243 1.715-1.714c.226-.526.454-1.05.674-1.578.15-.38.26-.772.318-1.177.151-1.067-.051-2.172-.57-3.116-.079-.143-.165-.281-.258-.415h-2.636v-6h2.636c.127-.185.242-.378.344-.579.442-.879.616-1.884.496-2.86-.058-.474-.189-.931-.373-1.371l-.633-1.477-1.713-1.713 4.243-4.243 1.714 1.715c.526.226 1.05.454 1.578.674.38.15.772.26 1.177.318 1.066.151 2.172-.051 3.115-.57.144-.079.282-.165.416-.258v-2.636z"/><g fill="#c4c4c4"><path d="m28.414 27-1.414 1.414-23.414-23.414 1.414-1.414z"/><path d="m30 17h-28v-2h28z"/><path d="m28.414 5-23.414 23.414-1.414-1.414 23.414-23.414z"/><path d="m17 30h-2v-28h2z"/><path d="m16.874 3.46.099.097.097.092.099.089.1.088.101.085.103.083.104.081.105.079.106.077.108.075.109.072.11.07.111.068.112.066.113.064.114.061.115.06.117.057.117.055.118.052.118.051.12.048.12.046.121.043.122.042.123.039.123.037.124.034.124.033.125.03.125.027.126.026.127.023.126.021.127.018.128.017.128.013.128.012.128.009.129.007.128.004.129.002h.129l.129-.003.129-.005.129-.007.129-.01.129-.012.129-.015.129-.017.128-.02.129-.022.128-.024.128-.027.127-.029.128-.032.127-.034.126-.037.126-.039.126-.041.126-.044.124-.047.125-.049.128-.054 2.017-.864.788 1.838-2.026.868-.155.065-.159.063-.16.06-.162.057-.161.053-.163.05-.162.047-.164.044-.164.041-.164.038-.164.034-.165.032-.165.028-.166.025-.165.022-.166.019-.166.016-.166.012-.166.01-.166.006-.166.004h-.166l-.165-.002-.166-.006-.165-.009-.165-.011-.164-.015-.165-.018-.163-.021-.164-.024-.163-.026-.162-.03-.162-.033-.161-.035-.161-.039-.159-.042-.159-.044-.159-.047-.157-.051-.157-.053-.155-.056-.155-.059-.154-.062-.153-.065-.151-.068-.151-.07-.149-.074-.148-.076-.147-.079-.146-.082-.144-.085-.143-.087-.142-.091-.14-.093-.138-.096-.137-.098-.135-.102-.134-.104-.132-.107-.096-.081-.096.081-.132.107-.134.104-.135.102-.137.098-.138.096-.14.093-.142.091-.143.087-.144.085-.146.082-.147.079-.148.076-.149.074-.151.07-.151.068-.153.065-.154.062-.155.059-.155.056-.157.053-.157.051-.159.047-.159.044-.159.042-.161.039-.161.035-.162.033-.162.03-.163.026-.164.024-.163.021-.165.018-.164.015-.165.011-.165.009-.166.006-.165.002h-.166l-.166-.004-.166-.006-.166-.01-.166-.012-.166-.016-.166-.019-.165-.022-.166-.025-.165-.028-.165-.032-.164-.034-.165-.038-.163-.041-.164-.044-.162-.047-.163-.05-.161-.053-.162-.057-.16-.06-.159-.063-.155-.065-2.026-.868.788-1.838 2.017.864.128.054.125.049.124.047.126.044.126.041.126.039.126.037.127.034.128.032.127.029.128.027.128.024.129.022.128.02.129.017.129.015.129.012.129.01.129.007.129.005.129.003h.129l.129-.002.128-.004.129-.007.128-.009.128-.012.128-.013.128-.017.127-.018.126-.021.127-.023.126-.026.125-.027.125-.03.124-.033.124-.034.123-.037.123-.039.122-.042.121-.043.12-.046.12-.048.118-.051.118-.052.117-.055.117-.057.115-.06.114-.061.113-.064.112-.066.111-.068.11-.07.109-.072.108-.075.106-.077.105-.079.104-.081.103-.083.101-.085.1-.088.099-.089.097-.092.099-.097.874-.874z"/><path d="m16.879 7.523.057.11.043.078.045.077.046.075.048.074.049.072.052.07.052.069.054.067.056.066.057.064.058.062.06.061.061.059.062.057.064.056.064.054.066.052.067.05.069.049.069.048.07.045.072.044.072.042.074.04.074.038.075.037.076.034.077.033.077.031.078.03.079.027.079.025.081.024.08.022.081.019.082.018.082.016.082.014.083.012.083.009.084.008.083.006.084.004.084.002h.084l.084-.003.084-.004.085-.006.084-.009.084-.01.084-.013.084-.015.084-.017.084-.019.083-.021.084-.024.083-.025.082-.028.083-.03.082-.033.082-.034.081-.037.087-.042-.005.003.894 1.788-.006.003-.121.059-.127.058-.129.054-.129.051-.13.047-.13.044-.131.041-.132.037-.132.033-.132.031-.133.026-.133.024-.133.02-.133.017-.134.013-.133.01-.133.007-.133.004h-.133l-.132-.003-.132-.006-.132-.009-.131-.013-.131-.015-.13-.019-.13-.022-.129-.025-.129-.028-.127-.031-.127-.034-.126-.037-.124-.04-.124-.043-.123-.045-.122-.049-.121-.052-.119-.055-.118-.057-.117-.06-.116-.064-.113-.066-.113-.069-.111-.071-.109-.075-.108-.077-.106-.08-.104-.082-.103-.086-.1-.088-.099-.09-.096-.094-.095-.096-.053-.057-.053.057-.095.096-.096.094-.099.09-.1.088-.103.086-.104.082-.106.08-.108.077-.109.075-.111.071-.113.069-.114.066-.115.064-.117.06-.118.057-.119.055-.121.052-.122.049-.123.045-.123.043-.125.04-.126.037-.127.034-.128.031-.128.028-.129.025-.13.022-.13.019-.131.015-.131.013-.132.009-.132.006-.132.003h-.133l-.133-.004-.133-.007-.133-.01-.134-.013-.133-.017-.133-.02-.133-.024-.133-.026-.132-.031-.132-.033-.132-.037-.131-.041-.13-.044-.13-.047-.129-.051-.129-.054-.127-.058-.121-.059-.006-.003.894-1.788-.005-.003.086.042.082.037.082.034.082.033.083.03.082.028.083.025.084.024.083.021.084.019.084.017.084.015.084.013.084.01.084.009.085.006.084.004.084.003h.084l.084-.002.084-.004.083-.006.084-.008.083-.009.083-.012.082-.014.082-.016.082-.018.081-.019.08-.022.081-.024.079-.025.079-.027.078-.03.077-.031.077-.033.076-.034.075-.037.074-.038.074-.04.072-.042.072-.044.07-.045.069-.048.069-.049.067-.05.066-.052.065-.054.063-.056.062-.057.061-.059.06-.061.058-.062.057-.064.056-.066.054-.067.053-.069.051-.07.049-.072.048-.074.046-.075.045-.077.043-.078.031-.06.45-1.049.739-.043.595 1.042z"/><path d="m20.083 20.527.133.004.133.007.134.01.133.013.133.017.133.02.133.024.132.026.133.031.132.033.132.037.131.041.13.044.13.047.129.051.129.054.127.058.146.071.03.017-.992 1.736.029.017-.061-.03-.082-.037-.082-.034-.082-.033-.083-.03-.082-.028-.083-.025-.084-.024-.083-.021-.084-.019-.084-.017-.084-.015-.084-.013-.084-.01-.085-.009-.084-.006-.084-.004-.084-.003h-.084l-.084.002-.084.004-.083.006-.084.008-.083.009-.083.012-.082.014-.082.016-.082.018-.081.019-.08.022-.081.024-.079.025-.079.027-.078.03-.077.031-.077.033-.076.034-.075.037-.074.038-.074.04-.072.042-.072.044-.07.046-.069.047-.069.049-.067.05-.066.052-.064.054-.064.056-.062.058-.061.058-.06.061-.058.062-.057.064-.056.066-.054.067-.052.069-.052.07-.049.072-.048.074-.046.075-.045.077-.043.078-.057.11-.595 1.042-.739-.043-.45-1.049-.031-.06-.043-.078-.045-.077-.046-.075-.048-.074-.049-.072-.051-.07-.053-.069-.054-.067-.056-.066-.057-.064-.058-.062-.06-.061-.061-.059-.062-.057-.064-.056-.064-.054-.066-.052-.067-.05-.069-.049-.069-.048-.07-.045-.072-.044-.072-.042-.074-.04-.074-.038-.075-.037-.076-.034-.077-.033-.077-.031-.078-.03-.079-.027-.079-.025-.081-.024-.08-.022-.081-.019-.082-.018-.082-.016-.082-.014-.083-.012-.083-.009-.084-.008-.083-.006-.084-.004-.084-.002h-.084l-.084.003-.084.004-.084.006-.085.009-.084.01-.084.013-.084.015-.084.017-.084.019-.083.021-.084.024-.083.025-.083.028-.082.03-.082.033-.082.034-.082.037-.061.03.029-.017-.992-1.736.03-.017.146-.071.127-.058.129-.054.129-.051.13-.047.13-.044.131-.041.132-.037.132-.033.133-.031.132-.026.133-.024.133-.02.133-.017.133-.013.134-.01.133-.007.133-.004h.133l.132.003.132.006.132.009.131.013.131.015.131.019.129.022.129.025.128.028.128.031.127.034.126.037.125.04.123.043.123.045.122.049.121.052.119.055.118.057.117.06.116.064.114.066.112.069.111.071.109.075.108.077.106.08.104.082.103.086.1.088.099.09.096.094.095.096.053.057.053-.057.095-.096.096-.094.099-.09.1-.088.103-.086.104-.082.106-.08.108-.077.109-.075.111-.071.112-.069.114-.066.116-.064.117-.06.118-.057.119-.055.121-.052.122-.049.123-.045.124-.043.124-.04.126-.037.127-.034.127-.031.129-.028.129-.025.129-.022.131-.019.131-.015.131-.013.132-.009.132-.006.132-.003h.133z"/><path d="m21.081 9.606 1.838.788-.009.021-.055.113-.037.082-.034.082-.033.082-.03.083-.028.082-.025.083-.024.084-.021.083-.019.084-.017.084-.015.084-.013.084-.01.084-.009.084-.006.085-.004.084-.003.084v.084l.002.084.004.084.006.084.008.083.009.083.012.083.014.082.016.082.018.082.019.081.022.08.024.08.025.08.027.079.03.078.031.077.033.077.034.076.037.075.038.074.04.074.042.072.044.072.045.07.048.069.049.069.05.067.053.066.053.065.056.063.057.062.059.061.061.06.062.058.064.057.066.056.067.054.069.052.07.052.072.049.074.048.075.046.077.045.078.043.086.044 1.047.524v.736l-1.047.524-.086.044-.078.043-.077.045-.075.046-.074.048-.072.049-.07.052-.069.052-.067.054-.066.056-.064.057-.062.058-.061.06-.059.061-.057.062-.056.063-.053.065-.053.066-.05.067-.049.069-.048.069-.045.07-.044.072-.042.072-.04.074-.038.074-.037.075-.034.076-.033.077-.031.077-.03.078-.027.079-.025.08-.024.08-.022.08-.019.081-.018.082-.016.082-.014.082-.012.083-.009.083-.008.083-.006.084-.004.084-.002.084v.084l.003.084.004.084.006.085.009.084.01.084.013.084.015.084.017.084.019.084.021.083.024.084.025.083.028.082.03.083.033.082.034.082.037.082.055.113.009.021-1.838.788.009.021-.046-.095-.058-.127-.054-.129-.051-.129-.047-.13-.044-.13-.041-.131-.037-.132-.033-.132-.031-.132-.026-.133-.024-.133-.02-.133-.017-.133-.013-.134-.01-.133-.007-.133-.004-.133v-.133l.003-.132.006-.132.009-.132.013-.131.015-.131.019-.131.022-.129.025-.129.028-.128.031-.128.034-.127.037-.126.04-.125.043-.123.045-.123.049-.122.052-.121.055-.119.057-.118.061-.117.063-.115.066-.114.069-.113.071-.111.075-.109.077-.108.08-.106.082-.104.086-.103.088-.1.09-.099.094-.096.096-.095.057-.053-.057-.053-.096-.095-.094-.096-.09-.099-.088-.1-.086-.103-.082-.104-.08-.106-.077-.108-.075-.109-.071-.111-.069-.113-.066-.114-.063-.115-.061-.117-.057-.118-.055-.119-.052-.121-.049-.122-.045-.123-.043-.124-.04-.124-.037-.126-.034-.127-.031-.127-.028-.129-.025-.129-.022-.129-.019-.131-.015-.131-.013-.131-.009-.132-.006-.132-.003-.132v-.133l.004-.133.007-.133.01-.133.013-.134.017-.133.02-.133.024-.133.026-.133.031-.132.033-.132.037-.132.041-.131.044-.13.047-.13.051-.129.054-.129.058-.127.046-.095-.009.021z"/><path d="m10.885 9.534.071.146.058.127.054.129.051.129.047.13.044.13.041.131.037.132.033.132.031.133.026.132.024.133.02.133.017.133.013.133.01.134.007.133.004.133v.133l-.003.132-.006.132-.009.132-.013.131-.015.131-.019.131-.022.129-.025.129-.028.129-.031.127-.034.127-.037.126-.04.124-.043.124-.045.123-.049.122-.052.121-.055.119-.057.118-.061.117-.063.116-.066.113-.069.113-.071.111-.075.109-.077.108-.08.106-.082.104-.086.103-.088.1-.09.099-.094.096-.096.095-.057.053.057.053.096.095.094.096.09.099.088.1.086.103.082.104.08.106.077.108.075.109.071.111.069.113.066.113.063.116.061.117.057.118.055.119.052.121.049.122.045.123.043.123.04.125.037.126.034.127.031.128.028.128.025.129.022.129.019.131.015.131.013.131.009.132.006.132.003.132v.133l-.004.133-.007.133-.01.134-.013.133-.017.133-.02.133-.024.133-.026.132-.031.133-.033.132-.037.132-.041.131-.044.13-.047.13-.051.129-.054.129-.058.127-.071.146-.017.03-1.736-.992-.017.029.03-.061.037-.082.034-.082.033-.082.03-.082.028-.083.025-.083.024-.084.021-.083.019-.084.017-.084.015-.084.013-.084.01-.084.009-.085.006-.084.004-.084.003-.084v-.084l-.002-.084-.004-.084-.006-.083-.008-.084-.009-.083-.012-.083-.014-.082-.016-.082-.018-.082-.019-.081-.022-.08-.024-.081-.025-.079-.027-.079-.03-.078-.031-.077-.033-.077-.034-.076-.037-.075-.038-.074-.04-.074-.042-.072-.044-.072-.045-.07-.048-.069-.049-.069-.05-.067-.052-.066-.054-.064-.056-.064-.057-.062-.059-.061-.061-.06-.062-.058-.064-.057-.066-.056-.067-.054-.069-.053-.07-.051-.072-.049-.074-.048-.075-.046-.077-.045-.078-.043-.086-.044-1.047-.524v-.736l1.047-.524.086-.044.078-.043.077-.045.075-.046.074-.048.072-.049.07-.051.069-.053.067-.054.066-.056.064-.057.062-.058.061-.06.059-.061.057-.062.056-.064.054-.064.052-.066.05-.067.049-.069.048-.069.045-.07.044-.072.042-.072.04-.074.038-.074.037-.075.034-.076.033-.077.031-.077.03-.078.027-.079.025-.079.024-.081.022-.08.019-.081.018-.082.016-.082.014-.082.012-.083.009-.083.008-.084.006-.083.004-.084.002-.084v-.084l-.003-.084-.004-.084-.006-.084-.009-.085-.01-.084-.013-.084-.015-.084-.017-.084-.019-.084-.021-.083-.024-.084-.025-.083-.028-.083-.03-.082-.033-.082-.034-.082-.037-.082-.03-.061.017.029 1.736-.992.017.03z"/><path d="m27.919 5.394-.864 2.017-.054.128-.049.125-.047.124-.044.126-.041.126-.039.126-.037.126-.034.127-.032.128-.029.127-.027.128-.024.128-.022.129-.02.128-.017.129-.015.129-.012.129-.01.129-.007.129-.005.129-.003.129v.129l.002.129.004.128.007.129.009.128.012.128.013.128.017.128.018.127.021.126.023.127.026.126.027.125.03.125.033.124.034.124.037.123.039.123.042.122.043.121.046.12.048.12.051.118.053.118.054.117.057.117.06.115.061.114.064.113.066.112.068.111.07.11.072.109.075.108.077.106.079.105.081.104.083.103.085.101.088.1.089.099.092.097.097.099.874.874-.874.874-.097.099-.092.097-.089.099-.088.1-.085.101-.083.103-.081.104-.079.105-.077.106-.075.108-.072.109-.07.11-.068.111-.066.112-.064.113-.061.114-.06.115-.057.117-.054.117-.053.118-.051.118-.048.12-.046.12-.043.121-.042.122-.039.123-.037.123-.034.124-.033.124-.03.125-.027.125-.026.126-.023.127-.021.126-.018.127-.017.128-.013.128-.012.128-.009.128-.007.129-.004.128-.002.129v.129l.003.129.005.129.007.129.01.129.012.129.015.129.017.129.02.128.022.129.024.128.027.128.029.127.032.128.034.127.037.126.039.126.041.126.044.126.047.124.049.125.054.128.864 2.017-1.838.788-.868-2.026-.065-.155-.063-.159-.06-.161-.057-.161-.053-.161-.05-.163-.047-.162-.044-.164-.041-.164-.038-.164-.034-.164-.032-.165-.028-.165-.025-.166-.022-.165-.019-.166-.016-.166-.012-.166-.01-.166-.006-.166-.004-.166v-.166l.002-.165.006-.166.009-.165.011-.165.015-.164.018-.165.021-.163.024-.164.026-.163.03-.162.033-.162.035-.161.039-.16.042-.16.044-.159.047-.159.051-.157.053-.157.056-.155.059-.155.062-.154.065-.153.068-.151.07-.151.074-.149.076-.148.079-.147.082-.146.085-.144.087-.143.091-.142.093-.14.096-.138.098-.137.102-.135.104-.134.107-.132.081-.096-.081-.096-.107-.132-.104-.134-.102-.135-.098-.137-.096-.138-.093-.14-.091-.142-.087-.143-.085-.144-.082-.146-.079-.147-.076-.148-.074-.149-.07-.151-.068-.151-.065-.153-.062-.154-.059-.155-.056-.155-.053-.157-.051-.157-.047-.159-.044-.159-.042-.16-.039-.16-.035-.161-.033-.162-.03-.162-.026-.163-.024-.164-.021-.163-.018-.165-.015-.164-.011-.165-.009-.165-.006-.166-.002-.165v-.166l.004-.166.006-.166.01-.166.012-.166.016-.166.019-.166.022-.165.025-.166.028-.165.032-.165.034-.164.038-.164.041-.164.044-.164.047-.162.05-.163.053-.161.057-.161.06-.161.063-.159.065-.155.868-2.026 1.838.788z"/><path d="m21.933 24.487.166.004.166.006.166.01.166.012.166.016.166.019.165.022.166.025.165.028.165.032.164.034.164.038.164.041.164.043.162.048.163.05.161.053.161.057.161.06.159.063.155.065 2.026.868-.788 1.838-2.017-.864-.128-.054-.125-.049-.124-.047-.126-.044-.126-.041-.126-.039-.126-.037-.127-.034-.128-.032-.127-.029-.128-.027-.128-.024-.129-.022-.128-.02-.129-.017-.129-.015-.129-.012-.129-.01-.129-.007-.129-.005-.129-.003h-.129l-.129.002-.128.004-.129.007-.128.009-.128.012-.128.013-.128.017-.127.018-.126.021-.127.023-.126.026-.125.027-.125.03-.124.033-.124.034-.123.037-.123.039-.122.042-.121.043-.12.046-.12.048-.118.051-.118.052-.117.055-.117.057-.115.06-.114.061-.113.064-.112.066-.111.068-.11.07-.109.072-.108.075-.106.077-.105.079-.104.081-.103.083-.101.085-.1.088-.099.089-.097.092-.099.097-.874.874-.874-.874-.099-.097-.097-.092-.099-.089-.1-.088-.101-.085-.103-.083-.104-.081-.105-.079-.106-.077-.108-.075-.109-.072-.11-.07-.111-.068-.112-.066-.113-.064-.114-.061-.115-.06-.117-.057-.117-.055-.118-.052-.118-.051-.12-.048-.12-.046-.121-.043-.122-.042-.123-.039-.123-.037-.124-.034-.124-.033-.125-.03-.125-.027-.126-.026-.127-.023-.126-.021-.127-.018-.128-.017-.128-.013-.128-.012-.128-.009-.129-.007-.128-.004-.129-.002h-.129l-.129.003-.129.005-.129.007-.129.01-.129.012-.129.015-.129.017-.128.02-.129.022-.128.024-.128.027-.127.029-.128.032-.127.034-.126.037-.126.039-.126.041-.126.044-.124.047-.125.049-.128.054-2.017.864-.788-1.838 2.026-.868.155-.065.159-.063.161-.06.161-.057.161-.053.163-.05.162-.048.164-.043.163-.041.165-.038.164-.034.165-.032.165-.028.166-.025.165-.022.166-.019.166-.016.166-.012.166-.01.166-.006.166-.004h.166l.165.002.166.006.165.009.165.012.164.014.165.018.163.021.164.024.163.026.162.03.162.033.161.035.16.039.16.042.159.044.159.047.157.051.157.053.156.056.154.059.154.062.153.065.151.068.151.07.149.074.148.076.147.079.146.082.144.085.143.087.142.091.14.093.138.096.137.098.135.102.134.104.132.107.096.081.096-.081.132-.107.134-.104.135-.102.137-.098.138-.096.14-.093.142-.091.143-.087.144-.085.146-.082.147-.079.148-.076.149-.074.151-.07.151-.068.153-.065.154-.062.154-.059.156-.056.157-.053.157-.051.159-.047.159-.044.16-.042.16-.039.161-.035.162-.033.162-.03.163-.026.164-.024.163-.021.165-.018.164-.014.165-.012.165-.009.166-.006.165-.002z"/><path d="m6.787 6.632.065.155.063.159.06.161.057.161.053.161.05.163.047.162.044.164.041.164.038.164.034.164.032.165.028.165.025.166.022.165.019.166.016.166.012.166.01.166.006.166.004.166v.166l-.002.165-.006.166-.009.165-.012.165-.014.164-.018.165-.021.163-.024.164-.026.163-.03.162-.033.162-.035.161-.039.16-.042.16-.044.159-.047.159-.051.157-.053.157-.056.155-.059.155-.062.154-.065.153-.068.151-.07.151-.074.149-.076.148-.079.147-.082.146-.085.144-.087.143-.091.142-.093.14-.096.138-.098.137-.102.135-.104.134-.107.132-.081.096.081.096.107.132.104.134.102.135.098.137.096.138.093.14.091.142.087.143.085.144.082.146.079.147.076.148.074.149.07.151.068.151.065.153.062.154.059.155.056.155.053.157.051.157.047.159.044.159.042.16.039.16.035.161.033.162.03.162.026.163.024.164.021.163.018.165.014.164.012.165.009.165.006.166.002.165v.166l-.004.166-.006.166-.01.166-.012.166-.016.166-.019.166-.022.165-.025.166-.028.165-.032.165-.034.164-.038.164-.041.164-.044.164-.047.162-.05.163-.053.161-.057.161-.06.161-.063.159-.065.155-.868 2.026-1.838-.788.864-2.017.054-.128.049-.125.047-.124.044-.126.041-.126.039-.126.037-.126.034-.127.032-.128.029-.127.027-.128.024-.128.022-.129.02-.128.017-.129.015-.129.012-.129.01-.129.007-.129.005-.129.003-.129v-.129l-.002-.129-.004-.128-.007-.129-.009-.128-.012-.128-.013-.128-.017-.128-.018-.127-.021-.126-.023-.127-.026-.126-.027-.125-.03-.125-.033-.124-.034-.124-.037-.123-.039-.123-.042-.122-.043-.121-.046-.12-.048-.12-.051-.118-.052-.118-.055-.117-.057-.117-.06-.115-.061-.114-.064-.113-.066-.112-.068-.111-.07-.11-.072-.109-.075-.108-.077-.106-.079-.105-.081-.104-.083-.103-.085-.101-.088-.1-.089-.099-.092-.097-.097-.099-.874-.874.874-.874.097-.099.092-.097.089-.099.088-.1.085-.101.083-.103.081-.104.079-.105.077-.106.075-.108.072-.109.07-.11.068-.111.066-.112.064-.113.061-.114.06-.115.057-.117.055-.117.052-.118.051-.118.048-.12.046-.12.043-.121.042-.122.039-.123.037-.123.034-.124.033-.124.03-.125.027-.125.026-.126.023-.127.021-.126.018-.127.017-.128.013-.128.012-.128.009-.128.007-.129.004-.128.002-.129v-.129l-.003-.129-.005-.129-.007-.129-.01-.129-.012-.129-.015-.129-.017-.129-.02-.128-.022-.129-.024-.128-.027-.128-.029-.127-.032-.128-.034-.127-.037-.126-.039-.126-.041-.126-.044-.126-.047-.124-.049-.125-.054-.128-.864-2.017 1.838-.788.868 2.026z"/></g></g></svg>