<svg clip-rule="evenodd" fill-rule="evenodd" stroke-linejoin="round" stroke-miterlimit="2" viewBox="0 0 32 32" xmlns="http://www.w3.org/2000/svg" xmlns:xlink="http://www.w3.org/1999/xlink"><clipPath id="a"><path clip-rule="evenodd" d="m0 0h32v32h-32z"/></clipPath><metadata/><path d="m0 0h32v32h-32z" fill="none"/><g clip-path="url(#a)"><path d="m28 5c0-1.105-.895-2-2-2-4.52 0-15.48 0-20 0-1.105 0-2 .895-2 2v25c0 1.105.895 2 2 2h20c1.105 0 2-.895 2-2 0-5.306 0-19.694 0-25z"/><path d="m22.149.003.147.011.147.018.145.026.143.032.142.039.139.046.136.053.134.059.131.066.127.072.125.079.12.084.117.091.112.097.108.102.102.108.097.112.091.117.084.12.079.124.072.128.066.131.059.134.053.136.046.139.039.142.032.143.026.145.018.147.011.147.003.124v4.05l-.003.124-.011.147-.018.147-.026.145-.032.143-.039.142-.046.139-.053.136-.059.134-.066.131-.072.128-.079.124-.084.12-.091.117-.097.112-.102.108-.108.102-.112.097-.117.091-.12.084-.125.079-.127.072-.131.066-.134.059-.136.053-.139.046-.142.039-.143.032-.145.026-.147.018-.147.011-.149.004-.149-.004-.147-.011-.147-.018-.145-.026-.143-.032-.142-.039-.139-.046-.136-.053-.134-.059-.131-.066-.128-.072-.124-.079-.12-.084-.117-.091-.112-.097-.108-.102-.102-.108-.097-.112-.091-.117-.084-.12-.079-.124-.072-.128-.066-.131-.059-.134-.053-.136-.046-.139-.039-.142-.032-.143-.026-.145-.018-.147-.011-.147-.003-.124v-4.05l.003-.124.011-.147.018-.147.026-.145.032-.143.039-.142.046-.139.053-.136.059-.134.066-.131.072-.127.079-.125.084-.12.091-.117.097-.112.102-.108.108-.102.112-.097.117-.091.12-.084.124-.079.128-.072.131-.066.134-.059.136-.053.139-.046.142-.039.143-.032.145-.026.147-.018.147-.011.149-.004.149.004z"/><path d="m10.149.003.147.011.147.018.145.026.143.032.142.039.139.046.136.053.134.059.131.066.127.072.125.079.12.084.117.091.112.097.108.102.102.108.097.112.091.117.084.12.079.124.072.128.066.131.059.134.053.136.046.139.039.142.032.143.026.145.018.147.011.147.003.124v4.05l-.003.124-.011.147-.018.147-.026.145-.032.143-.039.142-.046.139-.053.136-.059.134-.066.131-.072.128-.079.124-.084.12-.091.117-.097.112-.102.108-.108.102-.112.097-.117.091-.12.084-.125.079-.127.072-.131.066-.134.059-.136.053-.139.046-.142.039-.143.032-.145.026-.147.018-.147.011-.149.004-.149-.004-.147-.011-.147-.018-.145-.026-.143-.032-.142-.039-.139-.046-.136-.053-.134-.059-.131-.066-.128-.072-.124-.079-.12-.084-.117-.091-.112-.097-.108-.102-.102-.108-.097-.112-.091-.117-.084-.12-.079-.124-.072-.128-.066-.131-.059-.134-.053-.136-.046-.139-.039-.142-.032-.143-.026-.145-.018-.147-.011-.147-.003-.124v-4.05l.003-.124.011-.147.018-.147.026-.145.032-.143.039-.142.046-.139.053-.136.059-.134.066-.131.072-.127.079-.125.084-.12.091-.117.097-.112.102-.108.108-.102.112-.097.117-.091.12-.084.124-.079.128-.072.131-.066.134-.059.136-.053.139-.046.142-.039.143-.032.145-.026.147-.018.147-.011.149-.004.149.004z"/><path d="m18.149.003.147.011.147.018.145.026.143.032.142.039.139.046.136.053.134.059.131.066.128.072.124.079.12.084.117.091.112.097.108.102.102.108.097.112.091.117.084.12.079.125.072.127.066.131.059.134.053.136.046.139.039.142.032.143.026.145.018.147.011.147.003.124v4.05l-.003.124-.011.147-.018.147-.026.145-.032.143-.039.142-.046.139-.053.136-.059.134-.066.131-.072.128-.078.124-.085.12-.091.117-.097.112-.102.108-.108.102-.112.097-.117.091-.12.084-.124.079-.128.072-.131.066-.134.059-.136.053-.139.046-.142.039-.143.032-.145.026-.147.018-.147.011-.149.004-.149-.004-.147-.011-.147-.018-.145-.026-.143-.032-.142-.039-.139-.046-.136-.053-.134-.059-.131-.066-.128-.072-.124-.079-.12-.084-.117-.091-.112-.097-.108-.102-.102-.108-.097-.112-.091-.117-.084-.12-.079-.124-.072-.128-.066-.131-.059-.134-.053-.136-.046-.139-.039-.142-.032-.143-.026-.145-.018-.147-.011-.147-.003-.124v-4.05l.003-.124.011-.147.018-.147.026-.145.032-.143.039-.142.046-.139.053-.136.059-.134.066-.131.072-.127.078-.125.085-.12.091-.117.097-.112.102-.108.108-.102.112-.097.117-.091.12-.084.124-.079.128-.072.131-.066.134-.059.136-.053.139-.046.142-.039.143-.032.145-.026.147-.018.147-.011.149-.004.149.004z"/><path d="m14.149.003.147.011.147.018.145.026.143.032.142.039.139.046.136.053.134.059.131.066.128.072.124.079.12.084.117.091.112.097.108.102.102.108.097.112.091.117.084.12.079.125.072.127.066.131.059.134.053.136.046.139.039.142.032.143.026.145.018.147.011.147.003.124v4.05l-.003.124-.011.147-.018.147-.026.145-.032.143-.039.142-.046.139-.053.136-.059.134-.066.131-.072.128-.079.124-.084.12-.091.117-.097.112-.102.108-.108.102-.112.097-.117.091-.12.084-.124.079-.128.072-.131.066-.134.059-.136.053-.139.046-.142.039-.143.032-.145.026-.147.018-.147.011-.149.004-.149-.004-.147-.011-.147-.018-.145-.026-.143-.032-.142-.039-.139-.046-.136-.053-.134-.059-.131-.066-.127-.072-.125-.079-.12-.084-.117-.091-.112-.097-.108-.102-.102-.108-.097-.112-.091-.117-.084-.12-.079-.124-.072-.128-.066-.131-.059-.134-.053-.136-.046-.139-.039-.142-.032-.143-.026-.145-.018-.147-.011-.147-.003-.124v-4.05l.003-.124.011-.147.018-.147.026-.145.032-.143.039-.142.046-.139.053-.136.059-.134.066-.131.072-.128.079-.124.084-.12.091-.117.097-.112.102-.108.108-.102.112-.097.117-.091.12-.084.125-.079.127-.072.131-.066.134-.059.136-.053.139-.046.142-.039.143-.032.145-.026.147-.018.147-.011.149-.004.149.004z"/><path d="m6 5h20v25h-20z" fill="#fff"/><path d="m9 5h1v25h-1z" fill="#e39fd0"/><g fill="#8ecbf4"><path d="m6 11h20v1h-20z"/><path d="m6 15h20v1h-20z"/><path d="m6 19h20v1h-20z"/><path d="m6 23h20v1h-20z"/><path d="m6 27h20v1h-20z"/></g><path d="m11 3c0-.265-.105-.52-.293-.707-.187-.188-.442-.293-.707-.293-.265 0-.52.105-.707.293-.188.187-.293.442-.293.707v4c0 .265.105.52.293.707.187.188.442.293.707.293.265 0 .52-.105.707-.293.188-.187.293-.442.293-.707 0-1.11 0-2.89 0-4z" fill="#666"/><path d="m19 3c0-.265-.105-.52-.293-.707-.187-.188-.442-.293-.707-.293-.265 0-.52.105-.707.293-.188.187-.293.442-.293.707v4c0 .265.105.52.293.707.187.188.442.293.707.293.265 0 .52-.105.707-.293.188-.187.293-.442.293-.707 0-1.11 0-2.89 0-4z" fill="#666"/><path d="m15 3c0-.265-.105-.52-.293-.707-.187-.188-.442-.293-.707-.293-.265 0-.52.105-.707.293-.188.187-.293.442-.293.707v4c0 .265.105.52.293.707.187.188.442.293.707.293.265 0 .52-.105.707-.293.188-.187.293-.442.293-.707 0-1.11 0-2.89 0-4z" fill="#666"/><path d="m23 3c0-.265-.105-.52-.293-.707-.187-.188-.442-.293-.707-.293-.265 0-.52.105-.707.293-.188.187-.293.442-.293.707v4c0 .265.105.52.293.707.187.188.442.293.707.293.265 0 .52-.105.707-.293.188-.187.293-.442.293-.707 0-1.11 0-2.89 0-4z" fill="#666"/></g></svg>