<svg clip-rule="evenodd" fill-rule="evenodd" stroke-linejoin="round" stroke-miterlimit="2" viewBox="0 0 32 32" xmlns="http://www.w3.org/2000/svg"><metadata/><path d="m0 0h32v32h-32z" fill="none"/><g fill-rule="nonzero"><path d="m17.677 1.004c.157.012.197.012.353.036.351.054.693.161 1.011.318.319.156.613.361.87.605.386.367.686.822.871 1.321.185.5.254 1.04.2 1.57-.036.353-.126.7-.266 1.026-.062.145-.083.179-.156.319l-.016.027c.144.028.287.061.431.094.139.034.278.07.417.108.368.104.731.222 1.088.36.849.327 1.658.753 2.408 1.267.918.628 1.746 1.388 2.451 2.248.638.779 1.176 1.641 1.595 2.556.478 1.045.802 2.16.958 3.299.124.908.138 1.828.058 2.741-.191 2.209-.946 4.358-2.176 6.203-.907 1.36-2.066 2.549-3.404 3.489-1.457 1.024-3.12 1.749-4.862 2.119-.638.136-1.285.224-1.936.265-.363.022-.727.026-1.091.025-.794-.002-1.588-.065-2.371-.195-1.871-.31-3.675-.993-5.284-1.997-1.525-.952-2.869-2.188-3.945-3.627-1.055-1.411-1.85-3.013-2.331-4.708-.365-1.285-.548-2.618-.55-3.954-.001-.499-.001-.998.03-1.496.052-.815.17-1.626.354-2.422.37-1.605 1.009-3.147 1.882-4.544.92-1.475 2.098-2.786 3.464-3.86 1.14-.896 2.409-1.625 3.758-2.157 1.152-.454 2.361-.764 3.59-.92.568-.072 1.138-.108 1.711-.119.296-.002.592-.004.888.003z"/><path d="m17.615 3.004c.115.014.226.031.338.066.256.081.488.231.667.432.102.114.186.245.249.384.062.14.104.29.121.442.053.461-.115.931-.45 1.253-.11.106-.237.195-.374.263-.138.068-.286.115-.437.138-.101.016-.127.014-.229.018-.216 0-.432-.001-.648.001-.382.007-.764.031-1.144.079-.776.099-1.541.29-2.273.568-1.916.728-3.584 2.056-4.731 3.754-.566.837-1.003 1.76-1.291 2.728-.202.678-.33 1.377-.384 2.082-.033.43-.03.86-.029 1.291.001.958.142 1.913.427 2.828.341 1.099.886 2.132 1.597 3.036.729.928 1.63 1.718 2.645 2.319 1.07.632 2.263 1.05 3.494 1.222.442.062.887.091 1.334.092.29.001.578-.001.868-.023.471-.035.939-.111 1.397-.226 1.142-.287 2.218-.82 3.138-1.555 1.032-.824 1.858-1.896 2.393-3.103.382-.862.614-1.788.684-2.728.036-.482.031-.967-.029-1.447-.091-.738-.305-1.459-.631-2.126-.217-.446-.484-.868-.793-1.255-.348-.435-.749-.826-1.192-1.163-.526-.399-1.11-.72-1.729-.95-.727-.271-1.494-.409-2.269-.423-.238-.002-.476-.004-.713.001-.567.017-1.128.111-1.667.29-.647.214-1.255.543-1.788.969-.592.473-1.088 1.063-1.453 1.727-.385.701-.622 1.48-.691 2.277-.036.41-.03.823.041 1.229.119.681.406 1.329.831 1.874.214.275.463.524.738.738.327.255.691.461 1.078.61.37.143.761.234 1.157.268.313.027.629.019.942.015.081-.003.081-.003.162-.008.347-.03.686-.107 1.009-.24.496-.206.939-.534 1.279-.949.271-.331.475-.714.599-1.122.07-.231.115-.469.133-.709.015-.199.014-.398-.026-.594-.116-.565-.522-1.046-1.058-1.258-.188-.074-.386-.111-.588-.118-.134-.002-.269-.006-.403.002-.105.009-.207.032-.305.072-.248.103-.448.308-.545.559-.041.106-.061.218-.066.331-.002.179 0 .357 0 .535-.004.116-.013.228-.039.342-.062.261-.194.505-.38.698-.133.138-.292.25-.467.329-.14.062-.29.104-.442.121-.461.053-.931-.115-1.253-.45-.106-.11-.195-.237-.263-.374-.068-.138-.115-.286-.138-.437-.016-.101-.014-.127-.018-.229 0-.203-.001-.406.001-.609.017-.459.101-.909.266-1.338.141-.364.335-.707.575-1.015.463-.594 1.094-1.051 1.803-1.304.337-.121.691-.197 1.049-.223.196-.015.393-.012.589-.011.782.003 1.557.198 2.245.571.366.199.705.447 1.007.734.273.261.516.554.72.873.333.52.563 1.105.671 1.713.077.43.089.868.057 1.303-.057.766-.256 1.52-.584 2.214-.462.978-1.179 1.829-2.064 2.451-.711.5-1.526.849-2.378 1.019-.354.071-.712.107-1.073.12-.277.004-.553.005-.83 0-.83-.026-1.649-.184-2.425-.483-.66-.255-1.282-.607-1.84-1.042-.471-.366-.896-.791-1.262-1.262-.344-.442-.637-.924-.871-1.434-.306-.67-.51-1.387-.601-2.119-.068-.548-.07-1.103-.022-1.653.093-1.068.383-2.118.854-3.082.313-.644.706-1.248 1.167-1.796 1.133-1.349 2.669-2.337 4.367-2.808.552-.153 1.12-.252 1.692-.295.38-.028.76-.024 1.142-.024.679.001 1.358.072 2.023.213 1.009.215 1.983.591 2.875 1.11.796.463 1.526 1.039 2.16 1.706.551.579 1.03 1.226 1.424 1.921.586 1.037.98 2.182 1.156 3.36.119.799.135 1.611.065 2.416-.139 1.6-.625 3.165-1.415 4.563-.774 1.368-1.836 2.569-3.099 3.504-1.216.9-2.612 1.55-4.084 1.901-.627.149-1.268.245-1.911.284-.321.02-.641.023-.962.022-.424-.001-.848-.022-1.27-.064-1.637-.167-3.235-.659-4.68-1.445-1.364-.74-2.586-1.736-3.588-2.921-.976-1.155-1.74-2.485-2.242-3.911-.469-1.33-.705-2.736-.707-4.146-.001-.511-.001-1.019.038-1.529.07-.917.237-1.827.499-2.709.405-1.361 1.036-2.652 1.859-3.809 1.452-2.043 3.493-3.646 5.825-4.565 1.049-.414 2.152-.688 3.272-.816.493-.057.988-.082 1.484-.085.349 0 .349-.007.638.004z" fill="#982eee"/></g></svg>