<svg clip-rule="evenodd" fill-rule="evenodd" stroke-linecap="round" stroke-linejoin="round" stroke-miterlimit="1.5" viewBox="0 0 32 32" xmlns="http://www.w3.org/2000/svg" xmlns:xlink="http://www.w3.org/1999/xlink"><clipPath id="a"><path clip-rule="evenodd" d="m10 2s-.685.913-1.4 1.867c-1.039 1.384-1.6 3.069-1.6 4.8v.848c0 1.591.632 3.117 1.757 4.242.148.148.243.243.243.243h3s0-4.554 0-7.183c0-1.185-.351-2.343-1.008-3.329-.497-.746-.992-1.488-.992-1.488z"/></clipPath><clipPath id="b"><path clip-rule="evenodd" d="m22 2s.685.913 1.4 1.867c1.039 1.384 1.6 3.069 1.6 4.8v.848c0 1.591-.632 3.117-1.757 4.242-.148.148-.243.243-.243.243h-3s0-4.554 0-7.183c0-1.185.351-2.343 1.008-3.329.497-.746.992-1.488.992-1.488z"/></clipPath><metadata/><path d="m0 0h32v32h-32z" fill="none"/><path d="m10 2s-.685.913-1.4 1.867c-1.039 1.384-1.6 3.069-1.6 4.8v.848c0 1.591.632 3.117 1.757 4.242.148.148.243.243.243.243h3s0-4.554 0-7.183c0-1.185-.351-2.343-1.008-3.329-.497-.746-.992-1.488-.992-1.488z" fill="none"/><g clip-path="url(#a)"><path d="m11 2v3l-1 2v4l2 2h3v-10z" fill="#b8623e"/></g><path d="m10 2s-.685.913-1.4 1.867c-1.039 1.384-1.6 3.069-1.6 4.8v.848c0 1.591.632 3.117 1.757 4.242.148.148.243.243.243.243h3s0-4.554 0-7.183c0-1.185-.351-2.343-1.008-3.329-.497-.746-.992-1.488-.992-1.488z" fill="none" stroke="#000" stroke-width="4"/><path d="m22 2s.685.913 1.4 1.867c1.039 1.384 1.6 3.069 1.6 4.8v.848c0 1.591-.632 3.117-1.757 4.242-.148.148-.243.243-.243.243h-3s0-4.554 0-7.183c0-1.185.351-2.343 1.008-3.329.497-.746.992-1.488.992-1.488z" fill="none"/><g clip-path="url(#b)"><path d="m21 2v3l1 2v4l-2 2h-3v-10z" fill="#b8623e"/></g><path d="m22 2s.685.913 1.4 1.867c1.039 1.384 1.6 3.069 1.6 4.8v.848c0 1.591-.632 3.117-1.757 4.242-.148.148-.243.243-.243.243h-3s0-4.554 0-7.183c0-1.185.351-2.343 1.008-3.329.497-.746.992-1.488.992-1.488z" fill="none" stroke="#000" stroke-width="4"/><path d="m15.999 8c-4.082 0-7.61 2.852-8.466 6.844-.503 2.348-1.011 4.72-1.298 6.057-.155.726-.172 1.475-.05 2.207v.001c.492 2.956 2.73 5.317 5.655 5.967.896.199 1.774.394 2.491.553 1.099.244 2.239.244 3.338 0 .717-.159 1.595-.354 2.491-.553 2.925-.65 5.163-3.011 5.655-5.967 0 0 0 0 0-.001.122-.732.105-1.481-.05-2.207-.287-1.337-.795-3.709-1.298-6.057-.856-3.992-4.384-6.844-8.466-6.844-.001 0-.001 0-.002 0z" fill="none" stroke="#000" stroke-width="4"/><path d="m22 2s.685.913 1.4 1.867c1.039 1.384 1.6 3.069 1.6 4.8v.848c0 1.591-.632 3.117-1.757 4.242l-.243.243h-3v-1z" fill="#8c4338"/><path d="m22 2v2.513c0 .323.052.643.154.949.157.471.403 1.209.589 1.768.17.51.257 1.044.257 1.581v.532c0 1.061-.421 2.078-1.172 2.829l-.828.828h-1v-6.183c0-1.185.351-2.343 1.008-3.329z" fill="#b8623e"/><path d="m10 2s-.685.913-1.4 1.867c-1.039 1.384-1.6 3.069-1.6 4.8v.848c0 1.591.632 3.117 1.757 4.242l.243.243h3v-1z" fill="#8c4338"/><path d="m10 2v2.513c0 .323-.052.643-.154.949-.157.471-.403 1.209-.589 1.768-.17.51-.257 1.044-.257 1.581v.532c0 1.061.421 2.078 1.172 2.829l.828.828h1v-6.183c0-1.185-.351-2.343-1.008-3.329z" fill="#b8623e"/><path d="m12.612 29.247-.772-.171c-2.925-.65-5.163-3.011-5.655-5.967 0 0 0 0 0-.001-.122-.732-.105-1.481.05-2.207.287-1.337.795-3.709 1.298-6.057.856-3.992 4.384-6.844 8.466-6.844h.002c4.082 0 7.61 2.852 8.466 6.844.503 2.348 1.011 4.72 1.298 6.057.155.726.172 1.475.05 2.207v.001c-.492 2.956-2.73 5.317-5.655 5.967l-.772.171c.502-.364-7.278-.364-6.776 0z" fill="#b8623e"/><path d="m15.176 18.824h1.648l2.392 2.392c.502.502.784 1.183.784 1.893 0 .571-.227 1.118-.63 1.521-.2.2-.37.37-.37.37s.753.753 1.334 1.334c.398.398.496 1.005.245 1.508v.001c-.28.559-.689 1.04-1.191 1.404l-1.719.382c-1.099.244-2.239.244-3.338 0l-1.719-.382c-.502-.364-.911-.845-1.191-1.404 0-.001 0-.001 0-.001-.251-.503-.153-1.11.245-1.508.581-.581 1.334-1.334 1.334-1.334s-.17-.17-.37-.37c-.403-.403-.63-.95-.63-1.521 0-.71.282-1.391.784-1.893z" fill="#dfa87b"/><path d="m15.176 18.824.117-.117c.187-.187.442-.293.707-.293s.52.106.707.293l.117.117c.753.753 1.176 1.774 1.176 2.839v.337h-4s0-.136 0-.337c0-1.065.423-2.086 1.176-2.839z" fill="#ce9c69"/><path d="m21.78 20.13c-.47-.078-.842-.439-.935-.905-.139-.697-.348-1.742-.524-2.618-.183-.918.345-1.829 1.233-2.125.001 0 .002-.001.003-.001.839-.28 1.759.072 2.198.84.19.333.405.71.632 1.107.479.838.433 1.877-.119 2.669s-1.51 1.196-2.462 1.037c-.009-.001-.018-.003-.026-.004z" fill="#d08e73"/><path d="m10.22 20.13c.47-.078.842-.439.935-.905.139-.697.348-1.742.524-2.618.183-.918-.345-1.829-1.233-2.125-.001 0-.002-.001-.003-.001-.839-.28-1.759.072-2.198.84-.19.333-.405.71-.632 1.107-.479.838-.433 1.877.119 2.669s1.51 1.196 2.462 1.037c.009-.001.018-.003.026-.004z" fill="#d08e73"/><path d="m21.863 19.784c-.2.05-.413.001-.571-.132s-.243-.333-.229-.539c.053-.735.131-1.827.206-2.885.032-.437.344-.803.771-.903.428-.099.87.092 1.091.47.176.303.354.608.526.903.317.544.36 1.205.116 1.785-.245.58-.748 1.011-1.358 1.163-.195.049-.382.096-.552.138z"/><path d="m10.137 19.784c.2.05.413.001.571-.132s.243-.333.229-.539c-.053-.735-.131-1.827-.206-2.885-.032-.437-.344-.803-.771-.903-.428-.099-.87.092-1.091.47-.176.303-.354.608-.526.903-.317.544-.36 1.205-.116 1.785.245.58.748 1.011 1.358 1.163.195.049.382.096.552.138z"/><path d="m15.151 21c-.305 0-.598.121-.814.337s-.337.509-.337.814v.36c0 .319.094.631.271.896l.002.002c.385.578 1.033.924 1.727.924s1.342-.346 1.727-.924c.001-.001.001-.001.002-.002.177-.265.271-.577.271-.896 0-.111 0-.234 0-.36 0-.305-.121-.598-.337-.814s-.509-.337-.814-.337c-.533 0-1.165 0-1.698 0z" fill="#79463a"/><path d="m12.28 27s.18.209.424.493c.823.957 2.022 1.507 3.284 1.507h.001c1.275 0 2.486-.561 3.31-1.535.228-.269.393-.465.393-.465l-3.692-1z" fill="#bb8a65"/><path d="m13 27h.194c.53 0 1.053-.123 1.527-.36.573-.287 1.279-.64 1.279-.64s.706.353 1.279.64c.474.237.997.36 1.527.36h.194" fill="none" stroke="#784337" stroke-width="1.5"/></svg>