<svg clip-rule="evenodd" fill-rule="evenodd" stroke-linecap="round" stroke-linejoin="round" stroke-miterlimit="1.5" viewBox="0 0 32 32" xmlns="http://www.w3.org/2000/svg" xmlns:xlink="http://www.w3.org/1999/xlink"><clipPath id="a"><path clip-rule="evenodd" d="m0 0h32v32h-32z"/></clipPath><metadata/><path d="m0 0h32v32h-32z" fill="none"/><g clip-path="url(#a)"><path d="m14.037 23c-.024-.315-.037-.631-.037-.947v-2.053h-1.5c-2.485 0-4.5-2.015-4.5-4.5 0-2.485 2.015-4.5 4.5-4.5h1.5v-3h-2.394c-.395 0-.781.117-1.11.336-.142.095-.306.204-.481.32-1.314.876-2.858 1.344-4.437 1.344-1.666 0-3.578 0-3.578 0s.831-1.662 1.618-3.236c.847-1.694 2.578-2.764 4.472-2.764h.556c.899 0 1.795.11 2.668.328.758.19 1.666.417 2.208.553.158.039.317.069.478.089v-.97c0-.53.211-1.039.586-1.414s.884-.586 1.414-.586 1.039.211 1.414.586.586.884.586 1.414v1h2.5c1.193 0 2.338.474 3.182 1.318s1.318 1.989 1.318 3.182c0 2.485-2.015 4.5-4.5 4.5h-2.5v3h.5c2.485 0 4.5 2.015 4.5 4.5 0 2.485-2.015 4.5-4.5 4.5h-1.167l-1.333 4-1.333-4h-3.667v-.002c0-.795.316-1.558.878-2.12s1.325-.878 2.12-.878zm3.963-3v2.053c0 .316-.013.632-.037.947h.537c.398 0 .779-.158 1.061-.439.281-.282.439-.663.439-1.061 0-.828-.672-1.5-1.5-1.5zm-4-6h-1.5c-.828 0-1.5.672-1.5 1.5s.672 1.5 1.5 1.5h1.5zm4-6v3h2.5c.828 0 1.5-.672 1.5-1.5 0-.398-.158-.779-.439-1.061-.282-.281-.663-.439-1.061-.439z" fill="none" stroke="#000" stroke-width="4"/><path d="m13 11h6v3.007h-6z" fill="#2bbc95"/><path d="m18 23 1 2-1 1h-7v-.002c0-.795.316-1.558.878-2.12s1.325-.878 2.12-.878z" fill="#2bbc95"/><path d="m18 21v1.053c0 1.289-.208 2.571-.616 3.794-.588 1.764-1.384 4.153-1.384 4.153s-.796-2.389-1.384-4.153c-.408-1.223-.616-2.505-.616-3.794v-1.053l2-1zm0-3h-4v-9l2-1 2 1zm0-12h-4v-2c0-.53.211-1.039.586-1.414s.884-.586 1.414-.586 1.039.211 1.414.586.586.884.586 1.414z" fill="#deb83c"/><path d="m14 6h4v3h-4z" fill="#b6962f"/><path d="m14 18h4v3h-4z" fill="#b6962f"/><path d="m2 10s.831-1.662 1.618-3.236c.847-1.694 2.578-2.764 4.472-2.764h.556c.899 0 1.795.11 2.668.328.758.19 1.666.417 2.208.553.318.079.643.119.97.119h6.008c1.193 0 2.338.474 3.182 1.318s1.318 1.989 1.318 3.182c0 1.405-.644 2.66-1.654 3.486-.114.009-2.23.514-2.346.514l-3-.5v-2h2.5c.398 0 .779-.158 1.061-.439.281-.282.439-.663.439-1.061v-.019c-.01-1.372-1.126-1.981-2.5-1.981h-7.084c-.931 0-1.85.186-2.683.602-.714.357-1.572.786-2.134 1.067-.398.199-.82.344-1.256.431z" fill="#2bbc95"/><path d="m23.346 12.986c-.775.634-1.766 1.014-2.846 1.014-1.36 0-2.5 0-2.5 0v-1h5c.116 0 .232-.005.346-.014zm-17.003-3.855c.436-.087.858-.232 1.256-.43.562-.281 1.42-.711 2.134-1.068.833-.416 1.752-.633 2.683-.633h7.084c1.374 0 2.49 1.109 2.5 2.481-.005-.391-.162-.765-.439-1.042-.282-.281-.663-.439-1.061-.439-2.452 0-7.213 0-8.894 0-.395 0-.781.117-1.11.336-.142.095-.306.204-.481.32-1.314.876-2.858 1.344-4.437 1.344-1.666 0-3.578 0-3.578 0z" fill="#218d70"/><path d="m9.653 18.985c-1.009-.825-1.653-2.08-1.653-3.485 0-.001 0-.001 0-.002 0-1.193.474-2.337 1.317-3.181.844-.843 1.988-1.317 3.181-1.317h1.502v2.5h-.502c-.663 0-1.209.132-1.577.335-.543.299-.886.919-.918 1.535-.002.032-.003.065-.003.098v.016.014.002c.016.831.695 1.5 1.53 1.5h5.97c2.485 0 4.5 2.015 4.5 4.5 0 2.485-2.015 4.5-4.5 4.5-.308 0-.5 0-.5 0v-3h.5c.828 0 1.5-.672 1.5-1.5v-.017-.002c-.01-1.372-1.202-1.95-2.576-1.95h-5.503s-2.154-.536-2.268-.546z" fill="#2bbc95"/><path d="m20 21.5v-.017zm-10.347-2.515c.114.01.23.015.346.015h7.501c1.374 0 2.49 1.109 2.5 2.481-.01-.82-.678-1.481-1.5-1.481-1.5 0-3.883 0-6 0-1.08 0-2.072-.381-2.847-1.015zm1.347-3.495v.01s0-.001 0-.002v-.014zm3-2.49v1h-1.532c-.389 0-.763.155-1.038.43-.252.252-.403.586-.427.94.032-.616.29-1.2.729-1.638.468-.469 1.103-.732 1.766-.732z" fill="#218d70"/><path d="m6.5 5.75c0-.199-.079-.39-.22-.53-.14-.141-.331-.22-.53-.22s-.39.079-.53.22c-.141.14-.22.331-.22.53v.5c0 .199.079.39.22.53.14.141.331.22.53.22s.39-.079.53-.22c.141-.14.22-.331.22-.53 0-.163 0-.337 0-.5z"/></g></svg>