<svg clip-rule="evenodd" fill-rule="evenodd" stroke-linejoin="round" stroke-miterlimit="2" viewBox="0 0 32 32" xmlns="http://www.w3.org/2000/svg" xmlns:xlink="http://www.w3.org/1999/xlink"><clipPath id="a"><path clip-rule="evenodd" d="m0-.017h32v32h-32z"/></clipPath><metadata/><path d="m0-.017h32v32h-32z" fill="none"/><g clip-path="url(#a)"><path d="m16.099-.016c4.208.026 8.238 1.708 11.215 4.686.447.447.866.919 1.254 1.412h.573c1.238 0 2.336.797 2.719 1.975.1.308.145.624.139.935v1.906l-.001-.035c.006.197-.009.393-.044.587-.061.337-.183.663-.359.957.267 1.164.405 2.363.405 3.576v2c0 7.732-6.268 14-14 14h-4c-7.732 0-14-6.268-14-14v-2c0-1.231.139-2.429.402-3.58-.155-.262-.269-.548-.335-.845-.036-.167-.058-.337-.064-.507v-.007l-.001-.034-.002-.049v-.02-1.958-.015c-.003-.304.043-.611.14-.911.383-1.178 1.481-1.975 2.719-1.975h.572c2.93-3.715 7.471-6.099 12.569-6.099l.099.001z"/><path d="m30 15.983c0-3.713-1.475-7.274-4.101-9.899-2.625-2.626-6.186-4.101-9.899-4.101-7.732 0-14 6.268-14 14v2c0 6.628 5.373 12 12 12h4c6.627 0 12-5.372 12-12z" fill="#fbc546"/><path d="m10.053 23.77c-1.375-1.16-2.442-2.765-2.852-4.787h17.598c-.41 2.022-1.477 3.627-2.852 4.787-1.103-1.118-10.791-1.118-11.894 0z" fill="#722245"/><path d="m10.053 23.77c1.103-1.118 2.629-1.787 4.272-1.787h3.35c1.643 0 3.169.669 4.272 1.787-1.726 1.457-3.939 2.213-5.947 2.213s-4.221-.756-5.947-2.213z" fill="#ca3b8f"/><path d="m22.683 6.577c.031-.095.078-.184.139-.262.077-.099.175-.18.286-.237.09-.046.188-.076.289-.088.085-.011.172-.008.257.007.091.017.179.048.26.093.09.049.171.115.238.192.074.087.129.187.165.295l.782 2.406h4.9v1.915c.014.285-.115.564-.353.738-1.404 1.02-2.981 2.166-2.981 2.166l.461 1.421.719.357v1.957c.011.282-.117.558-.354.73-.301.219-.709.219-1.01 0-1.404-1.02-2.981-2.166-2.981-2.166s-1.577 1.146-2.981 2.166c-.301.219-.709.219-1.01 0-.237-.172-.365-.448-.354-.73v-1.957l.7-.3.48-1.478s-1.577-1.146-2.981-2.166c-.227-.165-.354-.426-.354-.695v-1.958h4.901zm-15 0c.031-.095.078-.184.139-.262.077-.099.175-.18.286-.237.09-.046.188-.076.289-.088.085-.011.172-.008.257.007.091.017.179.048.26.093.09.049.171.115.238.192.074.087.129.187.165.295l.782 2.406h4.9v1.915c.014.285-.115.564-.353.738-1.404 1.02-2.981 2.166-2.981 2.166l.461 1.421.719.357v1.957c.011.282-.117.558-.354.73-.301.219-.709.219-1.01 0-1.404-1.02-2.981-2.166-2.981-2.166s-1.577 1.146-2.981 2.166c-.301.219-.709.219-1.01 0-.237-.172-.365-.448-.354-.73v-1.957l.7-.3.48-1.478s-1.577-1.146-2.981-2.166c-.227-.165-.354-.426-.354-.695v-1.958h4.901z" fill="#d69200"/><path d="m22.683 4.577c.115-.354.445-.594.817-.594s.702.24.817.594c.536 1.65 1.139 3.505 1.139 3.505h3.685c.372 0 .702.239.817.593s-.011.742-.312.961c-1.404 1.02-2.981 2.166-2.981 2.166s.602 1.854 1.138 3.504c.115.354-.011.742-.312.961s-.709.219-1.01 0c-1.404-1.02-2.981-2.166-2.981-2.166s-1.577 1.146-2.981 2.166c-.301.219-.709.219-1.01 0s-.427-.607-.312-.961c.536-1.65 1.138-3.504 1.138-3.504s-1.577-1.146-2.981-2.166c-.301-.219-.427-.607-.312-.961s.445-.593.817-.593h3.685s.603-1.855 1.139-3.505zm-15 0c.115-.354.445-.594.817-.594s.702.24.817.594c.536 1.65 1.139 3.505 1.139 3.505h3.685c.372 0 .702.239.817.593s-.011.742-.312.961c-1.404 1.02-2.981 2.166-2.981 2.166s.602 1.854 1.138 3.504c.115.354-.011.742-.312.961s-.709.219-1.01 0c-1.404-1.02-2.981-2.166-2.981-2.166s-1.577 1.146-2.981 2.166c-.301.219-.709.219-1.01 0s-.427-.607-.312-.961c.536-1.65 1.138-3.504 1.138-3.504s-1.577-1.146-2.981-2.166c-.301-.219-.427-.607-.312-.961s.445-.593.817-.593h3.685s.603-1.855 1.139-3.505z" fill="#fff9ef"/></g></svg>