<svg clip-rule="evenodd" fill-rule="evenodd" stroke-linecap="round" stroke-linejoin="round" stroke-miterlimit="1.5" viewBox="0 0 32 32" xmlns="http://www.w3.org/2000/svg" xmlns:xlink="http://www.w3.org/1999/xlink"><clipPath id="a"><path clip-rule="evenodd" d="m0 0h32v32h-32z"/></clipPath><clipPath id="b"><path clip-rule="evenodd" d="m20 11c0-.265-.105-.52-.293-.707-.187-.188-.442-.293-.707-.293-3.151 0-12.849 0-16 0-.265 0-.52.105-.707.293-.188.187-.293.442-.293.707v9l1 1-1 1v4c0 .265.105.52.293.707.187.188.442.293.707.293h16c.265 0 .52-.105.707-.293.188-.187.293-.442.293-.707 0-.82 0-4 0-4l-1-1 1-1z"/></clipPath><metadata/><path d="m0 0h32v32h-32z" fill="none"/><g clip-path="url(#a)"><path d="m16 32h-15c-.265 0-.52-.105-.707-.293-.188-.187-.293-.442-.293-.707v-20c0-1.657 1.343-3 3-3h17.5c-.323-.43-.5-.956-.5-1.5 0-1.248 0-2.752 0-4 0-.663.263-1.299.732-1.768s1.105-.732 1.768-.732h7c.663 0 1.299.263 1.768.732s.732 1.105.732 1.768v4c0 .663-.263 1.299-.732 1.768s-1.105.732-1.768.732h-3.5v17h6v6z"/><path d="m7 5 4 3 4-3" fill="none" stroke="#000" stroke-width="5.5"/><path d="m7.243 4c-.796 0-1.559.316-2.122.879-.537.537-1.121 1.121-1.121 1.121l1 1s.874-.656 1.467-1.1c.346-.26.767-.4 1.2-.4h6.666c.433 0 .854.14 1.2.4.541.405 1.316.986 1.448 1.085.011.009.026.008.036-.002.132-.132.983-.983.983-.983s-.584-.584-1.121-1.121c-.563-.563-1.326-.879-2.122-.879-1.921 0-5.593 0-7.514 0z" fill="none" stroke="#000" stroke-width="4"/><path d="m17 6h4v4h-4z"/><path d="m11 11v-3" fill="none" stroke="#666" stroke-linecap="square" stroke-width="1.5"/><path d="m7 5 4 3 4-3" fill="none" stroke="#666" stroke-width="1.5"/><path d="m7.243 4c-.796 0-1.559.316-2.122.879-.537.537-1.121 1.121-1.121 1.121l1 1s.874-.656 1.467-1.1c.346-.26.767-.4 1.2-.4h6.666c.433 0 .854.14 1.2.4.541.405 1.316.986 1.448 1.085.011.009.026.008.036-.002.132-.132.983-.983.983-.983s-.584-.584-1.121-1.121c-.563-.563-1.326-.879-2.122-.879-1.921 0-5.593 0-7.514 0z" fill="#999"/><path d="m20 11c0-.265-.105-.52-.293-.707-.187-.188-.442-.293-.707-.293-3.151 0-12.849 0-16 0-.265 0-.52.105-.707.293-.188.187-.293.442-.293.707v9l1 1-1 1v4c0 .265.105.52.293.707.187.188.442.293.707.293h16c.265 0 .52-.105.707-.293.188-.187.293-.442.293-.707 0-.82 0-4 0-4l-1-1 1-1z" fill="#e6e6e6"/><g clip-path="url(#b)"><path d="m18 29h-14v-4h14zm-13-3v2h12v-2z" fill="#b3b3b3"/></g><path d="m2 20h18v2h-18z" fill="#af54bc"/><path d="m19 14-1-1h-14l-1 1v6c0 .552.448 1 1 1h14c.552 0 1-.448 1-1 0-1.934 0-6 0-6z"/><path d="m19 12c0-.552-.448-1-1-1-2.873 0-11.127 0-14 0-.552 0-1 .448-1 1v2h16z" fill="#3f3f3f"/><path d="m8 12h4v1h-4z" fill="#e9a620"/><path d="m13 12h1v1h-1z" fill="#e9a620"/><path d="m7 23c0-.552-.448-1-1-1-.611 0-1.389 0-2 0-.552 0-1 .448-1 1s.448 1 1 1h2c.552 0 1-.448 1-1z" fill="#404040"/><path d="m19 23c0-.552-.448-1-1-1-.611 0-1.389 0-2 0-.552 0-1 .448-1 1s.448 1 1 1h2c.552 0 1-.448 1-1z" fill="#404040"/><path d="m24 7-1-.929-1 .429v22.5h2z" fill="#4e4e4e"/><path d="m2 28h28v2h-28z" fill="#7f7f7f"/><path d="m22 2.5c0-.133.053-.26.146-.354.094-.093.221-.146.354-.146h7c.133 0 .26.053.354.146.093.094.146.221.146.354v4c0 .133-.053.26-.146.354-.094.093-.221.146-.354.146-1.436 0-5.564 0-7 0-.133 0-.26-.053-.354-.146-.093-.094-.146-.221-.146-.354 0-.958 0-3.042 0-4z" fill="#2573e1"/><g fill="#fff"><path d="m26 4h3v1h-3z"/><path d="m23 3h2v3h-2z"/></g></g></svg>