<svg clip-rule="evenodd" fill-rule="evenodd" stroke-linecap="round" stroke-miterlimit="3" viewBox="0 0 32 32" xmlns="http://www.w3.org/2000/svg" xmlns:xlink="http://www.w3.org/1999/xlink"><clipPath id="a"><path clip-rule="evenodd" d="m0 0h32v32h-32z"/></clipPath><clipPath id="b"><ellipse clip-rule="evenodd" cx="16" cy="17.5" rx="10" ry="7.5"/></clipPath><metadata/><path d="m0 0h32v32h-32z" fill="none"/><g clip-path="url(#a)"><path d="m15 2-2 7h6l-2-7z" fill="none" stroke="#000" stroke-width="4"/><path d="m24 9 6-1v1l-5 3z" fill="none" stroke="#000" stroke-width="4"/><path d="m8 9-6-1v1l5 3z" fill="none" stroke="#000" stroke-width="4"/><path d="m5.004 13.197c-.003-.065-.004-.131-.004-.197 0-2 1.321-3.806 3.438-5.082l-4.438-5.918 7.627 4.576c1.34-.371 2.819-.576 4.373-.576s3.033.205 4.373.576l7.627-4.576-4.438 5.918c2.117 1.276 3.438 3.082 3.438 5.082 0 .066-.001.132-.004.197l3.004 1.803h-3c0 1.239-.388 2.414-1.082 3.461-.139.818-.455 1.596-.918 2.31v.306c0 1.251-.391 2.47-1.118 3.488-.527.738-1.174 1.644-1.788 2.504-1.314 1.839-3.436 2.931-5.696 2.931-.265 0-.531 0-.796 0-2.26 0-4.382-1.092-5.696-2.931-.614-.86-1.261-1.766-1.788-2.504-.727-1.018-1.118-2.237-1.118-3.488v-.306c-.463-.714-.779-1.492-.918-2.31-.694-1.047-1.082-2.222-1.082-3.461h-3z" fill="none" stroke="#000" stroke-linejoin="round" stroke-miterlimit="1.5" stroke-width="4"/><g fill="#71c18e"><path d="m7 12v9.077c0 1.251.391 2.47 1.118 3.488.527.738 1.174 1.644 1.788 2.504 1.314 1.839 3.436 2.931 5.696 2.931h.796c2.26 0 4.382-1.092 5.696-2.931.614-.86 1.261-1.766 1.788-2.504.727-1.018 1.118-2.237 1.118-3.488v-9.077z"/><path d="m15 2-2 7h6l-2-7z"/><path d="m18 8 10-6-6 8z"/><path d="m14 8-10-6 6 8z"/><path d="m24 9 6-1v1l-5 3z"/><path d="m8 9-6-1v1l5 3z"/><path d="m25 12 5 3h-5z"/><path d="m7 12-5 3h5z"/></g><path d="m5 13h22v2h-22z" fill="#80ba96"/><ellipse cx="16" cy="13" fill="#71c18e" rx="11" ry="7"/><ellipse cx="16" cy="15" fill="#223e2c" rx="11" ry="8"/><ellipse cx="16" cy="17.5" fill="#71c18e" rx="10" ry="7.5"/><g clip-path="url(#b)"><path d="m16 10 1 1.25s-.745.931-1.326 1.657c-.436.545-1.048.921-1.731 1.063-.282.059-.605.126-.948.198-2.469.514-4.47 2.317-5.239 4.719-.407 1.271-.756 2.363-.756 2.363l-2-2.25v-13.25h11z" fill="#46915e"/><path d="m16 10-1 1.25s.745.931 1.326 1.657c.436.545 1.048.921 1.731 1.063.282.059.605.126.948.198 2.469.514 4.47 2.317 5.239 4.719.407 1.271.756 2.363.756 2.363l2-2.25v-13.25h-11z" fill="#46915e"/><path d="m27 8h-22v10c.634 0 1.234-.281 1.64-.768.664-.797 1.731-2.078 2.644-3.172 1.087-1.305 2.698-2.06 4.397-2.06h.001c.209 0 .415-.049.602-.142.552-.276 1.716-.858 1.716-.858s1.164.582 1.716.858c.187.093.393.142.602.142h.001c1.699 0 3.31.755 4.397 2.06.913 1.094 1.98 2.375 2.644 3.172.406.487 1.006.768 1.64.768z" fill="#71c18e"/></g><path d="m9 18s1.717-.429 2.901-.725c.682-.171 1.403.029 1.9.526.117.117.199.199.199.199v1s-1.33.332-2.456.614c-.902.226-1.84-.206-2.256-1.038-.162-.324-.288-.576-.288-.576z" fill="#356e49"/><path d="m23 18s-1.717-.429-2.901-.725c-.682-.171-1.403.029-1.9.526-.117.117-.199.199-.199.199v1s1.33.332 2.456.614c.902.226 1.84-.206 2.256-1.038.162-.324.288-.576.288-.576z" fill="#356e49"/><path d="m14 22h4c0 .613-.346 1.173-.894 1.447-.071.035-.141.071-.212.106-.563.281-1.225.281-1.788 0-.071-.035-.141-.071-.212-.106-.548-.274-.894-.834-.894-1.447z" fill="#356e49"/><path d="m12 27s.643-.482 1.2-.9c.519-.389 1.151-.6 1.8-.6h2c.649 0 1.281.211 1.8.6.557.418 1.2.9 1.2.9z" fill="#356e49"/></g></svg>