<svg clip-rule="evenodd" fill-rule="evenodd" stroke-linecap="round" stroke-miterlimit="1.5" viewBox="0 0 32 32" xmlns="http://www.w3.org/2000/svg" xmlns:xlink="http://www.w3.org/1999/xlink"><clipPath id="a"><path clip-rule="evenodd" d="m0 0h32v32h-32z"/></clipPath><metadata/><path d="m0 0h32v32h-32z" fill="none"/><g clip-path="url(#a)"><path d="m2 28h28v2h-28z" fill="none" stroke="#000" stroke-width="4"/><path d="m30 21h-15.896c-1.347 0-2.639.535-3.592 1.488-.12.12-.241.241-.359.359-.738.738-1.74 1.153-2.784 1.153-2.068 0-5.369 0-5.369 0s1.098-1.098 2.144-2.144c1.188-1.188 2.8-1.856 4.481-1.856h-.625c-.53 0-1.039-.211-1.414-.586s-.586-.884-.586-1.414c0-.623 0-1.324 0-2 0-.796.316-1.559.879-2.121.562-.563 1.325-.879 2.121-.879h1v-3c0-.265.105-.52.293-.707.187-.188.442-.293.707-.293h3c.265 0 .52.105.707.293.188.187.293.442.293.707v3h8s.584-.584 1.121-1.121c.563-.563 1.326-.879 2.122-.879h3.757z" fill="none" stroke="#000" stroke-linejoin="round" stroke-width="4"/><path d="m32 9h-2l-3 4h-11l-4 8-12 3v6h32z"/><path d="m26 13h4v5.499h-4z"/><path d="m2 28h28v2h-28z" fill="#666"/><circle cx="4" cy="26" fill="#808080" r="2"/><circle cx="8.5" cy="26" fill="#808080" r="2"/><path d="m23.103 20.001.103.004.102.007.101.009.1.011.1.014.099.017.098.018.097.022.096.023.096.026.094.028.093.03.093.033.091.035.09.037.09.039.088.041.086.043.086.045.084.047.083.049.082.052.081.053.079.054.078.057.076.059.075.06.073.062.072.064.07.065.069.067.067.069.065.07.064.072.062.073.06.075.059.076.057.078.054.079.053.081.052.082.049.083.047.084.045.086.043.086.041.088.039.09.037.09.035.091.033.093.03.093.028.094.026.096.023.096.022.097.018.098.017.099.014.1.011.1.009.101.007.102.004.103.001.103-.001.103-.004.103-.007.102-.009.101-.011.1-.014.1-.017.099-.018.098-.022.097-.023.096-.026.096-.028.094-.03.093-.033.093-.035.091-.037.09-.039.09-.041.088-.043.086-.045.086-.047.084-.049.083-.052.082-.053.081-.054.079-.057.078-.059.076-.06.075-.062.073-.064.072-.065.07-.067.069-.069.067-.07.065-.072.064-.073.062-.075.06-.076.059-.078.057-.079.054-.081.053-.082.052-.083.049-.084.047-.086.045-.086.043-.088.041-.09.039-.09.037-.091.035-.093.033-.093.03-.094.028-.096.026-.096.023-.097.022-.098.018-.099.017-.1.014-.1.011-.101.009-.102.007-.103.004-.103.001-.103-.001-.103-.004-.102-.007-.101-.009-.1-.011-.1-.014-.099-.017-.098-.018-.097-.022-.096-.023-.096-.026-.094-.028-.093-.03-.093-.033-.091-.035-.09-.037-.09-.039-.088-.041-.086-.043-.086-.045-.084-.047-.083-.049-.082-.052-.081-.053-.079-.054-.078-.057-.076-.059-.075-.06-.073-.062-.072-.064-.07-.065-.069-.067-.067-.069-.065-.07-.064-.072-.062-.073-.06-.075-.059-.076-.057-.078-.054-.079-.053-.081-.052-.082-.049-.083-.047-.084-.045-.086-.043-.086-.041-.088-.039-.09-.037-.09-.035-.091-.033-.093-.03-.093-.028-.094-.026-.096-.023-.096-.022-.097-.018-.098-.017-.099-.014-.1-.011-.1-.009-.101-.007-.102-.004-.103-.001-.103.001-.103.004-.103.007-.102.009-.101.011-.1.014-.1.017-.099.018-.098.022-.097.023-.096.026-.096.028-.094.03-.093.033-.093.035-.091.037-.09.039-.09.041-.088.043-.086.045-.086.047-.084.049-.083.052-.082.053-.081.054-.079.057-.078.059-.076.06-.075.062-.073.064-.072.065-.07.067-.069.069-.067.07-.065.072-.064.073-.062.075-.06.076-.059.078-.057.079-.054.081-.053.082-.052.083-.049.084-.047.086-.045.086-.043.088-.041.09-.039.09-.037.091-.035.093-.033.093-.03.094-.028.096-.026.096-.023.097-.022.098-.018.099-.017.1-.014.1-.011.101-.009.102-.007.103-.004.103-.001zm-.155 2-.051.002-.051.003-.05.004-.051.006-.049.007-.05.008-.049.01-.048.01-.049.012-.047.013-.047.014-.047.015-.046.016-.046.018-.045.018-.045.02-.044.02-.043.022-.043.023-.042.023-.042.025-.041.025-.04.027-.039.027-.039.029-.038.029-.038.03-.037.031-.035.032-.036.033-.034.033-.033.034-.033.036-.032.035-.031.037-.03.038-.029.038-.029.039-.027.039-.027.04-.025.041-.025.042-.023.042-.023.043-.022.043-.02.044-.02.045-.018.045-.018.046-.016.046-.015.047-.014.047-.013.047-.012.049-.01.048-.01.049-.008.05-.007.049-.006.051-.004.05-.003.051-.002.051-.001.052.001.052.002.051.003.051.004.05.006.051.007.049.008.05.01.049.01.048.012.049.013.047.014.047.015.047.016.046.018.046.018.045.02.045.02.044.022.043.023.043.023.042.025.042.025.041.027.04.027.039.029.039.029.038.03.038.031.037.032.035.033.036.033.034.034.033.036.033.035.032.037.031.038.03.038.029.039.029.039.027.04.027.041.025.042.025.042.023.043.023.043.022.044.02.045.02.045.018.046.018.046.016.047.015.047.014.047.013.049.012.048.01.049.01.05.008.049.007.051.006.05.004.051.003.051.002.052.001.052-.001.051-.002.051-.003.05-.004.051-.006.049-.007.05-.008.049-.01.048-.01.049-.012.047-.013.047-.014.047-.015.046-.016.046-.018.045-.018.045-.02.044-.02.043-.022.043-.023.042-.023.042-.025.041-.025.04-.027.039-.027.039-.029.038-.029.038-.03.037-.031.035-.032.036-.033.034-.033.033-.034.033-.036.032-.035.031-.037.03-.038.029-.038.029-.039.027-.039.027-.04.025-.041.025-.042.023-.042.023-.043.022-.043.02-.044.02-.045.018-.045.018-.046.016-.046.015-.047.014-.047.013-.047.012-.049.01-.048.01-.049.008-.05.007-.049.006-.051.004-.05.003-.051.002-.051.001-.052-.001-.052-.002-.051-.003-.051-.004-.05-.006-.051-.007-.049-.008-.05-.01-.049-.01-.048-.012-.049-.013-.047-.014-.047-.015-.047-.016-.046-.018-.046-.018-.045-.02-.045-.02-.044-.022-.043-.023-.043-.023-.042-.025-.042-.025-.041-.027-.04-.027-.039-.029-.039-.029-.038-.03-.038-.031-.037-.032-.035-.033-.036-.033-.034-.034-.033-.036-.033-.035-.032-.037-.031-.038-.03-.038-.029-.039-.029-.039-.027-.04-.027-.041-.025-.042-.025-.042-.023-.043-.023-.043-.022-.044-.02-.045-.02-.045-.018-.046-.018-.046-.016-.047-.015-.047-.014-.047-.013-.049-.012-.048-.01-.049-.01-.05-.008-.049-.007-.051-.006-.05-.004-.051-.003-.051-.002-.052-.001z" fill="#8c8c8c"/><path d="m15.103 20.001.103.004.102.007.101.009.1.011.1.014.099.017.098.018.097.022.096.023.096.026.094.028.093.03.093.033.091.035.09.037.09.039.088.041.086.043.086.045.084.047.083.049.082.052.081.053.079.054.078.057.076.059.075.06.073.062.072.064.07.065.069.067.067.069.065.07.064.072.062.073.06.075.059.076.057.078.054.079.053.081.052.082.049.083.047.084.045.086.043.086.041.088.039.09.037.09.035.091.033.093.03.093.028.094.026.096.023.096.022.097.018.098.017.099.014.1.011.1.009.101.007.102.004.103.001.103-.001.103-.004.103-.007.102-.009.101-.011.1-.014.1-.017.099-.018.098-.022.097-.023.096-.026.096-.028.094-.03.093-.033.093-.035.091-.037.09-.039.09-.041.088-.043.086-.045.086-.047.084-.049.083-.052.082-.053.081-.054.079-.057.078-.059.076-.06.075-.062.073-.064.072-.065.07-.067.069-.069.067-.07.065-.072.064-.073.062-.075.06-.076.059-.078.057-.079.054-.081.053-.082.052-.083.049-.084.047-.086.045-.086.043-.088.041-.09.039-.09.037-.091.035-.093.033-.093.03-.094.028-.096.026-.096.023-.097.022-.098.018-.099.017-.1.014-.1.011-.101.009-.102.007-.103.004-.103.001-.103-.001-.103-.004-.102-.007-.101-.009-.1-.011-.1-.014-.099-.017-.098-.018-.097-.022-.096-.023-.096-.026-.094-.028-.093-.03-.093-.033-.091-.035-.09-.037-.09-.039-.088-.041-.086-.043-.086-.045-.084-.047-.083-.049-.082-.052-.081-.053-.079-.054-.078-.057-.076-.059-.075-.06-.073-.062-.072-.064-.07-.065-.069-.067-.067-.069-.065-.07-.064-.072-.062-.073-.06-.075-.059-.076-.057-.078-.054-.079-.053-.081-.052-.082-.049-.083-.047-.084-.045-.086-.043-.086-.041-.088-.039-.09-.037-.09-.035-.091-.033-.093-.03-.093-.028-.094-.026-.096-.023-.096-.022-.097-.018-.098-.017-.099-.014-.1-.011-.1-.009-.101-.007-.102-.004-.103-.001-.103.001-.103.004-.103.007-.102.009-.101.011-.1.014-.1.017-.099.018-.098.022-.097.023-.096.026-.096.028-.094.03-.093.033-.093.035-.091.037-.09.039-.09.041-.088.043-.086.045-.086.047-.084.049-.083.052-.082.053-.081.054-.079.057-.078.059-.076.06-.075.062-.073.064-.072.065-.07.067-.069.069-.067.07-.065.072-.064.073-.062.075-.06.076-.059.078-.057.079-.054.081-.053.082-.052.083-.049.084-.047.086-.045.086-.043.088-.041.09-.039.09-.037.091-.035.093-.033.093-.03.094-.028.096-.026.096-.023.097-.022.098-.018.099-.017.1-.014.1-.011.101-.009.102-.007.103-.004.103-.001zm-.155 2-.051.002-.051.003-.05.004-.051.006-.049.007-.05.008-.049.01-.048.01-.049.012-.047.013-.047.014-.047.015-.046.016-.046.018-.045.018-.045.02-.044.02-.043.022-.043.023-.042.023-.042.025-.041.025-.04.027-.039.027-.039.029-.038.029-.038.03-.037.031-.035.032-.036.033-.034.033-.033.034-.033.036-.032.035-.031.037-.03.038-.029.038-.029.039-.027.039-.027.04-.025.041-.025.042-.023.042-.023.043-.022.043-.02.044-.02.045-.018.045-.018.046-.016.046-.015.047-.014.047-.013.047-.012.049-.01.048-.01.049-.008.05-.007.049-.006.051-.004.05-.003.051-.002.051-.001.052.001.052.002.051.003.051.004.05.006.051.007.049.008.05.01.049.01.048.012.049.013.047.014.047.015.047.016.046.018.046.018.045.02.045.02.044.022.043.023.043.023.042.025.042.025.041.027.04.027.039.029.039.029.038.03.038.031.037.032.035.033.036.033.034.034.033.036.033.035.032.037.031.038.03.038.029.039.029.039.027.04.027.041.025.042.025.042.023.043.023.043.022.044.02.045.02.045.018.046.018.046.016.047.015.047.014.047.013.049.012.048.01.049.01.05.008.049.007.051.006.05.004.051.003.051.002.052.001.052-.001.051-.002.051-.003.05-.004.051-.006.049-.007.05-.008.049-.01.048-.01.049-.012.047-.013.047-.014.047-.015.046-.016.046-.018.045-.018.045-.02.044-.02.043-.022.043-.023.042-.023.042-.025.041-.025.04-.027.039-.027.039-.029.038-.029.038-.03.037-.031.035-.032.036-.033.034-.033.033-.034.033-.036.032-.035.031-.037.03-.038.029-.038.029-.039.027-.039.027-.04.025-.041.025-.042.023-.042.023-.043.022-.043.02-.044.02-.045.018-.045.018-.046.016-.046.015-.047.014-.047.013-.047.012-.049.01-.048.01-.049.008-.05.007-.049.006-.051.004-.05.003-.051.002-.051.001-.052-.001-.052-.002-.051-.003-.051-.004-.05-.006-.051-.007-.049-.008-.05-.01-.049-.01-.048-.012-.049-.013-.047-.014-.047-.015-.047-.016-.046-.018-.046-.018-.045-.02-.045-.02-.044-.022-.043-.023-.043-.023-.042-.025-.042-.025-.041-.027-.04-.027-.039-.029-.039-.029-.038-.03-.038-.031-.037-.032-.035-.033-.036-.033-.034-.034-.033-.036-.033-.035-.032-.037-.031-.038-.03-.038-.029-.039-.029-.039-.027-.04-.027-.041-.025-.042-.025-.042-.023-.043-.023-.043-.022-.044-.02-.045-.02-.045-.018-.046-.018-.046-.016-.047-.015-.047-.014-.047-.013-.049-.012-.048-.01-.049-.01-.05-.008-.049-.007-.051-.006-.05-.004-.051-.003-.051-.002-.052-.001z" fill="#8c8c8c"/><path d="m15 10c0-.265-.105-.52-.293-.707-.187-.188-.442-.293-.707-.293-.871 0-2.129 0-3 0-.265 0-.52.105-.707.293-.188.187-.293.442-.293.707v5h5z" fill="#595959"/><path d="m18.5 14 .5 1v4l-1 1.5h-8l-1-.5h-1c-.53 0-1.039-.211-1.414-.586s-.586-.884-.586-1.414c0-.623 0-1.324 0-2 0-.74.273-1.451.764-2l2.236-.5h8z" fill="#595959"/><path d="m18.5 14h-11.736c.037-.041.075-.082.115-.121.562-.563 1.325-.879 2.121-.879h9z" fill="#676767"/><path d="m30 14v11c-.646 0-1.272-.227-1.768-.64-1.619-1.349-4.232-3.86-4.232-3.86h-6v-6.5l1-.5h10z" fill="#3b9e30"/><path d="m18 14v-1h5l1.121-1.121c.563-.563 1.326-.879 2.122-.879h3.757v3z" fill="#40ac34"/><path d="m2 24s1.098-1.098 2.144-2.144c1.188-1.188 2.8-1.856 4.481-1.856h14.257c.724 0 1.426.246 1.991.699.945.756 2.439 1.951 3.346 2.676.506.405 1.134.625 1.781.625v1h-.382c-.724 0-1.426-.246-1.991-.699-.94-.752-2.422-1.937-3.331-2.664-.515-.412-1.155-.637-1.815-.637-1.873 0-5.896 0-8.377 0-1.347 0-2.639.535-3.592 1.488-.12.12-.241.241-.359.359-.738.738-1.74 1.153-2.784 1.153-2.068 0-5.369 0-5.369 0z" fill="#404040"/><path d="m22 24c0-.265-.105-.52-.293-.707-.187-.188-.442-.293-.707-.293-1.11 0-2.89 0-4 0-.265 0-.52.105-.707.293-.188.187-.293.442-.293.707s.105.52.293.707c.187.188.442.293.707.293h4c.265 0 .52-.105.707-.293.188-.187.293-.442.293-.707z" fill="#666"/><path d="m26 12h3v6h-3z"/><path d="m29 19.5c0-.133-.053-.26-.146-.354-.094-.093-.221-.146-.354-.146-.555 0-1.445 0-2 0-.133 0-.26.053-.354.146-.093.094-.146.221-.146.354s.053.26.146.354c.094.093.221.146.354.146h2c.133 0 .26-.053.354-.146.093-.094.146-.221.146-.354z" fill="#e0ca3e"/></g></svg>