<svg clip-rule="evenodd" fill-rule="evenodd" stroke-linejoin="round" stroke-miterlimit="2" viewBox="0 0 32 32" xmlns="http://www.w3.org/2000/svg" xmlns:xlink="http://www.w3.org/1999/xlink"><clipPath id="a"><path clip-rule="evenodd" d="m0 0h32v32h-32z"/></clipPath><metadata/><path d="m0 0h32v32h-32z" fill="none"/><g clip-path="url(#a)"><path d="m16 0c4.243 0 8.313 1.686 11.314 4.686 3 3.001 4.686 7.071 4.686 11.314v2c0 7.732-6.268 14-14 14-1.325 0-2.675 0-4 0-7.732 0-14-6.268-14-14v-2c0-8.837 7.163-16 16-16z"/><path d="m30 16c0-3.713-1.475-7.274-4.101-9.899-2.625-2.626-6.186-4.101-9.899-4.101-7.732 0-14 6.268-14 14v2c0 6.627 5.373 12 12 12h4c6.627 0 12-5.373 12-12z" fill="#fbc546"/><path d="m9.5 16.842c1.933 0 3.5-1.567 3.5-3.5v-2c0-1.933-1.567-3.5-3.5-3.5h-.002c-.928 0-1.817.369-2.473 1.025s-1.025 1.546-1.025 2.473v2.002c0 1.933 1.567 3.5 3.5 3.5z" fill="#fff"/><path d="m8 10.842c0-.53.211-1.039.586-1.414s.884-.586 1.414-.586 1.039.211 1.414.586.586.884.586 1.414v2.984c0 .53-.211 1.039-.586 1.414s-.884.586-1.414.586-1.039-.211-1.414-.586-.586-.884-.586-1.414c0-.936 0-2.048 0-2.984z"/><path d="m22.5 16.842c-1.933 0-3.5-1.567-3.5-3.5v-2c0-1.933 1.567-3.5 3.5-3.5h.002c.928 0 1.817.369 2.473 1.025s1.025 1.546 1.025 2.473v2.002c0 1.933-1.567 3.5-3.5 3.5z" fill="#fff"/><path d="m24 10.842c0-.53-.211-1.039-.586-1.414s-.884-.586-1.414-.586-1.039.211-1.414.586-.586.884-.586 1.414v2.984c0 .53.211 1.039.586 1.414s.884.586 1.414.586 1.039-.211 1.414-.586.586-.884.586-1.414c0-.936 0-2.048 0-2.984z"/><path d="m9.354 23.469c-1.583-1.409-2.715-3.314-3.153-5.469h19.598c-.438 2.155-1.57 4.06-3.153 5.469z" fill="#722245"/><path d="m9.354 23.469.755-1.133c.237-.355.542-.649.891-.87l2 2.814c0 .376-.231.741-.495 1.091-1.169-.436-2.236-1.086-3.151-1.902zm10.141 1.902c-.264-.35-.495-.715-.495-1.091l2-2.814c.349.221.654.515.891.87l.755 1.133c-.915.816-1.982 1.466-3.151 1.902z" fill="#a1256c"/><g fill="#dd34a2"><path d="m19.394 21c.578 0 1.133.166 1.606.466v1.814h-10v-1.814c.473-.3 1.028-.466 1.606-.466z"/><path d="m21 22h-10v2.28c0 2.607 2.113 4.72 4.72 4.72h.56c2.607 0 4.72-2.113 4.72-4.72 0-1.261 0-2.28 0-2.28z"/></g></g></svg>