<svg clip-rule="evenodd" fill-rule="evenodd" stroke-linecap="round" stroke-linejoin="round" stroke-miterlimit="1.5" viewBox="0 0 32 32" xmlns="http://www.w3.org/2000/svg"><metadata/><g fill="none"><path d="m0 0h32v32h-32z"/><path d="m8 4c-.531-.531-1.25-.829-2-.829s-1.469.298-2 .829c-.531.531-.829 1.25-.829 2s.298 1.469.829 2c5.065 5.065 18 18 18 18l4-4s-12.935-12.935-18-18z" stroke="#000" stroke-width="4"/><path d="m22 26s3.331 1.851 5.94 3.3c.391.217.877.149 1.193-.167s.384-.802.167-1.193c-1.449-2.609-3.3-5.94-3.3-5.94z" stroke="#000" stroke-width="4"/></g><path d="m9 5h-1l-3 3v1l17 17h1l3-3v-1z" fill="#fff"/><path d="m22 26s3.331 1.851 5.94 3.3c.391.217.877.149 1.193-.167s.384-.802.167-1.193c-1.449-2.609-3.3-5.94-3.3-5.94z" fill="#989898"/><path d="m9 5-4 4s-.449-.449-1-1c-.531-.531-.829-1.25-.829-2s.298-1.469.829-2c.531-.531 1.25-.829 2-.829s1.469.298 2 .829c.551.551 1 1 1 1z" fill="#ccc"/><path d="m19 19c.552-.552 1.448-.552 2 0l2 2c.552.552.552 1.448 0 2-.552.552-1.448.552-2 0-.611-.611-1.389-1.389-2-2-.552-.552-.552-1.448 0-2z" fill="#989898"/></svg>