<svg clip-rule="evenodd" fill-rule="evenodd" stroke-linecap="round" stroke-linejoin="round" stroke-miterlimit="1.5" viewBox="0 0 32 32" xmlns="http://www.w3.org/2000/svg"><metadata/><path d="m0 0h32v32h-32z" fill="none"/><circle cx="16" cy="16" r="16"/><circle cx="16" cy="16" fill="#ffc144" r="14"/><path d="m14 19s.128.128.293.293c.453.453 1.067.707 1.707.707.64 0 1.254-.254 1.707-.707.165-.165.293-.293.293-.293" fill="none" stroke="#d97408" stroke-width="2"/><path d="m11 23c1.281 1.281 3.017 2 4.828 2h.344c1.811 0 3.547-.719 4.828-2" fill="none" stroke="#d97408" stroke-linejoin="miter" stroke-width="2"/><path d="m6.029 13 1.971-1h4l1 1v.5c0 1.933-1.567 3.5-3.5 3.5h-.002c-.928 0-1.817-.369-2.473-1.025s-1.025-1.545-1.025-2.473c0 0 0-.241.029-.502z" fill="#fff"/><path d="m10 11c.907 0 1.744.302 2.437.784.356.285.563.716.563 1.172v.044h-1v1c0 .53-.211 1.039-.586 1.414s-.884.586-1.414.586-1.039-.211-1.414-.586-.586-.884-.586-1.414v-1h-1.971c.001-.014.003-.029.005-.044 0-.445.203-.867.551-1.145.671-.509 1.508-.811 2.415-.811z"/><path d="m25.971 13-1.971-1h-4l-1 1v.5c0 1.933 1.567 3.5 3.5 3.5h.002c.928 0 1.817-.369 2.473-1.025s1.025-1.545 1.025-2.473c0 0 0-.241-.029-.502z" fill="#fff"/><path d="m22 11c-.907 0-1.744.302-2.437.784-.356.285-.563.716-.563 1.172v.044h1v1c0 .53.211 1.039.586 1.414s.884.586 1.414.586 1.039-.211 1.414-.586.586-.884.586-1.414v-1h1.971c-.001-.014-.003-.029-.005-.044 0-.445-.203-.867-.551-1.145-.671-.509-1.508-.811-2.415-.811z"/></svg>