<svg clip-rule="evenodd" fill-rule="evenodd" stroke-linecap="square" viewBox="0 0 32 32" xmlns="http://www.w3.org/2000/svg" xmlns:xlink="http://www.w3.org/1999/xlink"><clipPath id="a"><path clip-rule="evenodd" d="m0 0h32v32h-32z"/></clipPath><clipPath id="b"><path clip-rule="evenodd" d="m17.833 18.892c.816-1.145 2.155-1.892 3.667-1.892 2.356 0 4.292 1.815 4.484 4.122 1.733.437 3.016 2.007 3.016 3.876v.004c0 2.208-1.79 3.998-3.998 3.998-3.732 0-9.272 0-13.004 0-2.208 0-3.998-1.79-3.998-3.998 0-.001 0-.003 0-.004 0-2.208 1.79-3.998 3.998-3.998h.038c.242-1.695 1.702-3 3.464-3 .896 0 1.714.337 2.333.892z"/></clipPath><metadata/><path d="m0 0h32v32h-32z" fill="none"/><g clip-path="url(#a)"><path d="m17.832 18.896c.815-1.147 2.155-1.896 3.668-1.896 2.357 0 4.293 1.816 4.483 4.126 1.734.432 3.017 2.002 3.017 3.872v.004c0 2.208-1.79 3.998-3.998 3.998-3.732 0-9.272 0-13.004 0-2.208 0-3.998-1.79-3.998-3.998 0-.001 0-.003 0-.004 0-2.208 1.79-3.998 3.998-3.998h.042c.24-1.696 1.699-3 3.46-3 .896 0 1.714.337 2.332.896z" fill="none" stroke="#000" stroke-width="4"/><circle cx="13" cy="13" r="10"/><path d="m5.222 5.222h15.556v15.556h-15.556z" style="fill:none;stroke:#000;stroke-width:4;stroke-linecap:round;stroke-linejoin:round;stroke-miterlimit:1.5"/><path d="m24 13-11-11-11 11 11 11z" style="fill:none;stroke:#000;stroke-width:4;stroke-linecap:round;stroke-linejoin:round;stroke-miterlimit:1.5"/><circle cx="13" cy="13" fill="#e48a1b" r="8"/><circle cx="13" cy="13" fill="#ffc144" r="6"/><g fill="#e48a1b"><path d="m4 11-2 2 2 2z"/><path d="m8.05 5.222h-2.828v2.828z"/><path d="m15 4-2-2-2 2z"/><path d="m20.778 8.05v-2.828h-2.828z"/><path d="m22 11 2 2-2 2z"/><path d="m20.778 17.95v2.828h-2.828z"/><path d="m15 22-2 2-2-2z"/><path d="m8.05 20.778h-2.828v-2.828z"/></g><path d="m17.832 18.896c.815-1.147 2.155-1.896 3.668-1.896 2.357 0 4.293 1.816 4.483 4.126 1.734.432 3.017 2.002 3.017 3.872v.004c0 2.208-1.79 3.998-3.998 3.998-3.732 0-9.272 0-13.004 0-2.208 0-3.998-1.79-3.998-3.998 0-.001 0-.003 0-.004 0-2.208 1.79-3.998 3.998-3.998h.042c.24-1.696 1.699-3 3.46-3 .896 0 1.714.337 2.332.896z" fill="#e6e6e6"/><path d="m17.833 18.892c.816-1.145 2.155-1.892 3.667-1.892 2.356 0 4.292 1.815 4.484 4.122 1.733.437 3.016 2.007 3.016 3.876v.004c0 2.208-1.79 3.998-3.998 3.998-3.732 0-9.272 0-13.004 0-2.208 0-3.998-1.79-3.998-3.998 0-.001 0-.003 0-.004 0-2.208 1.79-3.998 3.998-3.998h.038c.242-1.695 1.702-3 3.464-3 .896 0 1.714.337 2.333.892z" fill="none"/><g clip-path="url(#b)"><path d="m25 20s-.001-.001-.002-.002c-.837-.837-2.096-1.088-3.19-.634-1.095.453-1.808 1.521-1.808 2.705v.931s-.692 0-1.5 0c-1.381 0-2.5 1.119-2.5 2.5 0 .663.263 1.299.732 1.768s1.105.732 1.768.732h9.5v-8z" fill="#bfbfbf"/></g><path d="m21.61 17.001.11.004.108.007.109.009.107.012.106.014.106.016.105.019.104.022.104.024.102.026.101.029.101.031.099.033.098.035.098.038.096.039.095.042.094.044.092.046.092.048.09.051.089.052.088.054.086.056.085.058.083.06.082.061.081.064.079.065.078.067.076.069.074.07.073.072.071.074.069.075.068.077.066.078.065.08.062.082.061.083.059.084.057.085.055.087.053.089.051.089.049.091.047.092.045.094.043.094.04.096.039.097.036.097.034.099.032.1.03.101.027.102.025.103.023.104.02.104.018.106.015.106.013.107.01.108.081.021.08.023.08.025.079.026.078.028.077.029.077.031.075.032.075.034.074.036.074.036.072.039.072.039.07.042.07.042.069.044.067.045.067.047.066.048.065.049.063.051.063.051.062.053.06.055.059.055.059.057.057.057.056.059.054.06.054.062.052.062.051.063.05.064.048.066.047.066.046.067.045.069.043.069.041.07.041.072.039.072.037.072.036.074.035.075.033.075.031.077.03.077.029.077.026.079.026.079.023.08.022.081.021.081.018.082.017.083.016.083.013.084.012.084.01.085.008.085.007.086.004.087.003.087.001.087v.004l-.001.103-.004.103-.007.102-.009.101-.011.1-.014.1-.016.099-.019.098-.021.097-.024.096-.026.096-.028.094-.03.093-.033.093-.034.091-.037.09-.039.089-.041.088-.043.087-.046.086-.047.084-.049.083-.051.082-.053.08-.055.079-.056.078-.059.076-.06.075-.062.073-.064.072-.065.07-.067.069-.069.067-.07.065-.072.064-.073.062-.075.06-.076.059-.078.056-.079.055-.08.053-.082.051-.083.049-.084.047-.086.046-.087.043-.088.041-.089.039-.09.037-.091.034-.093.033-.093.03-.095.028-.095.026-.096.024-.097.021-.098.019-.099.016-.1.014-.1.011-.101.009-.102.007-.103.004-.103.001h-13.004l-.103-.001-.103-.004-.102-.007-.101-.009-.1-.011-.1-.014-.099-.016-.098-.019-.097-.021-.096-.024-.095-.026-.095-.028-.093-.03-.093-.033-.091-.034-.09-.037-.089-.039-.088-.041-.087-.043-.086-.046-.084-.047-.083-.049-.082-.051-.08-.053-.079-.055-.078-.056-.076-.059-.075-.06-.073-.062-.072-.064-.07-.065-.069-.067-.067-.069-.065-.07-.064-.072-.062-.073-.06-.075-.059-.076-.056-.078-.055-.079-.053-.08-.051-.082-.049-.083-.047-.084-.046-.086-.043-.087-.041-.088-.039-.089-.037-.09-.034-.091-.033-.093-.03-.093-.028-.094-.026-.096-.024-.096-.021-.097-.019-.098-.016-.099-.014-.1-.011-.1-.009-.101-.007-.102-.004-.103-.001-.103v-.004l.001-.103.004-.103.007-.102.009-.101.011-.1.014-.1.016-.099.019-.098.021-.097.024-.096.026-.096.028-.094.03-.093.033-.093.034-.091.037-.09.039-.089.041-.088.043-.087.046-.086.047-.084.049-.083.051-.082.053-.08.055-.079.056-.078.059-.076.06-.075.062-.073.064-.072.065-.07.067-.069.069-.067.07-.065.072-.064.073-.062.075-.06.076-.059.078-.056.079-.055.08-.053.082-.051.083-.049.084-.047.086-.046.087-.043.088-.041.089-.039.09-.037.091-.034.093-.033.093-.03.095-.028.095-.026.096-.024.097-.021.098-.019.099-.016.1-.014.1-.011.101-.009.102-.007.103-.004.103-.001h.038l.012-.079.014-.079.016-.078.017-.077.019-.077.021-.076.023-.075.024-.075.026-.073.027-.074.029-.072.03-.071.032-.071.034-.07.035-.069.037-.068.037-.067.04-.066.041-.066.042-.064.043-.063.045-.063.046-.061.048-.06.049-.059.05-.058.051-.057.052-.056.054-.055.055-.053.056-.053.057-.051.058-.05.06-.048.06-.047.062-.046.062-.045.064-.043.064-.042.066-.041.066-.039.067-.038.069-.036.069-.035.07-.033.07-.032.072-.03.073-.029.073-.027.074-.025.074-.024.076-.022.076-.021.077-.019.077-.017.078-.016.079-.013.079-.012.08-.011.08-.008.081-.006.082-.005.082-.003.082-.001.084.001.083.003.083.005.082.007.082.008.081.011.081.012.079.014.08.016.078.018.078.02.078.021.076.023.076.025.075.026.074.028.074.03.072.031.072.033.071.034.07.036.069.037.068.039.067.041.067.042.065.043.064.044.063.047.062.047.061.049.06.05.058.051.039-.053.039-.053.04-.052.041-.052.042-.051.042-.05.043-.05.044-.049.045-.048.045-.048.046-.047.046-.047.047-.045.048-.046.049-.044.049-.044.05-.043.05-.042.051-.041.052-.041.052-.04.053-.039.053-.039.054-.038.055-.037.055-.036.056-.035.056-.035.057-.034.057-.033.058-.032.059-.031.059-.031.059-.029.06-.029.06-.028.061-.027.062-.026.061-.026.063-.024.062-.024.063-.022.064-.022.064-.021.064-.02.065-.018.065-.018.066-.017.066-.016.066-.015.067-.014.067-.013.068-.013.067-.011.068-.01.069-.009.069-.008.069-.007.069-.005.07-.005.07-.004.07-.003.07-.001.071-.001.11.001zm-.165.999-.055.002-.055.002-.055.003-.054.004-.054.004-.054.006-.053.006-.053.007-.053.008-.053.008-.052.01-.052.01-.052.011-.052.011-.051.013-.051.013-.05.014-.051.014-.05.016-.049.016-.05.017-.049.017-.048.018-.049.019-.048.02-.047.02-.047.021-.047.022-.047.023-.046.023-.046.023-.045.025-.045.025-.045.025-.044.027-.044.027-.043.027-.043.028-.043.029-.042.03-.041.03-.042.03-.04.031-.04.032-.04.032-.04.033-.038.034-.039.034-.037.034-.038.036-.037.035-.036.036-.036.037-.035.037-.034.038-.035.038-.033.039-.033.039-.033.04-.031.04-.032.041-.03.041-.678.936-.876-.767-.043-.036-.043-.034-.045-.034-.045-.033-.046-.032-.046-.031-.048-.03-.048-.029-.048-.028-.049-.026-.05-.026-.051-.025-.051-.023-.052-.022-.052-.021-.053-.02-.053-.019-.054-.018-.055-.016-.055-.015-.055-.014-.056-.013-.057-.011-.057-.01-.057-.009-.058-.008-.059-.006-.059-.005-.059-.003-.06-.002-.06-.001-.059.001-.059.002-.058.003-.058.005-.058.006-.057.007-.056.009-.056.009-.056.012-.055.012-.055.013-.054.015-.054.016-.053.017-.053.018-.052.019-.051.021-.051.021-.051.023-.05.024-.049.024-.049.026-.048.027-.047.028-.047.029-.046.03-.046.031-.044.032-.044.033-.043.034-.043.035-.042.035-.041.037-.04.037-.039.039-.038.039-.038.04-.037.041-.036.041-.035.042-.034.044-.033.043-.032.045-.031.045-.03.046-.029.047-.028.047-.027.048-.026.049-.025.049-.024.05-.023.05-.022.051-.02.052-.02.052-.018.052-.017.053-.017.054-.014.054-.014.055-.013.055-.011.055-.01.056-.142.915h-.888l-.084.001-.077.003-.077.005-.076.007-.075.008-.075.011-.074.012-.073.014-.073.016-.072.017-.071.02-.071.021-.07.022-.069.025-.068.026-.068.027-.066.029-.066.031-.065.033-.064.033-.064.036-.062.036-.061.039-.06.039-.06.042-.058.042-.057.044-.057.045-.055.047-.054.048-.052.049-.052.05-.05.052-.049.052-.048.054-.047.055-.045.057-.044.057-.042.058-.042.06-.039.06-.039.061-.036.062-.036.064-.034.064-.032.065-.031.066-.029.066-.027.068-.026.068-.025.069-.022.07-.021.071-.02.071-.017.072-.016.073-.014.073-.012.074-.011.075-.008.075-.007.076-.005.077-.003.077-.001.08.001.08.003.077.005.077.007.076.008.075.011.075.012.074.014.073.016.073.017.072.02.071.021.071.022.07.025.069.026.068.027.068.029.066.031.066.032.065.034.064.036.064.036.062.039.061.039.06.042.06.042.058.044.057.045.057.047.055.048.054.049.052.05.052.052.05.052.049.054.048.055.047.057.045.057.044.058.042.06.042.06.039.061.039.062.036.064.036.064.033.065.033.066.031.066.029.068.027.068.026.069.025.07.022.071.021.071.02.072.017.073.016.073.014.074.012.075.011.075.008.076.007.077.005.077.003.084.001h12.992l.084-.001.077-.003.077-.005.076-.007.075-.008.075-.011.074-.012.073-.014.073-.016.072-.017.071-.02.071-.021.07-.022.069-.025.068-.026.068-.027.066-.029.066-.031.065-.033.064-.033.064-.036.062-.036.061-.039.06-.039.06-.042.058-.042.057-.044.057-.045.055-.047.054-.048.052-.049.052-.05.05-.052.049-.052.048-.054.047-.055.045-.057.044-.057.042-.058.042-.06.039-.06.039-.061.036-.062.036-.064.034-.064.032-.065.031-.066.029-.066.027-.068.026-.068.025-.069.022-.07.021-.071.02-.071.017-.072.016-.073.014-.073.012-.074.011-.075.008-.075.007-.076.005-.077.003-.077.001-.081-.001-.067-.002-.065-.003-.066-.005-.064-.006-.064-.008-.064-.009-.063-.01-.063-.011-.062-.013-.062-.014-.061-.015-.061-.017-.061-.017-.059-.019-.06-.02-.058-.022-.059-.022-.057-.024-.057-.024-.057-.026-.056-.027-.055-.028-.054-.029-.054-.031-.054-.031-.052-.032-.052-.033-.052-.035-.05-.035-.05-.037-.049-.037-.048-.038-.048-.04-.047-.04-.046-.041-.045-.042-.044-.043-.043-.043-.043-.045-.042-.045-.04-.047-.04-.047-.039-.048-.038-.048-.037-.05-.036-.05-.035-.051-.034-.051-.033-.052-.032-.053-.031-.054-.029-.054-.029-.055-.028-.055-.026-.057-.026-.056-.024-.057-.023-.058-.022-.059-.021-.059-.019-.059-.019-.06-.017-.745-.196-.075-.79-.01-.083-.012-.083-.014-.082-.016-.081-.017-.081-.02-.079-.021-.079-.023-.079-.025-.077-.026-.077-.028-.076-.03-.075-.032-.074-.033-.074-.035-.072-.037-.072-.038-.07-.04-.07-.041-.069-.043-.067-.044-.067-.046-.066-.047-.064-.049-.064-.05-.062-.051-.061-.053-.06-.054-.059-.056-.057-.056-.056-.058-.055-.06-.054-.06-.052-.062-.051-.063-.049-.063-.048-.065-.047-.067-.045-.067-.043-.068-.042-.069-.041-.07-.039-.071-.037-.072-.036-.073-.034-.074-.033-.075-.031-.075-.029-.076-.027-.077-.026-.078-.024-.079-.022-.079-.021-.08-.018-.081-.017-.082-.015-.082-.013-.083-.011-.083-.009-.085-.007-.084-.005-.086-.003-.088-.001h-.053z" fill="#e6e6e6"/></g></svg>