<svg clip-rule="evenodd" fill-rule="evenodd" stroke-linejoin="round" stroke-miterlimit="2" viewBox="0 0 32 32" xmlns="http://www.w3.org/2000/svg" xmlns:xlink="http://www.w3.org/1999/xlink"><clipPath id="a"><path clip-rule="evenodd" d="m0 0h32v32h-32z"/></clipPath><metadata/><path d="m0 0h32v32h-32z" fill="none"/><g clip-path="url(#a)"><path d="m32 2c0-.53-.211-1.039-.586-1.414s-.884-.586-1.414-.586h-28c-.53 0-1.039.211-1.414.586s-.586.884-.586 1.414v28c0 .53.211 1.039.586 1.414s.884.586 1.414.586h28c.53 0 1.039-.211 1.414-.586s.586-.884.586-1.414z"/><path d="m30 2h-28v5l2 2h24l2-2z" fill="#2574f4"/><path d="m30 7h-6s-1.08-.36-2.324-.775c-2.435-.811-4.984-1.225-7.551-1.225-.088 0-.177 0-.266 0-3.881 0-7.736.626-11.418 1.853-.276.092-.441.147-.441.147v4l4 1h20l4-2z" fill="#62b8ff"/><path d="m30 10h-6.035c-1.972 0-3.939.195-5.872.581-1.101.221-2.093.419-2.093.419h-14v3l4 2h20l4-1z" fill="#f8e6a6"/><path d="m30 15h-7c-1.315-.658-2.766-1-4.236-1h-16.764v5l3.334 1h22.125l2.541-1z" fill="#efc429"/><path d="m30 18h-15.47c-2.344 0-4.68.288-6.955.856-.347.087-.575.144-.575.144h-5v3l2 2h24.413l1.587-2z" fill="#ff7d03"/><circle cx="16" cy="21" fill="#ffebc6" r="5"/><path d="m2 22h28v8h-28z" fill="#165287"/></g></svg>