<svg clip-rule="evenodd" fill-rule="evenodd" stroke-linejoin="round" stroke-miterlimit="2" viewBox="0 0 32 32" xmlns="http://www.w3.org/2000/svg" xmlns:xlink="http://www.w3.org/1999/xlink"><clipPath id="a"><path clip-rule="evenodd" d="m0 0h32v32h-32z"/></clipPath><metadata/><path d="m0 0h32v32h-32z" fill="none"/><g clip-path="url(#a)"><path d="m32 2c0-.53-.211-1.039-.586-1.414s-.884-.586-1.414-.586h-28c-.53 0-1.039.211-1.414.586s-.586.884-.586 1.414v28c0 .53.211 1.039.586 1.414s.884.586 1.414.586h28c.53 0 1.039-.211 1.414-.586s.586-.884.586-1.414z"/><path d="m30 2h-28v4l2.361 1h22.997l2.642-1z" fill="#0b5ee3"/><path d="m30 6h-28v6l2 4 24-1 2-3z" fill="#299fff"/><path d="m30 12h-28l2 12 25-5 1-4z" fill="#efc429"/><path d="m4 16h24v9h-24z" fill="#ff7d03"/><path d="m2 22h28v8h-28z" fill="#165287"/><path d="m30 30v-15l-4-2-11 8 6 9z" fill="#1d6baf"/><path d="m2 30v-18l5 5 4.521-2 10.479 9 8-3v9z" fill="#113f68"/><path d="m7 17-2 7 6.521-9z" fill="#956b18"/></g></svg>