<svg clip-rule="evenodd" fill-rule="evenodd" stroke-linejoin="round" stroke-miterlimit="2" viewBox="0 0 32 32" xmlns="http://www.w3.org/2000/svg" xmlns:xlink="http://www.w3.org/1999/xlink"><clipPath id="a"><path clip-rule="evenodd" d="m0 0h32v32h-32z"/></clipPath><clipPath id="b"><path clip-rule="evenodd" d="m2 2h28v28h-28z"/></clipPath><clipPath id="c"><path clip-rule="evenodd" d="m9 13v-1h-1l-4-4-4 4h-1v1z"/></clipPath><metadata/><path d="m0 0h32v32h-32z" fill="none"/><g clip-path="url(#a)"><path d="m32 2c0-.53-.211-1.039-.586-1.414s-.884-.586-1.414-.586h-28c-.53 0-1.039.211-1.414.586s-.586.884-.586 1.414v28c0 .53.211 1.039.586 1.414s.884.586 1.414.586h28c.53 0 1.039-.211 1.414-.586s.586-.884.586-1.414z"/><path d="m2 2h28v28h-28z" fill="#871cd8"/><g clip-path="url(#b)"><path d="m30 8h-28v2l6 13h19l3-14z" fill="#b52bc7"/><path d="m3 14h26v9h-26z" fill="#e34c7e"/><path d="m2 19h28v3h-28z" fill="#ff6004"/><circle cx="16" cy="21" fill="#ffa90a" r="5"/><path d="m2 22h28v8h-28z" fill="#2d0e50"/><path d="m20 13h8v20h-8z" fill="#541785"/><path d="m7.5 19h8.5v12h-8.5z" fill="#541785"/><path d="m25 9h7v22h-7z" fill="#2f0f53"/><path d="m9 13-1-1h-6l-1 1v20h8z" fill="#2f0f53"/><g opacity=".75"><path d="m3 14h1v2h-1z" fill="#c88f16"/><path d="m5 17h1v2h-1z" fill="#824c0e"/><path d="m7 23h1v2h-1z" fill="#824c0e"/><path d="m5 26h1v2h-1z" fill="#824c0e"/><path d="m3 20h1v2h-1z" fill="#824c0e"/><g fill="#c88f16"><path d="m3 23h1v2h-1z"/><path d="m7 14h1v2h-1z"/><path d="m7 29h1v2h-1z"/><path d="m3 29h1v2h-1z"/></g></g><g opacity=".75"><path d="m14 20h1v2h-1z" fill="#824c0e"/><path d="m12 20h1v2h-1z" fill="#c88f16"/><path d="m12 23h1v2h-1z" fill="#824c0e"/><g fill="#c88f16"><path d="m10 26h1v2h-1z"/><path d="m14 26h1v2h-1z"/><path d="m12 29h1v2h-1z"/></g></g><g opacity=".75"><path d="m21 14h1v2h-1z" fill="#c88f16"/><path d="m23 17h1v2h-1z" fill="#c88f16"/><g fill="#824c0e"><path d="m23 23h1v2h-1z"/><path d="m21 23h1v2h-1z"/><path d="m21 29h1v2h-1z"/><path d="m23 29h1v2h-1z"/></g><path d="m23 26h1v2h-1z" fill="#c88f16"/></g><g opacity=".75"><g fill="#c88f16"><path d="m26 10h1v2h-1z"/><path d="m28 19h1v2h-1z"/><path d="m26 22h1v2h-1z"/><path d="m28 25h1v2h-1z"/><path d="m28 28h1v2h-1z"/><path d="m30 10h1v2h-1z"/></g><path d="m28 16h1v2h-1z" fill="#824c0e"/><path d="m30 16h1v2h-1z" fill="#824c0e"/><path d="m30 25h1v2h-1z" fill="#824c0e"/><path d="m30 22h1v2h-1z" fill="#824c0e"/><path d="m26 28h1v2h-1z" fill="#824c0e"/></g><path d="m9 13v-1h-1l-4-4-4 4h-1v1z" fill="#541785"/><g clip-path="url(#c)"><path d="m7 12-3-3-3 3z" fill="#290d49"/></g></g><path d="m30 2h-28v6l3 2h23l2-2z" fill="#871cd8"/><path d="m30 8h-28v2l2 13h23l3-14z" fill="#b52bc7"/><path d="m4 15h24v12h-24z" fill="#e34c7e"/><circle cx="16" cy="21" fill="#ffa90a" r="5"/><path d="m22 22h-8l2 8h4z" fill="#2d0e50"/><path d="m20 13h8v17h-8z" fill="#541785"/><path d="m16 19h-9l2 11h7z" fill="#541785"/><path d="m25 9h5v21h-5z" fill="#2d0e50"/><path d="m9 13-1-1h-6v18h7z" fill="#2d0e50"/><path d="m3 14h1v2h-1z" fill="#a26f25"/><path d="m3 23h1v2h-1z" fill="#a26f25"/><path d="m7 14h1v2h-1z" fill="#a26f25"/><path d="m7 29h1v1h-1z" fill="#a26f25"/><path d="m3 29h1v1h-1z" fill="#a26f25"/><path d="m5 17h1v2h-1z" fill="#763f2c"/><path d="m7 23h1v2h-1z" fill="#763f2c"/><path d="m5 26h1v2h-1z" fill="#763f2c"/><path d="m3 20h1v2h-1z" fill="#763f2c"/><path d="m14 20h1v2h-1z" fill="#763f2c"/><path d="m12 23h1v2h-1z" fill="#763f2c"/><path d="m23 23h1v2h-1z" fill="#763f2c"/><path d="m21 23h1v2h-1z" fill="#763f2c"/><path d="m21 29h1v1h-1z" fill="#763f2c"/><path d="m23 29h1v1h-1z" fill="#763f2c"/><path d="m28 16h1v2h-1z" fill="#763f2c"/><path d="m26 28h1v2h-1z" fill="#763f2c"/><g fill="#a26f25"><path d="m12 20h1v2h-1z"/><path d="m10 26h1v2h-1z"/><path d="m14 26h1v2h-1z"/><path d="m12 29h1v1h-1z"/><path d="m21 14h1v2h-1z"/><path d="m23 17h1v2h-1z"/><path d="m23 26h1v2h-1z"/><path d="m26 10h1v2h-1z"/><path d="m28 19h1v2h-1z"/><path d="m26 22h1v2h-1z"/><path d="m28 25h1v2h-1z"/><path d="m28 28h1v2h-1z"/></g><path d="m2 10 2-2 4 4h1v1h-7v-1l1-.604-1-.396z" fill="#541785"/><path d="m2 11 2-2 3 3h-5z" fill="#2d0e50"/></g></svg>