<svg clip-rule="evenodd" fill-rule="evenodd" stroke-linejoin="round" stroke-miterlimit="2" viewBox="0 0 32 32" xmlns="http://www.w3.org/2000/svg" xmlns:xlink="http://www.w3.org/1999/xlink"><clipPath id="a"><path clip-rule="evenodd" d="m0 0h32v32h-32z"/></clipPath><metadata/><path d="m0 0h32v32h-32z" fill="none"/><g clip-path="url(#a)"><path d="m29 0c1.657 0 3 1.343 3 3v7c0 .917-.412 1.739-1.061 2.288.659.713 1.061 1.666 1.061 2.712 0 1.479-.805 2.772-2 3.463v.039c0 3.58-1.422 7.013-3.953 9.545-2.532 2.531-5.965 3.953-9.545 3.953h-3.004c-3.58 0-7.013-1.422-9.545-3.953-2.531-2.532-3.953-5.965-3.953-9.545v-1.504c0-8.283 6.715-14.998 14.998-14.998h.002c3.265 0 6.419 1.064 9 3.001v-2.001c0-1.657 1.343-3 3-3h2z"/><path d="m15 4c3.358 0 6.582 1.299 9 3.619 0 0 1.322 1.636 1.684 3.381.698 3.369.854 7.996 2.305 8-.124 2.869-1.318 5.594-3.357 7.632-2.156 2.157-5.081 3.368-8.13 3.368h-3.004c-3.049 0-5.974-1.211-8.13-3.368-2.157-2.156-3.368-5.081-3.368-8.13v-1.504c0-7.179 5.819-12.998 12.998-12.998h.002z" fill="#fbc546"/><path d="m24 7.619c.065.062.129.125.192.189 2.438 2.438 3.808 5.744 3.808 9.192v1.502c0 .166-.004.333-.011.498-2.202-.006-3.989-1.796-3.989-4 0-1.046.402-1.998 1.06-2.711-.648-.551-1.06-1.372-1.06-2.289z" fill="#e59a10"/><path d="m8.502 18c.928 0 1.817-.369 2.473-1.025s1.025-1.545 1.025-2.473c0-.657 0-1.345 0-2.002 0-1.933-1.567-3.5-3.5-3.5h-.002c-.928 0-1.817.369-2.473 1.025s-1.025 1.545-1.025 2.473v2.002c0 1.933 1.567 3.5 3.5 3.5z" fill="#fff"/><path d="m7 13c0-.53.211-1.039.586-1.414s.884-.586 1.414-.586c1.105 0 2 .895 2 2v.983c0 .531-.211 1.039-.586 1.415-.375.375-.884.585-1.414.585-1.105 0-2-.895-2-2z"/><path d="m21.498 18c-.928 0-1.817-.369-2.473-1.025s-1.025-1.545-1.025-2.473c0-.657 0-1.345 0-2.002 0-1.933 1.567-3.5 3.5-3.5h.002c.928 0 1.817.369 2.473 1.025s1.025 1.545 1.025 2.473v2.002c0 1.933-1.567 3.5-3.5 3.5z" fill="#fff"/><path d="m23 13c0-.53-.211-1.039-.586-1.414s-.884-.586-1.414-.586c-1.105 0-2 .895-2 2v.983c0 .531.211 1.039.586 1.415.375.375.884.585 1.414.585 1.105 0 2-.895 2-2z"/><path d="m12.449 24.579c-.285-.459-.449-1-.449-1.579 0-.654 0-1.346 0-2 0-1.657 1.343-3 3-3s3 1.343 3 3v2c0 .579-.164 1.12-.449 1.579-.78-.374-4.322-.374-5.102 0z" fill="#722245"/><path d="m12.449 24.579c.78-.374 1.649-.579 2.551-.579.902 0 1.771.205 2.551.579-.529.853-1.474 1.421-2.551 1.421s-2.022-.568-2.551-1.421z" fill="#ca3b8f"/><path d="m28 13c1.104 0 2 .896 2 2s-.896 2-2 2-2-.896-2-2 .896-2 2-2zm1-11c.552 0 1 .448 1 1v7c0 .552-.448 1-1 1-.611 0-1.389 0-2 0-.552 0-1-.448-1-1 0-1.732 0-5.268 0-7 0-.552.448-1 1-1z" fill="#fff"/></g></svg>