<svg clip-rule="evenodd" fill-rule="evenodd" stroke-linejoin="round" stroke-miterlimit="1.5" viewBox="0 0 32 32" xmlns="http://www.w3.org/2000/svg" xmlns:xlink="http://www.w3.org/1999/xlink"><clipPath id="a"><path clip-rule="evenodd" d="m7 13.185c0 .806.455 1.543 1.177 1.903 2.129 1.065 6.662 3.331 9.455 4.728 1.491.745 3.245.745 4.736 0 2.359-1.179 5.632-2.816 5.632-2.816v-5l-13-5.5-8 4z"/></clipPath><clipPath id="b"><path clip-rule="evenodd" d="m7.114 11.443c-.508.254-1.124.096-1.447-.37s-.254-1.099.161-1.485c.685-.636 1.386-1.287 2.075-1.926 3.667-3.406 9.063-4.179 13.539-1.941.84.42 1.67.835 2.444 1.222 2.611 1.306 4.521 3.687 5.23 6.519.177.711.35 1.402.495 1.982.227.909-.208 1.854-1.046 2.273-.943.472-2.173 1.087-3.119 1.56-.843.422-1.867.197-2.456-.54-.396-.494-.861-1.076-1.305-1.631-1.11-1.387-2.508-2.518-4.098-3.312-1.416-.708-3.214-1.607-4.704-2.353-1.815-.907-3.951-.907-5.766 0-.001.001-.002.002-.003.002z"/></clipPath><metadata/><g fill="none"><path d="m0 0h32v32h-32z"/><ellipse cx="9" cy="14.5" rx="6" ry="1.5" stroke="#000" stroke-width="4"/><ellipse cx="9" cy="25.5" rx="6" ry="1.5" stroke="#000" stroke-width="4"/><path d="m3 14.5h12v11h-12z" stroke="#000" stroke-width="4"/><path d="m7 13.185c0 .806.455 1.543 1.177 1.903 2.129 1.065 6.662 3.331 9.455 4.728 1.491.745 3.245.745 4.736 0 1.723-.862 3.934-1.967 5.001-2.5.387-.194.631-.589.631-1.022 0-1.378 0-4.294 0-4.294l-13-5.5-8 4z" stroke="#000" stroke-width="4"/><path d="m7.114 11.443c-.508.254-1.124.096-1.447-.37s-.254-1.099.161-1.485c.685-.636 1.386-1.287 2.075-1.926 3.667-3.406 9.063-4.179 13.539-1.941.84.42 1.67.835 2.444 1.222 2.611 1.306 4.521 3.687 5.23 6.519.177.711.35 1.402.495 1.982.227.909-.208 1.854-1.046 2.273-.943.472-2.173 1.087-3.119 1.56-.843.422-1.867.197-2.456-.54-.396-.494-.861-1.076-1.305-1.631-1.11-1.387-2.508-2.518-4.098-3.312-1.416-.708-3.214-1.607-4.704-2.353-1.815-.907-3.951-.907-5.766 0-.001.001-.002.002-.003.002z" stroke="#000" stroke-width="4"/></g><path d="m7 13.185c0 .806.455 1.543 1.177 1.903 2.129 1.065 6.662 3.331 9.455 4.728 1.491.745 3.245.745 4.736 0 2.359-1.179 5.632-2.816 5.632-2.816v-5l-13-5.5-8 4z" fill="#e0e0e0"/><g clip-path="url(#a)"><path d="m3 6h17v18h-17z" fill="#aaa"/></g><ellipse cx="9" cy="25.5" fill="#33402e" rx="6" ry="1.5"/><path d="m3 14.5h12v11h-12z" fill="#33402e"/><ellipse cx="9" cy="14.5" fill="#fff" rx="6" ry="1.5"/><ellipse cx="9" cy="14.5" fill="#e9554a" rx="3" ry=".75"/><path d="m7.114 11.443c-.508.254-1.124.096-1.447-.37s-.254-1.099.161-1.485c.685-.636 1.386-1.287 2.075-1.926 3.667-3.406 9.063-4.179 13.539-1.941.84.42 1.67.835 2.444 1.222 2.611 1.306 4.521 3.687 5.23 6.519.177.711.35 1.402.495 1.982.227.909-.208 1.854-1.046 2.273-.943.472-2.173 1.087-3.119 1.56-.843.422-1.867.197-2.456-.54-.396-.494-.861-1.076-1.305-1.631-1.11-1.387-2.508-2.518-4.098-3.312-1.416-.708-3.214-1.607-4.704-2.353-1.815-.907-3.951-.907-5.766 0-.001.001-.002.002-.003.002z" fill="#b84b43"/><g clip-path="url(#b)" fill="none" stroke="#853631" stroke-linecap="round" stroke-width="2"><path d="m16 5.5-4 2"/><path d="m21 7-4 2"/><path d="m25 9-4 2"/></g></svg>