<svg clip-rule="evenodd" fill-rule="evenodd" stroke-linecap="round" stroke-miterlimit="1.5" viewBox="0 0 32 32" xmlns="http://www.w3.org/2000/svg" xmlns:xlink="http://www.w3.org/1999/xlink"><clipPath id="a"><path clip-rule="evenodd" d="m0 0h32v32h-32z"/></clipPath><metadata/><path d="m0 0h32v32h-32z" fill="none"/><g clip-path="url(#a)"><path d="m2 2h28v5h-28z" fill="none" stroke="#000" stroke-width="4"/><path d="m3 2h26v9h-26z"/><path d="m30 12c0-.552-.448-1-1-1-4.355 0-21.645 0-26 0-.552 0-1 .448-1 1v13.292c0 .466.108.925.317 1.341.388.776 1.038 2.077 1.407 2.814.169.339.515.553.894.553h24.382c.265 0 .52-.105.707-.293.188-.187.293-.442.293-.707 0-3.284 0-13.716 0-17z" fill="none" stroke="#000" stroke-width="4"/><path d="m5 5h3v7h-3z" fill="#4b4b4b"/><path d="m24 5h3v7h-3z" fill="#4b4b4b"/><path d="m30 2h-3l-1 1-1-1h-3l-1 1-1-1h-3l-1 1-1-1h-3l-1 1-1-1h-3l-1 1-1-1h-3v5h3l1-1 1 1h3l1-1 1 1h3l1-1 1 1h3l1-1 1 1h3l1-1 1 1h3z" fill="#b3b3b3"/><g fill="#999"><path d="m5 2h2v5h-2z"/><path d="m10 2h2v5h-2z"/><path d="m20 2h2v5h-2z"/><path d="m25 2h2v5h-2z"/><path d="m15 2h2v5h-2z"/></g><path d="m2 13v-1c0-.552.448-1 1-1h26c.552 0 1 .448 1 1v1z" fill="#fff"/><path d="m30 27v2c0 .265-.105.52-.293.707-.187.188-.442.293-.707.293-4.275 0-20.954 0-24.382 0-.379 0-.725-.214-.894-.553l-1.224-2.447.5-1h26zm-28-2v-12l1-1h26l1 1v12l-1 1-1-1-1-1h-22l-1 1-1 1z" fill="#e6e6e6"/><path d="m2 25h28v2h-27.5l-.183-.367c-.209-.416-.317-.875-.317-1.341z" fill="#5b48d8"/><path d="m29 17c0-.265-.105-.52-.293-.707-.187-.188-.442-.293-.707-.293-4.134 0-19.866 0-24 0-.265 0-.52.105-.707.293-.188.187-.293.442-.293.707v7c0 .265.105.52.293.707.187.188.442.293.707.293h24c.265 0 .52-.105.707-.293.188-.187.293-.442.293-.707 0-1.732 0-5.268 0-7z"/><path d="m19.05 15.001.049.001.05.004.049.004.049.005.048.007.049.008.048.009.048.01.047.011.048.013.047.013.046.015.046.016.046.017.045.018.045.019.045.021.043.021.044.023.043.023.042.025.042.025.041.027.04.028.04.028.039.03.039.031.037.032.037.032.037.034.035.035.035.035.034.037.032.037.032.037.031.039.03.039.028.04.028.04.027.041.025.042.025.042.023.043.023.044.021.043.021.045.019.045.018.045.017.046.016.046.015.046.013.047.013.048.011.047.01.048.009.048.008.049.007.048.005.049.004.049.004.05.001.049.001.05v11l-.001.05-.001.049-.004.05-.004.049-.005.049-.007.048-.008.049-.009.048-.01.048-.011.047-.013.048-.013.047-.015.046-.016.046-.017.046-.018.045-.019.045-.021.045-.021.043-.023.044-.023.043-.025.042-.025.042-.027.041-.028.04-.028.04-.03.039-.031.039-.032.037-.032.037-.034.037-.035.035-.035.035-.037.034-.037.032-.037.032-.039.031-.039.03-.04.028-.04.028-.041.027-.042.025-.042.025-.043.023-.044.023-.043.021-.045.021-.045.019-.045.018-.046.017-.046.016-.046.015-.047.013-.048.013-.047.011-.048.01-.048.009-.049.008-.048.007-.049.005-.049.004-.05.004-.049.001-.05.001h-6l-.05-.001-.049-.001-.05-.004-.049-.004-.049-.005-.048-.007-.049-.008-.048-.009-.048-.01-.047-.011-.048-.013-.047-.013-.046-.015-.046-.016-.046-.017-.045-.018-.045-.019-.045-.021-.043-.021-.044-.023-.043-.023-.042-.025-.042-.025-.041-.027-.04-.028-.04-.028-.039-.03-.039-.031-.037-.032-.037-.032-.037-.034-.035-.035-.035-.035-.034-.037-.032-.037-.032-.037-.031-.039-.03-.039-.028-.04-.028-.04-.027-.041-.025-.042-.025-.042-.023-.043-.023-.044-.021-.043-.021-.045-.019-.045-.018-.045-.017-.046-.016-.046-.015-.046-.013-.047-.013-.048-.011-.047-.01-.048-.009-.048-.008-.049-.007-.048-.005-.049-.004-.049-.004-.05-.001-.049-.001-.05v-11l.001-.05.001-.049.004-.05.004-.049.005-.049.007-.048.008-.049.009-.048.01-.048.011-.047.013-.048.013-.047.015-.046.016-.046.017-.046.018-.045.019-.045.021-.045.021-.043.023-.044.023-.043.025-.042.025-.042.027-.041.028-.04.028-.04.03-.039.031-.039.032-.037.032-.037.034-.037.035-.035.035-.035.037-.034.037-.032.037-.032.039-.031.039-.03.04-.028.04-.028.041-.027.042-.025.042-.025.043-.023.044-.023.043-.021.045-.021.045-.019.045-.018.046-.017.046-.016.046-.015.047-.013.048-.013.047-.011.048-.01.048-.009.049-.008.048-.007.049-.005.049-.004.05-.004.049-.001.05-.001h6zm-6.044.999h-.031l-.025.001-.024.002-.025.002-.024.003-.025.003-.024.004-.024.004-.024.006-.024.005-.023.006-.024.007-.023.008-.023.008-.023.008-.023.009-.022.01-.022.01-.022.011-.022.011-.021.012-.021.012-.021.013-.021.013-.02.014-.02.014-.019.015-.02.015-.019.016-.018.017-.018.017-.018.017-.017.018-.017.018-.017.018-.015.019-.016.02-.015.019-.014.02-.014.02-.013.021-.013.021-.012.021-.012.021-.011.022-.011.022-.01.022-.01.022-.009.023-.008.023-.008.023-.008.023-.007.024-.006.023-.005.024-.006.024-.004.024-.004.024-.003.025-.003.024-.002.025-.002.024-.001.025v.031 10.988.031l.001.025.002.024.002.025.003.024.003.025.004.024.004.024.006.024.005.024.006.023.007.024.008.023.008.023.008.023.009.023.01.022.01.022.011.022.011.022.012.021.012.021.013.021.013.021.014.02.014.02.015.019.016.02.015.019.017.018.017.018.017.018.018.017.018.017.019.017.018.016.02.015.019.015.02.014.02.014.021.013.021.013.021.012.021.012.022.011.022.011.022.01.022.01.023.009.023.008.023.008.023.008.024.007.023.006.024.005.024.006.024.004.024.004.025.003.024.003.025.002.024.002.025.001h.031 5.988.031l.025-.001.024-.002.025-.002.024-.003.025-.003.024-.004.024-.004.024-.006.024-.005.023-.006.024-.007.023-.008.023-.008.023-.008.023-.009.022-.01.022-.01.022-.011.022-.011.021-.012.021-.012.021-.013.021-.013.02-.014.02-.014.019-.015.02-.015.019-.016.018-.017.018-.017.018-.017.017-.018.017-.018.017-.018.016-.019.015-.02.015-.019.014-.02.014-.02.013-.021.013-.021.012-.021.012-.021.011-.022.011-.022.01-.022.01-.022.009-.023.008-.023.008-.023.008-.023.007-.024.006-.023.005-.024.006-.024.004-.024.004-.024.003-.025.003-.024.002-.025.002-.024.001-.025v-.031-10.988-.031l-.001-.025-.002-.024-.002-.025-.003-.024-.003-.025-.004-.024-.004-.024-.006-.024-.005-.024-.006-.023-.007-.024-.008-.023-.008-.023-.008-.023-.009-.023-.01-.022-.01-.022-.011-.022-.011-.022-.012-.021-.012-.021-.013-.021-.013-.021-.014-.02-.014-.02-.015-.019-.015-.02-.016-.018-.017-.019-.017-.018-.017-.018-.018-.017-.018-.017-.018-.017-.019-.016-.02-.015-.019-.015-.02-.014-.02-.014-.021-.013-.021-.013-.021-.012-.021-.012-.022-.011-.022-.011-.022-.01-.022-.01-.023-.009-.023-.008-.023-.008-.023-.008-.024-.007-.023-.006-.024-.005-.024-.006-.024-.004-.024-.004-.025-.003-.024-.003-.025-.002-.024-.002-.025-.001h-.031z" fill="#878787"/><path d="m3 13h2v1h-2z" fill="#a3a3a3"/><path d="m11 13h2v1h-2z" fill="#a3a3a3"/><path d="m19 13h2v1h-2z" fill="#a3a3a3"/><path d="m27 13h2v1h-2z" fill="#a3a3a3"/></g></svg>