<svg clip-rule="evenodd" fill-rule="evenodd" stroke-linecap="round" stroke-miterlimit="1.5" viewBox="0 0 32 32" xmlns="http://www.w3.org/2000/svg" xmlns:xlink="http://www.w3.org/1999/xlink"><clipPath id="a"><path clip-rule="evenodd" d="m0 0h32v32h-32z"/></clipPath><clipPath id="b"><path clip-rule="evenodd" d="m24.242 11.183c-.749-1.919-2.598-3.183-4.659-3.183-3.353 0-8.414 0-11.607 0-1.766 0-3.324 1.159-3.831 2.851-.303 1.01-.65 2.165-.975 3.247-.776 2.588-1.17 5.274-1.17 7.975v1.927c0 .53.211 1.039.586 1.414s.884.586 1.414.586h24c.53 0 1.039-.211 1.414-.586s.586-.884.586-1.414c0-1.393 0-3.222 0-4.493 0-.892-.591-1.676-1.449-1.922-.959-.275-2.04-.585-2.04-.585s-1.259-3.227-2.269-5.817z"/></clipPath><clipPath id="c"><path clip-rule="evenodd" d="m23.143 11.918c-.348-1.139-1.399-1.918-2.591-1.918-3.466.001-10.493.002-13.497.003-.852 0-1.616.525-1.922 1.32-.073.192-.148.388-.22.575-.282.732-.481 1.494-.595 2.27-.068.462-.144.979-.205 1.391-.066.452.182.892.604 1.068.54.226 1.296.542 1.947.814.882.369 1.828.559 2.784.559h14.584c.227 0 .441-.108.576-.29.135-.183.176-.418.109-.635-.383-1.255-1.076-3.526-1.574-5.157z"/></clipPath><metadata/><path d="m0 0h32v32h-32z" fill="none"/><g clip-path="url(#a)"><g stroke="#000" stroke-width="4"><path d="m24.242 11.183c-.749-1.919-2.598-3.183-4.659-3.183-3.353 0-8.414 0-11.607 0-1.766 0-3.324 1.159-3.831 2.851-.303 1.01-.65 2.165-.975 3.247-.776 2.588-1.17 5.274-1.17 7.975v1.927c0 .53.211 1.039.586 1.414s.884.586 1.414.586h24c.53 0 1.039-.211 1.414-.586s.586-.884.586-1.414c0-1.393 0-3.222 0-4.493 0-.892-.591-1.676-1.449-1.922-.959-.275-2.04-.585-2.04-.585s-1.259-3.227-2.269-5.817z" fill="none"/><circle cx="7.5" cy="26.5" fill="#fff" r="3.5"/><circle cx="23.5" cy="26.5" fill="#fff" r="3.5"/></g><path d="m24.242 11.183c-.749-1.919-2.598-3.183-4.659-3.183-3.353 0-8.414 0-11.607 0-1.766 0-3.324 1.159-3.831 2.851-.303 1.01-.65 2.165-.975 3.247-.776 2.588-1.17 5.274-1.17 7.975v1.927c0 .53.211 1.039.586 1.414s.884.586 1.414.586h24c.53 0 1.039-.211 1.414-.586s.586-.884.586-1.414c0-1.393 0-3.222 0-4.493 0-.892-.591-1.676-1.449-1.922-.959-.275-2.04-.585-2.04-.585s-1.259-3.227-2.269-5.817z" fill="#ccc"/><g clip-path="url(#b)"><path d="m19 19.499c0-.276-.223-.499-.499-.499-.555 0-1.447 0-2.002 0-.276 0-.499.223-.499.499v.001c0 .133.053.26.146.354.094.093.221.146.354.146h2c.133 0 .26-.053.354-.146.093-.094.146-.221.146-.354z" fill="#dbdbdb"/><path d="m1 7h30v3h-30z" fill="#f2f2f2"/><path d="m31 19h-3.382c-.347 0-.668.179-.851.474-.182.295-.198.663-.043.973.024.049.048.097.07.142.131.261.369.452.652.523 1.043.26 3.554.888 3.554.888z" fill="#676767"/><path d="m27 24c0-.265-.105-.52-.293-.707-.187-.188-.442-.293-.707-.293-4.772 0-25 0-25 0v2h25c.265 0 .52-.105.707-.293.188-.187.293-.442.293-.707z" fill="#fff"/><g fill="#333"><path d="m28 25c0-.796-.316-1.559-.879-2.121-.562-.563-1.325-.879-2.121-.879-.965 0-2.035 0-3 0-.796 0-1.559.316-2.121.879-.563.562-.879 1.325-.879 2.121v2h9z"/><path d="m12 25c0-.796-.316-1.559-.879-2.121-.562-.563-1.325-.879-2.121-.879-.965 0-2.035 0-3 0-.796 0-1.559.316-2.121.879-.563.562-.879 1.325-.879 2.121v2h9z"/></g></g><path d="m19 19.499c0-.276-.223-.499-.499-.499-.555 0-1.447 0-2.002 0-.276 0-.499.223-.499.499v.001c0 .133.053.26.146.354.094.093.221.146.354.146h2c.133 0 .26-.053.354-.146.093-.094.146-.221.146-.354z" fill="#838383"/><path d="m23.143 11.918c-.348-1.139-1.399-1.918-2.591-1.918-3.466.001-10.493.002-13.497.003-.852 0-1.616.525-1.922 1.32-.073.192-.148.388-.22.575-.282.732-.481 1.494-.595 2.27-.068.462-.144.979-.205 1.391-.066.452.182.892.604 1.068.54.226 1.296.542 1.947.814.882.369 1.828.559 2.784.559h14.584c.227 0 .441-.108.576-.29.135-.183.176-.418.109-.635-.383-1.255-1.076-3.526-1.574-5.157z"/><g clip-path="url(#c)"><path d="m12 9s-.319 1.276-.597 2.387c-.268 1.071-.403 2.172-.403 3.276v4.337" fill="none" stroke="#333" stroke-linejoin="round" stroke-width="2"/></g><circle cx="7.5" cy="26.5" fill="#5a5a5a" r="3.5"/><circle cx="23.5" cy="26.5" fill="#5a5a5a" r="3.5"/><circle cx="23.5" cy="26.5" fill="#bfbfbf" r="2.5"/><circle cx="7.5" cy="26.5" fill="#bfbfbf" r="2.5"/><path d="m22 18c0-.552-.448-1-1-1-.322 0-.678 0-1 0-.552 0-1 .448-1 1s.448 1 1 1h1c.552 0 1-.448 1-1z" fill="#333"/></g></svg>