<svg clip-rule="evenodd" fill-rule="evenodd" stroke-linecap="round" stroke-linejoin="round" viewBox="0 0 32 32" xmlns="http://www.w3.org/2000/svg" xmlns:xlink="http://www.w3.org/1999/xlink"><clipPath id="a"><path clip-rule="evenodd" d="m5.326 9.868s-1.287 7.293-2.111 11.96c-.41 2.324.564 4.676 2.498 6.029l.114.081c1.48 1.036 3.345 1.36 5.088.883 1.742-.476 3.183-1.703 3.931-3.348.977-2.149.571-4.673-1.03-6.407-3.292-3.566-8.49-9.198-8.49-9.198z"/></clipPath><clipPath id="b"><path clip-rule="evenodd" d="m11.551 5.75s6.101-1.525 9.714-2.429c1.596-.399 3.281.129 4.364 1.367.041.047.082.093.123.141.951 1.086 1.295 2.576.917 3.969-.379 1.393-1.429 2.504-2.798 2.96 0 0-.001.001-.001.001-1.117.372-2.342.226-3.341-.398-2.943-1.839-8.978-5.611-8.978-5.611z"/></clipPath><clipPath id="c"><path clip-rule="evenodd" d="m19.327 17.327s1.337 4.113 2.237 6.882c.477 1.469 1.846 2.464 3.391 2.464h.002c2.052 0 3.716-1.664 3.716-3.716 0-.027 0-.054 0-.081 0-1.629-1.069-3.066-2.63-3.534-2.764-.829-6.716-2.015-6.716-2.015z"/></clipPath><metadata/><path d="m0 0h32v32h-32z" fill="none"/><path d="m5 9s-1.413 8.004-2.299 13.028c-.428 2.423.588 4.874 2.603 6.285.15.105.303.212.457.319 1.541 1.079 3.482 1.417 5.297.921s3.315-1.774 4.094-3.487c.036-.081.073-.161.11-.241 1.053-2.318.615-5.041-1.112-6.912-3.548-3.845-9.15-9.913-9.15-9.913zm14 8s1.43 4.401 2.393 7.363c.511 1.573 1.976 2.637 3.629 2.637h.002c2.196 0 3.976-1.78 3.976-3.976 0-.029 0-.058 0-.087 0-1.743-1.144-3.28-2.814-3.781-2.957-.887-7.186-2.156-7.186-2.156zm-9-11.5s6.937-1.734 11.044-2.761c1.815-.454 3.731.146 4.962 1.554.046.053.093.106.14.16 1.081 1.235 1.472 2.928 1.042 4.512s-1.624 2.847-3.181 3.366c-.001 0-.001 0-.002.001-1.27.423-2.662.257-3.798-.452-3.346-2.092-10.207-6.38-10.207-6.38z" fill="none" stroke="#000" stroke-width="4"/><path d="m5.326 9.868s-1.287 7.293-2.111 11.96c-.41 2.324.564 4.676 2.498 6.029l.114.081c1.48 1.036 3.345 1.36 5.088.883 1.742-.476 3.183-1.703 3.931-3.348.977-2.149.571-4.673-1.03-6.407-3.292-3.566-8.49-9.198-8.49-9.198z" fill="#10bfff"/><g clip-path="url(#a)"><path d="m10 10v8.949c0 3.572-2.391 6.703-5.838 7.643-2.633.718-5.162 1.408-5.162 1.408v-18z" fill="#9ce5ff"/></g><path d="m14.15 18.913.08.088.079.09.076.091.074.091.072.093.071.095.068.095.067.096.065.097.063.098.061.1.058.1.057.101.055.102.054.103.051.103.049.105.047.105.045.106.043.106.042.107.039.108.037.109.036.109.033.109.031.111.029.11.028.111.025.112.023.112.021.112.02.113.017.113.015.114.013.113.011.114.009.114.007.114.004.115.003.114.001.115-.001.115-.004.115-.006.114-.007.115-.01.115-.012.114-.014.115-.016.114-.018.115-.02.114-.023.113-.024.114-.027.113-.029.113-.031.113-.033.112-.035.112-.038.112-.039.111-.042.11-.044.11-.046.11-.048.109-.11.241-.037.08-.038.08-.04.078-.04.078-.041.078-.042.076-.043.076-.044.076-.046.074-.046.074-.047.073-.048.073-.049.071-.05.071-.05.071-.052.069-.053.069-.053.068-.055.067-.055.066-.056.066-.058.064-.057.064-.059.063-.06.063-.06.061-.061.061-.063.06-.062.058-.064.058-.064.058-.066.056-.065.055-.067.055-.068.053-.068.053-.069.052-.069.051-.07.049-.071.049-.072.048-.072.047-.073.046-.074.045-.074.044-.075.043-.076.043-.076.041-.077.04-.077.039-.078.038-.079.037-.079.035-.08.035-.08.034-.081.033-.081.031-.082.031-.083.029-.082.029-.084.027-.084.026-.084.025-.085.024-.085.022-.085.022-.086.02-.086.019-.085.018-.086.016-.086.016-.086.014-.087.013-.086.011-.086.011-.087.009-.086.008-.087.007-.086.006-.087.005-.086.003-.087.002-.086.001h-.086l-.087-.001-.086-.003-.086-.003-.086-.005-.086-.006-.086-.007-.086-.009-.085-.009-.086-.011-.085-.012-.085-.013-.085-.014-.085-.015-.085-.017-.084-.017-.084-.019-.084-.02-.083-.021-.083-.022-.083-.024-.083-.024-.083-.026-.082-.026-.081-.028-.082-.029-.081-.03-.08-.032-.081-.032-.08-.033-.079-.035-.079-.036-.079-.037-.078-.037-.078-.04-.077-.04-.077-.041-.076-.042-.076-.044-.075-.044-.075-.046-.074-.047-.074-.048-.073-.049-.072-.05-.457-.319-.094-.067-.092-.068-.091-.07-.089-.072-.088-.072-.086-.074-.085-.076-.083-.077-.082-.078-.08-.08-.078-.08-.077-.082-.076-.084-.073-.084-.072-.086-.071-.087-.069-.088-.067-.089-.066-.09-.064-.091-.062-.092-.061-.093-.059-.095-.057-.095-.056-.096-.053-.097-.052-.098-.051-.099-.048-.099-.047-.101-.045-.101-.044-.102-.041-.103-.04-.103-.038-.104-.036-.105-.034-.106-.032-.106-.031-.106-.029-.108-.027-.107-.025-.109-.023-.108-.021-.11-.019-.11-.017-.11-.016-.11-.013-.111-.012-.111-.009-.112-.008-.112-.005-.112-.004-.112-.002-.113.001-.113.002-.113.005-.113.006-.114.009-.113.011-.113.012-.114.015-.114.017-.113.019-.114 2.299-13.028 9.15 9.913zm-10.464 3.285-.016.1-.015.095-.012.096-.011.096-.009.095-.007.096-.005.095-.004.095-.002.096-.001.095.002.094.003.095.005.094.006.095.008.094.01.093.011.094.013.093.015.092.016.093.018.092.019.091.021.091.023.091.024.091.025.089.028.09.029.089.03.088.032.088.033.087.035.086.037.086.038.085.039.085.041.084.042.083.044.083.046.081.046.081.049.08.049.08.051.078.053.078.054.077.055.076.057.075.058.074.059.073.061.072.062.071.063.07.065.069.066.068.067.067.069.066.07.065.072.063.072.062.074.062.075.06.077.059.078.057.082.059.45.315.064.044.062.042.062.04.062.039.063.039.064.037.063.037.065.035.064.035.065.034.066.033.066.032.066.031.066.03.067.029.068.028.067.027.068.027.068.025.069.025.069.023.069.022.069.022.07.021.07.019.07.019.07.018.071.016.07.016.071.015.072.014.071.013.071.012.072.011.072.01.072.009.072.008.072.007.073.006.072.005.072.004.073.003.073.002.072.001h.073.073l.073-.002.072-.003.073-.004.073-.005.073-.006.073-.007.072-.007.073-.009.073-.01.072-.011.073-.012.072-.013.073-.014.072-.015.072-.016.072-.017.072-.018.072-.019.071-.02.071-.021.071-.022.07-.023.07-.024.069-.025.069-.025.068-.027.068-.027.068-.029.067-.029.067-.03.066-.031.066-.032.065-.033.065-.034.064-.035.063-.035.063-.036.063-.037.062-.038.062-.039.06-.04.061-.04.06-.041.059-.042.058-.043.058-.044.058-.044.056-.045.057-.046.055-.046.055-.048.054-.048.054-.049.053-.05.052-.05.051-.051.051-.051.051-.053.049-.053.049-.054.048-.055.047-.055.047-.056.046-.056.045-.057.044-.058.044-.058.042-.06.043-.06.041-.06.04-.061.04-.061.038-.062.038-.063.038-.064.036-.063.036-.065.034-.066.034-.065.033-.066.032-.067.033-.07.106-.235.043-.096.039-.092.037-.093.035-.093.033-.094.032-.093.029-.095.028-.094.026-.095.025-.095.022-.095.021-.096.019-.096.017-.096.015-.096.014-.096.011-.097.01-.096.009-.096.006-.097.005-.097.003-.096.001-.097-.001-.097-.002-.096-.004-.096-.006-.097-.007-.096-.01-.095-.011-.096-.012-.096-.015-.095-.016-.095-.018-.095-.019-.094-.022-.094-.023-.094-.024-.093-.027-.093-.028-.092-.029-.092-.032-.091-.033-.091-.034-.09-.037-.09-.038-.089-.04-.089-.041-.088-.043-.087-.045-.086-.046-.086-.048-.085-.05-.084-.051-.084-.053-.082-.054-.082-.056-.081-.058-.08-.059-.08-.061-.078-.063-.077-.064-.077-.066-.075-.071-.078-7.778-8.427-1.948 11.037z" fill="#10bfff"/><path d="m11.551 5.75s6.101-1.525 9.714-2.429c1.596-.399 3.281.129 4.364 1.367.041.047.082.093.123.141.951 1.086 1.295 2.576.917 3.969-.379 1.393-1.429 2.504-2.798 2.96 0 0-.001.001-.001.001-1.117.372-2.342.226-3.341-.398-2.943-1.839-8.978-5.611-8.978-5.611z" fill="#10bfff"/><g clip-path="url(#b)"><path d="m21 2s.235.47.574 1.148c1.421 2.843.7 6.29-1.742 8.325-1.023.853-1.832 1.527-1.832 1.527h-9v-11h12z" fill="#9ce5ff"/></g><path d="m22.327 2.59.085.002.085.004.085.005.085.006.084.008.084.009.085.011.083.012.084.013.083.015.083.016.083.018.082.019.082.02.082.022.081.023.081.025.08.026.08.027.08.029.079.03.078.031.078.033.078.034.076.035.077.037.075.037.076.04.074.04.074.042.073.043.073.045.071.045.072.047.07.049.07.049.068.051.068.052.068.053.066.055.066.055.064.057.064.058.063.06.062.06.061.062.061.063.059.064.058.066.14.16.05.058.049.059.048.059.047.06.047.061.045.062.044.062.043.062.042.063.041.064.039.064.039.065.038.065.037.066.035.066.035.067.034.067.032.068.032.068.03.068.029.069.029.07.027.069.026.07.025.071.024.071.023.071.021.071.021.072.019.072.019.072.017.073.016.073.016.073.014.073.013.074.011.074.011.073.009.075.009.074.007.074.006.075.005.075.004.074.003.075.001.075.001.075-.001.075-.002.076-.003.075-.004.075-.005.075-.007.076-.007.075-.009.075-.01.075-.012.075-.012.075-.014.075-.014.075-.016.075-.017.074-.019.075-.019.074-.021.074-.022.073-.023.074-.024.072-.025.072-.026.072-.027.071-.029.07-.029.07-.03.069-.032.069-.032.068-.034.068-.034.067-.035.066-.037.066-.037.065-.039.065-.039.064-.04.063-.041.062-.042.062-.043.062-.044.06-.045.06-.046.059-.046.058-.048.058-.048.057-.049.056-.05.056-.051.054-.052.054-.052.053-.054.052-.054.052-.055.051-.055.049-.057.049-.057.048-.058.048-.059.046-.059.046-.06.044-.061.044-.062.043-.062.042-.063.041-.063.04-.065.039-.065.038-.065.037-.066.037-.067.035-.068.034-.068.033-.069.033-.069.031-.07.03-.07.029-.072.028-.071.027-.072.026-.073.025-.002.001-.059.019-.06.019-.06.017-.06.017-.06.016-.061.015-.06.014-.061.014-.061.012-.06.012-.061.011-.061.01-.062.009-.061.008-.061.008-.061.006-.062.006-.061.005-.061.004-.062.003-.061.003-.061.001-.062.001h-.061l-.061-.001-.062-.002-.061-.003-.061-.003-.061-.005-.061-.005-.061-.006-.061-.007-.061-.007-.061-.009-.06-.009-.061-.01-.06-.011-.06-.012-.06-.013-.06-.013-.06-.014-.059-.015-.059-.016-.059-.017-.059-.017-.059-.019-.059-.019-.058-.02-.058-.021-.058-.021-.057-.023-.057-.023-.057-.024-.057-.025-.056-.025-.056-.027-.056-.027-.056-.028-.055-.029-.055-.03-.054-.03-.054-.031-.054-.032-.054-.033-10.207-6.38 11.044-2.761.086-.021.085-.019.085-.017.086-.016.085-.014.086-.013.085-.011.086-.01.086-.009.085-.007.086-.005.086-.004.085-.002.085-.001h.086zm-.151 1.001-.069.002-.068.003-.068.004-.069.005-.068.007-.069.008-.068.009-.069.01-.068.012-.068.013-.069.013-.068.016-.072.017-8.757 2.189 8.208 5.131.045.027.042.025.042.024.042.024.043.023.043.023.043.021.043.022.044.02.044.02.044.019.044.019.044.018.045.017.045.017.045.016.045.016.046.015.045.014.046.014.046.013.046.012.046.012.047.011.046.01.047.01.047.009.047.009.047.008.047.007.047.006.047.006.047.006.048.004.047.004.048.004.047.002.048.003.047.001.048.001h.048l.047-.001.048-.001.048-.002.048-.002.047-.003.048-.004.048-.005.047-.005.048-.006.047-.006.048-.007.047-.008.048-.008.047-.009.047-.01.047-.011.047-.011.047-.011.047-.013.047-.013.046-.014.047-.014.047-.016.059-.019.057-.021.057-.022.057-.022.056-.023.055-.024.056-.025.054-.026.055-.026.053-.028.054-.027.052-.029.052-.03.052-.03.051-.031.051-.032.05-.033.05-.033.049-.034.048-.035.048-.036.047-.036.047-.037.046-.037.046-.039.045-.039.044-.039.044-.041.043-.041.042-.041.042-.043.041-.043.041-.043.039-.044.039-.045.039-.045.038-.046.037-.047.036-.047.036-.047.035-.049.034-.048.033-.049.033-.05.032-.051.032-.051.03-.051.03-.052.029-.052.028-.053.027-.053.027-.054.026-.054.025-.055.024-.055.023-.056.023-.056.021-.056.021-.057.02-.058.019-.057.019-.059.017-.058.017-.059.015-.059.015-.059.013-.06.013-.06.012-.059.011-.06.01-.06.008-.059.008-.06.007-.06.007-.06.005-.059.004-.06.003-.06.003-.06.001-.06.001-.059v-.06l-.002-.06-.002-.06-.003-.059-.004-.059-.005-.06-.006-.059-.006-.059-.008-.059-.008-.059-.01-.059-.01-.059-.011-.058-.012-.058-.013-.058-.014-.058-.015-.058-.015-.057-.017-.057-.017-.057-.018-.056-.019-.057-.02-.056-.021-.056-.021-.055-.023-.055-.023-.055-.025-.055-.024-.054-.026-.054-.027-.053-.028-.053-.028-.053-.029-.052-.03-.052-.031-.052-.032-.051-.032-.051-.034-.05-.034-.05-.035-.049-.036-.049-.037-.048-.037-.048-.038-.048-.04-.047-.042-.049-.135-.154-.049-.055-.047-.051-.049-.051-.048-.049-.05-.049-.05-.047-.052-.047-.051-.045-.053-.045-.053-.043-.053-.043-.055-.041-.055-.041-.055-.039-.057-.039-.057-.038-.057-.036-.058-.036-.058-.034-.059-.033-.06-.033-.06-.031-.061-.031-.061-.029-.061-.028-.062-.027-.062-.026-.063-.025-.063-.024-.064-.023-.064-.022-.064-.021-.065-.019-.065-.019-.065-.017-.065-.017-.066-.015-.066-.014-.067-.013-.066-.012-.067-.011-.067-.009-.067-.009-.068-.007-.067-.006-.068-.005-.068-.004-.068-.003-.068-.002h-.068l-.068.001z" fill="#10bfff"/><path d="m19.327 17.327s1.337 4.113 2.237 6.882c.477 1.469 1.846 2.464 3.391 2.464h.002c2.052 0 3.716-1.664 3.716-3.716 0-.027 0-.054 0-.081 0-1.629-1.069-3.066-2.63-3.534-2.764-.829-6.716-2.015-6.716-2.015z" fill="#10bfff"/><g clip-path="url(#c)"><path d="m23 17s.327.436.828 1.104c2.909 3.879 2.309 9.35-1.373 12.506-.286.245-.455.39-.455.39h-5v-14z" fill="#9ce5ff"/></g><g fill="#10bfff"><path d="m26.043 19.342.073.023.072.024.071.025.071.027.07.028.069.03.068.031.067.032.067.033.066.035.064.035.064.038.064.038.062.039.061.041.061.042.059.043.058.044.058.045.057.046.055.047.055.049.053.049.053.05.052.052.05.052.049.053.049.055.047.055.046.056.045.057.044.058.043.058.042.06.04.06.039.061.038.062.037.063.036.063.034.064.033.065.032.066.031.066.029.067.028.067.027.068.025.069.024.069.023.07.021.071.02.071.019.071.017.072.016.072.014.073.013.074.011.073.01.075.008.074.007.075.006.075.004.076.002.076.001.076v.081l-.002.096-.003.095-.006.095-.009.094-.01.093-.013.093-.015.092-.018.091-.02.09-.021.09-.024.088-.026.088-.029.087-.03.086-.032.084-.034.084-.037.083-.038.082-.04.081-.042.079-.044.078-.045.078-.048.076-.049.074-.051.074-.053.072-.054.071-.056.069-.057.069-.06.066-.06.066-.063.063-.063.063-.066.06-.066.06-.069.057-.069.056-.071.054-.072.053-.074.051-.074.049-.076.048-.078.045-.078.044-.079.042-.081.04-.082.038-.083.037-.084.034-.084.032-.086.03-.087.029-.088.026-.088.024-.09.021-.09.02-.091.018-.092.015-.093.013-.093.01-.094.009-.095.006-.095.003-.096.002h-.002l-.072-.001-.072-.002-.072-.004-.071-.005-.071-.006-.071-.008-.07-.009-.07-.011-.07-.012-.069-.013-.069-.015-.068-.016-.068-.017-.068-.019-.067-.02-.066-.021-.066-.022-.066-.024-.064-.025-.065-.026-.063-.027-.063-.029-.063-.03-.062-.031-.061-.032-.06-.033-.06-.034-.059-.036-.059-.037-.058-.037-.057-.039-.056-.04-.055-.041-.055-.043-.053-.043-.053-.044-.053-.045-.051-.046-.05-.048-.05-.048-.048-.049-.048-.05-.046-.052-.046-.052-.045-.053-.044-.054-.042-.055-.042-.055-.041-.057-.039-.058-.039-.058-.037-.059-.037-.06-.035-.061-.034-.062-.033-.063-.031-.063-.031-.064-.029-.065-.028-.065-.027-.067-.026-.067-.024-.068-.023-.068-2.237-6.882zm-3.53 4.553.018.054.018.049.019.048.019.048.02.047.021.047.022.046.023.046.024.045.024.044.025.044.026.043.027.043.028.042.028.041.03.041.03.04.03.039.032.039.032.038.033.038.033.036.035.036.035.036.035.035.037.034.036.033.038.033.038.032.039.031.039.03.04.03.041.028.041.028.041.028.042.026.043.026.043.025.043.023.044.023.045.023.045.021.045.021.046.019.046.019.047.018.047.017.047.016.048.016.048.014.049.013.049.013.049.011.049.011.05.009.05.009.05.007.051.007.051.006.051.004.052.004.051.002.052.002.052.001.073-.001.07-.003.069-.004.069-.007.068-.007.068-.01.067-.011.066-.013.066-.014.065-.016.065-.017.064-.019.063-.021.063-.022.062-.023.061-.025.06-.027.06-.028.059-.029.058-.031.057-.032.056-.033.056-.035.055-.036.053-.037.053-.038.052-.04.051-.041.05-.042.049-.044.047-.044.047-.046.046-.047.044-.047.044-.049.042-.05.041-.051.04-.052.038-.053.037-.053.036-.055.035-.056.033-.056.032-.057.031-.058.029-.059.028-.06.027-.06.025-.061.023-.062.022-.063.021-.063.019-.064.017-.065.016-.065.014-.066.013-.066.011-.067.01-.068.007-.068.007-.069.004-.07.003-.07.001-.076v-.07l-.001-.061-.002-.055-.003-.055-.003-.056-.005-.054-.007-.054-.007-.054-.008-.054-.009-.053-.011-.054-.011-.052-.013-.052-.013-.053-.015-.051-.015-.051-.017-.051-.017-.051-.019-.05-.019-.049-.021-.05-.021-.048-.022-.049-.023-.047-.025-.048-.025-.047-.026-.046-.027-.045-.027-.045-.029-.045-.03-.044-.03-.043-.031-.043-.032-.042-.033-.042-.034-.041-.034-.04-.035-.04-.037-.039-.036-.038-.038-.037-.038-.037-.039-.036-.04-.035-.041-.035-.041-.033-.042-.033-.042-.032-.044-.032-.044-.03-.044-.03-.046-.028-.046-.028-.046-.027-.047-.026-.048-.026-.049-.024-.049-.023-.049-.023-.051-.021-.051-.021-.051-.019-.052-.019-.053-.017-.058-.018-4.883-1.465z"/><path d="m26.186 19.156.078.024.077.026.077.027.075.029.075.03.074.031.073.033.072.035.071.035.07.037.07.039.068.04.068.041.066.042.066.043.065.045.063.046.063.047.061.048.061.05.059.05.059.052.057.053.057.054.055.055.054.056.053.057.051.058.051.059.049.06.048.061.047.062.046.063.045.063.043.065.042.065.041.066.039.067.038.068.037.069.036.069.034.07.032.071.032.072.03.072.028.073.028.073.025.075.024.074.023.076.022.076.019.076.019.077.017.077.015.078.014.079.012.079.01.079.009.08.008.08.006.081.004.081.002.081.001.081v.087l-.001.103-.004.102-.007.101-.009.101-.011.099-.014.099-.016.099-.019.097-.021.097-.023.096-.026.094-.028.094-.03.093-.032.092-.035.091-.036.09-.039.088-.041.088-.043.086-.045.085-.047.084-.049.083-.05.081-.053.08-.055.079-.056.077-.058.076-.06.074-.062.073-.063.071-.065.07-.067.068-.068.067-.07.065-.071.063-.073.062-.074.06-.076.058-.077.056-.079.055-.08.053-.081.05-.083.049-.084.047-.085.045-.086.043-.088.041-.088.039-.09.036-.091.035-.092.032-.093.03-.094.028-.094.026-.096.023-.097.021-.097.019-.098.016-.1.014-.099.011-.101.009-.101.007-.102.004-.103.001h-.002l-.077-.001-.077-.002-.077-.004-.076-.005-.076-.007-.076-.009-.075-.009-.075-.012-.075-.013-.074-.014-.074-.016-.073-.017-.072-.018-.073-.02-.071-.021-.071-.023-.071-.024-.07-.025-.069-.027-.069-.028-.068-.029-.068-.031-.067-.032-.066-.033-.065-.034-.065-.036-.064-.037-.063-.038-.063-.039-.062-.04-.06-.042-.061-.043-.059-.044-.058-.045-.058-.046-.057-.047-.055-.049-.055-.049-.054-.051-.053-.051-.052-.053-.051-.054-.05-.055-.049-.055-.048-.057-.046-.058-.046-.059-.045-.059-.043-.061-.043-.062-.041-.062-.04-.063-.039-.065-.037-.065-.037-.066-.035-.067-.034-.068-.033-.068-.031-.07-.03-.07-.029-.071-.027-.072-.026-.072-.025-.074-2.393-7.363 7.186 2.156zm-3.843 4.894.019.059.02.053.02.053.021.053.022.052.024.051.024.051.025.049.026.05.026.048.028.048.029.048.029.047.031.046.031.045.032.045.033.044.034.043.034.043.036.042.036.041.036.04.038.04.038.039.039.038.04.037.041.037.041.036.042.034.042.034.043.034.044.032.045.032.045.031.045.029.046.029.047.029.047.027.048.026.048.025.049.025.05.023.05.023.05.022.05.02.052.02.051.019.052.017.053.017.053.016.053.014.053.014.054.012.054.012.055.01.055.01.055.008.056.008.056.006.056.005.056.004.057.003.057.001.057.001.079-.001.077-.003.076-.005.075-.006.075-.009.074-.01.074-.013.073-.014.072-.015.072-.018.07-.019.07-.021.07-.022.068-.024.068-.026.067-.027.066-.029.066-.031.064-.032.064-.034.063-.035.061-.036.061-.038.06-.04.059-.041.058-.042.057-.043.056-.045.054-.046.054-.048.052-.049.051-.05.05-.051.049-.052.047-.054.047-.055.045-.055.043-.057.042-.058.041-.059.04-.06.038-.061.036-.061.035-.063.034-.064.032-.064.03-.066.029-.066.028-.067.026-.068.024-.068.022-.07.021-.07.019-.07.018-.072.015-.072.014-.073.013-.074.01-.074.009-.075.006-.075.005-.076.003-.077.001-.083v-.076l-.001-.066-.002-.06-.003-.061-.004-.06-.005-.06-.007-.059-.008-.06-.009-.059-.01-.058-.012-.059-.012-.057-.014-.058-.015-.057-.016-.056-.017-.057-.018-.055-.019-.056-.02-.054-.022-.055-.022-.054-.023-.053-.025-.053-.025-.052-.027-.052-.027-.051-.029-.051-.029-.05-.031-.05-.031-.049-.032-.048-.034-.047-.034-.048-.035-.046-.036-.045-.037-.045-.038-.044-.038-.043-.04-.043-.04-.042-.041-.041-.042-.04-.043-.04-.044-.038-.044-.038-.045-.037-.046-.036-.047-.035-.048-.034-.048-.034-.049-.032-.049-.032-.051-.03-.051-.03-.052-.028-.052-.028-.053-.027-.054-.025-.054-.025-.056-.023-.055-.023-.057-.021-.057-.021-.058-.019-.063-.02-5.353-1.606 1.802 5.544z"/></g></svg>