<svg clip-rule="evenodd" fill-rule="evenodd" stroke-linecap="round" stroke-linejoin="round" stroke-miterlimit="1.5" viewBox="0 0 32 32" xmlns="http://www.w3.org/2000/svg" xmlns:xlink="http://www.w3.org/1999/xlink"><clipPath id="a"><path clip-rule="evenodd" d="m0 0h32v32h-32z"/></clipPath><metadata/><path d="m0 0h32v32h-32z" fill="none"/><g clip-path="url(#a)"><path d="m15.263 3.002c2.717.047 5.258.816 7.438 2.124l2.01-4.02c.339-.678 1.031-1.106 1.789-1.106s1.45.428 1.789 1.106c0 0 1.757 3.514 2.942 5.884 1.017 2.033.618 4.489-.989 6.097-.001 0-.001.001-.001.001-.26.259-.543.489-.846.686.394 1.34.605 2.758.605 4.226v1.006c0 7.176-5.818 12.994-12.994 12.994h-4.012c-7.176 0-12.994-5.818-12.994-12.994v-1.006c0-8.284 6.716-15 15-15z"/><path d="m15.084 5c2.463.016 4.763.716 6.72 1.92 0 0 5.391 7.683 5.729 7.615.304 1.103.467 2.265.467 3.465v1.006c0 6.072-4.922 10.994-10.994 10.994-1.328 0-2.684 0-4.012 0-6.072 0-10.994-4.922-10.994-10.994v-1.006c0-7.18 5.82-13 13-13z" fill="#fbc546"/><path d="m21.804 6.92c2.765 1.702 4.845 4.41 5.729 7.615-.338.068-.684.102-1.033.102-1.403 0-2.749-.557-3.741-1.549 0 0 0-.001-.001-.001-1.607-1.608-2.006-4.064-.989-6.097z" fill="#e59a10"/><path d="m26.5 2s-1.757 3.514-2.942 5.884c-.632 1.264-.384 2.79.615 3.789 0 0 0 0 .001.001.617.617 1.453.963 2.326.963s1.709-.346 2.326-.963c.001-.001.001-.001.001-.001.999-.999 1.247-2.525.615-3.789-1.185-2.37-2.942-5.884-2.942-5.884z" fill="#fff"/><path d="m9 15.086 1.793-1.793c.39-.39 1.024-.39 1.414 0s.39 1.024 0 1.414l-3.207 3.207-3.207-3.207c-.39-.39-.39-1.024 0-1.414s1.024-.39 1.414 0zm12 0 1.793-1.793c.39-.39 1.024-.39 1.414 0s.39 1.024 0 1.414l-3.207 3.207-3.207-3.207c-.39-.39-.39-1.024 0-1.414s1.024-.39 1.414 0z"/><path d="m10 23s.136-.204.336-.505c1.04-1.559 2.789-2.495 4.663-2.495h.002c1.874 0 3.623.936 4.663 2.495.2.301.336.505.336.505" fill="none" stroke="#593604" stroke-width="2"/></g></svg>