<svg clip-rule="evenodd" fill-rule="evenodd" stroke-linejoin="round" stroke-miterlimit="2" viewBox="0 0 32 32" xmlns="http://www.w3.org/2000/svg" xmlns:xlink="http://www.w3.org/1999/xlink"><clipPath id="a"><path clip-rule="evenodd" d="m0 0h32v32h-32z"/></clipPath><metadata/><path d="m0 0h32v32h-32z" fill="none"/><g clip-path="url(#a)"><path d="m23.082 4.364 1.629-3.258c.339-.678 1.031-1.106 1.789-1.106s1.45.428 1.789 1.106c0 0 1.757 3.514 2.942 5.884 1.017 2.033.618 4.489-.989 6.097-.001 0-.001.001-.001.001-.196.195-.405.374-.627.535.255 1.099.386 2.231.386 3.377v1.004c0 3.712-1.475 7.272-4.099 9.897-2.625 2.624-6.185 4.099-9.897 4.099h-2.008c-3.712 0-7.272-1.475-9.897-4.099-2.624-2.625-4.099-6.185-4.099-9.897v-1.004c0-8.284 6.716-15 15-15 2.887 0 5.688.832 8.082 2.364z"/><path d="m15.081 4c2.545.016 5.009.778 7.101 2.164 0 0 5.165 8.422 5.573 8.322.162.822.245 1.664.245 2.514v1.004c0 3.182-1.264 6.233-3.514 8.482-2.249 2.25-5.3 3.514-8.482 3.514h-2.008c-3.182 0-6.233-1.264-8.482-3.514-2.25-2.249-3.514-5.3-3.514-8.482v-1.004c0-7.18 5.82-13 13-13z" fill="#fbc546"/><path d="m22.182 6.164c.718.476 1.392 1.025 2.01 1.644 1.837 1.836 3.068 4.166 3.563 6.678-.408.1-.829.151-1.255.151-1.403 0-2.749-.557-3.741-1.549 0 0 0-.001-.001-.001-1.607-1.608-2.006-4.064-.989-6.097z" fill="#e59a10"/><path d="m5.791 13.211c.187.187.441.293.706.293.265-.001.519-.106.706-.293.003-.003.005-.005.005-.005.475-.475 1.12-.742 1.792-.742s1.317.267 1.792.742c0 0 .002.002.005.005.187.187.441.292.706.293.265 0 .519-.106.706-.293.001 0 .001-.001.001-.001.188-.187.293-.442.293-.707s-.105-.519-.293-.707c-.003-.003-.004-.004-.004-.004-.85-.85-2.004-1.328-3.206-1.328s-2.356.478-3.206 1.328c0 0-.002.002-.005.005-.187.187-.293.441-.293.706s.106.519.293.706c.001.001.001.001.002.002z"/><path d="m24.209 13.211c-.187.187-.441.293-.706.293-.265-.001-.519-.106-.706-.293-.003-.003-.005-.005-.005-.005-.475-.475-1.12-.742-1.792-.742s-1.317.267-1.792.742c0 0-.002.002-.005.005-.187.187-.441.292-.706.293-.265 0-.519-.106-.706-.293-.001 0-.001-.001-.001-.001-.188-.187-.293-.442-.293-.707s.105-.519.293-.707c.003-.003.004-.004.004-.004.85-.85 2.004-1.328 3.206-1.328s2.356.478 3.206 1.328c0 0 .002.002.005.005.187.187.293.441.293.706s-.106.519-.293.706c-.001.001-.001.001-.002.002z"/><path d="m26.5 2s-1.757 3.514-2.942 5.884c-.632 1.264-.384 2.79.615 3.789 0 0 0 0 .001.001.617.617 1.453.963 2.326.963s1.709-.346 2.326-.963c.001-.001.001-.001.001-.001.999-.999 1.247-2.525.615-3.789-1.185-2.37-2.942-5.884-2.942-5.884z" fill="#fff"/><path d="m8.988 22.853c-2.008-1.644-3.332-4.093-3.475-6.853h18.974c-.143 2.76-1.467 5.209-3.475 6.853-1.107-1.157-10.917-1.157-12.024 0z" fill="#722245"/><path d="m8.988 22.853c1.107-1.157 2.661-1.853 4.337-1.853h3.35c1.676 0 3.23.696 4.337 1.853-1.638 1.342-3.732 2.147-6.012 2.147s-4.374-.805-6.012-2.147z" fill="#ca3b8f"/></g></svg>