<svg clip-rule="evenodd" fill-rule="evenodd" stroke-linecap="round" stroke-linejoin="round" stroke-miterlimit="1.5" viewBox="0 0 32 32" xmlns="http://www.w3.org/2000/svg" xmlns:xlink="http://www.w3.org/1999/xlink"><clipPath id="a"><path clip-rule="evenodd" d="m0 0h32v32h-32z"/></clipPath><metadata/><path d="m0 0h32v32h-32z" fill="none"/><g clip-path="url(#a)"><g fill="none"><path d="m2 30s2.679-10.715 4.013-16.052c.433-1.733 1.99-2.948 3.776-2.948h.001c6.191 0 11.21 5.019 11.21 11.21v.001c0 1.786-1.215 3.343-2.948 3.776-5.337 1.334-16.052 4.013-16.052 4.013z" stroke="#000" stroke-width="4"/><path d="m15 17s1.764-.882 3.379-1.689c1.692-.847 3.03-2.265 3.775-4.005.089-.207.18-.418.27-.629.956-2.231 3.149-3.677 5.576-3.677" stroke="#000" stroke-linecap="square" stroke-width="6"/><path d="m11 13s0-.647 0-1.34c0-1.017.575-1.947 1.485-2.402 0-.001.001-.001.002-.001.666-.334 1.173-.918 1.409-1.625.235-.707.181-1.479-.153-2.145-.401-.803-.743-1.487-.743-1.487" stroke="#000" stroke-linecap="square" stroke-width="6"/><path d="m20.5 20.5h1.111c1.242 0 2.467.289 3.578.845 1.092.546 2.311 1.155 2.311 1.155" stroke="#000" stroke-linecap="square" stroke-width="6"/><path d="m15 9 2-2 2 2-2 2z" stroke="#000" stroke-width="4"/><path d="m19 5 1-3 3 1-1 3z" stroke="#000" stroke-width="4"/><path d="m20 18 1-3 3 1-1 3z" stroke="#000" stroke-width="4"/><path d="m5 6 2-2 2 2-2 2z" stroke="#000" stroke-width="4"/><path d="m26 13 2-2 2 2-2 2z" stroke="#000" stroke-width="4"/></g><path d="m15 7 5-2h6v9h-16v-8z"/><path d="m7 12.177 12.823 12.823c-.48.468-1.085.816-1.771.987-5.337 1.334-16.052 4.013-16.052 4.013s2.679-10.715 4.013-16.052c.171-.686.519-1.291.987-1.771z" fill="#e4ab1b"/><path d="m7 12.177c.714-.733 1.71-1.177 2.789-1.177h.001c6.191 0 11.21 5.019 11.21 11.21v.001c0 1.079-.444 2.075-1.177 2.789h-.823c-3.183 0-6.235-1.264-8.485-3.515-2.251-2.25-3.515-5.302-3.515-8.485z" fill="#5e3d05"/><path d="m15 17s1.764-.882 3.379-1.689c1.692-.847 3.03-2.265 3.775-4.005.089-.207.18-.418.27-.629.956-2.231 3.149-3.677 5.576-3.677" fill="none" stroke="#37cbe8" stroke-linecap="square" stroke-width="2"/><path d="m11 13s0-.647 0-1.34c0-1.017.575-1.947 1.485-2.402 0-.001.001-.001.002-.001.666-.334 1.173-.918 1.409-1.625.235-.707.181-1.479-.153-2.145-.401-.803-.743-1.487-.743-1.487" fill="none" stroke="#f2c618" stroke-linecap="square" stroke-width="2"/><path d="m20.5 20.5h1.111c1.242 0 2.467.289 3.578.845 1.092.546 2.311 1.155 2.311 1.155" fill="none" stroke="#ff4586" stroke-linecap="square" stroke-width="2"/><path d="m15 9 2-2 2 2-2 2z" fill="#9146dc"/><path d="m5 6 2-2 2 2-2 2z" fill="#9146dc"/><path d="m26 13 2-2 2 2-2 2z" fill="#9146dc"/><path d="m19 5 1-3 3 1-1 3z" fill="#f2298a"/><path d="m20 18 1-3 3 1-1 3z" fill="#f2c618"/></g></svg>