<svg clip-rule="evenodd" fill-rule="evenodd" stroke-linecap="round" stroke-linejoin="round" stroke-miterlimit="1.5" viewBox="0 0 32 32" xmlns="http://www.w3.org/2000/svg" xmlns:xlink="http://www.w3.org/1999/xlink"><clipPath id="a"><path clip-rule="evenodd" d="m0 0h32v32h-32z"/></clipPath><metadata/><path d="m0 0h32v32h-32z" fill="none"/><g clip-path="url(#a)"><path d="m25 3c0-.265-.105-.52-.293-.707-.187-.188-.442-.293-.707-.293-3.151 0-12.849 0-16 0-.265 0-.52.105-.707.293-.188.187-.293.442-.293.707v26c0 .265.105.52.293.707.187.188.442.293.707.293h16c.265 0 .52-.105.707-.293.188-.187.293-.442.293-.707 0-4.355 0-21.645 0-26z" stroke="#000" stroke-width="4"/><path d="m25 3c0-.265-.105-.52-.293-.707-.187-.188-.442-.293-.707-.293-3.151 0-12.849 0-16 0-.265 0-.52.105-.707.293-.188.187-.293.442-.293.707v26c0 .265.105.52.293.707.187.188.442.293.707.293h16c.265 0 .52-.105.707-.293.188-.187.293-.442.293-.707 0-4.355 0-21.645 0-26z" fill="#fff"/><path d="m24 3h-16v9l1 1h14l1-1z" fill="#e886be"/><path d="m8 12h16v17h-16z" fill="#f9c54a"/><path d="m15 6v20l1 1h1l1-2v-9l1-2v-2l-1-2v-5h-2z" fill="#e03923"/><path d="m14 5h2v22h-2z" fill="#f3624f"/></g></svg>