<svg clip-rule="evenodd" fill-rule="evenodd" stroke-linecap="round" stroke-linejoin="round" stroke-miterlimit="1.5" viewBox="0 0 32 32" xmlns="http://www.w3.org/2000/svg" xmlns:xlink="http://www.w3.org/1999/xlink"><clipPath id="a"><path clip-rule="evenodd" d="m0 0h32v32h-32z"/></clipPath><metadata/><path d="m0 0h32v32h-32z" fill="none"/><g clip-path="url(#a)"><path d="m25 3c0-.265-.105-.52-.293-.707-.187-.188-.442-.293-.707-.293-3.151 0-12.849 0-16 0-.265 0-.52.105-.707.293-.188.187-.293.442-.293.707v26c0 .265.105.52.293.707.187.188.442.293.707.293h16c.265 0 .52-.105.707-.293.188-.187.293-.442.293-.707 0-4.355 0-21.645 0-26z" stroke="#000" stroke-width="4"/><path d="m25 3c0-.265-.105-.52-.293-.707-.187-.188-.442-.293-.707-.293-3.151 0-12.849 0-16 0-.265 0-.52.105-.707.293-.188.187-.293.442-.293.707v26c0 .265.105.52.293.707.187.188.442.293.707.293h16c.265 0 .52-.105.707-.293.188-.187.293-.442.293-.707 0-4.355 0-21.645 0-26z" fill="#fff"/><path d="m8 9.625v-6.625h16v8.667l-1 2.333h-14z" fill="#d0c30b"/><path d="m24 11.667v17.333h-16v-19.375l1-.625 5 3 6-3z" fill="#459238"/><circle cx="16" cy="16" fill="#d29700" r="5"/><path d="m16.09 9.001.09.001.089.003.09.004.089.005.088.006.089.008.088.008.088.01.088.01.087.012.088.013.086.013.087.015.086.016.086.017.085.018.085.019.085.021.084.021.084.022.083.023.083.024.083.025.082.026.081.028.082.028.08.029.081.03.086.033.152.062.156.069.155.072.152.075.15.079.147.083.146.086.143.09.141.092.138.096.136.099.133.103.131.105.128.108.125.111.123.115.12.117.117.12.115.123.111.125.108.128.105.131.103.133.099.136.096.138.092.141.09.143.086.146.083.147.079.15.075.152.072.155.069.156.062.152.033.086.03.081.029.08.028.082.028.081.026.082.025.083.024.083.023.083.022.084.021.084.021.085.019.085.018.085.017.086.016.086.015.087.013.086.013.088.012.087.01.088.01.088.008.088.008.089.006.088.005.089.004.09.003.089.001.09.001.09-.001.09-.001.09-.003.089-.004.09-.005.089-.006.088-.008.089-.008.088-.01.088-.01.088-.012.087-.013.088-.013.086-.015.087-.016.086-.017.086-.018.085-.019.085-.021.085-.021.084-.022.084-.023.083-.024.083-.025.083-.026.082-.028.081-.028.082-.029.08-.03.081-.033.086-.062.152-.069.156-.072.155-.075.152-.079.15-.083.147-.086.146-.09.143-.092.141-.096.138-.099.136-.103.133-.105.131-.108.128-.111.125-.115.123-.117.12-.12.117-.123.115-.125.111-.128.108-.131.105-.133.103-.136.099-.138.096-.141.092-.143.09-.146.086-.147.083-.15.079-.152.075-.155.072-.156.069-.152.062-.086.033-.081.03-.08.029-.082.028-.081.028-.082.026-.083.025-.083.024-.083.023-.084.022-.084.021-.085.021-.085.019-.085.018-.086.017-.086.016-.087.015-.086.013-.088.013-.087.012-.088.01-.088.01-.088.008-.089.008-.088.006-.089.005-.09.004-.089.003-.09.001-.09.001-.09-.001-.09-.001-.089-.003-.09-.004-.089-.005-.088-.006-.089-.008-.088-.008-.088-.01-.088-.01-.087-.012-.088-.013-.086-.013-.087-.015-.086-.016-.086-.017-.085-.018-.085-.019-.085-.021-.084-.021-.084-.022-.083-.023-.083-.024-.083-.025-.082-.026-.081-.028-.082-.028-.08-.029-.081-.03-.086-.033-.152-.062-.156-.069-.155-.072-.152-.075-.15-.079-.147-.083-.146-.086-.143-.09-.141-.092-.138-.096-.136-.099-.133-.103-.131-.105-.128-.108-.125-.111-.123-.115-.12-.117-.117-.12-.115-.123-.111-.125-.108-.128-.105-.131-.103-.133-.099-.136-.096-.138-.092-.141-.09-.143-.086-.146-.083-.147-.079-.15-.075-.152-.072-.155-.069-.156-.062-.152-.033-.086-.03-.081-.029-.08-.028-.082-.028-.081-.026-.082-.025-.083-.024-.083-.023-.083-.022-.084-.021-.084-.021-.085-.019-.085-.018-.085-.017-.086-.016-.086-.015-.087-.013-.086-.013-.088-.012-.087-.01-.088-.01-.088-.008-.088-.008-.089-.006-.088-.005-.089-.004-.09-.003-.089-.001-.09-.001-.09.001-.09.001-.09.003-.089.004-.09.005-.089.006-.088.008-.089.008-.088.01-.088.01-.088.012-.087.013-.088.013-.086.015-.087.016-.086.017-.086.018-.085.019-.085.021-.085.021-.084.022-.084.023-.083.024-.083.025-.083.026-.082.028-.081.028-.082.029-.08.03-.081.033-.086.062-.152.069-.156.072-.155.075-.152.079-.15.083-.147.086-.146.09-.143.092-.141.096-.138.099-.136.103-.133.105-.131.108-.128.111-.125.115-.123.117-.12.12-.117.123-.115.125-.111.128-.108.131-.105.133-.103.136-.099.138-.096.141-.092.143-.09.146-.086.147-.083.15-.079.152-.075.155-.072.156-.069.152-.062.086-.033.081-.03.08-.029.082-.028.081-.028.082-.026.083-.025.083-.024.083-.023.084-.022.084-.021.085-.021.085-.019.085-.018.086-.017.086-.016.087-.015.086-.013.088-.013.087-.012.088-.01.088-.01.088-.008.089-.008.088-.006.089-.005.09-.004.089-.003.09-.001.09-.001zm-.155 1.999-.064.002-.064.002-.064.003-.064.003-.063.005-.064.005-.063.006-.063.007-.062.007-.063.009-.062.009-.062.01-.062.01-.061.012-.061.012-.061.013-.061.013-.06.014-.06.016-.06.015-.059.017-.059.017-.059.018-.059.019-.058.019-.058.02-.057.021-.058.021-.057.022-.112.046-.112.049-.11.051-.108.054-.107.057-.106.059-.104.061-.102.064-.101.066-.099.069-.097.071-.095.073-.094.075-.091.078-.09.08-.088.081-.086.084-.084.086-.081.088-.08.09-.078.091-.075.094-.073.095-.071.097-.069.099-.066.101-.064.102-.061.104-.059.106-.057.107-.054.108-.051.11-.049.112-.046.112-.022.057-.021.058-.021.057-.02.058-.019.058-.019.059-.018.059-.017.059-.017.059-.015.06-.016.06-.014.06-.013.061-.013.061-.012.061-.012.061-.01.062-.01.062-.009.062-.009.063-.007.062-.007.063-.006.063-.005.064-.005.063-.003.064-.003.064-.002.064-.002.064v.065.065l.002.064.002.064.003.064.003.064.005.063.005.064.006.063.007.063.007.062.009.063.009.062.01.062.01.062.012.061.012.061.013.061.013.061.014.06.016.06.015.06.017.059.017.059.018.059.019.059.019.058.02.058.021.057.021.058.022.057.046.112.049.112.051.11.054.108.057.107.059.106.061.104.064.102.066.101.069.099.071.097.073.095.075.094.078.091.08.09.081.088.084.086.086.084.088.081.09.08.091.078.094.075.095.073.097.071.099.069.101.066.102.064.104.061.106.059.107.057.108.054.11.051.112.049.112.046.057.022.058.021.057.021.058.02.058.019.059.019.059.018.059.017.059.017.06.015.06.016.06.014.061.013.061.013.061.012.061.012.062.01.062.01.062.009.063.009.062.007.063.007.063.006.064.005.063.005.064.003.064.003.064.002.064.002h.065.065l.064-.002.064-.002.064-.003.064-.003.063-.005.064-.005.063-.006.063-.007.062-.007.063-.009.062-.009.062-.01.062-.01.061-.012.061-.012.061-.013.061-.013.06-.014.06-.016.06-.015.059-.017.059-.017.059-.018.059-.019.058-.019.058-.02.057-.021.058-.021.057-.022.112-.046.112-.049.11-.051.108-.054.107-.057.106-.059.104-.061.102-.064.101-.066.099-.069.097-.071.095-.073.094-.075.091-.078.09-.08.088-.081.086-.084.084-.086.081-.088.08-.09.078-.091.075-.094.073-.095.071-.097.069-.099.066-.101.064-.102.061-.104.059-.106.057-.107.054-.108.051-.11.049-.112.046-.112.022-.057.021-.058.021-.057.02-.058.019-.058.019-.059.018-.059.017-.059.017-.059.015-.06.016-.06.014-.06.013-.061.013-.061.012-.061.012-.061.01-.062.01-.062.009-.062.009-.063.007-.062.007-.063.006-.063.005-.064.005-.063.003-.064.003-.064.002-.064.002-.064v-.065-.065l-.002-.064-.002-.064-.003-.064-.003-.064-.005-.063-.005-.064-.006-.063-.007-.063-.007-.062-.009-.063-.009-.062-.01-.062-.01-.062-.012-.061-.012-.061-.013-.061-.013-.061-.014-.06-.016-.06-.015-.06-.017-.059-.017-.059-.018-.059-.019-.059-.019-.058-.02-.058-.021-.057-.021-.058-.022-.057-.046-.112-.049-.112-.051-.11-.054-.108-.057-.107-.059-.106-.061-.104-.064-.102-.066-.101-.069-.099-.071-.097-.073-.095-.075-.094-.078-.091-.08-.09-.081-.088-.084-.086-.086-.084-.088-.081-.09-.08-.091-.078-.094-.075-.095-.073-.097-.071-.099-.069-.101-.066-.102-.064-.104-.061-.106-.059-.107-.057-.108-.054-.11-.051-.112-.049-.112-.046-.057-.022-.058-.021-.057-.021-.058-.02-.058-.019-.059-.019-.059-.018-.059-.017-.059-.017-.06-.015-.06-.016-.06-.014-.061-.013-.061-.013-.061-.012-.061-.012-.062-.01-.062-.01-.062-.009-.063-.009-.062-.007-.063-.007-.063-.006-.064-.005-.063-.005-.064-.003-.064-.003-.064-.002-.064-.002h-.065z" fill="#ffdc30"/><path d="m16.004 11-2.944 9.06 7.707-5.6h-9.526l7.706 5.6z" fill="none" stroke="#ffdc30" stroke-linecap="square" stroke-miterlimit="1.41421" stroke-width="2"/><path d="m15 15h2v2h-2z" fill="#ffdc30"/></g></svg>