<svg clip-rule="evenodd" fill-rule="evenodd" stroke-linecap="round" stroke-linejoin="round" stroke-miterlimit="1.5" viewBox="0 0 32 32" xmlns="http://www.w3.org/2000/svg" xmlns:xlink="http://www.w3.org/1999/xlink"><clipPath id="a"><path clip-rule="evenodd" d="m0 0h32v32h-32z"/></clipPath><metadata/><path d="m0 0h32v32h-32z" fill="none"/><g clip-path="url(#a)"><path d="m25 3c0-.265-.105-.52-.293-.707-.187-.188-.442-.293-.707-.293-3.151 0-12.849 0-16 0-.265 0-.52.105-.707.293-.188.187-.293.442-.293.707v26c0 .265.105.52.293.707.187.188.442.293.707.293h16c.265 0 .52-.105.707-.293.188-.187.293-.442.293-.707 0-4.355 0-21.645 0-26z" stroke="#000" stroke-width="4"/><path d="m25 3c0-.265-.105-.52-.293-.707-.187-.188-.442-.293-.707-.293-3.151 0-12.849 0-16 0-.265 0-.52.105-.707.293-.188.187-.293.442-.293.707v26c0 .265.105.52.293.707.187.188.442.293.707.293h16c.265 0 .52-.105.707-.293.188-.187.293-.442.293-.707 0-4.355 0-21.645 0-26z" fill="#fff"/><path d="m24 3h-16v18l1 1h14l1-1z" fill="#98ffff"/><path d="m8 21h16v8h-16z" fill="#59d3ff"/><path d="m15 18-3 6h8l-3-6z" fill="#1db36b"/><path d="m16 18-1 6h5l-3-6z" fill="#1ca060"/><path d="m10 10v4c0 3.314 2.686 6 6 6 3.314 0 6-2.686 6-6 0-2.126 0-4 0-4z" fill="#1ca060"/><path d="m10 10h12v2h-12z" fill="#14ca72"/></g></svg>