<svg clip-rule="evenodd" fill-rule="evenodd" stroke-linecap="round" stroke-miterlimit="1.5" viewBox="0 0 32 32" xmlns="http://www.w3.org/2000/svg" xmlns:xlink="http://www.w3.org/1999/xlink"><clipPath id="a"><path clip-rule="evenodd" d="m0 0h32v32h-32z"/></clipPath><clipPath id="b"><path clip-rule="evenodd" d="m23.65 14.29c-.719-1.975-2.597-3.29-4.699-3.29-1.061 0-1.951 0-1.951 0v-.001c0-.265-.105-.519-.293-.706-.187-.188-.441-.293-.706-.293-1.423.001-4.087.002-6.149.002-1.768.001-3.404.935-4.303 2.457-.003.005-.007.011-.01.017-.596 1.009-1.022 2.11-1.26 3.257-.023.112-.046.222-.068.328-.109.525.216 1.042.736 1.173.661.165 1.542.387 2.188.549.574.144 1.165.217 1.757.217h15.085c.234 0 .453-.114.587-.305.134-.192.166-.437.086-.656-.261-.718-.635-1.745-1-2.749z"/></clipPath><metadata/><path d="m0 0h32v32h-32z" fill="none"/><g clip-path="url(#a)"><path d="m13 9v-1c0-1.105.895-2 2-2s2 .895 2 2v1h1.149c2.918 0 5.53 1.81 6.554 4.542.677 1.804 1.297 3.458 1.297 3.458s.826.207 1.728.432c1.335.334 2.272 1.534 2.272 2.91v4.658c0 .53-.211 1.039-.586 1.414s-.884.586-1.414.586h-1.036c-.242 1.695-1.702 3-3.464 3s-3.222-1.305-3.464-3h-9.072c-.242 1.695-1.702 3-3.464 3s-3.222-1.305-3.464-3h-.036c-.53 0-1.039-.211-1.414-.586s-.586-.884-.586-1.414v-2.528c0-2.962.478-5.905 1.414-8.715 0 0 0 0 .001-.001.946-2.84 3.605-4.756 6.599-4.756z" fill="none" stroke="#000" stroke-width="4"/><path d="m17 8c0-1.105-.895-2-2-2s-2 .895-2 2v2h4z" fill="#ffd104"/><path d="m23.048 11c.717.702 1.288 1.563 1.655 2.542.677 1.804 1.297 3.458 1.297 3.458s.826.207 1.728.432c.871.218 1.573.804 1.955 1.568l.317 3v3c0 .53-.211 1.039-.586 1.414s-.884.586-1.414.586c-.467 0-2-1-2-1h-5s-1.41 1-2 1h-2l-1-1h-9l-4 .733c-.598-.345-1-.991-1-1.731v-.002l1-.769v-.806l-1-.425c.552 0 .665-3.877.217-3.976.225-1.788.626-3.552 1.197-5.267 0 0 0 0 .001-.001.355-1.066.952-2.003 1.717-2.756l2.868-1h13z" fill="#404040"/><path d="m26 24c0-.552-.448-1-1-1h-23v2h23c.552 0 1-.448 1-1z" fill="#242424"/><path d="m5.132 11c1.273-1.253 3.012-2 4.882-2h8.135c1.872 0 3.618.745 4.899 2z" fill="#595959"/><path d="m17 17h-7v10h7z" fill="#ffd104"/><path d="m3 26.733v-.233c0-2.485 2.015-4.5 4.5-4.5 2.485 0 4.5 2.015 4.5 4.5v.5h-3.377s-3.456 0-4.625 0c-.364 0-.704-.097-.998-.267z" fill="#333"/><path d="m19 19.499c0-.276-.223-.499-.499-.499-.555 0-1.447 0-2.002 0-.276 0-.499.223-.499.499v.001c0 .133.053.26.146.354.094.093.221.146.354.146h2c.133 0 .26-.053.354-.146.093-.094.146-.221.146-.354z" fill="#dbdbdb"/><path d="m29.683 19c.204.407.317.864.317 1.342v1.658h-.5c-.828 0-1.5-.672-1.5-1.5 0-.398.158-.779.439-1.061.282-.281.663-.439 1.061-.439z" fill="#191919"/><path d="m2.217 19.024c.448.099.783.498.783.976v2c0 .552-.448 1-1 1 0 0 0-.203 0-.528 0-1.154.073-2.306.217-3.448z" fill="#191919"/><path d="m28 26.5c0-2.485-2.015-4.5-4.5-4.5-2.485 0-4.5 2.015-4.5 4.5v.5h9z" fill="#333"/><path d="m23.65 14.29c-.719-1.975-2.597-3.29-4.699-3.29-1.061 0-1.951 0-1.951 0v-.001c0-.265-.105-.519-.293-.706-.187-.188-.441-.293-.706-.293-1.423.001-4.087.002-6.149.002-1.768.001-3.404.935-4.303 2.457-.003.005-.007.011-.01.017-.596 1.009-1.022 2.11-1.26 3.257-.023.112-.046.222-.068.328-.109.525.216 1.042.736 1.173.661.165 1.542.387 2.188.549.574.144 1.165.217 1.757.217h15.085c.234 0 .453-.114.587-.305.134-.192.166-.437.086-.656-.261-.718-.635-1.745-1-2.749z"/><g clip-path="url(#b)" fill="none" stroke="#1a1a1a" stroke-linejoin="round" stroke-width="2"><path d="m11 10s-.319 1.276-.597 2.387c-.268 1.071-.403 2.171-.403 3.276v3.337"/><path d="m18 11v8"/></g><path d="m19 19.499c0-.276-.223-.499-.499-.499-.555 0-1.447 0-2.002 0-.276 0-.499.223-.499.499v.001c0 .133.053.26.146.354.094.093.221.146.354.146h2c.133 0 .26-.053.354-.146.093-.094.146-.221.146-.354z" fill="#838383"/><circle cx="7.5" cy="26.5" fill="#5a5a5a" r="3.5"/><circle cx="7.5" cy="26.5" fill="#bfbfbf" r="2.5"/><circle cx="23.5" cy="26.5" fill="#5a5a5a" r="3.5"/><circle cx="23.5" cy="26.5" fill="#bfbfbf" r="2.5"/><path d="m22 18c0-.552-.448-1-1-1-.322 0-.678 0-1 0-.552 0-1 .448-1 1s.448 1 1 1h1c.552 0 1-.448 1-1z" fill="#333"/></g></svg>