<svg clip-rule="evenodd" fill-rule="evenodd" stroke-linejoin="round" stroke-miterlimit="1.41421" viewBox="0 0 32 32" xmlns="http://www.w3.org/2000/svg" xmlns:xlink="http://www.w3.org/1999/xlink"><clipPath id="a"><path clip-rule="evenodd" d="m0 0h32v32h-32z"/></clipPath><clipPath id="b"><path clip-rule="evenodd" d="m18 15c0-1.591-.632-3.117-1.757-4.243-1.126-1.125-2.652-1.757-4.243-1.757-1.591 0-3.117.632-4.243 1.757-1.125 1.126-1.757 2.652-1.757 4.243v2c0 1.591.632 3.117 1.757 4.243 1.126 1.125 2.652 1.757 4.243 1.757 1.591 0 3.117-.632 4.243-1.757 1.125-1.126 1.757-2.652 1.757-4.243 0-.663 0-1.337 0-2z"/></clipPath><clipPath id="c"><path clip-rule="evenodd" d="m17 21h6v9h-6z"/></clipPath><metadata/><path d="m0 0h32v32h-32z" fill="none"/><g clip-path="url(#a)"><path d="m14 9h16v23h-16z" fill-rule="nonzero"/><path d="m16 11h12v19h-12z" fill="#539435"/><path d="m26 16h1v1c-.333 0-.667-.003-1-.007v2.507h-1v-2.517c-.525-.003-1.05-.001-1.574.019-.16.01-.316.041-.466.099-.404.155-.726.486-.872.893-.059.164-.086.335-.088.509v7.497c.859 0 1.719.031 2.578-.002.05-.003.101-.008.151-.015.146-.025.287-.066.421-.131.361-.173.643-.492.771-.871.053-.157.077-.319.079-.484v-.497h1c0 .188.002.376-.001.564-.011.293-.065.58-.173.853-.267.678-.833 1.218-1.524 1.452-.258.087-.527.128-.799.131h-3.503c0-2.854-.035-5.708.001-8.562.002-.062.006-.123.011-.185.032-.285.105-.561.228-.821.29-.614.83-1.092 1.475-1.306.253-.083.516-.123.782-.126h1.503v-2h-7v-1h8z" fill="#fff"/><path d="m7.043 23.279c-.167-.132-.329-.271-.486-.416-.769-.714-1.394-1.579-1.831-2.533-.312-.682-.528-1.407-.638-2.149-.054-.358-.081-.719-.087-1.082-.005-.732-.005-1.466 0-2.198.005-.297.023-.593.06-.887.072-.583.209-1.158.407-1.712.398-1.109 1.042-2.126 1.875-2.959.856-.856 1.907-1.512 3.052-1.907.807-.278 1.652-.42 2.506-.435.099-.001.099-.001.198 0 .886.016 1.763.168 2.598.467 1.172.42 2.24 1.115 3.099 2.017.789.829 1.395 1.827 1.768 2.91.278.807.42 1.652.435 2.506.005.732.005 1.466 0 2.198-.006.33-.028.658-.073.985-.042.308-.102.614-.18.916h5.254v13h-23c0-.725-.012-1.451.002-2.176.023-.746.156-1.482.408-2.186.172-.482.399-.945.672-1.379.829-1.312 2.094-2.326 3.556-2.849.134-.048.269-.092.405-.131z"/><path d="m15 25.848c.453-.198.766-.457.854-.775 2.355.405 4.146 2.457 4.146 4.927h-5l-1-2z" fill="#333"/><path d="m15 30h-11c0-2.47 1.791-4.522 4.146-4.927.38 1.369 4.908 1.627 6.854.775z" fill="#999"/><path d="m15 25c.291 0 .577.025.854.073-.164.59-.46 1.125-.854 1.572l-1-.645z" fill="#791f8d"/><path d="m15 25v1.645c-.733.831-1.806 1.355-3 1.355-1.836 0-3.385-1.24-3.854-2.927.277-.048.563-.073.854-.073z" fill="#f793fe"/><path d="m18 15c0-1.591-.632-3.117-1.757-4.243-1.126-1.125-2.652-1.757-4.243-1.757-1.591 0-3.117.632-4.243 1.757-1.125 1.126-1.757 2.652-1.757 4.243v2c0 1.591.632 3.117 1.757 4.243 1.126 1.125 2.652 1.757 4.243 1.757 1.591 0 3.117-.632 4.243-1.757 1.125-1.126 1.757-2.652 1.757-4.243 0-.663 0-1.337 0-2z" fill="#f793fe"/><g clip-path="url(#b)"><path d="m16 15c0-.552-.448-1-1-1s-1 .448-1 1v1c0 .552.448 1 1 1s1-.448 1-1c0-.322 0-.678 0-1zm-6 0c0-.552-.448-1-1-1s-1 .448-1 1v1c0 .552.448 1 1 1s1-.448 1-1c0-.322 0-.678 0-1z"/></g><path d="m17 21h6v9h-6z" fill="#c02a2a"/><g clip-path="url(#c)"><path d="m22 20h1v11h-1z" fill="#fff"/></g></g></svg>