<svg clip-rule="evenodd" fill-rule="evenodd" stroke-linecap="round" stroke-linejoin="round" stroke-miterlimit="1.5" viewBox="0 0 32 32" xmlns="http://www.w3.org/2000/svg" xmlns:xlink="http://www.w3.org/1999/xlink"><clipPath id="a"><path clip-rule="evenodd" d="m0 .017h32v32h-32z"/></clipPath><clipPath id="b"><path clip-rule="evenodd" d="m6.649 21.153c-.169-.296-.208-.647-.11-.973.099-.326.327-.596.631-.749.131-.065.258-.128.371-.185.294-.147.634-.171.945-.067 1.135.378 3.943 1.314 5.052 1.684.306.102.626.154.949.154h3.026c.323 0 .643-.052.949-.154 1.109-.37 3.917-1.306 5.052-1.684.311-.104.651-.08.945.067.113.057.24.12.371.185.304.153.532.423.631.749.098.326.059.677-.11.973-.6 1.05-1.505 2.634-2.223 3.89-.667 1.167-2.029 1.748-3.333 1.423-.631-.158-1.235-.309-1.556-.39-.159-.039-.322-.059-.485-.059-.716 0-2.792 0-3.508 0-.163 0-.326.02-.485.059-.321.081-.925.232-1.556.39-1.304.325-2.666-.256-3.333-1.423-.718-1.256-1.623-2.84-2.223-3.89z"/></clipPath><metadata/><path d="m0 .017h32v32h-32z" fill="none"/><g clip-path="url(#a)"><path d="m3 5.385c0-.989.487-1.914 1.302-2.473.814-.56 1.852-.682 2.775-.327.784.301 1.623.624 2.461.946 4.16 1.6 8.764 1.6 12.924 0 .838-.322 1.677-.645 2.461-.946.923-.355 1.961-.233 2.775.327.815.559 1.302 1.484 1.302 2.473v12.59c0 1.959-.719 3.851-2.021 5.315-1.092 1.229-2.448 2.754-3.592 4.042-1.518 1.708-3.694 2.685-5.98 2.685h-2.093c-2.122 0-4.157-.843-5.657-2.343-1.329-1.329-2.985-2.986-4.314-4.314-1.5-1.5-2.343-3.535-2.343-5.657 0-3.37 0-8.611 0-12.318z" fill="none" stroke="#000" stroke-width="4"/><path d="m3 5.385c0-.989.487-1.914 1.302-2.473.814-.56 1.852-.682 2.775-.327.784.301 1.623.624 2.461.946 4.16 1.6 8.764 1.6 12.924 0 .838-.322 1.677-.645 2.461-.946.923-.355 1.961-.233 2.775.327.815.559 1.302 1.484 1.302 2.473v12.59c0 1.959-.719 3.851-2.021 5.315-1.092 1.229-2.448 2.754-3.592 4.042-1.518 1.708-3.694 2.685-5.98 2.685h-2.093c-2.122 0-4.157-.843-5.657-2.343-1.329-1.329-2.985-2.986-4.314-4.314-1.5-1.5-2.343-3.535-2.343-5.657 0-3.37 0-8.611 0-12.318z" fill="#de1a31"/><path d="m6.649 21.153c-.169-.296-.208-.647-.11-.973.099-.326.327-.596.631-.749.131-.065.258-.128.371-.185.294-.147.634-.171.945-.067 1.135.378 3.943 1.314 5.052 1.684.306.102.626.154.949.154h3.026c.323 0 .643-.052.949-.154 1.109-.37 3.917-1.306 5.052-1.684.311-.104.651-.08.945.067.113.057.24.12.371.185.304.153.532.423.631.749.098.326.059.677-.11.973-.6 1.05-1.505 2.634-2.223 3.89-.667 1.167-2.029 1.748-3.333 1.423-.631-.158-1.235-.309-1.556-.39-.159-.039-.322-.059-.485-.059-.716 0-2.792 0-3.508 0-.163 0-.326.02-.485.059-.321.081-.925.232-1.556.39-1.304.325-2.666-.256-3.333-1.423-.718-1.256-1.623-2.84-2.223-3.89z" fill="#fff"/><g clip-path="url(#b)" stroke="#848484"><path d="m6.5 23.017 1.5-1.5 3.5 3.5 2.5-2.5 2 2 2-2 2.5 2.5 3.5-3.5 2 2" fill="none"/><g fill="#fff"><path d="m23.5 25.517v-.001c0-1.561-.78-3.02-2.08-3.886-.513-.342-.92-.613-.92-.613v5.5"/><path d="m8.5 25.517v-.001c0-1.561.78-3.02 2.08-3.886.513-.342.92-.613.92-.613v5.5"/></g></g><path d="m14.246 27.017c-.082 0-.163.01-.242.03-.321.08-.925.231-1.557.389-1.738.434-3.554-.34-4.443-1.896l-2.223-3.891c-.305-.534-.377-1.17-.199-1.759s.591-1.078 1.141-1.353c.131-.065.258-.129.371-.185.531-.266 1.146-.31 1.709-.122 1.134.378 3.942 1.314 5.051 1.684.204.068.418.103.633.103h3.026c.215 0 .429-.035.633-.103 1.109-.37 3.917-1.306 5.051-1.684.563-.188 1.178-.144 1.709.122.113.056.24.12.371.185.55.275.963.764 1.141 1.353s.106 1.225-.199 1.759c-.6 1.05-1.505 2.634-2.223 3.891-.889 1.556-2.705 2.33-4.443 1.896-.632-.158-1.236-.309-1.557-.389-.079-.02-.16-.03-.242-.03zm3.508-1c.163 0 .326.02.485.059.321.081.925.232 1.556.39 1.304.325 2.666-.256 3.333-1.423.718-1.256 1.623-2.84 2.223-3.89.169-.296.208-.647.11-.973-.099-.326-.327-.596-.631-.749-.131-.065-.258-.128-.371-.185-.294-.147-.634-.171-.945-.067-1.135.378-3.943 1.314-5.052 1.684-.306.102-.626.154-.949.154-.769 0-2.257 0-3.026 0-.323 0-.643-.052-.949-.154-1.109-.37-3.917-1.306-5.052-1.684-.311-.104-.651-.08-.945.067-.113.057-.24.12-.371.185-.304.153-.532.423-.631.749-.098.326-.059.677.11.973.6 1.05 1.505 2.634 2.223 3.89.667 1.167 2.029 1.748 3.333 1.423.631-.158 1.235-.309 1.556-.39.159-.039.322-.059.485-.059z" fill="#9b141d"/><path d="m21.028 10.256c-1.155.433-1.802 1.665-1.503 2.862.005.02.01.04.015.06.27 1.081 1.242 1.839 2.356 1.839h2.104c.796 0 1.559-.316 2.121-.879.563-.563.879-1.326.879-2.121v-1.114c0-.656-.322-1.271-.861-1.644-.539-.374-1.227-.459-1.841-.229-1.07.401-2.278.854-3.27 1.226z" fill="#ffba43"/><path d="m10.972 10.256c1.155.433 1.802 1.665 1.503 2.862-.005.02-.01.04-.015.06-.27 1.081-1.242 1.839-2.356 1.839-.648 0-1.39 0-2.104 0-.796 0-1.559-.316-2.121-.879-.563-.563-.879-1.326-.879-2.121v-1.114c0-.656.322-1.271.861-1.644.539-.374 1.227-.459 1.841-.229 1.07.401 2.278.854 3.27 1.226z" fill="#ffba43"/><circle cx="22.5" cy="12.517" r="1.5"/><circle cx="9.5" cy="12.517" r="1.5"/><path d="m17.242 11.986c-.142-.57-.654-.969-1.241-.969-.001 0-.001 0-.002 0-.587 0-1.099.399-1.241.969-.059.234-.123.493-.19.758-.334 1.336-1.534 2.273-2.91 2.273-1.718 0-4.026 0-5.658 0-.53 0-1.039.21-1.414.585-.375.376-.586.884-.586 1.415 0 .53.211 1.039.586 1.414s.884.586 1.414.586h13.218c.473 0 .926-.188 1.26-.522s.522-.788.522-1.26c0-.001 0-.001 0-.002 0-.726-.465-1.371-1.154-1.601-.093-.031-.188-.063-.284-.095-.973-.324-1.713-1.123-1.961-2.118-.122-.485-.251-1.003-.359-1.433z" fill="#7e1016"/><path d="m20.224 5.667c-.724.207-1.224.869-1.224 1.623v.003c0 .952.772 1.724 1.724 1.724h1.276c.649 0 1.281-.211 1.8-.6.666-.5 1.613-1.21 2.304-1.728.519-.389.685-1.094.395-1.674 0-.001-.001-.001-.001-.002-.289-.578-.948-.868-1.569-.69-1.267.362-3.374.964-4.705 1.344z"/><path d="m11.776 5.667c.724.207 1.224.869 1.224 1.623v.003c0 .952-.772 1.724-1.724 1.724-.436 0-.889 0-1.276 0-.649 0-1.281-.211-1.8-.6-.666-.5-1.613-1.21-2.304-1.728-.519-.389-.685-1.094-.395-1.674 0-.001.001-.001.001-.002.289-.578.948-.868 1.569-.69 1.267.362 3.374.964 4.705 1.344z"/></g></svg>