<svg clip-rule="evenodd" fill-rule="evenodd" stroke-linejoin="round" stroke-miterlimit="2" viewBox="0 0 32 32" xmlns="http://www.w3.org/2000/svg"><metadata/><path d="m0 0h32v32h-32z" fill="none"/><path d="m16 0c8.284 0 15 6.716 15 15v2c0 3.448-1.37 6.754-3.808 9.192s-5.744 3.808-9.192 3.808c-1.324 0-2.676 0-4 0-.177 0-.354-.004-.531-.011-.173.304-.388.587-.641.839-.75.751-1.767 1.172-2.828 1.172h-3c-2.209 0-4-1.791-4-4v-4.073c-1.296-2.057-2-4.456-2-6.927v-2c0-8.284 6.716-15 15-15z"/><path d="m21.518 27.422s-17.474-7.02-17.809-6.536c-.464-1.23-.709-2.545-.709-3.886v-2c0-7.18 5.82-13 13-13h.084c7.141.045 12.916 5.848 12.916 13v2c0 2.917-1.159 5.715-3.222 7.778-1.209 1.209-2.67 2.107-4.26 2.644z" fill="#fbc546"/><path d="m17.825 22.99 3.693 4.432c-1.123.379-2.31.578-3.518.578h-4v-1s3.936-3.701 3.825-4.01zm-7.55-3.968c.14-.053.283-.092.43-.114.348-.052.707-.01 1.033.12.151.059.292.138.424.231l2.438 1.741-5.1 1c0-.333.85-2.778.764-2.942l-.014-.026z" fill="#e59a10"/><path d="m3.709 20.886c.335-.484.778-.896 1.306-1.198 1.034-.591 2.493-1.424 2.493-1.424.619-.354 1.379-.352 1.996.006.616.358.996 1.017.996 1.73v1h4.5c.796 0 1.559.316 2.121.879.554.554.869 1.302.879 2.084v.037c0 1.657-1.343 3-3 3h-1v1c-2.917 0-5.715-1.159-7.778-3.222-1.115-1.115-1.966-2.445-2.513-3.892z" fill="#7e5108"/><path d="m8.5 20s-1.458.833-2.492 1.424c-.623.356-1.008 1.019-1.008 1.737v4.839c0 1.105.895 2 2 2h3c.53 0 1.039-.211 1.414-.586s.586-.884.586-1.414c0-1.392 0-3 0-3h3c.552 0 1-.448 1-1 0-.265-.105-.52-.293-.707-.187-.188-.442-.293-.707-.293-2.042 0-6.5 0-6.5 0z" fill="#fbc546"/><path d="m15.12 14.5c2.109 0 4.132.838 5.623 2.329.535.534.964.964.964.964.39.39.39 1.024 0 1.414s-1.024.39-1.414 0c0 0-.43-.429-.964-.964-1.116-1.116-2.63-1.743-4.209-1.743h-4.12c-.552 0-1-.448-1-1s.448-1 1-1z" fill="#593604"/><path d="m23.983 9c.011.113 1.017.45 1.017 1v.344c0 .928-.369 1.818-1.025 2.474s-1.545 1.024-2.473 1.024h-.002c-1.933 0-3.5-1.567-3.5-3.5v-.342c0-.551 1.006-.887 1.017-1z" fill="#fff"/><path d="m11.733 7 1.267 1v1.342c0 1.933-1.567 3.5-3.5 3.5h-.002c-.928 0-1.817-.368-2.473-1.024s-1.025-1.546-1.025-2.474c0-.44 0-1.344 0-1.344l1.267-1z" fill="#fff"/><path d="m25 8c.552 0 1 .448 1 1s-.448 1-1 1h-2v.826c0 .53-.211 1.039-.586 1.414s-.884.586-1.414.586h-.01c-1.099 0-1.99-.891-1.99-1.99v-.836h-1v-2z"/><path d="m13 6v2h-2v1.826c0 1.104-.895 2-2 2-.53 0-1.039-.211-1.414-.586s-.586-.884-.586-1.414v-1.826h-1c-.14 0-.278-.029-.406-.086-.119-.053-.228-.13-.318-.224-.086-.09-.155-.197-.202-.312-.043-.106-.068-.219-.073-.333-.005-.109.008-.219.039-.325.027-.093.068-.182.121-.264.117-.181.293-.321.495-.395.11-.041.227-.061.344-.061z"/></svg>