<svg clip-rule="evenodd" fill-rule="evenodd" stroke-linecap="round" stroke-linejoin="round" stroke-miterlimit="1.5" viewBox="0 0 32 32" xmlns="http://www.w3.org/2000/svg"><metadata/><path d="m0 0v32h32v-32z" fill="none"/><path d="m11.476 5.702c1.282-1.644 3.28-2.702 5.524-2.702 2.655 0 4.966 1.481 6.153 3.661.683-.419 1.487-.661 2.347-.661 2.484 0 4.5 2.016 4.5 4.5v2c0 1.127-.415 2.158-1.101 2.948.066.34.101.692.101 1.052v.001 1.998.001c0 3.036-2.464 5.5-5.5 5.5-1.551 0-2.954-.644-3.954-1.679-1.224 1.047-2.812 1.679-4.546 1.679-.754 0-1.48-.119-2.16-.34-1.58 2.36-3.759 4.299-6.351 5.595l-1.489.745v-2c1.147-1.911 1.977-3.983 2.47-6.136-.308.088-.634.136-.97.136-1.932 0-3.5-1.568-3.5-3.5v-2c0-.513.111-1 .309-1.44-.816-.959-1.309-2.203-1.309-3.56v-2c0-3.036 2.464-5.5 5.5-5.5 1.563 0 2.975.653 3.976 1.702z" fill="none" stroke="#000" stroke-width="4"/><path d="m7 25.58c.4-1.251.683-2.54.843-3.847-.413.172-.867.267-1.343.267-1.932 0-3.5-1.568-3.5-3.5v-2l.769-.961c-1.088-1.005-1.769-2.443-1.769-4.039v-2l2-1.5h24l2 2.5v2c0 1.336-.584 2.538-1.51 3.362l.51.638v1.999.001c0 3.036-2.464 5.5-5.5 5.5-1.551 0-2.954-.644-3.954-1.679-1.224 1.047-2.812 1.679-4.546 1.679-.754 0-1.48-.119-2.16-.34-1.58 2.36-3.759 4.299-6.351 5.595-.881.441-1.489.745-1.489.745v-2z" fill="#747474"/><path d="m11.476 5.702c1.282-1.644 3.28-2.702 5.524-2.702 2.655 0 4.966 1.481 6.153 3.661.683-.419 1.487-.661 2.347-.661 2.484 0 4.5 2.016 4.5 4.5 0 1.389-.631 2.633-1.622 3.458.397.761.622 1.625.622 2.542 0 3.036-2.464 5.5-5.5 5.5-1.551 0-2.954-.644-3.954-1.679-1.224 1.047-2.812 1.679-4.546 1.679-.754 0-1.48-.119-2.16-.34-1.58 2.36-3.759 4.299-6.351 5.595-.881.441-1.489.745-1.489.745 1.521-2.535 2.486-5.353 2.843-8.267-.413.172-.867.267-1.343.267-1.932 0-3.5-1.568-3.5-3.5 0-1.041.455-1.976 1.178-2.618-1.323-1.005-2.178-2.594-2.178-4.382 0-3.036 2.464-5.5 5.5-5.5 1.563 0 2.975.653 3.976 1.702z" fill="#fff"/></svg>