<svg clip-rule="evenodd" fill-rule="evenodd" stroke-linejoin="round" stroke-miterlimit="2" viewBox="0 0 32 32" xmlns="http://www.w3.org/2000/svg" xmlns:xlink="http://www.w3.org/1999/xlink"><clipPath id="a"><path clip-rule="evenodd" d="m14 24s-2.828-5.655-4.23-8.46c-.506-1.013-.77-2.129-.77-3.262 0-1.67 0-4.241 0-6.253 0-.803.319-1.572.886-2.139s1.336-.886 2.139-.886h13.475v1.5h1.5v12.004h-.5v1.496s-5.936 0-8.882 0c-.347 0-.668.179-.851.474-.182.295-.198.663-.043.973.378.756.813 1.626 1.065 2.131.139.277.211.584.211.894v2.53c0 2.208-1.79 3.998-3.998 3.998-.001 0-.002 0-.002 0z"/></clipPath><metadata/><path d="m0 0h32v32h-32z" fill="none"/><path d="m8.764 18 3.236 6.472v6.528c.719 0 1.437.007 2.156-.002.203-.008.405-.02.607-.046.444-.056.881-.163 1.301-.316.862-.316 1.646-.831 2.28-1.495.532-.559.956-1.221 1.239-1.939.182-.462.306-.946.369-1.439.026-.202.038-.404.046-.607.012-.9.002-1.799.002-2.699-.003-.227-.021-.453-.06-.677-.067-.378-.19-.739-.356-1.084l-.338-.677c2.448.009 4.896.011 7.343-.02.148-.006.295-.017.441-.039.343-.052.677-.156.988-.306.405-.195.771-.468 1.072-.8.285-.313.512-.677.667-1.071.15-.379.232-.785.242-1.194.009-.352-.035-.706-.132-1.046-.105-.372-.273-.726-.494-1.043.155-.223.284-.464.384-.716.15-.38.232-.786.242-1.195.009-.353-.035-.706-.132-1.046-.101-.356-.259-.695-.466-1.002-.009-.014-.019-.027-.028-.041.155-.223.284-.464.384-.717.15-.38.232-.785.242-1.194.009-.352-.035-.706-.132-1.046-.124-.437-.334-.848-.614-1.205-.151-.192-.322-.367-.509-.524.018-.044.035-.089.051-.133.135-.378.205-.779.205-1.181 0-.487-.103-.973-.3-1.418-.233-.525-.596-.99-1.049-1.343-.248-.193-.522-.353-.812-.473-.421-.174-.871-.26-1.327-.266h-7.512c-4.034 0-8.068-.05-12.102.001-.102.004-.102.004-.204.01-.398.036-.788.12-1.161.267-1.055.416-1.9 1.282-2.29 2.347-.15.41-.225.837-.242 1.273-.039 3.068-.038 6.136 0 9.204.005.136.014.27.031.405.042.329.124.652.246.96.236.598.618 1.136 1.104 1.557.39.338.846.6 1.335.766.411.138.838.205 1.27.21z"/><path d="m18.5 16h-12.5c-.53 0-1.039-.211-1.414-.586s-.586-.884-.586-1.414c0-2.444 0-6.556 0-9 0-.53.211-1.039.586-1.414s.884-.586 1.414-.586h12.5z" fill="#2ea82c"/><path d="m14 24s-2.828-5.655-4.23-8.46c-.506-1.013-.77-2.129-.77-3.262 0-1.67 0-4.241 0-6.253 0-.803.319-1.572.886-2.139s1.336-.886 2.139-.886h13.475v1.5h1.5v12.004h-.5v1.496s-5.936 0-8.882 0c-.347 0-.668.179-.851.474-.182.295-.198.663-.043.973.378.756.813 1.626 1.065 2.131.139.277.211.584.211.894v2.53c0 2.208-1.79 3.998-3.998 3.998-.001 0-.002 0-.002 0z" fill="#6dd349"/><g clip-path="url(#a)"><path d="m19.628 14.843c-.035.039-.068.079-.1.121-.188.241-.331.516-.42.809-.065.215-.102.44-.107.665-.018.701.268 1.39.776 1.873.177.169.38.312.6.423.331.166.692.252 1.061.265l.056.001h7.506v-5-7-5c-2.522 0-5.044-.031-7.566.001-.064.002-.127.006-.19.012-.369.042-.724.156-1.042.349-.222.135-.423.305-.593.501-.184.213-.332.457-.435.719-.231.585-.231 1.251 0 1.836.106.271.261.522.454.74-.123.045-.243.1-.359.166-.286.162-.539.38-.741.64-.188.241-.331.516-.42.809-.072.235-.108.481-.108.727 0 .701.302 1.383.822 1.853.057.052.116.101.178.147-.177.133-.336.289-.472.464-.188.241-.331.516-.42.809-.072.235-.108.481-.108.727 0 .701.302 1.383.822 1.853.167.151.354.28.555.381.082.041.166.077.251.109z" fill="#20631a"/></g><path d="m25.5 6c.398 0 .779-.158 1.061-.439.281-.282.439-.663.439-1.061s-.158-.779-.439-1.061c-.282-.281-.663-.439-1.061-.439-1.181 0-2.819 0-4 0-.398 0-.779.158-1.061.439-.281.282-.439.663-.439 1.061s.158.779.439 1.061c.282.281.663.439 1.061.439zm1 4c.398 0 .779-.158 1.061-.439.281-.282.439-.663.439-1.061s-.158-.779-.439-1.061c-.282-.281-.663-.439-1.061-.439-1.665 0-4.335 0-6 0-.398 0-.779.158-1.061.439-.281.282-.439.663-.439 1.061s.158.779.439 1.061c.282.281.663.439 1.061.439zm0 4c.398 0 .779-.158 1.061-.439.281-.282.439-.663.439-1.061s-.158-.779-.439-1.061c-.282-.281-.663-.439-1.061-.439-1.665 0-4.335 0-6 0-.398 0-.779.158-1.061.439-.281.282-.439.663-.439 1.061s.158.779.439 1.061c.282.281.663.439 1.061.439zm0 4c.398 0 .779-.158 1.061-.439.281-.282.439-.663.439-1.061s-.158-.779-.439-1.061c-.282-.281-.663-.439-1.061-.439-1.43 0-3.57 0-5 0-.398 0-.779.158-1.061.439-.281.282-.439.663-.439 1.061s.158.779.439 1.061c.282.281.663.439 1.061.439z" fill="#6dd349"/></svg>