<svg clip-rule="evenodd" fill-rule="evenodd" stroke-linejoin="round" stroke-miterlimit="2" viewBox="0 0 32 32" xmlns="http://www.w3.org/2000/svg" xmlns:xlink="http://www.w3.org/1999/xlink"><clipPath id="a"><path clip-rule="evenodd" d="m32 32v-32h-32v32z"/></clipPath><metadata/><path d="m32 32v-32h-32v32z" fill="none"/><g clip-path="url(#a)"><path d="m19.16 21h8.34c1.193 0 2.338-.474 3.182-1.318.791-.791 1.257-1.847 1.312-2.959l.006-.223c0-1.152-.433-2.204-1.146-3 .713-.796 1.146-1.848 1.146-3 0-1.193-.474-2.338-1.318-3.182-.558-.558-1.248-.955-1.997-1.159.203-.513.315-1.072.315-1.657 0-.001 0-.003 0-.004 0-2.484-2.014-4.498-4.498-4.498h-19.502c-2.209 0-4 1.791-4 4v12c0 2.209 1.791 4 4 4h2.256c.234 1.056.626 2.075 1.167 3.022.198.345.408.713.622 1.088 1.642 2.874 4.099 5.198 7.06 6.679h.001c.542.271 1.179.282 1.73.028.551-.253.957-.743 1.104-1.332 0 0 .177-.706.382-1.526.482-1.928.508-3.942.077-5.883z"/><path d="m16 18h-11c-1.105 0-2-.895-2-2 0-3.074 0-8.926 0-12 0-1.105.895-2 2-2h12z" fill="#373087"/><path d="m10.44 22.52.341.597c1.447 2.532 3.611 4.579 6.219 5.883s.177-.707.381-1.526c.407-1.627.43-3.326.066-4.964l-.481-2.165-1.966-.845-4 2z" fill="#252368"/><path d="m20.599 2h-3.599c-2.122 0-4.157.843-5.657 2.343s-2.343 3.535-2.343 5.657v7.662c0 1.532.4 3.038 1.16 4.368l.28.49 6.526-2.175-.299-1.345h3.414.001c-1.523-.733.517-17 .517-17z" fill="#434895"/><path d="m26.824 18h2.176v-8.5h-2v-5l-2.647-.5-.353-2c-1.134 0-2.267 0-3.401 0l-3.536 2.829c-.455.364-.658.959-.52 1.526.137.566.591 1.002 1.163 1.116l1.801.36c-1.202.515-2.347 1.174-3.406 1.969-.001 0-.001 0-.001 0-.434.325-.658.859-.587 1.397.071.537.427.994.93 1.196l1.982.792-1.719.344c-.543.109-.981.507-1.142 1.036-.16.53-.016 1.104.375 1.496h.001c1.217 1.217 2.619 2.205 4.141 2.938v.001h6.919z" fill="#1d1659"/><path d="m24.502 7c1.38 0 2.498-1.118 2.498-2.498 0-.001 0-.003 0-.004 0-1.38-1.118-2.498-2.498-2.498h-.502c-.647 0-1.275.22-1.781.625-1.406 1.124-4.219 3.375-4.219 3.375s2.564.513 4.02.804c.652.13 1.315.196 1.98.196zm2.998 6c1.381 0 2.5-1.119 2.5-2.5 0-.663-.263-1.299-.732-1.768s-1.105-.732-1.768-.732c-.473 0-.982 0-1.501 0-3.245 0-6.402 1.053-8.998 3-.001 0-.001 0-.001 0s.955.382 2.031.812c1.961.785 4.054 1.188 6.167 1.188zm0 1h-3.856c-1.093 0-2.184.108-3.256.322-1.462.293-3.388.678-3.388.678 2.561 2.561 6.035 4 9.656 4h.844c.663 0 1.299-.263 1.768-.732s.732-1.105.732-1.768c0-1.381-1.119-2.5-2.5-2.5z" fill="#252368"/></g></svg>