<svg clip-rule="evenodd" fill-rule="evenodd" stroke-linejoin="round" stroke-miterlimit="2" viewBox="0 0 32 32" xmlns="http://www.w3.org/2000/svg" xmlns:xlink="http://www.w3.org/1999/xlink"><clipPath id="a"><path clip-rule="evenodd" d="m0 0h32v32h-32z"/></clipPath><metadata/><path d="m0 0h32v32h-32z" fill="none"/><g clip-path="url(#a)"><path d="m8.084 21 2.916 4.582v6.418c1.051 0 2.103.011 3.154-.002.203-.008.406-.02.608-.046.443-.056.881-.163 1.301-.317.772-.282 1.482-.725 2.077-1.292.629-.599 1.125-1.335 1.443-2.143.182-.461.306-.946.369-1.438.026-.202.038-.405.046-.608.011-.899.002-1.797.002-2.696-.002-.147-.011-.293-.026-.44 2.043.007 4.086.007 6.128-.019.169-.007.337-.019.505-.045.39-.06.772-.178 1.128-.349.462-.223.88-.535 1.226-.915.324-.357.584-.774.761-1.223.171-.434.265-.898.277-1.365.01-.403-.041-.808-.151-1.196-.079-.278-.188-.547-.325-.801.156-.127.303-.265.438-.414.325-.358.584-.774.761-1.223.284-.719.352-1.517.197-2.274-.085-.417-.238-.819-.45-1.187-.102-.178-.218-.348-.346-.508.25-.311.452-.66.599-1.032.171-.434.265-.898.277-1.365.01-.403-.041-.808-.151-1.196-.133-.468-.352-.911-.644-1.301-.381-.51-.884-.925-1.457-1.204.155-.415.241-.856.252-1.299.01-.403-.041-.808-.151-1.196-.15-.53-.411-1.026-.762-1.451-.409-.496-.937-.89-1.528-1.14-.491-.207-1.014-.308-1.545-.315h-6.026c-5.029 0-10.058-.061-15.086.001-.099.004-.099.004-.198.01-.425.037-.839.13-1.234.293-1.004.416-1.81 1.242-2.201 2.256-.166.43-.25.881-.267 1.341-.054 4.399-.054 8.799 0 13.198.017.46.101.911.267 1.341.224.581.585 1.107 1.047 1.525.412.373.901.658 1.428.833.403.133.821.197 1.244.202z"/><path d="m16.5 19h-12.5c-.53 0-1.039-.211-1.414-.586s-.586-.884-.586-1.414c0-3.271 0-9.729 0-13 0-.53.211-1.039.586-1.414s.884-.586 1.414-.586h12.5z" fill="#e461b2"/><path d="m13 25s-3.508-5.512-5.557-8.733c-.942-1.48-1.443-3.199-1.443-4.955 0-.618 0-1.304 0-2.017 0-1.934.769-3.79 2.137-5.158s3.224-2.137 5.158-2.137h6.455l2.233 2 .017 15-2.25 2h-1.132c-.347 0-.668.179-.851.474-.182.295-.198.663-.043.973.022.045.044.089.065.131.139.277.211.584.211.894v2.528c0 2.209-1.791 4-4 4-.588 0-1 0-1 0z" fill="#fd9bd6"/><path d="m15.448 19c.994 0 1.947-.395 2.65-1.098.937-.937 2.328-2.328 3.574-3.574 1.562-1.562 1.562-4.094 0-5.656-1.246-1.246-2.637-2.637-3.574-3.574-.703-.703-1.656-1.098-2.65-1.098-.001 0-.001 0-.001 0-1.262 0-2.447.607-3.185 1.63-.738 1.024-.939 2.34-.539 3.538.224.674.425 1.276.566 1.7.137.41.137.854 0 1.264-.141.424-.342 1.026-.566 1.7-.4 1.198-.199 2.514.539 3.538.738 1.023 1.923 1.63 3.185 1.63z" fill="#b53d95"/><path d="m19.763 21h6.237v-2h2v-10h-1v-5h-2.017l.017-2h-5.236c-.045.051-.089.103-.131.156-.225.29-.397.62-.503.971-.086.283-.13.578-.13.873 0 .824.349 1.627.95 2.19-.153.056-.302.125-.445.208-.27.155-.516.353-.726.584-.227.25-.412.538-.543.849-.304.718-.314 1.545-.028 2.271.133.336.328.648.571.916.167.183.356.346.562.483-.269.178-.509.4-.708.655-.225.29-.397.62-.503.971-.086.283-.13.578-.13.873 0 .841.363 1.659.986 2.224.2.181.425.335.666.456.097.049.196.092.297.129-.059.056-.116.113-.17.173-.227.25-.412.538-.543.849-.304.718-.314 1.545-.028 2.27.13.33.319.635.555.899z" fill="#8b2265"/><path d="m25.002 2h-3.002c-1.105 0-2 .895-2 2v.002c0 1.103.895 1.998 1.998 1.998h3.002c1.105 0 2-.895 2-2 0-.001 0-.001 0-.002 0-1.103-.895-1.998-1.998-1.998zm2 5h-6.004c-1.103 0-1.998.895-1.998 1.998v.004c0 1.103.895 1.998 1.998 1.998h6.004c1.103 0 1.998-.895 1.998-1.998 0-.001 0-.003 0-.004 0-1.103-.895-1.998-1.998-1.998zm0 5h-6.004c-1.103 0-1.998.895-1.998 1.998v.004c0 1.103.895 1.998 1.998 1.998h6.004c1.103 0 1.998-.895 1.998-1.998 0-.001 0-.003 0-.004 0-1.103-.895-1.998-1.998-1.998zm-1.002 9c1.105 0 2-.895 2-2s-.895-2-2-2h-4c-.279.001-.557.058-.812.172-.239.106-.456.259-.636.448-.172.181-.31.393-.404.624-.087.212-.136.438-.146.666-.01.219.016.439.077.649.055.187.137.366.243.529.234.362.586.642.99.791.221.08.454.12.688.121z" fill="#fd9bd6"/></g></svg>