<svg clip-rule="evenodd" fill-rule="evenodd" stroke-linejoin="round" stroke-miterlimit="2" viewBox="0 0 32 32" xmlns="http://www.w3.org/2000/svg" xmlns:xlink="http://www.w3.org/1999/xlink"><clipPath id="a"><path clip-rule="evenodd" d="m0 0h32v32h-32z"/></clipPath><metadata/><path d="m0 0h32v32h-32z" fill="none"/><g clip-path="url(#a)"><path d="m12.828 0 4.423 4.423c.239.245.461.504.658.784.45.64.772 1.367.944 2.13.087.386.131.776.145 1.171.009.678.002 1.356.002 2.035-.003.227-.021.453-.06.677-.067.378-.19.739-.356 1.084l-.338.677c2.781-.011 5.562-.015 8.344.02.147.006.294.017.44.039.343.052.677.156.989.306.404.195.77.468 1.071.8.285.313.512.677.667 1.07.15.38.232.786.242 1.194.009.353-.035.707-.132 1.047-.101.356-.259.695-.466 1.001-.009.014-.019.028-.029.042.177.253.319.529.423.82.136.378.205.779.205 1.18 0 .573-.142 1.143-.412 1.648-.065.121-.137.239-.216.352.156.223.285.463.385.716.15.38.232.786.242 1.195.009.353-.035.706-.132 1.046-.124.437-.334.848-.614 1.205-.149.189-.317.363-.501.517.005.014.01.027.016.04.132.344.21.709.228 1.077.034.693-.14 1.391-.496 1.986-.209.349-.478.661-.793.919-.267.219-.567.398-.886.53-.425.177-.879.263-1.339.269h-20.489l-.095-.001c-.102-.004-.102-.004-.204-.01-.398-.036-.788-.12-1.161-.267-1.055-.416-1.9-1.282-2.29-2.347-.15-.41-.225-.837-.242-1.273-.039-3.068-.039-6.136 0-9.204.005-.136.014-.27.031-.405.042-.329.124-.652.246-.96.236-.598.618-1.136 1.104-1.557.39-.338.846-.6 1.335-.766.411-.138.838-.205 1.27-.21h2.777l3.236-6.472v-8.528h1.828z"/><path d="m17.5 17h-12.5c-.53 0-1.039.211-1.414.586s-.586.884-.586 1.414v9c0 .53.211 1.039.586 1.414s.884.586 1.414.586h12.5z" fill="#731052"/><path d="m20.599 30h-9.574c-.803 0-1.572-.319-2.139-.886s-.886-1.336-.886-2.139c0-2.012 0-4.583 0-6.253 0-1.133.264-2.249.77-3.262l1.73-3.46 2.5-.5 2.618.5c0 .183.05.365.149.526.177.285.484.463.818.473l3.915.692s.037 14.255.099 14.309zm-3.599-20v.528c0 .31-.072.617-.211.894l-.789 1.578-3 .5-2-.5 1.5-3 2.5-.5zm-4-1v-6s1.648 1.648 2.828 2.828c.751.751 1.172 1.768 1.172 2.829v.343l-2 .5z" fill="#8c2b62"/><path d="m16.585 14.999.017.001h.016 9.882v1.496h.5v12.004h-1.5v1.5h-4.901c-.062-.054-.122-.11-.18-.167l-3.833-3.833s1.561-.001 2.01-.002c-.06-.054-.12-.109-.177-.165l-3.833-3.833s2.884-.006 4.003-.009c-.058-.051-.115-.104-.17-.158l-3.833-3.833s3.554-.009 4.998-.013c-.056-.05-.111-.101-.165-.154z" fill="#420632"/><path d="m16 13-.276.553c-.071.141-.106.294-.106.447h-5.118l.5-1zm1-3h-4.5l.5-1h4z" fill="#731052"/><path d="m25.5 30h-2.257c-.796 0-1.559-.316-2.122-.879-.885-.885-2.121-2.121-2.121-2.121h6.5c.398 0 .779.158 1.061.439.281.282.439.663.439 1.061s-.158.779-.439 1.061c-.282.281-.663.439-1.061.439zm1-7c.398 0 .779.158 1.061.439.281.282.439.663.439 1.061s-.158.779-.439 1.061c-.282.281-.663.439-1.061.439h-5.257c-.247-.001-.493-.03-.732-.09-.523-.132-1.008-.407-1.39-.789-.707-.707-1.414-1.414-2.121-2.121zm.002-4c.827 0 1.498.671 1.498 1.498v.002c0 .398-.158.779-.439 1.061-.282.281-.663.439-1.061.439h-5.257c-.247-.001-.493-.03-.732-.09-.523-.132-1.008-.407-1.39-.789-.707-.707-1.414-1.414-2.121-2.121zm0-4c.397 0 .778.158 1.059.439s.439.662.439 1.059v.002c0 .398-.158.779-.439 1.061-.282.281-.663.439-1.061.439h-4.257c-.247-.001-.492-.03-.732-.09-.523-.132-1.008-.407-1.39-.789-.707-.707-1.414-1.414-2.121-2.121z" fill="#8c2b62"/></g></svg>