<svg clip-rule="evenodd" fill-rule="evenodd" stroke-linejoin="round" stroke-miterlimit="1.5" viewBox="0 0 32 32" xmlns="http://www.w3.org/2000/svg" xmlns:xlink="http://www.w3.org/1999/xlink"><clipPath id="a"><path clip-rule="evenodd" d="m0 0h32v32h-32z"/></clipPath><clipPath id="b"><path clip-rule="evenodd" d="m12 25-4 4-2-2-2 2v-5l-2 2s0-6.418 0-10.858c0-2.652 1.054-5.196 2.929-7.071 1.351-1.351 2.877-2.877 3.899-3.899.751-.751 1.768-1.172 2.829-1.172h8.686c1.061 0 2.078.421 2.829 1.172 1.022 1.022 2.548 2.548 3.899 3.899 1.875 1.875 2.929 4.419 2.929 7.071v10.858l-2-2v5l-2-2-2 2-4-4z"/></clipPath><clipPath id="c"><path clip-rule="evenodd" d="m21 5 5 5s.573-.382 1.219-.813c1.113-.741 1.781-1.99 1.781-3.328 0-.605 0-1.262 0-1.859 0-1.105-.895-2-2-2-.594 0-1.227 0-1.757 0-.796 0-1.559.316-2.122.879-.885.885-2.121 2.121-2.121 2.121z"/></clipPath><clipPath id="d"><path clip-rule="evenodd" d="m11 5-5 5s-.573-.382-1.219-.813c-1.113-.741-1.781-1.99-1.781-3.328 0-.605 0-1.262 0-1.859 0-1.105.895-2 2-2h1.757c.796 0 1.559.316 2.122.879.885.885 2.121 2.121 2.121 2.121z"/></clipPath><metadata/><path d="m0 0h32v32h-32z" fill="none"/><g clip-path="url(#a)"><g fill="none" stroke="#000" stroke-width="4"><path d="m21 5 5 5s.573-.382 1.219-.813c1.113-.741 1.781-1.99 1.781-3.328 0-.605 0-1.262 0-1.859 0-1.105-.895-2-2-2-.594 0-1.227 0-1.757 0-.796 0-1.559.316-2.122.879-.885.885-2.121 2.121-2.121 2.121z"/><path d="m11 5-5 5s-.573-.382-1.219-.813c-1.113-.741-1.781-1.99-1.781-3.328 0-.605 0-1.262 0-1.859 0-1.105.895-2 2-2h1.757c.796 0 1.559.316 2.122.879.885.885 2.121 2.121 2.121 2.121z"/><path d="m12 25-4 4-2-2-2 2v-5l-2 2s0-6.418 0-10.858c0-2.652 1.054-5.196 2.929-7.071 1.351-1.351 2.877-2.877 3.899-3.899.751-.751 1.768-1.172 2.829-1.172h8.686c1.061 0 2.078.421 2.829 1.172 1.022 1.022 2.548 2.548 3.899 3.899 1.875 1.875 2.929 4.419 2.929 7.071v10.858l-2-2v5l-2-2-2 2-4-4z"/></g><path d="m12 25-4 4-2-2-2 2v-5l-2 2s0-6.418 0-10.858c0-2.652 1.054-5.196 2.929-7.071 1.351-1.351 2.877-2.877 3.899-3.899.751-.751 1.768-1.172 2.829-1.172h8.686c1.061 0 2.078.421 2.829 1.172 1.022 1.022 2.548 2.548 3.899 3.899 1.875 1.875 2.929 4.419 2.929 7.071v10.858l-2-2v5l-2-2-2 2-4-4z" fill="#c0843b"/><g clip-path="url(#b)"><path d="m6 16s.391 1.172.684 2.051c.199.598.667 1.066 1.265 1.265.879.293 2.051.684 2.051.684l1 1v4h10v-4l1-1s1.172-.391 2.051-.684c.598-.199 1.066-.667 1.265-1.265.293-.879.684-2.051.684-2.051l6-2v16h-32v-16z" fill="#e5e5e5"/></g><path d="m10 23v2c0 2.761 2.239 5 5 5h2c2.761 0 5-2.239 5-5 0-1.128 0-2 0-2" fill="none" stroke="#000" stroke-width="4"/><path d="m12.316 17.228c.409-.136.684-.518.684-.949 0-.29 0-.615 0-.865 0-.265-.105-.519-.293-.707-.555-.555-1.707-1.707-1.707-1.707l1-1v-4s-3.094 3.094-4.414 4.414c-.375.375-.586.884-.586 1.414v1.102c0 .668.334 1.293.891 1.664.41.274.894.596 1.295.863.514.343 1.156.429 1.742.234.448-.15.977-.326 1.388-.463z" fill="#e5e5e5"/><path d="m19.684 17.228c-.409-.136-.684-.518-.684-.949 0-.29 0-.615 0-.865 0-.265.105-.519.293-.707.555-.555 1.707-1.707 1.707-1.707l-1-1v-4s3.094 3.094 4.414 4.414c.375.375.586.884.586 1.414v1.102c0 .668-.334 1.293-.891 1.664-.41.274-.894.596-1.295.863-.514.343-1.156.429-1.742.234-.448-.15-.977-.326-1.388-.463z" fill="#e5e5e5"/><path d="m22 20h-12l1 5h10z" fill="#c0843b"/><path d="m15 30c-2.761 0-5-2.239-5-5 0-2.5 0-5 0-5h1v3c0 .552.448 1 1 1h1v-1h6v1h1c.552 0 1-.448 1-1 0-1.185 0-3 0-3h1v5c0 2.761-2.239 5-5 5-.661 0-1.339 0-2 0z" fill="#e5e5e5"/><path d="m9 26s.916.305 1.735.578c.821.274 1.709.274 2.53 0 .819-.273 1.735-.578 1.735-.578l1-1 1 1s.916.305 1.735.578c.821.274 1.709.274 2.53 0 .819-.273 1.735-.578 1.735-.578" fill="none" stroke="#000" stroke-linejoin="miter"/><path d="m20.553 14.724c-.339.169-.553.515-.553.894v2.382h1v-1h.172c.53 0 1.039-.211 1.414-.586.59-.59 1.414-1.414 1.414-1.414 0-.552-.448-1-1-1-.286 0-.572 0-.764 0-.155 0-.308.036-.447.106-.291.145-.827.413-1.236.618z"/><path d="m11.447 14.724c.339.169.553.515.553.894v2.382h-1v-1s-.069 0-.172 0c-.53 0-1.039-.211-1.414-.586-.59-.59-1.414-1.414-1.414-1.414 0-.552.448-1 1-1h.764c.155 0 .308.036.447.106.291.145.827.413 1.236.618z"/><path d="m21 5 5 5s.573-.382 1.219-.813c1.113-.741 1.781-1.99 1.781-3.328 0-.605 0-1.262 0-1.859 0-1.105-.895-2-2-2-.594 0-1.227 0-1.757 0-.796 0-1.559.316-2.122.879-.885.885-2.121 2.121-2.121 2.121z" fill="#c0843b"/><g clip-path="url(#c)"><path d="m31 3s-3 0-4.757 0c-.796 0-1.559.316-2.122.879-.885.885-2.121 2.121-2.121 2.121l4 4h5z" fill="#e5e5e5"/></g><path d="m11 5-5 5s-.573-.382-1.219-.813c-1.113-.741-1.781-1.99-1.781-3.328 0-.605 0-1.262 0-1.859 0-1.105.895-2 2-2h1.757c.796 0 1.559.316 2.122.879.885.885 2.121 2.121 2.121 2.121z" fill="#c0843b"/><g clip-path="url(#d)"><path d="m1 3h4.757c.796 0 1.559.316 2.122.879.885.885 2.121 2.121 2.121 2.121l-4 4h-5z" fill="#e5e5e5"/></g><path d="m12 21h1v1h1l1 1h2l1-1h1v-1h1v1s-.412.412-.707.707c-.188.188-.442.293-.707.293-.275 0-.586 0-.586 0 0 .552-.448 1-1 1-.611 0-1.39 0-2.001 0-.552 0-.999-.447-.999-.999 0-.001 0-.001 0-.001s-.311 0-.586 0c-.265 0-.519-.105-.707-.293-.295-.295-.707-.707-.707-.707z"/><path d="m5 16c0-.265.105-.52.293-.707.187-.188.442-.293.707-.293s.52.105.707.293c.188.187.293.442.293.707v3c0 .265.105.52.293.707.187.188.442.293.707.293h.5c.133 0 .26.053.354.146.093.094.146.221.146.354s-.053.26-.146.354c-.094.093-.221.146-.354.146-.384 0-.942 0-1.5 0-1.105 0-2-.895-2-2 0-1.007 0-2.185 0-3z"/><path d="m27 16c0-.265-.105-.52-.293-.707-.187-.188-.442-.293-.707-.293s-.52.105-.707.293c-.188.187-.293.442-.293.707v3c0 .265-.105.52-.293.707-.187.188-.442.293-.707.293-.174 0-.347 0-.5 0-.133 0-.26.053-.354.146-.093.094-.146.221-.146.354s.053.26.146.354c.094.093.221.146.354.146h1.5c1.105 0 2-.895 2-2 0-1.007 0-2.185 0-3z"/><path d="m13 27h6l-3-2z"/><path d="m5.6 10.6c-.147-.147-.353-.221-.56-.2-.208.02-.395.133-.511.306-.437.656-1.064 1.597-1.361 2.042-.11.164-.168.357-.168.555v5.197c0 .133.053.26.146.354.094.093.221.146.354.146s.26-.053.354-.146c.093-.094.146-.221.146-.354 0-1.031 0-3.364 0-4.197 0-.198.058-.391.168-.555.335-.502 1.09-1.635 1.519-2.279.182-.273.146-.636-.086-.868 0 0 0 0-.001-.001z"/><path d="m26.4 10.6c.147-.147.353-.221.56-.2.208.02.395.133.511.306.437.656 1.064 1.597 1.361 2.042.11.164.168.357.168.555v5.197c0 .133-.053.26-.146.354-.094.093-.221.146-.354.146s-.26-.053-.354-.146c-.093-.094-.146-.221-.146-.354 0-1.031 0-3.364 0-4.197 0-.198-.058-.391-.168-.555-.335-.502-1.09-1.635-1.519-2.279-.182-.273-.146-.636.086-.868 0 0 0 0 .001-.001z"/><path d="m28 22c0 1.657-1.343 3-3 3-1.063 0-2 0-2 0v-1h2s0-.5 0-1c0-.552.448-1 1-1z"/><path d="m4 22v.002c0 1.656 1.342 2.998 2.998 2.998h2.002v-1h-2s0-.5 0-1c0-.552-.448-1-1-1-.873 0-2 0-2 0z"/><path d="m15 9c0-.265-.105-.52-.293-.707-.187-.188-.442-.293-.707-.293-.871 0-2.129 0-3 0-.265 0-.52.105-.707.293-.188.187-.293.442-.293.707s.105.52.293.707c.187.188.442.293.707.293h3c.265 0 .52-.105.707-.293.188-.187.293-.442.293-.707z"/><path d="m22 9c0-.265-.105-.52-.293-.707-.187-.188-.442-.293-.707-.293-.871 0-2.129 0-3 0-.265 0-.52.105-.707.293-.188.187-.293.442-.293.707s.105.52.293.707c.187.188.442.293.707.293h3c.265 0 .52-.105.707-.293.188-.187.293-.442.293-.707z"/><path d="m20 12c0-.552-.448-1-1-1-.322 0-.678 0-1 0-.552 0-1 .448-1 1s.448 1 1 1h1c.552 0 1-.448 1-1z"/><path d="m15 12c0-.552-.448-1-1-1-.322 0-.678 0-1 0-.552 0-1 .448-1 1s.448 1 1 1h1c.552 0 1-.448 1-1z"/><path d="m15 6.5c0-.133-.053-.26-.146-.354-.094-.093-.221-.146-.354-.146-.958 0-3.042 0-4 0-.133 0-.26.053-.354.146-.093.094-.146.221-.146.354s.053.26.146.354c.094.093.221.146.354.146h4c.133 0 .26-.053.354-.146.093-.094.146-.221.146-.354z"/><path d="m22 6.5c0-.133-.053-.26-.146-.354-.094-.093-.221-.146-.354-.146-.958 0-3.042 0-4 0-.133 0-.26.053-.354.146-.093.094-.146.221-.146.354s.053.26.146.354c.094.093.221.146.354.146h4c.133 0 .26-.053.354-.146.093-.094.146-.221.146-.354z"/><path d="m15 4.5c0-.133-.053-.26-.146-.354-.094-.093-.221-.146-.354-.146-.958 0-3.042 0-4 0-.133 0-.26.053-.354.146-.093.094-.146.221-.146.354s.053.26.146.354c.094.093.221.146.354.146h4c.133 0 .26-.053.354-.146.093-.094.146-.221.146-.354z"/><path d="m22 4.5c0-.133-.053-.26-.146-.354-.094-.093-.221-.146-.354-.146-.958 0-3.042 0-4 0-.133 0-.26.053-.354.146-.093.094-.146.221-.146.354s.053.26.146.354c.094.093.221.146.354.146h4c.133 0 .26-.053.354-.146.093-.094.146-.221.146-.354z"/></g></svg>