<svg clip-rule="evenodd" fill-rule="evenodd" stroke-linejoin="round" stroke-miterlimit="1.41421" viewBox="0 0 32 32" xmlns="http://www.w3.org/2000/svg"><metadata/><path d="m0 0v32h32v-32z" fill="none"/><path d="m10.463 11.777c-2.624 0-5.134 1.098-6.914 3.028-.208.225-1.385 1.5-1.385 1.5v2l3.672 3.39s.578-.624 1.387-1.5c0 0 .001-.001.002-.002.833-.904 2.006-1.416 3.238-1.416 1.23 0 2.399.512 3.234 1.414.002.002.003.003.004.004v.002c.003.004.009.005.012.008 1.78 1.922 4.283 3.018 6.902 3.018 2.623 0 5.132-1.097 6.912-3.026l.002-.002c1.284-1.39 2.307-2.5 2.307-2.5v-2l-3.672-3.39s-1.025 1.108-2.31 2.5v.002c-.834.903-2.007 1.416-3.239 1.416s-2.403-.513-3.238-1.418c-.001-.001-.001-.002-.002-.002-.002-.002-.004-.002-.006-.004-.001-.001-.001-.002-.002-.002-1.78-1.925-4.284-3.02-6.904-3.02z" fill="none" stroke="#000" stroke-width="4"/><g fill-rule="nonzero"><path d="m10.463 13.777c-2.624 0-5.134 1.098-6.914 3.028-.208.225-1.385-.5-1.385-.5v2l3.672 3.39s.578-.624 1.387-1.5c0 0 .001-.001.002-.002.833-.904 2.006-1.416 3.238-1.416 1.23 0 2.399.512 3.234 1.414.002.002.003.003.004.004v.002c.003.004.009.005.012.008 1.78 1.922 4.283 3.018 6.902 3.018 2.623 0 5.132-1.097 6.912-3.026l.002-.002c1.284-1.39 2.307-2.5 2.307-2.5v-2l-3.672-1.39s-1.025 1.108-2.31 2.5v.002c-.834.903-2.007 1.416-3.239 1.416s-2.403-.513-3.238-1.418c-.001-.001-.001-.002-.002-.002-.002-.002-.004-.002-.006-.004-.001-.001-.001-.002-.002-.002-1.78-1.925-4.284-3.02-6.904-3.02z" fill="#747474"/><path d="m10.463 11.777c-2.624 0-5.134 1.098-6.914 3.028-.808.875-1.385 1.5-1.385 1.5l3.672 3.39s.578-.624 1.387-1.5c0 0 .001-.001.002-.002.833-.904 2.006-1.416 3.238-1.416 1.23 0 2.399.512 3.234 1.414.002.002.003.003.004.004v.002c.003.004.009.005.012.008 1.78 1.922 4.283 3.018 6.902 3.018 2.623 0 5.132-1.097 6.912-3.026l.002-.002c1.284-1.39 2.307-2.5 2.307-2.5l-3.672-3.39s-1.025 1.108-2.31 2.5v.002c-.834.903-2.007 1.416-3.239 1.416s-2.403-.513-3.238-1.418c-.001-.001-.001-.002-.002-.002-.002-.002-.004-.002-.006-.004-.001-.001-.001-.002-.002-.002-1.78-1.925-4.284-3.02-6.904-3.02z" fill="#fff"/></g></svg>