<svg clip-rule="evenodd" fill-rule="evenodd" stroke-linejoin="round" stroke-miterlimit="2" viewBox="0 0 32 32" xmlns="http://www.w3.org/2000/svg" xmlns:xlink="http://www.w3.org/1999/xlink"><clipPath id="a"><path clip-rule="evenodd" d="m0 0h32v32h-32z"/></clipPath><metadata/><path d="m0 0h32v32h-32z" fill="none"/><g clip-path="url(#a)"><path d="m7.082 23.062c-.312-.23-.611-.477-.894-.741-.94-.875-1.71-1.931-2.253-3.094-.4-.857-.677-1.771-.82-2.707-.07-.461-.105-.925-.114-1.391-.007-1.086-.007-2.172 0-3.258.006-.34.025-.679.064-1.017.085-.741.253-1.473.501-2.177.508-1.444 1.353-2.763 2.448-3.832 1.008-.985 2.224-1.753 3.548-2.238.739-.27 1.51-.452 2.292-.542.338-.039.677-.058 1.017-.064.13-.001.129-.001.258 0 .34.006.679.025 1.017.064.782.089 1.553.272 2.292.542 1.324.485 2.539 1.253 3.548 2.238 1.095 1.069 1.94 2.388 2.448 3.832.248.704.416 1.436.501 2.177.039.338.058.677.064 1.017.007 1.086.007 2.172 0 3.258-.007.382-.031.763-.079 1.142-.104.82-.311 1.627-.614 2.396-.043.108-.088.216-.134.322.7 0 1.399.003 2.099.012.263.01.523.039.78.097.445.1.872.277 1.258.521.166.105.322.223.473.35l.035.031h4.183c0 .701.008 1.402-.001 2.102-.005.136-.014.27-.031.405-.042.329-.124.652-.246.96-.224.568-.58 1.083-1.032 1.494-.406.369-.888.653-1.407.829-.411.138-.838.205-1.27.21h-2.013v6h-7-17c0-.717-.012-1.454.002-2.18.01-.296.034-.591.079-.884.095-.626.277-1.24.538-1.818.509-1.126 1.32-2.109 2.327-2.826.46-.326.958-.594 1.481-.804.532-.213 1.089-.353 1.655-.426z"/><path d="m18 30h-15s0-.001 0-.002c0-1.326.527-2.597 1.464-3.534.769-.769 1.763-1.262 2.828-1.414 1.124 1.581 8.221 1.762 10.708.541l1.516 2.409z" fill="#999"/><path d="m18 25.591c.32-.157.564-.338.709-.541 2.425.344 4.291 2.429 4.291 4.95h-5z" fill="#333"/><path d="m18 25 .311.262-.311.635c-1.271 1.298-3.042 2.103-5 2.103-2.355 0-4.439-1.165-5.708-2.95.232-.033.468-.05.706-.05z" fill="#4d4d4d"/><path d="m18 25c.241 0 .477.017.709.05-.214.301-.451.584-.709.847z" fill="#1a1a1a"/><path d="m21 12c0-4.418-3.582-8-8-8-4.418 0-8 3.582-8 8v3c0 4.418 3.582 8 8 8 4.418 0 8-3.582 8-8z" fill="#4d4d4d"/><path d="m19 12.5c0-.398-.158-.779-.439-1.061-.282-.281-.663-.439-1.061-.439s-.779.158-1.061.439c-.281.282-.439.663-.439 1.061v1c0 .398.158.779.439 1.061.282.281.663.439 1.061.439s.779-.158 1.061-.439c.281-.282.439-.663.439-1.061 0-.327 0-.673 0-1zm-9 0c0-.398-.158-.779-.439-1.061-.282-.281-.663-.439-1.061-.439s-.779.158-1.061.439c-.281.282-.439.663-.439 1.061v1c0 .398.158.779.439 1.061.282.281.663.439 1.061.439s.779-.158 1.061-.439c.281-.282.439-.663.439-1.061 0-.327 0-.673 0-1z"/><path d="m20 30v-7c0-.53.211-1.039.586-1.414s.884-.586 1.414-.586h2.172c.53 0 1.039.211 1.414.586.218.218.414.414.414.414h3c0 1.105-.895 2-2 2-1.745 0-4 0-4 0v6z" fill="#4d4d4d"/></g></svg>