<svg clip-rule="evenodd" fill-rule="evenodd" stroke-linecap="round" stroke-linejoin="round" stroke-miterlimit="1.5" viewBox="0 0 32 32" xmlns="http://www.w3.org/2000/svg"><metadata/><path d="m0 0h32v32h-32z" fill="none"/><path d="m21 21 9-4v9l-9 4zm-5.782-17.553c-.142-.459-.218-.945-.218-1.446 0-.001 0-.001 0-.001s.449.09 1.079.216c1.175.235 2.181.881 2.879 1.77l6.042 2.014v8.857l5 2.143-9 4v9l-7-3v-3l-3 3-9-2v-9l5-5 2 .444v-1.249c-.085-.014-.169-.029-.254-.046-.449-.09-.746-.149-.746-.149l1-1.333v-1.667l2.85-1.629c-.913-.848-1.571-1.978-1.83-3.273-.013-.063-.02-.098-.02-.098s.498.1 1.18.236c1.228.246 2.323.852 3.169 1.707l.869-.496z" fill="none" stroke="#000" stroke-width="4"/><path d="m10.431 17.533 4.463-4.283 1.106-.25v9l-5 5-.792-1.034z" fill="#c0b08a"/><path d="m11 17.208-7.949-1.492-1.051.284v9l9 2z" fill="#d6ceb0"/><path d="m11 18-9-2 5-5 9 2z" fill="#ede9db"/><path d="m21 30-.914-1.474.63-8.823 7.367-2.95 1.917.247v9z" fill="#c0b08a"/><path d="m21 20.169-5.476-2.116-1.524-.053v9l7 3z" fill="#d6ceb0"/><path d="m21 21-7-3 9-4 7 3z" fill="#ede9db"/><path d="m18.104 9.232 5.78-3.14 1.116-.092v9l-7 4-.681-1.36-.087-7.178z" fill="#c0b08a"/><path d="m18 9.024-8.215-2.169-.785.145v9l9 3z" fill="#d6ceb0"/><path d="m18 10-9-3 7-4 9 3-6.174 3.528z" fill="#ede9db"/><path d="m15.4 7-.168.28c-1.339 2.231-3.935 3.379-6.486 2.869-.449-.09-.746-.149-.746-.149s.535-.713 1.153-1.538c.913-1.217 2.233-2.04 3.696-2.338-1.427-.862-2.484-2.297-2.829-4.026-.013-.063-.02-.098-.02-.098s.498.1 1.18.236c2.063.413 3.752 1.843 4.514 3.764h1.39c-1.273-.89-2.084-2.365-2.084-3.999 0-.001 0-.001 0-.001s.449.09 1.079.216c1.945.389 3.426 1.903 3.818 3.784h1.103v1h-2.1c-.463 2.282-2.481 4-4.9 4s.04-.16.104-.417c.371-1.482 1.27-2.746 2.49-3.583z" fill="#73a538"/></svg>