<svg clip-rule="evenodd" fill-rule="evenodd" stroke-linejoin="round" stroke-miterlimit="1.41421" viewBox="0 0 32 32" xmlns="http://www.w3.org/2000/svg" xmlns:xlink="http://www.w3.org/1999/xlink"><clipPath id="a"><path clip-rule="evenodd" d="m0 0h32v32h-32z"/></clipPath><metadata/><path d="m0 0h32v32h-32z" fill="none"/><g clip-path="url(#a)"><path d="m32 8c0-4.418-3.582-8-8-8-4.887 0-11.113 0-16 0-4.418 0-8 3.582-8 8v16c0 4.418 3.582 8 8 8h16c4.418 0 8-3.582 8-8 0-4.887 0-11.113 0-16z"/><path d="m30 8c0-1.591-.632-3.117-1.757-4.243-1.126-1.125-2.652-1.757-4.243-1.757-4.724 0-11.276 0-16 0-1.591 0-3.117.632-4.243 1.757-1.125 1.126-1.757 2.652-1.757 4.243v16c0 1.591.632 3.117 1.757 4.243 1.126 1.125 2.652 1.757 4.243 1.757h16c1.591 0 3.117-.632 4.243-1.757 1.125-1.126 1.757-2.652 1.757-4.243 0-4.724 0-11.276 0-16z" fill="#334cec"/><path d="m20 27h-8l.972-3.888c-1.596-1.014-2.722-2.804-2.935-4.89.332 1 2.877 1.778 5.963 1.778s5.631-.778 5.963-1.778c-.213 2.086-1.339 3.876-2.935 4.89zm-4-10c2.208 0 4 .448 4 1s-1.792 1-4 1-4-.448-4-1 1.792-1 4-1zm6-10c0-.552-.448-1-1-1-2.26 0-7.74 0-10 0-.552 0-1 .448-1 1v8c0 .552.448 1 1 1h10c.552 0 1-.448 1-1 0-1.916 0-6.084 0-8zm-7 1c0-.552-.448-1-1-1-.796 0-1.877 0-2.5 0-.133 0-.26.053-.354.146-.093.094-.146.221-.146.354s.053.26.146.354c.094.093.221.146.354.146h1.5v.001c0 .552.447.999.999.999h.001c.552 0 1-.448 1-1z" fill="#fff"/></g></svg>