<svg clip-rule="evenodd" fill-rule="evenodd" stroke-linecap="square" stroke-linejoin="round" stroke-miterlimit="1.5" viewBox="0 0 32 32" xmlns="http://www.w3.org/2000/svg"><metadata/><path d="m0 0h32v32h-32z" fill="none"/><path d="m13 7h2v-5h2v5h2v2h-.857l.571 8h2.286v3h-1.934c.274 1.136.747 2.219 1.4 3.199l4.534 6.801h-2s-1.169-1.169-2.243-2.243c-1.125-1.125-2.651-1.757-4.242-1.757-.34 0-.69 0-1.03 0-1.591 0-3.117.632-4.242 1.757l-2.243 2.243h-2s2.758-4.137 4.534-6.801c.653-.98 1.126-2.063 1.4-3.199h-1.934v-3h2.286l.571-8h-.857z" fill="none" stroke="#000" stroke-width="4"/><g fill="#e02a33"><path d="m15 2h2v6h-2z"/><path d="m18.571 15 .241 3.364c.123 1.728.693 3.394 1.654 4.835l4.534 6.801h-2s-1.169-1.169-2.243-2.243c-1.125-1.125-2.651-1.757-4.242-1.757-.34 0-.69 0-1.03 0-1.591 0-3.117.632-4.242 1.757l-2.243 2.243h-2s2.758-4.137 4.534-6.801c.961-1.441 1.531-3.107 1.654-4.835l.241-3.364.571-1h4z"/><path d="m18.429 13-.429 1h-4l-.429-1 .143-2 .286-1h4l.286 1z"/></g><path d="m18.571 15h-5.142l.142-2h4.858z" fill="#fff"/><path d="m13.929 8h4.142l.215 3h-4.572z" fill="#fff"/><path d="m11 17h10v3h-10z" fill="#fff"/><path d="m13 7h6v2h-6z" fill="#b5232a"/></svg>