<svg clip-rule="evenodd" fill-rule="evenodd" stroke-linejoin="round" stroke-miterlimit="7" viewBox="0 0 32 32" xmlns="http://www.w3.org/2000/svg" xmlns:xlink="http://www.w3.org/1999/xlink"><clipPath id="a"><path clip-rule="evenodd" d="m0 0h32v32h-32z"/></clipPath><metadata/><path d="m0 0h32v32h-32z" fill="none"/><g clip-path="url(#a)"><path d="m27.828 7-22.828 22.828-4.828-4.828 22.828-22.828z" fill-rule="nonzero"/><path d="m22 6 8 8s-.33.247-.8.6c-2.077 1.558-4.604 2.4-7.2 2.4v-6h-1l-2-2z" fill="none" stroke="#000" stroke-width="4"/><path d="m3 25 2 2 16-16v-2h-2z" fill="#6e4d31"/><path d="m22 6 1-1 2 2-1 1h-2z" fill="#77a0b4"/><path d="m22 6 8 8s-.33.247-.8.6c-2.077 1.558-4.604 2.4-7.2 2.4v-6h-1l-2-2z" fill="#d1dee1"/></g></svg>