<svg clip-rule="evenodd" fill-rule="evenodd" stroke-linejoin="round" stroke-miterlimit="1.41421" viewBox="0 0 32 32" xmlns="http://www.w3.org/2000/svg" xmlns:xlink="http://www.w3.org/1999/xlink"><clipPath id="a"><path clip-rule="evenodd" d="m0 0h32v32h-32z"/></clipPath><metadata/><path d="m0 0h32v32h-32z" fill="none"/><g clip-path="url(#a)"><path d="m32 22c0-1.591-.632-3.117-1.757-4.243-1.126-1.125-2.652-1.757-4.243-1.757-5.718 0-14.282 0-20 0-3.314 0-6 2.686-6 6v4c0 1.591.632 3.117 1.757 4.243 1.126 1.125 2.652 1.757 4.243 1.757h20c1.591 0 3.117-.632 4.243-1.757 1.125-1.126 1.757-2.652 1.757-4.243 0-1.308 0-2.692 0-4z"/><path d="m15 9.621-3.5 3.5-2.121-2.121v-2l7.121-7.121 7.121 7.121v2l-2.121 2.121-3.5-3.5v12.379h-3z" fill="none" stroke="#000" stroke-width="4"/><path d="m15 9.621-3.5 3.5-2.121-2.121v-2l7.121-4.121 7.121 4.121v2l-2.121 2.121-3.5-3.5-1 .379 1 4v2h-3v-2l1-4z" fill="#747474" fill-rule="nonzero"/><path d="m15 7.621-3.5 3.5-2.121-2.121 7.121-7.121 7.121 7.121-2.121 2.121-3.5-3.5v6.379h-3z" fill="#fff" fill-rule="nonzero"/><path d="m30 22c0-1.061-.421-2.078-1.172-2.828-.75-.751-1.767-1.172-2.828-1.172-5.322 0-14.678 0-20 0-1.061 0-2.078.421-2.828 1.172-.751.75-1.172 1.767-1.172 2.828v4c0 1.061.421 2.078 1.172 2.828.75.751 1.767 1.172 2.828 1.172h20c1.061 0 2.078-.421 2.828-1.172.751-.75 1.172-1.767 1.172-2.828 0-1.287 0-2.713 0-4z" fill="#666"/><g fill="#fff" fill-rule="nonzero"><path d="m11.927 21.423h-2.319v6.454h-1.468v-6.454h-2.319v-1.277h6.106z"/><path d="m13.115 27.148c-.56-.567-.84-1.415-.84-2.543v-1.21c0-1.128.285-1.976.857-2.543.571-.568 1.361-.852 2.369-.852.994 0 1.774.284 2.342.852.568.567.852 1.415.852 2.543v1.21c0 1.12-.29 1.966-.869 2.538-.579.571-1.368.857-2.369.857s-1.782-.284-2.342-.852zm4.112-2.565v-1.11c0-1.456-.575-2.184-1.726-2.184-.59 0-1.029.179-1.316.537-.288.359-.431.908-.431 1.647v1.11c0 .709.143 1.236.431 1.579.287.344.726.516 1.316.516 1.151 0 1.726-.699 1.726-2.095z"/><path d="m25.232 20.773c.49.418.734 1.016.734 1.793 0 .747-.244 1.329-.734 1.748-.489.418-1.185.627-2.089.627h-1.815v2.936h-1.468v-7.731h3.339c.866 0 1.544.209 2.033.627zm-.733 1.782c0-.381-.109-.665-.325-.852-.217-.187-.523-.28-.919-.28h-1.927v2.23h1.927c.829 0 1.244-.366 1.244-1.098z"/></g></g></svg>