<svg clip-rule="evenodd" fill-rule="evenodd" stroke-linecap="round" stroke-miterlimit="3" viewBox="0 0 32 32" xmlns="http://www.w3.org/2000/svg" xmlns:xlink="http://www.w3.org/1999/xlink"><clipPath id="a"><path clip-rule="evenodd" d="m0 0h32v32h-32z"/></clipPath><metadata/><path d="m0 0h32v32h-32z" fill="none"/><g clip-path="url(#a)"><path d="m16.667 30h13.333s0-7.74 0-14.24c0-4.838-3.922-8.76-8.76-8.76-.001 0-.002 0-.002 0-1.433 0-2.807.569-3.82 1.582-.722.722-1.418 1.418-1.418 1.418l-2 5v3h3s.183.122.458.305c1.501 1.001 2.146 2.882 1.576 4.593-.984 2.953-2.367 7.102-2.367 7.102z" fill="none" stroke="#000" stroke-width="4"/><path d="m2.075 19.962s0 0 0-.001c-.02-2.89 1.114-5.669 3.151-7.719 2.037-2.051 4.807-3.204 7.697-3.204h4.077v3l1 1s-.043 2.618-.067 4.101c-.009.55-.461.989-1.011.983-1.691-.019-5.192-.058-7.776-.087-2.068-.023-4.111.447-5.96 1.372-.627.314-1.111.555-1.111.555z" fill="none" stroke="#000" stroke-linejoin="round" stroke-width="4"/><path d="m18.107 8c.908-.646 2.001-1 3.131-1h.002c4.838 0 8.76 3.922 8.76 8.76v14.24h-13.333l.933-2.8c.688.516 1.4-1.2 1.4-1.2s1.797-15.526-.893-18z" fill="#333"/><path d="m18.107 8h2.822c1.326 0 2.598.527 3.535 1.464.653.653 1.419 1.419 2.072 2.072.937.937 1.464 2.209 1.464 3.535v8.929c0 1.061-.421 2.078-1.172 2.828-.75.751-1.767 1.172-2.828 1.172-1.287 0-2.713 0-4 0-.87 0-1.712-.284-2.4-.8l1.434-4.302c.57-1.711-.075-3.592-1.576-4.593l-.458-.305h-3v-3l2-5s.696-.696 1.418-1.418c.214-.214.445-.409.689-.582z" fill="#fff"/><path d="m6 15.283 11-1.283.98 1-.043 2.143c-.011.548-.462.985-1.011.979-1.689-.019-5.194-.058-7.78-.087-1.324-.015-2.637.173-3.896.552l.005-.002z" fill="#e7570f"/><path d="m2.377 17.343c.462-1.913 1.439-3.682 2.849-5.101 2.037-2.051 4.807-3.204 7.697-3.204h4.077v1.641c0 .213.034.424.1.626.21.635.687 2.085.847 2.57.035.108.052.22.05.333l-.017.792h-7.619c-.798 0-1.591.096-2.361.283 0 0-3.949-.693-5.061.361-.233.549-.421 1.117-.562 1.699z" fill="#faab22"/><path d="m8 14v1.846c0 .714-.381 1.374-1 1.731l-1.745 1.008c-.709.214-1.402.488-2.069.822-.627.314-1.111.555-1.111.555s0 0 0-.001c-.01-1.498.29-2.965.864-4.317 1.112-1.054 2.588-1.644 4.126-1.644z" fill="#2a283e"/><circle cx="21.5" cy="11.5" r="1.5"/></g></svg>