<svg clip-rule="evenodd" fill-rule="evenodd" stroke-linecap="square" stroke-linejoin="round" stroke-miterlimit="1.5" viewBox="0 0 32 32" xmlns="http://www.w3.org/2000/svg" xmlns:xlink="http://www.w3.org/1999/xlink"><clipPath id="a"><path clip-rule="evenodd" d="m0 0h32v32h-32z"/></clipPath><metadata/><path d="m0 0h32v32h-32z" fill="none"/><g clip-path="url(#a)"><path d="m5 6c0-1.061.421-2.078 1.172-2.828.75-.751 1.767-1.172 2.828-1.172h14c1.061 0 2.078.421 2.828 1.172.751.75 1.172 1.767 1.172 2.828v17c0 3.866-3.134 7-7 7h-8c-3.866 0-7-3.134-7-7z" fill="none" stroke="#000" stroke-width="4"/><path d="m5 6c0-1.061.421-2.078 1.172-2.828.75-.751 1.767-1.172 2.828-1.172h14c1.061 0 2.078.421 2.828 1.172.751.75 1.172 1.767 1.172 2.828v17c0 3.866-3.134 7-7 7h-8c-3.866 0-7-3.134-7-7z" fill="#ccc"/><g fill="#f2f2f2"><path d="m15 12c0-.265-.105-.52-.293-.707-.187-.188-.442-.293-.707-.293-1.732 0-5.268 0-7 0-.265 0-.52.105-.707.293-.188.187-.293.442-.293.707v3c0 1.061.421 2.078 1.172 2.828.75.751 1.767 1.172 2.828 1.172h4c.265 0 .52-.105.707-.293.188-.187.293-.442.293-.707 0-1.537 0-4.463 0-6z"/><path d="m17 12c0-.265.105-.52.293-.707.187-.188.442-.293.707-.293h7c.265 0 .52.105.707.293.188.187.293.442.293.707v3c0 1.061-.421 2.078-1.172 2.828-.75.751-1.767 1.172-2.828 1.172h-4c-.265 0-.52-.105-.707-.293-.188-.187-.293-.442-.293-.707 0-1.537 0-4.463 0-6z"/><path d="m14 9c.265 0 .52-.105.707-.293.188-.187.293-.442.293-.707 0-1.11 0-2.89 0-4 0-.265-.105-.52-.293-.707-.187-.188-.442-.293-.707-.293-.976 0-2.524 0-4 0-1.061 0-2.078.421-2.828 1.172-.751.75-1.172 1.767-1.172 2.828v1c0 .265.105.52.293.707.187.188.442.293.707.293z"/><path d="m18 9c-.265 0-.52-.105-.707-.293-.188-.187-.293-.442-.293-.707 0-1.11 0-2.89 0-4 0-.265.105-.52.293-.707.187-.188.442-.293.707-.293h4c1.061 0 2.078.421 2.828 1.172.751.75 1.172 1.767 1.172 2.828v1c0 .265-.105.52-.293.707-.187.188-.442.293-.707.293-1.732 0-5.268 0-7 0z"/></g><circle cx="16" cy="10" fill="#999" r="7"/><circle cx="16" cy="10" fill="#e02a33" r="6"/><ellipse cx="16" cy="7" fill="#f6676e" rx="2.5" ry="2"/></g></svg>