<svg clip-rule="evenodd" fill-rule="evenodd" stroke-linecap="round" stroke-linejoin="round" stroke-miterlimit="1.5" viewBox="0 0 32 32" xmlns="http://www.w3.org/2000/svg" xmlns:xlink="http://www.w3.org/1999/xlink"><clipPath id="a"><path clip-rule="evenodd" d="m0 0h32v32h-32z"/></clipPath><metadata/><path d="m0 0h32v32h-32z" fill="none"/><g clip-path="url(#a)"><path d="m30 11c0-1.657-1.343-3-3-3-5.382 0-16.618 0-22 0-1.657 0-3 1.343-3 3v8c0 1.657 1.343 3 3 3h22c1.657 0 3-1.343 3-3 0-2.362 0-5.638 0-8z" fill="none" stroke="#000" stroke-width="4"/><path d="m30 11c0-1.657-1.343-3-3-3-5.382 0-16.618 0-22 0-1.657 0-3 1.343-3 3v8c0 1.657 1.343 3 3 3h22c1.657 0 3-1.343 3-3 0-2.362 0-5.638 0-8z" fill="#404040"/><path d="m27 8 .077.001.077.003.077.005.076.006.075.009.075.011.074.012.074.014.073.016.072.017.071.02.071.021.07.023.07.024.068.026.068.028.067.029.066.031.065.032.064.034.063.035.063.037.061.039.06.039.06.041.058.043.057.044.056.045.055.047.054.047.053.049.051.051.051.051.049.053.047.054.047.055.045.056.044.057.043.058.041.06.039.06.039.061.037.063.035.063.034.064.032.065.031.066.029.067.028.068.026.068.024.07.023.07.021.071.02.071.017.072.016.073.014.074.012.074.011.075.009.075.006.076.005.077.003.077.001.077v8l-.001.077-.003.077-.005.077-.006.076-.009.075-.011.075-.012.074-.014.074-.016.073-.017.072-.02.071-.021.071-.023.07-.024.07-.026.068-.028.068-.029.067-.031.066-.032.065-.034.064-.035.063-.037.063-.039.061-.039.06-.041.06-.043.058-.044.057-.045.056-.047.055-.047.054-.049.053-.051.051-.051.051-.053.049-.054.047-.055.047-.056.045-.057.044-.058.043-.06.041-.06.039-.061.039-.063.037-.063.035-.064.034-.065.032-.066.031-.067.029-.068.028-.068.026-.07.024-.07.023-.071.021-.071.02-.072.017-.073.016-.074.014-.074.012-.075.011-.075.009-.076.006-.077.005-.077.003-.077.001h-22l-.077-.001-.077-.003-.077-.005-.076-.006-.075-.009-.075-.011-.074-.012-.074-.014-.073-.016-.072-.017-.071-.02-.071-.021-.07-.023-.07-.024-.068-.026-.068-.028-.067-.029-.066-.031-.065-.032-.064-.034-.063-.035-.063-.037-.061-.039-.06-.039-.06-.041-.058-.043-.057-.044-.056-.045-.055-.047-.054-.047-.053-.049-.051-.051-.051-.051-.049-.053-.047-.054-.047-.055-.045-.056-.044-.057-.043-.058-.041-.06-.039-.06-.039-.061-.037-.063-.035-.063-.034-.064-.032-.065-.031-.066-.029-.067-.028-.068-.026-.068-.024-.07-.023-.07-.021-.071-.02-.071-.017-.072-.016-.073-.014-.074-.012-.074-.011-.075-.009-.075-.006-.076-.005-.077-.003-.077-.001-.077v-8l.001-.077.003-.077.005-.077.006-.076.009-.075.011-.075.012-.074.014-.074.016-.073.017-.072.02-.071.021-.071.023-.07.024-.07.026-.068.028-.068.029-.067.031-.066.032-.065.034-.064.035-.063.037-.063.039-.061.039-.06.041-.06.043-.058.044-.057.045-.056.047-.055.047-.054.049-.053.051-.051.051-.051.053-.049.054-.047.055-.047.056-.045.057-.044.058-.043.06-.041.06-.039.061-.039.063-.037.063-.035.064-.034.065-.032.066-.031.067-.029.068-.028.068-.026.07-.024.07-.023.071-.021.071-.02.072-.017.073-.016.074-.014.074-.012.075-.011.075-.009.076-.006.077-.005.077-.003.077-.001zm-21.994 1-.058.001-.052.002-.051.003-.051.004-.05.006-.05.007-.049.008-.049.01-.049.01-.048.012-.047.013-.047.014-.047.015-.046.016-.045.017-.045.019-.045.019-.044.021-.043.021-.043.023-.042.023-.041.025-.041.026-.04.026-.04.028-.039.028-.038.029-.038.03-.036.031-.037.032-.035.033-.034.034-.034.034-.033.036-.032.036-.031.036-.03.038-.029.038-.028.039-.028.039-.026.041-.026.041-.025.041-.023.042-.023.043-.021.043-.021.044-.019.045-.019.045-.017.045-.016.046-.015.047-.014.047-.013.047-.012.048-.01.049-.01.049-.008.049-.007.05-.006.05-.004.051-.003.051-.002.052-.001.058v7.988l.001.058.002.052.003.051.004.051.006.05.007.05.008.049.01.049.01.049.012.048.013.047.014.047.015.047.016.046.017.045.019.045.019.045.021.044.021.043.023.043.023.042.025.041.026.041.026.04.028.04.028.039.029.038.03.038.031.036.032.036.033.036.034.034.034.034.036.033.036.032.036.031.038.03.038.029.039.029.04.027.04.026.041.026.041.025.042.023.043.023.043.021.044.021.045.019.045.019.045.017.046.016.047.015.047.014.047.013.048.012.049.01.049.01.049.008.05.007.05.006.051.004.051.003.052.002.058.001h21.988l.058-.001.052-.002.051-.003.051-.004.05-.006.05-.007.049-.008.049-.01.049-.01.048-.012.047-.013.047-.014.047-.015.046-.016.045-.017.045-.019.045-.019.044-.021.043-.021.043-.023.042-.023.041-.025.041-.026.04-.026.04-.028.039-.028.038-.029.038-.03.036-.031.036-.032.036-.033.034-.034.034-.034.033-.036.032-.036.031-.036.03-.038.029-.038.028-.039.028-.04.026-.04.026-.041.025-.041.023-.042.023-.043.021-.043.021-.044.019-.045.019-.045.017-.045.016-.046.015-.047.014-.047.013-.047.012-.048.01-.049.01-.049.008-.049.007-.05.006-.05.004-.051.003-.051.002-.052.001-.058v-7.988l-.001-.058-.002-.052-.003-.051-.004-.051-.006-.05-.007-.05-.008-.049-.01-.049-.01-.049-.012-.048-.013-.047-.014-.047-.015-.047-.016-.046-.017-.045-.019-.045-.019-.045-.021-.044-.021-.043-.023-.043-.023-.042-.025-.041-.026-.041-.026-.041-.028-.039-.028-.039-.029-.038-.03-.038-.031-.036-.032-.036-.033-.036-.034-.034-.034-.034-.035-.033-.037-.032-.036-.031-.038-.03-.038-.029-.039-.028-.04-.028-.04-.026-.041-.026-.041-.025-.042-.023-.043-.023-.043-.021-.044-.021-.045-.019-.045-.019-.045-.017-.046-.016-.047-.015-.047-.014-.047-.013-.048-.012-.049-.01-.049-.01-.049-.008-.05-.007-.05-.006-.051-.004-.051-.003-.052-.002-.058-.001z" fill="#a7a7a7"/><circle cx="8" cy="15" fill="#ff2626" r="3"/><circle cx="16" cy="15" fill="#ffc117" r="3"/><circle cx="24" cy="15" fill="#40ca00" r="3"/></g></svg>