<svg clip-rule="evenodd" fill-rule="evenodd" stroke-linecap="square" stroke-linejoin="round" stroke-miterlimit="1.5" viewBox="0 0 32 32" xmlns="http://www.w3.org/2000/svg" xmlns:xlink="http://www.w3.org/1999/xlink"><clipPath id="a"><path clip-rule="evenodd" d="m0 0h32v32h-32z"/></clipPath><metadata/><path d="m0 0h32v32h-32z" fill="none"/><g clip-path="url(#a)"><path d="m28 10c0-1.061-.421-2.078-1.172-2.828-.75-.751-1.767-1.172-2.828-1.172-4.439 0-11.561 0-16 0-1.061 0-2.078.421-2.828 1.172-.751.75-1.172 1.767-1.172 2.828v22h24z"/><g fill="none" stroke="#000"><path d="m16 9v-3" stroke-width="5.5"/><path d="m12 3 4 3 4-3" stroke-linecap="round" stroke-width="5.5"/><path d="m12.243 2c-.796 0-1.559.316-2.122.879-.537.537-1.121 1.121-1.121 1.121l1 1s.874-.656 1.467-1.1c.346-.26.767-.4 1.2-.4h6.666c.433 0 .854.14 1.2.4.541.405 1.316.986 1.448 1.085.011.009.026.008.036-.002.132-.132.983-.983.983-.983s-.584-.584-1.121-1.121c-.563-.563-1.326-.879-2.122-.879-1.921 0-5.593 0-7.514 0z" stroke-linecap="round" stroke-width="4"/></g><path d="m2 26h28v6h-28z"/><path d="m4 28h24v2h-24z" fill="#666"/><path d="m6 22h20v5h-20z" fill="#3f3f3f"/><path d="m16 9v-3" fill="none" stroke="#666" stroke-width="1.5"/><path d="m12 3 4 3 4-3" fill="none" stroke="#666" stroke-linecap="round" stroke-width="1.5"/><path d="m12.243 2c-.796 0-1.559.316-2.122.879-.537.537-1.121 1.121-1.121 1.121l1 1s.874-.656 1.467-1.1c.346-.26.767-.4 1.2-.4h6.666c.433 0 .854.14 1.2.4.541.405 1.316.986 1.448 1.085.011.009.026.008.036-.002.132-.132.983-.983.983-.983s-.584-.584-1.121-1.121c-.563-.563-1.326-.879-2.122-.879-1.921 0-5.593 0-7.514 0z" fill="#999"/><path d="m6.004 22c-.003-.044-.004-.088-.004-.132v-4.868l1-1-1-1s0-2.931 0-5c0-.53.211-1.039.586-1.414s.884-.586 1.414-.586h16c.53 0 1.039.211 1.414.586s.586.884.586 1.414v5l-1 1 1 1v4.868c0 .044-.001.088-.004.132l-6.996 4h-6z" fill="#e6e6e6"/><path d="m25.996 22c-.043.651-.403 1.244-.967 1.583-.812.487-1.974 1.184-2.841 1.704-.778.467-1.667.713-2.573.713h-.615l1.171-2.342c.508-1.016 1.547-1.658 2.683-1.658zm-19.992 0h3.142c1.136 0 2.175.642 2.683 1.658l1.171 2.342h-.615c-.906 0-1.795-.246-2.573-.713-.867-.52-2.029-1.217-2.841-1.704-.564-.339-.924-.932-.967-1.583z" fill="#777"/><circle cx="10" cy="24" fill="#d9d9d9" r="1"/><circle cx="22" cy="24" fill="#d9d9d9" r="1"/><path d="m6 15h20v2h-20z" fill="#ffdb38"/><path d="m25 12-1-1h-16l-1 1v8c0 .265.105.52.293.707.187.188.442.293.707.293h16c.265 0 .52-.105.707-.293.188-.187.293-.442.293-.707 0-2.345 0-8 0-8z"/><path d="m25 10c0-.552-.448-1-1-1h-16c-.265 0-.52.105-.707.293-.188.187-.293.442-.293.707v2h18z" fill="#454545"/><path d="m12 10h6v1h-6z" fill="#e9a620"/><path d="m19 10h1v1h-1z" fill="#e9a620"/></g></svg>