<svg clip-rule="evenodd" fill-rule="evenodd" stroke-linecap="round" stroke-miterlimit="1.5" viewBox="0 0 32 32" xmlns="http://www.w3.org/2000/svg" xmlns:xlink="http://www.w3.org/1999/xlink"><clipPath id="a"><path clip-rule="evenodd" d="m0 0h32v32h-32z"/></clipPath><clipPath id="b"><path clip-rule="evenodd" d="m26 9c0-.265-.105-.52-.293-.707-.187-.188-.442-.293-.707-.293-3.414 0-14.586 0-18 0-.265 0-.52.105-.707.293-.188.187-.293.442-.293.707v11l1 1-1 1v4c0 .265.105.52.293.707.187.188.442.293.707.293h18c.265 0 .52-.105.707-.293.188-.187.293-.442.293-.707 0-1.459 0-4 0-4l-1-1 1-1z"/></clipPath><metadata/><path d="m0 0h32v32h-32z" fill="none"/><g clip-path="url(#a)"><path d="m28 9c0-1.657-1.343-3-3-3h-18c-1.657 0-3 1.343-3 3v23h24z"/><g fill="none" stroke="#000"><path d="m6 28h20v2h-20z" stroke-width="4"/><path d="m16 9v-3" stroke-linecap="square" stroke-linejoin="round" stroke-width="5.5"/><path d="m12 3 4 3 4-3" stroke-linejoin="round" stroke-width="5.5"/><path d="m12.243 2c-.796 0-1.559.316-2.122.879-.537.537-1.121 1.121-1.121 1.121l1 1s.874-.656 1.467-1.1c.346-.26.767-.4 1.2-.4h6.666c.433 0 .854.14 1.2.4.541.405 1.316.986 1.448 1.085.011.009.026.008.036-.002.132-.132.983-.983.983-.983s-.584-.584-1.121-1.121c-.563-.563-1.326-.879-2.122-.879-1.921 0-5.593 0-7.514 0z" stroke-linejoin="round" stroke-width="4"/></g><path d="m2 26h28v6h-28z"/><path d="m16 9v-3" fill="none" stroke="#666" stroke-linecap="square" stroke-linejoin="round" stroke-width="1.5"/><path d="m12 3 4 3 4-3" fill="none" stroke="#666" stroke-linejoin="round" stroke-width="1.5"/><path d="m12.243 2c-.796 0-1.559.316-2.122.879-.537.537-1.121 1.121-1.121 1.121l1 1s.874-.656 1.467-1.1c.346-.26.767-.4 1.2-.4h6.666c.433 0 .854.14 1.2.4.541.405 1.316.986 1.448 1.085.011.009.026.008.036-.002.132-.132.983-.983.983-.983s-.584-.584-1.121-1.121c-.563-.563-1.326-.879-2.122-.879-1.921 0-5.593 0-7.514 0z" fill="#999"/><path d="m4 28h24v2h-24z" fill="#666"/><path d="m26 9c0-.265-.105-.52-.293-.707-.187-.188-.442-.293-.707-.293-3.414 0-14.586 0-18 0-.265 0-.52.105-.707.293-.188.187-.293.442-.293.707v11l1 1-1 1v4c0 .265.105.52.293.707.187.188.442.293.707.293h18c.265 0 .52-.105.707-.293.188-.187.293-.442.293-.707 0-1.459 0-4 0-4l-1-1 1-1z" fill="#e6e6e6"/><g clip-path="url(#b)"><path d="m24 29h-16v-5h16zm-15-4v3h14v-3z" fill="#b3b3b3"/></g><path d="m6 20h20v2h-20z" fill="#af54bc"/><path d="m25 12v7c0 .552-.448 1-1 1-3.151 0-12.849 0-16 0-.552 0-1-.448-1-1v-7l1-1h16z"/><path d="m7 12v-2c0-.552.448-1 1-1h16c.552 0 1 .448 1 1v2z" fill="#454545"/><path d="m12 10h6v1h-6z" fill="#e9a620"/><path d="m19 10h1v1h-1z" fill="#e9a620"/><path d="m11 22c0-.552-.448-1-1-1-.611 0-1.389 0-2 0-.552 0-1 .448-1 1s.448 1 1 1h2c.552 0 1-.448 1-1z" fill="#404040"/><path d="m25 22c0-.552-.448-1-1-1-.611 0-1.389 0-2 0-.552 0-1 .448-1 1s.448 1 1 1h2c.552 0 1-.448 1-1z" fill="#404040"/></g></svg>