<svg clip-rule="evenodd" fill-rule="evenodd" stroke-linejoin="round" stroke-miterlimit="1.5" viewBox="0 0 32 32" xmlns="http://www.w3.org/2000/svg" xmlns:xlink="http://www.w3.org/1999/xlink"><clipPath id="a"><path clip-rule="evenodd" d="m0 0h32v32h-32z"/></clipPath><clipPath id="b"><path clip-rule="evenodd" d="m30 10-1-1h-26l-1 1v10l1 1-1 1v4c0 .552.448 1 1 1h26c.552 0 1-.448 1-1 0-1.459 0-4 0-4l-1-1 1-1z"/></clipPath><metadata/><path d="m0 0h32v32h-32z" fill="none"/><g clip-path="url(#a)"><path d="m32 9c0-.796-.316-1.559-.879-2.121-.562-.563-1.325-.879-2.121-.879h-26c-.796 0-1.559.316-2.121.879-.563.562-.879 1.325-.879 2.121v23h32z"/><path d="m15 9 6-3-6-3h-1" fill="none" stroke="#000" stroke-width="6"/><path d="m14 4-1 1h-1v-3h3v2z" fill="none" stroke="#000" stroke-linecap="round" stroke-width="4"/><path d="m2 28h28v2h-28z" fill="#666"/><path d="m15 9 6-3-6-3h-1" fill="none" stroke="#737373" stroke-linecap="square" stroke-width="2"/><path d="m14 4-1 1h-1v-3h3v2z" fill="#8c8c8c"/><path d="m30 10-1-1h-26l-1 1v10l1 1-1 1v4c0 .552.448 1 1 1h26c.552 0 1-.448 1-1 0-1.459 0-4 0-4l-1-1 1-1z" fill="#e6e6e6"/><g clip-path="url(#b)" fill="#b3b3b3"><path d="m10 29h-6v-5h6zm-5-4v3h4v-3z"/><path d="m28 29h-6v-5h6zm-5-4v3h4v-3z"/></g><path d="m30 9c0-.552-.448-1-1-1-4.355 0-21.645 0-26 0-.552 0-1 .448-1 1v1h28z" fill="#fff"/><path d="m2 20h28v2h-28z" fill="#af54bc"/><path d="m29 12c0-.265-.105-.52-.293-.707-.187-.188-.442-.293-.707-.293-4.134 0-19.866 0-24 0-.265 0-.52.105-.707.293-.188.187-.293.442-.293.707v7c0 .265.105.52.293.707.187.188.442.293.707.293h24c.265 0 .52-.105.707-.293.188-.187.293-.442.293-.707 0-1.732 0-5.268 0-7z"/><path d="m19 10 .05.001.049.001.05.004.049.004.049.005.048.007.049.008.048.009.048.01.047.011.048.013.047.013.046.015.046.016.046.017.045.018.045.019.045.021.043.021.044.023.043.023.042.025.042.025.041.027.04.028.04.028.039.03.039.031.037.032.037.032.037.034.035.035.035.035.034.037.032.037.032.037.031.039.03.039.028.04.028.04.027.041.025.042.025.042.023.043.023.044.021.043.021.045.019.045.018.045.017.046.016.046.015.046.013.047.013.048.011.047.01.048.009.048.008.049.007.048.005.049.004.049.004.05.001.049.001.05v13l-.001.05-.001.049-.004.05-.004.049-.005.049-.007.048-.008.049-.009.048-.01.048-.011.047-.013.048-.013.047-.015.046-.016.046-.017.046-.018.045-.019.045-.021.045-.021.043-.023.044-.023.043-.025.042-.025.042-.027.041-.028.04-.028.04-.03.039-.031.039-.032.037-.032.037-.034.037-.035.035-.035.035-.037.034-.037.032-.037.032-.039.031-.039.03-.04.028-.04.028-.041.027-.042.025-.042.025-.043.023-.044.023-.043.021-.045.021-.045.019-.045.018-.046.017-.046.016-.046.015-.047.013-.048.013-.047.011-.048.01-.048.009-.049.008-.048.007-.049.005-.049.004-.05.004-.049.001-.05.001h-6l-.05-.001-.049-.001-.05-.004-.049-.004-.049-.005-.048-.007-.049-.008-.048-.009-.048-.01-.047-.011-.048-.013-.047-.013-.046-.015-.046-.016-.046-.017-.045-.018-.045-.019-.045-.021-.043-.021-.044-.023-.043-.023-.042-.025-.042-.025-.041-.027-.04-.028-.04-.028-.039-.03-.039-.031-.037-.032-.037-.032-.037-.034-.035-.035-.035-.035-.034-.037-.032-.037-.032-.037-.031-.039-.03-.039-.028-.04-.028-.04-.027-.041-.025-.042-.025-.042-.023-.043-.023-.044-.021-.043-.021-.045-.019-.045-.018-.045-.017-.046-.016-.046-.015-.046-.013-.047-.013-.048-.011-.047-.01-.048-.009-.048-.008-.049-.007-.048-.005-.049-.004-.049-.004-.05-.001-.049-.001-.05v-13l.001-.05.001-.049.004-.05.004-.049.005-.049.007-.048.008-.049.009-.048.01-.048.011-.047.013-.048.013-.047.015-.046.016-.046.017-.046.018-.045.019-.045.021-.045.021-.043.023-.044.023-.043.025-.042.025-.042.027-.041.028-.04.028-.04.03-.039.031-.039.032-.037.032-.037.034-.037.035-.035.035-.035.037-.034.037-.032.037-.032.039-.031.039-.03.04-.028.04-.028.041-.027.042-.025.042-.025.043-.023.044-.023.043-.021.045-.021.045-.019.045-.018.046-.017.046-.016.046-.015.047-.013.048-.013.047-.011.048-.01.048-.009.049-.008.048-.007.049-.005.049-.004.05-.004.049-.001.05-.001zm-5.994 1h-.031l-.025.001-.024.002-.025.002-.024.003-.025.003-.024.004-.024.004-.024.006-.024.005-.023.006-.024.007-.023.008-.023.008-.023.008-.023.009-.022.01-.022.01-.022.011-.022.011-.021.012-.021.012-.021.013-.021.013-.02.014-.02.014-.019.015-.02.015-.019.016-.018.017-.018.017-.018.017-.017.018-.017.018-.017.018-.016.019-.015.02-.015.019-.014.02-.014.02-.013.021-.013.021-.012.021-.012.021-.011.022-.011.022-.01.022-.01.022-.009.023-.008.023-.008.023-.008.023-.007.024-.006.023-.005.024-.006.024-.004.024-.004.024-.003.025-.003.024-.002.025-.002.024-.001.025v.031 12.988.031l.001.025.002.024.002.025.003.024.003.025.004.024.004.024.006.024.005.024.006.023.007.024.008.023.008.023.008.023.009.023.01.022.01.022.011.022.011.022.012.021.012.021.013.021.013.021.014.02.014.02.015.019.015.02.016.019.017.018.017.018.017.018.018.017.018.017.018.017.019.016.019.015.02.015.02.014.02.014.021.013.021.013.021.012.021.012.022.011.022.011.022.01.022.01.023.009.023.008.023.008.023.008.024.007.023.006.024.005.024.006.024.004.024.004.025.003.024.003.025.002.024.002.025.001h.031 5.988.031l.025-.001.024-.002.025-.002.024-.003.025-.003.024-.004.024-.004.024-.006.024-.005.023-.006.024-.007.023-.008.023-.008.023-.008.023-.009.022-.01.022-.01.022-.011.022-.011.021-.012.021-.012.021-.013.021-.013.02-.014.02-.014.019-.015.02-.016.019-.015.018-.017.018-.017.018-.017.017-.018.017-.018.017-.018.015-.019.016-.02.015-.019.014-.02.014-.02.013-.021.013-.021.012-.021.012-.021.011-.022.011-.022.01-.022.01-.022.009-.023.008-.023.008-.023.008-.023.007-.024.006-.023.005-.024.006-.024.004-.024.004-.024.003-.025.003-.024.002-.025.002-.024.001-.025v-.031-12.988-.031l-.001-.025-.002-.024-.002-.025-.003-.024-.003-.025-.004-.024-.004-.024-.006-.024-.005-.024-.006-.023-.007-.024-.008-.023-.008-.023-.008-.023-.009-.023-.01-.022-.01-.022-.011-.022-.011-.022-.012-.021-.012-.021-.013-.021-.013-.021-.014-.02-.014-.02-.015-.019-.016-.02-.015-.019-.017-.018-.017-.018-.017-.018-.018-.017-.018-.017-.018-.017-.019-.015-.02-.016-.019-.015-.02-.014-.02-.014-.021-.013-.021-.013-.021-.012-.021-.012-.022-.011-.022-.011-.022-.01-.022-.01-.023-.009-.023-.008-.023-.008-.023-.008-.024-.007-.023-.006-.024-.005-.024-.006-.024-.004-.024-.004-.025-.003-.024-.003-.025-.002-.024-.002-.025-.001h-.031z" fill="#b3b3b3"/></g></svg>