<svg clip-rule="evenodd" fill-rule="evenodd" stroke-linejoin="round" stroke-miterlimit="1.5" viewBox="0 0 32 32" xmlns="http://www.w3.org/2000/svg" xmlns:xlink="http://www.w3.org/1999/xlink"><clipPath id="a"><path clip-rule="evenodd" d="m0 0h32v32h-32z"/></clipPath><metadata/><path d="m0 0h32v32h-32z" fill="none"/><g clip-path="url(#a)"><path d="m11.279 4.158 2.122 2.121v1.22c.804-.322 1.681-.499 2.599-.499 1.646 0 3.161.57 4.356 1.522l1.644-1.643v-4.879h7v9h-3v-1.879l-3.203 3.203c.133.537.203 1.098.203 1.676v2c0 2.944-1.822 5.467-4.399 6.5h1.399v5h-2.5v2.5h-3v-2-.5h-2.5v-5h1.399c-2.577-1.033-4.399-3.556-4.399-6.5v-2-.053c.004-.488.057-.964.156-1.423l-1.877 1.877-2.121-2.122.007-1.279h-2.165v-9h7v3.438zm8.595 10.842c-.445-1.724-2.012-3-3.874-3s-3.429 1.276-3.874 3c.445 1.724 2.012 3 3.874 3s3.429-1.276 3.874-3z" fill="none" stroke="#000" stroke-width="4"/><path d="m11 11h10v8h-10z"/><path d="m9.29 14c.118-.395.27-.775.452-1.137l-.463-.462-2 2-2.121-2.122.007-1.279h-2.165v-2l2-5h3l2 1v2h-1.879l1.158 1.158 2-2 2.122.121v2l-2 2 .243.243c1.195-.952 2.71-1.522 4.356-1.522s3.161.57 4.356 1.522l3.523-3.522h-1.879v-2l2-1h3l2 5v2h-3v-1.879l-3.742 3.742c.182.362.334.742.452 1.137h.29v2c0 3.349-2.356 6.151-5.5 6.839v1.661l2.5 1v2h-3.5l1 .5v2h-3v-2l1-.5h-3.5v-2l2.5-1v-1.661c-3.144-.688-5.5-3.49-5.5-6.839v-2zm10.71 2c0-2.208-1.792-4-4-4s-4 1.792-4 4 1.792 4 4 4 4-1.792 4-4z" fill="#747474"/><circle cx="16" cy="14" fill="none" r="5.5" stroke="#fff" stroke-linecap="round" stroke-miterlimit="2" stroke-width="3"/><path d="m27 4-7 7" fill="none" stroke="#fff" stroke-miterlimit="2" stroke-width="3"/><path d="m29 9h-3v-4h-4v-3h7z" fill="#fff"/><path d="m5 4 7 7" fill="none" stroke="#fff" stroke-miterlimit="2" stroke-width="3"/><path d="m10 5h-4v4h-3v-7h7z" fill="#fff"/><g fill="none" stroke="#fff" stroke-miterlimit="2" stroke-width="3"><path d="m16 18.911v9.089"/><path d="m20 24h-8"/><path d="m11.279 6.279-4 4" stroke-linecap="square"/></g></g></svg>