<svg clip-rule="evenodd" fill-rule="evenodd" stroke-linecap="round" stroke-linejoin="round" stroke-miterlimit="2" viewBox="0 0 32 32" xmlns="http://www.w3.org/2000/svg" xmlns:xlink="http://www.w3.org/1999/xlink"><clipPath id="a"><path clip-rule="evenodd" d="m0 0h32v32h-32z"/></clipPath><clipPath id="b"><path clip-rule="evenodd" d="m8 3h17v7h-17z"/></clipPath><metadata/><path d="m0 0h32v32h-32z" fill="none"/><g clip-path="url(#a)"><path d="m20 27.5h-2.5v2.5h-3v-2.5h-2.5v-5h1.399c-2.577-1.033-4.399-3.556-4.399-6.5v-2c0-1.713.617-3.283 1.64-4.5-1.023-1.217-1.64-2.787-1.64-4.5v-2h3c0 2.208 1.792 4 4 4s4-1.792 4-4h3v2 .026c-.006 1.703-.622 3.263-1.64 4.474 1.023 1.217 1.64 2.787 1.64 4.5v2c0 2.944-1.822 5.467-4.399 6.5h1.399zm-.126-12.5c-.445-1.724-2.012-3-3.874-3s-3.429 1.276-3.874 3c.445 1.724 2.012 3 3.874 3s3.429-1.276 3.874-3z" fill="none" stroke="#000" stroke-width="4"/><path d="m11 11h10v8h-10z"/><g fill="#747474"><path d="m11.672 10.5c-1.627-1.282-2.672-3.27-2.672-5.5h3c0 2.208 1.792 4 4 4s4-1.792 4-4h3c0 2.23-1.045 4.218-2.672 5.5 1.627 1.282 2.672 3.27 2.672 5.5 0 3.349-2.356 6.151-5.5 6.839v1.661l2.5 1v2h-3.5l1 .5v2h-3v-2l1-.5h-3.5v-2l2.5-1v-1.661c-3.144-.688-5.5-3.49-5.5-6.839 0-2.23 1.045-4.218 2.672-5.5zm4.328 1.5c2.208 0 4 1.792 4 4s-1.792 4-4 4-4-1.792-4-4 1.792-4 4-4z"/><path d="m9 5v-2l3 2z"/><path d="m23 5v-2l-3 2z"/><path d="m9 14h2v2h-2z"/><path d="m21 14h2v2h-2z"/></g><circle cx="16" cy="14" fill="none" r="5.5" stroke="#fff" stroke-width="3"/><path d="m8 3h17v7h-17z" fill="none"/><g clip-path="url(#b)"><circle cx="16" cy="3" fill="none" r="5.5" stroke="#fff" stroke-width="3"/></g><path d="m16 18.911v9.089" fill="none" stroke="#fff" stroke-linecap="butt" stroke-width="3"/><path d="m20 24h-8" fill="none" stroke="#fff" stroke-linecap="butt" stroke-width="3"/></g></svg>