<svg clip-rule="evenodd" fill-rule="evenodd" stroke-linejoin="round" stroke-miterlimit="2" viewBox="0 0 32 32" xmlns="http://www.w3.org/2000/svg"><metadata/><path d="m0 0h32v32h-32z" fill="none"/><path d="m14.828 0 4.61 4.61c1.244.455 2.394 1.159 3.365 2.061.644.598 1.207 1.281 1.673 2.025l5.919-5.92 1.605.909v2.572c-.999 4.03-1.984 8.064-3.024 12.084-.027.096-.055.192-.085.287-.155.469-.359.918-.621 1.337-.551.883-1.332 1.616-2.249 2.108-.19.103-.385.193-.585.274-.149.444-.326.879-.527 1.304-.157.32-.314.639-.472.958l1.891 1.891-5.5 5.5h-.425l-1.301-.539c-.248.104-.503.193-.762.268-.589.169-1.194.254-1.806.27l-.154.001h-.76l-.154-.001c-.612-.016-1.217-.101-1.806-.27-.259-.075-.514-.164-.762-.268l-1.301.539h-.425l-5.5-5.5 1.891-1.891c-.158-.319-.315-.638-.472-.958-.114-.241-.223-.483-.32-.731-.075-.189-.145-.381-.209-.574-.38-.156-.744-.346-1.086-.576-.864-.58-1.57-1.385-2.032-2.318-.19-.383-.335-.786-.443-1.2l-3.001-12.006v-2.561l1.605-.909 5.919 5.919c.334-.534.718-1.036 1.147-1.498.107-.115.217-.228.329-.338v-6.278l1.403-.581h.425l1.172 1.172v-1.172h2.828z"/><path d="m29.48 8.079.52-2.079s-2.941 2.941-4.312 4.312c-.456.456-.835.982-1.123 1.559-.589 1.177-1.565 3.129-1.565 3.129h-2v6h2s.586-.167 1.279-.365c1.374-.393 2.435-1.489 2.781-2.876l1.472-5.889-.021-.042.903-3.645z" fill="#00bcf0"/><path d="m29.48 8.079c-1.182 1.161-2.33 2.357-3.502 3.529-.262.267-.507.549-.726.853-.192.267-.362.548-.518.837-.213.416-.419.836-.628 1.255-.068.144-.107.295-.106.455.001.122.024.244.069.357.045.114.11.22.193.31.071.077.153.143.245.195.307.174.694.171 1-.008.153-.09.272-.217.363-.369.222-.416.42-.845.635-1.265.111-.206.233-.407.37-.597.137-.191.289-.369.45-.54.401-.409.803-.816 1.207-1.221z" fill="#2697c0"/><path d="m2.52 8.079-.52-2.079s2.941 2.941 4.312 4.312c.456.456.835.982 1.123 1.559.589 1.177 1.565 3.129 1.565 3.129h2v6h-2s-.586-.167-1.279-.365c-1.374-.393-2.435-1.489-2.781-2.876l-1.472-5.889.021-.042-.903-3.645z" fill="#00bcf0"/><path d="m2.52 8.079c1.182 1.161 2.33 2.357 3.502 3.529.262.267.507.549.726.853.192.267.362.548.518.837.213.416.419.836.628 1.255.068.144.107.295.106.455-.001.122-.024.244-.069.357-.045.114-.11.22-.193.31-.071.077-.153.143-.245.195-.307.174-.694.171-1-.008-.153-.09-.272-.217-.363-.369-.222-.416-.42-.845-.635-1.265-.111-.206-.233-.407-.37-.597-.137-.191-.289-.369-.45-.54-.401-.409-.803-.816-1.207-1.221z" fill="#2697c0"/><path d="m19 7-5-5v5z" fill="#b01d50"/><path d="m10.667 26.333-1.717-3.433c-.625-1.249-.95-2.627-.95-4.025v-4.875c0-2.122.843-4.157 2.343-5.657.209-.209.428-.405.657-.588 0 0 7.313-1.007 7.805-1.247 1.061.397 2.035 1.019 2.852 1.835 1.5 1.5 2.343 3.535 2.343 5.657v4.875c0 1.398-.325 2.776-.95 4.025l-1.717 3.433-1.174 1.738-.159.409c-.927.957-2.216 1.52-3.59 1.52-.272 0-.548 0-.82 0-1.374 0-2.663-.563-3.59-1.52l-.175-.414z" fill="#00bcf0"/><path d="m21.333 26.333-.451.903c-.232.465-.531.883-.882 1.244v-.48l-3-3 2.5-.5zm-10.666 0 1.833-1.833 2.5.5-3 3v.48c-.351-.361-.65-.779-.882-1.244z" fill="#2697c0"/><path d="m11 7.755c1.412-1.131 3.174-1.755 5-1.755.967 0 1.916.175 2.805.508-.492.24-.946.562-1.341.956-.937.938-1.464 2.21-1.464 3.536v4l-3-3z" fill="#b01d50"/><path d="m18 15.865c0-.229.091-.449.253-.612.163-.162.383-.253.612-.253h2.135c.552 0 1 .448 1 1v1.123c0 .233-.092.456-.257.62-.164.165-.387.257-.62.257h-.001c-.718 0-1.407-.285-1.915-.793-.429-.429-.911-.911-1.112-1.112-.061-.061-.095-.143-.095-.23zm-4 .008c0-.482-.391-.873-.873-.873-.627 0-1.473 0-2.127 0-.552 0-1 .448-1 1v1.123c0 .233.092.456.257.62.164.165.387.257.62.257h.001c.718 0 1.407-.285 1.915-.793.434-.434.921-.921 1.118-1.118.057-.057.089-.134.089-.215z"/><path d="m13 5 1 1v-4l3 3-1 3v7l-3-3-.123-.238-.061-6.578z" fill="#b01d50"/><path d="m13 5v7l-2-2v-7z" fill="#7c1439"/><path d="m18 24 3 3v2l2.5-2.5-3-3zm-4 0-3 3v2l-2.5-2.5 3-3z" fill="#fff"/><path d="m18.414 26h-4.828c-.206-.206-.497-.524-.762-.758-.165-.138-.363-.221-.578-.239-.246-.015-.523-.003-.746-.003-.16-.005-.313-.037-.457-.11-.123-.064-.232-.152-.32-.26-.214-.264-.279-.628-.17-.95.031-.094.077-.183.135-.263.057-.08.127-.152.205-.212.161-.122.348-.185.548-.203.268-.008.537-.004.805-.001.197.007.393.029.585.072.382.086.746.248 1.066.473.121.085.234.18.343.281l.049.047.125.126h3.172c.058-.058.116-.116.174-.173.055-.051.11-.1.167-.148.365-.291.784-.503 1.241-.606.193-.043.389-.065.586-.072.249-.003.497-.001.746-.001.059.002.059.002.118.007.199.03.382.104.535.235.075.065.14.141.193.224.226.359.198.835-.069 1.164-.075.092-.166.171-.268.231-.139.082-.29.123-.45.137-.268.008-.537-.012-.805.005-.243.021-.462.124-.637.294zm1.226-5.232c-.59.492-1.176.991-1.772 1.476-.053.041-.106.081-.161.12-.255.172-.529.309-.823.4-.678.208-1.421.168-2.073-.113-.263-.113-.505-.265-.727-.446l-1.724-1.437 1.28-1.536c.591.492 1.156 1.016 1.774 1.475.279.198.643.246.962.116.098-.039.187-.095.268-.162l1.716-1.429c.427.512.853 1.024 1.28 1.536z" fill="#007792"/></svg>