<svg clip-rule="evenodd" fill-rule="evenodd" stroke-linecap="round" stroke-linejoin="round" stroke-miterlimit="10" viewBox="0 0 32 32" xmlns="http://www.w3.org/2000/svg" xmlns:xlink="http://www.w3.org/1999/xlink"><clipPath id="a"><path clip-rule="evenodd" d="m0 0h32v32h-32z"/></clipPath><clipPath id="b"><path clip-rule="evenodd" d="m24 6h-18v8.002c0 2.386.948 4.675 2.636 6.363 1.687 1.687 3.976 2.635 6.362 2.635h.002c2.387 0 4.676-.948 6.364-2.636s2.636-3.977 2.636-6.364c0-4.077 0-8 0-8z"/></clipPath><clipPath id="c"><ellipse clip-rule="evenodd" cx="15" cy="9" rx="9" ry="3"/></clipPath><metadata/><path d="m0 0h32v32h-32z" fill="none"/><g clip-path="url(#a)"><path d="m5.099 6.565c-.065-.184-.099-.373-.099-.565 0-2.208 4.481-4 10-4s10 1.792 10 4c0 .192-.034.381-.099.565.064.135.099.283.099.435v7c0 5.185-3.947 9.449-9 9.951v3.079c2.281.139 4 .745 4 1.47 0 .828-2.24 1.5-5 1.5s-5-.672-5-1.5c0-.725 1.719-1.331 4-1.47v-3.079c-5.053-.502-9-4.766-9-9.951 0-2.863 0-5.588 0-7 0-.152.035-.3.099-.435z" fill="none" stroke="#000" stroke-width="4"/><path d="m22 15v-12l4 1" fill="none" stroke="#000" stroke-width="6"/><ellipse cx="15" cy="28.5" fill="#fff" rx="5" ry="1.5"/><path d="m16 28.463c0 .166-.448.3-1 .3s-1-.134-1-.3v-11.5h2z" fill="#ccc"/><path d="m5 6v8c0 5.523 4.477 10 10 10s10-4.477 10-10v-8z" fill="#fff"/><path d="m24 6h-18v8.002c0 2.386.948 4.675 2.636 6.363 1.687 1.687 3.976 2.635 6.362 2.635h.002c2.387 0 4.676-.948 6.364-2.636s2.636-3.977 2.636-6.364c0-4.077 0-8 0-8z" fill="#d9d9d9"/><g clip-path="url(#b)"><path d="m6 9h18v14h-18z" fill="#ff8a16"/><path d="m6 13.309c.468 1.511 4.321 2.691 9 2.691s8.533-1.18 9-2.691v13.691h-18z" fill="#ffab4a"/><path d="m8 8v7.169c0 3.618 1.898 6.97 5 8.831h3c-2.518-1.889-4-4.852-4-8 0-3.293 0-7 0-7z" fill="#fff" fill-opacity=".403922"/></g><ellipse cx="15" cy="6" fill="#d9d9d9" rx="9.419" ry="3.414"/><ellipse cx="15" cy="9" fill="#ff8a16" rx="9" ry="3"/><g clip-path="url(#c)"><path d="m8 8v7.169c0 3.618 1.898 6.97 5 8.831h3c-2.518-1.889-4-4.852-4-8 0-3.293 0-7 0-7z" fill="#fff" fill-opacity=".407843"/></g><path d="m22 15v-12l4 1" fill="none" stroke="#2081ff" stroke-width="2.5"/><path d="m15.258 2.001.256.004.255.007.253.009.251.011.249.014.247.017.245.018.243.022.241.023.238.026.236.028.234.03.231.033.228.035.226.037.223.039.22.041.217.043.214.045.211.047.208.049.204.052.201.053.198.054.195.057.19.059.187.06.184.062.179.064.176.065.172.067.084.034.083.035.083.035.081.035.08.036.079.036.078.036.077.037.076.037.075.038.074.038.072.038.072.039.07.039.069.039.068.04.067.04.066.041.064.04.063.042.062.041.061.042.06.042.058.042.057.043.056.043.055.043.053.043.052.044.051.044.05.045.048.045.046.045.046.045.044.045.043.046.041.046.04.047.039.046.037.047.036.047.034.047.033.048.032.048.03.048.029.048.027.049.026.048.024.049.023.049.021.05.02.049.018.05.017.05.015.05.013.05.012.051.011.05.009.051.007.051.006.051.004.052.002.051.001.052-.001.052-.002.051-.004.052-.006.051-.007.051-.009.051-.011.05-.012.051-.013.05-.015.05-.017.05-.018.05-.02.049-.021.05-.023.049-.024.049-.026.048-.027.049-.029.048-.03.048-.032.048-.033.048-.034.047-.036.047-.037.047-.039.046-.04.047-.041.046-.043.046-.044.045-.046.045-.046.045-.048.045-.05.045-.051.044-.052.044-.053.043-.055.043-.056.043-.057.043-.058.042-.06.042-.061.042-.062.041-.063.042-.064.04-.066.041-.067.04-.068.04-.069.039-.07.039-.072.039-.072.038-.074.038-.075.038-.076.037-.077.037-.078.036-.079.036-.08.036-.081.035-.083.035-.083.035-.084.034-.172.067-.176.065-.179.064-.184.062-.187.06-.19.059-.195.057-.198.054-.201.053-.204.052-.208.049-.211.047-.214.045-.217.043-.22.041-.223.039-.226.037-.228.035-.231.033-.234.03-.236.028-.238.026-.241.023-.243.022-.245.018-.247.017-.249.014-.251.011-.253.009-.255.007-.256.004-.258.001-.258-.001-.256-.004-.255-.007-.253-.009-.251-.011-.249-.014-.247-.017-.245-.018-.243-.022-.241-.023-.238-.026-.236-.028-.234-.03-.231-.033-.228-.035-.226-.037-.223-.039-.22-.041-.217-.043-.214-.045-.211-.047-.208-.049-.204-.052-.201-.053-.198-.054-.195-.057-.19-.059-.187-.06-.184-.062-.179-.064-.176-.065-.172-.067-.084-.034-.083-.035-.083-.035-.081-.035-.08-.036-.079-.036-.078-.036-.077-.037-.076-.037-.075-.038-.074-.038-.072-.038-.072-.039-.07-.039-.069-.039-.068-.04-.067-.04-.066-.041-.064-.04-.063-.042-.062-.041-.061-.042-.06-.042-.058-.042-.057-.043-.056-.043-.055-.043-.053-.043-.052-.044-.051-.044-.05-.045-.048-.045-.046-.045-.046-.045-.044-.045-.043-.046-.041-.046-.04-.047-.039-.046-.037-.047-.036-.047-.034-.047-.033-.048-.032-.048-.03-.048-.029-.048-.027-.049-.026-.048-.024-.049-.023-.049-.021-.05-.02-.049-.018-.05-.017-.05-.015-.05-.013-.05-.012-.051-.011-.05-.009-.051-.007-.051-.006-.051-.004-.052-.002-.051-.001-.052.001-.052.002-.051.004-.052.006-.051.007-.051.009-.051.011-.05.012-.051.013-.05.015-.05.017-.05.018-.05.02-.049.021-.05.023-.049.024-.049.026-.048.027-.049.029-.048.03-.048.032-.048.033-.048.034-.047.036-.047.037-.047.039-.046.04-.047.041-.046.043-.046.044-.045.046-.045.046-.045.048-.045.05-.045.051-.044.052-.044.053-.043.055-.043.056-.043.057-.043.058-.042.06-.042.061-.042.062-.041.063-.042.064-.04.066-.041.067-.04.068-.04.069-.039.07-.039.072-.039.072-.038.074-.038.075-.038.076-.037.077-.037.078-.036.079-.036.08-.036.081-.035.083-.035.083-.035.084-.034.172-.067.176-.065.179-.064.184-.062.187-.06.19-.059.195-.057.198-.054.201-.053.204-.052.208-.049.211-.047.214-.045.217-.043.22-.041.223-.039.226-.037.228-.035.231-.033.234-.03.236-.028.238-.026.241-.023.243-.022.245-.018.247-.017.249-.014.251-.011.253-.009.255-.007.256-.004.258-.001zm-.506 1-.246.004-.244.006-.243.009-.241.011-.239.013-.237.016-.235.018-.232.02-.23.023-.228.024-.226.027-.223.029-.22.031-.217.033-.215.036-.212.037-.208.039-.206.041-.202.042-.2.045-.195.046-.193.048-.188.05-.186.051-.181.053-.177.055-.174.055-.169.058-.166.058-.161.06-.158.062-.075.031-.075.031-.075.032-.073.031-.072.032-.071.033-.07.032-.068.033-.067.033-.066.033-.065.034-.064.033-.062.034-.061.034-.059.034-.059.034-.057.034-.055.034-.055.035-.053.034-.051.034-.05.035-.049.034-.048.034-.045.035-.045.034-.043.034-.042.034-.04.034-.039.034-.037.033-.036.033-.034.033-.033.033-.031.033-.03.032-.029.031-.027.032-.026.031-.024.03-.023.03-.021.03-.02.029-.019.028-.018.028-.016.027-.015.027-.014.026-.012.026-.012.024-.01.025-.01.023-.008.023-.008.023-.006.022-.006.022-.005.021-.004.021-.004.02-.003.02-.002.02-.002.02-.001.02v.02.02l.001.02.002.02.002.02.003.02.004.02.004.021.005.021.006.022.006.022.008.023.008.023.01.023.01.025.012.024.012.026.014.026.015.027.016.027.018.028.019.028.02.029.021.03.023.03.024.03.026.031.027.032.029.031.03.032.031.033.033.033.034.033.036.033.037.033.039.034.04.034.042.034.043.034.045.034.045.035.048.034.049.034.05.035.051.034.053.034.055.035.055.034.057.034.059.034.059.034.061.034.062.034.064.033.065.034.066.033.067.033.068.033.07.032.071.033.072.032.073.031.075.032.075.031.075.031.158.062.161.06.166.058.169.058.174.055.177.055.181.053.186.051.188.05.193.048.195.046.2.045.202.042.206.041.208.039.212.037.215.036.217.033.22.031.223.029.226.027.228.024.23.023.232.02.235.018.237.016.239.013.241.011.243.009.244.006.246.004.248.001.248-.001.246-.004.244-.006.243-.009.241-.011.239-.013.237-.016.235-.018.232-.02.23-.023.228-.024.226-.027.223-.029.22-.031.217-.033.215-.036.212-.037.208-.039.206-.041.202-.042.2-.045.195-.046.193-.048.188-.05.186-.051.181-.053.177-.055.174-.055.169-.058.166-.058.161-.06.158-.062.075-.031.075-.031.075-.032.073-.031.072-.032.071-.033.07-.032.068-.033.067-.033.066-.033.065-.034.064-.033.062-.034.061-.034.06-.034.058-.034.057-.034.055-.034.055-.035.053-.034.051-.034.05-.035.049-.034.048-.034.045-.035.045-.034.043-.034.042-.034.04-.034.039-.034.037-.033.036-.033.034-.033.033-.033.031-.033.03-.032.029-.032.027-.031.026-.031.024-.03.023-.03.021-.03.02-.029.019-.028.018-.028.016-.027.015-.027.014-.026.012-.025.012-.025.01-.025.01-.023.008-.023.008-.023.006-.022.006-.022.005-.021.004-.02.004-.021.003-.02.002-.02.002-.02.001-.02v-.02-.02l-.001-.02-.002-.02-.002-.02-.003-.02-.004-.021-.004-.02-.005-.021-.006-.022-.006-.022-.008-.023-.008-.023-.01-.023-.01-.025-.012-.025-.012-.025-.014-.026-.015-.027-.016-.027-.018-.028-.019-.028-.02-.029-.021-.03-.023-.03-.024-.03-.026-.031-.027-.031-.029-.032-.03-.032-.031-.033-.033-.033-.034-.033-.036-.033-.037-.033-.039-.034-.04-.034-.042-.034-.043-.034-.045-.034-.045-.035-.048-.034-.049-.034-.05-.035-.051-.034-.053-.034-.055-.035-.055-.034-.057-.034-.058-.034-.06-.034-.061-.034-.062-.034-.064-.033-.065-.034-.066-.033-.067-.033-.068-.033-.07-.032-.071-.033-.072-.032-.073-.031-.075-.032-.075-.031-.075-.031-.158-.062-.161-.06-.166-.058-.169-.058-.174-.055-.177-.055-.181-.053-.186-.051-.188-.05-.193-.048-.195-.046-.2-.045-.202-.042-.206-.041-.208-.039-.212-.037-.215-.036-.217-.033-.22-.031-.223-.029-.226-.027-.228-.024-.23-.023-.232-.02-.235-.018-.237-.016-.239-.013-.241-.011-.243-.009-.244-.006-.246-.004-.248-.001-.248.001z" fill="#fff"/><path d="m22 5v-2l4 1" fill="none" stroke="#2081ff" stroke-width="2.5"/></g></svg>