<svg clip-rule="evenodd" fill-rule="evenodd" stroke-linecap="round" stroke-linejoin="round" stroke-miterlimit="10" viewBox="0 0 32 32" xmlns="http://www.w3.org/2000/svg" xmlns:xlink="http://www.w3.org/1999/xlink"><clipPath id="a"><path clip-rule="evenodd" d="m0 0h32v32h-32z"/></clipPath><clipPath id="b"><path clip-rule="evenodd" d="m1 25.5h30v6.5h-30z"/></clipPath><metadata/><path d="m0 0h32v32h-32z" fill="none"/><g clip-path="url(#a)"><path d="m4.001 6.551c-.001-.017-.001-.034-.001-.051 0-2.484 5.377-4.5 12-4.5s12 2.016 12 4.5v19c0 2.484-5.377 4.5-12 4.5s-12-2.016-12-4.5c0-.017 0-.034.001-.051z" fill="none" stroke="#000" stroke-width="4"/><path d="m4.001 6.5h23.999v19h-23.999z" fill="#fff"/><path d="m5.001 6.5h21.999v19h-21.999z" fill="#d9d9d9"/><ellipse cx="16" cy="6.5" fill="#bfbfbf" rx="11.306" ry="3.92"/><path d="m27 16h-21.999v10.5l4.999 2.5 6 .5 6-.5 5-2.5z" fill="#bfbfbf"/><path d="m7.553 12 1.447 1v11l-1.447 1.641c-1.593-.715-2.553-1.636-2.553-2.641 0-.016 0-.033.001-.049v-10.951zm17.447 0h2v11c0 .882-.74 1.7-2 2.371l-1-1.371v-11z" fill="#b85e0e"/><path d="m12.553 12 1.447 1v12l-1.447 1.918c-1.971-.244-3.697-.692-5-1.277v-13.641zm7.447 0h5v13.371c-1.236.658-2.972 1.175-5 1.472l-1-1.843v-12z" fill="#d46a18"/><path d="m12.553 26.918v-13.918h7.447v13.843c-1.24.182-2.589.282-4 .282-1.204 0-2.362-.073-3.447-.207z" fill="#e2891b"/><ellipse cx="16" cy="12" fill="#d87817" rx="11" ry="4.125"/><path d="m16.31 2.001.307.005.306.007.303.01.301.013.299.016.297.018.294.021.292.024.289.027.286.029.283.031.28.035.277.036.274.039.271.042.268.044.264.046.26.049.257.05.253.054.249.055.124.028.122.029.121.03.12.03.12.031.118.031.117.031.116.032.115.033.114.033.113.034.111.034.111.035.109.035.109.036.107.036.106.036.105.037.103.038.103.038.101.038.1.039.099.039.097.04.096.04.095.041.094.041.092.041.091.042.09.042.089.043.087.043.085.044.085.044.083.044.081.045.081.045.078.045.078.046.076.046.074.047.073.047.072.047.07.048.068.048.067.048.066.049.064.049.062.049.061.05.06.05.057.05.057.051.054.051.053.051.051.051.05.052.048.052.046.053.045.052.043.053.041.054.04.053.038.054.036.054.034.054.033.055.031.055.029.055.027.055.026.055.024.056.021.056.021.056.018.057.016.056.014.057.013.057.011.057.008.058.007.057.005.058.003.058.001.058-.001.058-.003.058-.005.058-.007.057-.008.058-.011.057-.013.057-.014.057-.016.056-.018.057-.021.056-.021.056-.024.056-.026.055-.027.055-.029.055-.031.055-.033.055-.034.054-.036.054-.038.054-.04.053-.041.054-.043.053-.045.052-.046.053-.048.052-.05.052-.051.051-.053.051-.054.051-.057.051-.057.05-.06.05-.061.05-.062.049-.064.049-.066.049-.067.048-.068.048-.07.048-.072.047-.073.047-.074.047-.076.046-.078.046-.078.045-.081.045-.081.045-.083.044-.085.044-.085.044-.087.043-.089.043-.09.042-.091.042-.092.041-.094.041-.095.041-.096.04-.097.04-.099.039-.1.039-.101.038-.103.038-.103.038-.105.037-.106.036-.107.036-.109.036-.109.035-.111.035-.111.034-.113.034-.114.033-.115.033-.116.032-.117.031-.118.031-.12.031-.12.03-.121.03-.122.029-.124.028-.249.055-.253.054-.257.05-.26.049-.264.046-.268.044-.271.042-.274.039-.277.036-.28.035-.283.031-.286.029-.289.027-.292.024-.294.021-.297.018-.299.016-.301.013-.303.01-.306.007-.307.005-.31.001-.31-.001-.307-.005-.306-.007-.303-.01-.301-.013-.299-.016-.297-.018-.294-.021-.292-.024-.289-.027-.286-.029-.283-.031-.28-.035-.277-.036-.274-.039-.271-.042-.268-.044-.264-.046-.26-.049-.257-.05-.253-.054-.249-.055-.124-.028-.122-.029-.121-.03-.12-.03-.12-.031-.118-.031-.117-.031-.116-.032-.115-.033-.114-.033-.113-.034-.111-.034-.111-.035-.109-.035-.109-.036-.107-.036-.106-.036-.105-.037-.103-.038-.103-.038-.101-.038-.1-.039-.099-.039-.097-.04-.096-.04-.095-.041-.094-.041-.092-.041-.091-.042-.09-.042-.089-.043-.087-.043-.085-.044-.085-.044-.083-.044-.081-.045-.081-.045-.078-.045-.078-.046-.076-.046-.074-.047-.073-.047-.072-.047-.07-.048-.068-.048-.067-.048-.066-.049-.064-.049-.062-.049-.061-.05-.06-.05-.057-.05-.057-.051-.054-.051-.053-.051-.051-.051-.05-.052-.048-.052-.046-.053-.045-.052-.043-.053-.041-.054-.04-.053-.038-.054-.036-.054-.034-.054-.033-.055-.031-.055-.029-.055-.027-.055-.026-.055-.024-.056-.021-.056-.021-.056-.018-.057-.016-.056-.014-.057-.013-.057-.011-.057-.008-.058-.007-.057-.005-.058-.003-.058-.001-.058.001-.058.003-.058.005-.058.007-.057.008-.058.011-.057.013-.057.014-.057.016-.056.018-.057.021-.056.021-.056.024-.056.026-.055.027-.055.029-.055.031-.055.033-.055.034-.054.036-.054.038-.054.04-.053.041-.054.043-.053.045-.052.046-.053.048-.052.05-.052.051-.051.053-.051.054-.051.057-.051.057-.05.06-.05.061-.05.062-.049.064-.049.066-.049.067-.048.068-.048.07-.048.072-.047.073-.047.074-.047.076-.046.078-.046.078-.045.081-.045.081-.045.083-.044.085-.044.085-.044.087-.043.089-.043.09-.042.091-.042.092-.041.094-.041.095-.041.096-.04.097-.04.099-.039.1-.039.101-.038.103-.038.103-.038.105-.037.106-.036.107-.036.109-.036.109-.035.111-.035.111-.034.113-.034.114-.033.115-.033.116-.032.117-.031.118-.031.12-.031.12-.03.121-.03.122-.029.124-.028.249-.055.253-.054.257-.05.26-.049.264-.046.268-.044.271-.042.274-.039.277-.036.28-.035.283-.031.286-.029.289-.027.292-.024.294-.021.297-.018.299-.016.301-.013.303-.01.306-.007.307-.005.31-.001zm-.61 1-.298.005-.296.007-.294.01-.292.012-.289.015-.287.018-.285.021-.281.023-.279.025-.277.028-.273.031-.27.033-.267.035-.264.038-.26.04-.257.042-.254.044-.249.047-.246.048-.242.051-.24.053-.116.027-.116.028-.115.028-.115.028-.113.029-.112.03-.111.03-.11.03-.108.031-.108.032-.106.031-.106.032-.104.033-.102.033-.102.033-.1.034-.099.034-.098.035-.096.035-.096.035-.093.036-.093.036-.091.036-.09.036-.088.037-.087.037-.086.038-.084.038-.082.038-.082.038-.079.039-.079.038-.076.039-.075.039-.074.04-.072.039-.071.04-.069.04-.067.039-.066.04-.064.04-.062.041-.061.04-.059.04-.057.04-.056.04-.054.04-.052.04-.05.04-.049.04-.047.039-.045.04-.044.039-.041.039-.04.038-.038.038-.036.038-.035.038-.033.037-.031.036-.029.036-.027.036-.026.035-.025.034-.022.034-.021.033-.019.032-.018.032-.017.031-.015.03-.013.03-.013.029-.011.028-.009.028-.009.026-.008.027-.006.026-.006.025-.005.025-.003.025-.003.024-.002.024-.001.025-.001.024.001.024.001.025.002.024.003.024.003.025.005.025.006.025.006.026.008.027.009.026.009.028.011.028.013.029.013.03.015.03.017.031.018.032.019.032.021.033.022.034.025.034.026.035.027.036.029.036.031.036.033.037.035.038.036.038.038.038.04.038.041.039.044.039.045.04.047.039.049.04.05.04.052.04.054.04.056.04.057.04.059.04.061.04.062.041.064.04.066.04.067.039.069.04.071.04.072.039.074.04.075.039.076.039.079.039.079.038.082.038.082.038.084.038.086.038.087.037.088.037.09.036.091.036.093.036.093.036.096.035.096.035.098.035.099.034.1.034.102.033.102.033.104.033.106.032.106.032.108.031.108.031.11.03.111.03.112.03.113.029.115.028.115.028.116.028.116.027.24.053.242.051.246.048.249.047.254.044.257.042.26.04.264.038.267.035.27.033.273.031.277.028.279.025.281.023.285.021.287.018.289.015.292.012.294.01.296.007.298.005.3.001.3-.001.298-.005.296-.007.294-.01.292-.012.289-.015.287-.018.285-.021.281-.023.279-.025.277-.028.273-.031.27-.033.267-.035.264-.038.26-.04.257-.042.254-.044.249-.047.246-.048.242-.051.24-.053.116-.027.116-.028.115-.028.115-.028.113-.029.112-.03.111-.03.11-.03.108-.031.108-.031.106-.032.106-.032.104-.033.102-.033.102-.033.1-.034.099-.034.098-.035.096-.035.095-.035.094-.036.093-.036.091-.036.09-.036.088-.037.087-.037.086-.038.084-.038.082-.038.082-.038.079-.038.079-.039.076-.039.075-.039.074-.04.072-.039.071-.04.069-.04.067-.039.066-.04.064-.04.062-.041.061-.04.059-.04.057-.04.056-.04.054-.04.052-.04.05-.04.049-.04.047-.039.045-.04.044-.039.041-.039.04-.038.038-.038.036-.038.035-.038.033-.037.031-.036.029-.036.027-.036.026-.035.024-.034.023-.034.021-.033.019-.032.018-.032.017-.031.015-.03.013-.03.013-.029.011-.028.009-.028.009-.026.008-.027.006-.026.006-.025.005-.025.003-.025.003-.024.002-.024.001-.025.001-.024-.001-.024-.001-.025-.002-.024-.003-.024-.003-.025-.005-.025-.006-.025-.006-.026-.008-.027-.009-.026-.009-.028-.011-.028-.013-.029-.013-.03-.015-.03-.017-.031-.018-.032-.019-.032-.021-.033-.023-.034-.024-.034-.026-.035-.027-.036-.029-.036-.031-.036-.033-.037-.035-.038-.036-.038-.038-.038-.04-.038-.041-.039-.044-.039-.045-.04-.047-.039-.049-.04-.05-.04-.052-.04-.054-.04-.056-.04-.057-.04-.059-.04-.061-.04-.062-.041-.064-.04-.066-.04-.067-.039-.069-.04-.071-.04-.072-.039-.074-.04-.075-.039-.076-.039-.079-.038-.079-.039-.082-.038-.082-.038-.084-.038-.086-.038-.087-.037-.088-.037-.09-.036-.091-.036-.093-.036-.094-.036-.095-.035-.096-.035-.098-.035-.099-.034-.1-.034-.102-.033-.102-.033-.104-.033-.106-.032-.106-.031-.108-.032-.108-.031-.11-.03-.111-.03-.112-.03-.113-.029-.115-.028-.115-.028-.116-.028-.116-.027-.24-.053-.242-.051-.246-.048-.249-.047-.254-.044-.257-.042-.26-.04-.264-.038-.267-.035-.27-.033-.273-.031-.277-.028-.279-.025-.281-.023-.285-.021-.287-.018-.289-.015-.292-.012-.294-.01-.296-.007-.298-.005-.3-.001z" fill="#fff"/><path d="m12 10-5-1v19l3 1h2z" fill="#fff" fill-opacity=".290196"/><path d="m1 25.5h30v6.5h-30z" fill="none"/><g clip-path="url(#b)"><path d="m16.31 21.001.307.005.306.007.303.01.301.013.299.016.297.018.294.021.292.024.289.027.286.029.283.031.28.035.277.036.274.039.271.042.268.044.264.046.26.049.257.05.253.054.249.055.124.028.122.029.121.03.12.03.12.031.118.031.117.031.116.032.115.033.114.033.113.034.111.034.111.035.109.035.109.036.107.036.106.036.105.037.103.038.103.038.101.038.1.039.099.039.097.04.096.04.095.041.094.041.092.041.091.042.09.042.089.043.087.043.085.044.085.044.083.044.081.045.081.045.078.045.078.046.076.046.074.047.073.047.072.047.07.048.068.048.067.048.066.049.064.049.062.049.061.05.06.05.057.05.057.051.054.051.053.051.051.051.05.052.048.052.046.053.045.052.043.053.041.054.04.053.038.054.036.054.034.054.033.055.031.055.029.055.027.055.026.055.024.056.021.056.021.056.018.057.016.056.014.057.013.057.011.057.008.058.007.057.005.058.003.058.001.058-.001.058-.003.058-.005.058-.007.057-.008.058-.011.057-.013.057-.014.057-.016.056-.018.057-.021.056-.021.056-.024.056-.026.055-.027.055-.029.055-.031.055-.033.055-.034.054-.036.054-.038.054-.04.053-.041.054-.043.053-.045.052-.046.053-.048.052-.05.052-.051.051-.053.051-.054.051-.057.051-.057.05-.06.05-.061.05-.062.049-.064.049-.066.049-.067.048-.068.048-.07.048-.072.047-.073.047-.074.047-.076.046-.078.046-.078.045-.081.045-.081.045-.083.044-.085.044-.085.044-.087.043-.089.043-.09.042-.091.042-.092.041-.094.041-.095.041-.096.04-.097.04-.099.039-.1.039-.101.038-.103.038-.103.038-.105.037-.106.036-.107.036-.109.036-.109.035-.111.035-.111.034-.113.034-.114.033-.115.033-.116.032-.117.031-.118.031-.12.031-.12.03-.121.03-.122.029-.124.028-.249.055-.253.054-.257.05-.26.049-.264.046-.268.044-.271.042-.274.039-.277.036-.28.035-.283.031-.286.029-.289.027-.292.024-.294.021-.297.018-.299.016-.301.013-.303.01-.306.007-.307.005-.31.001-.31-.001-.307-.005-.306-.007-.303-.01-.301-.013-.299-.016-.297-.018-.294-.021-.292-.024-.289-.027-.286-.029-.283-.031-.28-.035-.277-.036-.274-.039-.271-.042-.268-.044-.264-.046-.26-.049-.257-.05-.253-.054-.249-.055-.124-.028-.122-.029-.121-.03-.12-.03-.12-.031-.118-.031-.117-.031-.116-.032-.115-.033-.114-.033-.113-.034-.111-.034-.111-.035-.109-.035-.109-.036-.107-.036-.106-.036-.105-.037-.103-.038-.103-.038-.101-.038-.1-.039-.099-.039-.097-.04-.096-.04-.095-.041-.094-.041-.092-.041-.091-.042-.09-.042-.089-.043-.087-.043-.085-.044-.085-.044-.083-.044-.081-.045-.081-.045-.078-.045-.078-.046-.076-.046-.074-.047-.073-.047-.072-.047-.07-.048-.068-.048-.067-.048-.066-.049-.064-.049-.062-.049-.061-.05-.06-.05-.057-.05-.057-.051-.054-.051-.053-.051-.051-.051-.05-.052-.048-.052-.046-.053-.045-.052-.043-.053-.041-.054-.04-.053-.038-.054-.036-.054-.034-.054-.033-.055-.031-.055-.029-.055-.027-.055-.026-.055-.024-.056-.021-.056-.021-.056-.018-.057-.016-.056-.014-.057-.013-.057-.011-.057-.008-.058-.007-.057-.005-.058-.003-.058-.001-.058.001-.058.003-.058.005-.058.007-.057.008-.058.011-.057.013-.057.014-.057.016-.056.018-.057.021-.056.021-.056.024-.056.026-.055.027-.055.029-.055.031-.055.033-.055.034-.054.036-.054.038-.054.04-.053.041-.054.043-.053.045-.052.046-.053.048-.052.05-.052.051-.051.053-.051.054-.051.057-.051.057-.05.06-.05.061-.05.062-.049.064-.049.066-.049.067-.048.068-.048.07-.048.072-.047.073-.047.074-.047.076-.046.078-.046.078-.045.081-.045.081-.045.083-.044.085-.044.085-.044.087-.043.089-.043.09-.042.091-.042.092-.041.094-.041.095-.041.096-.04.097-.04.099-.039.1-.039.101-.038.103-.038.103-.038.105-.037.106-.036.107-.036.109-.036.109-.035.111-.035.111-.034.113-.034.114-.033.115-.033.116-.032.117-.031.118-.031.12-.031.12-.03.121-.03.122-.029.124-.028.249-.055.253-.054.257-.05.26-.049.264-.046.268-.044.271-.042.274-.039.277-.036.28-.035.283-.031.286-.029.289-.027.292-.024.294-.021.297-.018.299-.016.301-.013.303-.01.306-.007.307-.005.31-.001zm-.61 1-.298.005-.296.007-.294.01-.292.012-.289.015-.287.018-.285.021-.281.023-.279.025-.277.028-.273.031-.27.033-.267.035-.264.038-.26.04-.257.042-.254.044-.249.047-.246.048-.242.051-.24.053-.116.027-.116.028-.115.028-.115.028-.113.029-.112.03-.111.03-.11.03-.108.031-.108.032-.106.031-.106.032-.104.033-.102.033-.102.033-.1.034-.099.034-.098.035-.096.035-.096.035-.093.036-.093.036-.091.036-.09.036-.088.037-.087.037-.086.038-.084.038-.082.038-.082.038-.079.039-.079.038-.076.039-.075.039-.074.04-.072.039-.071.04-.069.04-.067.039-.066.04-.064.04-.062.041-.061.04-.059.04-.057.04-.056.04-.054.04-.052.04-.05.04-.049.04-.047.039-.045.04-.044.039-.041.039-.04.038-.038.038-.036.038-.035.038-.033.037-.031.036-.029.036-.027.036-.026.035-.025.034-.022.034-.021.033-.019.032-.018.032-.017.031-.015.03-.013.03-.013.029-.011.028-.009.028-.009.026-.008.027-.006.026-.006.025-.005.025-.003.025-.003.024-.002.024-.001.025-.001.024.001.024.001.025.002.024.003.024.003.025.005.025.006.025.006.026.008.027.009.026.009.028.011.028.013.029.013.03.015.03.017.031.018.032.019.032.021.033.022.034.025.034.026.035.027.036.029.036.031.036.033.037.035.038.036.038.038.038.04.038.041.039.044.039.045.04.047.039.049.04.05.04.052.04.054.04.056.04.057.04.059.04.061.04.062.041.064.04.066.04.067.039.069.04.071.04.072.039.074.04.075.039.076.039.079.038.079.039.082.038.082.038.084.038.086.038.087.037.088.037.09.036.091.036.093.036.094.036.095.035.096.035.098.035.099.034.1.034.102.033.102.033.104.033.106.032.106.032.107.031.109.031.11.03.111.03.112.03.113.029.115.028.115.028.116.028.116.027.24.053.242.051.246.048.249.047.254.044.257.042.26.04.264.038.267.035.27.033.273.031.277.028.279.025.281.023.285.021.287.018.289.015.292.012.294.01.296.007.298.005.3.001.3-.001.298-.005.296-.007.294-.01.292-.012.289-.015.287-.018.285-.021.281-.023.279-.025.277-.028.273-.031.27-.033.267-.035.264-.038.26-.04.257-.042.254-.044.249-.047.246-.048.242-.051.24-.053.116-.027.116-.028.115-.028.115-.028.113-.029.112-.03.111-.03.11-.03.109-.031.107-.031.106-.032.106-.032.104-.033.102-.033.102-.033.1-.034.099-.034.098-.035.096-.035.095-.035.094-.036.093-.036.091-.036.09-.036.088-.037.087-.037.086-.038.084-.038.082-.038.082-.038.079-.039.079-.038.076-.039.075-.039.074-.04.072-.039.071-.04.069-.04.067-.039.066-.04.064-.04.062-.041.061-.04.059-.04.057-.04.056-.04.054-.04.052-.04.05-.04.049-.04.047-.039.045-.04.044-.039.041-.039.04-.038.038-.038.036-.038.035-.038.033-.037.031-.036.029-.036.027-.036.026-.035.024-.034.023-.034.021-.033.019-.032.018-.032.017-.031.015-.03.013-.03.013-.029.011-.028.009-.028.009-.026.008-.027.006-.026.006-.025.005-.025.003-.025.003-.024.002-.024.001-.025.001-.024-.001-.024-.001-.025-.002-.024-.003-.024-.003-.025-.005-.025-.006-.025-.006-.026-.008-.027-.009-.026-.009-.028-.011-.028-.013-.029-.013-.03-.015-.03-.017-.031-.018-.032-.019-.032-.021-.033-.023-.034-.024-.034-.026-.035-.027-.036-.029-.036-.031-.036-.033-.037-.035-.038-.036-.038-.038-.038-.04-.038-.041-.039-.044-.039-.045-.04-.047-.039-.049-.04-.05-.04-.052-.04-.054-.04-.056-.04-.057-.04-.059-.04-.061-.04-.062-.041-.064-.04-.066-.04-.067-.039-.069-.04-.071-.04-.072-.039-.074-.04-.075-.039-.076-.039-.079-.038-.079-.039-.082-.038-.082-.038-.084-.038-.086-.038-.087-.037-.088-.037-.09-.036-.091-.036-.093-.036-.094-.036-.095-.035-.096-.035-.098-.035-.099-.034-.1-.034-.102-.033-.102-.033-.104-.033-.106-.032-.106-.031-.108-.032-.108-.031-.11-.03-.111-.03-.112-.03-.113-.029-.115-.028-.115-.028-.116-.028-.116-.027-.24-.053-.242-.051-.246-.048-.249-.047-.254-.044-.257-.042-.26-.04-.264-.038-.267-.035-.27-.033-.273-.031-.277-.028-.279-.025-.281-.023-.285-.021-.287-.018-.289-.015-.292-.012-.294-.01-.296-.007-.298-.005-.3-.001z" fill="#fff"/></g><path d="m1 21.5h30v6.5h-30z" fill="none"/></g></svg>