<svg clip-rule="evenodd" fill-rule="evenodd" stroke-linecap="round" stroke-linejoin="round" stroke-miterlimit="1.5" viewBox="0 0 32 32" xmlns="http://www.w3.org/2000/svg" xmlns:xlink="http://www.w3.org/1999/xlink"><clipPath id="a"><path clip-rule="evenodd" d="m0 0h32v32h-32z"/></clipPath><metadata/><path d="m0 0h32v32h-32z" fill="none"/><g clip-path="url(#a)"><g stroke="#000" stroke-width="4"><path d="m30 18s-.025.025-.071.071c-1.875 1.875-4.419 2.929-7.071 2.929-1.815 0-3.94 0-5.751 0-2.63 0-5.152-1.045-7.011-2.904-1.342-1.342-2.096-3.162-2.096-5.06 0-.023 0-.036 0-.036h15l4 4z" fill="#3e4f22"/><path d="m9 11s.609-.305 1.155-.578c.556-.277 1.168-.422 1.789-.422h6.791c2.091 0 4.095.83 5.573 2.308 2.364 2.364 5.692 5.692 5.692 5.692s-10.033 0-14.683 0c-1.484 0-2.906-.589-3.955-1.638-.508-.508-1.048-1.048-1.483-1.483-.563-.563-.879-1.326-.879-2.122 0-.825 0-1.757 0-1.757z" fill="#729240"/><path d="m23 17v4.172c0 .53.211 1.039.586 1.414.873.873 2.414 2.414 2.414 2.414s0-3.525 0-5.172c0-.53-.211-1.039-.586-1.414-.59-.59-1.414-1.414-1.414-1.414z" fill="#729240"/><path d="m12 15-6 6s.584.584 1.121 1.121c.563.563 1.326.879 2.122.879h.521c.757 0 1.45-.428 1.789-1.106.866-1.733 2.447-4.894 2.447-4.894z" fill="#729240"/><path d="m9 12s-2.065-2.065-3.227-3.227c-.495-.495-1.166-.773-1.866-.773-.857 0-1.907 0-1.907 0v2.679c0 .846.336 1.657.934 2.255l.34.34c1.105 1.105 2.604 1.726 4.167 1.726h3.559v-3z" fill="#729240"/></g><path d="m30 18s-.025.025-.071.071c-1.875 1.875-4.419 2.929-7.071 2.929-1.815 0-3.94 0-5.751 0-2.63 0-5.152-1.045-7.011-2.904-1.342-1.342-2.096-3.162-2.096-5.06 0-.023 0-.036 0-.036l1-2 14 2 4 4z" fill="#3e4f22"/><path d="m23 17v4.172c0 .53.211 1.039.586 1.414.873.873 2.414 2.414 2.414 2.414s0-3.525 0-5.172c0-.53-.211-1.039-.586-1.414-.59-.59-1.414-1.414-1.414-1.414z" fill="#577031"/><path d="m12 15-6 6s.584.584 1.121 1.121c.563.563 1.326.879 2.122.879h.521c.757 0 1.45-.428 1.789-1.106.866-1.733 2.447-4.894 2.447-4.894z" fill="#577031"/><path d="m9 12s-2.065-2.065-3.227-3.227c-.495-.495-1.166-.773-1.866-.773-.857 0-1.907 0-1.907 0v2.679c0 .846.336 1.657.934 2.255l.34.34c1.105 1.105 2.604 1.726 4.167 1.726h3.559v-3z" fill="#577031"/><path d="m16 18v-3.793l1.5-1.5 1.5 1.5v3.793zm4 0v-3.793l1.5-1.5 1.5 1.5v3.793zm5.104-4.896 1.896 1.896v3h-3l-1-3.793zm4.896 4.896h-2v-2zm-18-1.09v-2.703l1.5-1.5 1.5 1.5v3.784c-1.087-.062-2.129-.439-3-1.081zm-2.97-3.732.47-.471 1.5 1.5v1.793l-1.121-1.121c-.463-.463-.759-1.061-.849-1.701zm12.97-2.47c.851.387 1.635.927 2.308 1.6l.088.088-.896 1.897-2.5-2.5zm-9-.708v1.793l-1.5 1.5-1.5-1.5v-1.293l.155-.078c.556-.277 1.168-.422 1.789-.422zm1 0h3v1.793l-1.5 1.5-1.5-1.5zm4 0h.735c.774 0 1.537.114 2.265.332v1.461l-1.5 1.5-1.5-1.5z" fill="#729240"/><path d="m4 9.5c0-.133-.053-.26-.146-.354-.094-.093-.221-.146-.354-.146s-.26.053-.354.146c-.093.094-.146.221-.146.354v1c0 .133.053.26.146.354.094.093.221.146.354.146s.26-.053.354-.146c.093-.094.146-.221.146-.354 0-.305 0-.695 0-1z"/><path d="m13 10 .448.612.552-.612h3l.506.612.494-.612h.735c.774 0 1.537.114 2.265.332l.541.668.459-.292c.851.387 1.635.927 2.308 1.6l.088.088v.604l.708.104 1.896 1.896.635 1.91-.635 1.09h-3l-.6-.777-.4.777h-3l-.471-.777-.529.777h-3l-.389-.777-.611.768c-1.087-.062-2.129-.439-3-1.081l-.495-1.193-.505.283-1.121-1.121c-.463-.463-.759-1.061-.849-1.702l.347-1.353.623-1.324.155-.078c.556-.277 1.168-.422 1.789-.422zm17 8h-2l-.541-1.09.541-.91z" fill="#729240"/><path d="m13 10h1v1.793l1.5 1.5 1.5-1.5v-1.793h1v1.793l1.5 1.5 1.5-1.5v-1.461c.342.103.676.228 1 .376v1.085l1.5 1.5.896-.897.708.708-1.104 1.103v3.793h-1v-3.793l-1.5-1.5-1.5 1.5v3.793h-1v-3.793l-1.5-1.5-1.5 1.5v3.793h-.683c-.106 0-.212-.003-.317-.009v-3.784l-1.5-1.5-1.5 1.5v2.703c-.225-.165-.438-.348-.638-.548l-.362-.362v-1.793l-1.5-1.5-.47.471c-.02-.139-.03-.279-.03-.421 0-.825 0-1.757 0-1.757l1-.5v1.293l1.5 1.5 1.5-1.5zm15 6v2h-1v-3z" fill="#607934"/></g></svg>