<svg clip-rule="evenodd" fill-rule="evenodd" stroke-linejoin="round" stroke-miterlimit="1.41421" viewBox="0 0 32 32" xmlns="http://www.w3.org/2000/svg" xmlns:xlink="http://www.w3.org/1999/xlink"><clipPath id="a"><path clip-rule="evenodd" d="m0 0h32v32h-32z"/></clipPath><metadata/><path d="m0 0h32v32h-32z" fill="none"/><g clip-path="url(#a)"><path d="m32 5c0-.53-.211-1.039-.586-1.414s-.884-.586-1.414-.586c-5.746 0-22.254 0-28 0-.53 0-1.039.211-1.414.586s-.586.884-.586 1.414v21h32s0-15.405 0-21z"/><path d="m8 27c0 .53-.211 1.039-.586 1.414s-.884.586-1.414.586c-1.222 0-2.778 0-4 0-.53 0-1.039-.211-1.414-.586s-.586-.884-.586-1.414c0-1.392 0-3 0-3h8z"/><path d="m32 27c0 .53-.211 1.039-.586 1.414s-.884.586-1.414.586c-1.222 0-2.778 0-4 0-.53 0-1.039-.211-1.414-.586s-.586-.884-.586-1.414c0-1.392 0-3 0-3h8z"/><path d="m2 23h4v4h-4z" fill="#555"/><path d="m26 23h4v4h-4z" fill="#555"/><path d="m2 5h28v19h-28z" fill="#333"/><path d="m3.975 7h24.025v15h-24.025z" fill="#4961ea"/></g></svg>