<svg clip-rule="evenodd" fill-rule="evenodd" stroke-linejoin="round" stroke-miterlimit="2" viewBox="0 0 32 32" xmlns="http://www.w3.org/2000/svg" xmlns:xlink="http://www.w3.org/1999/xlink"><clipPath id="a"><path clip-rule="evenodd" d="m0 0h32v32h-32z"/></clipPath><metadata/><path d="m0 0h32v32h-32z" fill="none"/><g clip-path="url(#a)"><path d="m24.099.001c.264.005.527.019.79.048.648.073 1.288.225 1.9.453 1.167.434 2.227 1.143 3.074 2.055.757.815 1.339 1.787 1.701 2.838.278.807.419 1.652.435 2.506.034 5.399.034 10.799 0 16.199-.005.263-.019.527-.048.789-.073.649-.225 1.288-.453 1.9-.434 1.167-1.143 2.227-2.056 3.075-.814.756-1.786 1.338-2.837 1.7-.807.278-1.652.42-2.506.435-5.399.035-10.799.035-16.198 0-.854-.015-1.699-.157-2.506-.435-.989-.34-1.907-.876-2.691-1.568-1.007-.89-1.782-2.033-2.236-3.299-.299-.835-.451-1.712-.467-2.598-.034-5.399-.034-10.799 0-16.198.015-.854.157-1.699.435-2.506.384-1.114 1.015-2.138 1.837-2.981.823-.844 1.833-1.501 2.938-1.912.581-.216 1.187-.365 1.803-.441.294-.037.59-.055.887-.06 5.399-.032 10.799-.032 16.198 0z" fill-rule="nonzero"/><path d="m30 8c0-1.591-.632-3.117-1.757-4.243-1.126-1.125-2.652-1.757-4.243-1.757h-16c-1.591 0-3.117.632-4.243 1.757-1.125 1.126-1.757 2.652-1.757 4.243v16c0 1.591.632 3.117 1.757 4.243 1.126 1.125 2.652 1.757 4.243 1.757h16c1.591 0 3.117-.632 4.243-1.757 1.125-1.126 1.757-2.652 1.757-4.243z" fill="#ff4586"/><path d="m21 10h6v6h-2v-2.586l-3.116 3.116c.311.373.583.778.81 1.208.321.608.551 1.263.681 1.938.139.728.162 1.479.069 2.214-.091.715-.294 1.415-.599 2.068-.357.764-.853 1.461-1.456 2.05-.624.609-1.361 1.101-2.165 1.441-.832.352-1.731.539-2.634.55-.906.012-1.813-.152-2.656-.485-.813-.321-1.563-.795-2.202-1.39-.616-.574-1.128-1.259-1.503-2.013-.32-.644-.54-1.336-.648-2.047-.007-.042-.013-.084-.019-.127-.557-.075-1.105-.217-1.628-.423-.813-.321-1.563-.795-2.202-1.39-.616-.574-1.128-1.259-1.503-2.013-.32-.644-.54-1.336-.648-2.047-.112-.733-.108-1.484.013-2.215.118-.708.346-1.397.673-2.036.68-1.327 1.786-2.42 3.122-3.084.591-.294 1.224-.503 1.874-.62.32-.057.642-.089.967-.104.12-.004.24-.005.36-.004.327.006.652.03.974.08.655.1 1.294.294 1.894.574.327.153.642.331.94.532l3.188-3.187h-2.586v-2h6zm-3.584 6.086c-.101.647-.294 1.279-.571 1.872-.357.764-.853 1.461-1.456 2.05-.624.609-1.361 1.101-2.165 1.441-.525.222-1.077.379-1.64.467.08.432.218.854.409 1.25.262.543.622 1.037 1.058 1.453.452.43.983.775 1.561 1.012.598.244 1.242.369 1.888.369s1.29-.125 1.888-.369c.578-.237 1.109-.582 1.561-1.012.436-.416.796-.91 1.058-1.453.223-.462.373-.958.444-1.466.077-.546.063-1.105-.041-1.647-.092-.481-.256-.948-.485-1.381-.507-.961-1.329-1.745-2.314-2.205-.382-.179-.783-.305-1.195-.381zm-2-2.002c-.002-.01-.004-.021-.006-.031-.092-.481-.256-.948-.485-1.381-.507-.961-1.329-1.745-2.314-2.205-.642-.3-1.339-.453-2.046-.467-.066 0-.065 0-.13 0-.707.014-1.404.167-2.046.467-1.003.469-1.837 1.273-2.342 2.259-.214.418-.369.866-.457 1.327-.104.542-.118 1.101-.041 1.647.071.508.221 1.004.444 1.466.262.543.622 1.037 1.058 1.453.452.43.983.775 1.561 1.012.313.128.639.223.972.285.003-.023.007-.045.01-.067.118-.708.346-1.397.673-2.036.68-1.327 1.786-2.42 3.122-3.084.591-.294 1.224-.503 1.874-.62.051-.009.102-.017.153-.025zm-.044 2.046c-.338.077-.667.189-.983.337-1.003.469-1.837 1.273-2.342 2.259-.186.363-.327.748-.419 1.146.259-.06.514-.14.76-.241.578-.237 1.109-.582 1.561-1.012.436-.416.796-.91 1.058-1.453.16-.331.282-.679.365-1.036zm3.628-8.716-3.116 3.116c.311.373.583.778.81 1.208.321.608.551 1.263.681 1.938.024.129.045.257.063.387.042.005.084.011.126.018.655.1 1.294.294 1.894.574.327.153.642.331.94.532l3.188-3.187h-2.586v-2h-2z" fill="#fff"/></g></svg>