<svg clip-rule="evenodd" fill-rule="evenodd" stroke-miterlimit="1.5" viewBox="0 0 32 32" xmlns="http://www.w3.org/2000/svg" xmlns:xlink="http://www.w3.org/1999/xlink"><clipPath id="a"><path clip-rule="evenodd" d="m22 13.679s-2.386-2.386-4.114-4.114c-.464-.464-.725-1.093-.725-1.749s.261-1.285.725-1.748c0-.001.001-.001.001-.002.443-.443 1.044-.692 1.67-.692s1.227.249 1.67.692c.429.43.773.773.773.773s.344-.343.773-.773c.443-.443 1.044-.692 1.67-.692s1.227.249 1.67.692c0 .001.001.001.001.002.464.463.725 1.092.725 1.748s-.261 1.285-.725 1.749c-1.728 1.728-4.114 4.114-4.114 4.114z"/></clipPath><clipPath id="b"><path clip-rule="evenodd" d="m11.5 27.296s-4.024-4.025-6.9-6.9c-.753-.753-1.176-1.775-1.176-2.84s.423-2.087 1.176-2.84c.001-.001.001-.001.001-.001.754-.754 1.775-1.177 2.841-1.177 1.065 0 2.087.423 2.84 1.177.682.682 1.218 1.218 1.218 1.218s.536-.536 1.218-1.218c.753-.754 1.775-1.177 2.84-1.177 1.066 0 2.087.423 2.841 1.177 0 0 0 0 .001.001.753.753 1.176 1.775 1.176 2.84s-.423 2.087-1.176 2.84c-2.876 2.875-6.9 6.9-6.9 6.9z"/></clipPath><metadata/><path d="m0 0h32v32h-32z" fill="none"/><path d="m8 9h18v12h-18z"/><path d="m16.661 5.001.161.002.16.003.16.005.159.006.159.007.158.009.158.01.157.011.157.013.157.014.156.015.155.017.155.017.154.02.154.02.153.021.153.023.152.024.151.026.151.026.151.028.149.029.15.03.148.032.148.033.147.034.147.035.146.036.145.038.144.038.144.04.143.041.143.043.142.043.141.045.14.045.139.047.139.048.138.05.138.05.136.052.136.053.135.054.134.055.133.056.133.057.131.059.131.06.13.061.129.062.129.063.127.064.126.065.126.067.125.068.124.069.122.07.122.071.121.073.12.073.119.075.118.076.117.077.116.078.115.08.114.081.113.081.112.083.111.085.11.085.108.087.107.087.107.089.105.091.104.091.103.093.101.094.101.095.099.097.098.098.096.098.095.1.094.102.092.103.091.104.09.105.088.107.087.108.085.109.084.111.082.111.08.113.079.115.078.116.075.116.074.119.072.119.07.121.069.122.066.123.065.125.062.126.061.127.058.128.057.13.055.131.052.131.05.133.048.135.045.135.043.136.041.137.039.139.036.138.033.141.031.141.028.141.026.143.024.144.02.144.018.144.015.145.013.146.01.147.007.146.004.147.001.148-.001.148-.004.147-.007.146-.01.147-.013.146-.015.145-.018.144-.02.144-.024.144-.026.143-.028.141-.031.141-.033.141-.036.138-.039.139-.041.137-.043.136-.045.135-.048.135-.05.133-.052.131-.055.131-.057.13-.058.128-.061.127-.062.126-.065.125-.066.123-.069.122-.07.121-.072.119-.074.119-.075.116-.078.116-.079.115-.08.113-.082.111-.084.111-.085.109-.087.108-.088.107-.09.105-.091.104-.092.103-.094.102-.095.1-.096.098-.098.098-.099.097-.101.095-.101.094-.103.093-.104.091-.105.091-.107.089-.107.087-.108.087-.11.086-.111.084-.112.083-.113.081-.114.081-.115.08-.116.078-.117.077-.118.076-.119.075-.12.073-.121.073-.122.071-.122.07-.124.069-.125.068-.126.067-.126.065-.127.064-.129.063-.129.062-.13.061-.131.06-.131.059-.133.057-.133.056-.134.055-.135.054-.136.053-.136.052-.138.05-.138.05-.139.048-.139.047-.14.045-.141.045-.142.043-.143.043-.143.041-.144.04-.144.038-.145.038-.146.036-.147.035-.147.034-.148.033-.148.032-.15.03-.149.029-.151.028-.151.026-.151.026-.152.024-.153.023-.153.021-.154.02-.154.02-.155.017-.155.017-.156.015-.157.014-.157.013-.157.011-.158.01-.158.009-.159.007-.16.006-.159.005-.16.003-.161.002-.161.001-.161-.001-.161-.002-.16-.003-.159-.005-.16-.006-.159-.007-.158-.009-.158-.01-.157-.011-.157-.013-.157-.014-.156-.015-.155-.017-.155-.017-.154-.02-.154-.02-.153-.021-.153-.023-.152-.024-.152-.026-.15-.026-.151-.028-.149-.029-.15-.03-.148-.032-.148-.033-.147-.034-.147-.035-.146-.036-.145-.038-.144-.038-.144-.04-.143-.041-.143-.043-.142-.043-.141-.045-.14-.045-.139-.047-.139-.048-.138-.05-.138-.05-.136-.052-.136-.053-.135-.054-.134-.055-.133-.056-.133-.057-.131-.059-.131-.06-.13-.061-.129-.062-.129-.063-.127-.064-.127-.066-.125-.066-.125-.068-.124-.069-.122-.07-.122-.071-.121-.073-.12-.073-.119-.075-.118-.076-.117-.077-.116-.078-.115-.08-.114-.081-.113-.081-.112-.083-.111-.084-.11-.086-.108-.087-.107-.087-.107-.089-.105-.091-.104-.091-.103-.093-.101-.094-.101-.095-.099-.097-.098-.098-.096-.099-.095-.099-.094-.102-.092-.103-.091-.104-.09-.105-.088-.107-.087-.108-.085-.109-.084-.111-.082-.111-.08-.113-.079-.115-.078-.116-.075-.116-.074-.119-.072-.119-.07-.121-.069-.122-.066-.123-.065-.125-.062-.126-.061-.127-.058-.128-.057-.13-.055-.131-.052-.131-.05-.133-.048-.135-.045-.135-.043-.136-.041-.137-.039-.139-.036-.138-.033-.141-.031-.141-.028-.141-.026-.143-.024-.143-.02-.145-.018-.144-.015-.145-.013-.146-.01-.147-.007-.146-.004-.147-.001-.148.001-.148.004-.147.007-.146.01-.147.013-.146.015-.145.018-.144.02-.145.024-.143.026-.143.028-.141.031-.141.033-.141.036-.138.039-.139.041-.137.043-.136.045-.135.048-.135.05-.133.052-.131.055-.131.057-.13.058-.128.061-.127.062-.126.065-.125.066-.123.069-.122.07-.121.072-.119.074-.119.075-.116.078-.116.079-.115.08-.113.082-.111.084-.111.085-.109.087-.108.088-.107.09-.105.091-.104.092-.103.094-.102.095-.099.096-.099.098-.098.099-.097.101-.095.101-.094.103-.093.104-.091.105-.091.107-.089.107-.087.108-.087.11-.085.111-.085.112-.083.113-.081.114-.081.115-.08.116-.078.117-.077.118-.076.119-.075.12-.073.121-.073.122-.071.122-.07.124-.069.125-.068.125-.066.127-.066.127-.064.129-.063.129-.062.13-.061.131-.06.131-.059.133-.057.133-.056.134-.055.135-.054.136-.053.136-.052.138-.05.138-.05.139-.048.139-.047.14-.045.141-.045.142-.043.143-.043.143-.041.144-.04.144-.038.145-.038.146-.036.147-.035.147-.034.148-.033.148-.032.15-.03.149-.029.151-.028.15-.026.152-.026.152-.024.153-.023.153-.021.154-.02.154-.02.155-.017.155-.017.156-.015.157-.014.157-.013.157-.011.158-.01.158-.009.159-.007.159-.006.16-.005.16-.003.161-.002.161-.001zm-.271 5.999-.11.002-.11.002-.108.003-.109.005-.108.005-.108.006-.107.006-.107.008-.106.009-.106.009-.105.01-.104.011-.105.012-.103.013-.103.014-.103.014-.101.015-.101.016-.101.017-.1.018-.1.018-.098.019-.098.02-.098.021-.096.021-.096.023-.096.022-.094.024-.094.024-.093.025-.093.026-.091.026-.091.027-.09.028-.089.028-.089.029-.087.029-.087.03-.086.031-.085.031-.084.032-.084.032-.082.033-.081.034-.081.034-.08.034-.079.035-.077.036-.077.036-.076.036-.075.037-.074.037-.072.038-.072.038-.071.039-.07.038-.068.04-.068.039-.067.04-.065.04-.065.041-.063.04-.062.041-.061.042-.06.041-.059.042-.058.042-.056.042-.056.042-.054.042-.053.042-.052.043-.051.042-.049.043-.049.043-.047.042-.046.043-.045.043-.044.042-.042.042-.042.043-.04.043-.039.042-.038.042-.037.042-.035.042-.035.041-.033.042-.032.041-.031.041-.03.04-.029.041-.027.04-.027.04-.026.039-.024.04-.024.039-.022.038-.021.038-.021.038-.019.038-.019.037-.017.037-.017.036-.016.036-.015.036-.014.035-.013.036-.012.034-.012.035-.011.034-.01.034-.009.034-.009.033-.008.034-.007.033-.007.033-.006.033-.005.032-.005.032-.004.033-.003.033-.003.033-.002.033-.002.033-.001.033v.033.033l.001.033.002.033.002.033.003.033.003.033.004.033.005.032.005.032.006.033.007.033.007.033.008.034.009.033.009.034.01.034.011.034.012.035.012.034.013.036.014.035.015.036.016.036.017.036.017.037.019.037.019.038.021.038.021.038.022.038.024.039.024.04.026.039.027.04.027.04.029.041.03.04.031.041.032.041.033.042.035.041.035.042.037.042.038.042.039.042.04.043.042.043.042.042.044.042.045.043.046.043.047.042.049.043.049.043.051.042.052.043.053.042.054.042.056.043.056.041.058.042.059.042.06.041.061.042.062.041.063.04.065.041.065.04.067.04.068.039.068.04.07.038.071.039.072.038.072.038.074.037.075.037.076.036.077.036.077.036.079.035.08.034.08.034.082.034.082.033.084.032.084.032.085.031.086.031.087.03.087.029.089.029.089.028.09.028.091.027.091.026.093.026.093.025.094.024.094.024.096.022.096.023.096.021.098.021.098.02.098.019.1.018.1.018.1.017.102.016.102.015.102.014.103.014.104.013.104.012.104.011.105.01.106.009.106.009.107.008.107.006.108.006.108.005.108.005.11.003.109.002.11.002h.11.11l.11-.002.109-.002.11-.003.108-.005.108-.005.108-.006.107-.006.107-.008.106-.009.106-.009.105-.01.104-.011.104-.012.104-.013.103-.014.102-.014.102-.015.102-.016.1-.017.1-.018.1-.018.098-.019.098-.02.098-.021.096-.021.096-.023.096-.022.094-.024.094-.024.093-.025.093-.026.091-.026.091-.027.09-.028.089-.028.089-.029.087-.029.087-.03.086-.031.085-.031.084-.032.084-.032.082-.033.082-.034.08-.034.08-.034.079-.035.077-.036.077-.036.076-.036.075-.037.074-.037.072-.038.072-.038.071-.039.07-.038.068-.04.068-.039.067-.04.065-.04.064-.041.064-.04.062-.041.061-.042.06-.041.059-.042.058-.042.056-.041.056-.043.054-.042.053-.042.052-.043.051-.042.049-.043.049-.043.047-.042.046-.043.045-.043.044-.042.042-.042.042-.043.04-.043.039-.042.038-.042.037-.042.035-.042.035-.041.033-.042.032-.041.031-.041.03-.04.029-.041.027-.04.027-.04.026-.039.024-.04.024-.039.022-.038.021-.038.021-.038.019-.038.019-.037.017-.037.017-.036.016-.036.015-.036.014-.035.013-.036.012-.034.012-.035.011-.034.01-.034.009-.034.009-.033.008-.034.007-.033.007-.033.006-.033.005-.032.005-.032.004-.034.003-.032.003-.033.002-.033.002-.033.001-.033v-.033-.033l-.001-.033-.002-.033-.002-.033-.003-.033-.003-.032-.004-.034-.005-.032-.005-.032-.006-.033-.007-.033-.007-.033-.008-.034-.009-.033-.009-.034-.01-.034-.011-.034-.012-.035-.012-.034-.013-.036-.014-.035-.015-.036-.016-.036-.017-.036-.017-.037-.019-.037-.019-.038-.021-.038-.021-.038-.022-.038-.024-.039-.024-.04-.026-.039-.027-.04-.027-.04-.029-.041-.03-.04-.031-.041-.032-.041-.033-.042-.035-.041-.035-.042-.037-.042-.038-.042-.039-.042-.04-.043-.042-.043-.042-.042-.044-.042-.045-.043-.046-.043-.047-.042-.049-.043-.049-.043-.051-.042-.052-.043-.053-.042-.054-.042-.056-.042-.056-.042-.058-.042-.059-.042-.06-.041-.061-.041-.062-.042-.064-.04-.064-.041-.065-.04-.067-.04-.068-.039-.068-.04-.07-.038-.071-.039-.072-.038-.072-.038-.074-.037-.075-.037-.076-.036-.077-.036-.077-.036-.079-.035-.08-.034-.08-.034-.082-.034-.082-.033-.084-.032-.084-.032-.085-.031-.086-.031-.087-.03-.087-.029-.089-.029-.089-.028-.09-.028-.091-.027-.091-.026-.093-.026-.093-.025-.094-.024-.094-.024-.096-.022-.096-.023-.096-.021-.098-.021-.098-.02-.098-.019-.1-.018-.1-.018-.101-.017-.101-.016-.101-.015-.103-.014-.103-.014-.103-.013-.105-.012-.104-.011-.105-.01-.106-.009-.106-.009-.107-.008-.107-.006-.108-.006-.108-.005-.109-.005-.108-.003-.11-.002-.11-.002h-.11z"/><g fill="none"><ellipse cx="16.5" cy="15" rx="10.5" ry="7" stroke="#ff4586" stroke-width="2"/><path d="m22 14s-2.571-2.571-4.432-4.432c-.5-.5-.78-1.177-.78-1.884 0-.706.28-1.384.78-1.884 0 0 .001-.001.002-.001.477-.477 1.124-.745 1.798-.745.675 0 1.322.268 1.799.745.463.462.833.833.833.833s.37-.371.833-.833c.477-.477 1.124-.745 1.799-.745.674 0 1.321.268 1.798.745.001 0 .002.001.002.001.5.5.78 1.178.78 1.884 0 .707-.28 1.384-.78 1.884-1.861 1.861-4.432 4.432-4.432 4.432z" stroke="#000" stroke-linecap="round" stroke-linejoin="round" stroke-width="4"/><path d="m11.5 28s-4.436-4.436-7.606-7.606c-.83-.83-1.297-1.956-1.297-3.131 0-1.174.467-2.301 1.297-3.131.001 0 .001-.001.001-.001.831-.83 1.957-1.297 3.131-1.297 1.175 0 2.301.467 3.131 1.297.752.752 1.343 1.343 1.343 1.343s.591-.591 1.343-1.343c.83-.83 1.956-1.297 3.131-1.297 1.174 0 2.3.467 3.131 1.297 0 0 0 .001.001.001.83.83 1.297 1.957 1.297 3.131 0 1.175-.467 2.301-1.297 3.131-3.17 3.17-7.606 7.606-7.606 7.606z" stroke="#000" stroke-linecap="round" stroke-linejoin="round" stroke-width="4"/></g><path d="m22 13.679s-2.386-2.386-4.114-4.114c-.464-.464-.725-1.093-.725-1.749s.261-1.285.725-1.748c0-.001.001-.001.001-.002.443-.443 1.044-.692 1.67-.692s1.227.249 1.67.692c.429.43.773.773.773.773s.344-.343.773-.773c.443-.443 1.044-.692 1.67-.692s1.227.249 1.67.692c0 .001.001.001.001.002.464.463.725 1.092.725 1.748s-.261 1.285-.725 1.749c-1.728 1.728-4.114 4.114-4.114 4.114z" fill="#ff4586"/><g clip-path="url(#a)"><path d="m24.861 2v2.219c0 1.781-.707 3.488-1.966 4.747-.001.001-.001.001-.001.001-.661.662-1.033 1.558-1.033 2.494v7.539h-10v-17z" fill="#ff8fb6"/></g><path d="m24.695 5.055.063.002.062.004.063.005.062.007.062.009.062.01.061.011.061.013.061.014.06.016.059.018.06.019.058.02.059.021.057.023.057.025.057.026.055.027.056.028.054.03.054.032.053.032.052.034.051.035.051.037.05.038.049.039.048.04.047.042.046.043.047.045.046.048.045.048.044.05.042.05.041.051.04.052.038.053.037.054.035.055.034.055.033.057.031.057.03.057.029.059.027.059.026.06.024.06.022.061.021.061.02.062.018.063.017.063.015.063.014.064.012.064.01.065.009.065.007.065.006.065.004.066.003.066v.066.066l-.003.066-.004.066-.006.066-.007.065-.009.065-.01.064-.012.064-.014.064-.015.064-.017.063-.018.062-.02.062-.021.061-.022.061-.024.061-.026.059-.027.06-.029.058-.03.058-.031.057-.033.056-.034.055-.035.055-.037.054-.038.053-.04.052-.041.052-.042.05-.044.049-.045.049-.046.047-4.432 4.432-4.432-4.432-.046-.047-.045-.049-.044-.049-.042-.05-.041-.052-.04-.052-.038-.053-.037-.054-.035-.055-.034-.055-.033-.056-.031-.057-.03-.058-.029-.058-.027-.06-.026-.059-.024-.061-.022-.061-.021-.061-.02-.062-.018-.062-.017-.063-.015-.064-.014-.064-.012-.064-.01-.064-.009-.065-.007-.065-.006-.066-.004-.066-.003-.066v-.066-.066l.003-.066.004-.066.006-.065.007-.065.009-.065.01-.065.012-.064.014-.064.015-.063.017-.063.018-.063.02-.062.021-.061.022-.061.024-.06.026-.06.027-.059.029-.059.03-.057.031-.057.033-.057.034-.055.035-.055.037-.054.038-.053.04-.052.041-.051.042-.05.044-.05.045-.048.046-.048.002-.001.045-.044.046-.043.047-.042.048-.04.049-.039.05-.038.051-.037.051-.035.052-.034.053-.032.054-.032.054-.03.056-.028.055-.027.057-.026.057-.025.057-.023.059-.021.058-.02.06-.019.059-.018.06-.016.061-.014.061-.013.061-.011.062-.01.062-.009.062-.007.063-.005.062-.004.063-.002.063-.001.064.001.063.002.062.004.063.005.062.007.062.009.062.01.061.011.061.013.061.014.06.016.059.018.06.019.058.02.058.021.058.023.057.025.056.026.056.027.055.028.055.03.054.032.053.032.052.034.051.035.051.037.05.038.049.039.048.04.047.042.046.043.045.044.833.833.833-.833.045-.044.046-.043.047-.042.048-.04.049-.039.05-.038.051-.037.051-.035.052-.034.053-.032.054-.032.055-.03.055-.028.056-.027.056-.026.057-.025.058-.023.058-.021.058-.02.06-.019.059-.018.06-.016.061-.014.061-.013.061-.011.062-.01.062-.009.062-.007.063-.005.062-.004.063-.002.064-.001.063.001zm-.102.999-.038.002-.038.002-.038.003-.038.005-.037.005-.038.006-.037.007-.037.008-.037.008-.036.01-.037.011-.035.011-.036.012-.035.013-.035.014-.035.015-.034.016-.034.016-.033.018-.034.018-.032.019-.032.02-.032.02-.031.022-.031.022-.03.023-.03.023-.029.025-.029.025-.028.026-.032.031-1.535 1.536-1.535-1.536-.032-.031-.028-.026-.029-.025-.029-.024-.03-.024-.03-.023-.031-.022-.031-.022-.032-.02-.032-.02-.032-.019-.034-.018-.033-.018-.034-.016-.034-.016-.035-.015-.035-.014-.035-.013-.036-.012-.036-.011-.036-.011-.036-.01-.037-.008-.037-.008-.037-.007-.038-.006-.037-.005-.038-.005-.038-.003-.038-.002-.038-.002h-.039-.038l-.038.002-.038.002-.038.003-.038.005-.038.005-.037.006-.037.007-.037.008-.037.008-.036.01-.037.011-.035.011-.036.012-.035.013-.035.014-.035.015-.034.016-.034.016-.034.018-.033.018-.032.019-.032.02-.032.02-.031.022-.031.022-.03.023-.03.023-.029.025-.029.025-.028.026-.028.028-.03.03-.028.031-.027.03-.026.032-.026.032-.025.032-.024.033-.023.034-.022.034-.021.035-.021.035-.019.036-.019.036-.018.036-.017.037-.016.038-.015.037-.014.038-.013.039-.012.038-.012.039-.01.04-.01.039-.008.04-.007.04-.007.04-.006.041-.004.041-.004.04-.002.042-.002.041v.041.041l.002.042.002.041.004.041.004.04.006.041.007.04.007.04.008.04.01.04.01.039.012.039.012.039.013.038.014.038.015.038.016.037.017.037.018.037.019.036.019.035.021.036.021.034.022.034.023.034.024.033.025.033.026.032.026.031.027.031.028.03.033.034 3.721 3.721 3.721-3.721.033-.034.028-.03.027-.031.026-.031.026-.032.025-.033.024-.033.023-.034.022-.034.021-.035.021-.035.019-.035.019-.036.018-.037.017-.037.016-.037.015-.038.014-.038.013-.038.012-.039.012-.039.01-.039.009-.04.009-.04.007-.04.007-.04.006-.041.004-.04.004-.041.002-.041.002-.041v-.042-.041l-.002-.041-.002-.041-.004-.041-.004-.041-.006-.04-.007-.041-.007-.04-.008-.04-.01-.039-.01-.04-.012-.039-.012-.038-.013-.039-.014-.038-.015-.038-.016-.037-.017-.037-.018-.036-.019-.036-.019-.036-.021-.035-.021-.035-.022-.034-.023-.034-.024-.033-.025-.032-.026-.032-.026-.032-.027-.031-.028-.03-.03-.03-.028-.028-.028-.026-.029-.025-.029-.025-.03-.023-.03-.023-.031-.022-.031-.022-.032-.02-.032-.02-.032-.019-.033-.018-.034-.018-.034-.016-.034-.016-.035-.015-.035-.014-.035-.013-.035-.012-.036-.011-.037-.011-.036-.01-.037-.008-.037-.008-.037-.007-.037-.006-.038-.005-.038-.005-.038-.003-.038-.002-.038-.002h-.038z" fill="#ff4586"/><path d="m11.5 27.296s-4.024-4.025-6.9-6.9c-.753-.753-1.176-1.775-1.176-2.84s.423-2.087 1.176-2.84c.001-.001.001-.001.001-.001.754-.754 1.775-1.177 2.841-1.177 1.065 0 2.087.423 2.84 1.177.682.682 1.218 1.218 1.218 1.218s.536-.536 1.218-1.218c.753-.754 1.775-1.177 2.84-1.177 1.066 0 2.087.423 2.841 1.177 0 0 0 0 .001.001.753.753 1.176 1.775 1.176 2.84s-.423 2.087-1.176 2.84c-2.876 2.875-6.9 6.9-6.9 6.9z" fill="#ff4586"/><g clip-path="url(#b)"><path d="m16 9v3.858c0 2.652-1.054 5.196-2.929 7.071-.898.898-1.874 1.874-2.728 2.728-1.5 1.5-2.343 3.535-2.343 5.657v5.686h-10v-25z" fill="#ff8fb6"/></g><path d="m16.084 12.836.109.004.11.006.108.01.109.012.108.015.107.017.107.02.106.023.105.025.105.027.104.031.103.032.102.035.101.038.1.04.099.043.099.045.097.047.096.05.095.052.093.054.092.057.091.059.09.061.088.064.087.066.085.068.084.07.082.073.08.074.08.078.077.079.074.08.073.082.07.084.068.085.066.087.063.088.062.089.059.091.057.093.054.093.052.095.05.096.047.097.045.098.043.1.04.1.037.101.036.102.032.103.03.104.028.105.025.105.023.106.02.107.017.107.015.108.012.108.009.109.007.11.004.109.002.11-.002.11-.004.11-.007.109-.009.109-.012.108-.015.108-.017.107-.02.107-.023.106-.025.105-.028.105-.03.104-.032.103-.036.102-.037.101-.04.101-.043.099-.045.098-.047.097-.05.096-.052.095-.054.094-.057.092-.059.091-.062.089-.063.089-.066.086-.068.085-.07.084-.073.082-.074.081-.077.078-7.606 7.606-7.606-7.606-.077-.078-.074-.081-.073-.082-.07-.084-.068-.085-.066-.086-.063-.089-.062-.089-.059-.091-.057-.092-.054-.094-.052-.095-.05-.096-.047-.097-.045-.098-.043-.099-.04-.101-.037-.101-.036-.102-.032-.103-.03-.104-.028-.105-.025-.105-.023-.106-.02-.107-.017-.107-.015-.108-.012-.108-.009-.109-.007-.109-.004-.11-.002-.11.002-.11.004-.109.007-.11.009-.109.012-.108.015-.108.017-.107.02-.107.023-.106.025-.105.028-.105.03-.104.032-.103.036-.102.037-.101.04-.1.043-.1.045-.098.047-.097.05-.096.052-.095.054-.093.057-.093.059-.091.062-.089.063-.088.066-.087.068-.085.07-.084.073-.082.074-.08.077-.079.001-.001.079-.077.08-.074.082-.073.084-.07.085-.068.087-.066.088-.064.09-.061.091-.059.092-.057.093-.054.095-.052.096-.05.097-.047.099-.045.099-.043.1-.04.101-.038.102-.035.103-.032.104-.031.105-.027.105-.025.106-.023.107-.02.107-.017.108-.015.109-.012.108-.01.11-.006.109-.004.11-.002.11.002.11.004.109.006.109.01.108.012.108.015.108.017.106.02.106.023.106.025.104.027.104.031.103.032.102.035.102.038.1.04.099.043.098.045.097.047.096.05.095.052.094.054.092.057.091.059.09.061.088.064.086.066.086.068.083.07.082.073.081.074.078.077 1.343 1.343 1.343-1.343.078-.077.081-.074.082-.073.083-.07.086-.068.086-.066.088-.064.09-.061.091-.059.092-.057.094-.054.095-.052.096-.05.097-.047.098-.045.099-.043.1-.04.102-.038.102-.035.103-.032.104-.031.104-.027.106-.025.106-.023.106-.02.108-.017.108-.015.108-.012.109-.01.109-.006.11-.004.11-.002zm-.195.999-.085.003-.085.006-.084.007-.084.009-.084.012-.083.013-.082.016-.082.017-.082.02-.081.021-.08.023-.08.026-.079.027-.078.029-.078.031-.077.033-.076.035-.075.037-.074.038-.074.04-.072.043-.072.043-.07.046-.069.048-.069.049-.067.051-.066.053-.064.054-.064.056-.062.058-.066.064-2.045 2.045-2.045-2.045-.066-.064-.062-.058-.063-.056-.065-.054-.066-.053-.067-.051-.068-.049-.07-.048-.07-.046-.072-.043-.072-.043-.073-.04-.075-.038-.075-.037-.076-.035-.077-.033-.078-.031-.078-.029-.079-.027-.08-.026-.08-.023-.081-.021-.082-.02-.082-.017-.082-.016-.083-.013-.084-.012-.084-.009-.084-.007-.085-.006-.085-.003-.085-.001-.085.001-.085.003-.084.006-.085.007-.083.009-.084.012-.083.013-.083.016-.082.017-.081.02-.081.021-.081.023-.079.026-.079.027-.079.029-.078.031-.076.033-.076.035-.076.037-.074.038-.073.04-.073.043-.071.043-.071.046-.069.048-.068.049-.067.051-.066.052-.065.055-.063.056-.063.058-.061.06-.06.061-.058.062-.056.064-.054.065-.053.066-.051.067-.049.068-.048.069-.045.071-.044.071-.042.073-.041.073-.038.074-.037.075-.035.076-.033.077-.031.078-.029.078-.027.079-.025.08-.024.081-.021.081-.02.081-.017.082-.016.083-.013.083-.011.083-.01.084-.007.085-.005.084-.004.085-.001.085.001.085.004.085.005.085.007.084.009.084.012.083.013.083.016.083.017.082.02.082.021.081.024.08.025.08.027.079.029.078.031.078.033.077.035.076.037.075.038.074.041.074.042.072.044.072.045.07.048.069.049.069.051.067.053.066.054.064.056.064.058.062.064.066 6.894 6.894 6.894-6.895.064-.065.058-.062.056-.064.054-.064.053-.066.051-.067.049-.069.048-.069.045-.07.044-.072.042-.072.041-.074.038-.074.037-.075.035-.076.033-.077.031-.078.029-.078.027-.079.025-.08.024-.08.021-.081.02-.082.017-.082.016-.083.013-.083.011-.083.01-.084.007-.084.005-.085.004-.085.001-.085-.001-.085-.004-.085-.005-.084-.007-.085-.01-.084-.011-.083-.013-.083-.016-.083-.017-.082-.02-.081-.021-.081-.024-.081-.025-.079-.027-.08-.029-.078-.031-.078-.033-.077-.035-.076-.037-.075-.038-.074-.041-.073-.042-.073-.044-.071-.045-.071-.048-.069-.049-.068-.051-.067-.053-.066-.054-.065-.056-.064-.058-.062-.06-.061-.061-.06-.063-.058-.063-.056-.065-.055-.066-.052-.067-.051-.068-.049-.07-.048-.07-.046-.071-.043-.073-.043-.073-.04-.074-.038-.076-.037-.076-.035-.076-.033-.078-.031-.079-.029-.079-.027-.079-.026-.081-.023-.081-.021-.081-.02-.082-.017-.083-.016-.083-.013-.084-.012-.083-.009-.085-.007-.084-.006-.085-.003-.085-.001z" fill="#ff4586"/></svg>