<svg clip-rule="evenodd" fill-rule="evenodd" stroke-linecap="round" stroke-linejoin="round" stroke-miterlimit="1.5" viewBox="0 0 32 32" xmlns="http://www.w3.org/2000/svg"><metadata/><path d="m0 0h32v32h-32z" fill="none"/><path d="m24 13.5s-2.931-2.931-5-5c-1.105-1.105-1.105-2.895 0-4 .531-.531 1.25-.829 2-.829s1.469.298 2 .829c.551.551 1 1 1 1s.449-.449 1-1c.531-.531 1.25-.829 2-.829s1.469.298 2 .829c1.105 1.105 1.105 2.895 0 4-2.069 2.069-5 5-5 5z" fill="none" stroke="#000" stroke-width="4"/><path d="m12 29s-4.959-4.959-8.501-8.501c-1.933-1.933-1.933-5.065 0-6.998l.002-.002c1.933-1.933 5.065-1.933 6.998 0 .841.841 1.501 1.501 1.501 1.501s.66-.66 1.501-1.501c1.933-1.933 5.065-1.933 6.998 0 .001.001.001.001.002.002 1.933 1.933 1.933 5.065 0 6.998-3.542 3.542-8.501 8.501-8.501 8.501z" fill="none" stroke="#000" stroke-width="4"/><g fill="#ff4586"><path d="m24 13.225s-2.767-2.768-4.72-4.72c-1.043-1.043-1.043-2.733 0-3.776.501-.501 1.18-.782 1.888-.782s1.387.281 1.888.782c.52.52.944.944.944.944s.424-.424.944-.944c.501-.501 1.18-.782 1.888-.782s1.387.281 1.888.782c1.043 1.043 1.043 2.733 0 3.776-1.953 1.952-4.72 4.72-4.72 4.72z"/><path d="m26.898 3.947.066.003.066.004.066.006.065.007.065.009.065.01.064.012.064.014.064.015.063.017.062.018.063.02.061.021.061.023.061.024.059.025.06.028.058.028.058.03.057.032.057.032.055.035.055.035.054.037.053.038.053.04.051.041.05.043.05.043.048.045.048.047.048.049.047.051.045.051.044.052.042.053.04.053.039.055.037.055.036.056.035.056.032.058.032.057.03.059.028.059.026.059.026.06.023.061.023.061.02.061.019.062.018.062.016.062.014.063.013.063.012.063.01.064.008.063.007.064.005.064.004.064.002.064.001.064-.001.064-.002.064-.004.064-.005.064-.007.063-.008.064-.01.063-.012.064-.013.063-.014.062-.016.063-.018.062-.019.062-.02.061-.023.061-.023.06-.026.06-.026.06-.028.059-.03.058-.032.058-.032.057-.035.057-.036.056-.037.055-.039.054-.04.054-.042.053-.044.052-.045.051-.047.05-.048.05-4.72 4.72-4.72-4.72-.048-.05-.047-.05-.045-.051-.044-.052-.042-.053-.04-.054-.039-.054-.037-.055-.036-.056-.035-.057-.032-.057-.032-.058-.03-.058-.028-.059-.026-.06-.026-.06-.023-.06-.023-.061-.02-.061-.019-.062-.018-.062-.016-.063-.014-.062-.013-.063-.012-.064-.01-.063-.008-.064-.007-.063-.005-.064-.004-.064-.002-.064-.001-.064.001-.064.002-.064.004-.064.005-.064.007-.064.008-.063.01-.064.012-.063.013-.063.014-.063.016-.062.018-.062.019-.062.02-.061.023-.061.023-.061.026-.06.026-.059.028-.059.03-.059.032-.057.032-.058.035-.056.036-.056.037-.055.039-.055.04-.053.042-.053.044-.052.045-.051.047-.051.048-.049.048-.047.048-.045.05-.043.05-.043.051-.041.053-.04.053-.038.054-.037.055-.035.055-.035.057-.032.057-.032.058-.03.058-.028.06-.028.059-.025.061-.024.061-.023.061-.021.063-.02.062-.018.063-.017.064-.015.064-.014.064-.012.065-.01.065-.009.065-.007.066-.006.066-.004.066-.003h.066.066l.066.003.066.004.066.006.065.007.065.009.065.01.064.012.064.014.064.015.063.017.062.018.063.02.061.021.061.023.061.024.059.025.06.028.058.028.058.03.057.032.057.032.055.035.055.035.054.037.053.038.053.04.051.041.05.043.05.043.048.045.048.047.944.944.944-.944.048-.047.048-.045.05-.043.05-.043.051-.041.053-.04.053-.038.054-.037.055-.035.055-.035.057-.032.057-.032.058-.03.058-.028.06-.028.059-.025.061-.024.061-.023.061-.021.063-.02.062-.018.063-.017.064-.015.064-.014.064-.012.065-.01.065-.009.065-.007.066-.006.066-.004.066-.003h.066.066zm-.108 1-.041.002-.041.002-.041.004-.041.004-.041.006-.04.007-.04.007-.04.009-.04.009-.039.01-.04.012-.038.012-.039.013-.038.015-.038.015-.037.016-.037.017-.037.018-.036.018-.036.02-.035.021-.035.021-.034.022-.034.023-.033.024-.033.025-.032.026-.032.026-.031.028-.03.028-.034.033-1.647 1.647-1.647-1.647-.034-.033-.03-.028-.031-.028-.032-.026-.032-.026-.033-.025-.033-.024-.034-.023-.034-.022-.035-.021-.035-.021-.036-.02-.036-.018-.037-.018-.037-.017-.037-.016-.038-.015-.038-.015-.039-.013-.038-.012-.04-.012-.039-.01-.04-.009-.04-.009-.04-.007-.04-.007-.041-.006-.041-.004-.041-.004-.041-.002-.041-.002h-.042-.042l-.041.002-.041.002-.041.004-.041.004-.041.006-.04.007-.04.007-.04.009-.04.009-.039.01-.04.012-.038.012-.039.013-.038.015-.038.015-.037.016-.037.017-.037.018-.036.018-.036.02-.035.021-.035.021-.034.022-.034.023-.033.024-.033.025-.032.026-.031.026-.032.028-.03.028-.039.038.008-.008-.029.03-.03.032-.028.032-.028.033-.026.033-.025.034-.024.033-.024.035-.022.035-.022.035-.02.036-.019.035-.019.037-.018.037-.016.037-.016.037-.015.038-.013.038-.013.038-.012.039-.011.038-.01.039-.009.04-.008.039-.008.04-.006.039-.005.04-.004.04-.004.04-.002.041-.002.04v.04.04l.002.04.002.04.004.04.004.04.005.04.006.04.008.04.008.039.009.039.01.039.011.039.012.039.012.038.014.038.015.038.016.037.016.037.018.037.019.036.019.036.02.036.022.035.022.035.024.034.024.034.025.034.026.033.028.032.028.033.03.031.034.036 4.009 4.009 4.009-4.009.034-.036.03-.032.028-.032.028-.032.026-.033.025-.034.024-.034.024-.034.022-.035.022-.035.02-.036.019-.036.019-.036.018-.037.016-.037.016-.037.015-.038.013-.038.013-.038.012-.039.011-.039.01-.039.009-.039.008-.04.008-.039.006-.04.005-.04.004-.04.004-.04.002-.04.002-.04v-.04-.04l-.002-.04-.002-.041-.004-.04-.004-.04-.005-.04-.006-.039-.008-.04-.008-.039-.009-.04-.01-.039-.011-.038-.012-.039-.013-.038-.013-.038-.015-.038-.016-.038-.016-.036-.018-.037-.019-.037-.019-.035-.02-.036-.022-.035-.022-.035-.024-.035-.024-.033-.025-.034-.026-.033-.028-.033-.028-.032-.029-.031-.041-.042.008.009-.028-.028-.03-.028-.032-.028-.031-.026-.032-.026-.033-.025-.033-.024-.034-.023-.034-.022-.035-.021-.035-.021-.036-.02-.036-.018-.037-.018-.037-.017-.037-.016-.038-.015-.038-.015-.039-.013-.038-.012-.04-.012-.039-.01-.04-.009-.04-.009-.04-.007-.041-.007-.04-.006-.041-.004-.041-.004-.041-.002-.041-.002h-.042z"/><path d="m12 28.512s-4.674-4.673-8.012-8.012c-1.821-1.821-1.821-4.774 0-6.595.001 0 .001-.001.002-.002 1.821-1.821 4.774-1.821 6.595 0 .793.792 1.415 1.415 1.415 1.415s.622-.623 1.415-1.415c1.821-1.821 4.774-1.821 6.595 0 .001.001.001.002.002.002 1.821 1.821 1.821 4.774 0 6.595-3.338 3.339-8.012 8.012-8.012 8.012z"/><path d="m7.4 12.538.111.004.112.007.112.009.111.012.111.015.111.018.11.02.11.022.11.026.109.028.108.03.108.034.107.036.107.038.105.042.105.044.104.046.103.05.102.052.101.054.1.058.099.06.098.062.096.066.095.068.094.071.092.073.091.076.045.039.044.04.044.04.044.041.043.042.043.042 1.415 1.415 1.415-1.415.043-.042.043-.042.044-.041.044-.04.044-.04.045-.039.091-.076.092-.073.094-.071.095-.068.096-.066.098-.062.099-.06.1-.058.101-.054.102-.052.103-.05.104-.046.105-.044.105-.042.107-.038.107-.036.108-.034.108-.03.109-.028.11-.026.11-.022.11-.02.111-.018.111-.015.111-.012.112-.009.112-.007.111-.004.112-.001.112.001.112.004.112.007.111.009.112.012.111.015.111.018.11.02.11.022.11.026.109.028.108.03.108.034.107.036.106.038.106.042.105.044.104.046.103.05.102.052.101.054.1.058.099.06.097.062.097.066.095.068.093.071.093.073.09.076.045.039.045.04.044.04.044.041.043.042.045.044.042.043.042.044.041.043.041.044.039.045.039.045.076.091.074.092.07.094.068.095.066.096.062.097.06.099.058.1.054.101.052.102.05.103.046.104.045.105.041.106.039.106.036.107.033.108.031.109.028.109.025.109.023.11.02.111.017.11.015.111.012.112.009.111.007.112.004.112.001.112-.001.112-.004.112-.007.111-.009.112-.012.111-.015.111-.017.111-.02.11-.023.11-.025.11-.028.109-.031.109-.033.107-.036.108-.039.106-.041.106-.045.104-.046.104-.05.103-.052.102-.054.101-.058.1-.06.099-.062.098-.066.096-.068.095-.07.094-.074.092-.076.091-.039.045-.039.044-.041.044-.041.044-.042.043-.042.043-8.012 8.012-8.012-8.012-.042-.043-.042-.043-.041-.044-.041-.044-.039-.044-.039-.045-.076-.091-.074-.092-.07-.094-.068-.095-.066-.096-.062-.098-.06-.099-.058-.1-.054-.101-.052-.102-.05-.103-.046-.104-.045-.104-.041-.106-.039-.106-.036-.108-.033-.107-.031-.109-.028-.109-.025-.11-.023-.11-.02-.11-.017-.111-.015-.111-.012-.111-.009-.112-.007-.111-.004-.112-.001-.112.001-.112.004-.112.007-.112.009-.111.012-.112.015-.111.017-.11.02-.111.023-.11.025-.109.028-.109.031-.109.033-.108.036-.107.039-.106.041-.106.045-.105.046-.104.05-.103.052-.102.054-.101.058-.1.06-.099.062-.097.066-.096.068-.095.07-.094.074-.092.076-.091.039-.045.039-.045.041-.044.041-.043.042-.044.042-.043.002-.002.043-.042.043-.042.044-.041.044-.04.045-.04.045-.039.09-.076.093-.073.093-.071.095-.068.097-.066.097-.062.099-.06.1-.058.101-.054.102-.052.103-.05.104-.046.105-.044.106-.042.106-.038.107-.036.108-.034.108-.03.109-.028.11-.026.11-.022.11-.02.111-.018.111-.015.112-.012.111-.009.112-.007.112-.004.112-.001zm9.224 1-.088.003-.088.006-.087.007-.088.009-.087.012-.087.014-.087.015-.087.018-.086.02-.085.022-.086.024-.084.026-.084.029-.084.03-.083.032-.082.035-.081.036-.081.039-.08.041-.079.043-.079.045-.077.047-.077.049-.075.051-.075.054-.073.055-.073.058-.074.062-.033.028-.035.032-.035.031-.034.033-.034.033-.036.035-2.12 2.12-2.12-2.12-.036-.035-.034-.033-.035-.033-.034-.031-.035-.032-.033-.028-.074-.062-.073-.058-.073-.055-.075-.054-.075-.051-.077-.049-.077-.047-.079-.045-.079-.043-.08-.041-.081-.038-.081-.037-.082-.035-.083-.032-.084-.03-.084-.029-.084-.026-.086-.024-.085-.022-.086-.02-.087-.018-.087-.015-.087-.014-.087-.012-.088-.009-.087-.007-.088-.006-.088-.003-.088-.001-.088.001-.088.003-.088.006-.088.007-.088.009-.087.012-.087.014-.087.015-.086.018-.086.02-.086.022-.085.024-.085.026-.084.029-.083.03-.083.032-.082.035-.082.037-.081.038-.08.041-.079.043-.078.045-.078.047-.076.049-.076.051-.074.054-.074.055-.072.058-.074.062-.033.028-.035.032-.035.031-.035.033-.034.033-.035.034-.035.035-.032.035-.033.034-.032.035-.031.035-.028.033-.062.074-.058.072-.055.074-.054.074-.051.076-.049.076-.047.078-.045.078-.043.079-.041.08-.039.081-.036.082-.035.082-.032.083-.031.083-.028.084-.026.085-.024.085-.022.086-.02.086-.018.086-.015.087-.014.087-.012.087-.009.088-.007.088-.006.088-.003.088-.001.088.001.088.003.088.006.088.007.088.009.087.012.087.013.087.016.087.018.087.02.086.022.085.024.086.026.084.029.085.03.083.032.083.035.082.036.081.039.081.041.08.043.079.045.079.047.077.049.077.051.075.054.075.055.073.058.073.062.074.028.033.031.035.032.035.033.034.033.034.035.036 7.303 7.303 7.303-7.303.035-.036.033-.034.033-.034.032-.035.031-.035.028-.033.062-.074.058-.073.055-.073.054-.075.051-.075.049-.077.047-.077.045-.079.043-.079.041-.08.039-.081.036-.081.035-.082.032-.083.031-.084.028-.084.026-.084.024-.086.022-.085.02-.086.018-.087.015-.086.014-.088.012-.087.009-.087.007-.088.006-.088.003-.088.001-.088-.001-.088-.003-.088-.006-.088-.007-.088-.009-.088-.012-.087-.014-.087-.015-.087-.018-.086-.02-.086-.022-.086-.024-.085-.026-.085-.028-.084-.031-.083-.032-.083-.035-.082-.036-.082-.039-.081-.041-.08-.043-.079-.045-.078-.047-.078-.049-.076-.051-.076-.054-.074-.055-.074-.058-.072-.061-.074-.029-.033-.031-.035-.032-.035-.033-.035-.033-.034-.033-.034.002.002-.038-.037-.034-.033-.035-.033-.035-.031-.035-.032-.033-.028-.074-.062-.072-.058-.074-.055-.074-.054-.076-.051-.076-.049-.078-.047-.078-.045-.079-.043-.08-.041-.081-.038-.082-.037-.082-.035-.083-.032-.083-.03-.084-.029-.085-.026-.085-.024-.086-.022-.086-.02-.086-.018-.087-.015-.087-.014-.087-.012-.088-.009-.088-.007-.088-.006-.088-.003-.088-.001z"/></g><path d="m22.869 12.094-3.589-3.589c-1.043-1.043-1.043-2.733 0-3.776.501-.501 1.18-.782 1.888-.782s1.387.281 1.888.782c.52.52.944.944.944.944s.424-.424.944-.944c.486-.486 1.139-.765 1.824-.782-.256 1.642-1.025 3.171-2.214 4.36 0 0 0 .001-.001.001-1.012 1.012-1.61 2.362-1.684 3.786z" fill="#ff8fb6"/><path d="m8.551 25.064-4.563-4.564c-1.821-1.821-1.821-4.774 0-6.595.001 0 .001-.001.002-.002 1.821-1.821 4.774-1.821 6.595 0 .793.792 1.415 1.415 1.415 1.415s.622-.623 1.415-1.415c.693-.693 1.55-1.122 2.446-1.288v.243c0 2.652-1.053 5.196-2.929 7.071-.898.898-1.874 1.874-2.728 2.728-.701.701-1.258 1.518-1.653 2.407z" fill="#ff8fb6"/><path d="m27.07 3.672.07.003.07.004.07.006.069.008.069.009.068.011.068.013.068.015.067.016.067.017.066.02.066.021.066.022.064.024.064.026.064.027.062.029.062.03.062.032.06.033.06.035.059.036.058.038.057.039.056.04.056.042.054.044.054.045.052.046.051.048.051.049.051.053.05.053.047.054.046.055.045.056.043.057.041.058.04.058.038.059.036.06.035.061.033.061.032.062.03.062.028.063.027.064.025.064.023.064.022.065.02.066.019.066.017.066.015.066.014.067.012.067.01.067.009.067.008.068.005.068.004.067.003.068.001.068-.001.068-.003.068-.004.067-.005.068-.008.068-.009.067-.01.067-.012.067-.014.067-.015.066-.017.066-.019.066-.02.066-.022.065-.023.064-.025.064-.027.064-.028.063-.03.062-.032.062-.033.061-.035.061-.036.06-.038.059-.04.058-.041.058-.043.057-.045.056-.046.055-.047.054-.05.053-.051.053-5 5-5-5-.051-.053-.05-.053-.047-.054-.046-.055-.045-.056-.043-.057-.041-.058-.04-.058-.038-.059-.036-.06-.035-.061-.033-.061-.032-.062-.03-.062-.028-.063-.027-.064-.025-.064-.023-.064-.022-.065-.02-.066-.019-.066-.017-.066-.015-.066-.014-.067-.012-.067-.01-.067-.009-.067-.008-.068-.005-.068-.004-.067-.003-.068-.001-.068.001-.068.003-.068.004-.067.005-.068.008-.068.009-.067.01-.067.012-.067.014-.067.015-.066.017-.066.019-.066.02-.066.022-.065.023-.064.025-.064.027-.064.028-.063.03-.062.032-.062.033-.061.035-.061.036-.06.038-.059.04-.058.041-.058.043-.057.045-.056.046-.055.047-.054.05-.053.051-.053.051-.049.051-.048.052-.046.054-.045.054-.044.056-.042.056-.04.057-.039.058-.038.059-.036.06-.035.06-.033.062-.032.062-.03.062-.029.064-.027.064-.026.064-.024.066-.022.066-.021.066-.02.067-.017.067-.016.068-.015.068-.013.068-.011.069-.009.069-.008.07-.006.07-.004.07-.003.07-.001.07.001.07.003.07.004.07.006.069.008.069.009.068.011.068.013.068.015.067.016.067.017.066.02.066.021.066.022.064.024.064.026.064.027.062.029.062.03.062.032.06.033.06.035.059.036.058.038.057.039.056.04.056.042.054.044.054.045.052.046.051.048.051.049 1 1 1-1 .051-.049.051-.048.052-.046.054-.045.054-.044.056-.042.056-.04.057-.039.058-.038.059-.036.06-.035.06-.033.062-.032.062-.03.062-.029.064-.027.064-.026.064-.024.066-.022.066-.021.066-.02.067-.017.067-.016.068-.015.068-.013.068-.011.069-.009.069-.008.07-.006.07-.004.07-.003.07-.001zm-.115 1-.046.002-.045.003-.045.003-.044.005-.045.007-.044.007-.044.008-.044.009-.044.011-.043.011-.043.012-.042.014-.042.015-.042.015-.042.017-.04.017-.041.019-.04.019-.04.021-.039.021-.039.023-.038.023-.037.025-.037.025-.037.026-.035.027-.035.028-.035.029-.034.03-.033.031-.037.036-1.703 1.703-1.703-1.703-.037-.036-.033-.031-.034-.03-.035-.029-.035-.028-.035-.027-.037-.026-.037-.025-.037-.025-.039-.023-.038-.023-.039-.021-.04-.021-.04-.019-.04-.019-.041-.017-.042-.017-.042-.015-.042-.015-.042-.014-.043-.012-.043-.011-.044-.011-.044-.009-.044-.008-.044-.007-.045-.007-.044-.005-.045-.003-.045-.003-.046-.002-.045-.001-.045.001-.046.002-.045.003-.045.003-.044.005-.045.007-.044.007-.044.008-.044.009-.044.011-.043.011-.043.012-.042.014-.042.015-.042.015-.041.017-.041.017-.041.019-.04.019-.04.021-.039.021-.038.023-.039.023-.037.025-.037.025-.037.026-.035.027-.035.028-.035.029-.034.03-.033.031-.033.032-.033.035-.032.034-.032.036-.029.035-.029.036-.028.037-.027.037-.025.038-.025.038-.023.039-.023.039-.021.039-.02.04-.019.04-.019.041-.017.041-.016.041-.015.042-.014.042-.013.042-.012.042-.011.043-.01.043-.009.043-.008.043-.007.044-.005.043-.005.044-.004.044-.002.044-.002.044-.001.044.001.044.002.044.002.044.004.044.005.044.005.043.007.044.008.043.009.043.01.043.011.043.012.042.013.042.014.042.015.042.016.041.017.041.019.041.019.04.02.04.022.039.022.039.023.039.025.038.025.038.027.037.028.037.029.036.029.035.031.036.033.034.037.039 4.289 4.289 4.289-4.289.038-.039.032-.034.031-.035.029-.036.029-.036.028-.037.027-.037.025-.038.025-.038.023-.039.022-.039.022-.039.02-.04.019-.04.019-.041.017-.041.016-.041.015-.041.014-.042.013-.043.012-.042.011-.043.01-.043.009-.043.008-.043.007-.044.005-.043.005-.044.004-.044.002-.044.002-.044.001-.044-.001-.044-.002-.044-.002-.044-.004-.044-.005-.044-.005-.043-.007-.044-.008-.043-.009-.043-.01-.043-.011-.043-.012-.042-.013-.042-.014-.042-.015-.042-.016-.041-.017-.041-.019-.041-.019-.04-.02-.04-.021-.039-.023-.039-.023-.039-.025-.038-.025-.038-.027-.037-.028-.037-.029-.036-.029-.035-.032-.036-.032-.034-.033-.035-.033-.032-.033-.031-.034-.03-.035-.029-.035-.028-.035-.027-.037-.026-.037-.025-.037-.025-.038-.023-.039-.023-.039-.021-.04-.021-.04-.019-.041-.019-.041-.017-.041-.017-.042-.015-.042-.015-.042-.014-.043-.012-.043-.011-.044-.011-.044-.009-.044-.008-.044-.007-.045-.007-.044-.005-.045-.003-.045-.003-.046-.002-.045-.001-.045.001z" fill="#ff4586"/><path d="m7.119 12.051.118.004.119.007.118.01.118.013.118.015.118.019.117.021.117.024.116.027.116.03.115.032.114.036.114.038.113.041.112.044.111.047.11.049.11.052.054.028.054.028.054.028.053.03.053.03.053.031.053.031.052.032.052.033.052.034.051.034.051.035.05.036.051.036.05.037.049.038.049.039.049.039.048.04.048.041.048.041.047.042.047.043.046.044.046.044.046.045 1.501 1.501 1.501-1.501.046-.045.046-.044.046-.044.047-.043.047-.042.048-.041.048-.041.048-.04.049-.039.049-.039.049-.038.05-.037.051-.036.05-.036.051-.035.051-.034.052-.034.052-.033.052-.032.053-.031.053-.031.053-.03.053-.03.054-.028.054-.028.054-.028.11-.052.11-.049.111-.047.112-.044.113-.041.114-.038.114-.036.115-.032.116-.03.116-.027.117-.024.117-.021.118-.019.118-.015.118-.013.118-.01.119-.007.118-.004.119-.001.119.001.118.004.119.007.118.01.118.013.118.015.118.019.117.021.117.024.116.027.116.03.115.032.114.036.114.038.113.041.112.044.111.047.11.049.11.052.054.028.054.028.054.028.053.03.053.03.053.031.053.031.052.032.052.033.052.034.051.034.051.035.05.036.051.036.05.037.049.038.049.039.049.039.048.04.048.041.048.041.047.042.047.043.046.044.046.044.048.047.045.046.044.046.044.046.043.047.042.047.041.048.041.048.04.048.039.049.039.049.038.049.037.05.036.051.036.05.035.051.034.051.034.052.033.052.032.052.031.053.031.053.03.053.03.053.028.054.028.054.028.054.052.11.049.11.047.111.044.112.041.113.038.114.036.114.032.115.03.116.027.116.024.117.021.117.019.118.015.118.013.118.01.118.007.119.004.118.001.119-.001.119-.004.118-.007.119-.01.118-.013.118-.015.118-.019.118-.021.117-.024.117-.027.116-.03.116-.032.115-.036.114-.038.114-.041.113-.044.112-.047.111-.049.11-.052.11-.028.054-.028.054-.028.054-.03.053-.03.053-.031.053-.031.053-.032.052-.033.052-.034.052-.034.051-.035.051-.036.05-.036.051-.037.05-.038.049-.039.049-.039.049-.04.048-.041.048-.041.048-.042.047-.043.047-.044.046-.044.046-.045.046-8.501 8.501-8.501-8.501-.045-.046-.044-.046-.044-.046-.043-.047-.042-.047-.041-.048-.041-.048-.04-.048-.039-.049-.039-.049-.038-.049-.037-.05-.036-.051-.036-.05-.035-.051-.034-.051-.034-.052-.033-.052-.032-.052-.031-.053-.031-.053-.03-.053-.03-.053-.028-.054-.028-.054-.028-.054-.052-.11-.049-.11-.047-.111-.044-.112-.041-.113-.038-.114-.036-.114-.032-.115-.03-.116-.027-.116-.024-.117-.021-.117-.019-.118-.015-.118-.013-.118-.01-.118-.007-.119-.004-.118-.001-.119.001-.119.004-.118.007-.119.01-.118.013-.118.015-.118.019-.118.021-.117.024-.117.027-.116.03-.116.032-.115.036-.114.038-.114.041-.113.044-.112.047-.111.049-.11.052-.11.028-.054.028-.054.028-.054.03-.053.03-.053.031-.053.031-.053.032-.052.033-.052.034-.052.034-.051.035-.051.036-.05.036-.051.037-.05.038-.049.039-.049.039-.049.04-.048.041-.048.041-.048.042-.047.043-.047.044-.046.044-.046.045-.046.002-.002.046-.045.046-.044.046-.044.047-.043.047-.042.048-.041.048-.041.048-.04.049-.039.049-.039.049-.038.05-.037.051-.036.05-.036.051-.035.051-.034.052-.034.052-.033.052-.032.053-.031.053-.031.053-.03.053-.03.054-.028.054-.028.054-.028.11-.052.11-.049.111-.047.112-.044.113-.041.114-.038.114-.036.115-.032.116-.03.116-.027.117-.024.117-.021.118-.019.118-.015.118-.013.118-.01.119-.007.118-.004.119-.001.119.001zm9.786 1-.095.003-.094.006-.095.008-.094.01-.095.012-.093.015-.094.017-.093.019-.093.022-.092.023-.092.026-.091.028-.091.031-.09.033-.089.035-.089.037-.088.039-.089.043-.041.021-.043.022-.043.023-.042.023-.043.024-.042.025-.041.025-.042.025-.041.026-.042.027-.04.028-.041.028-.04.028-.04.029-.04.03-.04.03-.039.031-.039.031-.039.032-.038.033-.038.033-.038.033-.037.035-.037.034-.037.036-.039.038-2.206 2.206-2.206-2.206-.039-.038-.037-.036-.037-.035-.037-.034-.038-.033-.038-.033-.038-.033-.039-.032-.039-.031-.039-.031-.04-.03-.04-.03-.04-.029-.04-.028-.041-.028-.04-.028-.042-.027-.041-.026-.042-.025-.041-.025-.043-.025-.042-.024-.042-.023-.043-.023-.043-.022-.041-.021-.089-.043-.088-.039-.089-.037-.089-.035-.09-.033-.091-.031-.091-.028-.092-.026-.092-.023-.093-.022-.093-.019-.094-.017-.093-.015-.095-.012-.094-.01-.095-.008-.094-.006-.095-.003-.095-.001-.095.001-.095.003-.094.006-.095.008-.094.01-.095.012-.093.015-.094.017-.093.019-.093.022-.092.023-.092.026-.091.028-.091.031-.09.033-.089.035-.089.037-.088.039-.089.043-.041.021-.043.022-.043.023-.042.023-.042.024-.043.025-.041.025-.042.025-.041.026-.042.027-.04.028-.041.027-.04.029-.041.029-.039.03-.04.03-.039.031-.039.031-.039.032-.038.033-.038.033-.038.033-.037.034-.037.035-.037.036-.038.037-.037.038-.036.037-.034.037-.035.037-.033.038-.034.038-.032.039-.032.038-.031.039-.031.039-.03.04-.03.04-.029.04-.029.04-.027.041-.028.04-.027.042-.026.041-.025.042-.026.041-.024.042-.024.043-.023.042-.023.043-.022.043-.021.041-.043.089-.039.088-.037.089-.035.089-.033.09-.031.091-.028.091-.026.092-.023.092-.022.093-.019.093-.017.094-.015.094-.012.094-.01.094-.008.095-.006.094-.003.095-.001.095.001.095.003.095.006.094.008.095.01.094.012.095.015.093.017.094.019.093.022.093.023.092.026.092.028.091.031.091.033.09.035.089.037.089.039.088.043.089.021.041.022.043.023.043.023.042.024.042.025.043.025.041.025.042.026.041.027.042.028.04.028.041.028.04.029.04.03.04.03.04.031.039.031.039.032.039.033.038.033.038.033.038.034.037.035.037.036.037.038.039 7.792 7.792 7.792-7.792.038-.039.036-.037.034-.037.035-.037.033-.038.034-.038.032-.039.032-.038.031-.039.031-.039.03-.04.03-.04.029-.04.029-.04.027-.041.028-.04.027-.042.026-.041.025-.042.026-.041.024-.042.024-.043.023-.042.023-.043.022-.043.021-.041.043-.089.039-.088.037-.089.035-.089.033-.09.031-.091.028-.091.026-.092.023-.092.022-.093.019-.093.017-.094.015-.094.012-.094.01-.094.008-.095.006-.094.003-.095.001-.095-.001-.095-.003-.095-.006-.094-.008-.095-.01-.094-.012-.095-.015-.093-.017-.094-.019-.093-.022-.093-.023-.092-.026-.092-.028-.091-.031-.091-.033-.09-.035-.089-.037-.089-.039-.088-.043-.089-.021-.041-.022-.043-.023-.043-.023-.042-.024-.043-.024-.042-.026-.041-.025-.042-.026-.041-.027-.041-.028-.041-.027-.041-.029-.04-.029-.041-.03-.039-.03-.04-.031-.039-.031-.039-.032-.039-.032-.038-.034-.038-.033-.038-.035-.037-.034-.037-.036-.037-.037-.038-.038-.037-.037-.036-.037-.034-.037-.035-.038-.033-.038-.034-.038-.032-.039-.032-.039-.031-.039-.031-.04-.03-.04-.03-.04-.029-.04-.028-.041-.028-.041-.028-.041-.027-.041-.026-.041-.025-.042-.025-.043-.025-.042-.024-.042-.023-.043-.023-.043-.022-.041-.021-.089-.043-.088-.039-.089-.037-.089-.035-.09-.033-.091-.031-.091-.028-.092-.026-.092-.023-.093-.022-.093-.019-.094-.017-.093-.015-.095-.012-.094-.01-.095-.008-.094-.006-.095-.003-.095-.001-.095.001z" fill="#ff4586"/></svg>