<svg clip-rule="evenodd" fill-rule="evenodd" stroke-linejoin="round" stroke-miterlimit="2" viewBox="0 0 32 32" xmlns="http://www.w3.org/2000/svg" xmlns:xlink="http://www.w3.org/1999/xlink"><clipPath id="a"><path clip-rule="evenodd" d="m0 0h32v32h-32z"/></clipPath><metadata/><path d="m0 0h32v32h-32z" fill="none"/><g clip-path="url(#a)"><path d="m24.099.001c.297.005.593.023.887.06.616.076 1.222.225 1.803.441 1.105.411 2.115 1.068 2.938 1.912.822.843 1.453 1.867 1.837 2.981.278.807.42 1.652.435 2.506.034 5.399.034 10.799 0 16.198-.016.886-.168 1.763-.467 2.598-.454 1.266-1.229 2.409-2.236 3.299-.784.692-1.702 1.228-2.691 1.568-.807.278-1.652.42-2.506.435-5.399.035-10.799.035-16.198 0-.854-.015-1.699-.157-2.506-.435-1.145-.395-2.196-1.051-3.052-1.907-.833-.833-1.477-1.85-1.875-2.96-.299-.835-.451-1.712-.467-2.598-.034-5.399-.034-10.799 0-16.198.015-.854.157-1.699.435-2.506.362-1.051.944-2.023 1.701-2.838.847-.912 1.907-1.621 3.074-2.055.612-.228 1.252-.38 1.9-.453.263-.029.526-.043.79-.048 5.399-.032 10.799-.032 16.198 0z" fill-rule="nonzero"/><path d="m30 8c0-1.591-.632-3.117-1.757-4.243-1.126-1.125-2.652-1.757-4.243-1.757h-16c-1.591 0-3.117.632-4.243 1.757-1.125 1.126-1.757 2.652-1.757 4.243v16c0 1.591.632 3.117 1.757 4.243 1.126 1.125 2.652 1.757 4.243 1.757h16c1.591 0 3.117-.632 4.243-1.757 1.125-1.126 1.757-2.652 1.757-4.243z" fill="#ff4586"/><path d="m16 7.257c.282-.197.579-.374.889-.528.591-.294 1.224-.503 1.873-.62.321-.057.643-.089.968-.104.12-.004.24-.005.36-.004.297.005.593.026.888.067.684.096 1.354.294 1.98.587 1.377.643 2.526 1.739 3.236 3.083.321.608.551 1.263.681 1.938.139.728.162 1.479.069 2.214-.091.715-.294 1.415-.599 2.068-.357.764-.853 1.461-1.456 2.05-.624.609-1.361 1.101-2.165 1.441-.551.234-1.132.394-1.724.479v2.072h2v2h-2v2h-2v-2h-2v-2h2v-2.072c-.536-.077-1.062-.215-1.566-.414-.506-.2-.988-.459-1.434-.77-.399.278-.827.515-1.276.705-.551.234-1.132.394-1.724.479v2.072h2v2h-2v2h-2v-2h-2v-2h2v-2.072c-.536-.077-1.062-.215-1.566-.414-.813-.321-1.562-.795-2.202-1.39-.596-.555-1.094-1.213-1.465-1.938-.327-.638-.555-1.327-.673-2.035-.121-.731-.125-1.482-.013-2.215.104-.683.31-1.349.61-1.971.673-1.395 1.811-2.547 3.198-3.236.591-.294 1.224-.503 1.873-.62.321-.057.643-.089.968-.104.12-.004.24-.005.36-.004.297.005.593.026.887.067.685.096 1.355.294 1.981.587.365.17.713.372 1.042.602zm-1.498 1.414c-.127-.074-.258-.142-.391-.204-.642-.3-1.339-.453-2.046-.467-.065 0-.064 0-.13 0-.707.014-1.404.167-2.046.467-.985.46-1.807 1.244-2.314 2.205-.219.415-.379.861-.473 1.32-.115.561-.133 1.141-.053 1.708.071.508.221 1.004.444 1.466.262.543.622 1.037 1.058 1.453.452.43.983.776 1.56 1.012.599.244 1.243.369 1.889.369s1.29-.125 1.889-.369c.21-.087.415-.187.612-.301-.298-.379-.558-.788-.772-1.219-.32-.644-.54-1.336-.648-2.047-.112-.733-.108-1.484.014-2.215.112-.68.327-1.343.634-1.96.215-.432.474-.84.773-1.218zm2.997 8.659c.197.114.402.214.612.301.599.244 1.243.369 1.889.369s1.29-.125 1.889-.369c.577-.236 1.108-.582 1.56-1.012.436-.416.796-.91 1.058-1.453.223-.462.373-.958.444-1.466.08-.567.062-1.147-.053-1.708-.094-.459-.254-.905-.473-1.32-.507-.961-1.329-1.745-2.314-2.205-.642-.3-1.339-.453-2.046-.467-.066 0-.065 0-.13 0-.707.014-1.404.167-2.046.467-.133.062-.264.13-.391.204.281.355.528.738.735 1.142.301.587.518 1.216.642 1.863.139.728.162 1.479.069 2.214-.091.715-.294 1.415-.599 2.068-.228.488-.513.949-.846 1.372zm-1.499-7.328c-.159.211-.302.435-.425.67-.219.415-.379.861-.473 1.32-.115.561-.133 1.141-.053 1.708.071.508.221 1.004.444 1.466.141.293.312.572.507.832.195-.26.366-.539.507-.832.223-.462.373-.958.444-1.466.08-.567.062-1.147-.053-1.708-.09-.44-.24-.867-.445-1.266-.13-.254-.282-.496-.453-.724z" fill="#fff"/></g></svg>