<svg clip-rule="evenodd" fill-rule="evenodd" stroke-linecap="square" stroke-linejoin="round" stroke-miterlimit="1.5" viewBox="0 0 32 32" xmlns="http://www.w3.org/2000/svg" xmlns:xlink="http://www.w3.org/1999/xlink"><clipPath id="a"><path clip-rule="evenodd" d="m0 0h32v32h-32z"/></clipPath><clipPath id="b"><path clip-rule="evenodd" d="m19.567 10.351c.287.43.505.902.647 1.399l1.786 6.25s-3.107-.518-4.849-.808c-.762-.127-1.54-.127-2.302 0-1.742.29-4.849.808-4.849.808s-1.383-.691-2.522-1.261c-.972-.486-2.044-.739-3.13-.739-1.102 0-2.348 0-2.348 0s.676-1.353 1.387-2.774c1.044-2.087 2.772-3.753 4.897-4.719 3.241-1.473 7.716-3.507 7.716-3.507z"/></clipPath><metadata/><path d="m0 0h32v32h-32z" fill="none"/><g clip-path="url(#a)"><path d="m16 14v13c0 .53-.211 1.039-.586 1.414s-.884.586-1.414.586c-.001 0-.001 0-.002 0-1.103 0-1.998-.895-1.998-1.998 0-.001 0-.002 0-.002" fill="none" stroke="#000" stroke-width="6"/><path d="m17 5.455v-3.455s1.793 1.793 2.607 2.607c.252.252.393.593.393.949v.002c0 .382-.152.749-.422 1.02-.012.011-.023.022-.034.033l3.456 1.571v-1.182l2.69 2.69c1.223.935 2.226 2.141 2.923 3.536.711 1.421 1.387 2.774 1.387 2.774s-1.246 0-2.348 0c-1.086 0-2.158.253-3.13.739-1.139.57-2.522 1.261-2.522 1.261s-3.107-.518-4.849-.808c-.762-.127-1.54-.127-2.302 0-1.742.29-4.849.808-4.849.808s-1.383-.691-2.522-1.261c-.972-.486-2.044-.739-3.13-.739-1.102 0-2.348 0-2.348 0s.676-1.353 1.387-2.774c.905-1.811 2.327-3.305 4.075-4.299-.843-.235-1.462-1.009-1.462-1.927 0-2.069 0-5 0-5s2.258 2.258 3.381 3.381c.396.396.619.934.619 1.494v.125c0 .279-.058.553-.169.804l4.169-1.895v-.909l.625.625 1.375-.625z" fill="none" stroke="#000" stroke-linecap="round" stroke-miterlimit="3" stroke-width="4"/><path d="m16 14v13c0 .53-.211 1.039-.586 1.414s-.884.586-1.414.586c-.001 0-.001 0-.002 0-1.103 0-1.998-.895-1.998-1.998 0-.001 0-.002 0-.002" fill="none" stroke="#525252" stroke-width="2"/><path d="m15 16.249h2v6.751h-2z" fill="#3d3d3d"/><path d="m23.716 8.507c2.125.966 3.853 2.632 4.897 4.719.711 1.421 1.387 2.774 1.387 2.774s-1.246 0-2.348 0c-1.086 0-2.158.253-3.13.739l-2.522 1.261-6-13z" fill="#a31f28"/><path d="m19.567 10.351c.287.43.505.902.647 1.399l1.786 6.25s-3.107-.518-4.849-.808c-.762-.127-1.54-.127-2.302 0-1.742.29-4.849.808-4.849.808s-1.383-.691-2.522-1.261c-.972-.486-2.044-.739-3.13-.739-1.102 0-2.348 0-2.348 0s.676-1.353 1.387-2.774c1.044-2.087 2.772-3.753 4.897-4.719 3.241-1.473 7.716-3.507 7.716-3.507z" fill="#e82731"/><g clip-path="url(#b)"><path d="m16 4v1s-2.532 3.798-3.567 5.351c-.287.43-.505.902-.647 1.399-.517 1.807-1.786 6.25-1.786 6.25v2" fill="none" stroke="#bd242e" stroke-miterlimit="3" stroke-width="2"/></g><g fill="#10bfff"><path d="m14 5v5c0 1.105.895 2 2 2 .53 0 1.039-.211 1.414-.586s.586-.884.586-1.414c0-.042 0-.084 0-.125 0-.56-.223-1.098-.619-1.494-1.123-1.123-3.381-3.381-3.381-3.381z"/><path d="m17 2v3.5c0 .398.158.779.439 1.061.282.281.663.439 1.061.439h.058c.382 0 .749-.152 1.02-.422.27-.271.422-.638.422-1.02 0-.001 0-.001 0-.002 0-.356-.141-.697-.393-.949-.814-.814-2.607-2.607-2.607-2.607z"/><path d="m10 10v3.5c0 .398.158.779.439 1.061.282.281.663.439 1.061.439h.058c.382 0 .749-.152 1.02-.422.27-.271.422-.638.422-1.02 0-.001 0-.001 0-.002 0-.356-.141-.697-.393-.949-.814-.814-2.607-2.607-2.607-2.607z"/><path d="m23 7v5c0 1.105.895 2 2 2 .53 0 1.039-.211 1.414-.586s.586-.884.586-1.414c0-.042 0-.084 0-.125 0-.56-.223-1.098-.619-1.494-1.123-1.123-3.381-3.381-3.381-3.381z"/><path d="m6 2v5c0 1.105.895 2 2 2 .53 0 1.039-.211 1.414-.586s.586-.884.586-1.414c0-.042 0-.084 0-.125 0-.56-.223-1.098-.619-1.494-1.123-1.123-3.381-3.381-3.381-3.381z"/></g></g></svg>