<svg clip-rule="evenodd" fill-rule="evenodd" stroke-linecap="square" stroke-linejoin="round" stroke-miterlimit="1.5" viewBox="0 0 32 32" xmlns="http://www.w3.org/2000/svg" xmlns:xlink="http://www.w3.org/1999/xlink"><clipPath id="a"><path clip-rule="evenodd" d="m0 0h32v32h-32z"/></clipPath><clipPath id="b"><path clip-rule="evenodd" d="m16 2 3.567 5.351c.287.43.505.902.647 1.399l1.786 6.25s-3.107-.518-4.849-.808c-.762-.127-1.54-.127-2.302 0-1.742.29-4.849.808-4.849.808s-1.383-.691-2.522-1.261c-.972-.486-2.044-.739-3.13-.739h-2.348l1.387-2.774c1.044-2.087 2.772-3.753 4.897-4.719l7.716-3.507z"/></clipPath><metadata/><path d="m0 0h32v32h-32z" fill="none"/><g clip-path="url(#a)"><path d="m13 16.528-2.671.445c-.417.069-.845.005-1.223-.184 0 0-1.383-.691-2.522-1.261-.695-.347-1.46-.528-2.236-.528h-2.348c-.693 0-1.337-.359-1.701-.949-.365-.589-.398-1.325-.088-1.945 0 0 .677-1.353 1.387-2.774 1.249-2.497 3.317-4.49 5.858-5.645 3.242-1.474 7.716-3.508 7.716-3.508.526-.239 1.13-.239 1.656 0 0 0 4.474 2.034 7.716 3.508 2.541 1.155 4.609 3.148 5.858 5.645.71 1.421 1.387 2.774 1.387 2.774.31.62.277 1.356-.088 1.945-.364.59-1.008.949-1.701.949h-2.348c-.776 0-1.541.181-2.236.528-1.139.57-2.522 1.261-2.522 1.261-.378.189-.806.253-1.223.184l-2.671-.445v10.472c-.002.554-.092 1.105-.273 1.628-.28.814-.772 1.55-1.417 2.12-.505.446-1.1.787-1.739.999-.497.164-1.017.248-1.54.253h-.031c-1.326 0-2.598-.527-3.536-1.464-.937-.938-1.464-2.21-1.464-3.536 0-.255 0-1.132 0-2 0-.53.211-1.039.586-1.414s.884-.586 1.414-.586h2z"/><path d="m16 11v16c0 .53-.211 1.039-.586 1.414s-.884.586-1.414.586-1.039-.211-1.414-.586-.586-.884-.586-1.414c0-.551 0-1 0-1" fill="none" stroke="#525252" stroke-width="2"/><path d="m15 13.249h2v6.751h-2z" fill="#3d3d3d"/><path d="m16 2s4.475 2.034 7.716 3.507c2.125.966 3.853 2.632 4.897 4.719.711 1.421 1.387 2.774 1.387 2.774s-1.246 0-2.348 0c-1.086 0-2.158.253-3.13.739l-2.522 1.261z" fill="#a31f28"/><path d="m16 2 3.567 5.351c.287.43.505.902.647 1.399l1.786 6.25s-3.107-.518-4.849-.808c-.762-.127-1.54-.127-2.302 0-1.742.29-4.849.808-4.849.808s-1.383-.691-2.522-1.261c-.972-.486-2.044-.739-3.13-.739h-2.348l1.387-2.774c1.044-2.087 2.772-3.753 4.897-4.719l7.716-3.507z" fill="#e82731"/><g clip-path="url(#b)"><path d="m16 1v1s-2.532 3.798-3.567 5.351c-.287.43-.505.902-.647 1.399-.517 1.807-1.786 6.25-1.786 6.25v2" fill="none" stroke="#bd242e" stroke-miterlimit="3" stroke-width="2"/></g></g></svg>