<svg clip-rule="evenodd" fill-rule="evenodd" stroke-linecap="round" stroke-linejoin="round" stroke-miterlimit="10" viewBox="0 0 32 32" xmlns="http://www.w3.org/2000/svg"><metadata/><path d="m0 0h32v32h-32z" fill="none"/><path d="m3 15 13-13 13 13v2l-13 13-13-13z" fill="none" stroke="#000" stroke-width="4"/><path d="m3 17v-2l13-11 13 11v2l-13 13z" fill="#bebebe"/><path d="m29 15-13 13-13-13 13-13z" fill="#fff"/><path d="m14.315 18.966c-.075 0-.139-.026-.191-.078-.053-.053-.079-.116-.079-.191v-.719c0-.75.191-1.353.573-1.809.382-.457.933-.941 1.652-1.45.584-.404 1.018-.764 1.303-1.079.285-.314.427-.696.427-1.146 0-.479-.18-.865-.539-1.157-.36-.292-.832-.438-1.416-.438-.629 0-1.135.157-1.517.472-.382.314-.573.719-.573 1.213v.36c0 .165-.09.247-.27.247l-2.629-.112c-.18 0-.269-.083-.269-.248v-.247c0-.899.224-1.696.674-2.393.449-.697 1.075-1.236 1.876-1.618.802-.382 1.727-.573 2.775-.573 1.019 0 1.914.184 2.686.551.771.367 1.367.88 1.786 1.539.42.659.629 1.423.629 2.292 0 .659-.116 1.225-.348 1.697s-.513.857-.843 1.157c-.329.3-.749.629-1.258.989-.539.374-.936.696-1.191.966s-.382.599-.382.989v.517c0 .075-.026.138-.079.191-.052.052-.116.078-.191.078zm1.213 5.034c-.509 0-.932-.169-1.27-.506-.337-.337-.505-.76-.505-1.269 0-.51.165-.929.494-1.259.33-.329.757-.494 1.281-.494s.948.161 1.27.483.483.745.483 1.27c0 .509-.165.932-.494 1.269-.33.337-.75.506-1.259.506z" fill="#171717" fill-rule="nonzero"/></svg>