<svg clip-rule="evenodd" fill-rule="evenodd" stroke-linecap="round" stroke-linejoin="round" stroke-miterlimit="1.5" viewBox="0 0 32 32" xmlns="http://www.w3.org/2000/svg" xmlns:xlink="http://www.w3.org/1999/xlink"><clipPath id="a"><path clip-rule="evenodd" d="m0 0h32v32h-32z"/></clipPath><metadata/><path d="m0 0h32v32h-32z" fill="none"/><g clip-path="url(#a)"><path d="m16 3c8.837 0 16 7.163 16 16v.502c0 6.902-5.596 12.498-12.498 12.498h-7.004c-6.902 0-12.498-5.596-12.498-12.498 0-.167 0-.334 0-.502 0-8.837 7.163-16 16-16z"/><path d="m30 19c0-7.732-6.268-14-14-14-7.732 0-14 6.268-14 14v.502c0 5.798 4.7 10.498 10.498 10.498h7.004c5.798 0 10.498-4.7 10.498-10.498z" fill="#fbc546"/><path d="m10.887 10.207.788-.45c.105.083.205.172.3.268.656.656 1.025 1.545 1.025 2.473v2.002c0 1.933-1.567 3.5-3.5 3.5h-.002c-.928 0-1.817-.369-2.473-1.025s-1.025-1.545-1.025-2.473v-1.502l2.005-1.146c.564.134 2.884-.997 2.882-1.647z" fill="#fff"/><path d="m10.887 10.207c.193.096.372.223.527.379.375.375.586.884.586 1.414v2.983c0 .531-.211 1.039-.586 1.415-.375.375-.884.585-1.414.585s-1.039-.21-1.414-.585c-.375-.376-.586-.884-.586-1.415 0-.935 0-2.047 0-2.983 0-.049.002-.098.005-.146z"/><path d="m21.113 10.207-.788-.45c-.105.083-.205.172-.3.268-.656.656-1.025 1.545-1.025 2.473v2.002c0 1.933 1.567 3.5 3.5 3.5h.002c.928 0 1.817-.369 2.473-1.025s1.025-1.545 1.025-2.473v-1.502l-2.005-1.146c-.564.134-2.884-.997-2.882-1.647z" fill="#fff"/><path d="m21.113 10.207c-.193.096-.372.223-.527.379-.375.375-.586.884-.586 1.414v2.983c0 .531.211 1.039.586 1.415.375.375.884.585 1.414.585s1.039-.21 1.414-.585c.375-.376.586-.884.586-1.415 0-.935 0-2.047 0-2.983 0-.049-.002-.098-.005-.146z"/><path d="m9 24s.921-.921 1.879-1.879c1.358-1.358 3.2-2.121 5.121-2.121 1.921 0 3.763.763 5.121 2.121.958.958 1.879 1.879 1.879 1.879" fill="none" stroke="#593604" stroke-width="2"/></g></svg>