<svg clip-rule="evenodd" fill-rule="evenodd" stroke-linejoin="round" stroke-miterlimit="1.41421" viewBox="0 0 32 32" xmlns="http://www.w3.org/2000/svg" xmlns:xlink="http://www.w3.org/1999/xlink"><clipPath id="a"><path clip-rule="evenodd" d="m0 0h32v32h-32z"/></clipPath><metadata/><path d="m0 0h32v32h-32z" fill="none"/><g clip-path="url(#a)"><path d="m32 8c0-4.418-3.582-8-8-8-4.887 0-11.113 0-16 0-4.418 0-8 3.582-8 8v16c0 4.418 3.582 8 8 8h16c4.418 0 8-3.582 8-8 0-4.887 0-11.113 0-16z"/><path d="m30 8c0-1.591-.632-3.117-1.757-4.243-1.126-1.125-2.652-1.757-4.243-1.757-4.724 0-11.276 0-16 0-1.591 0-3.117.632-4.243 1.757-1.125 1.126-1.757 2.652-1.757 4.243v16c0 1.591.632 3.117 1.757 4.243 1.126 1.125 2.652 1.757 4.243 1.757h16c1.591 0 3.117-.632 4.243-1.757 1.125-1.126 1.757-2.652 1.757-4.243 0-4.724 0-11.276 0-16z" fill="#666"/><g fill="#fff" fill-rule="nonzero"><path d="m8.501 22.342c-.85 0-1.619-.18-2.305-.538-.687-.358-1.224-.862-1.613-1.512s-.583-1.388-.583-2.215v-8.419h2.387v8.347c0 .716.189 1.272.565 1.667.377.395.893.592 1.549.592s1.176-.197 1.558-.592c.383-.395.574-.951.574-1.667v-8.347h2.406v8.419c0 .827-.198 1.565-.593 2.215-.394.65-.935 1.154-1.621 1.512-.687.358-1.461.538-2.324.538z"/><path d="m19.891 9.658c1.275 0 2.281.353 3.016 1.057.735.705 1.102 1.671 1.102 2.898 0 1.166-.367 2.098-1.102 2.797s-1.741 1.048-3.016 1.048h-2.315v4.774h-2.387v-12.574zm-.11 5.704c.571 0 1.021-.152 1.349-.455.328-.304.492-.735.492-1.294 0-.608-.161-1.072-.483-1.394s-.775-.483-1.358-.483h-2.205v3.626z"/><path d="m25.431 9.658h2.569l-.437 8.383h-1.695zm.091 10.205h2.387v2.369h-2.387z"/></g></g></svg>