<svg clip-rule="evenodd" fill-rule="evenodd" stroke-linecap="round" stroke-miterlimit="1.5" viewBox="0 0 32 32" xmlns="http://www.w3.org/2000/svg" xmlns:xlink="http://www.w3.org/1999/xlink"><clipPath id="a"><path clip-rule="evenodd" d="m0 0h32v32h-32z"/></clipPath><metadata/><path d="m0 0h32v32h-32z" fill="none"/><g clip-path="url(#a)"><path d="m19 0c7.18 0 13 5.82 13 13v3c0 4.243-1.686 8.313-4.686 11.314-3.001 3-7.071 4.686-11.314 4.686-8.837 0-16-7.163-16-16 0-1.007 0-2.014 0-3 0-7.18 5.82-13 13-13z"/><path d="m30 16c0 3.713-1.475 7.274-4.101 9.899-2.625 2.626-6.186 4.101-9.899 4.101-7.732 0-14-6.268-14-14v-3c0-6.075 4.925-11 11-11h6c6.075 0 11 4.925 11 11z" fill="#fbc546"/><path d="m9.502 24c.928 0 1.817-.369 2.473-1.025s1.025-1.545 1.025-2.473c0-.657 0-1.345 0-2.002 0-1.933-1.567-3.5-3.5-3.5h-.002c-.928 0-1.817.369-2.473 1.025s-1.025 1.545-1.025 2.473v2.002c0 1.933 1.567 3.5 3.5 3.5z" fill="#fff"/><path d="m8 18c0-.53.211-1.039.586-1.414s.884-.586 1.414-.586 1.039.211 1.414.586.586.884.586 1.414v2.983c0 .531-.211 1.039-.586 1.415-.375.375-.884.585-1.414.585s-1.039-.21-1.414-.585c-.375-.376-.586-.884-.586-1.415 0-.935 0-2.047 0-2.983z"/><path d="m22.498 24c-.928 0-1.817-.369-2.473-1.025s-1.025-1.545-1.025-2.473c0-.657 0-1.345 0-2.002 0-1.933 1.567-3.5 3.5-3.5h.002c.928 0 1.817.369 2.473 1.025s1.025 1.545 1.025 2.473v2.002c0 1.933-1.567 3.5-3.5 3.5z" fill="#fff"/><path d="m24 18c0-.53-.211-1.039-.586-1.414s-.884-.586-1.414-.586-1.039.211-1.414.586-.586.884-.586 1.414v2.983c0 .531.211 1.039.586 1.415.375.375.884.585 1.414.585s1.039-.21 1.414-.585c.375-.376.586-.884.586-1.415 0-.935 0-2.047 0-2.983z"/><path d="m8 12s.513-.513 1.172-1.172c1.811-1.811 4.267-2.828 6.828-2.828 2.561 0 5.017 1.017 6.828 2.828.659.659 1.172 1.172 1.172 1.172" fill="none" stroke="#593604" stroke-width="2"/></g></svg>