<svg clip-rule="evenodd" fill-rule="evenodd" stroke-linejoin="round" stroke-miterlimit="2" viewBox="0 0 32 32" xmlns="http://www.w3.org/2000/svg" xmlns:xlink="http://www.w3.org/1999/xlink"><clipPath id="a"><path clip-rule="evenodd" d="m0 0h32v32h-32z"/></clipPath><metadata/><path d="m0 0h32v32h-32z" fill="none"/><g clip-path="url(#a)"><path d="m12.905 8.051-1.591-6.365 1.557-1.557 4.694 2.716c.246.144.478.311.689.504.505.459.888 1.048 1.103 1.696.032.096.06.194.085.292.103.411.309 1.235.309 1.235s.206-.824.309-1.235c.024-.098.053-.196.084-.292.216-.648.599-1.237 1.104-1.696.211-.193.443-.36.689-.504l4.376-2.532 1.775 1.775-3.088 12.35v2.335c1.232.71 2 2.028 2 3.463v2.471c0 2.465-.979 4.828-2.722 6.571s-4.106 2.722-6.571 2.722h-.682c-6.089 0-11.025-4.936-11.025-11.025v-8.475c0-.928.369-1.818 1.025-2.475.656-.656 1.547-1.025 2.475-1.025l.174.004c.394.02.779.106 1.14.252.067-.08.137-.157.211-.231.515-.514 1.173-.852 1.88-.974z"/><path d="m14.346 11 1.086-1.086 1.568.086v7h-3l.617 1.543c.312.78.79 1.46 1.383 2.005v2.866l-4-4v3l-3.828-3.828c-.06-.059-.117-.12-.172-.183v-2.403l1.5-5z" fill="#005766"/><path d="m14.108 17.27 3.096-.27-1.155-4.622 1.215-.769 1.695.042.587 2.349h.41l.587-2.349c1.525.006 1.54.059 2.91.728l-.453 1.812v1.809l-.603.603-.159.635.762.762s.432.216.894.447c.678.339 1.106 1.032 1.106 1.789v2.471c0 1.934-.768 3.789-2.136 5.157s-3.223 2.136-5.157 2.136h-.682c-4.984 0-9.025-4.041-9.025-9.025v-2.572c.055.063.112.124.172.183l3.828 3.828v-3l2.783 2.783 1.019 1.624.347-.23.351-.789-.5-2.254c-.593-.545-1.071-1.225-1.383-2.005zm10.345-8.891-.757 3.03-1.578.273-1.333-1.001.758-3.03 1.434-.154zm-9.021 1.535-.383-1.536 1.451-.878 1.459.151.757 3.03-1.368.765-1.35-.033c-.019-.55-.218-1.076-.566-1.499zm-1.751-7.006c.961.556 1.921 1.112 2.882 1.668.325.188.594.468.769.801.074.141.13.29.17.445l.214.859-1.509.788-1.401-.061zm11.015 4.501-1.724.022-1.187-.75.215-.859c.04-.155.096-.304.17-.445.175-.333.443-.613.769-.801.96-.556 1.921-1.112 2.882-1.668z" fill="#00e2d7"/><path d="m16 20.134c.281-.162.636-.184.947-.028.494.246.694.848.447 1.341l-2 4c-.246.494-.848.694-1.341.447-.494-.246-.694-.848-.447-1.341l1.177-2.356 1.217 1.217z" fill="#00a6af"/><path d="m23.696 11.409-.243.97-2.91-.728.242-.97zm1-4-.243.97-2.91-.728.242-.97z" fill="#00a6af" fill-rule="nonzero"/><path d="m12 11.5c0-.398.158-.779.439-1.061.282-.281.663-.439 1.061-.439s.779.158 1.061.439c.281.282.439.663.439 1.061v9.5s-1.541-1.541-2.414-2.414c-.375-.375-.586-.884-.586-1.414 0-1.339 0-3.995 0-5.672z" fill="#00e2d7"/><path d="m8 12.468c0-.389.155-.763.43-1.038s.649-.43 1.038-.43h.002c.845 0 1.53.685 1.53 1.53v7.47s-1.236-1.236-2.121-2.121c-.563-.563-.879-1.326-.879-2.122 0-.956 0-2.28 0-3.289z" fill="#00e2d7"/><path d="m15.996 11.361 2.72-.68.243.97-2.91.727-.049-.194v-.684c0-.041-.001-.083-.003-.124zm1.963-3.71-2.91.727-.243-.97 2.91-.727z" fill="#00a6af" fill-rule="nonzero"/><path d="m23 18h-7.523l.069.171c.683 1.709 2.338 2.829 4.178 2.829h.69l2.293 2.293-1.414 1.414-1.709-1.709c-2.601-.055-4.926-1.659-5.895-4.084l-1.166-2.914h10.477z" fill="#005766"/></g></svg>