<svg clip-rule="evenodd" fill-rule="evenodd" stroke-linejoin="round" stroke-miterlimit="2" viewBox="0 0 32 32" xmlns="http://www.w3.org/2000/svg" xmlns:xlink="http://www.w3.org/1999/xlink"><clipPath id="a"><path clip-rule="evenodd" d="m0 0h32v32h-32z"/></clipPath><clipPath id="b"><path clip-rule="evenodd" d="m23.894 18.447c.678.339 1.106 1.032 1.106 1.789v2.471c0 1.934-.768 3.789-2.136 5.157s-3.223 2.136-5.157 2.136c-.226 0-.454 0-.682 0-4.984 0-9.025-4.041-9.025-9.025v-7.475h1.5v-1.5h8.5v2h5v4s.432.216.894.447z"/></clipPath><metadata/><path d="m0 0h32v32h-32z" fill="none"/><g clip-path="url(#a)"><path d="m19.751 6.492c.159-.614.318-1.228.476-1.843.13-.512.26-1.025.389-1.538.041-.14.084-.278.138-.414.083-.207.184-.405.304-.592.457-.708 1.171-1.242 1.983-1.471.19-.054.385-.091.581-.113.059-.006.205-.019.252-.021.066-.002.133 0 .2 0 .068.003.135.006.203.009.143.017.284.034.425.063.278.056.547.145.803.266.346.165.664.388.939.656.519.506.875 1.172 1.003 1.886.05.28.064.566.045.849-.009.139-.028.275-.048.412-.091.41-.183.819-.277 1.228-.326 1.405-.673 2.805-1.027 4.203-.377 1.471-.76 2.941-1.14 4.411v2.289c.077.044.076.045.156.095l.117.077c.188.135.368.278.533.441.489.482.85 1.088 1.039 1.748.091.315.136.635.153.962.016.909.007 1.818.001 2.728-.005.306-.022.612-.056.917-.076.678-.227 1.348-.45 1.994-.271.787-.648 1.536-1.118 2.223-.411.6-.892 1.151-1.431 1.639-1.324 1.199-2.989 1.999-4.752 2.285-.377.061-.757.098-1.139.113-.344.012-.691.006-1.035.006-1.107-.001-2.213-.167-3.271-.496-1.066-.332-2.08-.827-2.997-1.463-1.86-1.29-3.302-3.149-4.08-5.275-.299-.815-.5-1.665-.598-2.527-.043-.373-.064-.747-.071-1.122l-.001-.117v-.029c-.003-.567-.004-1.134-.004-1.7-.007-1.953-.019-3.906.005-5.858.014-.374.078-.741.204-1.093.34-.951 1.093-1.722 2.035-2.085.376-.146.771-.219 1.173-.234.087-.001.087-.001.174 0 .402.015.797.088 1.173.234.019.007.037.014.056.022.397-.474.916-.842 1.504-1.052.253-.091.513-.149.778-.18-.04-.158-.079-.316-.119-.474-.253-1.02-.498-2.042-.732-3.067l-.088-.386c-.033-.152-.07-.304-.101-.457-.016-.079-.033-.237-.042-.324-.029-.312-.016-.629.039-.937.14-.782.555-1.505 1.155-2.026.264-.229.562-.417.881-.559.268-.118.55-.199.839-.247.073-.012.229-.034.295-.039.067-.006.135-.006.203-.009h.2c.12.009.239.018.358.035.231.032.459.086.679.164.779.274 1.457.833 1.867 1.552.156.272.266.56.354.86.192.764.386 1.526.582 2.288.094.365.188.729.283 1.093z"/><path d="m23.894 18.447c.678.339 1.106 1.032 1.106 1.789v2.471c0 1.934-.768 3.789-2.136 5.157s-3.223 2.136-5.157 2.136c-.226 0-.454 0-.682 0-4.984 0-9.025-4.041-9.025-9.025v-7.475h1.5v-1.5h8.5v2h5v4s.432.216.894.447z" fill="#8debcf"/><g clip-path="url(#b)"><path d="m16.546 20.001c.133.009.262.038.383.096.354.168.581.538.571.929-.004.134-.036.262-.089.385-.651 1.371-1.33 2.728-2.035 4.071-.074.128-.168.239-.287.326-.107.078-.23.135-.359.165-.116.028-.237.034-.355.019-.361-.045-.675-.291-.807-.629-.038-.099-.061-.204-.067-.31-.008-.161.024-.317.088-.464.651-1.371 1.33-2.728 2.035-4.071.121-.21.303-.373.532-.457.075-.027.152-.044.231-.055.053-.005.106-.006.159-.005z" fill="#4fc0ae" fill-rule="nonzero"/><path d="m15 16h9v2h-9z" fill="#2b2b2b" fill-rule="nonzero"/><path d="m9.5 13.5v-2.5h12v1.5h2.5v5.499l-8 .001v.506c-.004.327-.065.648-.19.951-.086.207-.2.403-.338.58-.483.619-1.248.982-2.034.962-.286-.007-.571-.063-.838-.167-.286-.11-.551-.273-.778-.479-.243-.22-.442-.488-.582-.785-.031-.064-.058-.13-.083-.196-.501.442-1.173.671-1.843.621-.224-.017-.446-.064-.657-.139-.288-.104-.557-.26-.789-.46-.248-.214-.454-.478-.602-.771-.099-.198-.17-.408-.214-.623h-.052v-.496c-.016-1.334-.016-2.669 0-4.004z" fill="#1c7268"/></g><path d="m12 12.5c0-.398.158-.779.439-1.061.282-.281.663-.439 1.061-.439s.779.158 1.061.439c.281.282.439.663.439 1.061v6c0 .398-.158.779-.439 1.061-.282.281-.663.439-1.061.439s-.779-.158-1.061-.439c-.281-.282-.439-.663-.439-1.061 0-1.665 0-4.335 0-6zm-4 1c0-.398.158-.779.439-1.061.282-.281.663-.439 1.061-.439s.779.158 1.061.439c.281.282.439.663.439 1.061v4c0 .398-.158.779-.439 1.061-.282.281-.663.439-1.061.439s-.779-.158-1.061-.439c-.281-.282-.439-.663-.439-1.061 0-1.181 0-2.819 0-4zm14.548 2.5c-.03.121-.061.242-.091.363-.02.072-.024.091-.05.161-.059.158-.144.305-.252.435-.126.151-.281.276-.455.368-.149.078-.311.131-.477.156-.506.075-1.027-.119-1.36-.507-.04-.048-.078-.097-.112-.149-.003.005-.007.01-.01.015-.095.139-.213.262-.348.363-.411.304-.962.378-1.438.192-.131-.051-.254-.121-.366-.206-.178-.136-.325-.313-.427-.513-.038-.076-.067-.154-.095-.234-1.119-3.997-2.015-8.054-3.022-12.081-.043-.194-.058-.387-.029-.584.076-.506.413-.948.882-1.153.156-.069.318-.104.487-.122.084-.004.084-.004.168-.004.141.009.278.03.413.074.321.105.602.319.787.601.078.119.134.246.18.38.967 3.456 1.769 6.957 2.619 10.445h.368c.816-3.469 1.762-6.907 2.627-10.364.038-.137.086-.266.157-.389.184-.317.483-.56.832-.673.135-.044.271-.065.413-.074.084 0 .083 0 .168.004.197.02.386.067.563.158.43.218.735.64.806 1.117.025.168.016.334-.011.502-.735 3.337-1.623 6.638-2.475 9.947v1.772h-.452z" fill="#8debcf"/><path d="m23 18h-6.873c.022.083.022.082.046.165.099.311.226.609.394.89.524.875 1.379 1.526 2.362 1.799.35.097.709.144 1.072.146h.413l2.293 2.293-1.414 1.414-1.723-1.722c-.104-.007-.208-.018-.312-.031-.582-.076-1.152-.23-1.69-.468-1.127-.499-2.085-1.347-2.717-2.404-.226-.377-.41-.779-.548-1.196-.193-.585-.291-1.194-.303-1.81v-.071-1.005h9z" fill="#1c7268" fill-rule="nonzero"/></g></svg>