<svg clip-rule="evenodd" fill-rule="evenodd" stroke-linejoin="round" stroke-miterlimit="2" viewBox="0 0 32 32" xmlns="http://www.w3.org/2000/svg" xmlns:xlink="http://www.w3.org/1999/xlink"><clipPath id="a"><path clip-rule="evenodd" d="m0 0h32v32h-32z"/></clipPath><metadata/><path d="m0 0h32v32h-32z" fill="none"/><g clip-path="url(#a)"><path d="m18.058 9.849c.741-2.453 1.783-4.805 3.102-7.003.606-1.01 1.125-1.875 1.125-1.875.361-.602 1.012-.971 1.715-.971s1.354.369 1.715.971c2.201 3.668 2.754 8.092 1.525 12.188l-.362 1.207c.615.249 1.18.62 1.658 1.098.937.937 1.464 2.208 1.464 3.534v1.002c0 3.183-1.264 6.235-3.515 8.485-2.25 2.251-5.302 3.515-8.485 3.515h-3c-3.448 0-6.754-1.37-9.192-3.808s-3.808-5.744-3.808-9.192v-4.002c0-2.76 2.238-4.998 4.998-4.998h.002c.427 0 .841.053 1.236.154-.38-3.074.268-6.215 1.889-8.916.101-.169.16-.267.16-.267.361-.602 1.012-.971 1.715-.971s1.354.369 1.715.971c0 0 1.162 1.937 2.04 3.4.713 1.189 1.294 2.452 1.732 3.767z"/><path d="m25 16c1.657 0 3 1.343 3 3v1c0 2.652-1.054 5.196-2.929 7.071s-4.419 2.929-7.071 2.929h-3c-2.917 0-5.715-1.159-7.778-3.222s-3.222-4.861-3.222-7.778c0-1.751 0-3 0-3h8l-.154-.462 2.154-1.538 3.385.154.615 1.846h.3l.636-2.119 3.064.119 1 .628 1 2.372z" fill="#4d4d4d"/><path d="m9.986 16c-.036.89-.141 1.776-.316 2.651-.291 1.456-.67 3.349-.67 3.349s-.697-.418-1.57-.942c-1.839-1.103-3.061-2.97-3.359-5.058h-.071v-1.002c0-.795.316-1.558.878-2.12s1.325-.878 2.12-.878h.002c.796 0 1.559.316 2.121.879.559.558.874 1.313.879 2.102v.019 1zm1.86-.462-1.101-3.302c-1.107-3.323-.708-6.965 1.095-9.969.101-.169.16-.267.16-.267s1.162 1.937 2.04 3.4c.638 1.063 1.158 2.194 1.55 3.37l1.795 5.384zm12.165-13.519c1.902 3.181 2.379 7.015 1.314 10.566l-.425 1.415-1.9 1.1-4.064-1.219 1.017-3.391c.695-2.318 1.677-4.54 2.922-6.615.606-1.01 1.125-1.875 1.125-1.875z" fill="#2c2c2c"/><path d="m24.9 14-.6 2-2.3 7v2c-.109 0-.219-.009-.329-.027 0 0-.683-.114-1.589-.265-3.389-.565-6.305-2.711-7.853-5.777l-.018-.037c-.25-.5-.279-1.082-.08-1.605.198-.523.607-.938 1.126-1.146 0 0 .956-.382 2.031-.812 2.198-.879 4.543-1.331 6.91-1.331z" fill="#1a1a1a"/><path d="m14 18c1.257 2.513 3.64 4.273 6.411 4.735.906.151 1.589.265 1.589.265l3-7h-2.802c-2.113 0-4.206.403-6.167 1.188-1.076.43-2.031.812-2.031.812z" fill="#2c2c2c"/></g></svg>