<svg clip-rule="evenodd" fill-rule="evenodd" stroke-linejoin="round" stroke-miterlimit="2" viewBox="0 0 32 32" xmlns="http://www.w3.org/2000/svg" xmlns:xlink="http://www.w3.org/1999/xlink"><clipPath id="a"><path clip-rule="evenodd" d="m0 0h32v32h-32z"/></clipPath><metadata/><path d="m0 0h32v32h-32z" fill="none"/><g clip-path="url(#a)"><path d="m19.25 3.52c.755-2.176 3.064-3.455 5.341-2.886 2.41.603 3.877 3.048 3.275 5.457l-1.866 7.463v1.77c.832.315 1.575.85 2.142 1.563.948 1.193 1.301 2.753.959 4.237-.116.502-.238 1.032-.363 1.574-1.257 5.445-6.105 9.302-11.693 9.302l-.045-.018v.014s-.412 0-1.035 0c-5.571 0-10.426-3.79-11.778-9.194-.609-2.431-1.178-4.706-1.178-4.706-.603-2.409.864-4.855 3.273-5.457.165-.042.331-.073.495-.096.188-1.832 1.498-3.436 3.387-3.909.358-.089.718-.133 1.072-.135l-.602-2.408c-.602-2.409.865-4.854 3.275-5.457 2.277-.569 4.586.71 5.341 2.886z"/><path d="m7 15c2.268-2.268 2.496-1.997 5-4 .736-.589 1.057-2 2-2s1.333 1.333 2 2l8 4v9l-8-2h-9v-1.606c-.517-.015-1.015-.156-1.455-.402l-.558-2.229z" fill="#26330c"/><path d="m24.229 17c.914 0 1.778.417 2.348 1.132.569.716.781 1.652.575 2.543-.116.502-.238 1.032-.363 1.574-1.047 4.537-5.088 7.751-9.744 7.751h-.045c.001-.001.001-.003.002-.004h-.002-1.035c-4.653 0-8.709-3.166-9.838-7.679l-.582-2.325c.681.381 1.503.511 2.316.308.01-.002.021-.005.031-.008.933-.233 1.709-.877 2.111-1.75.138-.299.226-.614.266-.933.694.426 1.549.577 2.385.368.001 0 .002-.001.002-.001.201-.05.393-.119.574-.205-.02.019.978.078.909-.655.538-.562.861-1.321.861-2.141 0-.161 0-.313 0-.447 0-.405-.068-.807-.2-1.19l-1.059-3.064-1.166-4.668c-.335-1.338.48-2.697 1.819-3.031 1.338-.335 2.697.48 3.031 1.819l1.825 7.298 1.825-7.298c.088-.344.243-.666.463-.944.2-.252.448-.465.728-.624.271-.154.57-.257.879-.301.277-.04.561-.032.836.022.269.052.529.149.766.286.22.126.42.286.591.473.347.377.574.86.641 1.369.041.312.02.627-.054.931l-1.925 7.702v1.692h-8v1.663l-1 1.337c0 3.314 3.686 6 7 6l1-1v-2h-1c-2.209 0-4-1.791-4-4zm-19.242.763-.038-.152c-.335-1.339.48-2.697 1.818-3.032.521-.131 1.045-.087 1.511.094l.786 1.573c.295.589.306 1.28.031 1.878s-.807 1.039-1.446 1.198c-.01.003-.02.005-.031.008-1.119.28-2.262-.365-2.6-1.468zm3.816-4.275c-.26-1.299.546-2.589 1.846-2.913.876-.219 1.761.054 2.361.645l.845 2.444c.096.278.145.57.145.864v.447c0 .961-.654 1.798-1.586 2.031-.001 0-.002.001-.003.001-.96.24-1.958-.219-2.401-1.105z" fill="#6c7829"/><g fill="#424b07"><path d="m23 23v1.158c0 .923-.426 1.796-1.154 2.364-.728.569-1.677.77-2.574.546-.917-.229-1.782-.445-2.294-.574-.318-.079-.643-.119-.97-.119h-.016c-.327 0-.652.04-.97.119-.512.129-1.377.345-2.294.574-.897.224-1.846.023-2.574-.546-.728-.568-1.154-1.441-1.154-2.364 0-.172 0-.34 0-.501 0-1.061.421-2.078 1.172-2.829.819-.819 1.951-1.951 3-3 .019-.019.038-.038.058-.057.345-.163.652-.386.909-.655.569-.299 1.207-.459 1.861-.459v.343c0 3.314 2.686 6 6 6z"/><path d="m23.704 4.041c1.047.261 1.589 1.707 1.21 3.226-.378 1.52-1.536 2.542-2.583 2.281s-1.589-1.707-1.21-3.227c.379-1.519 1.536-2.541 2.583-2.28zm-8.943.001c-1.047.261-1.596 1.677-1.227 3.16.37 1.483 1.52 2.475 2.567 2.214s1.597-1.677 1.227-3.16-1.52-2.475-2.567-2.214z"/></g></g></svg>