<svg clip-rule="evenodd" fill-rule="evenodd" stroke-linejoin="round" stroke-miterlimit="1.41421" viewBox="0 0 32 32" xmlns="http://www.w3.org/2000/svg" xmlns:xlink="http://www.w3.org/1999/xlink"><clipPath id="a"><path clip-rule="evenodd" d="m0 0h32v32h-32z"/></clipPath><metadata/><path d="m0 0h32v32h-32z" fill="none"/><g clip-path="url(#a)"><path d="m32 8c0-4.418-3.582-8-8-8-4.887 0-11.113 0-16 0-4.418 0-8 3.582-8 8v16c0 4.418 3.582 8 8 8h16c4.418 0 8-3.582 8-8 0-4.887 0-11.113 0-16z"/><path d="m30 8c0-1.591-.632-3.117-1.757-4.243-1.126-1.125-2.652-1.757-4.243-1.757-4.724 0-11.276 0-16 0-1.591 0-3.117.632-4.243 1.757-1.125 1.126-1.757 2.652-1.757 4.243v16c0 1.591.632 3.117 1.757 4.243 1.126 1.125 2.652 1.757 4.243 1.757h16c1.591 0 3.117-.632 4.243-1.757 1.125-1.126 1.757-2.652 1.757-4.243 0-4.724 0-11.276 0-16z" fill="#00b1f1"/><path d="m21.907 16.033c-.132 0-.33.004-.594.011-.264.008-.462.011-.594.011-.528 0-.924-.007-1.188-.022-1.129-.029-1.844-.143-2.145-.341s-.451-.627-.451-1.287v-4.686h-1.848c-.132 3.696-2.801 6.116-8.008 7.26l-.55-1.848c2.141-.484 3.714-1.169 4.719-2.057 1.005-.887 1.507-2.005 1.507-3.355h-3.674v2.992h-2.31v-4.906h8.03v-2.2h2.42v2.2h8.03v3.85h-2.31v-1.936h-3.674v3.74c0 .367.033.583.099.649s.304.107.715.121c.103 0 .253.004.451.011.198.008.341.011.429.011s.231-.003.429-.011c.198-.007.348-.011.451-.011.631-.029 1.005-.117 1.122-.264.117-.146.205-.63.264-1.452l2.244.264c-.044.558-.081.987-.11 1.287-.029.301-.103.591-.22.869-.117.279-.231.473-.341.583s-.319.209-.627.297-.612.143-.913.165-.752.041-1.353.055zm-15.246 7.282h8.14v-4.136h-6.16v-1.914h14.74v1.914h-6.16v4.136h8.14v1.98h-18.7z" fill="#fff" fill-rule="nonzero"/></g></svg>