<svg clip-rule="evenodd" fill-rule="evenodd" stroke-linejoin="round" stroke-miterlimit="2" viewBox="0 0 32 32" xmlns="http://www.w3.org/2000/svg" xmlns:xlink="http://www.w3.org/1999/xlink"><clipPath id="a"><path clip-rule="evenodd" d="m0 0h32v32h-32z"/></clipPath><metadata/><path d="m0 0h32v32h-32z" fill="none"/><g clip-path="url(#a)"><path d="m17.169 2.005c.144-.411.381-.798.71-1.126 1.17-1.171 3.072-1.171 4.242 0l.879.878.879-.878c1.17-1.171 3.072-1.171 4.242 0 .329.328.566.715.71 1.126.823-.046 1.662.245 2.29.874 1.171 1.17 1.171 3.072 0 4.242l-.878.879.878.879c1.14 1.139 1.17 2.971.091 4.148.511 1.565.788 3.237.788 4.973v1c0 7.18-5.82 13-13 13h-6c-7.18 0-13-5.82-13-13 0-.332 0-.665 0-1 0-8.837 7.163-16 16-16h.052c.218.001.436.006.652.015.154-.015.31-.018.465-.01z"/><path d="m30 18c0-7.732-6.268-14-14-14-7.732 0-14 6.268-14 14v1c0 6.075 4.925 11 11 11h6c6.075 0 11-4.925 11-11 0-.332 0-.665 0-1z" fill="#fbc546"/><path d="m23.71 12.963 1.185-1.016c.027.025.054.051.08.078.656.656 1.025 1.545 1.025 2.473v2.002c0 1.933-1.567 3.5-3.5 3.5h-.002c-.928 0-1.817-.369-2.473-1.025-.544-.544-.891-1.248-.993-2.002l.968-.83s2.278-1.041 3.71-3.18z" fill="#fff"/><path d="m23.71 12.963c.188.31.29.668.29 1.037v2.983c0 .531-.211 1.039-.586 1.415-.375.375-.884.585-1.414.585s-1.039-.21-1.414-.585c-.375-.376-.586-.884-.586-1.415v-.84z"/><path d="m8.322 12.963-1.185-1.016c-.028.025-.054.051-.081.078-.656.656-1.024 1.545-1.024 2.473v2.002c0 1.933 1.567 3.5 3.5 3.5h.002c.928 0 1.817-.369 2.473-1.025.544-.544.891-1.248.993-2.002l-.968-.83s-2.278-1.041-3.71-3.18z" fill="#fff"/><path d="m8.322 12.963c-.188.31-.29.668-.29 1.037v2.983c0 .531.211 1.039.586 1.415.375.375.883.585 1.414.585.53 0 1.039-.21 1.414-.585.375-.376.586-.884.586-1.415v-.84z"/><path d="m25 24c0-1.657-1.343-3-3-3-3.329 0-8.671 0-12 0-1.657 0-3 1.343-3 3s1.343 3 3 3h12c1.657 0 3-1.343 3-3z" fill="#7e5108"/><path d="m23.697 22.941c.192.307.303.67.303 1.059 0 .749-.412 1.402-1.022 1.745-.721-.216-1.096-.193-1.854-.193-2.86 0-7.143 0-10.002 0-.73 0-1.39.031-2.101.192-.609-.342-1.021-.995-1.021-1.744 0-.389.111-.752.303-1.059 1.298-.002 1.784.059 2.858.059h9.678c1.074 0 2.006.014 2.858-.059z" fill="#707070"/><path d="m9.021 25.744c.545-.478 1.247-.744 1.977-.744h10.002c.758 0 1.45.281 1.978.745-.289.162-.623.255-.978.255-3.074 0-8.926 0-12 0-.356 0-.69-.093-.979-.256zm-.718-2.803c.354-.565.981-.941 1.697-.941h12c.716 0 1.343.376 1.697.941-.778.668-1.784 1.059-2.858 1.059h-9.678c-1.074 0-2.08-.391-2.858-1.059z" fill="#fff"/><path d="m20.707 13.707s.808-.808 1.586-1.586c.39-.39 1.024-.39 1.414 0 .778.778 1.586 1.586 1.586 1.586.39.39 1.024.39 1.414 0s.39-1.024 0-1.414c0 0-.808-.808-1.586-1.586-1.171-1.171-3.071-1.171-4.242 0-.778.778-1.586 1.586-1.586 1.586-.39.39-.39 1.024 0 1.414s1.024.39 1.414 0zm7.586-9.414s-.808.808-1.586 1.586c-1.171 1.171-1.171 3.071 0 4.242.778.778 1.586 1.586 1.586 1.586.39.39 1.024.39 1.414 0s.39-1.024 0-1.414c0 0-.808-.808-1.586-1.586-.39-.39-.39-1.024 0-1.414.778-.778 1.586-1.586 1.586-1.586.39-.39.39-1.024 0-1.414s-1.024-.39-1.414 0zm-12 1.414s.808.808 1.586 1.586c.39.39.39 1.024 0 1.414-.778.778-1.586 1.586-1.586 1.586-.39.39-.39 1.024 0 1.414s1.024.39 1.414 0c0 0 .808-.808 1.586-1.586 1.171-1.171 1.171-3.071 0-4.242-.778-.778-1.586-1.586-1.586-1.586-.39-.39-1.024-.39-1.414 0s-.39 1.024 0 1.414zm3-2s.808.808 1.586 1.586c1.171 1.171 3.071 1.171 4.242 0 .778-.778 1.586-1.586 1.586-1.586.39-.39.39-1.024 0-1.414s-1.024-.39-1.414 0c0 0-.808.808-1.586 1.586-.39.39-1.024.39-1.414 0-.778-.778-1.586-1.586-1.586-1.586-.39-.39-1.024-.39-1.414 0s-.39 1.024 0 1.414z" fill="#f00"/></g></svg>