<svg clip-rule="evenodd" fill-rule="evenodd" stroke-linejoin="round" stroke-miterlimit="1.41421" viewBox="0 0 32 32" xmlns="http://www.w3.org/2000/svg" xmlns:xlink="http://www.w3.org/1999/xlink"><clipPath id="a"><path clip-rule="evenodd" d="m0 0h32v32h-32z"/></clipPath><metadata/><path d="m0 0h32v32h-32z" fill="none"/><g clip-path="url(#a)"><path d="m32 8c0-.53-.211-1.039-.586-1.414s-.884-.586-1.414-.586c-5.746 0-22.254 0-28 0-.53 0-1.039.211-1.414.586s-.586.884-.586 1.414v18c0 .53.211 1.039.586 1.414s.884.586 1.414.586h28c.53 0 1.039-.211 1.414-.586s.586-.884.586-1.414c0-4.184 0-13.816 0-18z"/><path d="m30 8h-28v4l.205.469-.205.531v13h28v-13l-.3-.56.3-.44z" fill="#4d4d4d"/><path d="m2 12h28v1h-28z" fill="#333"/><path d="m21 15h-10l-1 1v7l1 1h10l1-1v-7z" fill="#333"/><circle cx="22.5" cy="19.5" r="1.5"/><path d="m16.041 9.002c.055.006.106.019.158.039.692.323 1.376.664 2.049 1.025.064.039.12.087.163.15.154.222.098.537-.123.693-.078.054-.166.082-.26.09-1.352.038-2.704.038-4.056 0-.075-.006-.146-.024-.213-.061-.237-.13-.328-.436-.199-.675.045-.083.111-.148.192-.197.673-.361 1.357-.702 2.049-1.025.052-.02.103-.033.158-.039.028-.002.054-.002.082 0z" fill="#262626"/><path d="m27.189 15c1.121 1.168 1.811 2.754 1.811 4.5s-.69 3.332-1.811 4.5h-6.189v-9z" fill="#bebebe"/><path d="m11 16.337-1 .663v5l1 .663v1.337h-6.189c-1.121-1.168-1.811-2.754-1.811-4.5s.69-3.332 1.811-4.5h6.189z"/><path d="m11 22.663c-.455.216-.963.337-1.5.337-1.932 0-3.5-1.568-3.5-3.5s1.568-3.5 3.5-3.5c.537 0 1.045.121 1.5.337z" fill="#c4c4c4"/><circle cx="22.5" cy="19.5" r="1.5"/><circle cx="9.5" cy="19.5" r="1.5"/></g></svg>