<svg clip-rule="evenodd" fill-rule="evenodd" stroke-linejoin="round" stroke-miterlimit="2" viewBox="0 0 32 32" xmlns="http://www.w3.org/2000/svg" xmlns:xlink="http://www.w3.org/1999/xlink"><clipPath id="a"><path clip-rule="evenodd" d="m0 0h32v32h-32z"/></clipPath><metadata/><path d="m0 0h32v32h-32z" fill="none"/><g clip-path="url(#a)"><path d="m32 2c0-.53-.211-1.039-.586-1.414s-.884-.586-1.414-.586h-28c-.53 0-1.039.211-1.414.586s-.586.884-.586 1.414v28c0 .53.211 1.039.586 1.414s.884.586 1.414.586h28c.53 0 1.039-.211 1.414-.586s.586-.884.586-1.414z"/><path d="m30 2h-28v7l1 1h26l1-1z" fill="#1185fa"/><path d="m30 16-1 1h-26l-1-1v-7h28z" fill="#3899fb"/><path d="m25.818 16h4.182v3.429zm-19.182 0-4.636 3.625v-3.625z" fill="#67b2fc"/><path d="m2 19.625 8-9.625 2-2 2 1 5-2 3 2 1 2 7 8.429v10.571h-28z" fill="#49433c"/><g fill="#2d2925"><path d="m20 16 5 13-2-1-3-9h-1l-1-3z"/><path d="m9 21 3-7 2-1 1-3h1l-5 18v-4l-2 1z"/><path d="m20 9 4 9h1l-3-7z"/></g></g></svg>