<svg clip-rule="evenodd" fill-rule="evenodd" stroke-linejoin="round" stroke-miterlimit="1.41421" viewBox="0 0 32 32" xmlns="http://www.w3.org/2000/svg" xmlns:xlink="http://www.w3.org/1999/xlink"><clipPath id="a"><path clip-rule="evenodd" d="m0 0h32v32h-32z"/></clipPath><metadata/><path d="m0 0h32v32h-32z" fill="none"/><g clip-path="url(#a)"><path d="m16.206 1.001.206.004.205.007.205.009.204.011.203.015.203.016.201.019.202.022.2.024.2.027.199.029.198.032.198.034.197.036.195.039.195.041.195.044.193.046.192.048.192.05.19.053.19.055.188.058.188.059.186.062.186.064.184.066.184.069.182.07.181.073.181.075.179.077.177.079.177.082.176.083.174.085.173.087.172.09.171.091.169.094.169.095.166.097.166.1.164.101.163.103.162.105.16.107.159.108.158.111.156.112.154.115.153.116.152.117.151.12.148.121.148.123.146.125.144.127.142.128.142.13.139.131.138.133.137.135.135.137.133.138.131.139.13.142.128.142.127.145.125.145.123.148.121.149.12.15.117.152.116.153.115.154.112.156.111.158.108.159.107.16.105.162.103.163.101.164.1.166.097.166.095.169.094.169.091.171.09.172.087.173.085.174.084.176.081.177.079.177.077.179.075.181.073.181.07.182.069.184.066.184.064.186.062.186.059.188.058.188.055.19.053.19.05.192.048.192.046.193.044.195.041.195.039.195.036.197.034.198.032.198.029.199.027.2.024.2.022.201.019.202.016.203.015.203.011.204.009.205.007.205.004.206.001.2v.011l-.001.133-.002.138-.003.138-.005.137-.006.138-.007.136-.009.137-.01.136-.011.136-.012.136-.014.135-.015.135-.017.134-.017.134-.019.134-.02.133-.022.133-.022.132-.024.132-.025.132-.027.131-.027.131-.029.13-.03.13-.031.13-.033.129-.033.128-.035.128-.036.128-.037.127-.038.126-.04.126-.04.126-.042.125-.043.124-.044.124-.045.124-.046.122-.048.123-.048.121-.05.121-.05.121-.052.12-.053.12-.054.118-.055.119-.056.117-.057.117-.058.117-.059.115-.06.116-.062.114-.062.114-.063.113-.064.113-.066.111-.066.112-.067.11-.069.11-.069.109-.07.109-.071.108-.072.107-.073.106-.075.106-.075.105-.075.104-.077.103-.078.103-.079.102-.079.101-.081.101-.081.099-.083.099-.083.099-.084.097-.085.097-.086.095-.086.095-.088.095-.088.093-.089.093-.091.091-.091.091-.091.09-.093.09-.093.088-.094.088-.095.086-.096.086-.097.085-.097.084-.098.084-.099.082-.1.081-.1.081-.101.079-.103.079-.102.078-.104.077-.104.076-.105.075-.105.074-.107.073-.107.072-.108.071-.108.071-.109.069-.11.068-.11.068-.112.066-.112.065-.062.036v.003l.016.1.013.101.012.101.009.102.008.102.005.102.003.103.001.093v2.028h-18v-2.028l.001-.093.003-.102.005-.103.008-.102.009-.102.012-.101.013-.101.016-.101v-.002l-.062-.036-.112-.065-.112-.066-.11-.068-.11-.068-.109-.069-.108-.071-.108-.071-.107-.072-.107-.073-.105-.074-.105-.075-.104-.076-.104-.077-.103-.078-.102-.079-.101-.079-.1-.081-.1-.081-.099-.082-.098-.084-.097-.084-.097-.085-.096-.086-.095-.086-.094-.088-.093-.088-.093-.09-.092-.09-.09-.091-.09-.091-.09-.093-.088-.093-.088-.095-.086-.095-.086-.096-.085-.096-.084-.097-.083-.099-.083-.099-.081-.099-.081-.101-.079-.101-.079-.102-.078-.103-.077-.103-.075-.104-.075-.105-.074-.106-.074-.106-.072-.108-.071-.107-.07-.109-.069-.109-.069-.11-.067-.11-.066-.111-.066-.113-.064-.112-.063-.113-.062-.114-.062-.114-.06-.116-.059-.115-.058-.117-.057-.117-.056-.117-.055-.119-.054-.119-.053-.119-.052-.12-.05-.12-.05-.122-.048-.121-.048-.123-.046-.123-.045-.123-.044-.124-.043-.124-.042-.125-.04-.126-.04-.126-.038-.126-.037-.127-.036-.128-.035-.128-.033-.129-.033-.128-.031-.13-.03-.13-.029-.13-.027-.131-.027-.131-.025-.132-.024-.132-.022-.132-.022-.133-.02-.133-.019-.134-.017-.134-.017-.134-.015-.135-.014-.135-.012-.136-.011-.136-.01-.136-.009-.137-.007-.136-.006-.137-.005-.138-.003-.138-.002-.138-.001-.133v-.011l.001-.2.004-.206.007-.205.009-.205.011-.204.015-.203.016-.203.019-.201.022-.202.024-.2.027-.2.029-.199.032-.198.034-.198.036-.197.039-.195.041-.195.044-.195.046-.193.048-.192.05-.192.053-.19.055-.19.058-.188.059-.188.062-.186.064-.186.066-.184.069-.184.07-.182.073-.181.075-.181.077-.179.079-.177.082-.177.083-.176.085-.174.087-.173.09-.172.091-.171.094-.169.095-.169.097-.167.1-.165.101-.164.103-.163.105-.162.107-.16.108-.159.111-.158.112-.156.115-.154.116-.154.118-.151.119-.151.121-.148.123-.148.125-.145.127-.145.128-.143.13-.141.131-.139.133-.138.135-.137.137-.135.138-.133.139-.131.141-.13.143-.128.145-.127.145-.125.148-.123.148-.121.151-.12.152-.117.153-.116.154-.115.156-.112.158-.111.159-.108.16-.107.162-.105.163-.103.164-.101.166-.1.166-.097.169-.095.169-.094.171-.091.172-.09.173-.087.174-.085.176-.083.176-.082.178-.079.179-.077.181-.075.181-.073.182-.07.184-.069.184-.066.186-.064.186-.062.188-.059.188-.058.19-.055.19-.053.192-.05.192-.048.193-.046.195-.044.195-.041.195-.039.197-.036.198-.034.198-.032.199-.029.2-.027.2-.024.202-.022.201-.019.203-.016.203-.015.204-.011.205-.009.205-.007.206-.004.206-.001.206.001zm-.362 4-.155.003-.154.005-.154.007-.154.008-.152.011-.153.013-.151.014-.151.016-.151.019-.15.02-.149.021-.149.024-.148.026-.147.027-.147.029-.146.031-.145.032-.144.035-.145.036-.143.038-.142.039-.142.041-.141.043-.14.045-.14.046-.139.048-.138.05-.137.051-.137.053-.135.054-.135.056-.134.058-.134.059-.132.061-.131.062-.131.064-.13.066-.129.067-.128.068-.127.07-.126.072-.125.073-.124.074-.123.076-.122.077-.122.079-.12.08-.119.082-.118.083-.117.084-.117.086-.115.087-.114.089-.112.089-.112.092-.111.092-.109.094-.109.095-.107.096-.106.098-.105.098-.104.1-.102.102-.102.102-.1.104-.098.105-.098.106-.096.107-.095.108-.094.11-.093.111-.091.112-.089.112-.089.114-.087.115-.086.117-.084.117-.083.118-.082.119-.08.12-.079.122-.077.122-.076.123-.074.124-.073.125-.072.126-.07.127-.068.128-.067.129-.066.13-.064.131-.062.131-.061.132-.059.134-.058.134-.056.135-.054.135-.053.137-.051.137-.05.138-.048.139-.046.139-.045.141-.043.141-.041.142-.039.142-.038.144-.036.144-.035.144-.032.145-.031.146-.029.147-.027.147-.026.148-.024.149-.021.149-.02.15-.019.151-.016.151-.014.151-.013.153-.011.152-.008.154-.007.154-.005.154-.003.155-.001.157.001.099.001.099.002.099.004.098.004.099.005.098.006.098.008.097.008.097.009.097.009.097.011.096.012.096.012.096.014.096.014.095.016.095.016.094.017.094.018.094.019.094.019.093.021.093.021.092.022.093.023.092.024.091.025.091.026.091.026.091.027.09.028.09.029.089.03.089.031.089.031.088.032.088.033.087.034.088.034.086.036.086.036.087.037.085.037.085.039.085.039.084.04.084.041.084.041.083.042.082.043.082.044.082.044.081.046.081.046.081.046.079.047.08.049.079.048.078.05.078.05.078.051.077.051.076.053.076.053.076.053.075.055.075.054.073.056.074.056.073.057.072.058.072.058.072.059.07.06.071.06.069.061.07.061.068.062.068.063.068.063.066.064.067.064.065.065.065.066.065.066.064.067.063.068.063.068.062.068.061.069.061.07.06.07.06.071.059.071.058.072.058.073.057.073.056.073.056.074.055.075.054.074.054.076.052.076.053.077.051.077.051.077.05.078.05.078.049.08.048.079.047.08.047.08.046.081.045.081.044.082.044.082.043.083.042.083.042.083.041.084.04.084.039.085.038.085.038.085.037.086.036.087.035 2.183.87.119.424-.322.43h7.525l-.321-.429.119-.425 2.183-.87.087-.035.085-.036.086-.037.085-.038.085-.038.084-.039.084-.04.083-.041.083-.042.083-.042.082-.043.082-.044.081-.044.081-.045.08-.046.08-.047.079-.047.08-.048.078-.049.078-.05.077-.05.078-.051.076-.051.076-.052.076-.054.075-.053.074-.054.074-.055.073-.056.073-.056.073-.057.072-.058.071-.058.071-.059.07-.06.07-.06.069-.061.068-.061.068-.062.068-.063.067-.063.066-.064.066-.065.065-.065.064-.065.064-.067.063-.067.063-.067.062-.068.061-.069.061-.069.06-.069.06-.071.059-.07.058-.072.058-.072.057-.072.056-.073.055-.073.055-.075.055-.074.053-.075.053-.076.053-.076.051-.076.051-.077.05-.078.05-.078.048-.078.049-.079.047-.08.046-.08.046-.08.045-.081.045-.081.044-.082.043-.082.042-.082.041-.083.041-.084.04-.084.039-.084.039-.085.037-.085.037-.085.036-.086.036-.087.034-.086.034-.088.033-.087.032-.088.031-.088.031-.089.03-.089.029-.089.028-.09.027-.09.026-.091.026-.091.025-.091.024-.092.023-.091.022-.092.021-.093.021-.093.019-.093.019-.094.018-.094.017-.094.016-.094.016-.095.014-.095.014-.096.012-.096.012-.096.011-.096.009-.097.009-.097.008-.097.008-.098.006-.097.005-.098.004-.099.004-.098.002-.099.001-.1.001-.098-.001-.157-.003-.155-.005-.154-.007-.154-.008-.154-.011-.152-.013-.153-.014-.151-.016-.152-.019-.15-.02-.15-.021-.149-.024-.149-.026-.148-.027-.147-.029-.147-.031-.146-.032-.145-.035-.145-.036-.144-.038-.143-.039-.142-.041-.142-.043-.141-.045-.141-.046-.139-.048-.139-.05-.138-.051-.137-.053-.137-.054-.135-.056-.135-.058-.134-.059-.134-.061-.132-.062-.131-.064-.131-.066-.13-.067-.129-.068-.128-.07-.127-.072-.126-.073-.125-.074-.124-.076-.123-.077-.122-.079-.122-.08-.12-.082-.119-.083-.118-.084-.117-.086-.117-.087-.115-.089-.114-.089-.113-.091-.111-.093-.111-.094-.109-.095-.109-.096-.107-.098-.106-.098-.105-.101-.104-.101-.102-.102-.102-.104-.1-.105-.098-.106-.098-.107-.096-.109-.095-.109-.094-.111-.093-.112-.091-.112-.089-.114-.089-.115-.087-.117-.086-.117-.084-.118-.083-.119-.082-.12-.08-.122-.079-.122-.077-.123-.076-.124-.074-.125-.073-.126-.072-.127-.07-.128-.068-.129-.067-.13-.066-.131-.064-.131-.062-.132-.061-.134-.059-.134-.058-.135-.056-.135-.054-.137-.053-.137-.051-.138-.05-.139-.048-.14-.046-.14-.045-.141-.043-.142-.041-.142-.039-.144-.038-.143-.036-.145-.035-.145-.032-.146-.031-.147-.029-.147-.027-.148-.026-.149-.024-.149-.021-.15-.02-.151-.019-.151-.016-.151-.014-.153-.013-.152-.011-.154-.008-.154-.007-.154-.005-.155-.003-.156-.001-.156.001z"/><path d="m30 17c0-7.732-6.268-14-14-14-7.732 0-14 6.268-14 14 0 6.627 5.373 12 12 12h4c6.627 0 12-5.373 12-12z" fill="#77b84c"/><path d="m9.128 24h-.51c-.347 0-.668-.179-.851-.474-.182-.295-.198-.663-.043-.973.249-.499.541-1.084.841-1.683 1.186-2.372 3.61-3.87 6.261-3.87h2.348c2.651 0 5.075 1.498 6.261 3.87.3.599.592 1.184.841 1.683.155.31.139.678-.043.973-.183.295-.504.474-.851.474h-.51c-1.056-1.83-12.688-1.83-13.744 0z" fill="#193804"/><path d="m9.128 24c1.056-1.83 3.024-3 5.197-3h3.35c2.173 0 4.141 1.17 5.197 3z" fill="#2f6607"/><path d="m24.034 9.501.046.002.045.005.045.007.045.008.044.011.044.013.043.015.042.016.041.019.041.02.04.023.038.024.038.026.036.027.035.029.034.031.032.032.031.034.029.035.027.036.026.038.024.038.023.04.02.041.019.041.016.042.015.043.013.044.011.044.008.045.007.045.005.045.002.046.001.045-.002.046-.003.045-.006.045-.008.045-.009.045-.012.044-.014.043-.016.043-.017.042-.02.041-.021.04-.024.039-.025.038-.026.037-.029.036-.029.034-.032.033-2.856 2.856 2.465.822.043.015.042.017.041.02.041.021.039.022.038.025.038.027.035.028.035.029.033.031.032.033.03.034.029.035.027.037.025.038.024.039.021.04.02.041.018.042.016.042.014.044.013.043.01.045.008.045.006.045.004.045.002.046v.045l-.003.046-.004.045-.006.045-.009.045-.01.044-.012.044-.015.043-.016.043-.018.041-.021.041-.021.04-.024.039-.026.037-.027.037-.029.035-.03.034-.032.033-.034.031-.034.029-.036.028-.038.026-.038.024-.04.023-.04.021-.041.019-.043.017-.043.015-.043.013-.044.011-.045.009-.045.007-.045.005-.046.003-.045.001-.046-.001-.045-.003-.045-.005-.045-.008-.045-.009-.044-.012-.043-.013-5.087-1.695-.114-.484 4.81-4.81.033-.032.034-.029.036-.029.037-.026.038-.025.039-.024.04-.021.041-.02.042-.017.043-.016.043-.014.044-.012.045-.009.045-.008.045-.006.045-.003.046-.002z"/><path d="m8.057 9.502.045.003.045.006.045.008.045.009.044.012.043.014.043.016.042.017.041.02.04.021.039.024.038.025.037.026.036.029.034.029.033.032 4.81 4.81-.114.484-5.087 1.695-.043.013-.044.012-.045.009-.045.008-.045.005-.045.003-.046.001-.045-.001-.046-.003-.045-.005-.045-.007-.045-.009-.044-.011-.043-.013-.043-.015-.043-.017-.041-.019-.04-.021-.04-.023-.038-.024-.038-.026-.036-.028-.034-.029-.034-.031-.032-.033-.03-.034-.029-.035-.027-.037-.026-.037-.024-.039-.021-.04-.021-.041-.018-.041-.016-.043-.015-.043-.012-.044-.01-.044-.009-.045-.006-.045-.004-.045-.003-.046v-.045l.002-.046.004-.045.006-.045.008-.045.01-.045.013-.043.014-.044.016-.042.018-.042.02-.041.021-.04.024-.039.025-.038.027-.037.029-.035.03-.034.032-.033.033-.031.035-.029.035-.028.038-.027.038-.025.039-.022.041-.021.041-.02.042-.017.043-.015 2.465-.822-2.856-2.856-.032-.033-.029-.034-.029-.036-.026-.037-.025-.038-.024-.039-.021-.04-.02-.041-.017-.042-.016-.043-.014-.043-.012-.044-.009-.045-.008-.045-.006-.045-.003-.045-.002-.046.001-.045.002-.046.005-.045.007-.045.008-.045.011-.044.013-.044.015-.043.016-.042.019-.041.02-.041.023-.04.024-.038.026-.038.027-.036.029-.035.031-.034.032-.032.034-.031.035-.029.036-.027.038-.026.038-.024.04-.023.041-.02.041-.019.042-.016.043-.015.044-.013.044-.011.045-.008.045-.007.045-.005.046-.002.045-.001z"/><path d="m20 23-1-1h-6l-1 2.5v2.5s0 0-.001 0c-.794-.004-1.557.308-2.12.867-.563.56-.879 1.321-.879 2.115v.018h14s0-.006 0-.018c0-.794-.316-1.555-.879-2.115-.563-.559-1.326-.871-2.12-.867-.001 0-.001 0-.001 0z" fill="#e8e14f"/><path d="m20 21c0-.552-.448-1-1-1-1.537 0-4.463 0-6 0-.265 0-.52.105-.707.293-.188.187-.293.442-.293.707v3.5c0 .828.672 1.5 1.5 1.5h.002c.397 0 .778-.158 1.059-.439s.439-.662.439-1.059c0-.751 0-1.502 0-1.502h1v3c0 .552.448 1 1 1 .552 0 1-.448 1-1 0-1.185 0-3 0-3h2s0-1.127 0-2z" fill="#b0aa35"/></g></svg>