<svg clip-rule="evenodd" fill-rule="evenodd" stroke-linejoin="round" stroke-miterlimit="1.41421" viewBox="0 0 32 32" xmlns="http://www.w3.org/2000/svg" xmlns:xlink="http://www.w3.org/1999/xlink"><clipPath id="a"><path clip-rule="evenodd" d="m0 0h32v32h-32z"/></clipPath><metadata/><path d="m0 0h32v32h-32z" fill="none"/><g clip-path="url(#a)"><path d="m1.999 7 .003-.174c.023-.746.156-1.483.408-2.186.153-.429.349-.843.583-1.234.827-1.383 2.129-2.453 3.647-2.996.703-.252 1.44-.385 2.186-.408 4.753-.088 9.507-.031 14.261-.001.775.014 1.542.147 2.273.409 1.518.543 2.82 1.613 3.647 2.996.234.391.43.805.583 1.234.252.703.385 1.44.408 2.186l.003.174c1.104 0 1.999.894 2 1.998.006 4.367.024 8.734-.002 13.101-.005.264-.019.528-.048.79-.069.616-.21 1.225-.419 1.809-.176.49-.399.963-.667 1.409-.674 1.128-1.629 2.084-2.758 2.758-.446.268-.919.491-1.409.667-.805.288-1.647.439-2.499.466-.664.012-1.327.022-1.99.03-.322.35-.726.625-1.177.79-.235.086-.48.142-.728.167-.129.013-.155.012-.279.015h-8.05c-.124-.003-.15-.002-.279-.015-.248-.025-.493-.081-.728-.167-.458-.168-.867-.448-1.191-.806-.626-.004-1.251-.009-1.876-.013-.887-.016-1.763-.168-2.598-.467-.491-.176-.964-.399-1.411-.667-1.128-.674-2.083-1.629-2.757-2.757-.301-.503-.546-1.039-.73-1.595-.268-.809-.4-1.653-.405-2.504 0 0 0-8.926 0-13.011 0-1.103.895-1.998 1.998-1.998h.001zm3.923 12.286c.014.938.04 1.876.081 2.813.01.197.048.39.114.575.207.576.674 1.032 1.255 1.225.195.064.398.097.603.101.592.003 1.184.009 1.777.016.328-.371.746-.662 1.216-.834.235-.086.48-.142.728-.167.129-.013.155-.012.279-.015 2.726 0 5.453-.066 8.178.003.134.01.168.01.301.031.246.037.486.105.714.202.434.183.817.469 1.119.825.604-.017 1.208-.037 1.812-.064.197-.01.39-.048.575-.114.576-.207 1.032-.674 1.225-1.255.064-.195.097-.398.101-.603v-.034-2.667c-.208.099-.422.188-.64.266-.703.252-1.44.385-2.186.408-4.782.089-9.566.089-14.348 0-.746-.023-1.483-.156-2.186-.408-.246-.088-.485-.189-.718-.304z"/><path d="m28 7c0-2.761-2.239-5-5-5-2.072 0-4 0-4 0l-1 1h-4l-1-1s-1.928 0-4 0c-2.761 0-5 2.239-5 5v6c0 1.326.527 2.598 1.464 3.536.938.937 2.21 1.464 3.536 1.464h14c1.326 0 2.598-.527 3.536-1.464.937-.938 1.464-2.21 1.464-3.536 0-1.911 0-4.089 0-6z" fill="#999"/><path d="m13 2h6v2h-6z" fill="#ef9b00"/><path d="m26 8c0-1.061-.421-2.078-1.172-2.828-.75-.751-1.767-1.172-2.828-1.172-3.486 0-8.514 0-12 0-1.061 0-2.078.421-2.828 1.172-.751.75-1.172 1.767-1.172 2.828v4c0 1.061.421 2.078 1.172 2.828.75.751 1.767 1.172 2.828 1.172h1.838c.277 0 .542-.115.731-.318.426-.457 1.24-1.33 1.968-2.112.378-.406.908-.636 1.463-.636s1.085.23 1.463.636c.728.782 1.542 1.655 1.968 2.112.189.203.454.318.731.318h1.838c1.061 0 2.078-.421 2.828-1.172.751-.75 1.172-1.767 1.172-2.828 0-1.287 0-2.713 0-4z" fill="#4d4d4d"/><circle cx="10.5" cy="9.5" r="3.5"/><circle cx="21.5" cy="9.5" r="3.5"/><path d="m30 22.075c-.013.664-.127 1.321-.351 1.948-.148.414-.343.808-.575 1.18-.704 1.128-1.802 1.998-3.051 2.446-.603.216-1.234.329-1.874.349-5.432.102-10.866.102-16.298 0-.64-.02-1.271-.133-1.874-.349-1.301-.466-2.417-1.383-3.126-2.568-.225-.377-.409-.779-.547-1.196-.202-.608-.3-1.242-.304-1.882v-13.003h2c0 4.383-.134 8.768.003 13.149.018.409.093.813.231 1.2.311.867.922 1.61 1.712 2.083.252.151.52.273.798.366.39.129.796.194 1.206.202 5.4.033 10.802.164 16.199-.003.41-.018.813-.093 1.2-.231.83-.298 1.563-.876 2.031-1.626.155-.25.286-.514.386-.791.149-.418.225-.856.234-1.299v-.053-12.997h2s.025 8.716 0 13.075z" fill="#333" fill-rule="nonzero"/><path d="m21 28c0 .552-.448 1-1 1-1.916 0-6.084 0-8 0-.552 0-1-.448-1-1 0-.611 0-1.389 0-2 0-.552.448-1 1-1h8c.552 0 1 .448 1 1z" fill="#4d4d4d"/></g></svg>