<svg clip-rule="evenodd" fill-rule="evenodd" stroke-linejoin="round" stroke-miterlimit="1.41421" viewBox="0 0 32 32" xmlns="http://www.w3.org/2000/svg" xmlns:xlink="http://www.w3.org/1999/xlink"><clipPath id="a"><path clip-rule="evenodd" d="m0 0h32v32h-32z"/></clipPath><metadata/><path d="m0 0h32v32h-32z" fill="none"/><g clip-path="url(#a)"><path d="m32 8c0-4.418-3.582-8-8-8-4.887 0-11.113 0-16 0-4.418 0-8 3.582-8 8v16c0 4.418 3.582 8 8 8h16c4.418 0 8-3.582 8-8 0-4.887 0-11.113 0-16z"/><path d="m30 8c0-1.591-.632-3.117-1.757-4.243-1.126-1.125-2.652-1.757-4.243-1.757-4.724 0-11.276 0-16 0-1.591 0-3.117.632-4.243 1.757-1.125 1.126-1.757 2.652-1.757 4.243v16c0 1.591.632 3.117 1.757 4.243 1.126 1.125 2.652 1.757 4.243 1.757h16c1.591 0 3.117-.632 4.243-1.757 1.125-1.126 1.757-2.652 1.757-4.243 0-4.724 0-11.276 0-16z" fill="#ef9b00"/><g fill="#fff" fill-rule="nonzero"><path d="m5 8.901h2.835l2.815 9.872 2.815-9.872h2.835l-4.574 14.281h-2.173z"/><path d="m21.909 23.306c-1.532 0-2.725-.383-3.581-1.149-.855-.766-1.331-1.873-1.428-3.322h2.567c.096.787.348 1.342.755 1.666.407.325 1.011.487 1.811.487 1.531 0 2.297-.628 2.297-1.884 0-.565-.152-.996-.455-1.293-.304-.297-.787-.5-1.449-.611l-1.345-.227c-2.58-.428-3.87-1.753-3.87-3.974 0-1.324.438-2.373 1.314-3.146.876-.772 2.038-1.159 3.487-1.159 1.408 0 2.522.373 3.343 1.118s1.286 1.794 1.397 3.146h-2.608c-.041-.69-.242-1.194-.6-1.511-.359-.317-.883-.476-1.573-.476-.704 0-1.235.162-1.594.486-.358.324-.538.769-.538 1.335 0 .497.159.89.476 1.18s.814.496 1.49.621l1.511.269c2.456.441 3.684 1.78 3.684 4.015 0 1.435-.459 2.532-1.376 3.29-.918.759-2.156 1.139-3.715 1.139z"/></g></g></svg>