<svg clip-rule="evenodd" fill-rule="evenodd" stroke-linecap="square" stroke-miterlimit="1.414" viewBox="0 0 32 32" xmlns="http://www.w3.org/2000/svg" xmlns:xlink="http://www.w3.org/1999/xlink"><clipPath id="a"><path clip-rule="evenodd" d="m0 0h32v32h-32z"/></clipPath><clipPath id="b"><path clip-rule="nonzero" d="m9.397 22.448-2.846.949-4.948-14.846s1.703.677 2.781 1.105c.548.218.972.667 1.158 1.226.947 2.841 3.855 11.566 3.855 11.566z"/></clipPath><clipPath id="c"><path clip-rule="nonzero" d="m11.819 19.092-2.911.727-3.908-15.633s1.825 1.056 2.882 1.667c.469.271.807.721.939 1.246.707 2.829 2.998 11.993 2.998 11.993z"/></clipPath><clipPath id="d"><path clip-rule="nonzero" d="m22.818 4-3.728 15.819-2.91-.727s2.156-9.274 2.827-12.157c.125-.538.468-1.001.946-1.278 1.059-.612 2.865-1.657 2.865-1.657z"/></clipPath><clipPath id="e"><path clip-rule="nonzero" d="m19.42 2-3.83 15.319-2.91-.727s2.224-8.896 2.92-11.679c.131-.525.47-.975.939-1.246 1.056-.611 2.881-1.667 2.881-1.667z"/></clipPath><clipPath id="f"><path clip-rule="evenodd" d="m30 17.5s-6.793 6.793-10.364 10.364c-1.368 1.368-3.223 2.136-5.157 2.136-.148 0-.3 0-.454 0-4.984 0-9.025-4.041-9.025-9.025 0-2.22 0-3.975 0-3.975l2-1h3v-1h4v-1h6v5.445c0 .411.252.781.636.931.383.15.819.05 1.098-.253.58-.627 1.222-1.321 1.787-1.933.97-1.049 2.417-1.516 3.817-1.231 1.293.263 2.662.541 2.662.541z"/></clipPath><metadata/><path d="m0 0h32v32h-32z" fill="none"/><g clip-path="url(#a)"><path d="m3 19.067-3-9v-3.067l.517-1.033 3.183 1.265-1.129-4.517 2.081-1.041 4.231 2.448c.938.542 1.615 1.441 1.878 2.492l1.176 4.704 1.722-6.89c.263-1.051.941-1.95 1.878-2.492l3.347-1.936h.116l2.753.918-.406 1.623 1.731-1.002 2.124 1.062-3.202 13.591v.697l.053-.057c1.444-1.562 3.599-2.257 5.684-1.833 1.293.263 2.662.541 2.662.541l1.015 3.374s-6.793 6.794-10.364 10.364c-1.743 1.743-4.106 2.722-6.571 2.722h-.454c-2.924 0-5.728-1.162-7.796-3.229-2.067-2.068-3.229-4.872-3.229-7.796z"/><path d="m9.397 22.448-2.846.949-4.948-14.846s1.703.677 2.781 1.105c.548.218.972.667 1.158 1.226.947 2.841 3.855 11.566 3.855 11.566z" fill="#f2b38f" fill-rule="nonzero"/><g clip-path="url(#b)" fill="none" stroke="#e08854"><path d="m2 12 4-1"/><path d="m3 15 4-1"/></g><path d="m11.819 19.092-2.911.727-3.908-15.633s1.825 1.056 2.882 1.667c.469.271.807.721.939 1.246.707 2.829 2.998 11.993 2.998 11.993z" fill="#f2b38f" fill-rule="nonzero"/><g clip-path="url(#c)" fill="none" stroke="#e08854"><path d="m6 8 4-1"/><path d="m7 12 4-1"/></g><path d="m22.818 4-3.728 15.819-2.91-.727s2.156-9.274 2.827-12.157c.125-.538.468-1.001.946-1.278 1.059-.612 2.865-1.657 2.865-1.657z" fill="#f2b38f" fill-rule="nonzero"/><g clip-path="url(#d)" fill="none" stroke="#e08854"><path d="m22 9-4-1"/><path d="m21 13-4-1"/></g><path d="m19.42 2-3.83 15.319-2.91-.727s2.224-8.896 2.92-11.679c.131-.525.47-.975.939-1.246 1.056-.611 2.881-1.667 2.881-1.667z" fill="#f2b38f" fill-rule="nonzero"/><g clip-path="url(#e)" fill="none" stroke="#e08854"><path d="m18 7-4-1"/><path d="m17 11-4-1"/></g><path d="m30 17.5s-6.793 6.793-10.364 10.364c-1.368 1.368-3.223 2.136-5.157 2.136-.148 0-.3 0-.454 0-4.984 0-9.025-4.041-9.025-9.025 0-2.22 0-3.975 0-3.975l2-1h3v-1h4v-1h6v5.445c0 .411.252.781.636.931.383.15.819.05 1.098-.253.58-.627 1.222-1.321 1.787-1.933.97-1.049 2.417-1.516 3.817-1.231 1.293.263 2.662.541 2.662.541z" fill="#f2b38f"/><g clip-path="url(#f)"><path d="m24 16-5.5 5.5s0 0-.001-.001c-.663-.663-1.562-1.035-2.499-1.035s-1.836.372-2.499 1.035c-1.036 1.036-2.001 2.001-2.001 2.001" fill="none" stroke="#e08854" stroke-linecap="round" stroke-miterlimit="2" stroke-width="2"/></g></g></svg>