<svg clip-rule="evenodd" fill-rule="evenodd" stroke-linejoin="round" stroke-miterlimit="2" viewBox="0 0 32 32" xmlns="http://www.w3.org/2000/svg" xmlns:xlink="http://www.w3.org/1999/xlink"><clipPath id="a"><path clip-rule="evenodd" d="m0 0h32v32h-32z"/></clipPath><clipPath id="b"><path clip-rule="evenodd" d="m13.074 15c.885-3.979 1.981-7.909 2.97-11.863.038-.137.086-.266.157-.389.184-.317.484-.559.832-.673.135-.044.272-.065.413-.074.084 0 .084 0 .168.004.169.018.331.053.488.122.441.193.768.598.866 1.07.04.195.036.389.004.585-.755 3.428-1.671 6.818-2.545 10.218h.975c.693-2.793 1.444-5.572 2.142-8.364.038-.136.086-.265.157-.388.184-.317.484-.56.832-.673.135-.045.272-.065.413-.074.084 0 .084 0 .168.004.197.02.386.067.564.157.429.218.734.641.805 1.117.025.169.017.335-.011.503-.734 3.333-1.62 6.63-2.472 9.936v3.224c0 .412.252.782.636.932.383.15.82.049 1.099-.253.435-.472.913-.99 1.388-1.504.752-.815 1.804-1.288 2.913-1.31s2.179.408 2.964 1.193-6.038 6.038-9.364 9.364c-1.368 1.368-3.223 2.136-5.157 2.136-.148 0-.3 0-.454 0-2.394 0-4.689-.951-6.382-2.643-1.692-1.693-2.643-3.988-2.643-6.382v-2.078c-1.003-2.964-1.933-5.954-2.923-8.923-.057-.19-.087-.382-.073-.581.038-.539.375-1.027.865-1.255.181-.083.371-.124.569-.137.085-.001.084-.001.168.002.141.014.277.039.41.088.291.107.545.304.72.559.064.093.114.192.158.296.851 2.332 1.626 4.692 2.391 7.054h.624c-.83-3.201-1.562-6.428-2.365-9.636-.036-.166-.054-.331-.038-.501.047-.509.359-.969.815-1.201.178-.09.366-.137.564-.157.084-.005.084-.005.168-.004.141.009.278.029.413.073.321.105.601.32.787.602.078.119.134.246.179.379.876 3.126 1.615 6.289 2.377 9.445z"/></clipPath><metadata/><path d="m0 0h32v32h-32z" fill="none"/><g clip-path="url(#a)"><path d="m11.934 11.136c.141-.57.284-1.139.428-1.708.451-1.761.911-3.518 1.363-5.278.131-.513.26-1.025.389-1.538.031-.103.03-.103.063-.206.097-.281.218-.549.38-.8.456-.708 1.17-1.242 1.982-1.472.19-.053.385-.09.582-.112.059-.006.203-.019.251-.021.067-.002.133 0 .2 0 .068.003.136.006.203.009.143.017.285.034.426.063.277.056.547.144.802.266.315.15.607.348.864.584.464.427.807.977.987 1.579l.018-.001c.067-.002.133 0 .2 0 .068.003.136.006.203.008.143.017.285.035.426.063.277.057.547.145.802.267.346.165.664.387.939.655.519.507.875 1.173 1.003 1.887.05.28.064.566.045.849-.009.139-.028.275-.048.412-.091.41-.183.819-.277 1.228-.326 1.405-.673 2.804-1.027 4.203-.376 1.468-.759 2.936-1.138 4.404v.437l.094-.085c.232-.2.472-.387.73-.553.64-.413 1.357-.703 2.103-.853.404-.08.812-.114 1.224-.117.154.003.154.003.308.009.408.028.811.087 1.207.191.736.194 1.434.528 2.048.978.24.177.464.371.677.579l1.464 1.41c-.98.98-1.96 1.961-2.941 2.941-2.648 2.649-5.281 5.313-7.946 7.945-.083.08-.167.159-.252.237-.369.331-.76.635-1.176.905-.92.598-1.946 1.03-3.017 1.271-.634.143-1.279.215-1.928.227-.236.002-.472.002-.707 0-.364-.007-.726-.027-1.088-.067-.849-.095-1.688-.289-2.493-.578-1.399-.501-2.693-1.287-3.782-2.298-1.324-1.229-2.336-2.782-2.924-4.49-.264-.766-.443-1.561-.533-2.366-.04-.362-.06-.724-.067-1.088l-.001-.131v-1.76c-.203-.603-.404-1.208-.604-1.813-.577-1.766-1.145-3.534-1.721-5.301-.169-.515-.339-1.03-.51-1.545l-.043-.15c-.037-.153-.07-.305-.091-.461-.042-.311-.041-.627.003-.938.124-.882.594-1.7 1.291-2.255.24-.191.505-.35.786-.472.288-.123.593-.209.903-.251.097-.013.238-.03.331-.034.052-.002.103-.001.155-.001-.001-.22.02-.439.061-.655.09-.468.277-.916.544-1.311.366-.538.88-.971 1.476-1.234.258-.114.532-.197.81-.245.097-.016.236-.038.33-.045.068-.006.137-.006.206-.009h.2c.12.009.24.018.359.034.204.029.406.074.602.138.749.246 1.402.745 1.836 1.403.113.172.21.356.291.545.046.109.086.22.125.332.112.402.223.804.332 1.207.374 1.393.726 2.792 1.072 4.192.063.261.127.522.19.784z"/><path d="m13.074 15c.885-3.979 1.981-7.909 2.97-11.863.038-.137.086-.266.157-.389.184-.317.484-.559.832-.673.135-.044.272-.065.413-.074.084 0 .084 0 .168.004.169.018.331.053.488.122.441.193.768.598.866 1.07.04.195.036.389.004.585-.755 3.428-1.671 6.818-2.545 10.218h.975c.693-2.793 1.444-5.572 2.142-8.364.038-.136.086-.265.157-.388.184-.317.484-.56.832-.673.135-.045.272-.065.413-.074.084 0 .084 0 .168.004.197.02.386.067.564.157.429.218.734.641.805 1.117.025.169.017.335-.011.503-.734 3.333-1.62 6.63-2.472 9.936v3.224c0 .412.252.782.636.932.383.15.82.049 1.099-.253.435-.472.913-.99 1.388-1.504.752-.815 1.804-1.288 2.913-1.31s2.179.408 2.964 1.193-6.038 6.038-9.364 9.364c-1.368 1.368-3.223 2.136-5.157 2.136-.148 0-.3 0-.454 0-2.394 0-4.689-.951-6.382-2.643-1.692-1.693-2.643-3.988-2.643-6.382v-2.078c-1.003-2.964-1.933-5.954-2.923-8.923-.057-.19-.087-.382-.073-.581.038-.539.375-1.027.865-1.255.181-.083.371-.124.569-.137.085-.001.084-.001.168.002.141.014.277.039.41.088.291.107.545.304.72.559.064.093.114.192.158.296.851 2.332 1.626 4.692 2.391 7.054h.624c-.83-3.201-1.562-6.428-2.365-9.636-.036-.166-.054-.331-.038-.501.047-.509.359-.969.815-1.201.178-.09.366-.137.564-.157.084-.005.084-.005.168-.004.141.009.278.029.413.073.321.105.601.32.787.602.078.119.134.246.179.379.876 3.126 1.615 6.289 2.377 9.445z" fill="#ed399f"/><g clip-path="url(#b)"><path d="m16.225 19.469c.297.019.591.059.88.132.322.08.635.197.932.346.132.066.259.14.384.217l4.872-4.871c.121-.113.255-.201.415-.249.133-.041.275-.054.414-.037.115.015.228.049.332.102.382.194.601.624.534 1.047-.026.162-.091.316-.189.446-.038.049-.05.06-.092.105l-6.207 6.207c-.251-.251-.499-.504-.753-.752-.046-.043-.093-.084-.141-.124-.211-.169-.442-.307-.694-.404-.642-.248-1.372-.221-1.995.073-.245.116-.465.271-.664.455-.69.673-1.364 1.363-2.046 2.045-.121.113-.255.201-.415.249-.111.034-.228.049-.344.043-.117-.006-.232-.033-.339-.078-.371-.158-.616-.535-.609-.938.003-.164.046-.325.125-.468.035-.062.076-.116.12-.171.661-.708 1.368-1.372 2.053-2.057.186-.181.382-.349.595-.499.483-.34 1.033-.583 1.61-.713.328-.074.661-.107.997-.111.113.001.112.001.225.005z" fill="#b72477" fill-rule="nonzero"/></g></g></svg>