<svg clip-rule="evenodd" fill-rule="evenodd" stroke-linecap="round" stroke-miterlimit="1.5" viewBox="0 0 32 32" xmlns="http://www.w3.org/2000/svg"><metadata/><path d="m0 0h32v32h-32z" fill="none"/><path d="m8.596 2.001.162.006.162.013.162.018.16.024.16.029.159.036.157.041.156.047.153.052.152.058.15.063.147.069.145.074.142.079.139.084.135.09.133.094.129.098.125.104.122.108.118.112.113.116.109.12.105.124.1.128.096.132.091.135.085.138.081.14.076.144.07.147.065.149.06.151.054.153 5 15 .049.155.043.157.037.158.031.159.026.161.02.161.014.162.009.162.002.163-.003.162-.01.162-.015.162-.021.161-.027.16-.032.16-.039.158-.044.156-.049.155-.055.153-.061.15-.066.149-.071.146-.077.143-.082.14-.086.138-.092.134-.096.131-.101.127-.106.124-.11.119-.114.116-.119.111-.122.107-.126.103-.13.098-.133.093-.136.088-.14.083-.142.079-.145.073-.148.067-.15.063-.152.057-.154.051-.156.046-.158.04-.158.034-.16.029-.161.023-.162.017-.162.011-.162.005h-.163l-.162-.006-.162-.013-.162-.018-.16-.024-.16-.029-.159-.036-.157-.041-.156-.047-.153-.052-.152-.058-.15-.063-.147-.069-.145-.074-.142-.079-.139-.084-.135-.09-.133-.094-.129-.098-.125-.104-.122-.108-.118-.112-.113-.116-.109-.12-.105-.124-.1-.128-.096-.132-.091-.135-.085-.138-.081-.141-.076-.143-.07-.147-.065-.149-.06-.151-.054-.153-5-15-.049-.155-.043-.157-.037-.158-.031-.159-.026-.161-.02-.161-.014-.162-.009-.162-.002-.163.003-.162.01-.162.015-.162.021-.161.027-.16.032-.16.039-.158.044-.156.049-.155.055-.153.061-.15.066-.149.071-.146.077-.143.082-.14.086-.138.092-.134.096-.131.102-.127.105-.124.11-.119.114-.116.119-.111.122-.107.126-.103.13-.098.133-.093.136-.088.14-.083.142-.079.145-.073.148-.067.15-.063.152-.057.154-.051.156-.046.158-.04.158-.034.16-.029.161-.023.162-.017.162-.011.162-.006.163.001z"/><path d="m25.703 3.509.157.009.156.016.156.02.155.027.154.031.152.037.152.042.149.048.148.052.146.058.144.063.142.068.139.073.137.077.134.082.13.087.128.092.125.096.121.1.117.104.114.108.11.112.106.116.102.12.097.123.094.126.088.13.084.133.08.135.075.138.07.141.065.143.059.145.055.147.05.149.044.151.039.152.034.154.028.154.023.155.018.156.012.157.007.157.001.157-.005.157-.009.157-.016.156-.02.156-.027.155-.031.154-.037.152-.042.152-.048.149-.052.148-.058.146-.063.144-.068.142-7.005 13.996-.073.139-.077.137-.082.134-.087.13-.092.128-.095.125-.101.121-.104.117-.108.114-.112.11-.116.106-.12.102-.123.097-.126.094-.13.088-.133.084-.135.08-.138.075-.141.07-.143.065-.145.059-.147.055-.149.05-.151.044-.152.039-.154.034-.154.028-.155.023-.156.018-.157.012-.157.007-.157.001-.157-.005-.157-.009-.156-.016-.156-.02-.155-.027-.154-.031-.152-.037-.152-.042-.149-.048-.148-.052-.146-.058-.144-.063-.142-.068-.139-.073-.137-.077-.134-.082-.13-.087-.128-.092-.125-.096-.121-.1-.117-.104-.114-.108-.11-.112-.106-.116-.102-.12-.097-.123-.093-.126-.089-.13-.084-.133-.08-.135-.075-.138-.07-.141-.064-.143-.06-.145-.055-.147-.05-.149-.044-.151-.039-.152-.034-.154-.028-.154-.023-.155-.018-.157-.012-.156-.007-.157-.001-.157.005-.157.009-.157.016-.156.021-.156.026-.155.031-.154.037-.152.042-.152.048-.149.052-.148.058-.146.063-.144.068-.142 7.005-13.996.073-.139.077-.137.082-.134.087-.131.092-.127.096-.125.1-.121.104-.117.108-.114.112-.11.116-.106.12-.102.123-.097.126-.094.13-.088.133-.085.135-.079.138-.075.141-.07.143-.065.145-.059.147-.055.149-.05.151-.044.152-.039.154-.034.154-.028.155-.023.157-.018.156-.012.157-.007.157-.001.157.005z"/><path d="m20.729.506.162.011.162.017.161.023.16.029.158.034.158.04.156.046.154.051.152.057.15.063.148.067.145.073.142.079.14.083.136.088.133.093.13.098.126.103.122.107.119.111.114.116.11.119.106.124.101.127.096.131.092.134.086.138.082.14.077.143.071.146.066.149.061.15.055.153.049.155.044.156.039.158.032.16.027.16.021.161.015.162.01.162.003.162-.002.163-.009.162-.014.162-.02.161-.026.161-.031.159-.037.158-.043.157-.049.155-5 15-.054.153-.06.151-.065.149-.07.147-.076.143-.081.141-.085.138-.091.135-.096.132-.1.128-.105.124-.109.12-.113.116-.118.112-.122.108-.125.104-.129.098-.133.094-.135.09-.139.084-.142.079-.145.074-.147.069-.15.063-.152.058-.153.052-.156.047-.157.041-.159.036-.16.029-.16.024-.162.018-.162.013-.162.006h-.163l-.162-.005-.162-.011-.162-.017-.161-.023-.16-.029-.158-.034-.158-.04-.156-.046-.154-.051-.152-.057-.15-.063-.148-.067-.145-.073-.142-.079-.14-.083-.136-.088-.133-.093-.13-.098-.126-.103-.122-.107-.119-.111-.114-.116-.11-.119-.106-.124-.101-.127-.096-.131-.092-.134-.086-.138-.082-.14-.077-.143-.071-.146-.066-.149-.061-.15-.055-.153-.049-.155-.044-.156-.039-.158-.032-.16-.027-.16-.021-.161-.015-.162-.01-.162-.003-.162.002-.163.009-.162.014-.162.02-.161.026-.161.031-.159.037-.158.043-.157.049-.155 5-15 .054-.153.06-.151.065-.149.07-.147.076-.144.081-.14.085-.138.091-.135.096-.132.1-.128.105-.124.109-.12.113-.116.118-.112.122-.108.125-.104.129-.098.133-.094.135-.09.139-.084.142-.079.145-.074.147-.069.15-.063.152-.058.153-.052.156-.047.157-.041.159-.036.16-.029.16-.024.162-.018.162-.013.162-.006.163-.001.162.006z"/><path d="m26.976 15.667.145.008.145.013.144.017.144.021.143.025.143.029.141.034.141.037.139.042.138.045.137.05.135.053.134.058.132.061.13.065.128.069.126.073.124.076.121.08.119.083.117.087.114.09.112.094.109.096.105.1.103.103.1.105.097.109.094.111.09.114.087.117.083.119.081.121.076.124.073.126.069.128.065.13.062.132.058.133.053.135.05.137.046.138.042.139.038.141.033.141.03.142.025.144.022.144.017.144.012.145.009.145.004.145v.146l-.004.145-.008.145-.013.145-.016.145-.021.144-.025.143-.03.142-.033.142-.038.141-.041.139-.046.138-.049.137-.054.135-.058.134-.061.131-.065.13-.069.128-.073.127-.076.123-.08.122-.083.119-.087.117-.09.114-.093.112-.097.108-.099.106-.103.103-.106.1-.109.097-.111.093-5.868 4.789-.09.073-.101.08-.102.078-.102.077-.103.076-.104.075-.104.074-.106.073-.106.071-.106.07-.107.069-.108.068-.109.067-.109.065-.111.065-.11.063-.111.061-.111.061-.113.059-.114.058-.113.057-.114.056-.115.054-.115.054-.116.052-.116.05-.117.05-.117.048-.118.047-.118.046-.118.044-.12.043-.119.042-.121.041-.12.039-.121.038-.122.037-.121.035-.122.035-.123.033-.122.031-.124.031-.123.029-.124.027-.125.027-.125.025-.124.023-.125.023-.126.021-.126.02-.126.018-.126.017-.127.016-.126.014-.128.013-.127.012-.127.01-.128.009-.128.008-.128.006-.127.005-.129.003-.129.002-.115.001h-.547l-.145-.002-.146-.006-.145-.011-.144-.015-.145-.019-.143-.023-.143-.027-.142-.032-.141-.035-.14-.04-.139-.044-.137-.048-.136-.051-.134-.056-.133-.059-.131-.064-.129-.067-.127-.071-.125-.074-.123-.079-.12-.081-.118-.085-.115-.089-.113-.092-.11-.095-.107-.098-.105-.101-.101-.105-.098-.107-.095-.11-.092-.113-.089-.115-.085-.118-.081-.12-.079-.123-.074-.125-.071-.127-.067-.129-.064-.131-.059-.133-.056-.134-.051-.136-.048-.137-.044-.139-.04-.14-.035-.141-.032-.142-.027-.143-.023-.143-.019-.145-.015-.144-.011-.145-.006-.146-.002-.145.002-.145.006-.146.011-.145.015-.144.019-.145.023-.143.027-.143.032-.142.035-.141.04-.14.044-.139.048-.137.051-.136.056-.134.059-.133.064-.131.067-.129.071-.127.074-.125.079-.123.081-.12.085-.118.089-.115.092-.113.095-.11.098-.107.101-.105.105-.101.107-.098.11-.095.113-.092.115-.089.118-.085.12-.081.123-.079.125-.074.127-.071.129-.067.131-.064.133-.059.134-.056.136-.051.137-.048.139-.044.14-.04.141-.035.142-.032.143-.027.143-.023.145-.019.144-.015.145-.011.146-.006.145-.002h.52.035l.02-.001h.02l.022-.001.02-.001.021-.001.02-.001.021-.002.02-.002.02-.002.021-.002.02-.003.02-.003.02-.003.02-.003.02-.003.021-.004.02-.004.02-.004.019-.004.02-.004.02-.005.02-.005.02-.005.019-.005.02-.005.02-.006.019-.006.019-.006.02-.007.019-.006.019-.007.019-.007.019-.007.02-.007.018-.008.019-.008.019-.008.019-.008.018-.008.019-.009.018-.008.019-.009.018-.009.017-.01.018-.009.019-.01.018-.01.017-.01.018-.01.017-.011.018-.01.017-.011.017-.011.017-.012.017-.011.017-.012.017-.011.017-.012.016-.013.017-.012.016-.013.016-.012.026-.022 5.849-4.772.114-.091.116-.087.119-.083.122-.08.123-.077.126-.072.128-.07.13-.065.132-.061.133-.058.136-.054.136-.05.138-.046.139-.042.141-.037.141-.034.143-.03.143-.025.144-.021.144-.017.145-.013.145-.009.146-.004h.145l.146.004z"/><path d="m4.67 6.503.17.01.169.016.169.022.168.029.167.035.165.042.164.048.161.053.16.06.157.066.154.072.152.078.148.083.146.089.141.094.139.1.134.104.13.11.126.115.122.119.117.124.112.128.107.132.102.136.097.14.092.144.086.147.08.15.075.153.069.156.063.158.057.161 3.755 11.261.013.041.011.03.011.03.011.03.011.029.012.029.012.03.012.029.012.028.013.029.013.028.008.018.032.066.028.055.029.055.03.053.031.053.032.052.033.052.034.051.035.05.036.049.036.048.038.048.038.047.039.046.041.045.041.045.042.044.043.043.043.042.045.041.045.041.045.039.047.039.048.037.048.037.048.036.05.035.05.034.051.033.051.032.053.031.052.03.053.029.054.028.054.027.055.026.055.025.056.024.056.022.057.022.057.021.058.019.058.018.058.018.059.016.059.015.06.014.06.012.06.012.061.01.061.009.073.01.019.002.031.003.032.003.031.003.031.002.031.002.032.002.031.001.032.002h.032l.032.001h.043 1.482l.17.003.17.01.17.016.169.023.168.028.166.036.165.041.164.048.161.054.16.06.157.065.154.072.152.078.149.083.145.089.142.094.138.1.134.105.13.109.126.115.122.119.117.124.112.128.107.133.103.136.097.14.091.143.086.147.081.151.074.153.069.155.063.159.057.16.051.163.044.164.039.166.032.167.026.169.019.169.013.17.006.17v.17l-.006.17-.013.17-.019.169-.026.169-.032.167-.039.166-.044.164-.051.163-.057.161-.063.158-.069.156-.074.153-.081.15-.086.147-.091.143-.097.14-.103.137-.107.132-.112.128-.117.124-.122.119-.126.115-.13.109-.134.105-.138.1-.142.094-.145.089-.149.083-.152.078-.154.072-.157.066-.16.059-.161.054-.164.048-.165.042-.166.035-.168.029-.169.022-.17.016-.17.01-.17.003h-1.504l-.111-.001-.122-.001-.121-.003-.122-.005-.121-.005-.121-.007-.121-.008-.121-.009-.12-.01-.12-.011-.12-.013-.131-.015-.227-.029-.237-.036-.236-.04-.234-.045-.234-.049-.231-.054-.231-.058-.228-.063-.227-.067-.225-.071-.224-.076-.222-.079-.219-.084-.218-.088-.216-.092-.214-.097-.211-.1-.21-.104-.207-.108-.206-.112-.202-.116-.201-.119-.198-.124-.195-.127-.193-.131-.191-.134-.188-.138-.185-.142-.182-.145-.18-.149-.177-.153-.174-.155-.171-.159-.168-.163-.165-.166-.162-.169-.159-.172-.156-.176-.152-.179-.149-.182-.146-.185-.142-.188-.139-.191-.135-.194-.132-.197-.128-.2-.124-.203-.121-.206-.117-.208-.112-.211-.109-.214-.1-.206-.056-.119-.05-.11-.048-.11-.048-.112-.047-.111-.045-.111-.045-.114-.044-.114-.042-.113-.041-.114-.041-.115-.035-.105-3.762-11.283-.051-.162-.044-.165-.039-.166-.032-.167-.026-.168-.019-.169-.013-.17-.006-.17v-.171l.006-.17.013-.17.019-.169.026-.168.032-.168.038-.166.045-.164.051-.163.057-.16.063-.158.068-.156.075-.153.081-.15.086-.147.091-.144.097-.14.102-.136.108-.132.112-.129.117-.123.121-.12.126-.114.131-.11.134-.105.138-.099.142-.095.145-.089.149-.083.151-.078.155-.071.157-.066.159-.06.162-.054.163-.048.165-.041.167-.036.168-.028.169-.023.169-.016.17-.01.171-.003.17.003z"/><g fill="#b1ed9b"><path d="m8.602 4.002.12.008.12.014.12.019.118.025.117.031.115.036.113.042.111.048.109.053.106.058.103.062.1.068.097.073.093.077.089.082.085.086.081.089.076.094.072.097.067.101.062.103.057.107.051.109.047.112.041.113 5 15 .035.116.03.117.024.118.018.12.013.12.007.121.001.12-.005.121-.011.12-.017.12-.022.119-.028.117-.034.116-.039.115-.045.112-.05.11-.055.107-.06.105-.066.101-.07.099-.075.095-.079.091-.084.087-.088.083-.092.078-.095.074-.099.07-.102.064-.105.06-.108.054-.111.049-.112.044-.115.038-.116.033-.118.027-.119.021-.12.015-.12.01-.121.004-.121-.002-.12-.008-.12-.014-.12-.019-.118-.025-.117-.031-.115-.036-.113-.042-.111-.048-.109-.053-.106-.058-.103-.062-.1-.068-.097-.073-.093-.077-.089-.082-.085-.086-.08-.089-.077-.094-.072-.097-.067-.101-.062-.103-.057-.107-.051-.109-.047-.112-.041-.113-5-15-.035-.116-.03-.117-.024-.118-.018-.12-.013-.12-.007-.121-.001-.12.005-.121.011-.121.017-.119.022-.119.028-.117.034-.116.039-.115.045-.112.05-.11.055-.107.06-.105.066-.102.07-.098.075-.095.079-.091.084-.087.088-.083.092-.078.095-.074.099-.07.102-.064.105-.06.108-.054.111-.049.112-.044.115-.038.116-.033.118-.027.119-.021.12-.015.12-.01.121-.004.121.002z"/><path d="m25.664 5.509.116.011.116.016.116.021.114.027.113.032.111.037.109.042.107.048.105.052.102.057.1.063.096.066.093.071.09.076.086.079.083.084.078.087.074.091.07.094.065.097.061.1.056.103.051.106.046.108.041.11.035.111.031.113.025.115.02.115.014.117.009.117.003.117-.002.117-.008.117-.013.116-.019.116-.024.115-.029.113-.035.112-.039.111-.045.108-.05.106-7.005 13.996-.055.103-.06.101-.064.098-.069.095-.073.092-.078.088-.081.084-.086.08-.089.076-.092.072-.096.068-.099.063-.102.058-.104.054-.107.048-.108.044-.111.038-.113.033-.113.028-.116.022-.116.017-.116.012-.117.006-.117.001-.118-.005-.116-.011-.116-.016-.116-.021-.114-.027-.113-.032-.111-.037-.109-.042-.107-.048-.105-.052-.102-.058-.1-.062-.096-.066-.093-.071-.09-.076-.086-.079-.082-.084-.079-.087-.074-.091-.07-.094-.065-.097-.061-.1-.056-.103-.051-.106-.046-.108-.041-.11-.035-.111-.031-.113-.025-.115-.02-.115-.014-.117-.009-.117-.003-.117.002-.117.008-.117.013-.116.019-.116.024-.115.029-.113.035-.112.039-.111.045-.108.05-.106 7.005-13.996.055-.104.06-.1.064-.098.069-.095.073-.092.078-.088.081-.084.086-.08.089-.076.092-.072.096-.068.099-.063.102-.058.104-.054.107-.048.108-.044.111-.038.113-.033.114-.028.115-.022.116-.017.116-.012.117-.006.117-.001.118.005z"/><path d="m20.64 2.504.12.01.12.015.119.021.118.027.116.033.115.038.112.044.111.049.108.054.105.06.102.064.099.07.095.074.092.078.088.083.084.087.079.091.075.095.07.098.066.102.06.105.055.107.051.11.044.112.039.115.034.116.028.117.022.119.017.12.011.12.005.121-.001.12-.007.121-.013.12-.018.12-.024.118-.03.117-.035.116-5 15-.041.113-.047.112-.051.109-.057.107-.062.103-.067.101-.072.097-.077.094-.08.089-.085.086-.089.082-.093.077-.097.073-.1.068-.103.062-.106.058-.109.053-.111.048-.113.042-.115.036-.117.031-.118.025-.12.019-.12.014-.12.008-.121.002-.121-.004-.12-.01-.12-.015-.119-.021-.118-.027-.116-.033-.115-.038-.112-.044-.111-.049-.108-.054-.105-.06-.102-.064-.099-.07-.095-.074-.092-.078-.088-.083-.084-.087-.079-.091-.075-.095-.07-.099-.066-.101-.06-.105-.055-.107-.051-.11-.044-.112-.039-.115-.034-.116-.028-.117-.022-.119-.017-.12-.011-.12-.005-.121.001-.12.007-.121.013-.12.018-.12.024-.118.03-.117.035-.116 5-15 .041-.113.047-.112.051-.109.057-.107.062-.103.067-.101.072-.097.077-.094.08-.089.085-.086.089-.082.093-.077.097-.073.1-.068.103-.062.106-.058.109-.053.111-.048.113-.042.115-.036.117-.031.118-.025.12-.019.12-.014.12-.008.121-.002.121.004z"/><path d="m26.866 17.664.113.006.113.011.113.014.112.019.111.023.11.028.109.031.108.036.107.039.105.044.103.048.101.051.099.055.097.059.095.063.092.066.09.069.087.073.084.076.082.08.078.082.075.085.072.088.068.091.065.093.061.095.058.098.054.1.05.102.046.104.043.105.038.107.034.108.03.11.026.11.022.112.017.112.014.113.009.113.004.113.001.114-.004.113-.009.114-.012.112-.017.113-.021.111-.025.111-.03.11-.033.108-.038.107-.041.106-.046.104-.049.102-.054.1-.057.099-.061.095-.064.094-.068.091-.071.088-.074.086-.078.083-.081.08-.084.076-.086.074-5.865 4.786-.077.062-.084.066-.084.065-.086.065-.085.063-.087.062-.087.062-.087.06-.088.06-.089.058-.089.057-.09.057-.091.055-.091.055-.091.053-.092.053-.093.051-.092.05-.094.05-.094.048-.095.048-.095.046-.095.045-.096.044-.096.044-.097.042-.097.041-.098.04-.098.039-.098.038-.099.037-.099.036-.1.035-.1.034-.1.033-.1.031-.101.031-.101.029-.102.029-.102.027-.102.027-.103.025-.103.024-.103.023-.104.022-.103.021-.104.02-.104.018-.105.018-.105.016-.104.016-.106.014-.105.013-.105.012-.106.011-.106.009-.106.009-.106.007-.107.007-.106.005-.106.004-.107.003-.107.001-.099.001h-.542l-.114-.002-.113-.007-.113-.01-.112-.015-.112-.02-.111-.023-.111-.028-.109-.031-.107-.036-.107-.04-.104-.044-.103-.048-.101-.052-.099-.055-.097-.06-.095-.063-.092-.066-.089-.07-.087-.073-.084-.076-.081-.08-.078-.082-.075-.086-.072-.088-.068-.091-.064-.093-.061-.096-.058-.098-.053-.1-.05-.102-.046-.104-.042-.105-.038-.107-.034-.109-.03-.109-.025-.111-.022-.111-.017-.113-.013-.113-.008-.113-.004-.113v-.114l.004-.113.008-.113.013-.113.017-.113.022-.111.025-.111.03-.109.034-.109.038-.107.042-.105.046-.104.05-.102.053-.1.058-.098.061-.096.064-.093.068-.091.072-.088.075-.086.078-.082.081-.08.084-.076.087-.073.089-.07.092-.066.095-.063.097-.06.099-.055.101-.052.103-.048.104-.044.107-.04.107-.036.109-.031.111-.028.111-.023.112-.02.112-.015.113-.01.113-.007.114-.002h.526.05l.042-.001.042-.001.043-.002.042-.002.042-.002.041-.003.042-.004.042-.003.042-.005.042-.004.041-.006.041-.005.042-.006.041-.007.041-.007.041-.007.042-.008.041-.008.04-.009.041-.009.041-.009.04-.01.04-.011.04-.01.04-.012.041-.011.039-.012.04-.013.04-.013.039-.013.039-.014.039-.014.04-.015.038-.015.039-.015.039-.016.038-.016.038-.017.038-.017.038-.017.038-.018.037-.019.038-.018.036-.019.037-.02.037-.02.037-.02.036-.021.036-.021.036-.021.035-.022.036-.022.035-.023.035-.023.035-.023.034-.024.035-.024.034-.025.034-.025.033-.026.034-.025.033-.026.039-.032 5.852-4.776.089-.07.092-.067.095-.063.096-.059.099-.056.101-.052.103-.048.105-.045.106-.04.107-.036.109-.032.11-.028.111-.024.112-.02.113-.015.113-.011.113-.007.113-.002z"/><path d="m4.572 8.501.126.008.126.013.125.02.124.027.122.032.121.039.119.045.116.051.113.056.11.063.107.067.104.073.099.079.096.083.091.088.087.092.081.097.077.101.072.104.066.108.061.111.055.114.049.117.043.119 3.764 11.27.018.055.018.049.017.048.018.049.019.048.019.048.019.047.02.048.02.047.021.046.021.047.019.04.047.097.046.091.048.089.049.087.051.087.053.086.054.084.055.084.057.082.059.08.06.08.062.078.063.077.064.075.066.075.067.072.069.072.07.07.071.069.073.068.073.065.075.065.077.063.077.062.079.06.079.058.081.057.082.056.083.054.084.052.085.051.086.049.087.047.087.046.089.044.09.043.091.04.091.039.092.037.093.036.093.033.095.032.095.03.096.029.097.026.096.025.098.022.099.021.099.019.099.017.101.015.107.014.044.005.051.005.05.005.051.005.052.003.051.004.051.003.052.002.052.002.051.001.052.001h.058 1.49l.127.003.126.01.126.016.124.022.124.029.121.035.12.041.118.047.115.053.112.058.109.064.106.07.102.075.098.08.094.085.09.09.085.094.08.098.075.102.07.106.064.109.059.112.052.115.047.118.041.12.035.121.029.124.022.124.016.126.01.126.003.127-.003.127-.01.126-.016.126-.022.124-.029.124-.035.121-.041.12-.047.118-.052.115-.059.112-.064.109-.07.106-.075.102-.08.098-.085.094-.09.09-.094.085-.098.08-.102.075-.106.07-.109.064-.112.059-.115.052-.118.047-.12.041-.121.035-.124.029-.124.022-.126.016-.126.01-.127.003h-1.502-.096l-.102-.002-.102-.003-.101-.003-.101-.005-.101-.005-.101-.007-.101-.007-.1-.009-.1-.009-.101-.011-.106-.012-.192-.025-.198-.03-.197-.033-.196-.038-.194-.041-.194-.045-.192-.048-.191-.053-.189-.055-.188-.06-.187-.063-.185-.066-.184-.07-.181-.074-.181-.077-.178-.08-.177-.083-.175-.087-.173-.091-.171-.093-.17-.097-.167-.1-.165-.103-.164-.106-.161-.109-.159-.112-.157-.116-.155-.118-.152-.121-.15-.125-.148-.127-.146-.13-.142-.133-.141-.135-.138-.139-.135-.141-.133-.144-.13-.146-.127-.15-.125-.152-.121-.154-.119-.157-.116-.16-.113-.162-.11-.164-.107-.167-.104-.169-.1-.171-.098-.175-.094-.176-.091-.178-.085-.175-.045-.096-.041-.092-.041-.092-.04-.093-.039-.093-.038-.093-.038-.095-.036-.094-.036-.095-.034-.096-.034-.096-.031-.091-3.767-11.281-.037-.121-.031-.123-.025-.124-.018-.126-.012-.126-.006-.126.001-.127.007-.126.014-.126.02-.125.027-.124.032-.123.039-.12.045-.119.051-.116.056-.113.062-.11.068-.107.073-.104.078-.099.084-.096.088-.091.092-.087.097-.082.1-.076.105-.072.108-.066.111-.061.114-.055.117-.049.119-.043.121-.037.123-.031.124-.025.125-.018.127-.012.126-.006.127.001z"/><path d="m22 15-3 4 2 3 5.068-2.28-9.159 8.98-9.909-3.7v-11.815h13z"/></g><path d="m8.11 5.1c1.023-.255 2.149.728 2.514 2.193.366 1.466-.168 2.862-1.19 3.117s-2.149-.728-2.514-2.193.168-2.862 1.19-3.117z" fill="#50aa48"/><path d="m3.874 9.825c.849-.212 1.771.548 2.057 1.696.287 1.148-.171 2.251-1.02 2.463-.85.212-1.772-.548-2.058-1.695-.286-1.148.171-2.252 1.021-2.464z" fill="#50aa48"/><path d="m20.817 3.851c1.039.371 1.431 1.938.874 3.497-.557 1.56-1.853 2.524-2.892 2.153-1.04-.371-1.432-1.938-.875-3.498.557-1.559 1.853-2.524 2.893-2.152z" fill="#50aa48"/><path d="m26.069 6.825c.907.467 1.065 1.969.354 3.354-.712 1.384-2.026 2.13-2.933 1.664-.907-.467-1.066-1.969-.354-3.354.711-1.384 2.026-2.13 2.933-1.664z" fill="#50aa48"/><path d="m28.406 18.861c.786 1.007.257 2.736-1.181 3.857s-3.243 1.213-4.029.206c-.786-1.008-.256-2.736 1.181-3.858 1.438-1.121 3.244-1.213 4.029-.205z" fill="#50aa48"/><path d="m20 14.997h2v9.003h-2z" fill="#b1ed9b"/><path d="m8 23.657c0-1.061.421-2.078 1.172-2.829l3-3c.75-.75 1.767-1.171 2.828-1.171s2.078.421 2.828 1.171l3 3c.751.751 1.172 1.768 1.172 2.829v.501c0 .923-.426 1.796-1.154 2.364-.728.569-1.677.77-2.574.546-.917-.229-1.782-.445-2.294-.574-.318-.079-.643-.119-.97-.119-.005 0-.011 0-.016 0-.327 0-.652.04-.97.119-.512.129-1.377.345-2.294.574-.897.224-1.846.023-2.574-.546-.728-.568-1.154-1.441-1.154-2.364 0-.172 0-.34 0-.501z" fill="#50aa48"/><path d="m5 5.5 3.5 10" fill="none" stroke="#000"/><path d="m23.808 5-4 9" fill="none" stroke="#000"/></svg>