<svg clip-rule="evenodd" fill-rule="evenodd" stroke-linejoin="round" stroke-miterlimit="5" viewBox="0 0 32 32" xmlns="http://www.w3.org/2000/svg" xmlns:xlink="http://www.w3.org/1999/xlink"><clipPath id="a"><path clip-rule="evenodd" d="m0 0h32v32h-32z"/></clipPath><metadata/><path d="m0 0h32v32h-32z" fill="none"/><g clip-path="url(#a)"><path d="m20 2v2l2 3 .5.5 1.5-1.5h2v2l-1.5 1.5.5.5 3 2h2v2l-5 5h-2v-2l-2-3-.5-.5-15.793 15.793c-.39.39-1.024.39-1.414 0-.19-.19-.396-.396-.586-.586-.39-.39-.39-1.024 0-1.414l15.793-15.793-.5-.5-3-2h-2v-2l5-5z" fill="#8e8e8e" stroke="#000" stroke-width="4"/><path d="m3 27v2h2l15-15v-2h-2z" fill="#6e4d31"/><path d="m17 13 2 2 7-7v-2h-2z" fill="#9faeb5"/><path d="m4.707 29.293c-.187.187-.442.293-.707.293s-.52-.106-.707-.293c-.19-.19-.396-.396-.586-.586-.187-.187-.293-.442-.293-.707s.106-.52.293-.707c.165-.165.293-.293.293-.293l2 2s-.128.128-.293.293z" fill="#9faeb5"/><path d="m20 4-4 1-1 4 3 2h3v3l2 3 4-2 1-3-3-2h-3v-3z" fill="#d8e3e5"/><g fill="#9faeb5"><path d="m13 7v2h2l5-5v-2h-2z"/><path d="m23 17v2h2l5-5v-2h-2z"/><path d="m22 7-4 4 3 3 4-4z"/></g></g></svg>