<svg clip-rule="evenodd" fill-rule="evenodd" stroke-linecap="round" stroke-linejoin="round" stroke-miterlimit="2" viewBox="0 0 32 32" xmlns="http://www.w3.org/2000/svg" xmlns:xlink="http://www.w3.org/1999/xlink"><clipPath id="a"><path clip-rule="evenodd" d="m0 0h32v32h-32z"/></clipPath><metadata/><path d="m0 0h32v32h-32z" fill="none"/><g clip-path="url(#a)"><path d="m27 8c0-1.061-.421-2.078-1.172-2.828-.75-.751-1.767-1.172-2.828-1.172-3.972 0-10.028 0-14 0-1.061 0-2.078.421-2.828 1.172-.751.75-1.172 1.767-1.172 2.828v16c0 1.061.421 2.078 1.172 2.828.75.751 1.767 1.172 2.828 1.172h14c1.061 0 2.078-.421 2.828-1.172.751-.75 1.172-1.767 1.172-2.828 0-4.439 0-11.561 0-16z"/><path d="m23 2c0-1.105-.895-2-2-2-2.661 0-7.339 0-10 0-1.105 0-2 .895-2 2v28c0 1.105.895 2 2 2h10c1.105 0 2-.895 2-2 0-5.746 0-22.254 0-28z"/><path d="m27 15c0-.552-.448-1-1-1-1.185 0-3 0-3 0v4h3c.552 0 1-.448 1-1 0-.611 0-1.389 0-2z" fill="none" stroke="#000" stroke-width="4"/><path d="m11 2h10v28h-10z" fill="#4c4c4c"/><path d="m27 15c0-.552-.448-1-1-1-1.185 0-3 0-3 0v4h3c.552 0 1-.448 1-1 0-.611 0-1.389 0-2z" fill="#5a5a5a"/><path d="m25 8c0-.53-.211-1.039-.586-1.414s-.884-.586-1.414-.586c-3.463 0-10.537 0-14 0-.53 0-1.039.211-1.414.586s-.586.884-.586 1.414v16c0 .53.211 1.039.586 1.414s.884.586 1.414.586h14c.53 0 1.039-.211 1.414-.586s.586-.884.586-1.414c0-3.832 0-12.168 0-16z" fill="#2f2f2f"/><path d="m9 8h14v16h-14z"/><path d="m16 10v6h4" fill="none" stroke="#fff" stroke-linecap="butt" stroke-miterlimit="1.5" stroke-width="2"/></g></svg>