<svg clip-rule="evenodd" fill-rule="evenodd" stroke-linecap="round" stroke-linejoin="round" stroke-miterlimit="3" viewBox="0 0 32 32" xmlns="http://www.w3.org/2000/svg" xmlns:xlink="http://www.w3.org/1999/xlink"><clipPath id="a"><path clip-rule="evenodd" d="m0 0h32v32h-32z"/></clipPath><metadata/><path d="m0 0h32v32h-32z" fill="none"/><g clip-path="url(#a)"><path d="m25.196 2c3.076 3.076 4.804 7.248 4.804 11.598 0 9.053-7.349 16.402-16.402 16.402-4.35 0-8.522-1.728-11.598-4.804l11.598-11.598 11.598-11.598z" fill="none" stroke="#000" stroke-width="4"/><path d="m23.539 3.657 1.657-1.657c3.076 3.076 4.804 7.248 4.804 11.598 0 9.053-7.349 16.402-16.402 16.402-4.35 0-8.522-1.728-11.598-4.804l1.657-1.657c3.416-.25 20.145-17.544 19.882-19.882z" fill="#219555"/><path d="m22.711 4.485.828-.828c2.637 2.636 4.118 6.212 4.118 9.941 0 7.759-6.3 14.059-14.059 14.059-3.729 0-7.305-1.481-9.941-4.118l.828-.828c3.235-.963 18.161-15.618 18.226-18.226z" fill="#c6d032"/><path d="m22.711 4.485c2.417 2.417 3.774 5.695 3.774 9.113 0 7.113-5.774 12.887-12.887 12.887-3.418 0-6.696-1.357-9.113-3.774l9.113-9.113z" fill="#d72d35"/><g fill="#6e141a"><path d="m23.5 11.498c0-.928-.369-1.817-1.025-2.473s-1.545-1.025-2.473-1.025h-.002v.002c0 .928.369 1.817 1.025 2.473s1.545 1.025 2.473 1.025h.002z"/><path d="m15.5 19.498c0-.928-.369-1.817-1.025-2.473s-1.545-1.025-2.473-1.025h-.002v.002c0 .928.369 1.817 1.025 2.473s1.545 1.025 2.473 1.025h.002z"/><path d="m19.5 19.498c0-.928-.369-1.817-1.025-2.473s-1.545-1.025-2.473-1.025h-.002v.002c0 .928.369 1.817 1.025 2.473s1.545 1.025 2.473 1.025h.002z"/><path d="m23.5 15.498c0-.928-.369-1.817-1.025-2.473s-1.545-1.025-2.473-1.025h-.002v.002c0 .928.369 1.817 1.025 2.473s1.545 1.025 2.473 1.025h.002z"/><path d="m15.5 23.498c0-.928-.369-1.817-1.025-2.473s-1.545-1.025-2.473-1.025h-.002v.002c0 .928.369 1.817 1.025 2.473s1.545 1.025 2.473 1.025h.002z"/><path d="m19.5 15.498c0-.928-.369-1.817-1.025-2.473s-1.545-1.025-2.473-1.025h-.002v.002c0 .928.369 1.817 1.025 2.473s1.545 1.025 2.473 1.025h.002z"/><path d="m19.5 23.498c0-.928-.369-1.817-1.025-2.473s-1.545-1.025-2.473-1.025h-.002v.002c0 .928.369 1.817 1.025 2.473s1.545 1.025 2.473 1.025h.002z"/><path d="m23.5 19.498c0-.928-.369-1.817-1.025-2.473s-1.545-1.025-2.473-1.025h-.002v.002c0 .928.369 1.817 1.025 2.473s1.545 1.025 2.473 1.025h.002z"/><path d="m11.5 23.498c0-.928-.369-1.817-1.025-2.473s-1.545-1.025-2.473-1.025h-.002v.002c0 .928.369 1.817 1.025 2.473s1.545 1.025 2.473 1.025h.002z"/></g></g></svg>