<svg clip-rule="evenodd" fill-rule="evenodd" stroke-linecap="round" stroke-linejoin="round" viewBox="0 0 32 32" xmlns="http://www.w3.org/2000/svg" xmlns:xlink="http://www.w3.org/1999/xlink"><clipPath id="a"><path clip-rule="evenodd" d="m16 3s-4.329 10.101-6.982 16.292c-1.219 2.844-.584 6.142 1.604 8.33l.029.029c2.954 2.954 7.744 2.954 10.698 0l.029-.029c2.188-2.188 2.823-5.486 1.604-8.33-2.653-6.191-6.982-16.292-6.982-16.292z"/></clipPath><metadata/><path d="m0 0h32v32h-32z" fill="none"/><path d="m16 3s-4.329 10.101-6.982 16.292c-1.219 2.844-.584 6.142 1.604 8.33l.029.029c2.954 2.954 7.744 2.954 10.698 0l.029-.029c2.188-2.188 2.823-5.486 1.604-8.33-2.653-6.191-6.982-16.292-6.982-16.292z" fill="none" stroke="#000" stroke-width="4"/><path d="m16 3s-4.329 10.101-6.982 16.292c-1.219 2.844-.584 6.142 1.604 8.33l.029.029c2.954 2.954 7.744 2.954 10.698 0l.029-.029c2.188-2.188 2.823-5.486 1.604-8.33-2.653-6.191-6.982-16.292-6.982-16.292z" fill="#10bfff"/><g clip-path="url(#a)"><path d="m16 2v16.618c0 3.446-1.369 6.751-3.806 9.188-2.062 2.062-4.194 4.194-4.194 4.194v-30h8z" fill="#9ce5ff"/></g><path d="m22.982 19.292.056.134.053.134.051.135.047.135.045.136.042.137.04.137.037.137.034.137.032.138.029.139.026.138.024.139.021.139.019.139.015.14.014.139.01.14.008.139.006.139.003.14v.139l-.002.139-.005.14-.007.138-.01.139-.013.138-.014.138-.018.138-.02.138-.022.136-.025.137-.028.136-.03.135-.032.135-.035.135-.038.134-.04.133-.042.132-.045.132-.047.131-.049.13-.052.129-.055.128-.057.128-.059.126-.062.126-.064.124-.066.124-.069.122-.071.121-.074.12-.076.119-.078.118-.081.116-.083.115-.085.114-.088.112-.09.111-.092.11-.094.108-.097.106-.099.105-.102.104-.029.029-.069.068-.07.068-.071.067-.072.065-.072.064-.073.064-.073.062-.074.061-.075.06-.075.059-.076.058-.076.057-.077.055-.077.055-.078.054-.078.052-.079.051-.08.051-.08.049-.08.048-.081.047-.081.046-.082.045-.082.044-.082.043-.083.041-.084.041-.084.039-.084.039-.084.037-.085.036-.085.035-.086.035-.086.033-.086.031-.086.031-.087.03-.087.029-.088.027-.087.027-.088.025-.088.025-.088.023-.089.022-.089.021-.089.02-.089.019-.089.018-.09.017-.089.015-.09.015-.09.014-.09.012-.09.011-.09.011-.091.009-.09.008-.091.007-.09.006-.091.005-.091.004-.091.002-.09.002h-.091-.091l-.09-.002-.091-.002-.091-.004-.091-.005-.09-.006-.091-.007-.09-.008-.091-.009-.09-.011-.09-.011-.09-.012-.09-.014-.09-.015-.089-.015-.09-.017-.089-.018-.089-.019-.089-.02-.089-.021-.089-.022-.088-.023-.088-.025-.088-.025-.087-.027-.088-.027-.087-.029-.087-.03-.086-.031-.086-.031-.086-.033-.086-.035-.085-.035-.085-.036-.084-.037-.084-.039-.084-.039-.084-.041-.083-.041-.082-.043-.082-.044-.082-.045-.081-.046-.081-.047-.08-.048-.08-.049-.08-.051-.079-.051-.078-.052-.078-.054-.077-.055-.077-.055-.076-.057-.076-.058-.075-.059-.075-.06-.074-.061-.073-.062-.073-.064-.072-.064-.072-.065-.071-.067-.07-.068-.069-.068-.029-.029-.102-.104-.099-.105-.097-.106-.094-.108-.092-.11-.09-.111-.088-.112-.085-.114-.083-.115-.081-.116-.078-.118-.076-.119-.074-.12-.071-.121-.069-.122-.066-.124-.064-.124-.062-.126-.059-.126-.057-.128-.055-.128-.052-.129-.049-.13-.047-.131-.045-.132-.042-.132-.04-.133-.038-.134-.035-.135-.032-.135-.03-.135-.028-.136-.025-.137-.022-.136-.02-.138-.018-.138-.014-.138-.013-.138-.01-.139-.007-.138-.005-.14-.002-.139v-.139l.003-.14.006-.139.008-.139.01-.14.014-.139.015-.14.019-.139.021-.139.024-.139.026-.138.029-.139.032-.138.034-.137.037-.137.04-.137.042-.137.045-.136.047-.135.051-.135.053-.134.056-.134 6.982-16.292zm-12.122.78-.045.107-.039.099-.037.099-.035.099-.034.101-.031.1-.029.101-.027.1-.025.102-.023.101-.022.102-.019.101-.017.102-.016.103-.014.102-.011.103-.01.102-.008.102-.006.103-.004.102-.002.103v.103l.002.102.003.102.005.103.008.102.009.101.011.102.013.101.014.101.017.101.018.101.021.1.022.1.024.099.025.099.028.098.029.098.031.098.033.097.035.096.036.095.039.096.04.094.042.094.043.093.046.092.047.091.049.091.05.09.052.089.055.088.055.088.058.086.059.086.061.085.063.083.064.083.066.081.068.081.07.08.071.078.073.077.082.083.018.018.055.055.052.05.053.05.053.048.053.047.054.047.054.046.054.045.055.044.056.044.055.042.056.042.057.041.057.04.057.039.058.039.057.038.059.037.058.036.059.035.06.035.059.033.06.033.06.032.061.032.061.03.061.03.061.029.062.028.062.028.062.026.063.026.063.025.063.024.063.024.064.022.063.022.064.021.064.021.065.019.064.019.065.018.065.017.065.016.065.016.066.014.066.014.065.013.066.013.066.011.066.011.067.01.066.009.066.009.067.007.067.007.066.006.067.005.067.004.066.004.067.003.067.002.067.001h.067.067l.067-.001.067-.002.067-.003.066-.004.067-.004.067-.005.066-.006.067-.007.067-.007.066-.009.066-.009.067-.01.066-.011.066-.011.066-.013.066-.013.065-.014.065-.014.066-.016.065-.016.065-.017.065-.018.064-.019.065-.019.064-.021.064-.021.064-.022.063-.022.063-.024.063-.024.063-.025.063-.026.062-.026.062-.028.062-.028.061-.029.061-.03.061-.03.061-.032.06-.032.06-.033.059-.033.06-.035.059-.035.058-.036.059-.037.058-.038.057-.039.058-.039.056-.04.057-.041.056-.042.055-.042.056-.044.055-.044.054-.045.054-.046.054-.047.053-.047.053-.048.053-.05.051-.05.056-.055.018-.018.082-.083.073-.077.071-.078.07-.08.068-.081.066-.081.064-.083.063-.083.061-.085.059-.086.058-.086.055-.087.054-.089.053-.089.05-.09.049-.091.047-.091.046-.092.043-.093.042-.094.04-.095.039-.094.036-.096.035-.096.033-.097.031-.098.029-.098.028-.098.025-.099.024-.099.022-.1.021-.1.018-.101.017-.101.014-.101.013-.101.011-.102.009-.102.008-.101.005-.103.003-.102.002-.102v-.103l-.002-.102-.004-.103-.006-.103-.008-.102-.01-.103-.011-.102-.014-.102-.016-.102-.017-.103-.019-.101-.022-.102-.023-.101-.025-.102-.027-.1-.029-.101-.032-.101-.033-.099-.035-.1-.037-.099-.039-.099-.045-.108-5.14-11.994z" fill="#10bfff"/></svg>