<svg clip-rule="evenodd" fill-rule="evenodd" stroke-linejoin="round" stroke-miterlimit="2" viewBox="0 0 32 32" xmlns="http://www.w3.org/2000/svg"><metadata/><path d="m0 0h32v32h-32z" fill="none"/><path d="m19.788 1.365c.08-.108.169-.212.267-.31 1.074-1.073 2.816-1.073 3.89 0l2 2c.756.757.979 1.846.669 2.799 1.79 1.616 3.077 3.722 3.694 6.067.342 1.297.65 2.468.65 2.468l.012.053.015.064.004.019c.897 4.517-.519 9.186-3.777 12.443-.046.047-.093.094-.14.141-2.438 2.437-5.745 3.807-9.192 3.807-2.593 0-5.106-.774-7.23-2.196-.122.442-.356.858-.702 1.206-.736.739-1.791.971-2.727.696-.082.113-.175.221-.276.323-1.074 1.073-2.816 1.073-3.89 0l-2-2c-1.073-1.074-1.073-2.816 0-3.89.098-.098.202-.187.31-.267-.278-.935-.05-1.99.687-2.729.566-.568 1.319-.837 2.062-.806-.807-1.792-1.236-3.75-1.236-5.753v-1.221c0-.737.406-1.415 1.056-1.763.557-.298 1.215-.313 1.777-.054-.235-1.02-.357-2.071-.357-3.135v-.001c0-.672.338-1.299.899-1.669.561-.371 1.271-.434 1.889-.169l.822.352-.352-.822c-.265-.618-.202-1.327.168-1.888.37-.562.998-.899 1.67-.899h.001c2.287 0 4.517.561 6.504 1.608-.972-1.079-.938-2.745.1-3.784.74-.739 1.797-.969 2.733-.69z"/><path d="m7.984 23.556c-1.995-2.202-3.106-5.071-3.106-8.056v-1.221s1.261.841 2.314 1.543c.931.621 1.799 1.333 2.591 2.124l1.905 1.906-.463.986-2.233 2.202zm3.704-4.943-.832-.832c-2.242-2.242-3.502-5.283-3.502-8.454v-.001s.622.267 1.395.598c1.942.832 3.707 2.027 5.2 3.521l1.454 1.453-.385 1.09-2.315 2.672zm13.002-11.763c-.814 1.628-1.238 3.424-1.238 5.245v.946l2.476 2.477 3.096-.62s-.308-1.171-.65-2.468c-.582-2.214-1.877-4.175-3.684-5.58zm-14.239-.619c3.171 0 6.212 1.259 8.454 3.501l.832.832-.318 1.068-2.591 2.364-.806.283-1.454-1.453c-1.493-1.494-2.688-3.259-3.52-5.201-.332-.772-.598-1.394-.598-1.394z" fill="#72820a"/><path d="m21.701 12.528.143.803 1.156.885.452.063v-1.238l5.572 1.857v.001c.774 3.868-.437 7.866-3.226 10.655-.046.046-.093.093-.14.14-2.063 2.063-4.861 3.222-7.778 3.222-2.918 0-5.716-1.159-7.779-3.222l-2.128-2.128 3.715-3.714.619.619.619-.619-1.238-1.239 3.715-3.715 1.238 1.239.619-.619-1.238-1.239 3.715-3.715z" fill="#b8d419"/><path d="m23.195 14.536c-.843.843-1.051 2.13-.519 3.196.008.015.031.06.061.121.216.432.041.958-.391 1.174 0 0-.001 0-.001.001-.432.216-.958.041-1.174-.391-.031-.062-.053-.106-.061-.122-.813-1.627-.568-3.569.591-4.939v-1.048l1.751 1.751z" fill="#88a00f"/><path d="m5.531 28.47c.141.141.219.331.219.53s-.078.389-.219.53c0 0 0 0-.001 0-.14.141-.331.22-.53.22s-.39-.079-.53-.22c-.561-.56-1.441-1.44-2.001-2-.141-.141-.219-.331-.219-.53s.078-.389.219-.53h.001c.14-.141.331-.22.53-.22s.39.079.53.22c.561.56 1.441 1.44 2.001 2zm2.999-1.016c.293.292.294.766.002 1.059 0 .001-.001.001-.001.002-.292.293-.767.294-1.06.002-.972-.969-3.029-3.018-4.001-3.986-.293-.292-.294-.767-.002-1.06 0 0 .001-.001.001-.001.292-.293.767-.294 1.06-.002.972.969 3.029 3.017 4.001 3.986zm14-20.984c.141.14.22.331.22.53s-.079.39-.22.53c-.14.141-.331.22-.53.22s-.39-.079-.53-.22c-.779-.778-2.222-2.221-3-3-.141-.14-.22-.331-.22-.53s.079-.39.22-.53c.14-.141.331-.22.53-.22s.39.079.53.22c.779.778 2.222 2.221 3 3zm2.001-2c.141.141.219.331.219.53s-.078.389-.219.53c0 0-.001.001-.001.001-.141.141-.331.219-.53.219s-.389-.078-.53-.219c-.56-.56-1.44-1.44-2-2.001-.141-.14-.22-.331-.22-.53s.079-.39.22-.53c0-.001 0-.001 0-.001.141-.141.331-.219.53-.219s.389.078.53.219c.56.561 1.44 1.441 2.001 2.001z" fill="#565656"/></svg>