<svg clip-rule="evenodd" fill-rule="evenodd" stroke-linejoin="round" stroke-miterlimit="2" viewBox="0 0 32 32" xmlns="http://www.w3.org/2000/svg"><metadata/><path d="m0 0h32v32h-32z" fill="none"/><path d="m17.788 2.366c.095-.129.202-.249.318-.359.225-.215.488-.391.772-.518.328-.147.681-.224 1.04-.238.047-.001.094-.001.14 0 .501.014.99.157 1.414.426.158.1.304.217.439.346.706.693 1.417 1.382 2.098 2.1.265.287.47.623.595.994.115.339.163.7.14 1.058-.006.097-.017.195-.034.291l3.753 11.257c.07.219.135.439.188.663.139.581.211 1.176.215 1.773.006.679-.077 1.358-.244 2.016-.212.835-.562 1.636-1.031 2.359-.488.753-1.106 1.407-1.798 1.974-1.357 1.112-2.996 1.863-4.723 2.164-1.161.203-2.356.203-3.516 0-1.149-.2-2.261-.599-3.276-1.172-.183-.104-.361-.212-.537-.327-.03.444-.167.88-.405 1.262-.139.224-.31.428-.508.604-.213.19-.456.346-.718.462-.302.133-.627.211-.956.229-.315.018-.632-.019-.934-.108-.097.133-.205.257-.326.371-.225.215-.488.391-.772.518-.313.139-.651.22-.994.236-.357.017-.718-.037-1.055-.158-.369-.132-.701-.343-.984-.612-.706-.693-1.417-1.382-2.098-2.1-.244-.264-.437-.569-.564-.906-.288-.764-.218-1.635.189-2.343.133-.229.298-.439.49-.621.082-.078.169-.151.26-.218-.065-.217-.103-.442-.113-.668-.012-.264.015-.529.078-.785.193-.774.726-1.439 1.439-1.796.24-.12.494-.201.755-.247-.386-.39-.771-.782-1.154-1.175-.312-.337-.556-.723-.708-1.157-.12-.343-.181-.705-.181-1.068s.061-.725.181-1.067c.176-.504.48-.957.87-1.316-.117-.191-.215-.394-.29-.609-.12-.343-.181-.705-.181-1.068 0-.31.045-.62.133-.917.247-.836.838-1.549 1.609-1.95-.005-.485.099-.97.308-1.413.09-.19.198-.372.324-.541.076-.104.16-.199.246-.294.005-.004.014-.014.011-.011l-.011.011c-.001.002-.002.003-.002.001.005-.007.011-.013.017-.019.036-.036.073-.072.11-.107.095-.092.197-.177.303-.256.382-.282.824-.478 1.29-.571.156-.032.314-.049.473-.059.064-.002.129-.003.194-.003.327-.627.859-1.142 1.505-1.441.285-.132.588-.222.898-.267.136-.019.172-.019.308-.029.154-.004.154-.004.309 0 .207.015.41.039.613.088.192.047.381.112.561.194-.004-.049-.007-.099-.009-.149-.03-.827.324-1.64.95-2.181.202-.174.43-.319.673-.429.333-.149.69-.226 1.054-.239.057-.001.057-.001.114-.001.191.005.38.026.567.068.06.014.12.03.178.048z"/><path d="m21.05 13.409c-.306-.921-.235-1.927.2-2.796.435-.87 1.197-1.531 2.12-1.838.001-.001.001-.001.001-.001s1.903 5.707 3.191 9.573c.71 2.13.156 4.478-1.432 6.066 0 .001-.001.001-.002.002-1.542 1.543-3.635 2.409-5.816 2.409-2.182 0-4.274-.866-5.817-2.409l-6.652-6.652c-.48-.481-.48-1.259 0-1.74.481-.48 1.259-.48 1.74 0l4.349 4.35.58-.58-6.089-6.09c-.48-.48-.48-1.259 0-1.739 0 0 0 0 0-.001.481-.48 1.259-.48 1.74 0l5.509 5.51.58-.58-6.089-6.089c-.231-.231-.361-.544-.361-.87s.13-.639.361-.87c.231-.231.544-.361.87-.361s.639.13.869.361l5.51 5.509.58-.58-4.93-4.929c-.48-.481-.48-1.259 0-1.74h.001c.48-.48 1.259-.48 1.739 0l5.458 5.458 1.421 2.218.951.153z" fill="#5963ef"/><path d="m19.26 12.782 2.372 2.371.652 1.957c-.289.082-.59.161-.881.252-.058.02-.114.041-.171.064-.221.095-.429.218-.614.373-.512.43-.824 1.07-.847 1.739-.009.263.028.522.102.775.228.717.475 1.428.713 2.142.033.112.048.224.031.341-.043.31-.282.566-.589.63-.075.016-.152.02-.228.013-.076-.008-.151-.027-.222-.058-.123-.053-.231-.139-.31-.248-.035-.047-.06-.097-.085-.15-.265-.704-.478-1.428-.716-2.142-.12-.377-.191-.764-.197-1.159-.017-1.024.383-2.032 1.097-2.766.298-.306.643-.553 1.021-.751z" fill="#4e39d7"/><path d="m6.03 25.251c.182.01.348.079.483.202.695.672 1.401 1.336 2.051 2.052.068.081.121.172.153.274.028.093.039.191.03.288-.008.088-.032.176-.07.256-.032.066-.073.127-.122.181-.193.213-.501.298-.776.213-.11-.034-.207-.093-.292-.17-.695-.672-1.401-1.336-2.051-2.052-.068-.081-.121-.172-.153-.274-.021-.069-.032-.142-.033-.215-.002-.28.157-.543.405-.672.102-.053.213-.079.327-.084.024 0 .024 0 .048.001zm1.011-3c.175.014.331.079.464.194 1.379 1.313 2.729 2.658 4.048 4.033.083.095.145.204.175.328.084.341-.088.704-.405.855-.082.04-.171.064-.262.071-.091.008-.183-.002-.27-.027-.111-.032-.209-.09-.296-.165-1.379-1.314-2.729-2.659-4.048-4.033-.076-.087-.134-.184-.166-.295-.096-.325.044-.683.335-.856.09-.054.187-.085.289-.1.046-.005.09-.006.136-.005zm9.981-18.001c.184.009.349.077.487.199 1.034.994 2.048 2.008 3.042 3.042.08.09.14.194.172.31.072.263-.007.551-.203.74-.058.055-.124.101-.196.135-.08.039-.168.063-.257.071-.099.009-.2-.002-.294-.032-.106-.034-.199-.091-.282-.164-1.034-.994-2.048-2.008-3.042-3.042-.073-.083-.13-.176-.164-.282-.105-.33.038-.701.338-.875.104-.061.22-.093.34-.101.03-.001.029-.001.059-.001zm3.008-.999c.182.01.348.079.483.202.695.672 1.401 1.336 2.051 2.052.073.087.129.186.159.297.02.07.029.143.027.216-.007.288-.185.553-.449.669-.082.036-.17.057-.259.062-.097.005-.195-.008-.286-.04-.101-.035-.19-.091-.269-.162-.695-.672-1.401-1.336-2.051-2.052-.068-.081-.121-.172-.153-.274-.082-.267-.006-.565.195-.76.053-.051.112-.094.177-.127.102-.053.213-.079.327-.084.024 0 .024 0 .048.001z" fill="#565656"/></svg>