<svg clip-rule="evenodd" fill-rule="evenodd" stroke-linecap="round" stroke-linejoin="round" stroke-miterlimit="2" viewBox="0 0 32 32" xmlns="http://www.w3.org/2000/svg" xmlns:xlink="http://www.w3.org/1999/xlink"><clipPath id="a"><path clip-rule="evenodd" d="m0 0h32v32h-32z"/></clipPath><metadata/><path d="m0 0h32v32h-32z" fill="none"/><g clip-path="url(#a)"><g fill="none"><path d="m7 23 4 3.985" stroke="#000" stroke-width="5.5"/><path d="m6 26 2 2" stroke="#000" stroke-width="5.5"/><path d="m17 5 3 3" stroke="#000" stroke-width="5.5"/><path d="m20 4 2 2" stroke="#000" stroke-width="5.5"/><path d="m16.376 14.527.578-.578-4.147-4.147c-.307-.307-.479-.723-.479-1.157v-2.792l9.252 9.253s-.165-1.158-.319-2.236c-.163-1.14.221-2.292 1.036-3.107.528-.528 1.018-1.018 1.018-1.018s1.887 5.66 3.172 9.514c.714 2.143.156 4.506-1.441 6.103-.183.183-.369.37-.56.56-2.882 2.882-7.555 2.882-10.437 0l-6.446-6.446c-.307-.307-.479-.723-.479-1.157v-2.792l5.782 5.783.579-.578-5.304-5.304c-.307-.306-.479-.723-.479-1.157v-2.791l6.939 6.939.578-.578-5.303-5.304c-.307-.307-.479-.723-.479-1.157v-2.792l6.939 6.939z" stroke="#000" stroke-linecap="butt" stroke-linejoin="miter" stroke-miterlimit="3" stroke-width="4"/><path d="m7 23 4 3.985" stroke="#565656" stroke-width="1.5"/><path d="m6 26 2 2" stroke="#565656" stroke-width="1.5"/><path d="m17 5 3 3" stroke="#565656" stroke-width="1.5"/><path d="m20 4 2 2" stroke="#565656" stroke-width="1.5"/></g><path d="m12.906 11.058 2.892 2.891v.578h.578l.578-.578v-.578h-.578l-2.891-2.891v-.579h-.579l-.099-.099c-.307-.307-.479-.723-.479-1.157v-2.792l2.313 2.314v.578h.578l2.892 2.891v.578h.578l.442.443s2.232 2.774 2.529 2.691l-.148-.719c-.062-.437-.158-1.112-.251-1.759-.163-1.14.221-2.292 1.036-3.107.528-.528 1.018-1.018 1.018-1.018s1.887 5.66 3.172 9.514c.714 2.143.156 4.506-1.441 6.103-.183.183-.369.37-.56.56-2.882 2.882-7.555 2.882-10.437 0l-2.877-2.877v-.578h-.579l-2.313-2.313v-.579h-.578l-.099-.099c-.307-.307-.479-.723-.479-1.157v-2.792l2.313 2.314v.578h.578l2.313 2.313v.578h.578l.579-.578-.579-.578v-.579h-.578l-2.313-2.313v-.578h-.578l-1.256-1.256c-.307-.306-.479-.723-.479-1.157v-2.791l3.47 3.469v.578h.578l2.313 2.314v.578h.578l.578-.578-.578-.579v-.578h-.578l-2.891-2.891v-.579h-.579l-.677-.677c-.307-.307-.479-.723-.479-1.157v-2.792l2.891 2.892v.578z" fill="#6a4e35"/><path d="m21.58 15.106-.068-.477.828 2.482c-.297.082-.595.161-.892.246-.056.018-.111.037-.166.058-.236.094-.455.22-.649.383-.496.416-.799 1.035-.82 1.682-.01.255.027.506.098.75.228.715.474 1.423.71 2.135.035.116.051.233.037.354-.013.103-.044.202-.093.293-.04.075-.093.144-.155.203-.201.192-.493.269-.762.202-.083-.021-.163-.054-.235-.1-.102-.063-.189-.15-.255-.25-.028-.044-.05-.089-.07-.137-.26-.703-.476-1.421-.713-2.131-.05-.159-.094-.319-.127-.482-.063-.326-.086-.661-.066-.992.028-.465.139-.924.326-1.35.355-.807.983-1.485 1.764-1.895l-1.141-3.423 2.449 2.449z" fill="#553720"/><path d="m14.641 8.167-1.735 1.734.579.579 1.734-1.735z" fill="#553720"/><path d="m18.111 11.636-1.735 1.735.578.578 1.735-1.735z" fill="#553720"/><path d="m12.328 10.48-1.735 1.734.579.579 1.734-1.735z" fill="#553720"/><path d="m15.798 13.949-1.735 1.735.578.578 1.735-1.735z" fill="#553720"/><path d="m11.172 13.949-1.735 1.735.578.578 1.735-1.735z" fill="#553720"/><path d="m14.063 16.841-1.735 1.734.578.579 1.735-1.735z" fill="#553720"/><path d="m9.437 16.841-1.735 1.734.578.579 1.735-1.735z" fill="#553720"/><path d="m12.328 19.732-1.735 1.735.579.578 1.734-1.735z" fill="#553720"/></g></svg>