<svg clip-rule="evenodd" fill-rule="evenodd" stroke-linejoin="round" stroke-miterlimit="1.41421" viewBox="0 0 32 32" xmlns="http://www.w3.org/2000/svg" xmlns:xlink="http://www.w3.org/1999/xlink"><clipPath id="a"><path clip-rule="evenodd" d="m0 0h32v32h-32z"/></clipPath><metadata/><path d="m0 0h32v32h-32z" fill="none"/><g clip-path="url(#a)"><path d="m32 8c0-4.418-3.582-8-8-8-4.887 0-11.113 0-16 0-4.418 0-8 3.582-8 8v16c0 4.418 3.582 8 8 8h16c4.418 0 8-3.582 8-8 0-4.887 0-11.113 0-16z"/><path d="m30 8c0-1.591-.632-3.117-1.757-4.243-1.126-1.125-2.652-1.757-4.243-1.757-4.724 0-11.276 0-16 0-1.591 0-3.117.632-4.243 1.757-1.125 1.126-1.757 2.652-1.757 4.243v16c0 1.591.632 3.117 1.757 4.243 1.126 1.125 2.652 1.757 4.243 1.757h16c1.591 0 3.117-.632 4.243-1.757 1.125-1.126 1.757-2.652 1.757-4.243 0-4.724 0-11.276 0-16z" fill="#334cec"/><g fill="#fff" fill-rule="nonzero"><path d="m18.272 10.03-2.864 11.974h-2.082l-2.187-8.867-2.169 8.867h-2.065l-2.95-11.974h2.273l1.805 8.452 1.753-8.452h2.828l1.84 8.452 1.701-8.452z"/><path d="m23.304 22.143c-2.903 0-4.355-1.59-4.355-4.772v-2.742c0-3.182 1.463-4.772 4.39-4.772 1.307 0 2.349.347 3.124 1.041s1.163 1.672 1.163 2.933v.121h-2.274v-.104c0-.613-.176-1.099-.529-1.458-.353-.358-.853-.538-1.501-.538-.729 0-1.258.226-1.588.677s-.495 1.192-.495 2.222v2.585c0 .972.171 1.678.512 2.117.342.44.877.66 1.605.66.648 0 1.143-.174 1.484-.521.342-.347.512-.821.512-1.423v-.139h2.239v.122c0 1.284-.382 2.27-1.146 2.959-.763.688-1.81 1.032-3.141 1.032z"/></g></g></svg>