<svg clip-rule="evenodd" fill-rule="evenodd" stroke-linecap="round" stroke-miterlimit="3" viewBox="0 0 32 32" xmlns="http://www.w3.org/2000/svg" xmlns:xlink="http://www.w3.org/1999/xlink"><clipPath id="a"><path clip-rule="evenodd" d="m0 0h32v32h-32z"/></clipPath><metadata/><path d="m0 0h32v32h-32z" fill="none"/><g clip-path="url(#a)"><path d="m26.565 16.177c.352-1.763-.104-3.591-1.244-4.981-1.139-1.39-2.842-2.196-4.64-2.196-1.324 0-2.602 0-3.61 0-1.326 0-2.598.527-3.535 1.464-2.55 2.55-7.536 7.536-7.536 7.536-.64 0-1.254.254-1.707.707-.335.335-.754.754-1.18 1.18-.56.56-.875 1.32-.875 2.113s.315 1.553.875 2.113c.498.498.887.887.887.887h2l4 4v-3s4.675-4.675 6.384-6.384c.34-.34.892-.34 1.232 0 0 0 0 0 .001.001.231.231.298.58.169.881-.518 1.21-1.846 4.309-2.463 5.747-.213.498-.323 1.034-.323 1.576v2.179h10s0-3.181 0-4.911c0-.724.072-1.447.214-2.157.287-1.439.824-4.124 1.351-6.755z" fill="none" stroke="#000" stroke-width="4"/><path d="m18 9s.385.385.879.879c.562.562 1.325.878 2.121.878s1.559-.316 2.121-.878c.624-.624 1.28-1.28 1.809-1.809.698-.698 1.173-1.587 1.367-2.554.295-1.475.703-3.516.703-3.516z" style="fill:#be8b40;stroke:#000;stroke-width:4;stroke-linecap:butt;stroke-linejoin:round;stroke-miterlimit:1.5"/><path d="m11 20h12v9h-12z"/><path d="m17 14v-5c1.827-1.827 4.553-2.418 6.972-1.511 2.009.754 4.028 1.511 4.028 1.511l-2 1 4 6h-2l1 8h-2l1 6h-4v-16z" style="fill:#1c5832;stroke:#000;stroke-width:4;stroke-linecap:butt;stroke-linejoin:round;stroke-miterlimit:2"/><path d="m13 12 2-8 2 6z" fill="none" stroke="#000" stroke-linejoin="round" stroke-miterlimit="2" stroke-width="4"/><path d="m17 14v-5c1.827-1.827 4.553-2.418 6.972-1.511 2.009.754 4.028 1.511 4.028 1.511l-2 1 4 6h-2l1 8h-2l1 6h-4v-16z" fill="#742125"/><path d="m13 12 2-8 2 6z" fill="#d8c31e"/><path d="m5.292 25h-1.292l-.887-.887c-.56-.56-.875-1.32-.875-2.113s.315-1.553.875-2.113l1.18-1.18c.453-.453 1.067-.707 1.707-.707l7.536-7.536c.937-.937 2.209-1.464 3.535-1.464h3.61c1.798 0 3.501.806 4.64 2.196 1.14 1.39 1.596 3.218 1.244 4.981-.527 2.631-1.064 5.316-1.351 6.755-.142.71-.214 1.433-.214 2.157v4.911h-6l-1.308-2.718.793-7.356s-1.161-1.25-2.083-.328l-6.402 6.402v3l-3.647-3.647-.033-.332-.626-.101z" fill="#d5232f"/><path d="m16.384 19.616.018-.018c.922-.922 2.376-1.042 3.437-.284.001 0 .001 0 .001.001.977.698 1.359 1.968.928 3.089-.469 1.217-1.055 2.742-1.42 3.692-.23.598-.348 1.232-.348 1.872v2.032h-4s0-1.291 0-2.179c0-.542.11-1.078.323-1.576.617-1.438 1.945-4.537 2.463-5.747.129-.301.062-.65-.169-.881-.001-.001-.001-.001-.001-.001-.34-.34-.892-.34-1.232 0z" fill="#ee869b"/><path d="m5.292 25 3.708-3.712.002-1.835c.032-.256.238-.447.498-.458h2.5v-1.995h1v2.495c-.011.273-.224.488-.5.5h-2.5v1.5c-.009.229-.057.256-.146.353l-3.501 3.505-.353-.353z" fill="#9c1b31"/><path d="m5 20.5-1 1" fill="none" stroke="#7f1318" stroke-linejoin="round" stroke-miterlimit="2" stroke-width="2"/><path d="m17 12s-.427 0-1.002 0c-.795 0-1.558.316-2.12.878s-.878 1.325-.878 2.12v.002h1c1.657 0 3-1.343 3-3z"/><path d="m18 9s.385.385.879.879c.562.562 1.325.878 2.121.878s1.559-.316 2.121-.878c.624-.624 1.28-1.28 1.809-1.809.698-.698 1.173-1.587 1.367-2.554.295-1.475.703-3.516.703-3.516z" fill="#d8c31e"/></g></svg>