<svg clip-rule="evenodd" fill-rule="evenodd" stroke-linejoin="round" stroke-miterlimit="1.41421" viewBox="0 0 32 32" xmlns="http://www.w3.org/2000/svg" xmlns:xlink="http://www.w3.org/1999/xlink"><clipPath id="a"><path clip-rule="evenodd" d="m0 0h32v32h-32z"/></clipPath><metadata/><path d="m0 0h32v32h-32z" fill="none"/><g clip-path="url(#a)"><path d="m32 8c0-4.418-3.582-8-8-8-4.887 0-11.113 0-16 0-4.418 0-8 3.582-8 8v16c0 4.418 3.582 8 8 8h16c4.418 0 8-3.582 8-8 0-4.887 0-11.113 0-16z"/><path d="m30 8c0-1.591-.632-3.117-1.757-4.243-1.126-1.125-2.652-1.757-4.243-1.757-4.724 0-11.276 0-16 0-1.591 0-3.117.632-4.243 1.757-1.125 1.126-1.757 2.652-1.757 4.243v16c0 1.591.632 3.117 1.757 4.243 1.126 1.125 2.652 1.757 4.243 1.757h16c1.591 0 3.117-.632 4.243-1.757 1.125-1.126 1.757-2.652 1.757-4.243 0-4.724 0-11.276 0-16z" fill="#334cec"/><path d="m13.685 24.613c-2.37 0-4.298-1.928-4.298-4.298 0-.893.274-1.723.742-2.411l-1.707-1.707c-.89 1.135-1.422 2.564-1.422 4.118 0 3.692 2.993 6.685 6.685 6.685 1.554 0 2.983-.532 4.118-1.422l-1.707-1.707c-.688.468-1.518.742-2.411.742zm10.128-9.638c-.264-.271-.632-.413-1.009-.393l-4.557.254 2.508-2.857c.357-.406.459-.949.321-1.434-.073-.332-.274-.634-.583-.827-.009-.007-5.995-3.484-5.995-3.484-.489-.284-1.105-.221-1.526.155l-2.924 2.608c-.539.481-.586 1.307-.106 1.846.481.538 1.307.586 1.846.105l2.217-1.977 1.832 1.064-3.235 3.684c-1.341.218-2.548.837-3.495 1.728l1.689 1.689c.764-.694 1.778-1.118 2.889-1.118 2.369 0 4.297 1.928 4.297 4.298 0 1.111-.424 2.124-1.118 2.888l1.689 1.689c1.125-1.196 1.816-2.806 1.816-4.577 0-1.056-.245-2.054-.681-2.942l1.764-.098-.429 5.263c-.059.72.477 1.351 1.197 1.409.036.003.072.005.107.005.674 0 1.246-.518 1.302-1.201l.55-6.759c.031-.376-.103-.747-.366-1.018zm-2.421-5.599c1.208 0 2.188-.98 2.188-2.188s-.98-2.188-2.188-2.188-2.188.98-2.188 2.188.98 2.188 2.188 2.188z" fill="#fff"/></g></svg>