<svg clip-rule="evenodd" fill-rule="evenodd" stroke-linejoin="round" stroke-miterlimit="2" viewBox="0 0 32 32" xmlns="http://www.w3.org/2000/svg" xmlns:xlink="http://www.w3.org/1999/xlink"><clipPath id="a"><path clip-rule="evenodd" d="m0 0h32v32h-32z"/></clipPath><metadata/><path d="m0 0h32v32h-32z" fill="none"/><g clip-path="url(#a)"><path d="m15 1c3.978 0 7.794 1.58 10.607 4.393s4.393 6.629 4.393 10.607v1.205c.121.098.237.204.348.315l.132.132c1.849 1.849 1.849 4.847 0 6.696l-6.48 6.48-1.324-1.323c-1.892.974-4.006 1.495-6.174 1.495h-3.004c-3.58 0-7.013-1.422-9.545-3.953-2.531-2.532-3.953-5.965-3.953-9.545v-1.502c0-8.284 6.716-15 15-15z"/><path d="m28 16c0-3.448-1.37-6.754-3.808-9.192s-5.744-3.808-9.192-3.808c-7.18 0-13 5.82-13 13v1.502c0 3.049 1.211 5.974 3.368 8.13 2.156 2.157 5.081 3.368 8.13 3.368h3.004c3.049 0 5.974-1.211 8.13-3.368 2.157-2.156 3.368-5.081 3.368-8.13z" fill="#fbc546"/><path d="m8.502 17c.928 0 1.817-.369 2.473-1.025s1.025-1.545 1.025-2.473c0-.657 0-1.345 0-2.002 0-1.933-1.567-3.5-3.5-3.5h-.002c-.928 0-1.817.369-2.473 1.025s-1.025 1.545-1.025 2.473v2.002c0 1.933 1.567 3.5 3.5 3.5z" fill="#fff"/><path d="m7 11c0-.53.211-1.039.586-1.414s.884-.586 1.414-.586 1.039.211 1.414.586.586.884.586 1.414v2.983c0 .531-.211 1.039-.586 1.415-.375.375-.884.585-1.414.585s-1.039-.21-1.414-.585c-.375-.376-.586-.884-.586-1.415 0-.935 0-2.047 0-2.983z"/><path d="m16.792 12.294c-.187.187-.292.441-.292.706s.105.519.292.706c.001.001.001.002.001.002.983.983 2.317 1.535 3.707 1.535s2.724-.552 3.707-1.535v-.001c.391-.39.391-1.024 0-1.414-.39-.391-1.024-.391-1.414 0h-.001c-.608.608-1.432.95-2.292.95s-1.684-.342-2.292-.95c0 0-.001 0-.002-.001-.187-.187-.441-.292-.706-.292s-.519.105-.706.292z"/><path d="m16.221 20.365-3.592-1.437c-.513-.204-.762-.787-.557-1.299.204-.513.787-.762 1.299-.557l5 2c.312.124.541.398.609.727.067.329-.035.67-.273.908l-1.293 1.293 1.293 1.293c.238.238.34.579.273.908-.068.329-.297.603-.609.727l-5 2c-.512.205-1.095-.044-1.299-.557-.205-.512.044-1.095.557-1.299l3.592-1.437-.928-.928c-.383-.402-.383-1.012 0-1.414z" fill="#593604"/><path d="m24 28s-2.999-2.999-5.071-5.071c-1.066-1.066-1.068-2.794-.005-3.863.043-.043.086-.086.129-.129 1.064-1.07 2.795-1.075 3.866-.011.588.584 1.081 1.074 1.081 1.074s.486-.486 1.066-1.066c.513-.513 1.209-.801 1.934-.801s1.421.288 1.934.801l.132.132c1.068 1.068 1.068 2.8 0 3.868-2.072 2.072-5.066 5.066-5.066 5.066z" fill="#d92020"/></g></svg>