<svg clip-rule="evenodd" fill-rule="evenodd" stroke-linejoin="round" stroke-miterlimit="1.41421" viewBox="0 0 32 32" xmlns="http://www.w3.org/2000/svg" xmlns:xlink="http://www.w3.org/1999/xlink"><clipPath id="a"><path clip-rule="evenodd" d="m0 0h32v32h-32z"/></clipPath><metadata/><path d="m0 0h32v32h-32z" fill="none"/><g clip-path="url(#a)"><path d="m0 19.675 3-9v-4.675h4.754c1.025-.256 2.049-.516 3.074-.768.165-.039.33-.077.495-.114.66-.14 1.324-.256 1.994-.338.835-.103 1.674-.154 2.515-.164.168-.001.168-.001.336 0 .841.01 1.68.061 2.515.164.838.102 1.668.257 2.489.452l.16.039 2.914.729h4.754v4.675l3 9v2.325h-1.225l.836 2.508-.354.492h-4.037l-3.357.746-1.806 3.611-.04.079c-.104.182-.219.356-.356.516-.381.444-.89.771-1.452.932-.236.068-.475.101-.72.114-2.296.04-4.592.002-6.888.002-.206-.004-.41-.023-.611-.066-.605-.129-1.163-.449-1.581-.904-.186-.203-.339-.429-.466-.673l-1.806-3.611c-3.641-.809-3.663-.746-7.394-.746l-.354-.492.836-2.508h-1.225v-2.325z"/><path d="m12.618 29h6.764c-1.491 0-5.273 0-6.764 0zm-4.618-21 3.149-.787c3.185-.797 6.517-.797 9.702 0 1.679.42 3.149.787 3.149.787h3v3l3 9h-2l-6 3h-12l-6-3h-2l3-9v-3z" fill="#646464"/><g fill="#c2c2c2"><path d="m28 20 1 3h-2l-4.5 1s-1.573 3.146-2.224 4.447c-.169.339-.515.553-.894.553h-6.764c-.379 0-.725-.214-.894-.553-.651-1.301-2.224-4.447-2.224-4.447l-4.5-1h-2l1-3 4-2v3l3-1-1 2h12l-1-2 3 1v-3z"/><path d="m28 12h-.929c-.787 0-1.555-.186-2.246-.533l-.238-.607s-.448-.249-.607.07c-.155-.122-.304-.254-.444-.394-.762-.762-1.536-1.536-1.536-1.536l-1-2 2.5 2h4.5z"/><path d="m4 12h.929c.787 0 1.555-.186 2.246-.533l.238-.607s.448-.249.607.07c.155-.122.304-.254.444-.394.762-.762 1.536-1.536 1.536-1.536l1-1-2.5 1h-4.5z"/></g><path d="m19.999 8c.001-.051.002-.102.003-.152.013-.355.057-.706.138-1.051.082-.345.2-.679.347-1.001.231-.491.487-.98.726-1.459.129-.25.267-.494.422-.729.388-.585.864-1.112 1.407-1.556.365-.298.759-.553 1.173-.776.481-.247.967-.485 1.451-.727.258-.124.527-.217.81-.267.155-.028.312-.04.47-.046.095 0 .094 0 .189.003.349.021.689.091 1.013.225.769.319 1.382.958 1.669 1.74.111.302.166.615.182.935.021 1.338.01 2.676 0 4.014-.007.322-.027.642-.066.962-.045.364-.115.723-.201 1.079l-1.004 4.019-1.941-.485c.344-1.373.697-2.744 1.029-4.119.055-.244.101-.49.132-.739.03-.248.045-.497.051-.748.01-1.317.063-2.636-.001-3.951-.011-.138-.046-.271-.11-.394-.173-.334-.529-.547-.906-.541-.128.003-.252.031-.37.079-.5.22-.98.482-1.466.731-.296.16-.577.342-.838.555-.362.296-.682.643-.949 1.028-.114.166-.217.339-.313.517-.253.494-.508.989-.745 1.492-.189.415-.291.859-.301 1.315l-.007 1.043-1.993-.996zm-9.992.996c-.002-.373.004-.759-.01-1.137-.004-.078-.01-.156-.019-.234-.044-.359-.144-.703-.299-1.03-.238-.485-.479-.968-.725-1.449-.096-.178-.199-.351-.313-.517-.267-.385-.587-.732-.949-1.028-.261-.213-.542-.395-.838-.555-.486-.249-.966-.511-1.466-.731-.118-.048-.242-.076-.37-.079-.377-.006-.733.207-.906.541-.064.123-.099.256-.11.394-.064 1.315-.011 2.634-.001 3.951.006.286.026.571.065.855.035.249.085.495.144.74l1.003 4.011-1.941.485c-.345-1.383-.701-2.764-1.036-4.149-.071-.314-.129-.63-.169-.949-.039-.32-.059-.64-.066-.962-.01-1.308-.001-2.617-.001-3.925.005-.318.052-.632.152-.935.272-.821.901-1.498 1.7-1.829.324-.134.664-.204 1.013-.225.095-.003.094-.003.189-.003.222.008.44.033.656.085.188.046.368.112.544.19.473.227.94.468 1.409.702.292.15.575.314.846.501.577.399 1.093.886 1.527 1.438.261.333.487.69.688 1.064.269.523.538 1.047.789 1.58.147.322.265.656.347 1.001.081.345.125.696.138 1.051l.001.076.001.076z"/><path d="m21.996 8.569.004-.616c.01-.456.112-.9.301-1.315.237-.503.492-.998.745-1.492.096-.178.199-.351.313-.517.267-.385.587-.732.949-1.028.261-.213.542-.395.838-.555.486-.249.966-.511 1.466-.731.118-.048.242-.076.37-.079.377-.006.733.207.906.541.064.123.099.256.11.394.064 1.315.011 2.634.001 3.951-.006.251-.021.5-.051.748-.031.249-.077.495-.132.739-.232.96-.474 1.918-.716 2.877z" fill="#c2c2c2"/><path d="m4.902 11.485-.692-2.768c-.059-.245-.109-.491-.144-.74-.039-.284-.059-.569-.065-.855-.01-1.317-.063-2.636.001-3.951.011-.138.046-.271.11-.394.173-.334.529-.547.906-.541.128.003.252.031.37.079.5.22.98.482 1.466.731.296.16.577.342.838.555.362.296.682.643.949 1.028.114.166.217.339.313.517.246.481.487.964.725 1.449.155.327.255.671.299 1.03.009.078.015.156.019.234.008.235.009.473.009.709z" fill="#c2c2c2"/><path d="m23.98 10.93c.159-.319.318-.639.475-.959.216-.456.374-.937.462-1.435.055-.316.081-.634.083-.954v-2.582h1v2.585c-.004.566-.074 1.127-.22 1.674-.113.425-.272.835-.465 1.23l-.49.978c-.298-.149-.581-.329-.845-.537z" fill="#4c4c4c"/><path d="m8.02 10.93c-.159-.319-.318-.639-.475-.959-.216-.456-.374-.937-.462-1.435-.055-.316-.081-.634-.083-.954v-2.582h-1v2.585c.004.566.074 1.127.22 1.674.113.425.272.835.465 1.23l.49.978c.298-.149.581-.329.845-.537z" fill="#4c4c4c"/><path d="m15 21c-.552 0-1 .448-1 1v.586c0 .265.105.519.293.707.13.13.284.284.414.414.188.188.442.293.707.293h1.172c.265 0 .519-.105.707-.293l.414-.414c.188-.188.293-.442.293-.707 0-.172 0-.379 0-.586 0-.552-.448-1-1-1-.611 0-1.389 0-2 0z"/><path d="m20 17.849 1.75 2.625.028.043.028.048.026.048.025.05.022.05.021.051.019.052.017.052.015.053.013.054.011.053.009.054.007.055.005.055.003.055.001.051v.702h-1v-.693-.023l-.001-.018-.002-.018-.003-.019-.003-.018-.003-.018-.005-.018-.004-.017-.006-.017-.006-.018-.007-.017-.008-.016-.008-.017-.009-.016-.009-.016-.012-.019-1.914-2.871v-.668h1z" fill="#353535"/><path d="m13 18.151-1.914 2.871-.012.019-.009.016-.009.016-.008.017-.008.016-.007.017-.006.018-.006.017-.004.017-.005.018-.003.018-.003.018-.003.019-.002.018-.001.018v.023.71h-1v-.719l.001-.051.003-.055.005-.055.007-.055.009-.054.011-.053.013-.054.015-.053.017-.052.019-.052.021-.051.022-.05.025-.05.026-.048.028-.048.028-.043 1.75-2.625v-.349h1z" fill="#353535"/><path d="m21.044 23.502.043.006.042.009.042.013.04.017.039.02.037.023.034.027.033.029.029.033.027.034.023.037.02.039.017.04.013.042.009.042.006.043.002.044v.561.048l-.002.05-.002.05-.004.05-.004.049-.006.049-.006.049-.008.049-.008.049-.009.048-.01.048-.011.048-.012.047-.013.047-.014.047-.015.046-.015.046-.017.046-.017.045-.019.047-.038.086-.042.087-.045.085-.049.083-.051.081-.055.079-.057.077-.061.075-.064.072-.066.07-.069.067-.07.063-.038.033-.038.031-.038.03-.038.029-.04.029-.04.028-.041.027-.041.026-.041.025-.043.026-.043.024-.043.023-.044.022-.044.022-.046.021-.045.019-.046.019-.047.019-.047.017-.045.015-1.831.611-1.962-.981-1.962.981-1.831-.611-.045-.015-.047-.017-.047-.019-.046-.019-.045-.019-.046-.021-.044-.022-.044-.022-.043-.023-.043-.024-.043-.026-.041-.025-.041-.026-.041-.027-.04-.028-.04-.029-.038-.029-.038-.03-.038-.031-.038-.033-.07-.063-.069-.067-.066-.07-.064-.072-.061-.075-.057-.077-.055-.079-.051-.081-.049-.083-.045-.085-.042-.087-.038-.086-.019-.047-.017-.045-.017-.046-.015-.046-.015-.046-.014-.047-.013-.047-.012-.047-.011-.048-.01-.048-.009-.048-.008-.049-.008-.049-.006-.049-.006-.049-.004-.05-.004-.049-.002-.05-.002-.05v-.048-.561l.002-.044.006-.043.009-.042.013-.042.017-.04.02-.039.023-.037.027-.034.029-.033.033-.029.034-.027.037-.023.039-.02.04-.017.042-.013.042-.009.043-.006.044-.002.044.002.043.006.042.009.042.013.04.017.039.02.037.023.034.027.033.029.029.033.027.034.023.037.02.039.017.04.013.042.009.042.006.043.002.044v.556.033l.001.03.002.03.002.03.002.03.004.029.004.03.004.029.005.029.005.029.007.029.006.028.007.028.008.029.008.028.009.028.009.027.01.027.011.027.01.025.024.056.025.051.027.051.029.05.031.049.033.047.035.047.036.045.038.043.04.042.041.04.045.041.021.017.022.018.023.018.023.018.024.017.023.017.024.016.025.016.026.015.025.015.026.014.026.014.026.013.027.014.027.012.027.012.028.011.028.011.028.011.031.01 1.434.478 2.038-1.019 2.038 1.019 1.434-.478.031-.01.028-.011.028-.011.028-.011.027-.012.027-.012.027-.014.026-.013.026-.014.026-.014.025-.015.026-.015.025-.016.024-.016.023-.017.024-.017.023-.018.023-.018.022-.018.021-.017.045-.041.041-.04.04-.042.038-.043.036-.045.035-.047.033-.047.031-.049.029-.05.027-.05.025-.052.024-.056.01-.025.011-.027.01-.027.009-.028.009-.027.008-.028.008-.029.007-.028.006-.028.007-.029.005-.029.005-.029.004-.029.004-.03.004-.029.002-.03.002-.03.002-.03.001-.03v-.033-.556l.002-.044.006-.043.009-.042.013-.042.017-.04.02-.039.023-.037.027-.034.029-.033.033-.029.034-.027.037-.023.039-.02.04-.017.042-.013.042-.009.043-.006.044-.002z" fill="#4c4c4c"/><path d="m19 15h5v1h-5z"/><path d="m8 15h5v1h-5z"/><path d="m23 15v.558c0 .861-.551 1.626-1.368 1.898-.791.264-1.632.544-1.632.544h-1v-3z"/><path d="m9 15v.558c0 .861.551 1.626 1.368 1.898.791.264 1.632.544 1.632.544h1v-3z"/></g></svg>