<svg clip-rule="evenodd" fill-rule="evenodd" stroke-linecap="round" stroke-miterlimit="1.5" viewBox="0 0 32 32" xmlns="http://www.w3.org/2000/svg" xmlns:xlink="http://www.w3.org/1999/xlink"><clipPath id="a"><path clip-rule="evenodd" d="m0-.017h32v32h-32z"/></clipPath><metadata/><path d="m0-.017h32v32h-32z" fill="none"/><g clip-path="url(#a)"><path d="m16 .983c8.837 0 16 7.164 16 16v.502c0 3.58-1.422 7.013-3.953 9.545-2.532 2.531-5.965 3.953-9.545 3.953-1.652 0-3.352 0-5.004 0-3.58 0-7.013-1.422-9.545-3.953-2.531-2.532-3.953-5.965-3.953-9.545 0-.167 0-.334 0-.502 0-8.836 7.163-16 16-16z"/><path d="m30 16.983c0-7.732-6.268-14-14-14-7.732 0-14 6.268-14 14v.502c0 3.05 1.211 5.974 3.368 8.131 2.156 2.156 5.081 3.367 8.13 3.367h5.004c3.049 0 5.974-1.211 8.13-3.367 2.157-2.157 3.368-5.081 3.368-8.131z" fill="#fbc546"/><path d="m11.774 12.059 1.134-.378c.06.257.092.526.092.802v2.002c0 .928-.369 1.818-1.025 2.474s-1.545 1.024-2.473 1.024h-.002c-1.933 0-3.5-1.567-3.5-3.5v-.5l2-.666c.761.784 3.436-.339 3.774-1.258z" fill="#fff"/><path d="m11.774 12.059c.144.276.226.591.226.924v.984c0 .53-.211 1.039-.586 1.414s-.884.586-1.414.586c-1.105 0-2-.896-2-2v-.65z"/><path d="m19.667 10.428 6.18 1.03c.101.328.153.673.153 1.023v2.002c0 1.933-1.567 3.5-3.5 3.5h-.002c-.928 0-1.817-.368-2.473-1.024s-1.025-1.546-1.025-2.474c0-.657 0-1.344 0-2.002 0-.768.247-1.478.667-2.055z" fill="#fff"/><path d="m24 12.983c0-.53-.211-1.039-.586-1.414s-.884-.586-1.414-.586c-1.105 0-2 .896-2 2v.984c0 .53.211 1.039.586 1.414s.884.586 1.414.586c1.105 0 2-.896 2-2z"/><path d="m6 19.983s.146.439.327.981c.431 1.293 1.358 2.362 2.577 2.971 0 0 0 0 .001.001 1.227.613 2.716.302 3.595-.752.376-.452.789-.948 1.195-1.435.57-.684 1.415-1.08 2.305-1.08s1.735.396 2.305 1.08c.197.237.396.476.592.711.54.647 1.327 1.038 2.169 1.076s1.661-.28 2.257-.876c1.306-1.306 2.677-2.677 2.677-2.677" fill="none" stroke="#593604" stroke-width="2"/></g></svg>