<svg clip-rule="evenodd" fill-rule="evenodd" stroke-linejoin="round" stroke-miterlimit="2" viewBox="0 0 32 32" xmlns="http://www.w3.org/2000/svg" xmlns:xlink="http://www.w3.org/1999/xlink"><clipPath id="a"><path clip-rule="evenodd" d="m0 0h32v32h-32z"/></clipPath><clipPath id="b"><path clip-rule="evenodd" d="m2 6h28v20h-28z"/></clipPath><clipPath id="c"><path clip-rule="evenodd" d="m8 23v-4s-.083-.083-.201-.201c-.512-.512-.799-1.206-.799-1.929 0-.453 0-.87 0-.87l-2-1-1-1v-2s-.041-.081-.106-.211c-.588-1.177-.894-2.474-.894-3.789l4 1h3l-1 1-1 1h2l-1 1-1 1v1h-2l2 2c1.281 0 2.509.509 3.414 1.414.329.329.586.586.586.586s-.304.609-.577 1.155c-.28.56-.649 1.071-1.091 1.513-.884.884-2.332 2.332-2.332 2.332z"/></clipPath><clipPath id="d"><path clip-rule="evenodd" d="m15 9-.5 1 .5 1-1 1h-1v1h1l1-1 1 1v-1h1v1l-1 1h-1-.925c-.688 0-1.348.273-1.835.76-.138.138-.24.24-.24.24v1s.151.151.335.335c.426.426 1.003.665 1.605.665h.06l1 1v.586c0 .905.36 1.774 1 2.414h1l2-5h-1v-2l1 1h1v-1l2 3 1-1 1-1v1h1s.275-.11.643-.257c1.122-.449 1.857-1.535 1.857-2.743l-.5-1 1-1h1v-2l-2-1h-1.764c-1.47 0-2.921.342-4.236 1l-4-1z"/></clipPath><clipPath id="e"><path clip-rule="evenodd" d="m24.714 21c-.189 0-.371-.075-.505-.209s-.209-.316-.209-.505c0 0 0 0 0-.001 0-.182.073-.358.202-.487.508-.508 1.798-1.798 1.798-1.798v1h1v-1s.476.952.771 1.543c.151.3.229.632.229.968v1.489l-1-1z"/></clipPath><metadata/><path d="m0 0h32v32h-32z" fill="none"/><g clip-path="url(#a)"><path d="m32 6c0-.53-.211-1.039-.586-1.414s-.884-.586-1.414-.586c-5.746 0-22.254 0-28 0-.53 0-1.039.211-1.414.586s-.586.884-.586 1.414v20c0 .53.211 1.039.586 1.414s.884.586 1.414.586h28c.53 0 1.039-.211 1.414-.586s.586-.884.586-1.414c0-4.52 0-15.48 0-20z"/><path d="m2 6h28v20h-28z" fill="#2867fa"/><g clip-path="url(#b)"><path d="m1 25h7.186c.539 0 1.075-.087 1.587-.258.889-.296 2.227-.742 2.227-.742l1 1h5c1.315-.658 2.766-1 4.236-1h6.764l-1 1h3v3h-30z" fill="#fff"/><path d="m8 23v-4s-.083-.083-.201-.201c-.512-.512-.799-1.206-.799-1.929 0-.453 0-.87 0-.87l-2-1-1-1v-2s-.041-.081-.106-.211c-.588-1.177-.894-2.474-.894-3.789l4 1h3l-1 1-1 1h2l-1 1-1 1v1h-2l2 2c1.281 0 2.509.509 3.414 1.414.329.329.586.586.586.586s-.304.609-.577 1.155c-.28.56-.649 1.071-1.091 1.513-.884.884-2.332 2.332-2.332 2.332z" fill="#4ecd2b"/><g clip-path="url(#c)" fill="#f4c815"><path d="m5 15v-2h1v1z"/><path d="m6 17h2l1 2v5h-3z"/></g><path d="m15 9-.5 1 .5 1-1 1h-1v1h1l1-1 1 1v-1h1v1l-1 1h-1-.925c-.688 0-1.348.273-1.835.76-.138.138-.24.24-.24.24v1s.151.151.335.335c.426.426 1.003.665 1.605.665h.06l1 1v.586c0 .905.36 1.774 1 2.414h1l2-5h-1v-2l1 1h1v-1l2 3 1-1 1-1v1h1s.275-.11.643-.257c1.122-.449 1.857-1.535 1.857-2.743l-.5-1 1-1h1v-2l-2-1h-1.764c-1.47 0-2.921.342-4.236 1l-4-1z" fill="#4ecd2b"/><g clip-path="url(#d)"><path d="m11 14h4l2-2 2 1h3v1l-2 1v1l-1 2h-2l-1-2h-5z" fill="#f4c815"/></g><path d="m7 8h1l1 1v1h.269c.448 0 .858-.253 1.058-.654.292-.583.673-1.346.673-1.346s-.605-.303-1.15-.575c-.535-.268-1.165-.268-1.7 0-.545.272-1.15.575-1.15.575z" fill="#fff"/><path d="m15 7v-1l-1 1v.5c0 .276.224.5.5.5s.5-.224.5-.5z" fill="#fff"/><path d="m24.714 21c-.189 0-.371-.075-.505-.209s-.209-.316-.209-.505c0 0 0 0 0-.001 0-.182.073-.358.202-.487.508-.508 1.798-1.798 1.798-1.798v1h1v-1s.476.952.771 1.543c.151.3.229.632.229.968v1.489l-1-1z" fill="#4ecd2b"/><g clip-path="url(#e)"><path d="m23 20h4v2h-4z" fill="#f4c815"/></g><g fill="#4ecd2b"><path d="m24 15h1v3c-.552 0-1-.448-1-1 0-.873 0-2 0-2z"/><path d="m26 16h1v1h-1z"/><path d="m27 17h1v1h-1z"/><path d="m2 17h1v1h-1z"/><path d="m28 12.999c0-.552.447-.999.999-.999h.001v1c0 .552-.448 1-1 1z"/><path d="m5 6h2v2h-2z"/></g></g><path d="m14 10c-.552 0-1 .448-1 1h1z" fill="#4ecd2b"/></g></svg>