<svg clip-rule="evenodd" fill-rule="evenodd" stroke-linecap="round" stroke-linejoin="round" stroke-miterlimit="3" viewBox="0 0 32 32" xmlns="http://www.w3.org/2000/svg" xmlns:xlink="http://www.w3.org/1999/xlink"><clipPath id="a"><path clip-rule="evenodd" d="m0 0v32h32v-32z"/></clipPath><metadata/><path d="m0 0v32h32v-32z" fill="none"/><g clip-path="url(#a)"><path d="m9.962 12.991.917-3.555-1.068-1.796c-2.303-.576-6.561-1.64-6.561-1.64.397-1.59 1.682-2.804 3.292-3.11 1.155-.22 2.537-.484 3.817-.727 2.254-.43 4.441 1.007 4.942 3.246l1.411 6.303 11.789 11.789c1.38 1.38 1.38 3.618 0 4.998-.001.001-.001.001-.002.002-1.38 1.38-3.618 1.38-4.998 0l-9.501-9.501h-5.589l.329-1.275-2.648-.677c-2.408-.617-4.092-2.787-4.092-5.272 0-.466 0-.776 0-.776z" fill="none" stroke="#000" stroke-width="4"/><path d="m3.25 6-1.25 5 9 2.25 1.25-5z" fill="none" stroke="#000" stroke-width="4"/><path d="m3.25 5-2.25 6 10 3.25 1.25-7z"/><path d="m8.022 12.505 2.978.745-1.187 4.75-3.01-.771-.459-1.04.734-3.249z" fill="#999"/><path d="m8.022 12.505-1.219 4.724-.711-.181c-2.408-.617-4.092-2.787-4.092-5.272 0-.466 0-.776 0-.776z" fill="#d9d9d9"/><path d="m15.075 4.698c.095.226.17.464.226.711l1.411 6.303 11.789 11.789c1.38 1.38 1.38 3.618 0 4.998-.001.001-.001.001-.002.002-1.38 1.38-3.618 1.38-4.998 0l-9.501-9.501h-2.5l-.619-1.014 3.046-12.442z" fill="#b3b3b3"/><path d="m11.5 19h-3.089s1.699-6.583 2.468-9.564l-1.068-1.796c-2.303-.576-6.561-1.64-6.561-1.64.397-1.59 1.682-2.804 3.292-3.11 1.155-.22 2.537-.484 3.817-.727 2.005-.382 3.957.713 4.716 2.535z" fill="#d9d9d9"/><path d="m14.499 17.499c-.828-.828-.828-2.17 0-2.998.001-.001.001-.001.002-.002.828-.828 2.17-.828 2.998 0 2.502 2.502 10.002 10.002 10.002 10.002l-3 3s-7.5-7.5-10.002-10.002z" fill="#808080"/><path d="m24.499 27.499c-.828-.828-.828-2.17 0-2.998.001-.001.001-.001.002-.002.828-.828 2.17-.828 2.998 0l.002.002c.828.828.828 2.17 0 2.998-.001.001-.001.001-.002.002-.828.828-2.17.828-2.998 0-.001-.001-.001-.001-.002-.002z"/></g></svg>