<svg clip-rule="evenodd" fill-rule="evenodd" stroke-linecap="round" stroke-linejoin="round" stroke-miterlimit="2" viewBox="0 0 32 32" xmlns="http://www.w3.org/2000/svg" xmlns:xlink="http://www.w3.org/1999/xlink"><clipPath id="a"><path clip-rule="evenodd" d="m0 0h32v32h-32z"/></clipPath><clipPath id="b"><path clip-rule="evenodd" d="m0 16h25v11h-25z"/></clipPath><clipPath id="c"><path clip-rule="evenodd" d="m12 12.273s-3.575 1.625-5.206 2.366c-.506.23-.894.661-1.07 1.188-.742 2.226-2.724 8.173-2.724 8.173 1.657.552 3.448-.343 4-2 .5-1.5 1-3 1-3l7-3.5"/></clipPath><clipPath id="d"><path clip-rule="evenodd" d="m3.5 27 4-4h3.5v-4h4v-5h-15v13z"/></clipPath><clipPath id="e"><path clip-rule="evenodd" d="m21 23h-8s-.793.793-1.564 1.564c-.919.919-2.167 1.436-3.467 1.436-.268 0-.535 0-.782 0-.774 0-1.531-.229-2.175-.658-.874-.583-2.012-1.342-2.012-1.342l5-2s1.175-2.35 1.724-3.447c.169-.339.515-.553.894-.553h10.382"/></clipPath><clipPath id="f"><path clip-rule="evenodd" d="m16 23s.927.464 1.889.944c1.388.695 2.919 1.056 4.472 1.056h7.639v-7.012h-2.989s-5.804-4.631-8.573-6.841c-.882-.704-2.085-.853-3.113-.386-1.775.807-4.325 1.966-4.325 1.966l3 3.273s.308-.154.682-.341c.787-.394 1.738-.239 2.36.383l.251.251c.286.286.371.716.217 1.09-.155.373-.52.617-.924.617-.345 0-.586 0-.586 0"/></clipPath><metadata/><path d="m0 0h32v32h-32z" fill="none"/><g clip-path="url(#a)"><g fill="none"><path d="m9 23h13v2h-13z" stroke="#000" stroke-width="4"/><path d="m12 12.273s-3.575 1.625-5.206 2.366c-.506.23-.894.661-1.07 1.188-.742 2.226-2.724 8.173-2.724 8.173 1.657.552 3.448-.343 4-2 .5-1.5 1-3 1-3l7-3.5" stroke="#000" stroke-linejoin="miter" stroke-width="4"/><path d="m21 23h-8s-.793.793-1.564 1.564c-.919.919-2.167 1.436-3.467 1.436-.268 0-.535 0-.782 0-.774 0-1.531-.229-2.175-.658-.874-.583-2.012-1.342-2.012-1.342l5-2s1.175-2.35 1.724-3.447c.169-.339.515-.553.894-.553h10.382" stroke="#000" stroke-width="4"/><path d="m0 16h25v11h-25z"/></g><g clip-path="url(#b)"><path d="m21 23h-8s-.793.793-1.564 1.564c-.919.919-2.167 1.436-3.467 1.436-.268 0-.535 0-.782 0-.774 0-1.531-.229-2.175-.658-.874-.583-2.012-1.342-2.012-1.342l5-2s1.175-2.35 1.724-3.447c.169-.339.515-.553.894-.553h10.382" fill="none" stroke="#000" stroke-width="8"/></g><path d="m16 23s.927.464 1.889.944c1.388.695 2.919 1.056 4.472 1.056h7.639v-7.012h-2.989s-5.804-4.631-8.573-6.841c-.882-.704-2.085-.853-3.113-.386-1.775.807-4.325 1.966-4.325 1.966l1 4.273s1.516-.758 2.682-1.341c.787-.394 1.738-.239 2.36.383l.251.251c.286.286.371.716.217 1.09-.155.373-.52.617-.924.617-.345 0-.586 0-.586 0" fill="none" stroke="#000" stroke-width="4"/><path d="m2 25.5v1.5h1.5l11.5-11.5-1.5-1.5z" fill="none" stroke="#000" stroke-linejoin="miter" stroke-width="4"/><path d="m11 16.5 1.5 1.5 12-12-1.5-1.5z" fill="none" stroke="#000" stroke-width="4"/><path d="m9 23h13v2h-13z" fill="#3e1409"/><path d="m12 12.273s-3.575 1.625-5.206 2.366c-.506.23-.894.661-1.07 1.188-.742 2.226-2.724 8.173-2.724 8.173 1.657.552 3.448-.343 4-2 .5-1.5 1-3 1-3l7-3.5" fill="#7f531d"/><g clip-path="url(#c)" fill="none" stroke="#663a1d"><path d="m3 24s8.649-5.988 11.838-8.195c.673-.466 1.583-.384 2.162.195" stroke-width="4"/><path d="m5 14 6 6" stroke-linecap="square" stroke-linejoin="miter" stroke-miterlimit="1.414"/></g><path d="m3.5 27 4-4h3.5v-4h4v-5h-15v13z" fill="none"/><g clip-path="url(#d)"><path d="m2 25.5v1.5h1.5l11.5-11.5-1.5-1.5z" fill="#fff"/><path d="m21 23h-8s-.793.793-1.564 1.564c-.919.919-2.167 1.436-3.467 1.436-.268 0-.535 0-.782 0-.774 0-1.531-.229-2.175-.658-.874-.583-2.012-1.342-2.012-1.342l5-2s1.175-2.35 1.724-3.447c.169-.339.515-.553.894-.553h10.382" fill="none" stroke="#3e1409" stroke-width="4"/><path d="m14.5 16-2 2h3.5v-2z"/></g><path d="m21 23h-8s-.793.793-1.564 1.564c-.919.919-2.167 1.436-3.467 1.436-.268 0-.535 0-.782 0-.774 0-1.531-.229-2.175-.658-.874-.583-2.012-1.342-2.012-1.342l5-2s1.175-2.35 1.724-3.447c.169-.339.515-.553.894-.553h10.382" fill="#7f531d"/><g style="clip-path:url(#e);fill:none;stroke:#663a1d;stroke-linecap:square;stroke-linejoin:miter;stroke-miterlimit:1.414"><path d="m7 21 5 5"/><path d="m10 17 4 8"/></g><path d="m16 23s.927.464 1.889.944c1.388.695 2.919 1.056 4.472 1.056h7.639v-7.012h-2.989s-5.804-4.631-8.573-6.841c-.882-.704-2.085-.853-3.113-.386-1.775.807-4.325 1.966-4.325 1.966l3 3.273s.308-.154.682-.341c.787-.394 1.738-.239 2.36.383l.251.251c.286.286.371.716.217 1.09-.155.373-.52.617-.924.617-.345 0-.586 0-.586 0" fill="#7f531d"/><g clip-path="url(#f)"><path d="m26 17h5v10h-5z" fill="#663a1d"/><g fill="none" stroke="#663a1d"><path d="m3 24s8.649-5.988 11.838-8.195c.673-.466 1.583-.384 2.162.195" stroke-width="4"/><path d="m15.5 15 7-7" stroke-miterlimit="1.5" stroke-width="4"/><path d="m12 11 3 6" stroke-linecap="square" stroke-linejoin="miter" stroke-miterlimit="1.414"/></g></g><path d="m11.5 16h3l10-10-1.5-1.5z" fill="#fff"/></g></svg>