<svg clip-rule="evenodd" fill-rule="evenodd" stroke-linejoin="round" stroke-miterlimit="2" viewBox="0 0 32 32" xmlns="http://www.w3.org/2000/svg" xmlns:xlink="http://www.w3.org/1999/xlink"><clipPath id="a"><path clip-rule="evenodd" d="m0 0h32v32h-32z"/></clipPath><metadata/><path d="m0 0h32v32h-32z" fill="none"/><g clip-path="url(#a)"><path d="m10.5 28c-.06 0-.12-.003-.179-.008l-.024-.002c-1.339-.08-2.552-.627-3.478-1.48l-2.491 2.49h-4.328c0-1.443 0-2.886 0-4.328l2.113-2.113c-.107-.111-.209-.227-.306-.348l-1.215-1.52 3.404-5.998c.347-.611.848-1.119 1.454-1.475l3.384-1.986.018-.013c.051-.035.103-.068.156-.098l.615-.352 1.53-.898.013.017.061-.035c1.536-.878 3.228-1.31 4.91-1.318l5.449-5.449c.178-.177.386-.321.616-.421.303-.131.637-.185.966-.158.257.022.51.093.74.211.187.095.358.22.506.368.5.5 1 1 1.5 1.5.143.142.264.306.357.484.199.379.271.818.205 1.241-.029.183-.083.363-.161.531-.099.213-.236.405-.401.572l-3.384 3.389c.242.2.475.41.698.63l4.595 4.555h2.177c1.105 0 2 .895 2 2v8.012c0 1.105-.895 2-2 2z"/><path d="m22.5 24h-11.625l-.375 2h12z" fill="#614430"/><path d="m9 19.5c-.054.162-.108.324-.162.486-.031.094-.067.186-.107.277-.167.379-.409.724-.709 1.01-.234.223-.502.411-.793.553-.47.23-.996.341-1.519.32-.441-.018-.877-.13-1.273-.325-.293-.145-.562-.336-.798-.563l.861-1.258 11.5-9 1.086-.414c1.441.163 2.836.716 4.019 1.638l-.105.776-1 5-2 2s-1.164-1.005-1.243-1.015c.333-.057.62-.282.753-.602.154-.374.069-.804-.217-1.09-.085-.085-.169-.169-.251-.251-.622-.622-1.573-.777-2.36-.383z" fill="#b58d71"/><path d="m27 26-1-1v-6l1-1.012h3v8.012z" fill="#b58d71"/><path d="m27 26h-4.639c-.448-.001-.895-.03-1.338-.09-.825-.111-1.635-.326-2.406-.637-.247-.1-.49-.21-.728-.329-.63-.314-1.259-.629-1.889-.944v-5h.586c.058 0 .115-.005.171-.015.079.01.161.015.243.015 1.104 0 2-.896 2-2 0-.552-.224-1.052-.586-1.414-.113-.114-.232-.219-.357-.315l3.048-3.047c.248.193.487.403.715.629l5.18 5.135zm-16.994-13.137-.006-.006s.973-.556 2.219-1.268c1.516-.866 3.221-1.189 4.867-1.003l-4 4c-.182.183-.324.396-.424.63l.251.335-9.274 5.707c-.095-.092-.186-.191-.27-.297-.228-.285-.369-.461-.369-.461s2.002-3.528 2.735-4.819c.174-.306.424-.56.727-.738z" fill="#cbb39c"/><path d="m3.5 27h-1.5v-1.5l3.002-3.002.739.324.116 1.178-.256.899zm6.828-9.826 12.672-12.674 1.5 1.5-11 11-2.5 1z" fill="#fff"/><path d="m13.5 17-7.899 7.899c-.384-.763-.601-1.625-.601-2.537v-.362c0-.63.296-1.222.8-1.6 0 0 2.839-2.129 3.733-2.8.52-.389 1.151-.6 1.8-.6z" fill="#614430"/><path d="m19 19v6h-5s-1.871.624-2.658.886c-.227.075-.464.114-.703.114h-.001c-2.009 0-3.638-1.629-3.638-3.638v-.362s2.839-2.129 3.733-2.8c.173-.13.384-.2.6-.2z" fill="#cbb39c"/></g></svg>