<svg clip-rule="evenodd" fill-rule="evenodd" stroke-linejoin="round" stroke-miterlimit="2" viewBox="0 0 32 32" xmlns="http://www.w3.org/2000/svg" xmlns:xlink="http://www.w3.org/1999/xlink"><clipPath id="a"><path clip-rule="evenodd" d="m0 0h32v32h-32z"/></clipPath><clipPath id="b"><path clip-rule="evenodd" d="m12 12.273s-3.575 1.625-5.206 2.366c-.506.23-.894.661-1.07 1.188-.742 2.226-2.724 8.173-2.724 8.173 1.657.552 3.448-.343 4-2 .5-1.5 1-3 1-3l7-3.5"/></clipPath><clipPath id="c"><path clip-rule="evenodd" d="m3.5 27 4-4h3.5v-4h4v-3h-.5v-2h-12.5v13z"/></clipPath><clipPath id="d"><path clip-rule="evenodd" d="m16 23s.927.464 1.889.944c1.388.695 2.919 1.056 4.472 1.056h7.639v-7.012h-2.989s-5.804-4.631-8.573-6.841c-.882-.704-2.085-.853-3.113-.386-1.775.807-4.325 1.966-4.325 1.966l3 3.273s.308-.154.682-.341c.787-.394 1.738-.239 2.36.383l.251.251c.286.286.371.716.217 1.09-.155.373-.52.617-.924.617-.345 0-.586 0-.586 0"/></clipPath><metadata/><path d="m0 0h32v32h-32z" fill="none"/><g clip-path="url(#a)"><path d="m16.163 8.509s3.421-3.421 5.423-5.423c.375-.375.884-.586 1.414-.586.531 0 1.039.211 1.414.586.481.481 1.019 1.019 1.5 1.5.781.781.781 2.047 0 2.828-1.595 1.596-3.971 3.971-3.971 3.971l5.768 4.603h2.289c1.105 0 2 .895 2 2v7.012c0 1.105-.895 2-2 2-5.557 0-18.302 0-18.302 0-.177.123-.36.236-.551.338-.607.324-1.272.535-1.954.619-.381.048-.768.059-1.151.02-.408-.041-.811-.139-1.192-.29-.279-.11-.547-.248-.798-.411l-1.724 1.724h-4.328v-4.328l1.002-1.002 2.829-8.487c.032-.093.032-.092.067-.184.077-.191.165-.378.269-.556.258-.442.601-.832 1.005-1.146.218-.169.454-.311.7-.435 1.41-.663 2.833-1.297 4.253-1.936 1.482-.678 2.963-1.359 4.453-2.021.426-.181.871-.308 1.331-.369.084-.012.169-.021.254-.027z"/><path d="m9 21h13v4h-13z" fill="#083139"/><path d="m12 12.273s-3.575 1.625-5.206 2.366c-.506.23-.894.661-1.07 1.188-.742 2.226-2.724 8.173-2.724 8.173 1.657.552 3.448-.343 4-2 .5-1.5 1-3 1-3l7-3.5" fill="#1b7a76"/><g clip-path="url(#b)"><path d="m15.898 13.505c.21.007.418.028.624.069.524.104 1.023.323 1.455.637.142.104.282.218.406.344.004.004-.02-.019-.015-.014.099.099.193.2.273.316.22.316.346.694.358 1.079.008.244-.029.489-.11.72-.057.165-.136.322-.234.467-.296.436-.761.742-1.279.841-.205.04-.417.047-.625.02-.243-.03-.479-.105-.695-.221-.093-.049-.178-.108-.264-.169l-.012-.009-11.642 8.059-.087.058c-.091.053-.182.102-.279.143-.226.094-.468.147-.713.154-.174.005-.349-.013-.519-.053-.513-.121-.965-.447-1.242-.895-.11-.178-.192-.374-.241-.577-.058-.238-.072-.486-.041-.728.031-.243.107-.479.223-.694.099-.185.228-.353.379-.498.077-.073.159-.136.244-.198 3.968-2.748 7.906-5.54 11.906-8.242.184-.119.375-.225.577-.311.394-.169.811-.263 1.238-.293.105-.005.209-.007.315-.005z" fill="#13595e" fill-rule="nonzero"/></g><path d="m3.5 27 4-4h3.5v-4h4v-3h-.5v-2h-12.5v13z" fill="none"/><g clip-path="url(#c)"><path d="m2 25.5v1.5h1.5l11.5-11.5-1.5-1.5z" fill="#fff"/><path d="m21 16c.096.003.096 8.997 0 9h-7.172l-1.362 1.362c-.096.094-.095.093-.193.184-.312.275-.644.521-1.006.726-.678.384-1.436.624-2.211.701-.637.063-1.28.015-1.893-.175-.315-.098-.619-.231-.904-.395-.344-.198-.661-.441-.941-.721-.331-.331-.611-.715-.825-1.132-.253-.496-.414-1.038-.47-1.592-.032-.318-.023-.638-.023-.958l.003-.105c.014-.177.041-.348.096-.517.121-.368.349-.698.652-.94.111-.089.23-.16.355-.227l1.403-.702 1.434-2.867c.044-.085.044-.084.092-.168.11-.179.231-.349.374-.504.372-.405.854-.703 1.381-.854.237-.068.477-.101.722-.114 3.496-.062 6.992-.002 10.488-.002z" fill="#083139" fill-rule="nonzero"/><path d="m14.5 16-2 2h3.5v-2z"/></g><path d="m21 23h-8s-1.076 1.076-1.94 1.94c-.679.679-1.599 1.06-2.559 1.06-.001 0-.001 0-.001 0-1.381 0-2.5-1.119-2.5-2.5 0-.299 0-.5 0-.5l2-1s1.175-2.35 1.724-3.447c.169-.339.515-.553.894-.553h10.382" fill="#1b7a76"/><path d="m16 23s.927.464 1.889.944c1.388.695 2.919 1.056 4.472 1.056h7.639v-7.012h-2.989s-5.804-4.631-8.573-6.841c-.882-.704-2.085-.853-3.113-.386-1.775.807-4.325 1.966-4.325 1.966l3 3.273s.308-.154.682-.341c.787-.394 1.738-.239 2.36.383l.251.251c.286.286.371.716.217 1.09-.155.373-.52.617-.924.617-.345 0-.586 0-.586 0" fill="#1b7a76"/><g clip-path="url(#d)" fill="#13595e"><path d="m26 17h5v10h-5z"/><path d="m13.116 14.555 9.384-9.383c.943.942 1.886 1.885 2.828 2.828l-6.76 6.76c.026.031.05.064.073.097.22.316.346.694.358 1.079.008.244-.029.489-.11.72-.057.165-.136.322-.234.467-.296.436-.761.742-1.279.841-.205.04-.417.047-.625.02-.243-.03-.479-.105-.695-.221-.093-.049-.178-.108-.264-.169l-.012-.009-.118.082-.162.161-.029-.029-11.333 7.845-.087.058c-.091.053-.182.102-.279.143-.226.094-.468.147-.713.154-.174.005-.349-.013-.519-.053-.513-.121-.965-.447-1.242-.895-.11-.178-.192-.374-.241-.577-.058-.238-.072-.486-.041-.728.031-.243.107-.479.223-.694.099-.185.228-.353.379-.498.077-.073.159-.136.244-.198 3.753-2.599 7.478-5.237 11.254-7.801z"/></g><path d="m11.5 16h3l10-10-1.5-1.5z" fill="#fff"/></g></svg>