<svg clip-rule="evenodd" fill-rule="evenodd" stroke-linejoin="round" stroke-miterlimit="2" viewBox="0 0 32 32" xmlns="http://www.w3.org/2000/svg" xmlns:xlink="http://www.w3.org/1999/xlink"><clipPath id="a"><path clip-rule="evenodd" d="m0 0h32v32h-32z"/></clipPath><metadata/><path d="m0 0h32v32h-32z" fill="none"/><g clip-path="url(#a)"><path d="m16 1c4.243 0 8.313 1.686 11.314 4.686 3 3.001 4.686 7.071 4.686 11.314v1c0 7.732-6.268 14-14 14-1.325 0-2.675 0-4 0-7.732 0-14-6.268-14-14v-1c0-8.837 7.163-16 16-16z"/><path d="m30 17c0-3.713-1.475-7.274-4.101-9.899-2.625-2.626-6.186-4.101-9.899-4.101-7.732 0-14 6.268-14 14v1c0 6.627 5.373 12 12 12h4c6.627 0 12-5.373 12-12 0-.332 0-.666 0-1z" fill="#fbc546"/><path d="m9.354 24.469c-1.583-1.409-2.715-3.314-3.153-5.469h19.598c-.438 2.155-1.57 4.06-3.153 5.469z" fill="#722245"/><path d="m9.354 24.469.755-1.133c.237-.355.542-.649.891-.87l2 2.814c0 .376-.231.741-.495 1.091-1.169-.436-2.236-1.086-3.151-1.902zm10.141 1.902c-.264-.35-.495-.715-.495-1.091l2-2.814c.349.221.654.515.891.87l.755 1.133c-.915.816-1.982 1.466-3.151 1.902z" fill="#a1256c"/><path d="m19.394 22c.578 0 1.133.166 1.606.466v1.814h-10v-1.814c.473-.3 1.028-.466 1.606-.466z" fill="#dd34a2"/><path d="m21 23h-10v2.28c0 2.607 2.113 4.72 4.72 4.72h.56c2.607 0 4.72-2.113 4.72-4.72 0-1.261 0-2.28 0-2.28z" fill="#dd34a2"/><path d="m10.149 14.063-2.856-2.856c-.39-.39-.39-1.024 0-1.414s1.024-.39 1.414 0l5.144 5.144-5.535 1.845c-.523.175-1.09-.109-1.265-.632-.174-.524.109-1.091.633-1.265zm11.702 0 2.465.822c.524.174.807.741.633 1.265-.175.523-.742.807-1.265.632l-5.535-1.845 5.144-5.144c.39-.39 1.024-.39 1.414 0s.39 1.024 0 1.414z"/></g></svg>