<svg clip-rule="evenodd" fill-rule="evenodd" stroke-linejoin="round" stroke-miterlimit="1.41421" viewBox="0 0 32 32" xmlns="http://www.w3.org/2000/svg" xmlns:xlink="http://www.w3.org/1999/xlink"><clipPath id="a"><path clip-rule="evenodd" d="m0 0h32v32h-32z"/></clipPath><metadata/><path d="m0 0h32v32h-32z" fill="none"/><g clip-path="url(#a)"><path d="m32 8c0-4.418-3.582-8-8-8-4.887 0-11.113 0-16 0-4.418 0-8 3.582-8 8v16c0 4.418 3.582 8 8 8h16c4.418 0 8-3.582 8-8 0-4.887 0-11.113 0-16z"/><path d="m30 8c0-1.591-.632-3.117-1.757-4.243-1.126-1.125-2.652-1.757-4.243-1.757-4.724 0-11.276 0-16 0-1.591 0-3.117.632-4.243 1.757-1.125 1.126-1.757 2.652-1.757 4.243v16c0 1.591.632 3.117 1.757 4.243 1.126 1.125 2.652 1.757 4.243 1.757h16c1.591 0 3.117-.632 4.243-1.757 1.125-1.126 1.757-2.652 1.757-4.243 0-4.724 0-11.276 0-16z" fill="#199d4e"/><g fill="#fff" fill-rule="nonzero"><path d="m9.267 15.726-3.9-6.488h3.038l2.391 4.39 2.352-4.39h2.921l-3.822 6.39 4.272 7.134h-3.057l-2.725-4.998-2.763 4.998h-2.921z"/><path d="m25.761 10.375c.79.758 1.186 1.796 1.186 3.116 0 1.255-.396 2.257-1.186 3.009-.791.751-1.872 1.127-3.244 1.127h-2.489v5.135h-2.568v-13.524h5.057c1.372 0 2.453.379 3.244 1.137zm-1.911 4.508c.353-.327.529-.791.529-1.392 0-.653-.173-1.153-.519-1.499-.347-.346-.833-.52-1.461-.52h-2.371v3.901h2.371c.615 0 1.098-.164 1.451-.49z"/></g></g></svg>