<svg clip-rule="evenodd" fill-rule="evenodd" stroke-linejoin="round" stroke-miterlimit="2" viewBox="0 0 32 32" xmlns="http://www.w3.org/2000/svg"><metadata/><path d="m0 0h32v32h-32z" fill="none"/><path d="m16.097 2c8.24.052 14.903 6.748 14.903 15v1c0 3.183-1.264 6.235-3.515 8.485-2.25 2.251-5.302 3.515-8.485 3.515h-1.74l-.001.001c-1.12 1.148-2.654 1.799-4.257 1.808-1.604.01-3.144-.623-4.278-1.757l-1.576-1.576c-.957-.534-1.844-1.202-2.633-1.991-2.251-2.25-3.515-5.302-3.515-8.485 0-.332 0-.665 0-1 0-8.284 6.716-15 15-15z"/><path d="m25.553 25.553s-20.226-1.59-20.206-1.116c-1.51-1.795-2.347-4.073-2.347-6.437 0-.332 0-.665 0-1 0-7.18 5.82-13 13-13h.084c7.141.045 12.916 5.848 12.916 13v1c0 2.652-1.054 5.196-2.929 7.071-.167.167-.34.328-.518.482z" fill="#fbc546"/><path d="m21.136 21.137c.012.011.024.023.036.035l4.381 4.381c-1.758 1.526-4 2.394-6.338 2.445 0 0 1.864-4.908 1.912-6.87z" fill="#e59a10"/><path d="m5.347 24.437c-.02-.474.017-.953.112-1.428.273-1.369.58-2.901.58-2.901.144-.723.675-1.308 1.381-1.522s1.473-.022 1.994.5l.586.586 1.464-1.465c1.953-1.953 5.119-1.953 7.072 0 .548.549 1.139 1.14 1.687 1.687 1.936 1.937 1.955 5.07.042 7.029l-1.05 1.075c-.071.001-.143.002-.215.002-1.968 0-4.032 0-6 0-2.652 0-5.196-1.054-7.071-2.929-.204-.204-.398-.415-.582-.634z" fill="#7e5108"/><path d="m9.646 22h-1.028c-.347 0-.668-.179-.851-.474-.182-.295-.198-.663-.043-.973.378-.758.862-1.726 1.341-2.683 1.186-2.372 3.61-3.87 6.261-3.87h1.348c2.651 0 5.075 1.498 6.261 3.87.479.957.963 1.925 1.341 2.683.155.31.139.678-.043.973-.183.295-.504.474-.851.474h-1.028c-1.378-1.847-11.33-1.847-12.708 0z" fill="#722245"/><path d="m16.375 19c2.406 0 4.601 1.153 5.979 3h-12.708c1.378-1.847 3.573-3 5.979-3z" fill="#ca3b8f"/><path d="m8 20.5s-.307 1.533-.58 2.901c-.262 1.311.148 2.667 1.094 3.613.495.495 1.063 1.063 1.624 1.624.756.756 1.783 1.178 2.852 1.171 1.069-.006 2.091-.44 2.838-1.205.992-1.016 2.087-2.138 3.006-3.078 1.148-1.176 1.136-3.056-.025-4.217-.548-.548-1.139-1.139-1.688-1.688-1.171-1.171-3.071-1.171-4.242 0-1.363 1.363-2.879 2.879-2.879 2.879z" fill="#fbc546"/><path d="m11.553 10.106-4 2c-.494.246-.694.848-.447 1.341.246.494.848.694 1.341.447l4-2c.494-.246.694-.848.447-1.341-.246-.494-.848-.694-1.341-.447z"/><path d="m19.553 11.894 4 2c.493.247 1.095.047 1.341-.447.247-.493.047-1.095-.447-1.341l-4-2c-.493-.247-1.095-.047-1.341.447-.247.493-.047 1.095.447 1.341z"/></svg>