<svg clip-rule="evenodd" fill-rule="evenodd" stroke-linecap="round" stroke-miterlimit="1.5" viewBox="0 0 32 32" xmlns="http://www.w3.org/2000/svg" xmlns:xlink="http://www.w3.org/1999/xlink"><clipPath id="a"><path clip-rule="evenodd" d="m0 0h32v32h-32z"/></clipPath><metadata/><path d="m0 0h32v32h-32z" fill="none"/><g clip-path="url(#a)"><path d="m16 0c4.243 0 8.313 1.686 11.314 4.686 3 3.001 4.686 7.071 4.686 11.314v2c0 7.732-6.268 14-14 14-1.325 0-2.675 0-4 0-7.732 0-14-6.268-14-14v-2c0-8.837 7.163-16 16-16z"/><path d="m30 16c0-3.713-1.475-7.274-4.101-9.899-2.625-2.626-6.186-4.101-9.899-4.101-7.732 0-14 6.268-14 14v2c0 6.627 5.373 12 12 12h4c6.627 0 12-5.373 12-12z" fill="#fbc546"/><path d="m5.789 12.713c.187.187.441.292.706.292s.519-.105.706-.292c.004-.004.007-.006.007-.006.608-.608 1.432-.95 2.292-.95s1.684.342 2.292.95c0 0 .003.002.007.006.187.187.441.292.706.292s.519-.105.706-.292c.001 0 .001-.001.001-.001.391-.39.391-1.024 0-1.414-.003-.004-.005-.006-.005-.006-.983-.983-2.317-1.535-3.707-1.535s-2.724.552-3.707 1.535c0 0-.002.002-.005.006-.391.39-.391 1.024 0 1.414 0 0 0 .001.001.001z"/><path d="m26.211 12.713c-.187.187-.441.292-.706.292s-.519-.105-.706-.292c-.004-.004-.007-.006-.007-.006-.608-.608-1.432-.95-2.292-.95s-1.684.342-2.292.95c0 0-.003.002-.007.006-.187.187-.441.292-.706.292s-.519-.105-.706-.292c-.001 0-.001-.001-.001-.001-.391-.39-.391-1.024 0-1.414.003-.004.005-.006.005-.006.983-.983 2.317-1.535 3.707-1.535s2.724.552 3.707 1.535c0 0 .002.002.005.006.391.39.391 1.024 0 1.414 0 0 0 .001-.001.001z"/><path d="m24 18-8 4s.449.899 1 2c1.105 2.209 3.791 3.105 6 2 2.209-1.105 3.105-3.791 2-6-.551-1.101-1-2-1-2z" fill="#dd34a2"/><path d="m6 16s.094.117.252.315c2.369 2.961 5.955 4.685 9.747 4.685h.002c3.792 0 7.378-1.724 9.747-4.685.158-.198.252-.315.252-.315" fill="none" stroke="#593604" stroke-width="2"/></g></svg>