<svg clip-rule="evenodd" fill-rule="evenodd" stroke-linejoin="round" stroke-miterlimit="2" viewBox="0 0 32 32" xmlns="http://www.w3.org/2000/svg" xmlns:xlink="http://www.w3.org/1999/xlink"><clipPath id="a"><path clip-rule="evenodd" d="m0 0h32v32h-32z"/></clipPath><metadata/><path d="m0 0h32v32h-32z" fill="none"/><g clip-path="url(#a)"><path d="m16.099 0c4.208.026 8.238 1.709 11.215 4.686 3 3.001 4.686 7.071 4.686 11.314v3c0 .976-.108 1.928-.312 2.844.093.375.141.763.141 1.156 0 1.28-.509 2.508-1.414 3.414-.001 0-.001 0-.001.001-.444.443-.965.792-1.532 1.031-2.384 2.788-5.927 4.554-9.882 4.554h-6c-7.18 0-13-5.82-13-13v-3c0-8.837 7.163-16 16-16z"/><path d="m30 16c0-3.713-1.475-7.274-4.101-9.899-2.625-2.626-6.186-4.101-9.899-4.101-7.732 0-14 6.268-14 14v3c0 6.075 4.925 11 11 11h6c6.075 0 11-4.925 11-11z" fill="#fbc546"/><path d="m9.5 17c1.933 0 3.5-1.567 3.5-3.5v-2c0-1.933-1.567-3.5-3.5-3.5h-.002c-.928 0-1.817.369-2.473 1.025s-1.025 1.545-1.025 2.473v2.002c0 1.933 1.567 3.5 3.5 3.5z" fill="#fff"/><path d="m8 12c0-.53.211-1.039.586-1.414s.884-.586 1.414-.586 1.039.211 1.414.586.586.884.586 1.414v1c0 .53-.211 1.039-.586 1.414s-.884.586-1.414.586-1.039-.211-1.414-.586-.586-.884-.586-1.414c0-.329 0-.671 0-1z"/><path d="m22.5 17c-1.933 0-3.5-1.567-3.5-3.5v-2c0-1.933 1.567-3.5 3.5-3.5h.002c.928 0 1.817.369 2.473 1.025s1.025 1.545 1.025 2.473v2.002c0 1.933-1.567 3.5-3.5 3.5z" fill="#fff"/><path d="m24 12c0-.53-.211-1.039-.586-1.414s-.884-.586-1.414-.586-1.039.211-1.414.586-.586.884-.586 1.414v1c0 .53.211 1.039.586 1.414s.884.586 1.414.586 1.039-.211 1.414-.586.586-.884.586-1.414c0-.329 0-.671 0-1z"/><path d="m24.414 20h2.586c.552 0 1 .448 1 1s-.448 1-1 1h-3.414l-1.586-1.586-2 2-2-2-2 2-2-2-2 2-2-2-1.586 1.586h-2.414c-.552 0-1-.448-1-1s.448-1 1-1h1.586l2.414-2.414 2 2 2-2 2 2 2-2 2 2 2-2z" fill="#593604"/><path d="m22 18h4s1.608 1.608 3 3c.531.531.829 1.25.829 2s-.298 1.469-.829 2c-.531.531-1.25.829-2 .829s-1.469-.298-2-.829c-1.392-1.392-3-3-3-3z" fill="#626262"/></g></svg>