<svg clip-rule="evenodd" fill-rule="evenodd" stroke-linecap="round" stroke-linejoin="round" stroke-miterlimit="5" viewBox="0 0 32 32" xmlns="http://www.w3.org/2000/svg" xmlns:xlink="http://www.w3.org/1999/xlink"><clipPath id="a"><path clip-rule="evenodd" d="m0 0h32v32h-32z"/></clipPath><metadata/><path d="m0 0h32v32h-32z" fill="none"/><g clip-path="url(#a)"><path d="m15.208 13.208c1.257-.725 2.771-.882 4.158-.419.37.123.634.211.634.211s-.874.291-1.679.56c-.651.217-1.257.545-1.793.968l12.472 12.472 1 3-3-1-12.472-12.472c-.423.536-.751 1.142-.968 1.793-.269.805-.56 1.679-.56 1.679s-.088-.264-.211-.634c-.463-1.387-.306-2.901.419-4.158l-3.208-3.208 2-2zm-10.25-6.25c-.148.028-.302.042-.458.042-1.38 0-2.5-1.12-2.5-2.5s1.12-2.5 2.5-2.5 2.5 1.12 2.5 2.5c0 .156-.014.31-.042.458l4.042 4.042-2 2z" fill="none" stroke="#000" stroke-width="4"/><path d="m6 16v-1l9-9h1" fill="none" stroke="#000" stroke-linecap="square" stroke-miterlimit="1.5" stroke-width="6"/><path d="m11 9-5-5-2 2 5 5z" fill="#604934"/><path d="m14 14s.409-.273.925-.617c1.309-.873 2.948-1.092 4.441-.594.37.123.634.211.634.211s-.874.291-1.679.56c-.869.289-1.658.777-2.306 1.425-.331.331-.699.699-1.03 1.03-.648.648-1.136 1.437-1.425 2.306-.269.805-.56 1.679-.56 1.679s-.088-.264-.211-.634c-.498-1.493-.279-3.132.594-4.441.344-.516.617-.925.617-.925z" fill="#98bdd0"/><path d="m12 10 17 17 1 3-3-2-16-16-1-2z" fill="#e1f1f4"/><path d="m10 10 20 20-3-1-17-17z" fill="#98bdd0"/><circle cx="4.5" cy="4.5" fill="#708e94" r="2.5"/><path d="m6 16v-1l9-9h1" fill="none" stroke="#708e94" stroke-linecap="square" stroke-miterlimit="1.5" stroke-width="2"/></g></svg>